<?xml version="1.0" encoding="utf-8" standalone="no"?>
<!DOCTYPE svg PUBLIC "-//W3C//DTD SVG 1.1//EN"
  "http://www.w3.org/Graphics/SVG/1.1/DTD/svg11.dtd">
<!-- Created with matplotlib (https://matplotlib.org/) -->
<svg height="388.8pt" version="1.1" viewBox="0 0 518.4 388.8" width="518.4pt" xmlns="http://www.w3.org/2000/svg" xmlns:xlink="http://www.w3.org/1999/xlink">
 <defs>
  <style type="text/css">
*{stroke-linecap:butt;stroke-linejoin:round;}
  </style>
 </defs>
 <g id="figure_1">
  <g><image xlink:href="../../img/cb/9bandarmadillo_cor_cell.json.cb-50%25.png" width="518.4px" height="388.8px"/></g>

  <g id="patch_1">
   <path d="M 0 388.8 
L 518.4 388.8 
L 518.4 0 
L 0 0 
z
" style="fill:none;"/>
  </g>
  <g id="axes_1">
   <g id="line2d_1">
    <path clip-path="url(#pa5f1d5fdc7)" d="M 113.694036 75.51284 
L 117.562177 82.566501 
L 123.478152 78.470825 
L 124.653761 77.515643 
L 119.444238 83.593415 
L 116.801741 89.318832 
L 120.765489 99.007993 
L 121.205906 102.971741 
L 124.949444 108.256741 
L 126.050484 112.000284 
L 126.931318 117.725695 
L 130.45465 118.826741 
L 137.501318 115.743821 
L 143.887358 114.862992 
L 149.61277 114.422575 
L 154.457353 114.862992 
L 161.944433 116.624655 
L 155.778604 116.184238 
L 150.273398 115.964032 
L 140.804438 116.404449 
L 135.519444 118.166113 
L 130.674861 119.927781 
L 128.472775 122.570278 
L 128.032358 124.99257 
L 128.913193 130.717987 
L 130.895067 136.002986 
L 132.656735 137.76465 
L 137.941735 138.645484 
L 142.786313 138.645484 
L 148.952147 139.526318 
L 155.338187 141.948609 
L 150.934021 141.508192 
L 145.428815 139.966735 
L 137.941735 139.746524 
L 131.115278 140.627358 
L 131.996107 145.692147 
L 131.555695 151.63777 
L 132.656735 156.92277 
L 130.895067 161.106724 
L 127.591946 163.969433 
L 127.371735 168.814015 
L 129.573821 174.319221 
L 130.45465 176.961724 
L 127.371735 173.438392 
L 126.270695 168.814015 
L 126.711112 163.749227 
L 129.133404 161.547141 
L 131.996107 156.92277 
L 131.335484 152.959021 
L 130.45465 148.775061 
L 129.794027 144.15069 
L 128.25257 142.168815 
L 123.848404 143.04965 
L 120.545278 144.811313 
L 117.462364 147.013398 
L 118.783615 145.25173 
L 122.086735 142.609232 
L 124.949444 141.067775 
L 127.591946 138.86569 
L 127.59218 133.134814 
L 126.343904 127.517857 
L 125.641135 120.841534 
L 124.235597 114.692293 
L 123.532823 110.651365 
L 122.084895 107.226758 
L 118.900167 102.98045 
L 114.388464 99.795717 
L 109.345972 99.264932 
L 104.303485 102.449661 
L 102.445721 106.695968 
L 104.568875 111.207671 
L 105.895849 116.250163 
L 106.957423 121.558045 
L 107.753608 126.335143 
L 107.753608 135.623943 
L 106.426639 133.500789 
L 105.365059 123.946594 
L 104.303485 119.965681 
L 102.711116 115.719373 
L 102.711116 112.800035 
L 100.322567 111.738461 
L 95.545475 113.861614 
L 92.891531 117.577132 
L 91.564557 123.150415 
L 89.441403 128.192902 
L 87.318249 135.093153 
L 86.522069 139.87025 
L 91.033772 145.974317 
L 101.914936 158.978635 
L 105.099664 163.490338 
L 99.526387 156.590086 
L 93.953105 150.220625 
L 89.176013 144.381953 
L 85.46049 141.728009 
L 81.744972 144.116558 
L 78.825633 148.362866 
L 77.498664 154.201538 
L 79.356423 160.040215 
L 83.868126 161.897974 
L 88.114433 164.021128 
L 91.033772 166.940461 
L 87.849039 165.348097 
L 83.337336 162.428763 
L 79.356423 162.428763 
L 78.294849 166.675071 
L 77.764059 172.779138 
L 78.294849 179.148599 
L 80.152608 185.518061 
L 80.418003 189.764369 
L 85.99128 189.498974 
L 92.891531 188.172005 
L 96.076259 185.252666 
L 96.076259 184.721876 
L 99.398032 183.39317 
L 102.445721 183.527602 
L 104.568875 185.119971 
L 107.355518 187.508515 
L 109.611367 190.029764 
L 110.938341 192.816402 
L 108.151698 190.295158 
L 105.895849 187.641215 
L 104.170785 185.916151 
L 102.047631 184.323787 
L 98.995598 184.589182 
L 96.739749 186.181546 
L 94.74929 188.039305 
L 94.3512 189.366279 
L 94.3512 191.622128 
L 95.943564 194.674161 
L 94.74929 193.214492 
L 92.758831 191.091338 
L 90.502982 190.162458 
L 87.583644 189.764369 
L 84.398916 189.897064 
L 81.877667 190.162458 
L 80.152608 192.020217 
L 79.489123 194.674161 
L 79.091028 197.858894 
L 78.825633 201.574412 
L 79.091028 205.28993 
L 79.489123 208.209269 
L 80.816092 210.730512 
L 84.133521 209.801633 
L 89.043313 208.209269 
L 93.422321 207.545784 
L 98.066718 207.943874 
L 101.649541 208.872753 
L 100.986057 210.465118 
L 97.005139 210.730512 
L 90.237587 211.526697 
L 86.920159 212.588271 
L 83.071941 213.384456 
L 82.266529 217.242741 
L 82.563837 222.891606 
L 84.05038 228.540471 
L 87.023466 231.513557 
L 89.699244 235.081259 
L 94.456181 232.702788 
L 98.321196 233.0001 
L 92.077716 239.24358 
L 92.077716 243.405902 
L 95.645417 247.865526 
L 101.591589 250.541305 
L 109.024305 250.838612 
L 117.051636 251.73054 
L 123.889736 249.649382 
L 123.592428 246.081675 
L 120.91665 240.135503 
L 117.051636 233.594715 
L 115.565092 228.837779 
L 117.348948 223.486221 
L 120.91665 219.026592 
L 119.430107 222.594299 
L 117.646256 226.459308 
L 117.646256 230.621629 
L 119.430107 235.378566 
L 122.403193 241.919359 
L 125.376279 247.270911 
L 128.349365 249.94669 
L 136.674003 246.973603 
L 141.133633 243.108589 
L 144.998647 240.432816 
L 151.539434 231.513557 
L 154.215213 229.432394 
L 153.620598 233.892023 
L 150.647512 241.919359 
L 144.404032 247.270911 
L 137.268624 251.433233 
L 131.619759 258.271328 
L 126.565514 265.406736 
L 125.078971 272.542144 
L 124.484351 279.677552 
L 125.970894 288.299503 
L 128.646673 295.732213 
L 132.511687 299.29992 
L 136.376696 297.813377 
L 139.64709 299.002612 
L 142.620176 306.138015 
L 148.042386 313.01202 
L 155.942548 320.034385 
L 165.159399 324.86226 
L 174.376256 331.006829 
L 180.959723 338.468093 
L 193.248867 341.101482 
L 205.976904 346.368255 
L 218.266042 347.246051 
L 229.238491 346.807153 
L 238.455348 341.54038 
L 250.744486 345.05156 
L 260.839139 348.562746 
L 274.006074 347.68495 
L 287.173009 345.490459 
L 295.512069 342.857075 
L 303.851129 339.345889 
L 312.19019 334.518015 
L 317.895861 330.129033 
L 326.234921 326.178954 
L 335.451777 323.106667 
L 346.424221 316.962098 
L 349.935407 309.939732 
L 356.079976 303.795163 
L 357.396671 294.139408 
L 356.079976 281.411372 
L 357.835569 279.216881 
L 359.591156 289.311534 
L 363.102342 298.528385 
L 369.685809 290.628223 
L 372.319198 290.18933 
L 374.952582 277.461288 
L 374.952582 267.36664 
L 370.783055 258.369233 
L 368.588564 253.102455 
L 362.54318 246.058228 
L 353.749027 240.78174 
L 348.912246 235.065541 
L 345.394586 222.753732 
L 349.351953 228.03022 
L 354.628446 234.625834 
L 361.224054 236.824373 
L 358.146106 230.22876 
L 355.068153 226.7111 
L 350.231367 219.675779 
L 350.671073 213.959579 
L 354.188734 208.683092 
L 357.706394 206.044845 
L 354.628446 210.881626 
L 351.110786 215.2787 
L 351.550492 220.115486 
L 353.749027 224.072853 
L 357.266687 225.831686 
L 362.103473 224.51256 
L 365.621133 219.236072 
L 372.656454 209.122798 
L 375.2947 205.605138 
L 373.975574 212.200752 
L 370.018207 217.037533 
L 365.181426 220.555193 
L 361.663766 227.590513 
L 360.784347 232.867006 
L 363.862301 240.342034 
L 368.699087 245.178814 
L 375.2947 246.058228 
L 380.131481 239.462615 
L 381.890309 233.74642 
L 384.968262 228.03022 
L 386.727095 221.874314 
L 388.485922 214.838993 
L 389.805048 207.803673 
L 392.883001 217.037533 
L 391.563876 226.271393 
L 388.046215 233.306713 
L 383.649141 239.022908 
L 380.571188 245.178814 
L 384.088848 249.136182 
L 392.443294 249.575888 
L 402.996275 246.058228 
L 411.350716 241.661154 
L 416.627209 233.74642 
L 420.144869 226.271393 
L 421.024283 220.115486 
L 418.386037 215.718412 
L 412.23013 214.399286 
L 408.272763 210.441919 
L 404.315396 206.044845 
L 409.591889 206.924259 
L 416.627209 210.441919 
L 422.343404 211.321333 
L 423.222818 204.725719 
L 423.66253 197.250692 
L 422.343404 189.775665 
L 420.584576 177.463851 
L 416.627209 179.222684 
L 411.790423 184.938884 
L 412.392182 183.133602 
L 409.591889 188.896251 
L 408.71247 193.073471 
L 404.755103 197.030839 
L 406.074228 193.513178 
L 408.052909 188.676397 
L 408.932323 183.399905 
L 406.953642 180.541805 
L 403.216129 179.882244 
L 398.819049 182.300637 
L 393.762415 187.577125 
L 388.266069 194.392592 
L 390.464608 190.435225 
L 395.081536 184.059465 
L 399.258761 180.321951 
L 404.535249 175.265317 
L 406.074228 170.208677 
L 407.393349 173.946191 
L 410.471302 177.68371 
L 415.08823 177.243998 
L 421.024283 173.946191 
L 424.761797 169.549117 
L 425.421357 163.173357 
L 424.102236 157.677016 
L 422.343404 153.499795 
L 419.485304 153.939502 
L 414.648523 158.336576 
L 415.308083 155.258623 
L 419.925016 151.960816 
L 422.343404 147.343889 
L 419.925016 140.968128 
L 416.627209 134.592368 
L 413.769109 131.734268 
L 409.811742 135.911489 
L 406.953642 142.067396 
L 405.414663 147.783595 
L 403.655835 153.499795 
L 399.478615 161.194676 
L 401.237442 156.797597 
L 405.19481 144.046082 
L 406.513935 138.989442 
L 409.811742 133.273248 
L 414.208816 129.535734 
L 415.74779 124.259241 
L 414.868376 118.103334 
L 413.109549 112.606993 
L 411.130863 107.990061 
L 408.052909 105.571673 
L 404.315396 106.01138 
L 402.116856 110.408454 
L 401.677149 115.9048 
L 399.258761 122.060701 
L 399.258761 116.56436 
L 400.577882 111.068014 
L 401.897003 106.890793 
L 405.414663 101.834159 
L 403.655835 96.997373 
L 399.038903 92.820152 
L 394.421975 90.621613 
L 390.024901 93.259859 
L 386.507241 96.557666 
L 385.188115 102.713573 
L 387.166802 109.968747 
L 383.868995 108.209914 
L 379.471921 110.84816 
L 379.691774 116.124653 
L 379.032214 121.620995 
L 378.592507 127.557048 
L 379.691774 132.393829 
L 383.429288 134.592368 
L 390.244755 134.812222 
L 379.252067 135.691635 
L 379.252067 139.868861 
L 378.372648 146.024763 
L 377.932942 151.740962 
L 380.571188 155.918183 
L 384.528555 156.577743 
L 379.032214 158.336576 
L 379.032214 164.712336 
L 377.932942 171.30795 
L 374.854988 177.024144 
L 373.975574 176.144731 
L 377.053528 169.988824 
L 377.932942 164.492483 
L 378.152795 158.776283 
L 378.152795 153.939502 
L 377.273381 149.322569 
L 377.932942 143.606375 
L 377.273381 136.790908 
L 373.975574 135.032075 
L 368.039521 134.812222 
L 361.443913 135.471782 
L 355.068153 137.670322 
L 357.266687 135.691635 
L 363.642447 134.592368 
L 371.337328 133.712954 
L 376.613821 129.755587 
L 378.372648 124.698948 
L 377.932942 118.982753 
L 378.152795 114.145967 
L 375.2947 111.068014 
L 369.5785 108.869479 
L 362.323327 107.3305 
L 356.16742 107.770207 
L 349.351953 110.408454 
L 342.316632 112.826847 
L 347.373267 109.748893 
L 354.188734 107.110647 
L 362.103473 106.231233 
L 371.337328 107.990061 
L 380.131481 107.770207 
L 382.330021 105.791526 
L 384.308702 100.95474 
L 385.627827 95.238545 
L 386.727095 91.281173 
L 385.896245 84.914666 
L 383.251643 81.939489 
L 386.670283 82.866525 
L 392.478867 80.458091 
L 394.462281 72.099404 
L 394.745628 66.149152 
L 395.312317 59.915552 
L 394.462281 53.823626 
L 391.912173 49.148431 
L 389.078723 44.331562 
L 384.261849 41.498107 
L 380.295016 37.814615 
L 375.761488 33.847782 
L 369.527894 29.880949 
L 363.294295 26.197458 
L 355.360624 23.364003 
L 347.14361 21.663931 
L 338.076561 19.963859 
L 329.859543 20.247206 
L 321.642529 20.813895 
L 312.008786 22.797314 
L 304.07512 25.347422 
L 296.424795 29.030913 
L 292.741304 34.414471 
L 289.907849 42.348143 
L 289.907849 48.581742 
L 293.59134 51.981886 
L 297.708346 54.269109 
L 293.40877 52.764255 
L 287.242941 51.002592 
L 281.077107 47.479261 
L 276.974582 46.61557 
L 282.29937 46.61557 
L 288.215346 43.430043 
L 290.490722 36.148841 
L 287.305196 27.047339 
L 282.29937 21.586435 
L 274.56309 16.580609 
L 264.551438 16.125537 
L 258.18039 17.490759 
L 249.989038 16.580609 
L 243.162907 16.125537 
L 237.178067 16.265396 
L 227.624676 17.72815 
L 222.45699 20.221213 
L 217.6787 22.269049 
L 214.720715 25.682111 
L 211.986259 31.149692 
L 211.876493 36.148841 
L 211.990261 41.723512 
L 213.127952 45.250343 
L 218.133778 48.890942 
L 221.327868 48.130445 
L 216.776295 50.121758 
L 215.455044 56.728004 
L 214.133793 62.453421 
L 212.37213 55.406758 
L 212.812547 48.800507 
L 207.08713 45.277175 
L 199.60005 45.717592 
L 187.268387 47.479261 
L 178.460055 49.681341 
L 167.009227 54.085507 
L 159.522141 58.049255 
L 149.832981 62.893838 
L 141.905484 66.41717 
L 133.977981 71.261752 
L 124.912541 77.305384 
L 130.759355 72.554849 
L 139.860857 66.638874 
L 148.962359 61.17797 
L 159.884161 55.717072 
L 170.805962 52.076468 
L 182.182841 45.70542 
L 194.924947 44.795265 
L 205.391671 41.609744 
L 200.385846 34.783614 
L 191.284343 28.867638 
L 165.800136 28.867638 
L 154.423263 31.143015 
L 143.501456 33.873464 
L 133.944881 39.334367 
L 126.208601 44.795265 
L 122.568002 50.256169 
L 117.107099 56.172144 
L 113.4665 65.273647 
L 113.694036 75.51284 
L 113.694036 75.51284 
" style="fill:none;stroke:#000000;stroke-linecap:square;stroke-width:1.5;"/>
   </g>
   <g id="line2d_2">
    <path clip-path="url(#pa5f1d5fdc7)" d="M 380.696081 79.513634 
L 376.207079 75.665918 
L 367.398753 71.702169 
L 357.26917 67.738421 
L 348.418905 66.474096 
L 348.560335 66.432499 
L 355.643971 66.999188 
L 365.844403 70.399332 
L 375.478146 74.082818 
L 378.67613 77.113094 
L 380.696081 79.513634 
" style="fill:none;stroke:#000000;stroke-linecap:square;stroke-width:1.5;"/>
   </g>
   <g id="line2d_3">
    <path clip-path="url(#pa5f1d5fdc7)" d="M 344.778358 67.544844 
L 337.890844 69.940501 
L 329.082513 69.500084 
L 319.833764 64.215089 
L 302.217102 55.847175 
L 300.338325 55.189603 
L 304.925156 56.232066 
L 310.875408 58.498827 
L 317.109002 61.615624 
L 323.625948 65.582463 
L 329.292854 68.132571 
L 336.659831 68.982607 
L 343.743466 67.849224 
L 344.778358 67.544844 
" style="fill:none;stroke:#000000;stroke-linecap:square;stroke-width:1.5;"/>
   </g>
   <g id="line2d_4">
    <path clip-path="url(#pa5f1d5fdc7)" d="M 302.445343 116.574324 
L 301.893724 116.712229 
L 298.032416 114.505768 
L 293.067876 112.023498 
L 289.068663 110.64446 
L 281.621852 109.817037 
L 275.002465 110.506556 
L 272.520195 111.471884 
L 275.14037 115.333191 
L 279.691196 120.297732 
L 284.517832 126.64131 
L 287.551721 130.916332 
L 290.033991 132.019565 
L 294.722722 133.950221 
L 300.05979 136.547996 
L 308.237307 140.845413 
L 309.616344 142.224455 
L 313.201847 147.74061 
L 310.443767 144.706726 
L 304.10019 139.742185 
L 297.480802 136.432491 
L 289.206568 133.398602 
L 284.517832 134.501835 
L 278.174254 137.811529 
L 272.933904 139.742185 
L 264.935479 143.603493 
L 261.901595 146.913186 
L 263.556442 149.94707 
L 271.279057 150.498689 
L 277.62264 151.877727 
L 291.964643 158.772924 
L 296.10176 163.461655 
L 291.137219 159.876151 
L 285.069451 156.014844 
L 279.001677 152.98096 
L 270.727443 151.050303 
L 257.764478 150.498689 
L 251.14509 150.774494 
L 242.595047 152.153536 
L 234.320812 153.808383 
L 225.770769 157.118077 
L 219.702995 159.600347 
L 213.359417 164.013269 
L 209.2223 167.322962 
L 211.152957 164.289078 
L 216.117497 160.427771 
L 221.357842 157.669691 
L 227.425615 154.084188 
L 234.320812 152.153536 
L 243.146661 151.050303 
L 252.524128 150.22288 
L 258.040282 146.637377 
L 255.558012 144.98253 
L 239.009543 143.327683 
L 233.217579 141.672836 
L 226.322383 138.914762 
L 222.185265 137.811529 
L 214.46265 140.017989 
L 207.291644 143.051879 
L 200.396452 147.4648 
L 196.810949 149.395457 
L 200.948066 144.706726 
L 205.912606 141.397032 
L 211.70457 139.190566 
L 217.772344 136.156682 
L 221.909461 132.846988 
L 224.391731 127.882447 
L 226.874002 123.469521 
L 231.011119 117.677557 
L 232.94177 113.816249 
L 230.735309 111.058169 
L 226.874002 110.78236 
L 216.393301 113.54044 
L 208.394877 116.850133 
L 203.706146 119.884018 
L 197.638372 125.124368 
L 191.294789 133.398602 
L 187.433482 139.190566 
L 191.570599 130.088908 
L 197.638372 123.193711 
L 204.533569 117.401747 
L 211.70457 113.26463 
L 221.909461 110.506556 
L 231.286923 109.127513 
L 243.146661 106.645243 
L 256.385435 105.266206 
L 266.038712 105.542015 
L 279.001677 106.921052 
L 288.103335 109.403323 
L 296.653379 112.713016 
L 302.445343 116.574324 
" style="fill:none;stroke:#000000;stroke-linecap:square;stroke-width:1.5;"/>
   </g>
   <g id="line2d_5">
    <path clip-path="url(#pa5f1d5fdc7)" d="M 306.030841 97.267781 
L 301.617919 95.061315 
L 297.756607 92.027431 
L 293.343685 88.993547 
L 286.172679 86.511276 
L 278.450063 84.856429 
L 271.279057 83.753196 
L 261.074172 82.925773 
L 251.972514 83.753196 
L 241.491814 84.58062 
L 230.4595 86.511276 
L 220.530419 89.54516 
L 214.186841 93.958087 
L 207.291644 98.095204 
L 200.672256 103.611359 
L 197.914182 103.335549 
L 204.25776 98.646818 
L 216.944921 90.096774 
L 223.840112 86.787081 
L 235.148236 83.753196 
L 246.456354 81.82254 
L 258.040282 80.719312 
L 269.348406 82.09835 
L 280.932334 84.029006 
L 291.688838 87.614504 
L 299.687263 92.579045 
L 306.030841 97.267781 
L 306.030841 97.267781 
" style="fill:none;stroke:#000000;stroke-linecap:square;stroke-width:1.5;"/>
   </g>
   <g id="line2d_6">
    <path clip-path="url(#pa5f1d5fdc7)" d="M 281.460868 123.562734 
L 278.439752 119.746585 
L 275.259628 116.884472 
L 272.079503 113.068322 
L 270.171428 110.365219 
L 264.447203 108.616148 
L 259.677016 108.139132 
L 253.634784 108.139132 
L 248.228572 108.298135 
L 241.391306 109.888198 
L 236.939132 111.160248 
L 234.554035 114.817394 
L 231.373911 118.633538 
L 228.193791 123.721738 
L 225.808695 128.173913 
L 223.264595 132.626087 
L 224.218632 136.601241 
L 228.829816 137.714287 
L 232.963973 140.258387 
L 237.098135 142.166462 
L 243.617394 142.96149 
L 249.023601 143.915528 
L 254.747825 143.279503 
L 261.267079 142.802487 
L 266.037266 141.689441 
L 272.079503 139.781366 
L 278.12174 136.283228 
L 282.573915 133.580125 
L 284.640993 130.718013 
L 283.20994 128.014909 
L 281.460868 123.562734 
" style="fill:none;stroke:#000000;stroke-linecap:square;stroke-width:1.5;"/>
   </g>
  </g>
 </g>
 <defs>
  <clipPath id="pa5f1d5fdc7">
   <rect height="388.8" width="518.4" x="0" y="0"/>
  </clipPath>
 </defs>
</svg>
