<?xml version="1.0" encoding="utf-8" standalone="no"?>
<!DOCTYPE svg PUBLIC "-//W3C//DTD SVG 1.1//EN"
  "http://www.w3.org/Graphics/SVG/1.1/DTD/svg11.dtd">
<!-- Created with matplotlib (https://matplotlib.org/) -->
<svg height="253.44pt" version="1.1" viewBox="0 0 518.4 253.44" width="518.4pt" xmlns="http://www.w3.org/2000/svg" xmlns:xlink="http://www.w3.org/1999/xlink">
 <defs>
  <style type="text/css">
*{stroke-linecap:butt;stroke-linejoin:round;}
  </style>
 </defs>
 <g id="figure_1">
  <g><image xlink:href="../../img/cb/americanmole_cor_cell.json.cb-50%25.png" width="518.4px" height="253.44px"/></g>

  <g id="patch_1">
   <path d="M 0 253.44 
L 518.4 253.44 
L 518.4 0 
L 0 0 
z
" style="fill:none;"/>
  </g>
  <g id="axes_1">
   <g id="line2d_1">
    <path clip-path="url(#p8b69a33cd4)" d="M 172.366626 26.033732 
L 162.358147 27.910324 
L 156.415614 30.72521 
L 150.160314 34.791151 
L 145.468841 38.857097 
L 141.402895 42.923043 
L 139.839069 47.927283 
L 144.843308 50.429402 
L 150.160314 52.618756 
L 154.22626 55.433637 
L 157.666674 59.499583 
L 159.2305 65.129355 
L 159.2305 70.446356 
L 161.419853 74.512302 
L 168.30068 75.450595 
L 174.55598 77.952715 
L 182.687867 83.582487 
L 177.996393 81.705895 
L 170.490034 77.639949 
L 164.234734 76.076128 
L 157.353907 72.635709 
L 155.164554 66.380415 
L 154.851788 58.248523 
L 148.283722 55.433637 
L 142.653955 52.618756 
L 135.147595 51.993223 
L 132.019948 56.059169 
L 130.768888 64.503823 
L 131.081649 73.574008 
L 133.271008 79.516541 
L 135.773128 87.961194 
L 139.839069 94.842021 
L 145.781602 95.78032 
L 152.349668 93.903728 
L 159.2305 94.52926 
L 165.485794 95.78032 
L 167.675153 97.656907 
L 162.358147 95.467554 
L 155.164554 95.154788 
L 149.222021 97.03138 
L 143.905015 99.5335 
L 144.530542 104.537739 
L 147.032662 110.480273 
L 150.473081 115.484512 
L 154.22626 118.924926 
L 161.73262 116.11004 
L 156.415614 119.863219 
L 156.72838 122.990872 
L 158.604967 129.246166 
L 163.296441 134.250406 
L 170.490034 137.065292 
L 177.0581 136.439764 
L 181.749573 130.497226 
L 186.128285 122.052573 
L 186.441046 116.11004 
L 185.815519 111.418566 
L 185.502753 106.10156 
L 180.185752 107.665387 
L 183.000633 105.476033 
L 188.004872 103.912207 
L 192.070818 102.348381 
L 194.572938 98.28244 
L 193.321878 102.03562 
L 188.943166 104.850501 
L 186.753813 108.290914 
L 187.066579 113.60792 
L 189.568699 119.237692 
L 194.572938 115.171746 
L 198.013352 111.418566 
L 200.202705 110.480273 
L 206.458005 109.229213 
L 214.589897 108.916447 
L 224.28561 110.480273 
L 233.043029 110.793034 
L 251.808922 112.669626 
L 260.253575 111.418566 
L 267.134407 111.731333 
L 279.645007 112.982393 
L 288.402426 112.35686 
L 291.217307 111.1058 
L 298.4109 113.920686 
L 305.917259 116.735572 
L 308.106618 118.924926 
L 309.983205 124.554693 
L 312.172559 128.933405 
L 316.551271 132.373818 
L 322.806571 132.373818 
L 328.912934 130.23659 
L 327.185278 131.748286 
L 323.744864 135.501466 
L 323.432098 141.756765 
L 324.683158 148.637597 
L 329.06187 152.078011 
L 335.942697 151.765244 
L 344.38735 148.637597 
L 352.832003 143.633358 
L 359.087303 139.254645 
L 364.091542 134.250406 
L 367.531956 126.744046 
L 367.531956 120.801513 
L 361.902189 118.924926 
L 355.021357 117.673866 
L 349.39159 116.422806 
L 353.457536 116.422806 
L 359.712835 117.3611 
L 365.655368 117.986632 
L 369.721309 114.85898 
L 370.659608 108.916447 
L 365.342602 107.665387 
L 358.461775 104.537739 
L 353.144769 101.097321 
L 346.88947 100.159027 
L 340.321404 102.03562 
L 334.066105 101.410087 
L 330.625691 99.220734 
L 336.255463 100.159027 
L 342.510763 99.5335 
L 348.14053 98.595201 
L 350.329883 95.154788 
L 350.64265 98.595201 
L 354.395829 101.410087 
L 359.087303 103.599441 
L 364.404309 106.414327 
L 370.659608 105.788799 
L 373.161728 101.097321 
L 375.351081 92.652668 
L 377.853201 86.710135 
L 375.351081 80.767601 
L 371.597902 74.825068 
L 363.466015 63.252763 
L 360.025596 67.631475 
L 354.395829 77.639949 
L 350.017117 80.454835 
L 353.770297 76.076128 
L 356.585183 70.13359 
L 357.836243 62.939996 
L 357.210715 56.371936 
L 352.519237 50.742164 
L 345.325644 46.363457 
L 339.38311 40.733684 
L 334.066105 39.169863 
L 330.938457 43.861337 
L 328.749104 50.429402 
L 328.749104 56.371936 
L 331.876751 60.750643 
L 335.942697 64.191056 
L 337.506523 68.882535 
L 336.880991 73.574008 
L 334.378871 78.891009 
L 331.563985 83.582487 
L 327.81081 86.710135 
L 324.995924 86.710135 
L 328.749104 83.582487 
L 332.189517 79.516541 
L 334.378871 75.137829 
L 335.629931 70.13359 
L 334.066105 65.754882 
L 327.185278 57.310229 
L 327.498044 51.993223 
L 328.123571 46.363457 
L 330.625691 41.671983 
L 332.502284 36.042211 
L 326.55975 30.72521 
L 322.493804 27.597558 
L 315.925739 23.218851 
L 309.670439 18.840139 
L 303.102378 17.276312 
L 295.283253 14.148665 
L 287.776893 11.333779 
L 280.896066 7.893366 
L 272.451413 5.391246 
L 263.381228 5.07848 
L 254.623808 6.955072 
L 245.240862 7.893366 
L 236.170676 9.457192 
L 227.726023 12.272078 
L 220.845191 15.399725 
L 213.651598 19.465671 
L 204.894179 22.280552 
L 198.951645 22.280552 
L 190.819759 25.095438 
L 186.441046 28.848618 
L 183.000633 34.791151 
L 179.872986 41.984744 
L 178.934692 48.865576 
L 178.934692 55.120876 
L 180.811279 62.627235 
L 178.934692 58.874056 
L 177.370866 51.680457 
L 177.683632 45.737924 
L 179.872986 38.544331 
L 183.313399 32.289031 
L 186.441046 26.972031 
L 183.313399 24.157145 
L 178.621926 24.469911 
L 172.366626 26.033732 
L 172.366626 26.033732 
" style="fill:none;stroke:#000000;stroke-linecap:square;stroke-width:1.5;"/>
   </g>
  </g>
 </g>
 <defs>
  <clipPath id="p8b69a33cd4">
   <rect height="253.44" width="518.4" x="0" y="0"/>
  </clipPath>
 </defs>
</svg>
