<?xml version="1.0" encoding="utf-8" standalone="no"?>
<!DOCTYPE svg PUBLIC "-//W3C//DTD SVG 1.1//EN"
  "http://www.w3.org/Graphics/SVG/1.1/DTD/svg11.dtd">
<!-- Created with matplotlib (https://matplotlib.org/) -->
<svg height="611.28pt" version="1.1" viewBox="0 0 725.76 611.28" width="725.76pt" xmlns="http://www.w3.org/2000/svg" xmlns:xlink="http://www.w3.org/1999/xlink">
 <defs>
  <style type="text/css">
*{stroke-linecap:butt;stroke-linejoin:round;}
  </style>
 </defs>
 <g id="figure_1">
  <g><image xlink:href="../../img/cb/basenji_cor_cell.json.cb-50%25.png" width="725.76px" height="611.28px"/></g>

  <g id="patch_1">
   <path d="M 0 611.28 
L 725.76 611.28 
L 725.76 0 
L 0 0 
z
" style="fill:none;"/>
  </g>
  <g id="axes_1">
   <g id="line2d_1">
    <path clip-path="url(#pa29a4b2146)" d="M 211.046327 283.408431 
L 213.593998 285.590457 
L 214.226847 288.280059 
L 213.752207 290.020395 
L 211.220814 289.703971 
L 208.531206 288.438274 
L 206.316237 287.64721 
L 203.468413 286.856154 
L 197.456347 286.53973 
L 195.399587 286.856154 
L 193.02641 288.280059 
L 190.96965 289.071122 
L 189.071098 289.387547 
L 186.856129 289.229338 
L 181.476912 289.387547 
L 178.312671 290.020395 
L 176.730543 290.811459 
L 177.046967 292.235371 
L 181.00228 297.931012 
L 184.008312 302.044525 
L 186.539705 304.892349 
L 189.229314 311.853687 
L 186.539705 306.47447 
L 184.64116 303.943077 
L 178.787304 295.557827 
L 177.046967 293.342851 
L 174.831999 291.602523 
L 172.14239 291.127883 
L 169.136358 290.969667 
L 161.067532 292.393579 
L 159.327203 293.184643 
L 160.11826 296.823524 
L 166.288541 311.379047 
L 168.661725 317.707536 
L 171.984182 320.238936 
L 175.781271 320.397145 
L 172.61703 321.188209 
L 169.927422 324.194241 
L 169.769206 326.092786 
L 169.294573 323.244969 
L 169.610997 321.029993 
L 168.661725 318.182176 
L 167.712446 315.808992 
L 166.446749 313.277599 
L 164.706413 309.164078 
L 161.383956 300.462405 
L 159.327203 296.348884 
L 158.536139 294.292124 
L 156.162955 293.659276 
L 153.631562 293.9757 
L 152.049434 294.608555 
L 150.15089 296.03246 
L 147.935921 296.190676 
L 145.720945 296.03246 
L 143.347761 297.139948 
L 141.291008 298.56386 
L 139.234247 300.778829 
L 138.126759 302.360949 
L 137.968551 304.101285 
L 141.923856 306.632678 
L 145.246313 308.214806 
L 150.62553 309.955142 
L 154.106195 310.58799 
L 154.897259 312.011895 
L 151.73301 314.068656 
L 150.62553 315.334352 
L 147.777705 318.815024 
L 146.670225 320.713569 
L 147.144857 323.086753 
L 149.676257 325.301729 
L 151.574802 327.516698 
L 152.998714 330.680939 
L 153.947986 333.370548 
L 155.213683 336.37658 
L 155.213683 337.484068 
L 158.219715 337.958708 
L 161.542172 337.642284 
L 165.022844 337.009428 
L 167.870661 336.060156 
L 170.56027 334.31982 
L 173.091663 333.054123 
L 175.148423 332.263067 
L 178.629095 331.630219 
L 183.533672 329.731667 
L 189.703953 326.725634 
L 192.55177 324.985298 
L 195.241379 324.194241 
L 197.930987 322.770329 
L 199.354899 321.029993 
L 201.095228 318.656809 
L 203.784837 317.391112 
L 207.107293 316.758264 
L 209.955118 316.44184 
L 211.37903 316.91648 
L 208.372997 317.232904 
L 204.575901 317.865752 
L 202.360932 318.4986 
L 200.778804 319.922512 
L 199.829532 321.504633 
L 197.930987 323.403177 
L 196.507075 324.35245 
L 194.608531 324.985298 
L 193.02641 325.776362 
L 191.286074 327.042058 
L 189.862162 327.516698 
L 182.267976 332.104851 
L 181.635128 333.054123 
L 183.217248 333.370548 
L 185.274009 334.31982 
L 188.280041 336.693004 
L 189.862162 338.43334 
L 190.653226 340.490101 
L 192.393555 343.970773 
L 193.342834 346.185742 
L 194.608531 347.609654 
L 198.089196 348.717135 
L 204.734109 351.723167 
L 207.423718 351.564959 
L 211.062606 350.457471 
L 213.119359 349.666407 
L 213.752207 347.767862 
L 214.068638 344.920045 
L 215.492543 341.122949 
L 216.283607 340.331885 
L 214.701486 345.078254 
L 214.543271 347.135014 
L 214.068638 349.666407 
L 215.808967 351.090319 
L 218.340367 351.881383 
L 221.029976 351.881383 
L 226.409193 348.242502 
L 228.149522 347.451438 
L 231.155554 346.34395 
L 234.161587 345.078254 
L 236.534771 343.812557 
L 238.275107 342.072221 
L 239.382595 340.806525 
L 240.173652 339.066189 
L 239.382595 337.009428 
L 238.116892 334.478036 
L 236.851195 332.737699 
L 234.478011 332.104851 
L 231.471978 331.788427 
L 228.78237 330.522731 
L 226.883825 329.098819 
L 230.997346 330.997363 
L 233.845163 331.630219 
L 236.851195 331.788427 
L 239.69902 330.206307 
L 242.388628 327.991331 
L 245.711085 324.35245 
L 248.875326 324.194241 
L 255.520239 324.510665 
L 247.451414 324.82709 
L 244.761812 325.776362 
L 243.021476 327.674906 
L 238.749747 331.630219 
L 239.22438 333.370548 
L 239.540804 335.269099 
L 240.8065 338.116916 
L 241.75578 339.540828 
L 244.287173 339.382613 
L 249.349966 337.642284 
L 251.881358 336.37658 
L 250.783392 337.810007 
L 248.726632 338.917495 
L 244.138479 340.183191 
L 242.081719 340.183191 
L 240.816022 341.132464 
L 239.86675 342.081743 
L 237.177141 345.087776 
L 234.329317 347.935593 
L 232.747197 348.252017 
L 229.266524 348.568441 
L 225.469435 349.834137 
L 224.045523 350.783417 
L 222.938035 352.049113 
L 224.520163 352.998386 
L 222.779827 353.156594 
L 221.672339 352.365537 
L 219.932002 352.523746 
L 219.140946 352.84017 
L 217.40061 354.264082 
L 216.451337 355.37157 
L 217.558818 355.846203 
L 219.932002 355.37157 
L 221.197706 354.738722 
L 222.779827 354.738722 
L 226.735132 354.89693 
L 231.323285 353.947658 
L 234.329317 352.84017 
L 237.33535 351.890898 
L 244.613112 348.093808 
L 249.043056 345.562408 
L 252.523729 343.031016 
L 255.68797 340.341407 
L 257.586514 337.493583 
L 258.694002 334.645766 
L 259.010426 332.589006 
L 261.85825 328.317277 
L 263.123947 325.627668 
L 264.389643 323.570908 
L 264.547859 321.988787 
L 269.76886 318.349907 
L 273.715362 315.957685 
L 277.987098 314.533773 
L 285.739492 314.217349 
L 289.378373 313.426293 
L 293.017261 312.002381 
L 296.972566 310.103836 
L 300.136807 308.205284 
L 309.154905 304.091771 
L 312.477361 304.724619 
L 314.534122 305.673891 
L 317.22373 307.414227 
L 317.065522 309.154564 
L 314.850546 309.787412 
L 311.528089 311.844165 
L 309.945969 313.109869 
L 308.680272 314.375565 
L 308.661954 321.318584 
L 308.978378 325.432105 
L 309.453011 327.647074 
L 311.826195 330.653106 
L 314.832228 333.184499 
L 318.154684 334.450203 
L 320.844293 333.184499 
L 323.692117 331.602379 
L 326.539934 330.494898 
L 331.602727 329.38741 
L 335.874456 329.229194 
L 329.704182 330.336682 
L 325.274238 331.760594 
L 322.742837 333.659139 
L 321.002509 334.766627 
L 320.686084 336.506956 
L 321.793565 339.35478 
L 323.850325 342.360813 
L 326.381726 344.259357 
L 329.862391 346.316117 
L 333.026639 345.525054 
L 336.349096 344.101149 
L 337.456576 342.677237 
L 338.405849 340.304052 
L 341.253673 340.304052 
L 344.57613 339.82942 
L 349.480707 340.145844 
L 354.068867 340.620476 
L 345.683618 340.9369 
L 343.785066 341.253325 
L 341.411881 342.202597 
L 339.355128 343.151876 
L 337.298368 345.050421 
L 336.19088 347.107181 
L 335.716247 348.372878 
L 337.614792 350.587846 
L 341.886521 352.644607 
L 348.68965 354.543151 
L 355.018139 355.334215 
L 360.713781 355.492431 
L 369.573663 355.334215 
L 374.47824 354.859575 
L 378.749976 354.226727 
L 382.230641 352.328183 
L 385.711314 351.220695 
L 388.400922 350.746062 
L 390.299467 349.954998 
L 395.678684 343.151876 
L 396.94438 340.304052 
L 396.311532 337.772659 
L 394.729412 336.348747 
L 392.356227 335.399475 
L 389.824827 333.026291 
L 387.451643 331.918803 
L 385.553098 330.178466 
L 384.129186 328.279922 
L 382.705281 327.330649 
L 376.851424 326.697801 
L 381.756009 326.539586 
L 383.812762 326.85601 
L 387.926282 326.539586 
L 385.39489 327.330649 
L 385.236674 328.596346 
L 387.609858 330.811322 
L 390.774107 332.868075 
L 393.621924 335.083051 
L 396.311532 337.456235 
L 398.842925 337.29802 
L 402.165382 335.715899 
L 403.905718 334.133779 
L 405.487838 332.077018 
L 407.069966 329.070986 
L 407.228174 325.906737 
L 407.069966 321.951432 
L 406.595326 318.787191 
L 404.538566 315.939367 
L 402.481806 313.724399 
L 400.108629 311.509423 
L 395.995108 309.610878 
L 398.368292 308.819814 
L 400.583261 307.712333 
L 405.227806 307.674979 
L 409.024895 309.257099 
L 421.049025 315.585588 
L 425.47897 317.642349 
L 430.383547 320.173749 
L 434.655284 321.439445 
L 440.509133 325.078326 
L 444.148014 327.767934 
L 449.685447 330.457543 
L 454.431808 332.514303 
L 456.963208 334.096424 
L 460.127449 338.209944 
L 462.184209 342.165249 
L 465.804772 348.568441 
L 468.587408 350.308777 
L 470.960586 350.150562 
L 471.435225 348.726657 
L 470.644162 347.460953 
L 471.593441 346.511681 
L 473.650194 349.359505 
L 476.339803 352.681962 
L 478.871203 355.529779 
L 480.927963 355.529779 
L 483.933996 354.89693 
L 485.674325 353.631234 
L 488.522149 352.681962 
L 489.787845 353.947658 
L 488.047509 353.631234 
L 486.307173 354.105874 
L 484.566844 354.89693 
L 482.826508 355.846203 
L 482.035444 356.953691 
L 481.71902 358.852235 
L 483.933996 361.067211 
L 488.047509 364.231452 
L 493.268518 366.130004 
L 497.223822 366.604637 
L 500.388063 366.130004 
L 502.1284 365.33894 
L 502.761248 363.28218 
L 502.1284 361.383635 
L 500.546279 355.846203 
L 500.071639 352.523746 
L 501.811976 356.953691 
L 502.286615 359.801515 
L 502.919464 362.491116 
L 503.235888 365.180725 
L 504.818008 365.655364 
L 506.558344 365.022516 
L 509.722585 364.073244 
L 510.988282 360.592571 
L 510.988282 362.965756 
L 510.355434 364.706092 
L 511.146497 365.971788 
L 512.886834 367.3957 
L 515.101802 368.186757 
L 517.633202 368.028549 
L 520.639235 366.446428 
L 522.53778 365.180725 
L 524.59454 363.598604 
L 526.018445 362.332908 
L 525.860236 359.801515 
L 526.809509 361.858268 
L 528.866269 361.700059 
L 531.081238 360.908996 
L 532.97979 359.643299 
L 535.511182 359.010451 
L 538.358999 358.694027 
L 541.048608 357.586539 
L 543.263584 356.004418 
L 544.845704 353.947658 
L 545.320344 351.890898 
L 543.738216 348.410233 
L 540.732184 346.195257 
L 537.726151 344.771352 
L 534.08727 342.8728 
L 530.448389 341.448895 
L 526.334869 340.024983 
L 522.854204 339.233919 
L 520.797443 338.126431 
L 515.734651 336.702526 
L 516.993714 335.677245 
L 517.78477 333.778701 
L 517.78477 328.399484 
L 518.25941 326.026299 
L 519.050474 322.862058 
L 519.999746 319.69781 
L 522.214715 315.900721 
L 523.796835 314.002169 
L 525.378963 311.154352 
L 526.64466 308.464743 
L 524.587899 313.211112 
L 522.372931 317.324625 
L 520.790803 319.539601 
L 519.84153 322.545634 
L 519.208682 325.077027 
L 518.892258 327.608427 
L 518.417626 334.886188 
L 519.050474 335.993676 
L 522.372931 337.575797 
L 525.220747 338.366854 
L 528.543204 339.632557 
L 531.707452 341.214678 
L 534.238845 341.847526 
L 537.561302 343.113222 
L 540.409126 345.011767 
L 543.731583 347.384951 
L 546.737615 350.07456 
L 550.851129 350.5492 
L 554.964649 349.916352 
L 557.337834 349.125288 
L 559.236378 346.752103 
L 560.818506 342.955014 
L 561.609563 339.948981 
L 563.508107 336.151885 
L 564.140963 332.671213 
L 564.932019 330.456244 
L 569.09241 321.903264 
L 569.725258 319.530079 
L 569.250618 317.78975 
L 567.510289 316.682262 
L 565.137105 315.416566 
L 561.1818 313.992654 
L 558.333976 313.20159 
L 556.277215 312.252318 
L 552.163702 310.986621 
L 550.73979 310.195558 
L 548.366606 309.720925 
L 546.942693 309.562709 
L 545.676997 311.61947 
L 542.82918 318.739023 
L 540.455996 325.383936 
L 538.71566 331.237786 
L 537.133539 335.351306 
L 535.551411 337.091642 
L 539.190299 328.548177 
L 541.879901 320.162935 
L 544.253085 313.67623 
L 545.835213 310.511982 
L 546.468061 308.297013 
L 545.044149 306.240253 
L 542.196332 304.658132 
L 538.71566 304.025284 
L 536.342475 303.867068 
L 531.91253 304.499924 
L 530.646834 305.607404 
L 529.064713 306.240253 
L 527.799017 306.082044 
L 527.324377 303.70886 
L 526.375105 302.917796 
L 524.951193 301.968524 
L 523.369072 301.335675 
L 521.628736 300.386403 
L 520.204824 298.804283 
L 517.928826 299.531436 
L 515.848871 300.954064 
L 510.153237 302.377976 
L 506.672564 302.852608 
L 504.932228 302.377976 
L 504.615804 300.795848 
L 503.982956 299.213727 
L 505.565076 297.156967 
L 513.633902 297.631607 
L 519.804183 297.631607 
L 522.335576 298.106239 
L 525.025184 299.846576 
L 528.189425 301.270488 
L 530.720825 301.586912 
L 532.935794 300.954064 
L 534.834346 299.846576 
L 534.881215 297.948031 
L 532.349815 294.467359 
L 531.242335 292.25239 
L 530.767695 289.088142 
L 530.767695 286.398533 
L 531.084119 283.708932 
L 531.558759 281.335747 
L 531.242335 289.720997 
L 531.875183 291.461326 
L 533.140879 294.467359 
L 536.937968 300.163 
L 539.944001 300.795848 
L 542.63361 300.479424 
L 544.057522 297.631607 
L 544.69037 294.941998 
L 545.481434 292.568814 
L 548.012827 287.506021 
L 546.430706 292.094174 
L 545.006794 295.574847 
L 544.215737 298.739095 
L 542.950034 300.795848 
L 542.950034 302.21976 
L 545.006794 303.960096 
L 547.063554 304.434729 
L 548.329251 304.434729 
L 548.171042 305.225793 
L 550.069587 306.491489 
L 554.341316 309.022889 
L 559.720533 311.554282 
L 564.941541 313.294618 
L 568.422207 313.294618 
L 570.953607 312.66177 
L 570.320751 310.13037 
L 569.055055 307.598977 
L 567.947574 304.909368 
L 567.631143 302.21976 
L 569.687903 303.643672 
L 572.693936 304.909368 
L 574.434272 304.909368 
L 571.744663 305.384008 
L 570.953607 305.858641 
L 570.320751 307.440761 
L 571.270031 312.18713 
L 572.852151 315.034954 
L 579.022425 317.408139 
L 590.571923 320.57238 
L 593.103316 319.623107 
L 594.843652 317.408139 
L 595.792924 315.509587 
L 595.634716 313.769251 
L 592.470467 309.655737 
L 591.837619 306.966129 
L 593.894379 310.446794 
L 595.634716 312.66177 
L 598.482533 314.560314 
L 600.381077 313.452826 
L 601.804989 309.972161 
L 603.86175 300.795848 
L 604.494598 297.789815 
L 605.127446 292.72703 
L 604.811022 290.986693 
L 602.754262 290.037421 
L 599.115381 288.613509 
L 597.05862 288.929933 
L 594.843652 289.404566 
L 592.628683 290.512054 
L 591.046555 291.619542 
L 588.831587 294.625574 
L 590.413707 291.303118 
L 590.888347 289.246357 
L 590.730131 287.189597 
L 589.62265 284.816413 
L 587.882314 283.234292 
L 586.458402 283.234292 
L 582.661306 284.499988 
L 580.446337 283.86714 
L 577.756728 282.601444 
L 574.276063 281.493956 
L 570.795391 279.595411 
L 568.105782 278.329715 
L 565.890814 276.431163 
L 570.953607 279.120771 
L 575.225336 281.177532 
L 579.022425 282.126804 
L 582.028457 281.968596 
L 587.724099 280.861108 
L 588.198738 279.278987 
L 588.673371 281.652171 
L 590.730131 284.34178 
L 592.945107 287.031388 
L 595.318284 287.347813 
L 596.900412 286.873173 
L 601.330349 288.613509 
L 603.86175 289.879205 
L 606.393142 290.512054 
L 607.566275 288.71468 
L 607.882242 282.526734 
L 607.565818 279.204277 
L 606.774754 276.35646 
L 605.509058 274.457916 
L 603.926937 273.508636 
L 599.496993 272.875788 
L 596.9656 271.926516 
L 596.016328 271.135459 
L 599.655208 271.451883 
L 601.711969 270.977243 
L 601.870177 269.236907 
L 601.553753 266.547299 
L 600.920905 265.123394 
L 599.338784 262.908418 
L 597.123808 260.851658 
L 594.90884 259.585961 
L 593.010295 259.269537 
L 590.795319 259.111329 
L 585.732526 259.902385 
L 582.568285 261.484513 
L 580.353316 261.326297 
L 576.55622 261.168082 
L 572.600915 261.800937 
L 574.815884 260.060601 
L 577.505492 258.953113 
L 579.404037 258.794905 
L 582.884709 258.320265 
L 587.789286 258.003841 
L 588.896774 256.579929 
L 586.52359 254.206744 
L 584.46683 251.517136 
L 578.929404 246.928983 
L 572.917339 243.290102 
L 570.227731 242.499038 
L 568.012762 242.182614 
L 565.323153 242.657254 
L 562.949969 243.448318 
L 561.526057 244.872222 
L 561.051417 246.296134 
L 561.684272 251.675351 
L 562.158905 253.732112 
L 561.684272 255.94708 
L 561.367848 252.782839 
L 560.734993 249.935015 
L 560.576784 247.720047 
L 559.785721 245.663286 
L 558.520024 244.39759 
L 555.672207 244.239374 
L 552.824383 244.872222 
L 550.767623 245.821495 
L 549.027294 247.087198 
L 547.919806 248.352895 
L 547.128742 250.726079 
L 547.445166 253.573896 
L 547.445166 256.105296 
L 546.812318 257.212777 
L 546.654109 255.788872 
L 546.812318 254.206744 
L 546.812318 252.149984 
L 546.654109 250.409655 
L 546.337685 248.985743 
L 545.388406 247.878255 
L 544.122709 246.770774 
L 542.224165 246.137926 
L 540.800253 245.030438 
L 538.427068 244.239374 
L 536.686739 243.92295 
L 534.946403 243.92295 
L 533.680707 244.39759 
L 532.731427 245.505071 
L 531.782155 247.403622 
L 531.149307 252.3082 
L 531.465731 248.352895 
L 531.940371 245.505071 
L 532.889643 243.448318 
L 532.573219 240.758709 
L 530.832883 239.493005 
L 528.776122 239.176581 
L 527.035786 239.493005 
L 525.928305 240.442285 
L 527.035786 238.069101 
L 527.510426 235.854125 
L 526.719362 233.797364 
L 523.871545 231.265971 
L 520.707297 230.158483 
L 517.38484 229.683851 
L 514.220599 229.842059 
L 511.056351 229.683851 
L 516.751992 229.209211 
L 519.599816 229.209211 
L 523.238697 229.525635 
L 526.719362 231.265971 
L 528.617914 234.746644 
L 534.155339 241.075133 
L 537.161372 242.815462 
L 542.382373 244.555798 
L 545.546621 245.188646 
L 548.869078 244.39759 
L 551.400471 243.290102 
L 553.140807 241.233342 
L 553.140807 239.809429 
L 550.767623 237.119828 
L 547.445166 234.588428 
L 539.376341 229.525635 
L 537.003163 227.310667 
L 540.958468 229.842059 
L 544.122709 232.215244 
L 548.869078 235.063068 
L 552.033326 237.119828 
L 554.564719 239.651221 
L 556.463264 238.385525 
L 557.570752 235.695916 
L 556.14684 232.848092 
L 553.931871 230.474908 
L 548.394438 228.576363 
L 545.071982 227.152451 
L 542.382373 226.361394 
L 539.85098 225.253906 
L 538.110644 223.51357 
L 535.73746 222.406089 
L 530.674674 222.722513 
L 528.617914 222.564298 
L 526.719362 221.773241 
L 525.295457 220.665753 
L 523.871545 220.032905 
L 521.973 220.032905 
L 520.074449 219.716481 
L 517.543056 219.558265 
L 512.954903 220.032905 
L 519.599816 218.608993 
L 520.549088 217.185081 
L 518.808752 215.444752 
L 516.119144 213.071567 
L 513.113111 211.647655 
L 510.107078 210.540167 
L 506.626413 210.381959 
L 503.462165 210.540167 
L 498.380343 215.370042 
L 497.747487 217.901435 
L 498.696767 221.223899 
L 498.854975 223.438868 
L 497.905703 220.907467 
L 497.589279 219.167139 
L 496.956431 217.585011 
L 496.007158 216.00289 
L 494.425031 215.528258 
L 492.526486 215.211834 
L 493.633974 214.104346 
L 495.690734 212.680434 
L 498.380343 211.572946 
L 499.804248 210.465465 
L 500.120672 208.408705 
L 499.329615 206.351944 
L 498.538551 204.769824 
L 496.956431 202.713063 
L 494.266822 201.605575 
L 492.368278 200.339879 
L 489.836877 200.023455 
L 486.514421 200.656303 
L 484.141236 200.814519 
L 481.926268 201.447367 
L 479.553083 202.871279 
L 477.338115 204.769824 
L 475.755987 206.668368 
L 474.332082 208.725129 
L 474.015658 210.940097 
L 476.705266 213.629706 
L 480.976995 218.376075 
L 477.812747 215.844682 
L 475.755987 213.94613 
L 474.173866 212.838649 
L 473.066378 212.205801 
L 471.958898 212.047585 
L 470.218561 212.680434 
L 468.952865 214.262554 
L 467.212529 215.686466 
L 462.9408 220.749259 
L 462.149736 222.647804 
L 459.301919 227.394172 
L 458.194431 230.874845 
L 457.403367 229.609141 
L 456.61231 228.659869 
L 455.663038 228.818085 
L 459.301919 224.86278 
L 460.567615 222.33138 
L 462.782584 215.370042 
L 463.573648 213.787922 
L 465.472193 212.047585 
L 468.794649 208.250489 
L 469.585713 206.826584 
L 469.743922 205.56088 
L 469.427497 204.611608 
L 471.800682 204.769824 
L 474.015658 203.820551 
L 476.230627 202.713063 
L 478.603811 200.656303 
L 479.553083 198.12491 
L 479.394868 195.59351 
L 476.388835 193.694966 
L 476.072411 192.271054 
L 475.439563 190.688933 
L 473.699234 189.265021 
L 471.800682 188.473964 
L 470.218561 187.999325 
L 468.478225 187.999325 
L 467.054313 187.841116 
L 465.155768 190.530725 
L 464.839344 192.587478 
L 464.839344 190.530725 
L 465.946832 188.632173 
L 466.421465 187.050052 
L 463.890072 185.151508 
L 461.833312 184.04402 
L 458.669071 183.411171 
L 455.821247 183.252956 
L 452.97343 183.411171 
L 451.074878 184.360444 
L 449.967397 186.10078 
L 449.967397 187.841116 
L 450.44203 190.214293 
L 451.549518 194.644238 
L 452.49879 196.700998 
L 451.549518 198.599543 
L 449.967397 199.390607 
L 448.701693 200.814519 
L 447.594213 202.238424 
L 446.961364 203.662336 
L 447.119573 206.193736 
L 446.803149 207.775856 
L 446.486725 210.465465 
L 446.012092 211.88937 
L 445.379237 215.528258 
L 445.379237 219.958195 
L 445.537452 222.489595 
L 445.379237 223.755292 
L 444.746388 218.850714 
L 444.746388 216.47753 
L 444.58818 214.42077 
L 445.221028 212.364009 
L 445.695661 209.832617 
L 446.803149 206.03552 
L 446.803149 204.295184 
L 446.170301 202.396639 
L 445.379237 201.922 
L 443.638908 201.763791 
L 440.632875 202.396639 
L 444.58818 201.130943 
L 447.594213 200.023455 
L 449.650973 198.441334 
L 450.600245 197.017422 
L 450.600245 195.118878 
L 449.809181 193.062117 
L 448.385269 192.112845 
L 446.803149 186.417204 
L 445.537452 183.727596 
L 439.95315 181.196195 
L 437.896397 180.405139 
L 434.890364 179.455867 
L 432.991813 179.455867 
L 431.093268 179.614075 
L 429.98578 179.930499 
L 428.561875 181.670835 
L 428.561875 183.56938 
L 428.245451 185.62614 
L 428.561875 187.841116 
L 429.98578 190.847149 
L 432.358964 193.378542 
L 432.991813 194.644238 
L 431.409692 193.694966 
L 430.46042 192.587478 
L 429.194723 191.638205 
L 428.403659 190.056085 
L 427.770811 186.575412 
L 427.770811 182.620108 
L 428.087235 180.879771 
L 427.137963 179.614075 
L 425.081203 178.981227 
L 422.866234 179.139442 
L 420.809474 179.139442 
L 416.854169 179.455867 
L 415.272041 179.930499 
L 414.16456 180.563347 
L 413.373496 181.512627 
L 412.582433 182.778323 
L 412.740648 184.202228 
L 415.113833 187.524692 
L 413.215288 185.784356 
L 410.52568 184.04402 
L 406.728583 181.829051 
L 402.615062 179.772291 
L 397.552277 177.557315 
L 392.17306 175.025922 
L 383.471386 172.019889 
L 373.671028 170.809866 
L 367.500747 170.493434 
L 359.431921 170.493434 
L 351.204888 171.442714 
L 348.198855 172.075562 
L 344.876398 173.024835 
L 341.712157 174.290531 
L 337.598637 175.714443 
L 334.117964 177.454779 
L 331.270147 178.56226 
L 325.574506 180.935444 
L 332.377635 177.454779 
L 342.977854 173.183043 
L 347.566007 171.600922 
L 351.995951 170.65165 
L 356.109465 170.018802 
L 367.500747 169.702378 
L 379.366669 170.968074 
L 385.06231 171.917347 
L 389.175823 173.341259 
L 394.080408 175.239803 
L 399.459618 177.771203 
L 403.41493 179.827956 
L 407.212019 181.568293 
L 409.585203 183.15042 
L 411.32554 183.625053 
L 412.116603 182.675781 
L 412.749452 181.568293 
L 414.647996 179.986172 
L 414.96442 179.195108 
L 419.394365 179.195108 
L 422.242182 178.878684 
L 422.595961 177.706016 
L 421.646689 176.440312 
L 421.172049 174.858191 
L 420.855625 173.276071 
L 419.589928 172.010375 
L 418.166016 171.219311 
L 417.37496 170.270038 
L 416.267472 169.16255 
L 415.318199 168.055062 
L 413.736079 167.422214 
L 412.470375 167.10579 
L 411.04647 167.264006 
L 410.571831 170.111823 
L 409.306134 166.789366 
L 407.40759 162.675853 
L 405.825462 159.986244 
L 402.186581 156.505572 
L 398.5477 153.974179 
L 393.326699 151.126355 
L 388.896754 149.544234 
L 381.618993 148.278538 
L 376.714415 147.962114 
L 371.968047 147.803898 
L 362.000676 147.803898 
L 350.925818 149.069594 
L 347.603362 149.860658 
L 344.597329 150.809931 
L 341.907721 152.392051 
L 337.319567 155.398084 
L 332.731407 158.878756 
L 330.832862 160.619092 
L 326.402918 164.416182 
L 328.776102 160.935516 
L 332.098559 157.61306 
L 332.889623 156.505572 
L 327.510406 158.72054 
L 324.662589 160.302668 
L 322.764037 162.201213 
L 321.340125 164.416182 
L 319.44158 165.998309 
L 317.38482 168.371494 
L 315.784701 169.637524 
L 314.043334 170.744671 
L 313.25227 172.168583 
L 313.885118 176.282104 
L 314.043334 178.338864 
L 313.885118 180.712048 
L 313.094054 182.135953 
L 312.475576 182.681674 
L 312.953837 181.941232 
L 313.661911 178.400851 
L 313.189862 174.624446 
L 312.00974 172.972268 
L 308.469359 172.264195 
L 305.873076 172.02817 
L 303.748849 172.02817 
L 300.680517 172.736243 
L 298.55629 173.680348 
L 297.848217 174.86047 
L 297.140137 177.220722 
L 297.612193 180.289054 
L 299.028339 184.301483 
L 297.376168 183.59341 
L 296.904112 181.941232 
L 296.904112 179.817005 
L 296.668088 177.456753 
L 295.487966 175.332519 
L 294.071812 173.916373 
L 291.711561 173.444317 
L 289.115278 173.208292 
L 286.519002 173.680348 
L 283.686695 174.624446 
L 281.562468 175.568551 
L 279.910289 176.748673 
L 279.202216 179.344956 
L 278.966192 182.885337 
L 280.146314 187.605839 
L 281.326443 189.021993 
L 285.574897 189.966091 
L 290.295407 191.618269 
L 293.835788 193.506471 
L 295.251934 195.394674 
L 292.18361 193.034422 
L 286.046946 190.438147 
L 282.742597 189.966091 
L 281.090419 189.966091 
L 279.910289 192.090325 
L 279.674265 194.450576 
L 280.382338 196.338779 
L 282.270541 199.407111 
L 284.866824 201.295313 
L 287.699124 202.947484 
L 285.102848 201.767362 
L 281.562468 199.879159 
L 280.382338 201.531337 
L 280.382338 204.363638 
L 281.090419 208.848123 
L 281.798492 217.581055 
L 281.798492 222.773614 
L 280.618363 226.313995 
L 281.090419 215.928877 
L 280.618363 210.97235 
L 280.618363 207.431969 
L 280.146314 204.599662 
L 279.674265 201.059281 
L 279.674265 198.935054 
L 279.438241 196.810827 
L 278.494136 194.214552 
L 277.550038 190.674171 
L 276.841958 189.258017 
L 277.077989 186.897766 
L 277.077989 184.301483 
L 277.314014 181.705207 
L 276.605933 179.344956 
L 274.953755 178.400851 
L 271.88543 178.164827 
L 264.096596 179.108924 
L 262.680442 179.58098 
L 261.028264 180.289054 
L 259.140062 181.469183 
L 257.723908 183.121361 
L 257.015835 184.537507 
L 259.61211 186.661742 
L 263.152491 187.841864 
L 261.618329 187.645175 
L 259.887471 187.015775 
L 258.15662 186.071677 
L 256.897819 185.756973 
L 255.32432 186.701078 
L 254.380215 187.959879 
L 253.593463 189.69073 
L 253.593463 191.893637 
L 255.166968 194.41124 
L 257.841924 195.984738 
L 260.988928 196.614139 
L 265.709431 196.299442 
L 263.97858 197.715589 
L 262.562426 198.659694 
L 261.933026 200.233192 
L 261.460977 201.96405 
L 261.775674 203.852253 
L 263.506531 205.740455 
L 264.607981 208.730107 
L 265.394734 211.562415 
L 267.125584 216.125565 
L 266.968232 218.013768 
L 265.237382 219.115225 
L 265.709431 217.699071 
L 265.394734 212.978561 
L 263.034475 207.78601 
L 262.090378 206.369856 
L 260.516872 204.639005 
L 260.202175 202.750803 
L 260.516872 201.334649 
L 261.618329 198.030293 
L 260.359527 197.558244 
L 255.796369 195.355338 
L 253.593463 193.624487 
L 252.177316 192.837734 
L 250.446458 192.680382 
L 248.400904 193.309783 
L 247.142102 194.253888 
L 246.198004 195.355338 
L 246.040652 197.400892 
L 246.355356 199.131743 
L 247.456806 201.334649 
L 246.512701 201.96405 
L 246.198004 200.705248 
L 245.725956 199.289095 
L 245.2539 197.400892 
L 244.15245 195.51269 
L 243.051 194.883289 
L 240.848094 194.41124 
L 239.030863 192.633222 
L 238.086758 190.74502 
L 236.670605 189.486218 
L 235.097106 188.856817 
L 233.051551 189.486218 
L 231.005997 190.430323 
L 229.275146 191.374421 
L 227.858993 192.947926 
L 226.600191 194.521425 
L 225.656093 196.094931 
L 224.23994 199.084583 
L 223.610539 196.724331 
L 223.453187 194.521425 
L 222.666434 192.161173 
L 222.037033 190.74502 
L 219.991486 189.64357 
L 218.260628 188.227416 
L 215.900377 187.91272 
L 214.012174 188.070072 
L 211.337219 189.328873 
L 209.606368 191.059724 
L 206.774061 193.262623 
L 205.672611 194.521425 
L 205.04321 195.622882 
L 205.515259 197.353732 
L 203.31236 197.353732 
L 197.175703 198.927238 
L 195.130149 199.871336 
L 192.455193 202.860988 
L 191.983145 207.896195 
L 193.399298 210.57115 
L 195.75955 211.515255 
L 199.535955 211.829952 
L 201.896206 211.6726 
L 207.088765 208.210899 
L 203.469712 211.515255 
L 203.31236 213.718154 
L 204.728513 215.134308 
L 209.606368 216.078406 
L 212.753372 215.449005 
L 215.900377 215.29166 
L 216.68713 217.337215 
L 216.372425 220.326867 
L 216.68713 227.092924 
L 217.001826 231.184033 
L 217.473882 235.275135 
L 217.788579 241.254447 
L 218.260628 247.076406 
L 218.41798 251.010156 
L 218.260628 253.842464 
L 217.788579 249.121954 
L 216.68713 241.726495 
L 216.372425 234.960438 
L 215.900377 232.128131 
L 215.113624 225.834122 
L 214.012174 223.159167 
L 212.753372 220.641564 
L 212.123972 218.753361 
L 210.393121 217.651911 
L 208.504919 217.179863 
L 206.616716 216.550462 
L 205.357914 217.02251 
L 205.04321 219.225417 
L 205.357914 222.84447 
L 205.829963 226.778227 
L 206.931413 234.488382 
L 205.200562 225.519426 
L 204.413809 220.798916 
L 203.627057 217.337215 
L 202.053558 214.819604 
L 199.850651 213.560802 
L 197.962449 212.931401 
L 193.241946 213.246105 
L 186.657997 214.646089 
L 184.296787 215.747836 
L 182.408585 217.16399 
L 180.992438 218.580144 
L 180.520382 219.838946 
L 183.037986 222.513894 
L 190.590796 229.594655 
L 191.692253 233.056363 
L 192.006949 239.979773 
L 192.63635 245.014979 
L 194.052504 248.791384 
L 195.468658 253.983943 
L 196.884804 257.602996 
L 197.514205 260.75 
L 195.940707 265.47051 
L 196.570107 261.536753 
L 196.255403 259.333847 
L 195.468658 256.501547 
L 194.209856 253.826591 
L 193.265751 250.836939 
L 193.108399 248.791384 
L 192.006949 246.273781 
L 191.377549 243.598826 
L 190.9055 235.101918 
L 190.590796 232.741659 
L 189.646698 230.381408 
L 187.915848 228.178501 
L 183.195338 223.772695 
L 179.418933 220.625691 
L 177.058681 221.097747 
L 172.180819 222.356549 
L 167.460317 223.772695 
L 161.166308 226.290299 
L 159.750154 227.077052 
L 158.019304 228.178501 
L 156.760502 229.279958 
L 157.389903 230.224056 
L 159.278106 233.685764 
L 161.008956 236.203368 
L 161.008956 248.319336 
L 161.166308 252.567789 
L 161.481005 256.973595 
L 161.166308 259.963248 
L 160.379555 262.008802 
L 158.963401 262.166154 
L 158.334001 260.435304 
L 157.547248 257.445644 
L 156.60315 255.085393 
L 155.5017 253.039838 
L 153.770843 251.623692 
L 152.669393 250.994291 
L 151.253239 252.882494 
L 150.623838 255.714794 
L 151.095895 259.805903 
L 151.88264 262.795555 
L 152.826745 267.044009 
L 153.298794 270.505717 
L 153.456146 273.023321 
L 153.298794 276.012973 
L 152.354696 279.632026 
L 151.253239 282.464333 
L 149.679741 284.981937 
L 147.319489 287.656892 
L 146.060688 290.961248 
L 146.690089 292.062698 
L 150.623838 292.377395 
L 155.5017 290.489192 
L 159.278106 290.174495 
L 164.785361 288.758342 
L 169.348519 288.915694 
L 173.911677 288.758342 
L 177.058681 287.342188 
L 180.048333 285.611337 
L 182.25124 284.509888 
L 184.768843 284.824585 
L 187.915848 284.981937 
L 191.534901 284.352536 
L 196.570107 282.77903 
L 199.874464 282.464333 
L 202.864116 282.77903 
L 205.539071 282.306981 
L 207.899323 282.306981 
L 211.046327 283.408431 
L 211.046327 283.408431 
" style="fill:none;stroke:#000000;stroke-linecap:square;stroke-width:1.5;"/>
   </g>
   <g id="line2d_2">
    <path clip-path="url(#pa29a4b2146)" d="M 536.125023 318.31372 
L 536.252553 316.528249 
L 536.76269 313.594981 
L 536.76269 307.728438 
L 537.27282 310.024039 
L 537.400357 312.064578 
L 536.890221 314.742778 
L 536.125023 318.31372 
" style="fill:none;stroke:#000000;stroke-linecap:square;stroke-width:1.5;"/>
   </g>
   <g id="line2d_3">
    <path clip-path="url(#pa29a4b2146)" d="M 507.722311 258.308384 
L 507.4284 264.921502 
L 506.987522 261.982341 
L 507.722311 258.308384 
" style="fill:none;stroke:#000000;stroke-linecap:square;stroke-width:1.5;"/>
   </g>
   <g id="line2d_4">
    <path clip-path="url(#pa29a4b2146)" d="M 477.302001 244.788245 
L 480.241162 246.845658 
L 482.739445 249.931778 
L 485.090777 255.222271 
L 481.122909 248.903072 
L 477.302001 244.788245 
" style="fill:none;stroke:#000000;stroke-linecap:square;stroke-width:1.5;"/>
   </g>
   <g id="line2d_5">
    <path clip-path="url(#pa29a4b2146)" d="M 300.799658 240.805579 
L 301.264776 239.195618 
L 302.214048 237.138858 
L 303.16332 233.499977 
L 303.796169 231.285008 
L 304.429024 229.544672 
L 304.745448 227.804336 
L 303.954384 225.905791 
L 297.784104 224.481879 
L 299.208016 223.532607 
L 301.5812 223.216183 
L 303.63796 223.216183 
L 306.011145 223.849031 
L 308.067905 223.849031 
L 309.650025 222.899759 
L 311.864994 221.950486 
L 319.300971 219.419086 
L 321.832364 218.786238 
L 324.680188 218.469814 
L 327.323639 218.497654 
L 330.646095 217.864799 
L 333.177495 217.23195 
L 339.822409 215.333406 
L 348.840507 213.118437 
L 351.688324 212.169165 
L 354.536148 211.536309 
L 359.598941 210.112404 
L 362.763182 209.479556 
L 365.769214 209.163132 
L 368.933463 209.163132 
L 371.464855 209.004916 
L 374.945528 209.637765 
L 377.476921 209.79598 
L 380.482953 210.270613 
L 383.647201 210.903461 
L 387.127867 212.010949 
L 390.450323 213.276645 
L 394.405628 214.542342 
L 398.044509 216.599102 
L 402.790878 218.814078 
L 408.011886 221.978319 
L 411.334343 223.876864 
L 414.973224 225.458991 
L 423.674898 229.73072 
L 426.997354 230.679993 
L 428.737683 230.679993 
L 430.161595 229.414296 
L 433.167628 228.781448 
L 430.003387 231.312841 
L 428.104835 232.103905 
L 427.788411 233.844241 
L 428.421259 235.742786 
L 429.528747 238.11597 
L 430.952659 240.014515 
L 431.901932 241.913059 
L 430.794444 241.280211 
L 428.895899 238.432394 
L 427.313778 235.268146 
L 426.3736 232.434764 
L 424.205203 230.679993 
L 419.14241 228.465024 
L 414.712466 226.408264 
L 409.333249 223.718655 
L 404.903311 220.870831 
L 401.422639 218.814078 
L 397.941974 216.915526 
L 394.461301 215.333406 
L 390.031357 213.909494 
L 380.696835 211.061677 
L 375.950473 210.587037 
L 370.096616 210.112404 
L 359.021758 211.378101 
L 353.800757 212.802013 
L 347.472268 214.384133 
L 342.251266 215.808045 
L 337.188473 216.915526 
L 333.233168 218.023014 
L 327.695736 219.288711 
L 323.107583 220.554407 
L 319.152278 221.503687 
L 315.98803 222.452959 
L 312.981997 223.56044 
L 309.184908 225.775416 
L 307.444571 227.990384 
L 306.495299 230.205353 
L 305.862451 232.736753 
L 304.596747 235.268146 
L 302.856418 238.11597 
L 300.799658 240.805579 
" style="fill:none;stroke:#000000;stroke-linecap:square;stroke-width:1.5;"/>
   </g>
   <g id="line2d_6">
    <path clip-path="url(#pa29a4b2146)" d="M 302.949439 208.437256 
L 304.270808 206.72476 
L 315.643773 198.497719 
L 319.599077 196.124534 
L 324.029022 194.067781 
L 328.933599 192.169229 
L 332.57248 190.903533 
L 337.002425 189.637837 
L 346.178731 187.581076 
L 350.9251 186.948228 
L 356.620741 186.31538 
L 361.050686 185.998956 
L 369.27772 185.84074 
L 374.182297 185.998956 
L 378.928666 186.31538 
L 383.200395 187.264652 
L 387.788555 188.530349 
L 392.060284 190.112469 
L 396.648437 191.694597 
L 400.761958 193.593142 
L 404.717263 195.175262 
L 409.780055 197.073814 
L 413.260721 198.181295 
L 418.481729 200.712695 
L 421.171338 201.345543 
L 423.228091 201.661967 
L 425.443067 201.345543 
L 423.70273 202.769448 
L 423.70273 207.515817 
L 424.335579 209.097937 
L 425.126643 210.680065 
L 426.392339 212.736825 
L 429.873004 216.375706 
L 422.595242 210.047217 
L 422.278818 208.30688 
L 422.753458 206.566544 
L 421.804186 203.718727 
L 419.431001 201.820175 
L 415.475697 200.396271 
L 411.20396 198.181295 
L 404.875471 195.80811 
L 395.540949 192.011021 
L 390.499116 190.435882 
L 383.637679 188.186092 
L 380.157014 187.395028 
L 371.613549 186.603964 
L 363.861148 186.603964 
L 356.89981 186.920388 
L 351.204169 187.395028 
L 345.983168 188.3443 
L 340.129318 189.609996 
L 330.794796 192.457821 
L 325.732003 194.356365 
L 317.346754 197.995246 
L 314.024297 200.684855 
L 302.949439 208.437256 
" style="fill:none;stroke:#000000;stroke-linecap:square;stroke-width:1.5;"/>
   </g>
   <g id="line2d_7">
    <path clip-path="url(#pa29a4b2146)" d="M 333.979983 255.067002 
L 336.882783 254.237633 
L 340.200269 254.099404 
L 343.241297 253.546491 
L 346.558783 252.85535 
L 354.161351 251.887745 
L 359.828716 251.611289 
L 372.960429 251.611289 
L 377.798425 251.749517 
L 381.94528 252.025973 
L 386.092134 252.578894 
L 390.100761 253.408263 
L 393.556474 253.408263 
L 397.012188 253.270035 
L 401.297271 253.270035 
L 406.688187 252.993578 
L 401.297271 254.099404 
L 398.118014 254.652317 
L 395.076992 255.619915 
L 392.035964 256.725748 
L 389.133163 257.693346 
L 385.124537 258.522716 
L 380.839454 259.76677 
L 375.310309 260.872603 
L 369.781172 262.254886 
L 364.943169 263.360712 
L 359.690488 263.360712 
L 352.226148 261.010831 
L 346.420554 259.075629 
L 342.826613 257.278661 
L 340.200269 256.449292 
L 333.979983 255.067002 
" style="fill:none;stroke:#000000;stroke-linecap:square;stroke-width:1.5;"/>
   </g>
   <g id="line2d_8">
    <path clip-path="url(#pa29a4b2146)" d="M 341.837206 314.517023 
L 353.055975 311.31166 
L 358.665359 311.111329 
L 368.882449 312.71401 
L 363.273064 312.513671 
L 356.060999 311.712331 
L 350.651953 312.31334 
L 341.837206 314.517023 
" style="fill:none;stroke:#000000;stroke-linecap:square;stroke-width:1.5;"/>
   </g>
   <g id="line2d_9">
    <path clip-path="url(#pa29a4b2146)" d="M 242.865184 250.718822 
L 249.509161 243.293194 
L 255.957735 238.212503 
L 253.221975 241.143674 
L 248.532107 245.24731 
L 242.865184 250.718822 
" style="fill:none;stroke:#000000;stroke-linecap:square;stroke-width:1.5;"/>
   </g>
   <g id="line2d_10">
    <path clip-path="url(#pa29a4b2146)" d="M 239.543192 236.844627 
L 240.520246 233.327224 
L 241.4973 230.982294 
L 241.888129 228.637356 
L 242.08354 225.706185 
L 243.256006 221.993379 
L 243.256006 224.53372 
L 243.646827 226.878658 
L 244.623882 228.051123 
L 246.577998 228.246534 
L 243.646827 231.177704 
L 242.08354 233.718046 
L 239.543192 236.844627 
L 239.543192 236.844627 
" style="fill:none;stroke:#000000;stroke-linecap:square;stroke-width:1.5;"/>
   </g>
   <g id="line2d_11">
    <path clip-path="url(#pa29a4b2146)" d="M 567.370733 351.089833 
L 570.814137 348.411633 
L 573.619875 345.988495 
L 576.170544 343.565356 
L 578.593682 342.162491 
L 581.39942 340.37702 
L 583.950096 338.974148 
L 588.031168 335.658281 
L 589.56157 334.00034 
L 590.581837 331.577209 
L 589.816632 328.771472 
L 589.944169 326.093265 
L 590.326768 323.032459 
L 589.306502 320.991927 
L 587.138432 320.354252 
L 584.205157 319.461524 
L 581.39942 318.441251 
L 578.466152 317.931121 
L 576.55315 317.803583 
L 575.915483 318.18619 
L 572.727139 317.548515 
L 571.196736 318.058652 
L 570.941675 319.716585 
L 571.451805 321.629594 
L 571.196736 323.542596 
L 570.304008 326.348333 
L 569.156204 329.281601 
L 568.135938 331.449671 
L 566.477997 333.617741 
L 565.457731 335.913349 
L 564.054859 337.953882 
L 562.269395 340.504551 
L 561.631727 343.437826 
L 561.121591 345.605896 
L 560.611454 347.646428 
L 561.886796 348.921763 
L 564.182396 350.834772 
L 565.967868 351.59997 
L 567.370733 351.089833 
" style="fill:none;stroke:#000000;stroke-linecap:square;stroke-width:1.5;"/>
   </g>
   <g id="line2d_12">
    <path clip-path="url(#pa29a4b2146)" d="M 516.345603 372.206212 
L 520.782253 375.871271 
L 524.640212 376.932209 
L 528.980409 376.739309 
L 534.188652 376.835762 
L 538.528856 375.581925 
L 541.229424 373.556496 
L 543.351306 371.43462 
L 545.087382 369.216291 
L 546.53412 367.190869 
L 547.305711 365.454786 
L 547.498611 363.911603 
L 547.498611 362.368419 
L 547.498611 360.246544 
L 546.53412 359.185606 
L 545.473182 357.353076 
L 544.122898 356.774384 
L 542.676161 356.967277 
L 541.518777 357.738869 
L 540.264939 358.70336 
L 539.396894 358.992706 
L 537.853718 359.474952 
L 536.59988 359.474952 
L 534.863797 359.764298 
L 533.513513 359.957198 
L 532.259676 360.728789 
L 531.005838 361.403928 
L 529.655555 361.982627 
L 528.015925 362.368419 
L 526.954987 362.657765 
L 526.086942 363.140011 
L 524.929558 364.008049 
L 523.482821 365.068987 
L 521.939637 365.937032 
L 520.396461 367.094416 
L 518.660378 368.058907 
L 516.827848 368.830499 
L 515.284665 368.734053 
L 513.934381 369.312745 
L 514.609519 370.084336 
L 516.345603 372.206212 
" style="fill:none;stroke:#000000;stroke-linecap:square;stroke-width:1.5;"/>
   </g>
   <g id="line2d_13">
    <path clip-path="url(#pa29a4b2146)" d="M 339.923812 255.343459 
L 344.208895 257.41689 
L 349.185119 259.490313 
L 353.608431 261.010831 
L 357.893521 262.393114 
L 360.658086 262.946027 
L 365.219633 262.531342 
L 369.090031 261.701973 
L 373.375114 260.596147 
L 377.521968 259.490313 
L 381.668823 258.384487 
L 385.400993 257.693346 
L 388.165565 257.002205 
L 390.100761 255.896372 
L 389.547848 254.928774 
L 388.303794 253.961176 
L 386.230363 253.408263 
L 378.904251 252.30243 
L 370.472313 252.30243 
L 363.007973 252.30243 
L 357.893521 252.164202 
L 353.193746 252.578894 
L 348.632206 252.993578 
L 345.452949 253.408263 
L 341.859008 254.237633 
L 339.923812 255.343459 
" style="fill:none;stroke:#000000;stroke-linecap:square;stroke-width:1.5;"/>
   </g>
   <g id="line2d_14">
    <path clip-path="url(#pa29a4b2146)" d="M 199.699156 364.259292 
L 202.388765 361.727892 
L 204.445525 359.196499 
L 205.711222 356.665099 
L 204.920158 354.291915 
L 203.654461 351.918738 
L 200.964853 350.653034 
L 198.117036 349.703762 
L 195.269212 348.438065 
L 192.737819 347.963426 
L 191.313907 344.482761 
L 189.889995 340.527456 
L 187.675026 337.679631 
L 185.93469 335.939295 
L 183.561505 334.673599 
L 180.555473 334.040751 
L 176.916592 334.040751 
L 173.910559 335.306447 
L 172.012015 336.730359 
L 169.955254 338.470695 
L 166.949222 341.793152 
L 165.52531 343.691697 
L 164.734253 345.748457 
L 163.152133 349.861978 
L 163.152133 352.551586 
L 163.310341 356.032251 
L 165.367101 359.038284 
L 167.898494 361.727892 
L 172.328439 364.892141 
L 175.492687 365.683197 
L 179.131568 366.790685 
L 183.086873 366.63247 
L 187.675026 366.63247 
L 189.257146 365.841413 
L 187.042178 363.626437 
L 184.827209 361.727892 
L 182.612233 360.462196 
L 180.239049 358.880075 
L 184.352569 360.77862 
L 186.883962 362.83538 
L 189.257146 365.208565 
L 191.313907 366.63247 
L 194.952788 366.157837 
L 197.167764 365.366773 
L 199.699156 364.259292 
" style="fill:none;stroke:#000000;stroke-linecap:square;stroke-width:1.5;"/>
   </g>
   <g id="line2d_15">
    <path clip-path="url(#pa29a4b2146)" d="M 136.851548 254.664365 
L 137.642605 262.891399 
L 138.750093 268.58704 
L 140.648637 276.339441 
L 141.756125 282.193291 
L 143.180038 286.46502 
L 144.762158 288.99642 
L 146.818918 287.256084 
L 148.559247 285.041115 
L 150.774223 282.193291 
L 152.03992 278.712626 
L 152.830984 275.073738 
L 152.830984 271.276648 
L 152.198135 267.479552 
L 151.56528 263.840671 
L 150.457799 260.043575 
L 149.983159 255.771846 
L 149.983159 252.765813 
L 150.299583 250.23442 
L 150.616008 247.861236 
L 150.774223 245.171627 
L 150.774223 242.640235 
L 152.989192 240.899898 
L 155.6788 239.317778 
L 155.995225 236.15353 
L 155.204168 233.305713 
L 153.463832 232.514649 
L 151.56528 232.672857 
L 150.141375 233.938561 
L 148.875679 234.887833 
L 147.451767 234.096769 
L 145.553215 234.729617 
L 144.12931 235.362466 
L 142.547182 236.15353 
L 141.123277 237.102802 
L 139.541157 238.526714 
L 138.117245 239.950626 
L 136.693333 241.058107 
L 134.794788 242.798443 
L 132.896236 244.855203 
L 131.155907 246.595539 
L 129.731995 248.335876 
L 128.308083 250.392629 
L 126.884171 252.607605 
L 124.669202 255.455422 
L 121.346745 261.151063 
L 120.081049 264.631735 
L 118.498928 268.58704 
L 116.916801 273.491617 
L 116.442168 276.49765 
L 115.33468 281.402227 
L 115.492896 284.566475 
L 115.80932 287.730716 
L 118.657137 292.793509 
L 122.928866 296.590606 
L 125.934899 298.48915 
L 130.681267 299.280214 
L 135.111212 298.96379 
L 138.275453 297.065238 
L 140.490429 295.008485 
L 142.230758 292.951725 
L 143.65467 290.894965 
L 143.496462 289.154628 
L 142.705398 287.414292 
L 141.914334 284.882899 
L 141.123277 281.876867 
L 140.490429 278.55441 
L 139.699365 274.915529 
L 139.066517 271.751281 
L 137.959029 267.321344 
L 137.009757 263.207823 
L 136.693333 260.043575 
L 136.376908 256.879334 
L 136.851548 254.664365 
" style="fill:none;stroke:#000000;stroke-linecap:square;stroke-width:1.5;"/>
   </g>
  </g>
 </g>
 <defs>
  <clipPath id="pa29a4b2146">
   <rect height="611.28" width="725.76" x="0" y="0"/>
  </clipPath>
 </defs>
</svg>
