<?xml version="1.0" encoding="utf-8" standalone="no"?>
<!DOCTYPE svg PUBLIC "-//W3C//DTD SVG 1.1//EN"
  "http://www.w3.org/Graphics/SVG/1.1/DTD/svg11.dtd">
<!-- Created with matplotlib (https://matplotlib.org/) -->
<svg height="522.72pt" version="1.1" viewBox="0 0 816.48 522.72" width="816.48pt" xmlns="http://www.w3.org/2000/svg" xmlns:xlink="http://www.w3.org/1999/xlink">
 <defs>
  <style type="text/css">
*{stroke-linecap:butt;stroke-linejoin:round;}
  </style>
 </defs>
 <g id="figure_1">
  <g><image xlink:href="../../img/cb/beaver_cor_cell.json.cb-50%25.png" width="816.48px" height="522.72px"/></g>

  <g id="patch_1">
   <path d="M 0 522.72 
L 816.48 522.72 
L 816.48 0 
L 0 0 
z
" style="fill:none;"/>
  </g>
  <g id="axes_1">
   <g id="line2d_1">
    <path clip-path="url(#p39b1b108a4)" d="M 735.339132 322.215651 
L 727.732176 315.453915 
L 714.208695 310.38261 
L 704.911307 311.227822 
L 698.149562 301.085214 
L 688.006954 295.168698 
L 675.328693 298.549562 
L 672.793041 305.311306 
L 688.006954 317.989567 
L 677.864345 311.227822 
L 665.186085 307.001738 
L 649.972172 307.846958 
L 637.293911 313.763474 
L 623.770439 317.989567 
L 611.93739 312.918262 
L 605.175654 303.620866 
L 597.568697 290.942605 
L 594.187825 279.109565 
L 588.271301 273.19304 
L 576.43826 274.883481 
L 567.140872 283.335649 
L 573.057388 292.633045 
L 583.199997 302.775654 
L 588.271301 311.227822 
L 580.664344 301.085214 
L 572.212176 296.01391 
L 565.450432 304.466086 
L 558.688695 308.69217 
L 567.140872 299.394782 
L 565.450432 290.097393 
L 555.307823 284.180869 
L 547.700867 290.097393 
L 552.772171 279.109565 
L 560.379127 269.812176 
L 555.307823 261.36 
L 544.320003 251.217391 
L 524.879998 243.610435 
L 507.130433 235.158259 
L 486.845216 224.170438 
L 469.095651 210.646957 
L 484.309564 214.02783 
L 505.440001 220.789566 
L 524.034786 228.396522 
L 540.09391 236.848699 
L 554.462611 249.526959 
L 567.986084 257.133916 
L 577.28348 254.598264 
L 576.43826 244.455655 
L 571.366956 231.777395 
L 564.60522 218.253914 
L 558.688695 204.730433 
L 548.546087 195.433045 
L 535.022606 183.599996 
L 523.189566 174.302608 
L 510.511305 172.612176 
L 494.452172 169.231303 
L 482.619132 167.540871 
L 474.155998 159.077738 
L 460.643474 154.017391 
L 448.810434 148.100866 
L 435.709563 140.91652 
L 407.81739 132.886954 
L 399.153917 119.997388 
L 394.716519 106.051305 
L 382.672174 92.105215 
L 366.824346 81.962606 
L 351.610433 76.257395 
L 333.226953 74.989565 
L 314.209566 74.989565 
L 303.433043 76.891302 
L 292.022612 83.864351 
L 282.513911 95.274782 
L 278.710437 111.756525 
L 280.612174 125.068692 
L 276.174785 135.845216 
L 263.496524 135.845216 
L 248.916518 135.211301 
L 234.970436 137.746953 
L 226.729564 152.960866 
L 222.92609 171.344345 
L 224.827827 186.558258 
L 237.506088 192.897393 
L 227.363479 198.602612 
L 215.319134 203.040001 
L 196.301739 208.74522 
L 179.186089 214.450432 
L 163.972176 222.057388 
L 153.195653 229.030437 
L 141.785214 235.369564 
L 132.910436 244.878257 
L 129.106953 255.654781 
L 135.446088 266.431304 
L 148.758263 277.841743 
L 155.09739 289.886088 
L 164.606083 297.493045 
L 155.09739 294.957393 
L 147.490433 283.546954 
L 141.151307 272.136523 
L 129.106953 271.502608 
L 122.767827 279.74348 
L 122.767827 291.787825 
L 129.740868 302.564349 
L 131.008698 312.073042 
L 124.035649 303.832171 
L 115.794786 296.225215 
L 109.455651 294.323478 
L 117.062608 307.635653 
L 129.740868 319.046084 
L 144.320866 320.313914 
L 163.972176 314.608695 
L 184.257393 313.340873 
L 205.810432 308.269568 
L 234.970436 301.930434 
L 261.594779 298.12696 
L 290.754782 295.591308 
L 299.629569 300.662612 
L 314.209566 301.930434 
L 329.423479 299.394782 
L 359.851305 301.930434 
L 373.797387 302.564349 
L 389.011308 303.832171 
L 401.055654 305.733916 
L 418.805219 307.001738 
L 435.920868 306.367823 
L 451.768696 307.635653 
L 466.348694 309.53739 
L 480.294785 313.340873 
L 489.803478 318.412177 
L 501.213917 325.385218 
L 515.159999 331.090437 
L 524.668693 338.697394 
L 538.614783 348.206087 
L 547.489562 353.911306 
L 563.33739 356.446959 
L 548.123477 358.348696 
L 552.560866 365.955652 
L 562.069568 372.928693 
L 572.846083 367.857389 
L 580.453048 357.080866 
L 577.28348 349.473909 
L 563.971305 343.768698 
L 552.560866 341.233046 
L 537.980868 336.795649 
L 550.025214 338.063479 
L 571.578261 343.768698 
L 582.9887 348.206087 
L 593.131308 343.134783 
L 603.273917 331.724344 
L 600.738265 342.500868 
L 610.880873 344.402605 
L 620.389566 347.572172 
L 626.728693 356.446959 
L 632.433912 351.375654 
L 634.969564 336.161742 
L 636.871301 348.206087 
L 634.969564 352.643476 
L 642.57652 353.911306 
L 634.335649 357.714781 
L 634.335649 365.955652 
L 643.210436 371.660871 
L 656.522611 375.464345 
L 666.031305 376.098261 
L 671.079878 369.757493 
L 670.468694 360.884348 
L 662.227822 352.643476 
L 669.834779 354.545213 
L 674.906083 357.714781 
L 679.34348 367.857389 
L 684.414785 368.491304 
L 693.289563 363.42 
L 702.164349 357.080866 
L 696.45913 350.741739 
L 690.753911 346.938257 
L 700.896519 348.206087 
L 709.137391 354.545213 
L 718.012177 354.545213 
L 728.788693 352.009561 
L 736.395649 342.500868 
L 738.297394 331.090437 
L 735.339132 322.215651 
L 735.339132 322.215651 
" style="fill:none;stroke:#000000;stroke-linecap:square;stroke-width:1.5;"/>
   </g>
   <g id="line2d_2">
    <path clip-path="url(#p39b1b108a4)" d="M 603.273917 202.406086 
L 593.765215 188.460003 
L 581.086954 178.951302 
L 572.846083 168.808693 
L 562.069568 155.496526 
L 551.293044 152.960866 
L 542.418258 154.228696 
L 543.686088 162.469567 
L 551.926959 170.076523 
L 558.266085 179.585217 
L 563.33739 187.192173 
L 558.266085 181.486954 
L 550.659129 172.612176 
L 542.418258 165.639134 
L 533.543479 166.906956 
L 533.543479 173.246091 
L 541.784351 184.022606 
L 551.293044 193.531308 
L 561.435653 206.209568 
L 568.408694 220.789566 
L 576.649565 236.003479 
L 582.9887 249.315654 
L 591.229563 251.851306 
L 605.175654 250.583476 
L 618.487829 245.512172 
L 623.559134 238.539131 
L 616.586084 223.959133 
L 609.613043 211.914779 
L 603.273917 202.406086 
" style="fill:none;stroke:#000000;stroke-linecap:square;stroke-width:1.5;"/>
   </g>
   <g id="line2d_3">
    <path clip-path="url(#p39b1b108a4)" d="M 519.808693 115.137389 
L 507.975653 110.911305 
L 492.76174 107.530432 
L 478.393048 106.68522 
L 464.869567 107.530432 
L 450.500866 110.911305 
L 443.73913 121.899133 
L 445.429562 132.886954 
L 461.488695 132.886954 
L 483.464352 133.732174 
L 496.142612 132.041742 
L 509.666085 133.732174 
L 522.344346 135.422606 
L 531.641742 127.815649 
L 519.808693 115.137389 
" style="fill:none;stroke:#000000;stroke-linecap:square;stroke-width:1.5;"/>
   </g>
   <g id="line2d_4">
    <path clip-path="url(#p39b1b108a4)" d="M 518.963481 137.958258 
L 509.666085 134.577394 
L 494.452172 134.577394 
L 482.619132 134.577394 
L 467.405219 133.732174 
L 456.41739 135.422606 
L 447.965214 142.18435 
L 454.726958 148.100866 
L 470.786083 151.481739 
L 486.000004 152.326959 
L 502.904349 151.481739 
L 513.892177 148.946086 
L 518.963481 137.958258 
" style="fill:none;stroke:#000000;stroke-linecap:square;stroke-width:1.5;"/>
   </g>
   <g id="line2d_5">
    <path clip-path="url(#p39b1b108a4)" d="M 388.870433 309.161736 
L 381.897391 306.626084 
L 373.022605 304.724347 
L 362.879996 303.456525 
L 352.737388 302.188695 
L 341.960872 301.55478 
L 330.550434 300.920873 
L 320.407825 302.82261 
L 310.265217 304.724347 
L 300.122608 306.626084 
L 298.220871 311.697388 
L 310.265217 318.036522 
L 325.47913 319.93826 
L 340.059127 323.107827 
L 360.344344 325.643479 
L 378.093909 321.20609 
L 388.870433 315.50087 
L 388.870433 309.161736 
" style="fill:none;stroke:#000000;stroke-linecap:square;stroke-width:1.5;"/>
   </g>
   <g id="line2d_6">
    <path clip-path="url(#p39b1b108a4)" d="M 193.554781 103.304348 
L 175.805217 106.68522 
L 158.900872 109.220873 
L 143.686959 115.982609 
L 131.85391 126.970437 
L 126.782606 139.648698 
L 128.473046 148.946086 
L 143.686959 145.565214 
L 163.126956 138.803478 
L 181.721741 134.577394 
L 198.626086 131.196522 
L 212.994787 132.886954 
L 228.208699 130.351301 
L 233.280003 117.673041 
L 219.756523 105.84 
L 206.233042 104.149568 
L 193.554781 103.304348 
" style="fill:none;stroke:#000000;stroke-linecap:square;stroke-width:1.5;"/>
   </g>
   <g id="line2d_7">
    <path clip-path="url(#p39b1b108a4)" d="M 197.512868 162.778794 
L 183.412173 166.695651 
L 169.04348 173.457388 
L 158.055652 181.909564 
L 163.972176 190.36174 
L 176.650437 190.36174 
L 193.554781 186.135648 
L 210.459134 179.373912 
L 219.756523 170.076523 
L 211.304346 163.314779 
L 199.220382 162.509187 
L 199.471306 162.469567 
L 213.839998 158.243475 
L 224.827827 146.410434 
L 213.839998 137.958258 
L 198.626086 136.267826 
L 182.566953 139.648698 
L 169.888692 142.18435 
L 157.210432 147.255654 
L 144.532171 154.862611 
L 135.234783 162.469567 
L 147.067823 170.921735 
L 163.972176 171.766956 
L 183.412173 165.005219 
L 197.512868 162.778794 
" style="fill:none;stroke:#000000;stroke-linecap:square;stroke-width:1.5;"/>
   </g>
   <g id="line2d_8">
    <path clip-path="url(#p39b1b108a4)" d="M 208.768694 187.826088 
L 197.780866 188.6713 
L 183.412173 194.587825 
L 170.733912 200.504349 
L 168.19826 208.111305 
L 182.566953 206.420873 
L 198.626086 200.504349 
L 208.768694 187.826088 
" style="fill:none;stroke:#000000;stroke-linecap:square;stroke-width:1.5;"/>
   </g>
   <g id="line2d_9">
    <path clip-path="url(#p39b1b108a4)" d="M 143.686959 188.6713 
L 136.080003 191.206961 
L 127.627826 201.349569 
L 119.17565 213.18261 
L 110.723481 230.086954 
L 107.342609 245.300867 
L 111.568693 252.062612 
L 120.86609 250.372171 
L 133.544351 238.539131 
L 145.377391 221.634786 
L 155.52 203.040001 
L 152.139127 193.742613 
L 146.222611 185.290436 
L 143.686959 188.6713 
" style="fill:none;stroke:#000000;stroke-linecap:square;stroke-width:1.5;"/>
   </g>
   <g id="line2d_10">
    <path clip-path="url(#p39b1b108a4)" d="M 124.246954 174.302608 
L 114.949566 176.83826 
L 104.806957 187.826088 
L 97.200001 198.813917 
L 91.283476 210.646957 
L 83.67652 224.170438 
L 83.67652 237.693911 
L 95.509569 240.229563 
L 107.342609 225.01565 
L 115.794786 207.266085 
L 126.782606 191.206961 
L 131.008698 179.373912 
L 126.782606 170.921735 
L 124.246954 174.302608 
" style="fill:none;stroke:#000000;stroke-linecap:square;stroke-width:1.5;"/>
   </g>
  </g>
 </g>
 <defs>
  <clipPath id="p39b1b108a4">
   <rect height="522.72" width="816.48" x="0" y="0"/>
  </clipPath>
 </defs>
</svg>
