<?xml version="1.0" encoding="utf-8" standalone="no"?>
<!DOCTYPE svg PUBLIC "-//W3C//DTD SVG 1.1//EN"
  "http://www.w3.org/Graphics/SVG/1.1/DTD/svg11.dtd">
<!-- Created with matplotlib (https://matplotlib.org/) -->
<svg height="238.32pt" version="1.1" viewBox="0 0 362.88 238.32" width="362.88pt" xmlns="http://www.w3.org/2000/svg" xmlns:xlink="http://www.w3.org/1999/xlink">
 <defs>
  <style type="text/css">
*{stroke-linecap:butt;stroke-linejoin:round;}
  </style>
 </defs>
 <g id="figure_1">
  <g><image xlink:href="../../img/cb/calsealion_cor_cell.json.cb-50%25.png" width="362.88px" height="238.32px"/></g>

  <g id="patch_1">
   <path d="M 0 238.32 
L 362.88 238.32 
L 362.88 0 
L 0 0 
z
" style="fill:none;"/>
  </g>
  <g id="axes_1">
   <g id="line2d_1">
    <path clip-path="url(#p2e4e9db1b3)" d="M 29.002473 174.819632 
L 29.074472 176.043633 
L 29.362471 177.267631 
L 29.938475 178.059631 
L 30.658472 178.131634 
L 31.787457 177.600345 
L 31.522475 177.987632 
L 30.442475 178.635634 
L 29.938475 179.427634 
L 29.794473 180.723631 
L 30.514474 181.947633 
L 31.882474 182.883635 
L 33.466474 182.379634 
L 34.690472 181.155633 
L 34.739119 180.941573 
L 34.978475 181.659633 
L 36.418474 181.299634 
L 38.290473 180.147632 
L 39.802475 178.923634 
L 40.738473 177.699633 
L 40.738473 175.899632 
L 41.026473 175.971634 
L 40.882474 177.555635 
L 41.746474 178.563632 
L 42.754474 178.707633 
L 44.194473 177.915633 
L 44.596011 175.403941 
L 44.626474 176.043633 
L 45.634472 176.979631 
L 46.786474 177.555635 
L 48.370474 176.691632 
L 49.306472 175.611632 
L 49.162474 174.027632 
L 49.306472 172.947632 
L 49.738474 172.155632 
L 49.738474 171.003633 
L 48.874475 170.643634 
L 50.026474 170.571632 
L 51.250475 170.787632 
L 52.690474 170.571632 
L 59.746472 170.643634 
L 60.898474 170.859631 
L 58.378472 171.003633 
L 54.418472 170.859631 
L 51.322474 171.291633 
L 50.314473 172.587633 
L 49.666475 174.531632 
L 49.810473 175.827633 
L 51.034474 176.475631 
L 52.618475 176.475631 
L 54.490474 176.187631 
L 55.930473 175.683635 
L 56.938474 174.963633 
L 56.362474 175.755634 
L 58.090473 175.467634 
L 59.386473 175.395631 
L 61.978474 174.963633 
L 63.490472 173.955633 
L 65.218474 172.443631 
L 65.074472 172.731631 
L 63.562474 174.171633 
L 63.778472 175.107632 
L 66.154472 175.899632 
L 68.170474 175.755634 
L 69.884073 175.266032 
L 68.458473 175.827633 
L 68.098474 176.907632 
L 68.098474 176.835633 
L 66.802474 176.403632 
L 65.722474 176.187631 
L 63.490472 175.395631 
L 62.266474 175.323632 
L 60.826472 175.395631 
L 59.602474 175.683635 
L 58.234474 176.763634 
L 58.162472 177.843634 
L 59.746472 179.283633 
L 61.330472 179.499633 
L 60.826472 179.715634 
L 59.098474 179.715634 
L 58.018474 180.219635 
L 58.738475 179.211634 
L 58.234474 178.131634 
L 57.298473 176.835633 
L 56.506472 176.187631 
L 55.066474 176.475631 
L 53.842472 176.835633 
L 50.242474 177.267631 
L 49.018473 177.771632 
L 48.370474 178.707633 
L 48.370474 180.003634 
L 49.018473 181.155633 
L 49.738474 181.803631 
L 52.186473 182.667634 
L 52.978473 182.811632 
L 52.834472 183.387631 
L 50.818474 182.595631 
L 49.594472 181.875634 
L 48.370474 180.363633 
L 47.650473 178.851631 
L 46.930472 178.131634 
L 45.202474 177.699633 
L 43.906473 178.347635 
L 42.826473 179.643632 
L 43.042474 180.651632 
L 44.122474 182.019632 
L 44.785332 183.47792 
L 44.410474 183.243633 
L 43.474472 181.227632 
L 42.466475 180.219635 
L 40.810472 179.571632 
L 39.442472 180.579633 
L 38.722475 182.019632 
L 39.370473 184.323633 
L 40.306475 185.547631 
L 42.754474 186.771633 
L 39.874474 185.331634 
L 38.578473 183.747634 
L 37.858472 182.379634 
L 36.994473 181.515631 
L 35.626473 181.803631 
L 33.826472 183.027633 
L 33.322472 184.395632 
L 33.754473 185.619634 
L 34.906472 186.699634 
L 36.130474 186.987633 
L 35.338474 187.059632 
L 34.402472 187.347632 
L 33.898471 187.779633 
L 34.330473 186.843632 
L 33.826472 185.979632 
L 33.250473 185.259631 
L 32.242472 185.547631 
L 31.378473 186.483633 
L 30.010474 188.355633 
L 30.082473 189.939633 
L 30.730475 191.235634 
L 31.954473 191.739634 
L 33.466474 191.595632 
L 36.490473 190.875631 
L 37.786473 190.083631 
L 38.506474 189.219632 
L 39.370473 189.795631 
L 41.962474 190.299632 
L 43.906473 190.227633 
L 43.186472 190.875631 
L 40.882474 190.515632 
L 39.514475 190.515632 
L 38.146472 190.731633 
L 34.978475 191.955635 
L 34.330473 193.035634 
L 34.546474 193.755632 
L 34.114472 192.603633 
L 33.106475 192.099633 
L 31.450472 192.171632 
L 30.370472 193.323634 
L 30.298473 194.619631 
L 32.193796 199.222561 
L 33.129797 199.006564 
L 34.281796 198.142561 
L 35.217798 196.990562 
L 36.729796 195.406562 
L 36.585797 195.838563 
L 33.345798 199.366562 
L 33.129797 200.518561 
L 33.273799 202.174564 
L 33.921797 203.326563 
L 34.713798 204.334564 
L 35.649796 204.910563 
L 36.729796 203.758561 
L 37.377798 201.958563 
L 37.809799 199.942562 
L 38.457797 198.430564 
L 39.249798 197.062561 
L 40.473795 195.478561 
L 41.553799 194.470564 
L 39.753798 196.486562 
L 39.033797 197.998563 
L 38.313796 200.086563 
L 37.881798 201.958563 
L 36.513798 204.478562 
L 36.585797 206.062562 
L 37.953797 206.998564 
L 39.393796 206.710564 
L 40.977796 205.702563 
L 41.481796 205.054561 
L 41.337798 204.406563 
L 41.985797 204.622563 
L 42.777797 203.182561 
L 42.561796 202.102561 
L 41.625798 200.518561 
L 41.697797 199.006564 
L 42.417798 198.214563 
L 41.841799 199.942562 
L 42.273796 201.382564 
L 43.353796 202.246563 
L 44.433796 201.454563 
L 45.513796 200.158562 
L 46.593796 199.150562 
L 46.953798 198.286562 
L 45.729796 197.350561 
L 44.649797 196.342564 
L 44.145796 195.118562 
L 44.577798 194.182564 
L 45.585798 193.246562 
L 44.505799 194.974564 
L 45.513796 196.558561 
L 46.737797 197.494562 
L 48.033798 197.566561 
L 49.473796 195.766564 
L 49.761796 194.830562 
L 48.753799 193.678563 
L 47.889796 192.310564 
L 48.465796 191.086562 
L 49.113798 190.366561 
L 50.337796 189.790562 
L 49.473796 190.366561 
L 48.897797 191.158561 
L 48.609797 192.094563 
L 48.825798 193.030561 
L 49.689797 194.182564 
L 50.913799 195.046563 
L 51.993798 194.542563 
L 55.593797 191.878563 
L 56.241799 190.942561 
L 55.305797 190.222563 
L 54.441798 189.286561 
L 54.009796 187.990561 
L 58.257797 185.542562 
L 56.457796 186.622561 
L 54.945798 187.846563 
L 54.585796 188.854564 
L 55.665796 190.366561 
L 56.817798 191.302563 
L 58.113799 191.374562 
L 58.833796 190.726564 
L 60.561798 189.718563 
L 61.929798 189.358564 
L 63.369796 189.286561 
L 64.953796 188.998562 
L 65.385798 187.774564 
L 64.305798 186.766563 
L 62.721798 185.614561 
L 63.009797 185.182563 
L 63.945796 184.030564 
L 65.529796 183.382562 
L 65.025799 184.246561 
L 65.241796 185.326561 
L 66.753797 185.830561 
L 68.409796 185.758562 
L 71.001798 185.326561 
L 74.025796 185.038561 
L 71.145796 185.326561 
L 68.985796 185.830561 
L 69.921798 186.982564 
L 70.857796 188.422562 
L 70.929799 189.070561 
L 69.561799 187.342563 
L 68.337797 186.478563 
L 66.321796 186.982564 
L 65.601798 188.134563 
L 65.673797 189.430563 
L 67.041797 190.726564 
L 66.969798 191.086562 
L 65.529796 189.934564 
L 64.449796 189.214562 
L 62.577796 189.502562 
L 60.633797 190.078562 
L 59.409796 190.798563 
L 58.689798 192.094563 
L 59.265797 193.390564 
L 60.561798 193.966563 
L 61.713797 194.182564 
L 64.017798 193.390564 
L 65.313799 192.814561 
L 63.081796 193.822561 
L 61.281795 195.190561 
L 59.913796 195.694561 
L 60.561798 194.902561 
L 59.553797 194.038562 
L 58.473797 192.742562 
L 57.393798 192.094563 
L 55.953799 192.670563 
L 54.297796 193.678563 
L 52.713796 194.326562 
L 51.345796 195.334563 
L 51.201798 196.486562 
L 52.425796 197.566561 
L 53.865798 197.998563 
L 56.998371 197.153118 
L 55.521798 197.926564 
L 53.865798 198.358561 
L 52.785799 198.070562 
L 51.849797 197.422563 
L 51.057797 196.630563 
L 50.049796 196.702562 
L 48.753799 197.206563 
L 47.673795 198.214563 
L 47.241798 199.366562 
L 47.822144 199.999665 
L 47.241798 199.726561 
L 45.873798 200.374563 
L 44.721796 201.526562 
L 44.073797 202.678561 
L 44.361797 203.542564 
L 45.513796 204.190562 
L 44.505799 203.686562 
L 43.137795 203.758561 
L 41.913798 205.126564 
L 41.049798 206.494563 
L 41.265796 207.934562 
L 42.129798 208.438562 
L 42.849796 209.014562 
L 44.289798 208.654563 
L 45.809793 207.219895 
L 44.577798 208.510561 
L 44.721796 209.590561 
L 46.161798 210.526563 
L 47.673795 210.382561 
L 48.897797 209.806562 
L 49.041799 208.222562 
L 49.257796 209.590561 
L 50.121798 210.094562 
L 50.985798 209.662564 
L 51.849797 208.150563 
L 51.849797 207.718561 
L 51.921796 209.302561 
L 52.929797 209.662564 
L 54.081795 209.518562 
L 55.593797 208.798561 
L 56.025798 207.862563 
L 55.449799 206.566562 
L 53.361798 204.622563 
L 55.737798 202.174564 
L 56.457796 201.814562 
L 54.873796 203.254564 
L 54.081795 204.262561 
L 54.945798 205.846561 
L 56.025798 207.142562 
L 57.465797 207.862563 
L 58.977798 207.790564 
L 59.697799 206.710564 
L 59.769798 204.550561 
L 60.129797 203.542564 
L 60.777799 202.246563 
L 58.977798 200.302564 
L 59.625796 200.590564 
L 60.849798 201.526562 
L 61.785796 201.670564 
L 63.297797 201.094561 
L 64.233799 199.798564 
L 64.377797 198.430564 
L 63.513798 197.206563 
L 62.073796 196.990562 
L 60.705796 197.422563 
L 63.513798 196.630563 
L 64.377797 197.350561 
L 65.097798 197.494562 
L 65.745796 197.782562 
L 66.969798 197.278562 
L 68.409796 196.198562 
L 69.489796 195.190561 
L 71.145796 194.038562 
L 70.209797 194.974564 
L 68.193796 196.414563 
L 65.313799 199.150562 
L 64.521799 200.158562 
L 64.953796 201.238562 
L 65.889798 202.030562 
L 64.161796 201.238562 
L 62.433798 201.958563 
L 61.209796 203.182561 
L 60.201796 204.550561 
L 59.841797 205.990563 
L 60.201796 207.430561 
L 61.641798 207.502564 
L 63.153795 206.782563 
L 67.257798 205.558562 
L 68.769799 204.766561 
L 69.489796 203.542564 
L 69.201797 201.886561 
L 69.201797 200.734562 
L 69.561799 200.662563 
L 69.273796 201.814562 
L 69.633798 203.686562 
L 70.425798 204.622563 
L 71.289797 205.054561 
L 72.297798 204.982562 
L 72.513799 201.382564 
L 73.017796 198.646561 
L 73.881798 196.918563 
L 74.097799 197.062561 
L 73.377798 198.718564 
L 73.017796 199.870563 
L 72.657797 201.958563 
L 72.369797 206.710564 
L 73.089798 208.006561 
L 74.601796 208.582564 
L 75.609797 208.510561 
L 76.473796 207.574563 
L 76.617797 206.494563 
L 76.257799 203.686562 
L 76.761795 200.446562 
L 77.337798 198.358561 
L 76.833798 200.590564 
L 76.689796 202.678561 
L 76.833798 204.694562 
L 76.833798 206.278563 
L 77.049799 208.942563 
L 78.633799 210.454564 
L 79.425795 211.030563 
L 80.577798 211.462561 
L 81.657798 211.102562 
L 82.233797 210.022563 
L 82.377799 209.446563 
L 81.801796 208.222562 
L 81.225796 206.566562 
L 80.577798 205.126564 
L 80.289798 203.830563 
L 80.361797 202.102561 
L 80.649797 200.878564 
L 79.713799 199.438561 
L 80.361797 200.086563 
L 81.081798 199.798564 
L 81.585799 198.934561 
L 82.449798 196.414563 
L 82.089796 195.118562 
L 81.827361 194.795566 
L 82.665799 195.334563 
L 83.601797 194.758563 
L 84.393797 193.390564 
L 85.257796 192.742562 
L 86.337796 192.454562 
L 87.777798 191.590563 
L 89.001796 190.654561 
L 88.929797 189.214562 
L 87.901221 187.900273 
L 87.921796 187.918562 
L 89.073799 188.494561 
L 90.297796 188.134563 
L 91.593797 187.198561 
L 92.169796 185.542562 
L 91.809798 184.174562 
L 90.801797 183.742561 
L 90.297796 183.382562 
L 91.809798 183.598563 
L 92.745796 182.806563 
L 93.897798 182.518563 
L 93.177797 182.950561 
L 92.097797 184.462562 
L 92.457796 185.398564 
L 93.249796 185.758562 
L 94.329796 186.550562 
L 95.304561 186.834868 
L 93.393798 186.622561 
L 92.025798 187.126562 
L 89.217797 189.286561 
L 89.001796 191.014563 
L 89.505796 192.598564 
L 90.945798 193.246562 
L 93.033795 193.174563 
L 94.473798 192.526561 
L 95.60165 191.664082 
L 95.553797 192.166562 
L 96.561798 192.022561 
L 98.001797 191.950562 
L 97.065799 192.310564 
L 95.265798 192.742562 
L 93.825796 193.462563 
L 92.457796 193.678563 
L 89.289796 192.814561 
L 88.281798 192.238561 
L 85.329799 193.678563 
L 84.249799 194.758563 
L 83.601797 195.766564 
L 84.483791 197.071557 
L 83.889796 196.774561 
L 82.881796 197.278562 
L 81.945797 199.006564 
L 82.089796 200.302564 
L 83.097796 201.166563 
L 84.681797 201.526562 
L 86.265797 201.598561 
L 85.473797 201.814562 
L 83.529798 201.310561 
L 82.089796 201.238562 
L 81.225796 202.390561 
L 80.793799 203.326563 
L 80.793799 204.694562 
L 81.585799 205.846561 
L 82.881796 206.350562 
L 84.249799 205.774562 
L 85.257796 204.406563 
L 84.753796 205.558562 
L 83.889796 206.134561 
L 82.521797 206.566562 
L 82.233797 207.574563 
L 82.665799 208.798561 
L 83.241798 210.094562 
L 84.249799 211.102562 
L 85.617798 211.606563 
L 86.697798 211.606563 
L 87.345797 211.174561 
L 87.633796 210.310562 
L 87.633796 208.870564 
L 87.849797 206.494563 
L 88.209796 205.486563 
L 89.217797 203.326563 
L 91.161796 200.806561 
L 91.161796 201.526562 
L 89.937798 202.606562 
L 89.073799 204.190562 
L 88.281798 205.918564 
L 87.849797 207.574563 
L 88.065798 211.318563 
L 88.713796 212.614564 
L 89.721797 212.758562 
L 90.945798 212.470562 
L 92.313798 211.822563 
L 93.177797 211.030563 
L 92.817798 209.806562 
L 92.097808 208.880859 
L 92.529799 209.374564 
L 93.609799 210.598562 
L 95.481798 209.878561 
L 96.417797 208.654563 
L 96.345798 207.070563 
L 95.769798 205.846561 
L 94.617796 204.334564 
L 93.753797 203.614563 
L 91.593797 204.766561 
L 93.105798 203.902562 
L 94.329796 203.110562 
L 95.481798 201.238562 
L 96.705796 200.158562 
L 97.065799 199.006564 
L 96.633797 197.638564 
L 95.481798 197.134564 
L 96.273799 197.278562 
L 97.065799 197.710563 
L 97.281796 197.278562 
L 100.809799 195.190561 
L 101.673798 194.182564 
L 102.033796 194.686561 
L 101.673798 195.406562 
L 101.889798 196.918563 
L 101.601799 195.550563 
L 100.665797 195.550563 
L 99.585797 196.270561 
L 98.361796 196.846564 
L 97.785796 198.070562 
L 97.569795 199.222561 
L 98.649799 201.454563 
L 97.929798 200.086563 
L 96.921797 199.942562 
L 96.129797 200.878564 
L 95.193799 202.462564 
L 95.265798 204.190562 
L 96.057798 205.342561 
L 97.281796 205.414564 
L 98.361796 205.054561 
L 99.801798 203.830563 
L 100.161796 202.894561 
L 100.233796 203.110562 
L 100.089797 203.974561 
L 100.809799 205.270562 
L 101.889798 206.206564 
L 103.401796 206.782563 
L 104.841798 206.566562 
L 105.705797 205.558562 
L 105.921798 204.046564 
L 105.273796 202.318562 
L 104.265799 200.734562 
L 104.337798 199.726561 
L 104.841798 201.310561 
L 105.849799 202.894561 
L 106.353796 204.118563 
L 106.641795 205.630561 
L 106.569796 207.142562 
L 107.217799 207.718561 
L 108.297798 207.934562 
L 108.988388 207.933549 
L 109.92439 207.35755 
L 110.860388 207.069547 
L 112.084389 205.48555 
L 112.30039 203.325547 
L 112.156388 201.957547 
L 111.868389 201.597549 
L 110.644387 201.381548 
L 109.780388 201.52555 
L 109.23057 201.23755 
L 110.500389 201.23755 
L 111.868389 201.021549 
L 112.084389 200.44555 
L 112.01239 197.997547 
L 111.148388 197.637548 
L 109.92439 197.637548 
L 107.47639 197.421547 
L 106.900387 196.773549 
L 105.964389 195.333547 
L 106.18039 195.333547 
L 107.116388 196.98955 
L 108.484388 197.421547 
L 111.364388 197.205547 
L 112.018933 196.943729 
L 112.804391 197.925548 
L 113.66839 198.069549 
L 114.892388 197.133548 
L 115.324389 195.837547 
L 115.25239 193.893548 
L 114.46039 190.725548 
L 113.164389 188.781549 
L 111.940388 187.701549 
L 109.92439 186.333549 
L 109.420389 185.829549 
L 111.724387 186.621549 
L 112.516387 188.061548 
L 113.66839 188.925547 
L 114.74839 191.08555 
L 115.180387 193.101548 
L 115.900388 194.757547 
L 116.83639 195.333547 
L 117.037988 195.232746 
L 116.54839 195.549547 
L 116.476388 197.061549 
L 117.052387 198.069549 
L 117.916372 198.213547 
L 117.41239 198.213547 
L 116.04439 198.357549 
L 115.036389 199.36555 
L 114.316388 200.44555 
L 113.88439 202.02955 
L 114.100387 202.461548 
L 114.316388 203.613547 
L 115.324389 204.18955 
L 118.060388 203.541548 
L 119.21239 202.82155 
L 119.932388 201.669548 
L 121.228388 200.229549 
L 120.940389 201.093548 
L 119.644388 202.965548 
L 117.41239 204.261549 
L 115.612389 204.549548 
L 114.388387 204.549548 
L 113.09239 205.48555 
L 112.58839 206.709548 
L 112.660389 207.501548 
L 111.868389 207.35755 
L 110.860388 207.573547 
L 109.420389 208.149547 
L 108.772387 209.157547 
L 109.276388 210.381549 
L 111.00439 211.605547 
L 112.660389 211.461549 
L 114.100387 211.10155 
L 114.892388 211.605547 
L 116.260387 211.461549 
L 117.556388 210.885549 
L 118.133512 209.538927 
L 118.20439 210.885549 
L 118.99639 211.245548 
L 120.29239 211.677549 
L 121.94839 211.38955 
L 124.252387 210.813547 
L 125.332387 210.669549 
L 125.980389 209.301549 
L 126.124387 207.717549 
L 125.980389 205.917548 
L 124.900389 205.557549 
L 124.396389 205.557549 
L 125.90839 205.341548 
L 126.19639 204.621547 
L 126.48439 203.253548 
L 126.052388 201.813549 
L 125.11639 201.093548 
L 125.764388 201.165547 
L 126.052388 200.373547 
L 125.692389 198.141548 
L 125.980389 197.925548 
L 126.340388 198.57355 
L 126.268389 201.597549 
L 126.556389 203.181549 
L 126.556389 204.837548 
L 126.124387 208.797549 
L 126.268389 210.30955 
L 127.49239 210.525547 
L 129.004388 210.237547 
L 130.300388 209.445547 
L 131.164388 208.581548 
L 131.740387 206.637549 
L 131.884389 205.269549 
L 132.388389 203.973549 
L 132.748388 202.101549 
L 132.670303 199.319914 
L 131.734305 197.879916 
L 130.582303 196.367914 
L 129.286306 194.855913 
L 127.630303 194.423915 
L 127.126303 193.343916 
L 126.838303 192.263916 
L 125.326305 191.111913 
L 125.038306 190.031913 
L 124.246305 188.951914 
L 123.094303 188.663914 
L 123.814304 187.943913 
L 123.814304 186.575913 
L 123.166306 185.999914 
L 121.555637 185.669247 
L 122.230304 185.639915 
L 123.310304 184.703913 
L 122.662305 183.047914 
L 121.006306 181.967914 
L 119.422306 181.607915 
L 117.838305 181.607915 
L 120.142303 181.463914 
L 121.582305 182.183915 
L 123.022304 182.759914 
L 124.318304 182.399916 
L 124.894304 181.031916 
L 124.534305 179.015914 
L 123.310304 177.719914 
L 121.510303 176.639914 
L 119.926302 176.855915 
L 118.342306 178.007914 
L 118.774304 177.143914 
L 120.430303 176.423913 
L 123.094303 174.479914 
L 124.102304 174.551913 
L 125.038306 175.775915 
L 125.974304 176.711913 
L 127.198305 177.431914 
L 128.710303 177.215914 
L 129.646305 176.423913 
L 130.366306 175.559914 
L 130.222304 173.903915 
L 129.934304 173.111915 
L 130.582303 174.407915 
L 132.094304 174.839913 
L 132.958303 175.343914 
L 131.158306 175.271915 
L 128.566305 177.719914 
L 126.838303 179.015914 
L 125.902305 180.527916 
L 125.614305 182.183915 
L 126.262303 183.695916 
L 128.062304 184.343915 
L 129.214303 184.343915 
L 130.654305 183.047914 
L 133.462303 180.239916 
L 134.326303 179.087913 
L 134.974305 178.727915 
L 133.462303 180.815915 
L 131.878303 182.111916 
L 130.222304 183.911913 
L 128.710303 185.279913 
L 127.414306 186.791914 
L 127.702306 188.447913 
L 128.710303 189.455914 
L 129.934304 189.743914 
L 131.230305 189.671915 
L 132.526305 188.663914 
L 133.462303 187.727916 
L 135.190305 185.567916 
L 135.982305 184.127914 
L 136.486306 183.551914 
L 135.334303 185.855916 
L 134.254304 187.367913 
L 131.590303 190.031913 
L 130.798303 191.471916 
L 131.518304 193.055916 
L 132.526305 193.559916 
L 133.894305 192.983913 
L 135.046304 191.471916 
L 135.622303 191.471916 
L 134.326303 192.839915 
L 133.318305 193.703914 
L 132.094304 195.503915 
L 132.238306 197.303916 
L 133.318305 198.671916 
L 134.758304 198.671916 
L 135.982305 197.159914 
L 136.486306 196.151914 
L 136.630304 194.351913 
L 137.206303 193.991914 
L 137.998303 194.279914 
L 138.862303 194.063913 
L 139.294304 192.695913 
L 139.510305 191.255915 
L 139.078303 188.951914 
L 139.294304 187.943913 
L 139.150306 185.999914 
L 139.294304 183.263915 
L 139.222305 180.311915 
L 138.646306 178.583913 
L 137.566306 176.279915 
L 134.902306 173.183914 
L 133.678304 171.383913 
L 132.886304 169.295916 
L 132.958303 167.279914 
L 133.822306 165.047916 
L 134.326303 163.175916 
L 136.126303 160.439913 
L 137.998303 158.423915 
L 140.390528 156.676648 
L 143.846528 155.164647 
L 147.302528 153.508647 
L 151.406531 152.572646 
L 155.582528 151.060648 
L 158.174529 150.340647 
L 162.278528 149.404645 
L 165.30253 147.892648 
L 168.887034 147.017623 
L 165.16096 148.25965 
L 163.576982 149.987623 
L 167.320927 149.843625 
L 174.520818 148.979636 
L 179.909009 148.979636 
L 182.981957 149.197303 
L 189.568766 149.123638 
L 192.592765 149.483637 
L 195.400505 149.555629 
L 193.528534 148.403648 
L 190.360581 146.963668 
L 186.616636 146.099683 
L 185.775699 146.034995 
L 187.694531 146.164646 
L 190.646531 146.956646 
L 197.990529 149.332646 
L 202.742529 150.412646 
L 206.70253 151.708646 
L 210.366417 152.762279 
L 216.846416 154.130279 
L 220.086415 156.074282 
L 222.318417 158.162282 
L 224.046416 160.97028 
L 225.846417 164.42628 
L 226.782418 166.946282 
L 227.790416 169.178281 
L 228.078415 170.83428 
L 227.790416 172.49028 
L 226.494415 173.57028 
L 226.062417 175.082281 
L 225.198418 176.018282 
L 223.902418 176.666281 
L 222.534418 179.834281 
L 220.950418 183.002282 
L 220.446418 186.674279 
L 220.374419 188.258279 
L 221.166419 188.258279 
L 222.390417 185.234281 
L 222.678416 185.30628 
L 222.030418 187.034281 
L 221.238418 188.618282 
L 221.166419 190.490282 
L 220.734417 192.650281 
L 221.310417 194.09028 
L 221.958415 195.026282 
L 222.966416 194.522281 
L 223.686417 192.578282 
L 224.190417 190.418279 
L 224.190417 192.002279 
L 223.470416 194.234282 
L 222.822418 195.458279 
L 222.822418 197.690282 
L 223.038419 199.202279 
L 224.046416 199.778282 
L 225.126416 198.122279 
L 225.054417 199.058281 
L 225.342416 200.930281 
L 226.278418 201.79428 
L 227.718417 201.362279 
L 228.510417 200.21028 
L 228.582416 197.83428 
L 228.294416 196.898282 
L 228.870415 197.762281 
L 229.950415 197.25828 
L 230.382417 195.818282 
L 230.166416 194.09028 
L 228.442885 191.401902 
L 228.982981 191.518564 
L 229.918979 192.742562 
L 231.070981 192.814561 
L 232.366982 191.878563 
L 233.950979 190.294562 
L 234.526982 189.214562 
L 233.59098 188.134563 
L 232.520161 187.599151 
L 232.876498 187.593182 
L 233.556031 186.955301 
L 233.836127 186.093276 
L 232.756124 184.005275 
L 234.268125 185.949278 
L 234.844124 187.173275 
L 237.436125 186.309276 
L 237.076127 184.293275 
L 234.772125 181.341275 
L 232.900125 178.389275 
L 232.180124 177.741277 
L 230.308124 178.389275 
L 228.508127 178.533277 
L 229.804124 178.317276 
L 231.172127 177.597275 
L 232.252127 177.381278 
L 232.468124 176.157276 
L 231.676124 175.077277 
L 230.164126 174.717278 
L 229.228124 173.853275 
L 230.524125 174.501277 
L 231.820125 174.861276 
L 232.900125 174.573276 
L 234.052124 173.925278 
L 235.492126 173.637274 
L 234.988126 173.997277 
L 233.476125 174.285276 
L 232.324126 175.437275 
L 232.972124 176.805275 
L 233.980125 177.453277 
L 234.196126 177.453277 
L 233.476125 178.389275 
L 234.988126 180.693276 
L 235.924124 181.845275 
L 236.356125 182.853276 
L 236.644125 183.213275 
L 237.580127 184.077278 
L 238.804125 184.293275 
L 239.812126 183.501275 
L 240.316126 182.205278 
L 240.460124 180.693276 
L 240.388125 179.253278 
L 240.676125 176.661277 
L 241.612127 177.741277 
L 243.982658 179.286997 
L 241.540124 179.037277 
L 240.964124 180.477276 
L 240.820126 182.277277 
L 241.612127 183.717275 
L 241.108126 183.717275 
L 239.596125 184.149277 
L 238.588124 184.869278 
L 238.444126 186.093276 
L 239.397851 186.978877 
L 239.092125 186.813277 
L 237.508124 187.029277 
L 236.428124 187.749275 
L 236.777048 189.172657 
L 235.924124 189.477277 
L 234.844124 190.197278 
L 233.620126 191.637276 
L 233.044127 192.717276 
L 233.188125 194.013277 
L 234.844124 193.509276 
L 235.060125 194.013277 
L 233.260124 194.301276 
L 232.324126 194.805277 
L 231.460127 196.101277 
L 231.388124 197.829276 
L 231.820125 198.477278 
L 232.900125 199.125276 
L 235.564125 198.837276 
L 236.572126 197.973277 
L 237.364126 197.109275 
L 238.084124 196.101277 
L 239.020126 195.021278 
L 239.812126 193.509276 
L 239.092125 195.309277 
L 237.796124 197.973277 
L 237.364126 199.269278 
L 237.508124 200.565275 
L 238.804125 203.589277 
L 237.940126 201.645275 
L 236.860126 199.917276 
L 235.492126 199.629277 
L 233.476125 199.557278 
L 231.964124 200.565275 
L 231.748126 202.365276 
L 232.900125 204.021275 
L 234.412127 205.317275 
L 236.140125 207.045277 
L 237.292124 208.989276 
L 239.740127 211.581277 
L 243.700124 213.093275 
L 247.012126 212.949277 
L 248.668125 212.085278 
L 248.524127 210.933275 
L 247.804126 209.565276 
L 246.364124 208.845275 
L 247.300125 208.485276 
L 247.876125 207.261274 
L 247.948124 205.821276 
L 247.156124 204.165277 
L 246.148127 203.373276 
L 244.564126 203.445275 
L 243.052125 203.157276 
L 242.836124 201.861275 
L 243.124124 202.509277 
L 244.204124 203.157276 
L 246.364124 202.437275 
L 247.156124 202.653275 
L 247.660124 201.213277 
L 247.732127 198.261277 
L 247.516126 195.237275 
L 246.508125 194.661275 
L 245.284124 195.309277 
L 243.988127 196.173276 
L 242.836124 196.461276 
L 244.204124 195.669276 
L 245.356126 194.805277 
L 246.724126 194.589276 
L 247.804126 194.877276 
L 249.316127 194.013277 
L 252.916125 188.613278 
L 253.060127 187.677276 
L 252.340126 187.029277 
L 253.708125 187.245274 
L 255.796126 188.397277 
L 253.780124 188.541275 
L 253.348127 189.621275 
L 252.628126 190.413275 
L 250.684127 192.141277 
L 250.324124 193.221277 
L 251.404124 193.797276 
L 253.060127 194.373275 
L 254.500125 194.733278 
L 251.908124 194.157275 
L 250.684127 193.653274 
L 249.316127 194.157275 
L 248.812127 195.165276 
L 248.956125 196.749276 
L 250.108124 197.613275 
L 251.260126 197.685278 
L 252.124125 197.901275 
L 253.348127 197.829276 
L 254.140127 198.117275 
L 255.508126 197.037276 
L 254.716126 198.117275 
L 253.132126 198.621276 
L 251.620125 198.261277 
L 250.180126 198.045276 
L 249.028124 198.333276 
L 248.308126 199.917276 
L 248.020127 201.069275 
L 248.380125 202.725274 
L 249.100126 203.301277 
L 250.468126 203.157276 
L 251.620125 202.581276 
L 252.772124 202.149275 
L 252.484124 202.581276 
L 251.044125 203.301277 
L 249.748125 203.445275 
L 248.596126 204.453276 
L 248.596126 206.037276 
L 248.812127 207.621277 
L 250.108124 211.509275 
L 251.260126 211.725275 
L 252.844126 211.653276 
L 253.996125 211.365277 
L 255.148124 210.933275 
L 255.868125 209.781276 
L 255.868125 208.989276 
L 254.644124 207.045277 
L 253.780124 206.109276 
L 254.644124 204.957277 
L 255.220127 203.661276 
L 256.228124 202.077276 
L 257.020124 201.933278 
L 257.906886 202.2342 
L 257.164126 202.365276 
L 256.516127 203.301277 
L 256.228124 204.237276 
L 256.300126 205.749277 
L 256.660125 207.045277 
L 257.308124 207.621277 
L 258.820125 207.261274 
L 259.468127 206.397275 
L 260.188124 206.181275 
L 260.476124 206.757278 
L 260.620126 207.765275 
L 261.340127 208.341278 
L 262.636124 207.981275 
L 263.644124 207.549278 
L 264.148125 206.829277 
L 264.436125 207.045277 
L 262.708126 209.205277 
L 262.636124 210.717275 
L 263.284126 212.013275 
L 264.076126 213.165278 
L 265.660126 212.733276 
L 266.452126 213.093275 
L 267.316125 212.661277 
L 267.748127 210.213278 
L 268.180124 208.701277 
L 267.964124 206.829277 
L 267.604125 205.389274 
L 267.100125 204.381277 
L 266.092124 204.237276 
L 266.812125 204.093278 
L 266.812125 201.861275 
L 266.524125 200.205276 
L 265.228125 199.629277 
L 262.348124 199.413276 
L 260.692125 198.981274 
L 261.340127 198.765277 
L 264.220124 199.269278 
L 265.732125 199.125276 
L 266.740126 198.549277 
L 267.316125 196.821275 
L 267.316125 194.661275 
L 266.956127 192.789275 
L 265.588127 191.205275 
L 263.860125 191.781274 
L 261.426525 193.887789 
L 261.988125 193.005276 
L 263.284126 192.285275 
L 263.716124 191.061277 
L 263.212127 189.333275 
L 261.628127 188.613278 
L 260.836126 187.965276 
L 260.548127 187.101276 
L 261.484125 187.173275 
L 262.780125 187.389276 
L 263.500126 188.325278 
L 265.660126 189.549276 
L 266.308125 189.621275 
L 266.956127 190.845276 
L 267.316125 192.141277 
L 268.468124 193.005276 
L 270.052124 192.501276 
L 270.628124 192.789275 
L 270.412127 193.797276 
L 269.404126 194.517277 
L 268.108125 195.165276 
L 267.460127 196.389277 
L 267.028126 197.685278 
L 266.740126 199.269278 
L 266.956127 200.853274 
L 267.388124 202.509277 
L 267.676124 202.725274 
L 268.540127 203.733275 
L 269.764125 203.085277 
L 271.023863 202.024444 
L 270.556125 202.581276 
L 269.188125 203.517274 
L 268.612126 204.813275 
L 268.540127 206.901276 
L 268.900126 208.269275 
L 269.764125 208.629278 
L 270.844125 208.125277 
L 271.800698 207.487559 
L 270.196126 208.557275 
L 269.116126 209.493277 
L 269.548124 210.717275 
L 270.556125 210.645276 
L 270.052124 211.293278 
L 268.756124 211.509275 
L 268.396125 212.733276 
L 268.684125 213.957278 
L 269.543055 214.4846 
L 270.767056 214.628598 
L 272.063057 214.412601 
L 273.719056 214.412601 
L 276.527054 213.548599 
L 277.607054 212.6126 
L 278.111054 211.6046 
L 278.327055 209.9486 
L 277.607054 208.292601 
L 276.887056 207.788601 
L 274.862055 208.25885 
L 275.375055 207.788601 
L 276.239054 207.500601 
L 276.743055 205.916601 
L 276.959055 204.044601 
L 276.959055 201.9566 
L 277.463056 201.020598 
L 277.463056 201.524599 
L 277.247055 202.892598 
L 277.103053 204.692599 
L 277.319054 206.060599 
L 277.679056 207.140599 
L 278.327055 208.292601 
L 279.335056 208.724599 
L 280.703055 208.580601 
L 281.999056 207.428598 
L 282.215056 206.060599 
L 282.143054 204.548601 
L 281.135057 202.820599 
L 280.919056 201.236599 
L 281.711056 202.5326 
L 282.359054 204.044601 
L 282.935054 204.332601 
L 284.159055 204.692599 
L 286.679054 203.684598 
L 288.119056 204.044601 
L 290.279056 203.5406 
L 290.999053 202.5326 
L 290.855055 200.8766 
L 289.775055 199.652599 
L 288.695055 199.2926 
L 287.18439 199.567264 
L 287.399055 199.436602 
L 287.759054 197.924601 
L 287.183054 196.268601 
L 286.247056 195.8366 
L 284.879056 194.972601 
L 281.788092 196.725707 
L 283.367055 195.764601 
L 284.303053 194.900602 
L 284.663056 193.6766 
L 284.087056 191.516601 
L 283.295056 189.860601 
L 282.359054 188.852601 
L 281.351054 189.860601 
L 280.487055 190.364602 
L 277.391053 192.668599 
L 278.039055 191.8046 
L 279.047056 191.0126 
L 280.055053 190.436601 
L 280.775054 189.500599 
L 281.351054 188.204598 
L 280.703055 186.044599 
L 279.407055 185.1806 
L 277.535055 184.820601 
L 276.383056 185.252599 
L 275.735054 185.6846 
L 275.015056 186.836599 
L 274.295055 187.772601 
L 274.871055 186.332599 
L 275.375055 184.316601 
L 275.879056 183.380599 
L 277.535055 183.5246 
L 278.831055 184.820601 
L 280.055053 185.3966 
L 281.063054 186.116601 
L 281.711056 186.332599 
L 282.647054 187.772601 
L 283.655055 189.9326 
L 284.303053 190.292599 
L 286.175053 190.292599 
L 286.751056 190.652601 
L 288.119056 190.652601 
L 289.199056 191.228601 
L 289.199056 191.372599 
L 287.831056 190.724601 
L 286.535056 190.7966 
L 285.167056 191.3006 
L 285.023055 192.812601 
L 285.167056 194.108602 
L 286.895054 195.8366 
L 287.903055 196.1246 
L 289.127053 195.908599 
L 290.279056 195.116599 
L 291.791053 194.4686 
L 291.719054 194.612598 
L 288.551054 196.268601 
L 288.119056 197.564602 
L 289.055054 198.716601 
L 290.279056 199.652599 
L 290.855055 200.516602 
L 291.719054 200.732599 
L 293.447056 200.228602 
L 295.247053 199.0046 
L 295.284971 198.43584 
L 295.319056 198.5006 
L 295.535053 199.940599 
L 294.095055 199.940599 
L 292.655056 200.732599 
L 291.575056 201.6686 
L 291.071056 202.604599 
L 291.071056 203.972602 
L 291.647055 205.1966 
L 293.159056 205.556598 
L 295.247053 204.980599 
L 296.255054 203.756601 
L 297.119053 203.108599 
L 298.055055 203.396599 
L 297.551055 203.3246 
L 295.967054 204.692599 
L 295.463054 205.772599 
L 295.679055 207.356599 
L 297.047054 207.716602 
L 298.271056 207.5726 
L 298.919054 206.7806 
L 299.063056 206.852599 
L 298.919054 208.0766 
L 299.855056 208.796601 
L 301.511055 209.516599 
L 302.591055 209.1566 
L 303.455054 208.292601 
L 303.671055 206.348598 
L 302.951054 204.548601 
L 301.871054 203.468601 
L 300.791054 202.172601 
L 299.207054 199.8686 
L 300.503054 200.6606 
L 301.223056 201.740599 
L 303.311056 203.900599 
L 303.815057 205.556598 
L 304.031054 208.868601 
L 304.961986 209.563247 
L 306.113985 209.563247 
L 307.769984 209.275247 
L 308.849984 208.699248 
L 309.497986 209.491248 
L 311.513984 209.92325 
L 314.177984 209.203248 
L 314.609985 207.979247 
L 313.745983 206.395247 
L 312.881984 205.459249 
L 311.225984 205.459249 
L 308.273985 205.819247 
L 307.625986 204.955248 
L 307.337983 203.875248 
L 306.905985 203.227246 
L 308.633983 205.315247 
L 309.569985 205.315247 
L 311.009984 204.955248 
L 312.377983 204.955248 
L 313.457983 205.315247 
L 314.177984 206.683246 
L 315.041983 207.835249 
L 316.409983 208.411248 
L 318.065986 208.483247 
L 319.217984 207.619248 
L 319.433985 206.251249 
L 319.145985 204.523247 
L 318.065986 203.51525 
L 317.129984 202.795248 
L 315.761984 202.723249 
L 315.257984 203.011249 
L 315.761984 201.715249 
L 315.761984 200.419248 
L 314.465984 199.627248 
L 313.733583 199.947671 
L 313.673984 199.411247 
L 313.238139 198.041452 
L 313.241986 198.043248 
L 314.681984 198.043248 
L 315.106129 197.336336 
L 314.969984 198.187249 
L 315.329983 199.411247 
L 315.977985 200.275246 
L 317.057985 200.059249 
L 317.633984 200.131248 
L 317.057985 200.923249 
L 317.489986 202.579248 
L 318.137985 203.443247 
L 319.433985 203.875248 
L 320.657983 203.947247 
L 321.521986 202.723249 
L 321.737983 201.283247 
L 321.809986 199.699247 
L 321.449983 198.547248 
L 321.190789 198.288054 
L 321.449983 198.475249 
L 322.673985 198.475249 
L 323.177985 197.827247 
L 323.681985 196.963248 
L 323.897986 195.23525 
L 323.825983 194.011248 
L 324.401983 193.507248 
L 325.193983 192.643249 
L 325.697983 191.77925 
L 325.265986 190.627247 
L 324.401983 190.339247 
L 322.457984 191.131247 
L 321.521986 190.987249 
L 322.673985 190.843248 
L 323.681985 190.483249 
L 324.473986 189.187248 
L 324.401983 188.467247 
L 322.961984 187.603248 
L 321.809986 187.099248 
L 319.217984 188.539246 
L 321.089984 186.811248 
L 322.169984 186.883247 
L 323.393986 187.387248 
L 324.041984 187.891248 
L 324.977986 187.603248 
L 325.265986 186.451249 
L 325.193983 184.363249 
L 324.617984 182.563248 
L 323.465985 181.555247 
L 322.025986 181.051247 
L 320.513985 181.843247 
L 319.793984 182.70725 
L 319.001984 184.003246 
L 317.489986 185.587247 
L 315.473985 186.883247 
L 314.321986 187.027249 
L 315.905986 185.947249 
L 316.913983 185.443249 
L 318.281983 183.859248 
L 318.857986 182.923247 
L 318.713984 181.339246 
L 317.993983 181.123249 
L 316.697986 180.259247 
L 315.689985 180.115248 
L 314.105985 180.403248 
L 313.169983 181.123249 
L 312.305984 184.579249 
L 311.369986 185.587247 
L 311.297983 185.443249 
L 312.233985 184.003246 
L 312.449986 183.139247 
L 312.521985 181.555247 
L 311.945985 180.403248 
L 309.137984 180.475247 
L 308.273985 181.339246 
L 307.913986 182.779249 
L 307.337983 184.219247 
L 306.689984 184.867249 
L 305.537985 184.363249 
L 303.089986 183.571249 
L 301.505986 182.779249 
L 302.153984 183.067248 
L 304.241985 183.859248 
L 305.537985 184.003246 
L 306.617985 183.715247 
L 307.409985 182.851248 
L 307.913986 181.123249 
L 307.697985 180.043249 
L 306.617985 179.179247 
L 305.465983 178.531248 
L 304.025984 178.675246 
L 302.225983 178.387247 
L 300.641983 178.675246 
L 299.921986 179.107248 
L 298.913985 179.107248 
L 297.689983 181.339246 
L 297.041985 181.915249 
L 297.761986 180.83525 
L 297.761986 178.675246 
L 297.329985 178.675246 
L 294.953984 178.027244 
L 294.161984 177.667249 
L 293.225986 178.531248 
L 293.297985 177.523247 
L 292.217985 177.235248 
L 290.561986 177.235248 
L 289.009041 176.991218 
L 286.636082 177.403951 
L 287.716081 176.971949 
L 289.444083 176.755949 
L 294.124081 177.403951 
L 296.644083 178.051949 
L 298.660081 178.699948 
L 299.81208 178.55595 
L 300.60408 177.97995 
L 300.532081 177.18795 
L 300.748082 178.411948 
L 302.116081 178.339949 
L 303.484081 178.411948 
L 304.564081 178.339949 
L 305.42808 177.619948 
L 304.924083 176.323947 
L 303.772081 174.955948 
L 303.988081 174.955948 
L 305.14008 176.539948 
L 305.93208 178.051949 
L 307.228081 179.05995 
L 309.96408 179.491948 
L 313.13208 179.56395 
L 314.860082 179.34795 
L 315.79608 179.05995 
L 316.08408 177.763949 
L 315.00408 176.68395 
L 313.564082 175.81995 
L 311.980082 175.171948 
L 310.108082 174.163948 
L 311.476081 174.23595 
L 312.556081 175.171948 
L 314.21208 175.891949 
L 315.724081 176.68395 
L 316.372084 178.051949 
L 316.804081 178.699948 
L 317.236083 179.923949 
L 318.172081 180.787948 
L 319.54008 181.291949 
L 320.764082 181.363948 
L 322.564083 180.499948 
L 323.140082 179.131949 
L 322.564083 177.763949 
L 321.556082 176.827948 
L 319.900083 176.39595 
L 321.124081 176.467949 
L 321.844082 175.171948 
L 321.052082 172.93995 
L 320.044081 172.507948 
L 317.884081 172.65195 
L 316.08408 173.083948 
L 314.21208 172.867951 
L 318.74808 172.435949 
L 319.684082 171.211948 
L 319.396082 169.771949 
L 317.740083 168.691949 
L 316.516082 167.755948 
L 315.580083 167.899949 
L 312.62808 169.48395 
L 309.67608 170.707947 
L 308.308081 171.499947 
L 308.59608 170.851949 
L 309.604081 170.203951 
L 309.748083 168.979949 
L 309.604081 167.683949 
L 309.96408 167.683949 
L 309.96408 169.98795 
L 310.972081 169.69995 
L 312.484082 168.835947 
L 314.140081 168.259948 
L 315.148082 167.03595 
L 315.076083 165.73995 
L 314.428081 164.08395 
L 313.708083 162.715947 
L 312.34008 162.859949 
L 311.404082 163.795951 
L 311.404082 163.219948 
L 311.764081 161.70795 
L 310.828083 160.62795 
L 309.532082 160.843947 
L 308.812081 161.70795 
L 308.09208 163.147949 
L 307.372083 164.227948 
L 306.580082 165.667951 
L 305.284082 167.539951 
L 304.492082 171.715948 
L 304.420083 170.059949 
L 303.916082 168.61995 
L 302.692081 168.691949 
L 301.468083 169.19595 
L 300.388083 170.131948 
L 300.244082 171.211948 
L 300.676083 172.579947 
L 300.244082 173.659947 
L 300.244082 171.57195 
L 299.308083 170.923948 
L 298.372082 170.77995 
L 297.364081 171.06795 
L 296.500082 171.643949 
L 292.972082 171.715948 
L 293.188083 171.28395 
L 294.628082 171.427948 
L 299.740081 170.059949 
L 301.108081 168.90795 
L 301.612081 168.043947 
L 301.900081 168.11595 
L 302.836083 168.043947 
L 303.700082 167.539951 
L 306.436081 164.155949 
L 307.01208 163.219948 
L 307.948082 162.139948 
L 308.452082 160.91595 
L 308.59608 160.12395 
L 308.020081 159.259951 
L 304.996082 159.33195 
L 303.772081 160.267948 
L 301.252082 162.571949 
L 300.532081 163.435948 
L 299.596083 164.299947 
L 298.516083 165.45195 
L 297.220083 166.53195 
L 296.06808 167.107949 
L 297.436083 166.027949 
L 298.948081 164.443949 
L 299.81208 163.363949 
L 300.460082 162.21195 
L 300.100083 161.275949 
L 298.516083 160.555948 
L 295.708082 161.275949 
L 294.19608 163.363949 
L 291.028083 166.53195 
L 290.092082 167.899949 
L 289.588081 169.051948 
L 288.58008 168.835947 
L 289.228083 167.539951 
L 291.604083 165.235949 
L 292.684083 163.651949 
L 293.260082 162.427947 
L 294.340082 161.635947 
L 295.924082 160.12395 
L 296.86008 159.691948 
L 301.036082 159.83595 
L 307.228081 158.971947 
L 309.100081 159.187948 
L 309.316082 158.035949 
L 307.372083 156.88395 
L 305.716083 155.659949 
L 303.988081 154.723951 
L 303.484081 154.075949 
L 302.740758 153.841695 
L 301.156757 153.553695 
L 299.93276 153.193697 
L 299.068757 152.473695 
L 294.532757 147.073696 
L 292.804758 145.561695 
L 289.204757 142.177694 
L 287.260758 140.521695 
L 286.193466 139.78052 
L 289.276759 142.033696 
L 290.644759 142.249697 
L 291.148759 142.105695 
L 291.148759 143.473695 
L 291.940759 144.625697 
L 293.092758 144.625697 
L 293.740757 144.337694 
L 293.812759 145.417697 
L 294.100759 146.425694 
L 294.604759 146.641695 
L 296.188756 146.713694 
L 296.548758 147.001694 
L 295.900756 148.369697 
L 297.196757 149.665694 
L 299.068757 151.825697 
L 300.148757 152.113697 
L 300.868758 152.905697 
L 302.164758 153.337695 
L 303.100756 152.545695 
L 303.532758 151.177695 
L 301.948758 148.657697 
L 300.796759 147.073696 
L 298.348759 143.113696 
L 296.764759 141.025695 
L 292.408758 136.579697 
L 287.548757 133.015696 
L 285.766759 130.585696 
L 283.336758 128.317696 
L 280.744757 125.563694 
L 278.638758 124.429694 
L 276.856759 124.753695 
L 276.937838 122.807795 
L 276.289759 121.108696 
L 275.155759 119.407696 
L 273.454759 119.407696 
L 270.862758 122.890695 
L 269.485759 121.594694 
L 267.946756 121.351695 
L 265.597758 121.756695 
L 263.977756 121.513696 
L 265.516759 121.351695 
L 268.189759 120.622695 
L 269.971757 119.893694 
L 271.267758 117.949695 
L 271.915756 116.329697 
L 270.700758 112.846695 
L 268.432758 110.821694 
L 266.245756 109.525697 
L 264.463758 109.444695 
L 264.301757 110.902696 
L 263.695588 110.736385 
L 263.55159 108.936387 
L 262.543589 106.560387 
L 261.607587 104.760386 
L 259.59159 103.176386 
L 257.647591 102.240384 
L 255.487587 101.952384 
L 253.471589 102.312387 
L 252.679589 104.256386 
L 253.327588 106.416385 
L 254.695587 107.280384 
L 257.071587 110.376386 
L 259.51959 112.680387 
L 260.88759 113.472387 
L 261.823588 114.264384 
L 259.807587 113.400385 
L 258.079588 111.528385 
L 256.423589 110.592387 
L 254.407587 110.664386 
L 253.039588 111.816384 
L 252.60759 113.400385 
L 252.89559 114.840387 
L 255.55959 118.872386 
L 256.495588 120.672384 
L 251.599589 114.264384 
L 249.799588 113.328386 
L 247.711588 113.328386 
L 247.135588 113.544386 
L 246.919588 114.336386 
L 247.495587 116.856385 
L 248.575591 119.088387 
L 248.431589 119.088387 
L 246.127588 115.416386 
L 245.40759 112.536386 
L 245.047588 109.368385 
L 245.767589 110.664386 
L 246.99159 111.384387 
L 248.215588 111.528385 
L 249.799588 110.592387 
L 249.871587 108.216386 
L 249.727589 106.128386 
L 248.143589 103.968386 
L 246.77559 102.600386 
L 245.11959 100.368384 
L 245.11959 99.288384 
L 246.919588 98.496384 
L 247.56759 96.768386 
L 246.48759 94.680385 
L 243.82359 94.176385 
L 241.303588 93.024386 
L 237.199589 92.880384 
L 236.83959 94.896386 
L 237.343587 96.552385 
L 238.639588 97.848386 
L 240.36759 98.928386 
L 239.143588 98.712385 
L 237.559588 97.560386 
L 237.055588 99.144386 
L 237.12759 101.376385 
L 237.70359 102.168385 
L 239.359589 103.464386 
L 239.719588 104.112384 
L 237.70359 102.456385 
L 236.551587 102.240384 
L 235.903589 103.680386 
L 237.91959 109.584386 
L 238.135587 111.888387 
L 238.49559 114.120386 
L 238.49559 116.496386 
L 238.279589 117.864386 
L 237.901178 117.27325 
L 237.829179 115.257249 
L 237.541179 113.889249 
L 237.46918 112.089248 
L 236.749179 108.345249 
L 236.17318 106.257252 
L 235.381179 104.961251 
L 234.085179 104.52925 
L 232.64518 103.809249 
L 231.85318 102.585251 
L 232.64518 103.16125 
L 233.653181 103.377251 
L 234.733181 103.017248 
L 235.453178 102.297251 
L 235.59718 101.505251 
L 235.453178 99.777249 
L 234.51718 98.553251 
L 233.509179 97.617249 
L 233.005179 96.681251 
L 232.861181 95.45725 
L 234.30118 98.193249 
L 235.381179 99.12925 
L 236.245179 98.553251 
L 236.488559 95.772629 
L 235.984558 92.388631 
L 235.192562 91.020632 
L 233.96856 89.940632 
L 230.296559 88.50063 
L 228.92856 87.780632 
L 227.992562 88.284629 
L 227.920559 89.868629 
L 229.000559 94.188632 
L 228.784558 95.41263 
L 228.64056 94.188632 
L 227.992562 90.444629 
L 227.128559 89.652632 
L 227.128559 88.572629 
L 226.552559 87.564631 
L 225.904561 86.700629 
L 225.040558 85.980631 
L 223.456562 85.620629 
L 222.160561 85.836629 
L 221.800559 86.772631 
L 222.23256 88.428631 
L 224.752558 94.764631 
L 224.176559 93.684632 
L 222.52056 90.228631 
L 221.080561 86.62863 
L 220.000561 85.404632 
L 216.256562 85.476631 
L 215.392559 86.34063 
L 215.82456 88.068632 
L 216.544561 89.580629 
L 217.480559 90.732632 
L 218.27256 90.948629 
L 218.704561 92.244629 
L 219.208561 93.180631 
L 220.000561 93.82863 
L 220.288561 94.908629 
L 220.792562 96.20463 
L 221.44056 97.500631 
L 222.160561 98.508631 
L 223.096559 98.940629 
L 225.544559 99.444629 
L 226.48056 99.876631 
L 227.56056 100.812629 
L 228.496558 102.32463 
L 228.424559 102.540631 
L 227.05656 100.956631 
L 225.97656 100.092632 
L 224.536561 99.588631 
L 223.240561 99.804632 
L 223.02456 101.02863 
L 223.960558 103.044631 
L 225.760559 105.852629 
L 226.984561 108.372631 
L 229.504559 111.612631 
L 230.22456 113.196631 
L 231.160558 115.93263 
L 231.30456 117.372629 
L 231.30456 119.28063 
L 231.232561 118.236632 
L 231.088559 116.364632 
L 230.584559 114.420629 
L 229.576558 112.692631 
L 228.712559 110.964629 
L 227.84856 109.884629 
L 226.696561 109.668632 
L 226.26456 111.756629 
L 226.336559 115.644631 
L 226.696561 120.900632 
L 227.05656 123.13263 
L 226.984561 124.140631 
L 226.48056 122.412629 
L 226.120562 118.812631 
L 226.192561 116.940631 
L 225.760559 112.18863 
L 226.192561 109.30863 
L 226.120562 108.588629 
L 225.68856 106.716629 
L 225.18456 105.492631 
L 223.81656 103.548632 
L 223.456562 102.684629 
L 222.376558 100.884632 
L 222.016559 99.66063 
L 221.224559 97.644629 
L 219.640559 95.41263 
L 218.704561 93.756631 
L 217.69656 93.324629 
L 216.184559 93.900629 
L 216.976559 92.964631 
L 217.480559 91.596631 
L 216.976559 90.804631 
L 215.752561 89.220631 
L 215.104559 88.140631 
L 213.304558 85.76463 
L 211.57656 84.540629 
L 208.984559 83.96463 
L 208.048561 84.252629 
L 208.12056 85.908629 
L 209.437132 88.325772 
L 208.768558 87.92463 
L 208.264561 86.988632 
L 207.616559 85.476631 
L 207.04056 84.612632 
L 206.608558 83.67663 
L 205.744559 82.452632 
L 204.736559 81.444631 
L 203.440562 80.364631 
L 201.640561 80.508629 
L 201.280558 81.80463 
L 202.072558 83.244632 
L 201.064561 81.51663 
L 200.704559 81.300629 
L 199.696558 80.43663 
L 198.400561 80.364631 
L 197.320561 81.444631 
L 197.464559 83.028631 
L 198.184561 84.828629 
L 198.904562 85.476631 
L 200.200559 85.980631 
L 201.352561 85.908629 
L 204.520561 88.860632 
L 205.240559 90.012631 
L 204.08856 88.572629 
L 200.92056 86.34063 
L 199.55256 86.124629 
L 198.688561 87.42063 
L 199.768561 88.932631 
L 201.568558 92.532629 
L 202.936561 92.74863 
L 203.944558 92.532629 
L 204.88056 92.964631 
L 206.680561 95.484629 
L 204.88056 93.54063 
L 202.79256 92.820629 
L 202.000559 94.04463 
L 202.864559 95.988629 
L 203.185486 97.107207 
L 203.88902 97.969918 
L 204.676774 99.263266 
L 205.468774 100.127265 
L 206.404772 100.199264 
L 207.700773 99.407264 
L 208.276772 99.983263 
L 207.772775 100.847262 
L 209.068772 101.999265 
L 210.364773 104.087265 
L 209.500774 102.935263 
L 208.060775 101.351263 
L 206.188775 100.919265 
L 205.540773 101.999265 
L 206.620773 104.231263 
L 207.772775 105.743265 
L 208.852775 106.247265 
L 210.580774 106.031264 
L 210.436776 106.535265 
L 209.644775 106.679263 
L 208.420774 107.327265 
L 208.996773 109.487265 
L 210.076773 110.927263 
L 211.084774 111.431264 
L 212.308775 111.575265 
L 213.532773 112.223264 
L 214.108773 113.087263 
L 212.740773 112.151265 
L 211.300775 111.647264 
L 210.724775 113.231264 
L 211.732772 114.815265 
L 213.748774 115.895264 
L 214.972776 116.975264 
L 215.548775 117.983265 
L 214.612773 117.263264 
L 213.892772 118.559265 
L 213.604772 120.143265 
L 214.180775 121.655262 
L 215.620774 123.239263 
L 216.052775 124.463264 
L 215.836775 123.959264 
L 215.321572 123.421661 
L 214.999603 124.111757 
L 214.446338 123.171956 
L 214.023238 124.134662 
L 213.232944 124.571772 
L 213.520943 123.851771 
L 213.736944 122.05177 
L 213.232944 119.747773 
L 213.232944 118.955773 
L 213.376942 117.299773 
L 213.016943 115.787772 
L 211.792942 114.851774 
L 210.784944 115.859771 
L 209.992944 116.867772 
L 210.064943 119.603771 
L 209.704945 117.227771 
L 210.136942 116.363772 
L 210.640943 115.067771 
L 210.424942 113.915772 
L 209.560943 112.763773 
L 208.552942 112.259773 
L 207.904944 112.691771 
L 206.968942 113.123772 
L 207.976943 112.115771 
L 208.480943 111.179773 
L 208.768943 110.099773 
L 208.552942 108.659771 
L 208.048942 107.579771 
L 207.256942 106.571771 
L 206.536944 106.067774 
L 205.600942 106.571771 
L 204.592942 107.291772 
L 206.032944 105.491771 
L 206.104943 104.267773 
L 205.600942 103.475773 
L 204.664944 103.115774 
L 203.980941 103.551045 
L 204.736943 102.107773 
L 204.520942 100.955771 
L 203.872944 99.155773 
L 203.080944 98.075774 
L 201.784943 97.787774 
L 200.560942 99.227769 
L 200.992943 101.02777 
L 200.920944 102.395773 
L 200.416944 99.083771 
L 199.984942 98.075774 
L 200.128944 97.643772 
L 200.704944 97.787774 
L 201.280943 97.067773 
L 201.712944 95.987773 
L 201.424945 94.259771 
L 200.992943 92.819772 
L 200.056942 92.171774 
L 199.192942 92.603772 
L 198.400942 93.179771 
L 197.032943 93.179771 
L 197.536943 92.459774 
L 198.832944 91.811772 
L 199.480942 91.163773 
L 199.120943 90.155772 
L 198.400942 89.147772 
L 197.392941 88.355771 
L 197.032943 87.563771 
L 197.176944 86.411773 
L 197.176944 84.539773 
L 196.888945 83.315771 
L 196.096945 82.379773 
L 195.520942 82.883773 
L 194.368943 83.315771 
L 193.720944 82.811771 
L 192.784942 82.235771 
L 191.704943 82.163772 
L 190.912942 82.523771 
L 190.768944 83.819771 
L 191.056944 85.043773 
L 192.679979 87.713848 
L 193.355981 88.489845 
L 193.852071 89.410029 
L 192.915412 88.544709 
L 191.403411 86.456708 
L 190.39541 84.44071 
L 188.955412 82.784711 
L 187.371411 82.424708 
L 185.787411 82.712708 
L 185.427413 84.15271 
L 185.643413 85.592709 
L 186.579411 86.672709 
L 187.515413 87.320711 
L 187.73141 88.832708 
L 187.587412 90.05671 
L 188.451411 91.568707 
L 189.243411 92.72071 
L 190.179413 92.864708 
L 191.619412 92.504709 
L 191.835412 91.568707 
L 192.195411 92.864708 
L 193.419413 93.944708 
L 194.715413 94.736708 
L 195.651411 96.17671 
L 195.363412 95.88871 
L 194.211413 94.448708 
L 192.55541 93.51271 
L 191.043412 92.864708 
L 189.819411 93.440707 
L 189.675413 95.09671 
L 190.39541 96.392711 
L 191.547413 97.112708 
L 192.843413 97.54471 
L 194.283412 97.76071 
L 193.491412 97.76071 
L 192.339413 97.904708 
L 192.123412 99.41671 
L 192.771411 101.072709 
L 193.995412 101.720707 
L 195.795413 101.50471 
L 197.019411 101.144708 
L 197.09141 100.280709 
L 197.09141 102.008711 
L 197.88341 103.304707 
L 198.891411 104.528709 
L 199.395411 105.608709 
L 198.315411 104.240709 
L 196.947412 102.728708 
L 195.21941 102.440708 
L 193.707412 102.368709 
L 193.707412 103.95271 
L 194.355411 105.392708 
L 195.363412 106.472708 
L 195.939411 107.480709 
L 196.587413 108.128707 
L 197.019411 109.352709 
L 198.747413 108.848708 
L 200.475411 108.48871 
L 201.411413 109.064709 
L 202.779412 110.648709 
L 202.41941 111.94471 
L 201.915413 110.28871 
L 200.691412 109.064709 
L 199.107412 109.424708 
L 198.17141 110.432708 
L 197.739412 112.088708 
L 198.67541 112.73671 
L 196.80341 112.304708 
L 195.579412 113.672708 
L 195.651411 115.11271 
L 194.787412 113.312709 
L 197.019411 112.16071 
L 196.731411 111.296708 
L 196.731411 109.712707 
L 195.939411 108.128707 
L 194.571412 107.40871 
L 193.275411 107.264708 
L 192.26741 108.344708 
L 191.47541 108.41671 
L 192.051413 107.696709 
L 193.707412 106.760708 
L 193.995412 105.176707 
L 193.131413 103.66471 
L 192.051413 103.448709 
L 190.467413 103.88071 
L 188.883413 103.520708 
L 190.755413 103.232708 
L 192.195411 103.232708 
L 192.339413 102.800711 
L 191.979411 101.144708 
L 191.259413 100.20871 
L 190.39541 99.34471 
L 190.539412 98.408709 
L 190.539412 96.752709 
L 189.459412 95.600711 
L 187.875412 95.38471 
L 186.65141 95.816708 
L 186.003412 96.824708 
L 185.643413 98.192708 
L 185.787411 96.896707 
L 186.14741 95.88871 
L 186.867411 95.312707 
L 187.803413 94.736708 
L 188.091413 93.872709 
L 187.803413 92.216709 
L 187.011413 91.280708 
L 185.931413 90.704708 
L 184.56341 91.208709 
L 182.619411 91.64071 
L 180.81941 90.992708 
L 178.515412 91.13671 
L 180.315413 90.920709 
L 183.627412 91.064711 
L 185.283411 90.56071 
L 186.075411 89.840709 
L 186.003412 87.752708 
L 184.923412 86.31271 
L 182.835411 86.744708 
L 181.354847 86.866399 
L 179.698847 87.154399 
L 177.538848 87.8744 
L 175.594849 88.306398 
L 171.706847 89.818399 
L 171.274849 90.970398 
L 171.706847 91.762398 
L 174.874848 91.762398 
L 173.794848 92.6984 
L 170.69885 92.338398 
L 169.546848 92.842398 
L 168.826846 94.2824 
L 168.466848 95.434399 
L 169.258848 95.938399 
L 170.626847 96.010398 
L 171.562849 96.4424 
L 171.562849 97.7384 
L 170.842848 99.250398 
L 170.19485 99.754398 
L 170.842848 98.530401 
L 170.770849 97.666398 
L 170.410847 97.018399 
L 169.546848 96.4424 
L 168.394849 96.7304 
L 166.882847 97.810399 
L 166.090847 98.962398 
L 165.802848 99.8984 
L 166.594848 100.474399 
L 165.874847 101.554399 
L 165.154849 102.202398 
L 164.650849 102.8504 
L 164.394888 104.682262 
L 165.652681 104.888617 
L 164.834836 105.014438 
L 163.034835 106.166441 
L 162.458836 107.174438 
L 162.026838 108.686439 
L 162.386837 109.766439 
L 163.970837 110.126438 
L 165.050837 109.838438 
L 164.906835 110.630438 
L 163.754836 111.85444 
L 163.106838 113.006438 
L 163.178837 111.782441 
L 163.394838 110.702441 
L 162.242835 109.766439 
L 160.946838 109.622441 
L 159.938837 110.630438 
L 159.434837 112.214438 
L 159.866838 113.366441 
L 160.226837 113.582438 
L 160.442838 114.158441 
L 159.002836 114.086438 
L 158.426836 114.302439 
L 157.706835 115.166438 
L 157.418835 117.470439 
L 158.210836 118.26244 
L 159.434837 117.97444 
L 157.634836 118.47844 
L 156.410838 118.910438 
L 155.402837 119.918439 
L 154.682836 121.214439 
L 154.322838 122.582439 
L 152.810836 123.734438 
L 153.746838 122.870439 
L 154.250835 122.006439 
L 154.538838 120.63844 
L 155.042835 119.55844 
L 155.402837 118.26244 
L 154.466836 117.830438 
L 155.618838 117.614441 
L 156.842836 115.81444 
L 157.274837 114.73444 
L 157.202838 113.72644 
L 155.690837 113.15044 
L 157.130836 113.222439 
L 157.778838 113.006438 
L 158.570838 112.35844 
L 160.586836 108.686439 
L 160.226837 108.11044 
L 157.130836 108.61444 
L 158.498835 107.966438 
L 159.794836 107.966438 
L 160.946838 107.678438 
L 162.386837 105.95044 
L 162.458836 105.374441 
L 162.890837 103.718438 
L 161.666836 103.430438 
L 160.226837 104.07844 
L 158.786835 104.510438 
L 160.226837 102.78244 
L 159.866838 103.862439 
L 162.026838 102.854439 
L 163.466837 103.070439 
L 164.546836 101.198439 
L 164.546836 100.046441 
L 163.322835 99.83044 
L 162.098837 99.758441 
L 161.018837 99.398438 
L 163.826835 99.614439 
L 164.978838 99.03844 
L 165.698835 98.534439 
L 166.778835 97.022438 
L 166.778835 96.08644 
L 165.698835 96.158439 
L 163.970837 95.726438 
L 162.602838 96.08644 
L 163.466837 95.58244 
L 166.418836 96.014441 
L 167.498836 95.366439 
L 167.858835 94.934441 
L 168.362835 93.854438 
L 166.922833 92.918436 
L 165.698835 92.990439 
L 164.186838 92.91844 
L 164.114835 92.558441 
L 165.698835 92.846441 
L 166.346837 92.702439 
L 167.066835 92.774438 
L 168.434838 92.702439 
L 169.370836 92.05444 
L 169.802838 90.902438 
L 170.270837 88.850439 
L 170.054836 86.474438 
L 168.434838 86.258441 
L 167.52336 86.546963 
L 166.121946 86.634552 
L 164.720533 87.335259 
L 164.720533 88.911849 
L 164.457768 88.561495 
L 163.319115 88.29873 
L 162.443232 88.736672 
L 161.654937 89.437379 
L 161.129407 90.400854 
L 161.567349 91.276738 
L 162.355644 91.802268 
L 161.47976 91.627091 
L 160.779053 91.364326 
L 159.990758 91.889856 
L 159.727993 92.678151 
L 159.640405 93.378858 
L 159.90317 93.904388 
L 160.516288 94.254742 
L 159.990758 94.079565 
L 159.114875 94.254742 
L 158.589341 94.692683 
L 158.063811 95.56857 
L 157.976223 96.181689 
L 158.151399 96.969984 
L 158.764518 97.495514 
L 158.589341 97.758279 
L 157.888634 97.845867 
L 156.925163 101.174228 
L 156.136867 102.400465 
L 155.436161 103.889467 
L 154.647866 105.290884 
L 152.808507 108.093711 
L 152.020212 109.670301 
L 151.669858 110.808953 
L 151.05674 111.860013 
L 150.180856 113.786957 
L 150.793975 115.188371 
L 149.392561 114.838017 
L 148.516674 115.451139 
L 147.903556 116.852553 
L 147.640791 118.166378 
L 148.253909 118.691908 
L 148.691851 119.65538 
L 148.078732 119.305026 
L 147.115261 119.305026 
L 145.188317 120.443679 
L 144.662787 121.582327 
L 144.662787 122.808564 
L 145.713847 123.596859 
L 146.852496 123.947212 
L 146.326966 124.209977 
L 145.188317 124.209977 
L 144.575199 124.647919 
L 143.436546 126.312101 
L 144.137257 124.998273 
L 144.400022 123.772036 
L 144.224845 122.545799 
L 143.611723 121.669915 
L 142.73584 121.582327 
L 141.947545 122.458211 
L 141.422015 122.808564 
L 142.385486 121.40715 
L 143.436546 120.88162 
L 144.48761 120.531267 
L 146.677319 118.691908 
L 147.728379 117.02773 
L 147.903556 116.239434 
L 148.604263 114.925606 
L 149.918091 113.173839 
L 149.830503 113.261427 
L 150.695235 111.300249 
L 150.5505 109.86184 
L 149.830503 110.221839 
L 148.318502 111.949841 
L 143.854501 115.76584 
L 145.870502 113.533837 
L 147.382504 112.237841 
L 150.118503 109.285841 
L 151.558501 108.061839 
L 151.990503 107.19784 
L 156.598502 100.933838 
L 156.814502 99.349838 
L 156.814502 97.909839 
L 156.280223 96.942249 
L 155.128224 97.374247 
L 153.112226 99.174248 
L 152.176225 100.254247 
L 151.528226 101.190249 
L 150.808225 101.838248 
L 150.232226 102.630248 
L 149.368223 103.422248 
L 148.864226 104.646249 
L 148.144225 105.870247 
L 146.416223 107.81425 
L 145.696226 108.822247 
L 143.968224 110.622248 
L 144.832223 109.254248 
L 145.840224 108.174249 
L 146.560225 107.02225 
L 145.984225 106.518249 
L 146.560225 106.302249 
L 147.496223 105.654247 
L 148.360226 104.718248 
L 149.008224 103.638249 
L 149.152226 102.558249 
L 148.504224 102.414247 
L 149.080223 102.270249 
L 150.160223 101.766249 
L 151.672224 100.182248 
L 152.104226 99.53425 
L 151.888225 98.670247 
L 151.600225 98.382247 
L 152.320226 98.526249 
L 153.112226 98.310248 
L 153.688226 98.022249 
L 154.408223 97.518248 
L 155.128224 96.798247 
L 155.488223 96.150249 
L 155.128224 95.28625 
L 155.344225 95.358249 
L 156.064226 95.430248 
L 157.072223 95.358249 
L 158.008225 94.926247 
L 158.944223 92.838247 
L 158.872224 91.83025 
L 158.584225 90.894248 
L 159.304226 91.110248 
L 161.032224 89.95825 
L 162.256225 88.734248 
L 163.552226 87.726247 
L 164.704225 86.646247 
L 165.928226 85.782248 
L 167.008226 84.414249 
L 166.432223 83.478247 
L 165.136226 83.334249 
L 163.624225 83.478247 
L 162.040225 84.05425 
L 160.672225 84.918249 
L 153.976226 91.398248 
L 147.280226 99.318249 
L 144.400225 103.27825 
L 141.376226 106.73425 
L 140.296223 108.534247 
L 139.576225 109.97425 
L 139.144224 111.918248 
L 138.280225 116.742248 
L 138.208226 118.614248 
L 137.056223 122.430247 
L 136.336226 123.726248 
L 138.064224 116.238248 
L 137.992225 114.294249 
L 137.488225 113.14225 
L 136.768224 113.790248 
L 135.112224 115.950248 
L 133.600223 118.974247 
L 134.248225 117.102247 
L 136.696225 113.070247 
L 137.920226 111.55825 
L 138.568225 109.830248 
L 137.920226 109.326247 
L 136.912225 108.750248 
L 137.920226 108.822247 
L 138.856224 108.534247 
L 140.944225 106.374248 
L 143.104225 103.494247 
L 147.280226 98.74225 
L 151.744223 93.12625 
L 153.112226 91.758247 
L 156.352226 88.806247 
L 159.088225 85.854247 
L 160.168225 84.270247 
L 160.816223 82.830249 
L 159.448224 82.830249 
L 158.008225 83.622249 
L 155.344225 85.494249 
L 153.040224 86.574248 
L 152.176225 87.150248 
L 151.384224 88.518247 
L 150.520225 89.454249 
L 149.152226 91.182247 
L 146.272225 93.918247 
L 143.896225 97.086247 
L 141.088223 99.82225 
L 140.152225 100.974249 
L 138.496226 103.422248 
L 137.920226 105.15025 
L 137.920226 104.07025 
L 136.984224 104.502248 
L 135.760223 105.870247 
L 134.824225 106.590248 
L 134.392223 108.60625 
L 133.024224 112.35025 
L 132.088226 113.574248 
L 130.504225 117.246249 
L 129.928226 119.766247 
L 130.288225 117.67825 
L 131.080225 114.870248 
L 132.088226 112.278247 
L 134.104224 107.454247 
L 135.256226 105.366247 
L 137.632226 102.126247 
L 139.000226 100.686249 
L 141.376226 97.518248 
L 143.104225 95.502247 
L 144.256223 94.638248 
L 145.408226 93.630247 
L 147.928224 91.902249 
L 149.008224 90.75025 
L 149.728225 89.526248 
L 150.808225 88.518247 
L 151.816226 87.366249 
L 152.968225 85.782248 
L 152.824223 84.414249 
L 151.744223 84.198248 
L 150.016225 84.198248 
L 148.576226 84.486248 
L 147.712224 85.206249 
L 147.239834 86.883324 
L 147.352225 85.42225 
L 146.488226 84.630249 
L 142.888224 86.286249 
L 142.096224 87.726247 
L 141.736225 90.894248 
L 140.800223 92.478248 
L 139.432224 94.20625 
L 138.496226 95.142248 
L 139.864225 93.41425 
L 141.088223 91.614249 
L 141.376226 89.598247 
L 141.088223 88.230248 
L 139.792226 88.08625 
L 138.640224 88.518247 
L 137.272224 89.742249 
L 135.112224 92.694249 
L 134.032225 93.558248 
L 132.880226 94.638248 
L 132.088226 95.862249 
L 132.088226 97.302248 
L 133.168225 98.022249 
L 133.600223 98.814249 
L 132.232224 99.894249 
L 129.928226 102.48625 
L 130.144223 100.254247 
L 129.712225 98.598248 
L 130.144223 96.942249 
L 133.096226 93.702249 
L 134.896224 91.182247 
L 135.976224 89.310247 
L 134.824225 88.950249 
L 131.800226 89.814248 
L 126.616224 91.974248 
L 125.680226 92.62225 
L 124.960225 95.862249 
L 125.032224 94.49425 
L 124.888226 92.62225 
L 123.715942 92.428559 
L 119.755941 93.14856 
L 119.251944 93.724559 
L 118.891942 95.30856 
L 118.891942 96.89256 
L 118.747944 98.116558 
L 118.819943 99.628559 
L 119.035944 100.924559 
L 119.899943 100.780558 
L 121.98794 100.06056 
L 122.635942 100.060557 
L 124.291941 99.484557 
L 125.011942 99.55656 
L 123.715942 99.844556 
L 120.691943 101.068554 
L 119.539944 101.716559 
L 119.323943 103.084559 
L 119.539944 104.09256 
L 120.619944 104.668559 
L 122.563943 104.308557 
L 123.859943 104.308557 
L 124.147943 104.452559 
L 123.139942 105.460559 
L 122.419941 106.396558 
L 122.203944 107.692558 
L 124.003941 109.204559 
L 125.299942 109.636557 
L 124.795942 111.652559 
L 124.939943 113.45256 
L 124.795942 115.324559 
L 123.931942 118.49256 
L 122.779944 120.292557 
L 120.835945 117.98856 
L 119.251944 117.628557 
L 117.235943 117.916557 
L 116.323942 118.300557 
L 118.675941 117.268558 
L 122.923942 113.95656 
L 123.715942 112.300557 
L 123.787944 110.50056 
L 123.067943 109.636557 
L 121.771943 109.132557 
L 120.187943 109.348557 
L 114.650143 113.822817 
L 118.243944 110.788559 
L 119.323943 109.780559 
L 120.043945 108.772558 
L 120.907944 107.116559 
L 120.835945 105.388557 
L 119.323943 104.740558 
L 117.595942 104.596557 
L 114.852797 105.459456 
L 115.579944 105.028558 
L 117.091945 104.308557 
L 117.955944 103.156558 
L 118.171945 102.148557 
L 117.091945 100.708559 
L 115.579944 100.564557 
L 114.139941 100.852557 
L 113.203943 101.500559 
L 111.979942 101.860558 
L 112.483942 101.140556 
L 113.995943 100.63656 
L 115.363943 100.564557 
L 116.875944 99.916559 
L 117.595942 98.836559 
L 118.099942 96.964559 
L 118.459944 94.876558 
L 117.595942 94.22856 
L 116.299945 94.156557 
L 114.715944 94.948557 
L 113.563942 95.668558 
L 111.979942 96.028557 
L 110.323942 96.532557 
L 108.523942 96.748558 
L 106.939941 98.044559 
L 106.075942 99.700558 
L 105.643944 101.716559 
L 105.715943 105.100557 
L 106.003943 106.540559 
L 105.715943 108.268557 
L 104.923943 109.70856 
L 103.843943 110.716557 
L 103.555944 109.636557 
L 104.347944 108.484558 
L 105.211943 106.396558 
L 104.995942 104.308557 
L 103.699942 103.228557 
L 102.115942 102.868558 
L 100.243942 103.516557 
L 97.075941 106.324559 
L 94.987944 107.548556 
L 94.267943 109.564558 
L 94.483944 110.428557 
L 95.491945 111.29256 
L 96.427943 111.868559 
L 96.931943 112.732558 
L 96.787941 114.028559 
L 97.219943 114.892558 
L 98.443944 118.636558 
L 98.731944 120.148559 
L 98.299943 120.940559 
L 98.155945 119.716558 
L 97.723943 118.132558 
L 96.283945 117.340557 
L 95.203941 117.196559 
L 95.635943 116.692559 
L 96.139943 115.396559 
L 96.067944 114.028559 
L 95.563944 112.444559 
L 94.339942 111.29256 
L 92.971943 110.932558 
L 91.747945 111.29256 
L 90.841351 111.879714 
L 90.33735 112.959714 
L 90.049351 114.183712 
L 90.265351 115.479712 
L 89.113352 115.047715 
L 87.96135 114.975712 
L 85.80135 116.271713 
L 85.153352 117.711715 
L 84.793353 118.863714 
L 85.369353 120.951714 
L 85.873353 122.247715 
L 87.097351 122.679713 
L 88.681351 122.607713 
L 90.769352 121.527714 
L 89.689352 122.463712 
L 88.033353 122.751712 
L 86.449352 122.751712 
L 85.153352 122.463712 
L 83.641351 119.295711 
L 82.417353 119.007712 
L 80.47335 119.943713 
L 77.377352 121.887712 
L 75.361351 122.823714 
L 74.209352 123.903714 
L 74.35335 125.775714 
L 75.361351 126.999712 
L 76.801353 127.143713 
L 79.897351 126.639713 
L 78.241352 126.999712 
L 76.153351 127.575715 
L 74.713352 128.655715 
L 74.785351 127.719713 
L 74.35335 126.279714 
L 73.129352 125.991715 
L 71.761353 126.351713 
L 67.873351 130.887713 
L 63.337351 135.063715 
L 63.12135 135.423713 
L 62.04135 136.791713 
L 61.105352 138.159712 
L 60.45735 139.671714 
L 60.45735 140.967714 
L 61.615895 141.740075 
L 61.24935 141.831713 
L 59.521352 142.551714 
L 59.16135 144.567712 
L 59.737353 146.295714 
L 60.961351 147.015712 
L 62.61735 147.159713 
L 64.20135 146.007715 
L 66.721352 143.991713 
L 73.633352 139.311711 
L 76.22535 138.087713 
L 81.55335 136.287713 
L 84.21735 135.639714 
L 87.025352 135.279712 
L 90.33735 134.631713 
L 95.233353 133.983715 
L 98.593338 133.743713 
L 95.233353 134.703712 
L 93.65944 134.60412 
L 91.57144 134.964122 
L 89.41144 135.684123 
L 87.899443 137.052123 
L 87.107443 138.348123 
L 88.61944 139.068121 
L 90.635442 138.780121 
L 93.515442 138.780121 
L 95.963442 139.068121 
L 98.77144 138.924123 
L 103.81144 138.85212 
L 109.067441 138.132123 
L 111.515441 137.988121 
L 114.395442 138.276121 
L 118.49944 136.836122 
L 118.139441 137.052123 
L 115.907443 138.132123 
L 114.179441 138.780121 
L 112.595441 138.924123 
L 111.083443 138.56412 
L 109.283442 138.492121 
L 102.803443 139.212123 
L 100.787442 139.14012 
L 96.827441 139.284122 
L 94.667441 139.212123 
L 92.723442 138.996122 
L 90.347442 138.924123 
L 86.531443 139.356121 
L 85.235443 139.284122 
L 84.803441 138.276121 
L 83.723441 137.484121 
L 81.635441 137.628122 
L 80.33944 138.996122 
L 79.835443 140.220123 
L 79.475441 141.732121 
L 79.043443 142.812121 
L 79.25944 141.084122 
L 78.46744 140.004123 
L 76.811441 140.004123 
L 75.155442 140.292122 
L 72.707442 140.940121 
L 71.411442 142.524121 
L 71.195441 144.46812 
L 69.539442 146.05212 
L 69.899441 144.684121 
L 68.675443 143.964123 
L 66.73144 144.684121 
L 64.931443 146.05212 
L 64.404117 146.887728 
L 63.900116 148.183728 
L 63.540117 149.983729 
L 63.828117 151.279726 
L 64.548118 152.503727 
L 65.484116 153.151726 
L 66.420118 153.223729 
L 67.356116 151.711727 
L 66.780117 153.223729 
L 66.852116 154.231726 
L 67.500118 155.239727 
L 68.940117 156.103726 
L 70.308116 155.743727 
L 70.668118 153.943726 
L 72.396117 148.543727 
L 71.964119 150.991726 
L 71.316117 152.791727 
L 71.028117 154.735726 
L 72.324118 156.103726 
L 73.404118 156.895726 
L 74.844116 156.391729 
L 75.996119 155.383728 
L 75.996119 153.511728 
L 75.780118 148.903726 
L 76.140117 150.559728 
L 76.212119 152.431728 
L 76.500119 154.519729 
L 77.004119 156.103726 
L 77.820124 156.391729 
L 76.860118 156.391729 
L 75.780118 156.967728 
L 75.348117 158.479726 
L 75.467765 159.107897 
L 74.701131 158.164347 
L 73.765132 157.516349 
L 71.677132 158.380348 
L 71.24513 157.300348 
L 69.877131 156.724348 
L 68.941133 157.804348 
L 68.011394 161.419987 
L 68.077134 160.828347 
L 68.58113 157.228345 
L 67.429131 155.428348 
L 66.925131 155.068346 
L 65.845131 153.988346 
L 64.549131 154.348348 
L 63.541134 155.860346 
L 63.181131 157.588348 
L 63.685132 159.388348 
L 63.829133 161.692346 
L 63.397132 162.340348 
L 63.469131 160.684345 
L 63.181131 158.596348 
L 63.109132 157.084347 
L 63.541134 155.068346 
L 63.757131 153.124347 
L 63.181131 151.396348 
L 62.389131 149.884347 
L 61.165133 149.380347 
L 59.725131 151.900349 
L 59.581133 151.756347 
L 60.013131 148.804347 
L 59.365132 147.364349 
L 57.63713 146.716347 
L 55.76513 146.644348 
L 54.469134 147.148348 
L 53.029131 148.156345 
L 51.805133 149.236349 
L 53.173133 152.764348 
L 55.405132 156.076346 
L 56.485131 156.868346 
L 57.63713 155.932348 
L 57.061131 157.156346 
L 57.205133 158.812345 
L 58.501133 160.324347 
L 59.365132 160.900346 
L 58.861132 161.260348 
L 59.221131 162.556345 
L 59.869133 163.708348 
L 61.021131 165.076347 
L 61.885131 165.868347 
L 63.469131 166.948347 
L 64.189132 167.596346 
L 62.389131 166.732347 
L 60.805131 165.508349 
L 59.437131 164.284347 
L 58.71713 161.188346 
L 58.069132 159.892345 
L 56.989132 158.884348 
L 55.693131 159.172348 
L 56.197132 158.812345 
L 56.413132 157.660347 
L 55.117132 156.436349 
L 54.253133 154.852348 
L 51.51713 150.100348 
L 50.149131 150.388348 
L 49.069131 151.900349 
L 48.997132 153.340347 
L 49.234535 154.883476 
L 49.141133 154.708347 
L 48.781131 152.764348 
L 47.845133 151.684348 
L 46.621131 151.900349 
L 45.397134 152.980349 
L 44.535457 153.518409 
L 43.160635 154.196095 
L 42.123295 155.024542 
L 42.270755 155.957659 
L 43.494753 156.67766 
L 44.430755 157.46966 
L 43.618575 156.890558 
L 41.458474 155.667635 
L 40.018472 156.099632 
L 38.938472 157.323634 
L 38.938472 158.547632 
L 39.802475 159.987634 
L 41.170474 160.851633 
L 42.322473 161.427632 
L 43.402473 160.851633 
L 45.418474 159.987634 
L 42.898472 161.355633 
L 42.754474 162.147634 
L 43.546475 163.155634 
L 45.130475 164.091633 
L 46.570473 164.739635 
L 48.514472 165.243631 
L 50.314473 166.035632 
L 52.258472 166.539632 
L 50.242474 166.251632 
L 48.010472 165.459632 
L 47.002475 165.243631 
L 45.922475 166.467633 
L 45.418474 166.827632 
L 46.786474 165.243631 
L 45.850472 164.739635 
L 44.842475 164.379632 
L 43.978472 164.595633 
L 42.898472 165.315634 
L 43.978472 164.307633 
L 43.690473 163.587632 
L 42.682472 163.083632 
L 41.746459 162.939641 
L 42.106472 162.579631 
L 41.890472 161.859634 
L 40.882474 161.067634 
L 39.802475 160.059633 
L 37.786473 158.547632 
L 36.562472 158.691633 
L 35.410473 159.267633 
L 34.258474 160.923632 
L 34.474475 161.931633 
L 35.698472 162.723633 
L 36.418474 163.371631 
L 34.978475 163.011633 
L 33.250473 163.155634 
L 31.882474 163.947635 
L 30.946472 165.387633 
L 31.378473 166.683634 
L 32.602475 167.187634 
L 34.330473 167.043632 
L 36.058475 166.755633 
L 36.706473 166.323631 
L 36.994473 166.827632 
L 38.722475 167.043632 
L 41.386475 167.907631 
L 41.098472 168.339633 
L 38.362472 167.475634 
L 36.922474 167.331632 
L 34.114472 168.267634 
L 33.466474 167.763633 
L 32.458473 167.547633 
L 31.234475 167.691634 
L 30.586473 168.051633 
L 30.370472 168.915632 
L 30.514474 169.851634 
L 30.514474 170.859631 
L 30.010474 172.443631 
L 29.362471 173.307634 
L 29.002473 174.819632 
L 29.002473 174.819632 
" style="fill:none;stroke:#000000;stroke-linecap:square;stroke-width:1.5;"/>
   </g>
   <g id="line2d_2">
    <path clip-path="url(#p2e4e9db1b3)" d="M 241.612127 183.717275 
L 243.268126 183.501275 
L 244.636125 183.717275 
L 244.852126 184.149277 
L 243.124124 183.717275 
L 241.612127 183.717275 
" style="fill:none;stroke:#000000;stroke-linecap:square;stroke-width:1.5;"/>
   </g>
   <g id="line2d_3">
    <path clip-path="url(#p2e4e9db1b3)" d="M 181.804523 145.76718 
L 179.416744 145.667689 
L 178.125169 145.713817 
L 179.126531 145.588646 
L 181.804523 145.76718 
" style="fill:none;stroke:#000000;stroke-linecap:square;stroke-width:1.5;"/>
   </g>
   <g id="line2d_4">
    <path clip-path="url(#p2e4e9db1b3)" d="M 81.153796 193.966561 
L 81.153805 193.966574 
L 81.153796 193.966561 
" style="fill:none;stroke:#000000;stroke-linecap:square;stroke-width:1.5;"/>
   </g>
   <g id="line2d_5">
    <path clip-path="url(#p2e4e9db1b3)" d="M 172.111039 154.015302 
L 172.216766 154.163639 
L 169.768763 154.09164 
L 167.536764 154.019637 
L 166.096766 154.307637 
L 165.736764 155.315637 
L 166.312763 156.827639 
L 168.256766 158.411639 
L 170.416765 159.779638 
L 173.008766 160.21164 
L 176.536765 160.571638 
L 179.416766 160.643638 
L 183.304764 160.139637 
L 186.976765 159.779638 
L 190.216764 158.411639 
L 191.872764 157.187637 
L 192.952764 156.035638 
L 192.736763 155.819638 
L 192.376764 154.955639 
L 190.864763 154.451638 
L 189.064766 154.595636 
L 186.688765 154.523637 
L 184.096764 154.667639 
L 181.720764 154.523637 
L 179.200765 154.523637 
L 176.608764 154.523637 
L 175.446336 154.019637 
L 175.744765 154.019637 
L 178.696765 154.09164 
L 181.216763 154.163639 
L 183.448766 154.235638 
L 186.544764 154.451638 
L 189.208764 154.307637 
L 192.376764 154.163639 
L 194.464765 152.075638 
L 193.672765 150.707638 
L 192.232766 150.203638 
L 190.216764 149.627639 
L 187.264765 149.483637 
L 184.672764 149.483637 
L 181.648765 149.483637 
L 178.336766 149.483637 
L 174.736765 149.339639 
L 172.144763 149.411638 
L 168.904764 149.699638 
L 166.168765 150.203638 
L 166.096766 150.275637 
L 164.584765 151.283638 
L 164.872764 152.867638 
L 166.672765 153.875639 
L 169.336765 153.947638 
L 172.111039 154.015302 
" style="fill:none;stroke:#000000;stroke-linecap:square;stroke-width:1.5;"/>
   </g>
   <g id="line2d_6">
    <path clip-path="url(#p2e4e9db1b3)" d="M 182.551233 83.554557 
L 180.931231 83.014559 
L 179.311233 83.014559 
L 177.583232 82.690558 
L 176.179231 82.690558 
L 174.88323 83.338556 
L 173.371233 83.770558 
L 172.183232 84.850558 
L 170.995232 85.498556 
L 170.671231 87.226558 
L 170.671231 88.738559 
L 171.319233 89.170557 
L 172.61523 88.846556 
L 174.343232 88.306558 
L 175.855233 87.766556 
L 177.583232 87.334558 
L 179.023234 86.938558 
L 180.427231 86.614557 
L 181.723231 86.290556 
L 183.199231 86.362559 
L 183.415232 84.958558 
L 182.551233 83.554557 
" style="fill:none;stroke:#000000;stroke-linecap:square;stroke-width:1.5;"/>
   </g>
  </g>
 </g>
 <defs>
  <clipPath id="p2e4e9db1b3">
   <rect height="238.32" width="362.88" x="0" y="0"/>
  </clipPath>
 </defs>
</svg>
