<?xml version="1.0" encoding="utf-8" standalone="no"?>
<!DOCTYPE svg PUBLIC "-//W3C//DTD SVG 1.1//EN"
  "http://www.w3.org/Graphics/SVG/1.1/DTD/svg11.dtd">
<!-- Created with matplotlib (https://matplotlib.org/) -->
<svg height="601.92pt" version="1.1" viewBox="0 0 816.48 601.92" width="816.48pt" xmlns="http://www.w3.org/2000/svg" xmlns:xlink="http://www.w3.org/1999/xlink">
 <defs>
  <style type="text/css">
*{stroke-linecap:butt;stroke-linejoin:round;}
  </style>
 </defs>
 <g id="figure_1">
  <g><image xlink:href="../../img/cb/cat_cor_cell.json.cb-50%25.png" width="816.48px" height="601.92px"/></g>

  <g id="patch_1">
   <path d="M 0 601.92 
L 816.48 601.92 
L 816.48 0 
L 0 0 
z
" style="fill:none;"/>
  </g>
  <g id="axes_1">
   <g id="line2d_1">
    <path clip-path="url(#p9a3a33d566)" d="M 224.18765 191.596299 
L 221.530791 193.389526 
L 217.726819 194.974518 
L 214.239845 196.8765 
L 210.118875 198.77849 
L 208.533891 200.046475 
L 205.046917 202.265464 
L 202.510938 204.801442 
L 202.19394 208.605415 
L 204.729919 212.726377 
L 207.582896 216.530349 
L 210.752871 218.749329 
L 211.06987 221.919305 
L 210.435873 230.795243 
L 208.533891 242.524149 
L 207.582896 246.64512 
L 206.314911 250.132085 
L 206.948899 255.521049 
L 207.265897 260.593007 
L 209.484886 263.762982 
L 214.556843 267.566954 
L 219.628801 268.834948 
L 222.798776 268.517949 
L 226.919747 266.298961 
L 229.772724 263.445984 
L 233.576696 261.544002 
L 236.746671 260.910005 
L 239.916647 264.079981 
L 239.916647 267.566954 
L 236.112675 270.102933 
L 232.625701 271.370927 
L 229.138727 271.687925 
L 222.16478 272.638912 
L 219.945799 270.419931 
L 215.507838 268.834948 
L 211.703866 268.834948 
L 205.997912 270.419931 
L 199.340963 273.272909 
L 196.170987 273.906905 
L 191.733019 274.223904 
L 185.076069 272.95591 
L 181.589096 271.053928 
L 179.370115 271.687925 
L 174.932146 274.8579 
L 171.128182 276.759882 
L 168.909194 278.978863 
L 167.007212 283.73383 
L 168.909194 294.511741 
L 173.981159 303.704678 
L 176.834137 307.191643 
L 180.955107 310.678617 
L 186.344063 313.848592 
L 190.782024 315.116586 
L 193.635009 313.848592 
L 197.755971 311.312614 
L 200.608948 309.72763 
L 203.778924 308.459637 
L 214.239845 307.508642 
L 219.628801 306.874653 
L 221.530791 304.021668 
L 221.213793 301.168691 
L 221.530791 297.047728 
L 221.847789 294.511741 
L 221.213793 291.341766 
L 221.213793 285.318814 
L 220.896794 282.148838 
L 220.896794 278.661864 
L 221.847789 275.808887 
L 222.481778 278.978863 
L 222.481778 288.805787 
L 222.798776 295.462737 
L 222.16478 300.534702 
L 221.847789 304.655664 
L 222.798776 308.142638 
L 226.919747 310.995615 
L 231.357716 311.312614 
L 236.112675 309.410632 
L 240.233645 307.191643 
L 244.037617 305.289661 
L 245.939599 303.704678 
L 244.037617 298.632712 
L 246.573596 302.753683 
L 249.109575 301.485689 
L 251.011557 298.632712 
L 254.181532 296.73073 
L 248.475578 303.070681 
L 245.939599 304.655664 
L 243.720619 306.557655 
L 243.086622 308.776635 
L 241.818629 308.142638 
L 239.599649 308.459637 
L 235.795676 310.361619 
L 232.625701 311.312614 
L 229.772724 312.580607 
L 228.18774 313.531594 
L 226.28575 312.580607 
L 222.16478 309.72763 
L 219.628801 308.459637 
L 216.458825 307.82564 
L 212.020865 308.459637 
L 206.314911 308.776635 
L 201.876942 309.72763 
L 198.072969 311.629612 
L 194.902994 314.799588 
L 193.635009 318.286561 
L 195.219992 322.407532 
L 200.581139 328.290523 
L 202.694459 329.769846 
L 206.498431 329.558517 
L 210.725062 327.445197 
L 213.895037 326.177204 
L 217.910339 325.120548 
L 209.034409 328.92452 
L 206.92109 330.615173 
L 206.075764 332.939822 
L 208.611742 336.532456 
L 211.781718 339.068443 
L 216.219687 340.547766 
L 221.291644 340.759096 
L 225.306946 340.336428 
L 229.744915 338.434446 
L 233.548887 335.68713 
L 236.930192 332.728492 
L 239.46617 329.558517 
L 240.945493 326.8112 
L 241.156823 324.909218 
L 238.198185 321.316576 
L 236.084865 318.569268 
L 240.522826 323.007228 
L 244.538136 325.754545 
L 248.553438 324.697889 
L 252.357402 321.950572 
L 255.738715 318.569268 
L 257.852026 315.399292 
L 259.331349 312.863313 
L 260.176675 309.693338 
L 260.176675 307.157351 
L 257.640697 303.142049 
L 260.599343 304.410043 
L 263.346651 306.946022 
L 267.995949 307.368689 
L 272.22258 306.523362 
L 276.026553 305.255369 
L 281.309848 302.71939 
L 278.562531 304.832702 
L 275.392556 306.100695 
L 272.011251 307.580018 
L 269.052605 308.214015 
L 264.191977 308.636674 
L 262.923992 309.482 
L 260.388005 312.440646 
L 259.965346 314.342628 
L 259.965346 316.455948 
L 258.90869 316.455948 
L 257.429367 317.089945 
L 256.372703 318.569268 
L 253.836725 323.429895 
L 253.836725 326.388541 
L 254.893389 327.445197 
L 251.723413 326.599871 
L 248.764767 327.445197 
L 245.594792 328.501853 
L 243.270143 330.192505 
L 241.156823 332.728492 
L 240.522826 335.264471 
L 240.945493 338.223117 
L 243.904139 338.857105 
L 252.357402 336.955123 
L 258.063364 334.841804 
L 261.444669 332.728492 
L 264.614644 329.769846 
L 267.361953 327.02253 
L 269.686602 324.063892 
L 272.22258 321.739243 
L 275.603894 319.625923 
L 278.985199 317.301274 
L 281.309848 316.033289 
L 283.845826 313.70864 
L 285.325149 311.38399 
L 287.227131 309.059341 
L 289.129122 306.523362 
L 291.031104 304.410043 
L 293.355753 302.508061 
L 296.103069 299.760744 
L 300.54103 298.704089 
L 305.971626 297.151372 
L 309.565738 296.304821 
L 313.79237 294.825498 
L 320.977647 291.866861 
L 331.755566 285.949569 
L 334.291545 284.047587 
L 337.884188 282.145597 
L 344.435468 278.341633 
L 346.760117 277.707636 
L 350.56409 277.918965 
L 354.156724 281.088941 
L 359.017352 285.949569 
L 366.836626 295.670833 
L 367.569809 298.132193 
L 367.147141 303.415489 
L 368.415135 305.528808 
L 370.528454 304.683474 
L 371.79644 304.472144 
L 370.528454 306.796793 
L 370.739784 308.698784 
L 372.641766 310.812095 
L 376.657068 313.559412 
L 378.981717 317.363376 
L 381.940363 320.110692 
L 388.91431 323.280667 
L 398.846896 326.661972 
L 408.779489 328.352625 
L 422.938714 327.08464 
L 434.984619 323.280667 
L 440.056576 320.956018 
L 444.283216 318.420039 
L 446.396527 316.30672 
L 454.638468 307.219461 
L 457.678893 303.6297 
L 459.163106 301.265092 
L 459.797103 298.517776 
L 459.374436 294.502474 
L 458.106451 288.585191 
L 458.106451 281.822573 
L 458.52911 278.018601 
L 459.797103 274.637296 
L 462.755741 270.621994 
L 466.348384 268.086015 
L 470.786352 268.720012 
L 478.182959 269.565338 
L 484.100243 273.791969 
L 491.919517 278.863927 
L 501.218113 285.415215 
L 511.150699 290.698502 
L 517.49065 292.600492 
L 523.8306 294.713804 
L 527.845902 297.249783 
L 532.159211 301.575608 
L 536.59718 306.647565 
L 540.401152 309.394882 
L 544.205124 312.564857 
L 545.473109 315.523495 
L 550.756404 322.286113 
L 553.503713 323.765436 
L 556.251029 324.822092 
L 559.209667 325.244759 
L 562.379642 324.399425 
L 564.704291 322.92011 
L 566.817611 320.80679 
L 567.874267 318.904808 
L 568.296934 316.368821 
L 567.874267 313.832843 
L 563.858965 309.817541 
L 560.054993 306.858895 
L 558.998337 304.534246 
L 558.153011 302.209597 
L 556.462359 299.884956 
L 553.292383 298.405633 
L 550.122408 298.405633 
L 546.529765 298.616962 
L 544.205124 297.982965 
L 541.246478 296.92631 
L 536.38585 294.390331 
L 540.401152 295.658316 
L 542.937131 297.348969 
L 546.318435 297.982965 
L 549.277081 297.771636 
L 551.81306 297.348969 
L 555.617032 293.545005 
L 553.92638 296.292313 
L 553.92638 297.771636 
L 555.828362 299.250959 
L 558.364341 301.36427 
L 560.47766 304.745583 
L 562.802309 307.915559 
L 566.183614 311.508193 
L 569.14226 314.044172 
L 571.466909 312.987516 
L 576.538867 310.02887 
L 578.229519 307.915559 
L 576.961534 310.240208 
L 575.270882 311.508193 
L 573.368891 312.776187 
L 572.100906 313.832843 
L 570.621583 315.523495 
L 569.35359 317.425485 
L 569.35359 321.652116 
L 570.410254 325.033421 
L 574.425555 327.5694 
L 578.863516 330.105387 
L 583.301485 332.852695 
L 586.894119 334.754685 
L 591.332088 335.811341 
L 595.13606 336.867997 
L 602.110008 338.13599 
L 605.491313 336.445338 
L 608.238621 333.909351 
L 609.717944 331.162043 
L 611.619926 329.048723 
L 612.67659 326.301415 
L 612.67659 324.188095 
L 611.197267 322.286113 
L 608.027292 320.384123 
L 605.279983 318.059474 
L 601.89867 315.946162 
L 599.574021 314.25551 
L 597.249372 311.930861 
L 596.192716 309.817541 
L 594.502064 308.126888 
L 592.811411 306.224906 
L 593.868067 304.956913 
L 595.55872 302.632264 
L 595.55872 298.828292 
L 595.048934 296.193127 
L 594.837604 291.966496 
L 595.048934 288.162524 
L 594.626267 285.203878 
L 594.414937 281.611243 
L 594.626267 278.441268 
L 594.626267 274.637296 
L 595.048934 272.946643 
L 595.260263 276.116619 
L 595.260263 280.13192 
L 595.471593 283.724555 
L 595.471593 286.89453 
L 595.682931 290.698502 
L 596.316919 294.079807 
L 596.10559 297.67245 
L 596.528257 300.631096 
L 598.641568 302.321748 
L 601.388885 303.167074 
L 612.589464 302.744407 
L 617.238762 303.167074 
L 624.001372 305.069056 
L 627.382685 303.801071 
L 627.171347 299.78577 
L 626.748688 295.55913 
L 625.903362 291.121169 
L 625.269365 286.683201 
L 624.846698 278.018601 
L 624.21271 274.637296 
L 623.156046 271.46732 
L 621.042734 268.086015 
L 618.506747 265.972696 
L 615.125442 265.338699 
L 611.744137 264.91604 
L 607.940165 264.704702 
L 603.290867 265.127369 
L 599.064236 265.761366 
L 596.950916 265.550036 
L 594.837604 264.493373 
L 592.090288 263.436717 
L 588.708983 262.591391 
L 584.693681 261.746064 
L 580.044383 260.266741 
L 576.663078 258.787418 
L 573.915762 256.462769 
L 573.704432 253.292794 
L 575.395085 251.179474 
L 579.833053 250.545486 
L 584.271014 252.0248 
L 587.44099 254.13812 
L 589.976976 254.983446 
L 590.822303 258.153422 
L 591.033632 260.055412 
L 592.724285 262.168723 
L 595.89426 263.648046 
L 600.966218 264.070714 
L 607.094839 263.436717 
L 613.22346 264.070714 
L 618.929414 264.070714 
L 623.578713 263.225387 
L 627.805344 259.844074 
L 630.341323 256.04011 
L 631.186649 251.179474 
L 630.55266 247.164172 
L 628.439341 242.514874 
L 625.269365 239.133569 
L 622.944716 235.752264 
L 621.137413 231.870922 
L 619.638021 227.609966 
L 617.736039 222.960668 
L 613.720737 214.718727 
L 610.762091 210.280766 
L 608.860109 206.688124 
L 602.097491 200.55951 
L 600.406839 198.023523 
L 600.618168 196.332871 
L 605.267467 197.389535 
L 609.705436 197.178197 
L 614.354734 198.65752 
L 617.313372 202.250163 
L 620.272018 207.32212 
L 622.385337 211.548751 
L 624.287319 217.043376 
L 626.823298 222.960668 
L 628.725288 229.934616 
L 629.993274 235.217902 
L 630.62727 239.021875 
L 630.8386 243.671173 
L 631.683934 247.263807 
L 632.95192 251.279117 
L 635.487898 255.928408 
L 640.559864 256.562404 
L 644.997825 257.619068 
L 649.013126 256.139745 
L 653.451095 253.392429 
L 657.255067 251.913106 
L 660.213705 248.320471 
L 662.327025 244.516499 
L 663.38368 240.289868 
L 663.595018 235.42924 
L 663.595018 230.568604 
L 662.749692 226.341973 
L 661.481698 223.594665 
L 658.73439 220.636019 
L 656.198403 218.10004 
L 653.662425 216.409388 
L 651.549113 213.662071 
L 649.224464 210.069437 
L 646.899815 206.054135 
L 643.729839 201.827496 
L 641.61652 198.446191 
L 637.178551 194.642219 
L 631.472597 191.472243 
L 625.766642 190.415587 
L 619.638021 190.626917 
L 614.566064 191.472243 
L 612.875411 192.951566 
L 606.958119 191.683573 
L 597.659531 189.147594 
L 604.422141 189.781591 
L 610.128095 190.204258 
L 614.988723 189.570261 
L 616.890713 187.668271 
L 617.102042 185.343622 
L 616.256716 183.018973 
L 614.354734 180.271664 
L 612.030085 178.158345 
L 609.705436 176.256363 
L 606.324131 174.988369 
L 603.576814 174.988369 
L 599.561513 176.890359 
L 600.829506 174.56571 
L 601.463495 169.916412 
L 600.829506 167.380433 
L 599.772842 164.633117 
L 597.87086 162.097138 
L 596.391537 160.406485 
L 593.221562 159.138492 
L 590.474254 158.504503 
L 587.09294 158.081836 
L 584.556962 158.081836 
L 582.020983 159.983818 
L 581.175657 161.463141 
L 580.75299 168.01443 
L 580.330331 172.029731 
L 579.485004 174.56571 
L 579.062337 176.256363 
L 579.696334 179.215009 
L 578.217011 179.426338 
L 576.526358 179.426338 
L 574.413039 179.848997 
L 571.87706 181.116991 
L 569.975078 181.750987 
L 567.650429 182.173646 
L 564.057786 182.173646 
L 568.495755 179.426338 
L 571.454401 177.735686 
L 574.835706 175.199707 
L 575.047035 171.395735 
L 575.469703 167.169095 
L 574.413039 162.519805 
L 574.253523 159.955233 
L 573.617755 156.577945 
L 571.927102 152.985303 
L 569.813791 151.928647 
L 567.066474 151.928647 
L 565.587151 152.351314 
L 563.262502 153.619299 
L 561.57185 155.732619 
L 559.881197 157.634601 
L 556.922551 162.706567 
L 553.118587 172.005155 
L 550.793938 176.443124 
L 551.216597 173.273149 
L 552.48459 167.567195 
L 553.752576 164.397219 
L 555.443236 161.015906 
L 557.767877 158.691265 
L 560.515194 156.366616 
L 564.107828 152.351314 
L 564.107828 150.237995 
L 563.685169 148.758672 
L 561.994517 146.011363 
L 557.556548 143.686714 
L 553.118587 140.728068 
L 550.159941 139.248745 
L 546.14464 139.248745 
L 541.072674 139.460075 
L 537.480039 146.011363 
L 535.789387 148.547342 
L 535.789387 149.603998 
L 539.804689 153.40797 
L 536.634713 152.139977 
L 533.887397 152.139977 
L 532.619412 152.773973 
L 530.717421 155.732619 
L 530.294762 158.268598 
L 527.336116 164.819878 
L 527.336116 167.144527 
L 526.70212 169.257847 
L 527.336116 170.73717 
L 529.872095 173.907146 
L 534.098735 178.345106 
L 529.660766 175.386468 
L 527.336116 173.484478 
L 526.279461 174.329805 
L 524.166141 176.865783 
L 519.728172 180.669755 
L 516.980864 182.360408 
L 518.03752 177.28845 
L 519.93951 171.371159 
L 520.996166 168.62385 
L 521.207495 164.397219 
L 522.052821 157.423272 
L 523.532144 152.562644 
L 525.434134 148.336004 
L 524.377471 147.279349 
L 526.279461 147.279349 
L 528.60411 146.645352 
L 531.140089 144.74337 
L 534.732723 143.052717 
L 537.480039 141.150727 
L 539.593359 139.460075 
L 541.706671 137.135426 
L 542.340667 134.599447 
L 541.706671 130.161486 
L 539.92881 128.010478 
L 538.660817 126.108496 
L 537.181502 123.361188 
L 535.702179 121.459197 
L 534.222856 119.768545 
L 532.743533 118.923219 
L 531.05288 118.289222 
L 528.939561 118.077892 
L 527.248908 118.077892 
L 525.135589 119.134548 
L 524.290262 124.206514 
L 523.656274 126.319825 
L 521.120287 130.546465 
L 520.274961 127.799148 
L 520.486298 125.474499 
L 520.908957 122.727191 
L 521.754284 120.613871 
L 524.924259 113.851261 
L 525.346926 111.315274 
L 523.233607 108.145299 
L 521.331625 106.454646 
L 518.795638 103.918668 
L 513.512351 100.326033 
L 507.806397 97.578717 
L 505.481747 97.578717 
L 502.100434 98.212714 
L 499.775785 99.05804 
L 498.29647 100.537363 
L 496.817147 103.073341 
L 497.239806 105.186661 
L 498.085133 108.567966 
L 500.621119 111.949271 
L 502.523101 115.541914 
L 503.579757 125.26317 
L 504.847751 132.448447 
L 504.847751 135.618422 
L 504.425083 138.154401 
L 503.368428 141.324376 
L 502.100434 138.365738 
L 500.621119 136.041089 
L 499.141797 132.448447 
L 498.29647 128.855812 
L 495.549154 120.825201 
L 493.647172 117.232566 
L 489.420533 111.315274 
L 486.673224 108.990633 
L 483.080582 106.665984 
L 480.544603 105.60932 
L 476.529301 104.975323 
L 473.147996 105.186661 
L 470.823347 105.186661 
L 468.076031 106.454646 
L 463.215403 110.469948 
L 461.313421 114.062591 
L 458.143445 119.134548 
L 457.932116 123.14985 
L 460.468095 126.319825 
L 464.060729 128.433145 
L 467.864701 130.335127 
L 472.514 133.92777 
L 478.642621 138.999727 
L 483.291919 144.071693 
L 487.518551 149.14365 
L 489.209203 153.581619 
L 489.209203 158.864906 
L 488.786544 163.725542 
L 489.209203 166.895517 
L 489.209203 171.967475 
L 488.786544 177.462099 
L 487.307221 167.952173 
L 486.884554 163.725542 
L 486.673224 159.710232 
L 485.827898 156.328927 
L 484.982572 153.792948 
L 482.235255 148.720991 
L 478.85395 144.283022 
L 474.838649 140.056391 
L 470.823347 136.252419 
L 465.962719 132.659776 
L 461.313421 130.123797 
L 457.509449 128.855812 
L 454.128144 128.855812 
L 451.380827 127.376489 
L 449.478845 125.897166 
L 444.618217 123.995176 
L 439.123593 123.14985 
L 434.262965 121.881865 
L 429.017203 120.688489 
L 422.677252 121.111148 
L 417.605295 120.688489 
L 412.744667 121.322478 
L 407.250042 121.745145 
L 403.023403 123.013138 
L 397.528779 123.647127 
L 385.060214 129.564419 
L 377.45227 133.579721 
L 372.802972 137.172355 
L 370.055664 138.440348 
L 364.971639 140.317313 
L 359.899681 142.641963 
L 355.884379 144.332615 
L 352.714404 147.079923 
L 348.276435 150.038569 
L 344.89513 153.419874 
L 340.457161 158.49184 
L 338.34385 161.661815 
L 337.709853 165.888446 
L 337.287186 170.326415 
L 336.44186 175.398373 
L 334.539878 180.681668 
L 331.369902 188.078275 
L 331.792569 183.640306 
L 332.637896 180.259001 
L 333.483222 175.187043 
L 333.694551 171.594401 
L 334.11721 166.945102 
L 334.539878 163.775127 
L 334.751207 160.605151 
L 337.075856 157.857843 
L 349.755758 146.657264 
L 354.193727 143.698618 
L 359.265684 140.739973 
L 364.760309 137.992664 
L 369.620937 134.400022 
L 374.058906 132.075372 
L 379.130863 128.060071 
L 383.991491 125.946759 
L 388.852119 123.62211 
L 394.719369 122.590471 
L 399.368667 120.054493 
L 403.595298 118.786499 
L 412.893895 115.827861 
L 422.826481 113.503212 
L 427.687108 113.503212 
L 433.181733 113.925871 
L 436.140379 114.348538 
L 440.155681 114.771197 
L 443.325656 114.137201 
L 446.284302 111.601222 
L 446.495632 110.121899 
L 444.382312 109.065243 
L 440.36701 108.642576 
L 436.140379 107.374591 
L 430.223087 106.317935 
L 424.517133 104.627274 
L 410.146579 103.359289 
L 403.172631 102.513963 
L 394.930698 102.725292 
L 388.379418 103.14796 
L 383.73012 104.415945 
L 372.106874 108.853914 
L 361.751621 114.137201 
L 356.679664 115.827861 
L 351.724218 117.780367 
L 346.87173 119.059938 
L 342.222432 121.595917 
L 336.305148 125.611219 
L 330.810524 132.585166 
L 328.485874 137.234465 
L 324.259235 144.419742 
L 325.315899 139.981773 
L 326.795222 137.234465 
L 328.274545 133.641822 
L 330.387856 130.683176 
L 333.980499 126.456545 
L 336.727807 123.709237 
L 340.954438 121.17325 
L 345.181078 118.848609 
L 350.041706 116.52396 
L 355.325001 114.833299 
L 365.257586 110.606668 
L 369.906885 108.493348 
L 374.767512 105.74604 
L 381.107463 102.576064 
L 393.277579 93.861871 
L 398.983534 90.480566 
L 401.942179 89.423911 
L 405.534814 87.310591 
L 402.364839 85.619938 
L 398.560866 84.351945 
L 393.911576 82.661293 
L 390.530263 80.759311 
L 387.360288 78.645991 
L 382.710989 78.011994 
L 380.17501 78.011994 
L 375.948379 79.913984 
L 371.087751 83.08396 
L 367.706446 84.563274 
L 363.691137 87.310591 
L 359.675835 89.423911 
L 355.871871 92.382548 
L 352.067899 95.975191 
L 348.475256 97.877173 
L 346.784604 99.356496 
L 344.037295 100.201822 
L 341.289979 100.624489 
L 339.387997 101.469816 
L 337.697345 103.794465 
L 335.584025 106.119114 
L 336.640681 104.005794 
L 337.274677 101.258478 
L 334.527369 99.990493 
L 329.666741 99.145166 
L 326.074099 99.779163 
L 321.4248 100.201822 
L 316.564172 102.103812 
L 313.182867 103.583127 
L 310.224221 105.907776 
L 309.167566 107.809766 
L 307.688243 109.500419 
L 307.899572 113.304391 
L 310.224221 117.531022 
L 312.971538 119.644342 
L 317.409499 119.221675 
L 314.87352 121.123665 
L 314.239523 124.082303 
L 312.337541 128.097604 
L 313.182867 124.29364 
L 312.7602 121.334994 
L 308.744898 117.319693 
L 305.574923 110.979742 
L 304.518267 109.711748 
L 297.755649 114.995044 
L 293.740347 119.433004 
L 290.993039 122.814317 
L 289.513716 125.561626 
L 288.245723 129.576927 
L 288.66839 133.380899 
L 290.359043 135.494219 
L 296.064997 137.396201 
L 299.023643 139.72085 
L 301.348292 149.019447 
L 302.827615 153.668746 
L 304.0956 160.431355 
L 305.363593 163.81266 
L 301.982289 161.699349 
L 299.446302 159.586029 
L 297.33299 156.204724 
L 295.431 152.189423 
L 292.683692 146.060801 
L 292.242392 143.397599 
L 291.39113 140.665363 
L 290.123137 138.129384 
L 288.221155 136.227394 
L 285.685176 135.593397 
L 282.72653 136.86139 
L 279.767884 138.552043 
L 277.231906 140.876692 
L 273.639271 143.201341 
L 271.103284 146.371317 
L 270.257958 149.118633 
L 270.469296 152.922597 
L 275.96392 158.839889 
L 276.386579 167.927148 
L 276.809247 172.576446 
L 279.767884 175.323763 
L 288.432485 178.916397 
L 290.757134 182.086373 
L 294.138439 187.580997 
L 296.885755 191.807629 
L 294.772435 189.905647 
L 293.293112 189.06032 
L 289.277811 183.988355 
L 286.953162 181.452376 
L 282.93786 180.184391 
L 279.767884 178.916397 
L 276.597909 178.071071 
L 273.639271 178.705068 
L 270.680625 181.029717 
L 267.51065 183.777025 
L 264.340674 186.101674 
L 267.087983 182.086373 
L 270.257958 179.761724 
L 272.793945 176.803078 
L 274.06193 174.689766 
L 274.06193 172.153787 
L 273.427934 167.927148 
L 273.005275 163.489187 
L 272.159948 159.473886 
L 270.469296 157.360566 
L 268.567306 153.767923 
L 265.186001 153.767923 
L 261.593358 154.40192 
L 259.057379 155.247246 
L 257.578056 157.360566 
L 257.366727 160.319212 
L 256.944068 164.123176 
L 256.310071 168.349815 
L 255.464745 172.787776 
L 255.042078 174.267099 
L 254.619419 171.73112 
L 255.042078 168.138486 
L 255.464745 165.602499 
L 254.408081 163.911846 
L 251.449443 164.334514 
L 247.856801 165.391169 
L 242.150846 168.983812 
L 239.40353 171.097123 
L 237.078889 173.633102 
L 236.022225 177.014415 
L 236.022225 180.39572 
L 238.769541 182.931699 
L 242.996173 185.890345 
L 245.743481 188.003665 
L 249.124794 191.17364 
L 246.166148 190.962302 
L 242.784843 191.38497 
L 236.022225 188.214994 
L 233.486246 186.313004 
L 231.161597 186.101674 
L 228.625618 186.947001 
L 226.300969 189.482979 
L 224.18765 191.596299 
L 224.18765 191.596299 
" style="fill:none;stroke:#000000;stroke-linecap:square;stroke-width:1.5;"/>
   </g>
   <g id="line2d_2">
    <path clip-path="url(#p9a3a33d566)" d="M 564.315214 201.718716 
L 566.932335 210.151656 
L 566.932335 215.967476 
L 567.223124 222.364874 
L 567.223124 228.762273 
L 566.641545 233.705716 
L 565.47838 221.783296 
L 565.47838 212.768777 
L 564.315214 201.718716 
" style="fill:none;stroke:#000000;stroke-linecap:square;stroke-width:1.5;"/>
   </g>
   <g id="line2d_3">
    <path clip-path="url(#p9a3a33d566)" d="M 388.33563 157.425933 
L 409.696502 155.484034 
L 451.986729 155.484034 
L 437.746142 155.699797 
L 425.663226 156.131331 
L 400.418546 156.562865 
L 388.33563 157.425933 
" style="fill:none;stroke:#000000;stroke-linecap:square;stroke-width:1.5;"/>
   </g>
   <g id="line2d_4">
    <path clip-path="url(#p9a3a33d566)" d="M 378.035506 272.242054 
L 386.811572 268.807939 
L 391.390384 266.709316 
L 395.778417 265.373832 
L 404.554483 263.084422 
L 410.087213 261.939717 
L 414.284459 261.939717 
L 418.290926 261.558151 
L 424.396008 262.321283 
L 429.737959 263.847553 
L 436.033837 265.946176 
L 420.007983 262.893635 
L 414.475245 262.702856 
L 409.133294 263.275201 
L 404.554483 264.229127 
L 399.212532 265.564611 
L 394.633712 266.900102 
L 384.140597 270.334209 
L 378.035506 272.242054 
" style="fill:none;stroke:#000000;stroke-linecap:square;stroke-width:1.5;"/>
   </g>
   <g id="line2d_5">
    <path clip-path="url(#p9a3a33d566)" d="M 386.048433 288.649472 
L 393.489007 286.550849 
L 405.69918 285.406144 
L 408.751729 284.833792 
L 412.185836 284.643005 
L 416.192303 284.070661 
L 420.198762 284.261439 
L 426.113066 283.307521 
L 434.507566 282.925956 
L 428.974828 283.879874 
L 421.343467 285.024579 
L 416.383082 285.024579 
L 411.80427 285.596931 
L 406.271532 286.169284 
L 401.120368 287.31398 
L 394.824499 287.123202 
L 386.048433 288.649472 
" style="fill:none;stroke:#000000;stroke-linecap:square;stroke-width:1.5;"/>
   </g>
   <g id="line2d_6">
    <path clip-path="url(#p9a3a33d566)" d="M 415.953736 219.78243 
L 410.775342 222.587398 
L 417.24833 217.193233 
L 419.405993 214.388273 
L 420.269061 213.740968 
L 421.563664 210.936008 
L 421.347892 206.189148 
L 420.700595 204.894546 
L 418.327161 203.599951 
L 411.638402 203.599951 
L 407.970374 204.031477 
L 404.518109 204.678783 
L 401.281615 205.757614 
L 398.476655 207.052208 
L 396.534755 208.778345 
L 395.887458 212.446373 
L 396.750518 215.03557 
L 401.928912 219.350896 
L 403.870811 220.645498 
L 405.165414 222.371627 
L 396.318984 218.919361 
L 393.945558 216.330164 
L 393.298261 212.014839 
L 394.377092 208.346811 
L 396.534755 206.189148 
L 399.555486 204.894546 
L 403.870811 202.952646 
L 407.970374 202.736883 
L 410.343808 202.089586 
L 417.24833 202.089586 
L 420.484824 201.873815 
L 423.074021 200.794983 
L 423.289792 203.38418 
L 423.937089 205.32608 
L 424.368623 209.857176 
L 423.505555 212.877907 
L 420.700595 216.114401 
L 415.953736 219.78243 
" style="fill:none;stroke:#000000;stroke-linecap:square;stroke-width:1.5;"/>
   </g>
   <g id="line2d_7">
    <path clip-path="url(#p9a3a33d566)" d="M 251.039284 209.111812 
L 249.982629 212.493117 
L 249.137302 217.565074 
L 247.44665 228.765653 
L 246.601324 233.837619 
L 245.967327 236.796264 
L 245.54466 241.656892 
L 245.54466 245.249527 
L 244.699334 243.770204 
L 244.699334 239.966232 
L 244.910671 236.796264 
L 245.755998 233.203622 
L 246.389994 228.976991 
L 247.23532 225.384348 
L 247.65798 221.369046 
L 249.348632 212.915776 
L 251.039284 209.111812 
L 251.039284 209.111812 
" style="fill:none;stroke:#000000;stroke-linecap:square;stroke-width:1.5;"/>
   </g>
   <g id="line2d_8">
    <path clip-path="url(#p9a3a33d566)" d="M 631.612917 258.952151 
L 627.74637 262.136374 
L 625.926819 264.41081 
L 625.01704 268.277357 
L 625.01704 273.053684 
L 625.926819 277.147678 
L 626.381705 281.924004 
L 626.381705 286.927769 
L 627.74637 295.115749 
L 628.883587 301.029293 
L 632.295249 302.621405 
L 637.299014 300.574408 
L 641.847894 297.390193 
L 645.487002 294.205978 
L 647.761438 288.974766 
L 648.44377 284.19844 
L 648.44377 278.284895 
L 647.988885 273.28113 
L 647.079106 267.595025 
L 645.714441 263.273592 
L 644.80467 260.316816 
L 641.620455 258.04238 
L 638.43624 257.132601 
L 635.024579 257.360048 
L 631.612917 258.952151 
" style="fill:none;stroke:#000000;stroke-linecap:square;stroke-width:1.5;"/>
   </g>
   <g id="line2d_9">
    <path clip-path="url(#p9a3a33d566)" d="M 597.26887 303.986069 
L 596.359099 307.170284 
L 597.496316 310.354499 
L 599.770752 312.856381 
L 603.864746 316.268043 
L 608.186187 319.679705 
L 613.872284 324.001137 
L 617.056499 323.546252 
L 620.013275 321.044369 
L 622.742596 317.632708 
L 624.562155 313.311275 
L 624.334708 309.444728 
L 623.424929 306.942837 
L 620.468161 304.895848 
L 616.14672 303.758622 
L 610.005737 303.303737 
L 603.182414 303.758622 
L 597.26887 303.986069 
" style="fill:none;stroke:#000000;stroke-linecap:square;stroke-width:1.5;"/>
   </g>
   <g id="line2d_10">
    <path clip-path="url(#p9a3a33d566)" d="M 427.612498 63.517237 
L 430.993803 64.151226 
L 434.797776 65.207889 
L 439.024407 66.053216 
L 444.307702 68.377865 
L 450.858982 70.913844 
L 455.508281 73.238493 
L 459.312253 74.083819 
L 461.848232 72.604496 
L 462.059561 70.913844 
L 460.791576 66.053216 
L 458.044259 62.037914 
L 455.085613 58.867939 
L 451.492979 54.852637 
L 447.05501 52.10532 
L 443.462376 50.414668 
L 439.235736 48.724016 
L 436.065761 47.456022 
L 431.416471 46.399366 
L 425.921846 45.976699 
L 419.159228 45.342711 
L 413.875933 45.976699 
L 410.071969 46.610696 
L 405.634 48.090019 
L 402.675354 49.992009 
L 399.294049 52.10532 
L 396.335403 55.697963 
L 396.124074 58.022612 
L 398.660052 60.135924 
L 401.618698 61.403917 
L 404.788674 61.192588 
L 399.716716 62.249244 
L 395.067418 63.728566 
L 391.686105 66.687212 
L 391.474775 69.64585 
L 396.75807 71.54784 
L 402.252695 72.604496 
L 407.535982 74.083819 
L 412.396618 76.619798 
L 416.41192 79.578444 
L 420.427221 81.691763 
L 431.205133 83.382416 
L 437.756422 86.129724 
L 449.16833 90.990352 
L 454.451625 93.737668 
L 459.734912 94.582995 
L 463.327555 94.160327 
L 468.188182 92.892342 
L 471.358158 90.779022 
L 472.203484 87.397717 
L 471.992155 84.439072 
L 467.765515 80.42377 
L 462.693558 77.676453 
L 457.410263 74.929145 
L 450.436323 72.181837 
L 442.405712 68.589194 
L 435.854431 65.841886 
L 427.612498 63.517237 
" style="fill:none;stroke:#000000;stroke-linecap:square;stroke-width:1.5;"/>
   </g>
   <g id="line2d_11">
    <path clip-path="url(#p9a3a33d566)" d="M 381.964849 102.613598 
L 388.09347 100.922945 
L 391.052116 100.077619 
L 394.85608 100.922945 
L 399.08272 101.134275 
L 403.309351 101.345604 
L 408.803975 101.134275 
L 413.875933 100.922945 
L 417.468575 101.768272 
L 422.117874 102.402268 
L 425.921846 103.670254 
L 429.303151 104.51558 
L 433.952449 106.206232 
L 439.235736 106.840229 
L 443.673705 107.896893 
L 447.05501 107.262896 
L 449.802327 105.994903 
L 451.281649 102.613598 
L 451.704309 99.654952 
L 448.534333 95.63965 
L 442.828379 92.047016 
L 437.967751 90.567693 
L 433.529782 89.511029 
L 428.880484 88.031714 
L 424.019856 87.609047 
L 418.947898 87.18638 
L 414.50993 86.763721 
L 410.283298 87.18638 
L 407.324652 88.243044 
L 402.886692 89.722367 
L 397.392067 92.681004 
L 395.490077 94.371657 
L 392.954098 96.062318 
L 389.784123 97.330303 
L 387.248144 99.654952 
L 381.964849 102.613598 
" style="fill:none;stroke:#000000;stroke-linecap:square;stroke-width:1.5;"/>
   </g>
   <g id="line2d_12">
    <path clip-path="url(#p9a3a33d566)" d="M 194.902994 211.141393 
L 190.148035 210.824395 
L 186.344063 212.092388 
L 181.589096 214.311369 
L 179.053117 215.896352 
L 174.298158 218.749329 
L 170.811184 220.968318 
L 167.007212 223.187298 
L 162.886241 225.723277 
L 160.984259 228.259256 
L 158.448281 231.746229 
L 156.863289 234.916205 
L 154.644308 240.622167 
L 153.376315 246.328121 
L 152.742318 250.766082 
L 153.376315 254.887053 
L 154.32731 259.325021 
L 156.54629 265.030976 
L 159.716266 270.102933 
L 162.569243 272.321913 
L 168.592195 275.491889 
L 173.030164 275.808887 
L 175.883141 273.906905 
L 178.736119 271.370927 
L 179.370115 268.834948 
L 177.468133 261.227003 
L 180.004112 265.347974 
L 180.638109 269.151938 
L 183.808084 271.687925 
L 191.099022 273.272909 
L 197.121974 272.95591 
L 201.242945 270.73693 
L 204.095922 267.566954 
L 205.363915 263.445984 
L 203.778924 258.374026 
L 201.242945 252.985071 
L 199.340963 250.132085 
L 202.510938 249.181098 
L 204.41292 244.109133 
L 205.046917 240.939157 
L 205.997912 235.233203 
L 206.314911 229.527249 
L 206.314911 222.553302 
L 204.729919 217.798342 
L 201.559943 214.945365 
L 198.389968 212.409379 
L 194.902994 211.141393 
" style="fill:none;stroke:#000000;stroke-linecap:square;stroke-width:1.5;"/>
   </g>
  </g>
 </g>
 <defs>
  <clipPath id="p9a3a33d566">
   <rect height="601.92" width="816.48" x="0" y="0"/>
  </clipPath>
 </defs>
</svg>
