<?xml version="1.0" encoding="utf-8" standalone="no"?>
<!DOCTYPE svg PUBLIC "-//W3C//DTD SVG 1.1//EN"
  "http://www.w3.org/Graphics/SVG/1.1/DTD/svg11.dtd">
<!-- Created with matplotlib (https://matplotlib.org/) -->
<svg height="246.24pt" version="1.1" viewBox="0 0 414.72 246.24" width="414.72pt" xmlns="http://www.w3.org/2000/svg" xmlns:xlink="http://www.w3.org/1999/xlink">
 <defs>
  <style type="text/css">
*{stroke-linecap:butt;stroke-linejoin:round;}
  </style>
 </defs>
 <g id="figure_1">
  <g><image xlink:href="../../img/cb/chimp_cor_cell.json.cb-50%25.png" width="414.71999999999997px" height="246.23999999999998px"/></g>

  <g id="patch_1">
   <path d="M 0 246.24 
L 414.72 246.24 
L 414.72 0 
L 0 0 
z
" style="fill:none;"/>
  </g>
  <g id="axes_1">
   <g id="line2d_1">
    <path clip-path="url(#pbf72fb14b2)" d="M 321.086575 157.201486 
L 320.70281 155.773104 
L 320.148906 154.757612 
L 319.170017 154.014533 
L 319.824172 153.772233 
L 320.547697 153.056323 
L 320.618328 151.547327 
L 320.041983 149.89298 
L 319.033985 148.59698 
L 316.873982 148.020979 
L 315.793985 148.59698 
L 315.433983 149.89298 
L 315.433983 151.18898 
L 315.289984 152.48498 
L 314.497985 153.636976 
L 315.001986 150.900977 
L 314.857983 149.24498 
L 314.497985 147.94898 
L 313.129986 147.012977 
L 311.473984 146.148979 
L 309.457984 145.932976 
L 308.449982 146.292978 
L 308.377983 147.588978 
L 309.025983 148.884978 
L 310.249983 149.604977 
L 311.473984 150.54098 
L 312.049984 151.692976 
L 311.041982 150.900977 
L 310.393982 149.89298 
L 309.097982 149.532978 
L 308.449982 149.604977 
L 308.017985 150.396976 
L 307.945986 152.052978 
L 308.305983 153.276979 
L 309.097982 153.852979 
L 311.617983 154.788977 
L 310.969983 155.652976 
L 310.537986 156.948976 
L 310.609985 155.796979 
L 310.177984 154.932976 
L 309.313985 154.284976 
L 308.305983 154.284976 
L 307.585984 155.148979 
L 307.081983 156.588978 
L 307.009983 157.956978 
L 307.225986 159.108979 
L 308.305983 159.396977 
L 305.929986 159.684979 
L 305.129572 160.752199 
L 303.790317 163.200743 
L 301.105984 166.380978 
L 301.209979 166.247272 
L 301.630314 165.504745 
L 302.134315 165.000744 
L 303.502315 163.128743 
L 304.993984 160.404979 
L 306.073985 159.108979 
L 306.289984 157.740979 
L 307.009983 156.228976 
L 306.289984 155.004976 
L 305.353986 154.42898 
L 304.057986 153.78098 
L 305.929986 154.356976 
L 306.937984 154.140977 
L 307.297986 153.276979 
L 307.369985 152.124978 
L 307.657983 150.900977 
L 307.225986 149.964979 
L 306.289984 149.24498 
L 305.497985 148.812978 
L 306.721985 149.100976 
L 307.729983 149.172976 
L 308.161984 147.732977 
L 308.017985 146.436977 
L 307.081983 145.572978 
L 305.425985 145.140977 
L 303.265982 145.644978 
L 302.545983 146.220978 
L 301.969982 148.956977 
L 301.537985 149.89298 
L 301.465986 150.612979 
L 301.960539 151.062577 
L 302.348045 151.027347 
L 303.716045 151.171346 
L 303.428047 151.243349 
L 300.961985 151.404978 
L 300.457984 153.564977 
L 300.961985 154.42898 
L 303.409986 156.804977 
L 302.329984 156.084977 
L 300.961985 154.932976 
L 299.737984 154.644978 
L 299.305983 155.580976 
L 299.233983 156.732977 
L 299.593985 157.740979 
L 300.601983 158.31698 
L 301.321982 158.892976 
L 301.393986 159.972977 
L 300.961985 161.484976 
L 300.241985 162.564977 
L 300.169986 161.988977 
L 301.033984 160.548978 
L 300.961985 159.108979 
L 299.809984 158.388979 
L 298.657983 157.956978 
L 297.937983 158.676977 
L 298.081982 159.61298 
L 297.145984 158.604978 
L 295.705985 159.108979 
L 295.417983 160.26098 
L 296.209986 161.916977 
L 296.929986 162.780976 
L 297.217984 163.572979 
L 297.433982 164.580977 
L 297.145984 165.516979 
L 295.489982 167.460979 
L 296.569984 165.300976 
L 296.785982 163.860977 
L 296.137982 162.636977 
L 295.345983 161.628979 
L 294.265986 161.340977 
L 293.329984 161.700979 
L 292.537985 162.348979 
L 292.177983 163.068978 
L 292.105983 164.220979 
L 292.393986 165.372976 
L 292.249982 166.452977 
L 291.817985 167.38898 
L 291.025986 168.324978 
L 289.369984 168.756979 
L 289.297985 168.540976 
L 290.809983 167.676978 
L 291.601982 166.668976 
L 291.745986 165.372976 
L 291.673986 163.860977 
L 290.881983 162.996979 
L 290.089984 162.708976 
L 288.793984 163.212977 
L 287.281985 164.220979 
L 286.345983 165.084978 
L 285.553984 165.660978 
L 284.113985 167.100977 
L 284.545986 167.748977 
L 285.265986 168.612976 
L 285.337985 169.188976 
L 284.257984 169.33298 
L 279.937982 168.540976 
L 278.929985 167.820977 
L 278.713986 167.028978 
L 281.665984 168.03698 
L 282.817985 168.108979 
L 283.681983 167.460979 
L 284.257984 166.596976 
L 285.265986 165.876977 
L 286.489986 164.364978 
L 288.145984 163.428976 
L 289.009982 162.564977 
L 289.657982 161.55698 
L 289.873985 160.476978 
L 289.513983 159.108979 
L 288.721984 158.748977 
L 286.993983 159.396977 
L 286.201984 159.396977 
L 289.081986 158.172976 
L 290.161983 157.524976 
L 291.313984 156.37298 
L 290.953982 157.092975 
L 290.233983 157.884978 
L 290.161983 158.820976 
L 290.233983 160.404979 
L 290.593985 161.196978 
L 291.457983 161.55698 
L 293.185985 161.052979 
L 294.193982 160.116976 
L 296.713983 158.172976 
L 298.225986 156.516979 
L 298.657983 155.508977 
L 298.153986 153.924979 
L 297.217984 153.060976 
L 296.065983 153.13298 
L 294.985986 153.708976 
L 294.481985 153.78098 
L 295.201984 152.916977 
L 295.705985 151.908979 
L 296.497984 150.900977 
L 297.649985 150.612979 
L 298.153986 151.260979 
L 298.801986 151.83698 
L 299.665985 151.83698 
L 300.385984 151.044976 
L 301.033984 149.748976 
L 301.609985 148.236978 
L 301.753984 146.508976 
L 301.105984 145.068977 
L 299.881983 144.06098 
L 298.369985 143.484979 
L 297.001985 143.844977 
L 296.497984 144.636976 
L 296.281986 145.572978 
L 296.353985 146.508976 
L 295.633986 145.932976 
L 295.705985 144.276978 
L 295.345983 143.628978 
L 293.545982 143.268976 
L 292.033984 143.628978 
L 291.025986 144.132979 
L 290.809983 145.500979 
L 291.745986 146.580976 
L 293.977984 148.164978 
L 294.265986 148.740979 
L 292.465985 147.372979 
L 291.169985 146.65298 
L 289.945985 146.868978 
L 289.897707 147.351683 
L 289.735265 147.838892 
L 289.955109 149.19664 
L 291.827619 151.067284 
L 291.395618 151.787284 
L 290.819621 151.643285 
L 290.747618 150.347285 
L 289.523621 149.771284 
L 288.155618 150.131282 
L 287.86762 150.491284 
L 286.787618 151.355282 
L 286.643619 152.291285 
L 287.003621 153.443281 
L 287.939619 154.163285 
L 287.86762 154.523283 
L 286.42762 153.947282 
L 285.059621 153.947282 
L 284.195618 154.523283 
L 284.267618 155.315282 
L 283.403619 155.387281 
L 282.467621 155.315282 
L 281.747621 155.603284 
L 281.459619 156.323284 
L 281.31562 157.187282 
L 281.459619 158.123285 
L 280.955618 158.771285 
L 280.01962 159.347285 
L 277.571619 160.139284 
L 276.275619 160.355283 
L 274.76362 160.067285 
L 274.979619 159.779282 
L 276.491618 160.139284 
L 277.931621 159.923285 
L 279.29962 159.275281 
L 280.235619 158.483282 
L 280.73962 157.547284 
L 281.24362 155.891282 
L 281.31562 155.243282 
L 280.883619 154.235285 
L 280.235619 153.011284 
L 281.099621 152.723282 
L 281.89162 152.219285 
L 281.89162 153.011284 
L 282.251618 154.235285 
L 282.971618 154.595282 
L 284.267618 154.235285 
L 285.059621 153.659284 
L 286.283621 152.363284 
L 286.715619 151.067284 
L 286.787618 150.347285 
L 286.355621 149.699285 
L 285.77962 148.619283 
L 285.707621 147.899284 
L 286.42762 149.123284 
L 287.291619 149.987283 
L 287.79562 150.131282 
L 289.307619 148.907281 
L 289.307619 148.259281 
L 289.66762 147.323283 
L 289.955619 146.243282 
L 290.38762 145.307284 
L 290.45962 144.083283 
L 290.027618 143.075281 
L 288.947621 142.283282 
L 287.86762 141.851285 
L 286.715619 141.707282 
L 286.283621 143.435283 
L 285.707621 143.075281 
L 285.419619 141.995284 
L 284.267618 141.275285 
L 282.971618 140.699284 
L 282.251618 140.627285 
L 281.099621 140.915283 
L 280.66762 141.779281 
L 281.24362 144.155283 
L 281.747621 144.947282 
L 282.899618 145.451283 
L 284.123619 145.379283 
L 284.55562 145.523282 
L 283.475619 145.955284 
L 281.027618 144.659284 
L 280.165154 144.770868 
L 279.373159 145.13087 
L 278.869154 145.490864 
L 277.933155 147.650866 
L 278.475493 148.420628 
L 279.216224 148.914597 
L 278.280226 148.986597 
L 277.632226 149.346598 
L 276.696224 149.994598 
L 275.112226 152.010598 
L 273.024223 154.962596 
L 271.944225 155.466597 
L 271.728223 154.818597 
L 273.744226 151.146595 
L 273.672223 150.210597 
L 271.728223 148.698598 
L 272.952223 149.490597 
L 274.464226 149.778596 
L 275.904225 149.346598 
L 276.912223 148.482596 
L 277.344224 147.474598 
L 277.200225 146.466596 
L 276.480225 145.674597 
L 275.472223 145.242596 
L 274.176223 145.026597 
L 272.448226 145.314595 
L 270.864224 145.026597 
L 271.296225 144.234598 
L 272.448226 144.522596 
L 274.104224 144.810598 
L 275.832225 145.314595 
L 277.056226 145.530598 
L 277.992224 145.458598 
L 278.496225 144.882598 
L 277.560223 143.874596 
L 277.200225 143.226596 
L 278.496225 144.234598 
L 279.576226 144.306597 
L 280.440225 143.586598 
L 280.368225 142.362597 
L 280.440225 141.138597 
L 279.720225 140.058596 
L 278.568224 139.194597 
L 272.808224 136.746596 
L 272.016225 136.962599 
L 271.872226 137.826597 
L 272.592225 138.978598 
L 273.384224 139.986596 
L 272.808224 140.130595 
L 272.088224 139.986596 
L 271.656223 139.194597 
L 271.368225 137.898597 
L 271.584223 136.746596 
L 271.008223 135.954597 
L 267.984226 134.442598 
L 266.688226 133.938597 
L 266.184225 134.370599 
L 266.112225 135.666599 
L 266.751674 137.809499 
L 267.593456 138.989062 
L 267.659533 140.05721 
L 266.795348 139.552845 
L 266.003349 138.328848 
L 265.715351 136.672846 
L 265.931349 135.088848 
L 265.427348 133.720845 
L 264.243501 132.920543 
L 263.051347 133.072845 
L 260.67535 133.024393 
L 259.30735 134.080846 
L 259.811347 135.016845 
L 261.107347 135.808848 
L 260.891348 136.096846 
L 258.65935 134.656847 
L 258.443348 134.296845 
L 257.219347 134.656847 
L 256.571347 135.520845 
L 256.78735 136.888845 
L 257.36335 137.824847 
L 262.54735 140.920848 
L 263.555348 142.000845 
L 264.347347 143.080847 
L 266.219348 146.032845 
L 264.49135 144.016845 
L 263.051347 142.072845 
L 261.827351 140.920848 
L 259.95535 139.480845 
L 258.515347 138.904845 
L 257.291351 138.760845 
L 256.71535 139.408845 
L 256.71535 140.632846 
L 257.075348 141.856846 
L 257.939351 143.080847 
L 259.235351 144.520846 
L 260.099349 145.672847 
L 265.067351 148.696848 
L 266.579349 149.776845 
L 268.307351 151.216845 
L 266.867348 150.640848 
L 265.21135 149.200845 
L 263.84335 148.552845 
L 262.763349 148.696848 
L 262.331348 149.920845 
L 262.261185 151.172644 
L 262.55725 151.345847 
L 263.060898 152.568682 
L 264.140899 153.648684 
L 266.516901 155.376681 
L 265.148901 154.728681 
L 262.988899 153.936682 
L 261.4769 153.576684 
L 262.268899 153.000684 
L 261.908901 151.776683 
L 261.620899 150.336684 
L 261.764898 149.112684 
L 261.332901 147.816684 
L 260.8289 146.808682 
L 258.740901 144.936682 
L 257.205354 144.064376 
L 254.931839 143.704378 
L 254.132901 143.856684 
L 253.0529 144.648683 
L 252.908901 145.728685 
L 253.484901 147.168684 
L 254.636898 147.960683 
L 255.716899 148.464684 
L 254.060902 147.960683 
L 253.0529 147.816684 
L 252.476899 148.608683 
L 252.764902 149.832683 
L 253.995393 151.783178 
L 255.0156 152.227384 
L 255.826983 153.038768 
L 254.015071 152.09085 
L 251.997782 151.657567 
L 248.757782 150.001566 
L 247.749784 149.281566 
L 245.661781 147.625564 
L 249.788979 150.411421 
L 251.084979 150.771423 
L 252.092977 150.915422 
L 252.380979 150.195422 
L 252.452978 147.747421 
L 252.23698 146.307422 
L 251.804978 145.083422 
L 250.94098 143.859421 
L 249.716979 142.85142 
L 248.564978 142.275423 
L 246.116977 142.059421 
L 244.964977 141.48342 
L 244.172977 140.763421 
L 245.684976 141.411421 
L 246.764977 141.267421 
L 247.268978 141.051423 
L 248.132977 141.843422 
L 249.500977 142.707421 
L 250.796977 143.355421 
L 251.948977 143.283421 
L 253.316977 143.067422 
L 254.900979 143.211421 
L 255.908977 141.987421 
L 255.980977 140.691421 
L 255.404976 138.24342 
L 254.540977 136.875421 
L 253.388977 136.011422 
L 251.732979 135.435421 
L 250.364979 135.363422 
L 249.428977 136.875421 
L 247.988978 136.94742 
L 246.980976 136.443423 
L 247.268978 135.867423 
L 248.492979 135.867423 
L 248.708977 134.787421 
L 248.708977 134.067422 
L 250.94098 134.859421 
L 253.964977 136.083421 
L 255.260977 135.72342 
L 255.692978 134.499423 
L 255.908977 133.419422 
L 255.044978 132.267421 
L 252.164976 130.971421 
L 250.364979 129.747421 
L 249.572976 128.811422 
L 250.724977 129.81942 
L 254.684977 131.691421 
L 256.052976 130.53942 
L 255.764978 129.027421 
L 254.82898 127.659421 
L 252.812976 126.00342 
L 251.084979 124.995422 
L 249.514928 123.778476 
L 246.891844 122.239948 
L 245.739844 121.879946 
L 244.659846 122.239948 
L 244.011846 123.463948 
L 244.227845 124.831948 
L 245.667844 126.559949 
L 245.235847 126.487945 
L 244.011846 126.775948 
L 243.723844 127.855949 
L 243.363846 127.855949 
L 241.563845 126.055948 
L 240.411844 125.119946 
L 238.827846 123.535948 
L 238.467844 122.959947 
L 238.899846 123.391948 
L 240.411844 124.543945 
L 242.067846 125.623947 
L 242.931845 125.263949 
L 242.715846 122.239948 
L 243.050111 121.096909 
L 242.262383 119.124388 
L 241.24014 118.25013 
L 237.720444 115.681677 
L 233.320141 113.498131 
L 231.376141 112.202131 
L 230.897052 111.153976 
L 229.473658 109.377523 
L 227.328901 108.217219 
L 225.544141 108.242132 
L 223.384142 108.098128 
L 220.376746 103.953976 
L 218.081051 102.433675 
L 215.664901 101.465822 
L 213.592138 100.322128 
L 212.800139 99.242131 
L 211.144142 98.018131 
L 210.310144 98.104799 
L 208.803076 98.405292 
L 206.906466 98.951678 
L 205.117315 98.656899 
L 202.669679 99.088668 
L 200.50968 100.02467 
L 199.573678 101.39267 
L 197.341679 102.61667 
L 193.427345 105.352047 
L 192.275348 106.792046 
L 190.475347 108.304045 
L 186.083346 110.896045 
L 183.275348 112.840045 
L 175.211345 119.536048 
L 172.547346 121.12005 
L 167.840643 123.356104 
L 166.760641 124.436106 
L 165.896643 125.660102 
L 165.68064 127.604106 
L 166.40064 129.332103 
L 168.056641 129.404107 
L 175.624294 124.525938 
L 177.34464 123.140106 
L 181.448643 120.548106 
L 176.386765 124.102559 
L 175.652354 124.784512 
L 173.420356 126.296515 
L 172.23264 126.956102 
L 169.208642 128.900102 
L 167.408641 130.268106 
L 167.336642 131.780104 
L 168.560642 133.220103 
L 170.432643 132.356105 
L 174.68064 130.052103 
L 177.27264 128.828102 
L 179.28864 127.532102 
L 182.52864 125.660102 
L 185.165716 123.653048 
L 188.235701 120.575635 
L 190.107698 118.271633 
L 188.667699 120.431632 
L 186.867698 122.159633 
L 180.7477 128.351635 
L 178.587701 129.503632 
L 176.643701 130.367634 
L 174.2677 130.871635 
L 172.107701 131.735634 
L 170.019698 132.815635 
L 169.0117 133.895632 
L 168.651698 134.471633 
L 168.003698 136.487632 
L 167.859699 138.287633 
L 169.371698 139.007633 
L 171.387701 138.575632 
L 174.2677 137.207632 
L 177.291701 135.263632 
L 180.171699 133.247632 
L 181.251701 132.239635 
L 183.771701 130.223635 
L 185.427699 128.135632 
L 189.243699 124.175632 
L 186.219698 128.279635 
L 183.555698 130.871635 
L 180.963698 132.959634 
L 177.939701 134.903634 
L 175.635699 136.703635 
L 173.259698 137.783632 
L 169.227699 140.591635 
L 168.795701 142.535635 
L 170.9557 143.111632 
L 174.2677 142.535635 
L 177.219701 141.383634 
L 179.739698 140.087634 
L 182.763699 137.855636 
L 186.5077 134.111635 
L 185.139701 135.839632 
L 183.195701 137.639633 
L 180.315698 140.087634 
L 178.587701 141.311635 
L 174.987699 143.327634 
L 172.755701 143.975634 
L 171.243698 143.615632 
L 169.443701 143.687632 
L 168.602732 144.216118 
L 167.516381 144.651292 
L 164.232301 148.88533 
L 164.592303 150.253334 
L 166.680302 150.325333 
L 166.536303 150.82933 
L 165.096304 151.117332 
L 163.872303 150.757331 
L 163.224303 149.893332 
L 164.3043 148.669332 
L 166.536303 145.717334 
L 167.040304 143.989332 
L 166.608302 143.485332 
L 165.6003 143.557331 
L 164.520303 144.061332 
L 160.776302 146.365334 
L 162.3603 145.069334 
L 163.872303 144.205331 
L 165.528301 142.909331 
L 166.8963 141.469332 
L 167.256302 140.389331 
L 166.9683 138.661333 
L 166.464303 137.86933 
L 165.312302 137.077331 
L 164.601087 137.219572 
L 165.528301 135.997334 
L 166.176301 134.053334 
L 165.6723 132.469332 
L 165.096304 131.677332 
L 163.7283 131.749332 
L 162.689078 132.392036 
L 159.475516 135.728512 
L 158.755517 137.096512 
L 159.115515 135.800512 
L 162.496797 132.366614 
L 164.160301 130.237333 
L 164.520303 128.653331 
L 163.944303 126.997333 
L 162.864301 126.637332 
L 161.856304 126.781331 
L 159.984303 127.789332 
L 158.184302 130.381332 
L 156.744303 130.237333 
L 155.448303 130.453332 
L 155.088301 131.749332 
L 155.376304 133.261331 
L 156.672304 133.405334 
L 155.9523 133.98133 
L 154.512301 134.341332 
L 154.0083 134.341332 
L 155.088301 133.477333 
L 154.872299 131.965331 
L 154.584305 131.533329 
L 153.360304 131.461334 
L 151.776302 131.749332 
L 150.1203 132.541331 
L 148.8243 134.125333 
L 148.372189 137.170672 
L 148.444188 138.466672 
L 148.948189 141.130672 
L 150.532187 140.338673 
L 152.188189 138.754674 
L 152.980188 138.322673 
L 149.092188 141.850671 
L 148.516188 143.074672 
L 148.588187 144.514671 
L 149.308191 145.450673 
L 150.532187 144.874673 
L 153.484189 142.426672 
L 155.35619 142.138674 
L 154.63619 142.714674 
L 152.836189 143.146671 
L 151.036188 144.802673 
L 149.164188 145.954674 
L 148.87619 147.034671 
L 149.092188 148.330671 
L 149.596189 149.050671 
L 150.676191 149.554672 
L 152.404188 149.050671 
L 156.148189 146.746673 
L 154.924188 147.826674 
L 152.620191 149.122674 
L 151.46819 150.130672 
L 151.145309 150.830247 
L 151.310816 151.525214 
L 151.721393 152.747435 
L 152.260189 153.298673 
L 154.420187 153.658674 
L 155.716187 153.586671 
L 157.22819 152.506674 
L 156.58019 153.586671 
L 155.068187 154.090672 
L 153.844191 155.530671 
L 153.34019 156.322674 
L 153.628188 155.098674 
L 153.916191 154.378674 
L 153.196191 153.730674 
L 152.11619 153.586671 
L 150.964189 154.234671 
L 149.812188 155.314672 
L 148.660191 156.970674 
L 148.87619 156.250674 
L 150.74819 154.162671 
L 151.154964 151.948543 
L 150.765289 150.824627 
L 149.884187 150.202672 
L 148.948189 149.050671 
L 148.001948 148.828028 
L 146.289353 151.125768 
L 146.28419 151.642671 
L 145.924188 153.658674 
L 145.492191 154.594673 
L 145.63619 152.938671 
L 145.492191 152.002673 
L 144.98819 151.786674 
L 146.238119 150.782259 
L 148.236235 147.930006 
L 148.372189 145.090671 
L 147.868188 143.794671 
L 147.148188 142.786674 
L 146.592045 142.5086 
L 146.342819 142.813211 
L 145.735159 143.282766 
L 145.204188 143.938674 
L 144.26819 145.306674 
L 143.908188 147.250674 
L 143.764189 148.690673 
L 143.04419 149.842674 
L 143.69219 147.682671 
L 143.116189 145.522673 
L 144.196191 144.370672 
L 145.106932 143.662317 
L 147.292187 141.274671 
L 147.292187 139.546674 
L 146.644187 138.538672 
L 145.780189 139.042673 
L 144.052187 140.482672 
L 142.97219 140.986673 
L 143.404187 140.266673 
L 145.204188 139.402674 
L 146.28419 138.538672 
L 147.436191 137.242672 
L 147.436191 135.730673 
L 146.21219 135.010674 
L 144.556188 135.298672 
L 143.62019 136.954674 
L 142.540189 136.738675 
L 140.956191 136.810674 
L 139.876189 137.530674 
L 139.228189 138.610671 
L 138.868187 140.050674 
L 139.588191 142.066674 
L 139.948189 142.642674 
L 139.228189 143.362674 
L 137.284189 142.498671 
L 135.484188 143.290674 
L 137.284189 142.138674 
L 138.508186 140.986673 
L 138.43619 139.40267 
L 137.284189 138.466672 
L 135.84419 138.682675 
L 134.260188 139.40267 
L 133.468189 140.410672 
L 133.180191 140.986673 
L 131.30819 140.914673 
L 129.868191 141.130672 
L 128.932189 142.066674 
L 129.148187 143.434674 
L 129.148187 144.514671 
L 130.08419 145.378674 
L 131.740187 144.514671 
L 132.60419 144.298676 
L 130.300188 145.522673 
L 130.156189 146.746673 
L 131.092192 148.042669 
L 132.316188 148.114673 
L 133.90019 146.890672 
L 136.56419 146.386671 
L 137.428188 147.250674 
L 137.86019 148.042673 
L 138.292191 149.122674 
L 137.644191 148.906672 
L 136.708189 147.682671 
L 135.628187 147.178674 
L 133.468189 147.538672 
L 132.100189 148.618674 
L 131.596188 149.698671 
L 132.100189 150.778672 
L 133.108191 151.930673 
L 134.116189 152.722672 
L 135.484188 152.938671 
L 139.08419 152.434674 
L 139.948189 152.722672 
L 137.716191 153.154674 
L 135.772191 153.082674 
L 134.54819 153.730674 
L 134.404191 154.450674 
L 134.730269 154.919415 
L 135.596329 155.716764 
L 135.615364 156.140487 
L 136.420191 156.826671 
L 137.644191 157.114673 
L 139.80419 155.530671 
L 140.38019 155.530671 
L 138.43619 156.826671 
L 138.076193 157.402671 
L 138.43619 157.906672 
L 138.724188 158.554672 
L 139.471439 158.528889 
L 139.865618 158.955706 
L 141.850568 159.889063 
L 142.424598 160.032324 
L 141.632599 160.104327 
L 140.696597 161.112325 
L 140.1926 161.976328 
L 140.480598 160.536325 
L 140.264599 159.528327 
L 139.112599 159.024326 
L 136.664598 159.816325 
L 138.032597 158.808327 
L 137.600596 158.088328 
L 137.024599 157.368324 
L 136.088597 156.720324 
L 135.0086 156.864327 
L 133.928599 157.656326 
L 133.856599 157.440328 
L 135.224599 156.144328 
L 135.224599 155.755818 
L 134.3606 154.704325 
L 133.208599 154.848328 
L 132.704598 154.776324 
L 131.336599 155.352325 
L 130.904597 155.712326 
L 132.200597 154.488326 
L 132.704598 153.768326 
L 132.9926 152.832324 
L 132.560599 151.896326 
L 131.552597 151.464325 
L 130.616599 151.752327 
L 129.536598 152.256328 
L 128.888598 152.904328 
L 127.8086 153.624327 
L 127.8086 152.904328 
L 129.032597 152.400327 
L 130.328597 151.536324 
L 131.1206 150.672325 
L 131.336599 149.808327 
L 131.192599 148.872325 
L 130.544599 148.008326 
L 129.680597 147.792327 
L 126.5846 150.312328 
L 126.728599 149.736327 
L 127.8086 148.944324 
L 128.5286 148.080325 
L 129.1046 147.720328 
L 129.1766 146.640326 
L 128.816598 146.280325 
L 127.8806 145.992326 
L 126.5126 146.280325 
L 126.800599 146.136325 
L 128.168598 145.704324 
L 128.672599 145.056324 
L 128.384597 143.832328 
L 127.664597 143.112324 
L 126.5126 142.536328 
L 125.072597 142.536328 
L 124.136599 143.184328 
L 124.352598 144.336325 
L 124.424597 145.704324 
L 124.136599 146.136325 
L 123.632598 143.904327 
L 123.3446 143.256327 
L 122.336598 142.824326 
L 120.7526 142.680327 
L 118.016597 143.112324 
L 117.368597 143.904327 
L 117.5126 145.128328 
L 118.1606 146.064326 
L 121.184597 148.008326 
L 122.192599 148.224325 
L 122.6966 148.872325 
L 123.632598 150.744325 
L 123.056598 150.528326 
L 122.192599 149.952326 
L 120.320599 147.720328 
L 117.800598 146.352324 
L 116.7926 146.136325 
L 115.928598 146.928325 
L 115.784599 148.224325 
L 116.432599 149.304326 
L 117.008599 150.816325 
L 117.296597 152.112325 
L 117.152598 153.552328 
L 117.296597 154.776324 
L 117.959349 156.220765 
L 118.664597 156.864327 
L 119.744598 157.224325 
L 120.22598 156.89106 
L 121.4006 155.424324 
L 122.552597 154.488326 
L 123.3446 154.128324 
L 119.744598 157.440328 
L 120.248599 158.808327 
L 121.256597 159.024326 
L 122.336598 159.672326 
L 123.056598 160.392325 
L 123.776597 160.752323 
L 124.928598 161.040325 
L 126.008599 159.240325 
L 126.5126 157.512327 
L 127.016597 157.584327 
L 128.240598 158.448325 
L 128.816598 159.096325 
L 127.592598 158.304322 
L 126.872598 158.088328 
L 125.792601 159.888329 
L 125.432599 161.112325 
L 126.656599 161.760325 
L 127.8806 162.048327 
L 128.672599 163.128325 
L 129.7526 163.920328 
L 131.480598 164.280325 
L 132.488599 162.696327 
L 132.776598 161.976328 
L 133.136599 162.552324 
L 135.5846 164.424325 
L 135.368598 164.424325 
L 134.794186 164.093826 
L 133.6229 163.239374 
L 132.704598 163.344323 
L 131.984599 164.352325 
L 131.624597 165.072325 
L 131.7686 166.224325 
L 133.424598 167.088324 
L 134.2886 167.304327 
L 132.848601 167.160324 
L 132.3446 166.872325 
L 131.480598 167.304327 
L 131.480598 166.656327 
L 131.264599 165.216328 
L 130.4726 164.208326 
L 129.392599 163.920328 
L 128.312597 164.280325 
L 127.448599 165.360327 
L 127.520598 165.000325 
L 128.240598 163.560326 
L 127.8806 162.624328 
L 127.592598 162.336325 
L 125.072597 161.256324 
L 123.776601 161.040325 
L 122.480597 163.488326 
L 122.552597 164.928325 
L 125.000598 166.584327 
L 124.6406 166.512328 
L 122.984598 165.288327 
L 122.192599 164.856326 
L 122.192599 163.344327 
L 122.912599 161.760325 
L 122.6966 160.464325 
L 121.184597 159.384328 
L 120.176599 158.880327 
L 118.880599 159.456327 
L 118.520598 160.896326 
L 118.376599 162.336325 
L 118.592597 164.280325 
L 118.232599 162.840326 
L 118.303421 160.899856 
L 118.807422 159.243858 
L 118.159422 157.875854 
L 117.15142 158.235856 
L 115.92742 159.243858 
L 115.27942 159.531856 
L 116.935422 158.163857 
L 117.87142 157.587856 
L 117.775184 156.465819 
L 117.318295 155.218349 
L 116.719423 154.419856 
L 115.783421 154.707858 
L 114.703423 155.355858 
L 113.623422 156.579854 
L 113.839421 155.931854 
L 115.27942 154.851857 
L 116.50342 153.699856 
L 116.719423 152.331857 
L 116.935422 151.827856 
L 116.50342 150.099854 
L 115.92742 149.307855 
L 113.839421 148.227858 
L 114.127423 148.083855 
L 115.27942 148.011855 
L 115.567422 147.579858 
L 115.92742 146.139855 
L 115.85542 144.771855 
L 114.703423 143.763858 
L 112.903423 144.051856 
L 111.463423 144.699856 
L 110.74342 145.563854 
L 110.74342 146.643856 
L 109.863857 150.599953 
L 110.280841 151.344566 
L 110.67142 151.539858 
L 111.895421 151.395854 
L 113.047422 151.467858 
L 111.31942 151.755856 
L 110.383422 152.259857 
L 110.383422 153.195855 
L 111.031422 154.419856 
L 111.679422 155.211855 
L 111.31942 156.147857 
L 110.599421 156.867857 
L 110.887788 157.804278 
L 111.407349 158.020766 
L 111.839351 158.668766 
L 112.415351 160.252764 
L 113.27935 161.836766 
L 114.431351 163.564763 
L 115.295349 164.428762 
L 114.343422 163.779858 
L 113.92735 163.060763 
L 112.055349 160.324763 
L 111.33535 158.452763 
L 110.890525 158.007938 
L 110.311418 157.875854 
L 109.735422 158.019858 
L 108.871423 158.595858 
L 109.735422 157.443857 
L 110.599421 156.579854 
L 111.103422 155.643856 
L 110.959423 155.067856 
L 110.167423 153.627857 
L 109.37542 153.483858 
L 108.439422 153.915855 
L 107.719423 154.851857 
L 106.927423 155.571857 
L 108.367423 153.627857 
L 109.951421 152.04385 
L 109.951421 151.251855 
L 109.765726 150.979007 
L 109.450916 150.033677 
L 109.087418 150.027855 
L 107.935421 150.531856 
L 106.999423 150.819858 
L 107.719423 150.171858 
L 108.79942 149.811856 
L 109.951421 148.515856 
L 110.455422 146.715855 
L 110.455422 144.843855 
L 108.511422 144.123855 
L 107.434439 144.161976 
L 106.655351 145.924764 
L 106.424347 147.005624 
L 105.918256 148.339866 
L 106.062255 147.475867 
L 106.583351 145.564763 
L 107.142257 144.091868 
L 105.414255 143.731866 
L 104.118255 144.091868 
L 103.254257 144.451866 
L 102.629672 147.512159 
L 102.894255 144.667868 
L 102.174255 144.163867 
L 100.374254 144.523865 
L 99.222254 145.387868 
L 98.358255 146.611868 
L 98.358255 148.267866 
L 98.574254 148.915866 
L 99.006255 150.643867 
L 100.302255 151.795868 
L 101.598255 152.083866 
L 103.470255 151.507866 
L 104.118255 152.227866 
L 102.030256 152.227866 
L 101.742258 153.811868 
L 102.246259 155.251867 
L 104.118255 157.915866 
L 104.478257 159.139867 
L 106.422257 161.227866 
L 107.718257 162.163868 
L 108.870254 163.315865 
L 109.302255 164.179868 
L 106.998254 161.875866 
L 103.758254 160.291868 
L 102.534257 161.155866 
L 103.398256 159.859866 
L 103.686254 158.491867 
L 103.182257 157.267866 
L 102.174255 155.683868 
L 101.166254 154.747866 
L 100.518258 154.747866 
L 99.582255 156.043866 
L 99.506743 156.705917 
L 99.696254 157.603873 
L 99.566471 158.411009 
L 98.706205 157.172062 
L 98.778868 156.665423 
L 99.858865 155.369423 
L 100.722868 153.929424 
L 100.506865 152.633424 
L 99.210865 151.265425 
L 98.130868 150.473426 
L 97.633988 150.39061 
L 96.677113 152.623318 
L 96.546866 153.209425 
L 96.042865 154.145423 
L 98.130868 147.881426 
L 97.410864 146.945423 
L 96.186868 146.945423 
L 94.386867 147.665423 
L 93.234866 148.529426 
L 91.938866 149.753422 
L 91.074868 150.977423 
L 91.218867 152.345422 
L 92.514867 153.857425 
L 93.186688 154.914223 
L 94.194686 156.066224 
L 95.130688 157.938224 
L 94.122686 157.506223 
L 91.818689 154.338222 
L 91.098689 153.618223 
L 89.802689 153.762222 
L 89.010686 154.62622 
L 88.218687 158.154223 
L 88.362686 159.378223 
L 89.08269 160.45822 
L 91.818689 161.682221 
L 93.762689 162.258221 
L 98.370688 163.338223 
L 99.45069 163.410222 
L 98.658686 163.69822 
L 96.066686 163.410222 
L 94.194686 163.410222 
L 93.402687 163.554221 
L 92.754687 166.794221 
L 92.466689 166.794221 
L 92.826691 164.922221 
L 92.610688 163.770224 
L 91.098689 162.690223 
L 89.874689 162.114222 
L 88.650688 161.682221 
L 87.714686 162.40222 
L 87.642686 163.554221 
L 87.426688 164.490224 
L 88.290686 165.282223 
L 89.514687 165.930223 
L 90.234686 166.506223 
L 89.010686 166.506223 
L 87.498687 166.362224 
L 87.13869 167.298222 
L 87.210689 170.322224 
L 87.78669 171.402221 
L 89.442687 171.258222 
L 90.738687 170.754221 
L 91.818689 169.53022 
L 91.67469 170.466223 
L 90.090687 171.618224 
L 89.010686 172.12222 
L 88.578689 172.842224 
L 88.650688 174.498222 
L 89.154689 175.650223 
L 90.018688 177.30622 
L 90.954686 177.810221 
L 93.186688 177.522223 
L 94.26669 176.802224 
L 94.122686 176.082224 
L 93.258688 175.146222 
L 93.474686 174.930223 
L 94.842686 176.082224 
L 96.282689 176.154224 
L 97.146688 175.290221 
L 97.578689 174.210224 
L 95.778688 171.618224 
L 95.274687 170.538222 
L 96.138686 169.386221 
L 97.146688 168.450223 
L 95.994687 169.818223 
L 96.138686 171.258222 
L 96.85869 172.842224 
L 98.370688 174.642221 
L 99.954686 174.498222 
L 101.754687 173.634223 
L 101.754687 172.698221 
L 101.322686 171.114223 
L 101.322686 169.746223 
L 101.898686 168.594222 
L 103.410689 168.162221 
L 104.922688 167.946222 
L 103.122687 168.666222 
L 101.898686 169.458221 
L 101.754687 171.186222 
L 102.402687 173.274221 
L 104.130689 173.778222 
L 106.146688 173.706223 
L 107.802686 173.274221 
L 108.882687 172.194224 
L 108.450686 169.890222 
L 108.378686 168.378224 
L 109.098686 170.466223 
L 109.386688 171.834222 
L 110.898687 172.266224 
L 112.842687 172.266224 
L 114.498689 172.482222 
L 113.130689 172.698221 
L 110.610689 172.626221 
L 109.242689 172.986223 
L 109.314689 173.850222 
L 107.802686 174.786224 
L 107.658687 176.01022 
L 107.082686 176.226223 
L 106.290687 175.578223 
L 104.994687 174.858224 
L 103.914686 174.642221 
L 101.682688 175.074222 
L 100.602686 175.722222 
L 100.602686 176.514221 
L 101.034688 178.170223 
L 101.826687 179.322224 
L 104.490686 179.970224 
L 102.546686 179.89822 
L 101.034688 179.970224 
L 99.594689 180.330222 
L 100.962688 179.754221 
L 101.106687 178.530221 
L 100.458687 177.090222 
L 99.378686 176.154224 
L 97.866687 176.298223 
L 96.282685 177.378224 
L 95.994691 178.170219 
L 94.842686 177.666222 
L 93.906688 177.522223 
L 92.826686 178.458221 
L 92.682687 179.106221 
L 91.530686 179.754221 
L 91.890688 181.122221 
L 92.754687 182.418221 
L 93.834688 182.706223 
L 95.634689 182.562224 
L 97.434686 181.986224 
L 96.138686 182.634224 
L 94.91469 183.858224 
L 94.770686 184.650223 
L 95.922687 186.090222 
L 97.002689 186.954221 
L 99.234687 187.890223 
L 100.386688 188.106222 
L 101.39469 187.02622 
L 101.538689 185.586221 
L 101.178687 184.362221 
L 100.242689 183.13822 
L 101.538689 184.218222 
L 102.834689 184.794222 
L 104.706689 184.506224 
L 104.418687 184.866222 
L 102.762689 185.08222 
L 102.04269 186.090222 
L 100.962688 187.890223 
L 101.034688 189.978222 
L 102.406781 190.64007 
L 105.648535 190.283431 
L 106.584537 189.347433 
L 106.728536 187.907434 
L 107.592535 187.691431 
L 109.248537 187.619432 
L 110.112535 186.683434 
L 110.400538 185.603432 
L 108.168535 183.155431 
L 107.952537 181.931431 
L 108.168535 182.075434 
L 109.680538 184.163433 
L 110.688536 185.099431 
L 111.552539 185.747431 
L 113.280536 185.747431 
L 114.792539 184.811433 
L 115.872536 183.731432 
L 116.304537 182.507431 
L 115.872536 181.139432 
L 114.720535 180.563431 
L 113.136537 180.203434 
L 112.056535 179.195432 
L 113.568538 179.987431 
L 115.296535 180.347433 
L 115.728537 179.555434 
L 116.520536 178.403433 
L 117.744536 176.963434 
L 118.752538 176.459433 
L 118.248537 177.323431 
L 116.664535 178.691431 
L 115.872536 179.555434 
L 115.800536 180.419432 
L 116.448536 181.787432 
L 117.384539 182.579431 
L 118.320537 183.083432 
L 119.976539 182.507431 
L 123.000536 180.419432 
L 124.008538 179.555434 
L 123.648536 178.403433 
L 122.928536 177.323431 
L 123.216539 176.891434 
L 124.224536 178.907434 
L 125.016535 179.267431 
L 127.104539 178.331433 
L 128.832536 178.043431 
L 130.776536 178.619431 
L 131.208537 179.267431 
L 129.408536 178.475432 
L 126.240536 178.835434 
L 125.232538 179.771432 
L 126.096537 181.571433 
L 127.176538 182.651434 
L 128.616537 183.155431 
L 130.560537 182.507431 
L 130.920535 182.579431 
L 130.258973 183.049727 
L 129.389123 183.226622 
L 128.18335 183.357864 
L 126.748692 182.850127 
L 125.81269 181.698126 
L 124.948691 180.978126 
L 123.724691 181.050126 
L 121.996689 181.770125 
L 121.27669 182.202127 
L 119.764691 182.850127 
L 118.900688 183.570126 
L 119.33269 184.938126 
L 120.412691 186.450124 
L 121.420689 187.314123 
L 123.292689 186.666123 
L 124.732688 185.514126 
L 123.652691 186.738127 
L 121.780691 187.602125 
L 120.55669 187.458126 
L 119.620692 185.946124 
L 118.180689 184.722123 
L 117.38869 184.290126 
L 115.948691 184.722123 
L 114.292689 185.730125 
L 113.860692 186.882126 
L 114.436692 187.746124 
L 115.300691 188.826126 
L 116.812689 189.330127 
L 117.172691 189.618125 
L 115.516689 189.258123 
L 114.436692 188.394124 
L 113.716688 187.314123 
L 112.78069 186.450124 
L 111.340691 186.738127 
L 110.18869 187.314123 
L 109.54069 188.106126 
L 110.116691 189.114124 
L 110.90869 189.906123 
L 109.972692 189.330127 
L 109.036689 188.538124 
L 107.02069 189.186124 
L 105.940688 190.338124 
L 105.65269 191.562125 
L 106.012692 193.290126 
L 107.164689 194.226124 
L 108.172691 194.658126 
L 109.468691 194.658126 
L 110.692691 194.370124 
L 113.140692 193.506125 
L 113.644689 192.930124 
L 114.72469 192.642126 
L 116.380692 192.714126 
L 116.74069 192.858125 
L 114.436692 193.722124 
L 112.78069 193.866127 
L 110.980689 194.514127 
L 109.684689 195.234126 
L 109.468691 195.810127 
L 109.972688 197.106123 
L 110.980694 198.042125 
L 113.644689 198.978127 
L 115.516694 198.978127 
L 115.516689 197.034123 
L 116.236689 196.098125 
L 116.524691 196.962124 
L 116.308693 198.474126 
L 116.66869 199.698127 
L 118.180689 200.490126 
L 120.412691 200.058124 
L 121.564692 198.762124 
L 121.420689 197.250126 
L 121.132691 196.098125 
L 119.548688 195.234126 
L 119.26069 194.802125 
L 121.85269 195.018124 
L 123.004691 194.226124 
L 123.580692 193.650124 
L 123.652691 192.930124 
L 122.716689 191.922127 
L 123.292689 191.706124 
L 124.804692 191.778124 
L 125.81269 190.842125 
L 126.964691 189.474126 
L 128.548689 188.178126 
L 127.396692 189.690124 
L 125.09269 192.138125 
L 125.020691 193.722124 
L 125.09269 195.018124 
L 126.028688 196.098125 
L 125.308689 195.594124 
L 124.372691 194.442123 
L 122.788688 195.018124 
L 122.50069 196.170124 
L 122.356691 197.538124 
L 121.708691 199.986125 
L 122.428691 201.138126 
L 123.364689 201.930125 
L 124.732688 201.642127 
L 125.09269 200.778124 
L 125.020691 199.986125 
L 125.236689 201.426124 
L 126.604689 202.434126 
L 128.548689 202.218123 
L 129.484691 201.642127 
L 129.196689 200.418126 
L 128.044692 199.338125 
L 127.972688 198.762124 
L 128.188691 198.402127 
L 129.268688 199.914125 
L 130.27669 200.490126 
L 130.852691 199.770126 
L 132.22069 198.690125 
L 132.652692 197.682123 
L 132.29269 196.746125 
L 130.708692 196.026125 
L 129.124689 195.162127 
L 130.636692 195.594124 
L 132.148691 196.386123 
L 133.112483 196.386123 
L 134.124579 195.579912 
L 134.524688 194.874124 
L 134.596692 194.298124 
L 134.092691 193.578124 
L 132.796691 193.218127 
L 131.716689 192.714126 
L 130.852691 191.778124 
L 131.284692 190.770126 
L 131.860688 190.266125 
L 131.57269 191.490125 
L 132.29269 192.714126 
L 133.660689 193.074124 
L 134.956689 193.290126 
L 135.748688 192.642126 
L 136.540692 191.418126 
L 136.972689 190.410124 
L 136.036691 189.330127 
L 135.100688 188.826126 
L 134.308689 187.962123 
L 134.596692 186.882126 
L 135.316691 185.946124 
L 136.252689 185.298124 
L 135.46069 186.162126 
L 135.172692 187.746124 
L 135.748688 188.970125 
L 136.900689 189.474126 
L 138.05269 189.330127 
L 139.204691 188.538124 
L 139.42069 188.034127 
L 139.924691 187.674125 
L 140.140689 186.738127 
L 139.99669 185.946124 
L 139.42069 184.866126 
L 139.564689 184.362125 
L 140.284688 185.370123 
L 141.436689 185.802124 
L 145.18069 185.514126 
L 143.740691 185.874124 
L 142.300692 186.018123 
L 141.004692 186.378125 
L 140.500691 187.602125 
L 139.204691 188.682127 
L 138.844689 189.402126 
L 139.060692 190.554123 
L 141.004692 191.418126 
L 142.372692 191.490125 
L 143.30869 191.130124 
L 144.748689 190.050126 
L 145.90069 188.826126 
L 145.108691 189.906123 
L 143.092691 191.490125 
L 141.868691 191.706124 
L 139.99669 191.346126 
L 138.340688 191.418126 
L 137.47669 191.706124 
L 136.540692 192.570127 
L 135.748688 194.370124 
L 135.94291 194.95278 
L 136.73882 195.417063 
L 137.572635 195.542135 
L 138.12469 195.450125 
L 140.428692 195.306126 
L 139.780692 195.738123 
L 138.484688 195.882126 
L 138.184754 196.04558 
L 137.314821 195.705062 
L 136.16282 195.417063 
L 135.604689 195.018128 
L 135.100688 195.018124 
L 133.291091 196.492926 
L 132.94069 197.106127 
L 132.86869 198.546126 
L 134.524692 198.762124 
L 134.092691 198.834124 
L 132.436689 198.762124 
L 131.068689 200.202124 
L 130.204691 202.290127 
L 130.492689 202.866123 
L 131.57269 203.154125 
L 132.86869 203.226125 
L 133.444691 203.802125 
L 134.380689 203.874125 
L 134.956689 203.442124 
L 135.100688 202.290127 
L 135.820692 201.642127 
L 136.972689 200.922127 
L 138.05269 199.986125 
L 138.196694 200.130124 
L 137.548689 200.850124 
L 136.046462 201.771652 
L 135.461429 202.52638 
L 135.535809 203.84193 
L 135.98687 204.52407 
L 138.419983 204.767606 
L 139.300309 204.325809 
L 139.488443 202.495845 
L 139.704441 203.215844 
L 139.776445 204.367845 
L 140.928442 205.087845 
L 142.728443 205.015841 
L 143.376443 204.295845 
L 143.232444 202.567844 
L 143.376443 200.983846 
L 142.872442 199.975844 
L 140.424441 199.543843 
L 142.944441 199.183845 
L 143.808444 198.463845 
L 144.096442 197.023842 
L 144.672443 196.231843 
L 145.68044 195.223845 
L 146.688442 193.783842 
L 146.832441 194.431842 
L 144.888441 196.879843 
L 144.600443 198.103844 
L 144.960441 199.471843 
L 145.320443 200.047844 
L 146.616443 200.551845 
L 144.096442 200.335846 
L 143.73644 201.487843 
L 143.900093 203.936001 
L 144.186341 204.924739 
L 145.193862 205.135442 
L 146.05786 205.135442 
L 147.42586 204.991443 
L 148.07386 203.623443 
L 148.07386 203.335441 
L 148.361858 204.487442 
L 149.513859 204.271443 
L 150.73786 203.839442 
L 151.529859 203.191442 
L 151.38586 201.967441 
L 151.38586 200.455443 
L 151.025862 199.087443 
L 149.729862 198.799441 
L 148.64986 198.799441 
L 151.025862 198.583442 
L 151.88986 197.863443 
L 152.105859 196.207441 
L 151.169861 194.983441 
L 150.377862 194.551443 
L 150.305858 194.047442 
L 150.66586 194.119442 
L 151.673862 193.543441 
L 152.825859 192.751442 
L 152.753859 191.239444 
L 151.745861 190.231442 
L 151.38586 189.583442 
L 152.393861 189.799441 
L 153.473859 189.079441 
L 153.545858 189.367443 
L 152.68186 190.447441 
L 153.32986 191.455442 
L 154.62586 191.743441 
L 155.489858 191.671441 
L 153.90586 192.103442 
L 153.113861 192.895441 
L 152.825859 194.263441 
L 153.32986 195.775444 
L 154.409861 195.991442 
L 156.281861 195.631441 
L 156.56986 195.919443 
L 153.83386 196.279441 
L 152.969862 196.711442 
L 152.53786 198.223441 
L 152.68186 199.159443 
L 153.18586 199.807443 
L 153.401859 199.807443 
L 152.03386 200.887444 
L 152.03386 202.471442 
L 152.53786 203.47944 
L 154.48186 203.191442 
L 155.561862 202.399443 
L 156.713859 202.615441 
L 157.86586 202.255444 
L 158.51386 201.751443 
L 158.801862 200.167441 
L 158.153862 199.159443 
L 157.433858 198.871441 
L 157.07386 198.295444 
L 158.297861 198.295444 
L 159.01786 199.015444 
L 159.305859 200.743441 
L 159.16186 201.607444 
L 160.889861 201.463441 
L 162.25786 201.031443 
L 163.481861 200.311444 
L 164.34586 199.159443 
L 163.62586 197.287442 
L 162.833861 196.567443 
L 161.537861 196.567443 
L 160.601859 196.423444 
L 160.817861 195.415442 
L 160.31386 194.623443 
L 159.521861 194.263441 
L 159.593861 193.471442 
L 160.097862 193.903443 
L 161.177859 194.479444 
L 162.32986 195.271443 
L 163.55386 196.351444 
L 163.985862 197.431441 
L 164.561858 199.303442 
L 165.713859 199.375441 
L 167.081859 198.799441 
L 166.577862 196.855441 
L 167.081863 197.575441 
L 167.657863 198.151445 
L 169.38586 196.927441 
L 169.52986 195.847443 
L 168.665861 194.119442 
L 167.801858 193.759444 
L 166.433859 193.903443 
L 165.49786 194.335441 
L 165.929862 193.687441 
L 165.713859 192.751442 
L 163.913858 192.391441 
L 163.69786 191.671441 
L 162.32986 191.239444 
L 160.817861 191.599441 
L 159.80986 190.879442 
L 161.68186 190.879442 
L 163.409861 190.159442 
L 163.69786 189.151441 
L 162.90586 187.495443 
L 161.393862 187.351444 
L 159.593861 187.423443 
L 160.169861 186.703444 
L 161.825859 186.199443 
L 163.841859 185.839441 
L 165.281862 185.695442 
L 163.985862 187.927444 
L 164.20186 190.015443 
L 164.777861 191.239444 
L 166.001861 192.319441 
L 167.44186 192.175442 
L 168.449858 190.879442 
L 169.025859 189.367443 
L 168.593861 187.711441 
L 168.377859 186.271442 
L 168.73786 186.343442 
L 169.45786 188.287442 
L 169.673859 189.511442 
L 169.313861 190.807442 
L 168.305859 192.463444 
L 168.521858 193.759444 
L 169.817862 194.551443 
L 170.82586 194.263441 
L 172.12186 193.543441 
L 173.201861 192.535444 
L 173.27386 190.951441 
L 172.409862 189.727441 
L 172.337858 188.359441 
L 173.489859 189.871444 
L 175.505859 190.087443 
L 176.58586 189.223444 
L 177.23386 186.919442 
L 178.257368 185.914389 
L 178.905368 184.906387 
L 178.545371 183.610387 
L 177.855007 182.989933 
L 176.05737 183.274385 
L 173.46537 184.642385 
L 174.545371 183.274385 
L 175.769372 182.554386 
L 177.209371 182.266388 
L 178.64937 182.122384 
L 180.161373 182.842384 
L 181.81737 182.914388 
L 185.345373 181.042387 
L 186.827457 179.943213 
L 188.555459 178.863212 
L 190.643458 178.143212 
L 192.94746 176.991211 
L 195.395457 176.415211 
L 197.627459 175.119211 
L 198.635457 174.03921 
L 199.283457 172.527211 
L 199.35546 171.37521 
L 198.635457 169.719212 
L 198.05946 167.919211 
L 196.18746 165.471211 
L 195.323457 165.039213 
L 194.315459 165.61521 
L 193.739459 166.83921 
L 193.019459 167.919211 
L 192.155457 170.79921 
L 191.00346 172.239213 
L 189.70746 173.607212 
L 188.267457 174.543211 
L 187.475457 175.33521 
L 191.075459 171.807211 
L 192.659457 168.567211 
L 193.379457 166.623211 
L 195.53946 163.743213 
L 195.035459 161.65521 
L 194.17146 160.35921 
L 192.731457 159.927213 
L 191.00346 160.35921 
L 190.571458 161.367212 
L 189.995458 163.311212 
L 189.63546 165.039213 
L 188.915457 167.199212 
L 187.907459 168.999213 
L 185.459458 172.167213 
L 182.57946 175.33521 
L 181.643457 176.127213 
L 183.515458 174.255212 
L 185.387434 171.879141 
L 186.539459 169.935211 
L 187.907459 167.847212 
L 189.347412 165.327166 
L 189.995458 162.735211 
L 190.067457 160.43121 
L 188.699458 159.639211 
L 187.04346 159.927213 
L 185.243459 160.35921 
L 184.595459 161.72721 
L 184.667459 163.59921 
L 184.595459 165.039213 
L 183.947459 166.695211 
L 183.87546 163.743213 
L 184.163458 161.295212 
L 182.435457 161.65521 
L 179.123457 164.391213 
L 177.611458 166.119211 
L 176.67546 167.703213 
L 175.45146 168.999213 
L 175.235457 171.087212 
L 174.875459 173.31921 
L 175.019458 177.20721 
L 177.107457 177.135211 
L 176.09946 178.215212 
L 174.73146 177.999213 
L 174.443458 173.317282 
L 174.443458 170.361112 
L 174.804227 168.750443 
L 176.028227 166.518445 
L 178.980225 162.342443 
L 180.780226 160.326443 
L 182.724226 158.526442 
L 185.604228 156.654442 
L 188.484227 156.006442 
L 190.932227 155.934442 
L 193.956225 155.574444 
L 196.044228 156.006442 
L 196.620228 157.446445 
L 197.268228 159.822442 
L 198.060227 161.334445 
L 199.500227 161.838442 
L 200.940226 162.702444 
L 202.596227 163.350444 
L 202.452228 163.926445 
L 200.076227 163.638443 
L 198.564228 163.206445 
L 197.772225 163.638443 
L 199.140225 165.582443 
L 200.652227 167.238444 
L 203.316227 169.398443 
L 206.556227 170.694443 
L 209.364226 171.126444 
L 212.460227 170.622444 
L 214.548226 169.398443 
L 214.80033 169.902436 
L 214.656331 171.342435 
L 216.09633 172.926437 
L 217.752327 173.718436 
L 223.296329 174.726546 
L 224.880286 175.230501 
L 226.104328 176.238437 
L 227.61631 178.182478 
L 229.05633 179.046435 
L 231.072329 178.902436 
L 232.440329 179.118435 
L 235.25938 180.242243 
L 235.221184 178.951303 
L 234.71703 177.294795 
L 233.852761 175.566258 
L 233.348607 174.269856 
L 232.484339 172.829413 
L 230.539738 170.092568 
L 228.811205 168.003922 
L 226.938624 166.059321 
L 226.578515 165.195053 
L 226.36245 164.114719 
L 226.36245 161.521919 
L 226.146381 160.585631 
L 225.678162 159.976946 
L 223.296421 159.822347 
L 220.704329 159.966346 
L 219.683003 160.314512 
L 219.304268 160.94574 
L 219.232243 161.521919 
L 219.304268 162.674277 
L 219.664377 163.898655 
L 220.024487 164.690898 
L 222.545267 168.580101 
L 225.066047 170.884812 
L 226.722559 172.03717 
L 227.658848 172.901434 
L 228.523116 173.981771 
L 229.171315 175.134124 
L 229.531429 176.070413 
L 228.739181 174.62997 
L 227.010649 172.4693 
L 224.417848 170.596723 
L 222.257178 168.436056 
L 221.753023 167.643808 
L 220.816735 166.419431 
L 219.448312 163.610565 
L 219.088199 162.458208 
L 218.728089 160.729675 
L 218.507885 160.383637 
L 218.256328 160.398434 
L 217.32033 158.814436 
L 218.832329 156.366435 
L 221.136331 155.358433 
L 224.376331 154.998436 
L 227.400328 155.430437 
L 229.813779 156.641478 
L 232.691006 158.716923 
L 236.253547 164.171038 
L 237.215083 166.840234 
L 238.727082 169.360235 
L 241.53508 175.192235 
L 242.399083 178.216236 
L 242.471083 180.592238 
L 243.983081 184.480238 
L 245.49508 186.712236 
L 247.007083 188.584236 
L 249.31108 190.456237 
L 251.687082 192.760234 
L 253.703081 193.984235 
L 255.575082 194.704234 
L 262.631082 194.632235 
L 264.503083 193.552238 
L 265.223082 191.824236 
L 264.86308 190.168234 
L 265.799083 190.528236 
L 265.799083 192.400237 
L 264.575082 195.496238 
L 264.575082 196.792238 
L 265.079083 198.016238 
L 266.735081 198.520235 
L 269.039083 198.664238 
L 270.479082 198.088238 
L 270.76708 197.008236 
L 269.831082 196.000234 
L 268.967145 194.344104 
L 271.055082 196.648234 
L 272.06308 197.296234 
L 273.071082 196.288237 
L 273.647082 194.992237 
L 273.35908 193.624237 
L 272.351082 192.040235 
L 271.127082 191.464234 
L 269.903081 191.176236 
L 272.135079 191.104237 
L 271.775082 190.168234 
L 271.055082 189.016238 
L 269.39908 188.656236 
L 267.887082 188.728235 
L 266.951079 188.080235 
L 270.551081 188.440237 
L 270.479082 187.576234 
L 269.327081 186.568237 
L 268.391083 185.416236 
L 269.831082 185.848237 
L 271.559083 188.512237 
L 272.855083 189.808237 
L 273.791081 188.800235 
L 274.295082 187.720238 
L 275.159081 186.784235 
L 275.087081 187.000238 
L 274.223083 188.728235 
L 273.968893 189.696723 
L 277.135363 190.105064 
L 275.862558 190.315908 
L 274.71779 190.1703 
L 273.493789 190.602301 
L 273.637793 192.906299 
L 274.285793 193.770302 
L 275.725792 193.9863 
L 275.221791 194.130299 
L 274.429792 194.7063 
L 274.213789 196.866303 
L 274.573836 197.946391 
L 277.093725 198.16239 
L 279.064458 198.046513 
L 280.414491 197.17441 
L 279.694488 195.518409 
L 279.622488 194.65441 
L 279.98249 192.206409 
L 280.126489 192.278409 
L 280.70249 193.070408 
L 280.126489 193.43041 
L 280.126489 194.942408 
L 280.270488 196.166409 
L 282.070489 197.678407 
L 284.230509 197.318476 
L 284.734489 196.67041 
L 285.094491 195.662408 
L 284.734489 194.72641 
L 286.246334 196.742517 
L 288.262491 195.950563 
L 288.910491 195.086407 
L 288.622489 194.00641 
L 287.398488 192.422408 
L 286.318491 191.41441 
L 285.16649 190.910409 
L 283.654491 190.550407 
L 282.934488 189.686409 
L 281.782491 188.534408 
L 280.342488 187.310407 
L 280.414491 186.95041 
L 281.566488 187.742409 
L 282.718489 189.038409 
L 283.87049 189.830408 
L 286.46249 190.910409 
L 288.550489 189.686409 
L 288.334491 190.478408 
L 287.614491 191.198407 
L 288.046488 192.566411 
L 289.70249 194.366408 
L 290.99849 194.72641 
L 292.078491 194.798409 
L 293.518491 194.58241 
L 295.60649 193.718408 
L 295.750489 192.71041 
L 295.102489 191.702408 
L 293.950488 191.198407 
L 292.36649 190.262409 
L 291.502491 189.110408 
L 292.29449 189.614409 
L 293.806489 190.83841 
L 295.030489 191.630409 
L 296.90249 191.702408 
L 297.982491 190.69441 
L 298.77449 189.182408 
L 298.032838 188.284667 
L 297.385742 188.119086 
L 296.816415 187.296875 
L 295.593335 186.363332 
L 294.153336 185.571333 
L 292.137336 184.923333 
L 290.769337 184.635331 
L 289.329337 185.283331 
L 288.249336 186.363332 
L 286.881337 187.011332 
L 287.097335 186.579331 
L 288.753337 185.283331 
L 289.545336 184.347332 
L 288.393335 183.267331 
L 286.449335 182.907333 
L 282.705334 183.339331 
L 279.465334 182.547331 
L 280.401337 182.475332 
L 282.777338 182.691331 
L 284.649334 182.547331 
L 285.153335 182.331333 
L 285.873335 180.747331 
L 285.657336 181.323331 
L 285.657336 182.403332 
L 286.809337 182.76333 
L 288.609334 182.619331 
L 289.329337 180.596132 
L 288.969336 183.051332 
L 289.545336 183.771332 
L 290.841336 184.203333 
L 292.137336 183.987331 
L 293.001335 183.051332 
L 293.865337 180.891334 
L 293.721334 182.403332 
L 293.217337 183.41133 
L 292.929335 184.491331 
L 294.441338 185.427334 
L 296.025336 186.219333 
L 297.177337 186.507331 
L 298.761335 186.435331 
L 299.769337 185.427334 
L 299.481335 184.70733 
L 298.617336 183.483334 
L 298.545337 182.76333 
L 299.409335 184.203333 
L 300.633336 185.067332 
L 301.497334 184.995332 
L 303.513338 184.419332 
L 305.097336 183.555333 
L 305.889335 182.403332 
L 305.673337 181.323331 
L 304.305337 179.883332 
L 301.929336 177.075333 
L 300.129335 177.003334 
L 298.905334 178.083331 
L 297.905681 178.684227 
L 298.124508 177.550781 
L 297.487145 176.67918 
L 296.408027 176.390552 
L 294.896025 176.390552 
L 292.520027 176.030554 
L 296.912024 176.030554 
L 298.136025 175.670552 
L 299.360025 175.886555 
L 300.656025 176.390552 
L 302.312027 176.534555 
L 305.264025 174.806554 
L 303.896025 176.102554 
L 302.744024 176.966552 
L 303.536027 178.478555 
L 305.048026 179.054555 
L 305.984024 178.622554 
L 305.264025 179.486553 
L 305.552027 181.070555 
L 306.704024 182.006553 
L 308.144027 181.790555 
L 309.656025 180.782553 
L 311.024025 180.134553 
L 312.392025 178.766553 
L 309.224024 176.102554 
L 310.808026 177.038552 
L 312.176026 178.118553 
L 313.184024 178.334552 
L 314.480024 178.118553 
L 315.632025 176.102554 
L 317.526358 173.85818 
L 317.526358 172.994182 
L 312.198354 172.490181 
L 310.758355 172.490181 
L 309.606354 172.63418 
L 308.454358 172.56218 
L 307.158358 172.274182 
L 305.790354 172.130183 
L 305.214358 171.770181 
L 315.510354 171.770181 
L 317.382354 171.33818 
L 319.182355 170.762183 
L 320.190357 170.186183 
L 320.550355 168.67418 
L 321.702356 166.73018 
L 321.990354 165.362181 
L 322.278356 163.202182 
L 322.278356 162.050181 
L 321.054356 161.834183 
L 319.614357 162.91418 
L 318.678354 164.282183 
L 315.942355 167.45018 
L 316.302357 166.370183 
L 317.742356 164.930183 
L 319.89467 162.550674 
L 320.205125 161.746793 
L 320.059509 160.527105 
L 319.411509 159.879105 
L 317.467509 160.455106 
L 315.523509 161.679106 
L 313.579509 162.759103 
L 310.987509 164.487105 
L 309.691509 165.567106 
L 308.467508 167.439103 
L 307.099509 167.439103 
L 306.091511 168.087107 
L 304.435509 168.951105 
L 303.581709 169.200962 
L 305.747974 167.735914 
L 309.02371 164.861249 
L 310.492557 164.048642 
L 312.37369 162.746119 
L 314.030575 161.305485 
L 314.750579 160.297487 
L 314.246578 159.145486 
L 313.454579 157.993485 
L 314.390577 157.777487 
L 314.750579 159.001487 
L 315.542578 159.937485 
L 316.334577 159.793486 
L 317.414578 159.073487 
L 317.558577 158.497486 
L 318.854577 158.785485 
L 320.294576 158.641485 
L 321.086575 157.201486 
L 321.086575 157.201486 
" style="fill:none;stroke:#000000;stroke-linecap:square;stroke-width:1.5;"/>
   </g>
   <g id="line2d_2">
    <path clip-path="url(#pbf72fb14b2)" d="M 227.76033 161.118434 
L 226.81408 160.53613 
L 226.50649 161.089785 
L 226.578515 162.098098 
L 226.578515 163.538541 
L 226.650535 164.546854 
L 227.010649 165.627187 
L 227.586828 166.491455 
L 228.595136 167.499768 
L 230.035583 169.084255 
L 231.259961 170.668747 
L 232.124229 172.10919 
L 233.060518 173.477612 
L 233.780741 175.062104 
L 234.71703 176.862661 
L 235.221184 178.375128 
L 235.653318 179.455461 
L 235.941408 179.887595 
L 236.039617 180.100384 
L 237.48033 179.838434 
L 238.70433 178.470435 
L 239.280331 176.382436 
L 238.416328 173.502433 
L 237.48033 171.126436 
L 237.336331 170.118434 
L 236.18433 167.886436 
L 235.104328 166.302434 
L 233.52033 164.502437 
L 231.936328 162.990434 
L 229.776329 161.766434 
L 227.76033 161.118434 
" style="fill:none;stroke:#000000;stroke-linecap:square;stroke-width:1.5;"/>
   </g>
  </g>
 </g>
 <defs>
  <clipPath id="pbf72fb14b2">
   <rect height="246.24" width="414.72" x="0" y="0"/>
  </clipPath>
 </defs>
</svg>
