<?xml version="1.0" encoding="utf-8" standalone="no"?>
<!DOCTYPE svg PUBLIC "-//W3C//DTD SVG 1.1//EN"
  "http://www.w3.org/Graphics/SVG/1.1/DTD/svg11.dtd">
<!-- Created with matplotlib (https://matplotlib.org/) -->
<svg height="403.2pt" version="1.1" viewBox="0 0 725.76 403.2" width="725.76pt" xmlns="http://www.w3.org/2000/svg" xmlns:xlink="http://www.w3.org/1999/xlink">
 <defs>
  <style type="text/css">
*{stroke-linecap:butt;stroke-linejoin:round;}
  </style>
 </defs>
 <g id="figure_1">
  <g><image xlink:href="../../img/cb/chinchilla_cor_cell.json.cb-50%25.png" width="725.76px" height="403.2px"/></g>

  <g id="patch_1">
   <path d="M 0 403.2 
L 725.76 403.2 
L 725.76 0 
L 0 0 
z
" style="fill:none;"/>
  </g>
  <g id="axes_1">
   <g id="line2d_1">
    <path clip-path="url(#p8e60979efb)" d="M 329.995299 39.167075 
L 326.221449 40.282351 
L 324.261331 37.01548 
L 320.994453 35.055355 
L 316.094143 34.728668 
L 312.173892 35.382041 
L 307.926955 36.3621 
L 305.640143 37.342166 
L 304.333398 41.589103 
L 303.026645 45.182661 
L 302.046586 49.102911 
L 301.7199 53.349848 
L 301.7199 57.596785 
L 302.373273 70.664283 
L 300.739834 66.090659 
L 300.413147 61.517036 
L 299.759775 56.290033 
L 299.759775 46.489413 
L 300.086461 41.91579 
L 298.453022 38.648912 
L 295.839524 38.648912 
L 291.592587 39.955664 
L 289.632462 41.589103 
L 288.652402 44.202601 
L 288.325716 46.162727 
L 286.038904 47.142786 
L 283.425406 47.796166 
L 281.138595 46.162727 
L 279.178469 43.549229 
L 274.604846 42.569162 
L 269.704529 41.91579 
L 266.437658 42.242476 
L 261.537348 42.569162 
L 256.963725 43.222535 
L 252.716788 44.529288 
L 248.143165 46.162727 
L 237.362479 51.716409 
L 227.235173 59.556911 
L 225.601734 63.150468 
L 223.641609 66.090659 
L 221.681483 69.684217 
L 220.701424 72.624401 
L 221.028111 75.237906 
L 225.601734 74.911213 
L 228.541918 76.544652 
L 232.462169 79.15815 
L 235.402353 79.15815 
L 246.183039 76.544652 
L 252.063415 75.564593 
L 256.963725 74.25784 
L 264.804219 71.644342 
L 269.377843 70.664283 
L 273.62478 71.317656 
L 266.437658 72.297715 
L 262.517407 74.584526 
L 261.537348 75.891279 
L 262.190721 79.81153 
L 260.230596 83.405087 
L 258.597164 87.325337 
L 257.290411 91.245588 
L 257.290411 94.185773 
L 258.92385 97.779337 
L 264.477533 101.372894 
L 267.744411 102.35296 
L 274.604846 99.412769 
L 268.071097 103.986392 
L 267.417717 107.906643 
L 267.744411 111.500207 
L 268.397784 116.727203 
L 269.704529 120.97414 
L 274.27816 124.894384 
L 281.138595 126.854509 
L 275.584905 127.507889 
L 270.684595 126.527823 
L 266.764345 124.241011 
L 263.82416 120.97414 
L 262.844094 118.033949 
L 263.497474 110.846827 
L 263.170787 107.906643 
L 261.537348 105.619831 
L 258.92385 103.659706 
L 256.637039 103.006333 
L 254.023541 103.006333 
L 248.796537 103.659706 
L 254.676913 101.372894 
L 255.0036 98.759396 
L 254.023541 95.492525 
L 255.0036 93.205713 
L 256.637039 89.938835 
L 259.250537 83.405087 
L 260.230596 79.81153 
L 256.963725 78.178091 
L 253.370161 77.851404 
L 241.936102 79.81153 
L 238.342545 81.118275 
L 234.422294 83.0784 
L 225.601734 88.632083 
L 222.66155 91.245588 
L 219.721358 93.5324 
L 217.10786 96.145898 
L 214.821048 99.739455 
L 213.840989 103.659706 
L 213.514303 106.273204 
L 213.514303 117.05389 
L 213.840989 119.994074 
L 213.840989 130.121387 
L 215.801114 134.368324 
L 217.434546 138.288568 
L 218.087926 144.49563 
L 219.394672 152.009438 
L 221.354797 156.256375 
L 224.948361 159.523253 
L 228.868612 160.829998 
L 232.788855 160.829998 
L 239.322604 162.463437 
L 234.422294 162.136751 
L 232.135483 162.463437 
L 229.521985 163.77019 
L 226.908487 166.057002 
L 226.255107 168.6705 
L 227.235173 172.264057 
L 228.541918 176.510994 
L 228.541918 179.451185 
L 229.195298 184.351495 
L 231.155424 188.925119 
L 231.155424 193.498742 
L 234.095608 202.319302 
L 236.38242 202.645989 
L 240.629357 200.359177 
L 243.569541 197.418985 
L 247.163106 194.478801 
L 250.10329 190.885244 
L 252.716788 188.598432 
L 252.063415 185.331554 
L 254.350227 188.271739 
L 257.943784 189.905178 
L 262.190721 191.538617 
L 256.637039 190.55855 
L 253.696847 191.21193 
L 251.083349 192.845362 
L 248.469851 195.132174 
L 244.5496 199.052424 
L 239.322604 202.972675 
L 238.015859 204.9328 
L 240.068359 209.499703 
L 244.968669 214.40002 
L 249.215606 217.993577 
L 253.789229 217.993577 
L 259.669605 216.360138 
L 263.263162 213.419954 
L 266.203354 210.47977 
L 268.816852 207.212892 
L 271.103664 203.619334 
L 274.697221 190.878523 
L 276.003973 188.918398 
L 286.784659 185.324841 
L 301.485588 181.40459 
L 304.425773 181.731277 
L 309.979462 183.364716 
L 318.14665 184.344775 
L 311.286208 184.344775 
L 307.039278 185.324841 
L 304.099086 187.284966 
L 300.505529 189.898464 
L 297.565338 193.818715 
L 295.278526 198.065645 
L 294.298467 202.639268 
L 295.60522 207.212892 
L 299.198777 209.499703 
L 305.079153 210.806456 
L 309.979462 210.47977 
L 315.859839 210.806456 
L 320.760148 211.459829 
L 325.660458 213.419954 
L 332.520893 216.686832 
L 339.708015 218.320264 
L 345.915077 218.64695 
L 352.448826 217.340205 
L 358.329194 214.726707 
L 365.18963 213.093268 
L 373.356817 212.439895 
L 379.56388 209.173017 
L 384.137503 205.252773 
L 386.097621 200.352456 
L 385.770935 195.452147 
L 384.137503 190.878523 
L 381.523998 185.978214 
L 378.257127 182.384649 
L 374.01019 179.444465 
L 368.783194 177.484339 
L 362.576132 175.850908 
L 372.050065 177.484339 
L 380.217252 183.038029 
L 386.424315 185.324841 
L 391.977997 185.978214 
L 401.125244 187.284966 
L 406.025554 188.265025 
L 410.635298 187.893269 
L 414.228855 191.486826 
L 419.455859 193.446952 
L 426.316294 194.427018 
L 432.850035 195.080391 
L 435.463541 196.06045 
L 439.71047 200.307387 
L 450.817843 206.841136 
L 456.044846 207.494508 
L 459.638403 206.514449 
L 464.865406 208.801261 
L 468.458963 214.354943 
L 474.012653 218.928567 
L 479.893022 220.235319 
L 483.486586 222.195445 
L 487.40683 219.25526 
L 486.100084 223.50219 
L 489.693641 226.442382 
L 495.900704 229.382566 
L 499.820955 229.382566 
L 503.741205 227.095754 
L 505.701331 223.175504 
L 506.354703 218.928567 
L 507.661449 214.354943 
L 507.661449 206.514449 
L 508.968201 210.108014 
L 508.641515 214.681637 
L 507.661449 218.60188 
L 506.354703 222.848817 
L 505.374637 226.442382 
L 503.414519 228.729193 
L 504.394578 231.669378 
L 510.60164 234.609562 
L 516.482009 237.223068 
L 524.649197 237.87644 
L 532.816377 238.203127 
L 539.350126 237.223068 
L 540.330192 233.95619 
L 540.656879 229.709253 
L 540.656879 225.135629 
L 540.330192 220.888692 
L 538.370067 217.295135 
L 532.163005 212.394825 
L 528.569448 208.801261 
L 526.936009 205.53439 
L 531.509632 209.127947 
L 540.983565 215.008323 
L 543.597063 219.581947 
L 544.57713 224.808943 
L 542.617004 233.302817 
L 542.617004 236.243001 
L 546.537255 240.163252 
L 551.764251 242.450064 
L 557.317933 242.77675 
L 562.218243 240.816625 
L 569.078678 236.896374 
L 573.978995 231.996064 
L 574.305682 226.769068 
L 573.652302 220.888692 
L 572.01887 215.33501 
L 569.732058 210.4347 
L 567.771933 208.147888 
L 562.871623 208.801261 
L 560.258125 208.801261 
L 565.811808 207.167822 
L 567.445247 204.88101 
L 567.771933 200.960767 
L 566.46518 197.040516 
L 564.831748 193.446952 
L 563.198309 188.546642 
L 561.891557 186.25983 
L 559.278059 184.626391 
L 550.784185 184.626391 
L 546.863941 183.319646 
L 543.92375 182.666273 
L 538.696753 180.052768 
L 535.756569 180.052768 
L 532.163005 180.379454 
L 527.916068 181.032834 
L 532.816377 177.43927 
L 534.449816 176.459211 
L 538.370067 177.765956 
L 549.477439 179.399395 
L 555.357808 179.072709 
L 558.951372 177.765956 
L 558.298 174.172399 
L 556.337874 167.63865 
L 553.39769 160.778215 
L 550.130812 156.531278 
L 546.863941 152.611027 
L 543.270377 150.324216 
L 539.350126 148.36409 
L 537.063314 145.750592 
L 534.449816 143.790467 
L 531.182946 141.830349 
L 527.262695 139.870224 
L 523.669131 139.543537 
L 520.075574 139.870224 
L 516.808696 141.176969 
L 514.195197 142.810408 
L 512.561766 145.09722 
L 512.235072 147.384031 
L 511.908386 152.937714 
L 512.888452 156.857964 
L 514.848577 161.104902 
L 515.175264 164.698466 
L 514.521884 166.005211 
L 514.195197 162.411654 
L 513.215138 159.144776 
L 511.908386 156.531278 
L 509.294888 156.531278 
L 506.68139 157.511337 
L 504.067892 159.471463 
L 501.127707 161.431588 
L 498.840896 164.045086 
L 498.840896 166.331898 
L 500.147641 169.925462 
L 500.474327 172.53896 
L 498.840896 169.272089 
L 497.207457 166.331898 
L 494.593958 165.025152 
L 491.000394 164.698466 
L 487.40683 165.351839 
L 485.120018 166.658584 
L 483.813273 169.925462 
L 482.833206 173.192333 
L 482.50652 175.479144 
L 479.893022 177.112583 
L 476.299465 180.706148 
L 476.952838 175.805831 
L 476.952838 172.865646 
L 475.319399 170.578835 
L 474.012653 167.965337 
L 474.666026 165.025152 
L 477.279524 164.698466 
L 479.566336 163.391713 
L 481.526461 161.104902 
L 481.526461 157.838031 
L 481.853147 153.91778 
L 480.873088 146.403972 
L 479.893022 141.503655 
L 477.511593 140.201388 
L 474.898095 138.241262 
L 471.304531 137.914576 
L 468.03766 136.607823 
L 462.810664 133.667639 
L 455.296849 126.153824 
L 447.783041 116.353205 
L 453.990103 123.21364 
L 457.910347 127.787263 
L 463.790723 132.687573 
L 469.017719 135.954451 
L 473.918029 137.58789 
L 477.184907 137.58789 
L 478.818346 134.321012 
L 479.145032 129.747388 
L 478.818346 123.21364 
L 478.164966 118.31333 
L 476.20484 113.739706 
L 472.93797 109.166083 
L 468.364346 102.959021 
L 457.256974 89.564837 
L 452.356664 83.357782 
L 447.456355 78.130778 
L 440.922606 69.963598 
L 453.010037 83.031088 
L 461.177225 90.544903 
L 468.364346 98.058711 
L 474.244722 105.572519 
L 478.164966 110.799522 
L 481.431844 111.779581 
L 483.065275 107.205958 
L 483.391969 102.305648 
L 482.738589 97.732025 
L 481.75853 94.13846 
L 480.125091 88.584778 
L 484.372028 97.405338 
L 484.698714 102.305648 
L 483.718655 108.839397 
L 482.085216 112.432954 
L 480.451777 115.046459 
L 479.798405 117.333271 
L 480.125091 120.273455 
L 480.125091 138.241262 
L 482.085216 143.468259 
L 483.391969 148.041882 
L 485.678781 148.368568 
L 489.599024 142.814886 
L 491.232463 139.221322 
L 494.826027 135.954451 
L 498.092898 131.707514 
L 500.053024 126.153824 
L 502.013149 119.620083 
L 502.993208 113.086334 
L 502.666522 104.919146 
L 502.013149 96.751966 
L 500.053024 88.584778 
L 497.439526 81.07097 
L 494.172648 73.883841 
L 484.698714 61.79641 
L 474.064436 51.907887 
L 468.83744 49.294389 
L 464.263817 47.334263 
L 459.036813 45.374138 
L 454.136504 44.394079 
L 450.869633 44.720765 
L 448.256135 46.68089 
L 447.602755 49.621075 
L 449.56288 53.214639 
L 451.196319 55.828137 
L 446.296009 52.234573 
L 444.009198 51.907887 
L 445.642629 49.947761 
L 447.276068 46.68089 
L 448.582821 43.414012 
L 448.909507 41.127201 
L 445.642629 40.473828 
L 441.722386 39.167075 
L 438.782194 37.86033 
L 435.84201 37.20695 
L 431.921759 36.880264 
L 428.654889 37.20695 
L 425.388018 37.86033 
L 422.774512 39.493762 
L 420.814394 44.394079 
L 420.161014 48.314322 
L 419.180955 55.501451 
L 418.527583 61.708506 
L 417.547516 66.935509 
L 417.547516 72.815878 
L 417.22083 64.648698 
L 418.854269 49.294389 
L 419.507642 45.374138 
L 420.814394 41.127201 
L 420.814394 37.86033 
L 418.854269 35.573518 
L 407.746897 29.693142 
L 403.173273 26.752958 
L 397.292897 24.13946 
L 392.065901 22.506021 
L 388.472337 22.506021 
L 384.2254 23.812773 
L 377.038278 27.733017 
L 373.118035 29.693142 
L 369.197784 31.326581 
L 365.60422 32.633327 
L 362.337349 34.920138 
L 357.43704 35.246832 
L 355.8036 32.30664 
L 349.269852 28.059703 
L 347.963099 25.446205 
L 347.636413 22.832707 
L 346.329667 22.832707 
L 343.389476 24.13946 
L 341.429358 26.099585 
L 338.815852 29.366456 
L 336.202354 32.30664 
L 333.915543 36.226891 
L 331.955417 37.86033 
L 329.995299 39.167075 
L 329.995299 39.167075 
" style="fill:none;stroke:#000000;stroke-linecap:square;stroke-width:1.5;"/>
   </g>
   <g id="line2d_2">
    <path clip-path="url(#p8e60979efb)" d="M 321.828111 66.69672 
L 332.608797 61.79641 
L 343.716169 59.509598 
L 354.170161 57.549473 
L 363.970788 56.8961 
L 373.771408 57.222787 
L 378.998404 57.222787 
L 385.532153 58.856226 
L 390.432462 60.489665 
L 395.006086 63.756535 
L 400.233082 68.983532 
L 392.392588 62.776476 
L 386.185525 60.162971 
L 378.998404 58.856226 
L 369.197784 58.202853 
L 360.70391 58.202853 
L 350.576604 59.182912 
L 343.716169 60.489665 
L 333.26217 63.103163 
L 321.828111 66.69672 
" style="fill:none;stroke:#000000;stroke-linecap:square;stroke-width:1.5;"/>
   </g>
   <g id="line2d_3">
    <path clip-path="url(#p8e60979efb)" d="M 334.895609 90.544903 
L 346.329667 87.931405 
L 351.229977 86.951339 
L 358.417099 86.297966 
L 363.644095 85.3179 
L 370.177843 86.297966 
L 377.691658 87.604711 
L 384.552094 91.198276 
L 372.137969 89.564837 
L 364.624161 88.911464 
L 355.476914 89.23815 
L 344.369542 89.891523 
L 334.895609 90.544903 
" style="fill:none;stroke:#000000;stroke-linecap:square;stroke-width:1.5;"/>
   </g>
   <g id="line2d_4">
    <path clip-path="url(#p8e60979efb)" d="M 343.062789 113.41302 
L 355.476914 110.472836 
L 361.683969 111.452895 
L 367.237659 111.779581 
L 375.404847 114.066393 
L 370.177843 113.41302 
L 360.70391 112.432954 
L 350.576604 112.432954 
L 343.062789 113.41302 
L 343.062789 113.41302 
" style="fill:none;stroke:#000000;stroke-linecap:square;stroke-width:1.5;"/>
   </g>
   <g id="line2d_5">
    <path clip-path="url(#p8e60979efb)" d="M 200.205534 224.3662 
L 204.15337 226.734907 
L 207.838025 228.314044 
L 210.9963 227.787665 
L 212.312248 225.418959 
L 212.312248 222.260691 
L 210.206731 216.733709 
L 209.153973 215.68095 
L 207.048456 215.68095 
L 205.732508 215.94414 
L 205.469318 214.365002 
L 206.522077 211.996296 
L 206.785267 210.417166 
L 205.469318 208.311649 
L 202.837422 203.311046 
L 202.047854 200.152778 
L 201.784664 197.257692 
L 201.784664 194.625796 
L 203.890181 189.625194 
L 203.890181 186.466926 
L 203.626991 183.57184 
L 202.574233 181.992703 
L 200.731913 180.939944 
L 198.626396 181.992703 
L 196.25769 183.57184 
L 194.152173 185.677357 
L 192.309845 187.782874 
L 190.467518 190.677952 
L 189.414767 193.573038 
L 188.888388 195.941744 
L 188.625198 198.83683 
L 188.625198 206.469321 
L 189.941139 209.364407 
L 190.204329 210.943545 
L 188.888388 208.574838 
L 187.30925 204.890184 
L 186.782871 200.94234 
L 186.782871 197.784072 
L 188.625198 190.941142 
L 190.204329 188.046063 
L 193.362604 183.308651 
L 195.9945 181.203134 
L 201.784664 177.255297 
L 203.100612 174.623401 
L 204.15337 170.938746 
L 204.67975 163.306255 
L 204.41656 159.095221 
L 204.67975 154.884195 
L 204.15337 150.409972 
L 203.100612 146.462127 
L 200.468723 142.514291 
L 197.836827 139.882395 
L 194.415362 139.092826 
L 191.257087 139.092826 
L 188.625198 139.882395 
L 186.782871 140.671963 
L 184.940544 141.724722 
L 183.887785 143.04067 
L 182.571837 146.198938 
L 182.308648 149.883592 
L 181.519079 153.568247 
L 179.150372 160.411169 
L 178.360811 163.832634 
L 177.044863 166.990902 
L 175.728915 171.465126 
L 174.412967 175.41297 
L 172.833829 178.571238 
L 172.04426 182.255892 
L 170.991502 185.940547 
L 171.781071 180.150375 
L 172.570639 175.939349 
L 173.623398 172.517884 
L 174.939346 168.833229 
L 175.992104 161.727117 
L 176.255294 158.568842 
L 177.834432 151.72592 
L 178.887183 148.830834 
L 180.46632 145.672559 
L 179.939941 142.77748 
L 178.097621 140.145584 
L 175.728915 139.619205 
L 172.570639 139.619205 
L 169.675554 140.145584 
L 166.254096 140.935153 
L 163.095821 141.987911 
L 158.095218 144.356611 
L 155.726519 145.935748 
L 153.357813 148.041265 
L 150.725917 150.146782 
L 147.567641 155.147377 
L 146.514883 158.042463 
L 145.725314 160.674359 
L 145.725314 163.569445 
L 148.883589 166.201341 
L 152.568244 171.201936 
L 153.884192 174.097022 
L 155.46333 177.255297 
L 155.989702 179.887186 
L 152.305054 173.570642 
L 150.199537 169.622798 
L 148.094021 166.990902 
L 145.988504 165.148582 
L 143.619805 165.411772 
L 139.93515 169.096419 
L 138.092823 171.728315 
L 136.250496 175.14978 
L 134.671358 177.781669 
L 133.35541 181.203134 
L 132.565848 184.361409 
L 132.302659 187.782874 
L 131.776279 191.204331 
L 132.302659 194.099417 
L 134.408168 196.468124 
L 137.303254 196.994503 
L 141.777477 197.257692 
L 146.778073 196.994503 
L 151.252296 196.994503 
L 154.673761 196.731313 
L 153.357813 198.310451 
L 149.936348 198.83683 
L 143.882994 198.83683 
L 140.461529 198.57364 
L 137.829633 198.57364 
L 133.881789 198.83683 
L 132.302659 199.10002 
L 130.986711 200.67915 
L 129.670763 203.311046 
L 128.091625 208.311649 
L 128.091625 211.733106 
L 128.354815 214.891382 
L 129.670763 218.839226 
L 132.039469 222.52388 
L 135.987306 225.945338 
L 141.514288 228.840423 
L 145.988504 229.366803 
L 151.778675 229.893182 
L 155.46333 228.840423 
L 158.884787 221.997501 
L 161.253494 218.576036 
L 164.674959 215.94414 
L 168.622795 213.575434 
L 170.991502 211.996296 
L 173.097019 211.469924 
L 176.781673 212.785865 
L 178.887183 214.891382 
L 175.202536 213.049054 
L 172.30745 213.312244 
L 169.412364 214.628192 
L 166.780475 216.470519 
L 164.411769 218.312846 
L 161.779873 220.681553 
L 160.463925 223.050252 
L 158.358408 227.787665 
L 157.832029 229.366803 
L 159.411166 231.998699 
L 163.35901 234.104216 
L 169.938743 236.472915 
L 176.518484 236.999294 
L 182.571837 238.052052 
L 188.098819 238.578432 
L 193.362604 238.841621 
L 198.100017 238.315242 
L 202.311043 236.736104 
L 205.206129 234.630588 
L 206.258887 231.735509 
L 205.469318 229.366803 
L 202.837422 226.998096 
L 200.205534 224.3662 
L 200.205534 224.3662 
" style="fill:none;stroke:#000000;stroke-linecap:square;stroke-width:1.5;"/>
   </g>
  </g>
 </g>
 <defs>
  <clipPath id="p8e60979efb">
   <rect height="403.2" width="725.76" x="0" y="0"/>
  </clipPath>
 </defs>
</svg>
