<?xml version="1.0" encoding="utf-8" standalone="no"?>
<!DOCTYPE svg PUBLIC "-//W3C//DTD SVG 1.1//EN"
  "http://www.w3.org/Graphics/SVG/1.1/DTD/svg11.dtd">
<!-- Created with matplotlib (https://matplotlib.org/) -->
<svg height="564.48pt" version="1.1" viewBox="0 0 725.76 564.48" width="725.76pt" xmlns="http://www.w3.org/2000/svg" xmlns:xlink="http://www.w3.org/1999/xlink">
 <defs>
  <style type="text/css">
*{stroke-linecap:butt;stroke-linejoin:round;}
  </style>
 </defs>
 <g id="figure_1">
  <g><image xlink:href="../../img/cb/coatimundi_cor_cell.json.cb-50%25.png" width="725.76px" height="564.48px"/></g>

  <g id="patch_1">
   <path d="M 0 564.48 
L 725.76 564.48 
L 725.76 0 
L 0 0 
z
" style="fill:none;"/>
  </g>
  <g id="axes_1">
   <g id="line2d_1">
    <path clip-path="url(#pbae53377fb)" d="M 307.074586 214.141062 
L 302.639148 219.411814 
L 307.725107 212.369721 
L 309.68124 209.43551 
L 309.485626 207.283762 
L 307.333879 206.69692 
L 303.812832 206.501306 
L 301.269849 206.501306 
L 294.032142 208.848675 
L 291.489159 210.609194 
L 289.533018 212.565335 
L 289.728632 215.695153 
L 290.11986 219.998656 
L 290.902317 224.106545 
L 291.097931 228.214441 
L 290.706702 232.126716 
L 290.315474 226.649528 
L 290.315474 222.737254 
L 289.728632 219.998656 
L 289.533018 217.846909 
L 289.533018 215.303925 
L 288.554955 213.152178 
L 286.794428 211.978493 
L 284.642673 212.174107 
L 282.099697 212.760949 
L 277.796194 214.912697 
L 275.253211 216.673224 
L 273.492691 218.824979 
L 273.688305 221.172341 
L 275.644439 225.084615 
L 277.60058 228.410055 
L 277.796194 233.887235 
L 277.796194 239.168808 
L 278.774265 243.08109 
L 280.33917 245.81968 
L 282.099697 246.406523 
L 286.011971 245.624066 
L 281.512855 247.580207 
L 280.33917 249.536341 
L 280.730398 252.470552 
L 281.708469 262.838085 
L 281.317241 265.772289 
L 281.317241 261.6644 
L 281.121626 257.752125 
L 279.947942 251.492482 
L 279.947942 249.536341 
L 278.969879 248.753884 
L 274.861983 249.927569 
L 277.991808 248.55827 
L 279.556714 246.993365 
L 279.556714 245.232838 
L 278.57865 243.472311 
L 277.796194 241.516177 
L 277.60058 240.146879 
L 276.426895 238.973194 
L 275.057597 239.168808 
L 276.818124 237.799517 
L 276.818124 228.605669 
L 275.840053 226.2583 
L 274.470755 223.910931 
L 273.297077 221.367955 
L 271.53655 219.803042 
L 269.384803 219.411814 
L 267.428662 219.2162 
L 265.081293 219.803042 
L 263.712001 220.389884 
L 263.125159 221.759183 
L 263.125159 224.302159 
L 263.320773 226.649528 
L 264.103229 231.148645 
L 264.885678 234.865306 
L 262.929545 228.018827 
L 262.538317 223.715324 
L 261.75586 221.563569 
L 260.190948 220.976727 
L 258.234814 220.976727 
L 256.278673 221.367955 
L 253.931311 222.150411 
L 252.366398 222.932868 
L 249.23658 224.889001 
L 248.062896 225.867072 
L 247.476053 227.431985 
L 249.823422 233.104786 
L 252.757627 239.755651 
L 256.083059 243.276704 
L 258.626042 246.210908 
L 260.190948 246.797751 
L 263.125159 246.210908 
L 259.799719 247.971435 
L 259.604112 251.101253 
L 259.799719 255.013528 
L 260.190948 256.774055 
L 262.733931 260.881944 
L 263.907615 273.596838 
L 263.125159 271.44509 
L 262.733931 267.72843 
L 262.733931 263.816148 
L 261.951474 260.490715 
L 260.77779 258.33896 
L 259.212884 257.165283 
L 257.256743 257.360897 
L 254.713767 258.730189 
L 257.843586 256.578441 
L 259.212884 254.426686 
L 259.604112 252.274938 
L 259.408498 249.927569 
L 259.01727 248.362656 
L 257.061129 245.232838 
L 255.300602 243.08109 
L 253.735697 241.516177 
L 252.562012 240.733721 
L 251.97517 238.77758 
L 250.605871 236.03899 
L 249.432194 232.713558 
L 247.280439 228.410055 
L 245.715526 227.23637 
L 243.17255 227.23637 
L 240.825181 227.627599 
L 239.064662 228.410055 
L 237.499749 229.583732 
L 235.934836 231.148645 
L 234.956773 232.517944 
L 234.565545 234.669691 
L 236.326064 239.364422 
L 238.673434 244.84161 
L 241.803252 250.710025 
L 245.715526 258.730189 
L 243.17255 254.035458 
L 240.433953 249.340727 
L 239.260276 246.797751 
L 237.890977 245.81968 
L 237.890977 244.84161 
L 237.499749 242.689862 
L 236.326064 240.929335 
L 235.347994 237.995131 
L 234.565545 236.430218 
L 232.805018 234.278463 
L 230.653263 234.082849 
L 227.719059 234.474077 
L 221.443521 237.348377 
L 218.704931 238.91329 
L 216.944404 241.456273 
L 215.183885 243.216793 
L 213.618972 245.564162 
L 214.0102 247.911524 
L 216.74879 252.215027 
L 218.900545 253.779939 
L 223.399662 253.975553 
L 225.747031 255.149238 
L 227.507551 254.562396 
L 227.116322 256.518529 
L 229.268078 260.039583 
L 232.984738 264.5387 
L 236.114556 268.646589 
L 239.831224 272.363249 
L 243.743499 276.862366 
L 245.504018 279.600963 
L 248.047001 280.774648 
L 246.09086 280.774648 
L 243.35227 286.643056 
L 241.396129 287.816741 
L 240.026838 287.621127 
L 242.569814 285.664993 
L 243.939113 283.513238 
L 244.721569 281.948325 
L 244.330341 280.187806 
L 243.743499 278.427279 
L 241.787358 275.688689 
L 240.026838 274.123776 
L 237.679469 271.776407 
L 235.918942 270.60273 
L 233.767194 271.385179 
L 235.136493 269.820273 
L 234.745265 268.059746 
L 233.375966 265.907999 
L 231.419825 263.365015 
L 229.072463 260.626425 
L 227.116322 257.887828 
L 225.355803 255.73608 
L 223.204048 254.75801 
L 220.269844 254.366782 
L 217.140018 254.171167 
L 215.770727 256.714143 
L 214.792656 260.235197 
L 214.205814 263.365015 
L 215.770727 267.27729 
L 218.704931 273.145705 
L 224.573347 281.752711 
L 227.507551 287.425512 
L 222.225977 279.405349 
L 218.900545 274.710618 
L 216.553176 269.429045 
L 214.401428 265.51677 
L 213.423358 262.778173 
L 214.0102 260.039583 
L 215.183885 256.909758 
L 215.966341 254.366782 
L 215.966341 252.215027 
L 214.988271 250.258893 
L 213.423358 248.69398 
L 212.445287 246.346618 
L 210.097925 245.564162 
L 206.185651 246.346618 
L 203.251439 247.71591 
L 200.708464 249.672051 
L 197.383024 252.410641 
L 196.209347 254.171167 
L 194.253206 255.931694 
L 194.253206 257.887828 
L 200.121621 268.450974 
L 202.664597 273.928162 
L 205.794423 279.796577 
L 214.0102 293.098314 
L 211.271603 289.772882 
L 207.359328 283.513238 
L 205.20758 280.774648 
L 203.838282 277.253594 
L 202.077755 274.31939 
L 200.708464 271.189565 
L 199.143551 268.842203 
L 197.969866 268.646589 
L 198.752323 267.27729 
L 197.578638 265.125542 
L 196.404961 262.582559 
L 194.840048 260.430811 
L 193.861978 258.279056 
L 191.514616 257.105372 
L 188.971632 257.4966 
L 186.819877 258.279056 
L 183.885673 260.235197 
L 181.147083 261.800103 
L 179.386556 263.560629 
L 178.799714 264.929928 
L 180.560241 267.668518 
L 184.472516 271.580793 
L 186.037428 275.884303 
L 188.776018 282.535167 
L 194.644434 291.142173 
L 191.710223 287.621127 
L 189.754089 285.469379 
L 188.580404 283.317624 
L 186.428657 277.644822 
L 185.059358 274.515004 
L 184.081287 271.776407 
L 182.125146 269.820273 
L 179.973399 267.472904 
L 177.821644 266.299219 
L 176.061124 265.907999 
L 173.518141 266.494834 
L 170.975165 267.472904 
L 169.214638 268.842203 
L 169.214638 270.798344 
L 170.779551 275.101846 
L 172.735685 278.427279 
L 176.843573 284.295694 
L 173.909369 280.579034 
L 171.757621 277.449208 
L 169.997094 274.31939 
L 168.82341 271.189565 
L 167.062883 270.407115 
L 164.324293 271.580793 
L 161.976931 273.145705 
L 159.433948 275.101846 
L 156.695358 279.014121 
L 155.912902 280.970255 
L 156.695358 282.535167 
L 158.260263 283.317624 
L 160.412018 284.882537 
L 161.585703 288.012355 
L 165.106749 290.555338 
L 169.019024 292.511472 
L 172.54007 294.467613 
L 175.474282 296.61936 
L 177.234801 298.966729 
L 179.190942 300.922863 
L 176.256738 300.336028 
L 174.691825 300.336028 
L 171.953228 298.379887 
L 169.019024 297.010588 
L 166.08482 296.228132 
L 162.172538 294.858841 
L 159.629562 292.315858 
L 157.869035 288.794811 
L 156.499744 286.83867 
L 155.326059 284.686922 
L 153.956761 283.513238 
L 152.196241 283.317624 
L 150.631328 283.904466 
L 148.283959 285.273765 
L 146.327826 286.251828 
L 144.371685 287.621127 
L 142.611158 289.381653 
L 141.633095 290.946559 
L 143.002386 291.924629 
L 145.349755 294.076384 
L 144.958527 295.64129 
L 142.806772 295.836904 
L 139.872568 292.9027 
L 136.351521 296.032518 
L 132.603239 301.123049 
L 130.828488 305.219341 
L 130.241645 308.740387 
L 130.241645 312.457047 
L 131.41533 315.195645 
L 133.17585 318.912305 
L 136.501289 321.06406 
L 139.044265 321.259674 
L 141.782862 319.303533 
L 144.717067 316.369329 
L 149.607412 311.870212 
L 151.759167 310.500914 
L 154.302143 309.131615 
L 153.324072 311.28337 
L 149.99864 313.435118 
L 147.260042 315.586873 
L 144.912681 317.738621 
L 142.760926 319.499148 
L 141.19602 321.650903 
L 139.826721 323.215808 
L 139.631107 325.367563 
L 141.587248 328.888609 
L 143.347768 330.649136 
L 148.042499 330.649136 
L 144.690729 331.222762 
L 143.517044 332.396447 
L 144.886343 335.135044 
L 148.407389 339.047319 
L 151.928436 338.264863 
L 155.645103 336.308722 
L 159.361764 333.96136 
L 160.926669 331.418377 
L 160.926669 326.528032 
L 161.709126 331.027156 
L 160.926669 333.570132 
L 158.970536 335.135044 
L 156.623167 336.504336 
L 154.275805 338.069248 
L 151.341593 339.634161 
L 149.972302 340.221003 
L 150.559144 342.959594 
L 154.667033 348.436781 
L 157.796851 352.349055 
L 160.926669 355.283267 
L 165.034565 354.892039 
L 169.338068 352.54467 
L 173.250343 349.80608 
L 176.184547 346.871868 
L 177.74946 343.546436 
L 179.705601 340.807846 
L 181.46612 338.656091 
L 182.444191 336.504336 
L 180.48805 334.156974 
L 176.380161 330.831542 
L 181.857348 334.548202 
L 184.595946 335.721887 
L 187.334536 333.570132 
L 190.855582 331.222762 
L 194.181022 330.049085 
L 199.658209 327.89733 
L 203.374869 326.723646 
L 206.309074 324.571898 
L 210.80819 322.224529 
L 214.329244 321.050851 
L 217.654676 320.659623 
L 222.93625 320.855237 
L 226.066068 321.833301 
L 227.630981 323.202599 
L 226.457296 325.745582 
L 223.523092 326.332417 
L 220.588881 326.332417 
L 213.742402 326.723646 
L 210.416962 327.701716 
L 206.895916 329.462243 
L 204.35294 331.027156 
L 202.201185 332.200833 
L 197.702068 333.765746 
L 190.659968 338.460477 
L 184.400331 343.937664 
L 182.639805 345.306963 
L 176.184547 348.632395 
L 168.555612 353.913968 
L 166.403857 355.674495 
L 164.252109 358.608699 
L 163.469653 361.151675 
L 163.469653 364.281501 
L 164.933293 370.582716 
L 168.07452 376.651013 
L 171.595574 381.15013 
L 175.312234 385.258026 
L 180.985036 387.214159 
L 188.027128 388.779072 
L 201.7201 393.082575 
L 205.632375 392.495733 
L 207.392895 391.90889 
L 207.784123 394.451874 
L 210.52272 397.97292 
L 214.239381 399.342219 
L 218.542883 399.342219 
L 217.956041 394.451874 
L 218.151655 391.517662 
L 218.542883 389.1703 
L 220.107796 386.627317 
L 221.085867 385.844861 
L 221.085867 389.952757 
L 221.281481 392.691347 
L 221.672702 395.429937 
L 222.06393 399.342219 
L 224.020071 402.667651 
L 228.323573 403.841336 
L 233.018304 404.03695 
L 236.734965 403.058879 
L 240.451633 401.689581 
L 243.581451 399.929061 
L 246.124434 398.168534 
L 248.66741 396.016779 
L 251.014779 393.669417 
L 251.014779 391.126434 
L 249.449866 389.365914 
L 247.493726 387.605388 
L 245.341978 386.431703 
L 243.385837 385.649247 
L 241.62531 385.258026 
L 239.669176 384.475569 
L 238.299878 383.497499 
L 236.539351 381.541358 
L 235.561288 379.585224 
L 235.170059 376.846627 
L 235.170059 375.477336 
L 235.561288 372.738738 
L 237.517421 373.912423 
L 238.299878 376.651013 
L 239.473562 378.998382 
L 240.060405 381.345744 
L 242.994609 383.497499 
L 245.92882 385.844861 
L 249.645481 387.409774 
L 253.166527 389.757143 
L 255.318282 389.757143 
L 257.274416 387.801002 
L 259.034942 385.844861 
L 261.577918 383.497499 
L 262.947217 381.345744 
L 263.534059 378.998382 
L 263.534059 376.455399 
L 262.555989 375.086107 
L 260.208627 374.303651 
L 257.078802 373.129967 
L 252.188456 370.586991 
L 249.058638 368.63085 
L 259.034942 373.129967 
L 262.947217 374.694879 
L 264.903358 375.868557 
L 266.468263 374.694879 
L 266.663878 372.151896 
L 267.055106 369.60892 
L 267.055106 367.065937 
L 266.663878 364.522961 
L 265.294586 361.979978 
L 263.729673 360.219458 
L 262.164761 358.263317 
L 260.991076 356.50279 
L 259.230557 355.915955 
L 257.47003 356.111569 
L 259.230557 355.133499 
L 260.795469 354.742271 
L 261.773533 352.981744 
L 263.142831 351.02561 
L 264.903358 348.873855 
L 261.623765 354.52373 
L 262.014993 356.871099 
L 266.122889 361.761444 
L 268.079022 362.152672 
L 271.600069 360.783374 
L 273.751824 358.631619 
L 275.121123 356.088643 
L 276.2948 353.154439 
L 275.121123 357.653555 
L 272.969368 360.000917 
L 270.81762 361.761444 
L 269.057093 362.739515 
L 267.883408 363.521964 
L 267.687794 365.869333 
L 267.883408 368.216695 
L 267.49218 370.759678 
L 267.296566 373.693882 
L 265.927275 376.236865 
L 265.731661 378.192999 
L 268.665865 376.628093 
L 271.013234 374.671953 
L 273.751824 371.542134 
L 276.2948 368.021088 
L 278.250941 364.695648 
L 278.642169 362.348286 
L 280.989531 358.240398 
L 281.185145 361.174602 
L 277.859713 368.999151 
L 277.859713 370.955292 
L 278.837783 373.498268 
L 280.207082 376.041251 
L 280.011468 378.388613 
L 280.207082 381.322824 
L 279.620239 385.430713 
L 279.033397 387.778075 
L 276.490414 390.9079 
L 273.55621 395.407017 
L 274.753126 400.950786 
L 273.579137 405.843315 
L 272.209838 409.951211 
L 273.187908 413.472258 
L 276.904569 416.993304 
L 280.034387 420.318737 
L 283.946662 425.404696 
L 289.619463 425.795924 
L 293.922966 428.338907 
L 301.551908 433.229252 
L 310.94137 439.68451 
L 317.201014 442.618714 
L 321.700131 445.552918 
L 324.243107 450.834492 
L 329.720294 455.920451 
L 337.544843 460.615182 
L 346.34747 463.745007 
L 355.345704 464.331849 
L 360.040435 461.00641 
L 364.539552 457.485363 
L 369.234283 452.399404 
L 373.208298 455.980362 
L 381.424082 462.239999 
L 389.053018 464.782982 
L 396.877567 464.391754 
L 405.48458 461.457542 
L 412.331058 457.936496 
L 417.808246 454.024221 
L 421.524906 450.698789 
L 426.415251 447.960192 
L 431.50121 444.439145 
L 435.413492 441.896162 
L 439.716995 439.744414 
L 444.998568 436.810203 
L 449.106457 434.658455 
L 454.779258 431.137409 
L 460.452053 427.225127 
L 464.16872 423.312852 
L 466.124854 419.400578 
L 466.90731 414.705847 
L 467.298539 410.20673 
L 467.298539 405.707613 
L 465.92924 401.012882 
L 460.843281 388.493594 
L 460.452053 384.385706 
L 459.473989 380.277817 
L 456.539778 371.083969 
L 454.583644 366.976081 
L 451.372526 360.891454 
L 449.21924 355.750293 
L 446.285029 352.424854 
L 442.568368 348.708193 
L 440.41662 346.947674 
L 443.15521 342.252943 
L 445.50258 339.514345 
L 450.97976 340.296802 
L 455.478884 343.817848 
L 460.369229 349.099422 
L 462.912205 354.576609 
L 464.477118 359.662568 
L 465.846409 365.726598 
L 468.585006 369.834486 
L 471.02766 369.938089 
L 475.196237 368.012705 
L 475.590122 365.8623 
L 482.827828 369.383354 
L 487.326945 374.664927 
L 490.065543 380.924564 
L 495.151502 381.70702 
L 500.433075 385.814909 
L 505.127806 393.248237 
L 512.756741 398.334196 
L 519.994455 401.072786 
L 527.427776 399.116652 
L 536.42601 394.226307 
L 543.46811 388.553506 
L 549.336526 383.467547 
L 552.857572 380.142107 
L 557.059185 374.48078 
L 559.667073 370.481233 
L 561.036365 367.155801 
L 560.840751 363.047912 
L 558.689003 360.309315 
L 555.363571 357.570724 
L 551.255675 355.810198 
L 542.453055 354.636513 
L 540.105693 353.462836 
L 536.780254 350.919853 
L 533.063593 349.746168 
L 530.129389 349.746168 
L 528.76009 346.61635 
L 526.217107 344.660209 
L 521.522376 341.530391 
L 518.588172 340.356706 
L 515.26274 340.161092 
L 511.350465 339.378636 
L 507.829411 338.009344 
L 504.699593 336.053203 
L 506.264506 335.075133 
L 507.438183 333.705841 
L 508.807482 330.184788 
L 508.025025 334.683905 
L 509.003096 336.640046 
L 511.154851 338.204958 
L 514.675897 339.183029 
L 518.9794 339.57425 
L 521.913604 339.378636 
L 522.891675 336.640046 
L 522.304832 333.901456 
L 521.326762 331.554086 
L 520.544313 329.206725 
L 519.761856 323.142695 
L 521.71799 327.446198 
L 522.891675 330.380402 
L 523.282903 333.314613 
L 523.478517 335.857589 
L 523.282903 338.987415 
L 525.239044 341.530391 
L 529.346933 344.268981 
L 534.041664 346.811964 
L 538.54078 347.59442 
L 543.235511 348.572491 
L 544.996038 346.420736 
L 543.822354 339.965478 
L 539.714465 334.09707 
L 538.345166 331.749701 
L 538.54078 328.619882 
L 538.932009 324.31638 
L 540.105693 329.79356 
L 542.061827 332.140929 
L 543.822354 335.466361 
L 546.169715 338.987415 
L 546.36533 342.312847 
L 545.58288 344.855823 
L 545.191652 347.59442 
L 546.756558 350.137396 
L 549.886383 353.071608 
L 554.189886 356.201426 
L 558.102161 358.548795 
L 561.231979 360.896157 
L 565.92671 360.700543 
L 569.056535 358.548795 
L 569.056535 355.027741 
L 567.882851 351.311081 
L 566.513552 347.398806 
L 562.405663 339.378636 
L 561.427593 336.640046 
L 561.036365 334.09707 
L 562.601278 331.554086 
L 564.948647 329.989174 
L 562.210049 333.901456 
L 563.18812 337.81373 
L 565.535482 340.55232 
L 567.687237 342.508461 
L 570.425827 343.682146 
L 572.577582 346.029508 
L 573.94688 349.550554 
L 572.577582 352.289151 
L 570.425827 356.005812 
L 570.621441 358.744409 
L 579.815296 353.854064 
L 584.705641 349.941782 
L 588.617916 345.247051 
L 591.356506 340.55232 
L 593.312647 335.661975 
L 594.486331 331.162858 
L 594.290717 326.663741 
L 594.486331 322.360239 
L 594.095103 317.078665 
L 593.312647 312.775163 
L 591.747734 307.102361 
L 590.182821 302.603244 
L 587.835459 298.299741 
L 585.48809 294.778695 
L 582.7495 292.431326 
L 580.010903 290.866413 
L 576.098628 290.279571 
L 572.607534 290.038111 
L 569.477716 290.233725 
L 566.739118 291.211795 
L 565.174213 295.12407 
L 564.587371 300.210029 
L 564.196142 295.12407 
L 565.174213 292.189866 
L 565.174213 289.451276 
L 562.63123 288.473205 
L 560.87071 288.473205 
L 559.305797 288.081977 
L 554.611066 288.864433 
L 546.982124 290.820567 
L 556.175979 287.886363 
L 558.914569 286.712678 
L 557.740885 282.800404 
L 560.088254 282.017947 
L 563.022458 280.061806 
L 564.978599 278.105673 
L 564.782985 275.953918 
L 567.130346 278.105673 
L 571.042628 277.714444 
L 573.38999 276.149532 
L 574.563675 273.606556 
L 573.781218 270.085509 
L 571.825077 266.564456 
L 568.499645 262.652181 
L 565.174213 259.326749 
L 561.653159 256.783766 
L 558.914569 255.805695 
L 556.762814 255.414467 
L 554.611066 256.97938 
L 552.068083 263.434637 
L 551.481248 266.76007 
L 548.742651 274.193398 
L 549.720721 266.564456 
L 550.894406 263.239023 
L 552.459311 260.109205 
L 555.197909 255.023246 
L 554.415452 253.262719 
L 552.654925 250.91535 
L 548.938265 248.567988 
L 545.221604 246.025005 
L 541.700551 245.43817 
L 539.157575 245.242556 
L 537.788276 248.372374 
L 537.201434 254.632018 
L 537.201434 266.368842 
L 536.810206 270.672344 
L 536.223371 273.606556 
L 534.071616 276.345146 
L 535.049686 273.215328 
L 536.027757 271.063573 
L 536.614599 268.324983 
L 536.614599 253.067105 
L 537.00582 250.524122 
L 537.788276 246.807461 
L 537.788276 244.4601 
L 535.832142 242.895187 
L 530.941797 240.743432 
L 528.398814 240.547825 
L 524.682154 245.242556 
L 522.726013 247.981146 
L 522.13917 250.524122 
L 523.899697 256.588152 
L 524.48654 259.522363 
L 524.290925 262.260953 
L 522.921627 266.76007 
L 521.161107 271.063573 
L 519.40058 274.584626 
L 517.248825 278.105673 
L 523.117241 264.412708 
L 523.704083 261.282882 
L 523.704083 258.739907 
L 523.508469 256.392537 
L 522.726013 254.632018 
L 522.13917 252.675877 
L 520.769879 251.110964 
L 519.40058 250.91535 
L 517.640054 251.306578 
L 515.68392 252.089035 
L 513.727779 253.653947 
L 510.597961 257.761836 
L 510.402347 258.544292 
L 509.424276 259.913591 
L 507.859363 261.674111 
L 505.512002 263.825866 
L 503.751475 265.977613 
L 502.382183 269.498667 
L 501.795341 272.628485 
L 500.817271 276.149532 
L 503.164632 281.235491 
L 501.599727 279.279357 
L 499.447972 279.083743 
L 496.709382 280.648649 
L 498.665516 278.105673 
L 500.817271 272.432871 
L 501.795341 268.911825 
L 503.360247 265.781999 
L 505.316388 262.847795 
L 507.272528 260.891654 
L 509.228662 258.739907 
L 510.989189 256.001309 
L 512.945323 253.653947 
L 515.097078 251.502192 
L 517.640054 250.132901 
L 520.574265 249.350445 
L 524.290925 244.851328 
L 526.051452 242.11273 
L 526.833909 239.37414 
L 525.855838 236.831157 
L 523.704083 233.896953 
L 520.965493 231.940812 
L 517.835668 230.375907 
L 515.292692 229.397836 
L 512.554094 229.202222 
L 510.989189 229.397836 
L 509.228662 231.745198 
L 507.859363 235.070638 
L 507.663749 237.026771 
L 507.859363 238.39607 
L 509.228662 240.547825 
L 507.076914 239.178526 
L 505.120773 239.569754 
L 503.164632 241.721502 
L 500.817271 245.046942 
L 499.643586 247.394304 
L 497.296224 253.067105 
L 498.469902 248.763602 
L 500.034814 245.43817 
L 503.360247 240.352211 
L 505.90323 238.004842 
L 506.685686 236.048701 
L 507.468135 233.114497 
L 509.033048 230.375907 
L 509.033048 228.61538 
L 506.490072 226.072397 
L 503.164632 224.898719 
L 499.8392 224.116263 
L 496.904996 224.116263 
L 494.753241 225.094333 
L 492.992714 229.789064 
L 488.102369 234.679409 
L 487.711148 236.635543 
L 487.906755 238.200456 
L 486.34185 239.960983 
L 484.581323 241.721502 
L 482.820803 244.264485 
L 481.647119 247.589918 
L 482.038347 250.132901 
L 482.625189 252.675877 
L 488.297983 256.392537 
L 484.385709 254.632018 
L 481.451504 254.045176 
L 479.495364 256.392537 
L 478.321679 260.304812 
L 477.930458 263.825866 
L 478.321679 266.955684 
L 479.104135 268.911825 
L 483.99448 273.215328 
L 479.104135 270.47673 
L 477.148002 271.063573 
L 473.626948 274.975854 
L 477.53923 268.716211 
L 477.734844 266.564456 
L 477.343616 264.99955 
L 477.343616 262.652181 
L 477.53923 259.522363 
L 478.908521 256.783766 
L 480.669048 254.24079 
L 481.647119 252.284649 
L 481.451504 250.328515 
L 480.864662 248.17676 
L 478.126065 247.589918 
L 480.864662 247.003075 
L 483.603252 242.308344 
L 485.363779 239.960983 
L 486.537464 238.004842 
L 485.755007 236.244315 
L 483.407638 234.875023 
L 486.537464 235.266252 
L 489.862896 231.549584 
L 492.210265 229.202222 
L 493.579556 225.681176 
L 492.601493 222.942578 
L 489.471668 220.986445 
L 485.317577 220.115228 
L 481.992145 220.115228 
L 480.427232 220.70207 
L 478.862327 224.809959 
L 479.057941 221.484527 
L 477.297414 219.528393 
L 475.145659 219.137165 
L 472.211455 219.137165 
L 470.0597 220.897684 
L 468.103566 226.179257 
L 466.734267 229.504697 
L 465.756197 231.460831 
L 468.29918 233.8082 
L 470.646542 236.351176 
L 472.015841 239.089773 
L 469.668479 235.764334 
L 465.364969 232.438901 
L 463.604449 232.438901 
L 462.430765 234.786263 
L 461.843922 245.153795 
L 462.430765 251.022211 
L 464.386906 253.36958 
L 466.343039 255.521328 
L 463.604449 253.173966 
L 461.843922 253.760808 
L 460.474624 256.10817 
L 459.300946 259.629217 
L 458.322876 263.541498 
L 457.931648 266.084474 
L 458.127262 269.018678 
L 457.149191 267.453773 
L 457.344805 265.106404 
L 457.931648 261.389743 
L 461.061466 252.782738 
L 461.061466 248.088007 
L 460.27901 246.523094 
L 453.823759 247.696779 
L 459.105332 245.936252 
L 460.670238 244.175732 
L 461.452694 242.415205 
L 461.452694 234.786263 
L 459.887789 234.003814 
L 462.039536 233.221358 
L 464.386906 231.069603 
L 466.343039 228.526627 
L 467.907952 225.201187 
L 469.081637 221.875755 
L 469.472865 219.137165 
L 468.29918 217.376638 
L 464.973741 215.811725 
L 462.235151 214.833662 
L 460.27901 214.638048 
L 456.171121 223.245053 
L 457.54042 219.528393 
L 458.909718 216.789796 
L 458.909718 214.442434 
L 456.562349 213.073135 
L 452.845689 211.312608 
L 448.933414 210.530152 
L 446.390431 210.725766 
L 444.434297 211.703836 
L 443.456227 213.855591 
L 444.043069 218.550322 
L 445.41236 226.961714 
L 445.803589 231.069603 
L 445.216746 237.133632 
L 445.216746 232.243287 
L 445.021139 228.917855 
L 444.238683 223.049439 
L 443.651841 220.506456 
L 443.064998 216.398567 
L 442.086928 211.116994 
L 438.370268 208.965246 
L 434.653607 208.18279 
L 430.741325 207.20472 
L 427.807121 207.009105 
L 426.046594 208.18279 
L 426.242208 211.312608 
L 428.393963 215.029269 
L 431.719396 220.506456 
L 429.567648 217.376638 
L 427.220279 213.659977 
L 425.655366 210.530152 
L 424.286075 208.769632 
L 421.547477 205.639807 
L 417.439589 203.683673 
L 414.30977 202.705603 
L 412.549244 202.705603 
L 410.984331 202.314374 
L 408.832583 200.749462 
L 405.311537 200.749462 
L 403.942238 198.597714 
L 402.181711 196.641573 
L 398.035009 192.623548 
L 394.122727 189.493722 
L 390.406066 187.146361 
L 385.320107 185.19022 
L 380.234148 184.407763 
L 374.756961 184.016535 
L 369.866616 184.016535 
L 366.149955 184.407763 
L 362.042067 185.777062 
L 358.52102 185.777062 
L 354.021903 187.537589 
L 349.522786 188.90688 
L 344.828055 190.667407 
L 337.785955 193.992839 
L 331.91754 197.709507 
L 329.765792 199.861255 
L 328.592107 201.426168 
L 327.614037 202.404238 
L 325.657896 201.426168 
L 322.723692 201.426168 
L 318.615803 202.599852 
L 314.703529 204.164758 
L 312.160545 205.925284 
L 310.59564 208.272646 
L 309.421955 211.011244 
L 307.074586 214.141062 
L 307.074586 214.141062 
" style="fill:none;stroke:#000000;stroke-linecap:square;stroke-width:1.5;"/>
   </g>
   <g id="line2d_2">
    <path clip-path="url(#pbae53377fb)" d="M 534.663821 359.943248 
L 534.493362 363.693388 
L 533.30014 366.761684 
L 531.425066 370.511824 
L 529.55 373.409653 
L 525.458942 377.841637 
L 523.24295 380.739473 
L 520.345114 384.319146 
L 526.311245 374.602882 
L 527.504467 372.045971 
L 528.52723 368.977676 
L 530.402304 365.90938 
L 532.618296 361.818315 
L 534.663821 359.943248 
" style="fill:none;stroke:#000000;stroke-linecap:square;stroke-width:1.5;"/>
   </g>
   <g id="line2d_3">
    <path clip-path="url(#pbae53377fb)" d="M 309.286246 241.377231 
L 299.332868 245.130876 
L 308.331102 241.218601 
L 313.808289 238.675618 
L 319.089862 235.5458 
L 324.175822 232.415974 
L 329.261781 229.090542 
L 334.152126 226.547566 
L 338.0644 224.004583 
L 341.976675 222.43967 
L 346.280178 221.657221 
L 351.952979 221.070379 
L 358.603851 220.287922 
L 369.558219 219.896694 
L 379.534523 221.852835 
L 394.401172 224.982653 
L 402.030114 227.721243 
L 407.311688 230.068613 
L 414.158166 235.154572 
L 426.286226 242.392279 
L 438.414278 248.847536 
L 429.416044 244.544034 
L 424.916927 242.587893 
L 422.373951 241.218601 
L 419.43974 239.458075 
L 417.092378 240.240531 
L 415.136237 243.565963 
L 414.158166 246.500175 
L 415.527465 249.043151 
L 420.719175 253.618066 
L 425.805134 257.921569 
L 435.977052 265.941739 
L 427.565661 259.87771 
L 418.176199 252.248774 
L 414.263924 249.510177 
L 410.938485 248.336493 
L 404.092006 246.380359 
L 399.397275 245.793517 
L 378.66221 245.793517 
L 373.771865 246.184745 
L 367.707835 246.967201 
L 359.492058 248.336493 
L 353.819257 248.532107 
L 348.342069 249.314563 
L 342.669268 249.901405 
L 336.800859 250.879476 
L 331.977451 251.353535 
L 327.282713 252.527212 
L 322.97921 254.483353 
L 319.849392 256.439494 
L 313.589748 260.742997 
L 309.286246 262.699131 
L 305.569585 263.481587 
L 302.635374 262.503516 
L 301.65731 260.351769 
L 301.852925 257.613171 
L 303.222216 255.461424 
L 305.960813 252.722826 
L 310.264316 248.028095 
L 311.633615 246.071962 
L 312.611678 244.115821 
L 312.807292 242.355301 
L 312.416064 240.790388 
L 309.286246 241.377231 
" style="fill:none;stroke:#000000;stroke-linecap:square;stroke-width:1.5;"/>
   </g>
   <g id="line2d_4">
    <path clip-path="url(#pbae53377fb)" d="M 304.027599 231.046683 
L 312.243376 226.351952 
L 317.720564 224.004583 
L 322.219681 221.852835 
L 327.501254 219.505466 
L 333.174055 216.766876 
L 338.260014 214.810735 
L 343.932816 213.050208 
L 349.409996 211.485303 
L 353.90912 210.311618 
L 358.212623 209.333548 
L 362.320512 208.94232 
L 366.232786 208.355477 
L 378.165231 208.355477 
L 383.446805 209.137934 
L 388.532764 210.702846 
L 394.009944 212.267752 
L 399.095903 214.419507 
L 403.399406 216.375648 
L 408.876593 218.331782 
L 415.527465 222.048442 
L 420.809038 225.373882 
L 425.894997 228.699314 
L 431.176571 232.611589 
L 422.569565 226.938787 
L 417.483606 224.004583 
L 409.854664 219.70108 
L 391.07574 211.680917 
L 383.642419 209.92039 
L 375.23102 208.746705 
L 366.819628 208.94232 
L 359.973143 209.724776 
L 352.539821 211.094075 
L 344.910879 213.245822 
L 337.868786 215.593191 
L 329.848616 218.918624 
L 321.437224 222.830898 
L 314.199517 225.960724 
L 304.027599 231.046683 
" style="fill:none;stroke:#000000;stroke-linecap:square;stroke-width:1.5;"/>
   </g>
   <g id="line2d_5">
    <path clip-path="url(#pbae53377fb)" d="M 375.533292 371.96428 
L 371.792297 372.120159 
L 367.895423 371.808408 
L 363.375048 370.561408 
L 357.29593 368.067413 
L 351.996184 365.72929 
L 351.216812 364.170539 
L 350.281561 361.988295 
L 349.502189 361.520666 
L 347.631688 360.273665 
L 345.917066 358.091421 
L 340.305569 353.415175 
L 336.252824 351.388802 
L 331.576578 349.830051 
L 328.614954 348.271308 
L 327.679711 346.400806 
L 329.082583 344.842055 
L 331.888328 343.283312 
L 335.161702 341.72456 
L 340.929069 338.451187 
L 342.955442 337.048315 
L 345.137694 335.177813 
L 346.540566 335.177813 
L 347.164066 336.268943 
L 347.008188 338.607066 
L 346.072944 341.10106 
L 345.605315 343.283312 
L 345.917066 346.400806 
L 346.696437 348.894801 
L 349.81394 351.232924 
L 354.022556 353.415175 
L 357.60768 355.129798 
L 362.128055 356.22092 
L 366.024921 357.000299 
L 370.077667 357.000299 
L 374.442162 356.376798 
L 378.027286 355.441548 
L 380.98891 354.506297 
L 384.262283 353.726925 
L 387.535657 352.324053 
L 389.0944 350.29768 
L 390.809023 347.491928 
L 391.900152 345.933185 
L 392.523653 343.283312 
L 392.367774 340.945189 
L 393.458896 338.139437 
L 395.641148 337.515936 
L 398.914521 339.542309 
L 407.799384 341.880432 
L 412.47563 343.283312 
L 415.904875 343.906812 
L 424.166244 347.336057 
L 424.322123 349.36243 
L 421.828121 350.453552 
L 417.619505 352.168174 
L 408.890506 354.506297 
L 404.21426 356.065048 
L 400.317393 357.467921 
L 397.04402 359.494293 
L 394.238275 361.832416 
L 389.562029 366.976291 
L 387.379778 368.535035 
L 381.92416 370.405536 
L 375.533292 371.96428 
" style="fill:none;stroke:#000000;stroke-linecap:square;stroke-width:1.5;"/>
   </g>
   <g id="line2d_6">
    <path clip-path="url(#pbae53377fb)" d="M 331.940467 207.573021 
L 326.854507 208.746705 
L 331.940467 207.1818 
L 336.830812 205.030045 
L 343.481676 202.487062 
L 349.154478 200.1397 
L 354.436051 198.966015 
L 359.52201 197.987945 
L 365.977268 197.205496 
L 373.019361 197.205496 
L 380.452689 197.596717 
L 387.690396 199.161629 
L 392.385127 201.11777 
L 397.275472 203.85636 
L 400.99214 206.790572 
L 403.926344 208.551091 
L 399.231613 205.812501 
L 396.101795 203.660746 
L 393.167583 201.900227 
L 390.233379 200.530928 
L 385.734262 199.161629 
L 381.235145 198.379173 
L 375.953572 197.987945 
L 369.693928 197.792331 
L 362.847442 198.183559 
L 356.587806 198.966015 
L 349.936934 200.335314 
L 345.437817 201.900227 
L 340.547472 204.051975 
L 335.461513 206.008115 
L 331.940467 207.573021 
L 331.940467 207.573021 
" style="fill:none;stroke:#000000;stroke-linecap:square;stroke-width:1.5;"/>
   </g>
   <g id="line2d_7">
    <path clip-path="url(#pbae53377fb)" d="M 382.27312 223.387789 
L 375.817862 221.627262 
L 369.362604 220.453584 
L 362.71174 220.649199 
L 353.713506 221.040427 
L 346.671406 222.01849 
L 341.585447 223.387789 
L 336.890716 225.539544 
L 334.738961 226.908835 
L 338.260014 227.495677 
L 342.759131 227.495677 
L 348.040705 226.908835 
L 357.234552 226.126379 
L 345.106493 228.08252 
L 339.433699 228.864976 
L 335.521417 229.256204 
L 332.587213 230.234275 
L 329.066167 232.77725 
L 326.327569 234.146549 
L 323.393365 235.711462 
L 320.459154 237.080753 
L 316.546879 240.014965 
L 314.981974 242.753555 
L 313.417061 245.687759 
L 311.46092 248.62197 
L 309.309172 251.164946 
L 306.179347 253.512315 
L 303.440757 256.055291 
L 302.6583 258.011432 
L 303.049529 260.750022 
L 304.810055 262.119321 
L 308.331102 261.728093 
L 311.852148 260.554408 
L 314.981974 258.598274 
L 319.481091 255.859677 
L 323.002137 253.707929 
L 326.718798 252.338631 
L 332.195985 250.773718 
L 339.433699 249.991269 
L 347.649476 248.62197 
L 356.452096 247.448286 
L 363.298582 246.665829 
L 371.514359 245.492152 
L 380.708207 245.100924 
L 390.293283 244.90531 
L 399.682745 244.90531 
L 405.746775 246.274601 
L 410.63712 247.252672 
L 413.180096 247.448286 
L 413.962552 244.514082 
L 414.940623 241.57987 
L 414.549395 238.84128 
L 412.006419 235.515848 
L 409.463435 233.168479 
L 405.746775 231.212338 
L 402.421343 229.451818 
L 394.988014 226.713221 
L 388.33715 224.952701 
L 385.01171 225.148315 
L 379.925751 224.757087 
L 371.318745 224.561473 
L 368.580155 224.170245 
L 375.426634 223.974631 
L 380.903821 223.779017 
L 382.27312 223.387789 
" style="fill:none;stroke:#000000;stroke-linecap:square;stroke-width:1.5;"/>
   </g>
  </g>
 </g>
 <defs>
  <clipPath id="pbae53377fb">
   <rect height="564.48" width="725.76" x="0" y="0"/>
  </clipPath>
 </defs>
</svg>
