<?xml version="1.0" encoding="utf-8" standalone="no"?>
<!DOCTYPE svg PUBLIC "-//W3C//DTD SVG 1.1//EN"
  "http://www.w3.org/Graphics/SVG/1.1/DTD/svg11.dtd">
<!-- Created with matplotlib (https://matplotlib.org/) -->
<svg height="525.6pt" version="1.1" viewBox="0 0 725.76 525.6" width="725.76pt" xmlns="http://www.w3.org/2000/svg" xmlns:xlink="http://www.w3.org/1999/xlink">
 <defs>
  <style type="text/css">
*{stroke-linecap:butt;stroke-linejoin:round;}
  </style>
 </defs>
 <g id="figure_1">
  <g><image xlink:href="../../img/cb/collaredanteater_cor_cell.json.cb-50%25.png" width="725.76px" height="525.6px"/></g>

  <g id="patch_1">
   <path d="M 0 525.6 
L 725.76 525.6 
L 725.76 0 
L 0 0 
z
" style="fill:none;"/>
  </g>
  <g id="axes_1">
   <g id="line2d_1">
    <path clip-path="url(#pa8f1a06632)" d="M 633.431709 289.441819 
L 632.629424 285.751257 
L 632.148042 281.25836 
L 631.66666 277.407303 
L 631.827119 273.556246 
L 631.827119 270.026106 
L 631.185278 267.779661 
L 628.457444 266.175049 
L 625.248228 265.051827 
L 621.878553 264.730903 
L 618.508878 265.051827 
L 615.139204 266.175049 
L 612.732293 267.298279 
L 610.646306 269.384266 
L 609.041695 270.98887 
L 607.116166 272.272558 
L 602.462811 274.679469 
L 598.772212 276.604997 
L 597.809448 277.728227 
L 598.451289 279.332831 
L 599.414053 280.135137 
L 597.167601 278.851449 
L 595.242072 279.49329 
L 592.995627 280.776978 
L 590.428251 283.504812 
L 588.823647 286.393104 
L 587.539959 289.120939 
L 587.700424 292.651072 
L 588.502723 294.897524 
L 591.391015 295.378906 
L 599.414053 295.378906 
L 605.992944 294.737058 
L 611.127689 293.93476 
L 614.497363 293.613836 
L 617.225197 294.095218 
L 620.11349 295.860288 
L 617.225197 295.21844 
L 614.657821 295.21844 
L 611.929987 295.539364 
L 608.560313 295.699822 
L 603.26511 295.860288 
L 597.488524 296.181204 
L 593.477009 295.860288 
L 590.107335 295.860288 
L 587.860883 296.662587 
L 586.577195 298.106733 
L 585.133048 300.192727 
L 585.133048 303.081019 
L 585.61443 305.808854 
L 587.058577 309.499445 
L 588.663188 312.227279 
L 590.428251 314.794648 
L 594.921156 315.27603 
L 600.216359 314.63419 
L 605.992944 313.350502 
L 610.646306 311.906355 
L 614.336905 311.424973 
L 618.027496 311.264515 
L 622.841317 311.264515 
L 632.308501 311.906355 
L 622.359935 312.227279 
L 617.867038 312.708661 
L 614.176439 313.671425 
L 610.967223 314.473731 
L 606.79525 314.955113 
L 603.906957 315.27603 
L 600.858199 315.596954 
L 596.365302 315.917878 
L 592.835162 315.917878 
L 590.107335 317.0411 
L 589.144571 318.003864 
L 588.181806 320.089858 
L 588.021341 322.978151 
L 588.181806 325.705978 
L 588.823647 329.396576 
L 589.946869 332.926709 
L 593.477009 336.617308 
L 596.365302 339.345142 
L 599.574518 340.468364 
L 604.067415 340.147448 
L 608.881236 339.024218 
L 617.064732 337.900996 
L 620.915789 337.900996 
L 622.5204 337.580072 
L 627.173756 337.740537 
L 630.382972 337.900996 
L 632.950348 339.184684 
L 635.357259 341.912511 
L 639.208315 345.603109 
L 641.775684 345.924033 
L 645.305824 343.998504 
L 649.317339 340.307906 
L 652.36609 336.135925 
L 654.13116 332.284869 
L 654.933466 328.754736 
L 655.735765 326.18736 
L 655.575307 322.336303 
L 655.575307 318.645705 
L 654.452084 313.992349 
L 652.045174 310.301751 
L 650.119645 307.89484 
L 648.354575 307.413458 
L 646.268589 304.846089 
L 643.21983 300.995025 
L 640.491996 296.98351 
L 637.924627 294.5766 
L 636.159557 292.490613 
L 633.431709 289.441819 
" style="fill:none;stroke:#000000;stroke-linecap:square;stroke-width:1.5;"/>
   </g>
   <g id="line2d_2">
    <path clip-path="url(#pa8f1a06632)" d="M 599.253595 343.644776 
L 601.500047 348.142369 
L 606.474326 352.474808 
L 612.090453 355.684024 
L 618.829802 357.128171 
L 625.248228 357.128171 
L 630.382972 355.523566 
L 634.715411 353.116648 
L 637.122322 350.54928 
L 638.887392 347.660987 
L 639.04785 346.216841 
L 636.480481 343.80993 
L 634.073571 341.563478 
L 631.66666 339.156568 
L 628.457444 338.193803 
L 623.643623 337.87288 
L 618.508878 338.193803 
L 613.213675 338.996109 
L 607.597548 339.798415 
L 602.944193 340.761179 
L 599.734977 340.921638 
L 598.451289 341.723944 
L 598.772212 343.16809 
L 599.253595 343.644776 
" style="fill:none;stroke:#000000;stroke-linecap:square;stroke-width:1.5;"/>
   </g>
   <g id="line2d_3">
    <path clip-path="url(#pa8f1a06632)" d="M 198.749434 233.590566 
L 199.982863 236.34108 
L 198.129599 233.958309 
L 194.952563 231.575537 
L 192.305041 230.516523 
L 189.392762 232.634544 
L 185.421476 236.87058 
L 182.509204 241.106624 
L 178.802668 243.224646 
L 183.568211 237.664838 
L 190.451776 230.251773 
L 187.00999 226.015729 
L 181.18544 222.044443 
L 175.360882 219.396921 
L 170.065838 218.073157 
L 164.506031 217.2789 
L 159.475737 217.2789 
L 154.180687 217.01415 
L 148.356136 216.484642 
L 142.796335 217.01415 
L 133.000491 217.01415 
L 129.558713 218.073157 
L 127.175941 219.661671 
L 125.057919 222.57395 
L 123.469405 225.486229 
L 123.998905 230.251773 
L 130.35297 246.401674 
L 133.000491 252.490975 
L 137.501285 256.462268 
L 146.238114 261.227812 
L 158.41673 270.229391 
L 163.711773 274.994935 
L 168.742074 279.760478 
L 172.44861 281.8785 
L 175.625639 284.790779 
L 179.861675 282.937514 
L 184.362469 280.819493 
L 177.214154 285.849786 
L 179.067418 290.615329 
L 188.069005 307.029981 
L 192.040291 309.412753 
L 196.805834 309.94226 
L 199.982863 308.353746 
L 200.51237 304.382459 
L 198.394349 299.881666 
L 197.335342 294.851373 
L 198.923856 298.822659 
L 201.306628 303.852952 
L 203.424642 306.235724 
L 208.719693 303.323452 
L 213.485236 299.087409 
L 217.721279 295.116123 
L 218.780287 292.468601 
L 217.721279 288.232558 
L 216.662265 283.467014 
L 216.397515 281.084243 
L 216.397515 276.848206 
L 217.721279 282.937514 
L 217.986029 286.644043 
L 219.574544 291.144837 
L 220.898308 293.792358 
L 226.193359 292.733351 
L 230.958902 291.144837 
L 237.31296 288.497315 
L 243.137511 286.9088 
L 247.638304 283.731771 
L 250.285826 280.554735 
L 253.462862 276.053949 
L 255.580876 272.082663 
L 259.552163 267.84662 
L 262.199692 264.669591 
L 267.759492 262.022069 
L 272.525036 259.904047 
L 278.614343 259.639297 
L 293.440481 258.580283 
L 298.735531 256.727018 
L 303.236317 254.079497 
L 307.207611 253.020482 
L 311.443647 253.814739 
L 313.032161 256.197511 
L 309.855133 258.580283 
L 306.413346 259.904047 
L 302.971567 261.492562 
L 301.118303 263.345826 
L 297.941274 267.052362 
L 296.088002 270.494149 
L 295.293745 272.87692 
L 295.028995 276.318699 
L 296.088002 280.554735 
L 299.416802 286.011913 
L 306.565125 291.571714 
L 317.684726 295.27825 
L 329.069077 296.337265 
L 355.544323 296.337265 
L 362.692645 294.74875 
L 388.373626 292.895478 
L 396.845706 292.630728 
L 402.935014 291.571714 
L 405.053035 290.777457 
L 400.287492 288.924192 
L 393.668677 286.011913 
L 388.373626 282.834885 
L 383.078583 278.598848 
L 378.57779 274.362805 
L 375.400761 270.921026 
L 375.400761 269.597262 
L 379.636797 273.833305 
L 385.461355 278.863598 
L 392.34492 283.893899 
L 399.228478 287.865185 
L 405.317785 289.4537 
L 412.20135 289.4537 
L 420.40868 288.129935 
L 425.438973 286.011913 
L 430.998774 283.099642 
L 433.911053 280.71687 
L 434.97006 276.745577 
L 435.499567 272.774291 
L 434.97006 268.008747 
L 433.381546 265.096468 
L 428.616002 263.243204 
L 425.174223 261.389939 
L 412.995608 261.389939 
L 407.700557 260.595682 
L 423.056202 260.066175 
L 420.143923 257.683403 
L 418.555408 255.565381 
L 426.233231 258.21291 
L 434.70531 260.860432 
L 440.794618 260.860432 
L 449.796197 264.302211 
L 465.946099 275.686569 
L 468.328871 280.98162 
L 470.413043 279.365998 
L 473.325322 277.512734 
L 472.531058 280.954513 
L 471.2073 284.661049 
L 472.531058 289.426592 
L 476.767101 291.544614 
L 483.915416 292.074114 
L 490.798981 292.074114 
L 494.770267 290.4856 
L 495.564525 287.043821 
L 494.505517 278.571741 
L 494.770267 274.070948 
L 495.564525 282.807785 
L 495.829275 288.367585 
L 496.358782 292.868379 
L 500.330068 296.839665 
L 506.154626 299.751936 
L 512.243926 301.605208 
L 517.803734 302.399465 
L 520.186506 300.546194 
L 521.245513 296.839665 
L 522.03977 291.279857 
L 521.510263 286.249564 
L 520.451256 281.48402 
L 518.333234 275.92422 
L 517.009477 271.158676 
L 515.685713 267.71689 
L 514.891455 263.745604 
L 518.068484 272.482433 
L 522.30452 283.337285 
L 523.098778 288.102828 
L 523.098778 292.338871 
L 521.77502 299.751936 
L 521.77502 302.928965 
L 526.540564 306.370752 
L 533.688879 309.28303 
L 538.719172 309.54778 
L 542.690466 305.046987 
L 546.132244 300.281444 
L 547.985509 296.310158 
L 549.044523 293.397879 
L 551.427295 287.573328 
L 548.250266 284.925799 
L 543.749473 282.278277 
L 540.837194 279.895506 
L 538.983929 276.718477 
L 543.219966 280.954513 
L 547.191252 283.602042 
L 551.427295 286.249564 
L 554.339567 286.514314 
L 556.987096 284.131542 
L 559.369867 281.48402 
L 562.017389 277.777484 
L 564.135411 275.129962 
L 562.174342 273.07662 
L 559.262063 270.693849 
L 556.879291 267.781577 
L 553.967012 265.134048 
L 552.378498 262.751276 
L 549.730976 260.898012 
L 547.612955 258.250483 
L 545.75969 255.338211 
L 544.171176 252.425932 
L 547.348205 256.926726 
L 549.995726 260.103755 
L 554.23177 263.545534 
L 556.349784 266.193055 
L 560.850577 270.164349 
L 563.498106 272.282363 
L 565.880878 273.341378 
L 567.204635 271.488106 
L 564.821864 261.427512 
L 563.762856 257.720983 
L 561.909585 255.073454 
L 558.732556 252.95544 
L 555.555527 251.896425 
L 552.113748 249.778403 
L 547.877705 247.395632 
L 544.171176 245.01286 
L 539.935132 239.717817 
L 537.817118 237.335038 
L 535.434346 237.599795 
L 531.99256 239.45306 
L 529.080281 239.982567 
L 525.373752 241.571081 
L 517.431173 246.336625 
L 519.284444 244.48336 
L 522.461473 242.100588 
L 534.110582 237.335038 
L 537.552361 235.217023 
L 539.405632 233.099002 
L 542.317904 230.45148 
L 545.75969 228.598208 
L 552.113748 227.803951 
L 558.997313 227.539201 
L 564.027606 227.803951 
L 568.26365 227.274451 
L 570.646421 225.156429 
L 568.5284 222.5089 
L 566.939885 220.126129 
L 561.380085 214.566328 
L 558.203056 210.330292 
L 555.820284 206.623756 
L 553.702262 201.593463 
L 551.319491 192.856626 
L 554.23177 200.534448 
L 557.673549 207.153263 
L 562.439092 213.507321 
L 566.410378 217.478607 
L 569.587407 222.24415 
L 572.764436 226.215437 
L 577.000479 227.009694 
L 584.148794 227.009694 
L 592.620874 227.274451 
L 599.769189 225.685937 
L 604.534732 223.038408 
L 609.035526 219.067122 
L 611.418297 213.507321 
L 613.536319 207.94752 
L 615.389584 204.505734 
L 617.321506 198.090814 
L 617.853423 191.986483 
L 617.323915 185.632425 
L 615.735401 177.954603 
L 614.676394 170.541538 
L 612.293622 163.128466 
L 609.646093 158.362922 
L 605.674807 152.538372 
L 599.850256 144.595799 
L 595.614213 139.035991 
L 591.907677 135.858963 
L 586.877383 130.299162 
L 571.256989 117.061539 
L 565.432431 113.355003 
L 560.666888 110.972231 
L 555.901344 109.648474 
L 551.135801 107.795202 
L 546.105507 107.530452 
L 541.339964 107.530452 
L 538.427685 107.795202 
L 538.427685 112.560746 
L 539.486692 120.503325 
L 536.839171 109.913224 
L 535.515406 106.206688 
L 532.603127 102.764909 
L 528.631841 101.441144 
L 525.190062 101.176394 
L 520.954019 101.970652 
L 518.041747 102.764909 
L 515.923726 104.882931 
L 515.658976 110.442731 
L 515.658976 118.914811 
L 515.129468 125.268869 
L 514.599961 119.709068 
L 513.276204 117.855796 
L 510.628675 118.120554 
L 513.540954 115.208275 
L 514.864718 112.295996 
L 515.129468 108.854217 
L 515.129468 100.382137 
L 512.481947 95.087087 
L 508.510653 89.792036 
L 504.539367 86.879764 
L 499.244324 84.232235 
L 493.684516 82.378971 
L 488.918973 80.260949 
L 483.888679 79.201942 
L 480.446893 78.937185 
L 476.210857 79.996199 
L 474.622342 81.849464 
L 474.887092 85.026493 
L 478.328879 90.321543 
L 483.623922 94.822337 
L 488.124715 98.264116 
L 491.566501 101.441144 
L 494.74353 105.147681 
L 488.918973 100.382137 
L 484.947686 96.410851 
L 480.9764 93.233822 
L 477.799371 90.321543 
L 475.15185 87.674022 
L 473.828085 84.496985 
L 471.445313 82.908471 
L 467.20927 82.378971 
L 463.237984 82.643721 
L 460.060955 83.967485 
L 458.472441 85.82075 
L 458.472441 88.997779 
L 459.531455 91.645308 
L 463.767491 95.616594 
L 476.210857 109.118967 
L 481.24115 114.149267 
L 484.418179 117.061539 
L 487.859965 121.032825 
L 478.593629 112.560746 
L 474.357592 108.05996 
L 468.533035 101.441144 
L 463.767491 96.940351 
L 460.590462 93.763322 
L 457.678183 91.645308 
L 454.765904 91.1158 
L 452.383133 91.1158 
L 451.059376 93.763322 
L 449.470861 96.410851 
L 448.411847 100.117387 
L 448.676604 103.029659 
L 452.118383 107.795202 
L 458.207691 113.88451 
L 462.708484 119.444311 
L 466.67977 124.739361 
L 469.327292 128.710647 
L 471.180563 132.681934 
L 473.033828 137.182727 
L 468.268285 128.710647 
L 466.415013 125.798369 
L 457.678183 113.88451 
L 454.236404 110.972231 
L 450.529868 106.736195 
L 447.088089 105.147681 
L 445.234818 105.677188 
L 443.019813 107.795536 
L 440.901334 110.972231 
L 440.107077 113.61976 
L 441.430841 117.855796 
L 443.548855 123.150847 
L 444.60787 129.769662 
L 445.13737 134.799955 
L 445.13737 140.889263 
L 445.402127 146.713814 
L 445.402127 151.214607 
L 445.666877 155.715401 
L 444.60787 150.6851 
L 444.343113 147.772828 
L 444.343113 143.272035 
L 444.60787 138.506491 
L 444.343113 134.005698 
L 442.225098 122.886097 
L 439.842327 116.796789 
L 439.312819 113.355003 
L 439.842327 110.177974 
L 441.695591 107.265702 
L 444.60787 104.882931 
L 446.725884 102.235402 
L 448.579156 99.058373 
L 449.108663 95.881344 
L 450.697178 90.056793 
L 451.491435 85.026493 
L 450.961928 80.525699 
L 448.314406 77.613428 
L 445.13737 76.554413 
L 441.695591 77.613428 
L 437.459555 77.34867 
L 433.223511 76.554413 
L 430.311233 75.230656 
L 426.869454 73.906891 
L 423.162917 73.642141 
L 420.515396 74.701149 
L 417.867867 76.024913 
L 411.967431 76.089593 
L 407.996145 76.88385 
L 402.701094 77.413357 
L 391.581493 77.413357 
L 384.697928 77.1486 
L 378.873377 77.1486 
L 371.989812 77.678107 
L 366.959511 77.413357 
L 361.399711 77.678107 
L 356.369418 78.207615 
L 352.398131 79.531372 
L 346.573574 80.855136 
L 337.307237 82.178901 
L 329.629414 83.767415 
L 323.010607 84.826422 
L 317.450806 84.561672 
L 313.214763 82.178901 
L 309.772984 79.531372 
L 306.331198 77.678107 
L 302.359911 76.354343 
L 298.91446 76.439366 
L 294.935641 76.70016 
L 290.170097 79.347682 
L 287.257818 81.730461 
L 285.934061 84.377983 
L 285.404554 89.937783 
L 285.139804 94.968084 
L 285.139804 99.46887 
L 286.728318 101.851642 
L 288.846333 104.49917 
L 289.905347 108.470457 
L 289.37584 112.441743 
L 288.316833 116.942536 
L 286.728318 121.178572 
L 284.610297 124.620358 
L 282.757032 128.856395 
L 281.962768 133.092431 
L 280.903761 136.798967 
L 279.315246 146.065304 
L 279.315246 153.743126 
L 278.256239 148.977583 
L 279.844753 138.652239 
L 280.903761 133.621938 
L 281.962768 129.385902 
L 283.286532 125.414616 
L 287.257818 118.795801 
L 288.316833 114.824514 
L 288.846333 110.853228 
L 288.846333 107.676199 
L 288.052076 104.76392 
L 284.875047 101.057384 
L 282.492275 101.322142 
L 280.374253 102.381149 
L 277.461982 104.234413 
L 274.020195 108.470457 
L 271.107924 112.706493 
L 264.489109 122.767087 
L 262.106337 127.53263 
L 259.194058 132.827681 
L 257.076044 137.593224 
L 256.281786 139.975996 
L 257.076044 136.534217 
L 258.399801 133.621938 
L 260.253073 129.915402 
L 262.635844 125.679366 
L 264.489109 121.70808 
L 270.048909 113.765507 
L 274.549703 106.617185 
L 277.461982 103.175406 
L 280.374253 100.263127 
L 282.492275 97.086098 
L 283.551289 93.379562 
L 283.816039 89.673033 
L 283.551289 86.231247 
L 281.698018 83.318975 
L 279.579996 80.406696 
L 277.197224 79.347682 
L 274.284953 80.406696 
L 270.578417 82.259961 
L 267.13663 84.113233 
L 261.04733 86.760754 
L 254.693265 90.202533 
L 250.457229 92.055805 
L 246.221192 94.173827 
L 241.455649 97.880355 
L 238.278613 100.527884 
L 233.777827 107.146692 
L 232.189312 111.117978 
L 229.012283 117.207286 
L 230.865548 111.647486 
L 232.454062 108.205707 
L 234.307327 104.49917 
L 236.690098 101.322142 
L 239.337627 98.409863 
L 242.249906 95.762341 
L 247.01545 92.850062 
L 252.310493 90.202533 
L 257.605544 87.819761 
L 263.430101 85.43699 
L 265.548116 83.318975 
L 269.784159 81.465704 
L 272.961188 79.612439 
L 273.490695 76.96491 
L 271.372674 74.052639 
L 267.666138 71.669867 
L 262.371087 70.87561 
L 258.135051 71.40511 
L 252.57525 72.464124 
L 246.750692 72.728874 
L 241.985149 73.258381 
L 239.337627 74.582139 
L 234.572084 75.905903 
L 229.806541 77.759167 
L 224.246733 80.141939 
L 220.804954 82.259961 
L 218.686932 84.113233 
L 217.098418 86.231247 
L 216.568918 88.614019 
L 216.568918 94.703327 
L 216.30416 99.20412 
L 215.245153 101.851642 
L 214.186146 106.087685 
L 213.127132 109.529464 
L 210.47961 115.089264 
L 212.332874 109.264714 
L 214.980403 99.998377 
L 215.509903 96.556598 
L 215.774661 92.850062 
L 215.509903 89.673033 
L 212.862382 87.555011 
L 209.685353 85.966497 
L 205.978817 84.90749 
L 200.948523 85.17224 
L 197.506737 85.966497 
L 194.859215 87.025504 
L 192.211686 88.349269 
L 190.093672 89.937783 
L 186.916643 91.261548 
L 184.004364 91.526298 
L 170.242416 96.065034 
L 164.947365 98.977313 
L 158.0638 102.154342 
L 153.827764 105.33137 
L 149.856478 107.978892 
L 145.620435 112.214936 
L 142.972913 115.391964 
L 139.531127 116.450972 
L 133.706576 120.157508 
L 128.676275 125.452558 
L 123.645982 130.482852 
L 119.409939 136.30741 
L 115.438653 143.720475 
L 112.261624 151.398297 
L 109.614102 158.281862 
L 108.555095 164.37117 
L 108.025588 178.6678 
L 108.819845 185.551365 
L 110.408359 192.69968 
L 112.261624 199.053738 
L 114.644395 204.878289 
L 117.291924 210.438096 
L 120.447391 214.549948 
L 124.153927 216.403212 
L 128.389963 216.667969 
L 132.096499 216.138462 
L 136.862043 215.873712 
L 141.098086 216.138462 
L 144.804615 215.873712 
L 148.511151 215.344205 
L 149.834916 212.696683 
L 150.629173 209.519654 
L 150.893923 206.607375 
L 152.747187 204.224604 
L 155.394716 202.636089 
L 159.101252 199.45906 
L 160.42501 196.811531 
L 161.748774 193.369753 
L 162.278281 191.251731 
L 163.866796 188.339452 
L 162.543031 193.89926 
L 160.954517 197.870546 
L 159.101252 200.782818 
L 156.718481 202.900839 
L 154.335709 204.224604 
L 152.482437 205.813118 
L 151.68818 208.19589 
L 151.158673 210.578662 
L 151.158673 212.961433 
L 152.747187 214.814698 
L 158.042238 215.873712 
L 162.013524 216.138462 
L 166.184888 216.1169 
L 170.685674 217.175914 
L 175.715974 218.764429 
L 180.481518 220.882443 
L 184.452804 223.000465 
L 187.629833 225.647994 
L 191.601119 228.295516 
L 194.513398 230.413537 
L 196.63142 231.737294 
L 198.749434 233.590566 
L 198.749434 233.590566 
" style="fill:none;stroke:#000000;stroke-linecap:square;stroke-width:1.5;"/>
   </g>
   <g id="line2d_4">
    <path clip-path="url(#pa8f1a06632)" d="M 506.717271 154.207939 
L 509.246929 160.532095 
L 512.198204 168.542693 
L 525.057321 207.330842 
L 526.322146 218.503518 
L 524.424901 209.017283 
L 522.106047 202.060714 
L 518.943969 191.942067 
L 511.354979 168.542693 
L 506.717271 154.207939 
" style="fill:none;stroke:#000000;stroke-linecap:square;stroke-width:1.5;"/>
   </g>
   <g id="line2d_5">
    <path clip-path="url(#pa8f1a06632)" d="M 483.950311 188.990793 
L 490.696076 194.260921 
L 497.231036 200.795881 
L 501.657947 206.487625 
L 504.820026 213.022586 
L 505.663243 218.503518 
L 502.29036 209.228088 
L 499.128282 204.801184 
L 493.436545 198.477027 
L 483.950311 188.990793 
" style="fill:none;stroke:#000000;stroke-linecap:square;stroke-width:1.5;"/>
   </g>
   <g id="line2d_6">
    <path clip-path="url(#pa8f1a06632)" d="M 324.8996 103.759723 
L 328.241304 103.058145 
L 340.179991 103.058145 
L 346.149331 102.905089 
L 353.343151 103.058145 
L 359.465553 102.598964 
L 365.434893 102.905089 
L 370.026697 103.058145 
L 378.751116 103.058145 
L 384.414337 102.905089 
L 389.618377 103.058145 
L 398.342796 102.445908 
L 406.149485 102.445908 
L 412.424943 102.13979 
L 414.414723 101.527546 
L 415.945329 99.843885 
L 419.006526 96.629624 
L 417.169802 100.303066 
L 417.935109 101.527546 
L 419.618763 102.445908 
L 420.843243 104.282625 
L 420.843243 106.425468 
L 419.924888 109.945847 
L 419.771826 107.34383 
L 419.006526 105.200988 
L 417.016746 103.517326 
L 409.082615 103.453604 
L 399.592889 103.759723 
L 391.939888 103.912785 
L 385.052193 104.218904 
L 378.011428 104.218904 
L 372.042089 104.065841 
L 364.695206 104.218904 
L 357.195267 104.065841 
L 348.317785 104.218904 
L 340.817839 103.912785 
L 333.470964 104.218904 
L 324.8996 103.759723 
" style="fill:none;stroke:#000000;stroke-linecap:square;stroke-width:1.5;"/>
   </g>
   <g id="line2d_7">
    <path clip-path="url(#pa8f1a06632)" d="M 313.088364 140.098671 
L 315.996506 137.343592 
L 319.210767 136.272174 
L 323.496445 135.200749 
L 326.863768 133.823213 
L 328.241304 131.527315 
L 327.016824 129.384472 
L 324.261744 127.088574 
L 319.976066 124.639613 
L 323.802563 124.639613 
L 326.404587 126.017149 
L 328.394367 127.241629 
L 329.312729 129.384472 
L 332.067808 129.996709 
L 334.516769 129.996709 
L 338.802448 130.45589 
L 344.618732 130.762008 
L 351.506434 131.68037 
L 359.159435 132.904851 
L 366.200192 133.67015 
L 374.771556 134.894631 
L 381.812313 136.119111 
L 387.781653 137.802773 
L 393.291819 138.415009 
L 398.648915 138.415009 
L 401.557057 138.721135 
L 407.526396 137.802773 
L 403.546837 139.486434 
L 403.699899 141.170096 
L 406.454979 145.608837 
L 408.750877 146.527192 
L 411.812082 147.904735 
L 415.332461 150.812877 
L 412.1182 149.894515 
L 408.444759 148.516972 
L 405.689679 147.139436 
L 404.465199 144.690475 
L 402.322356 141.782333 
L 400.485639 140.710915 
L 393.444874 139.792553 
L 389.465315 139.945615 
L 383.649038 138.721135 
L 379.669478 137.496654 
L 371.404233 135.353812 
L 364.822649 134.588512 
L 358.08801 133.67015 
L 350.89419 132.44567 
L 343.394251 131.527315 
L 337.118786 130.915071 
L 332.680045 130.762008 
L 332.833108 131.68037 
L 332.833108 133.67015 
L 330.996391 135.200749 
L 328.088249 136.272174 
L 323.649508 137.037473 
L 319.210767 137.64971 
L 313.088364 140.098671 
" style="fill:none;stroke:#000000;stroke-linecap:square;stroke-width:1.5;"/>
   </g>
   <g id="line2d_8">
    <path clip-path="url(#pa8f1a06632)" d="M 344.271935 189.488686 
L 350.412779 190.51216 
L 357.690816 191.990511 
L 367.356959 192.21795 
L 359.737764 192.900266 
L 356.098745 192.445388 
L 350.981375 191.421914 
L 344.271935 189.488686 
" style="fill:none;stroke:#000000;stroke-linecap:square;stroke-width:1.5;"/>
   </g>
   <g id="line2d_9">
    <path clip-path="url(#pa8f1a06632)" d="M 245.850815 125.402205 
L 247.46889 121.125875 
L 249.780421 117.080692 
L 252.669839 112.226475 
L 256.36829 107.487836 
L 263.765192 101.824585 
L 261.684808 104.020539 
L 259.026553 105.985338 
L 253.941181 111.995321 
L 251.74522 115.23147 
L 247.931199 121.934909 
L 245.850815 125.402205 
" style="fill:none;stroke:#000000;stroke-linecap:square;stroke-width:1.5;"/>
   </g>
   <g id="line2d_10">
    <path clip-path="url(#pa8f1a06632)" d="M 211.073797 195.790467 
L 211.603297 184.141359 
L 212.662311 174.610272 
L 212.662311 180.170072 
L 212.397554 187.847895 
L 211.073797 195.790467 
L 211.073797 195.790467 
" style="fill:none;stroke:#000000;stroke-linecap:square;stroke-width:1.5;"/>
   </g>
   <g id="line2d_11">
    <path clip-path="url(#pa8f1a06632)" d="M 570.684952 271.624084 
L 575.980155 268.735792 
L 581.1149 264.884735 
L 587.212409 260.552296 
L 591.705306 256.059392 
L 595.556363 250.60373 
L 597.802815 246.110826 
L 599.246961 241.778387 
L 599.888801 237.927331 
L 599.407419 233.915816 
L 598.123731 231.508905 
L 595.235439 229.262453 
L 590.26116 228.460147 
L 584.965957 227.978765 
L 577.905683 228.139223 
L 572.289557 228.460147 
L 567.475736 228.620605 
L 562.822373 228.460147 
L 558.6504 228.299689 
L 554.157495 228.299689 
L 549.664598 228.620605 
L 546.294924 229.583377 
L 542.925249 231.669363 
L 540.678797 233.75535 
L 539.23465 236.16226 
L 539.716033 238.248254 
L 541.962485 241.297005 
L 544.850777 243.864374 
L 546.294924 245.629444 
L 549.985515 247.715438 
L 553.515655 250.122348 
L 557.687636 251.887411 
L 561.378227 253.171099 
L 563.624679 255.738468 
L 564.908367 258.787226 
L 565.710666 262.477825 
L 566.512971 265.847499 
L 567.315277 269.217174 
L 568.278042 271.945001 
L 570.684952 271.624084 
" style="fill:none;stroke:#000000;stroke-linecap:square;stroke-width:1.5;"/>
   </g>
   <g id="line2d_12">
    <path clip-path="url(#pa8f1a06632)" d="M 502.400799 323.519836 
L 510.354947 325.467791 
L 518.309088 326.928753 
L 524.802274 327.091083 
L 529.996814 325.143129 
L 532.756415 322.545859 
L 535.516016 319.299266 
L 537.139316 316.215011 
L 535.840677 313.293079 
L 534.217385 310.695802 
L 531.620107 308.910178 
L 527.399544 306.962224 
L 523.990621 305.176601 
L 520.906366 302.903992 
L 516.523465 302.903992 
L 512.789887 302.092338 
L 507.270685 300.793707 
L 501.913814 298.35876 
L 498.017905 295.436829 
L 495.74529 293.488874 
L 492.011712 293.16422 
L 487.791141 293.001889 
L 484.057563 292.839559 
L 481.622624 293.001889 
L 480.486316 294.300528 
L 478.863023 295.599159 
L 479.67467 299.170407 
L 482.434271 304.364954 
L 486.49251 310.208817 
L 491.200065 315.728019 
L 495.095974 320.273243 
L 498.991883 322.058867 
L 502.400799 323.519836 
" style="fill:none;stroke:#000000;stroke-linecap:square;stroke-width:1.5;"/>
   </g>
   <g id="line2d_13">
    <path clip-path="url(#pa8f1a06632)" d="M 329.739657 82.967729 
L 338.362013 81.626474 
L 348.134008 79.710395 
L 352.540983 78.369147 
L 357.522788 76.644676 
L 363.462626 76.453068 
L 370.743726 75.878244 
L 380.324113 76.069852 
L 388.754854 75.878244 
L 397.377202 76.26146 
L 406.382766 75.686636 
L 411.747787 75.111813 
L 414.621898 73.004126 
L 414.813506 69.938399 
L 413.855466 66.87268 
L 412.897427 63.615346 
L 410.598139 61.699267 
L 408.68206 59.399972 
L 405.807942 57.675509 
L 403.508647 56.525861 
L 401.017752 57.100685 
L 398.143633 56.909077 
L 394.119867 56.909077 
L 391.054148 56.525861 
L 387.605206 55.75943 
L 383.389832 55.376214 
L 378.982858 54.80139 
L 375.1507 54.418174 
L 370.935326 54.609782 
L 367.869607 54.418174 
L 364.803881 54.418174 
L 360.396907 54.992998 
L 356.564749 55.951037 
L 349.666872 58.250332 
L 345.834714 59.59158 
L 340.086477 61.507659 
L 333.763423 63.423738 
L 328.015194 65.531425 
L 322.84178 66.681072 
L 319.20123 66.681072 
L 316.518727 66.489465 
L 314.027824 66.106249 
L 312.111745 66.489465 
L 310.387274 68.213936 
L 309.237627 70.704831 
L 308.279595 72.046086 
L 307.513163 75.303421 
L 308.662803 77.602715 
L 311.345314 80.093611 
L 314.602648 82.00969 
L 318.243198 83.925769 
L 322.075349 84.117377 
L 325.907507 83.734161 
L 329.739657 82.967729 
" style="fill:none;stroke:#000000;stroke-linecap:square;stroke-width:1.5;"/>
   </g>
   <g id="line2d_14">
    <path clip-path="url(#pa8f1a06632)" d="M 360.013691 53.076919 
L 367.486391 51.735664 
L 375.342308 50.969232 
L 383.006617 51.352448 
L 389.521285 52.11888 
L 394.503083 52.502095 
L 399.868104 54.418174 
L 404.466687 55.75943 
L 405.99955 54.034958 
L 405.99955 50.586016 
L 404.466687 47.328689 
L 401.592575 44.646179 
L 398.910065 41.197237 
L 394.503083 38.706334 
L 389.138069 35.640615 
L 381.282146 33.916144 
L 374.001053 32.958104 
L 366.145136 32.383281 
L 361.738155 32.766496 
L 358.480828 33.916144 
L 354.64867 34.490967 
L 351.774551 34.490967 
L 347.750793 34.874183 
L 343.727027 35.449007 
L 339.51166 36.98187 
L 335.296286 39.281158 
L 328.781625 42.538492 
L 323.991428 46.179042 
L 319.967662 50.011193 
L 315.943903 53.843351 
L 313.261393 56.142645 
L 311.72853 58.633548 
L 311.345314 60.932836 
L 312.494961 64.381778 
L 315.36908 65.914641 
L 319.967662 66.297857 
L 325.141075 65.531425 
L 332.038952 63.423738 
L 339.51166 61.124443 
L 348.325616 58.058724 
L 352.732591 56.334253 
L 355.223493 54.80139 
L 357.33118 52.885311 
L 360.013691 53.076919 
" style="fill:none;stroke:#000000;stroke-linecap:square;stroke-width:1.5;"/>
   </g>
   <g id="line2d_15">
    <path clip-path="url(#pa8f1a06632)" d="M 218.333204 315.105825 
L 221.947873 313.418977 
L 225.442052 311.250181 
L 228.213294 309.081378 
L 231.225518 306.310136 
L 233.27383 304.020849 
L 235.081161 302.213511 
L 237.129474 299.924225 
L 238.816321 297.996403 
L 239.539251 295.8276 
L 240.141697 293.297332 
L 240.021206 291.008045 
L 239.539251 289.441688 
L 237.85241 289.200714 
L 236.045072 289.803153 
L 233.514804 290.887555 
L 231.586982 291.730975 
L 229.056714 292.453912 
L 226.887919 293.176841 
L 224.478141 293.899778 
L 221.345427 294.261243 
L 219.176624 294.622715 
L 217.369293 295.8276 
L 216.043917 297.273466 
L 213.995605 298.960314 
L 212.549739 300.526671 
L 210.501426 302.334002 
L 208.694095 303.900359 
L 206.163827 305.466716 
L 203.513069 307.033066 
L 201.705738 308.117467 
L 200.01889 309.924805 
L 200.259871 311.491155 
L 202.067202 313.539468 
L 205.802362 314.985334 
L 209.658006 315.58778 
L 213.272668 315.58778 
L 215.923427 315.467289 
L 218.333204 315.105825 
" style="fill:none;stroke:#000000;stroke-linecap:square;stroke-width:1.5;"/>
   </g>
   <g id="line2d_16">
    <path clip-path="url(#pa8f1a06632)" d="M 140.661933 346.737675 
L 138.279162 352.562226 
L 136.690647 358.916284 
L 135.896383 363.681834 
L 135.896383 373.742428 
L 136.690647 377.184207 
L 138.808662 381.420243 
L 143.044705 382.2145 
L 147.810248 380.625986 
L 151.781535 377.448957 
L 154.429056 374.801435 
L 156.282328 371.624406 
L 159.459357 368.712128 
L 162.901136 365.799849 
L 165.548665 362.887577 
L 167.666679 359.975298 
L 169.784701 355.739255 
L 170.049451 350.973711 
L 170.578958 347.002425 
L 168.196186 334.294309 
L 167.401929 331.382031 
L 165.548665 329.528766 
L 163.430643 329.793516 
L 161.312621 331.911538 
L 155.223313 335.882824 
L 151.781535 336.677081 
L 154.429056 334.823817 
L 158.6651 332.705795 
L 163.165886 328.999259 
L 163.165886 326.351737 
L 161.577371 323.174708 
L 159.459357 321.586194 
L 157.341335 317.879658 
L 154.429056 311.79035 
L 152.840542 308.878071 
L 152.311042 307.554314 
L 150.45777 305.436292 
L 147.015991 300.405991 
L 143.838962 298.817477 
L 140.397176 298.02322 
L 136.955397 297.75847 
L 135.366883 295.375698 
L 134.043118 291.139662 
L 131.660347 287.962626 
L 128.748068 285.050354 
L 126.365296 284.520847 
L 123.453024 287.168368 
L 118.157974 292.992926 
L 115.775202 294.846191 
L 112.068666 296.169955 
L 108.09738 296.964212 
L 103.861336 295.110948 
L 103.067079 292.463419 
L 102.537579 288.227383 
L 102.272822 279.490553 
L 100.684307 273.401246 
L 98.566293 271.283224 
L 94.859757 269.429959 
L 87.711442 272.606988 
L 81.622134 277.372532 
L 77.650848 281.343818 
L 73.944312 286.903618 
L 71.56154 291.933919 
L 70.502533 297.49372 
L 69.443518 307.554314 
L 69.443518 312.0551 
L 71.032033 317.35015 
L 74.473819 322.645201 
L 77.386091 323.439458 
L 81.092627 321.321437 
L 84.534413 317.879658 
L 88.240942 316.026386 
L 92.741735 314.702629 
L 96.977779 314.437871 
L 108.891637 314.437871 
L 112.333416 312.849357 
L 118.157974 310.466585 
L 111.539159 316.820643 
L 104.390844 319.203422 
L 92.476985 322.380451 
L 82.151641 324.763223 
L 77.121341 326.351737 
L 75.003319 328.999259 
L 74.738569 332.970545 
L 76.062333 339.324603 
L 78.709855 345.149161 
L 81.886884 350.708961 
L 85.063913 350.973711 
L 93.800742 343.825396 
L 97.772036 341.177875 
L 102.008072 338.795103 
L 92.212228 345.943418 
L 87.711442 349.914704 
L 84.269656 353.62124 
L 83.740156 356.533512 
L 87.446685 362.62282 
L 90.623713 368.447378 
L 94.33025 370.830149 
L 99.095793 372.948171 
L 103.331836 370.565392 
L 111.009659 358.916284 
L 114.451438 352.032726 
L 118.952231 343.560646 
L 126.100546 331.911538 
L 128.483318 327.675494 
L 130.601339 324.233715 
L 132.454604 320.262429 
L 134.837376 317.0854 
L 137.484904 313.908371 
L 141.985691 309.142828 
L 134.307868 319.468172 
L 129.542325 326.881237 
L 126.100546 333.500052 
L 122.12926 339.85411 
L 118.687474 346.208168 
L 115.245695 351.767968 
L 112.068666 358.651534 
L 108.626887 364.211334 
L 105.185101 369.241635 
L 105.714608 371.889156 
L 109.685894 375.860443 
L 115.510445 379.566979 
L 122.923517 382.744008 
L 131.130839 384.332522 
L 134.307868 382.744008 
L 136.16114 380.361236 
L 135.631633 376.919457 
L 134.572626 373.742428 
L 134.307868 369.771135 
L 133.513611 366.858863 
L 133.778368 363.417077 
L 134.307868 359.710548 
L 135.631633 356.533512 
L 136.690647 353.62124 
L 138.808662 350.179454 
L 140.661933 346.737675 
L 140.661933 346.737675 
" style="fill:none;stroke:#000000;stroke-linecap:square;stroke-width:1.5;"/>
   </g>
   <g id="line2d_17">
    <path clip-path="url(#pa8f1a06632)" d="M 163.960143 301.465006 
L 165.283907 296.434705 
L 164.48965 290.080647 
L 163.165886 285.050354 
L 159.724107 281.079068 
L 156.017571 278.166789 
L 152.046285 275.25451 
L 148.869256 273.136488 
L 145.692227 272.342231 
L 141.985691 272.077481 
L 136.955397 273.401246 
L 134.572626 274.725003 
L 132.984111 278.696296 
L 132.719354 283.197082 
L 136.42589 287.697876 
L 142.779948 290.874905 
L 149.134006 295.110948 
L 155.488071 298.02322 
L 159.459357 300.141241 
L 161.577371 302.259263 
L 163.960143 301.465006 
" style="fill:none;stroke:#000000;stroke-linecap:square;stroke-width:1.5;"/>
   </g>
  </g>
 </g>
 <defs>
  <clipPath id="pa8f1a06632">
   <rect height="525.6" width="725.76" x="0" y="0"/>
  </clipPath>
 </defs>
</svg>
