<?xml version="1.0" encoding="utf-8" standalone="no"?>
<!DOCTYPE svg PUBLIC "-//W3C//DTD SVG 1.1//EN"
  "http://www.w3.org/Graphics/SVG/1.1/DTD/svg11.dtd">
<!-- Created with matplotlib (https://matplotlib.org/) -->
<svg height="324pt" version="1.1" viewBox="0 0 540 324" width="540pt" xmlns="http://www.w3.org/2000/svg" xmlns:xlink="http://www.w3.org/1999/xlink">
 <defs>
  <style type="text/css">
*{stroke-linecap:butt;stroke-linejoin:round;}
  </style>
 </defs>
 <g id="figure_1">
  <g><image xlink:href="../../img/cb/commonshrew_cor_cell.json.cb-50%25.png" width="540.0px" height="324.0px"/></g>

  <g id="patch_1">
   <path d="M 0 324 
L 540 324 
L 540 0 
L 0 0 
z
" style="fill:none;"/>
  </g>
  <g id="axes_1">
   <g id="line2d_1">
    <path clip-path="url(#p8e075175ad)" d="M 387.95031 137.962732 
L 380.683228 143.552795 
L 375.093169 151.37888 
L 375.652172 157.527952 
L 373.975153 164.795029 
L 371.739132 173.73913 
L 368.944097 182.124223 
L 370.621116 192.186335 
L 375.652172 196.09938 
L 386.832299 196.09938 
L 398.57143 194.422361 
L 407.515531 188.832298 
L 410.869568 178.770186 
L 408.074533 167.031056 
L 403.043477 158.086955 
L 399.68944 147.465841 
L 398.57143 139.080748 
L 387.95031 137.962732 
" style="fill:none;stroke:#000000;stroke-linecap:square;stroke-width:1.5;"/>
   </g>
   <g id="line2d_2">
    <path clip-path="url(#p8e075175ad)" d="M 250.993787 63.614905 
L 240.372673 66.40994 
L 229.192546 70.881988 
L 219.689442 76.472051 
L 209.62733 82.621118 
L 200.124221 89.329192 
L 191.180126 94.919256 
L 179.999998 98.273293 
L 168.819876 103.304349 
L 158.757764 106.099378 
L 148.695653 111.130434 
L 140.31056 117.279506 
L 135.838512 123.98758 
L 138.074533 134.049692 
L 156.521738 124.546583 
L 165.465839 116.16149 
L 177.204969 109.453415 
L 186.708073 107.776397 
L 197.8882 106.099378 
L 205.714285 108.894407 
L 204.037267 119.515527 
L 194.534163 118.397516 
L 184.472051 121.751554 
L 186.14907 112.248445 
L 179.440996 113.925463 
L 167.701865 118.956524 
L 158.757764 124.546583 
L 148.695653 131.254657 
L 141.42857 137.403729 
L 144.223605 145.229814 
L 152.608698 150.819878 
L 162.67081 160.881989 
L 173.850932 158.645963 
L 185.590062 154.732918 
L 197.8882 147.465841 
L 208.509314 146.906833 
L 222.484471 146.347825 
L 234.223601 148.024843 
L 243.72671 150.819878 
L 258.819878 149.142859 
L 270.559008 148.024843 
L 287.888197 145.229814 
L 299.068324 143.552795 
L 311.366457 143.552795 
L 323.664595 145.229814 
L 335.403725 148.024843 
L 333.726707 140.198758 
L 340.434781 146.906833 
L 348.260872 150.26087 
L 360.000002 145.229814 
L 368.385095 135.72671 
L 371.739132 120.633543 
L 365.031058 111.689442 
L 351.614909 104.42236 
L 340.434781 97.714285 
L 326.45963 91.565219 
L 311.366457 84.857144 
L 297.391306 74.236025 
L 283.975157 67.52795 
L 271.677019 64.732921 
L 261.055899 63.055903 
L 250.993787 63.614905 
" style="fill:none;stroke:#000000;stroke-linecap:square;stroke-width:1.5;"/>
   </g>
   <g id="line2d_3">
    <path clip-path="url(#p8e075175ad)" d="M 121.863355 149.701862 
L 112.919254 153.614907 
L 112.360246 164.236027 
L 109.006209 179.329194 
L 105.652172 193.304345 
L 110.124225 204.484473 
L 119.627329 210.074537 
L 129.130432 210.633539 
L 137.515531 207.83851 
L 146.459626 206.720494 
L 151.490682 197.776399 
L 148.136645 188.832298 
L 144.782608 181.006213 
L 133.043477 178.211178 
L 139.192549 177.652175 
L 144.782608 175.975157 
L 147.018634 165.913045 
L 142.546586 155.850934 
L 133.043477 148.024843 
L 121.863355 149.701862 
" style="fill:none;stroke:#000000;stroke-linecap:square;stroke-width:1.5;"/>
   </g>
  </g>
 </g>
 <defs>
  <clipPath id="p8e075175ad">
   <rect height="324" width="540" x="0" y="0"/>
  </clipPath>
 </defs>
</svg>
