<?xml version="1.0" encoding="utf-8" standalone="no"?>
<!DOCTYPE svg PUBLIC "-//W3C//DTD SVG 1.1//EN"
  "http://www.w3.org/Graphics/SVG/1.1/DTD/svg11.dtd">
<!-- Created with matplotlib (https://matplotlib.org/) -->
<svg height="414.72pt" version="1.1" viewBox="0 0 570.24 414.72" width="570.24pt" xmlns="http://www.w3.org/2000/svg" xmlns:xlink="http://www.w3.org/1999/xlink">
 <defs>
  <style type="text/css">
*{stroke-linecap:butt;stroke-linejoin:round;}
  </style>
 </defs>
 <g id="figure_1">
  <g><image xlink:href="../../img/cb/deer_cor_cell.json.cb-50%25.png" width="570.24px" height="414.71999999999997px"/></g>

  <g id="patch_1">
   <path d="M 0 414.72 
L 570.24 414.72 
L 570.24 0 
L 0 0 
z
" style="fill:none;"/>
  </g>
  <g id="axes_1">
   <g id="line2d_1">
    <path clip-path="url(#p49b75cc2f7)" d="M 426.579385 168.992517 
L 426.153251 166.222628 
L 425.72711 163.772335 
L 425.72711 161.535118 
L 425.514046 159.191363 
L 425.087906 157.593351 
L 424.448701 155.888801 
L 424.022566 154.503854 
L 424.022566 152.799309 
L 423.596426 151.094759 
L 423.063753 149.603279 
L 421.998414 148.218332 
L 421.146139 147.152987 
L 419.867729 146.513782 
L 418.056647 147.259525 
L 416.778232 148.537934 
L 415.712892 149.390209 
L 414.434477 151.094759 
L 413.369137 153.118912 
L 412.836465 154.397321 
L 412.41033 155.782269 
L 412.41033 157.167211 
L 412.623394 158.339088 
L 413.795272 159.404433 
L 415.286752 160.15017 
L 417.097834 161.428586 
L 418.269711 161.85472 
L 418.802384 163.13313 
L 419.015454 164.091943 
L 417.950109 162.706995 
L 416.032494 161.748188 
L 415.180219 162.067791 
L 414.114874 161.748188 
L 413.156067 161.002445 
L 411.664587 161.002445 
L 410.599242 161.64165 
L 409.746973 162.706995 
L 409.42737 163.985405 
L 409.42737 164.731148 
L 408.468557 165.476885 
L 407.935885 166.7553 
L 407.72282 167.927172 
L 407.29668 168.885985 
L 407.616282 170.270927 
L 409.320832 170.803599 
L 410.70578 171.01667 
L 409.640435 171.655874 
L 408.362025 171.549342 
L 407.083615 171.549342 
L 405.698668 171.868945 
L 405.059463 172.614682 
L 405.698668 174.212699 
L 406.01827 175.810712 
L 406.657475 176.769519 
L 405.379065 177.195659 
L 403.781048 177.941396 
L 401.863433 178.260999 
L 400.691556 178.793671 
L 401.011158 180.924356 
L 401.756901 183.05504 
L 402.502638 184.653058 
L 401.863433 185.185731 
L 400.265421 185.505333 
L 399.413146 186.038 
L 398.987006 187.52948 
L 398.667403 189.340568 
L 398.880474 191.045112 
L 399.093544 192.43006 
L 400.585024 192.749662 
L 402.715708 192.962732 
L 404.846393 193.175797 
L 407.72282 193.92154 
L 411.558055 194.454212 
L 414.860617 195.093417 
L 418.056647 196.158762 
L 421.998414 197.650242 
L 426.259783 199.887459 
L 429.242743 201.059336 
L 430.62769 200.739734 
L 430.62769 198.609049 
L 430.521158 196.478365 
L 430.20155 194.773815 
L 430.521158 193.708469 
L 430.84076 191.897387 
L 430.947293 190.192837 
L 430.20155 188.807895 
L 428.603538 187.103345 
L 430.308088 187.422948 
L 430.20155 185.185731 
L 429.988485 182.948508 
L 430.20155 180.924356 
L 430.20155 178.900203 
L 429.242743 176.982589 
L 429.455813 175.491109 
L 429.455813 173.680027 
L 428.71007 171.975477 
L 428.070865 170.590529 
L 427.751263 169.31212 
L 425.620578 169.52519 
L 426.579385 168.992517 
" style="fill:none;stroke:#000000;stroke-linecap:square;stroke-width:1.5;"/>
   </g>
   <g id="line2d_2">
    <path clip-path="url(#p49b75cc2f7)" d="M 190.950401 182.942532 
L 193.106188 193.180712 
L 193.49565 198.048971 
L 193.49565 201.359391 
L 192.716731 204.47508 
L 191.353618 205.44873 
L 190.964155 203.890886 
L 192.522 202.13831 
L 192.716731 199.606815 
L 192.522 196.296395 
L 192.132537 194.349094 
L 190.964155 192.79125 
L 189.990505 194.738557 
L 188.822117 196.296395 
L 186.680085 197.85424 
L 184.732778 199.606815 
L 182.006552 200.969928 
L 180.253976 202.333042 
L 176.554099 204.669811 
L 174.801524 205.643461 
L 172.659491 206.617112 
L 168.180689 206.811843 
L 170.322722 205.838193 
L 173.243679 205.253999 
L 178.501406 202.333042 
L 182.590745 200.38574 
L 187.459004 196.491127 
L 189.406311 194.738557 
L 190.18523 193.180712 
L 190.769424 191.038674 
L 189.990505 189.091373 
L 189.016848 187.144066 
L 187.069547 185.780953 
L 185.316972 185.002028 
L 182.980208 185.002028 
L 179.864519 185.975684 
L 177.52775 187.338797 
L 174.606792 189.286099 
L 170.517453 191.233405 
L 167.985958 193.180712 
L 164.09135 197.07532 
L 163.312425 198.438433 
L 162.533506 201.359391 
L 162.533506 204.864536 
L 163.507156 210.901183 
L 164.286081 214.211603 
L 165.649194 217.327291 
L 169.15434 218.495673 
L 172.854222 220.442974 
L 175.385717 223.948126 
L 177.917212 228.232196 
L 179.475057 230.374229 
L 176.164637 227.063814 
L 173.633142 224.142857 
L 172.075297 222.779744 
L 170.322722 222.974475 
L 169.15434 224.921776 
L 168.570152 227.648002 
L 168.570152 230.958422 
L 168.764883 234.463568 
L 169.349071 238.552913 
L 172.075297 240.110752 
L 175.190986 240.694945 
L 178.501406 241.084408 
L 181.81182 242.447521 
L 178.111944 242.25279 
L 174.412067 241.863327 
L 170.712184 240.889677 
L 167.207039 240.305483 
L 162.728237 240.500214 
L 159.223086 241.279139 
L 157.081053 244.200097 
L 158.054704 247.705242 
L 160.391468 250.820931 
L 163.896619 252.768238 
L 167.207039 253.157694 
L 171.491109 251.989313 
L 167.012307 254.326076 
L 166.038651 257.247034 
L 168.764883 259.389072 
L 171.880566 260.362722 
L 174.606792 259.97326 
L 176.164637 258.804878 
L 177.722481 260.752185 
L 181.032901 263.088949 
L 183.759127 263.28368 
L 186.874816 261.920567 
L 189.21158 259.97326 
L 190.574693 257.636496 
L 190.964155 253.741888 
L 193.690381 253.936619 
L 197.195527 253.547157 
L 200.116484 251.794581 
L 202.258523 250.236737 
L 206.932056 248.678893 
L 212.189777 247.705242 
L 219.005342 247.510511 
L 224.847257 246.731591 
L 228.157677 246.147398 
L 232.052285 247.121054 
L 235.167974 246.926323 
L 245.488685 250.042006 
L 251.135869 249.84728 
L 255.419939 248.094705 
L 258.594944 244.200097 
L 262.489552 240.694945 
L 267.163085 237.773988 
L 271.057693 236.605606 
L 276.120689 234.074111 
L 280.988948 232.710998 
L 286.246669 232.710998 
L 290.141283 231.737342 
L 297.735767 231.737342 
L 302.214569 232.516267 
L 307.277565 234.85303 
L 313.314205 238.747638 
L 319.545583 242.058058 
L 322.271809 246.926323 
L 326.555879 251.405125 
L 333.371445 252.378775 
L 337.850247 251.989313 
L 343.49743 251.989313 
L 349.144614 250.6262 
L 355.765448 249.652549 
L 367.059816 250.820931 
L 371.003835 252.04072 
L 374.170697 252.644433 
L 376.507461 254.591734 
L 379.623149 254.591734 
L 383.128301 253.618083 
L 378.84423 255.56539 
L 379.038961 257.902154 
L 381.375725 260.044186 
L 384.101951 262.965144 
L 388.191291 265.886101 
L 391.891173 267.833408 
L 395.006856 267.638677 
L 396.954163 266.275564 
L 397.343625 263.549338 
L 397.343625 261.017843 
L 395.59105 258.291616 
L 392.28063 254.981197 
L 395.396319 256.928503 
L 396.5647 258.875805 
L 398.317276 260.433649 
L 400.069852 260.62838 
L 402.211884 260.62838 
L 399.290927 261.602031 
L 398.122545 263.354606 
L 397.538357 265.69137 
L 397.538357 268.222871 
L 400.264583 269.780709 
L 403.18554 270.364903 
L 404.743385 269.975441 
L 407.469611 271.143828 
L 410.974756 271.533285 
L 413.506251 269.196521 
L 415.64829 265.107182 
L 416.62194 261.991493 
L 416.427209 259.265267 
L 414.869365 256.539041 
L 412.727332 255.370659 
L 409.806375 254.981197 
L 407.664336 254.397003 
L 404.93811 253.03389 
L 408.832724 253.618083 
L 412.33787 254.981197 
L 416.037752 255.370659 
L 418.374516 252.839158 
L 419.153435 249.723475 
L 419.542898 246.607787 
L 417.595591 243.88156 
L 414.479908 241.350066 
L 411.753682 239.792221 
L 409.222181 239.59749 
L 407.080148 240.181678 
L 404.597341 241.505844 
L 405.522304 240.765872 
L 408.637993 239.208027 
L 410.390568 237.260721 
L 411.55895 234.534494 
L 412.33787 231.808268 
L 412.532601 228.887311 
L 411.948407 227.134741 
L 410.001106 226.745278 
L 407.469611 227.718929 
L 404.353922 229.471504 
L 398.317276 233.171381 
L 402.211884 229.860967 
L 408.832724 224.992703 
L 411.55895 223.240127 
L 415.064096 222.655939 
L 419.153435 221.682288 
L 422.269124 217.787675 
L 424.605887 215.435007 
L 425.969006 213.487706 
L 427.526845 210.956205 
L 429.668883 208.42471 
L 430.253071 204.919565 
L 429.863614 202.582795 
L 426.747926 200.830225 
L 422.074393 198.688187 
L 417.206134 197.130343 
L 413.116795 195.572498 
L 408.443262 194.98831 
L 400.848771 193.625197 
L 398.706739 193.430466 
L 396.5647 196.351423 
L 395.59105 198.882918 
L 394.033205 201.219682 
L 393.254286 204.14064 
L 392.085899 202.38807 
L 392.864824 198.688187 
L 393.059555 194.793579 
L 395.396319 187.199089 
L 396.759432 183.304481 
L 398.90147 178.825679 
L 400.459314 175.904721 
L 402.601347 172.399576 
L 404.159191 169.478618 
L 410.793785 158.09957 
L 412.741086 153.231306 
L 415.077856 149.726155 
L 415.856775 144.857896 
L 415.662044 139.794901 
L 413.520011 134.342448 
L 411.767436 128.889996 
L 409.625398 125.190119 
L 403.783488 117.985091 
L 400.473068 114.869402 
L 397.398648 113.185609 
L 395.256615 111.627765 
L 393.698771 111.822496 
L 390.972545 110.459383 
L 387.467394 110.06992 
L 384.156974 109.485732 
L 381.236016 109.875189 
L 378.704521 110.848845 
L 377.925602 112.990878 
L 377.925602 114.938185 
L 379.678178 117.46968 
L 381.82021 120.780099 
L 385.13063 124.479976 
L 388.830507 127.985127 
L 391.556733 131.295542 
L 393.114577 133.827037 
L 394.088228 136.163806 
L 394.672422 139.47422 
L 395.840804 145.316135 
L 394.088228 140.642608 
L 393.114577 137.72165 
L 391.946196 134.605962 
L 389.998889 131.685004 
L 388.051587 129.348241 
L 386.493743 126.81674 
L 383.962248 123.701057 
L 381.82021 122.143213 
L 377.730871 117.080217 
L 376.367758 114.353991 
L 374.809913 111.822496 
L 372.278418 110.264651 
L 368.38381 109.680458 
L 364.683928 109.875189 
L 361.373514 110.848845 
L 359.036744 112.40669 
L 357.4789 114.548722 
L 356.894712 118.248599 
L 358.452556 120.001174 
L 360.78932 120.974825 
L 358.842013 120.974825 
L 357.089443 122.143213 
L 356.69998 123.506326 
L 357.673631 125.648358 
L 359.620938 127.400934 
L 361.957702 129.348241 
L 367.215423 133.048117 
L 371.694225 136.553263 
L 376.367758 140.642608 
L 380.067634 144.537216 
L 383.378054 148.431824 
L 387.272662 153.300088 
L 378.120333 143.758291 
L 374.809913 139.863683 
L 370.720574 136.358537 
L 365.85231 132.658655 
L 362.541895 130.516622 
L 360.205126 128.764047 
L 357.4789 128.179853 
L 355.336867 129.542966 
L 354.752674 131.100811 
L 355.72633 133.43758 
L 362.931352 143.174103 
L 366.241772 146.484517 
L 370.720574 151.15805 
L 374.420451 154.079008 
L 378.899253 156.415771 
L 384.351705 160.894573 
L 385.520087 162.452418 
L 382.404404 160.310385 
L 379.872903 159.53146 
L 377.925602 160.115654 
L 377.341408 163.231343 
L 377.146677 166.541757 
L 379.288715 172.578403 
L 374.809913 163.036611 
L 374.030994 160.310385 
L 374.809913 156.999965 
L 373.252069 154.273739 
L 371.499493 152.131701 
L 368.578536 149.794937 
L 367.020697 147.84763 
L 364.683928 145.705598 
L 362.347164 143.953022 
L 360.205126 144.147753 
L 356.69998 146.484517 
L 355.142136 148.821287 
L 354.947405 150.963319 
L 356.115787 154.273739 
L 357.673631 156.999965 
L 357.868362 159.53146 
L 361.373514 162.647149 
L 364.09974 166.1523 
L 369.941649 171.410021 
L 365.462853 167.90487 
L 364.489197 169.073252 
L 364.09974 172.967866 
L 363.905008 170.046908 
L 363.905008 166.931219 
L 362.736627 164.594456 
L 360.205126 162.257686 
L 358.063094 160.699842 
L 356.310518 160.115654 
L 352.221179 163.231343 
L 354.752674 159.53146 
L 355.72633 156.805234 
L 355.142136 154.273739 
L 353.779023 152.131701 
L 351.636985 150.379131 
L 346.768726 148.626555 
L 352.026447 149.210749 
L 353.779023 148.431824 
L 354.947405 146.679248 
L 357.4789 145.316135 
L 359.231475 143.563565 
L 359.620938 141.81099 
L 358.257825 139.279495 
L 354.363217 134.605962 
L 352.026447 132.658655 
L 348.521302 132.853386 
L 345.795076 134.41123 
L 343.653038 137.526919 
L 345.016151 134.021768 
L 347.742377 132.269192 
L 350.858066 131.295542 
L 349.884415 129.737697 
L 346.963457 128.764047 
L 344.431963 128.179853 
L 342.874118 127.206202 
L 340.537349 126.037821 
L 337.836493 124.855679 
L 333.357691 123.882028 
L 330.631465 122.518915 
L 327.321045 122.518915 
L 321.089667 121.545265 
L 311.158413 120.376883 
L 306.290154 119.98742 
L 303.953391 119.403226 
L 304.148116 118.234845 
L 302.590278 116.677 
L 298.306207 115.313887 
L 290.127523 114.145505 
L 283.311957 113.561312 
L 276.691123 113.950774 
L 273.185972 115.313887 
L 269.486095 118.624307 
L 266.370406 121.934721 
L 269.096632 123.882028 
L 272.01759 125.05041 
L 277.275311 127.581905 
L 282.727769 129.334481 
L 287.206565 130.502863 
L 280.001537 129.334481 
L 275.32801 127.192448 
L 266.9546 124.07676 
L 264.228374 124.271491 
L 260.528491 126.802986 
L 258.191728 128.945024 
L 256.633883 130.697594 
L 255.465501 134.786933 
L 255.854964 129.723943 
L 255.27077 127.38718 
L 257.802265 125.439873 
L 261.696873 123.297835 
L 265.202024 120.961071 
L 269.096632 117.845382 
L 276.30166 111.808742 
L 278.638424 108.30359 
L 279.806812 104.408982 
L 278.248967 101.098562 
L 274.938547 99.540718 
L 270.849208 100.514374 
L 267.538788 101.877487 
L 264.033642 104.603714 
L 261.502148 106.745746 
L 258.775916 110.445629 
L 254.686576 116.287538 
L 256.244421 112.003467 
L 259.554841 107.719402 
L 263.449449 104.01952 
L 268.70717 99.735449 
L 274.159628 97.398686 
L 278.054236 95.256647 
L 280.435176 93.47678 
L 284.326876 92.111306 
L 288.610947 91.332381 
L 291.142447 90.358731 
L 291.921367 88.606155 
L 289.584603 85.685198 
L 285.88472 84.711547 
L 282.379575 84.516816 
L 277.51131 84.906278 
L 273.032509 86.853579 
L 268.16425 89.190349 
L 260.375028 94.44807 
L 265.827486 89.38508 
L 268.16425 86.853579 
L 270.890476 84.322084 
L 273.616702 81.401127 
L 276.53766 79.648551 
L 281.405919 79.259095 
L 287.053108 78.48017 
L 292.50556 77.506519 
L 301.852621 74.975024 
L 297.763281 74.196099 
L 293.089748 74.001368 
L 287.053108 72.638255 
L 281.016462 72.054067 
L 281.795381 68.938378 
L 281.795381 65.238501 
L 278.095504 67.964727 
L 271.864127 71.859335 
L 267.190599 74.975024 
L 262.322335 77.895982 
L 259.206646 80.232745 
L 255.701501 83.932622 
L 252.975275 87.048311 
L 251.027968 91.527113 
L 250.249048 98.147947 
L 247.717548 107.88447 
L 246.159703 111.973815 
L 245.770247 115.089498 
L 247.13336 116.842073 
L 246.549166 118.399918 
L 243.433477 120.152493 
L 240.51252 122.683988 
L 238.954681 125.604946 
L 238.75995 128.525903 
L 237.981025 132.031049 
L 236.228449 135.341469 
L 235.060067 138.457157 
L 235.644261 142.157034 
L 236.99147 143.953022 
L 242.249197 143.174103 
L 244.39123 142.005721 
L 245.754343 140.447877 
L 246.727993 136.553263 
L 246.727993 139.47422 
L 245.36488 141.81099 
L 241.859735 144.537216 
L 241.08081 146.289792 
L 240.30189 150.573862 
L 240.107159 152.521163 
L 239.32824 155.636852 
L 236.99147 158.752541 
L 239.32824 154.273739 
L 239.717696 149.405475 
L 239.717696 147.84763 
L 238.744046 146.09506 
L 237.186202 145.121404 
L 235.044169 145.705598 
L 232.902131 147.458173 
L 231.149555 149.210749 
L 229.202254 151.742244 
L 226.670759 156.026315 
L 227.64441 159.53146 
L 229.007523 165.568106 
L 227.64441 167.320682 
L 228.228598 164.789181 
L 227.254947 159.53146 
L 226.476028 157.194696 
L 225.112915 156.026315 
L 223.555071 156.415771 
L 221.413032 157.973616 
L 219.660462 160.115654 
L 216.544774 163.231343 
L 218.686806 160.505116 
L 220.828844 158.168347 
L 223.555071 155.831583 
L 226.086565 153.884276 
L 228.423329 151.15805 
L 229.786442 147.652905 
L 231.92848 145.705598 
L 233.486325 138.890032 
L 235.433626 135.774344 
L 236.01782 132.853386 
L 236.01782 129.932429 
L 235.2389 127.011471 
L 233.096862 127.206202 
L 229.591717 128.764047 
L 226.476028 130.711354 
L 223.360339 132.463924 
L 220.244651 134.605962 
L 218.102618 136.553263 
L 215.181661 139.668952 
L 213.623816 143.758291 
L 212.650166 147.458173 
L 212.455434 150.379131 
L 211.676509 153.494814 
L 210.508128 156.999965 
L 209.145014 159.141998 
L 209.534477 155.442121 
L 210.313396 153.689545 
L 210.118665 151.15805 
L 209.145014 150.1844 
L 209.923934 148.431824 
L 211.676509 146.87398 
L 213.039623 144.147753 
L 213.818548 141.226796 
L 214.792198 138.305839 
L 210.508128 139.279495 
L 215.765849 136.942725 
L 218.492075 135.19015 
L 229.591717 127.400934 
L 234.654707 123.506326 
L 238.549315 119.222255 
L 241.470272 115.717104 
L 244.39123 113.769803 
L 245.949074 110.264651 
L 247.506918 106.175312 
L 249.454219 97.996634 
L 248.091106 97.217709 
L 245.754343 99.554478 
L 241.665003 103.254355 
L 240.496622 105.201662 
L 238.938777 106.564775 
L 237.186202 105.00693 
L 235.823088 102.475435 
L 233.096862 99.554478 
L 229.396985 98.580822 
L 226.086565 98.580822 
L 224.139259 100.138666 
L 223.360339 101.69651 
L 222.970877 103.643817 
L 223.944533 105.591118 
L 221.802495 105.201662 
L 219.465731 105.396387 
L 216.544774 107.343694 
L 215.376392 108.901538 
L 214.402736 110.654114 
L 214.402736 112.796146 
L 217.128962 114.548722 
L 213.234354 112.990878 
L 209.923934 113.575071 
L 206.808251 116.106566 
L 205.834595 118.44333 
L 205.834595 120.195906 
L 208.171364 121.75375 
L 205.250406 121.169556 
L 202.913637 122.337944 
L 200.966336 124.285245 
L 199.797954 126.622009 
L 199.21376 129.542966 
L 199.019029 132.463924 
L 197.850647 133.827037 
L 196.292803 135.384881 
L 195.708609 137.137457 
L 194.540227 140.253145 
L 193.566577 142.395178 
L 194.15077 138.695301 
L 195.708609 132.463924 
L 195.513883 130.12716 
L 194.540227 127.400934 
L 192.787657 126.232552 
L 190.450888 126.232552 
L 187.335199 128.179853 
L 185.582629 130.12716 
L 184.414242 132.269192 
L 183.635322 134.605962 
L 182.856403 137.526919 
L 182.466941 140.447877 
L 182.856403 143.368834 
L 185.193167 149.210749 
L 183.24586 146.289792 
L 181.882747 142.395178 
L 181.882747 139.47422 
L 182.272209 136.163806 
L 183.24586 132.853386 
L 185.972086 128.374584 
L 188.503587 126.622009 
L 192.398195 124.674708 
L 196.682265 121.948481 
L 200.187411 119.222255 
L 203.692562 116.69076 
L 207.197708 113.964528 
L 210.118665 111.433033 
L 213.623816 108.901538 
L 215.765849 105.980581 
L 216.544774 103.059623 
L 215.571117 101.307048 
L 213.429085 100.138666 
L 210.508128 100.333397 
L 207.669707 100.193694 
L 204.748749 99.6095 
L 200.65941 99.6095 
L 196.375339 100.777882 
L 192.870194 103.504108 
L 191.701806 105.451415 
L 190.143962 107.593448 
L 188.586123 109.540755 
L 187.807198 111.098599 
L 186.054623 113.435363 
L 184.107321 114.798476 
L 181.770552 116.161589 
L 182.744208 118.693084 
L 183.91259 121.029853 
L 181.770552 121.224584 
L 178.849595 120.250928 
L 175.928637 120.835122 
L 173.786605 122.392966 
L 171.449841 125.313924 
L 169.502534 128.819069 
L 168.528884 132.713683 
L 166.386845 135.439909 
L 164.63427 138.945055 
L 163.660619 143.813319 
L 163.660619 148.681578 
L 166.581577 157.833913 
L 168.723615 161.728521 
L 171.644572 165.81786 
L 174.954987 168.738817 
L 178.265407 171.270312 
L 182.744208 173.41235 
L 186.638816 174.386001 
L 188.586123 175.359652 
L 190.177572 178.458957 
L 190.950401 182.942532 
L 190.950401 182.942532 
" style="fill:none;stroke:#000000;stroke-linecap:square;stroke-width:1.5;"/>
   </g>
   <g id="line2d_3">
    <path clip-path="url(#p49b75cc2f7)" d="M 403.783637 242.156801 
L 402.406615 243.686829 
L 399.680389 244.66048 
L 396.5647 244.271023 
L 398.122545 244.076292 
L 401.043502 243.297367 
L 403.574997 242.323716 
L 403.783637 242.156801 
" style="fill:none;stroke:#000000;stroke-linecap:square;stroke-width:1.5;"/>
   </g>
   <g id="line2d_4">
    <path clip-path="url(#p49b75cc2f7)" d="M 267.937956 175.513907 
L 270.704544 174.640248 
L 276.383336 173.912194 
L 281.188469 173.766584 
L 287.158477 173.766584 
L 294.584587 173.912194 
L 305.359728 173.620979 
L 311.766568 174.349027 
L 317.882193 175.805129 
L 314.533162 175.368297 
L 303.175578 174.203416 
L 296.914348 174.349027 
L 289.92507 174.203416 
L 279.877978 174.494638 
L 272.160646 174.931464 
L 267.937956 175.513907 
" style="fill:none;stroke:#000000;stroke-linecap:square;stroke-width:1.5;"/>
   </g>
   <g id="line2d_5">
    <path clip-path="url(#p49b75cc2f7)" d="M 273.907964 153.963625 
L 276.965779 153.526793 
L 282.49896 153.089966 
L 287.449698 152.944356 
L 295.16703 152.798745 
L 298.952888 152.944356 
L 301.865092 153.235571 
L 305.068512 153.818015 
L 309.436813 154.400452 
L 312.640233 155.274117 
L 307.252662 154.400452 
L 303.758021 154.109236 
L 301.137038 153.381182 
L 297.20557 153.381182 
L 294.438976 153.235571 
L 291.381167 153.235571 
L 284.246278 153.381182 
L 281.042858 153.672404 
L 273.907964 153.963625 
L 273.907964 153.963625 
" style="fill:none;stroke:#000000;stroke-linecap:square;stroke-width:1.5;"/>
   </g>
   <g id="line2d_6">
    <path clip-path="url(#p49b75cc2f7)" d="M 285.23175 82.542 
L 287.957976 84.29457 
L 290.878934 85.852415 
L 292.436778 87.994453 
L 292.82624 90.136485 
L 296.91558 92.083792 
L 301.19965 93.252174 
L 307.820485 94.615287 
L 312.688749 95.588938 
L 316.583357 96.757325 
L 320.477965 97.925707 
L 325.930417 99.873008 
L 331.38287 102.209778 
L 336.056403 104.741273 
L 340.145742 107.272768 
L 344.624544 110.583188 
L 347.545501 113.309414 
L 349.492808 115.840909 
L 349.68754 118.761866 
L 348.129695 119.735517 
L 346.182388 118.372404 
L 343.845625 115.451446 
L 341.508855 112.530489 
L 338.198441 109.804263 
L 334.109102 106.68858 
L 329.6303 104.157079 
L 325.540961 102.015046 
L 321.841078 99.873008 
L 316.972819 98.31517 
L 313.272937 97.536245 
L 310.546711 97.341513 
L 306.846834 96.367863 
L 303.341683 94.810018 
L 298.278693 93.836368 
L 292.436778 92.473255 
L 288.736901 92.473255 
L 285.815944 92.862712 
L 282.894986 93.641637 
L 280.947679 94.810018 
L 279.000378 96.562594 
L 277.831991 98.31517 
L 279.389835 100.651933 
L 282.894986 102.59924 
L 287.957976 103.767622 
L 294.968273 105.130735 
L 300.031268 106.299117 
L 305.483721 107.856961 
L 311.909824 109.414806 
L 317.94647 110.583188 
L 309.183598 109.414806 
L 302.757495 107.66223 
L 296.91558 106.299117 
L 292.82624 105.520192 
L 288.152707 104.546541 
L 283.479174 104.157079 
L 280.558217 105.520192 
L 279.389835 108.246424 
L 280.558217 110.583188 
L 282.894986 112.335763 
L 286.789594 113.114682 
L 291.463127 113.893608 
L 296.91558 114.477796 
L 303.146952 116.03564 
L 305.873183 117.788216 
L 309.767791 118.177672 
L 313.662399 118.567135 
L 319.309583 119.930248 
L 323.788385 121.09863 
L 327.488262 121.488092 
L 330.60395 122.072286 
L 334.109102 123.240668 
L 338.782629 124.214319 
L 343.0667 124.993244 
L 346.766582 124.214319 
L 349.68754 123.435399 
L 352.219035 123.824856 
L 355.139992 123.824856 
L 356.308374 122.267017 
L 357.282024 120.319711 
L 356.113643 118.372404 
L 356.308374 115.646177 
L 357.087293 114.283064 
L 352.803223 111.751569 
L 349.298077 108.246424 
L 348.519152 105.520192 
L 346.37712 102.404509 
L 343.845625 99.483551 
L 341.898318 96.562594 
L 340.340473 94.420556 
L 340.535205 92.278523 
L 337.224785 89.747029 
L 331.188144 86.241877 
L 328.461918 84.489302 
L 323.593654 81.763075 
L 320.088502 80.205231 
L 316.583357 78.647387 
L 311.520367 77.868467 
L 307.041565 77.479005 
L 301.783838 77.868467 
L 298.083962 78.063199 
L 295.552467 78.647387 
L 293.020972 78.647387 
L 290.878934 78.452661 
L 287.957976 79.036849 
L 285.815944 79.815774 
L 284.258099 80.984156 
L 285.23175 82.542 
" style="fill:none;stroke:#000000;stroke-linecap:square;stroke-width:1.5;"/>
   </g>
   <g id="line2d_7">
    <path clip-path="url(#p49b75cc2f7)" d="M 294.57881 65.60045 
L 291.463127 67.547751 
L 290.489471 69.88452 
L 292.436778 70.858171 
L 296.720849 71.247633 
L 301.589113 71.63709 
L 304.704796 72.610746 
L 308.794135 73.973859 
L 315.414975 75.336972 
L 320.672696 76.310623 
L 324.956767 75.336972 
L 326.31988 72.221284 
L 323.788385 69.300326 
L 320.088502 66.768831 
L 315.414975 64.626793 
L 312.688749 63.847874 
L 309.57306 63.653143 
L 306.652103 63.26368 
L 303.536414 63.458411 
L 299.641806 64.042605 
L 294.57881 65.60045 
" style="fill:none;stroke:#000000;stroke-linecap:square;stroke-width:1.5;"/>
   </g>
   <g id="line2d_8">
    <path clip-path="url(#p49b75cc2f7)" d="M 305.678452 62.095298 
L 310.157248 62.484761 
L 314.246593 63.458411 
L 318.335933 63.847874 
L 320.477965 62.484761 
L 319.504314 59.563803 
L 316.193894 56.058652 
L 312.688749 54.89027 
L 309.57306 54.500813 
L 306.846834 54.89027 
L 304.315339 55.863927 
L 302.562763 57.811228 
L 302.368032 59.758535 
L 303.731145 61.51111 
L 305.678452 62.095298 
" style="fill:none;stroke:#000000;stroke-linecap:square;stroke-width:1.5;"/>
   </g>
   <g id="line2d_9">
    <path clip-path="url(#p49b75cc2f7)" d="M 267.314148 261.133122 
L 267.549001 263.108126 
L 266.619846 264.501855 
L 264.99383 266.708593 
L 264.413109 268.91533 
L 263.948534 271.238214 
L 263.832388 274.025673 
L 264.296968 276.580844 
L 265.342263 279.019869 
L 266.852139 280.529739 
L 266.735993 281.575035 
L 266.735993 283.665631 
L 267.316714 285.872369 
L 268.013576 287.149952 
L 268.94273 288.543681 
L 269.755739 289.472836 
L 270.684893 289.93741 
L 271.497902 293.189443 
L 272.427051 294.815466 
L 273.123918 296.673769 
L 274.169214 298.532073 
L 275.679089 300.041949 
L 277.885827 301.667966 
L 280.673286 303.526269 
L 283.228451 304.339278 
L 286.132056 305.036145 
L 289.151802 305.268432 
L 292.055401 305.268432 
L 294.494432 304.687711 
L 296.468877 303.874703 
L 299.024048 302.480974 
L 301.346932 301.319532 
L 302.748656 300.382388 
L 303.785957 299.112794 
L 304.366678 297.835212 
L 305.52812 296.441482 
L 304.831252 295.512327 
L 303.553669 295.628474 
L 302.392227 295.396187 
L 302.972948 294.815466 
L 304.13439 294.583173 
L 305.52812 294.583173 
L 306.573415 294.234745 
L 307.03799 293.654024 
L 307.154136 292.724869 
L 308.431719 291.563427 
L 309.709308 290.518131 
L 311.683752 288.775968 
L 313.658203 286.917664 
L 314.703498 285.523935 
L 314.935791 284.246352 
L 314.819645 283.201057 
L 315.516512 282.388049 
L 316.32952 281.226607 
L 316.910241 279.252156 
L 317.374816 276.929272 
L 318.420111 272.980377 
L 317.955537 269.612198 
L 316.677948 267.521601 
L 315.168078 266.592452 
L 315.981087 265.547151 
L 315.981087 263.921134 
L 315.400366 261.482109 
L 313.774349 259.275372 
L 311.567611 256.487913 
L 307.50257 252.074438 
L 301.463073 249.170839 
L 298.791761 248.009397 
L 295.539728 247.428676 
L 293.216843 247.196388 
L 290.429385 247.660963 
L 285.667476 247.428676 
L 281.254001 247.89325 
L 277.18896 249.170839 
L 274.633788 251.029142 
L 272.427051 253.003593 
L 270.801034 255.674905 
L 268.594297 258.57851 
L 267.314148 261.133122 
" style="fill:none;stroke:#000000;stroke-linecap:square;stroke-width:1.5;"/>
   </g>
   <g id="line2d_10">
    <path clip-path="url(#p49b75cc2f7)" d="M 312.173349 271.629638 
L 312.708816 271.629638 
L 312.574952 274.574717 
L 312.039479 276.047259 
L 311.10241 276.582726 
L 308.023462 276.314993 
L 303.204244 276.582726 
L 298.920487 276.448862 
L 293.967399 276.047259 
L 285.533766 274.97632 
L 281.250009 274.574717 
L 277.100128 274.440853 
L 274.021179 273.771517 
L 270.674498 273.369914 
L 270.139031 272.432844 
L 271.477704 270.826438 
L 271.879307 272.432844 
L 273.619576 273.102181 
L 279.37587 273.905381 
L 283.124154 274.17312 
L 287.675639 274.708587 
L 291.825526 275.11019 
L 296.51088 275.779526 
L 301.330098 276.047259 
L 305.747719 276.181129 
L 309.362134 275.91339 
L 311.504013 273.503784 
L 312.173349 271.629638 
" style="fill:none;stroke:#000000;stroke-linecap:square;stroke-width:1.5;"/>
   </g>
   <g id="line2d_11">
    <path clip-path="url(#p49b75cc2f7)" d="M 307.086392 285.953434 
L 309.897607 284.480898 
L 307.889598 285.953434 
L 306.818658 287.024374 
L 305.212252 287.69371 
L 302.133304 287.024374 
L 298.920487 286.75664 
L 295.707675 286.75664 
L 291.95939 286.355037 
L 284.195094 285.953434 
L 282.722551 285.953434 
L 280.31294 284.882495 
L 273.351843 282.339019 
L 276.966258 283.142225 
L 282.722551 285.417968 
L 285.533766 285.81957 
L 288.478845 285.81957 
L 292.494863 285.953434 
L 299.857562 286.355037 
L 305.479986 287.024374 
L 307.086392 285.953434 
L 307.086392 285.953434 
" style="fill:none;stroke:#000000;stroke-linecap:square;stroke-width:1.5;"/>
   </g>
   <g id="line2d_12">
    <path clip-path="url(#p49b75cc2f7)" d="M 268.362009 244.803445 
L 273.704639 245.035738 
L 277.885827 244.919591 
L 282.299302 244.455017 
L 285.202901 243.642008 
L 287.525786 242.712854 
L 288.687228 242.015986 
L 291.35854 243.642008 
L 294.262139 244.571157 
L 299.953203 246.081033 
L 304.250531 246.894041 
L 308.315578 246.661754 
L 310.98689 245.732599 
L 313.542062 243.758149 
L 314.703498 242.248279 
L 314.238924 240.38997 
L 311.799899 238.99624 
L 309.825448 238.99624 
L 307.50257 238.067091 
L 305.52812 237.02179 
L 302.856802 235.395773 
L 300.533924 234.002044 
L 298.094899 233.189036 
L 294.494432 232.724461 
L 291.823114 232.840608 
L 289.616377 233.072895 
L 286.828918 233.653616 
L 284.854468 234.815052 
L 283.344598 235.51192 
L 280.789426 236.441075 
L 278.931123 237.02179 
L 276.375951 237.602511 
L 273.240059 238.647812 
L 271.497902 239.693108 
L 269.639592 240.970691 
L 267.200567 242.828994 
L 267.432855 244.222724 
L 268.362009 244.803445 
" style="fill:none;stroke:#000000;stroke-linecap:square;stroke-width:1.5;"/>
   </g>
   <g id="line2d_13">
    <path clip-path="url(#p49b75cc2f7)" d="M 159.232004 194.136771 
L 163.417919 195.102752 
L 167.603835 192.204809 
L 170.823769 187.696902 
L 174.043703 184.476968 
L 176.297657 180.935036 
L 175.653673 177.39311 
L 172.755731 176.42713 
L 168.569815 179.647064 
L 163.739911 183.510987 
L 159.232004 186.730922 
L 157.622034 188.984875 
L 159.232004 194.136771 
" style="fill:none;stroke:#000000;stroke-linecap:square;stroke-width:1.5;"/>
   </g>
   <g id="line2d_14">
    <path clip-path="url(#p49b75cc2f7)" d="M 158.910007 174.173176 
L 161.485958 170.953242 
L 164.705892 167.41131 
L 167.281837 164.191376 
L 165.993865 160.64945 
L 163.095922 159.683469 
L 160.841969 160.327452 
L 157.944032 163.225395 
L 156.01207 167.089318 
L 155.368081 171.919223 
L 154.080108 177.715102 
L 153.436119 181.579026 
L 154.724092 187.052913 
L 157.300043 187.374905 
L 160.197985 185.442949 
L 163.739911 182.866998 
L 164.705892 181.579026 
L 167.281837 179.325072 
L 170.501777 176.749121 
L 173.077722 174.173176 
L 174.043703 170.631244 
L 173.077722 167.733308 
L 170.501777 165.801346 
L 168.247818 165.479348 
L 164.061903 169.343272 
L 158.910007 174.173176 
" style="fill:none;stroke:#000000;stroke-linecap:square;stroke-width:1.5;"/>
   </g>
   <g id="line2d_15">
    <path clip-path="url(#p49b75cc2f7)" d="M 155.302326 224.797321 
L 154.681763 226.969308 
L 154.836902 230.072144 
L 156.38832 233.174979 
L 160.266864 235.191821 
L 163.835124 235.191821 
L 165.231402 233.950688 
L 166.162251 230.537568 
L 166.317396 228.210441 
L 164.455693 226.038454 
L 161.973427 223.711328 
L 159.646301 222.470195 
L 157.008889 223.245904 
L 155.302326 224.797321 
" style="fill:none;stroke:#000000;stroke-linecap:square;stroke-width:1.5;"/>
   </g>
   <g id="line2d_16">
    <path clip-path="url(#p49b75cc2f7)" d="M 153.186445 214.406334 
L 155.71794 211.680108 
L 156.302128 210.51172 
L 158.833629 207.201306 
L 159.807279 204.669811 
L 159.612548 202.722504 
L 158.833629 200.969928 
L 157.470516 198.633165 
L 155.133746 197.464783 
L 152.796983 198.633165 
L 150.849676 200.38574 
L 149.291831 203.111967 
L 148.318181 206.032924 
L 147.928718 209.927532 
L 148.707643 213.043221 
L 150.849676 214.990522 
L 153.186445 214.406334 
" style="fill:none;stroke:#000000;stroke-linecap:square;stroke-width:1.5;"/>
   </g>
  </g>
 </g>
 <defs>
  <clipPath id="p49b75cc2f7">
   <rect height="414.72" width="570.24" x="0" y="0"/>
  </clipPath>
 </defs>
</svg>
