<?xml version="1.0" encoding="utf-8" standalone="no"?>
<!DOCTYPE svg PUBLIC "-//W3C//DTD SVG 1.1//EN"
  "http://www.w3.org/Graphics/SVG/1.1/DTD/svg11.dtd">
<!-- Created with matplotlib (https://matplotlib.org/) -->
<svg height="323.28pt" version="1.1" viewBox="0 0 518.4 323.28" width="518.4pt" xmlns="http://www.w3.org/2000/svg" xmlns:xlink="http://www.w3.org/1999/xlink">
 <defs>
  <style type="text/css">
*{stroke-linecap:butt;stroke-linejoin:round;}
  </style>
 </defs>
 <g id="figure_1">
  <g><image xlink:href="../../img/cb/elephantshrew_cor_cell.json.cb-50%25.png" width="518.4px" height="323.28px"/></g>

  <g id="patch_1">
   <path d="M 0 323.28 
L 518.4 323.28 
L 518.4 0 
L 0 0 
z
" style="fill:none;"/>
  </g>
  <g id="axes_1">
   <g id="line2d_1">
    <path clip-path="url(#p4e01e4f7f1)" d="M 417.407069 165.301322 
L 421.259476 162.171243 
L 425.352659 159.281935 
L 429.445841 156.87418 
L 433.298248 155.911081 
L 435.706004 154.707201 
L 434.983675 156.633404 
L 438.113754 159.763488 
L 443.170041 164.578993 
L 450.152526 167.949853 
L 456.412688 168.672176 
L 464.599054 169.153728 
L 469.414564 166.986749 
L 472.063096 161.930467 
L 472.544643 157.837284 
L 471.82232 152.29945 
L 469.414564 147.965492 
L 465.802934 143.631533 
L 462.67285 139.779126 
L 459.542772 137.371371 
L 457.135016 134.963615 
L 453.28261 130.14811 
L 449.911755 126.536474 
L 447.263224 123.165619 
L 443.651593 120.035541 
L 440.280733 117.868561 
L 437.150655 116.183134 
L 433.057472 115.22003 
L 428.482737 115.701582 
L 423.908008 117.387009 
L 420.296372 120.035541 
L 418.370168 123.406395 
L 416.443965 127.499578 
L 414.03621 130.388886 
L 412.832335 133.75974 
L 411.387683 138.575246 
L 409.46148 144.353861 
L 407.535277 149.410143 
L 405.609073 154.225654 
L 404.164417 158.07806 
L 402.719766 162.65279 
L 401.034338 167.227525 
L 400.793562 170.598379 
L 401.034338 172.765359 
L 403.923646 175.895442 
L 406.09062 180.710948 
L 406.331396 184.322584 
L 407.294501 186.730334 
L 410.424579 187.693438 
L 414.276986 187.452662 
L 410.906131 189.378866 
L 410.183803 192.74972 
L 408.2576 196.361356 
L 406.812948 198.287559 
L 406.812948 202.621518 
L 407.776053 209.363227 
L 411.387683 213.937962 
L 417.888622 217.308817 
L 422.704127 217.790369 
L 428.482737 217.308817 
L 434.983675 217.790369 
L 440.039962 216.586494 
L 443.651593 213.45641 
L 446.300119 210.567108 
L 447.022447 207.196248 
L 446.300119 203.825393 
L 444.13314 199.972987 
L 442.206937 197.324455 
L 440.039962 194.435153 
L 439.55841 193.231272 
L 441.484614 194.9167 
L 444.13314 198.046783 
L 446.059348 201.658414 
L 448.467099 205.751597 
L 449.911755 208.159352 
L 454.968037 209.844779 
L 461.228199 208.640904 
L 466.525257 205.992373 
L 469.896117 202.380742 
L 472.544643 199.009882 
L 475.193174 195.398252 
L 475.674727 191.786621 
L 474.952398 186.97111 
L 473.507747 182.155605 
L 472.063096 177.58087 
L 470.859216 173.487687 
L 468.692236 170.598379 
L 466.525257 169.63528 
L 462.191298 170.357609 
L 456.89424 170.357609 
L 452.560281 169.394504 
L 449.189427 168.912952 
L 445.818572 167.227525 
L 441.72539 164.578993 
L 439.076858 161.930467 
L 436.187551 159.522712 
L 434.020576 157.596508 
L 431.612821 157.114956 
L 427.519638 159.281935 
L 422.944903 161.689691 
L 417.407069 165.301322 
" style="fill:none;stroke:#000000;stroke-linecap:square;stroke-width:1.5;"/>
   </g>
   <g id="line2d_2">
    <path clip-path="url(#p4e01e4f7f1)" d="M 204.960062 128.799513 
L 206.635666 129.08681 
L 198.930852 128.605258 
L 192.67069 125.475174 
L 190.503711 121.141221 
L 188.095955 114.881058 
L 187.132856 108.620896 
L 187.373627 102.360734 
L 188.818284 89.84041 
L 188.818284 83.580248 
L 189.05906 77.801638 
L 188.577507 72.986132 
L 186.651304 68.170621 
L 184.243549 65.52209 
L 179.668814 64.799767 
L 177.020287 65.52209 
L 174.13098 68.892949 
L 172.686329 72.023028 
L 170.760125 75.634658 
L 170.037797 77.801638 
L 167.870818 76.838539 
L 163.536859 77.801638 
L 158.962129 80.450169 
L 155.59127 83.821024 
L 153.905842 85.988003 
L 152.942743 89.118087 
L 153.665066 92.488942 
L 154.868947 96.582124 
L 153.665066 99.471427 
L 152.461191 103.083062 
L 149.331108 109.343219 
L 148.608785 113.917954 
L 148.608785 119.215017 
L 152.461191 122.826648 
L 156.072822 124.993627 
L 161.851432 127.88293 
L 164.740739 128.364482 
L 166.185391 127.642154 
L 165.703838 130.290685 
L 167.389266 133.66154 
L 168.833922 137.032399 
L 171.964001 140.162478 
L 171.964001 142.570233 
L 168.593146 143.774108 
L 164.499963 146.181864 
L 160.647557 150.03427 
L 158.480577 152.442026 
L 157.435794 156.119286 
L 161.291736 158.045329 
L 156.957777 158.045329 
L 155.031574 160.453079 
L 153.105371 162.138511 
L 150.697615 164.546262 
L 148.771412 167.194793 
L 148.289865 171.0472 
L 148.289865 174.899606 
L 149.49374 178.511237 
L 154.068475 180.196669 
L 159.124757 179.955893 
L 165.384919 176.585034 
L 168.274226 173.695731 
L 171.404305 170.806424 
L 173.81206 168.398668 
L 177.755275 165.898435 
L 178.760235 167.029019 
L 181.08669 167.901434 
L 185.15798 168.773855 
L 190.683305 169.355469 
L 195.045403 171.97273 
L 200.570733 172.845151 
L 206.677672 171.97273 
L 221.217998 170.227889 
L 227.324942 171.10031 
L 232.55946 171.97273 
L 236.921558 175.753214 
L 241.283655 178.370476 
L 246.227372 182.15096 
L 251.46189 183.895801 
L 259.022863 189.421126 
L 262.221733 188.257898 
L 265.420608 185.640642 
L 273.272388 180.115317 
L 276.471258 176.916442 
L 282.869004 171.10031 
L 284.613845 169.064662 
L 286.940299 167.610628 
L 292.174817 166.447405 
L 301.189819 165.865792 
L 308.459985 164.993371 
L 315.730151 163.539337 
L 320.092254 161.503689 
L 323.291124 159.758853 
L 323.864734 158.611634 
L 324.492076 158.533216 
L 330.993009 158.051669 
L 339.200058 158.592033 
L 346.214648 158.364248 
L 355.364118 159.808899 
L 364.03203 162.216655 
L 371.255296 165.587509 
L 374.866927 168.958364 
L 377.997005 169.19914 
L 382.57174 167.272937 
L 384.497944 163.42053 
L 386.183371 159.568123 
L 386.664923 155.956493 
L 386.905699 152.826409 
L 387.868803 150.659435 
L 388.831902 148.010903 
L 388.831902 144.640049 
L 387.628027 142.232293 
L 386.183371 140.787637 
L 382.812516 140.065314 
L 387.387251 138.861434 
L 389.313454 136.69446 
L 392.724677 134.702476 
L 394.047841 129.542888 
L 395.033973 124.707439 
L 395.033973 121.577356 
L 392.385441 119.891928 
L 389.73691 119.1696 
L 383.717523 116.521074 
L 381.068997 115.798746 
L 378.661242 117.484173 
L 376.01271 119.651152 
L 373.60496 122.299684 
L 370.2341 124.466663 
L 367.344798 125.670538 
L 361.806959 126.392867 
L 367.826345 124.466663 
L 373.123408 121.818132 
L 376.01271 118.928829 
L 378.902018 116.521074 
L 378.420466 114.113318 
L 377.21659 110.020136 
L 375.531163 104.963849 
L 372.882632 99.907567 
L 370.956428 95.092056 
L 369.511777 90.035774 
L 365.418594 81.608633 
L 361.325412 75.348471 
L 366.863246 81.608633 
L 368.789449 85.461039 
L 371.197204 92.44353 
L 373.60496 98.703692 
L 377.457367 107.61238 
L 378.902018 112.187115 
L 381.309773 114.594871 
L 389.014586 118.447277 
L 393.830092 119.651152 
L 397.923275 119.1696 
L 399.608707 116.521074 
L 400.33103 111.946339 
L 400.33103 107.853156 
L 400.812583 97.740588 
L 400.33103 92.684306 
L 399.367931 88.350347 
L 397.200952 84.016388 
L 395.033973 78.478554 
L 392.144665 73.663043 
L 388.051482 69.810637 
L 383.235977 65.476678 
L 376.661897 60.262367 
L 365.831821 52.271993 
L 361.257087 49.141915 
L 356.441581 46.493383 
L 347.773663 44.807956 
L 343.439705 44.085628 
L 338.624199 43.122529 
L 332.123261 40.955549 
L 324.177671 36.862366 
L 319.121384 34.936163 
L 310.935019 29.879876 
L 309.008815 25.786693 
L 305.397185 20.971188 
L 301.544778 18.563432 
L 297.451596 16.878005 
L 295.186421 14.235814 
L 290.852462 11.828058 
L 284.351524 10.864959 
L 279.054466 10.383407 
L 273.516627 10.142631 
L 268.219569 11.105735 
L 264.126386 11.346506 
L 260.996308 10.624183 
L 256.903125 10.383407 
L 252.32839 11.105735 
L 247.272103 12.30961 
L 243.419697 12.791162 
L 238.604191 14.717366 
L 238.122639 16.402793 
L 242.697374 16.643569 
L 247.272103 16.402793 
L 252.569166 15.680465 
L 257.866224 14.47659 
L 262.440959 13.995037 
L 271.108877 13.995037 
L 274.961283 14.235814 
L 281.943768 14.958142 
L 273.03508 15.198918 
L 264.367162 14.958142 
L 258.829328 15.439689 
L 254.976922 16.402793 
L 246.068228 18.08822 
L 241.734269 18.08822 
L 238.363415 18.569772 
L 234.751784 18.810548 
L 232.344029 19.773647 
L 229.213945 22.422179 
L 226.806195 24.829934 
L 224.157663 25.793033 
L 217.415949 27.478461 
L 214.526647 28.923117 
L 211.878115 31.330873 
L 210.192688 33.979399 
L 209.47036 37.831806 
L 211.396563 39.517233 
L 215.24897 39.276462 
L 215.008199 40.961889 
L 210.433464 42.40654 
L 204.173302 44.091968 
L 200.320895 44.57352 
L 195.505384 45.536619 
L 191.97168 46.926895 
L 188.587331 49.343614 
L 185.698024 51.992145 
L 184.734924 54.399901 
L 184.494148 57.529979 
L 186.179576 60.419287 
L 189.791206 62.586266 
L 192.439738 64.753246 
L 191.958186 67.401772 
L 190.754311 70.050303 
L 190.272758 72.939611 
L 190.272758 76.792018 
L 189.791206 85.700706 
L 190.031982 88.590014 
L 190.513534 90.275441 
L 189.55043 93.887071 
L 188.828107 98.22103 
L 188.587331 101.351109 
L 188.105779 105.925844 
L 188.346555 110.259802 
L 189.068883 114.352985 
L 190.272758 118.205392 
L 193.402837 124.70633 
L 196.532921 126.632533 
L 201.107655 128.317961 
L 204.960062 128.799513 
L 204.960062 128.799513 
" style="fill:none;stroke:#000000;stroke-linecap:square;stroke-width:1.5;"/>
   </g>
   <g id="line2d_3">
    <path clip-path="url(#p4e01e4f7f1)" d="M 197.069926 63.226309 
L 198.256331 60.378934 
L 200.866423 57.53156 
L 205.137479 53.972345 
L 208.933976 51.599535 
L 213.679597 49.938566 
L 219.374345 48.04032 
L 226.730057 45.904787 
L 234.797616 43.769258 
L 250.695446 41.159166 
L 260.423968 39.972761 
L 267.542399 39.972761 
L 280.592859 39.498197 
L 287.236731 39.735479 
L 292.694192 40.684607 
L 299.338063 41.63373 
L 305.744653 43.057418 
L 310.490273 44.243823 
L 313.812206 46.142069 
L 317.608703 48.514879 
L 321.879765 52.311376 
L 325.201698 55.396032 
L 328.286354 59.667088 
L 331.845569 62.514463 
L 333.506538 64.175432 
L 336.59119 65.361837 
L 338.014877 67.734647 
L 337.777595 71.05658 
L 335.879349 72.242985 
L 336.59119 76.276764 
L 337.065754 85.768005 
L 337.540318 99.530306 
L 337.540318 109.496116 
L 336.353907 117.089105 
L 336.59119 113.292608 
L 336.828472 107.835147 
L 336.828472 95.971091 
L 335.879349 90.51363 
L 335.879349 83.869759 
L 335.404784 76.98861 
L 333.031974 69.395616 
L 330.421882 63.700868 
L 324.964421 56.345155 
L 319.506955 50.887689 
L 313.812206 46.853915 
L 308.829304 44.955664 
L 301.236315 42.820135 
L 293.64332 41.871012 
L 284.863921 40.684607 
L 276.321798 41.159166 
L 264.932312 41.159166 
L 253.54282 41.871012 
L 241.678764 43.769258 
L 230.763837 45.66751 
L 218.899781 48.752161 
L 212.255915 51.836817 
L 206.086607 54.446909 
L 202.052828 57.53156 
L 199.917295 60.141652 
L 197.069926 63.226309 
" style="fill:none;stroke:#000000;stroke-linecap:square;stroke-width:1.5;"/>
   </g>
   <g id="line2d_4">
    <path clip-path="url(#p4e01e4f7f1)" d="M 239.780518 98.801343 
L 234.323052 98.326784 
L 228.865586 97.614938 
L 224.594529 95.47941 
L 221.035314 91.920194 
L 219.611627 88.598261 
L 220.798032 86.937292 
L 223.882683 85.276323 
L 228.628309 83.852636 
L 234.560334 82.191672 
L 241.441482 80.530703 
L 249.746323 78.869734 
L 263.271343 78.157893 
L 254.017379 79.107016 
L 247.848072 80.056139 
L 242.153328 81.242544 
L 236.45858 82.666231 
L 231.71296 84.089918 
L 226.255493 85.276323 
L 222.93356 86.462728 
L 221.509873 88.123697 
L 222.221719 91.208348 
L 224.119965 93.818441 
L 226.96734 95.716692 
L 231.71296 97.140379 
L 237.407708 97.377661 
L 240.966923 97.614938 
L 247.136231 97.85222 
L 255.678348 97.85222 
L 263.508625 98.326784 
L 272.050742 99.275907 
L 281.779265 100.22503 
L 291.745069 100.22503 
L 296.965253 99.750471 
L 301.710874 97.377661 
L 304.79553 94.767569 
L 306.219217 91.920194 
L 307.16834 88.360979 
L 305.981935 85.988169 
L 302.897279 83.140795 
L 297.914376 81.242544 
L 288.660418 78.632457 
L 300.049904 80.767985 
L 303.371843 82.666231 
L 307.16834 85.513605 
L 308.354745 87.886415 
L 307.642899 92.632035 
L 305.507371 96.191256 
L 301.948156 98.564066 
L 295.541566 101.411435 
L 284.863921 101.174158 
L 273.474429 100.22503 
L 250.458164 98.564066 
L 239.780518 98.801343 
" style="fill:none;stroke:#000000;stroke-linecap:square;stroke-width:1.5;"/>
   </g>
   <g id="line2d_5">
    <path clip-path="url(#p4e01e4f7f1)" d="M 225.30637 66.768401 
L 236.695862 62.734622 
L 242.865169 62.022781 
L 250.458164 61.548217 
L 268.016963 60.12453 
L 276.796362 60.361812 
L 287.474013 61.073658 
L 297.202535 62.49734 
L 305.270089 66.293837 
L 299.575346 63.921027 
L 292.219633 62.49734 
L 280.592859 61.310935 
L 268.966086 60.836376 
L 254.254661 61.785499 
L 240.492359 62.971904 
L 225.30637 66.768401 
" style="fill:none;stroke:#000000;stroke-linecap:square;stroke-width:1.5;"/>
   </g>
   <g id="line2d_6">
    <path clip-path="url(#p4e01e4f7f1)" d="M 297.043672 157.32934 
L 298.028248 157.19508 
L 297.118529 157.432398 
L 292.174817 157.723205 
L 288.685135 158.595626 
L 285.486265 158.014012 
L 281.996583 155.687557 
L 278.506906 154.815137 
L 270.364319 153.361108 
L 266.293029 152.779494 
L 263.094153 152.488687 
L 261.349312 151.616267 
L 259.31367 152.488687 
L 252.915924 154.233523 
L 249.717049 154.52433 
L 245.354951 154.52433 
L 242.446883 155.687557 
L 239.248013 157.141591 
L 236.921558 158.304819 
L 234.304296 159.468046 
L 231.68704 160.922075 
L 227.906551 162.37611 
L 223.544453 163.24853 
L 217.437515 162.085303 
L 214.238644 160.922075 
L 210.167349 161.212882 
L 205.223637 160.922075 
L 201.443148 160.922075 
L 196.790244 160.340467 
L 192.428146 160.631268 
L 189.773353 160.520652 
L 195.677213 159.255544 
L 200.733495 159.255544 
L 206.752881 159.977872 
L 214.69847 160.218643 
L 222.884836 160.700195 
L 229.867326 159.977872 
L 233.719733 158.292439 
L 237.331363 155.884689 
L 242.628421 154.199257 
L 247.203156 153.958486 
L 251.537115 153.958486 
L 255.630298 152.51383 
L 258.760376 150.828402 
L 260.927355 148.661423 
L 263.816663 151.55073 
L 270.799148 152.273053 
L 280.911717 154.440033 
L 290.301963 157.088564 
L 297.043672 157.32934 
L 297.043672 157.32934 
" style="fill:none;stroke:#000000;stroke-linecap:square;stroke-width:1.5;"/>
   </g>
  </g>
 </g>
 <defs>
  <clipPath id="p4e01e4f7f1">
   <rect height="323.28" width="518.4" x="0" y="0"/>
  </clipPath>
 </defs>
</svg>
