<?xml version="1.0" encoding="utf-8" standalone="no"?>
<!DOCTYPE svg PUBLIC "-//W3C//DTD SVG 1.1//EN"
  "http://www.w3.org/Graphics/SVG/1.1/DTD/svg11.dtd">
<!-- Created with matplotlib (https://matplotlib.org/) -->
<svg height="505.44pt" version="1.1" viewBox="0 0 622.08 505.44" width="622.08pt" xmlns="http://www.w3.org/2000/svg" xmlns:xlink="http://www.w3.org/1999/xlink">
 <defs>
  <style type="text/css">
*{stroke-linecap:butt;stroke-linejoin:round;}
  </style>
 </defs>
 <g id="figure_1">
  <g><image xlink:href="../../img/cb/flyinglemur_cor_cell.json.cb-50%25.png" width="622.0799999999999px" height="505.44px"/></g>

  <g id="patch_1">
   <path d="M 0 505.44 
L 622.08 505.44 
L 622.08 0 
L 0 0 
z
" style="fill:none;"/>
  </g>
  <g id="axes_1">
   <g id="line2d_1">
    <path clip-path="url(#peefcb5db0c)" d="M 277.560008 91.123423 
L 265.560173 91.123423 
L 252.503827 92.429057 
L 240.100298 95.693142 
L 230.611824 98.965612 
L 228.023181 100.915678 
L 225.085508 99.936455 
L 218.384437 101.570485 
L 214.150816 102.874135 
L 205.664195 105.322194 
L 201.910496 108.259873 
L 199.462431 110.381533 
L 195.871935 110.381533 
L 190.55549 110.642321 
L 182.520499 113.320656 
L 175.37828 116.594171 
L 166.152915 121.653243 
L 157.522737 126.712309 
L 150.380518 133.259346 
L 145.321453 138.318412 
L 141.452749 145.16304 
L 137.881643 153.19803 
L 134.608128 161.828208 
L 133.71535 169.863205 
L 136.988865 177.898202 
L 141.452749 180.57653 
L 147.999781 179.088571 
L 158.415515 172.54154 
L 167.045693 168.077649 
L 174.783093 165.10173 
L 190.257899 160.042658 
L 197.995299 154.983587 
L 205.435108 149.626924 
L 212.577327 143.377484 
L 220.314727 138.020821 
L 227.91405 133.949755 
L 213.470105 143.972671 
L 207.518255 148.734146 
L 200.971224 154.388399 
L 194.126602 159.447471 
L 192.638636 163.316174 
L 193.233824 168.375246 
L 193.829005 175.815055 
L 193.829005 181.469308 
L 192.043455 185.933193 
L 193.233824 177.005424 
L 192.043455 170.160796 
L 188.76994 164.208952 
L 183.11568 162.720987 
L 176.86624 164.506543 
L 163.474587 170.160796 
L 156.927556 173.731908 
L 150.975706 177.898202 
L 146.511821 181.766899 
L 146.511821 183.552455 
L 144.131084 187.718749 
L 146.511821 194.26578 
L 149.487746 199.920033 
L 153.058852 205.574292 
L 157.820327 210.335767 
L 161.986621 215.69243 
L 166.450512 219.858724 
L 171.211987 223.727427 
L 170.616805 227.448367 
L 169.277635 233.696769 
L 167.492085 238.309455 
L 164.218563 243.517316 
L 167.938471 236.226308 
L 169.42643 231.167236 
L 170.319209 226.108164 
L 169.12884 223.132239 
L 164.51616 218.81715 
L 157.671532 211.228545 
L 154.398017 208.103825 
L 150.231723 202.895958 
L 147.850985 198.134483 
L 145.767838 194.563371 
L 144.131084 191.14106 
L 141.155159 189.206708 
L 137.584046 190.992264 
L 133.566554 193.968189 
L 130.293039 196.646518 
L 125.233967 198.432074 
L 120.621281 199.771238 
L 117.19897 202.895958 
L 113.776659 207.95503 
L 113.181472 215.543635 
L 115.115823 221.197888 
L 120.174895 227.000942 
L 126.424336 231.316031 
L 132.971367 234.887137 
L 140.113585 238.45825 
L 149.041354 247.386019 
L 153.65404 251.105926 
L 160.052276 253.189073 
L 165.44426 255.138404 
L 174.415232 255.138404 
L 186.615757 252.626532 
L 194.869048 249.75582 
L 205.993052 250.114661 
L 215.681705 253.344208 
L 222.49964 258.367951 
L 228.241065 263.391695 
L 239.048305 266.89594 
L 252.642103 266.916973 
L 264.842628 264.827052 
L 279.55502 261.238664 
L 293.190895 255.497245 
L 305.750255 250.473495 
L 330.86898 260.879823 
L 338.937215 262.958547 
L 348.984703 264.752738 
L 360.826387 265.470419 
L 370.515035 265.470419 
L 380.562529 264.752738 
L 390.610016 261.523191 
L 398.145632 257.575963 
L 403.887051 252.911059 
L 412.499183 247.528475 
L 420.034799 244.657762 
L 430.799968 246.093119 
L 440.129774 249.322666 
L 444.077002 250.040347 
L 450.177268 253.628734 
L 456.995203 255.781766 
L 466.325016 255.064091 
L 464.889659 248.963831 
L 464.889659 243.940087 
L 479.60205 238.916343 
L 484.625794 232.816084 
L 493.955607 229.22769 
L 500.773548 223.486271 
L 502.926579 217.027171 
L 499.338191 212.362268 
L 495.749804 208.056199 
L 490.726054 202.31478 
L 487.137666 196.214514 
L 484.625794 194.420323 
L 480.298556 195.325655 
L 475.293306 199.266339 
L 471.169339 203.75013 
L 467.042691 207.517944 
L 462.557208 211.285752 
L 453.765656 217.924266 
L 449.100746 220.256718 
L 447.84481 221.692074 
L 448.562492 227.433499 
L 448.921332 234.07202 
L 447.306556 223.12743 
L 445.332938 219.000782 
L 441.923971 215.771235 
L 437.617902 213.259363 
L 432.235324 210.568071 
L 436.720807 211.106332 
L 440.309194 213.259363 
L 445.153518 216.66833 
L 448.203651 219.000782 
L 454.842171 216.309496 
L 460.045336 212.362268 
L 464.171978 208.953294 
L 469.375142 204.467811 
L 472.425275 200.341163 
L 476.910758 196.0351 
L 482.652183 192.626126 
L 485.164055 186.884708 
L 484.26696 182.937479 
L 480.857986 179.528512 
L 475.654822 175.760704 
L 470.810498 173.248832 
L 465.966175 170.916374 
L 460.40417 168.583923 
L 454.662751 167.686827 
L 448.921332 167.507407 
L 444.256423 167.507407 
L 438.335583 167.686827 
L 434.747196 168.942763 
L 433.49126 173.607667 
L 430.620547 178.810831 
L 426.493899 185.090511 
L 428.108675 181.322703 
L 431.697063 175.401863 
L 432.594158 170.198699 
L 432.414744 166.072051 
L 428.82635 162.124822 
L 422.559572 156.246907 
L 415.565813 151.584405 
L 409.038309 148.320649 
L 402.510805 143.191898 
L 393.185801 138.063141 
L 384.327046 133.400639 
L 374.535786 128.738137 
L 362.413276 123.60938 
L 379.198289 129.670635 
L 388.523299 134.799392 
L 398.780801 139.928143 
L 406.240809 144.124396 
L 412.768313 148.320649 
L 418.363319 151.584405 
L 426.28957 158.111909 
L 430.485823 159.510656 
L 433.749579 163.24066 
L 440.277083 166.03816 
L 446.338338 166.504415 
L 452.865842 166.504415 
L 457.528344 167.436913 
L 463.589599 168.835666 
L 468.252101 170.700668 
L 472.914609 173.964417 
L 478.04336 176.295668 
L 485.503369 177.228172 
L 490.63212 170.234413 
L 492.030873 160.909409 
L 488.767118 150.651901 
L 484.104616 141.793145 
L 476.178358 133.400639 
L 464.055848 126.873135 
L 454.730844 121.278129 
L 444.473336 118.480629 
L 421.627068 113.818127 
L 414.167066 115.683129 
L 407.173307 110.088123 
L 396.44955 106.824368 
L 387.124546 103.09437 
L 375.002035 98.898117 
L 361.947027 96.10061 
L 350.757021 92.836862 
L 343.763262 91.438108 
L 332.107007 92.370606 
L 321.849498 93.769359 
L 307.820126 93.673951 
L 298.201034 93.081874 
L 291.385338 91.718736 
L 295.262608 91.404224 
L 303.312298 92.370183 
L 312.971925 92.370183 
L 322.631553 92.692172 
L 334.545094 91.726212 
L 343.882732 89.794287 
L 334.223105 83.354533 
L 320.699627 81.422608 
L 307.176149 80.13466 
L 296.872545 80.13466 
L 282.061119 81.422608 
L 269.825589 85.286459 
L 267.155086 88.600938 
L 277.560008 91.123423 
L 277.560008 91.123423 
" style="fill:none;stroke:#000000;stroke-linecap:square;stroke-width:1.5;"/>
   </g>
   <g id="line2d_2">
    <path clip-path="url(#peefcb5db0c)" d="M 255.073739 180.179345 
L 256.547783 179.933673 
L 251.245322 181.080147 
L 246.290897 181.755751 
L 255.073739 180.179345 
" style="fill:none;stroke:#000000;stroke-linecap:square;stroke-width:1.5;"/>
   </g>
   <g id="line2d_3">
    <path clip-path="url(#peefcb5db0c)" d="M 256.547783 179.933673 
L 259.57776 179.278542 
L 263.42665 178.787192 
L 256.547783 179.933673 
" style="fill:none;stroke:#000000;stroke-linecap:square;stroke-width:1.5;"/>
   </g>
   <g id="line2d_4">
    <path clip-path="url(#peefcb5db0c)" d="M 263.42665 178.787192 
L 264.532179 178.602938 
L 274.215825 176.576133 
L 285.236601 175.759777 
L 280.746657 176.576133 
L 263.42665 178.787192 
" style="fill:none;stroke:#000000;stroke-linecap:square;stroke-width:1.5;"/>
   </g>
   <g id="line2d_5">
    <path clip-path="url(#peefcb5db0c)" d="M 285.236601 175.759777 
L 293.132712 174.324122 
L 298.074571 174.130319 
L 285.236601 175.759777 
" style="fill:none;stroke:#000000;stroke-linecap:square;stroke-width:1.5;"/>
   </g>
   <g id="line2d_6">
    <path clip-path="url(#peefcb5db0c)" d="M 298.074571 174.130319 
L 298.312337 174.098917 
L 309.121984 173.648519 
L 320.607236 173.873718 
L 344.703747 176.125728 
L 359.567018 178.828137 
L 355.513401 178.377739 
L 348.532164 177.25173 
L 337.272118 176.350927 
L 326.237265 174.99972 
L 315.202412 174.324122 
L 304.617963 173.873718 
L 298.074571 174.130319 
" style="fill:none;stroke:#000000;stroke-linecap:square;stroke-width:1.5;"/>
   </g>
   <g id="line2d_7">
    <path clip-path="url(#peefcb5db0c)" d="M 350.333777 142.795976 
L 344.928953 141.895173 
L 334.794902 139.417957 
L 324.210454 137.391152 
L 312.725202 136.490343 
L 292.907513 137.391152 
L 283.899471 138.967559 
L 274.441024 140.769164 
L 265.883387 143.246374 
L 255.298938 146.624393 
L 261.379366 143.921978 
L 270.162209 140.769164 
L 277.819043 139.643162 
L 286.151481 137.391152 
L 297.186328 136.490343 
L 307.545578 136.265143 
L 318.80563 136.715548 
L 330.290881 138.066756 
L 341.325735 139.868361 
L 350.333777 142.795976 
" style="fill:none;stroke:#000000;stroke-linecap:square;stroke-width:1.5;"/>
   </g>
   <g id="line2d_8">
    <path clip-path="url(#peefcb5db0c)" d="M 346.505359 158.785248 
L 342.902141 159.235653 
L 331.642089 159.235653 
L 322.634047 159.010447 
L 310.473192 158.560049 
L 300.339148 159.235653 
L 289.754699 159.235653 
L 282.097859 159.91125 
L 270.837813 161.262458 
L 259.802959 161.938062 
L 267.684993 160.361655 
L 276.017431 159.460852 
L 283.223867 158.560049 
L 293.583116 158.334844 
L 303.266756 158.334844 
L 316.103215 158.560049 
L 325.561661 158.334844 
L 339.749328 158.560049 
L 346.505359 158.785248 
" style="fill:none;stroke:#000000;stroke-linecap:square;stroke-width:1.5;"/>
   </g>
   <g id="line2d_9">
    <path clip-path="url(#peefcb5db0c)" d="M 343.802944 205.401864 
L 339.749328 204.275856 
L 332.092494 202.699449 
L 323.084452 201.573447 
L 315.878016 200.447439 
L 307.545578 200.447439 
L 293.583116 201.348242 
L 285.701077 202.924648 
L 276.91824 205.627063 
L 272.864618 205.176659 
L 281.64746 202.249051 
L 289.304295 200.672638 
L 296.73593 200.22224 
L 303.71716 199.99704 
L 311.824399 199.99704 
L 318.80563 200.447439 
L 328.714475 201.573447 
L 337.497317 203.149854 
L 343.802944 205.401864 
" style="fill:none;stroke:#000000;stroke-linecap:square;stroke-width:1.5;"/>
   </g>
   <g id="line2d_10">
    <path clip-path="url(#peefcb5db0c)" d="M 228.31401 133.735492 
L 229.034186 133.408142 
L 228.31401 133.735492 
" style="fill:none;stroke:#000000;stroke-linecap:square;stroke-width:1.5;"/>
   </g>
  </g>
 </g>
 <defs>
  <clipPath id="peefcb5db0c">
   <rect height="505.44" width="622.08" x="0" y="0"/>
  </clipPath>
 </defs>
</svg>
