<?xml version="1.0" encoding="utf-8" standalone="no"?>
<!DOCTYPE svg PUBLIC "-//W3C//DTD SVG 1.1//EN"
  "http://www.w3.org/Graphics/SVG/1.1/DTD/svg11.dtd">
<!-- Created with matplotlib (https://matplotlib.org/) -->
<svg height="440.64pt" version="1.1" viewBox="0 0 518.4 440.64" width="518.4pt" xmlns="http://www.w3.org/2000/svg" xmlns:xlink="http://www.w3.org/1999/xlink">
 <defs>
  <style type="text/css">
*{stroke-linecap:butt;stroke-linejoin:round;}
  </style>
 </defs>
 <g id="figure_1">
  <g><image xlink:href="../../img/cb/flyingfox_cor_cell.json.cb-50%25.png" width="518.4px" height="440.64px"/></g>

  <g id="patch_1">
   <path d="M 0 440.64 
L 518.4 440.64 
L 518.4 0 
L 0 0 
z
" style="fill:none;"/>
  </g>
  <g id="axes_1">
   <g id="line2d_1">
    <path clip-path="url(#p7afa2eb4be)" d="M 412.50834 251.773904 
L 409.982114 255.021909 
L 405.470998 256.645911 
L 400.418547 257.548134 
L 396.809658 260.615693 
L 393.922544 265.848589 
L 391.396318 271.261924 
L 392.118097 277.757932 
L 394.463878 284.25394 
L 400.959881 288.404162 
L 409.621225 290.749943 
L 416.297678 292.55439 
L 424.417683 292.193501 
L 430.372357 290.569499 
L 436.146581 288.043273 
L 439.57503 281.908159 
L 440.116364 274.690373 
L 437.951028 271.442369 
L 433.620361 268.19437 
L 431.63547 266.029034 
L 428.748355 261.517917 
L 431.815914 261.878806 
L 435.785697 264.765921 
L 440.477254 267.111702 
L 444.266592 265.4877 
L 445.34926 259.893915 
L 444.447036 253.939241 
L 443.905702 248.345461 
L 440.838143 242.571231 
L 437.770583 236.797002 
L 433.620361 230.661888 
L 430.372357 228.857441 
L 423.51546 230.661888 
L 419.365232 233.368553 
L 415.034565 236.436113 
L 411.786561 239.323227 
L 407.275444 241.308119 
L 405.110108 244.917012 
L 403.125217 247.984572 
L 405.290553 251.954349 
L 408.358112 253.217462 
L 410.884338 252.134794 
L 412.50834 251.773904 
" style="fill:none;stroke:#000000;stroke-linecap:square;stroke-width:1.5;"/>
   </g>
   <g id="line2d_2">
    <path clip-path="url(#p7afa2eb4be)" d="M 127.826787 178.628022 
L 129.932932 171.256519 
L 129.932932 162.710726 
L 128.864707 154.521007 
L 126.728256 149.179885 
L 121.031061 150.248105 
L 114.621713 156.301379 
L 110.348817 161.998574 
L 105.719842 166.983623 
L 98.954421 179.090165 
L 99.666573 187.27989 
L 101.090872 196.537835 
L 106.431994 201.878957 
L 110.70489 203.303256 
L 118.538536 206.151853 
L 125.303957 208.288304 
L 131.001152 211.136902 
L 135.986201 215.053725 
L 141.327323 219.682695 
L 138.478725 222.531297 
L 137.766578 219.682695 
L 134.205828 215.409798 
L 128.864707 212.205127 
L 122.811433 209.356524 
L 117.826384 207.576152 
L 111.773116 206.151853 
L 106.075915 206.864005 
L 102.515171 210.780828 
L 98.954421 215.409798 
L 101.090872 221.819145 
L 107.144141 227.872419 
L 111.773116 234.63784 
L 116.758164 240.691109 
L 123.879658 247.812608 
L 122.099286 249.949054 
L 116.402086 250.661206 
L 109.636665 249.236907 
L 103.93947 244.607932 
L 87.916104 232.145316 
L 81.86283 231.07709 
L 74.029184 231.07709 
L 65.127313 239.26681 
L 61.21049 246.388309 
L 60.854416 255.646254 
L 63.34694 260.275224 
L 68.331989 263.4799 
L 76.877782 268.821022 
L 81.86283 269.889247 
L 87.916104 267.040644 
L 93.257226 261.699523 
L 98.242269 252.797656 
L 97.174049 258.850925 
L 93.969373 267.040644 
L 88.984324 273.093918 
L 83.999281 277.366815 
L 79.014233 274.518217 
L 74.741336 270.601394 
L 70.112361 267.752796 
L 65.839465 264.904199 
L 62.634788 265.260272 
L 61.21049 270.957468 
L 61.566568 279.147192 
L 64.415166 284.488314 
L 67.97591 286.268686 
L 71.892733 286.980838 
L 78.658159 288.405137 
L 84.711428 291.253735 
L 95.393671 288.405137 
L 101.090872 284.844387 
L 107.856293 283.420089 
L 113.909561 283.776162 
L 118.89461 279.503266 
L 120.318909 271.66962 
L 122.811433 264.192047 
L 129.932932 262.767748 
L 138.834798 267.752796 
L 144.888072 271.313546 
L 150.229194 271.313546 
L 156.638541 267.396723 
L 150.229194 278.791114 
L 149.160969 285.912613 
L 149.517047 294.102332 
L 151.653493 300.867753 
L 156.282468 300.867753 
L 163.760035 300.155606 
L 166.608638 304.072429 
L 171.593681 309.769625 
L 178.715181 315.822898 
L 187.260974 319.383643 
L 197.943217 325.79299 
L 219.663783 331.134112 
L 230.7021 330.778039 
L 239.603972 333.98271 
L 248.14977 331.490185 
L 254.203039 328.997666 
L 260.968459 330.065887 
L 268.089959 333.98271 
L 278.772202 330.421965 
L 286.605848 328.285514 
L 299.780616 326.505142 
L 311.887159 321.876167 
L 319.720805 317.603271 
L 327.554451 310.83785 
L 334.67595 307.989252 
L 340.729219 300.867753 
L 343.933895 294.102332 
L 340.729219 287.692985 
L 337.168469 282.351863 
L 342.153518 286.980838 
L 346.070341 291.965882 
L 354.972212 291.253735 
L 359.957261 283.420089 
L 361.737633 275.942516 
L 368.503054 270.601394 
L 373.844176 262.055601 
L 378.473151 253.15373 
L 385.238571 244.96401 
L 392.716144 235.706065 
L 400.193711 229.296718 
L 408.383436 223.243444 
L 414.080631 216.834097 
L 417.997454 208.288304 
L 416.929229 202.23503 
L 412.656333 199.742506 
L 406.246985 202.947182 
L 398.413339 204.727554 
L 387.018943 206.864005 
L 381.321748 208.288304 
L 378.29216 209.389972 
L 378.829224 207.932225 
L 380.808447 203.726378 
L 381.321748 207.576152 
L 389.155394 205.439701 
L 399.125491 204.371481 
L 408.73951 200.454658 
L 414.792783 194.401384 
L 417.285302 178.378019 
L 417.285302 168.407922 
L 416.929229 160.930354 
L 411.944181 153.452782 
L 405.890912 148.11166 
L 399.125491 142.770538 
L 394.496516 144.906983 
L 394.140443 150.960257 
L 394.85259 158.081751 
L 394.140443 163.778952 
L 390.935767 171.968671 
L 392.716144 165.915397 
L 393.428291 159.862129 
L 391.291845 152.384556 
L 389.155394 145.619135 
L 392.360065 139.92194 
L 389.155394 133.868666 
L 379.185297 128.171471 
L 373.488102 126.03502 
L 367.434828 124.966795 
L 363.874084 129.59577 
L 364.942309 134.936892 
L 364.942309 143.482685 
L 366.010529 150.248105 
L 367.434828 157.013531 
L 369.215206 163.0668 
L 371.351651 168.051848 
L 375.980626 171.968671 
L 372.063803 171.968671 
L 367.434828 177.309793 
L 366.010529 179.446244 
L 366.722681 174.105122 
L 368.859132 170.544372 
L 368.14698 164.491099 
L 366.010529 157.725678 
L 363.51801 149.179885 
L 362.805858 143.838763 
L 361.737633 138.497641 
L 361.38156 131.020069 
L 363.51801 124.966795 
L 361.737633 120.337825 
L 353.903987 116.777075 
L 345.714267 114.640625 
L 337.168469 113.216326 
L 327.910524 112.860252 
L 320.076878 113.928478 
L 314.735757 113.216326 
L 309.394635 115.352777 
L 313.311458 121.406045 
L 316.231761 122.271321 
L 311.887159 124.610721 
L 311.887159 132.088294 
L 316.872207 138.497641 
L 323.281555 140.634087 
L 332.5395 143.126611 
L 340.017072 147.043434 
L 344.289969 152.384556 
L 348.918938 159.149977 
L 343.577817 153.808855 
L 338.236695 147.755586 
L 332.895573 144.55091 
L 325.774079 141.702312 
L 320.432957 140.99016 
L 317.584359 144.906983 
L 317.584359 149.892032 
L 320.076878 157.725678 
L 323.281555 162.354653 
L 329.690902 165.915397 
L 335.744171 170.544372 
L 338.592773 174.461196 
L 348.206792 174.817269 
L 339.660994 175.173342 
L 336.812396 175.885494 
L 337.071357 177.093978 
L 335.388097 172.324745 
L 331.115201 167.695775 
L 325.418 164.135025 
L 319.364732 165.203251 
L 317.228281 169.83222 
L 316.160055 175.529421 
L 316.516134 180.870543 
L 318.65258 186.923811 
L 320.78903 191.90886 
L 326.486226 196.537835 
L 331.115201 201.166805 
L 324.705853 196.181756 
L 318.65258 189.772414 
L 316.516134 183.363067 
L 315.803982 176.241568 
L 316.872207 169.476147 
L 319.008658 163.0668 
L 319.720805 159.149977 
L 317.228281 154.87708 
L 311.887159 152.74063 
L 306.245456 152.74063 
L 312.175514 152.528842 
L 315.812821 151.558895 
L 316.540286 146.951631 
L 315.327847 141.374419 
L 312.660487 137.737112 
L 309.265662 136.524673 
L 303.445964 133.857313 
L 298.838704 131.917414 
L 292.049054 129.250049 
L 285.744382 127.067663 
L 279.43971 125.612737 
L 273.620011 123.187864 
L 267.557826 121.005478 
L 260.768176 118.823091 
L 252.523604 117.368165 
L 246.946393 116.883192 
L 238.701821 117.853139 
L 223.425112 122.217917 
L 217.12044 125.37025 
L 210.573276 129.735022 
L 206.935964 132.887361 
L 201.116266 141.131932 
L 199.903832 144.526758 
L 205.238557 147.921583 
L 209.118356 149.861483 
L 213.968102 150.83143 
L 218.090388 149.618996 
L 220.54928 148.317229 
L 217.883411 151.316331 
L 209.693686 151.316331 
L 203.640418 147.755586 
L 198.655369 145.975209 
L 194.026394 148.823806 
L 189.753498 152.028483 
L 186.548827 157.725678 
L 183.700233 162.473333 
L 185.836675 158.43783 
L 188.329199 152.384556 
L 186.548827 147.399508 
L 184.056303 143.482685 
L 180.13948 143.838763 
L 174.086206 147.399508 
L 169.813309 152.028483 
L 162.335737 163.0668 
L 158.418914 169.476147 
L 153.789944 176.241568 
L 155.926389 170.188299 
L 159.487139 165.203251 
L 163.403962 158.793903 
L 166.964712 154.164928 
L 171.237608 149.179885 
L 176.222657 145.975209 
L 181.207705 142.414459 
L 183.700229 137.429416 
L 184.768449 131.020069 
L 186.548827 124.254648 
L 183.700229 120.337825 
L 178.003029 119.625673 
L 173.374059 121.762124 
L 170.881535 124.610721 
L 166.964712 128.883618 
L 164.472187 133.156514 
L 161.979663 137.785489 
L 160.199291 142.058386 
L 156.994615 145.619135 
L 151.297419 154.164928 
L 155.570316 147.399508 
L 159.843212 141.346239 
L 163.047889 135.649039 
L 164.472187 128.883618 
L 160.199291 126.391094 
L 153.43387 127.815392 
L 148.448822 131.732215 
L 142.039475 135.649039 
L 136.698353 139.209788 
L 130.645079 144.906983 
L 129.576853 149.892032 
L 132.069378 159.149977 
L 133.849755 168.051848 
L 135.630127 173.749044 
L 135.986201 179.090165 
L 136.629116 185.519304 
L 135.986201 183.71914 
L 135.274054 175.173342 
L 132.069378 171.968671 
L 129.576853 176.241568 
L 127.826787 178.628022 
L 127.826787 178.628022 
" style="fill:none;stroke:#000000;stroke-linecap:square;stroke-width:1.5;"/>
   </g>
   <g id="line2d_3">
    <path clip-path="url(#p7afa2eb4be)" d="M 221.34872 147.893997 
L 222.212673 147.43661 
L 227.179799 145.834309 
L 226.785277 145.975209 
L 221.34872 147.893997 
" style="fill:none;stroke:#000000;stroke-linecap:square;stroke-width:1.5;"/>
   </g>
   <g id="line2d_4">
    <path clip-path="url(#p7afa2eb4be)" d="M 233.158487 143.972731 
L 237.731869 142.586858 
L 245.006493 141.859398 
L 252.523604 140.404472 
L 259.555742 140.161985 
L 265.132948 140.889446 
L 270.467673 142.101885 
L 277.014832 145.011731 
L 282.349556 147.921583 
L 287.441794 150.346456 
L 293.746466 151.558895 
L 300.051138 152.286356 
L 305.048166 152.74063 
L 302.985287 152.74063 
L 294.083421 152.384556 
L 287.317995 151.672409 
L 281.264727 148.11166 
L 274.143227 144.906983 
L 265.953508 141.346239 
L 257.763788 140.278014 
L 248.861917 141.702312 
L 240.672197 142.770538 
L 233.158487 143.972731 
" style="fill:none;stroke:#000000;stroke-linecap:square;stroke-width:1.5;"/>
   </g>
   <g id="line2d_5">
    <path clip-path="url(#p7afa2eb4be)" d="M 319.320227 123.186423 
L 322.925481 124.254648 
L 330.759127 126.391094 
L 337.880621 129.951843 
L 345.002115 134.580818 
L 336.456323 130.307917 
L 331.827348 127.103246 
L 323.993701 124.966795 
L 319.320227 123.186423 
" style="fill:none;stroke:#000000;stroke-linecap:square;stroke-width:1.5;"/>
   </g>
   <g id="line2d_6">
    <path clip-path="url(#p7afa2eb4be)" d="M 377.510715 211.511037 
L 377.760999 215.765872 
L 379.185297 221.819145 
L 383.814272 225.379895 
L 391.647919 229.296718 
L 383.10212 226.448115 
L 377.048852 221.819145 
L 374.912401 216.834097 
L 372.478654 217.055346 
L 376.3367 214.697651 
L 377.510715 211.511037 
" style="fill:none;stroke:#000000;stroke-linecap:square;stroke-width:1.5;"/>
   </g>
   <g id="line2d_7">
    <path clip-path="url(#p7afa2eb4be)" d="M 370.234648 218.426683 
L 368.14698 221.819145 
L 365.654456 230.008865 
L 365.298383 223.955596 
L 369.927353 218.614474 
L 370.234648 218.426683 
" style="fill:none;stroke:#000000;stroke-linecap:square;stroke-width:1.5;"/>
   </g>
   <g id="line2d_8">
    <path clip-path="url(#p7afa2eb4be)" d="M 339.085798 183.582191 
L 340.729219 187.27989 
L 342.701334 193.853599 
L 342.153518 192.621012 
L 339.660994 185.499513 
L 339.085798 183.582191 
" style="fill:none;stroke:#000000;stroke-linecap:square;stroke-width:1.5;"/>
   </g>
   <g id="line2d_9">
    <path clip-path="url(#p7afa2eb4be)" d="M 182.300768 165.219816 
L 182.632004 170.188299 
L 185.836675 174.817269 
L 187.973126 179.090165 
L 187.973126 182.532237 
L 187.260974 178.021945 
L 184.056303 172.680823 
L 179.783406 171.612598 
L 175.652926 175.743078 
L 178.003029 172.324745 
L 180.851626 168.407922 
L 182.300768 165.219816 
" style="fill:none;stroke:#000000;stroke-linecap:square;stroke-width:1.5;"/>
   </g>
   <g id="line2d_10">
    <path clip-path="url(#p7afa2eb4be)" d="M 187.80283 189.787893 
L 187.617052 193.689237 
L 183.937619 200.692018 
L 185.124528 196.537835 
L 187.617052 191.552786 
L 187.80283 189.787893 
" style="fill:none;stroke:#000000;stroke-linecap:square;stroke-width:1.5;"/>
   </g>
   <g id="line2d_11">
    <path clip-path="url(#p7afa2eb4be)" d="M 183.344143 201.878969 
L 182.275925 204.015402 
L 177.290882 208.288304 
L 173.01798 210.068676 
L 179.071254 206.151853 
L 183.344143 201.878969 
" style="fill:none;stroke:#000000;stroke-linecap:square;stroke-width:1.5;"/>
   </g>
   <g id="line2d_12">
    <path clip-path="url(#p7afa2eb4be)" d="M 173.374061 178.615399 
L 171.237608 181.938768 
L 166.608638 185.499513 
L 163.760035 189.772414 
L 163.403962 194.401384 
L 163.403962 199.030359 
L 161.979663 206.864005 
L 161.979663 202.23503 
L 162.335737 196.181756 
L 162.335737 191.552786 
L 160.911438 187.992037 
L 163.760035 186.567738 
L 173.374061 178.615399 
L 173.374061 178.615399 
" style="fill:none;stroke:#000000;stroke-linecap:square;stroke-width:1.5;"/>
   </g>
   <g id="line2d_13">
    <path clip-path="url(#p7afa2eb4be)" d="M 308.053223 122.70289 
L 305.385863 118.338118 
L 302.233524 114.700806 
L 297.626265 112.275927 
L 292.776519 110.57852 
L 287.199308 109.366081 
L 283.561995 110.821007 
L 280.652144 114.700806 
L 281.622096 120.035525 
L 285.016921 124.157816 
L 291.079106 126.582689 
L 297.868752 129.735022 
L 302.476016 132.159901 
L 308.295715 134.82726 
L 310.963075 131.432435 
L 309.993122 126.582689 
L 308.053223 122.70289 
" style="fill:none;stroke:#000000;stroke-linecap:square;stroke-width:1.5;"/>
   </g>
   <g id="line2d_14">
    <path clip-path="url(#p7afa2eb4be)" d="M 305.143376 105.546904 
L 301.142334 100.090935 
L 295.504501 94.816832 
L 290.048532 90.633925 
L 283.501374 86.632883 
L 277.13608 82.813705 
L 269.861456 80.267589 
L 262.404967 79.903859 
L 256.221538 80.267589 
L 248.946914 81.358785 
L 241.854155 82.086245 
L 234.761401 82.63184 
L 228.759837 84.268631 
L 223.303869 86.269152 
L 218.939096 88.633404 
L 214.392454 92.270716 
L 212.391933 97.544819 
L 215.483649 101.000266 
L 223.667599 99.54534 
L 232.033414 98.636009 
L 240.217369 98.090414 
L 249.128779 98.090414 
L 255.130342 98.999745 
L 263.496162 100.2728 
L 270.588916 102.455187 
L 277.681675 105.728769 
L 283.137644 107.36556 
L 289.139207 108.820486 
L 294.595175 110.457271 
L 301.687929 113.548988 
L 306.780167 114.640184 
L 307.143897 110.457271 
L 305.143376 105.546904 
" style="fill:none;stroke:#000000;stroke-linecap:square;stroke-width:1.5;"/>
   </g>
   <g id="line2d_15">
    <path clip-path="url(#p7afa2eb4be)" d="M 278.045406 110.093541 
L 273.680633 107.183695 
L 268.77026 104.637578 
L 263.678027 102.818922 
L 257.494594 101.727726 
L 251.1293 100.818401 
L 244.582141 99.727205 
L 238.398713 98.999745 
L 232.397149 99.363475 
L 226.03185 99.90907 
L 220.030287 100.818401 
L 214.574319 101.909591 
L 207.66343 103.364517 
L 203.116787 105.183173 
L 197.478959 108.63862 
L 194.205377 112.275927 
L 191.659261 116.82257 
L 189.113139 121.551073 
L 188.021949 126.643311 
L 186.385158 133.372335 
L 186.930753 139.192033 
L 188.203814 144.648001 
L 191.295525 147.194118 
L 196.387763 145.193596 
L 200.025075 140.465094 
L 202.207462 137.555242 
L 206.935964 132.644874 
L 211.300742 128.280102 
L 216.756705 124.460925 
L 224.213194 121.369208 
L 232.942745 117.731896 
L 241.490424 116.27697 
L 249.492509 115.367644 
L 254.402882 115.003914 
L 262.768697 117.368165 
L 269.861456 119.732417 
L 276.408615 120.096147 
L 278.409136 116.095105 
L 278.045406 110.093541 
" style="fill:none;stroke:#000000;stroke-linecap:square;stroke-width:1.5;"/>
   </g>
  </g>
 </g>
 <defs>
  <clipPath id="p7afa2eb4be">
   <rect height="440.64" width="518.4" x="0" y="0"/>
  </clipPath>
 </defs>
</svg>
