<?xml version="1.0" encoding="utf-8" standalone="no"?>
<!DOCTYPE svg PUBLIC "-//W3C//DTD SVG 1.1//EN"
  "http://www.w3.org/Graphics/SVG/1.1/DTD/svg11.dtd">
<!-- Created with matplotlib (https://matplotlib.org/) -->
<svg height="622.08pt" version="1.1" viewBox="0 0 829.44 622.08" width="829.44pt" xmlns="http://www.w3.org/2000/svg" xmlns:xlink="http://www.w3.org/1999/xlink">
 <defs>
  <style type="text/css">
*{stroke-linecap:butt;stroke-linejoin:round;}
  </style>
 </defs>
 <g id="figure_1">
  <g><image xlink:href="../../img/cb/giantanteater_cell.json.cb-50%25.png" width="829.4399999999999px" height="622.0799999999999px"/></g>

  <g id="patch_1">
   <path d="M 0 622.08 
L 829.44 622.08 
L 829.44 0 
L 0 0 
z
" style="fill:none;"/>
  </g>
  <g id="axes_1">
   <g id="line2d_1">
    <path clip-path="url(#p8a183220c7)" d="M 710.848991 172.930767 
L 709.418556 179.510756 
L 710.562901 187.235098 
L 711.421164 195.245515 
L 712.565509 203.828112 
L 712.851599 214.699408 
L 713.995945 221.279397 
L 716.856808 216.129835 
L 721.434197 211.266364 
L 723.436797 206.688983 
L 723.150714 198.964641 
L 722.578542 192.384652 
L 720.289851 181.799446 
L 715.712462 173.502939 
L 710.848991 172.930767 
" style="fill:none;stroke:#000000;stroke-linecap:square;stroke-width:1.5;"/>
   </g>
   <g id="line2d_2">
    <path clip-path="url(#p8a183220c7)" d="M 231.628751 312.74357 
L 235.296808 316.48646 
L 235.014649 321.283153 
L 232.757378 323.258265 
L 227.960685 322.976106 
L 221.753189 321.84747 
L 216.392179 321.000994 
L 211.313318 320.718835 
L 206.516625 320.718835 
L 199.462653 322.129629 
L 190.997894 324.386901 
L 185.919042 325.233377 
L 181.122341 326.926331 
L 176.607799 328.054966 
L 170.118152 329.465761 
L 165.321451 331.158706 
L 161.371235 333.698136 
L 156.856692 337.366202 
L 152.906468 339.341314 
L 148.391934 341.034267 
L 143.030915 344.702325 
L 140.209326 347.523914 
L 137.105586 350.063344 
L 136.541268 355.424355 
L 139.080698 362.196168 
L 143.595232 367.27502 
L 148.391934 369.250132 
L 152.059991 368.967973 
L 154.035103 373.200357 
L 159.678281 376.868414 
L 166.450087 378.279209 
L 172.375423 378.561368 
L 179.711547 378.279209 
L 182.250977 375.739787 
L 181.968818 372.071721 
L 179.429388 368.685815 
L 178.86507 365.299908 
L 178.582911 358.810261 
L 181.686659 352.320615 
L 183.661771 349.216867 
L 189.869259 343.009371 
L 196.358913 337.084043 
L 193.255165 343.29153 
L 190.433576 347.806073 
L 187.329829 351.756297 
L 185.354725 356.835149 
L 184.226089 361.63185 
L 186.201193 367.839338 
L 189.022782 372.636039 
L 190.997894 376.586264 
L 196.358913 377.150573 
L 201.155606 375.457628 
L 205.952308 376.868414 
L 211.313318 376.586264 
L 213.57059 373.482516 
L 213.288431 368.685815 
L 212.159795 363.606963 
L 211.313318 358.245944 
L 211.595477 354.860037 
L 213.57059 351.756297 
L 215.263543 343.855848 
L 216.392179 332.851659 
L 217.238655 328.337125 
L 217.238655 336.801884 
L 216.392179 342.445054 
L 214.134907 353.449242 
L 213.006272 357.681626 
L 213.57059 361.914009 
L 213.852748 366.146384 
L 214.134907 372.35388 
L 215.827861 376.868414 
L 223.446143 377.150573 
L 226.267732 375.457628 
L 229.653639 376.586264 
L 233.039537 375.457628 
L 236.425444 372.35388 
L 239.529192 369.250132 
L 240.939986 365.582067 
L 238.118397 362.196168 
L 235.014649 357.117308 
L 233.321696 353.167092 
L 231.91091 348.088232 
L 232.193069 343.009371 
L 233.039537 338.776996 
L 235.296808 332.851659 
L 233.039537 341.316426 
L 232.475228 346.395278 
L 233.603855 352.320615 
L 236.425444 357.963785 
L 239.811351 363.042645 
L 243.479416 365.864226 
L 246.583156 364.17128 
L 250.533381 361.349691 
L 255.612241 354.295719 
L 256.458709 351.191979 
L 254.483605 347.806073 
L 252.508493 343.009371 
L 250.533381 339.623473 
L 249.969063 335.673248 
L 250.251222 332.287341 
L 251.097698 338.494837 
L 254.201446 346.113119 
L 258.71598 352.038456 
L 268.027216 348.652549 
L 273.106076 345.83096 
L 275.363347 342.162895 
L 277.0563 340.187791 
L 273.106076 335.10893 
L 268.873692 328.901443 
L 275.645506 337.648361 
L 279.313563 340.46995 
L 282.135152 339.623473 
L 284.392424 337.366202 
L 286.367536 333.415977 
L 283.545947 340.187791 
L 279.595722 344.138007 
L 275.645506 346.677437 
L 271.97744 348.652549 
L 266.616429 351.191979 
L 261.25541 352.038456 
L 257.869504 354.577878 
L 254.765764 357.399467 
L 252.226334 361.349691 
L 251.097698 363.889122 
L 252.226334 365.864226 
L 258.998139 366.992861 
L 256.740868 368.121497 
L 254.765764 367.27502 
L 249.969063 366.146384 
L 248.276109 365.017757 
L 242.915099 367.557179 
L 238.400556 372.071721 
L 233.603855 377.714891 
L 233.886014 381.100798 
L 236.425444 385.333181 
L 239.529192 389.847715 
L 244.608044 389.565557 
L 251.097698 386.743976 
L 255.047923 384.486705 
L 259.844616 380.53648 
L 262.666205 377.150573 
L 269.43801 370.660927 
L 269.155851 367.557179 
L 270.566646 364.735598 
L 280.724358 355.142196 
L 284.956741 351.756297 
L 286.931854 346.113119 
L 289.471284 340.46995 
L 290.599919 335.673248 
L 290.882078 330.312229 
L 290.882078 323.258265 
L 295.396612 318.179413 
L 299.628996 314.229189 
L 302.887227 311.487732 
L 309.668612 307.536105 
L 313.900996 305.278834 
L 319.544165 303.30373 
L 324.538398 302.105115 
L 332.936544 302.105115 
L 341.201126 302.793832 
L 352.564927 302.449473 
L 366.415339 302.434867 
L 382.090137 302.273317 
L 394.831364 302.962034 
L 405.850806 301.240249 
L 415.148464 300.207174 
L 417.558966 302.273317 
L 421.691252 303.99511 
L 426.512256 305.028177 
L 429.267117 306.74997 
L 434.432479 305.372536 
L 437.876057 306.405612 
L 443.04142 304.339468 
L 447.173706 301.928967 
L 451.65036 300.551532 
L 460.60365 302.617675 
L 469.212591 303.99511 
L 481.2651 305.028177 
L 492.628901 306.405612 
L 505.714487 307.438679 
L 519.488789 309.160472 
L 528.786438 309.160472 
L 540.494598 306.74997 
L 548.759171 305.716895 
L 556.335036 309.504831 
L 564.943976 313.981476 
L 574.241633 319.835556 
L 581.129486 326.033629 
L 583.691601 329.990124 
L 584.035959 335.499846 
L 584.38031 343.764427 
L 584.035959 350.995933 
L 586.102103 357.53873 
L 589.890031 364.770236 
L 594.022326 369.935598 
L 594.022326 375.789678 
L 595.74411 380.95504 
L 596.088469 385.431686 
L 597.121545 391.630124 
L 599.876405 398.86163 
L 603.664334 405.748777 
L 606.419194 405.748777 
L 604.008692 400.927773 
L 601.253832 394.040626 
L 598.498971 377.167104 
L 600.220756 382.676825 
L 601.253832 388.186546 
L 603.319975 393.00755 
L 605.730477 398.172913 
L 609.862772 402.649558 
L 613.995058 405.404418 
L 619.849138 405.748777 
L 625.014501 403.338275 
L 627.425003 398.517271 
L 622.25964 390.941407 
L 627.769361 396.106769 
L 630.524222 397.828554 
L 635.000867 395.418052 
L 638.100086 391.630124 
L 639.821871 386.464761 
L 640.16623 381.988108 
L 636.033943 374.067885 
L 629.835505 370.624315 
L 625.703218 370.624315 
L 621.915282 372.690459 
L 614.339417 375.100961 
L 620.537855 372.001742 
L 625.014501 368.902522 
L 622.948357 366.14767 
L 619.160421 360.637949 
L 615.028134 359.949232 
L 607.79662 359.604873 
L 602.631258 358.916156 
L 596.432828 354.439511 
L 591.956182 349.962865 
L 592.300533 344.453144 
L 595.055393 339.287782 
L 599.876405 335.844204 
L 605.041768 334.122419 
L 602.286907 336.87728 
L 597.465895 338.599065 
L 594.022326 343.764427 
L 593.333609 347.896722 
L 595.74411 351.68465 
L 600.220756 355.128228 
L 605.386118 357.883088 
L 610.551481 358.227447 
L 615.028134 358.227447 
L 620.193497 358.916156 
L 623.637066 355.128228 
L 626.047568 350.307224 
L 626.391927 345.486212 
L 624.325783 339.287782 
L 628.802429 345.83057 
L 629.146787 349.618507 
L 627.080644 353.406435 
L 622.603999 357.883088 
L 621.915282 361.671017 
L 623.637066 365.114594 
L 627.425003 368.213813 
L 632.590365 370.279957 
L 637.06701 368.902522 
L 640.854947 364.770236 
L 641.888014 358.571797 
L 642.92109 362.015375 
L 641.199305 367.525096 
L 640.854947 370.968674 
L 640.854947 377.167104 
L 641.888014 382.332466 
L 643.954166 386.80912 
L 648.086453 391.630124 
L 653.596174 393.696267 
L 660.827679 394.040626 
L 677.356843 390.941407 
L 682.866564 388.186546 
L 684.932707 384.39861 
L 684.24399 380.266323 
L 678.734269 376.822745 
L 669.43662 374.412243 
L 678.38991 374.412243 
L 682.522205 376.478395 
L 686.310133 381.299399 
L 687.687568 385.087327 
L 696.296508 384.742968 
L 704.90544 381.988108 
L 709.726444 378.20018 
L 711.103878 373.723535 
L 713.51438 370.624315 
L 712.136946 366.49202 
L 705.938516 363.73716 
L 699.05136 360.29359 
L 693.197289 356.505654 
L 688.376285 354.095152 
L 684.588349 355.128228 
L 679.078627 354.783869 
L 672.880189 351.340292 
L 668.403544 345.486212 
L 669.780978 342.042642 
L 672.19148 342.042642 
L 674.946341 346.863646 
L 679.767345 349.274148 
L 686.310133 350.651574 
L 691.475496 349.962865 
L 693.541647 352.373367 
L 699.05136 355.816937 
L 705.249798 359.949232 
L 709.726444 360.637949 
L 712.825663 358.571797 
L 714.203097 349.618507 
L 712.136946 342.042642 
L 706.971583 333.433702 
L 701.46187 323.102977 
L 694.919073 315.182754 
L 686.99885 311.394826 
L 679.422986 313.805328 
L 671.502763 317.248898 
L 668.059185 320.348117 
L 664.615616 326.202196 
L 660.138962 329.645774 
L 656.695393 327.923981 
L 654.629241 323.791694 
L 650.152596 320.692475 
L 654.9736 317.248898 
L 658.761536 315.182754 
L 664.615616 313.805328 
L 669.43662 310.017392 
L 673.568906 307.262531 
L 681.284108 305.45412 
L 686.793829 302.354901 
L 692.303542 297.533897 
L 697.468905 291.679825 
L 699.190698 287.203172 
L 701.945558 282.726526 
L 705.733486 278.249881 
L 710.21014 271.018367 
L 711.587566 262.409435 
L 710.21014 253.800495 
L 706.766562 247.602057 
L 701.256841 242.781053 
L 692.992259 241.403627 
L 684.383319 239.681834 
L 679.562315 241.059268 
L 676.463096 245.880272 
L 675.430029 252.423069 
L 675.08567 257.588431 
L 678.529248 262.409435 
L 683.69461 266.88608 
L 688.171256 272.051443 
L 690.237399 276.528088 
L 690.926116 280.660383 
L 692.303542 285.137028 
L 689.89304 284.448311 
L 686.449471 280.660383 
L 687.826897 273.773228 
L 684.727678 268.952224 
L 679.562315 264.819937 
L 674.396953 259.998933 
L 673.019527 255.177929 
L 674.741311 248.979491 
L 676.463096 241.403627 
L 673.363885 239.337483 
L 664.754945 239.681834 
L 657.179081 240.714909 
L 650.636284 244.847204 
L 644.437854 249.32385 
L 639.961209 255.177929 
L 636.861989 259.998933 
L 636.517631 265.508654 
L 640.649917 267.230439 
L 647.192714 267.919156 
L 653.391144 271.362726 
L 658.900865 277.216805 
L 663.377519 283.415244 
L 667.509806 290.302391 
L 664.754945 286.858813 
L 655.112937 274.461945 
L 648.914499 269.640941 
L 643.404778 268.607865 
L 636.861989 267.919156 
L 634.451487 269.296582 
L 635.140196 274.117586 
L 639.272491 281.349092 
L 642.716061 287.891889 
L 648.225782 293.057251 
L 652.358077 297.189538 
L 656.834722 301.321833 
L 649.947575 296.156471 
L 644.437854 290.646749 
L 638.928133 284.448311 
L 635.484555 277.216805 
L 633.074053 271.018367 
L 627.908691 272.051443 
L 625.842547 275.839379 
L 621.365902 281.004742 
L 616.54489 285.481387 
L 610.002101 288.236248 
L 609.313384 282.037809 
L 613.10132 275.495021 
L 616.889248 270.674017 
L 620.677185 265.508654 
L 624.809471 260.687642 
L 629.286125 257.588431 
L 635.140196 254.144854 
L 639.61685 250.356917 
L 643.060419 247.946415 
L 646.503997 244.847204 
L 649.258858 241.747985 
L 650.291933 237.61569 
L 649.603216 232.794686 
L 647.537073 228.6624 
L 645.470921 223.497037 
L 643.749137 214.888097 
L 642.027352 206.967874 
L 640.305559 194.226647 
L 644.093495 210.411452 
L 645.81528 215.921173 
L 648.57014 220.742177 
L 649.603216 226.940607 
L 650.980642 234.516471 
L 654.42422 237.960049 
L 657.867798 234.172121 
L 656.146005 229.695467 
L 654.42422 219.364742 
L 653.632992 211.972972 
L 654.666068 204.052749 
L 654.32171 196.821243 
L 653.288634 188.556662 
L 653.977351 169.617005 
L 652.599917 163.074208 
L 647.090196 158.253204 
L 641.580483 152.743483 
L 634.693327 147.233762 
L 640.891766 149.299905 
L 644.335343 152.743483 
L 652.944275 159.974989 
L 656.387853 159.630638 
L 661.208857 156.875778 
L 665.685502 152.054766 
L 667.407295 147.233762 
L 664.308076 141.035332 
L 658.453996 137.247395 
L 651.911208 135.525611 
L 645.368411 134.836893 
L 641.580483 137.936113 
L 637.103829 139.313539 
L 626.773104 138.280471 
L 620.919025 138.280471 
L 614.376236 140.346614 
L 610.5883 138.62483 
L 608.866515 134.148176 
L 606.111654 130.704607 
L 602.323726 128.294105 
L 592.68171 133.115109 
L 598.53579 128.294105 
L 596.125288 125.539244 
L 593.026069 125.883595 
L 595.436571 123.473093 
L 590.959925 120.373882 
L 586.48328 118.652089 
L 582.350985 118.996447 
L 579.940483 122.440025 
L 580.6292 118.652089 
L 578.907416 115.897228 
L 575.463838 111.420583 
L 569.2654 110.731866 
L 561.000818 113.486726 
L 556.524173 117.96338 
L 553.769312 122.784384 
L 555.146747 128.294105 
L 557.557249 132.426391 
L 557.30242 135.591302 
L 552.137057 124.227501 
L 547.660412 122.161358 
L 542.8394 122.161358 
L 539.740189 120.783932 
L 536.64097 116.995996 
L 530.442532 115.962928 
L 524.244093 118.029071 
L 519.078731 122.161358 
L 517.012587 127.326721 
L 516.668229 131.803366 
L 520.456165 134.213876 
L 525.965886 136.280019 
L 532.508675 139.03488 
L 536.985328 142.822808 
L 529.409464 138.346163 
L 522.522309 135.591302 
L 517.012587 134.213876 
L 513.913368 135.591302 
L 511.158516 140.067948 
L 511.158516 144.544601 
L 515.290803 150.054314 
L 521.833591 152.809174 
L 528.720747 155.564035 
L 526.310245 157.285828 
L 527.343312 162.45119 
L 527.343312 167.616553 
L 526.310245 159.69633 
L 523.899743 154.530967 
L 517.356946 151.776107 
L 511.158516 149.709964 
L 508.059297 151.431748 
L 505.648795 155.564035 
L 505.648795 160.729397 
L 507.026221 166.927836 
L 509.092364 171.404481 
L 511.502866 174.848059 
L 514.257727 177.602919 
L 512.191584 177.602919 
L 510.12544 181.390847 
L 510.12544 184.490067 
L 509.781082 188.96672 
L 509.781082 192.754648 
L 507.37058 186.21186 
L 508.059297 176.914202 
L 504.615719 163.484258 
L 503.582643 157.974537 
L 503.927002 150.054314 
L 503.582643 144.544601 
L 501.860859 136.968728 
L 498.417281 127.671079 
L 492.907568 121.128291 
L 483.265552 116.307278 
L 476.722763 115.61857 
L 468.80254 118.71778 
L 461.226676 121.472641 
L 453.306453 122.161358 
L 444.697513 121.472641 
L 435.744214 121.472641 
L 428.512708 121.128291 
L 422.314278 122.850075 
L 416.460198 125.604936 
L 408.539975 130.081581 
L 399.586676 133.1808 
L 392.355171 135.246944 
L 385.468023 135.935661 
L 380.302661 138.001804 
L 376.514725 142.478449 
L 374.448581 147.643812 
L 374.448581 153.153533 
L 373.415505 160.729397 
L 369.283219 171.404481 
L 366.184 176.225485 
L 363.429139 182.423923 
L 361.453255 184.399815 
L 361.727991 182.768879 
L 362.578241 178.942764 
L 360.87774 174.266397 
L 357.476746 174.691519 
L 362.153112 172.140775 
L 366.829478 167.889538 
L 369.805343 164.063423 
L 372.781216 157.686564 
L 372.781216 152.159947 
L 370.230472 148.758953 
L 365.128985 147.90871 
L 360.452619 149.184082 
L 356.201374 150.884575 
L 352.375259 153.86044 
L 349.399394 158.111685 
L 345.998399 161.9378 
L 348.974264 156.411184 
L 351.099887 153.010198 
L 351.525016 149.609203 
L 357.051625 149.184082 
L 365.128985 147.483581 
L 369.805343 144.082586 
L 371.505844 138.555978 
L 371.080723 135.154984 
L 367.254599 130.903747 
L 362.578241 130.478617 
L 351.950137 134.304733 
L 355.776253 131.328868 
L 364.703856 129.628375 
L 365.979227 126.227381 
L 365.554106 121.551015 
L 361.30287 117.724899 
L 357.051625 114.323905 
L 350.249644 115.599277 
L 343.447656 119.425392 
L 339.62154 122.826387 
L 337.070797 128.353003 
L 333.669802 134.729862 
L 330.268808 136.430355 
L 330.693937 130.903747 
L 330.693937 128.353003 
L 326.442693 128.353003 
L 332.819552 126.227381 
L 334.094923 121.551015 
L 333.244681 116.024398 
L 329.843687 113.048533 
L 325.167321 111.34804 
L 318.790462 112.623412 
L 312.413602 115.599277 
L 308.587479 118.57515 
L 306.886986 122.826387 
L 305.611614 127.502753 
L 312.413602 141.956972 
L 303.485991 128.778124 
L 300.935248 126.227381 
L 297.109132 126.652502 
L 292.432766 135.154984 
L 294.133267 126.227381 
L 292.432766 121.976136 
L 287.331279 122.826387 
L 279.679048 124.952009 
L 274.57756 128.778124 
L 273.302189 135.154984 
L 270.751445 142.807215 
L 266.10177 142.970291 
L 261.425404 142.120048 
L 255.048545 143.39542 
L 252.07268 146.371285 
L 249.947058 149.772279 
L 244.84557 148.496908 
L 240.594325 145.095913 
L 237.193339 140.844677 
L 232.091844 136.593432 
L 227.840607 135.31806 
L 220.613497 135.31806 
L 213.386388 137.018561 
L 208.710021 139.994426 
L 207.009528 142.970291 
L 209.985393 145.521043 
L 204.883906 147.221536 
L 198.507047 148.922029 
L 192.555309 148.071786 
L 186.603571 149.772279 
L 179.376461 154.448646 
L 175.975475 159.550133 
L 172.149351 165.926992 
L 168.748365 172.728981 
L 162.371498 189.733944 
L 164.071999 199.936918 
L 164.92225 210.139893 
L 167.898115 221.618248 
L 173.849853 230.970972 
L 180.651833 234.371966 
L 188.729193 235.647338 
L 196.381424 236.072467 
L 201.482912 236.92271 
L 206.159278 239.473453 
L 209.560272 243.724698 
L 213.386388 244.574941 
L 219.338126 245.00007 
L 226.140114 246.275442 
L 233.792345 251.376929 
L 241.019455 253.077422 
L 246.971193 254.777924 
L 252.497801 260.729662 
L 259.724911 267.106521 
L 263.551027 273.058259 
L 263.551027 280.71049 
L 260.573005 283.270457 
L 256.458709 283.681228 
L 252.790652 282.270434 
L 250.251222 278.884527 
L 249.122586 274.652152 
L 249.686904 268.444656 
L 249.404745 264.776591 
L 246.583156 263.365796 
L 243.761575 263.083645 
L 239.247033 264.494432 
L 236.989762 266.469544 
L 235.296808 271.266245 
L 233.321696 277.473733 
L 233.603855 280.013163 
L 231.628751 281.141798 
L 224.574778 289.606557 
L 222.035348 293.556782 
L 219.495926 296.378371 
L 217.520814 302.303699 
L 218.085132 298.635634 
L 221.188872 292.145987 
L 229.37148 281.988275 
L 232.475228 276.909415 
L 233.886014 273.523516 
L 235.578967 268.726815 
L 235.014649 264.212273 
L 233.321696 260.826374 
L 230.217956 259.979898 
L 226.267732 260.544215 
L 221.753189 261.95501 
L 217.520814 265.623067 
L 213.288431 269.573292 
L 210.184683 272.959199 
L 207.363102 277.191574 
L 205.38799 280.85964 
L 202.84856 285.092023 
L 199.744812 288.195763 
L 201.437765 285.092023 
L 203.695036 281.706116 
L 205.952308 278.884527 
L 208.491738 274.369993 
L 211.313318 270.701927 
L 214.699225 267.316021 
L 218.367291 263.930114 
L 223.446143 260.544215 
L 228.807162 258.851262 
L 231.346592 256.87615 
L 230.782274 253.208084 
L 228.807162 250.386503 
L 225.985573 248.69355 
L 222.317507 247.282755 
L 217.802973 246.436279 
L 213.288431 246.436279 
L 210.749001 247.282755 
L 208.209579 250.950821 
L 202.84856 253.208084 
L 205.105831 250.104344 
L 206.516625 247.000596 
L 207.363102 244.179007 
L 204.541513 240.510942 
L 199.180494 237.407202 
L 194.101642 236.560726 
L 184.508248 236.560726 
L 175.761322 238.253679 
L 168.425199 241.07526 
L 163.628498 245.025484 
L 160.242599 250.386503 
L 158.267487 256.87615 
L 159.396122 264.494432 
L 162.782029 271.548404 
L 167.014404 278.602368 
L 172.375423 284.809864 
L 178.018593 289.888716 
L 183.097453 292.710305 
L 187.611987 293.556782 
L 192.12653 297.507006 
L 199.744812 302.02154 
L 206.798784 305.125288 
L 211.877636 309.357672 
L 218.931609 310.768458 
L 226.549891 311.614935 
L 231.628751 312.74357 
L 231.628751 312.74357 
" style="fill:none;stroke:#000000;stroke-linecap:square;stroke-width:1.5;"/>
   </g>
   <g id="line2d_3">
    <path clip-path="url(#p8a183220c7)" d="M 612.765505 165.511849 
L 611.79477 157.745985 
L 618.347213 189.294805 
L 621.016733 198.031404 
L 623.686252 215.989967 
L 626.598449 224.969243 
L 629.996009 232.49243 
L 635.820412 240.015609 
L 627.811862 231.036332 
L 625.8704 226.910714 
L 624.171615 221.571683 
L 622.230145 213.805819 
L 621.259418 204.826534 
L 619.80332 197.060669 
L 617.86185 190.750904 
L 616.648437 184.19846 
L 614.706967 176.432596 
L 612.765505 165.511849 
" style="fill:none;stroke:#000000;stroke-linecap:square;stroke-width:1.5;"/>
   </g>
   <g id="line2d_4">
    <path clip-path="url(#p8a183220c7)" d="M 391.977211 160.835193 
L 403.532812 155.882789 
L 412.887352 152.581186 
L 421.416492 150.655251 
L 432.972093 149.279584 
L 444.252568 148.454183 
L 458.28437 148.17905 
L 478.369111 148.17905 
L 486.07285 149.279584 
L 485.522583 150.655251 
L 480.295045 150.380118 
L 471.765906 149.279584 
L 440.400698 150.104984 
L 423.342419 151.755786 
L 415.363554 153.956854 
L 407.384681 156.983323 
L 399.956084 159.184391 
L 391.977211 160.835193 
" style="fill:none;stroke:#000000;stroke-linecap:square;stroke-width:1.5;"/>
   </g>
   <g id="line2d_5">
    <path clip-path="url(#p8a183220c7)" d="M 451.681165 170.464858 
L 464.612442 169.089191 
L 476.168042 169.914591 
L 483.046381 172.390793 
L 471.490772 170.739992 
L 461.861106 170.189725 
L 451.681165 170.464858 
" style="fill:none;stroke:#000000;stroke-linecap:square;stroke-width:1.5;"/>
   </g>
   <g id="line2d_6">
    <path clip-path="url(#p8a183220c7)" d="M 392.802612 187.247996 
L 412.887352 183.396135 
L 424.718086 182.295601 
L 434.622894 184.221535 
L 453.6071 186.14747 
L 480.295045 189.724198 
L 468.189169 188.623664 
L 447.003895 186.422604 
L 420.315958 184.221535 
L 409.310616 185.32207 
L 392.802612 187.247996 
" style="fill:none;stroke:#000000;stroke-linecap:square;stroke-width:1.5;"/>
   </g>
   <g id="line2d_7">
    <path clip-path="url(#p8a183220c7)" d="M 393.180389 223.437168 
L 395.968916 222.972408 
L 402.010723 223.437168 
L 408.284906 222.507656 
L 419.439024 220.416265 
L 427.572223 218.557241 
L 435.240677 216.233474 
L 436.634941 212.74781 
L 427.572223 210.191658 
L 413.164833 207.867891 
L 405.728763 207.403131 
L 398.292684 206.241243 
L 391.088989 203.917476 
L 401.313587 205.776491 
L 411.305818 206.706003 
L 421.29804 207.867891 
L 428.73411 208.100267 
L 441.050108 208.797395 
L 450.577579 209.726907 
L 471.026783 210.424034 
L 453.830858 210.424034 
L 449.183315 212.283058 
L 448.021427 215.768713 
L 449.648067 218.324865 
L 457.781273 219.719129 
L 463.358328 220.183881 
L 469.167768 222.740032 
L 474.977199 223.90192 
L 469.400144 224.831432 
L 462.661201 222.972408 
L 451.739467 219.719129 
L 443.60626 218.092489 
L 436.867317 218.557241 
L 422.227552 220.881017 
L 408.982042 223.437168 
L 401.313587 224.599056 
L 393.180389 223.437168 
" style="fill:none;stroke:#000000;stroke-linecap:square;stroke-width:1.5;"/>
   </g>
   <g id="line2d_8">
    <path clip-path="url(#p8a183220c7)" d="M 292.448069 241.074414 
L 299.250058 235.547805 
L 309.027911 228.320695 
L 320.931379 220.243335 
L 310.303283 229.170946 
L 302.225923 234.697554 
L 292.448069 241.074414 
" style="fill:none;stroke:#000000;stroke-linecap:square;stroke-width:1.5;"/>
   </g>
   <g id="line2d_9">
    <path clip-path="url(#p8a183220c7)" d="M 259.713515 247.026152 
L 262.264258 243.200036 
L 267.790875 235.972926 
L 272.042112 228.745816 
L 276.293357 219.818214 
L 286.496331 203.238372 
L 291.172697 196.011262 
L 299.250058 187.93391 
L 307.32741 182.832422 
L 312.854027 182.407293 
L 304.351545 185.808287 
L 296.699314 192.610276 
L 290.747576 199.412256 
L 285.646081 206.639366 
L 280.544593 214.716726 
L 275.868227 224.06945 
L 271.616991 231.72169 
L 266.090374 240.649292 
L 259.713515 247.026152 
" style="fill:none;stroke:#000000;stroke-linecap:square;stroke-width:1.5;"/>
   </g>
   <g id="line2d_10">
    <path clip-path="url(#p8a183220c7)" d="M 249.51054 233.847304 
L 251.211033 229.596067 
L 255.887399 220.668464 
L 260.988886 211.315732 
L 267.365754 201.537879 
L 272.042112 193.885648 
L 279.694351 184.532915 
L 275.868227 192.185146 
L 270.76674 198.987135 
L 264.815002 207.914738 
L 259.288393 216.842341 
L 254.612027 226.620194 
L 249.51054 233.847304 
" style="fill:none;stroke:#000000;stroke-linecap:square;stroke-width:1.5;"/>
   </g>
   <g id="line2d_11">
    <path clip-path="url(#p8a183220c7)" d="M 218.476487 165.40233 
L 221.02723 167.953082 
L 216.775985 168.378203 
L 211.249377 171.779197 
L 206.573011 178.581177 
L 204.447388 185.808287 
L 202.746895 193.460518 
L 202.746895 201.963 
L 206.14789 206.639366 
L 209.974005 207.064487 
L 209.123754 212.165983 
L 205.72276 213.866476 
L 203.172016 210.04036 
L 200.196152 205.363994 
L 200.196152 200.262507 
L 201.046394 192.185146 
L 202.321766 184.958037 
L 204.872509 179.006307 
L 207.848383 173.47969 
L 212.94987 168.378203 
L 218.476487 165.40233 
L 218.476487 165.40233 
" style="fill:none;stroke:#000000;stroke-linecap:square;stroke-width:1.5;"/>
   </g>
   <g id="line2d_12">
    <path clip-path="url(#p8a183220c7)" d="M 704.841175 238.730673 
L 709.990728 234.439375 
L 712.279427 228.431558 
L 711.993336 220.421134 
L 711.707254 212.982882 
L 711.421164 205.544638 
L 710.848991 195.531605 
L 709.132473 189.237698 
L 707.988128 181.227274 
L 707.129865 175.505548 
L 708.27421 170.355986 
L 707.129865 162.917734 
L 702.552484 157.768181 
L 697.975095 152.618619 
L 690.536843 149.185583 
L 683.956854 147.182975 
L 675.374257 146.896885 
L 669.652523 147.755148 
L 667.363833 149.471665 
L 665.361224 154.049055 
L 663.644707 157.196008 
L 668.508178 163.203824 
L 672.799476 169.211641 
L 676.804693 176.649893 
L 679.093383 184.374227 
L 679.665556 193.242915 
L 680.237728 204.114202 
L 680.237728 214.127235 
L 681.382074 224.14026 
L 681.095991 232.722857 
L 683.670764 237.300246 
L 691.109016 239.302854 
L 700.263786 240.161109 
L 704.841175 238.730673 
" style="fill:none;stroke:#000000;stroke-linecap:square;stroke-width:1.5;"/>
   </g>
   <g id="line2d_13">
    <path clip-path="url(#p8a183220c7)" d="M 678.521211 236.441983 
L 680.523819 233.58112 
L 679.951638 228.431558 
L 680.237728 222.423742 
L 679.093383 214.413317 
L 679.379465 207.833328 
L 679.379465 198.106386 
L 678.807293 190.954216 
L 677.949038 184.374227 
L 675.94643 177.508148 
L 672.799476 170.928159 
L 668.794268 165.206424 
L 665.075142 160.915126 
L 662.214271 159.77078 
L 658.495145 161.773389 
L 655.634282 165.206424 
L 655.062109 168.639468 
L 655.3482 177.222065 
L 654.776027 188.379443 
L 655.634282 196.67595 
L 656.206454 206.402893 
L 655.634282 214.413317 
L 656.206454 222.995914 
L 658.495145 231.578512 
L 662.214271 236.728073 
L 667.936005 238.158501 
L 674.229912 237.300246 
L 678.521211 236.441983 
" style="fill:none;stroke:#000000;stroke-linecap:square;stroke-width:1.5;"/>
   </g>
   <g id="line2d_14">
    <path clip-path="url(#p8a183220c7)" d="M 440.461969 97.982784 
L 449.759618 98.327143 
L 456.991132 97.982784 
L 462.845204 97.294075 
L 462.156495 91.784354 
L 459.401634 84.20849 
L 455.269339 79.043127 
L 448.037833 74.566474 
L 440.806328 73.189047 
L 432.886105 73.189047 
L 424.621523 74.222115 
L 416.356941 75.599549 
L 409.125435 79.731836 
L 404.993149 83.175414 
L 400.172137 90.40692 
L 396.384209 96.949716 
L 392.940631 103.836864 
L 388.463986 110.724011 
L 385.364766 115.889373 
L 382.954264 122.087812 
L 382.265547 129.319318 
L 384.331699 133.795971 
L 388.808344 133.795971 
L 398.105993 132.762895 
L 403.960073 130.352393 
L 409.814153 127.941891 
L 414.635157 124.842672 
L 415.323874 122.43217 
L 410.84722 121.399094 
L 404.993149 121.054736 
L 394.662424 123.809596 
L 398.105993 121.399094 
L 402.582647 120.366027 
L 409.469794 119.67731 
L 418.592033 123.678122 
L 422.724328 121.611979 
L 427.200974 120.234544 
L 433.743762 120.234544 
L 442.352702 119.890186 
L 452.683427 120.923261 
L 458.881866 119.545835 
L 465.769013 117.824042 
L 472.31181 116.102257 
L 475.755379 114.380473 
L 476.788455 110.248178 
L 475.06667 105.771532 
L 472.656168 102.672313 
L 468.179515 100.261811 
L 465.424654 101.294887 
L 460.60365 101.983596 
L 454.40522 100.950529 
L 445.79628 99.917453 
L 440.461969 97.982784 
" style="fill:none;stroke:#000000;stroke-linecap:square;stroke-width:1.5;"/>
   </g>
   <g id="line2d_15">
    <path clip-path="url(#p8a183220c7)" d="M 179.809993 325.417422 
L 187.399817 323.168578 
L 194.989641 321.763058 
L 201.736148 319.514223 
L 204.8283 316.42207 
L 205.390511 312.205504 
L 202.017253 308.832246 
L 197.238476 305.458989 
L 189.929758 302.647942 
L 184.869875 302.929047 
L 181.215512 307.145613 
L 178.404465 313.329918 
L 176.998946 320.076434 
L 179.809993 325.417422 
" style="fill:none;stroke:#000000;stroke-linecap:square;stroke-width:1.5;"/>
   </g>
  </g>
 </g>
 <defs>
  <clipPath id="p8a183220c7">
   <rect height="622.08" width="829.44" x="0" y="0"/>
  </clipPath>
 </defs>
</svg>
