<?xml version="1.0" encoding="utf-8" standalone="no"?>
<!DOCTYPE svg PUBLIC "-//W3C//DTD SVG 1.1//EN"
  "http://www.w3.org/Graphics/SVG/1.1/DTD/svg11.dtd">
<!-- Created with matplotlib (https://matplotlib.org/) -->
<svg height="715.68pt" version="1.1" viewBox="0 0 933.12 715.68" width="933.12pt" xmlns="http://www.w3.org/2000/svg" xmlns:xlink="http://www.w3.org/1999/xlink">
 <defs>
  <style type="text/css">
*{stroke-linecap:butt;stroke-linejoin:round;}
  </style>
 </defs>
 <g id="figure_1">
  <g><image xlink:href="../../img/cb/goat_cor_cell.json.cb-50%25.png" width="933.12px" height="716.4px"/></g>

  <g id="patch_1">
   <path d="M 0 715.68 
L 933.12 715.68 
L 933.12 0 
L 0 0 
z
" style="fill:none;"/>
  </g>
  <g id="axes_1">
   <g id="line2d_1">
    <path clip-path="url(#pd925d9edfc)" d="M 257.639126 299.246806 
L 253.000493 301.587935 
L 258.30179 297.946952 
L 264.265743 292.981982 
L 268.573053 288.679011 
L 273.87435 283.052042 
L 277.850318 276.432075 
L 289.44691 266.502135 
L 288.784245 261.537165 
L 285.802264 257.565193 
L 281.826296 252.600213 
L 277.187654 250.945226 
L 272.549021 251.276226 
L 267.247724 253.92421 
L 262.609091 257.234193 
L 257.307793 261.206166 
L 252.337828 265.840137 
L 249.68718 270.474117 
L 245.711202 275.108088 
L 243.391886 279.08006 
L 239.747249 282.390043 
L 236.433936 286.031026 
L 234.445952 289.671999 
L 233.783288 294.305979 
L 235.771272 299.601949 
L 240.741237 304.566919 
L 245.37987 309.531889 
L 251.012499 314.496859 
L 257.639126 321.116816 
L 259.295778 325.419797 
L 265.922404 329.722769 
L 265.591072 333.69475 
L 266.253727 339.32171 
L 269.235708 345.279678 
L 272.217689 345.279678 
L 275.19967 342.300694 
L 277.850318 338.659721 
L 281.494964 335.349737 
L 284.808267 334.02574 
L 281.494964 337.666723 
L 277.850318 340.645707 
L 274.205673 344.617679 
L 272.549021 347.596663 
L 275.862334 352.230634 
L 279.838302 356.864614 
L 284.476944 354.878619 
L 293.422878 351.899644 
L 299.055507 348.589661 
L 304.688137 345.610677 
L 297.067523 350.906646 
L 290.440897 354.216629 
L 286.796261 355.540617 
L 282.157619 358.188602 
L 282.157619 363.484571 
L 286.464929 367.787552 
L 291.103561 369.442539 
L 295.742194 367.787552 
L 300.380836 364.808568 
L 302.037488 361.829584 
L 302.700153 357.526603 
L 304.356805 362.822573 
L 307.338786 363.484571 
L 312.971415 360.836587 
L 309.989434 363.81557 
L 303.69414 365.139568 
L 299.718172 366.463555 
L 296.404859 369.442539 
L 294.416875 372.090524 
L 295.426977 375.820008 
L 298.077626 376.482006 
L 303.378923 375.158009 
L 297.083629 378.798992 
L 295.426977 382.108975 
L 295.095645 385.749948 
L 297.746293 388.397933 
L 296.089632 390.714927 
L 294.101648 394.6869 
L 293.107661 399.982869 
L 294.43298 407.264825 
L 295.758309 416.201777 
L 298.077626 423.483732 
L 301.722262 427.455714 
L 306.360904 429.772699 
L 310.668205 427.124715 
L 312.656189 423.483732 
L 313.981518 417.856764 
L 314.975505 412.891793 
L 316.632166 408.919821 
L 318.951483 404.947839 
L 320.608135 401.306857 
L 319.94547 397.996883 
L 311.662201 393.031913 
L 317.294822 395.679898 
L 322.264787 396.672886 
L 325.246768 393.693902 
L 326.903429 389.059931 
L 327.566084 383.432963 
L 327.566084 377.805994 
L 324.25278 374.49602 
L 329.554077 377.475004 
L 333.861378 375.820008 
L 339.162675 371.848035 
L 340.156672 367.545054 
L 346.120625 364.56607 
L 353.741248 361.587096 
L 360.036532 359.6011 
L 368.651143 356.291126 
L 375.609092 354.305131 
L 382.567051 349.67116 
L 390.85032 345.037189 
L 400.127595 339.41022 
L 417.688139 330.473269 
L 423.6521 325.508298 
L 432.598043 321.205327 
L 437.381646 318.145886 
L 442.35162 316.159891 
L 447.98424 314.173904 
L 457.92418 311.856919 
L 462.562813 310.532922 
L 469.18943 310.532922 
L 474.822059 310.201932 
L 482.111341 310.532922 
L 491.388616 312.187918 
L 503.31653 315.497901 
L 511.93114 318.145886 
L 521.208415 320.462872 
L 531.479678 326.751829 
L 541.75094 331.7168 
L 554.672851 337.674768 
L 566.600766 341.977748 
L 576.872028 345.949721 
L 587.14329 349.590703 
L 596.089233 350.583692 
L 606.360496 349.590703 
L 611.467387 346.934665 
L 613.879269 345.127573 
L 613.24191 346.719377 
L 612.579246 349.698361 
L 614.56723 354.001342 
L 618.543208 357.973314 
L 622.187844 359.959301 
L 626.163821 360.952298 
L 627.820473 359.628301 
L 629.145802 362.276286 
L 633.121771 365.586269 
L 636.766416 366.579267 
L 640.742384 366.910266 
L 644.718362 365.917268 
L 648.362998 363.931282 
L 650.350992 361.283298 
L 649.025663 358.966312 
L 645.049694 357.642315 
L 642.067713 355.32533 
L 639.748397 353.008344 
L 637.097748 349.698361 
L 641.736381 354.001342 
L 646.043682 357.642315 
L 651.344979 359.297311 
L 654.32696 357.642315 
L 657.640273 354.332332 
L 659.628257 351.353357 
L 659.95959 349.036363 
L 654.32696 345.395389 
L 649.688327 341.423408 
L 639.748397 332.155466 
L 648.031666 338.775423 
L 652.670308 342.747405 
L 657.308941 346.388378 
L 661.947574 348.043374 
L 663.604235 346.057388 
L 665.592219 337.782435 
L 665.592219 334.141452 
L 663.935558 331.162468 
L 659.95959 327.521495 
L 655.320957 323.549513 
L 650.350992 318.915542 
L 657.640273 324.211512 
L 662.610238 328.183484 
L 665.923551 332.155466 
L 667.911536 335.796439 
L 666.586207 339.437421 
L 665.260887 342.747405 
L 665.592219 346.388378 
L 667.911536 348.705373 
L 672.550168 347.712375 
L 678.51413 344.402392 
L 682.158766 339.437421 
L 684.478092 334.803451 
L 685.803412 330.831469 
L 685.803412 328.183484 
L 681.496111 325.2045 
L 679.176795 323.218514 
L 676.194814 320.23953 
L 672.881501 317.591545 
L 669.568188 315.27456 
L 677.851466 320.23953 
L 681.827443 323.549513 
L 685.47208 326.197498 
L 688.45406 326.528497 
L 695.080687 322.225526 
L 696.406006 319.577541 
L 697.400003 316.267558 
L 697.068671 313.950572 
L 700.050652 310.640589 
L 701.044639 307.330606 
L 701.044639 303.689633 
L 703.363956 300.710649 
L 704.357952 297.400666 
L 703.695288 293.759683 
L 702.369968 288.794713 
L 700.381984 286.477728 
L 688.785393 283.498744 
L 686.134744 283.498744 
L 684.094449 285.066627 
L 685.803412 282.505755 
L 683.484095 278.533773 
L 680.170782 273.568803 
L 673.544165 271.913816 
L 668.242868 270.920819 
L 671.887504 270.589819 
L 676.857469 271.582817 
L 679.83945 271.913816 
L 682.490099 269.596831 
L 681.827443 273.568803 
L 683.484095 276.547787 
L 686.466076 280.18877 
L 690.773377 283.829743 
L 695.743342 284.822741 
L 701.375972 285.15374 
L 705.020617 284.160742 
L 707.671266 281.181758 
L 707.339933 278.533773 
L 705.683281 274.561801 
L 699.387987 266.948846 
L 695.41201 265.955848 
L 699.387987 265.624849 
L 701.707304 267.941835 
L 705.351949 272.244816 
L 708.665253 277.540785 
L 711.978566 280.519769 
L 715.623212 278.533773 
L 718.936515 274.561801 
L 719.930512 268.934832 
L 720.261844 263.969862 
L 719.930512 259.335891 
L 717.279864 257.018897 
L 710.321914 257.680895 
L 715.623212 256.025908 
L 717.611196 252.715925 
L 716.617199 247.419956 
L 715.291879 242.454985 
L 712.972563 238.483013 
L 710.321914 236.166018 
L 708.002598 235.17303 
L 704.689285 238.814003 
L 700.713307 251.722927 
L 698.393991 253.708923 
L 700.713307 250.06794 
L 702.038636 245.10297 
L 703.695288 240.138 
L 705.683281 236.497018 
L 707.671266 233.518034 
L 708.301709 231.419403 
L 706.97638 229.764416 
L 702.66908 229.764416 
L 698.693112 229.102417 
L 696.042463 229.433416 
L 694.385802 231.750402 
L 690.409833 233.736388 
L 683.451875 235.060385 
L 680.138571 235.391384 
L 678.813242 236.715372 
L 681.795223 244.659326 
L 685.108536 245.652324 
L 680.138571 246.314313 
L 664.897334 251.941282 
L 655.620068 256.575252 
L 658.933382 253.927268 
L 659.927369 251.610282 
L 663.903347 250.948293 
L 670.529964 248.631298 
L 676.493925 247.307311 
L 679.807239 244.659326 
L 680.138571 242.011341 
L 675.499929 236.053373 
L 672.186625 234.398386 
L 663.240682 233.405389 
L 675.168596 234.398386 
L 681.132558 234.067387 
L 689.415837 232.7434 
L 693.391814 230.426405 
L 694.054469 227.77842 
L 691.735153 224.799445 
L 688.753172 221.489462 
L 684.445871 219.503476 
L 679.144574 217.517481 
L 671.52396 216.855491 
L 677.487922 216.524492 
L 682.457887 217.84848 
L 687.759185 220.165465 
L 692.72915 223.475448 
L 696.705118 227.116431 
L 701.012428 229.433416 
L 705.651061 229.102417 
L 707.639045 226.785432 
L 706.645058 221.489462 
L 703.994409 213.545508 
L 700.018431 204.939556 
L 696.042463 198.319598 
L 692.397817 193.685618 
L 688.42184 190.044645 
L 683.451875 187.065661 
L 679.144574 186.734662 
L 674.174609 189.051647 
L 669.867308 192.361631 
L 665.559999 196.664602 
L 662.246685 201.629572 
L 659.579931 209.928669 
L 655.603963 216.879626 
L 653.615969 222.837593 
L 650.302665 229.78855 
L 647.320684 238.063503 
L 644.338704 246.669456 
L 644.007371 253.951411 
L 644.007371 261.233367 
L 641.356723 267.853333 
L 639.368738 273.149303 
L 638.043409 279.438261 
L 636.259909 283.515775 
L 634.003009 279.470449 
L 633.671677 275.829466 
L 634.665664 270.533497 
L 636.653658 264.906528 
L 638.011198 259.183014 
L 637.017201 252.563047 
L 637.679866 246.605079 
L 639.336518 239.985122 
L 642.318499 235.351151 
L 647.288464 228.731185 
L 651.595774 222.442227 
L 654.577745 218.470245 
L 656.897071 214.498273 
L 658.553723 209.533303 
L 660.541707 204.568323 
L 662.529691 200.265352 
L 665.843005 195.631381 
L 669.48765 191.328409 
L 673.794951 188.349425 
L 677.108264 184.708443 
L 675.782935 180.73647 
L 672.138299 178.750475 
L 676.445599 176.764489 
L 675.782935 171.468519 
L 673.132286 165.179552 
L 667.830989 156.24261 
L 662.861024 149.622643 
L 656.565739 142.009688 
L 650.270445 135.720731 
L 641.655834 129.431763 
L 635.029217 123.804795 
L 622.050927 115.182753 
L 617.743617 113.196766 
L 614.098981 110.217783 
L 607.803687 106.24581 
L 601.839725 104.590814 
L 597.863757 107.569798 
L 595.54444 111.21078 
L 595.875773 114.851753 
L 598.195089 118.492736 
L 599.189077 120.809721 
L 602.833722 122.464708 
L 606.558998 124.558072 
L 602.833722 123.126707 
L 600.183073 123.126707 
L 597.863757 124.450704 
L 597.201092 126.767689 
L 598.857754 130.739662 
L 601.17707 134.380644 
L 604.490374 136.697629 
L 607.803687 140.007613 
L 610.785668 142.324598 
L 613.767649 143.317596 
L 617.743617 143.979585 
L 623.376247 148.613556 
L 619.068946 145.303582 
L 616.418298 145.303582 
L 614.098981 146.62757 
L 614.098981 149.275554 
L 615.092969 152.916537 
L 617.412285 155.233522 
L 620.394266 157.550508 
L 625.695563 160.860491 
L 630.334205 164.501464 
L 633.647509 166.48746 
L 636.960822 169.797434 
L 640.605468 172.445418 
L 643.587449 174.431414 
L 648.226081 177.741388 
L 654.190034 181.713369 
L 649.551401 179.396384 
L 649.551401 179.727383 
L 644.912768 177.410398 
L 643.256116 178.072387 
L 640.9368 180.720372 
L 639.280139 183.368356 
L 639.942803 187.340338 
L 641.930787 192.967307 
L 642.26212 196.60828 
L 640.274136 199.587264 
L 638.286151 201.242251 
L 638.286151 204.221235 
L 639.942803 207.531218 
L 642.26212 211.1722 
L 642.26212 213.489186 
L 640.605468 216.13717 
L 637.292155 218.123157 
L 634.310174 221.764139 
L 630.665528 224.081124 
L 634.641506 219.778144 
L 639.611471 215.806171 
L 640.9368 212.165189 
L 639.280139 208.855215 
L 637.623487 204.552234 
L 636.960822 200.580261 
L 639.942803 197.270278 
L 640.9368 192.967307 
L 639.280139 189.326324 
L 637.623487 184.030355 
L 639.942803 179.065385 
L 641.930787 176.086401 
L 638.948807 172.114428 
L 635.30417 169.135444 
L 633.316177 166.818459 
L 627.020892 163.177476 
L 621.05693 158.874505 
L 607.803687 152.254538 
L 613.104984 151.261541 
L 612.773652 147.620568 
L 610.454336 144.310584 
L 607.803687 142.324598 
L 603.165054 137.359628 
L 598.857754 131.732659 
L 595.875773 128.422676 
L 593.556456 126.767689 
L 589.249146 127.429688 
L 585.935833 128.753675 
L 582.622529 130.408662 
L 580.634536 133.056647 
L 580.634536 135.704632 
L 581.959865 139.014615 
L 582.622529 142.986597 
L 582.622529 146.958569 
L 581.628533 149.606554 
L 582.291197 152.585538 
L 583.947849 154.571524 
L 589.028286 158.124247 
L 584.279181 156.22652 
L 581.2972 156.888509 
L 578.646552 159.536494 
L 577.983887 162.184479 
L 579.309216 164.501464 
L 580.634536 167.811447 
L 581.628533 171.45243 
L 581.2972 176.4174 
L 581.959865 180.058382 
L 583.947849 183.368356 
L 587.592494 185.023353 
L 592.56246 186.34734 
L 596.86976 187.340338 
L 599.851741 189.326324 
L 594.550444 187.340338 
L 585.60451 185.354352 
L 581.959865 185.354352 
L 579.640548 188.664326 
L 579.640548 192.967307 
L 579.309216 197.270278 
L 583.285185 200.249262 
L 587.923827 202.897247 
L 597.201092 209.517204 
L 600.845738 213.489186 
L 597.201092 212.165189 
L 590.243143 205.214232 
L 585.60451 202.235248 
L 580.634536 199.918263 
L 577.983887 199.256264 
L 573.676587 201.242251 
L 572.68259 205.545232 
L 572.351267 209.848203 
L 573.013922 215.144173 
L 574.007919 219.116154 
L 576.327235 223.750125 
L 578.315219 226.39811 
L 582.953862 227.722098 
L 590.574475 229.046095 
L 580.965868 227.722098 
L 574.315083 228.359962 
L 574.646416 225.380978 
L 573.652428 220.416008 
L 571.664435 213.465042 
L 571.664435 205.521088 
L 572.327099 199.894129 
L 576.634409 198.239132 
L 577.959729 194.598159 
L 578.953725 190.626178 
L 577.959729 185.661208 
L 574.646416 184.006221 
L 567.688466 183.344222 
L 572.327099 183.013223 
L 575.971745 182.351224 
L 578.953725 179.37224 
L 580.94171 174.076271 
L 579.947713 167.125315 
L 576.303077 163.153333 
L 571.333112 163.484332 
L 566.363137 164.47733 
L 574.646416 161.498346 
L 577.959729 158.188363 
L 579.285058 154.21639 
L 577.628396 152.230404 
L 570.007783 148.920421 
L 574.315083 149.25142 
L 578.622393 149.25142 
L 580.94171 147.596424 
L 581.604374 143.955451 
L 580.94171 138.990481 
L 579.285058 134.6875 
L 576.634409 133.694511 
L 572.327099 134.6875 
L 569.013786 137.004485 
L 563.712489 139.983469 
L 565.700482 137.004485 
L 570.670447 134.356501 
L 574.977748 133.032513 
L 578.953725 131.046527 
L 584.917678 127.736543 
L 591.212972 126.081556 
L 595.520273 123.764562 
L 596.845602 120.454588 
L 595.851605 115.489618 
L 593.863621 111.186637 
L 591.544304 107.545664 
L 588.893656 104.897679 
L 583.923691 104.23568 
L 579.616381 105.559668 
L 577.297064 107.214664 
L 574.646416 112.510634 
L 572.327099 115.158618 
L 574.977748 109.53165 
L 580.279045 103.242683 
L 579.616381 99.60171 
L 577.297064 95.960727 
L 573.98376 92.319745 
L 567.357134 89.009771 
L 561.393172 86.692785 
L 555.42922 84.70679 
L 551.12191 85.037789 
L 545.48928 88.016773 
L 544.495293 91.657755 
L 547.808597 97.946713 
L 551.784574 102.580693 
L 554.766555 104.897679 
L 553.772558 106.552666 
L 554.103891 111.848635 
L 552.447239 113.834621 
L 551.784574 118.799592 
L 551.12191 127.736543 
L 550.127922 120.785587 
L 550.459245 115.820617 
L 548.139929 111.848635 
L 544.495293 108.538652 
L 538.199999 105.228678 
L 544.826625 105.890667 
L 548.471261 103.904681 
L 547.477274 99.932709 
L 545.48928 94.30574 
L 541.513312 90.333758 
L 535.218018 86.692785 
L 526.603417 83.382802 
L 519.645458 79.74182 
L 515.006825 75.438848 
L 511.36218 69.149881 
L 506.060882 63.191922 
L 501.42225 61.536926 
L 498.108936 59.881939 
L 494.4643 55.909957 
L 490.383617 51.251852 
L 482.763004 46.948871 
L 477.130374 45.293884 
L 470.835089 45.293884 
L 456.919181 43.969887 
L 448.635903 45.293884 
L 442.340618 45.955883 
L 435.713992 47.941869 
L 429.087375 52.244841 
L 422.460749 54.561826 
L 416.165464 58.864807 
L 412.189486 64.491776 
L 411.19549 71.773731 
L 410.532834 75.414704 
L 413.183483 76.407702 
L 417.490784 74.752715 
L 422.792081 73.097719 
L 429.418707 70.118735 
L 435.051328 67.80175 
L 441.677954 66.808761 
L 447.310584 65.153765 
L 452.611881 64.491776 
L 458.24451 64.160777 
L 464.208463 64.160777 
L 468.847105 64.822766 
L 474.479725 66.146763 
L 479.781023 68.132749 
L 483.094336 70.780734 
L 477.461706 68.463748 
L 471.829077 66.477762 
L 466.527779 65.484764 
L 461.226482 64.822766 
L 450.292564 65.484764 
L 444.328603 66.808761 
L 438.033309 67.80175 
L 432.732011 69.456746 
L 426.768059 72.104731 
L 421.466761 75.083715 
L 417.159451 77.731699 
L 413.514815 80.379684 
L 411.526822 84.020657 
L 410.201502 87.992639 
L 412.189486 89.978625 
L 415.5028 90.640623 
L 420.804097 89.316626 
L 428.424711 87.992639 
L 435.051328 86.999641 
L 441.015289 87.66164 
L 444.991267 88.654628 
L 447.973239 92.957609 
L 446.647919 95.605594 
L 442.340618 96.598582 
L 444.659935 94.612596 
L 444.328603 90.309624 
L 438.695973 88.323638 
L 432.732011 88.323638 
L 425.111397 89.316626 
L 418.153448 91.302613 
L 413.514815 92.957609 
L 408.544841 95.274594 
L 404.23754 97.922579 
L 400.924227 102.55655 
L 396.948259 104.211537 
L 391.315629 105.204535 
L 379.387715 104.211537 
L 375.411737 107.190521 
L 376.737066 112.155491 
L 379.719038 114.803476 
L 384.35768 116.127473 
L 387.008329 118.113459 
L 380.713035 120.099445 
L 377.731054 123.409428 
L 378.062386 129.036397 
L 378.393718 132.677379 
L 380.05037 137.31135 
L 379.719038 141.614322 
L 377.399721 134.001367 
L 376.737066 127.712409 
L 374.417741 122.41644 
L 372.429756 117.12047 
L 367.791124 114.472486 
L 362.489826 114.472486 
L 366.134472 112.155491 
L 369.116443 109.838506 
L 370.773104 104.873535 
L 369.116443 99.577566 
L 364.809143 94.612596 
L 358.513849 92.62661 
L 353.212561 94.612596 
L 348.573918 97.59158 
L 344.266618 101.894551 
L 339.627985 105.204535 
L 335.92696 107.610031 
L 331.950992 111.251004 
L 332.282315 116.546973 
L 333.938976 121.511953 
L 336.589625 124.490927 
L 348.517539 125.814924 
L 353.487504 127.138912 
L 359.120134 130.779895 
L 354.481501 128.13191 
L 350.505523 127.138912 
L 345.535558 126.807922 
L 341.890922 128.462909 
L 338.908941 131.441893 
L 338.246277 135.413865 
L 339.902929 139.385847 
L 344.541571 145.343815 
L 350.836856 146.667803 
L 356.469485 146.005804 
L 360.776795 143.02682 
L 358.788802 146.005804 
L 358.788802 147.329801 
L 361.43945 149.977786 
L 365.415428 153.618759 
L 368.397409 157.259742 
L 370.385393 161.231714 
L 371.37939 165.203696 
L 366.078093 155.273755 
L 362.102115 151.301774 
L 357.794814 148.653789 
L 348.517539 147.9918 
L 344.210239 148.984788 
L 340.896926 153.618759 
L 340.234261 158.914728 
L 341.55959 162.88671 
L 345.535558 168.18268 
L 350.505523 169.506667 
L 355.144166 171.492663 
L 360.776795 175.464635 
L 363.096112 177.450621 
L 363.427444 181.091604 
L 362.433447 178.443619 
L 360.114131 175.795634 
L 356.469485 172.81665 
L 352.162185 171.161664 
L 347.523552 170.499665 
L 343.878906 171.823653 
L 340.896926 175.464635 
L 339.902929 180.098606 
L 339.571606 185.063576 
L 342.222255 194.331527 
L 346.860887 197.9725 
L 351.49952 200.289495 
L 355.144166 200.951484 
L 358.457469 199.958496 
L 357.13215 203.599469 
L 356.469485 206.909452 
L 354.812833 213.860409 
L 354.150169 217.83239 
L 355.144166 222.466361 
L 356.800818 226.107344 
L 356.138153 230.410315 
L 353.487504 235.706285 
L 347.523552 241.333253 
L 351.168188 237.692271 
L 353.156172 232.727301 
L 354.812833 228.09333 
L 354.150169 223.790358 
L 353.156172 220.149376 
L 353.156172 215.184406 
L 354.481501 208.233449 
L 352.824849 203.26847 
L 349.511536 199.958496 
L 343.878906 198.965498 
L 338.577609 198.3035 
L 333.607644 198.3035 
L 324.993034 202.93748 
L 322.342385 205.916455 
L 319.691736 209.557437 
L 319.360404 212.86742 
L 319.360404 216.839393 
L 317.37242 221.473373 
L 313.727774 226.107344 
L 310.083138 229.417318 
L 312.071122 231.072314 
L 314.390439 233.389299 
L 315.053103 237.030282 
L 317.041088 240.671255 
L 318.697749 244.312237 
L 313.727774 239.678266 
L 312.071122 234.051298 
L 309.751806 231.072314 
L 304.119176 230.410315 
L 309.420474 227.100332 
L 313.065119 223.459359 
L 315.053103 219.156378 
L 316.0471 215.515405 
L 317.37242 208.895438 
L 320.354401 204.592467 
L 321.348397 202.606481 
L 324.661701 200.620485 
L 328.637679 199.296497 
L 331.61966 197.310511 
L 334.932964 193.669529 
L 336.589625 189.366557 
L 337.583612 183.408589 
L 336.258293 179.105618 
L 333.276312 176.457633 
L 328.637679 176.457633 
L 323.336382 178.443619 
L 318.035084 180.760605 
L 314.059107 182.746591 
L 306.769825 187.380571 
L 302.131192 191.352543 
L 297.823882 196.317513 
L 290.534601 206.247454 
L 286.558633 210.219435 
L 283.576652 212.86742 
L 280.263338 218.494389 
L 276.618702 224.452347 
L 275.293373 229.086328 
L 272.974057 232.727301 
L 273.305389 237.692271 
L 274.630709 241.995252 
L 276.618702 246.629223 
L 280.263338 249.939206 
L 283.245319 252.91819 
L 285.564636 252.256191 
L 287.883952 250.270205 
L 289.146044 250.774534 
L 287.458916 250.921092 
L 291.103561 253.569077 
L 294.416875 257.872048 
L 297.067523 263.499017 
L 300.049504 267.801989 
L 302.368821 272.766959 
L 302.700153 277.40093 
L 303.362808 282.365909 
L 304.025473 291.633851 
L 303.031476 293.288838 
L 303.031476 288.985866 
L 302.037488 285.344884 
L 300.380836 281.041912 
L 298.724175 278.062928 
L 298.061511 274.752954 
L 297.067523 271.111972 
L 294.416875 268.794986 
L 291.766226 267.801989 
L 287.790248 269.787975 
L 280.169635 277.40093 
L 275.531002 282.365909 
L 270.561037 288.323868 
L 266.253727 292.957848 
L 264.265743 295.936823 
L 263.271755 298.584807 
L 261.615094 296.92982 
L 257.639126 299.246806 
L 257.639126 299.246806 
" style="fill:none;stroke:#000000;stroke-linecap:square;stroke-width:1.5;"/>
   </g>
   <g id="line2d_2">
    <path clip-path="url(#pd925d9edfc)" d="M 681.827434 286.808736 
L 677.851466 290.449709 
L 677.188801 293.097694 
L 679.176795 297.400666 
L 683.484095 304.351622 
L 678.182798 296.076678 
L 675.200817 291.773697 
L 670.230852 289.125712 
L 664.26689 287.470725 
L 658.965593 286.477728 
L 655.652289 287.470725 
L 653.00164 289.456711 
L 654.32696 293.759683 
L 657.308941 299.386652 
L 653.332963 293.097694 
L 651.676311 289.787711 
L 647.369011 286.477728 
L 651.013647 288.132724 
L 654.32696 287.139726 
L 656.646276 285.484739 
L 655.983612 282.174756 
L 651.013647 274.230802 
L 655.320957 280.18877 
L 658.965593 284.160742 
L 661.947574 286.146728 
L 667.580203 287.801725 
L 673.875497 289.125712 
L 679.83945 288.132724 
L 681.827434 286.808736 
" style="fill:none;stroke:#000000;stroke-linecap:square;stroke-width:1.5;"/>
   </g>
   <g id="line2d_3">
    <path clip-path="url(#pd925d9edfc)" d="M 609.791671 127.098688 
L 607.472327 125.071304 
L 608.135019 125.443692 
L 613.436317 128.753675 
L 609.791671 127.098688 
" style="fill:none;stroke:#000000;stroke-linecap:square;stroke-width:1.5;"/>
   </g>
   <g id="line2d_4">
    <path clip-path="url(#pd925d9edfc)" d="M 591.568463 160.529492 
L 589.470007 158.433145 
L 590.574475 159.205495 
L 594.219111 161.853479 
L 598.195089 164.501464 
L 600.845738 168.473446 
L 601.839725 173.107417 
L 600.514406 174.431414 
L 600.514406 170.128433 
L 599.189077 167.149449 
L 596.207105 164.170474 
L 591.568463 160.529492 
" style="fill:none;stroke:#000000;stroke-linecap:square;stroke-width:1.5;"/>
   </g>
   <g id="line2d_5">
    <path clip-path="url(#pd925d9edfc)" d="M 383.436168 188.365515 
L 386.086817 185.386531 
L 389.731462 181.083559 
L 393.044775 177.442577 
L 397.020744 170.82262 
L 400.334057 169.829622 
L 404.310025 169.498623 
L 410.273987 169.167623 
L 416.237949 169.498623 
L 420.545249 170.160621 
L 424.852559 171.153619 
L 430.153857 171.484609 
L 445.726416 170.82262 
L 452.353033 169.829622 
L 457.985663 169.498623 
L 464.280957 168.174635 
L 470.576242 168.174635 
L 476.208871 167.843636 
L 485.154814 167.181637 
L 494.43208 166.188639 
L 502.384026 164.533652 
L 514.311949 163.209665 
L 523.257883 161.554668 
L 530.547164 161.223669 
L 536.511126 160.230681 
L 533.197813 161.885668 
L 532.86649 163.871654 
L 540.487104 170.160621 
L 546.119733 176.118589 
L 536.842458 168.174635 
L 531.209829 165.195651 
L 525.908532 163.209665 
L 505.034674 164.864652 
L 490.124779 167.512636 
L 479.853517 168.505634 
L 462.292964 171.484609 
L 452.353033 171.484609 
L 439.762455 171.815608 
L 433.135828 172.146607 
L 422.533243 172.477606 
L 416.569281 171.484609 
L 412.593303 169.829622 
L 406.629351 169.498623 
L 401.328054 171.484609 
L 396.689411 174.463593 
L 393.376108 179.097573 
L 388.406142 184.062543 
L 383.436168 188.365515 
" style="fill:none;stroke:#000000;stroke-linecap:square;stroke-width:1.5;"/>
   </g>
   <g id="line2d_6">
    <path clip-path="url(#pd925d9edfc)" d="M 391.34785 153.562437 
L 394.992486 148.266467 
L 398.305799 144.294495 
L 401.28778 139.991514 
L 403.607097 136.350541 
L 405.595081 136.68154 
L 411.890375 136.019542 
L 417.854337 136.019542 
L 425.47495 135.026544 
L 436.408868 133.702556 
L 446.017475 132.04756 
L 456.951402 130.061574 
L 464.903348 128.737586 
L 481.469895 127.08259 
L 494.391806 126.4206 
L 498.367784 125.758602 
L 503.337749 124.765604 
L 508.307714 122.779618 
L 513.609011 121.45563 
L 518.247644 121.78662 
L 522.554954 124.103615 
L 526.530923 126.7516 
L 529.844236 130.392573 
L 533.820204 135.026544 
L 538.127514 140.322513 
L 545.748128 148.597466 
L 538.790178 142.308509 
L 534.814201 137.343529 
L 530.5069 133.371557 
L 524.874271 128.406587 
L 517.916312 126.7516 
L 508.639046 126.4206 
L 491.741158 127.08259 
L 483.457889 127.413589 
L 473.849281 128.737586 
L 463.246687 129.730574 
L 460.264706 130.392573 
L 448.336792 132.378559 
L 427.794267 135.357543 
L 417.191672 138.336527 
L 410.565046 139.660524 
L 404.932416 141.64651 
L 400.293783 144.956493 
L 396.317815 148.597466 
L 391.34785 153.562437 
" style="fill:none;stroke:#000000;stroke-linecap:square;stroke-width:1.5;"/>
   </g>
   <g id="line2d_7">
    <path clip-path="url(#pd925d9edfc)" d="M 386.749481 225.7683 
L 387.080813 223.451314 
L 388.07481 219.810332 
L 390.062794 215.50736 
L 392.050779 211.866378 
L 391.719446 207.563406 
L 388.737465 204.253423 
L 392.382111 203.260425 
L 397.352076 202.267437 
L 401.990709 199.619452 
L 406.298019 197.302467 
L 409.611322 194.323483 
L 412.261971 191.344499 
L 417.563268 192.999486 
L 424.521227 193.330485 
L 432.473173 190.6825 
L 440.425119 189.358512 
L 449.702385 188.696514 
L 460.636312 186.710528 
L 469.913577 186.048529 
L 489.130782 185.386531 
L 495.757409 184.393533 
L 508.67932 185.055531 
L 514.974605 184.724532 
L 517.293921 182.738546 
L 519.613247 186.379528 
L 523.257883 187.703516 
L 528.55918 189.027513 
L 533.529145 190.351501 
L 535.848462 192.668486 
L 539.493107 196.971467 
L 541.812424 201.274439 
L 543.469085 206.570408 
L 545.457069 217.162347 
L 539.493107 202.929426 
L 536.179794 195.316471 
L 530.547164 191.344499 
L 523.589215 189.358512 
L 518.287918 189.358512 
L 514.974605 188.365515 
L 509.010652 187.703516 
L 496.420064 187.703516 
L 483.166821 187.372517 
L 469.582254 187.703516 
L 460.967644 187.703516 
L 450.696381 189.689502 
L 438.437126 191.675498 
L 427.83454 193.661484 
L 419.882594 195.978469 
L 410.273987 199.288453 
L 402.322041 202.267437 
L 395.695424 206.570408 
L 393.70743 211.204379 
L 392.050779 216.500349 
L 389.40013 221.465319 
L 386.749481 225.7683 
" style="fill:none;stroke:#000000;stroke-linecap:square;stroke-width:1.5;"/>
   </g>
   <g id="line2d_8">
    <path clip-path="url(#pd925d9edfc)" d="M 416.900613 236.117741 
L 423.195898 234.462754 
L 429.491192 233.800755 
L 435.786477 232.145768 
L 440.425119 230.159782 
L 445.726416 227.511797 
L 451.690369 224.863813 
L 455.003682 223.870815 
L 460.304979 223.539816 
L 467.594261 223.539816 
L 481.510169 224.201814 
L 489.130782 225.525811 
L 495.426077 226.849799 
L 502.052694 228.835785 
L 509.010652 229.828783 
L 516.299934 231.15277 
L 527.565193 232.807767 
L 519.281915 232.476767 
L 511.661301 232.476767 
L 501.058706 233.138766 
L 484.49215 234.793753 
L 475.214875 236.44874 
L 465.937609 237.772737 
L 457.985663 237.772737 
L 449.702385 237.110738 
L 441.419106 236.117741 
L 434.129825 235.455751 
L 416.900613 236.117741 
" style="fill:none;stroke:#000000;stroke-linecap:square;stroke-width:1.5;"/>
   </g>
   <g id="line2d_9">
    <path clip-path="url(#pd925d9edfc)" d="M 418.888597 257.632617 
L 428.165863 255.315632 
L 441.087774 253.991644 
L 447.051736 252.998647 
L 452.353033 251.34366 
L 458.97966 250.019663 
L 466.268941 249.357664 
L 472.564226 249.026674 
L 478.85952 249.026674 
L 486.480134 249.688663 
L 492.775428 250.019663 
L 500.064709 251.34366 
L 511.992624 252.667647 
L 518.950582 252.667647 
L 514.311949 254.322644 
L 510.00464 256.970628 
L 505.697339 260.280602 
L 499.402045 263.590585 
L 506.360003 257.632617 
L 506.028671 254.322644 
L 500.064709 253.329646 
L 491.118767 251.674659 
L 483.829485 251.01266 
L 476.871536 250.019663 
L 469.582254 251.01266 
L 461.298976 251.34366 
L 452.684366 252.998647 
L 444.401087 254.322644 
L 437.443138 255.315632 
L 430.816512 255.97763 
L 418.888597 257.632617 
" style="fill:none;stroke:#000000;stroke-linecap:square;stroke-width:1.5;"/>
   </g>
   <g id="line2d_10">
    <path clip-path="url(#pd925d9edfc)" d="M 429.483139 121.431487 
L 437.435085 119.114501 
L 444.393035 117.790504 
L 449.363 117.459514 
L 453.338977 116.797516 
L 459.30293 116.466517 
L 466.260888 115.473519 
L 471.562186 114.149531 
L 475.206822 113.487533 
L 479.514132 112.494535 
L 487.466078 110.508549 
L 492.104711 109.51556 
L 496.412011 107.860564 
L 501.050644 105.543579 
L 506.683274 104.219591 
L 502.707305 105.874578 
L 492.767375 109.84655 
L 487.466078 111.170547 
L 481.502116 112.825534 
L 476.200819 114.149531 
L 468.911537 115.473519 
L 462.284911 116.466517 
L 453.67031 117.459514 
L 446.712351 118.452503 
L 440.085734 120.107499 
L 429.483139 121.431487 
" style="fill:none;stroke:#000000;stroke-linecap:square;stroke-width:1.5;"/>
   </g>
   <g id="line2d_11">
    <path clip-path="url(#pd925d9edfc)" d="M 466.891332 149.921463 
L 477.493927 147.935468 
L 488.096522 147.273479 
L 498.036452 146.94248 
L 482.795224 148.597466 
L 466.891332 149.921463 
L 466.891332 149.921463 
" style="fill:none;stroke:#000000;stroke-linecap:square;stroke-width:1.5;"/>
   </g>
   <g id="line2d_12">
    <path clip-path="url(#pd925d9edfc)" d="M 596.610922 367.620533 
L 603.900203 371.592515 
L 610.52682 371.261516 
L 620.46676 371.592515 
L 626.430712 370.599517 
L 628.087374 367.951532 
L 624.442728 364.310559 
L 619.804095 359.676579 
L 614.83413 356.697595 
L 610.195498 355.042608 
L 603.900203 354.711609 
L 597.273586 355.373607 
L 592.966277 357.359594 
L 590.978292 361.000576 
L 593.297609 363.97956 
L 596.610922 367.620533 
" style="fill:none;stroke:#000000;stroke-linecap:square;stroke-width:1.5;"/>
   </g>
   <g id="line2d_13">
    <path clip-path="url(#pd925d9edfc)" d="M 426.108343 335.729014 
L 429.752979 332.75003 
L 433.066292 329.771046 
L 437.373593 327.454061 
L 441.680903 324.806076 
L 446.650868 322.489091 
L 453.277485 320.172105 
L 460.566766 318.848108 
L 467.193393 318.517109 
L 473.157354 318.517109 
L 478.789984 319.510107 
L 498.669844 323.482079 
L 504.302474 324.806076 
L 509.935103 324.806076 
L 514.905069 324.144078 
L 520.206366 324.475077 
L 524.182334 325.799065 
L 526.280785 327.37132 
L 521.200353 325.468075 
L 515.236401 325.137076 
L 508.609774 325.799065 
L 501.983157 325.468075 
L 486.410598 322.489091 
L 481.1093 323.482079 
L 476.139335 321.827092 
L 469.512709 320.834095 
L 461.892095 320.503095 
L 454.934146 321.165094 
L 448.970184 322.82009 
L 443.337555 324.806076 
L 438.698922 327.454061 
L 434.391612 329.440047 
L 431.078308 332.419031 
L 431.740963 335.398015 
L 433.397624 337.053002 
L 438.036257 338.376999 
L 443.337555 338.376999 
L 452.946152 337.053002 
L 458.24745 335.067016 
L 462.55476 332.75003 
L 461.229431 334.736017 
L 456.259466 336.722003 
L 450.958168 338.376999 
L 447.313532 339.038988 
L 442.343558 340.693984 
L 439.361586 341.024984 
L 434.391612 340.031986 
L 431.078308 339.038988 
L 427.10233 340.031986 
L 424.120349 341.355983 
L 419.150384 344.003968 
L 416.499736 347.313942 
L 414.180419 351.285923 
L 412.8551 354.264907 
L 412.8551 358.898878 
L 414.180419 361.546863 
L 417.493732 363.863848 
L 422.132365 364.856846 
L 427.433663 364.856846 
L 432.403628 364.525847 
L 438.698922 363.532849 
L 444.331551 361.546863 
L 448.638852 358.898878 
L 453.608817 358.23688 
L 458.578782 358.23688 
L 451.620833 359.229877 
L 446.319535 361.877862 
L 441.018238 363.532849 
L 437.704925 365.187836 
L 436.048273 365.518835 
L 423.789017 365.518835 
L 418.487729 366.180834 
L 416.499736 368.16682 
L 416.831068 372.8008 
L 418.819052 376.772772 
L 421.138368 379.751756 
L 423.789017 384.385727 
L 427.433663 388.357709 
L 431.740963 392.660681 
L 437.373593 395.970664 
L 443.337555 398.949648 
L 448.638852 399.280638 
L 455.596801 399.942636 
L 461.892095 400.273635 
L 475.476671 399.611637 
L 482.765952 398.949648 
L 490.055234 397.95665 
L 499.663841 395.970664 
L 507.615787 394.646667 
L 513.57974 392.660681 
L 518.549705 389.350697 
L 523.851002 386.040724 
L 529.814964 379.420757 
L 534.122274 373.13179 
L 537.104245 366.511833 
L 538.429574 359.560877 
L 536.110258 355.919894 
L 532.13428 355.919894 
L 528.489644 356.912892 
L 522.19435 357.574881 
L 517.224385 357.243882 
L 515.236401 358.23688 
L 510.929091 359.560877 
L 505.627794 359.891866 
L 511.591755 358.567879 
L 514.242404 356.912892 
L 514.573736 354.595897 
L 517.555717 355.919894 
L 520.537698 356.581893 
L 526.170328 356.250893 
L 531.802948 354.926896 
L 536.772922 352.94091 
L 539.092239 349.630927 
L 538.429574 344.665957 
L 535.778926 340.031986 
L 530.477628 337.715 
L 525.507663 338.046 
L 520.86903 339.038988 
L 516.230388 341.024984 
L 509.272439 341.355983 
L 503.971142 341.024984 
L 496.019196 341.024984 
L 488.06725 340.031986 
L 494.362544 339.700987 
L 498.669844 339.038988 
L 501.651825 339.038988 
L 506.290458 339.369987 
L 510.597759 340.031986 
L 513.911072 339.369987 
L 518.218382 338.376999 
L 521.863018 337.715 
L 531.802948 337.053002 
L 534.122274 335.398015 
L 530.477628 331.757033 
L 526.750126 327.722971 
L 528.158312 328.778049 
L 528.489644 327.123062 
L 523.519679 323.15108 
L 516.893053 321.165094 
L 511.591755 320.172105 
L 505.959126 318.517109 
L 491.380563 312.89014 
L 485.085269 312.228151 
L 479.121307 311.235154 
L 473.488687 310.573155 
L 467.193393 310.904154 
L 461.229431 311.566153 
L 454.271481 313.552139 
L 449.964181 315.207126 
L 444.000219 319.510107 
L 438.036257 322.82009 
L 428.758992 327.78506 
L 425.777011 330.764044 
L 423.457694 334.736017 
L 423.789017 337.053002 
L 426.108343 335.729014 
L 426.108343 335.729014 
" style="fill:none;stroke:#000000;stroke-linecap:square;stroke-width:1.5;"/>
   </g>
   <g id="line2d_14">
    <path clip-path="url(#pd925d9edfc)" d="M 463.626345 379.52037 
L 477.210921 377.865383 
L 490.132832 375.879397 
L 499.078775 373.893411 
L 487.482183 377.534384 
L 480.855557 378.858381 
L 472.90362 379.52037 
L 463.626345 379.52037 
L 463.626345 379.52037 
" style="fill:none;stroke:#000000;stroke-linecap:square;stroke-width:1.5;"/>
   </g>
   <g id="line2d_15">
    <path clip-path="url(#pd925d9edfc)" d="M 430.153857 234.462754 
L 437.443138 234.793753 
L 442.413103 235.124752 
L 449.371052 235.786751 
L 456.991666 236.117741 
L 465.274944 236.117741 
L 472.564226 235.455751 
L 480.847504 234.131754 
L 488.79945 233.138766 
L 493.10676 232.476767 
L 498.076725 231.48377 
L 500.064709 228.835785 
L 493.769415 227.511797 
L 488.468118 226.5188 
L 483.498153 225.856801 
L 477.202868 225.194812 
L 470.907574 224.863813 
L 464.943612 225.194812 
L 458.316995 225.194812 
L 452.021701 226.849799 
L 445.395084 229.497784 
L 440.425119 231.814769 
L 435.455154 233.800755 
L 430.153857 234.462754 
" style="fill:none;stroke:#000000;stroke-linecap:square;stroke-width:1.5;"/>
   </g>
   <g id="line2d_16">
    <path clip-path="url(#pd925d9edfc)" d="M 457.29884 401.72138 
L 461.274808 404.700364 
L 466.244773 406.35536 
L 472.8714 407.679348 
L 479.498017 408.010347 
L 488.112627 406.686359 
L 496.727238 403.045377 
L 500.040551 400.066393 
L 500.040551 397.087409 
L 494.739254 398.411406 
L 487.449963 399.735393 
L 480.160681 400.728391 
L 473.202732 401.39039 
L 465.582118 401.72138 
L 457.29884 401.72138 
" style="fill:none;stroke:#000000;stroke-linecap:square;stroke-width:1.5;"/>
   </g>
   <g id="line2d_17">
    <path clip-path="url(#pd925d9edfc)" d="M 392.374058 94.289641 
L 398.33802 91.310667 
L 403.639317 88.331683 
L 407.615285 84.028702 
L 409.60327 80.718728 
L 408.940614 77.739744 
L 406.621289 75.753748 
L 405.958634 72.443775 
L 407.946618 69.133791 
L 409.60327 66.154807 
L 409.271937 62.182835 
L 405.958634 64.83082 
L 402.64532 67.809794 
L 398.669343 70.126789 
L 396.350026 71.450777 
L 392.374058 75.091759 
L 390.386074 78.401733 
L 389.723409 82.373715 
L 388.39808 87.669684 
L 387.735425 90.648668 
L 385.084776 93.958651 
L 382.765451 97.268625 
L 381.440131 100.578608 
L 382.434128 102.895594 
L 386.741428 102.564595 
L 389.723409 99.585611 
L 390.386074 96.606636 
L 392.374058 94.289641 
" style="fill:none;stroke:#000000;stroke-linecap:square;stroke-width:1.5;"/>
   </g>
   <g id="line2d_18">
    <path clip-path="url(#pd925d9edfc)" d="M 323.961721 430.789831 
L 326.281038 424.831863 
L 328.600354 419.204895 
L 331.913667 414.239925 
L 336.5523 408.281957 
L 339.534281 405.302973 
L 343.178917 401.000001 
L 347.817559 396.69703 
L 351.130863 392.725048 
L 350.468208 391.070061 
L 346.49223 391.732059 
L 343.510249 393.056047 
L 338.871617 397.028029 
L 335.558303 399.345014 
L 331.913667 401.992999 
L 328.931686 403.978985 
L 324.955709 407.619968 
L 320.317076 413.246927 
L 317.99776 416.225911 
L 316.009775 420.859882 
L 316.009775 425.162863 
L 316.341108 428.141847 
L 316.672431 431.451821 
L 317.003763 436.085801 
L 319.985744 439.064785 
L 326.281038 439.064785 
L 331.913667 438.733785 
L 337.546288 435.423802 
L 341.853598 430.789831 
L 345.829566 424.500864 
L 353.45018 414.239925 
L 357.757489 409.605954 
L 364.052774 405.633972 
L 370.679401 402.323998 
L 378.300014 400.338003 
L 386.583293 398.352016 
L 393.541242 396.36603 
L 391.88459 392.725048 
L 386.583293 387.760078 
L 379.956666 383.788105 
L 372.667385 382.795108 
L 367.69742 384.450094 
L 361.733458 387.429078 
L 356.43216 391.732059 
L 351.130863 395.373032 
L 344.835578 401.992999 
L 338.871617 410.267952 
L 335.226971 416.55691 
L 331.251003 423.176876 
L 328.931686 428.472846 
L 327.93769 430.127833 
L 326.61237 432.444818 
L 324.293044 434.430804 
L 321.642396 434.430804 
L 318.991756 434.099805 
L 318.991756 431.120831 
L 321.311073 426.48685 
L 321.311073 430.789831 
L 323.961721 430.789831 
" style="fill:none;stroke:#000000;stroke-linecap:square;stroke-width:1.5;"/>
   </g>
   <g id="line2d_19">
    <path clip-path="url(#pd925d9edfc)" d="M 303.12518 174.140647 
L 301.79986 174.471637 
L 304.450509 169.506667 
L 307.763822 164.872696 
L 311.73979 161.231714 
L 316.378423 157.92174 
L 321.348397 155.273755 
L 321.017065 153.28776 
L 324.661701 153.618759 
L 329.631666 153.28776 
L 334.270309 148.653789 
L 335.264296 144.681817 
L 334.932964 141.040834 
L 335.92696 138.723849 
L 333.938976 135.744865 
L 331.950992 133.758879 
L 329.962999 133.427879 
L 321.67972 137.399861 
L 328.969011 132.765881 
L 331.950992 129.786897 
L 333.276312 126.145924 
L 332.94498 121.842943 
L 330.294331 116.546973 
L 326.981018 112.244002 
L 322.673717 111.251004 
L 317.041088 111.913002 
L 310.745803 113.236999 
L 304.781841 116.546973 
L 298.486547 120.849954 
L 293.18525 126.807922 
L 288.877949 133.427879 
L 283.576652 140.709835 
L 278.606687 147.660801 
L 271.98006 156.266744 
L 266.347431 164.541697 
L 262.371462 170.168666 
L 259.058149 173.809648 
L 256.738833 181.091604 
L 256.407501 189.366557 
L 256.407501 197.9725 
L 258.395485 204.261468 
L 261.377466 207.571451 
L 264.359447 207.571451 
L 268.335424 204.592467 
L 266.347431 207.240452 
L 262.371462 209.888436 
L 261.708798 212.536421 
L 262.04013 217.83239 
L 262.702795 222.466361 
L 264.690779 226.769342 
L 268.004092 229.748317 
L 272.311392 228.424329 
L 274.630709 224.783347 
L 275.956038 220.480375 
L 276.950025 217.170392 
L 277.61269 214.191408 
L 280.926003 212.536421 
L 285.564636 207.90245 
L 290.534601 202.606481 
L 294.510579 198.3035 
L 297.161227 194.331527 
L 299.480544 189.035558 
L 304.450509 187.049572 
L 311.408458 183.408589 
L 319.360404 179.767607 
L 326.649695 177.119622 
L 332.282315 173.809648 
L 337.25228 169.506667 
L 338.908941 164.210698 
L 337.914945 159.907726 
L 336.920957 156.597743 
L 333.276312 154.942756 
L 328.637679 154.942756 
L 323.667714 156.266744 
L 317.37242 159.245728 
L 312.733787 162.224712 
L 309.089142 165.865694 
L 305.113173 170.499665 
L 303.12518 174.140647 
" style="fill:none;stroke:#000000;stroke-linecap:square;stroke-width:1.5;"/>
   </g>
   <g id="line2d_20">
    <path clip-path="url(#pd925d9edfc)" d="M 269.660744 187.711561 
L 270.323408 186.387573 
L 270.654741 183.07759 
L 271.648728 179.105618 
L 273.636721 172.81665 
L 274.630709 169.175668 
L 277.61269 163.548709 
L 282.913987 156.597743 
L 289.540613 148.984788 
L 296.829895 141.702833 
L 309.751806 131.441893 
L 304.119176 137.730851 
L 301.468528 141.702833 
L 299.149211 146.005804 
L 295.504566 149.977786 
L 289.540613 156.266744 
L 283.576652 164.541697 
L 277.944022 173.14765 
L 273.305389 181.091604 
L 269.660744 187.711561 
" style="fill:none;stroke:#000000;stroke-linecap:square;stroke-width:1.5;"/>
   </g>
   <g id="line2d_21">
    <path clip-path="url(#pd925d9edfc)" d="M 226.461785 261.182032 
L 231.100418 258.865046 
L 234.413731 256.548051 
L 238.058377 253.569077 
L 241.040348 251.252082 
L 245.347658 248.273107 
L 249.248621 246.474465 
L 246.341646 248.604097 
L 240.709026 252.907078 
L 237.395712 256.879051 
L 239.383697 260.851032 
L 239.383697 263.830016 
L 236.070383 267.13999 
L 231.763083 271.442971 
L 229.775099 275.083944 
L 229.112434 279.055926 
L 230.769086 283.358898 
L 233.751067 285.344884 
L 236.733048 284.351895 
L 240.046361 279.055926 
L 245.016326 272.10497 
L 249.323627 266.809 
L 254.293592 262.506019 
L 258.932234 258.203048 
L 264.233531 254.231066 
L 269.866152 250.590093 
L 273.510797 248.273107 
L 273.510797 243.308128 
L 272.5168 239.005156 
L 269.866152 235.364183 
L 266.221515 233.378188 
L 262.57687 234.040186 
L 258.932234 237.350169 
L 255.950253 241.322142 
L 251.31162 244.963124 
L 249.924633 245.979223 
L 251.974275 243.639127 
L 254.624924 241.653141 
L 254.956256 239.336156 
L 252.968272 238.674157 
L 248.660972 239.005156 
L 246.010323 238.674157 
L 243.690997 237.01917 
L 238.721032 237.350169 
L 233.088402 238.012159 
L 228.44977 238.674157 
L 223.479805 238.674157 
L 221.160488 241.98414 
L 220.497824 246.287112 
L 220.497824 251.252082 
L 220.829156 256.548051 
L 223.148472 260.189034 
L 226.461785 261.182032 
" style="fill:none;stroke:#000000;stroke-linecap:square;stroke-width:1.5;"/>
   </g>
   <g id="line2d_22">
    <path clip-path="url(#pd925d9edfc)" d="M 258.350107 236.407733 
L 261.332088 230.449775 
L 262.326085 224.988306 
L 261.829086 219.030338 
L 260.83509 212.57588 
L 258.350107 208.603898 
L 253.87714 206.617912 
L 247.913179 206.617912 
L 242.943213 208.1074 
L 239.464243 211.582882 
L 239.961233 214.561866 
L 243.440212 219.526837 
L 237.47625 215.554855 
L 233.99728 216.547853 
L 229.524304 219.526837 
L 227.039321 223.995308 
L 224.554339 228.960278 
L 223.063353 234.421747 
L 225.548336 238.393729 
L 232.009287 237.89723 
L 238.470247 236.904232 
L 243.93721 235.911244 
L 247.913179 236.904232 
L 250.317623 238.343158 
L 254.624924 237.681169 
L 258.350107 236.407733 
" style="fill:none;stroke:#000000;stroke-linecap:square;stroke-width:1.5;"/>
   </g>
   <g id="line2d_23">
    <path clip-path="url(#pd925d9edfc)" d="M 226.461785 276.738941 
L 229.112434 275.745943 
L 231.431751 271.442971 
L 234.413731 267.801989 
L 238.058377 264.492005 
L 238.3897 261.844021 
L 237.395712 258.203048 
L 235.076396 258.203048 
L 231.431751 259.527035 
L 227.787114 261.182032 
L 225.136466 263.830016 
L 222.485817 267.801989 
L 222.485817 271.442971 
L 224.142469 274.421955 
L 226.461785 276.738941 
" style="fill:none;stroke:#000000;stroke-linecap:square;stroke-width:1.5;"/>
   </g>
  </g>
 </g>
 <defs>
  <clipPath id="pd925d9edfc">
   <rect height="715.68" width="933.12" x="0" y="0"/>
  </clipPath>
 </defs>
</svg>
