<?xml version="1.0" encoding="utf-8" standalone="no"?>
<!DOCTYPE svg PUBLIC "-//W3C//DTD SVG 1.1//EN"
  "http://www.w3.org/Graphics/SVG/1.1/DTD/svg11.dtd">
<!-- Created with matplotlib (https://matplotlib.org/) -->
<svg height="641.52pt" version="1.1" viewBox="0 0 855.36 641.52" width="855.36pt" xmlns="http://www.w3.org/2000/svg" xmlns:xlink="http://www.w3.org/1999/xlink">
 <defs>
  <style type="text/css">
*{stroke-linecap:butt;stroke-linejoin:round;}
  </style>
 </defs>
 <g id="figure_1">
  <g><image xlink:href="../../img/cb/graykangaroo_cor_cell.json.cb-50%25.png" width="855.36px" height="641.52px"/></g>

  <g id="patch_1">
   <path d="M 0 641.52 
L 855.36 641.52 
L 855.36 0 
L 0 0 
z
" style="fill:none;"/>
  </g>
  <g id="axes_1">
   <g id="line2d_1">
    <path clip-path="url(#pf3dd7c93e9)" d="M 682.116181 318.043856 
L 677.873313 323.498974 
L 674.842687 327.438779 
L 674.539625 333.19696 
L 676.054938 338.349016 
L 676.661063 341.985758 
L 679.994743 348.350056 
L 683.934557 352.895995 
L 692.11723 355.62355 
L 701.815216 355.320487 
L 706.967272 351.683745 
L 708.482585 347.440877 
L 708.179522 341.379633 
L 709.391764 334.712265 
L 709.997889 328.954084 
L 711.816265 324.408153 
L 714.240757 319.862223 
L 716.362195 326.832654 
L 717.271383 334.712265 
L 719.392813 342.288821 
L 724.241806 344.107188 
L 730.606112 341.076571 
L 733.939792 337.439828 
L 735.455105 329.257146 
L 734.242854 325.317341 
L 731.818362 319.862223 
L 728.484674 316.528543 
L 723.029564 314.407104 
L 721.817313 311.376487 
L 720.605063 308.345869 
L 719.08975 304.406056 
L 716.665258 302.587689 
L 712.725453 302.284626 
L 708.785639 302.587689 
L 701.815216 305.315243 
L 697.572348 308.648932 
L 694.541722 311.073424 
L 690.904979 313.194863 
L 685.449861 315.619355 
L 682.116181 318.043856 
" style="fill:none;stroke:#000000;stroke-linecap:square;stroke-width:1.5;"/>
   </g>
   <g id="line2d_2">
    <path clip-path="url(#pf3dd7c93e9)" d="M 689.086604 311.982612 
L 694.238659 308.345869 
L 698.178473 304.406056 
L 703.330529 301.375438 
L 706.967272 297.738696 
L 709.997889 293.495828 
L 709.088701 289.556022 
L 706.058084 285.616209 
L 701.815216 281.979466 
L 697.572348 278.342723 
L 692.723355 276.524348 
L 686.662112 275.61516 
L 682.419244 275.61516 
L 677.267188 277.130473 
L 675.14575 280.767216 
L 675.751875 284.707021 
L 676.054938 287.131522 
L 673.630445 289.859076 
L 672.115132 292.283577 
L 670.599819 295.617257 
L 669.993694 300.163188 
L 670.296757 304.709118 
L 672.721258 308.951995 
L 677.873313 311.982612 
L 683.025369 313.497925 
L 689.086604 311.982612 
" style="fill:none;stroke:#000000;stroke-linecap:square;stroke-width:1.5;"/>
   </g>
   <g id="line2d_3">
    <path clip-path="url(#pf3dd7c93e9)" d="M 659.885785 250.746552 
L 662.310286 256.807786 
L 663.219465 262.86903 
L 664.431716 268.627211 
L 668.674584 269.536399 
L 675.03889 265.293531 
L 678.675632 260.141475 
L 679.281758 254.383294 
L 676.857265 248.928176 
L 674.432764 245.594496 
L 668.674584 244.382245 
L 662.916411 244.685308 
L 658.976597 246.200612 
L 659.885785 250.746552 
" style="fill:none;stroke:#000000;stroke-linecap:square;stroke-width:1.5;"/>
   </g>
   <g id="line2d_4">
    <path clip-path="url(#pf3dd7c93e9)" d="M 653.54324 341.726362 
L 657.265091 346.228626 
L 662.114084 349.562306 
L 666.053889 347.137814 
L 666.356951 341.985758 
L 665.750826 338.955132 
L 666.053889 335.621452 
L 664.841638 330.772459 
L 661.811021 328.044904 
L 657.871216 326.832654 
L 653.93141 327.741842 
L 651.203847 330.166334 
L 649.688543 333.803077 
L 650.294659 337.136765 
L 653.54324 341.726362 
" style="fill:none;stroke:#000000;stroke-linecap:square;stroke-width:1.5;"/>
   </g>
   <g id="line2d_5">
    <path clip-path="url(#pf3dd7c93e9)" d="M 654.430667 253.171044 
L 655.036792 250.140426 
L 656.249043 247.412863 
L 653.218417 246.200612 
L 648.369424 246.806738 
L 643.823493 248.625113 
L 640.489813 251.655731 
L 639.277563 254.686357 
L 638.671437 257.716974 
L 635.943882 259.53535 
L 629.882639 260.747592 
L 624.124458 261.65678 
L 618.063223 262.86903 
L 613.21423 265.293531 
L 609.577479 269.233336 
L 606.546861 273.779266 
L 606.849924 277.112947 
L 608.971362 279.84051 
L 611.092792 282.568065 
L 613.21423 286.204807 
L 615.032597 289.841559 
L 617.154035 293.781364 
L 618.972402 297.721169 
L 620.790778 302.873225 
L 623.518341 308.934468 
L 625.336709 312.268148 
L 629.579576 313.480399 
L 634.428569 311.662023 
L 639.883688 308.631406 
L 644.126556 305.60078 
L 646.854119 300.751787 
L 651.096987 295.296668 
L 652.915363 291.053801 
L 652.006175 286.50787 
L 649.278611 281.355814 
L 645.944931 274.688454 
L 649.581674 278.325197 
L 651.40005 282.568065 
L 654.73373 287.417058 
L 657.764356 284.992566 
L 659.582723 280.446627 
L 660.49191 274.991517 
L 658.673535 270.445578 
L 655.339855 267.718023 
L 653.521479 263.778218 
L 652.915363 258.626162 
L 654.430667 253.171044 
" style="fill:none;stroke:#000000;stroke-linecap:square;stroke-width:1.5;"/>
   </g>
   <g id="line2d_6">
    <path clip-path="url(#pf3dd7c93e9)" d="M 634.428569 231.956696 
L 638.9745 230.744454 
L 641.399001 225.895461 
L 642.611251 221.046468 
L 641.702063 216.197475 
L 640.18675 211.954598 
L 637.762258 208.317856 
L 634.428569 206.802543 
L 631.094889 207.105605 
L 627.761209 209.530106 
L 625.639771 211.651544 
L 624.427521 214.379099 
L 625.942834 218.92503 
L 627.761209 224.683211 
L 629.882639 229.532204 
L 634.428569 231.956696 
" style="fill:none;stroke:#000000;stroke-linecap:square;stroke-width:1.5;"/>
   </g>
   <g id="line2d_7">
    <path clip-path="url(#pf3dd7c93e9)" d="M 298.334129 206.885992 
L 294.700559 208.927308 
L 294.700559 204.271601 
L 296.170786 201.576199 
L 297.39597 198.390719 
L 297.150935 195.450273 
L 294.945594 194.225081 
L 291.760114 193.735011 
L 289.309747 192.509828 
L 293.965446 193.489976 
L 296.170786 192.999898 
L 295.190638 189.814417 
L 294.455524 186.628937 
L 292.740263 182.953387 
L 290.534931 179.522863 
L 287.594485 176.582417 
L 283.673891 173.396937 
L 279.508262 171.191605 
L 275.832712 169.476343 
L 268.481603 165.555758 
L 266.031227 165.555758 
L 264.315974 165.065679 
L 261.375529 164.085531 
L 257.2099 164.085531 
L 252.799227 165.310714 
L 249.613747 166.780941 
L 245.448118 175.357234 
L 244.713013 179.032793 
L 245.203083 182.708343 
L 247.898494 184.913675 
L 252.554192 187.119015 
L 257.945005 189.079304 
L 262.600712 190.304496 
L 266.766341 192.754863 
L 272.157153 194.71516 
L 268.481603 194.225081 
L 264.07093 192.264793 
L 260.150345 190.304496 
L 255.494638 188.834269 
L 250.593895 186.628937 
L 246.428267 185.648789 
L 242.752716 186.383902 
L 239.812271 187.609085 
L 237.11686 190.059452 
L 235.401607 196.430422 
L 233.196266 199.860937 
L 231.481013 203.291452 
L 231.235978 205.741828 
L 231.971083 208.192195 
L 233.196266 210.152492 
L 242.507673 211.13264 
L 235.401607 210.887605 
L 231.971083 211.13264 
L 229.520716 214.563156 
L 227.805454 216.768487 
L 224.619974 218.238714 
L 227.805454 215.543304 
L 230.25583 212.602859 
L 230.7459 207.702125 
L 230.25583 205.006714 
L 229.030638 203.046417 
L 230.500865 201.086121 
L 231.726048 199.125824 
L 232.706197 196.675457 
L 232.461162 194.470125 
L 234.666493 192.509828 
L 235.646642 190.304496 
L 234.911528 188.834269 
L 225.355087 188.099164 
L 229.765751 187.609085 
L 233.93138 188.099164 
L 238.097009 187.609085 
L 241.037454 185.158719 
L 242.752716 182.953387 
L 243.242786 180.99309 
L 242.997751 178.787758 
L 243.732865 177.072496 
L 240.792419 176.337382 
L 243.242786 175.847312 
L 244.713013 174.377085 
L 245.448118 172.906867 
L 246.428267 170.456491 
L 247.898494 167.76109 
L 247.16338 165.310714 
L 244.713013 162.860347 
L 241.282489 161.635164 
L 233.93138 161.635164 
L 230.25583 162.125234 
L 223.88486 163.840496 
L 221.679528 165.065679 
L 222.169607 168.741238 
L 221.189458 166.290863 
L 219.229161 164.575609 
L 215.798646 164.085531 
L 212.613157 164.330566 
L 208.937607 165.555758 
L 205.507091 167.271011 
L 203.056716 168.986273 
L 200.116271 172.661832 
L 199.381166 175.112199 
L 201.341463 178.297679 
L 204.281899 183.443457 
L 208.447528 184.17857 
L 205.017013 184.66864 
L 205.017013 187.119015 
L 205.507091 195.20523 
L 205.262048 200.841086 
L 204.281899 196.920492 
L 202.566646 193.489976 
L 200.116271 190.304496 
L 201.586498 188.834269 
L 202.321611 186.138867 
L 202.076568 183.933527 
L 201.341463 181.48316 
L 200.116271 178.297679 
L 197.910939 175.847312 
L 194.480423 174.377085 
L 191.049908 174.13205 
L 187.864419 175.357234 
L 184.433904 177.807609 
L 182.473607 179.767898 
L 180.51331 182.463308 
L 178.062943 185.158719 
L 178.062943 187.119015 
L 176.102646 187.85412 
L 173.1622 189.324347 
L 170.221755 191.529679 
L 167.771388 195.450273 
L 164.830943 199.615902 
L 165.321021 203.291452 
L 167.036275 205.986863 
L 170.956869 206.721976 
L 176.347681 206.231898 
L 180.268275 205.251749 
L 182.963685 205.006714 
L 186.639236 205.496784 
L 179.533161 206.231898 
L 173.897314 207.212046 
L 168.996572 207.212046 
L 166.79124 208.927308 
L 164.585908 210.887605 
L 163.360724 213.583007 
L 163.605759 218.973819 
L 164.585908 221.914265 
L 168.261458 225.099745 
L 172.427087 225.344789 
L 178.062943 224.85471 
L 183.20872 223.874562 
L 187.129314 222.159308 
L 193.25524 218.483749 
L 188.599532 222.159308 
L 188.599532 225.344789 
L 189.334646 228.040191 
L 188.844567 232.205819 
L 188.354497 237.351597 
L 187.864419 234.90123 
L 187.864419 232.450863 
L 188.844567 230.000488 
L 187.619384 226.815007 
L 185.169017 225.344789 
L 181.003388 225.099745 
L 176.347681 225.834859 
L 171.691982 225.834859 
L 167.281318 226.569972 
L 163.850794 228.040191 
L 160.910349 230.490566 
L 158.950052 232.695898 
L 157.969903 236.126413 
L 157.479833 240.047007 
L 160.420279 250.338562 
L 163.360724 255.239304 
L 166.486355 258.747957 
L 170.405786 260.466101 
L 175.30652 261.201215 
L 178.492 259.730988 
L 180.207262 258.505804 
L 183.882821 259.485953 
L 187.313336 259.976023 
L 193.194227 259.240918 
L 192.459114 261.201215 
L 188.783555 261.93632 
L 185.353039 262.916468 
L 183.392742 264.876765 
L 180.942375 271.492769 
L 182.902672 276.148468 
L 187.558371 279.578984 
L 191.23393 281.049211 
L 194.90948 284.724761 
L 199.565188 289.135433 
L 205.446079 292.075879 
L 211.081926 295.506394 
L 216.962817 298.44684 
L 221.373481 299.672023 
L 225.539109 300.652171 
L 229.704738 300.407136 
L 232.155114 298.44684 
L 234.115402 295.506394 
L 233.380297 292.810984 
L 236.565778 294.281211 
L 241.711555 293.301062 
L 246.612297 291.09573 
L 258.37407 288.155285 
L 264.009918 287.175136 
L 270.380887 287.420171 
L 253.718363 290.115582 
L 247.592446 291.5858 
L 241.711555 293.791132 
L 239.016144 295.016316 
L 236.320743 296.486543 
L 233.870367 298.201796 
L 230.929922 300.897206 
L 230.684887 302.612468 
L 234.360446 304.327722 
L 245.14207 308.738394 
L 250.042813 309.963578 
L 242.446668 308.738394 
L 237.300891 306.042984 
L 231.91007 304.327722 
L 229.214668 303.837652 
L 226.029188 303.592617 
L 222.843708 303.837652 
L 219.903262 302.612468 
L 217.207852 303.837652 
L 216.962817 307.758246 
L 217.207852 311.923875 
L 217.942965 316.334538 
L 218.188 319.029949 
L 218.923114 322.215429 
L 220.148297 325.40091 
L 222.598664 327.116172 
L 218.67807 325.645945 
L 217.452887 324.175726 
L 216.717782 321.235281 
L 215.737633 318.784905 
L 214.267406 317.804757 
L 210.101777 318.294835 
L 215.49259 316.334538 
L 215.737633 314.129207 
L 215.737633 310.453648 
L 215.49259 306.288019 
L 215.737633 303.102538 
L 214.022371 299.672023 
L 211.326961 297.221656 
L 207.161332 294.036167 
L 202.995703 292.075879 
L 198.830074 291.09573 
L 194.664445 291.340765 
L 192.704148 291.340765 
L 190.743852 294.281211 
L 189.028598 297.221656 
L 187.803415 300.652171 
L 186.333188 307.758246 
L 184.617926 311.433796 
L 182.412594 317.804757 
L 181.922524 321.235281 
L 182.902672 327.606242 
L 186.333188 329.566539 
L 192.214079 330.056608 
L 197.849926 330.056608 
L 205.201035 331.2818 
L 210.836891 331.77187 
L 216.717782 333.487132 
L 223.088743 334.467281 
L 228.969625 335.202386 
L 235.340594 334.957351 
L 239.751258 333.977202 
L 233.870367 335.692464 
L 230.194817 335.937499 
L 225.539109 335.692464 
L 220.883411 334.957351 
L 215.49259 333.977202 
L 212.307109 333.242089 
L 207.651411 332.506984 
L 202.260598 331.526835 
L 197.359856 331.2818 
L 193.194227 331.526835 
L 189.028598 331.526835 
L 186.088153 332.506984 
L 183.882821 334.467281 
L 181.677489 336.672613 
L 180.207262 339.12298 
L 179.227113 344.268757 
L 179.227113 348.679421 
L 176.572709 348.801447 
L 174.122342 348.066342 
L 171.181897 350.516708 
L 169.2216 352.72204 
L 166.771233 355.662486 
L 165.055971 358.602931 
L 164.075822 361.543377 
L 166.526198 368.404407 
L 169.956713 372.325001 
L 174.367377 375.510482 
L 179.513154 377.715814 
L 183.433748 377.470779 
L 185.14901 374.530333 
L 186.864264 370.609748 
L 191.029892 364.973892 
L 194.460416 361.053298 
L 190.294788 367.669302 
L 187.109307 371.589888 
L 185.394045 375.020412 
L 184.903967 377.960857 
L 188.824561 381.146337 
L 195.195521 382.861591 
L 201.076412 382.616556 
L 205.73212 379.921154 
L 209.40767 376.49063 
L 213.083229 373.30515 
L 215.778631 370.119669 
L 218.964111 368.404407 
L 223.619818 366.689154 
L 228.765596 364.483822 
L 233.666338 361.788412 
L 235.87167 358.112853 
L 237.831967 355.417451 
L 232.196111 355.172416 
L 226.315229 354.437302 
L 221.904556 354.437302 
L 218.229006 355.172416 
L 215.288561 356.887669 
L 210.632853 361.298333 
L 218.229006 353.212119 
L 220.189303 350.516708 
L 222.394635 349.291525 
L 226.560264 351.006787 
L 229.745744 352.967075 
L 234.646487 353.457154 
L 240.037299 352.72204 
L 243.222779 350.271673 
L 244.938041 347.821298 
L 245.91819 345.370931 
L 247.633443 343.165599 
L 252.044116 341.205302 
L 255.229596 339.245005 
L 257.679963 338.264857 
L 262.090627 338.019822 
L 269.787806 338.611911 
L 276.648845 338.611911 
L 282.529728 339.592059 
L 293.311361 340.082138 
L 301.397583 339.837094 
L 314.874619 341.797391 
L 320.264447 341.654375 
L 324.185033 340.674226 
L 329.575853 338.223851 
L 333.006369 337.243702 
L 340.602513 336.018519 
L 352.364295 335.283414 
L 365.351251 334.303266 
L 382.503845 333.323117 
L 393.28547 333.568152 
L 404.802216 334.058222 
L 435.431837 334.548301 
L 445.478357 335.283414 
L 452.094361 336.263554 
L 458.465322 337.733781 
L 463.12102 339.694078 
L 469.001911 340.674226 
L 475.617907 338.713929 
L 482.969025 337.488746 
L 514.903865 335.304405 
L 524.215271 336.284553 
L 530.096162 337.264702 
L 535.241939 338.979963 
L 537.936357 339.347024 
L 541.121838 337.876797 
L 544.797397 336.406579 
L 554.353838 336.406579 
L 557.784353 338.121841 
L 552.148506 336.896649 
L 547.492799 336.651614 
L 541.366881 339.837094 
L 539.651619 342.042426 
L 538.916506 344.737836 
L 539.406584 348.903465 
L 541.366881 353.069094 
L 546.02258 356.00954 
L 553.863768 359.440055 
L 558.274432 361.645387 
L 561.704947 364.830876 
L 567.830873 369.976653 
L 571.996502 373.162134 
L 582.288056 380.268208 
L 587.923912 381.983461 
L 592.334576 380.758278 
L 596.25517 377.572797 
L 597.725388 373.652203 
L 596.990275 369.24154 
L 595.029986 366.056059 
L 593.55976 364.095762 
L 593.06969 360.665247 
L 591.354428 356.00954 
L 587.923912 352.579024 
L 584.738432 348.65843 
L 577.142279 343.022574 
L 572.48658 338.611911 
L 577.387314 341.062278 
L 581.552951 344.737836 
L 585.473537 347.678282 
L 589.394131 351.843911 
L 592.089541 355.764505 
L 594.294873 359.685098 
L 595.765091 363.605684 
L 597.725388 367.281243 
L 599.685685 370.221688 
L 604.096349 371.691907 
L 610.222275 371.201837 
L 614.632947 369.486575 
L 618.308498 366.301094 
L 620.02376 361.89043 
L 620.51383 358.214871 
L 617.573384 354.539321 
L 614.632947 350.373692 
L 612.182572 346.453098 
L 608.752057 341.307321 
L 606.546725 338.366876 
L 604.341393 334.446282 
L 601.645982 331.995915 
L 597.970423 330.280653 
L 601.645982 330.770731 
L 605.321541 333.711168 
L 607.771908 338.611911 
L 611.202423 343.757688 
L 614.877982 348.65843 
L 617.328349 352.579024 
L 620.268795 356.254575 
L 624.189389 358.459906 
L 627.864939 355.51947 
L 630.805384 350.863762 
L 632.520646 346.208055 
L 633.990865 341.062278 
L 633.990865 336.161544 
L 632.520646 330.770731 
L 629.825236 327.340207 
L 627.619904 324.154727 
L 623.454275 321.949395 
L 620.51383 319.989098 
L 616.348201 319.253985 
L 611.692502 319.499028 
L 607.036795 320.479177 
L 602.871166 321.949395 
L 599.44065 323.419614 
L 596.500205 324.399762 
L 593.314725 325.134876 
L 590.619314 326.360059 
L 586.20865 327.585242 
L 578.612506 328.565391 
L 573.956799 328.810434 
L 571.261397 328.565391 
L 568.565986 327.830286 
L 576.652209 327.830286 
L 583.758283 326.850138 
L 589.394131 325.379911 
L 594.539908 323.664657 
L 599.685685 322.19443 
L 604.341393 320.724212 
L 610.957388 318.028801 
L 616.103166 318.273836 
L 621.739013 317.293688 
L 624.679458 314.598286 
L 622.719162 311.167762 
L 618.553533 301.611321 
L 617.328349 296.955622 
L 614.877982 292.05488 
L 612.427607 287.889251 
L 609.732205 283.968657 
L 606.546725 281.273246 
L 602.626131 279.557993 
L 598.950572 279.067915 
L 595.029986 280.538142 
L 592.089541 281.51829 
L 589.394131 283.478587 
L 587.188799 285.683919 
L 586.20865 288.379321 
L 585.963615 291.564801 
L 587.923912 295.975474 
L 590.619314 300.876207 
L 592.334576 305.28688 
L 591.844498 308.96243 
L 590.374279 312.14791 
L 588.413982 314.108207 
L 585.228502 316.068504 
L 581.797986 317.048653 
L 588.659017 311.902876 
L 590.619314 308.717395 
L 590.619314 305.77695 
L 589.884209 302.591469 
L 586.943764 296.710578 
L 585.963615 294.015177 
L 584.738432 291.074731 
L 583.02317 289.359469 
L 580.082724 289.604513 
L 577.387314 290.584661 
L 582.533091 286.173989 
L 586.943764 282.00836 
L 590.292276 281.192227 
L 593.722791 278.74186 
L 595.438053 275.801414 
L 594.947975 273.106004 
L 592.007529 267.715192 
L 597.398341 274.086153 
L 600.58383 274.576231 
L 604.014346 273.351048 
L 606.954791 270.410602 
L 608.670045 264.774746 
L 607.689896 263.059493 
L 601.56397 264.284676 
L 608.42501 261.589266 
L 608.670045 258.893864 
L 608.42501 254.483192 
L 605.974643 250.807641 
L 602.054049 248.112231 
L 597.88842 245.661864 
L 593.232713 242.476384 
L 589.312127 239.535938 
L 586.371682 236.350458 
L 596.173158 244.191637 
L 600.093752 246.151934 
L 605.239529 249.092379 
L 612.100569 249.092379 
L 617.001302 246.396977 
L 618.961599 242.721419 
L 619.941748 238.800825 
L 619.696713 235.125274 
L 616.511232 233.655047 
L 609.650193 231.20468 
L 619.451678 234.390161 
L 621.902045 233.164977 
L 624.107377 228.999349 
L 625.332569 225.32379 
L 625.577604 220.913126 
L 623.617307 216.502462 
L 621.411975 213.807052 
L 620.186791 213.071938 
L 616.511232 213.316973 
L 611.365455 212.581868 
L 607.199826 210.621571 
L 603.034197 209.151344 
L 599.358638 208.416239 
L 595.438053 208.171196 
L 592.007529 209.151344 
L 589.557162 210.866606 
L 587.596865 213.807052 
L 585.636568 219.197864 
L 585.391533 217.237567 
L 586.371682 214.7872 
L 587.596865 212.336833 
L 589.312127 209.886458 
L 591.721488 208.090176 
L 594.416899 207.600106 
L 597.602379 207.600106 
L 601.768008 208.33522 
L 606.178672 209.315359 
L 610.834379 211.5207 
L 615.735113 212.500848 
L 621.616004 212.01077 
L 624.556449 210.295508 
L 626.516746 206.864993 
L 626.026668 203.679512 
L 624.066379 201.229145 
L 619.90075 199.268848 
L 613.774825 196.818473 
L 608.629047 194.613141 
L 604.218375 191.917739 
L 611.814528 195.593289 
L 617.20534 197.798621 
L 622.596152 199.758918 
L 626.026668 198.043665 
L 627.986965 194.613141 
L 627.74193 190.692547 
L 625.781633 186.036848 
L 622.596152 181.871219 
L 619.410672 178.685739 
L 616.715261 176.725442 
L 612.304598 175.01018 
L 609.364152 173.294927 
L 607.648899 171.089586 
L 603.97334 168.394184 
L 600.297789 166.188852 
L 596.132152 165.698774 
L 592.211567 165.453739 
L 590.25127 166.188852 
L 588.045938 169.129289 
L 586.330676 173.294927 
L 585.840597 176.970477 
L 586.820746 180.400992 
L 590.74134 182.361289 
L 585.840597 181.626184 
L 581.184899 186.771962 
L 577.264305 192.897888 
L 581.920012 182.851368 
L 581.429934 180.400992 
L 580.69482 178.685739 
L 582.655117 177.950625 
L 585.350527 175.01018 
L 586.330676 171.579665 
L 587.800894 167.904106 
L 586.330676 164.718625 
L 583.145196 161.043075 
L 579.469637 158.837743 
L 576.284156 157.857595 
L 572.608606 157.612551 
L 570.15823 158.5927 
L 568.197933 160.062927 
L 566.237637 162.758328 
L 566.381645 160.103924 
L 565.891575 157.163487 
L 562.706095 155.938295 
L 558.050387 154.468077 
L 553.394688 153.978007 
L 548.738981 155.938295 
L 545.798536 158.143636 
L 544.328317 160.839037 
L 545.798536 168.680225 
L 547.268763 173.826003 
L 550.454243 176.276369 
L 554.864907 176.766448 
L 558.785501 176.521404 
L 561.235868 176.766448 
L 563.4412 177.501553 
L 558.050387 177.256518 
L 553.394688 177.256518 
L 550.454243 177.501553 
L 548.248911 178.726745 
L 548.248911 186.322889 
L 547.758833 189.0183 
L 548.493946 191.713701 
L 551.679426 194.409112 
L 555.109942 196.614444 
L 560.745798 198.819776 
L 556.580169 198.329706 
L 555.845055 201.025108 
L 556.335134 204.945702 
L 556.580169 208.866295 
L 555.845055 210.581549 
L 554.864907 208.376217 
L 555.109942 206.41592 
L 555.109942 200.289994 
L 554.619872 198.329706 
L 550.454243 194.164077 
L 547.023728 192.69385 
L 544.083282 192.448815 
L 532.811579 195.38926 
L 525.215426 198.084662 
L 531.341352 195.144217 
L 535.752025 193.673998 
L 540.407723 192.938885 
L 544.328317 191.468667 
L 546.043579 189.50837 
L 546.778684 186.812959 
L 547.023728 183.382444 
L 546.288614 180.196963 
L 544.573352 177.256518 
L 541.387872 176.521404 
L 536.487129 177.011483 
L 530.361204 177.746596 
L 539.67261 176.031335 
L 543.838239 174.806151 
L 545.308466 172.845854 
L 545.308466 169.660374 
L 544.573352 166.22985 
L 544.083282 162.309264 
L 543.348169 158.388671 
L 538.202391 155.938295 
L 533.546684 155.69326 
L 524.970391 156.673409 
L 521.049797 158.388671 
L 509.533059 162.554299 
L 506.592614 164.024518 
L 501.446837 168.680225 
L 499.48654 172.110741 
L 498.261356 174.806151 
L 498.751435 177.991631 
L 500.221653 181.177112 
L 501.201802 184.852662 
L 500.956767 189.263335 
L 499.976618 186.812959 
L 499.241505 183.382444 
L 497.281208 179.706885 
L 494.095727 177.501553 
L 489.930098 178.726745 
L 487.969802 180.932077 
L 485.519435 183.872522 
L 481.353806 188.038151 
L 480.863727 190.978588 
L 480.618692 193.919033 
L 479.393509 195.87933 
L 476.698098 196.614444 
L 474.247732 195.144217 
L 469.574044 191.452919 
L 465.162337 186.302882 
L 461.731822 182.627323 
L 457.566193 178.70673 
L 454.135677 176.256363 
L 453.890634 173.070882 
L 452.175381 168.905253 
L 448.744857 165.474738 
L 444.579228 162.534293 
L 439.43345 160.083917 
L 434.042638 157.388515 
L 429.141896 154.693105 
L 424.241162 152.977843 
L 419.095385 151.507624 
L 414.194642 150.282441 
L 407.823682 149.302293 
L 396.551978 148.812214 
L 391.161166 149.057258 
L 375.233756 150.282441 
L 384.790197 148.567179 
L 392.876419 147.832066 
L 401.207677 147.341996 
L 405.61835 146.606882 
L 400.717607 143.421402 
L 396.0619 141.21607 
L 390.916123 140.725991 
L 388.465756 140.235921 
L 383.565013 138.275624 
L 378.909314 136.560362 
L 374.743686 136.070292 
L 368.862795 137.540511 
L 363.717017 139.500808 
L 359.796424 141.461105 
L 357.101013 143.666437 
L 355.38576 146.116812 
L 354.160576 149.302293 
L 351.710201 151.017546 
L 344.401081 159.103769 
L 340.970566 163.514441 
L 339.010269 166.699921 
L 338.520199 170.86555 
L 338.765234 175.031179 
L 336.804937 180.421991 
L 327.493531 185.322734 
L 321.367605 189.243328 
L 316.711898 191.93873 
L 310.340937 197.574585 
L 304.950125 201.495171 
L 301.274566 204.925695 
L 298.334129 206.885992 
L 298.334129 206.885992 
" style="fill:none;stroke:#000000;stroke-linecap:square;stroke-width:1.5;"/>
   </g>
   <g id="line2d_8">
    <path clip-path="url(#pf3dd7c93e9)" d="M 333.008901 200.02863 
L 341.857634 198.799641 
L 353.410143 198.308048 
L 361.275683 198.062243 
L 374.302978 197.570651 
L 399.128588 199.045437 
L 409.9437 200.02863 
L 419.038229 201.011824 
L 426.166381 201.503416 
L 431.08234 202.240814 
L 437.71889 203.7156 
L 443.372246 204.698793 
L 449.517195 205.681987 
L 455.907949 206.910977 
L 461.069705 208.877364 
L 465.739868 211.58114 
L 471.147428 216.742904 
L 473.851204 221.658863 
L 476.554988 226.329026 
L 480.979346 232.965576 
L 478.27557 230.999189 
L 474.588601 226.08323 
L 469.918438 220.184077 
L 465.248275 215.75971 
L 458.611725 211.335343 
L 450.254593 208.631568 
L 438.94788 206.419384 
L 420.513024 202.240814 
L 400.357578 199.782834 
L 381.43113 198.799641 
L 363.24207 198.553844 
L 333.008901 200.02863 
" style="fill:none;stroke:#000000;stroke-linecap:square;stroke-width:1.5;"/>
   </g>
   <g id="line2d_9">
    <path clip-path="url(#pf3dd7c93e9)" d="M 308.515 238.618932 
L 311.710377 234.194566 
L 315.888947 229.770199 
L 320.313314 225.591629 
L 324.24608 222.642056 
L 329.65364 218.955087 
L 332.111619 216.742904 
L 327.933049 214.284924 
L 338.010772 214.53072 
L 345.876312 214.284924 
L 355.462434 213.793323 
L 366.277555 213.547527 
L 377.584268 213.793323 
L 385.449799 214.53072 
L 395.281726 216.251303 
L 407.080032 217.971893 
L 418.140948 219.692476 
L 427.972875 222.150455 
L 434.609417 223.62525 
L 443.212354 227.803812 
L 449.603099 231.49079 
L 454.519067 234.931963 
L 460.664016 239.356321 
L 466.317372 246.976065 
L 461.155608 240.585311 
L 456.485446 237.635739 
L 451.32369 234.686158 
L 441.491763 230.507596 
L 429.939254 225.837433 
L 414.945571 221.413067 
L 396.26492 217.480292 
L 380.779636 214.776517 
L 364.065371 214.53072 
L 351.775465 214.776517 
L 341.697742 216.742904 
L 334.323803 218.463486 
L 327.933049 221.658863 
L 322.771294 225.100036 
L 318.346927 228.787005 
L 313.676764 233.702965 
L 308.515 238.618932 
" style="fill:none;stroke:#000000;stroke-linecap:square;stroke-width:1.5;"/>
   </g>
   <g id="line2d_10">
    <path clip-path="url(#pf3dd7c93e9)" d="M 325.069381 263.026921 
L 326.052574 260.814737 
L 329.002155 257.865165 
L 332.443328 255.652982 
L 335.147104 253.440799 
L 340.308859 251.720216 
L 345.962216 250.245422 
L 349.649194 248.033238 
L 351.615572 245.821055 
L 348.666 244.346269 
L 342.521043 245.329463 
L 338.588277 246.312656 
L 333.180717 247.050045 
L 327.281564 249.262228 
L 319.66182 251.474412 
L 325.315177 248.524839 
L 329.98534 246.804249 
L 335.638696 245.575259 
L 342.521043 243.608872 
L 351.615572 241.888289 
L 361.447499 240.6593 
L 368.575642 240.6593 
L 376.686978 241.396697 
L 384.552518 241.888289 
L 392.663854 243.117279 
L 402.495781 245.575259 
L 420.193239 247.29585 
L 434.449524 249.508033 
L 424.37181 249.016432 
L 415.768872 247.787442 
L 408.149137 247.787442 
L 422.405423 253.932391 
L 429.287769 256.636176 
L 435.678523 259.339951 
L 440.594482 262.781125 
L 432.974738 258.848359 
L 423.634412 255.652982 
L 411.344506 250.245422 
L 399.791997 247.050045 
L 392.663854 245.575259 
L 384.060925 245.329463 
L 377.670172 245.821055 
L 367.346652 246.804249 
L 358.006326 248.033238 
L 349.157593 250.245422 
L 342.766847 251.720216 
L 335.3929 254.178196 
L 329.739544 258.110962 
L 325.069381 263.026921 
" style="fill:none;stroke:#000000;stroke-linecap:square;stroke-width:1.5;"/>
   </g>
   <g id="line2d_11">
    <path clip-path="url(#pf3dd7c93e9)" d="M 374.79458 171.527975 
L 385.855488 169.069996 
L 392.246242 168.824199 
L 409.697904 168.332598 
L 421.742014 167.59521 
L 428.132759 167.349413 
L 424.937391 168.086802 
L 417.80924 168.824199 
L 407.48572 169.069996 
L 395.195822 169.807393 
L 383.397508 170.053189 
L 374.79458 171.527975 
" style="fill:none;stroke:#000000;stroke-linecap:square;stroke-width:1.5;"/>
   </g>
   <g id="line2d_12">
    <path clip-path="url(#pf3dd7c93e9)" d="M 348.171474 280.615124 
L 349.401336 278.647343 
L 353.582858 276.67957 
L 359.73216 275.20374 
L 369.571041 274.219845 
L 391.954495 275.20374 
L 398.10379 275.941651 
L 404.253092 277.909432 
L 408.68059 279.139286 
L 411.878225 280.615124 
L 415.813779 282.828873 
L 423.438911 287.010394 
L 413.354054 283.812759 
L 409.664476 281.107067 
L 402.28532 278.647343 
L 394.414211 276.925537 
L 371.78479 275.20374 
L 361.20799 275.941651 
L 354.320777 277.663456 
L 348.171474 280.615124 
" style="fill:none;stroke:#000000;stroke-linecap:square;stroke-width:1.5;"/>
   </g>
   <g id="line2d_13">
    <path clip-path="url(#pf3dd7c93e9)" d="M 371.046871 299.554967 
L 382.361582 301.276772 
L 391.462552 302.014683 
L 406.466841 302.260659 
L 395.890041 302.998569 
L 391.462552 302.998569 
L 385.313249 302.506626 
L 378.917979 301.768716 
L 371.046871 299.554967 
" style="fill:none;stroke:#000000;stroke-linecap:square;stroke-width:1.5;"/>
   </g>
   <g id="line2d_14">
    <path clip-path="url(#pf3dd7c93e9)" d="M 206.240742 262.630102 
L 211.006081 262.820719 
L 214.627735 262.820719 
L 217.677556 262.630102 
L 220.917984 262.058268 
L 223.586579 260.914584 
L 226.827008 260.342741 
L 230.067437 260.723967 
L 233.307874 261.677034 
L 235.785843 263.58317 
L 236.929528 266.251765 
L 236.167077 267.967283 
L 234.642167 263.58317 
L 228.733143 261.486426 
L 224.730255 261.867651 
L 218.82124 263.773787 
L 214.055901 263.964404 
L 206.240742 262.630102 
L 206.240742 262.630102 
" style="fill:none;stroke:#000000;stroke-linecap:square;stroke-width:1.5;"/>
   </g>
   <g id="line2d_15">
    <path clip-path="url(#pf3dd7c93e9)" d="M 338.738615 355.03685 
L 348.300796 354.281935 
L 365.412067 355.28848 
L 374.219341 354.785211 
L 382.523339 354.785211 
L 393.846979 355.03685 
L 401.899338 354.785211 
L 409.700068 355.28848 
L 419.765525 356.043395 
L 431.340795 357.553208 
L 440.14807 357.301569 
L 444.929164 355.540118 
L 450.465157 352.772122 
L 453.988068 347.739389 
L 455.246251 343.713209 
L 455.749528 340.190298 
L 451.220072 337.92557 
L 446.438977 336.919025 
L 440.651346 336.164118 
L 434.36043 335.91248 
L 426.559709 335.91248 
L 419.513887 335.91248 
L 410.706613 335.660842 
L 404.415705 334.654297 
L 395.860069 334.151029 
L 384.03316 333.89939 
L 372.70952 334.402667 
L 362.140794 334.905935 
L 355.09498 335.409212 
L 346.539336 336.164118 
L 338.738615 337.67394 
L 334.460797 338.932115 
L 331.692792 341.700119 
L 331.189524 345.223031 
L 330.182979 349.752479 
L 332.699337 354.030296 
L 338.738615 355.03685 
" style="fill:none;stroke:#000000;stroke-linecap:square;stroke-width:1.5;"/>
   </g>
   <g id="line2d_16">
    <path clip-path="url(#pf3dd7c93e9)" d="M 427.817884 376.174301 
L 429.579344 372.65139 
L 432.34734 371.644845 
L 436.37352 370.135032 
L 439.393163 366.863759 
L 439.896431 363.089209 
L 439.644793 359.566298 
L 434.863707 359.063029 
L 424.798249 358.308114 
L 420.017163 358.056484 
L 414.229524 356.798301 
L 407.938616 356.043395 
L 399.63461 355.791756 
L 395.105163 356.295025 
L 393.846979 359.063029 
L 391.330613 357.04994 
L 387.304433 356.043395 
L 381.768432 356.043395 
L 375.729154 356.043395 
L 370.948068 357.804846 
L 367.173519 357.553208 
L 364.657161 356.295025 
L 360.379343 356.043395 
L 352.578614 355.540118 
L 345.784429 355.28848 
L 340.500067 355.791756 
L 336.222249 356.546663 
L 333.957521 358.308114 
L 334.209159 361.579387 
L 337.73207 367.618665 
L 344.274616 371.644845 
L 350.565524 375.167756 
L 356.604793 377.432484 
L 361.889156 376.677578 
L 365.412067 374.664479 
L 370.193162 374.916118 
L 378.748798 375.167756 
L 390.324068 375.671024 
L 399.38298 375.419394 
L 406.177156 375.419394 
L 413.726247 376.174301 
L 421.275338 376.677578 
L 427.817884 376.174301 
" style="fill:none;stroke:#000000;stroke-linecap:square;stroke-width:1.5;"/>
   </g>
   <g id="line2d_17">
    <path clip-path="url(#pf3dd7c93e9)" d="M 391.508844 136.870448 
L 400.357578 138.099437 
L 405.273537 140.803213 
L 411.910087 144.490191 
L 417.563443 148.422957 
L 422.479403 150.389344 
L 428.62436 150.63514 
L 432.802922 148.422957 
L 435.506707 144.735987 
L 435.015105 140.557417 
L 431.573932 136.870448 
L 427.149566 133.429274 
L 422.233606 131.708683 
L 417.563443 129.988101 
L 412.401688 128.759111 
L 407.977321 128.759111 
L 403.798751 129.496509 
L 400.357578 131.462887 
L 396.916405 130.725498 
L 392.000445 130.233897 
L 387.821875 129.988101 
L 385.363895 131.217091 
L 384.626498 132.691877 
L 388.067671 135.641458 
L 391.508844 136.870448 
" style="fill:none;stroke:#000000;stroke-linecap:square;stroke-width:1.5;"/>
   </g>
   <g id="line2d_18">
    <path clip-path="url(#pf3dd7c93e9)" d="M 357.10807 383.97503 
L 359.372798 391.775759 
L 368.431702 397.060122 
L 380.006981 399.073212 
L 388.562617 399.57648 
L 392.588796 398.821573 
L 401.647709 398.569935 
L 410.203344 397.311752 
L 416.242614 394.795394 
L 420.77207 391.775759 
L 424.043343 387.749571 
L 426.308071 383.97503 
L 426.308071 380.452119 
L 424.294981 378.187391 
L 419.513887 377.432484 
L 414.732792 377.432484 
L 409.448429 377.180846 
L 403.660798 376.174301 
L 398.124797 376.425939 
L 392.085519 376.677578 
L 386.297888 376.425939 
L 378.748798 376.174301 
L 372.961158 376.174301 
L 367.676795 376.174301 
L 363.650616 377.935752 
L 357.862976 378.690667 
L 357.10807 383.97503 
" style="fill:none;stroke:#000000;stroke-linecap:square;stroke-width:1.5;"/>
   </g>
   <g id="line2d_19">
    <path clip-path="url(#pf3dd7c93e9)" d="M 158.141925 304.113411 
L 154.520271 308.497525 
L 151.089225 311.737962 
L 148.801864 314.215931 
L 147.086337 317.456369 
L 145.942661 321.26864 
L 145.942661 324.127843 
L 148.611247 328.32134 
L 155.473339 331.37116 
L 161.191745 331.943002 
L 167.481994 330.989935 
L 173.391018 328.893182 
L 176.631447 326.033979 
L 178.918807 322.031091 
L 180.443718 318.981279 
L 180.443718 315.740842 
L 181.778011 312.881638 
L 183.493538 309.259984 
L 184.446606 306.210164 
L 185.780899 302.969735 
L 186.352741 299.729306 
L 187.496417 296.298261 
L 188.06826 289.626786 
L 186.162124 288.101876 
L 183.493538 287.911259 
L 179.681267 289.245552 
L 174.725311 291.532922 
L 168.435062 294.963959 
L 163.479106 298.585622 
L 160.04806 301.82605 
L 158.141925 304.113411 
" style="fill:none;stroke:#000000;stroke-linecap:square;stroke-width:1.5;"/>
   </g>
   <g id="line2d_20">
    <path clip-path="url(#pf3dd7c93e9)" d="M 147.276954 311.737962 
L 151.851676 307.544457 
L 156.426406 303.732186 
L 160.238677 300.30114 
L 163.097881 297.632554 
L 167.100769 294.963959 
L 171.103648 292.48599 
L 176.059604 290.008012 
L 180.443718 287.720642 
L 181.968628 284.861439 
L 181.968628 281.430402 
L 181.396785 276.855671 
L 179.49065 273.0434 
L 176.059604 270.946648 
L 172.43795 269.040512 
L 169.38813 266.562534 
L 166.719543 263.703331 
L 162.716655 262.750263 
L 159.666835 262.750263 
L 155.282722 262.559655 
L 151.661067 263.512723 
L 148.801864 265.037633 
L 145.370818 267.515602 
L 142.320998 270.374814 
L 139.461795 272.090332 
L 136.030749 273.805851 
L 132.980937 275.711987 
L 130.121734 277.808739 
L 127.453139 279.905492 
L 124.403319 282.955303 
L 122.306575 285.052056 
L 119.447372 288.864327 
L 118.684912 292.104756 
L 118.303687 296.298261 
L 118.494304 299.729306 
L 119.63798 303.922803 
L 124.022094 308.497525 
L 129.359275 312.69103 
L 135.649524 315.359616 
L 140.414863 315.359616 
L 144.417751 314.025323 
L 147.276954 311.737962 
" style="fill:none;stroke:#000000;stroke-linecap:square;stroke-width:1.5;"/>
   </g>
   <g id="line2d_21">
    <path clip-path="url(#pf3dd7c93e9)" d="M 127.071914 278.189965 
L 131.074802 275.330761 
L 134.124614 273.0434 
L 137.746276 269.99358 
L 141.939773 267.324994 
L 145.561427 264.847016 
L 149.18309 262.369038 
L 150.708 259.89106 
L 149.564315 257.413082 
L 147.086337 256.078789 
L 143.274066 255.506946 
L 139.84302 255.88818 
L 136.602592 255.88818 
L 132.599703 256.269406 
L 130.121734 257.031857 
L 127.834365 258.36615 
L 124.975161 260.844128 
L 122.878417 263.512723 
L 121.353507 265.9907 
L 120.209822 269.231129 
L 119.256755 272.662175 
L 121.16289 275.140153 
L 124.022094 277.618122 
L 127.071914 278.189965 
" style="fill:none;stroke:#000000;stroke-linecap:square;stroke-width:1.5;"/>
   </g>
  </g>
 </g>
 <defs>
  <clipPath id="pf3dd7c93e9">
   <rect height="641.52" width="855.36" x="0" y="0"/>
  </clipPath>
 </defs>
</svg>
