<?xml version="1.0" encoding="utf-8" standalone="no"?>
<!DOCTYPE svg PUBLIC "-//W3C//DTD SVG 1.1//EN"
  "http://www.w3.org/Graphics/SVG/1.1/DTD/svg11.dtd">
<!-- Created with matplotlib (https://matplotlib.org/) -->
<svg height="622.08pt" version="1.1" viewBox="0 0 829.44 622.08" width="829.44pt" xmlns="http://www.w3.org/2000/svg" xmlns:xlink="http://www.w3.org/1999/xlink">
 <defs>
  <style type="text/css">
*{stroke-linecap:butt;stroke-linejoin:round;}
  </style>
 </defs>
 <g id="figure_1">
  <g><image xlink:href="../../img/cb/grison_cor_cell.json.cb-50%25.png" width="829.4399999999999px" height="622.0799999999999px"/></g>

  <g id="patch_1">
   <path d="M 0 622.08 
L 829.44 622.08 
L 829.44 0 
L 0 0 
z
" style="fill:none;"/>
  </g>
  <g id="axes_1">
   <g id="line2d_1">
    <path clip-path="url(#p1abcae4d7e)" d="M 666.577971 342.816618 
L 668.683405 350.887442 
L 670.788839 356.50193 
L 674.648796 361.414603 
L 681.316 362.46732 
L 689.035914 360.712789 
L 692.194064 356.50193 
L 693.597684 350.185628 
L 694.299498 345.272955 
L 694.650401 338.605758 
L 693.597684 332.289457 
L 692.895879 326.674969 
L 692.544967 320.358675 
L 690.439542 315.095091 
L 688.334108 315.446002 
L 685.52686 318.955056 
L 684.474143 322.815012 
L 682.71962 327.02588 
L 680.965089 329.83312 
L 678.508752 332.289457 
L 674.648796 335.447607 
L 670.087025 338.605758 
L 666.577971 340.360281 
L 666.577971 342.816618 
" style="fill:none;stroke:#000000;stroke-linecap:square;stroke-width:1.5;"/>
   </g>
   <g id="line2d_2">
    <path clip-path="url(#p1abcae4d7e)" d="M 677.010228 397.794986 
L 681.922902 393.935022 
L 685.782867 388.320542 
L 687.186486 385.513294 
L 689.29192 378.846098 
L 689.993726 373.23161 
L 688.941009 368.66984 
L 685.782867 367.617123 
L 681.221096 367.617123 
L 678.062945 369.371645 
L 675.606608 372.529796 
L 674.904794 377.44247 
L 673.150271 383.40786 
L 671.39574 389.022348 
L 671.746652 394.636836 
L 673.501174 397.444075 
L 677.010228 397.794986 
" style="fill:none;stroke:#000000;stroke-linecap:square;stroke-width:1.5;"/>
   </g>
   <g id="line2d_3">
    <path clip-path="url(#p1abcae4d7e)" d="M 369.559961 206.067732 
L 366.193132 204.986574 
L 372.509433 202.530229 
L 387.598365 196.213936 
L 391.107419 191.301262 
L 390.054702 186.037677 
L 387.598365 182.879535 
L 386.194737 179.370481 
L 386.545648 174.106896 
L 386.194737 170.246939 
L 385.492931 164.983355 
L 380.931161 161.123398 
L 377.071204 159.017964 
L 371.105814 159.017964 
L 366.193132 160.772495 
L 362.684078 162.527018 
L 359.876838 164.281549 
L 356.718687 168.84332 
L 354.613254 174.457799 
L 351.806014 180.774101 
L 351.1042 184.98496 
L 350.753297 189.195828 
L 351.455111 197.968467 
L 350.051491 193.757599 
L 349.70058 187.792208 
L 350.402394 183.230437 
L 351.806014 177.966853 
L 353.560545 174.106896 
L 355.66597 169.896037 
L 357.771404 165.334266 
L 361.280458 161.825212 
L 359.876838 158.316158 
L 355.315068 156.210724 
L 351.806014 155.158008 
L 346.89334 156.91253 
L 340.92795 161.123398 
L 337.418896 162.176115 
L 333.208028 163.579735 
L 328.646257 166.737886 
L 321.62815 173.054179 
L 318.82091 176.21233 
L 316.013662 179.01957 
L 314.610042 183.58134 
L 315.662759 186.037677 
L 319.522716 189.897642 
L 324.786301 191.652165 
L 328.295355 191.652165 
L 323.382681 192.353979 
L 320.22453 191.652165 
L 314.610042 186.037677 
L 312.504609 182.177721 
L 310.048272 182.879535 
L 305.837412 185.686774 
L 303.381075 187.792208 
L 300.924739 190.599448 
L 298.117491 192.704882 
L 292.503003 195.161219 
L 290.046666 197.266652 
L 287.941232 197.968467 
L 283.028559 199.021175 
L 280.221319 200.424803 
L 277.063168 200.775706 
L 272.852309 200.775706 
L 266.88691 201.828423 
L 261.623333 203.933857 
L 258.816094 207.092 
L 258.816094 209.548336 
L 261.27243 215.513727 
L 266.536007 218.671878 
L 274.606831 218.671878 
L 281.975842 217.970072 
L 291.099383 215.864638 
L 300.924739 215.864638 
L 309.346466 215.513727 
L 317.066379 215.864638 
L 325.137204 215.864638 
L 335.664365 216.917355 
L 327.593541 217.268258 
L 314.960954 216.566444 
L 305.135598 216.566444 
L 288.292144 217.268258 
L 279.870416 219.373692 
L 272.501398 220.075498 
L 266.88691 220.075498 
L 263.728767 219.022781 
L 259.166997 222.531834 
L 262.325147 218.320975 
L 259.868802 215.162824 
L 258.465183 212.004673 
L 255.30704 208.846531 
L 250.745269 208.495619 
L 241.621728 209.197434 
L 238.463577 212.004673 
L 235.305426 214.461018 
L 230.743664 216.917355 
L 226.077417 218.150309 
L 221.515646 217.799398 
L 216.252061 217.799398 
L 210.637582 219.904832 
L 207.479431 220.957549 
L 203.970377 223.062983 
L 202.566757 225.51932 
L 202.215846 230.08109 
L 205.023094 235.344667 
L 210.637582 238.502818 
L 216.602972 239.204632 
L 228.884656 238.502818 
L 232.042807 237.801004 
L 235.200958 239.906438 
L 240.815438 242.362774 
L 258.009803 245.170022 
L 264.677008 245.520925 
L 272.747832 244.819111 
L 268.186062 246.924545 
L 259.764334 246.573642 
L 248.184456 244.117305 
L 242.219066 243.766403 
L 233.446427 240.959155 
L 232.042807 239.555535 
L 229.235568 240.257349 
L 221.164743 240.257349 
L 216.953875 240.608252 
L 213.444822 240.257349 
L 209.584865 239.204632 
L 206.777617 237.099198 
L 203.619474 234.993764 
L 202.215846 233.239241 
L 200.812226 229.028374 
L 199.057704 226.92294 
L 196.250456 226.221134 
L 193.092313 226.92294 
L 185.372392 230.431993 
L 181.863338 232.88833 
L 178.705187 235.344667 
L 176.24885 237.450101 
L 175.196133 240.257349 
L 176.24885 244.117305 
L 180.108815 252.889936 
L 186.425109 260.258954 
L 190.285065 264.469814 
L 195.197739 267.277062 
L 201.514041 269.031585 
L 208.181245 269.031585 
L 219.761115 266.926151 
L 223.62108 265.873434 
L 226.779223 265.171628 
L 218.357495 267.978868 
L 212.041202 269.733399 
L 206.777617 270.435204 
L 201.163138 270.786116 
L 196.601367 269.031585 
L 191.688685 266.224345 
L 187.828728 263.417097 
L 184.319675 259.206237 
L 179.757904 254.644467 
L 177.301567 250.78451 
L 176.599761 247.626359 
L 175.196133 243.064588 
L 173.090708 240.257349 
L 170.28346 238.502818 
L 167.47622 238.853721 
L 164.318069 240.608252 
L 159.756298 242.713686 
L 156.247245 245.520925 
L 152.738191 249.029979 
L 153.440005 253.240847 
L 155.545439 258.504423 
L 156.598148 262.36438 
L 159.405396 265.522531 
L 165.019883 269.031585 
L 168.87984 271.137018 
L 171.68708 274.295169 
L 163.265352 272.189735 
L 160.107201 270.435204 
L 158.001776 267.627965 
L 155.896342 264.469814 
L 155.194528 260.96076 
L 154.492722 258.15352 
L 153.440005 255.697184 
L 151.685474 252.18813 
L 150.632757 251.135413 
L 147.825517 253.59175 
L 145.018278 256.398989 
L 143.263747 258.504423 
L 141.509224 261.662574 
L 139.754693 265.873434 
L 137.649259 269.382487 
L 136.245639 273.593355 
L 134.491116 275.698789 
L 132.034771 278.85694 
L 129.227532 285.524136 
L 127.473009 293.244058 
L 127.122098 301.314882 
L 131.332966 306.92937 
L 139.052879 312.192946 
L 147.474614 316.754717 
L 160.809015 319.561957 
L 167.47622 319.912868 
L 174.494328 318.860151 
L 178.003381 317.807434 
L 176.599761 313.245663 
L 176.599761 302.367599 
L 178.003381 298.156731 
L 179.407001 294.647678 
L 178.003381 302.016688 
L 177.65247 307.631176 
L 177.65247 312.894761 
L 179.407001 317.807434 
L 183.617869 316.403814 
L 187.828728 315.351097 
L 192.741402 312.894761 
L 197.303173 311.842044 
L 202.91766 310.789327 
L 214.146636 309.385707 
L 220.813832 307.280273 
L 226.42832 304.823936 
L 232.042807 303.069405 
L 237.657295 300.963971 
L 243.622685 298.858546 
L 248.886262 296.753112 
L 252.395316 293.594961 
L 253.798936 289.03319 
L 254.851653 286.22595 
L 256.606184 282.365994 
L 259.413423 279.207843 
L 261.518857 277.453312 
L 258.009803 282.716897 
L 255.904369 286.927756 
L 254.50075 291.138624 
L 253.798936 294.998581 
L 255.202564 297.454917 
L 258.711617 299.209448 
L 262.571574 296.753112 
L 266.431531 294.647678 
L 270.642399 292.191341 
L 275.555072 290.43681 
L 280.970444 290.617056 
L 285.181312 291.669764 
L 289.39218 293.424295 
L 291.848517 297.284252 
L 292.550323 305.355076 
L 291.497606 329.216647 
L 292.19942 337.287463 
L 293.60304 345.709199 
L 295.006659 354.832732 
L 295.708473 360.79813 
L 297.462996 367.114424 
L 303.428395 367.816238 
L 308.341069 365.359893 
L 310.446503 362.552653 
L 314.657362 358.692697 
L 316.411893 354.130926 
L 314.306459 346.060101 
L 313.604645 341.498331 
L 312.551928 327.462116 
L 311.850122 323.602159 
L 310.797405 319.391291 
L 310.446503 316.23314 
L 309.393786 313.776804 
L 308.691971 309.215033 
L 310.797405 315.180432 
L 313.253742 325.356682 
L 313.955556 334.831126 
L 314.657362 339.041994 
L 315.710079 343.603765 
L 316.060982 346.761915 
L 317.815513 352.025492 
L 320.27185 350.270969 
L 321.67547 346.411004 
L 325.535426 343.252862 
L 329.395391 340.445614 
L 332.553534 339.743808 
L 336.764401 340.796517 
L 330.448108 342.200145 
L 326.23724 343.603765 
L 324.131806 346.411004 
L 321.67547 350.270969 
L 320.27185 353.429112 
L 321.324567 357.990883 
L 324.131806 360.447219 
L 329.04448 359.394502 
L 333.957162 357.990883 
L 338.869835 354.481829 
L 341.677075 350.972775 
L 343.782509 347.463721 
L 347.775392 349.626046 
L 349.880817 353.836906 
L 353.038968 360.504111 
L 361.109793 368.224032 
L 370.93514 371.733086 
L 381.462301 372.083989 
L 388.480408 373.136706 
L 401.463907 372.434892 
L 407.429297 370.680369 
L 410.587448 366.820404 
L 411.640165 369.978555 
L 415.500121 373.136706 
L 421.465512 373.487609 
L 430.238151 372.785795 
L 443.572551 367.873121 
L 452.696093 364.013164 
L 457.959678 361.556828 
L 464.275971 360.153208 
L 468.135928 358.047774 
L 470.592264 355.591437 
L 475.855849 354.53872 
L 480.41762 353.836906 
L 483.926674 353.1351 
L 487.084825 355.591437 
L 490.242967 357.34596 
L 493.401118 355.591437 
L 491.646587 360.153208 
L 493.050215 365.065881 
L 495.857455 368.224032 
L 499.015606 373.838512 
L 503.226465 378.049379 
L 510.595484 380.505716 
L 515.157255 380.154813 
L 518.315397 375.943945 
L 519.017211 370.329458 
L 518.315397 365.416784 
L 516.911777 359.100491 
L 515.508157 353.836906 
L 514.104538 349.626046 
L 512.350007 346.818798 
L 508.840953 344.713365 
L 511.999104 345.415179 
L 513.402724 342.958842 
L 514.806343 339.800691 
L 514.806343 335.23892 
L 515.85906 332.431681 
L 515.508157 338.046168 
L 515.508157 342.958842 
L 514.806343 345.415179 
L 515.508157 348.924232 
L 516.911777 353.836906 
L 517.613591 357.696871 
L 519.017211 362.609544 
L 519.719017 368.574935 
L 520.069928 374.891228 
L 519.719017 379.102096 
L 523.578982 382.61115 
L 531.782724 385.655518 
L 536.695398 385.655518 
L 541.608071 383.900996 
L 543.011691 381.093748 
L 541.608071 375.830171 
L 540.555354 370.917489 
L 537.748115 364.601196 
L 536.695398 358.635805 
L 535.291778 351.968601 
L 533.186344 344.950493 
L 532.133627 338.6342 
L 531.08091 334.072429 
L 528.624573 328.457941 
L 527.571856 324.948888 
L 525.115519 321.088931 
L 527.922767 315.825346 
L 531.08091 310.912673 
L 535.993584 306.701813 
L 542.309885 304.596379 
L 552.486144 303.543662 
L 561.609677 303.543662 
L 568.978695 304.947282 
L 575.996803 306.701813 
L 583.365813 309.859956 
L 591.085735 310.210867 
L 594.243877 307.052716 
L 593.892975 303.543662 
L 593.191161 297.929175 
L 591.787541 291.612881 
L 590.734824 286.349296 
L 588.62939 282.48934 
L 587.22577 277.927569 
L 583.365813 275.120329 
L 578.102229 271.962179 
L 586.173053 275.120329 
L 590.033018 278.980286 
L 592.138444 284.594774 
L 593.542072 290.911067 
L 594.243877 295.823741 
L 595.998408 302.140042 
L 599.156551 308.105433 
L 604.069233 313.018107 
L 610.385526 316.52716 
L 617.052731 320.387117 
L 624.421741 321.790745 
L 631.088946 321.088931 
L 635.650717 318.983497 
L 637.054337 315.12354 
L 636.00162 310.210867 
L 634.247089 304.947282 
L 631.439849 299.683706 
L 627.930795 295.121935 
L 625.474458 291.26197 
L 622.316307 285.296579 
L 627.228981 291.612881 
L 630.387132 296.525555 
L 633.896186 301.087325 
L 635.9543 305.326635 
L 637.007017 308.835689 
L 637.35792 313.748362 
L 639.112451 317.95923 
L 641.217885 321.117373 
L 645.428744 322.520992 
L 651.394135 326.030046 
L 655.2541 329.5391 
L 659.464959 332.697251 
L 664.02673 336.557207 
L 669.641218 337.609924 
L 675.255705 334.802685 
L 677.361131 328.837294 
L 679.115662 322.170089 
L 679.466565 315.151982 
L 677.361131 309.888406 
L 674.202988 305.677538 
L 672.097554 301.817581 
L 667.184881 297.606713 
L 664.728544 294.097659 
L 660.166773 288.834083 
L 668.237598 296.904907 
L 673.501174 301.817581 
L 678.062945 304.624821 
L 680.870185 302.870298 
L 680.519282 297.606713 
L 677.361131 287.781366 
L 673.150271 282.166878 
L 667.535784 276.552391 
L 663.675827 272.341531 
L 654.552286 265.674327 
L 649.990515 263.568893 
L 646.832364 264.62161 
L 644.025124 268.481566 
L 639.814257 270.937903 
L 635.9543 271.288814 
L 632.094343 270.937903 
L 625.427139 269.18338 
L 634.901583 270.236097 
L 640.516071 269.18338 
L 643.674222 267.077946 
L 645.779647 263.21799 
L 645.077841 260.761653 
L 642.972408 256.901688 
L 638.410637 251.989015 
L 633.497963 249.181775 
L 628.234378 247.427244 
L 622.619899 246.725438 
L 618.759934 247.076341 
L 617.707217 249.883581 
L 615.952694 254.094448 
L 613.496358 256.550785 
L 610.338207 258.305316 
L 605.425533 259.007122 
L 599.811046 257.603502 
L 594.898372 257.252599 
L 588.231167 254.796263 
L 580.511254 253.392634 
L 573.493147 252.339917 
L 568.229562 253.041731 
L 563.667791 252.339917 
L 569.282279 251.989015 
L 577.0022 252.339917 
L 582.265777 253.041731 
L 587.880264 254.094448 
L 593.494752 256.199882 
L 598.407426 257.252599 
L 602.618294 257.603502 
L 607.530967 258.305316 
L 611.390924 256.199882 
L 614.549075 253.743546 
L 616.654509 250.936298 
L 616.654509 247.427244 
L 615.25088 244.269101 
L 611.040021 241.11095 
L 606.829153 238.654614 
L 602.267382 236.900083 
L 598.407426 235.847366 
L 592.442035 235.14556 
L 586.827548 235.14556 
L 584.020308 234.443746 
L 580.862157 231.987409 
L 578.756723 229.881975 
L 576.300386 228.829258 
L 573.493147 229.180169 
L 571.03681 230.583789 
L 568.580473 233.040126 
L 566.124128 235.14556 
L 562.264171 236.198277 
L 558.404215 235.496463 
L 553.491541 234.092843 
L 548.92977 231.636506 
L 545.069805 229.881975 
L 539.806229 228.478355 
L 535.946272 228.478355 
L 531.735405 230.232886 
L 527.524537 231.636506 
L 518.751907 231.636506 
L 515.593756 232.338312 
L 511.733799 233.391029 
L 516.997375 230.934692 
L 522.26096 230.583789 
L 526.120917 230.934692 
L 529.629971 229.531072 
L 532.086307 228.829258 
L 534.893555 227.425638 
L 536.998989 227.074735 
L 541.8452 227.852311 
L 547.459688 229.957744 
L 552.372361 232.414081 
L 557.285035 234.519507 
L 562.197717 234.519507 
L 566.057673 233.817701 
L 569.215824 231.712267 
L 571.32125 228.905027 
L 570.619444 225.045063 
L 568.163107 222.939637 
L 563.952239 221.536009 
L 559.741371 219.781486 
L 555.179609 218.026955 
L 550.968741 215.921529 
L 543.599731 213.816096 
L 540.44158 213.465184 
L 536.932526 215.921529 
L 532.370756 214.166998 
L 537.63434 214.166998 
L 537.63434 210.307042 
L 535.177995 207.148891 
L 531.318039 202.58712 
L 526.405365 200.481686 
L 522.545408 198.376261 
L 519.387258 195.569013 
L 513.070964 192.059959 
L 510.96553 191.709056 
L 508.509193 192.761773 
L 507.105565 193.81449 
L 506.052857 198.376261 
L 507.807379 206.447077 
L 508.860096 209.956131 
L 508.509193 213.114281 
L 506.40376 215.921529 
L 507.105565 211.710662 
L 507.105565 208.201608 
L 506.754662 204.341651 
L 506.052857 200.832598 
L 505.701945 196.270827 
L 503.947423 192.761773 
L 501.841989 188.901808 
L 499.034749 186.094568 
L 496.227501 184.340046 
L 493.06935 183.638232 
L 489.560297 185.041851 
L 487.10396 186.796383 
L 485.349437 189.252719 
L 484.29672 192.410862 
L 484.29672 194.867207 
L 484.647623 198.376261 
L 487.10396 204.692554 
L 488.858491 207.148891 
L 485.70034 205.394368 
L 483.594906 206.096174 
L 481.48948 208.552511 
L 480.085852 211.008848 
L 479.734949 214.166998 
L 480.787666 217.325149 
L 482.8931 220.834203 
L 485.349437 223.641443 
L 490.262111 224.343257 
L 484.998534 225.045063 
L 481.840383 227.501399 
L 480.085852 230.65955 
L 475.524082 232.414081 
L 470.962319 233.817701 
L 463.944212 234.168604 
L 459.03153 233.466798 
L 452.364333 231.010453 
L 444.644412 228.554116 
L 439.390133 227.122055 
L 432.372026 226.069338 
L 420.792148 225.718435 
L 412.37042 224.314807 
L 407.106844 223.613001 
L 400.790542 224.314807 
L 393.421532 223.963904 
L 386.754327 223.26209 
L 380.087123 219.753036 
L 375.52536 216.243983 
L 371.314492 211.331309 
L 369.910873 208.173166 
L 369.559961 206.067732 
L 369.559961 206.067732 
" style="fill:none;stroke:#000000;stroke-linecap:square;stroke-width:1.5;"/>
   </g>
   <g id="line2d_4">
    <path clip-path="url(#p1abcae4d7e)" d="M 559.656039 296.231535 
L 556.848799 285.002568 
L 554.041551 278.335363 
L 550.883408 273.773593 
L 545.970735 267.808202 
L 540.70715 263.246431 
L 534.039946 259.035572 
L 527.021838 255.877421 
L 519.301925 254.473801 
L 505.967516 252.71927 
L 520.003731 253.421084 
L 526.320032 254.824704 
L 532.987237 256.930138 
L 539.30353 260.790095 
L 546.321638 266.755485 
L 552.287028 272.720876 
L 556.497896 280.440797 
L 558.954233 287.809808 
L 559.656039 296.231535 
" style="fill:none;stroke:#000000;stroke-linecap:square;stroke-width:1.5;"/>
   </g>
   <g id="line2d_5">
    <path clip-path="url(#p1abcae4d7e)" d="M 529.829086 297.986066 
L 531.583609 300.442403 
L 524.916412 296.231535 
L 520.003731 291.318861 
L 516.845588 287.108002 
L 513.336534 282.897134 
L 507.722047 275.528124 
L 516.143774 283.248037 
L 519.301925 287.108002 
L 524.214598 293.775198 
L 529.829086 297.986066 
" style="fill:none;stroke:#000000;stroke-linecap:square;stroke-width:1.5;"/>
   </g>
   <g id="line2d_6">
    <path clip-path="url(#p1abcae4d7e)" d="M 518.951022 311.320467 
L 511.582003 311.671378 
L 502.458462 307.811413 
L 495.089451 303.249642 
L 491.229495 300.0915 
L 487.018627 297.635163 
L 485.96591 300.442403 
L 485.96591 304.302359 
L 478.245997 298.336969 
L 475.438749 293.073392 
L 472.982412 286.055285 
L 475.438749 288.511622 
L 480.000519 290.967958 
L 480.702334 285.002568 
L 479.649617 274.124495 
L 480.702334 279.738983 
L 482.105953 284.651657 
L 486.667724 290.967958 
L 491.580398 296.933349 
L 499.300319 303.951456 
L 507.371144 308.513227 
L 518.951022 311.320467 
" style="fill:none;stroke:#000000;stroke-linecap:square;stroke-width:1.5;"/>
   </g>
   <g id="line2d_7">
    <path clip-path="url(#p1abcae4d7e)" d="M 361.261588 332.460122 
L 364.419731 328.951068 
L 367.928785 326.143829 
L 380.912283 326.143829 
L 391.790355 326.494732 
L 401.615702 327.196546 
L 414.248297 328.249263 
L 425.828176 329.30198 
L 439.513488 330.003785 
L 448.987932 331.056502 
L 457.409659 332.811033 
L 463.37505 338.07461 
L 458.813279 334.565556 
L 450.391552 332.109219 
L 442.67163 331.407405 
L 433.899 330.705599 
L 421.968219 329.652882 
L 409.335624 328.951068 
L 398.106649 327.898351 
L 385.824965 327.898351 
L 378.105043 327.547449 
L 372.490555 327.898351 
L 366.876068 329.652882 
L 361.261588 332.460122 
" style="fill:none;stroke:#000000;stroke-linecap:square;stroke-width:1.5;"/>
   </g>
   <g id="line2d_8">
    <path clip-path="url(#p1abcae4d7e)" d="M 390.737638 290.702388 
L 394.597595 288.246052 
L 400.212082 287.193335 
L 406.879287 287.193335 
L 412.142864 288.596954 
L 418.810068 289.649671 
L 426.179079 288.947857 
L 430.389946 288.947857 
L 436.355337 290.000574 
L 441.618913 291.404194 
L 448.987932 293.509628 
L 441.618913 292.456911 
L 436.355337 291.053291 
L 430.740849 290.351477 
L 423.371839 290.000574 
L 417.406448 290.702388 
L 411.791961 290.000574 
L 406.177473 288.947857 
L 398.808463 289.29876 
L 390.737638 290.702388 
" style="fill:none;stroke:#000000;stroke-linecap:square;stroke-width:1.5;"/>
   </g>
   <g id="line2d_9">
    <path clip-path="url(#p1abcae4d7e)" d="M 331.443934 292.807814 
L 333.90027 290.351477 
L 342.321998 284.386087 
L 350.392822 277.017076 
L 361.621798 262.980861 
L 356.709116 271.402589 
L 352.498256 278.069793 
L 347.234671 282.631564 
L 338.812944 287.89514 
L 331.443934 292.807814 
" style="fill:none;stroke:#000000;stroke-linecap:square;stroke-width:1.5;"/>
   </g>
   <g id="line2d_10">
    <path clip-path="url(#p1abcae4d7e)" d="M 320.566235 246.83908 
L 312.495045 252.4537 
L 308.985991 255.26094 
L 305.476938 259.82271 
L 299.160636 267.191729 
L 293.546148 278.069793 
L 296.353396 271.051686 
L 300.564256 264.033578 
L 305.827841 256.664568 
L 310.740514 251.400983 
L 320.566235 246.83908 
L 320.566235 246.83908 
" style="fill:none;stroke:#000000;stroke-linecap:square;stroke-width:1.5;"/>
   </g>
   <g id="line2d_11">
    <path clip-path="url(#p1abcae4d7e)" d="M 634.616463 402.006924 
L 645.077841 402.356757 
L 655.955906 401.30404 
L 662.62311 398.145889 
L 667.184881 393.584119 
L 670.343023 387.618728 
L 672.799368 382.355152 
L 674.202988 377.091567 
L 674.904794 371.126176 
L 674.904794 366.213503 
L 673.501174 362.704449 
L 671.044837 361.300829 
L 667.535784 361.300829 
L 664.377633 363.055352 
L 660.166773 365.862592 
L 651.394135 373.582513 
L 643.674222 381.653338 
L 639.112451 386.916914 
L 634.901583 390.425968 
L 630.690724 393.584119 
L 627.883476 396.040455 
L 628.58529 400.602226 
L 634.616463 402.006924 
" style="fill:none;stroke:#000000;stroke-linecap:square;stroke-width:1.5;"/>
   </g>
   <g id="line2d_12">
    <path clip-path="url(#p1abcae4d7e)" d="M 620.865368 395.33865 
L 628.234378 392.180499 
L 634.199777 387.969631 
L 641.568788 380.951524 
L 648.586895 375.337044 
L 653.499569 370.424362 
L 659.114056 365.511689 
L 665.079447 362.353538 
L 668.939404 359.546298 
L 668.939404 355.33543 
L 667.535784 351.475474 
L 666.83397 347.615517 
L 665.079447 344.106463 
L 662.62311 343.053746 
L 659.114056 344.106463 
L 656.306808 347.615517 
L 652.797755 351.826377 
L 649.288701 355.33543 
L 644.726939 359.546298 
L 638.410637 364.108069 
L 633.14706 367.968025 
L 628.234378 371.126176 
L 623.672616 375.687947 
L 618.759934 379.898807 
L 613.847261 385.162391 
L 611.040021 389.373259 
L 612.092738 392.531402 
L 616.654509 395.33865 
L 620.865368 395.33865 
" style="fill:none;stroke:#000000;stroke-linecap:square;stroke-width:1.5;"/>
   </g>
   <g id="line2d_13">
    <path clip-path="url(#p1abcae4d7e)" d="M 608.232773 384.460577 
L 611.040021 385.864205 
L 614.549075 383.056957 
L 620.514465 377.091567 
L 626.830759 371.477079 
L 628.936193 369.722557 
L 632.094343 367.968025 
L 635.9543 364.458972 
L 642.270593 360.248112 
L 643.674222 358.844484 
L 648.235992 355.33543 
L 652.797755 350.071854 
L 657.710437 344.808269 
L 660.868579 340.246507 
L 657.710437 336.386542 
L 654.552286 332.175682 
L 649.639612 328.315717 
L 643.32331 325.508478 
L 638.76154 323.052141 
L 633.848866 321.999424 
L 627.18167 323.753947 
L 621.216271 325.859381 
L 618.058128 328.315717 
L 614.198163 336.737453 
L 613.496358 342.001029 
L 615.25088 348.317323 
L 618.058128 351.826377 
L 623.321705 352.879094 
L 615.601792 353.580908 
L 611.741827 357.440864 
L 610.338207 363.406255 
L 609.636401 369.020742 
L 607.88187 374.63523 
L 605.776436 377.793381 
L 605.425533 382.00424 
L 608.232773 384.460577 
" style="fill:none;stroke:#000000;stroke-linecap:square;stroke-width:1.5;"/>
   </g>
   <g id="line2d_14">
    <path clip-path="url(#p1abcae4d7e)" d="M 597.800516 334.745793 
L 605.871341 338.254847 
L 610.082208 338.254847 
L 613.591262 334.39489 
L 613.591262 328.780403 
L 610.784014 324.218632 
L 607.625872 321.411392 
L 603.064101 320.007773 
L 597.09871 319.656861 
L 592.186037 320.007773 
L 587.624266 320.358675 
L 584.466115 321.762295 
L 583.062495 324.569543 
L 585.167929 327.727686 
L 590.431506 329.83312 
L 593.94056 332.640359 
L 597.800516 334.745793 
" style="fill:none;stroke:#000000;stroke-linecap:square;stroke-width:1.5;"/>
   </g>
   <g id="line2d_15">
    <path clip-path="url(#p1abcae4d7e)" d="M 554.743365 383.256073 
L 558.252419 376.939771 
L 560.708756 370.974381 
L 559.305136 366.41261 
L 558.603322 361.850839 
L 558.954233 359.043599 
L 561.761473 355.183643 
L 562.112376 348.516438 
L 561.41057 342.551048 
L 561.059659 337.287463 
L 558.603322 331.322072 
L 556.497896 327.462116 
L 554.743365 324.654876 
L 556.497896 321.847628 
L 562.112376 320.444008 
L 567.726863 320.093105 
L 571.937731 316.23314 
L 574.394068 313.074998 
L 576.14859 308.86413 
L 568.77958 307.109607 
L 561.761473 306.05689 
L 556.146985 306.407793 
L 552.988842 309.215033 
L 550.883408 307.109607 
L 547.725258 306.758696 
L 542.812584 306.758696 
L 539.30353 307.46051 
L 535.092662 308.86413 
L 531.583609 312.022281 
L 528.776369 315.531335 
L 528.776369 321.145822 
L 531.232706 325.707593 
L 534.74176 330.269355 
L 536.145379 337.287463 
L 537.198096 346.411004 
L 538.601716 354.481829 
L 540.005344 362.20175 
L 541.408964 367.816238 
L 542.812584 374.132531 
L 543.514398 379.396108 
L 544.918018 384.659693 
L 548.076161 386.765127 
L 551.936125 385.71241 
L 554.743365 383.256073 
" style="fill:none;stroke:#000000;stroke-linecap:square;stroke-width:1.5;"/>
   </g>
   <g id="line2d_16">
    <path clip-path="url(#p1abcae4d7e)" d="M 487.350353 181.042026 
L 492.207189 181.649135 
L 496.760474 181.952685 
L 497.974683 177.70295 
L 497.671133 174.363873 
L 494.028506 168.596379 
L 490.082321 163.435993 
L 487.046795 158.579157 
L 483.707726 154.632972 
L 480.065091 150.686795 
L 476.422465 145.526401 
L 473.386946 140.973115 
L 469.440761 137.026938 
L 467.012343 134.29497 
L 462.762608 130.652344 
L 457.298672 126.706158 
L 451.834728 123.97419 
L 445.460125 120.938664 
L 434.835795 116.688929 
L 428.4612 115.17117 
L 421.479496 114.867619 
L 412.372925 114.564069 
L 405.694772 114.867619 
L 400.837936 114.564069 
L 395.981092 114.260511 
L 391.731365 114.867619 
L 388.392289 116.992487 
L 383.839003 120.938664 
L 380.196376 124.277741 
L 375.946641 127.920367 
L 373.518223 130.348785 
L 372.607564 133.080762 
L 369.875596 137.026938 
L 367.14362 139.455356 
L 364.108102 144.008642 
L 361.072576 146.43706 
L 357.733499 149.776136 
L 356.21574 153.418763 
L 357.733499 154.632972 
L 361.072576 157.972049 
L 365.322311 158.882707 
L 371.089805 158.275599 
L 377.4644 156.45429 
L 382.321244 155.240081 
L 386.87453 153.115213 
L 390.820707 151.901004 
L 397.195301 151.293895 
L 405.391222 150.990345 
L 413.890684 150.990345 
L 423.300806 150.383245 
L 431.800276 151.901004 
L 440.603289 154.025872 
L 450.924069 157.972049 
L 459.72709 161.614675 
L 469.137211 166.167961 
L 476.422465 171.328355 
L 482.189959 177.3994 
L 487.350353 181.042026 
" style="fill:none;stroke:#000000;stroke-linecap:square;stroke-width:1.5;"/>
   </g>
   <g id="line2d_17">
    <path clip-path="url(#p1abcae4d7e)" d="M 412.676475 133.991412 
L 425.425673 133.991412 
L 432.407377 135.205621 
L 440.906839 138.241147 
L 436.960662 137.026938 
L 429.0683 135.509179 
L 420.568838 134.29497 
L 412.676475 133.991412 
" style="fill:none;stroke:#000000;stroke-linecap:square;stroke-width:1.5;"/>
   </g>
   <g id="line2d_18">
    <path clip-path="url(#p1abcae4d7e)" d="M 405.391222 169.203487 
L 417.836861 169.810596 
L 430.889618 171.328355 
L 441.210398 173.149664 
L 450.620519 176.185191 
L 461.244849 180.434926 
L 470.958529 185.291762 
L 478.243782 188.630838 
L 484.011277 186.505971 
L 485.832586 183.470444 
L 485.832586 181.042026 
L 481.886409 178.613609 
L 478.547332 174.667432 
L 474.904706 170.721246 
L 469.137211 166.775069 
L 461.244849 163.435993 
L 452.441828 159.186258 
L 443.638815 155.847181 
L 436.657112 153.722322 
L 430.586059 152.508104 
L 423.604356 151.597454 
L 415.712002 151.901004 
L 408.73029 151.901004 
L 400.837936 152.204554 
L 394.766884 154.025872 
L 390.213598 156.150739 
L 388.392289 160.096916 
L 390.820707 165.864411 
L 397.195301 168.292829 
L 405.391222 169.203487 
" style="fill:none;stroke:#000000;stroke-linecap:square;stroke-width:1.5;"/>
   </g>
   <g id="line2d_19">
    <path clip-path="url(#p1abcae4d7e)" d="M 398.430578 222.396619 
L 409.05772 222.093227 
L 419.3785 224.218094 
L 428.181521 225.128753 
L 436.377433 225.432303 
L 443.966245 227.557171 
L 448.823081 228.77138 
L 460.965178 233.021107 
L 468.250432 233.021107 
L 475.839236 231.806898 
L 480.69608 228.77138 
L 482.820939 224.521644 
L 481.30318 219.968359 
L 476.749894 215.415073 
L 469.464641 212.986656 
L 463.090038 210.861788 
L 457.322543 209.647579 
L 450.947949 208.12982 
L 445.787554 205.701402 
L 437.895192 204.487193 
L 430.609939 203.880084 
L 421.806926 202.665876 
L 414.218114 202.058775 
L 406.325752 201.755217 
L 399.951157 200.844558 
L 393.576554 199.630349 
L 388.11261 199.023249 
L 384.166433 199.630349 
L 379.613147 200.541008 
L 375.970521 201.755217 
L 372.024335 205.094293 
L 371.113685 208.43337 
L 374.149203 213.593764 
L 378.702489 217.539941 
L 384.166433 220.879018 
L 389.933927 222.396777 
L 398.430578 222.396619 
" style="fill:none;stroke:#000000;stroke-linecap:square;stroke-width:1.5;"/>
   </g>
   <g id="line2d_20">
    <path clip-path="url(#p1abcae4d7e)" d="M 401.141487 191.059256 
L 412.069367 195.916092 
L 421.175938 196.523201 
L 425.122123 196.523201 
L 432.710927 199.558719 
L 441.210398 201.683586 
L 448.495651 202.290695 
L 455.780905 202.290695 
L 460.941299 204.415563 
L 469.744311 208.66529 
L 476.118914 208.36174 
L 480.6722 203.808454 
L 482.189959 199.558719 
L 479.154441 194.701883 
L 471.565629 189.541497 
L 465.191034 184.684653 
L 459.42354 181.649135 
L 453.352487 178.006508 
L 443.638815 174.970982 
L 434.835795 173.149664 
L 423.604356 171.631905 
L 415.408443 170.721246 
L 407.81964 171.328355 
L 402.355696 172.846114 
L 398.409519 175.57809 
L 395.373992 179.220717 
L 395.373992 184.381103 
L 401.141487 191.059256 
" style="fill:none;stroke:#000000;stroke-linecap:square;stroke-width:1.5;"/>
   </g>
   <g id="line2d_21">
    <path clip-path="url(#p1abcae4d7e)" d="M 408.606264 114.042965 
L 418.737782 114.042965 
L 425.867375 114.042965 
L 435.623663 115.919175 
L 446.880906 120.046834 
L 456.637194 124.549731 
L 461.890576 125.300216 
L 461.890576 120.797311 
L 458.888642 114.418204 
L 454.385745 108.414336 
L 449.132362 104.286686 
L 442.00277 100.159027 
L 435.623663 97.532332 
L 429.244548 97.157093 
L 420.989231 97.532332 
L 411.983437 99.78378 
L 404.853844 102.785714 
L 401.101425 105.787649 
L 399.225215 108.039097 
L 400.350947 111.041031 
L 403.72812 114.042965 
L 408.606264 114.042965 
" style="fill:none;stroke:#000000;stroke-linecap:square;stroke-width:1.5;"/>
   </g>
   <g id="line2d_22">
    <path clip-path="url(#p1abcae4d7e)" d="M 287.42897 373.724737 
L 293.04345 373.022923 
L 295.148883 369.162967 
L 295.850698 365.30301 
L 294.447078 359.337619 
L 292.692547 347.40683 
L 290.938024 335.476049 
L 290.587113 326.001605 
L 290.938024 317.228974 
L 290.938024 308.456336 
L 291.288927 303.543662 
L 290.938024 297.578272 
L 288.130776 293.367404 
L 281.463571 291.612881 
L 276.199995 291.612881 
L 271.989127 294.069218 
L 266.374648 296.876458 
L 262.16378 299.332794 
L 258.654726 302.140042 
L 256.549292 305.298185 
L 255.496575 308.807239 
L 256.198389 312.667204 
L 258.654726 316.878063 
L 261.812877 323.194365 
L 264.97102 329.159755 
L 267.427356 333.370615 
L 267.076453 337.23058 
L 267.778268 344.248687 
L 267.778268 350.214078 
L 267.427356 356.881274 
L 268.12917 363.197576 
L 270.234604 370.215683 
L 275.147278 371.619303 
L 275.849092 375.128357 
L 279.709049 377.935597 
L 283.919916 375.830171 
L 287.42897 373.724737 
" style="fill:none;stroke:#000000;stroke-linecap:square;stroke-width:1.5;"/>
   </g>
   <g id="line2d_23">
    <path clip-path="url(#p1abcae4d7e)" d="M 210.931594 314.070824 
L 207.773443 316.878063 
L 207.071637 321.790745 
L 207.42254 327.756136 
L 208.475257 336.177863 
L 209.527974 344.248687 
L 209.878877 351.617698 
L 210.931594 357.933991 
L 213.38793 363.197576 
L 215.844267 368.461152 
L 220.406038 373.373834 
L 223.564189 378.286508 
L 227.775056 380.041031 
L 232.336819 378.637411 
L 240.407643 379.690128 
L 246.022131 380.391942 
L 248.829379 380.391942 
L 254.092955 381.795562 
L 260.058346 381.093748 
L 267.076453 379.690128 
L 268.830984 377.935597 
L 268.830984 372.67202 
L 267.427356 367.759347 
L 266.725551 364.250293 
L 266.023737 358.284902 
L 265.672834 353.372221 
L 266.023737 349.512264 
L 266.374648 342.845059 
L 265.672834 335.82696 
L 263.918303 330.563375 
L 261.812877 326.352507 
L 259.005629 320.387117 
L 256.549292 315.474443 
L 252.338433 309.509053 
L 249.531185 306.701813 
L 246.373034 305.649096 
L 241.811271 304.947282 
L 237.951307 305.999999 
L 233.389536 307.052716 
L 229.529579 308.456336 
L 226.72234 309.509053 
L 224.266003 311.614487 
L 224.616906 316.176257 
L 229.529579 327.756136 
L 234.09135 338.6342 
L 238.653121 347.757741 
L 241.46036 354.424937 
L 245.320325 362.144859 
L 239.705838 353.372221 
L 237.249501 348.108644 
L 234.793164 342.494156 
L 231.635013 335.476049 
L 229.178676 328.808853 
L 227.073242 323.194365 
L 225.318711 318.632594 
L 223.564189 314.421726 
L 221.458755 311.96539 
L 217.247895 311.263584 
L 214.79155 312.667204 
L 210.931594 314.070824 
" style="fill:none;stroke:#000000;stroke-linecap:square;stroke-width:1.5;"/>
   </g>
   <g id="line2d_24">
    <path clip-path="url(#p1abcae4d7e)" d="M 225.318711 414.780665 
L 228.476862 409.867992 
L 229.178676 403.55169 
L 226.020525 400.393547 
L 221.809658 397.937211 
L 216.546081 396.18268 
L 211.98431 394.77906 
L 204.966203 394.77906 
L 200.755335 395.129963 
L 200.404432 400.74445 
L 201.808052 407.060744 
L 204.264389 412.324328 
L 209.878877 418.991533 
L 218.651515 419.693339 
L 225.318711 414.780665 
" style="fill:none;stroke:#000000;stroke-linecap:square;stroke-width:1.5;"/>
   </g>
   <g id="line2d_25">
    <path clip-path="url(#p1abcae4d7e)" d="M 190.929988 317.579877 
L 186.368217 320.387117 
L 183.91188 322.843454 
L 184.262783 329.861561 
L 184.613695 339.686917 
L 184.613695 348.108644 
L 183.560978 356.179468 
L 181.806447 363.548479 
L 180.402827 368.812064 
L 178.648304 374.777454 
L 177.94649 380.391942 
L 181.806447 384.251898 
L 189.526368 386.357332 
L 197.597193 386.357332 
L 203.21168 385.304615 
L 211.633408 385.304615 
L 218.651515 386.357332 
L 223.564189 382.848279 
L 223.564189 378.988314 
L 220.055135 375.128357 
L 216.195178 370.215683 
L 211.98431 363.197576 
L 209.527974 355.126752 
L 208.82616 347.055927 
L 208.124354 340.03782 
L 207.071637 334.072429 
L 206.720734 328.808853 
L 205.668017 322.141648 
L 204.264389 319.3344 
L 201.457149 316.878063 
L 197.246281 315.825346 
L 190.929988 317.579877 
" style="fill:none;stroke:#000000;stroke-linecap:square;stroke-width:1.5;"/>
   </g>
   <g id="line2d_26">
    <path clip-path="url(#p1abcae4d7e)" d="M 166.015709 321.088931 
L 162.155744 322.492551 
L 159.699407 325.650702 
L 158.997601 329.159755 
L 156.892167 333.721526 
L 154.435831 338.985103 
L 152.330397 344.950493 
L 150.926777 350.915884 
L 150.224963 357.583088 
L 149.523157 365.653913 
L 150.224963 370.917489 
L 155.488548 371.970206 
L 160.752124 374.07564 
L 165.664798 377.584694 
L 169.875666 381.44465 
L 174.437436 381.44465 
L 177.595587 375.830171 
L 178.648304 369.864781 
L 180.051924 364.952099 
L 181.806447 358.986708 
L 182.859164 353.372221 
L 183.560978 347.40683 
L 183.210066 341.441439 
L 183.210066 335.125146 
L 182.859164 329.861561 
L 182.859164 324.597985 
L 180.75373 321.088931 
L 175.841056 320.036214 
L 171.279285 320.387117 
L 166.015709 321.088931 
" style="fill:none;stroke:#000000;stroke-linecap:square;stroke-width:1.5;"/>
   </g>
   <g id="line2d_27">
    <path clip-path="url(#p1abcae4d7e)" d="M 130.560666 321.815205 
L 128.468835 331.265189 
L 128.819737 335.82696 
L 126.363401 339.686917 
L 124.959781 343.897776 
L 124.257967 347.757741 
L 123.907064 351.968601 
L 124.959781 358.284902 
L 127.416118 362.495762 
L 132.328791 368.461152 
L 137.943279 371.619303 
L 144.259572 371.970206 
L 147.417723 367.408436 
L 148.821343 361.092142 
L 149.172246 357.583088 
L 149.87406 353.372221 
L 149.87406 349.161361 
L 151.27768 344.59959 
L 152.6813 340.03782 
L 155.137636 335.476049 
L 157.593982 330.212472 
L 158.295787 326.352507 
L 156.541265 323.545268 
L 153.734017 321.790745 
L 149.87406 320.036214 
L 147.417723 319.3344 
L 144.259572 316.52716 
L 140.750519 315.825346 
L 136.539659 316.176257 
L 134.083314 318.281691 
L 130.560666 321.815205 
" style="fill:none;stroke:#000000;stroke-linecap:square;stroke-width:1.5;"/>
   </g>
  </g>
 </g>
 <defs>
  <clipPath id="p1abcae4d7e">
   <rect height="622.08" width="829.44" x="0" y="0"/>
  </clipPath>
 </defs>
</svg>
