<?xml version="1.0" encoding="utf-8" standalone="no"?>
<!DOCTYPE svg PUBLIC "-//W3C//DTD SVG 1.1//EN"
  "http://www.w3.org/Graphics/SVG/1.1/DTD/svg11.dtd">
<!-- Created with matplotlib (https://matplotlib.org/) -->
<svg height="342pt" version="1.1" viewBox="0 0 570.24 342" width="570.24pt" xmlns="http://www.w3.org/2000/svg" xmlns:xlink="http://www.w3.org/1999/xlink">
 <defs>
  <style type="text/css">
*{stroke-linecap:butt;stroke-linejoin:round;}
  </style>
 </defs>
 <g id="figure_1">
  <g><image xlink:href="../../img/cb/guineapig_cor_cell.json.cb-50%25.png" width="570.24px" height="342.0px"/></g>

  <g id="patch_1">
   <path d="M 0 342 
L 570.24 342 
L 570.24 0 
L 0 0 
z
" style="fill:none;"/>
  </g>
  <g id="axes_1">
   <g id="line2d_1">
    <path clip-path="url(#pc85fc0a29f)" d="M 213.032643 58.170108 
L 204.247451 62.382859 
L 196.573418 65.924722 
L 188.899379 68.285961 
L 181.22534 73.008449 
L 176.502857 77.140619 
L 178.273789 82.453414 
L 181.815652 87.766209 
L 184.767203 93.669316 
L 186.538135 102.523974 
L 192.441242 109.017394 
L 195.983105 115.510808 
L 189.489691 117.28174 
L 185.357516 110.198013 
L 181.815652 100.753043 
L 178.273789 91.898384 
L 172.960994 88.356521 
L 168.238512 94.849935 
L 167.057887 102.523974 
L 167.648199 108.427082 
L 172.370682 116.691427 
L 175.322238 122.594535 
L 166.46758 115.510808 
L 160.564473 115.510808 
L 156.432297 122.004222 
L 157.612922 129.678261 
L 167.057887 132.629812 
L 162.335404 134.400744 
L 154.661365 130.268574 
L 149.938883 124.365466 
L 142.855156 129.678261 
L 138.132668 134.400744 
L 138.132668 146.206959 
L 148.758264 149.158509 
L 163.516023 152.700373 
L 180.044721 153.290685 
L 188.899379 159.193787 
L 195.392793 163.325962 
L 207.789315 158.60348 
L 219.595529 159.193787 
L 233.762982 162.73565 
L 247.340123 163.325962 
L 263.86882 161.555031 
L 275.084723 155.061617 
L 285.12 148.568197 
L 292.203727 153.880992 
L 304.600248 158.60348 
L 315.81615 161.555031 
L 331.164223 160.374412 
L 344.151057 156.832548 
L 360.679754 155.061617 
L 371.89565 155.651923 
L 384.882484 158.60348 
L 394.327455 162.145343 
L 403.182113 160.964718 
L 397.869318 153.290685 
L 393.14683 146.206959 
L 397.869318 140.894164 
L 409.085215 139.123232 
L 417.939873 134.400744 
L 411.446459 133.810437 
L 407.314283 129.087949 
L 408.494908 119.642984 
L 404.953045 112.559257 
L 399.64025 114.330189 
L 393.737143 119.052671 
L 396.098387 126.72671 
L 391.375898 123.184847 
L 386.063104 126.136398 
L 388.424348 133.220125 
L 385.472797 133.810437 
L 383.701865 126.136398 
L 390.195279 120.823603 
L 397.869318 114.330189 
L 403.182113 107.246462 
L 402.591801 97.211179 
L 394.327455 87.766209 
L 387.834035 84.814658 
L 384.292172 91.898384 
L 385.472797 101.933662 
L 381.340621 109.017394 
L 373.666582 115.510808 
L 374.847207 108.427082 
L 375.437514 108.427082 
L 378.299389 103.901691 
L 377.809073 104.11004 
L 380.870401 100.481939 
L 382.636241 95.913091 
L 382.193512 91.04303 
L 380.570158 87.796323 
L 379.241955 83.368991 
L 379.68469 78.49893 
L 381.898356 74.514333 
L 378.946805 69.644272 
L 375.257364 65.954831 
L 368.468787 62.117811 
L 360.942332 59.608989 
L 355.777115 58.133214 
L 349.283696 57.690479 
L 343.675744 58.871104 
L 339.838725 61.970233 
L 338.067793 65.364518 
L 340.576616 67.283028 
L 342.93786 69.79185 
L 347.365186 72.595823 
L 352.087674 76.727999 
L 354.744069 81.450481 
L 354.448912 84.25446 
L 352.235252 79.089237 
L 348.103076 74.661911 
L 344.118479 71.415204 
L 339.543574 68.316075 
L 334.52593 65.069362 
L 330.984067 65.512097 
L 328.180094 69.05396 
L 327.294625 73.62887 
L 328.032516 78.49893 
L 329.508291 82.483528 
L 334.378358 84.54961 
L 340.133881 86.46812 
L 336.887174 85.877813 
L 331.869535 84.697188 
L 330.246182 88.239052 
L 331.131645 94.437315 
L 332.754998 100.783151 
L 332.754998 106.391102 
L 330.39376 111.703897 
L 329.655869 107.866878 
L 326.999475 100.635573 
L 322.867299 96.060669 
L 325.376121 89.272098 
L 324.269285 84.402038 
L 321.944936 80.085389 
L 321.944936 74.108493 
L 325.597483 69.127749 
L 327.589782 61.490604 
L 327.921832 54.517561 
L 321.612891 47.876569 
L 308.995002 43.891972 
L 298.701463 41.899673 
L 289.736121 41.899673 
L 278.778481 43.891972 
L 268.152891 44.224022 
L 257.19525 46.880423 
L 247.897858 51.861167 
L 241.588916 54.849612 
L 240.924815 59.830356 
L 245.905559 63.482903 
L 248.894004 70.123901 
L 245.573508 74.772595 
L 241.588916 80.085389 
L 240.924815 85.398184 
L 239.596617 91.375081 
L 238.268414 98.016073 
L 236.940217 106.317313 
L 236.276121 100.672468 
L 236.940217 94.695577 
L 238.268414 87.390483 
L 239.596617 81.745638 
L 242.585063 75.104645 
L 245.905559 69.127749 
L 243.91326 62.154706 
L 238.268414 57.838058 
L 232.955619 54.517561 
L 226.978729 56.177809 
L 223.326182 60.826509 
L 220.669782 67.799552 
L 216.68519 74.440544 
L 213.032643 80.085389 
L 209.712141 84.069987 
L 211.70444 80.085389 
L 214.028789 75.768741 
L 217.349285 70.787997 
L 220.669782 64.479055 
L 219.673635 57.838058 
L 213.032643 58.170108 
L 213.032643 58.170108 
" style="fill:none;stroke:#000000;stroke-linecap:square;stroke-width:1.5;"/>
   </g>
   <g id="line2d_2">
    <path clip-path="url(#pc85fc0a29f)" d="M 308.99478 59.830296 
L 308.995169 59.830408 
L 308.99478 59.830296 
" style="fill:none;stroke:#000000;stroke-linecap:square;stroke-width:1.5;"/>
   </g>
  </g>
 </g>
 <defs>
  <clipPath id="pc85fc0a29f">
   <rect height="342" width="570.24" x="0" y="0"/>
  </clipPath>
 </defs>
</svg>
