<?xml version="1.0" encoding="utf-8" standalone="no"?>
<!DOCTYPE svg PUBLIC "-//W3C//DTD SVG 1.1//EN"
  "http://www.w3.org/Graphics/SVG/1.1/DTD/svg11.dtd">
<!-- Created with matplotlib (https://matplotlib.org/) -->
<svg height="380.16pt" version="1.1" viewBox="0 0 570.24 380.16" width="570.24pt" xmlns="http://www.w3.org/2000/svg" xmlns:xlink="http://www.w3.org/1999/xlink">
 <defs>
  <style type="text/css">
*{stroke-linecap:butt;stroke-linejoin:round;}
  </style>
 </defs>
 <g id="figure_1">
  <g><image xlink:href="../../img/cb/harborseal_cor_cell.json.cb-50%25.png" width="570.24px" height="380.15999999999997px"/></g>

  <g id="patch_1">
   <path d="M 0 380.16 
L 570.24 380.16 
L 570.24 0 
L 0 0 
z
" style="fill:none;"/>
  </g>
  <g id="axes_1">
   <g id="line2d_1">
    <path clip-path="url(#pdec6d1fa2f)" d="M 501.936174 261.087651 
L 502.622498 256.454953 
L 501.42143 253.709647 
L 499.019288 251.993835 
L 495.244499 250.278017 
L 493.528681 252.165414 
L 492.327613 255.768624 
L 492.156033 257.656021 
L 495.930822 259.714998 
L 499.019288 261.087651 
L 501.42143 262.460305 
L 501.936174 261.087651 
" style="fill:none;stroke:#000000;stroke-linecap:square;stroke-width:1.5;"/>
   </g>
   <g id="line2d_2">
    <path clip-path="url(#pdec6d1fa2f)" d="M 497.131896 262.631884 
L 493.185522 262.288719 
L 489.753891 262.11714 
L 486.837006 263.146628 
L 484.778029 265.377185 
L 483.92012 268.808815 
L 483.74854 272.926769 
L 488.552818 273.784678 
L 493.185522 274.299422 
L 498.161385 273.441513 
L 500.220362 270.181468 
L 499.877197 265.891929 
L 497.81822 262.803464 
L 497.131896 262.631884 
" style="fill:none;stroke:#000000;stroke-linecap:square;stroke-width:1.5;"/>
   </g>
   <g id="line2d_3">
    <path clip-path="url(#pdec6d1fa2f)" d="M 499.705617 249.763272 
L 499.190873 246.160063 
L 498.161385 243.586342 
L 496.445567 243.757921 
L 494.558169 247.189551 
L 495.416078 248.733784 
L 497.303476 249.763272 
L 499.705617 249.763272 
" style="fill:none;stroke:#000000;stroke-linecap:square;stroke-width:1.5;"/>
   </g>
   <g id="line2d_4">
    <path clip-path="url(#pdec6d1fa2f)" d="M 459.993475 228.94558 
L 459.555555 228.830338 
L 456.638669 227.800849 
L 454.236527 230.031406 
L 456.295504 232.261962 
L 459.21239 233.806201 
L 462.472441 235.522013 
L 458.182902 233.463036 
L 454.408107 231.404059 
L 451.148062 232.605127 
L 451.148062 235.865178 
L 454.751272 237.58099 
L 454.922857 238.267314 
L 454.064948 240.669456 
L 452.005971 243.414762 
L 453.721783 245.302154 
L 457.496578 245.816898 
L 458.697646 248.390625 
L 460.928202 251.65067 
L 463.158765 254.739135 
L 465.046162 258.342345 
L 466.933554 262.631884 
L 469.67886 263.318208 
L 472.938905 260.744487 
L 471.394673 257.999186 
L 473.28207 258.857089 
L 475.684212 257.312857 
L 478.086353 257.312857 
L 478.429512 254.224391 
L 475.855791 251.47909 
L 472.595746 251.307505 
L 470.879928 249.763272 
L 468.992537 246.846386 
L 466.761974 244.78741 
L 463.845088 242.042109 
L 466.590395 243.414762 
L 469.85044 246.160063 
L 472.595746 248.562204 
L 475.684212 249.420113 
L 478.772677 251.65067 
L 481.689563 253.538067 
L 484.606449 251.47909 
L 485.635938 248.733784 
L 483.405375 245.473739 
L 480.14533 244.101086 
L 476.7137 242.900018 
L 474.654723 241.355785 
L 478.944257 242.900018 
L 482.375887 244.101086 
L 486.665426 245.302154 
L 489.067562 243.929506 
L 490.440215 241.870529 
L 488.895983 239.811547 
L 486.150682 238.267314 
L 488.381238 238.438899 
L 491.298124 238.610479 
L 492.327613 236.551502 
L 491.812868 232.776707 
L 490.440215 230.374571 
L 488.209659 230.54615 
L 485.807517 232.090383 
L 482.719052 233.463036 
L 481.003234 235.178848 
L 480.488489 235.865178 
L 478.944257 233.97778 
L 475.855791 234.320945 
L 473.45365 235.522013 
L 472.595746 236.208337 
L 473.45365 233.119871 
L 471.737837 231.575639 
L 473.28207 232.090383 
L 475.341047 233.119871 
L 477.914768 233.119871 
L 480.31691 232.776707 
L 482.719052 232.261962 
L 484.778029 230.54615 
L 484.606449 227.800849 
L 483.062216 226.085032 
L 478.944257 224.369219 
L 475.169467 223.51131 
L 471.223093 222.824987 
L 467.791463 222.653401 
L 467.448298 225.055543 
L 466.41881 222.824987 
L 463.845088 221.967078 
L 461.271367 222.481822 
L 458.526066 224.540799 
L 457.496578 227.11452 
L 459.993475 228.94558 
" style="fill:none;stroke:#000000;stroke-linecap:square;stroke-width:1.5;"/>
   </g>
   <g id="line2d_5">
    <path clip-path="url(#pdec6d1fa2f)" d="M 460.756623 271.210957 
L 462.8156 269.666724 
L 465.389321 267.607747 
L 466.41881 264.519282 
L 464.188253 261.94556 
L 461.614532 259.543419 
L 459.898714 255.940209 
L 456.981834 252.508579 
L 453.893363 250.621181 
L 450.118573 250.621181 
L 447.201687 251.993835 
L 444.284801 253.366482 
L 440.510012 253.709647 
L 437.249962 254.739135 
L 439.480524 259.543419 
L 440.338427 263.318208 
L 442.568989 268.465656 
L 444.627966 272.58361 
L 444.799546 277.044729 
L 445.657455 281.849006 
L 448.231176 283.393239 
L 451.148062 279.790029 
L 453.550204 277.216308 
L 455.952345 274.471002 
L 453.893363 270.867792 
L 453.035459 267.093003 
L 451.662806 264.176117 
L 449.946994 260.572907 
L 448.574341 257.312857 
L 451.148062 260.572907 
L 452.34913 264.690861 
L 454.064948 268.9804 
L 455.437601 272.926769 
L 458.354481 272.75519 
L 460.756623 271.210957 
" style="fill:none;stroke:#000000;stroke-linecap:square;stroke-width:1.5;"/>
   </g>
   <g id="line2d_6">
    <path clip-path="url(#pdec6d1fa2f)" d="M 447.030108 238.267314 
L 443.770057 238.953643 
L 440.681592 241.1842 
L 441.024756 243.929506 
L 439.308939 244.958995 
L 437.936291 246.160063 
L 438.451035 248.905369 
L 441.882665 250.106437 
L 444.284801 248.905369 
L 445.485875 245.130574 
L 442.740569 244.78741 
L 444.284801 243.071597 
L 445.892108 243.471421 
L 448.215808 242.623748 
L 449.360525 241.263087 
L 449.518036 238.867851 
L 447.030108 238.267314 
" style="fill:none;stroke:#000000;stroke-linecap:square;stroke-width:1.5;"/>
   </g>
   <g id="line2d_7">
    <path clip-path="url(#pdec6d1fa2f)" d="M 84.479449 241.412864 
L 81.672812 241.086512 
L 80.520808 242.886514 
L 81.384812 245.622515 
L 83.328812 247.998511 
L 87.681477 248.663798 
L 91.067836 247.872026 
L 94.955834 246.576024 
L 98.483835 245.136026 
L 101.939837 244.344025 
L 105.611835 243.624023 
L 104.243835 244.272027 
L 100.931836 244.992023 
L 97.547838 245.856028 
L 94.379835 247.368025 
L 93.011835 249.600024 
L 94.955834 251.472025 
L 96.467837 252.696028 
L 98.987836 254.352028 
L 105.755838 256.800028 
L 103.595837 256.944025 
L 99.63584 255.720028 
L 96.395839 253.704024 
L 93.227836 251.328028 
L 89.843838 250.464023 
L 87.611839 251.184025 
L 86.963835 253.488023 
L 88.187838 256.440024 
L 90.707837 258.096024 
L 93.083839 260.472026 
L 95.634973 263.34619 
L 97.578973 264.642185 
L 99.88297 264.13819 
L 98.586975 265.290189 
L 99.738973 266.946189 
L 102.546972 269.034185 
L 104.922974 271.194186 
L 107.658974 272.850186 
L 110.61097 273.066187 
L 111.906971 270.402185 
L 111.906971 266.730188 
L 114.13897 264.498188 
L 116.874971 264.42619 
L 113.634969 265.938187 
L 112.626973 267.810188 
L 112.338974 271.194186 
L 111.186975 273.930186 
L 111.69097 275.154189 
L 113.706974 278.322186 
L 116.730973 281.274187 
L 117.393547 282.223489 
L 119.268484 282.155699 
L 120.276486 279.923699 
L 119.700487 282.443698 
L 120.636485 284.387703 
L 123.516487 285.467704 
L 126.108485 284.8197 
L 127.116487 282.803702 
L 127.044488 279.851701 
L 125.964488 276.467703 
L 125.892484 273.731703 
L 127.692486 270.419703 
L 126.468483 273.155703 
L 126.468483 276.539701 
L 127.404486 280.571703 
L 128.556485 283.235699 
L 131.652483 284.315699 
L 134.676483 283.091702 
L 137.052485 282.3717 
L 139.860484 279.995704 
L 143.604486 278.339704 
L 147.132487 277.259703 
L 151.524486 276.395699 
L 154.260487 276.467703 
L 150.588483 277.331702 
L 145.764486 278.771701 
L 145.476487 279.995704 
L 144.612488 280.4277 
L 141.444485 280.787699 
L 138.924486 281.723702 
L 138.276488 283.379702 
L 138.780483 284.8197 
L 141.876488 285.971699 
L 143.604486 286.403701 
L 141.948486 286.907702 
L 138.780483 285.683699 
L 136.404487 285.323701 
L 134.964483 286.619703 
L 135.108486 289.067703 
L 136.764486 290.5797 
L 138.924486 292.091703 
L 136.764486 291.299702 
L 135.324487 289.931702 
L 133.596483 289.2117 
L 132.804488 291.299702 
L 133.884488 293.747703 
L 135.396485 295.331704 
L 136.260485 296.771703 
L 135.756484 299.867701 
L 137.268486 302.675699 
L 140.002833 305.560498 
L 141.952375 306.567593 
L 144.256378 305.991594 
L 144.904376 304.047594 
L 144.328377 301.527595 
L 144.760379 298.791595 
L 145.768376 296.199592 
L 146.704379 293.391594 
L 146.704379 295.335593 
L 147.640377 296.919594 
L 149.476378 298.143594 
L 148.720377 297.783593 
L 146.92038 297.567592 
L 146.128379 299.799591 
L 145.912378 302.463593 
L 146.200378 304.767591 
L 148.57638 306.279593 
L 151.744377 307.071594 
L 155.056376 306.42359 
L 157.000376 304.335594 
L 156.496375 306.495595 
L 158.44038 306.639592 
L 161.104376 306.567593 
L 165.28038 305.487593 
L 167.512379 304.119593 
L 168.160377 301.959592 
L 166.64838 300.015593 
L 164.704375 299.583596 
L 164.632377 298.575594 
L 164.776379 296.703593 
L 163.048375 294.831592 
L 160.528376 293.751592 
L 158.008378 293.82359 
L 155.056376 293.607595 
L 151.60038 292.743596 
L 154.408378 293.175592 
L 156.928377 293.679593 
L 159.448376 292.671591 
L 159.016379 290.295595 
L 156.928377 288.639595 
L 154.408378 287.847595 
L 152.176379 287.415592 
L 155.560377 287.775591 
L 158.008378 287.559595 
L 159.232375 285.903595 
L 158.080376 283.527593 
L 155.776378 281.871594 
L 153.472375 281.151591 
L 154.984378 280.93559 
L 157.07238 282.159593 
L 159.088378 284.175591 
L 160.312375 285.615596 
L 162.400377 286.69559 
L 164.848378 287.559595 
L 166.626765 288.544547 
L 163.624375 287.343594 
L 161.75238 287.703592 
L 161.032377 289.215595 
L 161.248379 291.447594 
L 161.75238 292.959591 
L 163.12038 293.895594 
L 164.344377 295.119592 
L 166.216378 296.055595 
L 168.785388 296.147111 
L 167.368377 296.199592 
L 166.072375 297.135595 
L 166.072375 298.719591 
L 169.168379 302.103595 
L 173.887298 302.247592 
L 177.055295 300.735595 
L 178.711294 298.719591 
L 180.007296 296.55959 
L 181.447294 295.407591 
L 182.743296 292.959591 
L 184.111296 290.655593 
L 185.695297 288.207593 
L 185.767296 286.479595 
L 184.183295 285.183593 
L 182.239295 283.743595 
L 184.111296 285.03959 
L 185.623299 285.975594 
L 187.567298 286.335592 
L 189.583296 286.335592 
L 190.519294 287.487591 
L 189.151294 287.127593 
L 187.639297 288.135594 
L 186.271297 290.295595 
L 185.479296 292.455596 
L 185.263295 294.903591 
L 186.775298 295.839594 
L 188.647299 296.487592 
L 186.991299 296.775592 
L 185.047299 295.983591 
L 182.599299 295.983591 
L 180.799296 297.279592 
L 180.511297 299.151593 
L 183.175298 300.087591 
L 185.479296 300.735595 
L 187.927296 300.519594 
L 191.167298 300.015593 
L 194.335294 299.223592 
L 197.359294 297.92759 
L 200.311296 296.343595 
L 202.399298 294.255593 
L 203.407294 291.807592 
L 203.551297 289.215595 
L 200.077309 288.945595 
L 201.967295 288.999594 
L 204.055297 288.423594 
L 204.991295 286.263594 
L 205.783296 284.823595 
L 206.830216 275.474293 
L 210.070217 271.100296 
L 214.930213 266.726293 
L 219.628215 263.972296 
L 227.080214 262.028297 
L 235.180217 261.542298 
L 252.352213 261.218293 
L 258.832215 258.788296 
L 265.150218 255.872293 
L 269.848214 257.816293 
L 281.026213 259.112294 
L 288.478217 257.816293 
L 294.634215 256.196298 
L 298.642974 253.606673 
L 311.784325 258.451158 
L 328.794322 258.127159 
L 335.274324 259.423161 
L 341.592321 260.395163 
L 344.994322 261.691159 
L 348.882321 265.579158 
L 351.960322 269.953161 
L 352.608326 274.489158 
L 352.770325 278.539162 
L 353.418323 281.455159 
L 354.552325 283.399158 
L 356.4 283.618079 
L 358.182 283.132081 
L 358.343999 280.378078 
L 358.505999 282.646082 
L 359.640001 283.45608 
L 362.069999 283.45608 
L 365.31 280.864082 
L 362.393998 283.780079 
L 363.042002 285.400079 
L 364.661996 286.372082 
L 366.930001 286.048077 
L 369.845997 284.590082 
L 368.388002 285.562079 
L 366.606002 286.372082 
L 365.148001 286.85808 
L 364.337997 287.992082 
L 364.175998 289.936082 
L 363.851999 291.232078 
L 363.042002 288.478081 
L 361.907999 285.562079 
L 359.964 284.104078 
L 357.371997 284.266077 
L 354.618 285.07608 
L 354.294001 286.534081 
L 355.751996 289.126079 
L 357.533996 291.070078 
L 358.991997 294.310079 
L 360.773997 296.902082 
L 366.443996 304.84008 
L 367.901997 306.541077 
L 370.170002 306.703082 
L 372.438 304.67808 
L 370.817999 306.946079 
L 371.587498 308.525581 
L 373.045499 309.619079 
L 375.718499 310.105077 
L 377.540998 310.105077 
L 378.998999 308.768577 
L 380.092497 306.824578 
L 380.092497 304.151578 
L 378.269998 301.72158 
L 379.606498 303.05808 
L 380.821497 303.78708 
L 382.886998 303.301082 
L 384.709496 301.72158 
L 385.924501 300.020582 
L 387.017999 296.861578 
L 386.167497 295.282082 
L 383.980502 295.03908 
L 386.896498 294.674582 
L 388.111497 292.730577 
L 388.840497 290.665082 
L 389.690999 288.721077 
L 393.650996 285.409077 
L 390.987001 288.28908 
L 390.266998 289.369081 
L 390.338997 290.521079 
L 391.058999 291.241082 
L 392.714999 291.529081 
L 391.130998 291.529081 
L 390.050997 291.673078 
L 389.402999 292.609082 
L 388.970997 293.833079 
L 389.331001 294.769082 
L 390.626997 294.985078 
L 392.067001 295.41708 
L 390.483 295.201079 
L 388.970997 295.345082 
L 388.394997 296.497081 
L 387.890996 298.513079 
L 388.467002 300.09708 
L 389.835002 300.457078 
L 391.058999 300.529082 
L 389.258997 300.457078 
L 387.602997 300.673079 
L 382.850999 303.697079 
L 382.130997 305.353079 
L 381.627001 307.297078 
L 380.690998 308.161078 
L 379.683002 309.96108 
L 380.043 311.32908 
L 388.251 310.753081 
L 389.835002 309.889081 
L 390.411001 308.017081 
L 389.474998 306.433079 
L 392.426999 305.85708 
L 393.219 305.137078 
L 393.578998 303.12108 
L 393.362997 301.537078 
L 393.147001 298.873077 
L 391.779001 298.081082 
L 390.699001 297.721078 
L 392.282996 297.649079 
L 393.219 297.865081 
L 394.082999 296.641078 
L 394.442997 295.129081 
L 394.227002 293.833079 
L 393.219 293.113077 
L 391.418997 293.185081 
L 394.730997 292.753079 
L 395.192882 291.829317 
L 395.139648 292.68108 
L 394.707645 294.193077 
L 394.563648 295.99308 
L 394.347647 297.145079 
L 393.915651 298.369082 
L 393.555647 300.025081 
L 393.555647 301.681081 
L 394.059648 303.841082 
L 393.987649 305.209082 
L 394.77965 305.641079 
L 398.523646 306.001077 
L 400.25165 305.56908 
L 401.475647 305.065079 
L 401.704739 304.286165 
L 401.763647 305.641079 
L 403.203646 306.433079 
L 405.147651 306.433079 
L 409.683648 306.217078 
L 410.835646 305.425077 
L 408.675646 303.12108 
L 409.683648 303.337081 
L 410.691649 304.705081 
L 412.275651 305.56908 
L 414.939647 304.849078 
L 416.595646 304.129082 
L 416.307647 301.393081 
L 415.299651 299.01708 
L 414.21965 297.865081 
L 411.123646 298.225079 
L 414.147646 297.577081 
L 414.867648 296.353078 
L 414.939647 294.33708 
L 414.50765 291.60108 
L 412.874381 291.60108 
L 414.579648 290.305078 
L 414.867648 288.649079 
L 414.723645 286.417079 
L 413.643645 284.905082 
L 411.699646 283.825082 
L 410.11565 284.401081 
L 408.315648 285.409077 
L 403.635648 288.86508 
L 401.763647 289.009077 
L 405.075646 287.49708 
L 407.307646 285.769081 
L 409.179647 284.47308 
L 409.683648 282.745082 
L 408.891647 281.73708 
L 407.307646 281.377081 
L 405.363646 281.305077 
L 402.69965 281.44908 
L 400.323648 281.881077 
L 400.755645 281.16108 
L 403.203646 281.017078 
L 407.955649 281.233079 
L 409.755646 281.089082 
L 410.259647 280.009081 
L 411.815433 280.041186 
L 413.597433 280.365185 
L 416.837434 281.985185 
L 420.239434 282.30919 
L 423.155431 281.985185 
L 423.965434 279.879186 
L 422.183434 275.829188 
L 420.401434 274.209188 
L 416.999433 275.18119 
L 415.055434 274.209188 
L 416.513429 269.83519 
L 419.105432 267.081188 
L 420.725433 261.411189 
L 419.591431 267.567186 
L 420.563433 272.265188 
L 424.289433 280.365185 
L 425.909433 281.985185 
L 429.473433 282.30919 
L 430.121431 279.393188 
L 427.367434 269.99719 
L 427.04343 265.785186 
L 427.205429 266.43319 
L 427.853433 270.807187 
L 429.959432 278.421185 
L 431.579432 281.823186 
L 434.333429 284.25319 
L 437.411431 284.415189 
L 438.545433 282.47119 
L 438.059434 277.12519 
L 435.79143 271.77919 
L 434.495434 266.919188 
L 433.361432 262.221186 
L 431.579432 257.847189 
L 430.121431 253.473185 
L 428.339431 250.557189 
L 424.451432 250.071185 
L 415.541432 252.501189 
L 411.977432 253.311186 
L 405.65943 252.339189 
L 403.87743 250.719189 
L 404.589989 248.906127 
L 405.294932 250.237689 
L 406.38843 251.209686 
L 408.33243 251.938687 
L 409.911932 250.96669 
L 410.522251 250.127503 
L 409.790431 251.69569 
L 411.00543 252.546186 
L 415.379433 251.817186 
L 418.052433 250.96669 
L 420.117933 249.387188 
L 420.725433 246.835689 
L 419.631929 245.256187 
L 415.379433 238.209189 
L 412.53023 234.303504 
L 416.229934 239.302687 
L 418.659932 242.34019 
L 420.239434 245.499189 
L 422.42643 247.321687 
L 424.856434 246.34969 
L 426.557431 244.28419 
L 428.622932 240.27469 
L 428.501431 237.60169 
L 426.921934 234.564187 
L 425.828431 230.797689 
L 423.398433 228.97519 
L 420.698408 227.139175 
L 422.912434 228.24619 
L 425.949932 229.58269 
L 428.015432 228.732188 
L 426.800433 230.797689 
L 427.407933 233.956687 
L 428.865934 236.99419 
L 430.323929 238.452186 
L 433.361432 237.358688 
L 435.548434 235.414688 
L 438.221434 231.891187 
L 440.651432 227.517189 
L 441.13743 223.021685 
L 439.314932 218.89069 
L 436.034432 215.974688 
L 432.38943 214.27369 
L 429.230431 214.152189 
L 426.43593 213.909187 
L 425.828431 215.974688 
L 426.58539 217.673912 
L 428.62921 219.725493 
L 430.183262 220.906619 
L 430.679434 221.617686 
L 427.151433 219.385687 
L 425.423429 218.737689 
L 422.831432 219.169685 
L 420.959431 219.097687 
L 423.695431 218.66569 
L 425.279432 217.801685 
L 425.495433 214.84969 
L 424.343429 212.401689 
L 421.24743 211.609689 
L 418.79943 211.753686 
L 416.35143 213.697685 
L 414.227434 214.507688 
L 411.95943 214.345689 
L 410.01543 212.401689 
L 408.557429 208.999689 
L 406.45143 208.51369 
L 404.66943 209.809686 
L 403.697433 211.915685 
L 404.507431 213.85969 
L 405.965432 215.479685 
L 408.719434 217.747689 
L 406.775429 216.613687 
L 404.66943 214.993687 
L 402.077433 213.373686 
L 400.295433 211.915685 
L 398.027434 209.647687 
L 395.597431 209.161688 
L 393.653431 211.753686 
L 394.13943 210.133685 
L 395.435431 207.217689 
L 393.97743 204.625686 
L 391.547432 205.435689 
L 389.117434 207.379688 
L 386.687431 210.133685 
L 384.743431 212.07769 
L 390.251431 206.083687 
L 392.19543 203.16769 
L 390.251431 200.899686 
L 387.821433 201.54769 
L 385.715434 202.843686 
L 382.961431 203.977688 
L 381.179431 206.407686 
L 379.72143 208.837689 
L 380.26435 207.011906 
L 382.04635 204.257904 
L 383.99035 202.475904 
L 386.096349 200.855903 
L 385.61035 198.587905 
L 383.666351 197.129904 
L 381.236353 197.291903 
L 379.778352 198.587905 
L 380.588349 196.481906 
L 378.48235 195.023905 
L 375.890353 195.185904 
L 374.432352 196.643905 
L 374.270352 199.073903 
L 374.270352 201.017903 
L 373.29835 203.285901 
L 372.974351 205.715905 
L 373.13635 208.955906 
L 372.974351 212.033902 
L 371.840349 214.301906 
L 372.326353 210.737906 
L 372.488352 207.659904 
L 372.812351 204.743902 
L 372.974351 201.665906 
L 373.622349 198.425905 
L 373.13635 194.861905 
L 371.51635 191.945903 
L 368.276349 190.325903 
L 364.712349 189.029901 
L 360.986349 189.353906 
L 359.204349 191.297905 
L 360.014352 192.917906 
L 361.356637 193.589047 
L 358.718351 193.727903 
L 357.908353 195.185904 
L 357.746348 197.615902 
L 358.070353 200.855903 
L 359.528348 201.827906 
L 361.958352 201.665906 
L 364.550349 201.341902 
L 366.00835 202.151905 
L 363.416353 201.665906 
L 359.852353 202.313904 
L 358.070353 203.447906 
L 357.09835 206.201903 
L 357.908353 207.821904 
L 360.176352 208.631901 
L 363.092348 208.631901 
L 365.360352 207.983903 
L 364.22635 209.279905 
L 364.15885 213.127404 
L 363.092348 209.927903 
L 360.79115 209.023861 
L 358.472064 209.03627 
L 356.855348 210.008905 
L 355.964348 213.815902 
L 354.911349 215.435902 
L 354.992351 217.136905 
L 357.746348 220.781902 
L 355.883351 219.404904 
L 353.69635 217.622904 
L 352.076349 217.541901 
L 352.967349 217.379902 
L 354.263351 216.407905 
L 353.939352 214.706902 
L 351.104366 214.544902 
L 352.562353 214.301906 
L 354.506353 213.410906 
L 355.559352 211.790905 
L 354.749349 209.846906 
L 353.129349 209.036903 
L 351.185349 208.955906 
L 348.998353 209.279905 
L 350.618348 208.793906 
L 352.80535 208.955906 
L 354.830352 208.550904 
L 356.36935 207.254903 
L 356.20735 205.391906 
L 355.31635 204.014902 
L 353.129349 203.852902 
L 350.456349 204.095904 
L 348.269353 203.771905 
L 350.618348 203.528903 
L 353.129349 203.528903 
L 355.802349 202.961902 
L 356.855348 202.151905 
L 356.855348 200.575664 
L 355.987163 199.249286 
L 354.199466 198.901167 
L 356.20735 198.470903 
L 356.711351 197.966902 
L 357.143348 196.382906 
L 356.78335 194.726907 
L 355.991349 193.862902 
L 351.743352 194.078903 
L 351.527351 193.862902 
L 353.75935 193.862902 
L 355.91935 193.502904 
L 357.28735 192.854906 
L 357.791351 190.766904 
L 356.855348 189.542906 
L 355.415349 188.462906 
L 354.047349 187.886906 
L 355.343351 188.102902 
L 356.135352 187.238903 
L 356.351353 185.654901 
L 355.91935 184.070906 
L 353.75935 182.558903 
L 351.311349 181.838901 
L 349.007352 181.910905 
L 347.42335 182.702906 
L 346.271352 184.070906 
L 346.991348 185.222905 
L 349.36735 187.958905 
L 349.223353 189.254906 
L 348.719352 188.102902 
L 347.207349 185.942901 
L 345.695352 184.574901 
L 344.039352 185.222905 
L 342.383353 188.390902 
L 342.167351 190.550902 
L 342.671352 192.998903 
L 343.751353 194.366903 
L 344.831353 195.302906 
L 345.335348 196.382906 
L 343.823351 197.390903 
L 343.60735 198.470903 
L 343.89535 199.838903 
L 343.751353 200.630904 
L 343.103349 200.630904 
L 342.311348 201.926905 
L 342.455351 203.582905 
L 343.535351 206.102904 
L 342.743351 204.878906 
L 341.735349 204.662905 
L 341.231348 205.598903 
L 340.87135 207.254903 
L 340.799351 206.030905 
L 341.66335 202.430906 
L 341.807353 200.846905 
L 341.807353 198.470903 
L 341.66335 195.590906 
L 341.303352 193.646906 
L 341.087351 191.558904 
L 341.303352 188.966901 
L 341.66335 187.022902 
L 342.311348 184.430904 
L 342.095353 182.342902 
L 340.741945 180.044253 
L 337.015946 177.938254 
L 335.071946 178.262253 
L 334.261943 179.720254 
L 334.099944 181.502254 
L 335.881944 185.228254 
L 336.205943 187.658257 
L 336.367948 190.250255 
L 336.367948 200.456256 
L 336.529947 202.400256 
L 336.205943 204.992253 
L 335.881944 200.780255 
L 335.881944 198.512257 
L 335.557945 196.082253 
L 334.423943 193.652255 
L 331.993945 193.166257 
L 334.585948 192.032255 
L 335.557945 190.250255 
L 334.909947 187.820257 
L 333.451946 186.362256 
L 331.183947 186.200256 
L 328.591944 186.362256 
L 327.295943 184.418256 
L 329.239948 185.066254 
L 331.345947 185.390253 
L 333.937944 184.418256 
L 333.937944 182.474257 
L 331.993945 180.530257 
L 328.915943 179.558255 
L 325.351943 178.910257 
L 329.077943 179.396255 
L 331.669946 179.072256 
L 331.507946 177.128257 
L 328.834942 175.346256 
L 331.669946 176.480253 
L 333.775945 176.804258 
L 335.071946 174.698253 
L 333.127947 171.944256 
L 329.887946 169.514253 
L 326.971944 167.894258 
L 324.379946 166.598256 
L 321.625944 166.436257 
L 320.977946 167.408254 
L 321.463944 169.676258 
L 320.815946 168.866255 
L 320.005943 165.788253 
L 314.497944 162.872257 
L 311.905946 162.872257 
L 311.905946 165.464254 
L 313.687946 168.218257 
L 318.023064 173.997489 
L 316.603943 172.916253 
L 314.011945 169.676258 
L 311.743947 166.598256 
L 310.123946 162.710257 
L 307.693943 158.984258 
L 303.967943 158.822253 
L 302.023944 159.956255 
L 300.565943 162.710257 
L 302.347943 165.302255 
L 305.263945 166.598256 
L 307.369944 169.352253 
L 309.313943 172.592254 
L 310.771944 175.346257 
L 313.525947 176.642253 
L 315.793945 177.452256 
L 312.715944 176.642253 
L 312.391945 178.262253 
L 313.524033 180.400643 
L 313.363947 180.206253 
L 311.257943 177.290256 
L 309.475943 173.726256 
L 307.207944 170.000257 
L 303.319945 167.246254 
L 301.051947 167.894258 
L 301.213946 171.296253 
L 303.157946 174.860253 
L 305.263945 179.234256 
L 307.531943 182.636256 
L 309.637948 186.362256 
L 312.067946 190.412254 
L 313.849946 191.708256 
L 315.955945 192.356254 
L 313.687946 192.032255 
L 313.687946 194.138254 
L 315.145947 196.892256 
L 316.441943 198.836256 
L 317.899944 199.808253 
L 320.005943 199.808253 
L 321.301945 198.026253 
L 321.463944 199.808253 
L 322.972297 200.365041 
L 323.572561 200.375847 
L 321.625944 200.861258 
L 320.896943 201.833255 
L 322.759946 203.777254 
L 325.027944 205.802256 
L 321.706946 202.805257 
L 319.357945 201.590253 
L 317.008944 202.481253 
L 317.413946 204.425258 
L 318.790944 207.503254 
L 320.653947 210.257256 
L 322.273947 211.472255 
L 324.946947 210.905254 
L 325.545497 210.997338 
L 324.136944 211.148256 
L 323.326947 212.849254 
L 323.812945 215.198255 
L 325.999947 216.089255 
L 323.407944 216.656256 
L 320.653947 215.927255 
L 317.656948 213.254255 
L 313.687946 211.634255 
L 310.609945 209.447253 
L 307.369944 203.615255 
L 304.858943 198.269255 
L 303.562947 193.814255 
L 300.687444 189.227632 
L 298.500448 183.760131 
L 295.766694 179.112755 
L 289.205695 176.379007 
L 284.524086 174.81847 
L 285.716944 174.922198 
L 288.80541 176.123266 
L 293.266528 177.152754 
L 294.639176 174.750618 
L 293.609688 170.461079 
L 290.006478 168.058937 
L 285.888524 166.68629 
L 280.569496 166.171546 
L 276.794707 167.201034 
L 272.505168 169.774755 
L 268.558793 172.863221 
L 269.759867 174.750618 
L 273.706242 175.093777 
L 277.309451 174.750618 
L 281.77057 174.579033 
L 283.98748 174.771809 
L 279.364197 175.285503 
L 273.623323 175.558882 
L 269.24932 175.01213 
L 266.788945 178.566003 
L 269.24932 181.026377 
L 274.170069 181.026377 
L 278.817445 180.753004 
L 283.478827 181.979686 
L 277.99732 181.026377 
L 271.436321 182.119881 
L 264.875322 185.673754 
L 262.141569 186.493878 
L 258.040945 188.134128 
L 257.22082 191.414628 
L 255.58057 194.695133 
L 252.172856 198.102847 
L 252.422695 197.667942 
L 254.366694 195.147943 
L 253.934698 193.059941 
L 251.702693 193.419945 
L 248.750697 195.507942 
L 246.086696 197.883943 
L 244.214695 200.115943 
L 242.702698 203.067944 
L 241.262693 205.371942 
L 239.534695 208.755945 
L 235.790693 214.731941 
L 233.846694 216.387941 
L 232.550698 216.819943 
L 234.710693 215.235942 
L 236.366693 213.291942 
L 237.662694 211.059943 
L 236.942698 209.331945 
L 235.070697 208.827944 
L 233.342693 209.187942 
L 234.422693 208.395942 
L 236.294694 208.755945 
L 238.310698 207.819942 
L 239.966697 206.595945 
L 241.334698 204.723944 
L 242.486696 202.635942 
L 243.062696 200.547945 
L 242.546604 200.128619 
L 242.918693 200.259945 
L 244.646697 199.467945 
L 246.590697 197.23594 
L 250.910698 193.419945 
L 252.494694 190.683945 
L 252.926696 187.659945 
L 251.144696 187.155944 
L 248.876697 187.641943 
L 247.580696 189.099944 
L 244.502694 192.01594 
L 247.094697 188.775945 
L 253.574694 184.077943 
L 255.680693 176.787943 
L 255.518693 173.385943 
L 252.764696 173.871941 
L 252.515465 174.100404 
L 253.574694 172.899944 
L 252.926696 170.63194 
L 251.306695 169.173945 
L 247.904695 172.089941 
L 249.686695 170.145942 
L 250.334693 167.715944 
L 246.284694 167.553944 
L 244.502694 168.363942 
L 244.146119 169.235569 
L 244.016696 166.905941 
L 241.910697 166.905941 
L 238.670696 168.525941 
L 237.374694 169.821943 
L 236.888696 173.223943 
L 234.944696 174.033941 
L 234.782697 175.005943 
L 232.838697 177.597941 
L 232.352693 179.217941 
L 233.147968 180.112625 
L 232.190694 180.351943 
L 230.894698 181.647945 
L 230.732693 183.915943 
L 231.305248 185.873514 
L 232.676698 186.912942 
L 234.296693 187.56094 
L 232.595695 188.208944 
L 231.461693 189.585942 
L 231.056697 190.881944 
L 231.299694 192.582941 
L 232.109697 193.79794 
L 231.704695 195.093942 
L 230.408694 196.146941 
L 229.517694 198.009944 
L 229.34991 199.016665 
L 229.112698 197.118944 
L 227.249695 195.822942 
L 228.869696 196.389943 
L 229.922695 195.660943 
L 230.894698 194.040942 
L 230.813695 192.258942 
L 229.436697 190.800941 
L 226.115693 190.476942 
L 228.464694 190.557945 
L 229.922695 189.828944 
L 231.218697 188.370943 
L 230.651696 186.345941 
L 229.355694 185.940945 
L 227.411695 185.940945 
L 225.953694 186.507941 
L 229.031695 185.292942 
L 229.779776 184.245627 
L 229.972472 183.266657 
L 229.319946 182.122202 
L 227.879634 181.402736 
L 228.887784 181.690804 
L 230.327794 181.69081 
L 231.33579 181.042812 
L 231.767792 177.730812 
L 232.99179 176.434811 
L 234.07179 174.850809 
L 235.079792 172.042811 
L 234.07179 170.746809 
L 232.884761 170.5853 
L 229.284762 172.457295 
L 228.132763 174.041297 
L 227.340763 175.985296 
L 226.548762 177.569297 
L 223.092766 176.849295 
L 221.43676 177.281298 
L 219.924763 178.217295 
L 219.564765 179.441298 
L 220.860761 181.169297 
L 222.444762 182.1053 
L 222.156762 183.257299 
L 221.14876 181.601299 
L 219.132762 179.945299 
L 216.828765 179.801297 
L 216.396762 182.609301 
L 217.188763 184.625299 
L 218.556763 187.217296 
L 219.924763 188.585296 
L 221.292763 189.2333 
L 219.996762 189.737301 
L 219.564765 191.609296 
L 219.564765 193.265296 
L 218.988765 194.489299 
L 218.844763 197.297298 
L 219.564765 198.449297 
L 221.508764 198.737296 
L 221.508764 199.313296 
L 219.564765 199.601295 
L 218.556763 201.617299 
L 218.484764 203.561299 
L 219.276765 205.1453 
L 221.076762 205.217298 
L 219.852765 205.505298 
L 218.700766 206.585298 
L 218.124761 208.457299 
L 218.628761 210.257296 
L 219.71849 211.516323 
L 220.150493 212.452327 
L 218.134495 211.372326 
L 217.414492 212.380322 
L 217.486491 214.036328 
L 217.270495 216.124324 
L 216.69449 217.420326 
L 216.262494 216.412324 
L 215.974494 212.668328 
L 215.686494 210.436323 
L 215.542491 208.060327 
L 215.902495 206.620323 
L 215.974494 204.892324 
L 215.110495 203.164326 
L 213.094491 203.380327 
L 213.95849 202.948325 
L 215.038491 201.652323 
L 215.32649 200.356327 
L 214.822495 197.836323 
L 214.102493 196.540327 
L 212.374495 197.548323 
L 211.51049 197.620327 
L 213.598492 196.324326 
L 214.606494 194.956326 
L 215.398494 192.796325 
L 215.660155 191.708997 
L 215.770137 189.179441 
L 214.890291 186.649885 
L 213.570522 184.230311 
L 212.800658 182.030696 
L 211.370912 181.700755 
L 210.711025 182.800559 
L 210.161125 185.000175 
L 210.161125 187.19979 
L 209.831179 189.3994 
L 209.061315 191.159092 
L 207.191646 187.639713 
L 208.841356 188.299595 
L 209.721202 186.649885 
L 210.051143 184.560252 
L 209.391256 182.030696 
L 207.411605 181.260832 
L 201.032723 183.790388 
L 197.733303 184.450269 
L 196.193575 186.09998 
L 197.29338 187.74969 
L 201.032723 190.169269 
L 201.802587 191.379056 
L 199.712954 190.389228 
L 197.623321 190.719169 
L 197.29338 188.299595 
L 195.533688 187.089808 
L 193.774001 187.089808 
L 191.904327 187.529731 
L 190.144635 188.189613 
L 188.384943 189.3994 
L 186.845215 190.719169 
L 187.835043 192.478861 
L 188.934848 194.128571 
L 191.244445 195.44834 
L 193.004132 195.558322 
L 194.763824 195.44834 
L 193.554037 196.658127 
L 193.854023 198.035878 
L 196.774536 200.050023 
L 198.889385 199.848608 
L 200.299292 198.841536 
L 200.802825 196.928096 
L 201.910608 196.021728 
L 203.421213 195.820313 
L 205.133239 195.921023 
L 202.212727 196.323852 
L 201.10495 197.431629 
L 200.702121 198.841536 
L 201.306364 199.747898 
L 202.615556 200.654266 
L 204.528996 200.654266 
L 206.643851 200.855681 
L 205.334654 200.956385 
L 201.407069 200.553556 
L 198.184437 200.553556 
L 196.270997 201.560629 
L 196.170292 203.574779 
L 196.673826 204.783266 
L 197.882313 206.092457 
L 199.392924 206.193167 
L 206.039607 205.790338 
L 206.945969 205.588924 
L 205.636778 206.595996 
L 205.737483 208.308016 
L 207.248094 209.516509 
L 206.241022 209.315089 
L 204.6297 207.804483 
L 202.91768 206.6967 
L 200.802825 206.394582 
L 198.385852 206.595996 
L 197.177365 207.401654 
L 197.177365 209.214384 
L 197.882313 211.329239 
L 198.68797 212.235601 
L 200.399996 212.940555 
L 201.608483 213.746213 
L 203.018384 214.551871 
L 204.831115 214.853989 
L 207.147384 215.458238 
L 206.643851 215.760357 
L 204.831115 215.156114 
L 203.421213 215.760357 
L 202.81697 217.170259 
L 203.723338 218.781574 
L 204.226871 220.090771 
L 203.622628 219.083699 
L 202.212727 218.076627 
L 200.399996 218.781574 
L 198.68797 219.889357 
L 197.177365 221.500673 
L 198.68797 219.788647 
L 200.299292 217.875212 
L 200.198582 215.659653 
L 198.68797 214.652575 
L 196.97595 213.947627 
L 195.263924 214.350456 
L 192.947655 217.472383 
L 193.854023 216.062482 
L 194.760391 213.947627 
L 194.760391 212.134897 
L 194.055438 210.221457 
L 192.645536 209.315089 
L 193.652609 209.617213 
L 194.357562 208.610141 
L 194.458267 206.293872 
L 194.256852 204.179022 
L 193.350484 202.97053 
L 191.43705 203.07124 
L 193.753313 201.862753 
L 193.954728 200.150727 
L 193.048365 198.640122 
L 191.638464 197.0288 
L 188.818661 194.813241 
L 186.200268 190.986366 
L 185.092491 190.684242 
L 183.68259 191.792024 
L 183.481175 193.302635 
L 182.373393 193.302635 
L 180.862781 193.705464 
L 179.55359 195.115366 
L 180.057123 196.625971 
L 181.668439 197.935168 
L 183.783294 198.841536 
L 185.49532 199.244365 
L 186.401682 199.848608 
L 187.30805 201.459924 
L 185.898149 200.754971 
L 184.991781 201.459924 
L 184.891076 203.574779 
L 185.39461 205.387509 
L 186.703807 206.6967 
L 187.710879 208.408726 
L 187.912293 210.523581 
L 188.415832 213.041259 
L 187.811583 211.127825 
L 186.804511 208.710845 
L 185.293905 207.200239 
L 183.68259 206.797411 
L 182.272683 207.200239 
L 183.58188 206.092457 
L 183.783294 203.776193 
L 183.58188 201.1578 
L 182.474103 199.244365 
L 180.560662 197.532339 
L 178.949347 195.719609 
L 177.539445 195.417484 
L 175.726709 195.820313 
L 174.618933 197.330925 
L 175.223176 199.143655 
L 176.733788 200.654266 
L 177.539445 202.164872 
L 177.841564 203.272654 
L 176.532367 201.661339 
L 174.417518 199.747898 
L 173.51115 198.337997 
L 171.194887 197.935168 
L 169.382151 199.345069 
L 169.281446 201.762043 
L 170.489933 203.474069 
L 172.403374 203.876898 
L 174.618933 205.186095 
L 172.504078 204.380437 
L 170.590638 204.98468 
L 171.094177 207.099529 
L 173.209031 208.610141 
L 176.230248 209.717923 
L 178.345103 210.624285 
L 180.258538 212.63843 
L 182.071268 215.055404 
L 183.078346 217.371673 
L 185.092491 219.083699 
L 187.30805 221.601383 
L 186.200268 221.702087 
L 184.588952 220.191476 
L 181.970564 218.378745 
L 179.45288 215.458238 
L 177.237321 213.141969 
L 175.122466 212.839845 
L 173.557115 214.111695 
L 173.51115 213.544798 
L 172.403374 211.127825 
L 170.792052 210.120752 
L 169.080032 209.818628 
L 168.173664 211.732068 
L 167.972249 215.558943 
L 167.770835 213.041259 
L 168.274374 210.8257 
L 169.080032 208.408726 
L 167.871545 206.092457 
L 165.958105 204.481141 
L 163.541131 203.574779 
L 161.023447 205.186095 
L 158.606474 207.804483 
L 156.491619 209.01297 
L 154.175355 207.502358 
L 151.355547 206.495286 
L 149.240698 205.286799 
L 147.427962 205.488214 
L 146.118771 207.905187 
L 146.42089 210.221457 
L 148.43504 212.537726 
L 150.952718 213.846917 
L 152.973928 214.39109 
L 151.758376 214.249746 
L 149.341402 213.846917 
L 148.132916 215.055404 
L 146.622304 216.76743 
L 148.132916 214.853989 
L 147.327258 212.437016 
L 145.413817 210.322167 
L 144.237526 210.602673 
L 142.827625 210.804088 
L 141.115599 211.609746 
L 139.101454 211.91187 
L 137.691553 211.81116 
L 140.209231 211.307627 
L 145.043184 209.092062 
L 146.150961 206.876503 
L 145.546718 204.358825 
L 142.928329 203.653871 
L 139.302869 204.459529 
L 137.490139 205.063773 
L 134.871745 205.567312 
L 132.555481 206.37297 
L 130.843455 206.675088 
L 129.836383 207.480746 
L 131.04487 209.99843 
L 131.951238 211.408331 
L 128.930015 207.480746 
L 126.513042 207.279332 
L 124.398187 207.883575 
L 123.29041 209.797016 
L 123.088996 210.401259 
L 121.37697 210.501969 
L 119.866364 212.415404 
L 119.564239 215.033792 
L 119.161411 217.350061 
L 119.037954 219.234117 
L 119.337535 221.141068 
L 120.259927 222.134412 
L 120.042488 222.047436 
L 118.229758 222.651679 
L 117.22268 225.572186 
L 117.22268 228.895528 
L 118.531877 232.420284 
L 120.948851 235.139382 
L 123.063705 236.851402 
L 125.883508 238.362014 
L 127.394119 240.376158 
L 129.005435 242.289599 
L 132.328777 244.102329 
L 135.551408 244.203039 
L 139.141001 241.185494 
L 139.141001 241.487619 
L 137.831804 244.106007 
L 137.831804 245.616618 
L 138.789801 246.956004 
L 141.00536 248.466615 
L 143.523044 249.977221 
L 146.342847 250.782879 
L 149.565478 251.085003 
L 151.781037 249.473687 
L 158.226306 240.510735 
L 163.160964 235.072544 
L 165.980766 232.353446 
L 164.973694 233.864057 
L 162.959549 235.777492 
L 161.146819 237.791642 
L 157.823477 242.122056 
L 158.024892 244.136201 
L 160.542575 244.740445 
L 163.160964 243.129129 
L 166.182181 239.805787 
L 172.325325 232.152032 
L 171.116838 234.367591 
L 169.203398 237.187399 
L 166.987838 239.906492 
L 161.046109 246.25105 
L 160.64328 248.265201 
L 160.542575 245.747517 
L 158.931254 246.049636 
L 157.582192 247.056394 
L 155.44467 248.205154 
L 153.875455 249.564224 
L 153.589132 251.363052 
L 152.941134 252.803051 
L 145.999927 251.879975 
L 139.671729 249.284784 
L 136.503726 248.348781 
L 132.831728 246.908782 
L 132.687731 246.980781 
L 125.91973 243.308783 
L 122.679729 241.076784 
L 119.367729 239.06078 
L 115.76773 236.684784 
L 114.831726 234.236783 
L 113.03173 230.996782 
L 111.735728 227.25278 
L 111.447728 223.796784 
L 111.735728 219.980783 
L 111.015732 216.524781 
L 108.855731 213.86078 
L 107.160812 213.150511 
L 105.07281 211.782511 
L 102.912809 211.350515 
L 100.248808 211.494512 
L 98.304808 212.286512 
L 97.080811 213.798509 
L 95.136812 214.734513 
L 97.368811 211.710513 
L 95.20881 210.702511 
L 91.752808 210.918512 
L 88.36881 211.638514 
L 84.768811 213.078513 
L 81.528809 215.382511 
L 79.728813 217.686514 
L 80.736809 221.934511 
L 83.040812 222.438512 
L 86.42481 221.286513 
L 90.240811 220.206513 
L 90.096808 220.782512 
L 86.280808 221.790514 
L 81.888808 223.230513 
L 79.368809 225.174512 
L 78.792809 227.406511 
L 79.800811 228.84651 
L 84.120813 228.270511 
L 89.952811 227.118512 
L 95.424811 226.254513 
L 99.31281 226.254513 
L 95.064807 226.974515 
L 82.536811 228.774511 
L 78.21681 229.13451 
L 76.84881 231.29451 
L 76.84881 235.542513 
L 77.568812 237.198513 
L 79.29681 239.934513 
L 84.479449 241.412864 
L 84.479449 241.412864 
" style="fill:none;stroke:#000000;stroke-linecap:square;stroke-width:1.5;"/>
   </g>
   <g id="line2d_8">
    <path clip-path="url(#pdec6d1fa2f)" d="M 235.248443 180.675942 
L 236.078693 180.675942 
L 237.860693 179.703945 
L 239.156694 178.893942 
L 236.726696 180.999941 
L 236.564697 182.943941 
L 235.916693 181.161941 
L 235.248443 180.675942 
" style="fill:none;stroke:#000000;stroke-linecap:square;stroke-width:1.5;"/>
   </g>
   <g id="line2d_9">
    <path clip-path="url(#pdec6d1fa2f)" d="M 241.541451 199.729429 
L 240.326696 200.115943 
L 238.094697 201.411944 
L 239.390692 200.187941 
L 240.470693 198.531941 
L 241.118696 196.731945 
L 240.686694 199.179945 
L 241.541451 199.729429 
" style="fill:none;stroke:#000000;stroke-linecap:square;stroke-width:1.5;"/>
   </g>
   <g id="line2d_10">
    <path clip-path="url(#pdec6d1fa2f)" d="M 353.305412 198.798677 
L 351.383348 198.686904 
L 349.439348 198.470903 
L 351.743352 198.614906 
L 353.305412 198.798677 
" style="fill:none;stroke:#000000;stroke-linecap:square;stroke-width:1.5;"/>
   </g>
   <g id="line2d_11">
    <path clip-path="url(#pdec6d1fa2f)" d="M 418.922066 226.213464 
L 416.594432 225.087186 
L 413.435433 223.143186 
L 416.472931 224.722688 
L 418.922066 226.213464 
" style="fill:none;stroke:#000000;stroke-linecap:square;stroke-width:1.5;"/>
   </g>
   <g id="line2d_12">
    <path clip-path="url(#pdec6d1fa2f)" d="M 409.292881 230.560315 
L 406.509931 228.367685 
L 404.201434 225.694685 
L 401.285432 223.386188 
L 397.397433 219.984188 
L 396.425431 219.012185 
L 399.827431 221.320688 
L 403.472434 224.722688 
L 406.509931 227.274187 
L 409.292881 230.560315 
" style="fill:none;stroke:#000000;stroke-linecap:square;stroke-width:1.5;"/>
   </g>
   <g id="line2d_13">
    <path clip-path="url(#pdec6d1fa2f)" d="M 412.265373 291.930215 
L 410.979649 292.753079 
L 409.251645 293.689082 
L 407.163649 294.481077 
L 405.075646 294.553081 
L 406.731646 294.481077 
L 409.107648 293.617078 
L 410.619645 292.753079 
L 412.265373 291.930215 
" style="fill:none;stroke:#000000;stroke-linecap:square;stroke-width:1.5;"/>
   </g>
   <g id="line2d_14">
    <path clip-path="url(#pdec6d1fa2f)" d="M 401.761465 303.61854 
L 401.403649 302.54508 
L 399.96365 300.745078 
L 398.59565 299.953077 
L 397.22765 300.025081 
L 396.075646 300.241077 
L 397.443646 299.377078 
L 398.019651 298.513079 
L 397.947651 296.281107 
L 398.30765 298.297077 
L 399.387645 299.737082 
L 400.827649 300.313081 
L 402.339646 300.529082 
L 404.571646 300.457078 
L 402.339646 300.601081 
L 401.259646 301.033078 
L 401.979648 302.473082 
L 401.761465 303.61854 
" style="fill:none;stroke:#000000;stroke-linecap:square;stroke-width:1.5;"/>
   </g>
   <g id="line2d_15">
    <path clip-path="url(#pdec6d1fa2f)" d="M 397.947622 296.280721 
L 397.803649 294.193077 
L 397.947622 296.280721 
" style="fill:none;stroke:#000000;stroke-linecap:square;stroke-width:1.5;"/>
   </g>
   <g id="line2d_16">
    <path clip-path="url(#pdec6d1fa2f)" d="M 395.252413 291.182569 
L 395.091001 289.94508 
L 393.362997 289.585082 
L 394.874999 289.513078 
L 396.171001 288.721077 
L 396.747 287.641082 
L 396.747 285.121078 
L 397.106999 283.753078 
L 397.035 282.601079 
L 397.539001 283.89708 
L 397.251001 285.26508 
L 397.035 286.92108 
L 396.651651 288.28908 
L 395.355649 290.305078 
L 395.252413 291.182569 
" style="fill:none;stroke:#000000;stroke-linecap:square;stroke-width:1.5;"/>
   </g>
   <g id="line2d_17">
    <path clip-path="url(#pdec6d1fa2f)" d="M 199.552298 288.930595 
L 197.719298 289.071592 
L 195.991294 290.223591 
L 194.263296 291.663595 
L 192.535298 291.951595 
L 190.087297 292.023593 
L 191.527296 291.663595 
L 193.543294 291.663595 
L 194.983298 290.871595 
L 196.063298 290.079594 
L 197.215297 288.855591 
L 197.719298 287.415592 
L 197.791297 285.903595 
L 198.655296 284.175591 
L 197.935299 286.047592 
L 198.079296 287.919593 
L 199.552298 288.930595 
" style="fill:none;stroke:#000000;stroke-linecap:square;stroke-width:1.5;"/>
   </g>
   <g id="line2d_18">
    <path clip-path="url(#pdec6d1fa2f)" d="M 170.250267 296.383381 
L 170.896377 296.487592 
L 173.416376 296.703593 
L 171.688378 296.775592 
L 170.250267 296.383381 
" style="fill:none;stroke:#000000;stroke-linecap:square;stroke-width:1.5;"/>
   </g>
   <g id="line2d_19">
    <path clip-path="url(#pdec6d1fa2f)" d="M 364.101735 215.822211 
L 364.22635 218.189905 
L 364.101735 215.822211 
" style="fill:none;stroke:#000000;stroke-linecap:square;stroke-width:1.5;"/>
   </g>
   <g id="line2d_20">
    <path clip-path="url(#pdec6d1fa2f)" d="M 314.5495 181.645855 
L 315.469946 182.474257 
L 317.575945 183.122255 
L 318.385943 185.714258 
L 320.167943 188.306255 
L 324.703945 194.138254 
L 322.759946 192.356254 
L 320.005943 188.792254 
L 317.737945 185.228254 
L 315.631946 182.960255 
L 314.5495 181.645855 
" style="fill:none;stroke:#000000;stroke-linecap:square;stroke-width:1.5;"/>
   </g>
   <g id="line2d_21">
    <path clip-path="url(#pdec6d1fa2f)" d="M 285.287331 182.757763 
L 292.759568 186.493878 
L 294.94657 191.141255 
L 296.860192 196.882129 
L 299.867319 201.529505 
L 303.147818 206.997006 
L 304.241322 210.277505 
L 303.147818 207.817131 
L 301.234195 204.263253 
L 298.500448 199.889255 
L 295.766694 199.342503 
L 294.673197 201.529505 
L 295.766694 197.428881 
L 294.673197 191.688006 
L 290.299193 185.947132 
L 285.287331 182.757763 
" style="fill:none;stroke:#000000;stroke-linecap:square;stroke-width:1.5;"/>
   </g>
   <g id="line2d_22">
    <path clip-path="url(#pdec6d1fa2f)" d="M 251.096565 199.97639 
L 250.113069 201.802878 
L 248.746192 205.903508 
L 251.479946 205.083377 
L 256.127322 202.623003 
L 256.947447 202.34963 
L 256.400695 206.723633 
L 254.487072 210.004132 
L 250.386448 213.831378 
L 248.472819 216.01838 
L 254.760445 207.543758 
L 255.033818 207.543758 
L 256.674068 204.536631 
L 255.853943 203.169755 
L 251.479946 206.723633 
L 247.652694 208.090504 
L 245.739072 210.550878 
L 243.825443 212.73788 
L 242.811562 214.363104 
L 241.622099 216.729406 
L 239.724819 218.478754 
L 243.278697 213.147945 
L 244.182339 211.702113 
L 246.114808 209.221016 
L 247.958697 207.315941 
L 248.678693 205.44394 
L 249.542698 202.923941 
L 251.096565 199.97639 
" style="fill:none;stroke:#000000;stroke-linecap:square;stroke-width:1.5;"/>
   </g>
   <g id="line2d_23">
    <path clip-path="url(#pdec6d1fa2f)" d="M 250.000183 176.726922 
L 246.770693 180.837942 
L 244.664694 183.267945 
L 242.720694 186.021942 
L 241.424693 188.613945 
L 239.642693 190.557945 
L 238.508696 192.177945 
L 240.614695 188.289941 
L 242.234696 185.697943 
L 246.446694 180.351943 
L 248.552693 178.083945 
L 250.000183 176.726922 
" style="fill:none;stroke:#000000;stroke-linecap:square;stroke-width:1.5;"/>
   </g>
   <g id="line2d_24">
    <path clip-path="url(#pdec6d1fa2f)" d="M 229.333967 199.112325 
L 229.274697 199.467945 
L 228.545697 201.897943 
L 227.897693 203.274941 
L 228.464694 201.087945 
L 229.333967 199.112325 
" style="fill:none;stroke:#000000;stroke-linecap:square;stroke-width:1.5;"/>
   </g>
   <g id="line2d_25">
    <path clip-path="url(#pdec6d1fa2f)" d="M 173.692425 215.7805 
L 173.813275 216.86814 
L 173.913979 219.385818 
L 173.692425 215.7805 
" style="fill:none;stroke:#000000;stroke-linecap:square;stroke-width:1.5;"/>
   </g>
   <g id="line2d_26">
    <path clip-path="url(#pdec6d1fa2f)" d="M 156.426832 214.765805 
L 158.405059 214.249746 
L 160.608026 212.751733 
L 159.311422 214.048331 
L 160.117084 215.458236 
L 158.807888 214.853989 
L 156.426832 214.765805 
" style="fill:none;stroke:#000000;stroke-linecap:square;stroke-width:1.5;"/>
   </g>
   <g id="line2d_27">
    <path clip-path="url(#pdec6d1fa2f)" d="M 122.860764 223.25946 
L 125.279265 223.96087 
L 126.689166 223.759456 
L 127.897653 221.644607 
L 129.10614 219.831877 
L 128.804021 221.342482 
L 127.595534 223.658752 
L 126.286337 225.572186 
L 122.860764 223.25946 
L 122.860764 223.25946 
" style="fill:none;stroke:#000000;stroke-linecap:square;stroke-width:1.5;"/>
   </g>
   <g id="line2d_28">
    <path clip-path="url(#pdec6d1fa2f)" d="M 432.445684 285.280637 
L 429.871963 285.109057 
L 427.6414 286.310125 
L 424.8961 287.168034 
L 422.322379 289.570176 
L 420.778146 292.315476 
L 420.778146 296.605016 
L 422.150793 300.208225 
L 422.493958 305.012503 
L 423.008702 308.787298 
L 426.268747 308.444133 
L 429.185633 304.326179 
L 431.587775 299.865061 
L 431.073031 297.462919 
L 428.499309 297.291339 
L 432.102519 296.261851 
L 435.019405 293.859709 
L 436.906803 291.457568 
L 437.249962 288.197523 
L 435.705729 285.795381 
L 432.445684 285.280637 
" style="fill:none;stroke:#000000;stroke-linecap:square;stroke-width:1.5;"/>
   </g>
   <g id="line2d_29">
    <path clip-path="url(#pdec6d1fa2f)" d="M 404.219973 209.851759 
L 405.249461 207.621202 
L 403.533649 205.562225 
L 400.959922 205.047481 
L 398.386201 204.532737 
L 396.327224 204.704316 
L 396.327224 206.763293 
L 398.043042 209.165435 
L 400.616763 211.052832 
L 402.332575 211.567576 
L 404.219973 209.851759 
" style="fill:none;stroke:#000000;stroke-linecap:square;stroke-width:1.5;"/>
   </g>
   <g id="line2d_30">
    <path clip-path="url(#pdec6d1fa2f)" d="M 290.006478 150.729213 
L 287.089592 148.49865 
L 283.143223 147.297582 
L 279.196849 147.640747 
L 275.765219 148.327071 
L 272.848333 149.871304 
L 270.960935 152.273445 
L 269.931447 155.190331 
L 272.676753 155.190331 
L 275.936798 153.646099 
L 278.682104 152.61661 
L 281.942149 152.445025 
L 285.2022 152.959769 
L 287.604336 153.474513 
L 290.178063 153.646099 
L 290.006478 150.729213 
" style="fill:none;stroke:#000000;stroke-linecap:square;stroke-width:1.5;"/>
   </g>
   <g id="line2d_31">
    <path clip-path="url(#pdec6d1fa2f)" d="M 290.006478 159.479865 
L 287.089592 158.965121 
L 283.314803 159.994609 
L 280.397917 161.710427 
L 282.800058 162.56833 
L 286.060103 163.426239 
L 289.834898 162.56833 
L 290.006478 159.479865 
" style="fill:none;stroke:#000000;stroke-linecap:square;stroke-width:1.5;"/>
   </g>
   <g id="line2d_32">
    <path clip-path="url(#pdec6d1fa2f)" d="M 288.80541 155.190331 
L 286.231689 153.646099 
L 281.942149 153.302934 
L 278.510519 152.959769 
L 275.250474 154.160843 
L 271.475679 155.876655 
L 268.901958 157.077723 
L 267.529305 159.65145 
L 269.073538 162.225171 
L 273.363077 161.882006 
L 277.652616 160.852518 
L 282.113729 159.65145 
L 286.574848 158.278797 
L 288.80541 155.190331 
" style="fill:none;stroke:#000000;stroke-linecap:square;stroke-width:1.5;"/>
   </g>
  </g>
 </g>
 <defs>
  <clipPath id="pdec6d1fa2f">
   <rect height="380.16" width="570.24" x="0" y="0"/>
  </clipPath>
 </defs>
</svg>
