<?xml version="1.0" encoding="utf-8" standalone="no"?>
<!DOCTYPE svg PUBLIC "-//W3C//DTD SVG 1.1//EN"
  "http://www.w3.org/Graphics/SVG/1.1/DTD/svg11.dtd">
<!-- Created with matplotlib (https://matplotlib.org/) -->
<svg height="414.72pt" version="1.1" viewBox="0 0 673.92 414.72" width="673.92pt" xmlns="http://www.w3.org/2000/svg" xmlns:xlink="http://www.w3.org/1999/xlink">
 <defs>
  <style type="text/css">
*{stroke-linecap:butt;stroke-linejoin:round;}
  </style>
 </defs>
 <g id="figure_1">
  <g><image xlink:href="../../img/cb/hedgehog_cor_cell.json.cb-50%25.png" width="673.92px" height="414.71999999999997px"/></g>

  <g id="patch_1">
   <path d="M 0 414.72 
L 673.92 414.72 
L 673.92 0 
L 0 0 
z
" style="fill:none;"/>
  </g>
  <g id="axes_1">
   <g id="line2d_1">
    <path clip-path="url(#pd1872aa131)" d="M 365.863627 94.787751 
L 375.946912 96.417862 
L 364.747278 95.671226 
L 360.267422 95.671226 
L 337.494836 92.311331 
L 331.521695 91.19137 
L 326.295203 90.818046 
L 321.068704 91.564688 
L 316.588854 91.938013 
L 312.855641 92.684656 
L 308.002466 94.177941 
L 301.282689 96.044544 
L 296.429514 97.53783 
L 291.203016 98.657791 
L 284.109913 99.031115 
L 271.043676 98.284473 
L 266.563826 98.657791 
L 261.710652 102.017679 
L 257.604121 105.377575 
L 253.870907 106.870854 
L 250.137694 107.617496 
L 245.657844 106.870854 
L 241.177988 100.897719 
L 232.5916 94.177941 
L 227.738426 92.684656 
L 222.511934 91.938013 
L 216.912117 92.311331 
L 212.805585 94.177941 
L 210.565657 97.911148 
L 210.938982 100.524401 
L 215.418831 102.764322 
L 221.018648 107.990821 
L 225.498504 113.590638 
L 228.858393 118.81713 
L 229.231711 122.550344 
L 224.751862 118.81713 
L 219.152045 114.337281 
L 212.805585 110.977392 
L 201.605951 105.377575 
L 196.006134 102.764322 
L 190.032999 101.271037 
L 184.8065 100.524401 
L 178.286028 98.983092 
L 171.56625 98.609774 
L 164.846473 99.356416 
L 158.126688 101.22302 
L 152.900196 103.462948 
L 148.42034 106.449512 
L 142.447205 113.169296 
L 140.207277 116.529185 
L 137.967349 119.515756 
L 136.474063 125.115573 
L 136.100745 129.595423 
L 139.460634 131.835351 
L 143.567166 132.955311 
L 148.793665 132.208669 
L 152.900196 131.088708 
L 157.75337 130.342065 
L 161.859902 129.968747 
L 150.660268 132.955311 
L 143.193848 134.448597 
L 137.594031 135.941882 
L 135.354103 137.061843 
L 133.114175 140.048414 
L 128.634325 147.514834 
L 126.767715 151.99469 
L 124.901111 158.714468 
L 127.14104 162.074363 
L 132.367532 162.447681 
L 139.833959 160.207753 
L 146.553736 157.967825 
L 153.646839 155.354579 
L 159.993298 152.741333 
L 165.966433 151.248048 
L 177.91271 149.381444 
L 191.72559 146.394873 
L 174.179496 152.368008 
L 161.859902 157.221189 
L 157.006728 158.714468 
L 150.28695 161.327721 
L 146.180412 163.194324 
L 140.95392 164.68761 
L 135.354103 166.554213 
L 132.367532 168.420816 
L 127.14104 172.527355 
L 125.274429 176.633886 
L 124.154469 181.48706 
L 124.901111 185.220267 
L 129.007643 190.820084 
L 133.860817 196.419901 
L 139.087316 196.793226 
L 143.94049 196.419901 
L 148.047022 191.940052 
L 151.406911 191.193409 
L 155.886767 191.940052 
L 161.486577 191.566727 
L 168.953004 191.940052 
L 174.926139 191.193409 
L 179.405995 188.953481 
L 181.272599 184.473624 
L 185.37913 180.740418 
L 189.112344 178.50049 
L 193.965518 174.767276 
L 198.818692 172.15403 
L 205.165152 168.420816 
L 220.844635 162.074363 
L 195.458803 175.140601 
L 190.232305 180.367093 
L 186.125773 182.980346 
L 182.765884 186.340235 
L 181.272599 189.326799 
L 178.659353 191.193409 
L 174.552821 192.313369 
L 171.56625 192.686694 
L 170.44629 196.046583 
L 170.44629 193.060012 
L 166.713076 192.686694 
L 160.739941 192.686694 
L 156.260085 193.060012 
L 151.780229 194.553298 
L 149.540307 196.419901 
L 146.180412 198.659829 
L 143.94049 201.6464 
L 142.820523 205.006289 
L 144.687133 207.99286 
L 148.793665 211.352748 
L 153.646839 210.979424 
L 161.486577 210.232781 
L 155.886767 211.726066 
L 150.660268 212.099391 
L 149.166983 213.592677 
L 147.300379 215.832598 
L 144.687133 220.685772 
L 143.193848 224.792304 
L 144.687133 228.898842 
L 149.166983 236.73858 
L 153.273514 240.845112 
L 157.380046 238.60519 
L 159.993298 235.61862 
L 163.726505 233.005373 
L 168.206362 230.765445 
L 172.312893 228.152199 
L 179.405995 221.80574 
L 183.512527 219.192493 
L 186.872416 216.579241 
L 191.352272 214.339319 
L 193.965518 210.606106 
L 199.19201 207.99286 
L 204.045185 205.379607 
L 207.40508 200.526433 
L 210.764969 198.659829 
L 217.484747 198.659829 
L 224.204524 200.899757 
L 230.924308 202.393043 
L 238.017411 202.019718 
L 244.737188 199.406472 
L 249.590363 197.166544 
L 254.816855 194.553298 
L 258.17675 193.433337 
L 261.536639 195.673258 
L 265.269846 197.913186 
L 271.242988 199.406472 
L 277.962765 199.77979 
L 280.949336 200.153115 
L 285.64761 203.886328 
L 291.994063 206.499574 
L 305.433625 211.352748 
L 314.020013 212.099391 
L 323.726361 213.592677 
L 331.939424 214.712637 
L 340.152487 215.085955 
L 359.191866 215.085955 
L 374.124713 213.592677 
L 383.084419 212.099391 
L 391.297482 209.859463 
L 395.777332 207.619535 
L 399.88387 205.006289 
L 403.243759 202.393043 
L 406.976966 200.526433 
L 410.710179 199.033147 
L 412.203465 196.793226 
L 413.323425 193.433337 
L 415.563353 192.686694 
L 418.923242 193.806655 
L 424.149741 196.046583 
L 431.242843 197.166544 
L 435.722693 197.539868 
L 442.442471 199.033147 
L 449.162255 198.286511 
L 453.268786 196.419901 
L 457.748636 194.179973 
L 462.975135 194.553298 
L 469.321595 197.166544 
L 475.294729 201.6464 
L 478.2813 206.499574 
L 479.774586 211.726066 
L 483.507793 219.939129 
L 487.038082 224.648247 
L 491.517938 228.008135 
L 497.117755 231.368024 
L 504.957493 232.86131 
L 513.170563 233.234634 
L 516.157127 231.368024 
L 517.277095 227.634817 
L 516.57915 224.843023 
L 530.71665 231.368024 
L 536.316467 232.114667 
L 541.542966 227.261493 
L 545.276179 222.408318 
L 548.262744 217.181826 
L 549.756029 212.328652 
L 550.129354 207.475478 
L 549.756029 202.995622 
L 549.009386 199.262408 
L 544.902855 195.902519 
L 541.916284 197.022487 
L 536.316467 199.262408 
L 533.329903 200.755693 
L 529.970014 202.995622 
L 525.490158 205.608868 
L 521.756944 206.35551 
L 517.650413 206.35551 
L 513.170563 205.982192 
L 509.43735 205.23555 
L 503.837533 202.248979 
L 514.290524 204.862225 
L 521.383626 203.368939 
L 526.983443 201.129018 
L 531.089975 199.262408 
L 532.956578 196.275844 
L 532.58326 193.662591 
L 527.730086 187.689456 
L 517.277095 183.2096 
L 510.930635 181.716321 
L 506.077461 180.223036 
L 500.477644 179.103068 
L 497.117755 177.983108 
L 491.144614 177.609783 
L 486.664764 176.863147 
L 483.678193 176.863147 
L 480.318304 177.983108 
L 479.198337 179.849711 
L 477.331734 176.116504 
L 476.958416 172.383291 
L 475.46513 169.023402 
L 472.105241 166.783474 
L 467.252067 164.543546 
L 463.892172 162.303618 
L 457.172394 159.690371 
L 453.812505 157.450443 
L 447.092727 154.463879 
L 459.412322 158.197086 
L 464.265496 160.063696 
L 469.118671 163.796903 
L 476.585091 168.650077 
L 482.184908 170.516687 
L 488.904692 174.249894 
L 496.74443 175.74318 
L 517.650413 178.72975 
L 524.743515 182.836282 
L 531.089975 184.702885 
L 536.689792 184.702885 
L 543.409569 182.462957 
L 546.769458 179.103068 
L 548.636068 175.369862 
L 548.636068 170.516687 
L 547.516101 166.410156 
L 544.529537 163.05026 
L 541.916284 161.183657 
L 537.809752 159.690371 
L 532.956578 158.570411 
L 528.850047 157.450443 
L 521.010302 154.837197 
L 530.71665 156.703801 
L 538.183077 158.570411 
L 541.542966 157.450443 
L 540.796323 153.717237 
L 541.169641 150.357348 
L 541.169641 146.250809 
L 540.423005 142.517603 
L 538.92972 138.037746 
L 535.569824 133.557897 
L 531.836617 130.198008 
L 526.236801 128.704723 
L 521.756944 128.331398 
L 510.930635 128.331398 
L 494.504502 129.451365 
L 489.651328 130.198008 
L 485.544797 130.198008 
L 480.318304 129.451365 
L 475.838448 129.078041 
L 460.905607 126.838113 
L 454.185823 125.344834 
L 475.091805 127.211437 
L 480.691622 126.464795 
L 485.918121 124.598191 
L 491.144614 122.358263 
L 496.74443 121.238296 
L 504.957493 120.491653 
L 512.050596 120.118335 
L 516.90377 119.745017 
L 522.503587 118.251732 
L 525.863476 114.891843 
L 525.11684 111.905272 
L 523.623554 108.545383 
L 521.155579 103.541803 
L 518.5375 99.034728 
L 514.057651 94.928196 
L 511.07108 93.434911 
L 507.337873 91.941625 
L 506.964549 88.955054 
L 503.977978 84.848523 
L 497.631525 82.981919 
L 492.405026 81.861959 
L 486.058566 81.488634 
L 481.952035 79.995349 
L 477.845503 79.622031 
L 471.499044 80.741991 
L 465.899227 82.235277 
L 460.29941 84.848523 
L 455.81956 87.461776 
L 451.339704 90.44834 
L 447.979815 93.434911 
L 445.366569 97.168124 
L 442.379998 99.78137 
L 437.153499 102.394616 
L 425.953865 105.381187 
L 421.847334 106.874473 
L 417.740802 107.247791 
L 414.007596 106.12783 
L 409.154421 100.901331 
L 403.554604 91.194982 
L 399.448066 84.848523 
L 391.996101 74.255087 
L 386.396284 69.028595 
L 379.303182 64.548738 
L 371.836762 61.188849 
L 364.743659 58.575603 
L 359.143842 57.082318 
L 352.424065 56.335675 
L 346.824248 57.455636 
L 341.597756 59.322239 
L 332.63805 63.802096 
L 328.904836 64.548738 
L 324.798305 64.922056 
L 319.945131 66.042024 
L 314.345314 66.788666 
L 308.745497 67.908627 
L 303.14568 69.77523 
L 295.305935 71.641841 
L 291.199403 73.508444 
L 287.092872 76.12169 
L 280.373094 79.854904 
L 277.386523 83.214792 
L 274.773277 86.574681 
L 273.279992 90.307895 
L 272.533349 92.921141 
L 274.026635 96.654354 
L 278.506484 97.027672 
L 283.359658 97.774315 
L 289.3328 97.400997 
L 295.67926 96.654354 
L 303.14568 94.041108 
L 309.49214 92.174498 
L 319.198488 89.93457 
L 324.42498 89.561252 
L 332.63805 89.561252 
L 339.731146 90.681213 
L 348.317533 91.80118 
L 356.157278 93.294466 
L 365.863627 94.787751 
L 365.863627 94.787751 
" style="fill:none;stroke:#000000;stroke-linecap:square;stroke-width:1.5;"/>
   </g>
   <g id="line2d_2">
    <path clip-path="url(#pd1872aa131)" d="M 514.77049 224.008258 
L 512.423921 223.154961 
L 509.064032 222.781643 
L 504.584176 221.661676 
L 500.104319 218.675105 
L 495.62447 216.808501 
L 491.144614 213.821931 
L 488.904692 211.955327 
L 486.291439 208.222114 
L 494.504502 214.941898 
L 501.970929 217.555144 
L 511.303953 222.408318 
L 514.77049 224.008258 
" style="fill:none;stroke:#000000;stroke-linecap:square;stroke-width:1.5;"/>
   </g>
   <g id="line2d_3">
    <path clip-path="url(#pd1872aa131)" d="M 394.797816 125.25963 
L 401.144276 124.886312 
L 390.317966 127.12624 
L 381.731579 129.366162 
L 364.932128 130.859447 
L 354.852461 130.486129 
L 345.892756 130.859447 
L 342.53286 128.619519 
L 345.519431 124.886312 
L 346.639398 122.646384 
L 343.279503 119.286495 
L 339.546296 118.166528 
L 335.06644 118.166528 
L 326.480052 118.913171 
L 319.386956 121.526423 
L 313.787139 123.019702 
L 306.694037 123.766345 
L 287.654658 126.379598 
L 280.561556 126.752916 
L 276.081706 126.752916 
L 276.828349 129.739486 
L 273.46846 133.472693 
L 269.361922 136.459264 
L 264.13543 137.952549 
L 272.348493 133.472693 
L 275.708382 130.112804 
L 274.588421 128.246201 
L 271.975175 127.499558 
L 268.988604 126.379598 
L 270.108565 124.512987 
L 274.215103 125.25963 
L 277.94831 125.25963 
L 302.214181 123.393027 
L 313.413815 121.153099 
L 322.000203 119.286495 
L 328.346662 117.046567 
L 334.693122 116.299924 
L 341.786217 117.419885 
L 346.266074 118.539853 
L 348.506002 121.526423 
L 347.386034 125.632955 
L 345.146113 128.619519 
L 350.372605 129.739486 
L 361.572239 129.366162 
L 374.638476 128.619519 
L 385.091467 127.872876 
L 394.797816 125.25963 
" style="fill:none;stroke:#000000;stroke-linecap:square;stroke-width:1.5;"/>
   </g>
   <g id="line2d_4">
    <path clip-path="url(#pd1872aa131)" d="M 327.511204 209.670995 
L 323.777997 209.297677 
L 318.924823 208.177709 
L 312.951681 204.071178 
L 312.578363 201.084607 
L 316.31157 199.218003 
L 321.164744 198.098043 
L 325.6446 197.724718 
L 336.470909 196.978075 
L 341.324084 197.3514 
L 344.683979 197.3514 
L 348.417186 198.098043 
L 352.897042 198.471361 
L 356.256931 199.964646 
L 358.870177 201.457932 
L 362.976709 204.071178 
L 365.963279 205.564463 
L 368.576525 207.431066 
L 375.29631 207.804391 
L 387.989222 209.670995 
L 363.350033 212.284241 
L 355.510288 211.537598 
L 357.003574 206.684424 
L 351.030439 203.324535 
L 346.550582 199.591328 
L 338.337519 198.098043 
L 322.284711 198.844685 
L 315.564927 200.711289 
L 314.444966 202.951217 
L 317.058212 205.937781 
L 320.044783 207.804391 
L 327.511204 209.670995 
L 327.511204 209.670995 
" style="fill:none;stroke:#000000;stroke-linecap:square;stroke-width:1.5;"/>
   </g>
  </g>
 </g>
 <defs>
  <clipPath id="pd1872aa131">
   <rect height="414.72" width="673.92" x="0" y="0"/>
  </clipPath>
 </defs>
</svg>
