<?xml version="1.0" encoding="utf-8" standalone="no"?>
<!DOCTYPE svg PUBLIC "-//W3C//DTD SVG 1.1//EN"
  "http://www.w3.org/Graphics/SVG/1.1/DTD/svg11.dtd">
<!-- Created with matplotlib (https://matplotlib.org/) -->
<svg height="699.84pt" version="1.1" viewBox="0 0 933.12 699.84" width="933.12pt" xmlns="http://www.w3.org/2000/svg" xmlns:xlink="http://www.w3.org/1999/xlink">
 <defs>
  <style type="text/css">
*{stroke-linecap:butt;stroke-linejoin:round;}
  </style>
 </defs>
 <g id="figure_1">
  <g><image xlink:href="../../img/cb/howler_cor_cell.json.cb-50%25.png" width="933.12px" height="699.8399999999999px"/></g>

  <g id="patch_1">
   <path d="M 0 699.84 
L 933.12 699.84 
L 933.12 0 
L 0 0 
z
" style="fill:none;"/>
  </g>
  <g id="axes_1">
   <g id="line2d_1">
    <path clip-path="url(#p53ae398f7a)" d="M 813.838673 377.674432 
L 816.889406 383.165759 
L 818.719852 388.657077 
L 821.770585 392.012885 
L 824.516244 396.58898 
L 827.261903 396.894054 
L 831.837998 394.453469 
L 834.583657 389.877365 
L 834.278583 385.30127 
L 831.532924 382.250536 
L 826.956829 378.284581 
L 824.516244 375.233847 
L 821.465511 372.793263 
L 818.719852 373.098337 
L 815.669119 374.623708 
L 812.618386 374.318634 
L 813.838673 377.674432 
" style="fill:none;stroke:#000000;stroke-linecap:square;stroke-width:1.5;"/>
   </g>
   <g id="line2d_2">
    <path clip-path="url(#p53ae398f7a)" d="M 788.21252 382.555611 
L 793.703838 388.352003 
L 797.36472 393.538247 
L 799.805304 397.809277 
L 801.025592 402.99552 
L 800.110378 406.656402 
L 798.890081 410.927423 
L 797.36472 415.198453 
L 797.669794 417.944112 
L 798.890081 421.910068 
L 800.415453 425.57095 
L 804.381399 427.70646 
L 809.567652 428.926748 
L 814.448822 428.926748 
L 819.329991 428.926748 
L 823.295947 428.011534 
L 826.956829 424.045578 
L 829.092339 421.29992 
L 829.092339 415.198453 
L 828.177116 408.181764 
L 825.431457 401.165084 
L 823.295947 396.58898 
L 819.94014 390.487513 
L 816.584332 385.911418 
L 813.838673 382.555611 
L 810.78794 376.14907 
L 807.432133 370.657752 
L 804.991548 367.301945 
L 801.63574 364.251212 
L 797.669794 363.946137 
L 793.398764 364.556286 
L 789.127733 365.776573 
L 786.382074 367.912093 
L 784.856712 370.657752 
L 783.94149 373.708485 
L 784.856712 377.979506 
L 788.21252 382.555611 
" style="fill:none;stroke:#000000;stroke-linecap:square;stroke-width:1.5;"/>
   </g>
   <g id="line2d_3">
    <path clip-path="url(#p53ae398f7a)" d="M 771.738557 392.317959 
L 770.518269 396.894054 
L 770.518269 402.385372 
L 771.433483 408.791912 
L 774.78929 414.588305 
L 779.670469 417.028889 
L 783.331341 416.113676 
L 786.687149 411.537571 
L 787.602371 405.436105 
L 786.382074 400.249861 
L 784.856712 395.368692 
L 784.551638 390.487513 
L 781.805979 387.741854 
L 778.145098 385.911418 
L 774.484216 384.996195 
L 772.958854 386.216492 
L 771.433483 389.267226 
L 771.738557 392.317959 
" style="fill:none;stroke:#000000;stroke-linecap:square;stroke-width:1.5;"/>
   </g>
   <g id="line2d_4">
    <path clip-path="url(#p53ae398f7a)" d="M 218.206986 403.560273 
L 222.154494 408.512312 
L 234.08727 416.105894 
L 239.149661 418.998687 
L 242.042454 422.976279 
L 243.127253 427.315474 
L 240.596062 429.485071 
L 233.002471 430.208267 
L 228.301683 429.485071 
L 222.154494 425.145876 
L 217.092104 420.806682 
L 213.476114 415.021095 
L 209.498522 409.597111 
L 205.52093 405.619519 
L 200.45854 402.00352 
L 192.141753 401.280324 
L 185.994564 404.173118 
L 179.847375 409.235508 
L 175.146587 415.744291 
L 171.530588 422.253083 
L 170.445799 428.761875 
L 170.084196 435.270657 
L 170.807392 440.694651 
L 174.784984 446.118635 
L 179.124179 451.181025 
L 184.186569 458.051411 
L 188.887357 461.667409 
L 192.141753 465.283399 
L 194.672944 471.068985 
L 204.797725 477.577777 
L 211.306517 477.577777 
L 214.922506 475.046577 
L 217.453706 469.622593 
L 218.900098 464.921805 
L 219.984897 460.221008 
L 221.792892 451.542628 
L 224.324092 457.689817 
L 224.685694 461.305807 
L 225.40889 466.368197 
L 224.685694 469.622593 
L 223.600896 475.046577 
L 219.623304 479.385772 
L 217.453706 483.00177 
L 217.453706 486.979362 
L 219.623304 491.318548 
L 225.770484 495.657742 
L 233.002471 499.635334 
L 239.149661 503.974529 
L 246.381649 507.952121 
L 254.698435 510.121718 
L 261.568821 508.313714 
L 266.269608 505.782523 
L 271.331999 503.251323 
L 272.7784 499.635334 
L 269.162402 496.019345 
L 263.376815 489.872156 
L 258.676027 485.171358 
L 255.783234 481.555369 
L 254.698435 478.300973 
L 255.060029 474.684984 
L 260.122419 480.832173 
L 265.18481 483.363364 
L 272.416798 488.787357 
L 278.563987 494.572944 
L 285.07277 497.104134 
L 293.027954 495.29614 
L 299.898348 492.041753 
L 311.107919 484.809765 
L 313.277516 480.47057 
L 314.723917 476.492978 
L 299.898348 470.707392 
L 291.581562 466.7298 
L 278.202384 459.136209 
L 273.863199 455.158617 
L 281.095178 458.051411 
L 285.07277 459.497812 
L 287.965572 460.221008 
L 289.050362 462.752208 
L 293.027954 465.283399 
L 297.367148 467.814599 
L 304.237533 470.707392 
L 312.55432 473.961788 
L 319.424705 475.769782 
L 325.571895 474.684984 
L 331.719084 472.515386 
L 336.781474 469.26099 
L 340.03587 464.560203 
L 344.736658 459.859415 
L 350.160652 455.158617 
L 356.997099 453.884535 
L 362.05949 451.353345 
L 367.121881 447.737346 
L 372.184271 448.460551 
L 376.885059 447.375753 
L 382.309052 446.652547 
L 381.585847 443.398161 
L 383.032248 440.143765 
L 388.817835 437.974167 
L 393.15703 436.527775 
L 397.857818 435.80457 
L 402.920208 435.442977 
L 405.813002 439.058966 
L 413.768185 439.782162 
L 415.937783 441.228563 
L 414.852984 442.674955 
L 411.598588 441.228563 
L 407.259403 440.866961 
L 404.728203 443.398161 
L 404.005007 448.460551 
L 404.36661 452.799737 
L 406.174604 456.777329 
L 409.067398 462.562924 
L 411.598588 468.348511 
L 415.57618 474.134098 
L 422.446575 477.750087 
L 429.678553 478.834886 
L 445.950524 478.11169 
L 457.160104 477.750087 
L 462.584097 475.942092 
L 469.09288 475.580499 
L 475.963265 475.942092 
L 484.280051 475.580499 
L 490.065638 475.580499 
L 497.659229 474.134098 
L 510.676803 468.710104 
L 517.185586 464.732512 
L 521.52478 461.478126 
L 523.332775 457.862127 
L 525.502372 452.799737 
L 526.225568 448.098949 
L 525.14077 443.759754 
L 521.52478 439.782162 
L 521.886383 436.527775 
L 524.055971 434.358178 
L 524.055971 431.103782 
L 525.502372 427.849386 
L 529.841567 427.487793 
L 536.35035 428.210989 
L 546.113538 428.934185 
L 549.729527 430.380586 
L 557.323108 439.420569 
L 561.174953 438.967156 
L 566.237343 438.967156 
L 572.746126 440.413548 
L 578.170119 444.752743 
L 578.531722 449.815134 
L 580.339717 455.60072 
L 585.763701 459.578312 
L 591.91089 461.747909 
L 598.781284 463.555904 
L 605.65167 464.2791 
L 619.39244 461.747909 
L 626.262825 459.21671 
L 632.048412 456.323916 
L 636.387607 453.792726 
L 639.642003 449.815134 
L 641.088395 446.199135 
L 641.088395 442.221543 
L 638.557204 440.051946 
L 646.512388 440.775151 
L 648.320383 441.85995 
L 651.213176 439.32875 
L 655.190768 437.882358 
L 659.529962 435.71276 
L 662.784358 434.266359 
L 664.23075 433.18156 
L 661.337957 436.074354 
L 658.083561 438.243951 
L 654.829175 439.690352 
L 650.851583 441.85995 
L 647.597187 444.39114 
L 644.342791 447.283934 
L 642.896399 449.815134 
L 640.365199 453.06953 
L 638.195601 454.515922 
L 628.794025 458.855116 
L 625.178027 460.663111 
L 621.562038 461.747909 
L 618.307642 462.471105 
L 613.968447 463.194301 
L 610.71406 463.917507 
L 608.18286 465.725501 
L 607.098062 468.979897 
L 608.906056 471.872691 
L 612.522055 476.573479 
L 617.222843 478.743076 
L 621.923631 481.997472 
L 629.155619 483.443864 
L 636.026004 485.975064 
L 642.896399 486.336657 
L 649.766784 487.059863 
L 651.936381 484.890265 
L 651.936381 479.827875 
L 651.574779 475.48868 
L 652.297975 471.872691 
L 655.190768 468.256692 
L 658.445164 465.002305 
L 662.422756 462.471105 
L 666.76195 458.855116 
L 659.891565 465.363899 
L 656.275567 469.341491 
L 654.829175 472.957489 
L 654.467572 476.935081 
L 654.829175 481.635869 
L 658.083561 485.251859 
L 662.784358 485.975064 
L 667.123544 483.805467 
L 670.37794 479.104679 
L 673.993938 475.127087 
L 676.886732 470.787892 
L 679.779525 467.171893 
L 681.225917 468.979897 
L 677.609928 478.743076 
L 670.37794 486.69826 
L 672.185934 490.675852 
L 677.609928 492.483847 
L 684.11872 492.483847 
L 691.712301 491.037455 
L 697.497887 487.421456 
L 700.752283 484.890265 
L 701.475479 481.274267 
L 704.729875 482.720668 
L 707.984271 480.912673 
L 711.961863 477.296675 
L 716.301058 469.341491 
L 719.193851 463.194301 
L 719.555445 457.408715 
L 715.577853 453.792726 
L 710.153869 452.707927 
L 705.814674 452.346324 
L 701.475479 453.06953 
L 699.305882 450.899932 
L 698.221093 446.199135 
L 697.136294 439.32875 
L 697.136294 434.627962 
L 697.497887 429.927174 
L 700.029087 428.842375 
L 702.560278 429.927174 
L 706.176277 435.351158 
L 711.238667 440.775151 
L 717.74745 443.306342 
L 723.171443 443.306342 
L 728.233834 439.690352 
L 730.765024 435.351158 
L 732.573019 428.842375 
L 732.934622 422.695186 
L 731.48822 416.186394 
L 729.318632 410.400807 
L 728.233834 406.061613 
L 724.979438 401.722427 
L 719.917047 400.276026 
L 715.577853 399.55283 
L 710.877065 399.914423 
L 706.176277 402.084021 
L 701.475479 406.784818 
L 698.221093 410.400807 
L 695.689893 413.655203 
L 692.435497 416.909599 
L 689.542704 420.163986 
L 686.64991 422.695186 
L 681.949122 423.418382 
L 678.694726 420.525589 
L 675.44033 416.186394 
L 675.44033 411.485606 
L 678.333124 408.954406 
L 684.11872 407.508014 
L 688.457905 407.869617 
L 693.520296 407.869617 
L 698.582686 406.784818 
L 702.560278 404.615221 
L 705.091478 401.722427 
L 709.06907 399.914423 
L 711.600261 398.106429 
L 709.06907 395.575238 
L 713.769858 397.744835 
L 717.74745 397.744835 
L 724.617835 396.660037 
L 731.126627 393.044038 
L 734.01942 387.981648 
L 733.296224 383.28086 
L 730.765024 380.388066 
L 722.448238 378.580072 
L 727.510629 377.13367 
L 734.381023 376.772068 
L 739.707543 375.078511 
L 746.577928 371.824124 
L 751.640319 367.48493 
L 754.171509 361.33774 
L 753.448313 356.27535 
L 750.55552 352.297758 
L 745.131527 349.043362 
L 739.34594 345.427372 
L 734.645152 343.257775 
L 725.243567 338.556987 
L 721.265975 342.172976 
L 718.734775 343.980971 
L 718.011579 346.512171 
L 718.373182 350.489763 
L 717.288383 353.382556 
L 714.757183 355.552154 
L 712.587595 355.552154 
L 708.609994 353.382556 
L 703.909206 351.212959 
L 687.275642 345.06577 
L 681.128453 346.150568 
L 678.597253 348.681768 
L 678.235659 352.297758 
L 680.405257 358.083344 
L 683.29805 361.699343 
L 685.467647 366.038528 
L 686.190843 369.292924 
L 683.659643 371.824124 
L 679.320458 375.440113 
L 676.427665 376.886515 
L 675.342866 380.502504 
L 674.619661 375.440113 
L 673.173269 371.100919 
L 668.834074 368.208126 
L 662.544649 366.418672 
L 658.205464 363.164285 
L 652.419868 359.909889 
L 640.125499 354.485896 
L 633.97831 353.7627 
L 629.639115 354.485896 
L 626.384719 357.740292 
L 624.938327 360.994688 
L 624.938327 365.333873 
L 626.746322 368.949872 
L 632.170306 373.65066 
L 627.469518 371.481063 
L 624.215122 368.226676 
L 622.407127 364.610677 
L 623.853528 358.101895 
L 626.023126 355.209101 
L 628.915919 353.401097 
L 632.531908 352.677901 
L 637.594299 353.039504 
L 643.379885 354.485896 
L 648.080683 357.017096 
L 653.504667 359.548287 
L 658.92866 363.164285 
L 665.075849 366.057079 
L 672.307828 367.865073 
L 677.370218 367.141877 
L 679.901418 365.333873 
L 679.901418 361.717884 
L 678.81662 358.101895 
L 676.647022 353.7627 
L 672.669431 348.70031 
L 667.968643 344.361115 
L 663.991051 341.468322 
L 653.143073 337.49073 
L 645.911085 336.044338 
L 636.147898 334.236334 
L 649.165481 335.682735 
L 656.035867 337.129136 
L 662.544649 339.298724 
L 668.330236 341.829924 
L 674.477425 342.191518 
L 687.495 343.637919 
L 695.08859 343.999522 
L 704.128573 343.999522 
L 707.744562 342.55312 
L 707.021366 338.937131 
L 705.936568 334.236334 
L 704.851769 328.81235 
L 700.150981 324.834758 
L 693.642189 320.857166 
L 688.579798 319.772367 
L 684.240613 319.772367 
L 679.901418 320.495563 
L 675.562224 321.580362 
L 673.031033 320.857166 
L 669.415035 318.325966 
L 665.799045 314.709977 
L 662.544649 311.093978 
L 656.39746 308.201185 
L 647.71908 305.669994 
L 640.848695 304.223593 
L 634.701506 303.500397 
L 631.808712 304.946798 
L 629.639115 309.285983 
L 627.469518 313.263575 
L 622.045534 316.879574 
L 627.107915 308.201185 
L 627.83112 304.946798 
L 625.661523 301.692402 
L 620.960735 298.799609 
L 615.536742 294.822017 
L 610.474351 291.567621 
L 603.965568 289.036421 
L 596.371978 287.228426 
L 592.032783 287.228426 
L 588.416794 287.951622 
L 588.055191 290.844425 
L 589.13999 294.460414 
L 586.608799 289.759626 
L 583.354403 284.697235 
L 576.484018 279.634845 
L 569.25203 276.018846 
L 563.402907 274.842238 
L 557.978923 276.288639 
L 552.193328 276.288639 
L 548.215736 277.373429 
L 547.49254 281.35102 
L 548.938941 287.49821 
L 557.978923 301.23899 
L 561.956515 303.046984 
L 566.295701 304.131783 
L 571.719694 304.493376 
L 577.866883 305.939778 
L 585.098871 310.640566 
L 594.500447 320.042151 
L 601.732435 329.082133 
L 596.670044 325.104541 
L 594.138854 321.126949 
L 591.24606 317.872553 
L 587.268459 313.894962 
L 582.929274 309.91737 
L 578.590079 307.024576 
L 574.612487 305.578175 
L 569.188494 305.216582 
L 563.402907 304.493376 
L 557.617321 305.216582 
L 553.639729 306.30138 
L 550.385333 308.832571 
L 549.662137 312.086967 
L 550.385333 318.595749 
L 553.278126 326.18934 
L 557.978923 330.890128 
L 565.210902 334.86772 
L 571.719694 338.122116 
L 583.290867 344.269305 
L 577.866883 342.822904 
L 573.166095 339.930111 
L 568.465298 337.39892 
L 561.956515 334.144524 
L 555.447723 331.613324 
L 547.49254 329.443736 
L 540.260552 327.997335 
L 532.66697 326.912536 
L 523.988581 326.912536 
L 513.140604 325.104541 
L 506.993415 323.65814 
L 495.783844 322.573341 
L 489.636655 322.573341 
L 467.217495 321.850145 
L 456.369518 323.296547 
L 443.351943 324.742939 
L 428.526365 326.18934 
L 407.943492 330.700845 
L 395.287511 334.316843 
L 376.122756 341.548822 
L 364.189971 345.16482 
L 354.426792 349.142412 
L 336.346827 356.012798 
L 329.838045 357.097596 
L 324.052449 358.543988 
L 321.521258 358.543988 
L 325.860453 355.651195 
L 330.561241 351.673603 
L 333.454034 346.972815 
L 341.047615 336.124838 
L 342.132414 329.616046 
L 338.878027 326.000057 
L 333.454034 323.468857 
L 327.668447 322.384058 
L 322.244454 323.468857 
L 316.82047 323.830459 
L 310.673281 323.830459 
L 304.887685 324.915258 
L 298.378902 326.36165 
L 292.231713 329.254453 
L 287.892518 331.785643 
L 284.276529 334.316843 
L 281.022133 337.57123 
L 277.767737 341.910425 
L 274.51335 346.972815 
L 273.428552 351.673603 
L 274.151748 355.651195 
L 279.575741 360.351992 
L 276.321345 360.713586 
L 271.98215 359.628787 
L 267.281362 356.3744 
L 265.111765 352.758402 
L 266.558166 347.334418 
L 269.812553 343.356826 
L 274.51335 338.656029 
L 281.022133 334.678437 
L 286.446126 331.062447 
L 296.570908 326.36165 
L 301.994891 324.192062 
L 305.249287 321.660862 
L 308.865277 317.68327 
L 308.865277 313.705678 
L 303.07969 314.428874 
L 296.932501 314.790477 
L 292.231713 316.598471 
L 286.80772 320.21447 
L 281.745329 322.745661 
L 274.51335 324.915258 
L 268.004558 327.084855 
L 262.218972 329.616046 
L 257.879777 333.955241 
L 252.558912 333.410009 
L 244.965331 333.771612 
L 236.286951 335.941209 
L 229.054963 338.834003 
L 220.376574 346.789186 
L 216.398982 352.21318 
L 213.506189 355.467566 
L 212.782993 359.445158 
L 209.528597 359.083565 
L 203.74301 360.168364 
L 199.042222 361.614756 
L 195.06463 364.507549 
L 192.171837 367.400342 
L 190.725436 370.293145 
L 190.363833 374.63233 
L 190.725436 380.417926 
L 193.256626 385.84191 
L 198.68062 392.350702 
L 211.698194 398.136289 
L 217.483781 398.859485 
L 221.099779 397.413093 
L 224.715769 397.413093 
L 230.501355 395.966691 
L 235.563746 398.136289 
L 242.795734 399.221087 
L 249.666119 399.582681 
L 254.366916 397.05149 
L 259.7909 395.966691 
L 272.446882 395.966691 
L 267.384491 397.774686 
L 263.045296 398.497891 
L 257.982906 398.497891 
L 254.366916 399.221087 
L 251.11252 401.390685 
L 240.626136 400.305886 
L 231.947757 399.944283 
L 224.354166 399.944283 
L 220.376574 401.390685 
L 218.206986 403.560273 
L 218.206986 403.560273 
" style="fill:none;stroke:#000000;stroke-linecap:square;stroke-width:1.5;"/>
   </g>
   <g id="line2d_5">
    <path clip-path="url(#p53ae398f7a)" d="M 503.589458 370.531128 
L 505.218956 367.272113 
L 507.663217 364.556276 
L 507.934802 361.840431 
L 505.218956 359.396179 
L 501.688366 357.223502 
L 497.614598 355.32241 
L 491.096577 353.964487 
L 485.39331 353.149743 
L 472.085685 353.149743 
L 466.654003 352.878158 
L 456.605383 353.421318 
L 450.902116 354.236072 
L 445.198849 354.779241 
L 439.767167 355.593995 
L 433.792315 356.408749 
L 427.817464 357.495087 
L 421.571019 358.85301 
L 415.867752 360.754092 
L 411.522408 362.655184 
L 408.263393 364.827861 
L 406.362311 367.000538 
L 407.991809 369.173205 
L 410.164485 371.617466 
L 412.065577 374.061718 
L 408.534978 371.617466 
L 404.732803 368.358451 
L 402.288542 366.728953 
L 407.177064 364.284692 
L 411.793993 361.025677 
L 417.225675 359.396179 
L 425.644788 357.223502 
L 433.249146 355.865579 
L 438.137659 354.779241 
L 445.198849 353.964487 
L 451.445285 352.878158 
L 462.851818 351.79182 
L 468.011925 351.79182 
L 474.80153 351.520235 
L 479.418459 351.520235 
L 488.652325 352.063405 
L 495.713515 353.421318 
L 500.330443 355.050826 
L 503.861043 357.495087 
L 508.749556 360.210933 
L 512.008561 360.754092 
L 517.168668 360.482508 
L 514.724407 362.112015 
L 511.465392 364.827861 
L 506.848464 367.000538 
L 503.589458 370.531128 
L 503.589458 370.531128 
" style="fill:none;stroke:#000000;stroke-linecap:square;stroke-width:1.5;"/>
   </g>
   <g id="line2d_6">
    <path clip-path="url(#p53ae398f7a)" d="M 567.248622 440.224993 
L 563.483678 440.475993 
L 560.722716 440.977983 
L 559.467735 443.738945 
L 559.467735 445.495917 
L 562.479688 448.50787 
L 566.244631 450.013851 
L 570.762565 450.766841 
L 574.276517 451.017832 
L 576.78648 449.51186 
L 577.03748 446.750898 
L 576.53548 444.491927 
L 574.025518 442.232964 
L 570.511574 440.726983 
L 567.248622 440.224993 
" style="fill:none;stroke:#000000;stroke-linecap:square;stroke-width:1.5;"/>
   </g>
   <g id="line2d_7">
    <path clip-path="url(#p53ae398f7a)" d="M 319.413471 312.085996 
L 327.07683 315.151342 
L 332.824346 315.534509 
L 341.637207 315.151342 
L 347.384722 312.852331 
L 352.365903 307.487982 
L 358.113428 303.273135 
L 365.776779 297.908787 
L 374.972807 294.077107 
L 381.486666 291.394938 
L 388.766849 289.86226 
L 395.663875 288.329592 
L 402.560892 286.413747 
L 408.308416 283.348411 
L 414.822266 281.815733 
L 423.635127 280.283065 
L 432.831155 278.750396 
L 443.559861 276.834552 
L 451.223212 275.685051 
L 461.56875 275.685051 
L 472.297447 274.918716 
L 480.343974 274.535549 
L 489.156835 274.918716 
L 497.969696 275.685051 
L 507.932059 278.367229 
L 514.829075 281.815733 
L 522.875602 287.946425 
L 530.538962 294.077107 
L 538.585489 300.590966 
L 545.099339 304.039469 
L 549.697353 303.656302 
L 553.145866 300.590966 
L 553.9122 297.908787 
L 551.23003 293.310773 
L 548.547852 288.712759 
L 547.015183 284.497912 
L 545.482506 281.432566 
L 543.56667 279.133563 
L 541.650826 277.600895 
L 543.56667 274.918716 
L 544.333005 271.087036 
L 539.73499 266.489022 
L 532.454798 261.891008 
L 527.856783 258.825662 
L 522.492435 254.993982 
L 516.74492 251.162312 
L 512.146906 249.246467 
L 507.548892 248.480133 
L 503.334045 248.096966 
L 499.502365 247.713799 
L 494.138016 244.648453 
L 489.156835 241.583107 
L 481.110308 240.050439 
L 473.446948 238.517771 
L 468.848934 236.601926 
L 463.867753 236.218759 
L 458.886572 239.284105 
L 453.522223 239.667272 
L 445.858863 238.900938 
L 439.728181 238.900938 
L 432.831155 240.050439 
L 428.999475 240.816773 
L 427.08364 243.115785 
L 422.868793 246.947465 
L 416.354943 250.012801 
L 407.925249 253.461314 
L 400.261889 256.143493 
L 392.981696 258.825662 
L 386.467847 259.975173 
L 378.804487 261.124674 
L 372.290638 263.806844 
L 364.627278 267.255356 
L 358.113428 272.236538 
L 353.515414 274.918716 
L 348.534223 278.367229 
L 342.403541 281.815733 
L 338.571861 285.264246 
L 335.506525 287.946425 
L 330.90851 290.245427 
L 325.544153 293.69394 
L 319.413471 297.142453 
L 314.815456 301.3573 
L 311.316863 305.330376 
L 310.933696 308.778888 
L 314.765367 310.694724 
L 319.413471 312.085996 
" style="fill:none;stroke:#000000;stroke-linecap:square;stroke-width:1.5;"/>
   </g>
   <g id="line2d_8">
    <path clip-path="url(#p53ae398f7a)" d="M 332.959714 354.443299 
L 340.623073 352.910622 
L 348.286424 350.228452 
L 355.949784 347.163106 
L 364.379478 344.09776 
L 373.958674 341.032424 
L 384.68737 337.200744 
L 392.733897 334.518565 
L 401.546758 331.070062 
L 412.275455 328.387883 
L 421.471492 326.088871 
L 428.368509 325.322537 
L 437.947704 323.789869 
L 445.994231 323.023535 
L 455.573426 321.874024 
L 464.386288 321.490857 
L 472.049648 321.10769 
L 480.479342 321.10769 
L 489.292203 321.874024 
L 498.105064 321.874024 
L 506.151582 322.640367 
L 516.880288 324.93937 
L 528.375318 325.705704 
L 538.720857 326.472038 
L 545.617873 326.088871 
L 548.300052 323.406702 
L 547.150551 317.27601 
L 544.085205 310.76216 
L 540.253525 304.631478 
L 535.272344 300.033464 
L 530.291163 295.052273 
L 524.160471 290.837436 
L 518.412956 286.622589 
L 510.749596 283.557243 
L 504.618913 281.258231 
L 498.871398 280.491897 
L 491.591205 281.258231 
L 483.544678 282.024575 
L 473.965483 283.174076 
L 465.535789 284.323577 
L 457.489271 284.323577 
L 449.059577 285.089911 
L 442.162551 285.856245 
L 435.648702 287.388923 
L 428.368509 289.304758 
L 420.705149 291.60377 
L 414.957634 292.753271 
L 409.210118 293.902772 
L 401.163591 295.818617 
L 395.032909 297.351285 
L 386.220048 298.883953 
L 380.855699 300.799798 
L 375.874509 302.332466 
L 368.594325 305.397812 
L 363.996311 307.696815 
L 359.398297 310.378993 
L 354.417116 313.444339 
L 350.202269 317.27601 
L 346.370589 321.10769 
L 344.071577 324.556203 
L 343.305243 329.537384 
L 343.68841 333.369064 
L 341.389408 337.967078 
L 338.707229 342.181925 
L 335.641883 346.396772 
L 332.959714 350.611619 
L 331.810212 352.527455 
L 332.959714 354.443299 
" style="fill:none;stroke:#000000;stroke-linecap:square;stroke-width:1.5;"/>
   </g>
   <g id="line2d_9">
    <path clip-path="url(#p53ae398f7a)" d="M 140.612161 433.722817 
L 145.31795 430.102983 
L 151.109677 426.845134 
L 156.539427 422.863315 
L 159.797276 417.07158 
L 159.797276 412.727785 
L 158.711329 410.193897 
L 152.557618 407.298034 
L 147.127867 405.126132 
L 142.784063 402.230269 
L 136.992327 400.782337 
L 131.562586 401.506298 
L 129.752669 405.126132 
L 128.666713 410.555883 
L 126.132835 415.261663 
L 123.598948 419.243482 
L 121.06507 423.225301 
L 119.255153 426.483149 
L 117.083251 432.998846 
L 113.463417 438.790582 
L 110.205568 444.220333 
L 106.585735 447.840166 
L 103.327886 451.459991 
L 98.622097 452.183961 
L 93.554331 452.907932 
L 88.848551 453.269908 
L 85.590703 455.803795 
L 87.038634 459.785614 
L 88.848551 465.939326 
L 91.382438 470.645106 
L 94.278302 475.350896 
L 100.793999 477.522798 
L 106.585735 480.780646 
L 111.6535 481.504607 
L 118.893168 479.69469 
L 124.322918 477.522798 
L 127.580767 474.626925 
L 128.304728 471.007091 
L 127.580767 465.577341 
L 126.494811 460.509575 
L 125.046879 456.527766 
L 125.77085 453.993878 
L 127.942752 458.337682 
L 129.028698 461.957507 
L 129.028698 466.663296 
L 129.752669 471.007091 
L 133.372493 473.540979 
L 139.164229 474.26494 
L 144.955965 470.28313 
L 148.937784 465.215365 
L 148.937784 460.871561 
L 149.661745 454.717849 
L 149.661745 449.650083 
L 149.661745 445.306279 
L 146.765882 443.134377 
L 142.784063 440.600499 
L 140.974146 437.704626 
L 140.612161 433.722817 
" style="fill:none;stroke:#000000;stroke-linecap:square;stroke-width:1.5;"/>
   </g>
   <g id="line2d_10">
    <path clip-path="url(#p53ae398f7a)" d="M 94.640287 434.084793 
L 99.708052 429.740998 
L 103.327886 425.035218 
L 108.033666 421.053399 
L 113.825402 418.881496 
L 118.893168 416.347618 
L 122.513001 412.365799 
L 123.598948 409.107951 
L 115.635319 407.298034 
L 109.119613 406.574064 
L 104.413833 408.38398 
L 99.346067 412.003814 
L 96.81218 415.261663 
L 92.83037 420.329428 
L 90.296483 425.759179 
L 89.934498 430.826944 
L 94.640287 434.084793 
" style="fill:none;stroke:#000000;stroke-linecap:square;stroke-width:1.5;"/>
   </g>
  </g>
 </g>
 <defs>
  <clipPath id="p53ae398f7a">
   <rect height="699.84" width="933.12" x="0" y="0"/>
  </clipPath>
 </defs>
</svg>
