<?xml version="1.0" encoding="utf-8" standalone="no"?>
<!DOCTYPE svg PUBLIC "-//W3C//DTD SVG 1.1//EN"
  "http://www.w3.org/Graphics/SVG/1.1/DTD/svg11.dtd">
<!-- Created with matplotlib (https://matplotlib.org/) -->
<svg height="678.96pt" version="1.1" viewBox="0 0 933.12 678.96" width="933.12pt" xmlns="http://www.w3.org/2000/svg" xmlns:xlink="http://www.w3.org/1999/xlink">
 <defs>
  <style type="text/css">
*{stroke-linecap:butt;stroke-linejoin:round;}
  </style>
 </defs>
 <g id="figure_1">
  <g><image xlink:href="../../img/cb/langur_cor_cell.json.cb-50%25.png" width="933.12px" height="678.9599999999999px"/></g>

  <g id="patch_1">
   <path d="M 0 678.96 
L 933.12 678.96 
L 933.12 0 
L 0 0 
z
" style="fill:none;"/>
  </g>
  <g id="axes_1">
   <g id="line2d_1">
    <path clip-path="url(#p3a6f4a873f)" d="M 248.834728 450.696297 
L 251.131425 451.504725 
L 246.74453 451.504725 
L 243.193234 450.042423 
L 240.477537 450.251321 
L 238.388543 452.131417 
L 239.015245 450.251321 
L 237.552943 447.953429 
L 236.090641 445.864425 
L 235.255051 442.730933 
L 234.210545 439.806339 
L 233.166047 436.463941 
L 231.912653 434.166049 
L 229.823658 431.032557 
L 227.943561 429.15246 
L 226.690157 428.107954 
L 225.018967 429.988051 
L 223.974461 431.65925 
L 221.258774 436.881745 
L 220.214267 439.806339 
L 219.16977 443.357635 
L 218.751975 440.641939 
L 219.378677 438.552944 
L 220.632072 435.628341 
L 223.765563 429.988051 
L 225.64566 427.899056 
L 226.272362 425.810062 
L 225.854567 423.303263 
L 224.601163 419.751967 
L 223.138871 417.03628 
L 222.094364 414.738378 
L 221.258774 413.276077 
L 220.00537 413.902779 
L 218.125273 415.573978 
L 216.036278 417.03628 
L 214.156181 418.916376 
L 212.69388 420.587566 
L 211.440485 422.258766 
L 209.351491 426.227857 
L 209.978183 423.721067 
L 211.440485 421.214268 
L 213.320582 418.70747 
L 215.618483 416.409578 
L 220.423174 412.440486 
L 222.094364 410.56039 
L 222.721066 407.844693 
L 222.721066 404.920099 
L 222.929964 401.368803 
L 224.183368 398.653106 
L 225.436762 395.10181 
L 225.436762 387.790321 
L 224.183368 384.447931 
L 221.467671 382.776732 
L 218.33417 382.567835 
L 215.409576 383.403425 
L 209.142593 386.745823 
L 206.844692 388.834818 
L 205.382399 390.506017 
L 204.128995 393.639509 
L 202.666703 403.666695 
L 202.666703 413.067179 
L 202.248898 415.991773 
L 201.204401 417.245177 
L 201.622196 415.156183 
L 202.040001 410.56039 
L 202.457796 407.635786 
L 202.248898 405.128997 
L 202.248898 400.115399 
L 202.8756 397.399702 
L 203.084498 394.892913 
L 203.7112 392.803918 
L 204.755697 390.088222 
L 205.800195 388.208125 
L 203.084498 387.790321 
L 199.115407 388.62592 
L 192.221712 390.506017 
L 189.297118 391.968319 
L 186.790329 393.639509 
L 184.701325 395.310708 
L 183.239033 397.190805 
L 182.194535 398.862004 
L 181.776731 401.995496 
L 182.61233 406.382391 
L 184.492427 411.39598 
L 185.536925 415.156183 
L 189.088221 422.885468 
L 187.625919 420.587566 
L 184.910232 415.156183 
L 184.28353 413.276077 
L 183.44793 411.187082 
L 181.358936 403.040002 
L 179.896634 400.115399 
L 178.434342 398.026404 
L 176.13644 397.608609 
L 173.211846 398.653106 
L 170.913954 399.697604 
L 168.824951 400.950998 
L 166.944854 402.622198 
L 164.855859 404.711192 
L 163.18466 407.217991 
L 161.931265 409.515883 
L 160.468964 411.39598 
L 159.215569 414.947276 
L 158.588867 417.245177 
L 158.588867 420.169771 
L 159.424466 422.885468 
L 162.140163 428.525758 
L 166.109254 433.121551 
L 169.242755 435.419443 
L 175.718645 431.241455 
L 173.838548 433.330449 
L 170.49615 436.255043 
L 171.33175 438.761842 
L 172.376247 441.477538 
L 172.376247 443.357635 
L 174.256344 446.491127 
L 178.016537 450.460218 
L 182.61233 453.593719 
L 187.208124 456.936108 
L 192.848414 459.442907 
L 197.23531 459.651805 
L 199.7421 457.980605 
L 199.7421 455.473816 
L 200.159904 451.504725 
L 200.159904 442.522036 
L 198.488705 438.761842 
L 200.786606 441.686436 
L 201.622196 444.193235 
L 200.995504 447.744522 
L 200.577699 451.713622 
L 200.159904 458.189512 
L 201.204401 461.114106 
L 204.755697 464.247598 
L 209.142593 466.336592 
L 213.947284 467.798894 
L 218.960872 468.425596 
L 227.525757 466.754397 
L 222.512168 468.634494 
L 218.960872 469.261196 
L 217.080776 469.261196 
L 214.573977 468.843391 
L 210.604885 467.798894 
L 203.7112 464.665402 
L 201.831103 463.203101 
L 198.697602 461.114106 
L 195.355213 461.114106 
L 191.177215 459.651805 
L 184.074632 456.309416 
L 180.523336 454.011514 
L 177.598742 451.92252 
L 174.883046 448.789028 
L 172.167349 445.44663 
L 170.287252 441.686436 
L 169.451653 438.552944 
L 167.780453 435.628341 
L 165.273655 433.539347 
L 162.975763 430.82365 
L 160.677871 427.690159 
L 160.260066 426.227857 
L 158.797774 424.138862 
L 156.290975 421.632064 
L 154.20198 422.885468 
L 152.948576 425.392257 
L 151.06848 427.899056 
L 149.606187 431.868147 
L 148.979485 436.046146 
L 148.770588 440.015237 
L 148.979485 444.61103 
L 150.023982 448.162326 
L 152.739679 454.638216 
L 155.664273 459.651805 
L 159.842271 464.0387 
L 164.438064 469.261196 
L 170.287252 473.648082 
L 176.763142 476.363779 
L 184.492427 478.243875 
L 191.59502 479.288373 
L 198.07091 479.915075 
L 203.293396 480.541777 
L 209.142593 481.586274 
L 216.036278 482.421874 
L 222.512168 483.048566 
L 225.854567 481.795172 
L 228.570254 479.706177 
L 231.912653 477.617183 
L 244.864433 471.976883 
L 249.251329 470.932386 
L 254.264917 470.096786 
L 258.651813 470.096786 
L 264.114614 470.971651 
L 269.545998 472.851748 
L 275.812991 474.731845 
L 282.079983 476.820839 
L 287.720274 479.536536 
L 290.644868 481.207735 
L 291.689365 484.132329 
L 280.408784 483.087832 
L 275.812991 483.087832 
L 273.515099 482.878934 
L 270.381598 480.581033 
L 268.083706 478.700936 
L 265.785804 473.896245 
L 263.69681 473.47845 
L 260.981114 473.47845 
L 258.05652 472.851748 
L 255.549721 472.016149 
L 252.834033 471.807251 
L 249.90943 472.016149 
L 245.313637 472.851748 
L 241.135648 474.522947 
L 238.628849 475.14964 
L 235.495358 476.611942 
L 230.272862 479.95434 
L 228.601672 482.252232 
L 226.721566 485.594631 
L 225.885976 489.145918 
L 226.721566 492.070521 
L 229.646169 492.488316 
L 232.570763 491.652717 
L 240.300048 488.10142 
L 236.330957 490.190424 
L 233.824158 491.861614 
L 230.690667 492.906121 
L 228.392765 493.532813 
L 226.512669 493.532813 
L 225.050376 494.786217 
L 224.214777 497.084109 
L 224.423674 501.053201 
L 225.885976 507.320193 
L 229.019467 512.124884 
L 231.526266 515.467283 
L 233.824158 516.51178 
L 239.046654 515.049478 
L 242.180145 513.378288 
L 245.522544 510.662592 
L 248.029333 507.111296 
L 250.536132 504.395599 
L 252.416229 501.679903 
L 254.296326 499.382001 
L 255.340823 497.293007 
L 258.265417 494.577311 
L 255.340823 498.128607 
L 254.296326 500.635406 
L 252.207331 503.351102 
L 247.402641 509.826992 
L 241.76235 514.631683 
L 237.793249 515.885078 
L 234.241963 517.347379 
L 232.361866 517.974072 
L 231.944061 522.15207 
L 233.615261 527.165659 
L 235.913153 531.343657 
L 238.628849 533.432651 
L 240.92675 536.983947 
L 244.478047 540.117439 
L 248.447138 540.953039 
L 253.042931 539.281839 
L 256.803125 537.401743 
L 259.936616 535.103851 
L 262.86121 531.97035 
L 263.487912 529.46356 
L 263.070117 527.165659 
L 261.816713 524.658869 
L 261.607816 521.943173 
L 262.025611 520.898676 
L 262.443415 523.614363 
L 264.114614 526.747864 
L 266.412506 528.001258 
L 268.710408 526.121162 
L 275.395195 519.436374 
L 277.275292 517.765175 
L 277.901985 515.885078 
L 275.604093 514.422785 
L 278.737585 514.840581 
L 280.826588 512.333782 
L 284.168978 505.231199 
L 284.168978 502.515502 
L 282.915583 499.382001 
L 282.706685 496.039612 
L 283.12448 494.368413 
L 283.333378 497.084109 
L 283.96008 499.799806 
L 285.840177 501.8888 
L 288.138069 502.7244 
L 294.822866 501.8888 
L 290.853765 502.933298 
L 287.511376 504.186702 
L 285.840177 504.604497 
L 283.96008 506.693491 
L 283.12448 509.20029 
L 282.079983 511.707089 
L 280.617681 514.631683 
L 278.528687 519.436374 
L 286.257972 520.063076 
L 277.901985 520.063076 
L 275.604093 521.107573 
L 273.723996 522.360968 
L 272.261695 524.241065 
L 270.1727 525.703366 
L 268.710408 527.583463 
L 266.830311 529.045756 
L 276.857488 533.014856 
L 273.932894 533.223754 
L 271.0083 531.97035 
L 268.710408 530.716955 
L 266.203609 530.090253 
L 264.53241 530.29916 
L 263.279015 532.805949 
L 258.683222 536.77505 
L 253.251829 540.326337 
L 250.74503 541.579741 
L 249.700533 543.668735 
L 253.251829 548.682324 
L 259.518821 553.695921 
L 264.53241 556.202711 
L 269.754905 557.665013 
L 280.617681 557.665013 
L 283.751182 556.620515 
L 284.377875 551.815824 
L 285.004577 544.295437 
L 286.884674 541.579741 
L 286.257972 544.504335 
L 285.422382 547.428929 
L 285.004577 554.113716 
L 286.257972 557.247217 
L 289.391473 558.918407 
L 293.569462 559.754007 
L 299.209752 559.545109 
L 303.596648 558.500612 
L 307.147944 556.411618 
L 308.819143 553.487024 
L 309.028041 550.771327 
L 309.028041 547.846733 
L 309.445836 545.131037 
L 309.445836 539.490746 
L 308.192441 537.401743 
L 306.312344 535.103851 
L 304.014443 534.059353 
L 299.209752 535.103851 
L 303.178853 533.641549 
L 305.267847 532.388154 
L 305.685642 529.672458 
L 305.267847 521.525368 
L 306.312344 526.121162 
L 306.939046 529.46356 
L 307.147944 532.597052 
L 308.819143 535.312748 
L 311.325933 537.401743 
L 314.250527 537.610649 
L 317.801823 536.77505 
L 314.250527 538.237342 
L 311.53484 539.490746 
L 310.490333 541.579741 
L 310.908138 545.131037 
L 311.743737 548.055631 
L 312.161532 552.024722 
L 313.20603 555.784916 
L 315.503931 558.291715 
L 319.68192 558.918407 
L 323.473522 558.315267 
L 331.202817 556.644067 
L 334.754113 554.76397 
L 336.007507 552.674976 
L 335.171908 550.377084 
L 333.918513 547.45249 
L 330.367217 543.065594 
L 335.380805 548.496987 
L 338.514306 550.794879 
L 342.901193 550.377084 
L 346.870293 548.079183 
L 349.794887 545.363486 
L 351.048282 542.856697 
L 350.003785 539.723196 
L 348.332586 536.589704 
L 346.243591 533.66511 
L 343.527895 530.949414 
L 340.812198 529.069317 
L 331.411714 530.740516 
L 336.425303 529.487112 
L 339.558803 528.442615 
L 340.603301 525.935825 
L 338.305399 522.802324 
L 335.171908 519.459935 
L 332.247314 516.535332 
L 329.531617 514.23744 
L 326.607023 514.028542 
L 323.055727 514.655235 
L 319.922236 514.23744 
L 317.415437 513.192943 
L 315.744237 512.148445 
L 319.086636 512.775138 
L 321.802332 513.610738 
L 325.144722 513.40184 
L 328.069316 512.566241 
L 329.113813 511.103948 
L 327.860418 508.388252 
L 325.345772 506.894541 
L 323.88347 504.805547 
L 322.003373 502.507646 
L 319.914379 500.627549 
L 318.660984 498.747452 
L 317.40758 496.658457 
L 315.73639 495.61396 
L 314.691883 494.569463 
L 317.198682 494.987258 
L 318.243179 493.316059 
L 318.452077 491.853767 
L 318.452077 494.360565 
L 318.869881 496.44956 
L 320.332183 498.747452 
L 324.510172 503.969947 
L 326.390269 506.685644 
L 329.52376 509.819135 
L 332.030559 510.23694 
L 335.581855 509.192443 
L 338.297552 507.939038 
L 342.893345 507.312336 
L 337.044148 509.192443 
L 334.119554 510.654735 
L 332.030559 511.490335 
L 331.403857 513.370431 
L 332.239457 515.250528 
L 334.746256 518.38402 
L 337.253055 520.890819 
L 342.266643 526.531109 
L 344.773442 526.113314 
L 349.160328 523.397618 
L 344.355637 527.366709 
L 343.520038 529.455703 
L 345.191237 531.753605 
L 347.698036 534.678199 
L 353.129429 540.527387 
L 357.307418 542.407483 
L 361.276509 541.154089 
L 365.454507 539.691787 
L 369.005803 537.184997 
L 371.094798 535.304901 
L 372.139295 531.753605 
L 372.557099 528.620104 
L 370.8859 527.366709 
L 368.170204 525.904407 
L 366.290107 524.233217 
L 364.827805 522.770916 
L 362.947708 521.099716 
L 361.067611 519.010722 
L 360.023114 515.250528 
L 362.529913 519.219619 
L 364.618907 521.726418 
L 371.303695 527.157811 
L 374.228289 528.202308 
L 376.108386 526.113314 
L 377.570688 522.979813 
L 377.779585 519.846321 
L 377.570688 517.757327 
L 377.779585 515.041631 
L 378.19739 512.743729 
L 379.241887 509.40134 
L 380.704179 507.103439 
L 382.166481 504.387742 
L 383.628773 502.298748 
L 384.67328 500.000856 
L 381.957583 498.538554 
L 377.988483 498.120759 
L 371.7215 499.374154 
L 368.796906 500.209754 
L 365.24561 501.045353 
L 360.858714 502.716552 
L 363.57441 500.836456 
L 367.961306 499.583051 
L 371.512593 498.956359 
L 374.646094 498.120759 
L 378.406287 497.28516 
L 381.957583 497.911852 
L 385.091075 499.374154 
L 388.015669 498.120759 
L 390.731366 494.778361 
L 393.772189 488.070012 
L 394.607789 485.354315 
L 393.772189 483.056423 
L 391.683195 480.967429 
L 388.340796 479.714025 
L 384.580602 478.878425 
L 377.269113 480.340727 
L 369.957632 482.011926 
L 366.824131 483.683125 
L 363.272835 485.354315 
L 360.557139 486.398812 
L 357.841452 486.816617 
L 356.37915 488.487816 
L 355.752448 490.367913 
L 354.499053 492.24801 
L 350.947757 493.919209 
L 353.036751 492.24801 
L 354.916848 490.576811 
L 355.54355 489.114509 
L 355.54355 487.443319 
L 354.081258 486.398812 
L 347.396461 484.727622 
L 344.471867 484.518716 
L 338.622679 483.683125 
L 344.054072 483.683125 
L 347.605368 484.309818 
L 351.156655 484.727622 
L 357.21475 486.189915 
L 360.766046 485.77212 
L 362.85504 484.93652 
L 367.868629 482.429721 
L 370.793223 481.176326 
L 373.926723 480.549624 
L 380.611511 478.878425 
L 383.11831 477.62503 
L 382.700506 475.327138 
L 381.029306 472.820339 
L 378.731414 470.731345 
L 375.180118 468.851248 
L 372.255524 468.433444 
L 368.286433 469.060146 
L 363.899537 469.060146 
L 374.135621 467.597844 
L 376.64242 465.926654 
L 378.940312 463.628753 
L 382.909403 462.793153 
L 380.611511 463.628753 
L 378.731414 464.67325 
L 377.47802 465.926654 
L 377.060215 466.971151 
L 377.686917 468.433444 
L 379.775912 470.731345 
L 382.700506 473.238135 
L 384.7895 476.162738 
L 387.505196 477.833928 
L 391.056493 476.162738 
L 392.727692 474.073734 
L 395.025584 471.566945 
L 398.785777 466.762244 
L 402.754878 463.628753 
L 399.41248 467.180049 
L 397.114588 470.313541 
L 392.518794 475.744933 
L 391.683195 477.833928 
L 392.518794 480.549624 
L 395.652286 483.265321 
L 400.039182 484.309818 
L 406.097267 483.683125 
L 412.573157 482.429721 
L 417.795653 478.878425 
L 420.720247 475.327138 
L 422.600344 471.14914 
L 423.227046 468.015649 
L 422.391446 463.628753 
L 420.093545 460.704159 
L 416.751155 458.824062 
L 413.617655 457.988462 
L 410.901967 458.19736 
L 408.395169 457.779565 
L 407.350671 455.899468 
L 401.292576 453.183771 
L 396.278988 452.348172 
L 406.097267 451.094777 
L 410.275265 449.632475 
L 419.67575 445.663384 
L 422.809241 445.663384 
L 426.360537 448.587978 
L 431.165228 454.437166 
L 434.089822 459.03296 
L 436.125414 461.029286 
L 440.303403 461.655988 
L 444.899196 461.447081 
L 450.121692 461.029286 
L 457.015377 459.984789 
L 465.998066 459.566984 
L 474.145155 458.731394 
L 489.394827 456.015697 
L 497.372276 455.296327 
L 504.057063 453.207323 
L 508.861763 451.536133 
L 513.24865 449.864934 
L 517.426648 447.567033 
L 520.142344 444.851336 
L 519.975904 443.020574 
L 519.153974 442.198635 
L 514.1487 440.457676 
L 508.490559 439.369574 
L 503.920529 438.281462 
L 493.692368 438.281462 
L 487.816604 438.499085 
L 476.717963 439.587187 
L 472.583168 439.804809 
L 463.878344 441.328155 
L 459.090692 442.851502 
L 447.339184 445.898185 
L 444.074878 446.986287 
L 440.59295 447.856776 
L 436.458155 448.509633 
L 433.629085 446.551052 
L 431.235259 443.721981 
L 430.147157 441.110533 
L 429.711922 436.322881 
L 430.364779 433.711433 
L 431.888125 431.317607 
L 433.411463 429.359025 
L 436.458155 427.182821 
L 440.810563 425.877097 
L 436.675778 428.053301 
L 434.499574 430.011882 
L 432.758605 431.752851 
L 431.235259 434.364299 
L 430.800024 436.105259 
L 431.235259 441.545778 
L 432.323361 443.504359 
L 434.717187 445.027705 
L 437.763879 445.245328 
L 441.028185 445.027705 
L 449.515387 444.157226 
L 457.784968 442.198635 
L 461.70214 440.892911 
L 467.577894 439.587187 
L 472.583168 438.716707 
L 477.153198 438.281462 
L 494.345225 437.193361 
L 503.485285 437.410983 
L 509.361048 438.716707 
L 516.542526 440.457676 
L 520.459689 441.981013 
L 520.831052 443.002247 
L 524.947035 445.060243 
L 529.125024 446.104741 
L 533.720817 445.478039 
L 537.272114 446.731433 
L 543.121302 449.029335 
L 547.717095 450.282729 
L 543.748004 450.700534 
L 538.525508 451.118329 
L 536.227616 452.580631 
L 533.720817 454.878523 
L 532.467423 457.594219 
L 530.796223 460.309916 
L 529.125024 462.39891 
L 528.080527 465.950206 
L 528.498331 471.172701 
L 529.125024 475.768495 
L 531.214028 479.110884 
L 535.600914 482.244385 
L 539.98781 486.004579 
L 546.881495 489.97367 
L 551.477289 490.809269 
L 561.504475 497.28516 
L 565.89137 501.045353 
L 569.23376 505.641146 
L 571.740559 511.072539 
L 575.082957 515.668323 
L 579.052048 517.966225 
L 583.856739 518.592927 
L 586.209601 517.773031 
L 588.925298 515.057335 
L 590.178693 511.088244 
L 591.014292 507.32805 
L 591.223199 503.150052 
L 590.178693 499.180961 
L 585.358297 493.625491 
L 580.553606 490.074195 
L 570.108625 482.971603 
L 565.721729 480.673711 
L 559.663644 478.584707 
L 564.468335 480.047009 
L 568.228528 481.50931 
L 572.406517 483.598305 
L 575.748915 485.687299 
L 578.67351 488.194098 
L 582.642601 490.49199 
L 586.193897 493.207686 
L 588.073994 493.416584 
L 589.536295 491.536487 
L 590.371895 488.402996 
L 589.327398 485.687299 
L 585.358297 482.971603 
L 578.464612 477.122415 
L 574.495521 473.988914 
L 571.153122 471.691022 
L 569.064128 469.184223 
L 565.303934 465.841834 
L 562.37934 464.379532 
L 558.619146 464.170634 
L 553.605549 464.379532 
L 549.636457 463.961737 
L 546.502966 462.08164 
L 542.11607 458.112539 
L 546.294059 461.24604 
L 549.42756 463.126137 
L 556.947947 463.543932 
L 561.125936 463.335035 
L 568.228528 465.215131 
L 571.153122 463.75283 
L 569.899727 461.24604 
L 565.721729 458.948139 
L 561.125936 456.023545 
L 568.437426 459.783739 
L 572.406517 462.290537 
L 575.957813 463.75283 
L 585.567195 464.797336 
L 590.78969 464.797336 
L 594.340986 465.841834 
L 588.700696 465.632927 
L 583.269303 465.632927 
L 578.67351 465.424029 
L 574.077716 464.797336 
L 571.36202 466.050731 
L 571.153122 468.766428 
L 573.033219 471.06432 
L 575.331111 473.362221 
L 578.67351 476.495712 
L 582.224806 479.420306 
L 585.776102 482.762705 
L 589.745193 485.896197 
L 592.460889 486.314001 
L 596.847785 486.522899 
L 603.950368 485.687299 
L 608.963966 485.269504 
L 613.141955 484.224997 
L 615.857651 483.389407 
L 618.155543 481.50931 
L 616.902148 483.389407 
L 615.648753 484.642802 
L 614.395349 485.478401 
L 611.261858 485.896197 
L 599.981277 486.731796 
L 596.221083 487.358498 
L 592.878685 488.402996 
L 591.416392 489.65639 
L 590.162988 491.954292 
L 589.745193 493.416584 
L 589.954091 496.13228 
L 590.371895 497.80348 
L 591.62529 500.519176 
L 592.669787 503.44377 
L 593.087591 505.741671 
L 596.638878 505.741671 
L 600.399072 505.114969 
L 605.830465 503.025975 
L 599.981277 505.741671 
L 593.923182 506.786169 
L 592.251992 508.248461 
L 590.998588 510.75526 
L 589.745193 514.306556 
L 589.536295 517.022252 
L 590.162988 520.364642 
L 592.669787 523.70704 
L 595.594381 525.169333 
L 598.727882 524.124835 
L 603.114768 521.409139 
L 608.128366 518.902349 
L 612.306355 515.977755 
L 616.693251 513.053152 
L 620.453444 509.501865 
L 623.169141 506.159467 
L 625.884837 502.190375 
L 629.018329 497.385685 
L 631.107323 495.505588 
L 634.658619 492.580984 
L 630.689528 496.96788 
L 621.706839 509.084061 
L 619.408947 511.59086 
L 616.484353 514.515454 
L 613.141955 516.186653 
L 609.590658 518.693442 
L 606.666064 520.364642 
L 599.354575 524.751537 
L 597.056683 527.049429 
L 595.176586 530.391828 
L 593.923182 534.987621 
L 594.967688 539.16561 
L 597.474478 542.925804 
L 601.443578 545.6415 
L 604.159266 546.059305 
L 606.666064 543.761403 
L 609.590658 541.881306 
L 612.933057 540.00121 
L 619.617845 534.778724 
L 620.871239 533.107524 
L 619.408947 535.614323 
L 617.737748 537.285513 
L 615.648753 538.956712 
L 610.217361 542.716906 
L 605.830465 546.059305 
L 605.621567 547.939401 
L 606.906371 551.622631 
L 610.457667 555.80062 
L 615.262358 558.516317 
L 619.649254 559.560814 
L 624.871749 559.769711 
L 629.467542 559.351916 
L 632.601034 557.889615 
L 634.690028 554.965021 
L 636.15233 547.235736 
L 636.361227 544.520039 
L 636.779032 541.804343 
L 638.450222 539.088646 
L 640.748123 536.999652 
L 643.254913 534.075058 
L 644.299419 530.523762 
L 644.717214 526.55467 
L 645.761712 523.838974 
L 646.597311 520.496575 
L 647.015106 516.736382 
L 647.015106 511.931691 
L 646.806209 509.007097 
L 647.015106 505.873596 
L 647.850706 510.887194 
L 647.641808 515.482987 
L 648.26851 519.452078 
L 649.730803 522.58557 
L 649.313008 525.301266 
L 647.850706 528.434767 
L 646.388414 530.105957 
L 645.343916 532.403859 
L 644.090512 534.283955 
L 642.419322 536.37295 
L 641.374816 538.044149 
L 638.032427 541.804343 
L 637.614622 544.311142 
L 636.987929 547.235736 
L 635.31673 554.129421 
L 635.31673 557.471819 
L 637.405725 559.351916 
L 642.62822 559.769711 
L 647.641808 559.978618 
L 652.028704 559.143019 
L 654.117699 557.680717 
L 653.282099 555.173918 
L 652.237602 553.502728 
L 653.073201 549.533628 
L 654.326596 553.502728 
L 655.997795 556.845117 
L 659.131287 557.054015 
L 663.100388 555.591723 
L 666.651684 552.876026 
L 669.994073 549.115832 
L 671.456375 545.773434 
L 672.291974 542.222138 
L 672.709769 538.879749 
L 673.754266 533.657253 
L 673.545369 531.986063 
L 671.03857 531.568259 
L 665.607177 531.359361 
L 669.994073 530.941557 
L 674.172071 531.568259 
L 676.052168 529.688162 
L 678.141162 527.39027 
L 679.185659 524.047872 
L 680.021259 520.91438 
L 680.439054 515.065183 
L 680.230157 510.887194 
L 679.603455 505.873596 
L 678.35006 501.48671 
L 677.51446 496.890916 
L 675.425466 493.966322 
L 672.291974 492.086225 
L 668.949576 491.250626 
L 664.771587 491.459523 
L 662.473685 492.295123 
L 659.340194 494.384117 
L 657.25119 495.010819 
L 655.162196 495.428615 
L 653.699903 495.219717 
L 650.775309 495.846419 
L 649.10411 497.517618 
L 647.432911 498.144311 
L 645.970609 496.473112 
L 644.508317 495.428615 
L 643.46382 493.548518 
L 642.62822 491.250626 
L 641.374816 489.370529 
L 642.837118 487.281535 
L 645.552814 486.237028 
L 648.477408 485.819233 
L 655.371093 483.939136 
L 658.922389 484.356931 
L 665.189382 483.939136 
L 670.20297 484.356931 
L 677.305563 484.565838 
L 681.065756 484.148034 
L 687.332749 485.401438 
L 692.555235 485.819233 
L 695.611763 485.478401 
L 697.909664 484.851699 
L 702.923252 485.269504 
L 707.519046 484.642802 
L 708.981347 483.389407 
L 707.519046 481.091506 
L 703.96775 479.420306 
L 699.998658 478.166912 
L 696.447362 476.495712 
L 692.269373 474.19782 
L 698.536366 476.913517 
L 707.519046 480.255906 
L 710.44364 482.971603 
L 712.950439 484.433904 
L 715.666135 484.851699 
L 717.337334 481.50931 
L 716.91953 484.642802 
L 719.217431 485.896197 
L 722.55982 486.105094 
L 728.409018 486.314001 
L 741.360798 486.314001 
L 744.49429 485.060597 
L 743.867588 482.762705 
L 739.480701 478.584707 
L 744.285392 481.091506 
L 748.463381 482.553807 
L 753.268072 483.598305 
L 757.863865 484.0161 
L 760.40993 485.872645 
L 763.629931 485.058162 
L 765.948949 483.213953 
L 767.530624 481.417911 
L 769.154206 479.871554 
L 771.064303 478.328621 
L 772.308815 477.573662 
L 774.114355 476.252691 
L 776.436172 475.275761 
L 779.058995 474.807325 
L 782.473151 474.47604 
L 785.710835 473.730122 
L 788.710619 472.452429 
L 791.118181 469.99627 
L 794.042775 467.280574 
L 797.385164 463.102576 
L 798.847466 459.969084 
L 799.265261 457.462285 
L 799.891963 454.746589 
L 800.727563 448.061801 
L 801.354265 455.582188 
L 801.145358 458.924587 
L 799.683066 462.266976 
L 795.29617 467.698369 
L 792.789371 470.205168 
L 790.282581 471.876367 
L 791.535976 474.174259 
L 796.340667 475.636561 
L 800.518665 475.427654 
L 804.069952 473.33866 
L 807.830146 466.862769 
L 809.919149 462.058079 
L 812.843743 453.910989 
L 813.470445 449.106298 
L 813.888241 444.719403 
L 813.145309 439.697911 
L 811.474119 434.475471 
L 810.220715 429.461883 
L 808.340618 424.03049 
L 806.251624 419.016892 
L 803.953732 414.630006 
L 801.864728 409.825315 
L 799.775734 406.065112 
L 796.224438 402.513825 
L 793.299844 400.424821 
L 790.166352 399.380324 
L 787.241758 398.962529 
L 786.197251 400.215924 
L 787.032851 403.349425 
L 787.032851 406.274019 
L 786.823953 410.034212 
L 785.988354 413.585509 
L 784.943857 416.510103 
L 783.899359 418.599097 
L 784.108257 420.479194 
L 785.988354 422.985993 
L 787.659553 426.119484 
L 789.53965 428.835181 
L 791.210849 431.759775 
L 792.464244 434.893266 
L 793.090946 437.81787 
L 791.837551 434.893266 
L 790.375249 432.595374 
L 789.748547 430.715278 
L 788.286255 427.790684 
L 787.032851 425.910587 
L 785.570559 423.403788 
L 784.317155 422.150393 
L 782.437058 421.941496 
L 780.348063 422.568188 
L 777.632367 424.239387 
L 776.170074 426.746186 
L 775.543372 429.252976 
L 775.75227 431.759775 
L 775.75227 434.475471 
L 776.378972 436.98227 
L 776.796767 440.115762 
L 777.841274 442.622561 
L 780.974765 444.502657 
L 783.06376 446.591652 
L 784.526061 449.098451 
L 782.645965 447.009447 
L 780.348063 445.12935 
L 778.676864 444.084853 
L 776.796767 443.45816 
L 775.961177 445.12935 
L 775.543372 451.60524 
L 774.498875 458.290037 
L 774.707773 453.903142 
L 775.125577 450.351846 
L 775.543372 444.084853 
L 776.170074 441.578063 
L 775.961177 438.65346 
L 775.543372 436.146671 
L 774.707773 434.057676 
L 772.827676 433.222077 
L 771.156477 434.475471 
L 769.694184 437.608963 
L 766.978488 443.040356 
L 765.516186 444.920453 
L 763.427192 446.800549 
L 761.547095 448.889544 
L 761.1293 454.112039 
L 760.711495 457.036633 
L 760.711495 460.170134 
L 759.875896 463.094728 
L 759.040296 466.646024 
L 757.786901 469.988414 
L 758.413603 465.810425 
L 759.249203 462.468026 
L 760.502598 459.75233 
L 760.502598 456.827736 
L 760.711495 454.112039 
L 760.711495 452.023045 
L 760.084793 450.142948 
L 758.204696 451.396343 
L 755.906804 453.067542 
L 752.98221 454.320937 
L 750.684309 455.574341 
L 749.013119 456.618838 
L 746.715218 457.454438 
L 744.417326 457.663335 
L 747.759715 454.947639 
L 750.475412 454.320937 
L 757.786901 450.351846 
L 760.711495 448.053954 
L 763.218294 445.338257 
L 765.307289 443.249253 
L 766.76959 441.160259 
L 768.231883 438.65346 
L 769.903082 436.146671 
L 772.618778 430.924175 
L 772.200974 428.835181 
L 770.738682 425.701689 
L 769.067482 422.568188 
L 766.978488 419.643594 
L 765.307289 414.838903 
L 767.814088 419.016892 
L 769.485287 422.150393 
L 772.618778 427.163982 
L 774.707773 426.537279 
L 776.378972 424.86609 
L 778.050171 422.777086 
L 780.348063 421.523691 
L 781.810365 419.852492 
L 784.526061 413.794406 
L 785.361661 410.660905 
L 785.361661 407.527414 
L 785.570559 403.76722 
L 784.943857 400.215924 
L 784.317155 395.411233 
L 782.019263 391.233244 
L 778.467966 388.308641 
L 771.156477 384.130652 
L 767.814088 382.459453 
L 764.889493 381.623853 
L 762.382695 381.623853 
L 761.1293 382.459453 
L 761.1293 384.966252 
L 762.591592 388.308641 
L 764.680587 391.859937 
L 765.307289 394.993438 
L 766.351786 398.126929 
L 766.560683 400.842626 
L 765.725093 396.873535 
L 764.262791 393.113341 
L 762.80049 390.188738 
L 761.755993 387.055246 
L 758.831399 381.832751 
L 756.3246 379.325961 
L 752.98221 377.654762 
L 746.297423 377.236967 
L 743.999521 377.863659 
L 742.746127 379.743756 
L 743.790624 382.66835 
L 748.386417 390.606542 
L 750.057616 394.157838 
L 751.728806 398.126929 
L 752.773313 402.722723 
L 753.400006 407.527414 
L 754.235605 412.958807 
L 753.400006 409.825315 
L 752.355508 402.304918 
L 751.519909 399.171427 
L 750.475412 396.037935 
L 747.759715 390.81544 
L 746.50632 388.099743 
L 742.537229 382.459453 
L 740.448225 380.579356 
L 737.732529 379.325961 
L 734.181242 378.908157 
L 731.256648 379.534859 
L 730.003244 382.459453 
L 730.212142 386.219646 
L 730.212142 390.81544 
L 730.838844 394.575633 
L 731.883341 398.544725 
L 733.345642 401.678226 
L 735.434637 405.229522 
L 738.359231 408.780808 
L 741.283825 414.421099 
L 747.133022 418.390199 
L 744.626223 417.345702 
L 742.537229 416.927898 
L 741.910527 419.016892 
L 741.910527 421.523691 
L 741.074927 424.448285 
L 739.612626 430.088576 
L 738.568128 432.386477 
L 736.270237 436.98227 
L 737.105836 434.266574 
L 738.985933 429.461883 
L 739.194831 427.163982 
L 740.03043 424.657183 
L 740.657132 422.150393 
L 741.492732 417.136795 
L 741.074927 415.047801 
L 740.03043 413.167704 
L 738.985933 410.452008 
L 737.314734 407.945218 
L 735.016842 405.229522 
L 733.136745 403.76722 
L 730.838844 402.93162 
L 728.958747 403.76722 
L 727.91425 405.229522 
L 726.034153 413.794406 
L 724.989656 416.719 
L 723.527354 420.061399 
L 722.065061 422.777086 
L 721.020564 425.074987 
L 720.60276 427.163982 
L 721.020564 429.044078 
L 721.229462 431.550877 
L 723.318456 435.102173 
L 725.616348 437.81787 
L 726.24305 440.951361 
L 726.451948 444.084853 
L 725.616348 441.578063 
L 725.198553 439.906864 
L 724.362953 437.81787 
L 722.900661 436.146671 
L 721.856155 434.266574 
L 719.76716 432.177579 
L 717.678166 431.968672 
L 713.082372 432.804272 
L 709.322179 434.893266 
L 705.97978 436.564466 
L 704.30859 438.026767 
L 703.681888 439.906864 
L 703.264084 437.81787 
L 702.846289 436.355568 
L 702.010689 435.311071 
L 698.877197 432.595374 
L 700.548397 432.177579 
L 702.846289 432.595374 
L 704.935283 433.848769 
L 707.233184 433.01317 
L 709.739974 432.595374 
L 712.873475 431.34198 
L 715.589171 430.50638 
L 717.469268 428.835181 
L 719.140467 426.746186 
L 720.393862 424.657183 
L 721.229462 421.941496 
L 723.945158 417.136795 
L 725.825255 412.749909 
L 727.07865 405.438419 
L 726.451948 402.93162 
L 724.989656 400.633728 
L 722.900661 399.171427 
L 720.60276 398.753631 
L 717.887063 397.500227 
L 714.544674 396.45573 
L 711.620071 396.45573 
L 703.681888 399.798129 
L 702.219587 401.469328 
L 702.428494 403.976117 
L 703.472991 407.527414 
L 706.81538 412.749909 
L 704.099683 409.616408 
L 702.846289 407.736311 
L 702.637391 405.438419 
L 701.383987 403.140518 
L 699.086095 402.304918 
L 696.579296 402.096021 
L 694.072507 402.722723 
L 691.774605 403.976117 
L 689.685611 405.856214 
L 688.014412 408.154116 
L 687.596616 410.24311 
L 689.685611 413.585509 
L 693.236907 417.972395 
L 690.939006 415.883401 
L 688.850011 414.212201 
L 688.014412 412.749909 
L 686.343212 411.914309 
L 684.463116 412.958807 
L 682.861032 414.421099 
L 680.980936 416.719 
L 680.980936 419.434697 
L 680.56314 424.448285 
L 679.936438 426.955084 
L 679.936438 429.044078 
L 680.980936 432.177579 
L 685.158934 436.355568 
L 681.39874 433.639872 
L 678.474146 430.297482 
L 676.385142 429.879678 
L 673.669446 430.088576 
L 670.118159 430.50638 
L 667.402463 430.50638 
L 664.268962 430.088576 
L 667.820258 429.879678 
L 671.580451 429.461883 
L 675.75845 428.835181 
L 678.474146 428.208479 
L 679.309736 426.119484 
L 679.727541 422.985993 
L 680.145336 420.896989 
L 680.145336 414.838903 
L 679.100839 412.749909 
L 676.385142 410.034212 
L 673.669446 409.198613 
L 671.580451 408.780808 
L 670.118159 407.318516 
L 667.61136 406.065112 
L 665.104561 405.647317 
L 661.762172 406.065112 
L 659.255373 407.109618 
L 657.584174 408.154116 
L 656.539677 410.869812 
L 653.615083 414.212201 
L 652.152781 415.465605 
L 650.690489 416.301196 
L 650.899386 418.390199 
L 647.34809 415.256698 
L 643.796794 411.914309 
L 647.556988 414.421099 
L 649.019289 415.256698 
L 650.690489 415.047801 
L 652.570586 413.585509 
L 654.241785 412.123207 
L 655.912975 410.034212 
L 656.748574 407.945218 
L 656.330779 406.065112 
L 653.197278 403.976117 
L 650.481582 401.678226 
L 646.512491 398.753631 
L 655.49518 404.393922 
L 658.210876 405.020615 
L 660.717666 404.185015 
L 661.97107 402.722723 
L 661.553265 400.424821 
L 660.508768 397.918032 
L 658.628671 394.157838 
L 661.344368 398.335827 
L 662.597772 400.633728 
L 663.851167 403.76722 
L 665.731263 405.020615 
L 668.029155 405.647317 
L 670.953749 406.900712 
L 673.669446 408.571911 
L 676.385142 409.616408 
L 679.100839 411.07871 
L 681.607638 411.914309 
L 685.158934 410.660905 
L 687.247928 408.780808 
L 688.501323 406.482916 
L 689.336923 404.393922 
L 689.128025 402.096021 
L 687.247928 400.215924 
L 684.323334 398.544725 
L 680.980936 396.873535 
L 675.340645 393.740034 
L 672.833846 391.233244 
L 676.802947 393.740034 
L 688.292425 400.215924 
L 691.425917 401.678226 
L 694.768316 401.678226 
L 698.528509 401.051523 
L 702.079805 400.215924 
L 704.1688 398.962529 
L 705.631101 397.500227 
L 706.884496 396.037935 
L 707.093394 394.366736 
L 706.466701 391.233244 
L 708.137891 394.575633 
L 709.80909 395.829037 
L 712.106991 396.037935 
L 715.031586 396.037935 
L 717.538375 396.873535 
L 724.849865 399.798129 
L 727.983366 401.678226 
L 730.07236 401.260421 
L 730.699062 399.589231 
L 730.699062 397.500227 
L 730.490155 394.993438 
L 730.07236 392.068834 
L 730.07236 389.770942 
L 729.654556 387.47305 
L 729.445658 384.548447 
L 728.192263 381.414956 
L 726.521064 378.699259 
L 724.014265 375.35687 
L 721.716373 372.850071 
L 719.836276 370.343272 
L 717.329477 369.089877 
L 715.859328 371.046938 
L 714.188129 373.762634 
L 712.308032 376.269433 
L 709.174541 378.567325 
L 711.263535 376.478331 
L 712.516939 374.598234 
L 714.188129 372.718137 
L 715.232626 370.420236 
L 715.650431 368.331241 
L 713.143632 365.406647 
L 709.174541 363.317653 
L 706.041049 361.228659 
L 702.489753 360.810854 
L 698.102857 358.512962 
L 695.387161 358.512962 
L 689.74687 356.215061 
L 686.613379 355.170564 
L 683.062082 354.543862 
L 680.137488 354.334964 
L 677.421792 354.334964 
L 675.332798 354.961666 
L 675.95949 357.259558 
L 677.421792 359.557459 
L 679.092991 362.482053 
L 681.181986 364.571048 
L 683.897682 369.793543 
L 684.942179 372.300333 
L 688.911271 373.762634 
L 692.044772 375.224936 
L 695.178263 377.522828 
L 692.044772 376.269433 
L 690.164675 374.807132 
L 685.151077 373.344839 
L 683.27098 373.553737 
L 679.719684 376.478331 
L 677.003988 377.522828 
L 674.706096 378.14953 
L 672.408204 377.940632 
L 675.750593 377.522828 
L 678.675187 376.269433 
L 682.43538 373.135932 
L 683.27098 371.67364 
L 682.017585 368.122344 
L 679.510786 363.735448 
L 677.839587 361.646454 
L 676.377295 359.348562 
L 671.363697 352.663765 
L 666.350109 347.650176 
L 663.00771 344.93448 
L 659.456423 342.845485 
L 655.069528 341.800988 
L 652.144934 341.592081 
L 650.473734 340.338687 
L 647.131336 338.667487 
L 643.788947 337.62299 
L 640.446548 336.996297 
L 639.193153 338.040795 
L 640.028753 341.383184 
L 641.491045 343.472187 
L 642.953347 346.814577 
L 643.788947 350.365873 
L 643.371142 353.708262 
L 643.580049 356.006163 
L 643.997844 357.88626 
L 647.758038 364.153253 
L 645.042341 361.228659 
L 641.282148 356.841763 
L 641.07325 354.543862 
L 641.282148 351.201472 
L 641.699952 348.276878 
L 641.282148 345.143377 
L 639.819855 342.009886 
L 637.730852 338.45859 
L 633.970658 334.280601 
L 629.792669 331.355998 
L 625.614671 328.64031 
L 621.854477 326.760214 
L 617.885386 325.715707 
L 615.378587 324.462312 
L 611.618394 323.417815 
L 608.6938 323.00002 
L 605.35141 321.537718 
L 601.591217 319.448724 
L 597.683375 318.59742 
L 592.460889 316.299518 
L 588.491798 313.792729 
L 585.1494 312.12153 
L 583.060405 314.210524 
L 584.940502 316.92622 
L 589.327398 320.686414 
L 593.296489 324.23771 
L 594.758781 328.206801 
L 595.803279 331.5492 
L 598.93678 336.353891 
L 603.74147 340.740787 
L 607.501664 343.456474 
L 611.88856 345.545477 
L 614.813154 345.545477 
L 616.484353 346.17217 
L 618.155543 349.514569 
L 620.662342 353.065865 
L 624.84034 357.452751 
L 628.391627 362.257451 
L 631.942923 366.644338 
L 636.538716 371.866833 
L 640.090012 375.209232 
L 634.867517 370.613438 
L 632.15182 367.897742 
L 626.720437 360.586252 
L 623.795843 357.034956 
L 621.080146 354.945962 
L 618.991143 352.021368 
L 616.693251 349.723466 
L 606.666064 343.665381 
L 599.354575 337.398388 
L 597.474478 334.891589 
L 594.340986 330.504703 
L 592.460889 328.833504 
L 588.073994 325.282207 
L 584.731605 323.402111 
L 581.807001 321.939809 
L 578.882407 320.059712 
L 575.331111 317.970718 
L 571.988722 316.508425 
L 567.810724 315.463919 
L 563.632735 315.463919 
L 559.872541 316.090621 
L 557.156845 317.76182 
L 557.365742 321.730911 
L 559.872541 324.864412 
L 570.735327 335.936086 
L 572.615424 338.442885 
L 576.375618 341.158582 
L 578.255714 343.456474 
L 572.824321 342.411977 
L 570.317523 344.083176 
L 570.317523 347.216667 
L 571.988722 349.514569 
L 579.091314 352.230265 
L 588.073994 357.034956 
L 601.861374 364.764241 
L 606.039362 368.524435 
L 613.768657 374.373632 
L 607.083869 370.195634 
L 602.905871 370.195634 
L 596.012185 373.74693 
L 592.34466 373.863159 
L 587.539969 373.863159 
L 595.060356 373.02756 
L 597.98495 372.19196 
L 602.162949 369.058468 
L 601.954042 367.387269 
L 600.282842 365.507172 
L 597.776053 363.627076 
L 594.015859 361.538081 
L 592.762455 360.493584 
L 580.855181 354.226591 
L 574.797086 351.92869 
L 569.365694 349.004096 
L 564.7699 347.541804 
L 559.965209 345.4528 
L 549.729126 340.648109 
L 545.551137 338.97691 
L 541.373139 338.559115 
L 536.777345 338.768012 
L 531.972654 338.350217 
L 526.959066 337.30572 
L 521.945468 336.47012 
L 517.140777 334.798921 
L 512.753891 333.127722 
L 508.993697 332.083225 
L 503.353397 332.083225 
L 498.184323 332.26857 
L 495.050822 332.26857 
L 490.246131 331.432971 
L 485.441441 331.015166 
L 480.427852 331.850766 
L 476.667649 332.686365 
L 466.84937 333.93976 
L 462.462474 334.77536 
L 457.866681 335.193164 
L 453.06199 336.446559 
L 445.7505 338.74446 
L 439.483517 340.206753 
L 426.740634 343.758049 
L 422.144841 345.22035 
L 417.131253 345.429248 
L 411.073158 346.055941 
L 405.850662 346.89154 
L 402.987337 347.835522 
L 397.973739 349.924516 
L 393.377946 350.969014 
L 380.217268 355.564807 
L 371.861281 358.907205 
L 368.936687 359.742796 
L 364.131996 363.711896 
L 368.309985 359.325 
L 369.981184 356.609304 
L 370.607886 354.311412 
L 372.070179 350.133414 
L 373.950275 346.164323 
L 375.412577 341.150725 
L 376.457074 336.972736 
L 377.919376 333.003645 
L 378.546069 329.661246 
L 379.962461 327.839731 
L 379.962461 325.332941 
L 376.620062 326.168531 
L 370.35307 329.302032 
L 367.219578 331.599924 
L 364.503882 334.106723 
L 356.774597 338.284712 
L 353.641096 341.000409 
L 350.298707 343.507207 
L 348.209703 345.805109 
L 346.747411 347.894103 
L 344.449509 350.191995 
L 341.94272 352.072092 
L 338.809219 354.787788 
L 336.929122 357.294587 
L 335.084512 359.549108 
L 335.675727 358.130187 
L 334.840128 356.876783 
L 332.333329 357.503485 
L 326.901945 359.801386 
L 324.604044 361.263679 
L 326.484141 358.965787 
L 327.946442 358.75688 
L 330.244334 357.294587 
L 332.333329 356.667885 
L 334.213426 356.458988 
L 336.302429 356.041193 
L 337.973619 354.996686 
L 339.644818 353.534394 
L 342.151617 351.654297 
L 345.285109 348.520796 
L 349.25421 343.716105 
L 351.760999 341.209315 
L 354.685593 338.911414 
L 357.40129 337.031317 
L 360.325884 335.569025 
L 363.459385 333.480021 
L 366.175081 331.808822 
L 368.890777 329.302032 
L 370.979772 326.586336 
L 373.277664 324.079537 
L 375.157761 320.946045 
L 377.873457 317.603647 
L 380.171358 314.052351 
L 382.260353 309.874362 
L 383.095953 306.531964 
L 384.349347 304.234072 
L 386.020547 300.891673 
L 386.020547 298.593781 
L 381.215856 300.891673 
L 372.650971 304.860774 
L 369.51747 306.114168 
L 362.20599 310.501064 
L 353.850003 316.768047 
L 351.969906 318.439247 
L 347.791908 320.737148 
L 343.613919 322.408338 
L 337.973619 325.124034 
L 335.675727 325.959634 
L 331.079934 326.795234 
L 328.782042 328.257535 
L 326.484141 330.137632 
L 320.426055 333.480021 
L 318.963753 334.942323 
L 316.874759 339.538116 
L 316.039159 342.044906 
L 315.621355 344.342807 
L 314.785765 347.894103 
L 314.785765 350.818697 
L 315.412457 354.996686 
L 314.159062 353.325496 
L 313.741258 350.191995 
L 313.53236 347.267401 
L 313.950165 345.178407 
L 314.785765 342.46271 
L 315.830262 340.164809 
L 317.292554 335.15122 
L 314.785765 336.404615 
L 312.278966 337.449122 
L 306.638675 340.164809 
L 304.340774 341.627111 
L 302.460677 344.551705 
L 301.41618 346.849606 
L 300.998385 350.191995 
L 300.789487 353.325496 
L 301.41618 355.623388 
L 301.833984 358.339085 
L 301.833984 360.845883 
L 302.042882 363.143775 
L 302.460677 365.650574 
L 303.296277 368.784066 
L 305.176373 372.753157 
L 306.847573 375.67776 
L 308.309874 378.811252 
L 306.429778 377.557857 
L 304.131876 377.34895 
L 301.207282 378.18455 
L 297.864884 379.437954 
L 294.522495 380.273554 
L 291.180096 380.900247 
L 296.193694 379.437954 
L 299.744981 377.975652 
L 305.176373 375.886658 
L 304.758578 374.215459 
L 303.087379 370.664163 
L 302.251779 368.366271 
L 299.953887 364.39717 
L 298.491586 363.352673 
L 296.611489 362.72598 
L 294.731392 363.56158 
L 290.553403 367.112867 
L 287.837707 368.784066 
L 291.388994 365.441677 
L 294.10469 362.72598 
L 295.149197 360.636977 
L 295.775889 357.712382 
L 295.775889 353.952189 
L 294.94029 350.6098 
L 293.477997 348.9386 
L 290.344496 348.9386 
L 287.002107 349.7742 
L 284.286411 350.6098 
L 281.570714 352.907692 
L 280.108413 354.787788 
L 278.64612 356.458988 
L 276.139321 358.75688 
L 274.468122 362.308176 
L 273.423625 365.23277 
L 272.588025 368.366271 
L 272.17023 371.917567 
L 272.379128 374.215459 
L 272.796932 377.140053 
L 273.841429 378.811252 
L 271.543528 377.140053 
L 268.618934 377.34895 
L 266.112135 377.975652 
L 262.978644 379.646852 
L 267.156632 376.722258 
L 270.290133 375.468854 
L 270.916835 372.962064 
L 271.33463 370.664163 
L 271.961333 368.157373 
L 273.00583 365.023872 
L 274.050327 362.308176 
L 274.677029 359.383582 
L 273.00583 358.339085 
L 270.290133 358.339085 
L 263.187541 360.010284 
L 254.683916 364.002936 
L 248.62583 367.76313 
L 246.745733 369.225422 
L 246.119031 372.150016 
L 246.536836 374.447918 
L 248.416933 378.208111 
L 247.372426 376.954707 
L 245.910134 375.701312 
L 245.283432 374.030113 
L 245.283432 372.358923 
L 244.65673 370.26992 
L 242.358838 371.314417 
L 240.478741 372.567821 
L 238.180849 373.612318 
L 233.585056 375.91021 
L 231.913856 377.163614 
L 229.824862 378.417009 
L 228.153663 380.088208 
L 226.900259 381.968305 
L 226.273566 383.848402 
L 226.064668 385.937396 
L 226.691361 388.86199 
L 227.735858 391.159892 
L 228.989262 392.622184 
L 231.913856 393.666681 
L 240.896536 394.502281 
L 244.447832 394.502281 
L 246.536836 393.039988 
L 250.29703 389.906487 
L 247.372426 393.666681 
L 248.208026 395.964582 
L 250.923722 397.635782 
L 254.892813 399.098074 
L 258.861914 399.515879 
L 263.666605 399.098074 
L 267.008994 397.00908 
L 270.56029 395.128983 
L 273.275987 393.039988 
L 276.827283 390.115394 
L 274.320484 392.831091 
L 275.573888 393.666681 
L 278.080678 393.457784 
L 281.631974 392.413286 
L 279.542979 394.084486 
L 277.245078 394.920085 
L 273.067089 394.920085 
L 270.769197 395.964582 
L 268.262398 397.844679 
L 266.800097 400.351478 
L 265.964497 402.64937 
L 265.755599 406.200666 
L 266.591199 409.12526 
L 266.800097 412.467659 
L 267.844594 414.765551 
L 270.769197 417.063452 
L 273.693791 418.107949 
L 277.662882 417.27235 
L 281.005281 414.765551 
L 284.34767 412.049854 
L 286.645571 408.080763 
L 288.316761 404.947271 
L 289.987961 401.395975 
L 291.450262 399.098074 
L 293.539257 397.00908 
L 295.419353 395.755685 
L 291.241355 401.813771 
L 289.987961 404.529467 
L 289.987961 407.036266 
L 292.285862 409.12526 
L 296.672748 409.96086 
L 300.641849 410.169757 
L 304.819838 409.334158 
L 307.535534 408.080763 
L 310.251231 406.618461 
L 312.340225 404.738365 
L 307.744432 409.543055 
L 306.282139 410.587562 
L 305.237642 412.467659 
L 304.61094 415.392253 
L 303.984238 412.885454 
L 302.730843 411.632059 
L 300.641849 411.423152 
L 298.343948 411.005357 
L 295.419353 410.79646 
L 288.734566 409.12526 
L 287.063367 410.378655 
L 286.018869 411.840957 
L 284.34767 413.303258 
L 280.169681 416.018946 
L 275.156083 419.988046 
L 273.693791 421.659236 
L 273.275987 423.957137 
L 273.067089 427.299536 
L 273.275987 431.268627 
L 275.573888 433.566519 
L 279.751877 433.984324 
L 284.974372 433.357622 
L 288.943463 432.522022 
L 293.539257 431.686422 
L 290.405765 433.148724 
L 282.467573 435.237718 
L 279.334082 435.86442 
L 276.409488 435.655523 
L 272.022592 434.193221 
L 272.231489 436.491113 
L 271.813694 438.580117 
L 270.769197 440.460214 
L 269.515793 442.967003 
L 268.262398 444.429305 
L 265.128897 446.309402 
L 267.635696 444.0115 
L 268.680193 442.549208 
L 269.933597 440.042409 
L 270.769197 437.744517 
L 271.39589 435.028821 
L 271.604787 432.313124 
L 272.022592 429.38853 
L 272.022592 424.792737 
L 271.813694 421.868143 
L 270.769197 419.570242 
L 269.724691 418.107949 
L 268.262398 416.43675 
L 266.173404 414.556653 
L 264.293307 415.183355 
L 263.039903 417.690145 
L 261.57761 419.570242 
L 259.697514 422.703743 
L 258.235212 423.74824 
L 259.906411 421.032543 
L 261.57761 417.899042 
L 263.457707 415.392253 
L 264.293307 412.467659 
L 264.502205 410.169757 
L 263.875502 407.036266 
L 263.666605 404.738365 
L 262.41321 402.858268 
L 260.324206 401.813771 
L 257.817417 401.813771 
L 255.10172 402.022668 
L 252.594921 402.858268 
L 251.13262 404.320569 
L 250.088123 407.454061 
L 248.834728 409.751962 
L 247.163529 413.094352 
L 245.074534 415.60115 
L 246.536836 412.467659 
L 249.46143 407.245163 
L 250.29703 404.738365 
L 250.29703 403.067175 
L 249.252523 400.978171 
L 248.416933 398.680279 
L 246.536836 397.426875 
L 244.238935 396.591285 
L 242.358838 396.17348 
L 239.643141 396.382378 
L 234.83845 395.546778 
L 232.122754 395.33788 
L 229.19816 395.33788 
L 227.109165 395.755685 
L 225.646864 397.844679 
L 223.975665 401.604873 
L 223.557869 407.871865 
L 223.557869 411.840957 
L 223.140065 413.512156 
L 226.273566 419.779139 
L 228.153663 420.196944 
L 230.03376 418.734642 
L 228.36256 421.241441 
L 227.944765 423.330435 
L 228.780355 426.046132 
L 231.704959 431.477525 
L 233.793953 434.819923 
L 235.256246 438.789014 
L 236.718547 441.922506 
L 238.389746 444.638203 
L 240.478741 445.6827 
L 243.403335 445.473802 
L 244.65673 443.17591 
L 245.910134 439.833512 
L 246.954631 436.282216 
L 246.327929 440.878009 
L 245.283432 444.220407 
L 244.238935 445.473802 
L 244.238935 447.562797 
L 245.492329 449.6518 
L 248.834728 450.696297 
L 248.834728 450.696297 
" style="fill:none;stroke:#000000;stroke-linecap:square;stroke-width:1.5;"/>
   </g>
   <g id="line2d_2">
    <path clip-path="url(#p3a6f4a873f)" d="M 450.784048 380.483954 
L 456.353132 379.907836 
L 461.73018 380.291918 
L 469.411671 381.828216 
L 473.828529 381.828216 
L 476.901134 381.252098 
L 481.510029 381.252098 
L 487.079113 380.67599 
L 491.880043 380.483954 
L 495.720793 380.483954 
L 500.137651 380.868026 
L 505.898781 381.252098 
L 511.851937 381.828216 
L 515.884723 382.404324 
L 520.685654 383.940622 
L 514.348425 382.980442 
L 508.395259 382.212288 
L 501.289877 381.444144 
L 494.184495 381.252098 
L 487.463185 381.63618 
L 479.205577 382.212288 
L 472.292231 382.788406 
L 467.683337 382.59636 
L 460.001837 381.252098 
L 450.784048 380.483954 
" style="fill:none;stroke:#000000;stroke-linecap:square;stroke-width:1.5;"/>
   </g>
   <g id="line2d_3">
    <path clip-path="url(#p3a6f4a873f)" d="M 335.038397 359.659767 
L 334.004528 365.859472 
L 334.004528 368.784066 
L 334.840128 372.962064 
L 337.764722 377.557857 
L 335.675727 375.468854 
L 334.004528 372.54426 
L 333.377835 370.455265 
L 332.960031 368.366271 
L 333.168928 366.068369 
L 333.79563 363.143775 
L 335.038397 359.659767 
L 335.038397 359.659767 
" style="fill:none;stroke:#000000;stroke-linecap:square;stroke-width:1.5;"/>
   </g>
   <g id="line2d_4">
    <path clip-path="url(#p3a6f4a873f)" d="M 766.626114 487.230782 
L 771.032101 489.066612 
L 774.826148 490.045716 
L 779.354524 489.80094 
L 783.148571 488.332274 
L 785.718729 486.251669 
L 787.554558 484.538236 
L 788.900836 482.335233 
L 789.268 480.254628 
L 789.145612 478.29641 
L 787.43217 477.317306 
L 785.841117 476.705366 
L 784.372451 476.582978 
L 782.414234 477.194918 
L 780.945577 477.562082 
L 779.966464 478.051634 
L 778.742584 478.541195 
L 777.885858 478.663584 
L 776.906754 478.663584 
L 775.3157 478.663584 
L 773.847035 479.153136 
L 772.255981 480.009852 
L 770.542549 481.111353 
L 769.196272 482.335233 
L 767.972382 483.436735 
L 766.626114 484.660624 
L 765.769388 486.251669 
L 766.626114 487.230782 
" style="fill:none;stroke:#000000;stroke-linecap:square;stroke-width:1.5;"/>
   </g>
   <g id="line2d_5">
    <path clip-path="url(#p3a6f4a873f)" d="M 726.203169 511.567755 
L 728.91684 511.424932 
L 731.487689 510.567983 
L 733.344411 507.997144 
L 734.915477 505.711942 
L 735.48678 503.42675 
L 734.487007 501.570028 
L 733.058755 498.99918 
L 731.202033 497.71376 
L 729.202487 496.285508 
L 727.202942 494.857265 
L 724.346447 493.143366 
L 721.489952 491.715124 
L 719.633229 491.000998 
L 717.91934 490.001225 
L 716.205441 488.858629 
L 714.491542 487.430377 
L 712.777643 486.573427 
L 710.635275 486.430604 
L 709.064208 487.14473 
L 707.77878 488.430149 
L 706.779007 489.429922 
L 705.636411 490.001225 
L 704.208168 490.715351 
L 704.350991 494.000316 
L 706.92183 495.857038 
L 709.207032 496.428341 
L 711.492224 496.856811 
L 714.063072 497.570937 
L 715.062845 499.998952 
L 716.348264 502.569801 
L 717.490861 504.997816 
L 719.490406 507.425841 
L 721.489952 508.996917 
L 723.63233 510.282336 
L 726.203169 511.567755 
" style="fill:none;stroke:#000000;stroke-linecap:square;stroke-width:1.5;"/>
   </g>
   <g id="line2d_6">
    <path clip-path="url(#p3a6f4a873f)" d="M 716.348264 524.564811 
L 719.490406 522.708089 
L 720.775835 520.851366 
L 721.204305 518.137695 
L 722.632557 515.995326 
L 723.346674 513.99578 
L 722.918204 511.853412 
L 721.918431 510.282336 
L 720.490179 509.13974 
L 718.919113 507.711488 
L 717.776517 506.568892 
L 716.348264 504.569346 
L 715.348492 502.284154 
L 714.634366 500.427432 
L 713.777416 498.427886 
L 712.349173 497.71376 
L 710.635275 497.570937 
L 708.064436 497.71376 
L 706.207714 497.71376 
L 706.064881 498.856356 
L 708.064436 501.998498 
L 709.207032 503.998043 
L 710.349628 506.711715 
L 711.635047 508.425614 
L 712.777643 511.424932 
L 713.920249 513.852957 
L 715.062845 516.566619 
L 715.348492 519.137468 
L 715.491315 521.279836 
L 716.348264 524.564811 
" style="fill:none;stroke:#000000;stroke-linecap:square;stroke-width:1.5;"/>
   </g>
   <g id="line2d_7">
    <path clip-path="url(#p3a6f4a873f)" d="M 679.785133 495.714215 
L 679.785133 498.99918 
L 679.927966 502.855447 
L 680.499259 504.997816 
L 680.642082 507.140194 
L 680.784906 509.282563 
L 680.927738 510.853629 
L 680.927738 512.567528 
L 680.927738 515.2812 
L 681.070562 517.709225 
L 680.784906 519.994417 
L 680.642082 522.850912 
L 681.784679 524.279155 
L 683.070107 525.85023 
L 681.070562 525.993054 
L 679.785133 527.13565 
L 679.071016 528.563902 
L 677.499941 530.420624 
L 676.357345 532.134513 
L 675.357572 534.562538 
L 674.357799 537.27621 
L 673.92932 539.989882 
L 673.786496 542.9892 
L 675.500395 545.702862 
L 679.499486 548.27371 
L 685.3553 550.273256 
L 689.640047 550.273256 
L 693.353482 549.55913 
L 697.066926 548.416534 
L 700.637547 546.845468 
L 703.922512 544.560266 
L 709.064208 540.132705 
L 711.492224 537.27621 
L 713.49177 534.134059 
L 714.920022 531.420397 
L 715.634138 528.563902 
L 715.776962 526.135877 
L 715.776962 524.850457 
L 715.634138 524.279155 
L 715.205668 521.993962 
L 714.920022 519.851594 
L 714.777189 517.566392 
L 714.348719 515.566847 
L 713.348946 513.281654 
L 711.920694 510.567983 
L 710.778098 507.997144 
L 709.349855 505.997589 
L 708.207259 503.569573 
L 707.207486 501.712851 
L 705.779234 499.713306 
L 704.493815 497.71376 
L 702.208613 495.428568 
L 699.494951 493.857492 
L 696.638456 492.286417 
L 693.639138 491.429468 
L 690.639819 491.000998 
L 687.783324 491.000998 
L 684.784006 491.5723 
L 682.070335 492.572073 
L 680.642082 493.571846 
L 679.785133 495.714215 
" style="fill:none;stroke:#000000;stroke-linecap:square;stroke-width:1.5;"/>
   </g>
   <g id="line2d_8">
    <path clip-path="url(#p3a6f4a873f)" d="M 423.00612 286.08486 
L 419.559567 289.761184 
L 415.193928 291.369575 
L 411.517612 292.288652 
L 407.611516 292.518423 
L 402.556571 292.977966 
L 398.190941 293.667271 
L 394.514617 295.505434 
L 392.446683 297.343596 
L 388.081053 299.871073 
L 385.094033 305.155779 
L 383.945185 307.683256 
L 382.796337 310.900038 
L 379.579555 316.644288 
L 378.200936 320.090841 
L 377.741393 321.929003 
L 381.187946 324.226709 
L 386.702424 322.848089 
L 396.352779 318.252688 
L 401.867257 315.954983 
L 407.841287 312.967972 
L 417.261861 309.75119 
L 423.465654 306.76417 
L 428.980141 304.466474 
L 435.183933 301.249693 
L 440.009115 298.262673 
L 443.915202 296.194748 
L 447.131984 293.897043 
L 451.267852 291.369575 
L 452.646472 289.761184 
L 449.199918 289.761184 
L 445.983136 290.450489 
L 438.170953 291.829109 
L 444.144974 290.220718 
L 448.970147 289.301641 
L 453.106015 288.842099 
L 460.918198 288.382556 
L 465.513599 287.233708 
L 470.10901 286.774165 
L 474.934183 286.08486 
L 489.409701 286.08486 
L 494.464646 286.774165 
L 498.600513 287.463479 
L 503.425686 288.842099 
L 507.791316 290.450489 
L 516.292814 293.4375 
L 520.658444 294.356586 
L 527.646216 298.905639 
L 533.850017 302.352192 
L 539.134724 303.960583 
L 543.270591 305.339203 
L 547.176688 307.636908 
L 552.920937 310.394147 
L 555.907948 312.691853 
L 560.962892 314.300244 
L 566.936922 314.759786 
L 572.910943 315.449092 
L 575.668191 312.462081 
L 573.600257 309.475071 
L 570.383475 307.407137 
L 562.801054 303.50104 
L 559.584272 304.420126 
L 557.286576 304.420126 
L 553.840023 303.041507 
L 550.623241 301.433116 
L 548.785079 299.135411 
L 548.095764 296.837705 
L 547.636221 293.850695 
L 547.176688 292.012532 
L 544.878982 289.025522 
L 543.270591 286.727817 
L 540.972886 284.430121 
L 539.134724 283.051501 
L 535.917942 281.44311 
L 534.079779 280.064481 
L 525.34852 279.604948 
L 522.591271 278.915633 
L 518.914946 278.226319 
L 516.847022 277.307242 
L 511.102763 274.09046 
L 508.575296 272.941612 
L 504.898971 271.792755 
L 500.303569 270.873679 
L 495.478387 270.184364 
L 490.423443 269.265288 
L 481.462412 268.805745 
L 474.569305 268.805745 
L 469.514361 268.575973 
L 465.148731 268.575973 
L 470.203675 267.886668 
L 476.177696 268.11643 
L 482.841031 268.11643 
L 488.815052 268.575973 
L 494.099768 269.495059 
L 499.154712 270.184364 
L 508.115753 272.482069 
L 511.792078 273.630917 
L 517.766098 276.847699 
L 521.442423 277.996557 
L 525.578282 278.915633 
L 530.403464 279.375176 
L 534.539322 278.915633 
L 534.079779 276.158394 
L 531.32254 272.482069 
L 528.33553 268.805745 
L 525.34852 265.359191 
L 521.442423 261.682866 
L 516.387479 257.776779 
L 512.021849 253.41114 
L 506.966905 250.653901 
L 502.371494 248.585967 
L 497.546321 246.288271 
L 491.5723 244.450109 
L 482.381488 243.301252 
L 467.446427 243.990566 
L 462.851025 244.679871 
L 459.1747 245.598957 
L 455.038842 247.207348 
L 450.213669 248.815739 
L 441.941934 252.951607 
L 438.49539 255.019531 
L 432.288761 259.063309 
L 423.326619 266.185581 
L 418.731208 269.172591 
L 415.284655 271.700059 
L 412.527416 273.997764 
L 409.999939 276.525232 
L 407.012929 279.28248 
L 401.728213 283.877881 
L 400.349593 286.405358 
L 400.809136 288.473283 
L 402.417527 291.230531 
L 405.864081 291.919836 
L 410.22971 292.149608 
L 413.676264 291.460303 
L 416.893046 290.081674 
L 420.109828 288.243511 
L 423.00612 286.08486 
L 423.00612 286.08486 
" style="fill:none;stroke:#000000;stroke-linecap:square;stroke-width:1.5;"/>
   </g>
   <g id="line2d_9">
    <path clip-path="url(#p3a6f4a873f)" d="M 553.469238 315.541788 
L 549.563142 312.095234 
L 544.967741 308.418909 
L 539.912796 306.121213 
L 534.628081 303.363965 
L 530.032679 300.836498 
L 524.058649 297.619716 
L 518.773943 296.011325 
L 514.867846 294.862477 
L 511.421293 293.483848 
L 505.906806 292.105228 
L 501.770947 290.267066 
L 497.405308 288.658675 
L 492.809907 287.509827 
L 487.754962 286.590741 
L 482.929789 286.820513 
L 478.793922 287.280056 
L 475.117606 287.739599 
L 470.751967 287.96937 
L 467.075642 288.428904 
L 463.629089 289.118218 
L 459.263459 290.267066 
L 455.357363 291.645686 
L 451.910809 293.254077 
L 448.694027 294.632705 
L 444.78794 296.930401 
L 442.030692 298.768564 
L 438.124605 301.066269 
L 433.758966 303.134203 
L 429.623107 305.202128 
L 425.717011 307.04029 
L 421.351381 308.418909 
L 417.904828 309.797538 
L 412.849883 312.095234 
L 408.714016 313.703625 
L 404.807929 315.541788 
L 401.361375 316.920407 
L 396.995736 318.988341 
L 392.859878 321.056275 
L 389.183553 323.353971 
L 386.656076 324.7326 
L 383.669065 326.111219 
L 381.371369 327.489839 
L 380.222512 329.09823 
L 379.303436 331.166164 
L 378.614121 333.234097 
L 378.154588 335.302022 
L 377.465273 338.289042 
L 376.546187 341.046281 
L 375.627111 342.884443 
L 374.708034 345.871454 
L 373.559177 348.628693 
L 373.329405 349.547778 
L 371.950786 353.453865 
L 371.261481 356.211114 
L 373.559177 356.670657 
L 375.856882 356.440885 
L 385.277456 352.76456 
L 391.71102 350.696626 
L 396.765965 349.088235 
L 402.280452 347.709616 
L 406.186548 345.871454 
L 410.552178 345.641682 
L 415.377351 344.492834 
L 420.432295 344.033291 
L 423.649077 342.654672 
L 429.163564 339.667661 
L 429.852879 338.05927 
L 429.852879 335.531793 
L 430.312412 333.004326 
L 432.380346 330.476849 
L 436.516214 328.408915 
L 440.422301 326.340991 
L 443.409321 324.7326 
L 445.017712 323.353971 
L 444.78794 319.907427 
L 445.707017 322.205123 
L 448.234494 321.74558 
L 451.910809 320.137189 
L 455.816905 319.447884 
L 460.412307 318.988341 
L 464.548175 318.299036 
L 471.441281 317.37995 
L 475.117606 317.150179 
L 479.253465 316.460874 
L 481.091627 315.312016 
L 481.55117 313.01432 
L 482.470247 308.418909 
L 482.700018 313.244092 
L 482.470247 315.541788 
L 485.687028 316.920407 
L 490.512201 317.609722 
L 496.026689 317.839493 
L 499.932785 318.75857 
L 503.60911 318.75857 
L 506.136577 316.920407 
L 507.744968 314.163168 
L 506.366349 318.299036 
L 508.893816 319.447884 
L 514.408303 321.056275 
L 519.922791 322.894437 
L 526.126583 325.651676 
L 532.330375 328.638687 
L 538.534177 332.544783 
L 543.35935 333.234097 
L 546.576132 333.693631 
L 548.184523 335.991336 
L 551.401305 339.667661 
L 555.996706 342.195129 
L 559.902802 343.80352 
L 563.808899 345.641682 
L 567.02568 345.641682 
L 569.553148 343.343986 
L 570.472234 340.127195 
L 570.472234 338.748575 
L 568.4043 335.072251 
L 564.727975 332.08524 
L 559.443259 327.489839 
L 556.456249 324.043285 
L 555.077629 321.286046 
L 553.928772 318.75857 
L 553.469238 315.541788 
" style="fill:none;stroke:#000000;stroke-linecap:square;stroke-width:1.5;"/>
   </g>
   <g id="line2d_10">
    <path clip-path="url(#p3a6f4a873f)" d="M 434.44828 331.166164 
L 432.380346 332.544783 
L 431.46127 334.153174 
L 431.001727 336.910413 
L 432.150575 338.748575 
L 434.678052 340.586738 
L 439.503224 339.667661 
L 446.396331 337.829499 
L 452.370352 335.991336 
L 457.425296 334.612717 
L 462.250469 333.923403 
L 467.075642 333.234097 
L 471.900824 332.544783 
L 476.725997 331.625707 
L 480.402313 331.166164 
L 484.767952 330.247078 
L 488.674039 330.476849 
L 492.350364 330.936392 
L 495.107612 331.855469 
L 497.864851 331.625707 
L 501.770947 331.625707 
L 505.906806 331.625707 
L 509.583131 331.395935 
L 514.867846 332.08524 
L 519.922791 332.774555 
L 522.68003 333.923403 
L 526.586126 335.991336 
L 531.64107 337.599727 
L 536.0067 338.05927 
L 540.142568 337.599727 
L 544.278426 337.140184 
L 545.886817 335.302022 
L 543.589121 334.153174 
L 538.993711 333.46386 
L 535.547157 332.08524 
L 530.262451 328.638687 
L 523.369344 324.962371 
L 517.625085 323.124209 
L 511.651064 321.286046 
L 506.59612 319.907427 
L 503.149567 319.218113 
L 497.175537 318.988341 
L 492.809907 318.75857 
L 487.525191 318.299036 
L 483.159561 317.150179 
L 481.091627 316.460874 
L 476.955759 317.609722 
L 472.590129 318.299036 
L 467.994728 318.528798 
L 462.480241 319.218113 
L 456.50622 320.137189 
L 451.910809 321.056275 
L 448.004722 322.434894 
L 445.707017 324.273057 
L 442.260463 326.570762 
L 438.124605 328.408915 
L 434.44828 331.166164 
" style="fill:none;stroke:#000000;stroke-linecap:square;stroke-width:1.5;"/>
   </g>
   <g id="line2d_11">
    <path clip-path="url(#p3a6f4a873f)" d="M 446.016075 477.211583 
L 446.142989 481.526676 
L 448.046703 487.364741 
L 451.09265 491.299092 
L 454.900087 493.583556 
L 458.199861 495.487271 
L 461.880385 497.264071 
L 465.560908 498.406303 
L 469.49525 499.421622 
L 474.191093 500.310027 
L 478.379271 500.43694 
L 483.836595 500.563854 
L 488.405515 500.05619 
L 492.593693 498.787053 
L 495.893467 497.644821 
L 499.447077 496.502589 
L 503.381428 494.471952 
L 507.061943 492.060583 
L 509.473321 489.522292 
L 511.884699 486.857086 
L 513.153845 484.318795 
L 513.534586 481.399762 
L 514.169154 478.099988 
L 514.549904 475.68861 
L 514.549904 473.023405 
L 514.676818 469.850545 
L 514.04224 467.692994 
L 512.646181 465.78928 
L 510.107899 463.758643 
L 506.808116 461.220361 
L 503.254515 459.824301 
L 500.335482 459.570465 
L 496.401131 459.443551 
L 493.228262 459.443551 
L 489.674661 459.570465 
L 486.247964 459.443551 
L 482.948191 459.443551 
L 479.267667 459.316637 
L 475.840979 459.316637 
L 472.541206 459.697378 
L 469.622164 459.824301 
L 466.068563 459.951215 
L 461.880385 460.078129 
L 457.057628 460.45887 
L 454.519346 460.83961 
L 451.727227 461.981843 
L 449.569676 463.250989 
L 448.300531 464.900875 
L 447.031385 467.18534 
L 446.269903 469.850545 
L 446.904471 471.627345 
L 448.554358 474.165637 
L 450.965736 475.307869 
L 454.265509 476.323179 
L 458.453688 476.577015 
L 462.388039 476.323179 
L 464.164849 476.323179 
L 460.865066 476.830843 
L 457.692206 476.957756 
L 454.900087 476.703929 
L 452.361795 476.323179 
L 450.838822 476.069351 
L 448.935108 475.68861 
L 447.539049 475.815524 
L 446.016075 477.211583 
" style="fill:none;stroke:#000000;stroke-linecap:square;stroke-width:1.5;"/>
   </g>
  </g>
 </g>
 <defs>
  <clipPath id="p3a6f4a873f">
   <rect height="678.96" width="933.12" x="0" y="0"/>
  </clipPath>
 </defs>
</svg>
