<?xml version="1.0" encoding="utf-8" standalone="no"?>
<!DOCTYPE svg PUBLIC "-//W3C//DTD SVG 1.1//EN"
  "http://www.w3.org/Graphics/SVG/1.1/DTD/svg11.dtd">
<!-- Created with matplotlib (https://matplotlib.org/) -->
<svg height="592.56pt" version="1.1" viewBox="0 0 829.44 592.56" width="829.44pt" xmlns="http://www.w3.org/2000/svg" xmlns:xlink="http://www.w3.org/1999/xlink">
 <defs>
  <style type="text/css">
*{stroke-linecap:butt;stroke-linejoin:round;}
  </style>
 </defs>
 <g id="figure_1">
  <g><image xlink:href="../../img/cb/lesserpanda_cor_cell.json.cb-50%25.png" width="829.4399999999999px" height="592.56px"/></g>

  <g id="patch_1">
   <path d="M 0 592.56 
L 829.44 592.56 
L 829.44 0 
L 0 0 
z
" style="fill:none;"/>
  </g>
  <g id="axes_1">
   <g id="line2d_1">
    <path clip-path="url(#pe8431b271e)" d="M 654.802486 295.339514 
L 653.699721 297.387509 
L 653.06957 299.435504 
L 654.487407 303.373951 
L 655.590172 307.469933 
L 656.535402 311.72345 
L 656.377867 315.976976 
L 655.590172 319.442808 
L 655.275101 322.751104 
L 655.432637 324.956635 
L 655.905252 328.422466 
L 656.220323 332.518448 
L 657.165553 335.826744 
L 658.110782 338.189819 
L 662.521844 338.977505 
L 668.350742 338.977505 
L 672.919339 337.55966 
L 675.282405 334.408908 
L 677.3304 330.943076 
L 679.85101 328.107395 
L 682.529148 324.326484 
L 684.577143 319.442808 
L 685.207293 315.661897 
L 684.892214 311.408379 
L 684.419607 307.312397 
L 684.104528 303.846557 
L 683.316842 300.065654 
L 682.214077 297.229973 
L 680.166081 294.079213 
L 678.590701 290.928452 
L 677.015321 288.40785 
L 675.282405 286.359855 
L 673.234418 285.099554 
L 671.028887 284.311868 
L 668.980892 283.996789 
L 667.090441 284.469404 
L 664.88491 286.044784 
L 662.206764 288.250315 
L 659.213548 290.928452 
L 656.692938 292.818912 
L 655.432637 294.079213 
L 654.802486 295.339514 
" style="fill:none;stroke:#000000;stroke-linecap:square;stroke-width:1.5;"/>
   </g>
   <g id="line2d_2">
    <path clip-path="url(#pe8431b271e)" d="M 328.068428 225.589092 
L 327.525601 229.467122 
L 327.23499 226.851616 
L 326.65376 224.526721 
L 326.65376 219.005097 
L 326.072538 217.552034 
L 324.619484 217.842645 
L 322.87581 218.714486 
L 320.841526 220.167541 
L 317.644798 223.073658 
L 318.516639 220.748762 
L 320.550915 218.714486 
L 323.457032 216.680202 
L 326.944379 215.517758 
L 329.269266 214.064695 
L 331.01294 210.867967 
L 331.594162 205.346344 
L 331.01294 197.499825 
L 330.141107 194.593707 
L 328.688045 192.559423 
L 327.23499 191.978201 
L 325.491317 192.268812 
L 323.457032 193.721875 
L 320.841526 195.756159 
L 317.935408 197.790436 
L 315.901132 200.115331 
L 314.157459 202.440226 
L 312.704396 204.765122 
L 311.251341 207.96185 
L 308.926446 212.030411 
L 310.088898 208.252461 
L 314.157459 201.568394 
L 316.772965 198.081046 
L 324.328873 192.559423 
L 326.363149 189.653306 
L 327.23499 186.747188 
L 326.944379 183.259849 
L 326.072538 178.900669 
L 324.619484 175.994552 
L 322.294588 172.797824 
L 318.807249 174.832109 
L 313.576237 179.77251 
L 307.764002 186.165967 
L 309.798279 183.259849 
L 315.610521 176.866393 
L 320.550915 173.088435 
L 322.87581 171.054159 
L 323.166421 167.276201 
L 322.585199 164.660694 
L 320.260304 162.335807 
L 317.354187 162.045188 
L 314.448069 163.20764 
L 312.123174 164.370083 
L 309.33672 168.267697 
L 310.67012 165.823146 
L 310.379509 163.788862 
L 308.345224 162.045188 
L 306.020329 161.754577 
L 299.917483 162.335807 
L 297.592588 162.917029 
L 294.977082 163.788862 
L 291.780353 167.857431 
L 288.874236 172.797824 
L 288.002404 176.285171 
L 288.293014 179.77251 
L 289.746069 183.259849 
L 291.780353 187.037799 
L 291.780353 191.68759 
L 291.199132 205.927565 
L 290.61791 213.483474 
L 291.199132 221.620603 
L 291.199132 227.723449 
L 290.327299 231.210788 
L 287.421173 235.569968 
L 290.03668 229.757733 
L 290.908521 225.689164 
L 290.327299 216.970813 
L 289.746069 209.996135 
L 289.746069 205.346344 
L 290.908521 201.568394 
L 291.199132 196.337381 
L 291.199132 188.781473 
L 290.327299 185.584745 
L 288.583625 182.969239 
L 286.839952 180.934954 
L 285.096286 179.191289 
L 281.89955 178.900669 
L 279.574663 178.900669 
L 276.668546 180.063121 
L 272.018755 184.131682 
L 270.856311 186.456578 
L 270.275081 189.072084 
L 270.275081 197.499825 
L 270.856311 203.60267 
L 270.856311 221.620603 
L 270.275081 227.142227 
L 270.565692 218.133256 
L 269.98447 209.414904 
L 269.98447 194.303097 
L 268.531416 188.781473 
L 265.334688 187.037799 
L 262.42857 186.747188 
L 259.813064 187.619029 
L 256.616328 189.072084 
L 253.71021 191.106368 
L 251.675934 193.140653 
L 249.64165 197.790436 
L 249.64165 200.115331 
L 250.513482 202.730837 
L 254.00083 209.705515 
L 256.616328 215.808369 
L 256.325717 219.87693 
L 254.29144 216.680202 
L 252.257156 212.321022 
L 250.222871 209.414904 
L 249.351039 206.218176 
L 249.060428 203.60267 
L 248.188587 201.277775 
L 246.154311 199.243498 
L 243.248193 198.952887 
L 240.923298 199.534109 
L 238.307792 200.987164 
L 235.692285 203.021448 
L 233.36739 205.055733 
L 231.623724 207.96185 
L 229.880051 210.286745 
L 229.880051 211.7398 
L 232.204946 214.936528 
L 235.692285 219.005097 
L 231.914335 215.517758 
L 229.008218 213.192863 
L 226.683323 213.774084 
L 224.067816 214.936528 
L 220.871088 216.680202 
L 218.836804 219.295708 
L 217.383741 221.911214 
L 216.221297 224.817332 
L 216.221297 227.142227 
L 215.930686 229.757733 
L 217.383741 233.826294 
L 218.546193 235.860579 
L 220.909483 238.818768 
L 223.524989 239.39999 
L 227.59355 238.528157 
L 229.627835 237.946935 
L 232.533952 239.690601 
L 237.474354 240.562442 
L 244.449032 242.306107 
L 249.389433 243.177948 
L 256.073501 245.212224 
L 246.773927 244.049781 
L 240.08986 242.306107 
L 234.277626 241.143664 
L 229.918446 239.690601 
L 226.431107 239.690601 
L 220.618872 240.562442 
L 218.584588 243.468559 
L 216.594214 246.596286 
L 216.840922 243.75917 
L 218.584588 240.271831 
L 217.712755 237.656325 
L 215.387859 233.587755 
L 213.353575 231.26286 
L 210.447458 229.228584 
L 207.25073 228.937973 
L 200.857273 232.425312 
L 198.532378 233.878366 
L 193.010754 240.271831 
L 193.301365 242.596718 
L 194.754428 248.118342 
L 196.788704 253.639965 
L 197.951156 258.870978 
L 198.241767 264.392601 
L 197.079315 259.4522 
L 195.916872 256.255471 
L 194.463817 253.058743 
L 193.010754 250.733848 
L 192.429533 247.246509 
L 192.138922 244.049781 
L 191.267081 242.015496 
L 189.232804 243.468559 
L 184.583014 247.53712 
L 181.386285 255.67425 
L 180.805064 258.870978 
L 181.095675 263.230158 
L 180.805064 266.426886 
L 179.933223 268.751781 
L 175.864662 273.401564 
L 174.120988 275.726459 
L 172.667934 282.119924 
L 173.249156 285.607263 
L 174.411599 288.51338 
L 176.155273 291.710108 
L 181.386285 295.488058 
L 188.070353 299.556627 
L 194.463817 301.590903 
L 199.694821 301.881523 
L 202.600939 298.394175 
L 206.960119 295.197447 
L 211.319299 293.163163 
L 215.67847 291.710108 
L 220.328261 289.675824 
L 224.106211 288.803991 
L 232.533952 285.897874 
L 218.875198 292.872552 
L 212.481742 295.197447 
L 206.669508 298.684786 
L 204.344612 300.42846 
L 203.182169 303.043966 
L 203.763391 305.950083 
L 209.866236 309.728033 
L 215.387859 311.471707 
L 221.781316 312.92477 
L 227.302939 313.505991 
L 232.824563 315.830887 
L 236.021291 315.249657 
L 238.055575 311.181096 
L 238.636797 307.112527 
L 240.08986 303.625188 
L 244.739643 298.394175 
L 247.64576 295.488058 
L 241.542914 303.915799 
L 239.799249 307.693757 
L 237.764965 315.249657 
L 240.380471 316.99333 
L 245.030262 318.737004 
L 249.098823 318.446393 
L 258.979626 312.92477 
L 260.723291 309.728033 
L 261.304513 307.112527 
L 261.885743 303.334577 
L 261.885743 297.231732 
L 262.176354 304.78764 
L 261.885743 308.56559 
L 261.595124 310.890485 
L 260.723291 312.92477 
L 257.235952 315.249657 
L 252.00494 318.155774 
L 247.936379 319.899448 
L 243.577199 319.318226 
L 240.08986 318.155774 
L 236.893132 317.283941 
L 233.696404 316.70272 
L 229.337224 315.540268 
L 226.721717 314.959046 
L 224.106211 315.249657 
L 221.781316 317.283941 
L 218.584588 318.737004 
L 216.259692 318.446393 
L 214.225416 318.446393 
L 212.191131 320.190059 
L 210.447458 323.096176 
L 209.285014 326.292904 
L 207.54134 334.720645 
L 204.635223 343.729616 
L 203.47278 348.96062 
L 202.891558 353.029189 
L 203.182169 357.969591 
L 204.925834 362.038152 
L 210.447458 368.140997 
L 214.225416 370.175281 
L 220.328261 372.209566 
L 227.59355 373.66262 
L 231.662119 376.278127 
L 235.73068 376.859349 
L 238.636797 376.859349 
L 240.961693 372.500177 
L 243.286588 369.012838 
L 245.320873 365.525491 
L 246.483316 362.619373 
L 247.936379 358.550813 
L 250.551885 356.225917 
L 254.329835 354.772854 
L 253.458003 357.678972 
L 254.039224 360.875708 
L 257.235952 364.072436 
L 261.595124 364.363047 
L 267.116748 361.747541 
L 270.894706 357.969591 
L 272.34776 355.063474 
L 267.697978 352.447967 
L 272.057149 353.3198 
L 275.835108 353.029189 
L 279.031836 350.413683 
L 283.391007 346.345114 
L 280.194279 351.576126 
L 284.553459 352.738578 
L 280.194279 353.3198 
L 278.159995 353.029189 
L 275.835108 354.482243 
L 273.800823 355.935306 
L 272.34776 357.678972 
L 271.475928 359.422645 
L 269.441643 361.166319 
L 266.535526 363.200595 
L 260.723291 365.816101 
L 258.689007 367.559775 
L 256.36412 370.175281 
L 255.78289 372.209566 
L 254.620446 375.696905 
L 254.620446 379.184244 
L 258.107785 382.090361 
L 262.176354 382.090361 
L 266.826137 381.509139 
L 271.185317 380.056077 
L 273.219601 377.73119 
L 274.963267 375.115683 
L 278.450606 371.337725 
L 274.382045 377.440579 
L 273.219601 380.346696 
L 276.997551 378.893633 
L 279.903668 376.568738 
L 282.228564 373.953231 
L 283.681618 369.884671 
L 283.100397 367.850386 
L 286.587736 362.619373 
L 289.203242 359.422645 
L 292.109359 355.063474 
L 294.434255 350.994904 
L 295.596706 347.798176 
L 297.049761 344.892059 
L 299.665267 340.82349 
L 302.280774 337.626762 
L 306.349334 335.301875 
L 309.836682 331.233306 
L 312.452188 326.292904 
L 317.683192 319.608837 
L 320.879929 316.412109 
L 325.529711 313.796602 
L 329.888891 312.634151 
L 338.316632 312.92477 
L 345.000699 313.505991 
L 352.265996 313.796602 
L 359.240674 313.215381 
L 365.34352 310.309263 
L 370.859628 308.184504 
L 376.381251 305.278386 
L 378.996757 302.372269 
L 384.518381 300.628604 
L 390.330615 299.466152 
L 394.980398 298.303708 
L 399.339578 295.978813 
L 410.673436 291.329022 
L 414.451386 289.294746 
L 418.810566 286.388628 
L 420.84485 285.516788 
L 424.332189 287.260461 
L 429.853813 289.294746 
L 446.128073 293.944528 
L 451.359085 293.653917 
L 454.846424 292.200863 
L 460.368048 294.525758 
L 465.889671 297.141256 
L 474.026801 300.337993 
L 481.001479 301.791047 
L 489.138609 301.500436 
L 497.856961 300.919215 
L 504.831647 300.919215 
L 510.353271 301.209825 
L 516.456116 304.115943 
L 523.140183 309.637566 
L 528.952418 317.193474 
L 535.055263 324.168152 
L 539.637861 329.832323 
L 544.868874 337.388232 
L 550.971719 345.234742 
L 557.655786 351.046977 
L 561.724355 354.824935 
L 564.049251 358.312274 
L 576.254941 365.577571 
L 582.648398 366.449404 
L 584.10146 362.671454 
L 582.939008 358.602885 
L 582.067176 355.115546 
L 579.161059 352.209429 
L 576.545552 349.303311 
L 574.220657 347.559638 
L 572.18638 346.978416 
L 569.280263 344.944131 
L 566.955368 342.909847 
L 564.921083 341.747403 
L 561.433744 340.294349 
L 558.237016 338.550675 
L 555.912121 337.678842 
L 552.134163 334.772725 
L 557.365175 337.388232 
L 561.433744 339.713119 
L 565.792916 341.747403 
L 568.408422 340.294349 
L 571.023929 337.969453 
L 567.827201 342.619236 
L 570.152096 344.944131 
L 573.639435 346.978416 
L 576.545552 348.140859 
L 577.998615 345.815972 
L 577.417385 349.0127 
L 579.74228 351.918818 
L 583.520238 354.243713 
L 585.263904 353.081261 
L 585.845126 351.046977 
L 586.426356 355.406157 
L 589.332473 358.312274 
L 591.65736 357.440441 
L 593.401034 355.406157 
L 593.982256 351.337588 
L 594.272866 346.687805 
L 593.982256 343.781688 
L 594.272866 340.875571 
L 595.435318 345.815972 
L 594.854096 353.081261 
L 594.854096 356.5686 
L 597.178984 356.5686 
L 600.37572 355.406157 
L 605.025503 352.79065 
L 607.350398 350.756366 
L 606.769176 346.978416 
L 606.478565 343.781688 
L 606.769176 340.00373 
L 607.431268 337.336151 
L 607.721879 341.985942 
L 607.721879 346.635733 
L 608.303109 351.576126 
L 610.627997 354.772854 
L 616.440231 356.516528 
L 621.090022 355.644695 
L 625.449202 357.09775 
L 632.133269 360.875708 
L 639.398566 361.166319 
L 645.501412 358.550813 
L 651.604257 355.354084 
L 655.382207 350.704294 
L 656.254048 345.473281 
L 656.83527 338.207992 
L 655.672818 331.233306 
L 655.091596 325.711682 
L 653.929152 321.061891 
L 652.7667 313.505991 
L 652.185479 308.56559 
L 651.313646 303.334577 
L 650.441813 301.590903 
L 647.826307 300.719071 
L 645.210801 300.719071 
L 641.142232 300.137849 
L 641.142232 298.394175 
L 648.116918 297.812953 
L 651.313646 297.231732 
L 653.929152 294.325614 
L 657.707102 290.838275 
L 660.90383 288.51338 
L 664.391178 285.607263 
L 667.006684 282.410535 
L 668.750349 277.760744 
L 668.459738 269.333003 
L 666.425454 262.358325 
L 663.809948 255.964861 
L 661.775671 250.152626 
L 658.869554 243.468559 
L 656.254048 239.98122 
L 652.185479 237.075094 
L 648.116918 234.459596 
L 644.92019 233.587755 
L 640.851621 232.134701 
L 640.270399 228.937973 
L 639.107955 225.741236 
L 636.492449 222.253897 
L 634.137976 217.506117 
L 630.909148 215.136672 
L 627.131198 213.102387 
L 622.772018 211.939944 
L 620.737734 213.392998 
L 621.318964 218.042789 
L 621.318964 221.530128 
L 620.737734 227.342363 
L 620.156512 229.957869 
L 619.284679 232.573375 
L 619.57529 235.188882 
L 624.806303 238.38561 
L 626.840587 244.488455 
L 628.584253 249.138246 
L 633.524655 258.72843 
L 638.755667 258.72843 
L 641.371174 257.565987 
L 641.371174 252.044363 
L 643.696069 258.72843 
L 646.892797 262.796999 
L 649.798914 270.062296 
L 650.961358 272.387184 
L 646.602186 272.968414 
L 641.371174 274.712079 
L 636.721383 274.712079 
L 631.199759 274.421468 
L 627.421809 274.712079 
L 626.259357 272.387184 
L 623.35324 269.481066 
L 620.447123 266.284338 
L 616.959784 265.121895 
L 612.309993 265.703116 
L 616.669173 263.08761 
L 617.831617 258.72843 
L 617.541006 255.241091 
L 618.703458 247.103961 
L 618.994068 243.0354 
L 618.703458 239.548061 
L 617.541006 236.932555 
L 615.21611 234.60766 
L 612.019382 233.735827 
L 608.241432 232.863986 
L 613.472445 231.120321 
L 616.669173 229.376647 
L 618.703458 226.47053 
L 619.865901 224.145634 
L 620.447123 221.239517 
L 620.737734 218.3334 
L 620.447123 215.427283 
L 619.57529 213.102387 
L 617.541006 210.486881 
L 613.472445 209.324437 
L 608.532043 208.743216 
L 604.754093 209.324437 
L 600.104302 210.486881 
L 597.779407 210.19627 
L 602.429198 208.743216 
L 608.241432 208.161986 
L 613.181834 208.452605 
L 619.284679 209.033827 
L 621.028353 207.290153 
L 620.447123 202.930981 
L 619.57529 199.443634 
L 618.122236 196.537517 
L 615.506729 196.246906 
L 616.087951 194.50324 
L 614.634888 190.434671 
L 613.181834 188.109776 
L 609.985106 185.78488 
L 607.078989 184.913048 
L 604.172871 185.203659 
L 601.847976 186.366111 
L 599.813691 189.272228 
L 598.360629 192.468956 
L 595.745131 195.084462 
L 597.488796 191.015893 
L 599.523081 187.819165 
L 601.266754 184.331826 
L 600.976135 182.006931 
L 598.941859 179.682035 
L 595.745131 178.228981 
L 591.967173 177.066529 
L 588.189223 177.35714 
L 585.864327 178.810202 
L 582.95821 183.169382 
L 580.633315 188.400387 
L 579.470871 192.759567 
L 575.692913 205.255868 
L 578.017808 194.793851 
L 579.761482 188.981617 
L 581.505147 184.622437 
L 583.539432 181.425709 
L 586.154938 176.775918 
L 586.445549 174.451022 
L 584.120654 171.835524 
L 581.505147 170.091851 
L 578.59903 168.348177 
L 575.692913 166.895123 
L 572.786796 167.476344 
L 569.008846 171.254294 
L 565.812118 175.904085 
L 563.487222 180.844487 
L 560.581105 196.246906 
L 559.709272 201.768529 
L 557.965599 206.999542 
L 556.512544 210.486881 
L 551.572142 217.461567 
L 555.059481 211.939944 
L 558.54682 203.221592 
L 560.290494 195.956295 
L 560.581105 192.759567 
L 561.162327 189.272228 
L 561.452938 186.0755 
L 562.324778 183.169382 
L 562.906 179.972646 
L 564.940285 177.066529 
L 566.68395 173.288579 
L 568.718235 170.963683 
L 570.752519 168.929399 
L 573.077406 166.023282 
L 571.333741 163.989005 
L 569.299457 162.535943 
L 566.393339 160.792277 
L 564.359055 159.920436 
L 561.162327 159.920436 
L 558.256209 160.792277 
L 554.187649 162.535943 
L 550.40969 164.570227 
L 546.922351 166.604512 
L 544.888067 168.929399 
L 543.435012 173.869801 
L 541.110117 184.041215 
L 540.238284 188.981617 
L 539.075832 193.631399 
L 538.494611 197.409358 
L 538.204 202.05914 
L 537.332167 207.290153 
L 537.622778 200.896697 
L 539.366443 190.725282 
L 540.238284 186.656721 
L 541.400728 182.297541 
L 541.98195 177.93837 
L 542.56318 175.032253 
L 543.725623 171.835524 
L 544.597456 168.638788 
L 544.888067 166.023282 
L 543.725623 163.989005 
L 545.759908 164.279616 
L 549.247247 163.117164 
L 552.153364 161.954721 
L 555.640703 160.792277 
L 558.837431 159.339215 
L 561.162327 157.595541 
L 560.871716 154.980043 
L 560.290494 150.911474 
L 554.187649 144.227407 
L 550.40969 141.6119 
L 547.503573 141.030679 
L 542.853791 140.740059 
L 537.913389 141.030679 
L 535.588493 142.193122 
L 534.716661 143.936796 
L 535.297883 146.261683 
L 535.588493 149.1678 
L 534.716661 152.945758 
L 534.716661 149.1678 
L 534.42605 145.971072 
L 532.972987 143.064955 
L 531.229322 140.740059 
L 523.092192 137.833942 
L 519.895464 137.543331 
L 517.279957 138.415172 
L 515.245673 139.577616 
L 512.920777 144.808628 
L 512.339556 147.133524 
L 511.758334 150.039641 
L 513.211388 152.364537 
L 515.826895 153.817591 
L 520.186075 156.433097 
L 525.707698 160.211047 
L 517.861179 155.851876 
L 513.79261 153.817591 
L 511.177104 154.398813 
L 508.852217 156.433097 
L 507.399154 160.211047 
L 506.817932 162.535943 
L 506.527321 164.570227 
L 508.561597 166.895123 
L 513.501999 169.220018 
L 517.861179 172.997968 
L 520.186075 176.194696 
L 521.057907 180.844487 
L 521.057907 186.0755 
L 520.476686 188.981617 
L 520.767296 184.331826 
L 520.476686 179.682035 
L 519.314234 175.904085 
L 517.279957 172.707357 
L 514.37384 170.963683 
L 511.467715 168.929399 
L 507.980376 167.476344 
L 504.783648 166.313901 
L 502.458752 167.185734 
L 501.296309 169.80124 
L 500.715087 174.741642 
L 500.424476 179.100813 
L 501.296309 190.14406 
L 503.039974 195.084462 
L 506.527321 200.315475 
L 510.305271 203.802814 
L 512.920777 206.999542 
L 516.989338 207.871375 
L 514.664451 209.033827 
L 514.083221 216.589726 
L 513.211388 210.777492 
L 512.630167 207.871375 
L 510.595882 204.965257 
L 507.399154 202.349751 
L 505.364869 199.443634 
L 502.749363 196.246906 
L 500.424476 192.178345 
L 497.518359 189.85345 
L 494.612233 188.691006 
L 490.834283 188.109776 
L 487.928166 187.528554 
L 484.150216 187.237943 
L 481.825321 187.237943 
L 475.479856 185.584745 
L 466.761504 183.55046 
L 451.940307 182.097406 
L 444.965621 181.806795 
L 439.443997 182.097406 
L 432.469319 182.097406 
L 424.6228 183.259849 
L 418.519955 184.422293 
L 405.442423 188.490862 
L 399.630189 190.815758 
L 394.689787 193.140653 
L 389.458783 196.337381 
L 385.390214 198.081046 
L 380.449812 201.568394 
L 376.962473 203.893281 
L 373.765745 207.090017 
L 369.987795 209.996135 
L 364.175552 213.192863 
L 372.312682 207.090017 
L 377.543695 202.730837 
L 383.065318 198.371657 
L 388.00572 195.174929 
L 393.236733 192.559423 
L 399.630189 189.653306 
L 407.476708 186.456578 
L 416.19506 183.55046 
L 423.169746 182.097406 
L 431.306867 180.644343 
L 436.828491 180.353732 
L 452.521529 180.353732 
L 461.821102 181.225565 
L 482.454542 185.584745 
L 489.138609 186.456578 
L 494.660233 187.037799 
L 497.56635 185.584745 
L 499.019413 179.191289 
L 499.310024 175.994552 
L 499.891245 173.088435 
L 500.472467 167.276201 
L 499.310024 163.498251 
L 496.694517 161.173355 
L 494.079011 159.42969 
L 488.557387 157.395405 
L 484.488818 156.232953 
L 465.017831 151.29256 
L 458.914985 150.420719 
L 451.359085 150.420719 
L 444.965621 150.71133 
L 438.572165 151.29256 
L 432.75993 152.455004 
L 427.528918 153.326836 
L 422.297905 154.489288 
L 416.776281 156.232953 
L 409.220381 158.84846 
L 402.826917 161.754577 
L 392.3649 166.694979 
L 388.00572 169.601096 
L 383.64654 171.925991 
L 378.706147 174.832109 
L 374.928188 178.319448 
L 371.73146 180.063121 
L 369.115954 180.353732 
L 365.338004 181.225565 
L 362.431887 182.678628 
L 358.944548 185.003523 
L 355.747811 188.200251 
L 352.551083 191.106368 
L 348.773133 195.756159 
L 345.505131 198.562205 
L 342.308403 202.049544 
L 338.530445 204.66505 
L 336.205558 206.699334 
L 333.590052 208.733611 
L 331.846378 211.639728 
L 330.393324 214.545845 
L 328.940261 216.289519 
L 328.359039 219.195636 
L 327.487206 222.101753 
L 328.068428 225.589092 
L 328.068428 225.589092 
" style="fill:none;stroke:#000000;stroke-linecap:square;stroke-width:1.5;"/>
   </g>
   <g id="line2d_3">
    <path clip-path="url(#pe8431b271e)" d="M 615.943264 297.791587 
L 615.608834 295.784973 
L 616.946579 299.630986 
L 618.618755 301.470386 
L 615.943264 302.640908 
L 613.267781 302.808131 
L 606.746275 303.477 
L 602.565823 303.477 
L 598.719809 303.811439 
L 594.706581 304.313092 
L 590.860567 303.978654 
L 587.516207 303.142562 
L 582.332447 301.470386 
L 581.496355 300.467079 
L 581.998009 299.129333 
L 581.161917 294.614442 
L 580.493048 289.765121 
L 580.660263 287.256853 
L 581.66357 285.417454 
L 580.994702 289.765121 
L 581.161917 293.109481 
L 582.332447 298.460456 
L 583.837408 300.801509 
L 586.680115 302.30647 
L 590.526128 303.309785 
L 594.706581 303.811439 
L 599.054248 303.142562 
L 600.893647 302.30647 
L 600.726424 298.962109 
L 600.391994 296.286626 
L 599.388686 293.44392 
L 597.883717 288.594599 
L 597.214849 285.584669 
L 599.221463 290.935652 
L 600.22477 294.112788 
L 601.395301 297.122718 
L 601.395301 299.463763 
L 601.729731 301.303162 
L 603.401915 302.30647 
L 605.910183 302.640908 
L 609.254543 302.473693 
L 612.766127 302.139254 
L 615.44161 301.135947 
L 616.110487 299.630986 
L 615.943264 297.791587 
" style="fill:none;stroke:#000000;stroke-linecap:square;stroke-width:1.5;"/>
   </g>
   <g id="line2d_4">
    <path clip-path="url(#pe8431b271e)" d="M 389.749394 225.960582 
L 382.484096 227.123025 
L 396.724072 223.635686 
L 406.023645 222.182624 
L 417.066892 220.148347 
L 426.947696 219.276506 
L 435.666047 218.404674 
L 446.128073 218.695285 
L 456.59009 219.567117 
L 465.30845 221.02018 
L 472.864349 222.473235 
L 482.454542 221.892013 
L 475.479856 223.635686 
L 471.411295 223.054465 
L 460.94927 221.310791 
L 451.359085 220.729569 
L 442.350115 219.567117 
L 431.597487 220.148347 
L 420.554239 221.02018 
L 410.673436 222.182624 
L 400.502022 224.216908 
L 389.749394 225.960582 
" style="fill:none;stroke:#000000;stroke-linecap:square;stroke-width:1.5;"/>
   </g>
   <g id="line2d_5">
    <path clip-path="url(#pe8431b271e)" d="M 385.680825 248.337687 
L 398.467745 248.047076 
L 404.570591 248.628298 
L 409.801603 248.337687 
L 413.870164 248.918909 
L 417.357503 249.500131 
L 420.26362 249.20952 
L 424.041578 248.047076 
L 428.110139 247.465846 
L 433.631763 246.884624 
L 437.990943 246.594013 
L 443.803177 246.884624 
L 450.196633 246.884624 
L 457.752542 245.140959 
L 452.521529 247.175235 
L 446.128073 247.465846 
L 436.247269 248.337687 
L 428.110139 248.628298 
L 422.588516 249.500131 
L 418.229344 251.243804 
L 414.742005 250.662574 
L 407.186097 249.500131 
L 396.433461 249.20952 
L 385.680825 248.337687 
" style="fill:none;stroke:#000000;stroke-linecap:square;stroke-width:1.5;"/>
   </g>
   <g id="line2d_6">
    <path clip-path="url(#pe8431b271e)" d="M 309.175543 168.563201 
L 308.345224 171.054159 
L 307.182781 173.088435 
L 304.857885 175.41333 
L 306.60155 171.925991 
L 308.926446 169.019874 
L 309.175543 168.563201 
L 309.175543 168.563201 
" style="fill:none;stroke:#000000;stroke-linecap:square;stroke-width:1.5;"/>
   </g>
   <g id="line2d_7">
    <path clip-path="url(#pe8431b271e)" d="M 648.085208 269.844486 
L 647.149326 266.724879 
L 645.433538 264.073217 
L 643.561774 261.889492 
L 641.845995 261.421547 
L 639.194325 261.733508 
L 635.294821 262.045469 
L 633.111096 260.485665 
L 630.61541 257.834004 
L 629.523544 255.806255 
L 628.899623 253.778515 
L 628.119725 251.750766 
L 627.339819 250.034987 
L 625.62404 249.255081 
L 624.064236 249.099105 
L 622.816393 249.879002 
L 621.412566 251.906751 
L 620.320708 254.246452 
L 619.54081 256.586161 
L 618.760905 259.705768 
L 618.760905 262.513414 
L 620.008747 264.69713 
L 622.348448 267.192816 
L 625.62404 269.844486 
L 627.65178 271.71625 
L 632.175214 272.652132 
L 635.918742 272.964092 
L 639.818246 273.588014 
L 644.02972 272.964092 
L 646.05746 271.71625 
L 648.085208 269.844486 
" style="fill:none;stroke:#000000;stroke-linecap:square;stroke-width:1.5;"/>
   </g>
   <g id="line2d_8">
    <path clip-path="url(#pe8431b271e)" d="M 350.445533 164.980103 
L 346.486633 168.648393 
L 342.708683 170.392058 
L 339.802566 173.588786 
L 336.605837 176.785523 
L 333.409109 181.435305 
L 330.212381 184.050812 
L 329.049929 186.375707 
L 329.049929 189.281824 
L 329.921762 191.897331 
L 331.374825 194.803448 
L 331.956047 198.581398 
L 332.827888 202.359356 
L 333.990331 204.974862 
L 336.896448 204.393632 
L 340.093176 201.487515 
L 342.999294 199.162628 
L 346.196022 195.965891 
L 349.102139 192.769163 
L 350.845813 189.572435 
L 353.461319 187.24754 
L 356.076825 185.213264 
L 359.854775 182.597757 
L 362.179671 180.854084 
L 363.051503 177.366745 
L 364.504566 170.973288 
L 364.504566 179.401029 
L 366.538851 179.11041 
L 370.02619 178.819799 
L 373.513529 176.494904 
L 377.582089 173.588786 
L 382.539793 169.515697 
L 388.277129 166.723777 
L 396.123648 162.073986 
L 405.132611 158.877258 
L 413.850971 155.68053 
L 421.988092 152.774413 
L 429.25339 150.740128 
L 438.843582 149.287074 
L 447.852545 148.415241 
L 455.408445 147.834011 
L 462.383131 148.705852 
L 469.939039 150.449517 
L 477.494939 152.193191 
L 482.435341 154.227475 
L 488.247575 156.261752 
L 493.478588 158.296036 
L 497.837768 160.620932 
L 500.453266 162.655216 
L 503.068772 163.236438 
L 505.393667 161.202153 
L 508.009174 156.552362 
L 509.462237 153.355634 
L 510.62468 149.577684 
L 509.752847 144.637283 
L 505.974889 143.184228 
L 501.034496 141.731165 
L 495.222261 140.568722 
L 487.956964 138.825048 
L 472.554545 134.175257 
L 481.563508 135.918931 
L 486.503901 137.371994 
L 491.734914 138.534437 
L 496.094094 139.696881 
L 501.906328 140.859333 
L 506.84673 142.312387 
L 510.62468 142.893617 
L 512.949576 142.021776 
L 513.821408 138.825048 
L 511.496513 134.465877 
L 506.556119 130.106697 
L 500.453266 126.328747 
L 492.897366 123.132019 
L 485.242232 120.815932 
L 477.442867 118.772839 
L 472.793076 114.994889 
L 470.177569 110.92632 
L 466.69023 106.276537 
L 464.655946 100.464294 
L 460.877996 97.267566 
L 454.775151 95.814512 
L 444.894347 95.523901 
L 440.535175 95.523901 
L 436.466606 95.23329 
L 431.526213 95.23329 
L 426.876422 96.395734 
L 422.226631 98.139407 
L 418.15807 100.464294 
L 413.217669 103.951642 
L 409.439719 107.14837 
L 402.755643 113.251215 
L 399.268304 117.029165 
L 395.490354 120.807123 
L 390.840563 124.585073 
L 385.028329 128.944253 
L 378.634873 132.140981 
L 372.532027 134.465877 
L 367.010404 136.209542 
L 361.779391 136.790764 
L 354.223483 137.953216 
L 348.120638 138.825048 
L 343.470847 139.9875 
L 336.496169 142.893617 
L 329.521483 146.671567 
L 326.034144 149.868295 
L 323.999859 152.774413 
L 323.999859 155.971141 
L 324.581089 158.877258 
L 326.615365 160.03971 
L 330.683934 158.586647 
L 326.905976 160.911542 
L 324.8717 162.945827 
L 323.709248 166.433166 
L 323.709248 169.920505 
L 323.999859 172.826622 
L 325.743533 175.732739 
L 327.487206 179.510698 
L 329.230872 181.835585 
L 331.555767 181.544974 
L 334.752495 178.638857 
L 337.077391 175.151518 
L 340.274119 171.664179 
L 344.052069 168.758061 
L 346.958186 167.304999 
L 350.445533 164.980103 
" style="fill:none;stroke:#000000;stroke-linecap:square;stroke-width:1.5;"/>
   </g>
   <g id="line2d_9">
    <path clip-path="url(#pe8431b271e)" d="M 435.013552 302.753355 
L 436.175995 299.556627 
L 435.594774 295.778669 
L 433.8511 293.744393 
L 431.526213 292.000719 
L 428.910706 291.419497 
L 425.423359 292.29133 
L 421.93602 293.163163 
L 419.320514 293.744393 
L 417.576848 295.197447 
L 415.833175 294.035004 
L 413.508279 293.163163 
L 410.311551 293.453782 
L 407.114823 294.035004 
L 404.789928 294.616225 
L 402.174421 295.488058 
L 399.268304 296.65051 
L 396.362187 298.103564 
L 394.037292 299.266016 
L 393.746681 301.881523 
L 393.45607 304.78764 
L 393.746681 306.821916 
L 390.549953 308.274979 
L 388.806279 310.890485 
L 391.712396 312.92477 
L 388.225057 313.505991 
L 385.028329 315.830887 
L 383.284655 318.446393 
L 381.54099 320.77128 
L 380.959768 323.677398 
L 381.831601 326.292904 
L 385.31894 328.327188 
L 388.515668 327.745967 
L 392.874848 326.292904 
L 397.81525 324.839849 
L 403.627484 323.096176 
L 413.217669 321.643121 
L 419.611125 321.061891 
L 428.038866 320.190059 
L 434.43233 320.190059 
L 441.697619 320.190059 
L 447.509853 319.899448 
L 455.356372 319.608837 
L 460.877996 319.608837 
L 464.074724 317.865163 
L 466.109009 314.087213 
L 464.946565 311.181096 
L 462.040448 308.274979 
L 458.26249 307.112527 
L 453.903318 305.659472 
L 448.962916 304.78764 
L 444.603736 303.625188 
L 440.535175 303.334577 
L 435.013552 302.753355 
" style="fill:none;stroke:#000000;stroke-linecap:square;stroke-width:1.5;"/>
   </g>
   <g id="line2d_10">
    <path clip-path="url(#pe8431b271e)" d="M 387.353224 337.917373 
L 390.549953 342.857775 
L 398.687082 347.216955 
L 407.986656 348.96062 
L 416.123786 347.798176 
L 427.457644 346.635733 
L 437.919669 344.020226 
L 446.34741 340.242268 
L 452.159644 337.917373 
L 456.809435 335.301875 
L 460.877996 332.105138 
L 463.493502 328.036578 
L 464.074724 325.13046 
L 462.040448 323.968008 
L 455.065761 323.096176 
L 451.578422 322.224343 
L 446.056799 322.514954 
L 440.244564 322.514954 
L 435.013552 323.386787 
L 429.201317 323.677398 
L 423.389083 325.13046 
L 417.576848 326.002293 
L 413.217669 326.874134 
L 409.149108 327.455356 
L 405.080539 327.745967 
L 401.883811 328.327188 
L 396.652798 329.780251 
L 392.293626 331.233306 
L 389.67812 332.686368 
L 387.353224 334.720645 
L 387.353224 337.917373 
" style="fill:none;stroke:#000000;stroke-linecap:square;stroke-width:1.5;"/>
   </g>
   <g id="line2d_11">
    <path clip-path="url(#pe8431b271e)" d="M 359.454496 135.62832 
L 367.591626 134.465877 
L 375.728756 131.85037 
L 382.994044 128.072412 
L 389.968731 123.71324 
L 395.199743 119.063449 
L 399.268304 115.57611 
L 402.755643 112.088771 
L 409.730329 105.114085 
L 413.217669 101.626746 
L 416.995618 99.01124 
L 419.901736 96.395734 
L 415.833175 96.395734 
L 411.764614 97.558177 
L 406.824212 98.720629 
L 401.883811 100.464294 
L 396.362187 103.370412 
L 391.712396 106.567148 
L 387.062614 110.345098 
L 383.865885 113.251215 
L 380.669157 116.738554 
L 377.763032 119.644671 
L 375.147534 122.841399 
L 373.113249 125.456906 
L 370.207132 127.781801 
L 366.429174 130.106697 
L 364.976119 131.26914 
L 359.454496 135.62832 
" style="fill:none;stroke:#000000;stroke-linecap:square;stroke-width:1.5;"/>
   </g>
   <g id="line2d_12">
    <path clip-path="url(#pe8431b271e)" d="M 248.049141 359.700184 
L 246.645903 364.110358 
L 244.440812 368.320073 
L 242.436188 371.727935 
L 241.03295 374.534412 
L 239.830171 376.739495 
L 240.832491 379.345512 
L 243.037574 381.550603 
L 247.447756 381.751062 
L 250.254224 380.147365 
L 252.659774 377.340888 
L 253.862554 374.935338 
L 255.065333 371.527468 
L 256.067645 368.520532 
L 256.067645 365.714055 
L 255.867177 363.909891 
L 254.664406 362.306193 
L 253.662095 360.902955 
L 252.860242 359.09879 
L 252.058389 357.495093 
L 250.254224 357.495093 
L 248.049141 359.700184 
" style="fill:none;stroke:#000000;stroke-linecap:square;stroke-width:1.5;"/>
   </g>
   <g id="line2d_13">
    <path clip-path="url(#pe8431b271e)" d="M 170.751513 291.204515 
L 167.945036 295.41423 
L 164.537174 298.621633 
L 161.129304 302.430421 
L 157.320515 306.439669 
L 154.914965 309.847531 
L 151.908029 313.45586 
L 149.903406 317.064181 
L 147.698314 320.472052 
L 146.896462 324.882226 
L 146.094617 328.691014 
L 146.295076 332.098876 
L 147.698314 335.907665 
L 151.306644 342.322471 
L 156.518671 346.933104 
L 160.928845 349.338654 
L 165.940404 353.34791 
L 171.954284 356.755772 
L 177.567237 357.758084 
L 182.578796 355.552992 
L 183.581116 352.345598 
L 183.380649 348.135883 
L 183.982035 343.324782 
L 184.583428 340.117379 
L 185.786199 335.506738 
L 186.788511 331.898417 
L 188.191749 328.891473 
L 189.194061 326.485923 
L 192.000538 321.87529 
L 188.191749 329.893785 
L 186.588052 334.704894 
L 185.385273 340.117379 
L 184.583428 344.327094 
L 184.182502 348.937727 
L 184.182502 352.14513 
L 185.184814 355.152074 
L 188.592676 356.154386 
L 194.606555 357.156698 
L 199.818582 356.755772 
L 201.823206 354.951607 
L 202.825518 348.937727 
L 203.627371 345.529865 
L 204.228756 341.520618 
L 205.231068 337.711829 
L 206.634306 332.900729 
L 207.636618 328.490547 
L 209.039857 324.882226 
L 210.643562 320.87297 
L 212.24726 317.665575 
L 212.648186 314.658631 
L 212.447719 312.453548 
L 211.04448 310.849843 
L 208.238004 309.446604 
L 204.830142 307.642448 
L 202.625059 305.437357 
L 200.219509 304.635504 
L 197.413032 303.633192 
L 195.007482 302.63088 
L 191.399152 301.428101 
L 188.191749 300.22533 
L 183.380649 297.218394 
L 179.772328 294.812844 
L 176.163999 292.607753 
L 172.956596 291.404974 
L 170.751513 291.204515 
" style="fill:none;stroke:#000000;stroke-linecap:square;stroke-width:1.5;"/>
   </g>
  </g>
 </g>
 <defs>
  <clipPath id="pe8431b271e">
   <rect height="592.56" width="829.44" x="0" y="0"/>
  </clipPath>
 </defs>
</svg>
