<?xml version="1.0" encoding="utf-8" standalone="no"?>
<!DOCTYPE svg PUBLIC "-//W3C//DTD SVG 1.1//EN"
  "http://www.w3.org/Graphics/SVG/1.1/DTD/svg11.dtd">
<!-- Created with matplotlib (https://matplotlib.org/) -->
<svg height="529.92pt" version="1.1" viewBox="0 0 777.6 529.92" width="777.6pt" xmlns="http://www.w3.org/2000/svg" xmlns:xlink="http://www.w3.org/1999/xlink">
 <defs>
  <style type="text/css">
*{stroke-linecap:butt;stroke-linejoin:round;}
  </style>
 </defs>
 <g id="figure_1">
  <g><image xlink:href="../../img/cb/lion_cor_cell.json.cb-50%25.png" width="777.6px" height="529.92px"/></g>

  <g id="patch_1">
   <path d="M 0 529.92 
L 777.6 529.92 
L 777.6 0 
L 0 0 
z
" style="fill:none;"/>
  </g>
  <g id="axes_1">
   <g id="line2d_1">
    <path clip-path="url(#p39c4009a83)" d="M 117.139631 372.662545 
L 117.283635 375.686546 
L 119.011633 378.854543 
L 121.603639 379.862546 
L 125.059635 379.142542 
L 132.691631 372.806541 
L 137.299634 366.542545 
L 139.315632 363.158547 
L 140.539637 361.71854 
L 140.179632 364.238548 
L 136.435635 370.718545 
L 133.987634 373.958548 
L 131.107637 376.478547 
L 128.515632 379.286546 
L 124.915631 382.166543 
L 124.483636 385.190544 
L 125.635634 387.926545 
L 127.435639 390.086547 
L 130.243638 391.958541 
L 130.747631 393.758545 
L 130.459632 395.846541 
L 129.883632 398.870542 
L 129.003241 400.748959 
L 132.100593 405.93839 
L 135.124594 408.314385 
L 137.284596 409.53839 
L 140.308597 411.626386 
L 142.468598 413.642384 
L 146.356598 415.874383 
L 149.308593 417.02639 
L 153.124595 418.394391 
L 155.140593 418.898384 
L 157.084593 420.554385 
L 163.132595 421.418384 
L 165.486507 420.802657 
L 168.942504 420.442659 
L 171.678505 420.586663 
L 175.350503 419.86666 
L 179.958506 416.770661 
L 181.297883 415.334939 
L 182.809888 413.246943 
L 183.313889 410.00694 
L 183.457885 406.40694 
L 183.385887 401.870943 
L 184.825886 395.246942 
L 186.481886 392.294939 
L 186.409888 394.814938 
L 183.889888 403.526943 
L 184.249886 409.934942 
L 185.257889 412.670944 
L 186.985887 415.046939 
L 189.577885 415.550941 
L 190.729884 415.334939 
L 195.76989 413.966938 
L 199.585884 413.966938 
L 199.65789 413.750945 
L 202.321886 412.52694 
L 204.553885 410.942945 
L 206.209886 408.134938 
L 207.43389 403.886941 
L 207.630825 401.166484 
L 207.599107 399.051707 
L 208.528471 393.527614 
L 208.816471 396.191609 
L 208.384467 399.287608 
L 208.572888 400.836789 
L 208.44823 403.13263 
L 207.800233 405.580631 
L 207.584231 408.748628 
L 207.800233 410.260632 
L 209.02423 411.340633 
L 211.112234 412.492632 
L 215.360231 412.636628 
L 217.091371 411.831143 
L 219.89937 410.391145 
L 226.883369 407.367144 
L 227.819374 405.279148 
L 227.171369 401.391148 
L 227.96337 399.663142 
L 228.035368 403.407146 
L 229.763374 405.927145 
L 231.755309 405.234819 
L 228.199037 407.581668 
L 227.767034 409.021667 
L 228.343033 411.253667 
L 229.49504 413.701668 
L 232.015039 416.077664 
L 234.247039 418.021664 
L 236.911034 419.821668 
L 241.663033 421.549666 
L 244.399035 422.413665 
L 241.879035 421.981669 
L 238.783036 420.901669 
L 235.543034 419.245668 
L 233.621048 418.843019 
L 231.059983 415.404262 
L 228.500365 412.855445 
L 227.207341 411.203402 
L 224.18334 410.339403 
L 222.455341 410.915403 
L 220.583339 411.347398 
L 219.003699 412.202059 
L 216.123702 413.426055 
L 214.5397 414.93806 
L 213.747707 415.946063 
L 213.243705 418.466062 
L 213.819705 422.13806 
L 215.043701 424.946059 
L 217.419705 427.610063 
L 219.651705 428.978055 
L 222.963705 429.842062 
L 232.107706 430.706062 
L 234.771701 430.562058 
L 237.219703 430.20206 
L 234.987703 430.850057 
L 224.115704 430.778059 
L 221.235707 430.058056 
L 218.571704 428.978055 
L 216.555706 427.610063 
L 214.395704 425.810059 
L 212.955706 424.874062 
L 210.507704 424.514056 
L 208.9957 425.450061 
L 206.691702 427.034055 
L 205.1077 428.762062 
L 204.315706 429.91406 
L 205.467705 427.826057 
L 210.507704 424.298062 
L 211.659703 422.570056 
L 212.523702 420.122062 
L 212.811702 417.098062 
L 212.019701 414.218057 
L 210.219704 412.634062 
L 208.131701 411.770055 
L 206.187701 411.482055 
L 203.451699 412.202059 
L 201.507699 413.570059 
L 197.3317 415.658055 
L 195.531703 416.810062 
L 194.235701 417.962061 
L 192.075707 420.266058 
L 189.699703 422.858056 
L 187.6117 423.074057 
L 187.899699 424.37006 
L 189.483702 425.090055 
L 192.579701 425.666063 
L 194.019707 426.60206 
L 196.251707 427.538057 
L 197.907707 428.54606 
L 199.347706 430.346056 
L 200.571702 431.570061 
L 203.379701 433.442063 
L 205.467705 434.162058 
L 208.275704 434.09006 
L 212.955706 435.458061 
L 218.821096 437.740076 
L 223.02722 438.490646 
L 225.043225 438.490646 
L 228.355226 438.274644 
L 231.379219 437.770643 
L 237.859224 435.250644 
L 241.387219 432.226643 
L 244.339222 429.490642 
L 250.315225 424.810648 
L 253.915226 421.570646 
L 256.579221 418.618643 
L 261.108072 414.69247 
L 263.052072 411.812473 
L 264.708073 408.572471 
L 266.220069 405.116474 
L 267.660075 401.300472 
L 271.116072 393.380476 
L 273.105554 391.578271 
L 277.065552 388.482273 
L 282.033553 384.882272 
L 292.657248 378.398721 
L 304.626915 369.75296 
L 308.802915 367.376957 
L 314.850917 366.944961 
L 323.811396 366.966244 
L 327.627398 366.822248 
L 332.163395 367.254244 
L 337.491401 367.614249 
L 342.8194 367.254244 
L 347.859399 367.326249 
L 355.275401 366.534248 
L 360.210269 365.892441 
L 365.034266 364.380444 
L 370.43427 362.436444 
L 379.218273 356.820446 
L 383.682272 354.51644 
L 387.282273 350.772444 
L 392.090515 344.466357 
L 393.499783 342.822363 
L 396.88379 342.606361 
L 399.115789 343.902356 
L 400.627786 347.07036 
L 403.723785 351.102356 
L 406.963787 354.84636 
L 415.171783 357.006362 
L 418.507034 358.086728 
L 425.03728 359.888669 
L 430.077279 361.400665 
L 434.829278 363.200669 
L 446.925281 364.064668 
L 462.307718 363.558078 
L 466.357871 362.98256 
L 472.549868 361.974557 
L 477.733871 361.830561 
L 483.205865 362.694561 
L 487.741871 365.574558 
L 490.765872 368.454563 
L 496.38187 372.558557 
L 500.130609 374.888075 
L 506.902596 375.92698 
L 511.582597 377.726976 
L 515.830594 378.950973 
L 520.150598 383.198978 
L 522.426128 386.605589 
L 526.154362 393.34487 
L 531.050365 399.752877 
L 534.434363 402.848876 
L 536.954363 404.072873 
L 539.330359 405.368875 
L 542.160104 403.415 
L 540.610319 404.963925 
L 542.482321 407.195924 
L 545.434316 408.923923 
L 549.034317 410.867923 
L 555.658318 411.731922 
L 558.826315 411.155922 
L 561.058314 409.57192 
L 562.858318 407.123926 
L 563.434318 405.899922 
L 565.450316 404.315919 
L 562.066317 408.923923 
L 560.84232 410.219925 
L 561.634314 411.443922 
L 565.522314 411.80392 
L 568.546315 411.947923 
L 573.08232 411.875925 
L 576.610314 410.507925 
L 579.346315 408.851925 
L 582.486179 406.096649 
L 582.298318 408.851925 
L 583.162318 410.507925 
L 587.050318 409.931925 
L 589.371072 409.139924 
L 595.491072 406.835927 
L 599.73907 403.811926 
L 602.187071 401.003927 
L 602.187071 395.819924 
L 602.048379 393.888319 
L 600.10745 391.55943 
L 595.143983 389.254663 
L 597.73598 389.974658 
L 600.471981 390.982661 
L 600.975983 391.918658 
L 603.495982 392.926661 
L 605.51198 393.430662 
L 608.247981 393.934664 
L 610.623977 394.150658 
L 615.51998 395.230659 
L 619.191978 395.590664 
L 623.367978 393.934664 
L 625.320259 392.096713 
L 627.768253 389.43271 
L 631.728259 385.904707 
L 638.928259 378.992707 
L 641.736258 375.464712 
L 644.472259 372.656713 
L 647.280259 368.33671 
L 647.630482 367.236133 
L 647.70248 365.508135 
L 644.534483 363.492137 
L 641.58248 362.412136 
L 638.414483 361.620135 
L 630.926483 361.188132 
L 626.966477 361.116134 
L 623.582479 361.188132 
L 620.19848 361.116134 
L 612.782478 361.332135 
L 610.044097 361.003872 
L 599.69166 360.987487 
L 595.166961 361.781751 
L 594.734965 361.27775 
L 598.910965 360.269747 
L 601.344853 360.40358 
L 609.349498 359.751788 
L 614.348214 359.692177 
L 618.655901 359.767869 
L 627.727903 360.27187 
L 636.295904 360.343868 
L 639.823907 360.55987 
L 643.063901 361.135869 
L 645.727905 361.999868 
L 647.527901 361.639871 
L 650.551902 361.567865 
L 668.623901 356.455868 
L 676.679262 353.092367 
L 680.711266 350.28436 
L 683.375261 345.460363 
L 684.383264 341.428367 
L 684.167262 338.404366 
L 684.095264 335.812361 
L 683.644606 333.786021 
L 681.988683 328.487089 
L 679.339221 323.850525 
L 675.696212 320.869883 
L 670.39728 320.869883 
L 665.098348 325.00967 
L 659.965014 327.659132 
L 654.997262 328.818277 
L 649.20156 329.977414 
L 642.412304 331.633329 
L 635.954235 332.130106 
L 621.713362 332.626876 
L 614.758523 333.289243 
L 608.134856 334.282798 
L 592.569256 336.269893 
L 584.620862 337.760218 
L 578.162785 338.091398 
L 571.373536 337.925808 
L 574.022998 333.951611 
L 581.805802 331.633329 
L 589.257418 331.136559 
L 611.943463 330.308601 
L 619.560677 330.639781 
L 626.184336 330.143004 
L 632.311225 330.474191 
L 638.934884 330.639781 
L 644.896184 330.308601 
L 650.360705 329.315046 
L 656.156407 327.824722 
L 660.792972 326.831174 
L 666.091896 323.684935 
L 669.403733 319.710738 
L 672.053195 313.749446 
L 672.549972 307.953737 
L 670.89405 302.158035 
L 664.767168 295.699966 
L 660.130604 293.050496 
L 654.666082 288.745119 
L 649.53274 286.261247 
L 643.240269 286.426837 
L 640.425209 288.745119 
L 638.438107 293.547274 
L 636.451012 297.024701 
L 635.126277 304.310727 
L 632.145635 301.330078 
L 629.164986 298.846206 
L 625.521969 300.50212 
L 623.534874 305.138685 
L 620.554224 309.444062 
L 617.739165 312.921489 
L 613.930565 315.570951 
L 618.401532 311.265566 
L 620.554224 305.801052 
L 623.700464 301.330078 
L 626.184336 296.859103 
L 630.324123 298.349428 
L 633.470363 300.170933 
L 637.11338 295.037599 
L 638.934884 290.235444 
L 639.431662 285.76447 
L 635.954235 282.28705 
L 631.648858 279.140811 
L 627.343473 276.160161 
L 622.541319 274.835434 
L 617.739165 275.663391 
L 616.414438 277.153708 
L 616.08325 280.465546 
L 615.420882 282.61823 
L 614.758523 279.471991 
L 614.190867 277.839909 
L 612.670628 276.635609 
L 609.322297 276.184904 
L 609.443432 276.184904 
L 612.341283 276.433285 
L 615.901501 276.350494 
L 617.723014 274.446191 
L 618.219784 272.624686 
L 615.81871 270.058015 
L 614.753966 269.847542 
L 609.951812 267.860447 
L 610.034611 267.36367 
L 614.174397 268.936794 
L 617.072248 270.427111 
L 618.728171 272.000234 
L 620.549675 271.503457 
L 622.619569 270.261521 
L 622.288389 266.038935 
L 619.39053 260.905601 
L 617.237846 258.421729 
L 614.753966 256.600224 
L 611.442137 255.275489 
L 608.213106 254.69592 
L 605.729234 255.19269 
L 604.735679 256.931404 
L 604.073319 259.084096 
L 602.748584 260.243233 
L 600.927079 262.147537 
L 599.105567 262.561516 
L 601.258259 260.905601 
L 602.914174 259.249686 
L 604.15611 257.096994 
L 603.907721 254.281942 
L 601.920627 252.708818 
L 599.436755 251.218493 
L 596.456105 250.390536 
L 594.055024 250.307745 
L 591.902339 250.721724 
L 590.080827 252.046451 
L 589.915237 254.033553 
L 589.170078 255.606669 
L 588.7561 257.676562 
L 588.093732 259.829255 
L 587.017386 261.071191 
L 584.947493 262.230336 
L 584.781903 261.485169 
L 586.249771 259.576659 
L 587.94434 257.617162 
L 588.431545 254.682647 
L 589.722548 252.316721 
L 589.513956 250.988075 
L 589.696483 249.465977 
L 587.103676 247.525204 
L 585.582979 246.589207 
L 582.064284 246.229202 
L 579.090345 246.229202 
L 577.015988 246.949205 
L 574.806982 248.6662 
L 573.089894 250.383289 
L 571.740758 252.713624 
L 569.533073 255.28926 
L 568.551874 257.864889 
L 569.410423 259.704629 
L 571.372805 260.317875 
L 568.306581 259.949923 
L 566.589492 261.667011 
L 565.853595 265.837086 
L 567.448032 268.290064 
L 570.391614 269.516557 
L 573.335195 270.375105 
L 569.042478 269.639207 
L 566.957437 269.884509 
L 564.013863 270.375105 
L 562.542068 272.705432 
L 560.579686 276.384911 
L 559.475844 279.205841 
L 557.390803 282.272066 
L 553.588681 285.951545 
L 551.503648 287.668633 
L 552.730141 285.951545 
L 556.041667 283.253265 
L 558.004049 279.819088 
L 559.96644 275.894315 
L 561.928822 272.337487 
L 562.910021 270.129803 
L 562.664719 259.704629 
L 565.608301 258.478136 
L 567.938636 255.902507 
L 566.466841 253.204219 
L 563.891212 252.100377 
L 565.976246 252.46833 
L 570.759566 250.873892 
L 572.967251 247.685009 
L 571.618107 244.373483 
L 568.919827 240.816655 
L 565.730944 238.976923 
L 560.82498 237.995732 
L 558.494645 238.731621 
L 554.569872 242.901696 
L 552.362188 247.317064 
L 551.258346 251.977734 
L 548.682717 256.883698 
L 547.456224 260.440518 
L 544.635293 266.450332 
L 543.408801 269.393906 
L 541.937014 272.092193 
L 540.833172 275.771664 
L 541.937014 271.60159 
L 543.531451 266.572975 
L 546.352382 262.034964 
L 548.682717 256.515746 
L 549.786559 251.977734 
L 548.805368 250.873892 
L 546.842978 250.383289 
L 549.786559 250.015344 
L 550.277155 246.826469 
L 549.173313 244.741427 
L 550.890401 245.10938 
L 552.543338 244.018975 
L 555.527697 240.090726 
L 557.183697 237.426731 
L 557.831702 234.834726 
L 556.74041 233.194277 
L 555.110607 231.093264 
L 552.662933 228.93488 
L 548.846931 228.142887 
L 544.958931 228.070881 
L 541.21177 226.10468 
L 538.065864 225.05604 
L 534.220866 224.881275 
L 531.774046 226.454227 
L 529.676773 229.07582 
L 529.851547 232.920819 
L 530.725406 236.591044 
L 533.346999 238.86309 
L 536.143365 239.212637 
L 539.988364 240.610816 
L 537.191997 240.086496 
L 534.220866 239.387403 
L 530.900179 239.387403 
L 528.453367 240.78559 
L 527.754274 244.106268 
L 528.802906 248.300814 
L 530.725406 250.922407 
L 533.172225 251.796266 
L 535.269498 252.670133 
L 532.47314 251.796266 
L 529.152453 251.446727 
L 527.754274 252.844906 
L 524.433588 257.563771 
L 523.559729 259.661044 
L 524.084049 262.107856 
L 527.404727 262.632176 
L 525.831775 263.33127 
L 523.909275 263.33127 
L 522.336315 265.603316 
L 522.685862 268.574448 
L 523.559729 271.19604 
L 525.657001 273.11854 
L 528.628133 274.691492 
L 522.336315 271.895134 
L 519.71473 272.943766 
L 519.015636 276.264445 
L 517.79223 278.536491 
L 519.19041 281.682404 
L 518.141777 280.983311 
L 516.74359 277.487859 
L 520.064277 269.273541 
L 521.112909 264.379902 
L 521.637229 260.010583 
L 518.840863 257.214225 
L 520.588589 257.563771 
L 522.685862 257.563771 
L 523.559729 255.291725 
L 526.181321 250.57286 
L 526.356095 246.203541 
L 525.482228 243.407182 
L 526.53086 240.960363 
L 526.880407 237.989223 
L 525.482228 234.843318 
L 526.705634 232.571272 
L 526.880407 229.336122 
L 526.705634 226.279454 
L 525.394841 223.657861 
L 523.297568 221.036268 
L 518.578703 216.84173 
L 514.471544 214.482298 
L 510.801319 214.045364 
L 507.305867 214.919223 
L 506.257226 216.929109 
L 508.441886 220.424569 
L 511.413026 227.328086 
L 510.539159 229.600132 
L 509.228366 232.571272 
L 506.95632 234.144225 
L 504.422114 236.066724 
L 504.072567 237.377517 
L 504.334727 241.222523 
L 504.422114 247.252181 
L 504.072567 249.873766 
L 503.810415 253.893538 
L 503.810415 257.301611 
L 503.286095 260.185357 
L 502.936548 263.156496 
L 502.761775 259.661044 
L 502.936548 251.446727 
L 503.635641 248.12604 
L 503.286095 246.203541 
L 503.460868 242.096382 
L 502.412228 236.503657 
L 505.033821 234.930705 
L 507.7428 232.309112 
L 509.403139 229.425359 
L 509.778767 226.812903 
L 508.370106 223.698444 
L 506.795559 220.557305 
L 505.13522 217.498787 
L 502.863174 216.88708 
L 500.154194 218.984353 
L 497.095675 221.780719 
L 495.173176 223.353672 
L 497.008289 220.906852 
L 499.892034 218.547419 
L 501.552373 216.88708 
L 503.21272 214.178108 
L 501.727147 211.206969 
L 500.066807 208.235829 
L 498.056921 205.614244 
L 494.474083 204.740377 
L 490.716471 205.876404 
L 489.302242 206.971016 
L 489.477015 208.806129 
L 489.477015 211.777268 
L 489.913949 214.22408 
L 488.253609 211.952042 
L 488.865308 209.330449 
L 488.287139 207.455733 
L 487.240334 205.34196 
L 484.190758 203.143031 
L 481.48401 201.429465 
L 480.039875 200.213773 
L 478.285656 199.685378 
L 476.188383 200.821397 
L 474.440649 202.743905 
L 473.741564 203.792537 
L 471.819064 205.10333 
L 470.770424 206.851063 
L 471.906451 208.686176 
L 474.440649 212.356401 
L 476.800082 214.541061 
L 481.431561 219.959012 
L 483.441447 222.930152 
L 484.75224 224.240944 
L 485.53872 226.076057 
L 483.878381 225.376963 
L 482.538374 224.241683 
L 481.538473 222.201579 
L 476.88652 216.074084 
L 475.014386 213.930155 
L 473.577226 212.082033 
L 472.353812 210.159534 
L 470.693473 208.324421 
L 468.85836 206.576695 
L 466.586314 208.237034 
L 464.751201 210.24692 
L 462.916089 211.819873 
L 462.042222 214.266692 
L 461.780069 216.800899 
L 463.090862 221.344983 
L 464.489041 225.626915 
L 466.586314 228.685442 
L 479.94154 236.034594 
L 482.737898 238.30664 
L 484.660397 240.753451 
L 486.670283 245.472317 
L 487.107217 247.482203 
L 485.359491 244.685837 
L 483.436992 241.365158 
L 481.951426 239.267885 
L 478.892899 236.646293 
L 473.474948 233.063454 
L 467.882215 230.267088 
L 465.697556 229.655389 
L 463.577865 229.666679 
L 462.215658 230.841283 
L 461.126676 231.942598 
L 460.664175 234.608833 
L 461.888389 237.667942 
L 463.461342 240.289535 
L 463.810889 241.949875 
L 465.733388 243.959761 
L 466.869415 246.668732 
L 468.092821 249.290325 
L 471.06396 250.164192 
L 476.744072 252.960551 
L 480.501684 254.358738 
L 482.51157 255.93169 
L 479.365665 254.446124 
L 471.500894 251.911918 
L 467.918047 251.300211 
L 466.869415 252.960551 
L 467.825824 255.428148 
L 468.98444 256.999592 
L 471.781763 259.12279 
L 473.704262 260.433582 
L 476.238468 261.919148 
L 477.986194 263.229948 
L 480.869947 265.589381 
L 483.316767 267.162334 
L 485.326653 269.346993 
L 487.860859 275.201878 
L 488.297785 277.386537 
L 486.637445 273.803699 
L 484.802333 270.657786 
L 481.831193 267.51188 
L 478.423128 264.890288 
L 475.189836 262.880402 
L 471.694376 259.996649 
L 468.024151 258.161536 
L 465.489945 257.20029 
L 462.431426 256.763357 
L 454.745527 254.984791 
L 451.646169 254.652266 
L 449.898443 255.526125 
L 447.72138 262.64587 
L 448.077529 265.683097 
L 449.300935 267.51821 
L 452.621621 268.741624 
L 456.117073 270.838896 
L 459.699912 273.984802 
L 462.583665 275.732528 
L 465.292644 278.441507 
L 466.952983 280.53878 
L 468.96287 282.723439 
L 469.836729 284.471165 
L 471.060142 286.306278 
L 469.312416 285.257646 
L 467.215144 281.412647 
L 464.593551 278.354121 
L 461.797184 275.907301 
L 458.476506 274.159575 
L 453.670254 271.887529 
L 447.640595 270.22719 
L 444.078977 269.101777 
L 439.593641 268.868995 
L 429.718984 268.606835 
L 422.028979 268.956381 
L 417.572452 268.781608 
L 411.8879 269.131155 
L 406.644722 269.568088 
L 400.964603 269.655475 
L 392.225973 270.529334 
L 387.839501 271.265954 
L 383.120635 271.790275 
L 378.401777 272.838907 
L 373.770298 273.450614 
L 369.66314 274.237086 
L 364.856887 275.285726 
L 359.963256 275.897433 
L 355.24439 276.24698 
L 347.11746 276.159593 
L 340.137559 275.565204 
L 329.751972 273.707129 
L 325.530055 273.184978 
L 322.646302 273.534525 
L 319.675162 274.321005 
L 316.529257 275.282251 
L 313.383344 276.68043 
L 310.499599 278.340777 
L 308.489713 279.826343 
L 306.042894 281.399295 
L 304.557328 283.321795 
L 304.295168 285.331681 
L 303.770847 287.865887 
L 305.256413 292.235206 
L 303.770847 289.701 
L 302.809602 286.555094 
L 303.508687 283.496568 
L 305.081648 281.137135 
L 306.39244 279.389409 
L 318.189597 272.835431 
L 319.762549 270.388619 
L 319.063463 267.854413 
L 317.84005 265.757141 
L 315.393238 265.23282 
L 312.946419 265.23282 
L 315.393238 264.533727 
L 319.587776 263.485094 
L 320.811189 259.552709 
L 321.294133 256.133734 
L 323.539796 250.143757 
L 324.675815 247.609551 
L 325.025362 245.424891 
L 322.753315 243.939325 
L 319.694797 243.677165 
L 312.354346 245.861825 
L 308.421953 247.959097 
L 302.51654 251.793847 
L 301.291485 253.804534 
L 300.679779 256.600901 
L 299.718533 259.04772 
L 299.543759 261.581918 
L 298.669893 263.766578 
L 297.184327 268.31067 
L 296.31046 269.446689 
L 297.009553 266.999878 
L 297.708647 263.067492 
L 299.106826 258.78556 
L 300.505005 253.629761 
L 302.340118 249.609989 
L 304.350004 247.687489 
L 313.001255 244.366811 
L 316.047254 242.451294 
L 318.73894 238.721793 
L 319.266907 235.068667 
L 319.268625 232.131905 
L 318.009434 228.72814 
L 316.349095 228.203819 
L 313.72751 228.9903 
L 311.01853 230.738026 
L 308.659098 232.485752 
L 305.950118 233.796544 
L 307.610465 232.310978 
L 311.193304 229.951545 
L 315.125689 227.854273 
L 316.698642 225.057906 
L 316.814955 223.262187 
L 315.492413 220.497135 
L 313.568701 218.053558 
L 310.597561 216.830152 
L 306.665176 216.830152 
L 303.781431 217.878784 
L 300.635518 219.189577 
L 298.450858 221.54901 
L 296.615746 223.821056 
L 295.304953 226.267875 
L 294.168926 228.802082 
L 293.46984 231.59844 
L 292.15904 235.618212 
L 291.63472 238.501965 
L 291.89688 235.0939 
L 292.94552 231.511053 
L 294.343699 227.491281 
L 297.839151 220.238217 
L 297.751765 217.267078 
L 295.654492 215.257192 
L 292.770747 214.033786 
L 291.245687 213.631308 
L 288.375876 213.351278 
L 285.669914 213.398245 
L 283.868899 214.788353 
L 281.247314 215.924372 
L 280.460833 217.235173 
L 279.936513 219.157672 
L 280.460833 221.866644 
L 280.54822 224.750397 
L 279.76174 225.624264 
L 280.111287 222.478351 
L 279.237427 219.507219 
L 275.829354 218.371192 
L 273.097762 218.720739 
L 270.766735 220.031531 
L 268.669462 221.429718 
L 267.708209 223.352218 
L 266.31003 224.575623 
L 265.436163 226.235963 
L 265.086624 228.333235 
L 265.523549 231.391762 
L 266.484803 233.92596 
L 267.533436 235.761081 
L 269.455935 237.071873 
L 273.606364 237.473173 
L 272.252301 237.508807 
L 269.193783 237.858353 
L 268.582076 239.169146 
L 267.970369 240.829485 
L 268.669462 243.014145 
L 269.892868 245.373577 
L 271.553208 247.121303 
L 273.475715 248.519483 
L 276.009913 248.344709 
L 279.068439 248.694256 
L 272.689235 248.606869 
L 273.038781 249.480736 
L 271.990141 250.529369 
L 272.339688 252.801415 
L 273.475715 254.461754 
L 275.053678 255.07922 
L 273.91264 254.986074 
L 273.825254 256.559027 
L 273.563094 258.394147 
L 274.873894 260.404033 
L 277.058553 261.190506 
L 275.83514 262.151759 
L 274.711173 261.912266 
L 274.449013 263.310445 
L 274.186853 265.407718 
L 274.5364 269.514877 
L 275.148099 271.262603 
L 278.643559 276.767941 
L 279.779578 280.612947 
L 279.517418 283.671466 
L 278.381399 277.204874 
L 276.633673 275.020215 
L 274.449013 273.884196 
L 272.002194 274.146356 
L 270.691401 275.806695 
L 269.992308 277.030101 
L 268.856281 279.476921 
L 267.982422 282.44806 
L 267.108555 282.622834 
L 268.506742 280.438174 
L 269.293214 277.816581 
L 272.526514 272.311243 
L 273.74992 270.563509 
L 273.74992 269.077944 
L 273.924693 263.834766 
L 273.2256 261.82488 
L 272.002194 260.514079 
L 270.341855 259.64022 
L 268.157195 260.251927 
L 261.603217 265.232945 
L 262.389697 264.446465 
L 264.399583 262.611352 
L 267.720262 260.16454 
L 269.118441 258.416806 
L 270.341855 256.144768 
L 270.516628 253.435789 
L 269.992308 249.940337 
L 268.681515 246.707037 
L 266.147309 244.871924 
L 263.43833 245.745791 
L 260.641963 248.54215 
L 256.360039 253.261015 
L 258.020378 250.552036 
L 260.904123 247.755677 
L 263.70049 245.221471 
L 265.098669 244.347604 
L 266.846395 241.114312 
L 267.195942 238.230559 
L 266.059922 235.172041 
L 264.574356 232.725221 
L 261.77799 230.540562 
L 258.282538 229.666695 
L 253.388899 231.414429 
L 248.561862 234.517869 
L 248.299702 239.14934 
L 249.435721 243.169112 
L 248.911409 250.247411 
L 247.425835 250.684344 
L 248.561862 247.625818 
L 247.513222 240.023207 
L 245.503335 237.576388 
L 242.182657 238.275481 
L 239.036752 239.848434 
L 235.803452 242.557413 
L 234.317886 244.82946 
L 233.269246 247.101498 
L 232.57016 248.936618 
L 229.861181 251.38343 
L 228.725161 253.568089 
L 229.59902 255.927522 
L 232.482773 258.112182 
L 234.754819 259.073435 
L 236.939479 259.510361 
L 237.988111 260.995935 
L 240.347544 264.054453 
L 240.784478 265.365253 
L 240.172771 266.763433 
L 242.004516 268.296533 
L 245.969289 272.086058 
L 246.827542 273.952975 
L 245.754959 275.798266 
L 247.626961 281.054267 
L 248.058957 283.430262 
L 249.210963 286.526269 
L 249.786963 288.830267 
L 251.946957 294.086267 
L 252.306962 296.534269 
L 251.082958 295.238266 
L 248.634964 289.406266 
L 248.006243 287.140829 
L 246.676718 284.553785 
L 245.043673 281.791688 
L 243.749832 281.076 
L 240.365826 281.796004 
L 238.853829 281.796004 
L 241.805832 280.644005 
L 244.253826 279.924002 
L 244.685829 274.812005 
L 243.461824 272.868005 
L 240.653825 270.492001 
L 239.069831 268.980005 
L 236.621829 269.412 
L 232.229828 272.22 
L 234.821825 269.7 
L 237.053825 268.260002 
L 238.421826 266.316002 
L 237.98983 265.236001 
L 236.33383 262.068004 
L 233.021829 259.763998 
L 228.701826 257.892004 
L 226.589771 257.22896 
L 223.807914 256.503436 
L 221.143911 256.647432 
L 216.895914 258.015433 
L 214.807918 260.103436 
L 213.943918 262.407434 
L 214.159912 264.999432 
L 214.519918 266.43943 
L 216.463918 270.687436 
L 217.903916 272.703434 
L 222.439914 278.319432 
L 226.615914 283.791434 
L 230.791913 290.487433 
L 228.127918 288.111438 
L 226.08031 286.435554 
L 224.532218 282.909939 
L 221.204634 279.076869 
L 218.765793 276.577468 
L 216.462487 276.147035 
L 214.302485 276.651037 
L 212.502489 277.443038 
L 215.598488 275.787037 
L 216.534485 274.059039 
L 215.814482 271.683036 
L 214.230487 268.947035 
L 212.862487 266.139035 
L 212.142484 263.403034 
L 210.558489 261.603038 
L 206.742487 260.379041 
L 203.646488 260.379041 
L 200.190484 261.387036 
L 197.454483 263.043037 
L 195.368407 264.14191 
L 193.734825 265.875289 
L 193.590829 267.531289 
L 194.310825 270.699286 
L 195.390826 272.571288 
L 197.118824 274.371292 
L 199.206828 275.01929 
L 203.02283 275.595289 
L 204.174829 276.09929 
L 201.510825 275.883289 
L 199.062824 275.523291 
L 196.254825 275.379287 
L 193.950827 275.955287 
L 191.35883 276.96329 
L 191.574824 276.67529 
L 194.382823 274.299286 
L 194.238827 272.355286 
L 192.654825 268.971288 
L 190.062827 266.66729 
L 186.822825 266.883292 
L 183.726826 268.683288 
L 181.206826 270.771292 
L 180.342827 273.003292 
L 178.110827 274.73129 
L 176.238825 276.38729 
L 174.294825 278.763294 
L 174.078824 280.995293 
L 174.726829 283.011291 
L 176.310823 285.963286 
L 179.046825 286.035292 
L 181.63883 284.811288 
L 184.230827 282.075286 
L 182.574827 284.307286 
L 180.774823 285.963286 
L 181.63883 288.483294 
L 184.374823 289.491289 
L 187.614826 289.635293 
L 190.350827 288.915289 
L 193.950827 285.171293 
L 193.086828 287.403293 
L 191.934829 289.99529 
L 194.67083 294.099292 
L 196.830824 295.107287 
L 200.142825 294.531288 
L 203.454825 293.667288 
L 204.318825 291.075291 
L 207.054826 287.043287 
L 205.038828 291.795286 
L 204.894824 293.235293 
L 205.182824 295.611288 
L 206.118829 296.907291 
L 208.998826 297.411293 
L 210.870828 297.267289 
L 213.174825 295.683286 
L 215.406825 294.675291 
L 214.11083 296.40329 
L 213.365353 297.142181 
L 212.213354 298.582179 
L 212.501354 300.886177 
L 213.797349 303.334178 
L 215.525355 305.350176 
L 217.325351 307.72618 
L 221.429353 309.09418 
L 223.301355 309.310182 
L 225.461349 310.606177 
L 227.261353 310.966182 
L 227.045351 311.61418 
L 224.165354 310.966182 
L 221.501351 309.886182 
L 219.84535 309.886182 
L 218.045354 310.246179 
L 214.30135 308.374177 
L 213.437351 309.742178 
L 212.429348 311.974178 
L 211.205351 312.406181 
L 213.077353 307.366182 
L 212.429348 305.350176 
L 209.981354 302.398181 
L 209.297751 301.887866 
L 207.670498 299.978306 
L 205.933503 298.271147 
L 203.777662 296.805869 
L 201.592691 296.716499 
L 200.512169 296.788139 
L 198.496171 297.724137 
L 197.848174 300.532136 
L 196.552171 301.612137 
L 196.04817 304.492134 
L 194.608171 303.772138 
L 194.968169 300.820135 
L 195.517893 299.172549 
L 194.767455 296.265553 
L 193.380784 293.985545 
L 191.014819 291.7987 
L 189.785869 291.177172 
L 184.722892 291.160866 
L 181.626894 290.944864 
L 180.762894 291.016862 
L 179.034888 292.312865 
L 178.314893 292.384863 
L 178.602893 290.584867 
L 176.514889 290.296867 
L 174.210891 290.152863 
L 171.978892 290.296867 
L 171.402892 291.016862 
L 170.034892 292.096863 
L 167.802892 292.960862 
L 165.210894 292.816866 
L 162.258892 292.960862 
L 159.666894 293.464864 
L 158.538122 294.756644 
L 155.438025 296.563934 
L 153.988167 296.759757 
L 151.875233 297.771656 
L 150.003231 298.419661 
L 147.55523 299.859659 
L 144.963232 301.22766 
L 143.019232 302.739657 
L 139.995232 306.267659 
L 138.864764 308.251044 
L 138.000758 310.411038 
L 138.144761 313.147039 
L 138.792759 314.731042 
L 139.800762 316.45904 
L 141.312758 317.323039 
L 144.912758 318.043042 
L 148.080763 318.187038 
L 149.952757 318.907041 
L 147.720758 319.051045 
L 143.616764 318.907041 
L 140.95276 319.123043 
L 138.936762 319.555039 
L 137.64076 320.851041 
L 135.69676 322.363038 
L 133.46476 325.459045 
L 131.23276 329.635044 
L 130.608783 331.775746 
L 130.587998 337.054585 
L 130.732002 340.438583 
L 131.811995 343.462584 
L 134.979999 346.990586 
L 137.716 348.502583 
L 139.66 349.366582 
L 142.539998 351.382588 
L 145.131995 352.966582 
L 148.155996 353.398586 
L 154.636001 354.694581 
L 158.739995 354.838584 
L 171.418631 353.623258 
L 175.140154 353.981591 
L 179.028154 353.76559 
L 182.556157 352.973589 
L 185.868157 351.389586 
L 187.668154 351.893588 
L 191.628151 352.685589 
L 194.868154 351.82159 
L 199.116152 350.525587 
L 200.871949 350.199952 
L 204.94218 348.767597 
L 207.894175 348.551595 
L 216.03018 348.551595 
L 219.486177 349.415594 
L 222.366182 350.351591 
L 224.09418 352.511593 
L 223.662177 354.239591 
L 222.222178 357.263592 
L 213.438175 357.479594 
L 208.83018 357.767594 
L 205.446181 357.479594 
L 200.622176 357.263592 
L 196.158177 356.903594 
L 192.342175 356.471599 
L 188.742175 356.183591 
L 186.582181 356.399593 
L 182.262177 357.263592 
L 178.518181 357.407596 
L 175.638176 357.119596 
L 171.140802 359.073254 
L 170.241795 359.302988 
L 166.353795 364.630994 
L 165.768799 365.977075 
L 164.472797 370.225072 
L 164.184797 372.529078 
L 163.392803 375.84107 
L 162.888802 379.801076 
L 161.808801 382.825077 
L 161.880799 376.705077 
L 162.219164 362.21178 
L 161.34847 358.744034 
L 157.747342 357.818169 
L 153.427346 357.746163 
L 149.899344 356.234166 
L 147.364539 355.984292 
L 143.873659 354.730514 
L 142.232534 353.438026 
L 140.680593 351.718931 
L 138.295888 349.842022 
L 134.911889 348.402024 
L 132.247886 347.826024 
L 129.295883 348.834019 
L 128.379334 349.894572 
L 125.864093 353.849812 
L 123.001219 355.992691 
L 120.989576 358.14833 
L 120.047879 360.419894 
L 118.636239 363.256509 
L 118.023599 365.936966 
L 117.499637 368.990547 
L 117.139631 372.662545 
L 117.139631 372.662545 
" style="fill:none;stroke:#000000;stroke-linecap:square;stroke-width:1.5;"/>
   </g>
   <g id="line2d_2">
    <path clip-path="url(#p39c4009a83)" d="M 608.79159 276.184904 
L 605.982171 276.40855 
L 602.670334 278.064465 
L 601.428398 279.471991 
L 598.778936 281.459093 
L 598.03377 283.694576 
L 598.944526 287.420384 
L 599.938073 289.904264 
L 599.689692 292.553726 
L 599.110116 290.318243 
L 598.116569 286.923615 
L 596.708351 284.850961 
L 594.581412 285.616329 
L 591.522132 286.626525 
L 588.375892 287.951252 
L 585.89202 289.441577 
L 585.395243 291.34588 
L 585.312444 294.740509 
L 584.236105 296.396423 
L 582.497392 297.555561 
L 579.765131 298.714706 
L 576.784481 299.211483 
L 575.32292 298.976601 
L 572.71359 299.380549 
L 569.362375 299.618082 
L 566.472424 299.45051 
L 568.625117 299.202129 
L 572.185335 299.11933 
L 575.579963 298.705351 
L 579.140182 297.049436 
L 581.624054 294.813953 
L 583.362767 292.081692 
L 583.528357 289.515021 
L 581.955233 287.11394 
L 578.643404 282.477376 
L 580.382118 283.802111 
L 581.541255 285.954803 
L 582.948789 287.610718 
L 585.432661 287.776308 
L 587.171374 287.610718 
L 590.069225 286.534371 
L 591.642341 285.458025 
L 592.718687 283.636521 
L 591.973529 281.732217 
L 590.565995 278.751567 
L 588.496101 276.847264 
L 587.419755 274.528982 
L 588.41331 274.197802 
L 588.992879 275.770918 
L 590.814384 278.503179 
L 592.470298 281.23544 
L 594.291811 282.642973 
L 596.361704 281.980606 
L 599.093965 280.159101 
L 600.832671 278.585978 
L 601.743427 277.012862 
L 601.412247 275.853717 
L 600.418692 274.197802 
L 599.259555 271.796721 
L 598.266008 270.306404 
L 599.342346 271.87952 
L 602.654183 276.267695 
L 603.647731 276.598883 
L 606.711171 276.184904 
L 608.79159 276.184904 
" style="fill:none;stroke:#000000;stroke-linecap:square;stroke-width:1.5;"/>
   </g>
   <g id="line2d_3">
    <path clip-path="url(#p39c4009a83)" d="M 585.766386 400.713774 
L 586.834316 398.267925 
L 586.330314 399.85192 
L 585.766386 400.713774 
" style="fill:none;stroke:#000000;stroke-linecap:square;stroke-width:1.5;"/>
   </g>
   <g id="line2d_4">
    <path clip-path="url(#p39c4009a83)" d="M 542.674283 403.026387 
L 545.325101 400.917786 
L 544.444019 402.07301 
L 542.674283 403.026387 
" style="fill:none;stroke:#000000;stroke-linecap:square;stroke-width:1.5;"/>
   </g>
   <g id="line2d_5">
    <path clip-path="url(#p39c4009a83)" d="M 546.83666 399.21997 
L 549.482362 396.080871 
L 550.044444 395.775741 
L 548.258365 398.024871 
L 546.83666 399.21997 
" style="fill:none;stroke:#000000;stroke-linecap:square;stroke-width:1.5;"/>
   </g>
   <g id="line2d_6">
    <path clip-path="url(#p39c4009a83)" d="M 235.963098 403.971981 
L 236.166218 403.912532 
L 240.249545 403.504203 
L 239.791039 403.837664 
L 235.963098 403.971981 
" style="fill:none;stroke:#000000;stroke-linecap:square;stroke-width:1.5;"/>
   </g>
   <g id="line2d_7">
    <path clip-path="url(#p39c4009a83)" d="M 241.365478 403.354927 
L 243.510222 403.048532 
L 246.246216 401.75253 
L 248.478215 399.736532 
L 250.782221 398.296533 
L 252.357514 397.445987 
L 256.85296 395.784745 
L 260.956961 394.992744 
L 263.188961 395.352742 
L 259.948958 395.496746 
L 256.708956 396.144743 
L 252.460958 397.872741 
L 249.220956 399.456744 
L 248.78896 400.176739 
L 247.276956 400.96874 
L 248.140962 403.20074 
L 249.321061 405.729531 
L 247.708959 403.848745 
L 246.455997 403.730402 
L 245.467403 403.531049 
L 242.382057 403.476096 
L 241.365478 403.354927 
" style="fill:none;stroke:#000000;stroke-linecap:square;stroke-width:1.5;"/>
   </g>
   <g id="line2d_8">
    <path clip-path="url(#p39c4009a83)" d="M 250.156008 407.139422 
L 250.948962 408.240746 
L 252.748958 409.536741 
L 255.412961 410.616742 
L 255.052956 411.120744 
L 253.180961 410.68874 
L 252.172958 411.768741 
L 252.244956 413.496739 
L 251.452963 413.064744 
L 251.596959 410.40074 
L 251.02096 408.672742 
L 250.156008 407.139422 
" style="fill:none;stroke:#000000;stroke-linecap:square;stroke-width:1.5;"/>
   </g>
   <g id="line2d_9">
    <path clip-path="url(#p39c4009a83)" d="M 277.942693 255.315059 
L 280.903552 254.986074 
L 277.942693 255.315059 
" style="fill:none;stroke:#000000;stroke-linecap:square;stroke-width:1.5;"/>
   </g>
   <g id="line2d_10">
    <path clip-path="url(#p39c4009a83)" d="M 464.476592 203.070637 
L 460.799998 196.942978 
L 456.090331 192.620431 
L 448.777143 187.696575 
L 442.417021 183.462131 
L 436.289362 177.640854 
L 431.693614 170.287658 
L 428.629784 162.628088 
L 421.276596 157.113194 
L 414.842555 152.823828 
L 406.263831 147.921705 
L 400.748936 149.453616 
L 390.944683 153.13021 
L 384.510642 155.581275 
L 376.544682 157.419576 
L 368.885104 158.951487 
L 360.919152 159.870641 
L 356.629786 162.93447 
L 354.485103 168.755747 
L 350.808509 172.738723 
L 346.212769 178.56 
L 342.229785 184.074895 
L 342.536167 187.138725 
L 340.697874 189.283408 
L 341.463833 191.121701 
L 339.472337 193.419571 
L 337.02128 196.330213 
L 332.578727 199.85362 
L 329.361702 202.764254 
L 328.442556 205.21532 
L 325.991491 207.51319 
L 325.685108 209.657873 
L 321.548937 211.955743 
L 320.017019 215.172768 
L 319.251067 218.236597 
L 320.936173 222.832337 
L 323.540425 223.751492 
L 327.982979 222.525955 
L 332.11915 220.07489 
L 336.561703 217.470638 
L 341.310638 215.785532 
L 346.059574 213.028085 
L 350.04255 211.649361 
L 353.565956 210.577019 
L 356.936168 210.11745 
L 361.531916 208.279149 
L 367.353193 206.134466 
L 372.868088 203.989791 
L 379.148934 202.15149 
L 384.510642 199.85362 
L 389.106382 198.474896 
L 396.153188 197.402555 
L 402.434042 196.78979 
L 407.336172 196.483408 
L 412.544685 196.636595 
L 417.140425 197.24936 
L 421.736173 198.321701 
L 426.331914 199.547238 
L 431.540426 201.079149 
L 437.82128 203.070637 
L 442.876598 203.836596 
L 447.012769 205.981279 
L 452.068087 208.585531 
L 456.357445 210.577019 
L 460.340429 212.262125 
L 463.404258 209.657873 
L 465.548933 206.594043 
L 464.476592 203.070637 
" style="fill:none;stroke:#000000;stroke-linecap:square;stroke-width:1.5;"/>
   </g>
   <g id="line2d_11">
    <path clip-path="url(#p39c4009a83)" d="M 349.692315 261.527324 
L 349.057642 261.685992 
L 345.68743 262.451952 
L 341.244877 264.137058 
L 336.802323 266.128546 
L 334.96403 268.426424 
L 336.342754 271.030676 
L 339.866153 272.868977 
L 344.308706 274.247693 
L 349.517219 274.554083 
L 355.95126 274.860465 
L 362.385301 274.554083 
L 368.206578 273.481741 
L 373.261903 272.715782 
L 379.389563 272.103017 
L 383.372539 270.877481 
L 389.347003 270.571099 
L 396.700198 269.805139 
L 399.917223 269.34557 
L 405.7385 269.34557 
L 410.793817 268.732806 
L 416.768281 268.273229 
L 423.202323 267.966846 
L 428.257648 267.813651 
L 434.998071 267.813651 
L 439.440625 266.588123 
L 442.044877 264.596635 
L 442.57786 261.296695 
L 442.810836 258.775358 
L 442.198072 254.639187 
L 438.674665 252.800886 
L 434.998071 252.188122 
L 429.942754 252.341317 
L 423.968282 252.494504 
L 418.912964 253.41365 
L 413.857647 253.873227 
L 408.03637 254.639187 
L 403.287434 255.405146 
L 397.00658 256.171098 
L 391.338499 256.171098 
L 385.210839 257.396634 
L 378.77679 257.703016 
L 374.947009 258.622163 
L 368.053391 258.315781 
L 362.691691 258.622163 
L 358.095943 259.234927 
L 353.959772 260.460464 
L 350.646317 261.288825 
L 355.258714 259.611589 
L 361.079991 258.232865 
L 367.054455 257.773288 
L 373.028927 257.466906 
L 378.084244 257.160524 
L 383.599139 256.241377 
L 388.348074 255.475418 
L 392.637433 255.015848 
L 397.99914 254.096694 
L 402.748076 253.177548 
L 408.109775 253.177548 
L 412.552329 252.258401 
L 416.382117 251.798824 
L 422.050199 251.18606 
L 426.95233 250.726482 
L 431.854452 250.113718 
L 437.21616 250.4201 
L 440.586372 250.726482 
L 443.803388 251.18606 
L 449.165096 251.645629 
L 455.599137 252.105206 
L 460.194877 250.4201 
L 462.186373 247.356271 
L 459.582113 242.300953 
L 457.131048 237.092441 
L 455.752324 232.343505 
L 453.301267 228.513716 
L 448.399136 226.369033 
L 442.118282 224.683927 
L 436.143818 222.998822 
L 429.862964 222.845634 
L 424.501265 222.386057 
L 418.22041 222.232862 
L 412.705516 222.079675 
L 407.650198 222.386057 
L 402.594881 222.232862 
L 397.386368 222.386057 
L 393.09701 222.232862 
L 388.194879 222.539252 
L 383.445944 222.845634 
L 378.543814 223.611586 
L 373.335309 224.99031 
L 367.820414 226.82861 
L 364.756585 227.747757 
L 358.782113 229.586058 
L 354.952332 230.964782 
L 350.203389 232.649887 
L 345.91403 234.488188 
L 342.237436 235.560522 
L 338.560843 236.939246 
L 334.731054 238.777546 
L 330.901265 239.543506 
L 328.756582 241.841376 
L 327.68424 244.445628 
L 328.4502 245.977547 
L 328.297012 248.428612 
L 326.918289 252.105206 
L 326.305517 255.628613 
L 326.152329 258.692442 
L 324.926793 262.522231 
L 324.620411 266.04563 
L 326.765094 267.883931 
L 331.360842 268.190313 
L 337.028924 265.739248 
L 341.318282 263.288183 
L 345.148071 262.215841 
L 349.692315 261.527324 
" style="fill:none;stroke:#000000;stroke-linecap:square;stroke-width:1.5;"/>
   </g>
   <g id="line2d_12">
    <path clip-path="url(#p39c4009a83)" d="M 459.727656 221.453614 
L 459.727656 217.623833 
L 458.042551 214.406808 
L 454.059575 211.496174 
L 448.851062 208.585531 
L 442.417021 206.287661 
L 436.595744 204.142978 
L 429.242556 201.691913 
L 421.582978 199.700425 
L 414.382978 198.168514 
L 410.289388 198.102558 
L 402.204665 197.996276 
L 396.325706 198.32653 
L 388.980349 199.707213 
L 382.546308 201.851896 
L 376.826601 204.064845 
L 371.942682 205.233243 
L 365.828926 207.220097 
L 360.926796 209.517975 
L 354.952332 211.356268 
L 349.437437 213.041374 
L 344.535307 214.420097 
L 340.399136 216.871163 
L 335.956582 219.169033 
L 332.126794 221.313716 
L 327.990622 223.764781 
L 324.773606 226.522228 
L 324.007646 227.900952 
L 322.475736 232.19031 
L 324.773606 236.020099 
L 327.377858 238.624351 
L 332.279988 238.471164 
L 338.407648 236.326481 
L 344.075729 234.028611 
L 350.509778 231.424359 
L 356.331055 229.279676 
L 364.450202 227.134993 
L 372.262967 224.837122 
L 378.390626 223.305204 
L 385.284245 221.773293 
L 392.637433 221.620098 
L 398.45871 222.079675 
L 405.65871 221.620098 
L 411.02041 221.160529 
L 417.148069 221.466911 
L 423.122541 221.620098 
L 429.097013 221.92648 
L 435.071477 222.386057 
L 439.820412 223.305204 
L 444.87573 224.99031 
L 449.471478 226.675416 
L 454.526796 228.973294 
L 458.203389 227.134993 
L 459.582113 222.079675 
L 459.727656 221.453614 
" style="fill:none;stroke:#000000;stroke-linecap:square;stroke-width:1.5;"/>
   </g>
   <g id="line2d_13">
    <path clip-path="url(#p39c4009a83)" d="M 401.3617 146.083404 
L 392.170212 143.632339 
L 385.856053 142.492058 
L 380.158313 142.091913 
L 374.706194 142.713185 
L 370.110641 143.938721 
L 367.353193 146.696168 
L 363.370209 150.06638 
L 361.531916 154.049364 
L 360.61277 158.03234 
L 366.127657 158.03234 
L 371.642551 157.113194 
L 378.076593 156.194039 
L 385.123406 154.662128 
L 392.170212 152.517445 
L 397.072342 149.453616 
L 401.3617 146.083404 
" style="fill:none;stroke:#000000;stroke-linecap:square;stroke-width:1.5;"/>
   </g>
  </g>
 </g>
 <defs>
  <clipPath id="p39c4009a83">
   <rect height="529.92" width="777.6" x="0" y="0"/>
  </clipPath>
 </defs>
</svg>
