<?xml version="1.0" encoding="utf-8" standalone="no"?>
<!DOCTYPE svg PUBLIC "-//W3C//DTD SVG 1.1//EN"
  "http://www.w3.org/Graphics/SVG/1.1/DTD/svg11.dtd">
<!-- Created with matplotlib (https://matplotlib.org/) -->
<svg height="511.2pt" version="1.1" viewBox="0 0 611.28 511.2" width="611.28pt" xmlns="http://www.w3.org/2000/svg" xmlns:xlink="http://www.w3.org/1999/xlink">
 <defs>
  <style type="text/css">
*{stroke-linecap:butt;stroke-linejoin:round;}
  </style>
 </defs>
 <g id="figure_1">
  <g><image xlink:href="../../img/cb/llama_cor_cell.json.cb-50%25.png" width="611.28px" height="511.2px"/></g>

  <g id="patch_1">
   <path d="M 0 511.2 
L 611.28 511.2 
L 611.28 0 
L 0 0 
z
" style="fill:none;"/>
  </g>
  <g id="axes_1">
   <g id="line2d_1">
    <path clip-path="url(#ped758a6d3b)" d="M 493.540613 242.354701 
L 497.67948 241.588242 
L 501.205178 239.595457 
L 503.197963 237.1428 
L 503.811126 233.923683 
L 504.270998 231.164438 
L 504.117707 227.48545 
L 503.964417 223.65317 
L 503.504545 219.820891 
L 502.891382 216.755065 
L 501.66505 213.689239 
L 501.051888 211.083285 
L 500.132137 208.783919 
L 498.445934 207.864175 
L 496.146567 208.170756 
L 494.766945 208.783919 
L 493.540613 211.236582 
L 493.693904 213.689239 
L 493.693904 217.061646 
L 493.693904 220.280763 
L 493.540613 223.346589 
L 493.080741 226.105827 
L 492.620869 228.711781 
L 491.087956 230.857857 
L 489.401753 232.697351 
L 487.408968 234.996718 
L 488.328712 232.237479 
L 489.708334 230.551276 
L 490.474788 228.4052 
L 491.394538 226.105827 
L 492.160991 223.959752 
L 492.467579 221.660385 
L 492.620869 219.361013 
L 492.77416 216.295187 
L 492.927451 213.84253 
L 493.080741 210.929994 
L 493.693904 208.324047 
L 492.927451 206.637843 
L 491.241247 206.177971 
L 489.095171 206.177971 
L 487.255677 207.097715 
L 486.029345 209.0905 
L 485.569473 212.156326 
L 485.416177 216.141896 
L 485.569473 218.74785 
L 485.262886 221.047216 
L 484.496432 224.726205 
L 484.649723 221.813676 
L 484.956304 219.667594 
L 484.649723 216.755065 
L 484.03656 215.068861 
L 483.576682 213.99582 
L 481.737188 215.222152 
L 480.204275 216.141896 
L 478.518071 217.8281 
L 477.445036 219.361013 
L 476.525286 222.120257 
L 475.605542 225.032793 
L 473.612757 228.711781 
L 471.926553 232.697351 
L 471.313385 234.230264 
L 471.773263 236.37634 
L 472.386425 237.909253 
L 474.685792 241.434951 
L 477.598327 241.741532 
L 479.591112 241.12837 
L 481.890479 240.668498 
L 484.496432 240.515207 
L 487.408968 241.28166 
L 490.934666 241.894823 
L 493.540613 242.354701 
" style="fill:none;stroke:#000000;stroke-linecap:square;stroke-width:1.5;"/>
   </g>
   <g id="line2d_2">
    <path clip-path="url(#ped758a6d3b)" d="M 479.591112 248.333056 
L 479.13124 252.471917 
L 480.664153 255.691034 
L 483.576682 256.917365 
L 488.328712 256.610784 
L 492.160991 254.92458 
L 494.460364 252.318626 
L 494.000485 248.486347 
L 492.927451 246.493562 
L 488.941881 245.420521 
L 484.956304 245.420521 
L 482.350357 246.186981 
L 479.591112 248.333056 
" style="fill:none;stroke:#000000;stroke-linecap:square;stroke-width:1.5;"/>
   </g>
   <g id="line2d_3">
    <path clip-path="url(#ped758a6d3b)" d="M 443.835279 238.292238 
L 447.581166 237.692897 
L 450.428044 235.894871 
L 451.776564 234.546351 
L 452.525743 232.898163 
L 454.923109 232.598489 
L 458.519166 232.298815 
L 462.864395 233.347668 
L 465.111931 232.298815 
L 466.909956 228.702765 
L 469.756833 221.960163 
L 471.105354 217.165423 
L 471.255191 213.869041 
L 470.655843 211.321837 
L 469.307323 209.523812 
L 467.509297 207.725781 
L 468.408313 206.527097 
L 469.307323 205.02874 
L 470.056501 206.676934 
L 470.955517 209.224138 
L 472.753542 211.321837 
L 474.701404 211.921179 
L 477.398445 209.82348 
L 479.945655 207.575944 
L 481.74368 204.878903 
L 482.642695 202.78121 
L 478.746965 198.88548 
L 480.844664 200.234 
L 483.391868 202.331699 
L 485.939078 201.582521 
L 488.186608 199.334991 
L 489.535128 196.63795 
L 488.785949 194.090746 
L 487.287598 190.944195 
L 485.33973 188.696665 
L 483.0922 186.299292 
L 480.844664 184.950772 
L 478.896802 184.800941 
L 477.398445 186.149461 
L 473.502721 192.292715 
L 470.506012 196.488113 
L 469.457159 196.188445 
L 470.955517 193.341568 
L 472.1542 190.344853 
L 474.401736 188.396991 
L 476.199761 185.999624 
L 476.94894 184.051762 
L 477.098777 182.1039 
L 476.499435 181.204885 
L 475.900093 180.006201 
L 474.251899 178.957349 
L 472.1542 178.058339 
L 470.506012 177.758665 
L 468.258476 176.110477 
L 465.711272 174.462283 
L 463.463736 173.563267 
L 461.06637 173.413436 
L 458.818834 174.312446 
L 457.470313 175.810803 
L 456.27163 178.20817 
L 455.971956 180.156038 
L 456.27163 182.703242 
L 457.470313 184.051762 
L 459.418175 185.849787 
L 461.06637 186.299292 
L 460.616865 188.247154 
L 460.916533 189.895348 
L 461.515874 192.142884 
L 461.965379 194.540251 
L 461.965379 195.28943 
L 459.717849 191.094032 
L 456.27163 186.898634 
L 454.773273 185.400283 
L 453.424752 184.501267 
L 453.125084 182.403568 
L 452.076232 180.605543 
L 449.379191 180.455706 
L 446.53232 180.75538 
L 443.98511 181.954063 
L 442.636589 183.00291 
L 442.486758 184.35143 
L 442.037248 185.550113 
L 440.688727 186.149461 
L 439.639881 187.947486 
L 439.190376 189.895348 
L 440.239222 191.843211 
L 442.187085 192.592389 
L 445.483467 191.693374 
L 443.235937 192.892057 
L 443.235937 194.240577 
L 444.734288 195.738935 
L 446.68215 198.735649 
L 451.027385 202.931041 
L 452.82541 203.080878 
L 456.421467 202.181869 
L 457.470313 203.230715 
L 457.62015 204.279562 
L 456.421467 203.230715 
L 455.672288 203.080878 
L 454.173931 203.830057 
L 452.525743 204.279562 
L 451.626727 204.878903 
L 451.47689 207.426113 
L 451.626727 211.022163 
L 452.525743 218.214276 
L 453.274921 220.76148 
L 455.072946 221.660489 
L 454.923109 223.308683 
L 452.82541 226.155561 
L 452.226069 227.504081 
L 452.226069 226.005724 
L 451.776564 224.207699 
L 451.926401 221.960163 
L 451.776564 220.311969 
L 451.926401 217.614928 
L 450.877548 209.523812 
L 451.327053 206.377261 
L 449.529028 202.78121 
L 445.33363 198.286138 
L 443.385768 195.888772 
L 441.288069 194.540251 
L 439.639881 194.390414 
L 437.392345 195.28943 
L 435.444483 196.787787 
L 434.245799 198.435975 
L 434.395636 200.533674 
L 436.193661 203.080878 
L 433.496621 200.983179 
L 432.297937 202.181869 
L 431.249091 204.279562 
L 430.200238 206.077593 
L 430.350075 208.774633 
L 432.597605 212.820195 
L 435.144815 216.715919 
L 437.392345 221.061147 
L 439.789718 225.256546 
L 442.037248 228.852602 
L 442.936263 232.448652 
L 442.936263 236.793887 
L 443.385768 237.393229 
L 443.835279 238.292238 
L 443.835279 238.292238 
" style="fill:none;stroke:#000000;stroke-linecap:square;stroke-width:1.5;"/>
   </g>
   <g id="line2d_4">
    <path clip-path="url(#ped758a6d3b)" d="M 461.809331 248.639638 
L 463.955407 252.625214 
L 466.101483 256.304202 
L 469.933768 258.450278 
L 472.539716 256.764075 
L 474.37921 252.012045 
L 474.37921 248.179766 
L 474.532501 244.500777 
L 473.612757 241.588242 
L 472.386425 238.829003 
L 470.087059 235.916468 
L 467.787687 234.536846 
L 465.948192 233.923683 
L 462.269204 234.996718 
L 459.050087 236.069759 
L 454.911226 237.755962 
L 451.8454 238.675706 
L 449.239446 240.208619 
L 446.94008 242.201411 
L 445.867045 244.194196 
L 445.407167 246.493562 
L 444.947295 248.946219 
L 444.027545 251.092301 
L 443.720963 253.698249 
L 442.95451 256.304202 
L 442.03476 259.370028 
L 441.421597 261.975976 
L 441.268306 263.049017 
L 440.961725 264.735221 
L 440.348556 271.786617 
L 438.509062 275.159024 
L 436.822858 278.991303 
L 434.06362 282.670292 
L 432.16128 285.852604 
L 430.321785 288.918423 
L 430.321785 292.13754 
L 432.774442 295.050075 
L 435.840268 295.816529 
L 438.139641 295.050075 
L 440.745589 293.210581 
L 443.351542 290.911215 
L 446.72395 286.312476 
L 446.264072 287.845389 
L 444.271287 290.451336 
L 441.97192 292.904 
L 439.825844 294.590203 
L 439.365966 296.582988 
L 441.97192 297.196151 
L 444.271287 297.80932 
L 447.643694 297.80932 
L 449.94306 297.196151 
L 451.016101 295.356657 
L 452.702305 295.816529 
L 455.461549 294.590203 
L 457.607625 291.984249 
L 459.60041 288.918423 
L 460.826742 284.932853 
L 461.133323 282.173609 
L 460.673451 279.41437 
L 459.447119 278.034748 
L 457.301044 278.034748 
L 454.541799 280.793993 
L 455.768131 278.188039 
L 455.001671 276.348544 
L 453.315468 272.976137 
L 451.935851 269.143858 
L 450.249648 264.238537 
L 452.855595 270.676771 
L 455.001671 274.968922 
L 457.147753 277.268295 
L 459.753701 277.421585 
L 461.593195 276.501835 
L 463.58598 274.815631 
L 465.272184 272.516265 
L 465.272184 271.136643 
L 467.111678 268.837276 
L 468.797882 266.691194 
L 470.177504 261.63259 
L 469.104469 259.333217 
L 466.958387 257.953595 
L 465.118893 257.800304 
L 462.819527 259.946386 
L 462.053067 263.931956 
L 461.593195 261.172711 
L 461.439904 258.106886 
L 461.439904 255.654228 
L 462.512945 253.354862 
L 462.206364 251.362077 
L 461.809331 248.639638 
" style="fill:none;stroke:#000000;stroke-linecap:square;stroke-width:1.5;"/>
   </g>
   <g id="line2d_5">
    <path clip-path="url(#ped758a6d3b)" d="M 133.595372 237.53897 
L 133.948179 238.804081 
L 131.120367 234.562367 
L 128.763858 229.849349 
L 128.292561 227.728495 
L 128.292561 223.722428 
L 128.763858 220.658968 
L 128.292561 215.710302 
L 127.114307 210.997284 
L 124.757798 207.226872 
L 122.165634 205.577315 
L 119.102174 205.577315 
L 115.567417 209.81903 
L 114.860459 214.296393 
L 115.567417 218.773762 
L 115.803065 223.251125 
L 115.567417 227.964143 
L 115.567417 237.625827 
L 118.159574 241.631887 
L 122.165634 244.695353 
L 126.878652 247.051856 
L 131.356021 248.230111 
L 134.183827 246.580559 
L 136.069033 245.16665 
L 138.896845 244.22405 
L 143.13856 244.695353 
L 149.029832 245.873602 
L 141.724657 245.16665 
L 139.368148 245.873602 
L 136.304688 248.230111 
L 134.890779 249.879668 
L 134.183827 252.70748 
L 135.362082 255.77094 
L 138.189893 256.242243 
L 142.431608 256.242243 
L 145.730717 256.71354 
L 147.615923 257.656146 
L 145.966371 260.248303 
L 145.023765 263.547418 
L 145.730717 266.375224 
L 147.851577 266.846527 
L 150.443735 265.668272 
L 150.679383 264.490018 
L 151.150686 265.668272 
L 149.029832 266.846527 
L 147.380274 268.731733 
L 146.673323 271.32389 
L 147.380274 275.329956 
L 149.029832 278.157768 
L 151.621989 281.221228 
L 154.214146 284.99164 
L 156.335007 288.526403 
L 159.398467 291.589864 
L 163.168879 294.182021 
L 167.174945 294.653324 
L 169.767102 292.768118 
L 170.945357 289.469003 
L 175.658374 288.290749 
L 180.135738 288.762052 
L 186.02701 288.997706 
L 197.573899 288.526403 
L 202.522566 288.997706 
L 205.350377 289.704658 
L 209.356438 289.704658 
L 220.667679 282.635131 
L 227.737199 279.807319 
L 235.513677 278.157768 
L 243.290155 277.922114 
L 248.474476 276.508211 
L 250.830979 275.094308 
L 257.429202 274.151702 
L 263.556123 272.737799 
L 268.504795 271.088242 
L 275.80997 270.852593 
L 280.994285 272.502144 
L 283.490942 275.332573 
L 287.267307 278.393417 
L 291.037725 280.985574 
L 295.986391 281.456877 
L 302.113312 280.985574 
L 307.533281 279.100368 
L 309.88979 276.272562 
L 310.596741 272.973447 
L 310.83239 270.145636 
L 315.781056 270.145636 
L 322.143631 271.32389 
L 329.920109 274.151702 
L 342.495104 276.448959 
L 351.685491 277.155911 
L 358.519363 276.684614 
L 365.586194 278.480273 
L 372.420066 281.543734 
L 392.214737 291.441066 
L 394.335591 291.676714 
L 394.571246 289.320205 
L 395.985148 287.670654 
L 400.226863 286.963703 
L 411.30245 286.963703 
L 413.894607 286.4924 
L 416.486771 284.607194 
L 419.294942 281.583008 
L 418.607625 282.957636 
L 415.308516 286.728048 
L 413.658959 289.55586 
L 414.130262 293.326272 
L 416.722419 295.447132 
L 420.728485 295.918429 
L 424.734545 292.61932 
L 428.03366 288.613254 
L 430.154515 284.607194 
L 431.332769 279.658522 
L 431.804072 276.123764 
L 431.804072 271.88205 
L 432.03972 268.347286 
L 431.804072 264.105572 
L 430.861466 261.27776 
L 428.03366 259.392554 
L 426.384103 257.2717 
L 427.091054 254.20824 
L 429.447563 252.323028 
L 432.746678 248.081313 
L 436.369637 242.633744 
L 437.783546 238.863327 
L 437.547891 234.385963 
L 436.133988 230.144249 
L 434.484431 225.902534 
L 429.771413 217.419105 
L 427.414904 213.648693 
L 425.058402 210.820881 
L 423.17319 210.349578 
L 421.759287 212.706087 
L 420.816687 215.769547 
L 426.943607 227.78774 
L 428.35751 232.265109 
L 428.121862 236.271169 
L 426.707953 233.207709 
L 424.115796 232.265109 
L 421.523638 232.029455 
L 418.695826 230.8512 
L 422.466238 231.322503 
L 426.943607 232.265109 
L 426.943607 230.615552 
L 426.707953 228.730346 
L 425.29405 225.431231 
L 423.17319 222.132122 
L 421.287984 218.126056 
L 420.109729 215.062596 
L 420.345384 212.706087 
L 421.287984 210.349578 
L 423.17319 209.17133 
L 426.001001 208.464372 
L 427.414904 207.286118 
L 428.593159 204.458312 
L 429.535765 200.923549 
L 431.185322 196.917482 
L 428.828813 194.325325 
L 426.236656 192.911422 
L 422.701893 192.675768 
L 415.396718 194.089677 
L 410.919348 198.56704 
L 407.855888 199.980943 
L 407.148937 200.452246 
L 406.206337 201.394852 
L 402.671574 203.280058 
L 400.786368 204.458312 
L 398.665507 203.515706 
L 397.01595 201.159197 
L 395.602047 198.802688 
L 396.07335 195.267931 
L 396.308998 191.968816 
L 397.722907 187.727102 
L 399.372459 185.370593 
L 401.728968 183.249738 
L 406.441985 182.307132 
L 413.275857 179.479327 
L 417.517572 178.301072 
L 422.466238 178.301072 
L 424.881998 177.713962 
L 425.824598 176.064411 
L 425.58895 174.414854 
L 427.238507 175.828756 
L 430.537616 176.064411 
L 433.365428 175.593108 
L 435.721937 176.064411 
L 438.785397 178.185265 
L 442.084506 178.892217 
L 450.332287 174.650502 
L 454.338347 171.351393 
L 457.401807 168.994884 
L 460.700922 166.638376 
L 462.821776 164.046218 
L 464.235685 161.218406 
L 463.528734 158.861898 
L 461.172225 156.741043 
L 458.580062 154.620183 
L 455.752256 153.20628 
L 453.86705 153.677583 
L 451.510541 156.505389 
L 448.447081 159.804504 
L 445.619269 163.339267 
L 443.027112 166.167073 
L 440.670603 169.701836 
L 441.141906 167.345327 
L 443.734063 161.218406 
L 446.32622 159.804504 
L 449.154032 157.919298 
L 451.274887 155.562789 
L 452.688795 152.970626 
L 452.453141 150.14282 
L 451.039238 147.786311 
L 448.918378 145.194154 
L 445.854917 143.780245 
L 443.498415 143.780245 
L 440.906251 144.722851 
L 439.727997 148.021959 
L 439.021045 150.378468 
L 439.492348 144.958499 
L 439.2567 142.837645 
L 437.13584 140.481136 
L 433.601076 138.831579 
L 430.066313 137.888979 
L 426.060253 138.124627 
L 423.703744 139.774184 
L 422.054187 143.308948 
L 422.761138 146.843705 
L 425.117647 147.786311 
L 423.703744 148.728911 
L 424.175047 151.321074 
L 424.646344 155.091486 
L 427.474156 156.034086 
L 432.187173 158.154946 
L 426.767204 157.21234 
L 424.410695 157.447995 
L 422.996793 158.390595 
L 422.054187 161.689709 
L 422.289841 164.281867 
L 428.888059 168.994884 
L 422.761138 165.460121 
L 420.640284 165.931424 
L 418.755078 168.052278 
L 414.749012 172.058345 
L 412.392503 172.765296 
L 410.507297 173.000945 
L 408.386443 173.707902 
L 405.794279 175.269252 
L 406.029934 173.855349 
L 408.150788 171.734495 
L 410.271648 170.084937 
L 410.035994 168.199731 
L 407.679491 167.257125 
L 404.616025 166.314526 
L 402.730819 164.900617 
L 406.972534 166.078871 
L 411.921206 166.078871 
L 414.984666 164.900617 
L 417.576823 162.308459 
L 418.519423 159.480647 
L 417.812472 157.595442 
L 415.691618 156.652842 
L 410.507297 155.238933 
L 408.857739 154.296333 
L 413.570757 155.474587 
L 417.812472 155.710236 
L 420.168981 153.82503 
L 421.582884 150.997218 
L 422.054187 148.640715 
L 421.347235 145.812903 
L 419.933332 143.927698 
L 417.341169 143.927698 
L 414.513363 144.163346 
L 418.990726 142.749443 
L 420.875932 140.157286 
L 420.640284 136.858171 
L 418.519423 134.266014 
L 415.455963 132.380808 
L 411.685551 132.145153 
L 408.857739 132.616456 
L 406.501237 134.737317 
L 404.616025 138.27208 
L 403.437776 141.806837 
L 401.788219 145.105952 
L 399.667359 148.169412 
L 397.546504 150.525921 
L 396.603898 153.353727 
L 395.896947 151.232873 
L 396.603898 148.169412 
L 398.724759 144.634649 
L 401.081268 142.513795 
L 403.437776 139.685983 
L 405.087328 136.858171 
L 405.322982 134.030365 
L 403.673425 131.909505 
L 400.37431 129.552996 
L 397.31085 128.846045 
L 394.483044 129.317348 
L 392.833487 130.966899 
L 392.362184 134.030365 
L 390.948281 139.450328 
L 390.948281 134.972965 
L 391.655232 132.380808 
L 392.126535 129.552996 
L 390.241329 128.139093 
L 387.177869 127.66779 
L 384.350057 127.903439 
L 381.993548 130.259947 
L 381.050948 133.794711 
L 382.229203 138.27208 
L 383.878754 141.33554 
L 381.050948 137.329474 
L 379.165743 135.915571 
L 376.102276 136.858171 
L 374.452725 139.450328 
L 374.21707 142.985092 
L 374.924028 146.755503 
L 377.516185 148.405061 
L 383.407457 149.583315 
L 379.637039 149.583315 
L 376.337931 149.81897 
L 374.924028 152.411127 
L 374.924028 155.94589 
L 376.102276 159.95195 
L 377.751834 161.601508 
L 380.815294 163.015411 
L 384.114409 162.072811 
L 385.999615 160.658902 
L 384.82136 162.779762 
L 385.528312 164.900617 
L 389.534378 169.142331 
L 386.470918 167.257125 
L 384.114409 164.42932 
L 382.464851 163.251065 
L 379.401391 163.958017 
L 377.044882 165.843223 
L 375.395325 168.43538 
L 375.630979 171.027543 
L 374.924028 174.091004 
L 373.038816 176.447506 
L 369.504059 179.98227 
L 367.618853 182.574433 
L 365.733641 185.637893 
L 363.848435 187.994396 
L 361.963229 190.822208 
L 361.963229 193.414365 
L 364.319738 199.069989 
L 361.491926 194.59262 
L 360.078023 192.707414 
L 360.549326 190.350905 
L 362.198884 187.994396 
L 361.727581 185.16659 
L 359.60672 183.04573 
L 358.192817 182.338778 
L 358.66412 179.510967 
L 360.784975 176.211858 
L 361.963229 173.384046 
L 361.727581 171.027543 
L 360.078023 168.671034 
L 361.020629 164.900617 
L 362.905835 162.779762 
L 365.026689 160.187605 
L 366.911895 157.595442 
L 366.676247 154.296333 
L 368.325804 151.232873 
L 369.739707 148.876364 
L 370.917962 145.3416 
L 370.446659 143.220746 
L 367.14755 142.27814 
L 364.555386 143.927698 
L 361.256278 146.284206 
L 358.899769 149.583315 
L 356.778915 152.88243 
L 355.60066 155.474587 
L 354.186751 168.906683 
L 353.244151 174.091004 
L 352.772848 178.097064 
L 351.358945 179.03967 
L 350.416339 176.447506 
L 349.945036 171.970143 
L 349.238085 167.49278 
L 349.002437 163.722362 
L 349.47374 159.716302 
L 349.709388 155.94589 
L 351.594594 152.646775 
L 353.4798 149.583315 
L 355.836309 146.519855 
L 358.428466 143.692043 
L 361.491926 139.450328 
L 363.141484 135.915571 
L 363.141484 132.616456 
L 362.670181 129.317348 
L 359.371072 128.846045 
L 356.54326 128.610396 
L 353.715454 128.846045 
L 351.123291 130.73125 
L 349.47374 136.858171 
L 348.766782 138.979031 
L 347.588528 136.386868 
L 346.881576 133.323408 
L 348.531134 129.317348 
L 350.359784 122.189921 
L 350.831087 119.12646 
L 350.359784 115.591697 
L 349.652832 112.292582 
L 348.710226 108.993474 
L 348.474578 105.45871 
L 345.646766 101.45265 
L 344.468512 98.38919 
L 342.112009 95.561378 
L 339.7555 93.440518 
L 337.163337 92.262263 
L 335.042482 91.790966 
L 331.979022 89.198803 
L 329.858162 85.428391 
L 327.737307 83.543185 
L 319.725181 77.180616 
L 315.719115 75.295404 
L 312.420006 74.824107 
L 309.827843 75.531059 
L 308.178291 76.944962 
L 307.235685 79.537119 
L 307.000037 81.893628 
L 314.305212 84.014488 
L 308.885243 82.836234 
L 305.114831 82.600585 
L 302.758322 84.72144 
L 302.522668 88.020548 
L 303.936577 91.084015 
L 307.235685 93.440518 
L 310.299146 93.204869 
L 313.59826 93.204869 
L 317.133018 92.497918 
L 321.139084 93.676172 
L 325.14515 95.561378 
L 329.15121 99.33179 
L 333.864228 104.280456 
L 336.220737 108.522171 
L 337.870294 111.114334 
L 332.685974 104.044807 
L 329.622513 100.745693 
L 323.731241 95.325723 
L 319.960829 94.147475 
L 317.368672 94.147475 
L 314.776515 94.618772 
L 313.833909 96.032681 
L 314.54086 99.33179 
L 317.839975 103.337856 
L 322.788641 108.522171 
L 326.08775 112.99954 
L 328.679907 115.827346 
L 331.272071 119.12646 
L 334.099876 121.482969 
L 336.69204 124.075126 
L 333.157277 122.896872 
L 329.386865 121.011666 
L 327.030356 119.362109 
L 325.14515 117.0056 
L 322.317338 114.177794 
L 319.253878 110.171728 
L 316.190418 107.579571 
L 313.59826 104.51611 
L 308.649588 101.923947 
L 304.643528 102.39525 
L 300.166159 102.39525 
L 297.338353 102.866553 
L 295.217493 104.751759 
L 298.516607 108.757825 
L 295.453147 107.108268 
L 293.332287 106.165662 
L 291.682729 104.751759 
L 291.447081 103.102201 
L 292.389687 101.688299 
L 295.453147 100.981347 
L 299.694862 100.510044 
L 303.700922 100.981347 
L 307.471334 101.216996 
L 308.649588 99.803093 
L 306.764382 97.446584 
L 303.936577 94.383124 
L 300.873116 92.497918 
L 297.574001 90.84836 
L 294.039238 90.141409 
L 289.797523 90.612712 
L 285.084512 91.319663 
L 282.728003 92.969221 
L 280.607143 94.854427 
L 278.721937 97.210935 
L 275.422828 98.860487 
L 271.65241 99.33179 
L 269.060253 101.45265 
L 265.996793 104.280456 
L 263.875938 106.636965 
L 263.404635 109.936079 
L 262.226381 112.528237 
L 255.156854 116.298649 
L 251.386443 119.833412 
L 246.557624 124.811028 
L 244.672418 127.63884 
L 243.258509 131.173603 
L 239.723746 137.064869 
L 239.723746 144.841347 
L 239.488098 146.962208 
L 240.430704 148.847414 
L 241.608952 152.853474 
L 241.137655 154.503031 
L 240.195049 152.146522 
L 239.959401 150.261316 
L 238.781146 147.433505 
L 237.602892 145.31265 
L 235.717686 144.605699 
L 233.125522 145.077002 
L 226.998602 147.904808 
L 226.527305 151.203922 
L 229.119462 154.031728 
L 231.947274 156.388237 
L 233.83248 159.923 
L 235.246383 164.400363 
L 235.482031 168.40643 
L 235.482031 173.826399 
L 234.539431 181.367222 
L 234.303777 176.418556 
L 234.539431 171.941193 
L 234.539431 166.992527 
L 233.596825 163.457764 
L 232.182923 160.629952 
L 230.062062 157.802146 
L 226.998602 157.095188 
L 223.699493 157.330843 
L 221.578633 158.037794 
L 220.16473 160.394303 
L 219.22213 162.986461 
L 219.457778 165.107321 
L 219.929081 167.699478 
L 220.871681 170.762939 
L 221.342984 173.826399 
L 220.636033 177.125508 
L 220.636033 180.188968 
L 221.814287 181.602877 
L 222.521239 183.723731 
L 223.699493 186.787191 
L 225.584699 193.149766 
L 224.170796 195.270621 
L 220.636033 200.219287 
L 222.992542 195.741924 
L 223.935142 193.149766 
L 223.935142 190.557609 
L 223.699493 188.2011 
L 222.28559 186.315894 
L 221.578633 184.195034 
L 220.16473 183.252434 
L 217.336918 184.195034 
L 214.037809 186.787191 
L 212.152603 188.672397 
L 211.6813 190.793258 
L 212.859555 196.68453 
L 211.209997 192.678463 
L 209.560446 190.086306 
L 210.031743 188.672397 
L 212.859555 186.551543 
L 215.923015 184.430683 
L 218.279524 182.07418 
L 220.16473 178.775065 
L 220.400378 175.947253 
L 220.400378 173.119447 
L 220.16473 170.998587 
L 219.457778 168.40643 
L 218.279524 166.285575 
L 216.629967 165.814272 
L 213.566506 166.992527 
L 210.267398 168.40643 
L 208.146537 170.291636 
L 206.025683 172.412496 
L 205.318731 175.240302 
L 206.025683 177.596811 
L 205.55438 180.188968 
L 203.433526 182.545477 
L 204.140477 178.068114 
L 203.904822 174.769005 
L 203.197871 170.055987 
L 206.496986 167.935127 
L 209.089143 166.756872 
L 211.916955 166.521224 
L 215.687367 165.342969 
L 218.043876 163.222115 
L 218.986475 160.629952 
L 218.986475 157.802146 
L 216.865621 156.152589 
L 214.273458 155.209983 
L 211.6813 155.681286 
L 208.61784 157.330843 
L 210.738701 155.209983 
L 214.037809 153.79608 
L 218.515172 154.031728 
L 221.814287 152.146522 
L 223.935142 149.318717 
L 224.406445 145.783953 
L 224.406445 141.070936 
L 223.935142 137.064869 
L 222.992542 133.058809 
L 219.929081 132.116203 
L 216.15867 132.351858 
L 213.330858 134.001409 
L 210.503046 137.771827 
L 208.146537 141.777887 
L 205.55438 143.663093 
L 202.49092 145.31265 
L 199.663108 147.197856 
L 196.835302 150.732619 
L 194.478793 153.324777 
L 193.064884 157.330843 
L 190.94403 164.636018 
L 191.650981 158.509097 
L 192.593587 154.738686 
L 192.357933 151.675219 
L 195.185745 148.611759 
L 197.777902 145.077002 
L 199.663108 141.777887 
L 205.790028 138.243124 
L 210.738701 136.122269 
L 214.037809 132.116203 
L 215.687367 128.817094 
L 215.451712 123.868428 
L 214.037809 120.333665 
L 211.209997 119.626714 
L 208.853489 120.333665 
L 206.732634 120.804968 
L 205.790028 121.747568 
L 204.140477 123.161471 
L 202.49092 125.282331 
L 200.605714 124.811028 
L 197.542253 124.339725 
L 193.771842 124.811028 
L 191.415333 125.989283 
L 190.001424 128.817094 
L 189.765775 132.587506 
L 188.587521 136.122269 
L 182.931903 145.548299 
L 184.345806 141.306584 
L 184.817109 138.478778 
L 185.995364 135.886615 
L 185.759709 132.116203 
L 185.052758 128.817094 
L 183.167552 126.460586 
L 180.754487 125.782584 
L 176.984076 126.489536 
L 172.742361 129.081693 
L 171.799761 131.909505 
L 172.03541 134.030365 
L 169.678901 133.559062 
L 166.144137 133.323408 
L 162.138077 134.030365 
L 158.367659 136.622523 
L 155.775502 138.743377 
L 156.246805 141.806837 
L 159.545914 144.163346 
L 162.845029 144.163346 
L 171.092804 145.577255 
L 168.736295 146.284206 
L 163.787629 146.519855 
L 159.074617 146.519855 
L 156.482454 147.226806 
L 154.597248 149.81897 
L 154.597248 154.060684 
L 156.011151 158.066745 
L 157.896363 161.365859 
L 160.48852 162.308459 
L 165.201538 160.423253 
L 169.443252 159.244999 
L 171.799761 156.652842 
L 172.978009 155.710236 
L 174.156264 158.773696 
L 175.09887 161.837156 
L 173.213664 161.837156 
L 170.857155 160.894556 
L 167.086743 160.658902 
L 163.55198 162.072811 
L 160.252865 163.958017 
L 160.017217 167.021477 
L 161.43112 170.084937 
L 164.730235 172.912749 
L 167.793695 174.5623 
L 172.978009 173.855349 
L 169.914549 175.033603 
L 167.322392 176.918809 
L 165.672834 178.568367 
L 164.023283 178.804015 
L 161.902423 177.625761 
L 160.017217 176.211858 
L 157.896363 175.033603 
L 155.539854 176.447506 
L 153.183345 179.275318 
L 150.591188 179.98227 
L 153.890296 177.861415 
L 156.246805 174.797955 
L 157.189405 172.441446 
L 155.304199 167.257125 
L 152.94769 166.550174 
L 147.527727 169.142331 
L 144.228612 172.441446 
L 144.699915 169.613634 
L 147.056424 166.550174 
L 149.412933 165.136271 
L 150.826836 162.779762 
L 150.355533 159.480647 
L 149.412933 157.124145 
L 145.87817 156.652842 
L 148.234679 152.88243 
L 148.470327 149.347667 
L 147.292073 145.812903 
L 144.699915 144.634649 
L 141.165152 146.048552 
L 136.923437 149.112012 
L 134.566929 152.646775 
L 134.566929 155.710236 
L 135.509535 159.480647 
L 136.923437 163.015411 
L 136.216486 168.43538 
L 135.980831 172.677095 
L 135.27388 169.142331 
L 135.038232 165.37192 
L 134.33128 161.601508 
L 132.681723 159.480647 
L 129.853911 159.244999 
L 128.20436 160.658902 
L 125.612196 164.42932 
L 124.905245 168.671034 
L 125.376548 173.619701 
L 127.968705 177.861415 
L 132.21042 179.98227 
L 135.27388 180.924876 
L 138.33734 182.574433 
L 142.343407 184.223984 
L 145.87817 186.580493 
L 151.062484 187.287445 
L 155.068551 186.580493 
L 156.718108 184.930936 
L 158.367659 186.816148 
L 162.373726 187.523099 
L 166.379792 186.10919 
L 170.385852 184.930936 
L 175.805821 184.459639 
L 177.926682 181.160524 
L 178.869282 177.861415 
L 180.754487 174.5623 
L 182.875348 172.205792 
L 185.703154 173.619701 
L 185.938808 176.447506 
L 184.760554 179.98227 
L 184.524899 184.223984 
L 184.053602 188.701354 
L 185.467505 193.178717 
L 187.352711 195.535226 
L 188.530965 198.127383 
L 186.174457 196.71348 
L 184.524899 195.063923 
L 183.110996 193.178717 
L 181.932742 190.350905 
L 179.576233 188.937002 
L 175.805821 187.994396 
L 171.328458 187.758748 
L 167.558046 188.230051 
L 164.730235 190.350905 
L 163.080677 192.707414 
L 163.080677 194.59262 
L 166.115187 197.007035 
L 169.885599 198.892241 
L 172.242108 200.306144 
L 174.362968 200.070495 
L 172.949059 202.19135 
L 172.477762 204.31221 
L 172.713411 207.37567 
L 172.949059 212.324336 
L 173.420362 214.445191 
L 172.242108 220.100814 
L 171.063853 225.049481 
L 168.000393 233.53291 
L 165.879539 237.067673 
L 163.051727 240.366782 
L 160.930866 242.016339 
L 161.166521 238.952879 
L 163.287375 235.418116 
L 165.643884 232.354656 
L 166.115187 225.520784 
L 169.414296 217.037354 
L 171.063853 213.738239 
L 171.770805 209.967828 
L 171.770805 206.197416 
L 171.299508 202.898301 
L 169.64995 200.541792 
L 167.293442 199.363538 
L 165.408236 203.840907 
L 163.287375 211.853033 
L 161.873472 217.744306 
L 159.752618 225.520784 
L 160.930866 220.100814 
L 162.344775 214.209542 
L 163.051727 209.025222 
L 164.229981 205.25481 
L 165.408236 201.955701 
L 165.643884 198.892241 
L 164.229981 196.77138 
L 161.873472 195.121823 
L 158.574364 195.828781 
L 156.217855 196.77138 
L 153.861346 200.070495 
L 152.447437 204.547858 
L 151.740486 209.260876 
L 150.326583 214.445191 
L 148.677025 218.686905 
L 149.148328 223.399923 
L 148.91268 228.348589 
L 150.090934 239.659831 
L 147.970074 238.952879 
L 144.906614 237.303322 
L 143.257056 235.653764 
L 142.550105 232.590304 
L 142.078802 227.877286 
L 142.550105 220.100814 
L 143.257056 217.273003 
L 145.377917 217.037354 
L 147.498771 214.680845 
L 148.677025 211.146082 
L 150.326583 207.611319 
L 151.97614 202.898301 
L 153.154395 198.892241 
L 153.625691 196.77138 
L 152.447437 195.121823 
L 149.85528 194.650526 
L 147.734425 194.650526 
L 145.84922 192.76532 
L 143.728359 190.408811 
L 142.078802 187.581 
L 139.957947 185.224491 
L 137.601439 185.460145 
L 134.773627 187.345351 
L 133.831027 189.70186 
L 134.537978 192.529666 
L 133.124075 190.880108 
L 131.003215 190.64446 
L 128.646706 191.351411 
L 124.876295 194.650526 
L 122.991089 197.949635 
L 122.519786 200.541792 
L 123.69804 203.840907 
L 129.353658 209.025222 
L 131.710167 209.260876 
L 132.888421 209.732179 
L 130.296264 213.738239 
L 129.824961 216.8017 
L 129.824961 221.279069 
L 129.353658 225.285129 
L 129.353658 229.291195 
L 130.296264 230.940747 
L 132.18147 234.47551 
L 133.595372 237.53897 
L 133.595372 237.53897 
" style="fill:none;stroke:#000000;stroke-linecap:square;stroke-width:1.5;"/>
   </g>
   <g id="line2d_6">
    <path clip-path="url(#ped758a6d3b)" d="M 251.172941 138.004847 
L 251.394383 133.576025 
L 253.608794 129.368652 
L 257.151846 125.161273 
L 261.359225 121.396773 
L 264.902284 119.182362 
L 269.552541 117.189393 
L 274.424241 115.63931 
L 278.188742 116.082188 
L 281.731794 117.632278 
L 286.603494 117.85372 
L 291.696636 117.85372 
L 299.668516 119.182362 
L 289.92511 118.739483 
L 291.4752 120.732452 
L 293.911047 122.946863 
L 298.782753 125.825594 
L 305.204536 128.704325 
L 313.176416 131.140178 
L 320.926847 132.247384 
L 325.577105 132.247384 
L 330.670247 131.140178 
L 334.213306 131.361621 
L 336.427716 132.468826 
L 338.642127 135.569 
L 339.749332 138.447731 
L 341.077974 141.547905 
L 343.292385 145.97672 
L 337.756364 140.883578 
L 333.770421 137.340526 
L 329.784484 135.569 
L 323.3627 134.904673 
L 316.498026 134.683231 
L 310.962005 132.690262 
L 304.097331 131.140178 
L 296.125457 126.932799 
L 289.92511 122.946863 
L 286.382058 120.068131 
L 282.396121 119.625246 
L 278.63162 120.51101 
L 275.088568 122.72542 
L 271.102631 124.054068 
L 268.002457 125.604152 
L 262.909315 128.040005 
L 258.701936 131.804499 
L 254.494557 135.126115 
L 251.172941 138.004847 
" style="fill:none;stroke:#000000;stroke-linecap:square;stroke-width:1.5;"/>
   </g>
   <g id="line2d_7">
    <path clip-path="url(#ped758a6d3b)" d="M 248.323581 174.189108 
L 248.323581 170.872217 
L 249.344162 161.942125 
L 250.875034 157.094363 
L 251.640472 151.736311 
L 252.661053 147.909123 
L 258.784544 143.8268 
L 265.163178 139.74447 
L 271.541817 137.193018 
L 276.134431 136.427579 
L 283.023361 138.979038 
L 290.932866 141.275348 
L 298.842377 143.8268 
L 310.323921 146.888542 
L 320.784884 149.440001 
L 326.908375 150.715724 
L 330.990705 151.481162 
L 335.838467 152.501743 
L 338.389919 154.798053 
L 340.431081 157.859796 
L 341.70681 161.176687 
L 342.2171 163.472997 
L 339.92079 163.983287 
L 336.859048 164.493577 
L 335.838467 167.045036 
L 336.348757 169.341346 
L 339.155358 172.913379 
L 339.665648 175.464831 
L 339.665648 178.271431 
L 339.92079 180.057451 
L 339.155358 179.292012 
L 336.603899 174.95454 
L 333.797299 170.872217 
L 330.990705 168.320759 
L 331.500995 164.748726 
L 331.245847 160.921544 
L 326.653227 157.094363 
L 322.060613 154.287763 
L 315.171683 153.012034 
L 310.834211 151.736311 
L 305.986449 149.440001 
L 298.332086 148.92971 
L 291.188014 149.184852 
L 280.982193 149.695143 
L 274.09327 150.460581 
L 266.949197 150.970872 
L 261.591145 152.756891 
L 257.508815 154.542905 
L 253.681634 158.114944 
L 252.150763 162.197274 
L 252.405905 166.789887 
L 250.875034 170.872217 
L 248.323581 174.189108 
" style="fill:none;stroke:#000000;stroke-linecap:square;stroke-width:1.5;"/>
   </g>
   <g id="line2d_8">
    <path clip-path="url(#ped758a6d3b)" d="M 327.163517 208.378597 
L 328.949537 209.909469 
L 329.459827 214.24694 
L 328.184104 211.95063 
L 326.398085 209.14403 
L 323.081194 207.35801 
L 319.764303 205.316849 
L 318.743722 203.275687 
L 321.040032 201.489667 
L 323.081194 199.193357 
L 323.846632 197.407338 
L 323.591484 195.621324 
L 320.784884 193.325014 
L 317.212851 191.794143 
L 313.385669 191.028704 
L 318.998864 191.283853 
L 323.336336 193.835305 
L 326.398085 196.131615 
L 330.480408 197.152196 
L 326.142936 198.172777 
L 323.336336 200.469087 
L 321.295174 202.765396 
L 321.550322 204.806558 
L 324.612065 207.613159 
L 327.163517 208.378597 
" style="fill:none;stroke:#000000;stroke-linecap:square;stroke-width:1.5;"/>
   </g>
   <g id="line2d_9">
    <path clip-path="url(#ped758a6d3b)" d="M 272.30725 181.84347 
L 278.430741 181.33318 
L 284.809381 181.588322 
L 291.953453 181.078032 
L 298.076938 181.33318 
L 304.71072 182.353761 
L 313.89596 183.374342 
L 307.262178 183.374342 
L 301.393829 182.608903 
L 293.994615 181.84347 
L 286.850543 182.098613 
L 280.982193 181.84347 
L 272.30725 181.84347 
" style="fill:none;stroke:#000000;stroke-linecap:square;stroke-width:1.5;"/>
   </g>
   <g id="line2d_10">
    <path clip-path="url(#ped758a6d3b)" d="M 271.025426 225.248672 
L 276.128337 224.738382 
L 280.210666 225.758963 
L 286.334152 226.524401 
L 291.947352 227.034692 
L 297.560553 227.034692 
L 306.490645 226.269253 
L 299.856863 227.800124 
L 295.519392 229.075854 
L 289.651042 230.096434 
L 284.29299 230.351583 
L 278.169499 228.310415 
L 271.025426 225.248672 
" style="fill:none;stroke:#000000;stroke-linecap:square;stroke-width:1.5;"/>
   </g>
   <g id="line2d_11">
    <path clip-path="url(#ped758a6d3b)" d="M 255.722796 206.84772 
L 258.784544 205.061706 
L 261.080854 203.020539 
L 260.060274 200.469087 
L 256.488234 198.172777 
L 252.916201 196.386757 
L 256.233086 195.111034 
L 258.274254 192.814724 
L 261.080854 191.283853 
L 264.142597 190.518414 
L 267.714636 190.008123 
L 272.30725 189.497833 
L 277.41016 189.242685 
L 281.237342 189.497833 
L 278.941032 189.752975 
L 274.858708 190.008123 
L 270.776379 190.008123 
L 267.204346 190.518414 
L 263.887455 190.773562 
L 261.080854 192.559576 
L 258.529396 194.600743 
L 258.529396 196.897047 
L 260.825706 198.427925 
L 263.122016 200.213938 
L 263.122016 203.020539 
L 260.315416 206.082287 
L 255.722796 206.84772 
L 255.722796 206.84772 
" style="fill:none;stroke:#000000;stroke-linecap:square;stroke-width:1.5;"/>
   </g>
   <g id="line2d_12">
    <path clip-path="url(#ped758a6d3b)" d="M 415.315711 192.392482 
L 419.810777 191.493473 
L 424.455679 191.193799 
L 427.302557 191.043962 
L 429.699924 188.646595 
L 431.198281 186.399059 
L 430.898613 184.001692 
L 429.250419 182.353498 
L 425.8042 181.454489 
L 422.507817 181.454489 
L 419.061598 182.503335 
L 415.165874 183.552188 
L 411.419987 184.900708 
L 408.123604 185.949554 
L 405.12689 186.548896 
L 403.029191 187.897416 
L 404.827222 190.894131 
L 408.123604 192.542319 
L 412.019328 192.392482 
L 415.315711 192.392482 
" style="fill:none;stroke:#000000;stroke-linecap:square;stroke-width:1.5;"/>
   </g>
   <g id="line2d_13">
    <path clip-path="url(#ped758a6d3b)" d="M 399.386359 294.055376 
L 403.301559 294.995023 
L 405.024244 294.36859 
L 406.277111 292.959119 
L 406.277111 290.923214 
L 405.807287 289.513743 
L 404.55442 288.260876 
L 402.361911 287.791052 
L 399.856183 287.634448 
L 397.976888 288.417486 
L 396.567411 289.200529 
L 396.410807 290.29678 
L 397.350455 292.176081 
L 399.386359 294.055376 
" style="fill:none;stroke:#000000;stroke-linecap:square;stroke-width:1.5;"/>
   </g>
   <g id="line2d_14">
    <path clip-path="url(#ped758a6d3b)" d="M 344.378831 91.784065 
L 346.858525 94.133251 
L 348.294134 97.004476 
L 349.990766 101.050287 
L 351.55689 104.052027 
L 352.600975 107.575799 
L 354.036584 109.402946 
L 354.950154 111.752125 
L 355.602708 114.231819 
L 357.168832 115.667435 
L 359.648526 115.797943 
L 361.736689 114.753864 
L 363.433321 112.665701 
L 364.346891 110.316516 
L 364.86893 107.836822 
L 365.260461 104.182535 
L 365.260461 101.963864 
L 364.999445 100.789271 
L 364.085875 97.918046 
L 363.302813 96.743453 
L 361.997711 94.394267 
L 361.21465 92.306104 
L 360.301073 89.82641 
L 358.995972 87.346716 
L 357.560363 84.08396 
L 355.341685 82.648351 
L 352.47046 81.212735 
L 349.468727 80.299165 
L 346.336486 80.038149 
L 343.465261 80.429673 
L 341.377098 82.126312 
L 340.07199 83.692429 
L 338.897404 85.650084 
L 339.419443 87.346716 
L 341.507606 89.565394 
L 344.378831 91.784065 
" style="fill:none;stroke:#000000;stroke-linecap:square;stroke-width:1.5;"/>
   </g>
   <g id="line2d_15">
    <path clip-path="url(#ped758a6d3b)" d="M 264.652887 149.950291 
L 270.01094 149.184852 
L 275.11385 148.41942 
L 280.471903 147.653981 
L 285.574813 146.888542 
L 288.126266 145.102529 
L 286.595394 142.551071 
L 284.043942 141.275348 
L 278.941032 140.765051 
L 274.60356 141.020199 
L 268.480069 141.785638 
L 264.908036 143.8268 
L 263.122016 146.12311 
L 262.356577 148.92971 
L 264.652887 149.950291 
" style="fill:none;stroke:#000000;stroke-linecap:square;stroke-width:1.5;"/>
   </g>
   <g id="line2d_16">
    <path clip-path="url(#ped758a6d3b)" d="M 274.671296 85.38084 
L 272.974664 87.599511 
L 271.930579 89.818188 
L 271.800071 93.211453 
L 272.583133 95.952163 
L 274.671296 97.387779 
L 276.628951 97.648801 
L 278.195075 96.996248 
L 279.891707 95.299616 
L 281.718847 93.472469 
L 281.849361 91.384306 
L 281.196808 88.904612 
L 280.152723 86.685941 
L 278.195075 85.119817 
L 276.628951 84.8588 
L 274.671296 85.38084 
" style="fill:none;stroke:#000000;stroke-linecap:square;stroke-width:1.5;"/>
   </g>
   <g id="line2d_17">
    <path clip-path="url(#ped758a6d3b)" d="M 256.008337 104.043799 
L 257.18293 102.477675 
L 257.052415 99.60645 
L 258.357523 99.475942 
L 260.054155 98.823388 
L 261.489764 97.25727 
L 263.055888 95.038593 
L 263.708442 92.95043 
L 264.230481 90.079205 
L 263.708442 87.599511 
L 263.186396 85.641862 
L 261.489764 84.206247 
L 259.140584 83.814716 
L 257.313438 84.336755 
L 255.747314 85.119817 
L 254.181196 86.555432 
L 253.137112 88.121556 
L 252.615073 89.687674 
L 251.570988 89.165635 
L 249.743848 89.165635 
L 248.047216 89.818188 
L 246.872623 91.775837 
L 246.6116 94.255531 
L 246.872623 96.996248 
L 248.438747 100.650535 
L 250.787926 103.782776 
L 253.528643 104.957369 
L 256.008337 104.043799 
" style="fill:none;stroke:#000000;stroke-linecap:square;stroke-width:1.5;"/>
   </g>
   <g id="line2d_18">
    <path clip-path="url(#ped758a6d3b)" d="M 245.175991 103.260737 
L 246.350584 101.042066 
L 245.175991 98.823388 
L 243.740375 96.996248 
L 242.043743 96.082678 
L 240.477619 96.474208 
L 239.172518 97.387779 
L 238.519971 98.953902 
L 239.433541 101.172574 
L 241.260681 103.391251 
L 243.218336 104.043799 
L 245.175991 103.260737 
" style="fill:none;stroke:#000000;stroke-linecap:square;stroke-width:1.5;"/>
   </g>
   <g id="line2d_19">
    <path clip-path="url(#ped758a6d3b)" d="M 233.419102 144.5143 
L 236.420835 143.078691 
L 238.117473 140.598997 
L 238.770021 138.119303 
L 239.683591 135.900632 
L 240.988692 133.812468 
L 242.424308 131.20226 
L 242.946347 128.85308 
L 240.205636 127.808996 
L 237.46492 127.156442 
L 234.724203 127.417465 
L 231.983492 127.808996 
L 228.590222 129.114097 
L 225.718997 130.941244 
L 224.022365 132.768384 
L 223.761349 134.726039 
L 224.283388 137.727772 
L 224.805427 140.860019 
L 225.196958 143.731244 
L 226.241043 146.080424 
L 227.807166 146.471955 
L 230.156346 145.688893 
L 233.419102 144.5143 
" style="fill:none;stroke:#000000;stroke-linecap:square;stroke-width:1.5;"/>
   </g>
   <g id="line2d_20">
    <path clip-path="url(#ped758a6d3b)" d="M 230.156346 123.893692 
L 235.637773 121.805523 
L 238.508998 119.456344 
L 239.553083 116.846135 
L 238.900529 113.583386 
L 237.725942 110.581646 
L 235.768288 108.623998 
L 233.419102 107.971444 
L 230.678385 108.101952 
L 228.068183 110.32063 
L 225.718997 112.14777 
L 223.891857 113.452871 
L 222.195225 115.410526 
L 221.542671 117.89022 
L 221.673185 120.630937 
L 223.239303 123.110631 
L 226.371551 124.676748 
L 230.156346 123.893692 
" style="fill:none;stroke:#000000;stroke-linecap:square;stroke-width:1.5;"/>
   </g>
   <g id="line2d_21">
    <path clip-path="url(#ped758a6d3b)" d="M 143.374208 269.674339 
L 141.489002 270.145636 
L 139.839451 272.030848 
L 138.425542 274.623005 
L 137.011639 276.036908 
L 134.419482 276.743859 
L 131.827318 278.393417 
L 131.120367 281.692525 
L 131.120367 285.227289 
L 133.241227 289.940306 
L 135.833385 292.768118 
L 137.71859 292.532464 
L 136.069033 294.653324 
L 136.540336 297.716784 
L 138.661196 301.487196 
L 141.017699 305.964559 
L 145.495068 307.142814 
L 150.208086 306.200214 
L 152.093292 304.079353 
L 152.32894 301.722851 
L 150.915038 299.60199 
L 147.851577 297.245481 
L 145.730717 295.360275 
L 144.316814 292.768118 
L 142.667257 288.762052 
L 145.495068 293.239421 
L 147.144626 295.831578 
L 150.443735 298.659384 
L 153.742843 302.429802 
L 156.335007 302.429802 
L 159.398467 299.837639 
L 161.048018 297.245481 
L 161.990624 295.360275 
L 160.81237 293.710718 
L 158.220213 291.354209 
L 155.628055 289.704658 
L 153.271546 287.583797 
L 152.093292 285.698592 
L 150.679383 283.106434 
L 148.794177 280.514277 
L 147.380274 278.86472 
L 146.20202 276.979514 
L 145.730717 274.38735 
L 145.259414 271.088242 
L 143.374208 269.674339 
" style="fill:none;stroke:#000000;stroke-linecap:square;stroke-width:1.5;"/>
   </g>
   <g id="line2d_22">
    <path clip-path="url(#ped758a6d3b)" d="M 137.71859 273.680399 
L 140.546402 270.145636 
L 141.960305 266.139575 
L 142.431608 262.840461 
L 139.839451 260.719606 
L 136.540336 260.719606 
L 134.183827 261.662206 
L 132.769924 264.490018 
L 131.356021 267.789133 
L 131.827318 270.852593 
L 132.53427 275.329956 
L 134.890779 276.036908 
L 137.71859 273.680399 
" style="fill:none;stroke:#000000;stroke-linecap:square;stroke-width:1.5;"/>
   </g>
  </g>
 </g>
 <defs>
  <clipPath id="ped758a6d3b">
   <rect height="511.2" width="611.28" x="0" y="0"/>
  </clipPath>
 </defs>
</svg>
