<?xml version="1.0" encoding="utf-8" standalone="no"?>
<!DOCTYPE svg PUBLIC "-//W3C//DTD SVG 1.1//EN"
  "http://www.w3.org/Graphics/SVG/1.1/DTD/svg11.dtd">
<!-- Created with matplotlib (https://matplotlib.org/) -->
<svg height="1762.56pt" version="1.1" viewBox="0 0 2255.04 1762.56" width="2255.04pt" xmlns="http://www.w3.org/2000/svg" xmlns:xlink="http://www.w3.org/1999/xlink">
 <defs>
  <style type="text/css">
*{stroke-linecap:butt;stroke-linejoin:round;}
  </style>
 </defs>
 <g id="figure_1">
  <g><image xlink:href="../../img/cb/manatee_cell.json.cb-50%25.png" width="2255.04px" height="1762.56px"/></g>

  <g id="patch_1">
   <path d="M 0 1762.56 
L 2255.04 1762.56 
L 2255.04 0 
L 0 0 
z
" style="fill:none;"/>
  </g>
  <g id="axes_1">
   <g id="line2d_1">
    <path clip-path="url(#p31d4ff32c1)" d="M 362.097162 1098.753853 
L 353.205697 1104.745787 
L 358.109327 1093.537494 
L 363.713485 1068.318818 
L 363.713485 1055.008986 
L 360.911395 1040.298075 
L 359.510361 1036.795501 
L 352.505169 1040.298075 
L 344.799472 1043.80067 
L 338.494809 1044.501199 
L 329.388055 1042.399637 
L 339.195314 1039.597569 
L 349.703102 1032.592377 
L 356.007765 1031.191344 
L 354.606731 1024.88668 
L 337.093775 1013.678387 
L 329.388055 1007.373701 
L 320.281324 1004.571634 
L 309.073031 1002.470072 
L 300.666806 1001.069038 
L 292.961086 998.26697 
L 285.955917 990.561273 
L 276.148658 987.058677 
L 265.640871 985.657644 
L 254.432578 987.058677 
L 245.325824 991.261779 
L 241.122723 996.865937 
L 239.721689 1003.871106 
L 243.92479 1013.678387 
L 254.432578 1023.485646 
L 260.036713 1024.88668 
L 263.539309 1026.287714 
L 267.041904 1033.993411 
L 274.047096 1044.501199 
L 283.153827 1054.308458 
L 292.961086 1063.415189 
L 302.06784 1070.42038 
L 309.773537 1083.02973 
L 311.174571 1088.633865 
L 302.768368 1082.329201 
L 296.463682 1075.32401 
L 289.458513 1069.719875 
L 282.453321 1064.816245 
L 278.950726 1058.511559 
L 274.747624 1057.110525 
L 265.640871 1060.613121 
L 270.5445 1054.308458 
L 269.143466 1047.303266 
L 264.239837 1037.496007 
L 259.336207 1029.79031 
L 250.929982 1022.08459 
L 246.726858 1020.683556 
L 241.823228 1022.785118 
L 243.92479 1017.881489 
L 240.422195 1010.876297 
L 232.015969 1003.871106 
L 223.609744 1004.571634 
L 215.904047 1010.876297 
L 208.198349 1019.282522 
L 201.893686 1028.389276 
L 196.990057 1036.795501 
L 192.786933 1046.60276 
L 195.589 1053.607929 
L 203.29472 1057.110525 
L 214.503013 1058.511559 
L 225.711306 1058.511559 
L 232.716497 1062.714683 
L 236.219093 1066.217279 
L 227.812868 1066.917784 
L 214.503013 1064.816245 
L 201.193158 1064.115717 
L 189.284337 1067.618313 
L 183.680202 1073.22247 
L 181.57864 1083.730235 
L 184.380707 1094.938528 
L 192.086427 1101.94372 
L 203.29472 1106.146844 
L 215.904047 1106.847349 
L 240.422195 1109.649417 
L 250.229454 1107.547877 
L 254.432578 1103.344753 
L 255.833611 1093.537494 
L 258.635679 1101.94372 
L 262.138275 1108.248383 
L 270.5445 1111.050473 
L 281.752793 1114.553046 
L 293.661614 1119.456699 
L 307.671997 1125.060834 
L 295.763176 1122.959272 
L 285.255389 1118.75617 
L 275.44813 1113.852541 
L 265.640871 1113.152013 
L 257.935173 1114.553046 
L 250.929982 1118.055642 
L 250.929982 1130.664992 
L 246.726858 1120.157204 
L 240.422195 1115.253575 
L 231.315464 1113.152013 
L 211.000417 1110.349945 
L 201.193158 1111.050473 
L 197.690562 1116.654608 
L 196.990057 1122.959272 
L 201.193158 1132.066025 
L 208.198349 1141.172756 
L 214.503013 1146.076386 
L 220.807676 1150.27951 
L 229.91443 1151.680544 
L 237.620127 1153.782106 
L 242.523757 1157.985207 
L 235.518565 1157.284701 
L 227.11234 1158.685735 
L 213.101979 1154.482611 
L 211.700945 1159.386241 
L 207.8193 1167.586153 
L 209.920862 1177.393412 
L 215.524997 1184.398603 
L 222.530189 1190.002739 
L 233.037976 1186.500165 
L 230.936414 1192.1043 
L 226.032784 1194.906391 
L 230.936414 1201.91156 
L 237.941605 1209.617279 
L 248.44937 1219.424539 
L 258.957158 1226.429708 
L 268.764417 1229.231798 
L 281.373744 1232.033865 
L 284.876339 1225.729202 
L 286.277373 1218.72401 
L 286.277373 1211.718819 
L 284.175834 1206.114684 
L 273.668046 1201.91156 
L 258.957158 1192.804829 
L 269.464945 1197.708458 
L 278.571676 1203.312593 
L 287.678429 1205.414155 
L 291.881531 1200.510526 
L 296.78516 1192.1043 
L 300.287756 1185.099109 
L 293.983093 1178.794446 
L 285.576867 1171.789277 
L 272.267013 1161.981995 
L 282.074272 1166.885624 
L 294.683598 1174.591344 
L 302.389318 1180.195479 
L 310.095015 1179.494974 
L 312.897083 1171.088748 
L 316.399679 1161.281489 
L 322.704342 1154.976826 
L 319.201746 1165.484591 
L 317.100207 1175.29185 
L 318.501241 1184.398603 
L 327.607972 1187.200671 
L 340.217321 1191.403795 
L 350.02458 1197.00793 
L 355.475328 1203.625322 
L 344.96754 1197.320659 
L 333.058719 1191.716501 
L 322.550954 1189.614939 
L 315.545763 1190.315467 
L 307.139537 1200.122727 
L 302.235908 1210.630514 
L 302.936436 1216.234649 
L 312.043167 1221.138279 
L 335.160281 1233.747628 
L 321.149898 1228.14347 
L 305.738504 1219.737245 
L 300.134346 1223.239841 
L 294.530211 1230.945538 
L 289.626581 1240.052291 
L 288.926053 1249.859551 
L 290.327087 1261.067844 
L 300.834874 1264.570439 
L 326.754056 1263.169406 
L 342.165473 1265.971473 
L 352.673237 1267.372507 
L 362.480497 1270.875103 
L 364.582059 1275.078227 
L 351.272204 1276.47926 
L 337.962349 1274.377699 
L 325.353022 1273.67717 
L 315.545763 1273.67717 
L 307.139537 1274.377699 
L 300.834874 1277.880294 
L 304.33747 1287.687553 
L 314.144729 1295.393251 
L 321.149898 1304.500004 
L 330.256652 1315.007769 
L 341.464944 1323.413994 
L 348.470136 1320.611927 
L 354.774799 1315.007769 
L 361.779991 1309.403634 
L 367.384149 1309.403634 
L 365.983092 1318.510365 
L 367.384149 1328.317624 
L 372.287778 1340.226445 
L 381.584023 1349.126862 
L 392.792338 1355.431548 
L 404.701137 1354.73102 
L 410.305295 1356.832582 
L 415.208924 1364.538279 
L 427.818251 1373.645033 
L 443.229668 1382.051236 
L 457.940557 1386.25436 
L 472.651445 1386.954865 
L 485.9613 1384.152798 
L 497.870122 1379.949696 
L 503.474279 1373.645033 
L 516.083606 1374.345539 
L 533.596562 1375.046067 
L 550.409013 1374.345539 
L 566.520958 1363.837751 
L 580.531319 1349.827391 
L 591.739612 1333.715468 
L 599.445331 1317.603523 
L 599.445331 1304.293691 
L 596.643241 1288.882274 
L 591.039106 1276.973453 
L 588.937544 1264.364126 
L 579.130285 1253.856338 
L 570.72406 1248.952709 
L 560.9168 1246.851147 
L 549.708508 1243.348551 
L 537.099158 1239.14545 
L 530.794495 1237.744416 
L 529.393461 1252.455305 
L 527.291899 1241.247012 
L 520.987236 1235.642854 
L 512.58101 1232.840786 
L 502.773751 1232.840786 
L 490.86493 1238.444921 
L 483.159233 1246.851147 
L 475.453536 1257.358934 
L 471.250412 1267.866722 
L 465.646276 1283.978644 
L 462.143681 1299.390061 
L 458.641085 1311.29886 
L 452.336422 1314.801455 
L 453.737455 1304.994196 
L 456.539523 1296.587971 
L 460.042119 1285.379678 
L 462.844186 1274.171385 
L 464.945748 1265.064631 
L 455.138489 1265.76516 
L 446.031736 1265.064631 
L 437.625533 1263.663598 
L 429.219307 1267.866722 
L 420.813082 1275.572419 
L 411.706329 1284.67915 
L 413.939833 1276.85831 
L 416.041395 1270.553624 
L 413.939833 1263.548455 
L 416.7419 1259.345331 
L 421.645553 1262.847927 
L 428.650722 1257.944297 
L 437.757475 1252.34014 
L 444.762667 1239.730813 
L 450.366802 1236.228217 
L 454.569926 1235.527712 
L 448.965768 1243.233409 
L 446.163701 1251.639634 
L 455.270432 1252.34014 
L 467.179253 1249.538072 
L 472.78341 1243.933937 
L 476.986512 1237.629251 
L 483.991703 1230.624082 
L 488.194805 1225.720452 
L 483.991703 1220.116295 
L 472.78341 1213.811631 
L 463.676657 1210.309035 
L 454.569926 1201.90281 
L 447.564734 1194.897619 
L 441.771063 1187.381435 
L 441.070535 1181.7773 
L 448.075726 1174.07158 
L 453.679884 1168.467445 
L 459.284019 1160.761725 
L 462.786615 1151.654994 
L 460.685053 1143.949297 
L 456.481952 1134.142038 
L 455.080918 1128.53788 
L 454.38039 1125.035284 
L 459.984548 1132.040476 
L 464.888177 1141.847735 
L 466.289211 1155.15759 
L 464.187649 1165.665355 
L 461.385581 1174.07158 
L 455.080918 1179.675738 
L 450.177288 1185.279895 
L 452.278828 1192.285065 
L 457.182457 1199.990784 
L 466.289211 1206.995953 
L 479.599066 1214.001145 
L 495.010483 1223.107898 
L 505.518248 1223.808404 
L 513.223967 1221.706865 
L 517.427069 1218.204269 
L 529.33589 1221.706865 
L 550.351442 1228.011528 
L 571.366994 1232.915158 
L 586.077883 1230.813596 
L 590.981512 1223.808404 
L 594.484108 1216.102707 
L 591.682041 1209.097515 
L 582.57531 1200.69129 
L 574.86959 1195.087155 
L 568.564926 1192.985593 
L 560.859229 1195.087155 
L 568.564926 1189.482997 
L 562.260263 1183.878839 
L 553.15351 1176.173142 
L 547.549374 1174.07158 
L 535.640553 1178.97521 
L 523.731732 1185.980401 
L 513.924473 1191.584559 
L 514.625001 1186.680929 
L 522.330698 1181.7773 
L 529.33589 1178.274704 
L 541.244711 1174.07158 
L 546.148341 1169.16795 
L 544.747284 1160.061219 
L 538.442621 1153.756556 
L 530.736924 1148.152398 
L 522.330698 1143.949297 
L 511.122405 1139.045667 
L 516.026035 1136.944105 
L 525.132766 1140.446701 
L 536.341081 1146.751364 
L 544.747284 1150.954466 
L 551.05197 1153.056028 
L 558.057139 1148.852926 
L 562.260263 1145.350331 
L 563.661297 1139.746173 
L 568.564926 1141.147207 
L 576.971152 1140.446701 
L 588.879973 1141.147207 
L 573.468556 1142.548241 
L 563.661297 1147.451893 
L 555.255072 1155.858095 
L 553.15351 1163.563815 
L 556.656105 1171.269512 
L 562.260263 1178.97521 
L 569.265455 1181.7773 
L 576.270624 1176.173142 
L 583.976343 1172.670546 
L 590.281007 1170.569007 
L 577.671657 1178.97521 
L 573.468556 1185.279895 
L 576.971152 1190.884031 
L 584.676849 1196.488188 
L 593.083074 1203.49338 
L 601.4893 1208.39701 
L 607.793963 1207.696481 
L 618.30175 1202.092324 
L 634.413673 1183.178334 
L 637.916269 1174.07158 
L 637.916269 1167.766917 
L 632.312111 1160.761725 
L 621.103818 1157.959657 
L 630.210572 1155.858095 
L 627.408481 1150.25396 
L 622.504852 1145.350331 
L 634.413673 1150.954466 
L 642.11937 1155.858095 
L 649.124562 1164.964849 
L 654.028191 1173.371074 
L 665.236484 1174.772108 
L 675.744272 1176.87367 
L 679.947396 1182.477805 
L 680.647901 1189.482997 
L 673.64271 1183.178334 
L 665.236484 1178.274704 
L 649.124562 1175.472636 
L 639.317303 1183.878839 
L 629.510043 1195.087155 
L 618.30175 1207.696481 
L 630.210572 1209.097515 
L 641.418865 1209.097515 
L 623.20538 1209.798043 
L 613.398121 1211.199077 
L 606.392929 1215.402179 
L 600.088266 1223.107898 
L 601.4893 1232.214629 
L 609.895525 1236.417753 
L 620.403312 1237.818787 
L 634.413673 1230.813596 
L 650.525596 1224.508932 
L 661.333777 1221.517328 
L 671.141036 1215.212665 
L 680.247767 1209.608507 
L 685.851925 1204.704878 
L 689.35452 1199.801248 
L 683.049857 1199.100743 
L 691.456082 1193.496585 
L 697.060218 1184.389854 
L 697.060218 1174.582595 
L 706.867477 1174.582595 
L 727.883051 1177.384662 
L 750.299637 1174.582595 
L 778.320381 1167.577403 
L 802.138023 1155.668582 
L 817.590211 1146.504257 
L 833.702134 1135.996492 
L 847.712517 1128.290773 
L 862.423406 1124.087671 
L 879.936362 1116.381952 
L 897.449318 1107.975749 
L 912.16023 1098.16849 
L 925.470062 1086.960174 
L 936.678378 1075.751881 
L 947.186142 1067.345656 
L 964.699121 1061.040992 
L 969.107634 1061.040992 
L 967.279699 1066.785955 
L 962.84593 1075.653494 
L 955.948935 1076.638788 
L 949.544599 1082.550488 
L 945.110829 1092.403322 
L 940.184401 1101.763519 
L 937.228562 1109.645786 
L 935.750632 1117.528053 
L 942.154968 1132.307292 
L 952.500437 1145.115987 
L 959.890068 1153.49089 
L 959.890068 1160.880521 
L 970.23556 1171.718649 
L 982.058961 1174.181851 
L 993.389725 1174.674487 
L 1006.198397 1178.122985 
L 1020.977659 1179.600916 
L 1033.786353 1183.049413 
L 1047.087662 1183.542049 
L 1055.462587 1181.571482 
L 1061.866923 1179.600916 
L 1070.734485 1178.122985 
L 1078.124093 1181.571482 
L 1081.079954 1183.542049 
L 1070.734485 1186.005252 
L 1062.852218 1188.961113 
L 1053.984656 1192.40961 
L 1044.131823 1194.872813 
L 1028.367289 1195.365449 
L 1017.036525 1195.858085 
L 1006.691033 1193.887518 
L 996.8382 1192.902246 
L 988.463297 1195.365449 
L 987.478025 1205.710919 
L 991.911794 1219.997544 
L 1002.257264 1225.909244 
L 1016.051231 1228.372447 
L 1031.323128 1227.879811 
L 1045.609754 1229.357742 
L 1058.418426 1232.806217 
L 1073.690324 1232.806217 
L 1084.035816 1229.850378 
L 1096.351852 1226.894516 
L 1110.638455 1227.879811 
L 1122.954514 1226.894516 
L 1133.792619 1222.953383 
L 1143.645453 1216.056411 
L 1152.513014 1208.174144 
L 1160.887917 1200.291877 
L 1165.321709 1191.916952 
L 1160.887917 1186.497888 
L 1148.079245 1181.571482 
L 1133.792619 1177.630349 
L 1146.108678 1179.108279 
L 1157.932078 1184.034685 
L 1167.292276 1186.005252 
L 1174.189248 1181.078846 
L 1177.637745 1172.703921 
L 1178.130381 1164.821654 
L 1177.145109 1156.446751 
L 1173.203976 1149.05712 
L 1164.336414 1147.086554 
L 1154.483581 1146.593918 
L 1142.167545 1148.071848 
L 1126.402988 1148.564484 
L 1110.638455 1151.027687 
L 1118.028086 1146.101282 
L 1123.939786 1143.14542 
L 1119.998652 1139.204287 
L 1111.623749 1133.785223 
L 1100.292985 1129.351453 
L 1114.579588 1131.814656 
L 1125.417716 1138.711651 
L 1141.674886 1141.66749 
L 1154.976217 1140.682217 
L 1165.814345 1139.204287 
L 1169.262842 1133.785223 
L 1166.306981 1124.917684 
L 1159.410009 1115.06485 
L 1151.52772 1105.704653 
L 1140.689614 1097.329727 
L 1128.866214 1089.940119 
L 1116.057519 1085.013691 
L 1107.682616 1080.087263 
L 1125.910352 1086.491622 
L 1137.241117 1092.403322 
L 1148.079245 1100.778225 
L 1157.43942 1109.645786 
L 1164.82905 1119.49862 
L 1172.218681 1131.32202 
L 1173.696612 1140.189581 
L 1179.115676 1144.130715 
L 1182.564151 1137.23372 
L 1182.564151 1127.873523 
L 1180.100948 1117.035417 
L 1174.189248 1103.734086 
L 1167.292276 1092.403322 
L 1160.395281 1084.521055 
L 1149.557153 1078.116696 
L 1139.704319 1072.697655 
L 1127.388283 1067.278591 
L 1117.042814 1063.830093 
L 1112.116386 1059.88896 
L 1108.057539 1053.462434 
L 1111.263011 1054.11811 
L 1144.313396 1066.209702 
L 1166.964573 1075.819307 
L 1175.119407 1082.719526 
L 1188.781725 1096.381844 
L 1209.27519 1116.021416 
L 1232.330335 1130.537627 
L 1263.070545 1145.053838 
L 1282.710116 1156.154453 
L 1303.203582 1171.524557 
L 1330.528195 1186.040769 
L 1355.291127 1196.28749 
L 1375.784615 1201.410873 
L 1428.726054 1205.68034 
L 1436.411117 1206.534234 
L 1441.534478 1215.073168 
L 1443.242265 1224.466019 
L 1457.758476 1236.357476 
L 1470.5669 1238.919156 
L 1494.475939 1250.019771 
L 1517.531085 1258.558728 
L 1542.294017 1269.659343 
L 1551.686868 1270.513259 
L 1549.125187 1261.120409 
L 1545.709614 1251.727581 
L 1545.709614 1240.626943 
L 1544.001827 1234.649689 
L 1531.193402 1230.380199 
L 1520.946659 1222.695158 
L 1505.576554 1215.010117 
L 1495.329833 1207.325054 
L 1488.498685 1203.055587 
L 1477.398048 1205.617267 
L 1470.5669 1210.740628 
L 1469.713007 1204.763373 
L 1478.251941 1201.3478 
L 1487.644769 1201.3478 
L 1494.475939 1197.078332 
L 1497.03762 1186.831589 
L 1506.430447 1179.146548 
L 1516.677191 1172.315377 
L 1499.5993 1193.662736 
L 1498.745406 1203.90948 
L 1507.284363 1214.156224 
L 1526.923935 1224.402945 
L 1538.878443 1231.234093 
L 1544.001827 1227.818519 
L 1548.271294 1220.987371 
L 1552.540761 1215.864011 
L 1563.641399 1212.448414 
L 1572.180333 1205.617267 
L 1573.034226 1195.370546 
L 1570.472546 1185.123802 
L 1563.641399 1176.584867 
L 1552.540761 1171.461484 
L 1542.294017 1165.48423 
L 1557.664122 1168.04591 
L 1565.349185 1171.461484 
L 1569.618653 1165.48423 
L 1575.595907 1161.214763 
L 1583.28097 1161.214763 
L 1573.034226 1168.04591 
L 1569.618653 1175.730951 
L 1575.595907 1185.123802 
L 1579.865374 1192.808843 
L 1600.358862 1185.977695 
L 1583.28097 1197.078332 
L 1578.157587 1205.617267 
L 1580.719267 1211.594521 
L 1591.819905 1218.425691 
L 1600.358862 1225.256839 
L 1602.066649 1233.795796 
L 1595.235479 1224.402945 
L 1584.988757 1218.425691 
L 1573.88812 1215.864011 
L 1564.495292 1222.695158 
L 1553.394655 1234.649689 
L 1550.832974 1243.188624 
L 1560.225802 1248.311984 
L 1576.4498 1253.435368 
L 1556.810228 1253.435368 
L 1558.518015 1267.097663 
L 1567.056972 1279.052193 
L 1580.719267 1284.175554 
L 1594.381585 1279.906087 
L 1612.31337 1273.928833 
L 1619.574869 1268.116039 
L 1630.675507 1260.430998 
L 1641.776144 1255.307615 
L 1649.461185 1244.207 
L 1654.584546 1229.690789 
L 1651.168972 1218.590151 
L 1640.068335 1211.759004 
L 1651.168972 1210.051217 
L 1658.00012 1205.78175 
L 1660.561823 1191.265538 
L 1660.561823 1155.401969 
L 1664.83129 1174.187647 
L 1664.83129 1188.703858 
L 1662.269609 1202.366153 
L 1658.854013 1214.320684 
L 1660.561823 1227.129108 
L 1661.415716 1232.252469 
L 1657.146226 1240.791403 
L 1652.022866 1250.184254 
L 1645.191718 1259.577082 
L 1638.689491 1269.134415 
L 1623.319409 1284.504497 
L 1620.757706 1299.020708 
L 1619.903812 1312.683026 
L 1616.488238 1323.78364 
L 1611.364878 1339.153745 
L 1612.218771 1352.816063 
L 1622.465515 1375.871208 
L 1637.835597 1390.38742 
L 1656.621275 1397.218567 
L 1677.114741 1395.51078 
L 1701.877696 1393.802993 
L 1718.101694 1389.533526 
L 1735.179585 1385.264059 
L 1746.2802 1379.286782 
L 1750.549667 1369.893954 
L 1747.987987 1364.770594 
L 1731.763989 1359.64721 
L 1714.686097 1356.231637 
L 1702.731589 1352.816063 
L 1689.923165 1351.108276 
L 1675.406954 1344.277128 
L 1684.799804 1340.861532 
L 1701.877696 1342.569319 
L 1724.078948 1341.715425 
L 1744.572413 1339.153745 
L 1759.942518 1337.445958 
L 1774.458729 1340.007639 
L 1790.682704 1347.692702 
L 1801.783342 1351.962169 
L 1815.445659 1350.254382 
L 1828.254084 1343.423212 
L 1840.208592 1334.030384 
L 1850.455336 1321.22196 
L 1857.286483 1306.705772 
L 1853.87091 1295.605134 
L 1851.309229 1281.942817 
L 1847.893656 1274.257775 
L 1829.961871 1280.23503 
L 1809.468405 1286.212284 
L 1792.390514 1290.481774 
L 1818.861233 1281.088923 
L 1837.646912 1274.257775 
L 1842.770272 1265.718818 
L 1835.939125 1261.449351 
L 1837.646912 1256.325991 
L 1837.646912 1247.787034 
L 1826.546274 1242.663673 
L 1813.737873 1241.809779 
L 1796.659981 1243.517566 
L 1777.020409 1248.640927 
L 1753.111348 1252.910417 
L 1719.809481 1258.033777 
L 1766.773665 1246.079247 
L 1781.289876 1240.955886 
L 1761.650305 1241.809779 
L 1738.595159 1245.225353 
L 1718.101694 1246.93314 
L 1677.114741 1252.910417 
L 1703.585483 1243.517566 
L 1742.864626 1235.832525 
L 1765.919772 1231.563058 
L 1791.53662 1228.147462 
L 1806.906702 1226.439675 
L 1824.838487 1229.855249 
L 1835.939125 1237.540312 
L 1847.039762 1247.787034 
L 1856.43259 1248.640927 
L 1861.555951 1241.809779 
L 1866.679334 1230.709142 
L 1871.802695 1218.754634 
L 1875.218268 1206.800103 
L 1877.779949 1192.283892 
L 1881.195522 1182.037171 
L 1882.903309 1169.228746 
L 1882.903309 1157.274238 
L 1875.218268 1150.443068 
L 1860.702057 1164.959279 
L 1871.802695 1146.173601 
L 1864.117631 1142.758027 
L 1853.87091 1140.196347 
L 1843.624166 1136.78075 
L 1831.669657 1135.926857 
L 1817.153446 1141.904133 
L 1806.052809 1148.735281 
L 1793.244407 1155.566429 
L 1783.851557 1164.105386 
L 1774.458729 1173.498214 
L 1765.919772 1182.891064 
L 1754.819157 1191.429998 
L 1744.572413 1196.553382 
L 1724.078948 1205.94621 
L 1738.595159 1195.699488 
L 1751.403561 1189.722212 
L 1755.673051 1182.891064 
L 1768.481452 1170.936533 
L 1782.14377 1161.543705 
L 1796.659981 1148.735281 
L 1813.737873 1139.342453 
L 1821.422914 1134.21907 
L 1806.906702 1135.926857 
L 1790.682704 1144.465814 
L 1770.189239 1156.420322 
L 1755.673051 1165.813172 
L 1737.741266 1176.91381 
L 1724.932841 1186.306638 
L 1715.539991 1190.576105 
L 1729.202309 1174.352107 
L 1747.134094 1161.543705 
L 1765.065878 1150.443068 
L 1781.289876 1141.05024 
L 1796.659981 1132.511283 
L 1811.176192 1126.534029 
L 1823.1307 1120.556775 
L 1829.961871 1112.017818 
L 1846.185846 1110.310031 
L 1850.455336 1102.62499 
L 1836.793018 1091.524352 
L 1821.422914 1081.277609 
L 1811.176192 1076.154248 
L 1804.661562 1068.637388 
L 1815.929862 1072.614444 
L 1832.052 1076.644967 
L 1844.949701 1076.644967 
L 1848.478635 1070.828633 
L 1846.866417 1062.767564 
L 1842.029785 1053.094276 
L 1835.580934 1048.257644 
L 1823.489319 1042.614903 
L 1818.652687 1037.778248 
L 1829.938193 1042.614903 
L 1841.223676 1044.227098 
L 1843.642003 1036.166029 
L 1845.254221 1028.104961 
L 1850.090854 1019.237805 
L 1858.958032 1015.207259 
L 1857.345814 1020.850001 
L 1851.703072 1029.717179 
L 1848.478635 1037.778248 
L 1847.672526 1048.257644 
L 1850.090854 1061.961455 
L 1855.733595 1073.24696 
L 1867.82521 1080.50192 
L 1880.722911 1078.083592 
L 1892.008417 1072.440851 
L 1899.263377 1066.798087 
L 1897.651158 1052.288167 
L 1894.426722 1036.166029 
L 1900.875595 1039.390466 
L 1905.712227 1050.675972 
L 1910.54886 1060.349236 
L 1921.834365 1059.543127 
L 1933.119848 1053.900386 
L 1939.568721 1046.645426 
L 1945.211463 1034.553834 
L 1947.62979 1019.237805 
L 1944.405354 1007.952299 
L 1937.956503 999.085121 
L 1929.895434 993.44238 
L 1916.191624 991.830162 
L 1905.712227 995.054598 
L 1892.008417 1002.309558 
L 1900.875595 994.248489 
L 1912.161078 986.993529 
L 1921.834365 983.769093 
L 1933.119848 986.993529 
L 1947.62979 991.830162 
L 1957.303055 986.993529 
L 1962.945819 977.320242 
L 1969.39467 967.646955 
L 1963.751905 957.973668 
L 1956.496946 948.300403 
L 1946.017572 945.882075 
L 1929.089325 942.657639 
L 1940.374808 938.627116 
L 1937.150394 932.178265 
L 1927.477107 926.535501 
L 1919.416038 917.668345 
L 1939.568721 930.566047 
L 1951.660313 931.372156 
L 1960.527491 924.117196 
L 1965.364124 916.056127 
L 1960.527491 906.38284 
L 1956.496946 896.709553 
L 1941.987026 890.260702 
L 1950.854204 888.648484 
L 1953.272532 881.393524 
L 1954.88475 873.332455 
L 1962.945819 871.720237 
L 1959.721382 883.811851 
L 1963.751905 899.12788 
L 1971.812974 911.219472 
L 1982.292371 915.250018 
L 1991.965658 914.443909 
L 1997.6084 909.607276 
L 1997.6084 896.709553 
L 2003.251141 902.352317 
L 2010.506101 900.740098 
L 2019.373279 897.515662 
L 2023.403825 889.454593 
L 2027.434348 878.975219 
L 2025.016043 874.138564 
L 2013.730537 865.271386 
L 2004.05725 862.046972 
L 2010.506101 859.628645 
L 2021.791606 864.465277 
L 2029.046566 864.465277 
L 2033.883198 855.598121 
L 2033.883198 866.077495 
L 2035.495417 879.781306 
L 2044.362595 883.005742 
L 2055.6481 882.199633 
L 2062.90306 879.781306 
L 2068.545802 873.332455 
L 2070.15802 866.077495 
L 2071.770238 861.240863 
L 2079.025198 860.434754 
L 2087.892376 857.210317 
L 2092.729008 849.149248 
L 2094.341227 839.475983 
L 2098.37175 827.384369 
L 2099.177859 818.517191 
L 2096.759532 809.650013 
L 2093.535118 804.81338 
L 2084.66794 805.619489 
L 2075.800761 809.650013 
L 2074.188543 812.874449 
L 2070.964129 809.650013 
L 2073.382434 799.976748 
L 2081.443503 791.915679 
L 2091.11679 788.691242 
L 2099.177859 781.436283 
L 2105.62671 770.956886 
L 2103.208405 759.671403 
L 2101.596187 741.130938 
L 2095.953445 729.845455 
L 2089.504572 719.366059 
L 2084.66794 710.49888 
L 2076.606871 711.30499 
L 2065.321365 715.335535 
L 2058.066405 720.978277 
L 2051.617555 725.0088 
L 2043.556486 731.457651 
L 2050.005336 741.937047 
L 2057.260296 755.640857 
L 2049.19925 751.610334 
L 2042.750377 745.161484 
L 2035.495417 741.937047 
L 2024.209934 746.773702 
L 2016.148865 754.028662 
L 2011.31221 758.865294 
L 2015.342756 772.569105 
L 2024.209934 779.824064 
L 2034.689308 796.752311 
L 2041.138181 816.098886 
L 2033.883198 808.037817 
L 2028.240457 794.333984 
L 2018.56717 779.824064 
L 2008.893905 771.762995 
L 1997.6084 774.181323 
L 1986.322917 783.048501 
L 1978.261848 791.915679 
L 1971.812974 797.55842 
L 1975.037411 804.81338 
L 1985.516807 812.874449 
L 1991.159549 821.741627 
L 1978.261848 812.06834 
L 1969.39467 805.619489 
L 1963.751905 810.456122 
L 1959.721382 820.129409 
L 1952.466422 830.608805 
L 1950.854204 836.251547 
L 1947.62979 828.190478 
L 1953.272532 817.711082 
L 1955.690859 810.456122 
L 1962.13971 803.201162 
L 1965.364124 796.752311 
L 1957.303055 791.10957 
L 1947.62979 782.242392 
L 1965.364124 791.10957 
L 1970.200779 791.10957 
L 1977.455738 782.242392 
L 1987.935112 774.181323 
L 1996.80229 766.926363 
L 1999.220618 758.059185 
L 1994.383985 753.222553 
L 1983.09848 748.385898 
L 1969.39467 741.130938 
L 1959.721382 737.100415 
L 1950.048095 730.651564 
L 1972.619084 740.324829 
L 1991.159549 749.192007 
L 2002.445054 745.967593 
L 2012.924428 740.324829 
L 2020.179388 733.069869 
L 2016.148865 725.814909 
L 1996.80229 716.141622 
L 2012.924428 721.784386 
L 2024.209934 725.0088 
L 2038.719853 716.947731 
L 2050.811445 707.274466 
L 2052.423664 700.019507 
L 2044.362595 690.346219 
L 2029.852675 682.28515 
L 2020.179388 675.8363 
L 2009.700014 675.030191 
L 1998.414509 678.254605 
L 1988.741221 685.509564 
L 1987.935112 676.642409 
L 1979.067957 674.224082 
L 1964.558015 672.611863 
L 1948.435877 673.417972 
L 1942.793135 675.030191 
L 1936.344285 679.866823 
L 1938.762612 697.601179 
L 1929.895434 687.121783 
L 1925.864888 678.254605 
L 1915.385514 678.254605 
L 1900.069486 679.866823 
L 1888.78398 683.897369 
L 1880.722911 688.734001 
L 1878.304584 695.182852 
L 1884.753457 705.662248 
L 1893.620612 718.559949 
L 1898.457267 725.814909 
L 1903.2939 732.26376 
L 1905.712227 742.743156 
L 1911.354969 759.671403 
L 1900.875595 739.51872 
L 1896.03894 730.651564 
L 1892.008417 725.0088 
L 1887.977871 720.172168 
L 1883.141239 720.978277 
L 1885.559566 715.335535 
L 1880.722911 706.468357 
L 1874.274061 698.407288 
L 1867.019101 691.958438 
L 1856.539704 691.152329 
L 1846.060331 691.958438 
L 1833.968716 694.376743 
L 1828.325974 698.407288 
L 1830.744302 705.662248 
L 1822.683233 701.631702 
L 1813.009946 705.662248 
L 1804.142768 712.111099 
L 1799.306135 720.978277 
L 1801.72444 730.651564 
L 1816.23436 741.130938 
L 1833.162607 754.028662 
L 1844.448112 764.508036 
L 1854.927486 772.569105 
L 1862.182468 771.762995 
L 1867.82521 763.701926 
L 1871.855733 757.253076 
L 1873.467951 763.701926 
L 1869.437428 771.762995 
L 1867.019101 775.793541 
L 1872.661842 784.660719 
L 1882.335129 795.946202 
L 1887.977871 803.201162 
L 1901.681681 805.619489 
L 1893.620612 807.231708 
L 1889.590089 809.650013 
L 1891.202308 821.741627 
L 1893.620612 833.02711 
L 1903.2939 840.282093 
L 1897.651158 841.088179 
L 1892.008417 840.282093 
L 1887.977871 846.730943 
L 1887.171762 853.985903 
L 1883.141239 861.240863 
L 1886.365653 869.301932 
L 1887.171762 874.138564 
L 1880.722911 866.077495 
L 1869.437428 860.434754 
L 1876.692388 858.822535 
L 1880.722911 849.955357 
L 1883.947348 841.088179 
L 1886.365653 832.221024 
L 1886.365653 821.741627 
L 1884.753457 812.874449 
L 1883.141239 805.619489 
L 1878.304584 794.333984 
L 1872.661842 788.691242 
L 1866.212992 781.436283 
L 1858.958032 776.59965 
L 1850.896963 773.375214 
L 1847.672526 778.211846 
L 1843.642003 787.079024 
L 1837.999262 793.527897 
L 1835.580934 785.466828 
L 1839.611457 778.211846 
L 1840.417567 771.762995 
L 1837.193152 762.895817 
L 1826.713756 753.222553 
L 1816.23436 745.161484 
L 1806.561095 737.100415 
L 1795.275589 729.845455 
L 1783.183997 730.651564 
L 1771.092383 740.324829 
L 1763.031314 750.804225 
L 1760.613009 764.508036 
L 1763.837423 777.405759 
L 1778.347342 788.691242 
L 1793.663371 796.752311 
L 1809.785509 806.425599 
L 1822.683233 816.904995 
L 1830.744302 830.608805 
L 1813.816055 816.098886 
L 1800.112222 805.619489 
L 1784.796193 795.946202 
L 1771.898492 791.10957 
L 1764.643532 791.915679 
L 1759.8069 800.782857 
L 1759.8069 806.425599 
L 1754.970245 813.680558 
L 1758.194681 828.190478 
L 1767.061859 837.863765 
L 1781.571779 847.537052 
L 1797.693917 859.628645 
L 1811.397727 865.271386 
L 1822.683233 865.271386 
L 1816.23436 870.91415 
L 1825.101538 881.393524 
L 1837.193152 892.679029 
L 1849.284745 893.485139 
L 1858.151923 892.679029 
L 1854.927486 897.515662 
L 1847.672526 900.740098 
L 1847.672526 907.188949 
L 1851.703072 920.892759 
L 1851.703072 932.178265 
L 1846.866417 940.239334 
L 1837.193152 942.657639 
L 1842.835894 932.984374 
L 1845.254221 922.504978 
L 1842.029785 912.025581 
L 1836.387043 900.740098 
L 1827.519865 888.648484 
L 1816.23436 878.16911 
L 1804.948877 869.301932 
L 1792.051175 859.628645 
L 1779.959561 854.792012 
L 1768.674078 845.924834 
L 1758.194681 841.088179 
L 1750.939722 839.475983 
L 1741.266434 847.537052 
L 1730.787038 859.628645 
L 1739.654216 869.301932 
L 1759.000791 882.199633 
L 1775.122928 894.291248 
L 1787.214521 907.188949 
L 1775.122928 899.933989 
L 1763.837423 890.260702 
L 1748.521394 879.781306 
L 1729.174842 867.689713 
L 1723.532078 870.91415 
L 1719.501555 882.199633 
L 1715.471009 894.291248 
L 1717.083228 905.576731 
L 1732.399256 916.862236 
L 1746.103067 928.953828 
L 1759.000791 943.463748 
L 1769.480164 949.106512 
L 1783.183997 949.106512 
L 1800.918331 945.075966 
L 1803.336658 950.718708 
L 1793.663371 952.330926 
L 1776.735124 953.943144 
L 1765.449641 954.749253 
L 1763.031314 965.228627 
L 1755.776354 974.901915 
L 1749.327503 976.514133 
L 1755.776354 965.228627 
L 1759.8069 955.555363 
L 1757.388572 948.300403 
L 1748.521394 940.239334 
L 1736.429802 927.34161 
L 1725.144296 917.668345 
L 1712.246595 910.413386 
L 1704.991635 909.607276 
L 1688.869498 917.668345 
L 1680.808429 925.729414 
L 1685.645061 941.045443 
L 1696.124457 957.973668 
L 1703.379417 967.646955 
L 1691.287802 957.167581 
L 1682.420647 949.106512 
L 1677.583992 938.627116 
L 1674.359578 928.147719 
L 1671.941251 922.504978 
L 1663.880182 916.862236 
L 1657.431331 910.413386 
L 1657.431331 904.661771 
L 1671.941251 915.947276 
L 1684.838952 914.335058 
L 1703.379417 903.049552 
L 1704.991635 890.95796 
L 1705.797745 881.284673 
L 1709.022159 872.417495 
L 1706.603831 861.938121 
L 1693.70613 855.489248 
L 1675.165687 851.458725 
L 1659.849636 850.652616 
L 1650.176371 856.295357 
L 1638.084756 863.550317 
L 1625.993164 873.223604 
L 1621.156509 885.315219 
L 1614.707659 900.631248 
L 1615.513768 911.110621 
L 1608.258808 926.42665 
L 1601.003848 944.161006 
L 1597.779412 933.68161 
L 1596.973325 928.038868 
L 1587.300038 924.814432 
L 1576.820642 926.42665 
L 1568.126425 926.938071 
L 1574.359649 921.328185 
L 1584.839023 914.073225 
L 1595.318419 903.593829 
L 1604.991706 891.502237 
L 1613.858884 876.992317 
L 1621.919953 862.482398 
L 1631.004833 854.792012 
L 1642.290316 842.700398 
L 1652.769712 828.996587 
L 1660.830781 815.292777 
L 1663.249109 806.425599 
L 1662.442999 795.140093 
L 1670.504068 791.10957 
L 1680.983442 783.048501 
L 1689.044511 773.375214 
L 1692.508726 758.538719 
L 1702.181991 750.47765 
L 1707.018646 736.77384 
L 1705.406427 719.039484 
L 1697.345359 697.274604 
L 1688.47818 682.764685 
L 1673.968261 671.479179 
L 1659.458341 663.41811 
L 1644.142313 659.387587 
L 1649.785054 669.866983 
L 1655.427796 684.376903 
L 1651.397272 688.407426 
L 1637.693462 677.928052 
L 1621.571324 665.836438 
L 1605.449186 654.550955 
L 1586.908721 648.102082 
L 1540.154526 637.622708 
L 1516.777428 632.786053 
L 1499.043072 630.367748 
L 1482.920956 629.561639 
L 1463.574382 631.979966 
L 1450.676681 636.010489 
L 1461.156054 644.071558 
L 1477.278192 655.357064 
L 1498.236985 665.030329 
L 1512.746905 669.866983 
L 1550.633922 674.703616 
L 1577.235434 680.346357 
L 1541.766744 674.703616 
L 1515.971319 673.897507 
L 1527.256824 681.152466 
L 1540.154526 689.213535 
L 1559.5011 695.662386 
L 1544.185071 692.437972 
L 1528.869043 687.601317 
L 1511.134686 678.734162 
L 1490.175916 669.866983 
L 1470.023233 657.775369 
L 1461.962164 648.908191 
L 1449.064462 641.653231 
L 1433.748434 633.592162 
L 1421.656819 625.531093 
L 1408.759118 619.082242 
L 1395.055307 616.663915 
L 1385.38202 619.082242 
L 1378.12706 627.94942 
L 1374.902624 638.428817 
L 1382.963693 649.7143 
L 1395.055307 656.16315 
L 1411.983554 658.581478 
L 1433.748434 660.193696 
L 1423.269037 660.999805 
L 1403.922485 659.387587 
L 1387.800347 656.96926 
L 1380.545388 660.999805 
L 1380.545388 666.642547 
L 1395.055307 674.703616 
L 1414.401859 680.346357 
L 1433.748434 687.601317 
L 1449.870571 689.213535 
L 1460.349945 693.244081 
L 1473.247669 701.30515 
L 1490.982003 711.784524 
L 1507.91025 720.651702 
L 1526.450715 726.294443 
L 1561.113296 738.386058 
L 1533.705675 731.131098 
L 1516.777428 726.294443 
L 1500.65529 719.845593 
L 1482.920956 711.784524 
L 1463.574382 702.111259 
L 1446.646135 694.05019 
L 1426.493474 687.601317 
L 1387.800347 674.703616 
L 1377.320951 673.091397 
L 1371.67821 681.152466 
L 1368.453773 696.468495 
L 1375.708733 707.754001 
L 1405.534681 718.233375 
L 1415.207968 720.651702 
L 1421.656819 721.457811 
L 1425.687365 728.712771 
L 1429.717888 733.549426 
L 1444.227807 730.324989 
L 1435.360652 735.967731 
L 1439.391175 742.416581 
L 1453.901095 746.447127 
L 1472.44156 751.283759 
L 1487.757589 752.895978 
L 1508.716359 753.702087 
L 1525.644606 756.120414 
L 1544.185071 757.73261 
L 1566.75606 762.569265 
L 1552.24614 761.763156 
L 1514.3591 756.926523 
L 1499.849181 754.508196 
L 1489.369807 756.926523 
L 1486.95148 761.763156 
L 1500.65529 771.436443 
L 1517.583537 778.691403 
L 1533.705675 781.915817 
L 1552.24614 790.782995 
L 1572.398801 805.292915 
L 1590.939267 819.802834 
L 1605.449186 835.924972 
L 1586.102612 829.476121 
L 1569.980474 819.802834 
L 1553.052249 807.711242 
L 1542.572853 798.037955 
L 1527.256824 790.782995 
L 1509.522468 783.528035 
L 1495.818658 777.079185 
L 1483.727043 769.824225 
L 1472.44156 760.957047 
L 1465.1866 753.702087 
L 1446.646135 748.059345 
L 1433.748434 743.22269 
L 1426.493474 735.967731 
L 1420.044623 727.906662 
L 1410.371336 722.26392 
L 1383.769802 713.396742 
L 1369.259882 710.978415 
L 1368.453773 727.100553 
L 1371.67821 744.0288 
L 1374.096514 749.671541 
L 1370.065991 752.089869 
L 1369.259882 764.181483 
L 1374.902624 777.885294 
L 1382.963693 784.334144 
L 1398.279721 781.109708 
L 1411.177445 779.497512 
L 1424.881256 782.721926 
L 1440.197284 789.170777 
L 1419.238514 783.528035 
L 1405.534681 781.915817 
L 1391.024761 785.946363 
L 1383.769802 794.007432 
L 1388.606457 805.292915 
L 1405.534681 813.353983 
L 1419.238514 816.57842 
L 1424.075146 815.772311 
L 1434.554543 822.221162 
L 1457.125531 829.476121 
L 1479.69652 834.312776 
L 1502.267508 837.53719 
L 1517.583537 836.731081 
L 1538.542307 841.567736 
L 1558.694991 847.210478 
L 1570.786583 851.241001 
L 1582.072089 857.689874 
L 1546.603376 848.016587 
L 1520.807974 842.373845 
L 1507.104141 839.955518 
L 1495.012548 842.373845 
L 1509.522468 851.241001 
L 1525.644606 861.720397 
L 1540.154526 868.975357 
L 1550.633922 875.424208 
L 1540.154526 877.036426 
L 1536.124002 884.291386 
L 1526.450715 887.515822 
L 1518.389646 885.097495 
L 1518.389646 877.036426 
L 1520.001864 868.975357 
L 1513.553014 862.526506 
L 1498.236985 852.853219 
L 1481.308738 843.986041 
L 1447.452244 828.670012 
L 1433.748434 826.251707 
L 1423.269037 825.445598 
L 1413.59575 818.996748 
L 1397.473612 813.353983 
L 1380.545388 810.129569 
L 1364.42325 811.741765 
L 1350.719417 811.741765 
L 1337.821715 816.57842 
L 1331.372865 827.057816 
L 1332.178974 837.53719 
L 1344.270566 845.598259 
L 1364.42325 849.628805 
L 1376.514842 854.465437 
L 1394.249198 856.077656 
L 1411.983554 859.30207 
L 1399.08583 858.49596 
L 1384.575911 856.883765 
L 1370.065991 857.689874 
L 1364.42325 865.750943 
L 1366.035468 878.648644 
L 1378.933169 886.709713 
L 1394.249198 893.964673 
L 1411.177445 896.383 
L 1432.942324 895.576891 
L 1461.962164 896.383 
L 1443.421721 898.801305 
L 1424.075146 897.995196 
L 1403.116376 900.413523 
L 1394.249198 906.056265 
L 1384.575911 910.086811 
L 1357.974399 911.699029 
L 1345.076675 907.668483 
L 1335.403388 902.025742 
L 1325.730123 894.770782 
L 1314.444618 889.934127 
L 1303.965221 885.903604 
L 1296.32483 884.812119 
L 1295.73056 883.920702 
L 1288.4756 881.502375 
L 1282.026749 883.920702 
L 1280.414531 890.369553 
L 1279.608422 899.236731 
L 1271.547353 880.696288 
L 1265.098502 876.665742 
L 1257.037433 873.441328 
L 1243.333623 869.410783 
L 1233.660335 868.604673 
L 1219.956525 867.798564 
L 1209.477129 861.349714 
L 1201.41606 851.676426 
L 1190.130577 842.809248 
L 1179.65118 834.748179 
L 1168.365697 833.135984 
L 1157.080192 834.748179 
L 1142.570272 835.554288 
L 1124.835916 833.135984 
L 1148.213014 832.329874 
L 1162.722933 830.717656 
L 1163.529042 824.268806 
L 1153.855778 816.207737 
L 1142.570272 807.340558 
L 1125.642025 798.47338 
L 1107.101582 795.248966 
L 1091.785554 791.218421 
L 1072.438979 790.412311 
L 1051.480209 792.830639 
L 1033.745853 796.055053 
L 1022.460347 800.085599 
L 1016.817606 804.116122 
L 1018.429824 811.371082 
L 1030.521416 817.819955 
L 1018.429824 815.401627 
L 1010.368755 811.371082 
L 1000.695468 808.146668 
L 988.603876 811.371082 
L 971.675629 817.819955 
L 955.553491 827.49322 
L 943.461899 832.329874 
L 925.052339 840.173219 
L 933.919517 832.11215 
L 950.041655 824.051081 
L 965.357683 818.40834 
L 981.479821 808.735053 
L 994.377522 801.480093 
L 1008.887465 796.643461 
L 1024.203493 790.19461 
L 1040.325631 785.357955 
L 1058.059965 784.551846 
L 1097.5592 786.164064 
L 1116.099666 789.388501 
L 1134.640108 798.255679 
L 1150.762246 806.316748 
L 1170.91493 822.438886 
L 1187.037068 833.724369 
L 1196.710332 839.36711 
L 1207.995838 849.846507 
L 1219.281344 856.295357 
L 1235.403481 856.295357 
L 1248.301183 851.458725 
L 1262.004993 850.652616 
L 1280.545458 849.040397 
L 1296.667596 848.234288 
L 1314.40193 844.203765 
L 1319.238585 837.754914 
L 1316.820257 822.438886 
L 1316.820257 813.571708 
L 1310.371407 804.704529 
L 1299.085901 796.643461 
L 1284.575982 789.388501 
L 1270.872171 784.551846 
L 1253.943924 779.715214 
L 1241.046223 775.68469 
L 1233.791263 778.909104 
L 1242.658441 799.061788 
L 1232.179045 783.745759 
L 1223.311867 774.072472 
L 1210.414165 768.429731 
L 1196.710332 760.368662 
L 1188.649286 751.501484 
L 1174.945453 743.440415 
L 1157.211119 731.3488 
L 1141.895091 724.899949 
L 1132.221804 723.287731 
L 1118.517993 716.83888 
L 1075.794321 712.808357 
L 1059.672183 713.614466 
L 1040.325631 717.644989 
L 1011.305769 722.481622 
L 997.601959 728.930495 
L 980.673712 735.379346 
L 965.357683 744.246524 
L 950.847764 753.919788 
L 937.143953 763.593076 
L 922.634034 774.878581 
L 908.930201 786.164064 
L 899.256936 797.44957 
L 895.22639 804.704529 
L 900.063045 816.796122 
L 890.389758 807.122857 
L 877.492034 809.541162 
L 869.430965 812.765598 
L 860.56381 819.214449 
L 848.472195 824.857191 
L 840.411126 829.693845 
L 836.380603 836.142696 
L 836.380603 845.815983 
L 839.605017 857.101466 
L 837.186712 865.162535 
L 831.543948 878.866346 
L 829.125643 889.345742 
L 841.217235 890.151851 
L 857.339373 884.50911 
L 867.818769 877.25415 
L 876.685947 873.223604 
L 879.76852 875.92088 
L 869.303578 883.595165 
L 852.320443 890.542807 
L 833.793418 894.402624 
L 817.582251 896.718505 
L 802.91502 895.946537 
L 792.10756 894.402624 
L 781.300123 889.770862 
L 802.143052 892.086743 
L 815.26637 890.542807 
L 826.845775 884.367132 
L 830.705569 876.647544 
L 829.161656 866.612052 
L 829.161656 854.260702 
L 828.389688 842.681297 
L 823.757926 837.277568 
L 810.634608 831.87386 
L 795.967377 831.101892 
L 777.440329 831.101892 
L 762.773075 831.87386 
L 749.649757 834.961687 
L 735.754494 840.365416 
L 726.49097 844.997178 
L 720.315273 852.716767 
L 721.859208 863.524204 
L 728.034883 872.015782 
L 721.08724 872.787727 
L 714.139597 865.068139 
L 711.051771 857.348528 
L 711.051771 850.400886 
L 721.08724 841.909329 
L 733.438613 835.733654 
L 734.982526 831.101892 
L 721.08724 828.014044 
L 705.648041 826.47013 
L 692.524723 827.242098 
L 695.93705 820.828291 
L 707.516455 816.968474 
L 725.271535 816.196529 
L 746.114464 813.880648 
L 776.992862 814.652593 
L 805.555379 812.336712 
L 821.766545 809.248886 
L 827.942221 800.75733 
L 828.714188 790.721838 
L 825.62634 784.546163 
L 807.87126 784.546163 
L 793.975996 785.318131 
L 781.624624 783.00225 
L 800.923617 782.230282 
L 817.906751 779.914401 
L 829.486156 775.282639 
L 833.34595 764.475202 
L 828.714188 752.123829 
L 824.082426 749.036003 
L 825.62634 744.404241 
L 826.398307 736.68463 
L 825.62634 729.736988 
L 821.766545 723.561312 
L 810.959108 723.561312 
L 795.519909 727.421107 
L 781.624624 732.052868 
L 769.273273 736.68463 
L 757.693868 742.08836 
L 751.518171 746.720122 
L 751.518171 752.123829 
L 745.342496 750.579916 
L 743.026615 750.579916 
L 732.219178 752.123829 
L 721.411741 756.755591 
L 709.060368 766.019115 
L 702.884693 776.054607 
L 726.81547 783.774195 
L 716.008011 783.00225 
L 705.200574 780.686369 
L 693.621169 783.00225 
L 678.18197 789.177925 
L 645.759659 803.845156 
L 631.092405 812.336712 
L 620.284968 819.284355 
L 599.442039 823.144172 
L 610.249499 816.196529 
L 626.460643 809.248886 
L 641.127897 802.301243 
L 658.882977 794.581632 
L 675.094144 786.090076 
L 688.217462 779.914401 
L 692.077256 772.19479 
L 692.849224 761.387353 
L 688.989407 758.299527 
L 675.866089 763.703234 
L 658.111009 769.878909 
L 638.812016 777.59852 
L 609.477531 782.230282 
L 641.899865 771.422845 
L 662.742771 765.24717 
L 679.725906 759.071472 
L 693.621169 752.123829 
L 705.972542 746.720122 
L 698.793035 742.875414 
L 684.897772 740.559533 
L 703.424797 742.103446 
L 714.232257 743.647382 
L 731.215369 741.331501 
L 751.28633 736.699739 
L 766.725529 732.067977 
L 785.252577 726.664247 
L 802.235689 722.804453 
L 819.990769 717.400746 
L 829.254293 708.909167 
L 829.254293 698.10173 
L 820.762737 685.75038 
L 812.271181 678.802737 
L 786.79649 690.382142 
L 807.639419 678.030769 
L 810.727245 672.627062 
L 805.323538 662.59157 
L 798.375895 658.731776 
L 789.112371 659.503722 
L 777.532966 660.275689 
L 765.181616 660.275689 
L 757.462005 661.047657 
L 748.970449 668.767246 
L 744.338687 676.486856 
L 738.93498 682.662531 
L 732.759282 687.294293 
L 726.583607 694.241936 
L 726.583607 701.961525 
L 720.407932 698.10173 
L 708.056559 700.417611 
L 696.477177 705.821341 
L 671.002486 713.540929 
L 708.056559 697.329785 
L 725.811639 688.066261 
L 738.93498 674.942943 
L 748.970449 662.59157 
L 751.28633 655.643927 
L 748.198481 647.924339 
L 755.918092 654.100014 
L 766.725529 657.187841 
L 779.076902 654.87196 
L 798.375895 650.24022 
L 800.691776 639.432761 
L 797.041317 629.959901 
L 799.357198 623.784226 
L 801.673079 616.064638 
L 803.216992 608.345027 
L 803.216992 598.309558 
L 794.725436 595.993677 
L 774.654475 605.257201 
L 766.162919 610.660908 
L 756.127427 617.608551 
L 743.004109 623.784226 
L 751.495666 613.748757 
L 767.706832 606.029146 
L 779.286237 596.765622 
L 790.093674 588.274066 
L 787.005825 579.78251 
L 777.742302 574.37878 
L 768.4788 572.834867 
L 756.899395 572.834867 
L 747.635871 576.694661 
L 736.828434 584.414272 
L 727.56491 590.589947 
L 719.8453 598.309558 
L 715.985506 606.801114 
L 711.353744 612.976789 
L 699.774339 619.152464 
L 698.230426 610.660908 
L 698.230426 606.029146 
L 719.8453 592.13386 
L 732.968618 582.870359 
L 743.004109 575.922716 
L 752.267633 570.518986 
L 749.951752 565.115256 
L 738.372347 565.115256 
L 726.792943 564.343311 
L 714.441592 565.887224 
L 705.950014 567.431137 
L 695.142577 572.062899 
L 686.651021 575.150748 
L 670.439854 573.606835 
L 656.54459 575.150748 
L 628.754019 579.010542 
L 616.402669 581.326423 
L 608.56009 584.681179 
L 597.752653 590.084909 
L 581.541487 598.576465 
L 569.190136 607.068021 
L 556.838764 614.787631 
L 544.487413 620.963307 
L 535.995835 626.367036 
L 526.134635 626.856966 
L 534.626191 620.681291 
L 550.837358 611.417767 
L 567.82047 602.154243 
L 600.242804 585.171131 
L 580.943788 585.943099 
L 566.276557 588.25898 
L 549.293445 590.574838 
L 540.029921 595.978568 
L 530.766397 595.978568 
L 514.55523 600.61033 
L 499.116031 606.786005 
L 485.992713 614.505616 
L 471.325459 626.856966 
L 460.518022 638.436371 
L 452.026466 656.963419 
L 446.622759 673.174586 
L 445.850791 687.841817 
L 449.710585 705.596897 
L 455.88626 721.808064 
L 463.605871 736.475295 
L 472.869395 742.65097 
L 481.360951 748.0547 
L 486.764681 765.037812 
L 492.940356 782.792915 
L 500.659944 796.688178 
L 512.239349 822.934837 
L 527.678548 844.549711 
L 543.889715 858.444997 
L 559.328914 870.024401 
L 562.416763 881.603784 
L 563.188708 893.183189 
L 557.013033 896.271038 
L 547.749509 898.586919 
L 541.573834 903.21868 
L 537.71404 912.482204 
L 540.801866 924.061587 
L 548.521477 931.781198 
L 543.117747 940.272754 
L 534.198162 940.90987 
L 529.331605 928.395864 
L 525.318017 909.366709 
L 520.414388 896.757382 
L 514.109702 875.74183 
L 509.9066 859.629907 
L 501.500375 844.918996 
L 493.09415 832.309669 
L 465.073406 796.583228 
L 452.464079 788.177003 
L 441.956292 785.374913 
L 426.544875 788.877509 
L 408.331391 798.684768 
L 395.021558 807.791521 
L 381.011175 817.598781 
L 367.70132 828.106568 
L 376.107545 838.614333 
L 384.513771 847.721086 
L 394.32103 843.517962 
L 404.128289 837.913827 
L 418.839178 832.309669 
L 408.331391 837.913827 
L 395.021558 847.721086 
L 382.412209 857.528345 
L 378.209107 865.234043 
L 371.203916 878.543898 
L 366.300286 888.351157 
L 378.209107 893.254786 
L 392.219468 896.757382 
L 405.529323 896.757382 
L 425.143841 888.351157 
L 440.555258 878.543898 
L 452.464079 868.736638 
L 460.870305 859.629907 
L 469.27653 848.421592 
L 474.18016 843.517962 
L 468.576002 854.726255 
L 460.169777 867.335605 
L 468.576002 870.8382 
L 474.18016 879.944931 
L 463.672372 875.74183 
L 455.266147 874.340796 
L 432.149033 886.950123 
L 416.03711 898.158416 
L 404.828817 909.366709 
L 398.524131 926.879688 
L 401.326222 940.189543 
L 406.930357 953.499398 
L 418.138672 951.397836 
L 432.849561 944.392644 
L 448.961484 935.986419 
L 460.870305 927.580193 
L 443.357326 942.291082 
L 411.133481 958.403027 
L 396.422592 965.408196 
L 380.310647 973.814422 
L 360.696129 981.520141 
L 342.482644 985.723243 
L 323.568654 988.52531 
L 331.274351 984.322209 
L 348.086802 980.819613 
L 362.797691 977.317017 
L 379.610141 970.311848 
L 390.117929 964.007162 
L 393.620502 957.001993 
L 390.818434 949.296274 
L 388.716872 941.590576 
L 390.117929 932.483823 
L 388.716872 921.976058 
L 383.112737 921.27553 
L 364.198724 930.382283 
L 392.919996 911.468271 
L 374.706512 900.960506 
L 360.696129 897.45791 
L 346.685768 898.158416 
L 331.274351 903.762574 
L 310.258799 913.569833 
L 290.644281 923.377092 
L 279.435988 931.082789 
L 274.532336 941.590576 
L 274.532336 953.499398 
L 271.029762 956.301465 
L 266.126133 952.798869 
L 264.024571 942.99161 
L 257.019379 941.590576 
L 254.917817 951.397836 
L 261.222503 962.606129 
L 271.029762 973.814422 
L 285.040123 983.168282 
L 299.050506 991.574485 
L 311.659833 994.376575 
L 322.868126 999.280205 
L 336.878509 1007.68643 
L 349.487836 1016.092656 
L 360.696129 1025.899915 
L 367.000814 1039.20977 
L 369.802882 1045.514433 
L 371.203916 1051.118568 
L 377.508579 1050.418063 
L 372.60495 1056.722726 
L 369.802882 1067.230513 
L 367.70132 1077.037773 
L 365.599758 1091.048133 
L 362.097162 1098.753853 
L 362.097162 1098.753853 
" style="fill:none;stroke:#000000;stroke-linecap:square;stroke-width:1.5;"/>
   </g>
   <g id="line2d_2">
    <path clip-path="url(#p31d4ff32c1)" d="M 957.165709 896.818426 
L 947.492422 892.78788 
L 962.002342 894.400099 
L 985.379439 900.848949 
L 1005.532123 909.716127 
L 1025.684784 917.777196 
L 1047.449663 922.613829 
L 1070.826761 925.838265 
L 1086.14279 926.644374 
L 1103.877146 930.674897 
L 1122.417611 926.644374 
L 1148.213014 922.613829 
L 1169.977916 919.389414 
L 1195.773318 912.134455 
L 1189.324468 919.389414 
L 1193.355013 931.481007 
L 1184.487835 927.450483 
L 1174.008439 924.226047 
L 1157.080192 926.644374 
L 1132.090876 930.674897 
L 1122.417611 933.899334 
L 1102.264928 934.705443 
L 1084.530571 933.899334 
L 1067.602347 931.481007 
L 1051.480209 928.25657 
L 1032.939744 924.226047 
L 1014.399278 916.971087 
L 996.664945 908.910018 
L 975.706152 901.655058 
L 957.165709 896.818426 
" style="fill:none;stroke:#000000;stroke-linecap:square;stroke-width:1.5;"/>
   </g>
   <g id="line2d_3">
    <path clip-path="url(#p31d4ff32c1)" d="M 1008.756537 867.798564 
L 998.277163 865.380259 
L 1016.817606 863.768041 
L 1036.16418 862.961932 
L 1058.735169 863.768041 
L 1078.88783 866.186346 
L 1101.458818 868.604673 
L 1120.805393 874.247415 
L 1140.151945 881.502375 
L 1125.642025 881.502375 
L 1096.622186 874.247415 
L 1073.245088 870.216892 
L 1050.6741 869.410783 
L 1025.684784 868.604673 
L 1008.756537 867.798564 
" style="fill:none;stroke:#000000;stroke-linecap:square;stroke-width:1.5;"/>
   </g>
   <g id="line2d_4">
    <path clip-path="url(#p31d4ff32c1)" d="M 1070.020652 1014.510001 
L 1060.347387 1006.448932 
L 1043.41914 995.969558 
L 1021.654261 982.265748 
L 999.889359 966.949719 
L 970.86952 944.378708 
L 999.889359 960.500846 
L 1015.205388 970.174133 
L 1026.490893 978.235202 
L 1039.388594 987.908489 
L 1053.092427 994.35734 
L 1068.408456 999.193972 
L 1080.500048 1002.418409 
L 1090.979445 1000.80619 
L 1101.458818 996.775667 
L 1110.325997 992.745122 
L 1122.417611 987.10238 
L 1138.539749 982.265748 
L 1132.090876 986.296271 
L 1114.356542 994.35734 
L 1099.846623 1000.80619 
L 1082.918376 1006.448932 
L 1070.020652 1014.510001 
" style="fill:none;stroke:#000000;stroke-linecap:square;stroke-width:1.5;"/>
   </g>
   <g id="line2d_5">
    <path clip-path="url(#p31d4ff32c1)" d="M 405.646157 1091.244773 
L 407.063336 1099.747829 
L 405.646157 1111.557609 
L 405.173771 1121.477823 
L 408.008108 1133.759989 
L 408.480516 1147.93172 
L 409.897674 1157.379548 
L 407.063336 1155.017574 
L 400.922254 1140.845843 
L 399.032688 1126.201726 
L 398.560302 1113.919561 
L 401.394639 1101.164987 
L 405.646157 1091.244773 
L 405.646157 1091.244773 
" style="fill:none;stroke:#000000;stroke-linecap:square;stroke-width:1.5;"/>
   </g>
   <g id="line2d_6">
    <path clip-path="url(#p31d4ff32c1)" d="M 1714.6649 855.489248 
L 1723.532078 846.62207 
L 1730.787038 836.142696 
L 1733.205365 824.857191 
L 1725.950406 815.990012 
L 1712.246595 810.347271 
L 1698.542785 805.510639 
L 1687.257279 804.704529 
L 1678.390101 808.735053 
L 1673.553469 817.602231 
L 1668.716814 830.499955 
L 1676.777883 840.979328 
L 1688.063388 845.815983 
L 1699.348871 852.264834 
L 1714.6649 855.489248 
" style="fill:none;stroke:#000000;stroke-linecap:square;stroke-width:1.5;"/>
   </g>
   <g id="line2d_7">
    <path clip-path="url(#p31d4ff32c1)" d="M 1718.695446 805.510639 
L 1732.399256 810.347271 
L 1731.593147 799.867875 
L 1732.399256 788.582392 
L 1729.174842 779.715214 
L 1719.501555 778.909104 
L 1709.022159 781.327432 
L 1701.767199 786.164064 
L 1695.318348 788.582392 
L 1691.287802 796.643461 
L 1699.348871 802.286202 
L 1707.40994 803.89842 
L 1718.695446 805.510639 
" style="fill:none;stroke:#000000;stroke-linecap:square;stroke-width:1.5;"/>
   </g>
   <g id="line2d_8">
    <path clip-path="url(#p31d4ff32c1)" d="M 1225.667684 866.863106 
L 1237.03356 867.379736 
L 1253.049102 869.446254 
L 1263.898347 871.512773 
L 1274.747593 872.546032 
L 1286.113468 875.129203 
L 1301.095751 880.2955 
L 1315.561404 883.911907 
L 1325.37739 888.561597 
L 1334.160094 898.377561 
L 1347.075858 903.54388 
L 1359.991623 906.127028 
L 1371.357498 906.643658 
L 1381.173484 904.577139 
L 1384.273262 901.477361 
L 1374.973905 896.827672 
L 1371.357498 892.694634 
L 1363.091401 890.111486 
L 1357.408474 883.911907 
L 1354.308696 878.745611 
L 1354.308696 869.962884 
L 1355.858585 863.763328 
L 1348.625747 859.113638 
L 1341.392932 856.53049 
L 1335.709983 856.013861 
L 1332.610205 852.914083 
L 1326.410649 850.847564 
L 1319.694441 849.297675 
L 1310.395085 850.330934 
L 1302.12901 850.847564 
L 1292.313024 851.364194 
L 1283.530297 850.847564 
L 1274.747593 850.847564 
L 1264.414977 851.364194 
L 1254.082361 851.880823 
L 1247.366175 852.914083 
L 1238.583449 856.013861 
L 1230.833981 859.113638 
L 1225.151055 862.213439 
L 1225.667684 866.863106 
" style="fill:none;stroke:#000000;stroke-linecap:square;stroke-width:1.5;"/>
   </g>
   <g id="line2d_9">
    <path clip-path="url(#p31d4ff32c1)" d="M 1208.562169 639.017202 
L 1192.440031 635.792788 
L 1203.725536 632.568351 
L 1215.011042 634.986679 
L 1224.684307 639.823311 
L 1230.327071 639.823311 
L 1240.000335 648.690489 
L 1248.867513 658.363776 
L 1260.153019 663.200409 
L 1273.05072 668.037041 
L 1273.856829 662.3943 
L 1277.887353 652.721012 
L 1278.693462 664.812627 
L 1283.530117 676.09811 
L 1302.070559 684.965288 
L 1312.549956 685.771397 
L 1320.611025 673.679805 
L 1323.835461 660.782081 
L 1318.998806 653.527121 
L 1302.876669 640.62942 
L 1314.968283 647.078271 
L 1326.253766 651.108817 
L 1331.090421 640.62942 
L 1331.89653 623.701173 
L 1327.865984 605.160708 
L 1323.835461 592.263007 
L 1314.968283 585.008047 
L 1308.519433 582.589719 
L 1300.458364 585.814156 
L 1294.8156 596.293552 
L 1285.142335 608.385144 
L 1275.469048 613.221777 
L 1261.765237 613.221777 
L 1250.479732 611.609581 
L 1243.224772 605.966817 
L 1260.959128 608.385144 
L 1273.856829 605.966817 
L 1283.530117 597.905748 
L 1291.591186 588.232483 
L 1295.621709 578.559196 
L 1289.978967 566.467581 
L 1279.499571 555.988208 
L 1266.60187 546.31492 
L 1254.510255 540.672179 
L 1242.418663 534.223328 
L 1225.490416 528.580564 
L 1211.786605 522.937823 
L 1200.5011 517.295081 
L 1181.154548 512.458426 
L 1163.420192 508.427903 
L 1150.52249 501.172943 
L 1130.369807 493.917984 
L 1113.441582 488.275219 
L 1100.543858 481.02026 
L 1087.646157 478.601955 
L 1073.942347 479.408064 
L 1059.432405 485.050805 
L 1044.116376 489.887438 
L 1030.412566 496.336288 
L 1027.994238 506.815685 
L 1027.994238 515.682863 
L 1015.902646 528.580564 
L 998.974399 543.090484 
L 990.91333 543.896593 
L 979.627847 543.896593 
L 968.342341 547.12103 
L 961.893491 555.988208 
L 952.220204 565.661495 
L 942.546916 567.273691 
L 931.261433 572.110345 
L 924.006474 580.171414 
L 918.363732 587.426374 
L 919.169819 576.946978 
L 912.720968 571.304236 
L 903.047703 573.722564 
L 889.34387 580.171414 
L 877.252278 588.232483 
L 869.997318 596.293552 
L 864.354554 607.579035 
L 867.578991 618.058432 
L 870.803428 626.92561 
L 869.997318 636.598874 
L 865.966773 648.690489 
L 866.772882 661.58819 
L 874.833951 673.679805 
L 882.088911 666.424845 
L 890.14998 662.3943 
L 899.823267 658.363776 
L 907.078227 652.721012 
L 917.557623 650.302707 
L 929.649215 647.078271 
L 939.322502 640.62942 
L 948.99579 630.956133 
L 958.669054 626.119501 
L 972.372887 622.088955 
L 984.464479 621.282846 
L 978.821738 626.119501 
L 962.6996 629.343915 
L 951.414094 634.986679 
L 944.965244 641.435529 
L 939.322502 647.88438 
L 938.516393 658.363776 
L 937.710284 665.618736 
L 932.873652 655.13934 
L 924.812583 655.945449 
L 912.720968 659.169885 
L 911.10875 665.618736 
L 905.466008 661.58819 
L 894.180525 666.424845 
L 885.313347 671.261478 
L 878.058387 678.516437 
L 870.803428 688.189725 
L 868.3851 699.475208 
L 870.803428 710.760713 
L 874.833951 718.821782 
L 890.14998 722.046196 
L 903.047703 721.24011 
L 915.945405 723.658414 
L 903.047703 726.882851 
L 894.986634 726.076742 
L 872.415623 722.852305 
L 865.160664 726.076742 
L 864.354554 737.362247 
L 862.742359 752.678276 
L 869.191209 763.15765 
L 874.833951 767.994305 
L 892.568307 764.769868 
L 883.701129 769.606501 
L 872.415623 774.443156 
L 867.578991 781.698115 
L 866.772882 788.953075 
L 874.833951 801.044667 
L 882.89502 802.656886 
L 894.180525 797.014144 
L 904.659899 788.953075 
L 915.945405 776.055374 
L 928.843106 764.769868 
L 939.322502 755.90269 
L 952.220204 750.259949 
L 965.924014 738.974443 
L 982.046152 729.301178 
L 996.556094 719.627891 
L 1013.484318 712.372931 
L 1031.218675 707.536277 
L 1044.922485 704.311863 
L 1064.26906 705.117972 
L 1098.93164 706.730167 
L 1110.217146 700.281317 
L 1122.308738 696.250794 
L 1106.1866 707.536277 
L 1113.441582 710.760713 
L 1127.145393 715.597345 
L 1140.043094 718.821782 
L 1153.746904 721.24011 
L 1168.256847 729.301178 
L 1178.73622 735.750029 
L 1187.603399 740.586661 
L 1196.470577 742.19888 
L 1213.398824 749.45384 
L 1231.133157 762.351541 
L 1246.449186 771.218719 
L 1269.020197 780.085897 
L 1295.621709 792.177489 
L 1308.519433 793.789707 
L 1325.447657 776.86146 
L 1329.478203 767.188196 
L 1323.835461 755.096581 
L 1314.968283 748.64773 
L 1298.040036 742.19888 
L 1279.499571 735.750029 
L 1269.826284 734.137811 
L 1252.898059 722.046196 
L 1269.020197 728.495069 
L 1288.366749 734.94392 
L 1306.907214 743.004989 
L 1319.804916 745.423294 
L 1323.835461 736.556138 
L 1322.223243 722.852305 
L 1319.804916 713.179041 
L 1318.998806 703.505753 
L 1315.774392 694.638575 
L 1309.325519 688.995834 
L 1292.397295 682.546983 
L 1277.081266 674.485914 
L 1265.79576 669.649259 
L 1252.898059 663.200409 
L 1242.418663 655.945449 
L 1230.327071 647.88438 
L 1219.847674 643.853857 
L 1208.562169 639.017202 
L 1208.562169 639.017202 
" style="fill:none;stroke:#000000;stroke-linecap:square;stroke-width:1.5;"/>
   </g>
   <g id="line2d_10">
    <path clip-path="url(#p31d4ff32c1)" d="M 1030.371343 577.091887 
L 1043.846515 564.155737 
L 1050.314601 560.921694 
L 1060.55573 561.460694 
L 1071.335859 561.460694 
L 1079.420966 562.538715 
L 1094.51316 565.772736 
L 1109.605353 569.545801 
L 1119.30746 571.701822 
L 1131.70461 573.857844 
L 1140.86774 574.935865 
L 1149.491847 574.935865 
L 1160.810975 573.857844 
L 1171.052104 569.545801 
L 1178.05919 561.999693 
L 1182.371255 554.453608 
L 1179.676211 547.985522 
L 1174.825147 539.900414 
L 1154.342912 527.503264 
L 1177.52019 536.127371 
L 1190.995362 538.283392 
L 1200.158469 541.517436 
L 1220.101727 547.446522 
L 1204.470534 546.9075 
L 1195.307404 550.141543 
L 1187.222319 556.609629 
L 1180.215234 563.616715 
L 1179.137212 570.084801 
L 1187.222319 574.396843 
L 1198.541447 577.091887 
L 1206.087555 580.32593 
L 1179.676211 579.78693 
L 1163.506019 580.32593 
L 1146.257804 579.78693 
L 1105.293288 570.084801 
L 1086.428052 565.233736 
L 1067.562816 562.538715 
L 1054.087644 564.155737 
L 1042.229494 569.006779 
L 1030.371343 577.091887 
" style="fill:none;stroke:#000000;stroke-linecap:square;stroke-width:1.5;"/>
   </g>
   <g id="line2d_11">
    <path clip-path="url(#p31d4ff32c1)" d="M 997.362181 663.200409 
L 975.597301 679.322547 
L 990.107221 666.424845 
L 1004.61714 655.945449 
L 1020.739278 647.078271 
L 1037.667525 643.047748 
L 1052.177445 639.823311 
L 1066.687387 638.211093 
L 1082.003416 638.211093 
L 1102.156077 642.241638 
L 1128.757611 647.078271 
L 1145.685836 647.88438 
L 1157.77745 655.13934 
L 1171.481261 663.200409 
L 1182.766766 672.067587 
L 1162.614083 663.200409 
L 1144.879749 656.751558 
L 1123.920956 649.496598 
L 1106.992709 647.078271 
L 1065.075169 645.466053 
L 1044.116376 646.272162 
L 1026.382042 649.496598 
L 1013.484318 655.945449 
L 997.362181 663.200409 
L 997.362181 663.200409 
" style="fill:none;stroke:#000000;stroke-linecap:square;stroke-width:1.5;"/>
   </g>
   <g id="line2d_12">
    <path clip-path="url(#p31d4ff32c1)" d="M 237.677698 894.549427 
L 248.885991 886.84373 
L 257.992745 879.13801 
L 266.39897 873.533875 
L 278.307791 867.229212 
L 293.01868 858.122458 
L 308.430074 849.716233 
L 327.344087 839.208468 
L 339.953414 834.304838 
L 355.364831 825.198085 
L 368.674686 817.492388 
L 383.385574 807.685129 
L 391.7918 798.578375 
L 398.796991 788.07061 
L 400.898531 780.364891 
L 399.497497 774.760755 
L 388.989732 779.664385 
L 374.278843 787.370082 
L 360.26846 793.674745 
L 349.060167 797.877869 
L 337.851874 802.781499 
L 321.739929 809.086162 
L 342.054976 797.177341 
L 360.26846 787.370082 
L 374.979349 781.065419 
L 388.989732 772.659193 
L 401.599059 764.953496 
L 409.304756 754.445709 
L 410.005284 744.63845 
L 407.203217 736.232224 
L 399.497497 732.029123 
L 391.091271 730.628067 
L 374.979349 736.232224 
L 359.567932 741.836382 
L 339.252908 751.643641 
L 323.841491 760.049867 
L 309.831131 767.055036 
L 296.521276 777.562823 
L 281.810387 788.771116 
L 262.896374 802.080971 
L 251.688081 813.289264 
L 240.479788 825.898613 
L 227.870439 841.310007 
L 217.362674 856.020896 
L 213.15955 870.731808 
L 217.362674 883.341134 
L 223.667338 893.148393 
L 230.672507 898.052023 
L 237.677698 894.549427 
" style="fill:none;stroke:#000000;stroke-linecap:square;stroke-width:1.5;"/>
   </g>
   <g id="line2d_13">
    <path clip-path="url(#p31d4ff32c1)" d="M 326.528416 755.335751 
L 339.838271 746.929525 
L 348.244497 740.624862 
L 352.447598 735.020704 
L 362.955385 732.919165 
L 374.163678 730.817603 
L 386.773005 723.812411 
L 393.077691 714.70568 
L 395.879759 704.898421 
L 390.976129 694.390634 
L 387.473533 685.984408 
L 386.0725 680.380251 
L 377.666274 672.674553 
L 365.757453 669.872486 
L 355.249666 671.974025 
L 340.538777 679.679745 
L 330.031012 685.984408 
L 315.320123 695.791667 
L 295.705605 706.99996 
L 283.796784 715.406186 
L 271.887963 723.111905 
L 264.882771 730.817603 
L 248.770849 741.325367 
L 234.05996 752.533683 
L 223.552173 760.23938 
L 213.744914 768.645606 
L 200.435059 774.950269 
L 189.226766 781.254932 
L 183.622608 786.85909 
L 182.922102 801.569979 
L 185.72417 818.38243 
L 189.226766 827.48916 
L 197.632991 834.494352 
L 206.739722 837.29642 
L 212.34388 831.692284 
L 222.151139 819.783463 
L 232.658926 811.377238 
L 245.268253 803.671541 
L 260.67967 797.366877 
L 275.390559 789.661158 
L 288.700414 781.95546 
L 304.812336 769.346134 
L 316.721157 760.939908 
L 326.528416 755.335751 
" style="fill:none;stroke:#000000;stroke-linecap:square;stroke-width:1.5;"/>
   </g>
   <g id="line2d_14">
    <path clip-path="url(#p31d4ff32c1)" d="M 258.124687 933.193101 
L 270.033508 929.690505 
L 286.845959 921.984808 
L 306.460477 912.878077 
L 326.775524 903.771323 
L 344.989008 894.664592 
L 358.999369 882.755771 
L 366.705066 871.547478 
L 372.309224 861.039691 
L 373.009752 849.13087 
L 369.507156 839.32361 
L 360.400403 837.222048 
L 350.593143 839.32361 
L 340.785884 845.628274 
L 326.074996 851.932937 
L 313.465669 858.237623 
L 300.856319 865.94332 
L 286.845959 874.349546 
L 275.637666 881.354737 
L 265.129879 887.659401 
L 256.023125 891.161996 
L 249.017956 893.263536 
L 240.611731 897.46666 
L 235.007573 904.471851 
L 234.307067 916.38065 
L 238.510169 928.989999 
L 246.916394 935.995191 
L 258.124687 933.193101 
" style="fill:none;stroke:#000000;stroke-linecap:square;stroke-width:1.5;"/>
   </g>
   <g id="line2d_15">
    <path clip-path="url(#p31d4ff32c1)" d="M 169.612247 777.752337 
L 179.419506 779.153393 
L 193.429867 771.447673 
L 207.44025 759.538852 
L 225.653735 748.330559 
L 239.664095 737.822794 
L 253.674478 728.015535 
L 266.984333 720.309815 
L 280.994694 709.802051 
L 296.406111 700.695297 
L 313.91909 692.9896 
L 332.132552 681.781307 
L 344.741901 674.776115 
L 352.447598 667.070396 
L 356.650722 659.364698 
L 356.650722 651.659001 
L 349.645531 642.552248 
L 337.736709 632.044483 
L 326.528416 621.536696 
L 317.421663 616.633066 
L 304.111808 611.028908 
L 287.999885 606.825807 
L 273.288997 603.323211 
L 257.87758 599.12011 
L 247.369815 597.719053 
L 231.958398 598.419581 
L 215.846475 601.922177 
L 201.836092 605.424773 
L 187.825732 611.729436 
L 173.114843 620.135662 
L 157.703426 631.343955 
L 145.094099 642.552248 
L 135.28684 654.461069 
L 131.083716 665.669362 
L 125.479581 677.578183 
L 124.078525 690.18751 
L 126.880615 706.299455 
L 131.784244 720.309815 
L 138.789436 731.518108 
L 145.094099 742.726424 
L 150.698235 755.335751 
L 159.804988 770.747167 
L 169.612247 777.752337 
" style="fill:none;stroke:#000000;stroke-linecap:square;stroke-width:1.5;"/>
   </g>
   <g id="line2d_16">
    <path clip-path="url(#p31d4ff32c1)" d="M 175.216382 697.192701 
L 167.510685 702.796859 
L 187.125204 683.182341 
L 199.734553 676.177149 
L 215.145947 668.471452 
L 229.15633 662.867294 
L 244.567747 657.963665 
L 262.080704 654.461069 
L 275.390559 652.359507 
L 287.29938 652.359507 
L 269.786401 655.161597 
L 255.77604 657.963665 
L 238.263061 662.867294 
L 222.851667 667.770924 
L 210.242318 674.075587 
L 198.333497 681.781307 
L 186.424698 688.786476 
L 175.216382 697.192701 
" style="fill:none;stroke:#000000;stroke-linecap:square;stroke-width:1.5;"/>
   </g>
  </g>
 </g>
 <defs>
  <clipPath id="p31d4ff32c1">
   <rect height="1762.56" width="2255.04" x="0" y="0"/>
  </clipPath>
 </defs>
</svg>
