<?xml version="1.0" encoding="utf-8" standalone="no"?>
<!DOCTYPE svg PUBLIC "-//W3C//DTD SVG 1.1//EN"
  "http://www.w3.org/Graphics/SVG/1.1/DTD/svg11.dtd">
<!-- Created with matplotlib (https://matplotlib.org/) -->
<svg height="503.28pt" version="1.1" viewBox="0 0 570.24 503.28" width="570.24pt" xmlns="http://www.w3.org/2000/svg" xmlns:xlink="http://www.w3.org/1999/xlink">
 <defs>
  <style type="text/css">
*{stroke-linecap:butt;stroke-linejoin:round;}
  </style>
 </defs>
 <g id="figure_1">
  <g><image xlink:href="../../img/cb/mandrill_cell.json.cb-50%25.png" width="570.24px" height="503.28px"/></g>

  <g id="patch_1">
   <path d="M 0 503.28 
L 570.24 503.28 
L 570.24 0 
L 0 0 
z
" style="fill:none;"/>
  </g>
  <g id="axes_1">
   <g id="line2d_1">
    <path clip-path="url(#p9ea820bc01)" d="M 173.535078 351.801111 
L 172.80411 351.476234 
L 166.631478 350.988919 
L 163.707601 351.313796 
L 161.595911 351.801106 
L 160.621286 350.664047 
L 159.809099 349.039667 
L 158.347157 347.740164 
L 156.560344 346.765539 
L 155.260841 346.278229 
L 153.31159 346.603106 
L 152.499403 347.252854 
L 151.849654 348.389919 
L 152.012093 350.82648 
L 152.499403 351.801106 
L 151.1999 350.664047 
L 151.037467 349.202106 
L 150.71259 347.740164 
L 149.900403 346.927977 
L 147.951152 346.11579 
L 146.164333 345.62848 
L 144.702397 345.62848 
L 143.402895 346.440667 
L 141.77852 348.22748 
L 142.428269 347.090416 
L 144.215082 344.491416 
L 144.052649 342.379726 
L 143.124828 341.431947 
L 141.744106 340.457321 
L 140.36339 339.807573 
L 138.495358 339.482696 
L 137.195855 339.645134 
L 135.409042 340.700979 
L 136.221229 339.401476 
L 136.870978 337.939535 
L 136.870978 336.071503 
L 136.221229 334.853219 
L 134.190759 334.365909 
L 130.942004 334.609567 
L 127.043502 335.502974 
L 124.200844 336.721257 
L 122.901341 337.695883 
L 122.251592 338.670508 
L 122.170373 340.376102 
L 122.414031 342.244134 
L 123.144999 343.868508 
L 124.363282 344.924353 
L 127.855689 345.655327 
L 130.779566 346.792391 
L 132.485165 347.198482 
L 134.109539 348.822862 
L 131.42932 348.416765 
L 130.535914 347.92945 
L 127.855689 347.036043 
L 126.312534 346.954824 
L 125.013031 346.548733 
L 123.713528 346.467514 
L 123.875967 345.574108 
L 123.55109 344.761921 
L 122.49525 343.381198 
L 121.845496 341.838038 
L 121.114528 340.700979 
L 120.058683 339.970006 
L 118.515522 339.645134 
L 117.216025 339.970006 
L 116.2414 340.376102 
L 114.292148 342.406573 
L 113.317523 343.706076 
L 112.01802 346.305075 
L 111.611923 347.685798 
L 111.530704 349.228953 
L 112.748988 350.284798 
L 114.210929 350.528455 
L 114.941897 351.5843 
L 112.42411 351.503081 
L 111.287052 351.746739 
L 110.21313 352.253032 
L 109.236332 353.553795 
L 108.830241 356.152801 
L 108.667803 358.914239 
L 108.992674 361.350807 
L 109.47999 363.624929 
L 110.373396 366.223935 
L 111.429241 368.173186 
L 113.134835 369.472689 
L 114.596776 370.041219 
L 115.652621 368.173186 
L 117.114557 363.868587 
L 117.276995 361.675678 
L 118.982595 361.107149 
L 120.363311 360.376181 
L 121.013065 359.645207 
L 121.175498 358.589362 
L 121.094279 356.152801 
L 121.744033 358.34571 
L 122.718659 359.320336 
L 124.911568 359.401555 
L 126.454723 358.995459 
L 127.348129 358.508149 
L 128.810071 358.34571 
L 130.272007 358.426929 
L 133.11467 359.563988 
L 134.739044 359.645207 
L 136.20098 359.482774 
L 136.931954 357.452304 
L 136.931954 358.670582 
L 137.662921 359.320336 
L 143.429456 359.645207 
L 145.784804 360.132523 
L 146.686559 360.538614 
L 148.485273 360.94471 
L 150.272085 361.188368 
L 151.815246 360.94471 
L 154.739123 360.782272 
L 151.571588 361.675678 
L 150.190866 362.325432 
L 149.784775 363.624929 
L 149.541118 365.249309 
L 149.21624 363.868587 
L 148.891363 363.381277 
L 147.266989 363.462497 
L 146.129925 363.300058 
L 144.749208 362.406652 
L 141.013138 361.269587 
L 139.226326 361.350807 
L 138.008042 361.756897 
L 137.033416 362.812742 
L 137.114636 364.355903 
L 138.2517 366.954903 
L 140.038513 370.203657 
L 141.662893 371.99047 
L 140.444609 371.015844 
L 139.388764 370.609754 
L 138.495358 370.934625 
L 137.926823 371.99047 
L 137.926823 372.640224 
L 137.114636 371.746812 
L 137.033416 370.528534 
L 137.195855 368.010748 
L 137.114636 366.142716 
L 136.464887 364.274684 
L 135.165384 363.0564 
L 133.54101 362.081774 
L 131.754192 361.269587 
L 129.723721 361.025929 
L 128.099347 361.432026 
L 126.799844 362.162994 
L 125.987657 363.218839 
L 125.743999 364.680774 
L 126.312534 366.386374 
L 127.449598 368.822935 
L 128.505443 370.609754 
L 127.530817 369.635122 
L 126.637405 368.091967 
L 125.825218 366.305154 
L 125.09425 363.624929 
L 124.525721 362.325432 
L 123.55109 361.838117 
L 122.170373 361.919336 
L 120.545993 362.650304 
L 119.084057 363.787368 
L 118.190651 365.005652 
L 116.64749 367.848309 
L 116.2414 371.097064 
L 117.540897 372.965096 
L 119.327715 373.858502 
L 121.195747 375.076786 
L 123.06378 376.619946 
L 124.688154 376.944818 
L 126.393753 377.107256 
L 127.69325 377.757005 
L 128.261785 378.406759 
L 127.043502 377.838224 
L 125.58156 377.432133 
L 124.688154 377.513353 
L 124.282063 378.163101 
L 124.363282 379.218946 
L 121.683057 376.782379 
L 120.38356 375.807753 
L 119.327715 375.564101 
L 118.190651 375.726534 
L 117.459683 376.538727 
L 117.297245 378.32554 
L 117.946993 380.762101 
L 119.002838 383.279888 
L 121.276967 386.203765 
L 124.363282 388.477893 
L 129.025165 391.100974 
L 132.271992 392.173231 
L 135.195869 392.985418 
L 138.363404 392.904199 
L 139.744126 391.848359 
L 139.662907 389.980322 
L 139.825346 388.193509 
L 139.662907 386.650354 
L 139.987779 382.914284 
L 140.718752 381.452348 
L 141.774597 381.371129 
L 141.612158 384.538664 
L 141.937036 389.330573 
L 141.693378 393.229076 
L 142.830442 395.665643 
L 145.6731 397.533675 
L 151.520854 399.889023 
L 154.688389 400.295114 
L 157.043737 400.213894 
L 159.723956 399.970236 
L 161.916865 399.970236 
L 162.73906 399.026101 
L 163.063932 397.56416 
L 162.332964 396.102224 
L 162.008087 394.640283 
L 162.008087 393.259561 
L 160.871028 392.284935 
L 157.622274 391.147871 
L 160.62737 391.716406 
L 162.170525 392.122502 
L 163.470028 390.822999 
L 164.525873 389.1174 
L 164.444654 387.330587 
L 163.632466 385.462555 
L 162.73906 382.782336 
L 160.140054 382.37624 
L 157.784712 381.726491 
L 154.129862 380.020892 
L 152.26183 377.58433 
L 156.241552 380.426988 
L 158.353242 381.645272 
L 160.464932 382.132582 
L 162.820279 382.37624 
L 163.957344 381.564053 
L 164.363434 380.18333 
L 164.282215 378.640175 
L 163.794905 376.690924 
L 162.901499 374.822892 
L 160.952242 372.792421 
L 160.952242 371.086822 
L 161.683215 369.624886 
L 162.495402 368.406603 
L 164.038557 367.1071 
L 162.73906 368.893913 
L 161.845654 370.355854 
L 161.358338 371.411699 
L 161.683215 372.629983 
L 162.332964 373.848266 
L 163.551247 375.228983 
L 164.444654 376.772143 
L 165.662937 377.66555 
L 167.368531 377.58433 
L 171.348253 376.04117 
L 172.891413 374.660453 
L 174.434568 372.954854 
L 175.490413 371.492918 
L 175.571633 369.787325 
L 175.246756 368.081726 
L 174.434568 366.538571 
L 173.378723 365.157849 
L 172.728975 364.5081 
L 171.267033 364.183223 
L 172.404098 364.020784 
L 173.216285 363.777132 
L 173.541162 362.964939 
L 173.622381 364.264442 
L 173.866039 365.401506 
L 174.678226 366.376132 
L 175.734071 368.000506 
L 177.033574 368.487822 
L 178.657948 368.162945 
L 180.688419 367.431977 
L 183.2062 366.376132 
L 185.155457 365.076629 
L 185.378632 364.254434 
L 186.434477 364.416873 
L 187.571541 364.416873 
L 188.708605 363.523467 
L 189.520792 361.574215 
L 189.277134 363.604686 
L 188.383728 364.660531 
L 187.084225 365.22906 
L 185.947161 365.310279 
L 184.891316 366.122467 
L 182.617193 367.421969 
L 181.31769 367.990504 
L 180.018187 368.234157 
L 178.799904 368.721472 
L 177.987717 369.371221 
L 177.17553 370.345846 
L 176.606995 371.482911 
L 176.363342 372.701194 
L 176.536017 374.142653 
L 177.34821 375.929465 
L 178.647707 377.472626 
L 179.37868 378.772123 
L 177.997958 377.716278 
L 176.536017 375.767027 
L 175.64261 374.061433 
L 174.911643 374.38631 
L 171.906546 376.416781 
L 168.739011 377.553845 
L 167.033418 378.366033 
L 165.652696 379.259439 
L 164.759289 380.72138 
L 163.703444 383.239161 
L 164.515631 385.91938 
L 165.409038 387.54376 
L 166.302444 388.437167 
L 168.008043 389.574231 
L 170.038514 389.980322 
L 171.744108 390.467637 
L 171.825327 391.036167 
L 170.769482 390.792514 
L 167.520728 389.736669 
L 166.383663 389.168135 
L 165.409038 389.086915 
L 164.67807 390.061541 
L 163.297348 392.822985 
L 162.972476 394.609798 
L 163.297348 395.909301 
L 164.271974 398.183424 
L 165.896353 399.07683 
L 168.089263 399.482926 
L 169.957295 399.07683 
L 171.987766 398.345862 
L 173.449701 396.559049 
L 174.749204 394.772237 
L 176.211145 393.066637 
L 176.942113 391.848359 
L 178.079178 389.411792 
L 179.459894 388.599605 
L 181.409145 388.518386 
L 183.845712 387.706199 
L 184.982777 386.487915 
L 186.932028 384.619883 
L 191.642718 381.046252 
L 196.353414 375.360936 
L 196.190975 376.822872 
L 196.921943 377.147749 
L 199.277291 375.604594 
L 197.003162 377.553845 
L 196.353414 378.366033 
L 195.541226 379.990407 
L 195.297569 382.020877 
L 193.916847 382.102097 
L 192.536124 382.345755 
L 190.099563 383.564038 
L 188.31275 385.025974 
L 186.119841 386.569135 
L 185.226435 388.03107 
L 186.038622 389.005696 
L 188.231531 389.899102 
L 186.119841 390.386418 
L 183.114745 389.086915 
L 180.921835 389.330573 
L 178.972584 390.305199 
L 177.510643 392.25445 
L 173.287268 397.290017 
L 172.068985 398.995611 
L 171.825327 400.295114 
L 172.312637 402.163146 
L 174.099455 403.949964 
L 180.190868 405.574338 
L 182.789867 405.655558 
L 184.739119 405.168242 
L 185.713745 403.949964 
L 185.307654 400.295114 
L 185.307654 398.751959 
L 186.119841 397.939766 
L 187.581777 397.290017 
L 188.31275 397.533675 
L 187.338125 398.264643 
L 186.607151 398.508301 
L 185.957402 399.482926 
L 185.876183 401.026081 
L 186.038622 403.381429 
L 186.607151 405.330681 
L 188.393969 406.792622 
L 190.749312 407.198713 
L 197.084381 408.985531 
L 200.820446 409.716499 
L 202.282387 409.391622 
L 201.876291 406.467745 
L 201.713852 404.193616 
L 201.226542 401.107301 
L 202.363606 398.508301 
L 202.444826 396.396611 
L 201.795071 394.691017 
L 200.658007 393.391514 
L 198.465104 392.904199 
L 195.460007 392.416889 
L 195.541226 391.848359 
L 196.921943 391.848359 
L 198.627536 392.498108 
L 200.901665 392.822985 
L 202.201168 391.76714 
L 205.731181 387.757173 
L 206.627479 386.213772 
L 206.789912 384.83305 
L 206.627479 382.80258 
L 205.246757 381.421863 
L 206.871131 381.990392 
L 208.333073 381.259425 
L 208.820383 380.20358 
L 208.982821 377.279703 
L 210.363543 376.792387 
L 211.663046 377.036045 
L 211.987918 378.09189 
L 211.825479 379.472612 
L 210.769634 380.20358 
L 209.632575 381.259425 
L 208.414292 382.152831 
L 208.170634 383.208676 
L 208.57673 386.294992 
L 207.926976 386.94474 
L 205.734067 388.812772 
L 204.597008 390.112275 
L 203.784816 391.574217 
L 203.135067 393.036152 
L 203.297506 394.822965 
L 204.028473 396.528564 
L 205.490415 396.853436 
L 207.845757 396.853436 
L 209.226479 397.015874 
L 206.95235 397.421971 
L 204.028473 397.50319 
L 203.297506 398.883906 
L 202.81019 400.751939 
L 202.728971 403.107286 
L 203.053848 405.625073 
L 203.216286 408.061634 
L 204.028473 409.604795 
L 206.54626 409.929666 
L 213.531078 411.635265 
L 216.861046 411.960137 
L 218.891517 411.797704 
L 218.647865 409.686014 
L 218.647865 407.168228 
L 218.322987 404.406789 
L 218.160549 401.401693 
L 218.322987 398.640254 
L 217.99811 393.198591 
L 218.07933 389.05643 
L 217.916891 387.594489 
L 218.404207 386.53865 
L 218.810297 388.975211 
L 219.216394 392.223965 
L 219.866142 394.985404 
L 220.515897 396.934655 
L 220.434677 398.315377 
L 221.896613 399.533661 
L 220.1098 399.61488 
L 219.703709 401.401693 
L 219.784929 403.188506 
L 219.62249 405.868725 
L 219.297613 407.899196 
L 219.378832 411.554046 
L 220.272239 412.853543 
L 222.22149 414.153046 
L 225.795122 415.208891 
L 228.231683 414.965233 
L 230.180934 414.396704 
L 231.236779 413.665736 
L 231.886534 412.853543 
L 231.561656 411.14795 
L 230.911908 409.848447 
L 230.505811 407.574324 
L 232.455063 412.285014 
L 233.104811 413.097201 
L 234.637731 413.422078 
L 236.668201 413.665736 
L 242.109865 412.609891 
L 244.302774 411.06673 
L 245.845929 409.767233 
L 247.470303 408.142853 
L 248.201277 407.168228 
L 248.58689 406.051413 
L 249.805174 405.807755 
L 250.454922 404.833129 
L 250.536142 403.371188 
L 245.663013 399.147814 
L 242.170601 398.741717 
L 240.708665 399.391466 
L 239.815253 400.284872 
L 238.434537 400.447311 
L 236.728937 400.447311 
L 235.104563 400.284872 
L 234.292376 399.797562 
L 233.561408 397.939766 
L 233.80506 396.96514 
L 234.536034 398.58952 
L 235.673098 399.889023 
L 237.947221 399.726584 
L 239.409162 399.401707 
L 241.114756 398.345862 
L 242.739136 398.020985 
L 244.769607 397.127579 
L 246.150323 395.828082 
L 247.124949 394.609798 
L 247.855917 393.472734 
L 250.454922 390.386418 
L 251.429548 388.762044 
L 252.485393 387.381322 
L 252.160516 385.91938 
L 251.591986 384.619883 
L 251.673206 382.995503 
L 250.536142 381.046252 
L 249.155419 379.584316 
L 248.180794 377.878717 
L 247.612264 376.010685 
L 247.612264 374.38631 
L 248.018355 370.406588 
L 248.262013 373.655343 
L 248.180794 374.95484 
L 248.262013 376.335562 
L 248.58689 377.391407 
L 249.236639 378.69091 
L 250.617361 380.152845 
L 251.673206 380.72138 
L 255.734147 378.122375 
L 257.358521 376.904091 
L 255.084393 379.015781 
L 251.835644 381.20869 
L 251.754425 382.426974 
L 252.322954 385.107193 
L 253.053922 386.650354 
L 253.866115 387.218883 
L 255.896586 387.54376 
L 257.683399 387.300102 
L 259.145334 386.487915 
L 260.858769 385.381336 
L 261.833394 383.269646 
L 261.589736 384.894026 
L 260.858769 386.193523 
L 259.965362 387.168149 
L 259.640485 388.142775 
L 258.747079 387.899122 
L 257.528795 388.305213 
L 257.041485 389.685935 
L 257.203924 391.310309 
L 256.960266 392.528593 
L 257.203924 393.665657 
L 258.909517 395.696128 
L 261.021207 397.970256 
L 263.295336 400.081946 
L 264.4324 400.406818 
L 268.574555 397.158069 
L 270.280154 395.371251 
L 271.823309 394.721502 
L 273.204031 393.990534 
L 274.584753 392.691032 
L 274.828405 390.498122 
L 274.828405 387.817903 
L 274.422315 382.782336 
L 273.204031 380.26455 
L 271.25478 377.58433 
L 269.874058 376.122389 
L 268.574555 374.985325 
L 264.026303 373.036073 
L 262.80802 372.386325 
L 261.752175 370.437073 
L 259.802924 368.416844 
L 262.158271 368.985374 
L 264.838491 370.203657 
L 267.356277 372.234128 
L 269.346021 374.122409 
L 271.701363 376.965067 
L 274.300369 381.26966 
L 276.005962 386.548885 
L 276.899369 387.68595 
L 276.087182 390.691046 
L 275.518652 392.315426 
L 277.224246 396.213929 
L 280.92199 399.878781 
L 283.52099 401.097065 
L 286.11999 402.64022 
L 289.206306 403.696065 
L 294.729188 404.508252 
L 297.246969 403.858503 
L 299.845975 403.371188 
L 303.18595 402.051441 
L 309.439801 399.046345 
L 311.876368 397.097094 
L 313.581961 395.066623 
L 314.394149 393.198591 
L 315.206336 391.736649 
L 315.693651 390.112275 
L 315.774871 388.325462 
L 315.368774 386.863521 
L 314.556587 385.157927 
L 314.150491 384.020863 
L 314.150491 382.31527 
L 313.988058 378.5792 
L 313.7444 377.198483 
L 314.008301 375.726534 
L 317.094617 371.097064 
L 317.419494 369.87878 
L 317.663146 368.416844 
L 318.718991 367.27978 
L 319.368746 365.736619 
L 319.287526 364.193464 
L 320.262152 363.381277 
L 322.779933 363.381277 
L 322.048965 365.086871 
L 322.373842 366.792464 
L 324.079435 368.335625 
L 326.109906 369.553909 
L 327.571848 370.772186 
L 329.43988 371.178283 
L 330.87133 373.198512 
L 333.713988 376.609705 
L 333.389117 378.477737 
L 333.06424 382.37624 
L 333.876427 384.812807 
L 334.851052 386.59962 
L 336.719084 387.574245 
L 334.932272 387.817903 
L 333.06424 387.493026 
L 331.114988 386.762058 
L 328.515983 386.680839 
L 325.186015 387.574245 
L 322.180918 388.792529 
L 319.825571 391.066657 
L 320.3941 392.85347 
L 323.805293 394.96516 
L 327.135266 396.751973 
L 329.896705 397.239283 
L 332.576924 396.670754 
L 334.932272 395.696128 
L 338.181026 393.990534 
L 340.536374 394.721502 
L 343.947561 394.96516 
L 346.871438 395.046379 
L 352.881631 394.152967 
L 351.663353 395.290032 
L 349.470444 395.858567 
L 344.272438 396.589534 
L 341.510999 396.345877 
L 339.155652 396.264657 
L 337.450058 396.427096 
L 336.394213 397.726599 
L 335.66324 398.376347 
L 336.069336 401.137791 
L 337.612491 403.493134 
L 339.967839 405.767262 
L 343.102722 407.541165 
L 345.612433 408.701147 
L 349.348498 409.350895 
L 352.191156 409.675773 
L 359.013535 408.37627 
L 358.03891 404.802644 
L 359.094755 406.18336 
L 360.231819 407.239205 
L 362.18107 407.076767 
L 364.536418 406.508238 
L 366.729327 405.614831 
L 367.622734 403.990451 
L 367.622734 402.0412 
L 367.216637 400.498045 
L 367.054199 398.873671 
L 367.785172 396.761981 
L 368.333224 393.046394 
L 368.170786 391.422014 
L 366.708844 385.08695 
L 366.790064 383.706228 
L 368.089566 384.599634 
L 369.876379 386.711324 
L 370.607347 387.848388 
L 370.120037 390.284955 
L 370.282476 392.965174 
L 369.713941 395.239303 
L 369.064192 397.350993 
L 368.414438 399.056587 
L 368.140295 400.427067 
L 368.221514 401.970222 
L 368.70883 403.919473 
L 370.251985 405.381415 
L 375.206333 404.731666 
L 378.130216 403.838254 
L 379.592151 403.757035 
L 381.86628 402.376319 
L 382.922125 400.751939 
L 383.734312 398.802687 
L 384.302841 396.528564 
L 384.546499 394.660527 
L 384.546499 392.792494 
L 383.734312 390.762024 
L 384.221628 389.706179 
L 385.033815 388.56912 
L 385.277473 387.269617 
L 384.546499 385.888895 
L 381.054093 383.777205 
L 379.023622 383.208676 
L 377.805338 381.665515 
L 376.830713 379.959922 
L 376.262178 378.09189 
L 375.449991 376.386296 
L 374.637803 375.330451 
L 376.343397 376.711168 
L 377.074371 378.49798 
L 381.297745 382.071612 
L 383.165783 381.909173 
L 384.38406 383.371115 
L 386.170879 385.076708 
L 387.632815 385.320366 
L 389.825724 385.239147 
L 388.851098 386.213772 
L 387.876472 386.701082 
L 386.983066 387.513275 
L 386.333312 388.406682 
L 385.927221 390.031056 
L 386.414531 391.817869 
L 385.683563 393.442249 
L 384.708938 397.50319 
L 384.140408 399.208784 
L 384.059189 401.158035 
L 386.170879 401.889003 
L 389.744505 402.132661 
L 392.181072 401.970222 
L 394.94251 401.645351 
L 397.785168 401.158035 
L 400.221735 400.183409 
L 401.927329 398.721468 
L 403.87658 395.635158 
L 404.282676 394.254436 
L 403.795361 392.061527 
L 402.089767 390.355933 
L 398.434922 388.325462 
L 398.434922 387.269617 
L 399.490762 386.782302 
L 400.546607 386.94474 
L 401.196361 388.081804 
L 401.76489 389.543746 
L 404.769986 392.223965 
L 406.069489 392.954933 
L 406.719238 391.005682 
L 407.612644 389.462527 
L 408.668489 388.163024 
L 409.480682 386.701082 
L 409.967992 384.995489 
L 409.237024 383.371115 
L 406.231928 381.421863 
L 403.145612 377.929451 
L 402.333425 378.335548 
L 402.170986 379.228954 
L 401.76489 378.01067 
L 400.871484 378.09189 
L 397.866387 381.259425 
L 399.571981 378.660419 
L 399.490762 377.696035 
L 398.841013 376.64019 
L 397.703949 375.584345 
L 396.160794 374.5285 
L 394.130323 373.553874 
L 392.424724 373.066564 
L 390.962788 372.904126 
L 389.338408 373.472655 
L 389.988162 372.498029 
L 389.419627 371.604623 
L 387.551595 370.142681 
L 385.683563 369.655371 
L 388.526221 369.899029 
L 391.612537 371.848281 
L 393.805446 372.985345 
L 395.673478 373.716313 
L 399.003452 376.15288 
L 399.978077 377.371158 
L 401.173711 377.696035 
L 402.635652 377.696035 
L 403.529059 377.371158 
L 403.610278 376.071661 
L 403.935149 378.020912 
L 404.503684 378.995538 
L 405.559529 380.132602 
L 407.021465 381.513318 
L 408.970716 382.650383 
L 411.082406 383.300131 
L 413.437754 382.812821 
L 415.305786 381.675757 
L 416.686508 380.295035 
L 417.661134 378.833099 
L 418.148444 377.614815 
L 418.148444 376.15288 
L 417.742353 374.690938 
L 415.630663 372.985345 
L 414.249941 372.985345 
L 412.869219 373.553874 
L 411.163626 375.015816 
L 413.437754 372.985345 
L 413.600193 372.173152 
L 412.950438 371.442184 
L 411.326064 369.81781 
L 411.082406 368.761965 
L 410.189 368.030997 
L 409.133155 368.599526 
L 407.346342 369.168056 
L 409.295594 367.70612 
L 410.107781 366.731494 
L 410.026561 365.513211 
L 409.458032 364.294927 
L 408.483406 361.695927 
L 409.376813 363.563959 
L 410.432658 364.538585 
L 411.488503 365.107114 
L 412.463128 365.025901 
L 414.980909 363.645179 
L 412.706786 365.756869 
L 411.244845 367.624901 
L 411.81338 368.843184 
L 412.950438 370.386339 
L 414.737257 372.091938 
L 416.361631 372.660468 
L 417.986006 372.904126 
L 419.529166 372.741687 
L 421.23476 371.117313 
L 421.803295 370.30512 
L 423.102792 369.330494 
L 424.321075 368.599526 
L 425.37692 368.355869 
L 423.752546 369.81781 
L 422.696701 370.386339 
L 420.178915 372.660468 
L 419.529166 373.797532 
L 419.529166 375.503126 
L 421.15354 376.802628 
L 421.965728 377.777254 
L 424.321075 378.508222 
L 425.945455 378.18335 
L 427.813487 378.75188 
L 429.112985 380.457473 
L 434.39221 384.843292 
L 436.341461 385.899137 
L 438.53437 386.467666 
L 442.879462 385.929622 
L 444.991152 385.117435 
L 447.021623 384.711338 
L 449.133313 383.49306 
L 450.676468 382.437215 
L 451.488655 381.218932 
L 451.407435 379.83821 
L 449.620623 378.051397 
L 448.158687 376.833113 
L 446.940403 375.61483 
L 445.316023 374.477766 
L 444.422617 373.421926 
L 443.204334 372.609733 
L 441.986056 371.391456 
L 440.361676 370.579263 
L 438.574863 369.929514 
L 439.630708 369.198546 
L 440.686553 368.630011 
L 445.153591 370.579263 
L 446.940403 370.741701 
L 451.082564 368.711231 
L 449.295746 370.660482 
L 448.564778 371.878766 
L 449.9455 374.152894 
L 452.5445 376.508236 
L 456.28057 377.807739 
L 459.042008 377.320429 
L 461.234917 375.696049 
L 465.397322 372.447295 
L 467.021696 370.579263 
L 468.321199 368.467573 
L 469.701921 365.706134 
L 470.676546 363.269573 
L 471.082637 360.995444 
L 471.082637 356.447187 
L 470.757766 355.066471 
L 470.108012 354.173065 
L 469.214605 354.010626 
L 468.321199 354.335497 
L 467.184134 355.228904 
L 466.453167 355.959877 
L 465.316102 357.503032 
L 463.610509 360.183257 
L 462.554664 361.482754 
L 461.823696 362.619819 
L 460.930284 363.269573 
L 460.361755 363.513225 
L 460.84907 361.97007 
L 463.041974 358.964974 
L 464.179038 357.74669 
L 466.290728 354.741594 
L 466.04707 353.442091 
L 464.910006 352.711123 
L 462.605398 350.173093 
L 461.549553 349.442125 
L 460.574927 349.360906 
L 459.762735 349.604564 
L 458.463237 349.766997 
L 455.133264 351.553815 
L 454.889606 352.69088 
L 455.052045 354.152815 
L 454.970825 355.452318 
L 454.727167 356.751815 
L 453.671323 359.107163 
L 453.021574 359.91935 
L 452.371825 360.081789 
L 453.671323 357.970099 
L 454.402296 355.695976 
L 454.645948 353.503067 
L 454.483515 351.310158 
L 453.91498 350.416751 
L 453.102793 349.929435 
L 451.965729 349.766997 
L 450.909884 349.848216 
L 449.6916 350.254313 
L 448.148445 350.98528 
L 447.011381 351.716248 
L 445.955536 352.60966 
L 444.249943 354.72135 
L 443.681408 355.77719 
L 443.275317 357.076692 
L 443.518969 358.294976 
L 443.600188 359.43204 
L 443.194098 360.244227 
L 442.300691 360.812757 
L 440.35144 361.624949 
L 441.732156 359.43204 
L 442.706782 356.914254 
L 442.95044 355.695976 
L 443.031659 354.558912 
L 442.219472 353.665505 
L 440.676311 353.17819 
L 439.620466 352.528441 
L 438.72706 352.366002 
L 437.346338 352.528441 
L 435.721964 353.17819 
L 434.990996 353.909157 
L 434.341241 354.72135 
L 434.01637 355.77719 
L 433.529054 356.345725 
L 430.930054 356.751815 
L 428.973498 356.08423 
L 426.290576 355.756946 
L 423.529132 354.944759 
L 422.229635 354.213791 
L 423.77279 353.645256 
L 425.640822 353.726475 
L 428.077389 353.970133 
L 430.189079 354.051353 
L 433.275394 353.807695 
L 434.574892 353.157946 
L 436.118052 352.18332 
L 437.498774 351.533566 
L 438.310962 350.721379 
L 439.854116 347.553844 
L 439.448026 350.477721 
L 440.503871 351.696005 
L 442.371903 352.426973 
L 444.077496 352.67063 
L 445.29578 352.426973 
L 446.351625 352.020882 
L 447.488689 351.208689 
L 448.869406 350.396502 
L 450.087689 349.340657 
L 450.656224 348.203593 
L 450.493786 346.41678 
L 450.575005 345.117283 
L 451.224753 347.553844 
L 452.036941 348.690908 
L 453.66132 348.853347 
L 455.041803 349.442125 
L 457.072274 349.198468 
L 461.133215 347.736526 
L 462.270279 346.112152 
L 462.757595 344.325339 
L 463.163686 342.051211 
L 463.001247 344.812649 
L 462.676376 346.518248 
L 462.757595 348.061403 
L 463.488563 349.848216 
L 464.869285 351.472596 
L 466.41244 352.772093 
L 467.874381 353.665505 
L 469.579975 353.421847 
L 471.366788 352.772093 
L 472.666291 351.391377 
L 473.640916 349.766997 
L 474.615542 347.492874 
L 475.021633 342.294868 
L 474.513013 340.937823 
L 473.864325 340.061466 
L 473.701886 338.924402 
L 473.133357 337.949776 
L 469.640945 335.269557 
L 468.179009 335.350776 
L 467.772913 334.45737 
L 466.392197 332.426899 
L 462.250036 329.421803 
L 460.300784 328.528391 
L 458.838843 328.284739 
L 457.701779 328.365958 
L 456.889592 329.178145 
L 456.564715 330.071552 
L 456.483495 333.888835 
L 456.158624 336.244183 
L 455.671308 336.975151 
L 454.128153 337.949776 
L 455.42765 336.406621 
L 455.833747 333.563958 
L 455.833747 331.858364 
L 455.996185 329.909113 
L 455.914966 328.203519 
L 455.346431 327.147675 
L 453.965715 326.173049 
L 450.473303 325.523295 
L 448.60527 325.442075 
L 446.168709 325.442075 
L 445.194078 326.904017 
L 444.869206 328.528391 
L 444.300671 329.665455 
L 444.138238 331.289835 
L 443.732142 332.751771 
L 443.732142 334.294932 
L 444.544329 335.269557 
L 445.843832 336.000525 
L 447.711864 337.462466 
L 446.00627 336.812712 
L 444.706768 336.081744 
L 443.407265 335.756867 
L 442.107768 335.919306 
L 439.589981 336.975151 
L 437.884388 337.218809 
L 435.204163 337.300028 
L 433.904666 337.868557 
L 432.767601 338.599525 
L 431.955414 339.330499 
L 431.062002 340.386344 
L 430.493473 340.711215 
L 429.681286 340.792434 
L 426.838628 341.685841 
L 418.635526 346.071659 
L 423.671093 342.904124 
L 429.19397 340.548782 
L 432.117847 338.680744 
L 432.199066 337.868557 
L 432.117847 336.893931 
L 430.249815 334.294932 
L 433.092473 337.05637 
L 434.635634 337.137589 
L 436.097569 336.812712 
L 438.209259 336.812712 
L 440.158511 336.325402 
L 442.676297 335.188338 
L 443.082393 334.45737 
L 443.163607 332.995429 
L 442.838736 332.020803 
L 442.188981 331.452274 
L 443.813361 329.990332 
L 444.625548 327.716204 
L 445.356516 326.335487 
L 445.681393 324.954765 
L 445.194078 323.736482 
L 443.244826 322.680637 
L 441.214356 322.274546 
L 434.716853 320.081637 
L 432.767601 320.000418 
L 431.549318 320.081637 
L 430.81835 320.650166 
L 431.224441 322.518198 
L 432.199066 325.279642 
L 433.41735 327.147675 
L 434.473195 328.284739 
L 433.41735 328.447172 
L 431.955414 328.528391 
L 431.792976 327.310113 
L 431.874195 325.929391 
L 431.549318 324.548669 
L 430.980789 322.924295 
L 430.737131 321.624792 
L 430.331034 320.244075 
L 429.19397 319.513102 
L 427.488377 319.18823 
L 424.239622 319.26945 
L 422.94012 319.919198 
L 422.209152 320.975043 
L 422.37159 321.949669 
L 423.752312 324.792327 
L 425.295467 327.228894 
L 425.376687 328.041081 
L 422.94012 323.817701 
L 421.803061 322.761856 
L 420.097462 322.355765 
L 418.716745 323.005514 
L 417.74212 323.817701 
L 416.686275 324.873546 
L 415.874082 325.848172 
L 415.305552 327.310113 
L 416.03652 329.584236 
L 417.254804 331.046177 
L 420.178681 332.995429 
L 421.721842 333.807616 
L 421.559403 334.619803 
L 420.990868 335.756867 
L 420.828435 335.025899 
L 420.34112 334.132493 
L 418.635526 332.508113 
L 417.579681 331.858364 
L 415.224333 329.340584 
L 414.483358 328.985222 
L 413.671171 329.391312 
L 412.777764 330.203505 
L 412.534106 331.096912 
L 412.290448 332.477628 
L 413.427513 338.325382 
L 412.940203 340.112201 
L 412.046796 341.330484 
L 410.828513 342.711201 
L 409.772668 343.198516 
L 407.904636 343.848265 
L 404.655881 345.147768 
L 403.031501 345.553858 
L 401.244689 345.878736 
L 399.620314 345.878736 
L 398.726908 345.39142 
L 399.620314 344.741671 
L 404.737101 342.873639 
L 406.280256 342.548762 
L 409.447791 341.330484 
L 410.828513 341.168046 
L 412.615326 338.975136 
L 411.965577 334.34566 
L 411.884358 332.640067 
L 411.478261 331.178131 
L 410.828513 330.609596 
L 409.122913 330.690815 
L 407.579759 331.096912 
L 405.143191 331.990318 
L 402.462972 330.934473 
L 400.838598 330.528377 
L 398.48325 330.609596 
L 396.777657 331.259344 
L 395.315715 332.233976 
L 394.341089 333.208602 
L 393.853779 335.482724 
L 394.341089 336.619789 
L 395.396934 337.350756 
L 396.127902 337.431976 
L 394.909619 338.000511 
L 393.366464 339.543666 
L 392.310619 340.355853 
L 391.579651 341.168046 
L 390.432579 343.117297 
L 390.27014 342.223891 
L 388.970643 341.655356 
L 381.092413 341.736575 
L 383.285322 341.330484 
L 386.940173 341.168046 
L 388.726985 341.249265 
L 390.026488 340.924388 
L 391.163547 340.112201 
L 393.275237 338.406601 
L 393.600114 337.350756 
L 393.600114 336.294911 
L 393.437675 334.508099 
L 392.625488 333.127382 
L 391.89452 332.152757 
L 389.945269 332.071537 
L 387.183825 332.152757 
L 384.016296 330.934473 
L 382.798012 330.609596 
L 381.498509 330.934473 
L 379.386819 333.452254 
L 378.249755 334.995414 
L 377.275129 336.051259 
L 376.462942 337.269543 
L 375.488316 336.944666 
L 374.757349 336.132479 
L 373.782723 334.832976 
L 369.640562 332.315189 
L 368.665937 331.015692 
L 370.615188 331.990318 
L 372.564439 333.289815 
L 373.620284 334.264441 
L 374.919787 334.914195 
L 375.731974 334.995414 
L 377.031471 334.34566 
L 379.792916 331.74666 
L 380.523883 330.853254 
L 380.848761 330.041067 
L 380.117787 329.310093 
L 376.544161 327.52328 
L 381.336071 328.579125 
L 382.229477 329.797409 
L 383.853857 330.528377 
L 387.996018 331.909099 
L 389.376734 331.990318 
L 391.001114 331.909099 
L 392.706708 332.152757 
L 394.168643 332.152757 
L 395.143275 331.421783 
L 396.1179 330.528377 
L 396.523991 329.63497 
L 396.280333 328.579125 
L 395.549365 327.360842 
L 394.249862 326.386216 
L 392.787927 325.736467 
L 390.919895 325.41159 
L 389.539173 325.330371 
L 388.970643 325.086719 
L 390.432579 324.761842 
L 393.194017 325.167932 
L 394.08743 325.736467 
L 396.930087 328.416687 
L 397.904713 329.716189 
L 398.960558 330.203505 
L 400.178842 330.203505 
L 403.914906 330.690815 
L 405.782938 330.772034 
L 411.224601 330.203505 
L 412.077281 329.827894 
L 412.564591 328.934487 
L 412.72703 328.041081 
L 412.483372 326.741578 
L 411.346308 325.523295 
L 409.884372 324.386236 
L 408.178779 323.330391 
L 406.229527 323.005514 
L 404.605147 322.924295 
L 403.061992 323.086733 
L 401.437612 322.843075 
L 400.300548 322.355765 
L 399.08227 322.030888 
L 401.112741 321.949669 
L 405.011244 322.193327 
L 406.798056 322.436979 
L 408.666089 323.086733 
L 411.427527 325.198423 
L 413.539217 327.066455 
L 414.432623 327.066455 
L 415.326036 326.335487 
L 415.894565 325.360862 
L 418.168693 323.167952 
L 420.442816 322.030888 
L 421.498661 322.030888 
L 423.28548 318.782134 
L 422.716945 317.56385 
L 421.011351 316.508005 
L 418.524055 315.756794 
L 417.468211 315.10704 
L 416.168708 314.538511 
L 413.650921 314.61973 
L 412.919953 315.10704 
L 411.782889 317.543607 
L 410.889483 318.193355 
L 410.320954 318.112136 
L 411.620451 316.487762 
L 412.026547 315.513136 
L 412.595076 314.700949 
L 412.107766 313.645104 
L 410.077296 312.589259 
L 402.28029 309.421724 
L 400.899568 309.096847 
L 399.518846 309.340505 
L 398.869097 310.071473 
L 398.706659 311.452195 
L 399.518846 313.401446 
L 400.899568 316.162885 
L 398.300568 315.594356 
L 395.620343 315.838008 
L 392.290375 317.543607 
L 391.478182 317.13751 
L 391.31575 316.325323 
L 391.640621 315.350698 
L 394.077188 315.10704 
L 395.864001 315.10704 
L 397.732033 314.700949 
L 398.869097 314.132414 
L 398.706659 313.076569 
L 398.381787 312.264382 
L 398.219349 311.289756 
L 398.463001 309.990253 
L 398.869097 309.096847 
L 397.325942 307.878564 
L 395.864001 306.903938 
L 394.077188 306.254189 
L 391.396963 304.792248 
L 390.463064 304.609566 
L 389.407219 304.528346 
L 387.701625 305.096881 
L 386.970658 306.315159 
L 387.133096 307.85832 
L 387.133096 308.995384 
L 386.158471 309.563914 
L 383.478246 309.320256 
L 382.50362 309.726352 
L 381.528994 310.619759 
L 380.635588 312.162919 
L 380.798026 313.624855 
L 381.528994 315.492887 
L 383.965561 317.929454 
L 384.290433 319.39139 
L 383.640684 320.284802 
L 382.259968 320.447235 
L 381.447775 319.959925 
L 381.610213 318.335551 
L 381.528994 317.117267 
L 380.798026 315.817764 
L 379.742181 315.168016 
L 378.28024 314.761919 
L 375.518801 315.330448 
L 373.975646 315.817764 
L 372.513705 316.711171 
L 371.782737 317.604577 
L 371.620299 318.497983 
L 373.244673 321.584299 
L 371.620299 321.584299 
L 369.102518 321.746738 
L 367.315699 322.152834 
L 363.660855 321.909176 
L 361.955261 321.50308 
L 361.143068 320.93455 
L 361.549165 319.635048 
L 362.280132 319.147738 
L 364.229384 319.716267 
L 365.285229 320.284802 
L 367.23448 320.366021 
L 368.940079 320.122363 
L 370.077144 319.39139 
L 371.214202 316.873609 
L 371.132989 315.817764 
L 370.645673 314.843138 
L 367.478138 314.437042 
L 366.74717 314.030951 
L 366.259854 313.299978 
L 368.290325 313.624855 
L 369.914705 314.274609 
L 372.513705 314.355823 
L 374.544176 314.761919 
L 376.493427 314.518261 
L 378.28024 314.030951 
L 379.336085 313.381197 
L 379.823401 312.406571 
L 380.310711 311.107074 
L 380.554368 310.051229 
L 380.310711 309.239042 
L 379.254866 308.670507 
L 377.955369 308.264411 
L 376.980743 307.046133 
L 378.361459 307.695881 
L 379.823401 308.751726 
L 381.204123 309.157823 
L 382.828497 308.914165 
L 384.371652 308.264411 
L 386.077251 306.477598 
L 387.133096 304.041036 
L 387.051877 303.310063 
L 385.671155 302.254218 
L 382.909716 300.629844 
L 381.610213 300.304967 
L 380.554368 300.304967 
L 379.254866 300.467405 
L 379.660962 299.492779 
L 379.660962 299.167902 
L 378.523898 298.355715 
L 376.655866 297.381089 
L 372.838582 295.756715 
L 371.45786 295.675496 
L 370.320796 297.056218 
L 369.183732 299.817657 
L 369.102518 301.117159 
L 369.34617 302.497876 
L 370.483234 303.63494 
L 371.539079 305.178101 
L 370.483234 305.340534 
L 369.021299 306.23394 
L 367.721796 306.721256 
L 366.097416 307.208571 
L 364.716699 307.371004 
L 364.229384 306.883694 
L 364.716699 305.909069 
L 365.853764 304.934443 
L 366.665951 303.878598 
L 366.909609 300.873502 
L 367.640577 299.330341 
L 369.914705 296.731341 
L 370.808112 295.2694 
L 370.635665 294.711112 
L 370.473227 293.574048 
L 369.09251 292.76186 
L 367.143259 291.787235 
L 363.894505 290.568951 
L 362.513783 290.325293 
L 361.864034 291.381138 
L 361.539157 292.518203 
L 361.295499 291.462358 
L 361.782815 290.65017 
L 361.864034 289.594325 
L 360.64575 288.53848 
L 357.072125 286.345571 
L 353.985809 285.046068 
L 353.254836 285.127288 
L 352.198991 286.832881 
L 351.7929 287.726293 
L 351.143151 289.513106 
L 350.980713 290.812603 
L 350.980713 292.518203 
L 351.630461 293.817705 
L 356.990905 297.391331 
L 359.102595 299.827898 
L 359.102595 301.046176 
L 356.341151 297.634989 
L 354.797996 296.579144 
L 353.336055 295.44208 
L 351.468023 294.386235 
L 350.249739 293.898919 
L 349.031461 294.305015 
L 348.219269 295.279641 
L 347.894397 296.660363 
L 348.219269 300.15277 
L 348.300488 303.157866 
L 348.787804 304.619807 
L 350.168526 306.081743 
L 351.711681 306.812717 
L 357.315777 307.706123 
L 358.61528 309.411716 
L 357.396996 308.924406 
L 354.635558 308.355872 
L 353.579713 308.680749 
L 353.011183 309.492936 
L 353.254836 310.792439 
L 353.336055 312.579251 
L 353.254836 313.878754 
L 352.848745 314.772161 
L 351.874119 315.421909 
L 350.574616 315.909225 
L 349.112681 315.990444 
L 351.711681 314.366064 
L 352.117777 312.660471 
L 352.117777 311.442187 
L 351.874119 308.274652 
L 351.386803 307.300027 
L 350.087306 306.40662 
L 349.193894 305.594433 
L 347.894397 304.782246 
L 345.863926 304.863465 
L 343.995894 305.188337 
L 342.127857 306.000524 
L 340.178605 307.462465 
L 339.853734 308.274652 
L 339.691295 309.574155 
L 341.559327 314.284845 
L 341.478108 315.015819 
L 339.853734 315.178251 
L 338.63545 314.934599 
L 339.366418 313.310219 
L 339.772514 312.091936 
L 339.610076 310.467561 
L 339.203979 307.624904 
L 338.716669 306.650278 
L 337.254728 306.325401 
L 334.899386 306.569059 
L 333.031348 307.381246 
L 331.163316 308.355872 
L 329.538942 309.330497 
L 328.056991 309.838056 
L 326.51383 310.244153 
L 323.671172 310.569024 
L 321.640701 310.406591 
L 318.148295 309.431966 
L 315.305637 308.863431 
L 307.508626 306.508083 
L 295.731898 303.665425 
L 288.74708 302.284709 
L 285.985641 302.041051 
L 282.41201 302.041051 
L 279.222509 302.396464 
L 269.792838 302.152755 
L 267.112619 302.233974 
L 264.026303 302.477632 
L 259.721704 302.640071 
L 255.335892 302.315194 
L 251.76226 301.909097 
L 248.675944 301.178129 
L 246.239383 299.553755 
L 245.183538 297.766937 
L 244.777442 296.223782 
L 243.965255 294.84306 
L 242.706478 294.386235 
L 241.244543 294.142577 
L 239.457724 294.386235 
L 237.670911 294.954764 
L 236.290189 295.848176 
L 235.153131 297.716208 
L 234.990692 299.58424 
L 234.990692 301.452272 
L 237.752131 306.650278 
L 238.807976 308.274652 
L 239.132853 309.574155 
L 240.097237 310.437076 
L 241.88405 311.411702 
L 244.401836 311.65536 
L 246.188649 311.492921 
L 248.381558 311.817793 
L 249.599842 312.305109 
L 252.036403 313.523392 
L 258.777564 315.635082 
L 260.483163 316.041173 
L 264.625323 316.041173 
L 267.386762 315.635082 
L 271.285265 315.959953 
L 273.884265 315.959953 
L 275.325552 315.766944 
L 278.818135 315.604591 
L 281.98567 315.604591 
L 285.802954 315.848249 
L 295.874088 316.010688 
L 299.935029 316.579217 
L 315.001004 319.442124 
L 318.899506 319.360905 
L 321.904603 319.117247 
L 325.721892 318.954814 
L 316.950255 320.33553 
L 315.488319 320.741627 
L 314.594913 321.878691 
L 313.701507 323.827943 
L 314.270036 321.553814 
L 314.026378 320.41675 
L 312.564442 319.685782 
L 310.533972 319.117247 
L 307.691314 318.548718 
L 298.10749 317.086776 
L 295.589709 317.005563 
L 292.737169 317.117273 
L 289.569509 316.711171 
L 279.335936 316.629951 
L 276.087182 316.711171 
L 273.650615 316.629951 
L 270.483085 316.386293 
L 267.39677 316.30508 
L 264.229235 316.629951 
L 262.117545 316.629951 
L 260.736823 317.198486 
L 259.356106 318.010673 
L 258.219042 319.147738 
L 257.894165 321.096989 
L 258.219042 323.371118 
L 259.599758 325.320369 
L 258.869024 325.107196 
L 258.300495 324.376228 
L 257.73196 323.157945 
L 257.407089 321.858442 
L 257.407089 320.477725 
L 257.650741 319.178223 
L 258.300495 318.041158 
L 257.73196 317.147752 
L 256.838554 316.741656 
L 253.752238 315.523378 
L 252.452735 314.711185 
L 248.31058 312.599495 
L 247.173516 312.274624 
L 245.792794 312.193404 
L 244.330853 312.274624 
L 241.97551 312.030966 
L 241.163323 311.787308 
L 239.051633 310.812682 
L 238.401879 311.949746 
L 237.752131 312.599495 
L 236.939943 313.65534 
L 235.72166 315.685811 
L 234.828253 316.904094 
L 236.696286 312.518281 
L 237.427253 311.787308 
L 237.995788 310.893901 
L 238.158227 310.325372 
L 237.914569 308.700992 
L 236.371408 305.046147 
L 235.153131 303.421773 
L 234.259718 302.447142 
L 231.904376 301.797393 
L 230.117564 301.553735 
L 228.89928 301.797393 
L 227.924654 302.203489 
L 226.950029 303.015677 
L 226.78759 304.396399 
L 227.112467 305.777115 
L 227.356119 308.294901 
L 227.437339 311.137559 
L 227.193681 312.843153 
L 226.868809 314.223875 
L 226.706371 312.355843 
L 226.706371 310.244153 
L 226.868809 309.188308 
L 226.868809 308.132463 
L 227.031248 307.076618 
L 226.868809 305.614677 
L 226.381494 303.502987 
L 225.975403 302.690799 
L 225.894184 302.041051 
L 226.625151 301.716174 
L 226.950029 302.12227 
L 229.549029 301.553735 
L 232.797783 301.310083 
L 233.691189 300.335457 
L 234.259718 299.360832 
L 235.153131 296.030858 
L 235.965318 294.812575 
L 235.478002 293.75673 
L 234.340938 292.619665 
L 232.716563 291.888697 
L 231.01097 291.726259 
L 229.711467 292.457227 
L 226.137836 294.975013 
L 228.087093 293.1882 
L 229.955125 290.914072 
L 230.209019 289.431887 
L 230.290238 287.482635 
L 230.127799 285.127288 
L 230.127799 282.853159 
L 229.965361 281.147566 
L 228.747083 280.010501 
L 227.528799 280.091721 
L 225.660767 281.066346 
L 221.924697 283.827785 
L 220.300323 285.046068 
L 218.107414 286.99532 
L 218.432291 289.188229 
L 219.813007 291.787235 
L 221.274949 294.142577 
L 220.056665 293.411609 
L 219.244478 292.436983 
L 218.919601 291.13748 
L 217.376446 288.457261 
L 216.239382 288.700919 
L 214.29013 289.919197 
L 210.14797 293.005513 
L 209.173344 294.061357 
L 211.69113 298.772053 
L 213.315505 300.883743 
L 213.965253 302.345679 
L 215.264756 302.995427 
L 216.726697 302.020802 
L 219.406917 300.477647 
L 218.351072 301.533492 
L 217.051569 302.508117 
L 216.807911 303.401524 
L 217.701323 304.944684 
L 219.08204 307.624904 
L 218.269852 307.137588 
L 217.538885 306.40662 
L 216.726697 305.269556 
L 215.102317 303.563962 
L 214.127692 303.320304 
L 212.828189 303.401524 
L 211.853563 303.076647 
L 211.934783 300.883743 
L 210.716499 297.878647 
L 209.904312 296.335486 
L 209.010905 294.954764 
L 208.361157 294.386235 
L 206.980435 295.523299 
L 204.381435 297.47255 
L 203.569248 298.284737 
L 203.000713 299.096925 
L 202.188526 299.178144 
L 201.295119 299.746679 
L 199.10221 301.614711 
L 198.614894 302.589337 
L 199.58952 304.782246 
L 201.457558 307.706123 
L 202.432183 309.574155 
L 203.650461 310.386342 
L 205.031183 309.980251 
L 206.330686 309.168059 
L 207.386531 308.355872 
L 207.95506 308.355872 
L 207.224093 309.086839 
L 205.599718 310.142684 
L 204.462654 311.036091 
L 204.787526 312.660471 
L 206.330686 314.85338 
L 208.03628 316.558973 
L 209.985531 316.558973 
L 211.69113 315.421909 
L 213.802815 314.203626 
L 215.589633 313.472658 
L 217.214007 313.716316 
L 215.752072 314.041193 
L 214.452569 314.609722 
L 212.25966 315.990444 
L 211.853563 316.477754 
L 212.665756 317.777257 
L 213.477943 319.320412 
L 213.396724 320.701134 
L 214.127692 322.406728 
L 215.488165 323.015755 
L 217.112545 323.503065 
L 218.818138 323.421846 
L 221.985673 322.609659 
L 220.848609 323.909162 
L 219.467887 324.15282 
L 216.706448 324.15282 
L 214.757197 323.746723 
L 212.401849 323.746723 
L 212.726726 322.772098 
L 213.295255 321.878691 
L 212.889165 318.954814 
L 212.076978 317.574092 
L 211.102352 316.843124 
L 207.447501 316.680686 
L 206.229218 316.843124 
L 205.335811 317.655311 
L 204.767282 319.360905 
L 204.686063 320.660408 
L 205.092159 322.203563 
L 205.092159 323.178188 
L 204.279966 322.284782 
L 204.036314 321.066504 
L 204.279966 319.685782 
L 204.767282 317.898969 
L 205.417031 316.761905 
L 205.741908 315.381183 
L 205.49825 314.162899 
L 204.604843 312.700963 
L 203.548998 311.563899 
L 202.818031 311.076583 
L 201.762186 311.076583 
L 198.757089 312.700963 
L 200.137806 311.48268 
L 201.437309 310.589273 
L 201.356089 308.233926 
L 200.625121 306.77199 
L 199.569276 305.472487 
L 198.838309 304.010546 
L 198.107335 302.954701 
L 196.726619 302.954701 
L 195.670774 303.442016 
L 193.152987 304.985171 
L 192.665677 305.716145 
L 191.934709 306.365894 
L 192.909335 309.452209 
L 192.259581 307.909054 
L 191.609832 306.934429 
L 190.716426 306.690771 
L 189.010827 307.502958 
L 185.437201 309.939525 
L 184.543795 310.914151 
L 185.437201 313.269493 
L 186.736704 315.868498 
L 188.11742 316.680686 
L 189.335704 317.086776 
L 193.234207 316.843124 
L 194.127613 317.898969 
L 195.914431 319.685782 
L 196.889057 321.228937 
L 195.751993 320.41675 
L 192.584458 318.548718 
L 191.122517 318.30506 
L 189.335704 318.142621 
L 187.63011 318.548718 
L 186.168169 319.442124 
L 184.381356 320.741627 
L 186.574265 318.629937 
L 187.224014 317.73653 
L 186.574265 316.599466 
L 185.274762 313.59437 
L 184.543795 312.376086 
L 183.812827 311.48268 
L 182.350885 311.888776 
L 180.80773 312.782183 
L 179.26457 313.431931 
L 177.640195 314.487776 
L 174.462653 316.244104 
L 174.218995 317.13751 
L 175.031188 318.355794 
L 176.736781 320.142607 
L 178.604813 321.198452 
L 177.630188 320.954794 
L 176.411904 320.305045 
L 175.356059 319.2492 
L 174.543872 318.112136 
L 173.569246 317.299949 
L 171.944872 317.706045 
L 170.076834 318.680671 
L 167.152957 320.873575 
L 166.015893 321.92942 
L 165.772241 322.985265 
L 166.665647 324.934516 
L 167.883931 327.046206 
L 169.183428 327.939618 
L 170.645369 327.858399 
L 172.350963 327.127425 
L 173.894123 326.1528 
L 175.599717 325.66549 
L 174.625091 326.315238 
L 173.000717 326.964987 
L 171.295118 327.858399 
L 170.076834 328.345709 
L 170.158054 329.970083 
L 173.16315 332.812747 
L 175.112401 333.137618 
L 176.89922 332.975185 
L 178.848471 332.40665 
L 180.472845 331.188367 
L 181.60991 329.645212 
L 181.934787 328.102051 
L 182.665755 327.127425 
L 184.696225 326.640115 
L 186.970354 326.558896 
L 192.65567 327.046206 
L 191.274947 327.452302 
L 190.137889 327.614741 
L 186.970354 327.046206 
L 185.264755 327.046206 
L 183.802819 327.289864 
L 182.909413 327.77718 
L 182.259658 328.670586 
L 181.1226 331.594463 
L 181.1226 332.893966 
L 183.234284 334.843217 
L 185.183541 336.142714 
L 187.701322 336.711249 
L 189.97545 336.711249 
L 191.518605 336.305153 
L 191.924702 335.655404 
L 193.630295 334.761998 
L 195.011017 333.868592 
L 197.528798 331.91934 
L 198.422204 330.863495 
L 199.478049 329.320335 
L 200.777552 328.589367 
L 199.153178 330.213741 
L 198.422204 331.594463 
L 197.447579 332.731527 
L 197.122707 333.787372 
L 198.016114 334.761998 
L 200.046584 334.761998 
L 204.513616 335.330527 
L 206.706526 333.218837 
L 208.168467 332.650308 
L 209.874061 332.487869 
L 211.660873 333.381276 
L 213.610125 334.680779 
L 212.797938 334.599559 
L 209.95528 333.056399 
L 208.412125 332.975185 
L 207.031403 333.706153 
L 205.975558 334.51834 
L 205.082151 335.655404 
L 204.594836 338.498062 
L 205.000932 340.447314 
L 205.975558 341.34072 
L 207.762371 341.421939 
L 209.386751 341.746816 
L 209.061874 342.152907 
L 207.84359 342.234126 
L 206.625306 341.990474 
L 205.407029 341.503159 
L 204.513616 340.690971 
L 204.188745 339.716346 
L 204.107526 337.036127 
L 203.376558 336.223934 
L 198.178552 335.168089 
L 196.229301 334.355902 
L 195.498327 334.193463 
L 194.361263 335.005656 
L 190.706418 336.873688 
L 189.650573 337.11734 
L 188.675947 337.11734 
L 187.620102 337.360998 
L 187.701322 338.822939 
L 188.675947 341.34072 
L 190.46276 343.533629 
L 191.843482 344.751913 
L 193.386637 344.995571 
L 195.498327 344.833132 
L 197.528798 344.995571 
L 199.39683 346.132635 
L 200.939991 347.432132 
L 199.721707 347.269693 
L 198.747082 346.701164 
L 197.772456 345.888977 
L 196.066862 345.482881 
L 194.523702 345.5641 
L 193.224205 345.807758 
L 192.249579 346.376287 
L 191.274947 347.67579 
L 190.706418 348.812854 
L 189.569354 349.462603 
L 191.518605 346.538726 
L 191.112515 345.158004 
L 190.300322 344.183378 
L 189.488135 342.802661 
L 188.594728 342.071694 
L 187.782541 340.934629 
L 187.620102 339.797565 
L 187.214012 338.335624 
L 186.645477 337.360998 
L 185.345974 336.792469 
L 184.046477 336.873688 
L 183.64038 335.980282 
L 182.665755 334.924437 
L 180.310407 333.056399 
L 178.361156 332.893966 
L 174.300214 333.462495 
L 173.081931 333.462495 
L 172.513401 334.680779 
L 172.188524 336.386372 
L 172.188524 338.335624 
L 173.081931 340.609752 
L 174.868749 341.503159 
L 177.061658 342.234126 
L 179.417001 344.508255 
L 181.1226 346.701164 
L 182.016006 348.163106 
L 180.147968 346.213848 
L 178.523594 344.264597 
L 176.574343 342.883881 
L 172.107305 340.284875 
L 170.807808 340.122436 
L 168.45246 340.609752 
L 167.315396 340.447314 
L 166.828086 339.716346 
L 168.290021 339.635126 
L 170.239273 339.066597 
L 171.457556 337.929533 
L 172.107305 336.223934 
L 172.188524 333.218837 
L 171.457556 331.838121 
L 169.345866 329.482773 
L 168.371241 328.751805 
L 166.665647 330.132522 
L 165.041267 332.000554 
L 163.254454 333.868592 
L 163.904209 332.40665 
L 165.122486 330.944714 
L 168.046364 328.345709 
L 168.046364 327.614741 
L 167.315396 326.396457 
L 166.178331 324.853302 
L 165.203706 323.310142 
L 163.498112 322.660393 
L 161.548861 323.228923 
L 159.924481 324.284767 
L 155.782326 325.909147 
L 154.157946 327.371083 
L 154.076727 328.914244 
L 154.320385 331.107147 
L 155.457449 332.893966 
L 157.325481 335.168089 
L 158.218887 335.980282 
L 156.350855 335.492966 
L 154.320385 335.980282 
L 151.965037 336.386372 
L 150.58432 336.305153 
L 153.345759 335.574185 
L 154.401604 334.680779 
L 154.564042 333.462495 
L 154.401604 332.081773 
L 153.751855 330.29496 
L 152.69601 328.833025 
L 151.640165 328.426928 
L 150.038122 328.345743 
L 143.944856 330.782276 
L 142.320476 331.107147 
L 139.883915 331.91934 
L 138.421974 333.056399 
L 137.772225 334.437121 
L 138.015883 336.223934 
L 138.990509 337.767094 
L 141.264631 339.147811 
L 143.701199 339.553907 
L 145.894108 339.472688 
L 144.675824 341.421939 
L 145.000701 343.289971 
L 146.300198 344.670694 
L 148.493108 345.726539 
L 150.36114 346.457506 
L 151.98552 346.457506 
L 153.934771 345.970196 
L 155.153055 345.07679 
L 156.12768 344.102164 
L 157.752055 342.802661 
L 159.295215 341.828036 
L 160.026183 342.071694 
L 158.889119 342.396565 
L 157.427178 343.45241 
L 156.046461 345.07679 
L 156.858648 346.376287 
L 158.645461 347.432132 
L 160.43228 348.650416 
L 161.163247 349.462603 
L 161.894215 350.680886 
L 164.655654 350.518448 
L 166.117595 350.27479 
L 172.757059 350.934552 
L 174.218995 351.66552 
L 173.535078 351.801111 
L 173.535078 351.801111 
" style="fill:none;stroke:#000000;stroke-linecap:square;stroke-width:1.5;"/>
   </g>
   <g id="line2d_2">
    <path clip-path="url(#p9ea820bc01)" d="M 417.185132 383.001063 
L 419.347203 385.064853 
L 421.705824 387.226923 
L 424.850652 388.995888 
L 427.405823 390.666577 
L 429.960994 390.863133 
L 432.22134 389.585544 
L 434.285136 388.01313 
L 435.267893 386.637267 
L 433.892029 384.966578 
L 431.336858 382.902788 
L 428.978237 381.133818 
L 426.914447 379.856235 
L 424.064445 379.070028 
L 421.410998 378.185546 
L 419.347203 378.283821 
L 418.069614 379.561404 
L 417.185132 381.035543 
L 417.185132 383.001063 
" style="fill:none;stroke:#000000;stroke-linecap:square;stroke-width:1.5;"/>
   </g>
   <g id="line2d_3">
    <path clip-path="url(#p9ea820bc01)" d="M 410.698926 384.966578 
L 410.20755 387.325199 
L 409.519618 389.192438 
L 408.635136 390.863133 
L 407.848929 391.944165 
L 406.669616 392.926923 
L 405.392027 393.614855 
L 405.392027 395.67865 
L 406.964441 397.152783 
L 411.779958 396.956233 
L 415.317892 396.956233 
L 418.46272 397.054508 
L 422.29548 395.383819 
L 425.243752 393.811405 
L 426.12824 391.944165 
L 425.636859 390.371751 
L 424.260995 389.094163 
L 421.902374 387.718305 
L 419.936859 386.342441 
L 417.873064 384.770027 
L 416.005824 383.590714 
L 413.942029 383.492439 
L 412.27134 383.78727 
L 410.698926 384.966578 
" style="fill:none;stroke:#000000;stroke-linecap:square;stroke-width:1.5;"/>
   </g>
   <g id="line2d_4">
    <path clip-path="url(#p9ea820bc01)" d="M 264.382236 267.001143 
L 261.057452 268.751033 
L 258.43262 270.325927 
L 255.982777 270.850896 
L 254.582867 269.450985 
L 255.107835 266.47618 
L 256.50774 262.626427 
L 258.43262 259.301637 
L 263.857267 252.827058 
L 265.607157 250.377216 
L 266.482099 248.102363 
L 265.432167 246.002494 
L 262.807336 245.827504 
L 258.782599 246.702452 
L 253.532935 249.152294 
L 251.258082 250.727189 
L 248.633251 252.827058 
L 246.533387 255.101911 
L 244.258535 257.376763 
L 242.333655 259.826606 
L 241.458713 261.751479 
L 241.108734 263.676359 
L 242.683634 268.051075 
L 243.033614 270.675906 
L 242.333655 268.401054 
L 241.458713 265.951211 
L 240.233792 264.376311 
L 238.833882 264.72629 
L 237.258981 266.126201 
L 235.509097 268.051075 
L 233.934197 270.500917 
L 230.784402 274.17568 
L 229.559481 275.92557 
L 228.684533 278.025433 
L 230.259434 280.650265 
L 233.409228 281.000244 
L 236.384039 280.475275 
L 239.533834 281.000244 
L 242.158666 283.100107 
L 247.23334 284.500018 
L 252.308014 286.424892 
L 257.382688 286.94986 
L 263.507294 287.12485 
L 268.406978 287.474823 
L 275.056547 287.474823 
L 281.181153 287.999792 
L 287.305758 288.699744 
L 293.780343 290.099655 
L 307.604455 294.299387 
L 292.030453 290.624624 
L 285.555874 289.749676 
L 278.556321 289.399703 
L 269.45691 288.699744 
L 265.607157 287.824802 
L 261.582415 287.474823 
L 258.957583 287.474823 
L 253.182956 287.12485 
L 250.558124 286.249902 
L 248.283272 285.724939 
L 245.833429 284.849991 
L 242.333655 283.975049 
L 241.108734 282.750128 
L 239.883813 282.050176 
L 237.958939 281.525207 
L 234.284176 281.350217 
L 231.834334 281.525207 
L 231.134376 281.700197 
L 230.784402 283.275097 
L 230.784402 286.774871 
L 231.134376 289.924665 
L 233.234244 291.674555 
L 236.20905 293.599429 
L 238.483902 294.124398 
L 241.283724 293.599429 
L 243.558577 292.199518 
L 243.383587 293.774418 
L 245.483456 296.049271 
L 246.358398 298.14914 
L 248.80824 300.423993 
L 252.308014 301.473924 
L 256.85772 301.998887 
L 269.6319 301.298935 
L 276.456458 301.298935 
L 282.406074 301.123945 
L 287.830727 301.473924 
L 290.630548 301.823903 
L 298.330049 303.923767 
L 303.754702 304.973698 
L 309.529328 306.548598 
L 314.429013 308.123493 
L 319.153708 308.998441 
L 323.52843 310.048372 
L 327.378183 309.348414 
L 330.177998 308.473472 
L 332.80283 307.248551 
L 334.37773 306.02363 
L 336.827573 305.84864 
L 339.627388 306.198619 
L 342.25222 305.498667 
L 347.326894 303.048825 
L 347.676873 300.948956 
L 347.326894 298.849093 
L 347.151905 296.39925 
L 347.151905 294.474377 
L 345.57701 293.249455 
L 342.602199 291.674555 
L 339.627388 291.149587 
L 338.052494 291.324576 
L 335.952625 293.774418 
L 334.027751 296.39925 
L 331.752899 298.14914 
L 332.277861 296.924219 
L 331.402919 296.049271 
L 329.128067 295.699298 
L 331.402919 295.524308 
L 333.152809 294.99934 
L 334.37773 293.424439 
L 336.127614 291.499566 
L 337.177546 290.099655 
L 339.452404 290.099655 
L 341.727257 290.799613 
L 347.501884 293.074466 
L 349.601747 290.799613 
L 351.001658 288.349771 
L 352.226579 285.37496 
L 352.576558 283.975049 
L 349.951726 281.875186 
L 346.976915 279.775323 
L 343.652131 278.200423 
L 341.902247 279.600333 
L 340.152357 281.525207 
L 338.402467 282.225165 
L 336.477594 281.875186 
L 338.752446 281.000244 
L 341.202289 279.425344 
L 342.42721 278.200423 
L 342.42721 276.975502 
L 340.327347 274.525659 
L 337.877504 271.900827 
L 335.252672 269.800964 
L 332.627841 267.176132 
L 329.128067 264.551301 
L 325.978272 262.801417 
L 319.853666 257.726742 
L 317.403824 255.45189 
L 313.729061 253.52701 
L 311.279218 251.602137 
L 308.829376 249.327284 
L 305.504586 248.102363 
L 304.454654 246.702452 
L 302.529781 244.952562 
L 300.429918 244.25261 
L 299.030007 242.327731 
L 297.105128 240.402857 
L 293.780343 237.953015 
L 283.805985 235.503172 
L 280.65619 235.503172 
L 277.506389 235.853151 
L 274.356595 236.903083 
L 271.906752 237.953015 
L 269.6319 239.877888 
L 267.357047 241.977757 
L 267.357047 243.727641 
L 267.88201 246.002494 
L 269.806889 247.402405 
L 272.256731 248.102363 
L 276.806437 248.277347 
L 280.4812 248.102363 
L 285.030906 248.277347 
L 288.705669 248.627326 
L 292.030453 249.152294 
L 296.755154 251.077168 
L 293.255375 250.377216 
L 288.880659 249.677257 
L 285.205895 249.327284 
L 281.006163 249.327284 
L 269.45691 250.377216 
L 267.007068 251.427147 
L 265.607157 252.477079 
L 263.507294 254.226969 
L 260.357493 257.901732 
L 258.25763 260.876537 
L 256.68273 264.376311 
L 255.807788 268.226064 
L 256.68273 269.975954 
L 258.782599 269.275996 
L 261.757404 267.876085 
L 263.157315 267.001143 
L 264.382236 267.001143 
L 264.382236 267.001143 
" style="fill:none;stroke:#000000;stroke-linecap:square;stroke-width:1.5;"/>
   </g>
   <g id="line2d_5">
    <path clip-path="url(#p9ea820bc01)" d="M 319.468874 390.124718 
L 320.656655 387.833995 
L 322.268644 386.137172 
L 324.135154 385.119071 
L 326.510716 384.440343 
L 328.122699 383.507083 
L 328.462066 380.876999 
L 328.546907 378.331755 
L 328.037859 376.29556 
L 327.359131 374.51389 
L 326.17135 372.138333 
L 325.153249 370.441504 
L 323.710946 368.914356 
L 322.353484 367.641734 
L 321.080863 366.369112 
L 320.232448 366.369112 
L 319.468874 367.132687 
L 318.7053 368.065941 
L 318.196252 368.999196 
L 317.347838 370.780865 
L 316.499423 372.647381 
L 315.396488 374.34421 
L 314.293547 375.956198 
L 314.293547 377.653027 
L 314.463227 379.858904 
L 314.463227 381.97994 
L 314.548073 383.676769 
L 315.141961 385.373598 
L 315.990376 387.155267 
L 316.414583 389.021777 
L 317.347838 390.379239 
L 319.468874 390.124718 
" style="fill:none;stroke:#000000;stroke-linecap:square;stroke-width:1.5;"/>
   </g>
   <g id="line2d_6">
    <path clip-path="url(#p9ea820bc01)" d="M 257.082291 388.296306 
L 255.930293 388.152309 
L 254.994295 388.08031 
L 253.554291 388.65631 
L 252.47429 389.232309 
L 251.322291 390.31231 
L 250.098294 391.824307 
L 249.234295 392.976306 
L 247.722292 394.992309 
L 246.71429 396.432308 
L 245.706294 397.656305 
L 245.634296 398.448306 
L 246.858293 399.456308 
L 248.154295 400.608306 
L 249.306293 401.976307 
L 250.818291 403.272308 
L 251.538293 404.208306 
L 252.47429 405.000306 
L 254.346291 405.000306 
L 256.650295 404.56831 
L 258.306294 404.136307 
L 260.106291 402.696309 
L 261.618294 401.328309 
L 262.914296 400.392305 
L 261.114293 398.448306 
L 258.738291 396.000305 
L 257.226294 394.12831 
L 256.722293 393.120308 
L 256.722293 391.68031 
L 256.794292 390.384308 
L 256.722293 389.304308 
L 257.082291 388.296306 
" style="fill:none;stroke:#000000;stroke-linecap:square;stroke-width:1.5;"/>
   </g>
  </g>
 </g>
 <defs>
  <clipPath id="p9ea820bc01">
   <rect height="503.28" width="570.24" x="0" y="0"/>
  </clipPath>
 </defs>
</svg>
