<?xml version="1.0" encoding="utf-8" standalone="no"?>
<!DOCTYPE svg PUBLIC "-//W3C//DTD SVG 1.1//EN"
  "http://www.w3.org/Graphics/SVG/1.1/DTD/svg11.dtd">
<!-- Created with matplotlib (https://matplotlib.org/) -->
<svg height="508.32pt" version="1.1" viewBox="0 0 726.48 508.32" width="726.48pt" xmlns="http://www.w3.org/2000/svg" xmlns:xlink="http://www.w3.org/1999/xlink">
 <defs>
  <style type="text/css">
*{stroke-linecap:butt;stroke-linejoin:round;}
  </style>
 </defs>
 <g id="figure_1">
  <g><image xlink:href="../../img/cb/mink_cor_cell.json.cb-50%25.png" width="726.48px" height="508.32px"/></g>

  <g id="patch_1">
   <path d="M 0 508.32 
L 726.48 508.32 
L 726.48 0 
L 0 0 
z
" style="fill:none;"/>
  </g>
  <g id="axes_1">
   <g id="line2d_1">
    <path clip-path="url(#p97c3f0531e)" d="M 279.887128 172.670086 
L 281.379761 166.699554 
L 281.976812 161.027554 
L 281.379761 156.549655 
L 281.081236 152.668806 
L 281.081236 148.489439 
L 283.17092 144.310065 
L 284.962078 141.026274 
L 284.066502 136.249849 
L 282.573869 132.070475 
L 279.588603 130.279317 
L 275.409229 130.279317 
L 271.229855 133.861633 
L 260.482906 141.324799 
L 256.900582 143.115957 
L 254.512373 145.504173 
L 252.42269 148.190907 
L 250.930057 150.877648 
L 251.825632 153.564389 
L 257.199114 163.714288 
L 251.825632 155.654072 
L 249.735949 154.161439 
L 247.646266 153.564389 
L 244.959525 155.057022 
L 242.272784 156.25113 
L 240.1831 157.743763 
L 237.794884 160.131971 
L 236.302251 161.326079 
L 234.809618 162.818712 
L 233.914043 165.505446 
L 233.914043 172.968611 
L 233.316992 175.356827 
L 233.316992 178.043561 
L 233.615518 180.730302 
L 235.108151 183.417043 
L 238.391942 187.297884 
L 241.377208 188.491992 
L 245.25805 187.297884 
L 248.243316 185.506726 
L 249.735949 184.312618 
L 247.049208 186.999359 
L 244.063942 188.491992 
L 242.272784 189.984625 
L 240.780151 191.775784 
L 239.884575 193.566942 
L 240.1831 196.850733 
L 240.780151 200.134524 
L 241.675733 205.806532 
L 243.168366 211.180006 
L 244.063942 216.553488 
L 241.675733 215.060855 
L 240.481625 212.075589 
L 239.287517 208.19474 
L 238.093417 206.105057 
L 238.093417 202.821265 
L 238.690467 198.940424 
L 238.988992 195.059575 
L 238.988992 192.372834 
L 235.406676 187.297884 
L 233.914043 186.103776 
L 230.033194 187.59641 
L 227.047935 187.59641 
L 230.928777 186.103776 
L 232.719935 184.014093 
L 231.525827 180.730302 
L 231.824359 178.043561 
L 232.719935 167.595137 
L 232.122885 164.908396 
L 230.630251 162.818712 
L 227.34646 162.520187 
L 222.868561 163.714288 
L 218.987712 165.206921 
L 216.300978 166.102503 
L 213.614237 167.893662 
L 209.733396 169.68482 
L 206.449604 172.073036 
L 204.061389 174.162719 
L 203.165806 177.147985 
L 203.165806 181.327352 
L 203.464338 186.103776 
L 204.359914 191.775784 
L 207.34518 202.224215 
L 210.330446 210.582956 
L 212.420129 215.956431 
L 213.912762 221.329913 
L 214.211288 227.001912 
L 210.031921 216.852013 
L 207.34518 208.791798 
L 206.151072 205.806532 
L 204.658439 202.52274 
L 204.061389 199.537474 
L 203.165806 195.955158 
L 201.971705 193.268417 
L 200.180547 189.6861 
L 199.583489 185.208201 
L 199.583489 181.327352 
L 198.090856 178.043561 
L 195.702648 176.252403 
L 192.418856 176.252403 
L 188.538008 178.043561 
L 183.761583 180.730302 
L 179.880741 183.118518 
L 177.194001 185.805251 
L 175.402842 188.491992 
L 173.910209 192.074309 
L 174.208734 196.253683 
L 177.492526 204.015373 
L 181.074842 213.568222 
L 184.657166 221.926963 
L 187.045374 229.390128 
L 189.732115 235.659186 
L 191.224748 239.838553 
L 191.224748 242.525294 
L 189.135065 237.450344 
L 186.746849 232.972445 
L 182.26895 223.419596 
L 179.582216 219.240222 
L 176.59695 211.180006 
L 174.50726 206.702107 
L 173.313159 202.224215 
L 172.119051 198.343366 
L 171.521993 195.656632 
L 171.223468 192.074309 
L 169.730835 190.880201 
L 167.342627 191.775784 
L 164.058835 193.566942 
L 158.088303 198.940424 
L 156.297145 201.030107 
L 154.207454 204.313898 
L 153.610404 208.19474 
L 154.505987 214.463798 
L 155.401562 219.240222 
L 157.491253 226.703387 
L 159.879461 233.868028 
L 163.163253 239.838553 
L 166.447044 245.212035 
L 169.730835 249.391401 
L 176.298418 254.466358 
L 176.298418 255.958991 
L 173.611684 255.063408 
L 171.521993 252.6752 
L 168.238202 249.689934 
L 165.252936 246.10761 
L 161.969145 241.928243 
L 159.282411 237.748869 
L 157.19272 233.27097 
L 155.700087 228.793071 
L 154.505987 225.807812 
L 153.311879 221.628438 
L 152.714828 218.643172 
L 151.819246 215.35938 
L 148.236929 214.76233 
L 144.654605 215.060855 
L 141.370814 216.553488 
L 137.191447 218.643172 
L 134.504706 220.732855 
L 133.310598 223.419596 
L 132.713548 226.703387 
L 133.012073 230.285704 
L 136.295864 240.137085 
L 138.982605 247.600243 
L 142.266397 254.764883 
L 145.251663 260.735416 
L 147.938404 266.407415 
L 151.819246 269.989739 
L 157.19272 272.974998 
L 164.35736 273.870581 
L 171.521993 273.572056 
L 178.686634 272.377948 
L 173.611684 274.467631 
L 167.641152 274.766164 
L 161.073569 274.467631 
L 155.103037 273.27353 
L 152.117771 273.27353 
L 148.833979 273.572056 
L 145.550188 274.766164 
L 143.161972 275.960264 
L 141.370814 278.34848 
L 138.982605 281.035214 
L 136.59439 284.02048 
L 133.012073 286.707221 
L 130.92239 288.796904 
L 126.743016 290.289537 
L 123.75775 291.18512 
L 120.175433 291.78217 
L 117.190167 291.483645 
L 114.565213 292.773794 
L 113.07258 295.75906 
L 114.863746 303.222218 
L 119.938695 311.580966 
L 125.610695 316.655916 
L 131.581227 321.730865 
L 137.253234 326.208764 
L 142.328184 328.596973 
L 147.403133 328.895498 
L 150.089874 326.805815 
L 151.283982 324.119074 
L 150.98545 321.133815 
L 154.049634 313.389248 
L 156.437842 310.105456 
L 161.214267 308.612823 
L 166.886274 307.12019 
L 170.767115 305.627557 
L 172.558274 299.657025 
L 174.946489 288.313018 
L 175.245014 286.521859 
L 176.140597 282.342485 
L 178.528806 281.148385 
L 180.917022 285.029226 
L 181.812597 288.313018 
L 179.424389 289.507126 
L 177.334698 290.701234 
L 175.245014 293.387967 
L 173.155331 301.746715 
L 171.961223 305.926082 
L 169.274482 307.71724 
L 164.199533 308.911348 
L 160.617216 309.508406 
L 157.0349 311.299564 
L 154.945209 313.986298 
L 152.557001 320.852413 
L 151.959943 324.733255 
L 152.557001 328.017046 
L 154.348159 331.300837 
L 158.527533 333.987578 
L 163.303957 334.584628 
L 167.781849 334.883161 
L 171.961223 334.883161 
L 175.245014 332.79347 
L 179.424389 329.808204 
L 180.917022 326.822945 
L 185.096388 325.03178 
L 188.38018 322.942096 
L 192.261029 319.95683 
L 196.14187 317.867147 
L 200.022719 316.374514 
L 196.440403 319.35978 
L 191.962503 321.747988 
L 187.186079 324.434729 
L 181.812597 327.718521 
L 180.618496 331.300837 
L 180.618496 333.689053 
L 183.006705 336.972844 
L 188.081655 341.152218 
L 192.858079 342.346319 
L 198.231561 341.152218 
L 204.202086 337.86842 
L 208.97851 332.494945 
L 211.068201 330.405262 
L 211.068201 326.524413 
L 211.963776 323.539147 
L 214.949043 320.553888 
L 216.441676 316.673039 
L 217.337258 312.792197 
L 217.337258 309.806931 
L 218.531359 307.71724 
L 222.710733 304.731982 
L 228.084215 301.746715 
L 234.05474 298.164392 
L 239.129697 293.6865 
L 245.69728 285.327752 
L 250.473704 282.342485 
L 257.638337 280.551327 
L 264.802977 280.252802 
L 270.773509 282.04396 
L 276.146984 283.536593 
L 282.933353 284.202754 
L 290.110736 284.195438 
L 304.440009 281.508697 
L 312.2017 279.419014 
L 316.978124 278.523431 
L 321.754548 278.523431 
L 326.232448 276.732273 
L 331.008872 274.045532 
L 335.188246 274.344057 
L 339.666145 274.344057 
L 344.44257 275.83669 
L 349.218994 274.941114 
L 353.398361 272.552899 
L 356.383627 269.567632 
L 358.473318 270.16469 
L 361.160051 272.851424 
L 365.339425 275.23964 
L 371.309958 277.329323 
L 377.87754 277.627848 
L 383.54954 277.627848 
L 388.624497 278.523431 
L 392.803864 280.016064 
L 396.684713 279.120481 
L 401.759662 280.016064 
L 407.431669 281.210172 
L 413.70072 283.896906 
L 419.969777 286.285121 
L 427.134417 288.07628 
L 433.10495 288.374805 
L 436.985791 289.568913 
L 443.925608 289.546581 
L 456.165197 288.94953 
L 461.240147 288.94953 
L 466.613629 289.845106 
L 471.091528 292.233322 
L 474.673845 297.009746 
L 479.151744 302.681746 
L 484.823744 307.159645 
L 489.301643 309.846386 
L 491.391326 312.533127 
L 491.391326 318.802185 
L 491.092801 326.563875 
L 491.689859 331.93735 
L 494.078067 336.415249 
L 497.063333 339.997566 
L 501.839758 341.191673 
L 504.825024 339.69904 
L 506.317657 337.310825 
L 504.227974 329.549134 
L 506.616182 334.325558 
L 507.213232 338.504932 
L 505.422074 341.191673 
L 503.332391 342.684307 
L 502.436808 344.475465 
L 502.436808 348.057781 
L 504.526499 352.834206 
L 508.40734 357.312105 
L 513.780822 360.595896 
L 518.855772 360.894421 
L 523.035146 359.700313 
L 526.915988 358.207688 
L 530.199779 354.625364 
L 531.393887 351.640098 
L 530.796829 348.654832 
L 527.513038 346.863673 
L 525.423355 343.281357 
L 530.199779 347.460731 
L 533.782095 349.251889 
L 536.170311 345.669573 
L 536.767362 340.594616 
L 536.468836 335.519666 
L 534.379153 330.444717 
L 531.095362 327.459451 
L 526.915988 325.668292 
L 522.438088 323.578609 
L 518.557247 322.085976 
L 516.169031 319.69776 
L 514.974923 317.011019 
L 519.154297 321.190393 
L 523.333671 323.578609 
L 528.110095 324.474184 
L 531.692412 324.175659 
L 535.274728 321.488918 
L 537.364419 318.802185 
L 537.364419 315.219861 
L 533.185045 311.040494 
L 530.369528 312.910563 
L 526.488679 314.403196 
L 530.668053 311.41793 
L 535.743003 305.74593 
L 536.937111 301.566556 
L 537.235636 297.088656 
L 538.131219 288.43139 
L 538.131219 300.073923 
L 537.235636 306.044455 
L 536.041528 309.328246 
L 536.638586 312.910563 
L 540.519427 317.686987 
L 545.594377 321.269311 
L 550.370801 326.045735 
L 553.654593 329.030994 
L 556.938391 329.030994 
L 559.625125 328.433944 
L 561.714815 326.34426 
L 562.311866 331.717735 
L 564.700074 336.792684 
L 568.879448 338.583843 
L 573.357348 337.688267 
L 579.029355 336.792684 
L 583.208722 334.105951 
L 587.686621 331.41921 
L 589.179254 328.135418 
L 587.388096 325.150152 
L 585.596937 320.075203 
L 590.074829 328.135418 
L 592.76157 330.822159 
L 597.23947 328.135418 
L 602.911477 323.060469 
L 607.389369 317.985512 
L 610.07611 313.50762 
L 612.464325 308.432663 
L 613.956958 304.253297 
L 613.956958 295.894548 
L 613.658426 291.416657 
L 612.464325 288.43139 
L 607.986426 288.729916 
L 602.314419 289.924023 
L 597.23947 290.222549 
L 592.16452 289.924023 
L 585.596937 288.729916 
L 581.119038 286.938757 
L 575.148506 285.147599 
L 570.372081 284.550541 
L 578.432297 284.849067 
L 583.208722 286.640232 
L 588.880729 288.132865 
L 601.717369 288.729916 
L 607.687901 288.132865 
L 611.867268 286.938757 
L 611.867268 284.252016 
L 611.270218 280.968225 
L 610.07611 277.982959 
L 607.986426 274.400642 
L 605.59821 269.922743 
L 599.329153 264.250736 
L 596.940944 263.952211 
L 594.034588 263.935088 
L 590.452272 266.323296 
L 586.869956 269.010037 
L 583.586164 270.50267 
L 579.705315 273.189411 
L 576.720049 274.084987 
L 573.734783 275.57762 
L 571.346574 280.951102 
L 568.659834 280.354044 
L 566.57015 279.458469 
L 563.584884 278.562886 
L 560.599618 278.562886 
L 557.315827 279.458469 
L 555.226143 279.756994 
L 552.240877 279.159944 
L 538.210129 277.965836 
L 533.135179 277.965836 
L 525.074964 278.562886 
L 535.82192 277.070253 
L 540.001287 275.57762 
L 544.479186 273.786462 
L 547.464453 269.90562 
L 550.449719 265.427721 
L 552.539402 261.248347 
L 554.629086 256.471922 
L 555.524668 252.591081 
L 556.420251 247.516131 
L 557.614352 241.545599 
L 557.912877 237.66475 
L 558.80846 234.380959 
L 560.301093 231.694225 
L 561.793726 228.111901 
L 563.286359 226.022218 
L 562.689308 223.335477 
L 556.718776 214.081153 
L 554.33056 212.887053 
L 551.643827 213.484103 
L 549.255611 212.58852 
L 547.165927 210.498837 
L 545.374769 209.603261 
L 542.389503 211.39442 
L 540.598345 215.275261 
L 539.105712 219.15611 
L 538.508654 222.738427 
L 537.314546 233.186851 
L 536.418971 236.769175 
L 534.627813 241.545599 
L 532.538122 245.426441 
L 530.746964 249.307289 
L 528.65728 252.292556 
L 526.567597 254.979289 
L 524.776439 258.263081 
L 523.880856 255.874872 
L 524.776439 254.083714 
L 529.851388 247.516131 
L 531.941072 243.038232 
L 534.926338 235.575067 
L 536.717496 227.813376 
L 537.911604 220.350211 
L 539.105712 216.767894 
L 540.598345 213.185578 
L 542.688028 209.901786 
L 542.688028 206.617995 
L 540.299812 203.931254 
L 537.02123 200.889403 
L 534.334489 197.605611 
L 530.752172 194.918877 
L 526.572798 193.127719 
L 522.990482 191.933611 
L 519.109633 191.933611 
L 516.422899 192.232137 
L 515.228791 194.918877 
L 515.825842 200.889403 
L 516.124374 207.755518 
L 515.228791 211.934884 
L 513.139108 218.800999 
L 509.258259 226.861215 
L 507.467101 230.145006 
L 506.272993 234.32438 
L 505.377418 235.219956 
L 504.481835 241.489013 
L 503.586259 238.205222 
L 502.392151 237.011114 
L 503.586259 234.921431 
L 505.377418 230.742057 
L 507.168576 227.15974 
L 508.661209 223.278899 
L 510.452367 219.39805 
L 511.646475 215.815733 
L 513.437633 211.039309 
L 514.034684 207.15846 
L 514.333209 203.874669 
L 514.930266 199.396777 
L 514.333209 191.635086 
L 511.945 188.948345 
L 508.362684 186.261604 
L 504.18331 184.470446 
L 500.302468 182.679288 
L 496.720144 181.186655 
L 493.734878 180.291072 
L 490.749612 180.291072 
L 489.256986 183.574871 
L 488.958454 188.948345 
L 486.27172 198.501194 
L 484.779087 202.680568 
L 482.689396 207.456992 
L 484.182029 210.740784 
L 481.495296 208.352568 
L 478.211504 209.248151 
L 476.420339 209.546676 
L 473.136548 211.337834 
L 471.046864 213.427517 
L 470.151281 215.815733 
L 470.748339 219.696575 
L 472.838022 222.681841 
L 477.614447 227.756791 
L 470.748339 222.681841 
L 468.360123 221.48774 
L 468.658648 219.39805 
L 468.658648 216.114258 
L 465.076332 209.845201 
L 467.763073 211.337834 
L 470.151281 210.740784 
L 473.733605 209.248151 
L 476.420339 208.352568 
L 479.70413 206.262884 
L 482.092346 204.173201 
L 483.286454 202.382036 
L 483.584979 200.292352 
L 482.987929 196.411511 
L 484.779087 195.515928 
L 486.27172 193.426244 
L 487.465821 191.336554 
L 488.062878 188.351295 
L 487.764353 184.768971 
L 486.86877 181.186655 
L 483.584979 177.305813 
L 480.898238 173.723489 
L 478.808555 170.738223 
L 474.629181 168.64854 
L 471.046864 166.558856 
L 469.852756 169.24559 
L 469.554231 164.767698 
L 466.86749 162.080957 
L 463.882224 160.289799 
L 460.001382 158.200116 
L 457.613174 155.513375 
L 453.732325 152.229583 
L 451.045584 149.244317 
L 447.761793 146.259051 
L 438.253608 138.542024 
L 429.297809 133.467068 
L 424.22286 130.780334 
L 415.565594 128.690643 
L 405.415687 125.406852 
L 400.639263 125.108327 
L 404.818637 129.884751 
L 410.192112 133.467068 
L 415.565594 138.542024 
L 419.14791 144.214024 
L 421.834651 148.990449 
L 428.103701 158.84183 
L 431.686025 163.916779 
L 435.865392 167.797621 
L 440.044766 171.976995 
L 445.119716 175.857837 
L 437.358025 171.081412 
L 432.880126 167.200571 
L 428.103701 162.424146 
L 423.028752 158.84183 
L 417.356752 155.558031 
L 412.281795 151.378664 
L 408.102428 148.094873 
L 403.326004 143.915499 
L 398.54958 140.631708 
L 394.668731 137.049391 
L 389.892306 134.959701 
L 386.011465 131.974442 
L 382.130616 129.586226 
L 380.936515 126.302435 
L 374.667458 121.227485 
L 371.383666 119.137794 
L 367.502818 115.854003 
L 371.682192 117.645161 
L 378.249774 122.720118 
L 384.220307 127.496543 
L 387.205573 127.795068 
L 392.280522 127.496543 
L 394.370206 125.705384 
L 397.056947 125.108327 
L 394.967263 121.52601 
L 391.384939 117.645161 
L 388.399673 114.062845 
L 384.518832 109.584946 
L 382.727673 105.107054 
L 377.951249 99.733572 
L 373.174825 94.658622 
L 370.189559 92.568939 
L 366.30871 91.374831 
L 362.129343 90.479248 
L 358.547019 90.479248 
L 351.083861 91.971881 
L 346.904487 93.763039 
L 343.023645 96.151255 
L 340.038379 98.240939 
L 338.247221 100.330629 
L 337.948689 102.420313 
L 342.725113 106.002629 
L 348.098595 110.480528 
L 348.99417 113.167269 
L 346.605962 116.152536 
L 341.232487 118.839269 
L 336.15753 123.018643 
L 332.575214 125.705384 
L 328.39584 129.586226 
L 323.022365 134.36265 
L 319.738574 137.646442 
L 314.962149 140.930233 
L 305.23435 147.852926 
L 302.249084 151.733775 
L 298.069709 154.121984 
L 292.39771 156.808725 
L 285.83012 161.286624 
L 283.740436 163.973358 
L 282.247803 169.34684 
L 279.887128 172.670086 
L 279.887128 172.670086 
" style="fill:none;stroke:#000000;stroke-linecap:square;stroke-width:1.5;"/>
   </g>
   <g id="line2d_2">
    <path clip-path="url(#p97c3f0531e)" d="M 579.885686 271.795282 
L 584.086244 269.519983 
L 587.936755 268.119794 
L 590.737125 265.669472 
L 593.712525 263.219142 
L 595.112707 260.593796 
L 595.637777 257.443379 
L 595.637777 254.643002 
L 594.237589 251.842632 
L 591.96229 247.642074 
L 589.336944 243.966586 
L 587.061637 240.641146 
L 584.611315 238.015792 
L 582.160985 235.740493 
L 580.060709 234.165281 
L 577.960427 233.11514 
L 575.860151 232.065006 
L 573.759868 231.889982 
L 572.709727 233.11514 
L 572.884751 237.840769 
L 573.584845 243.441516 
L 573.934892 247.46705 
L 573.584845 251.142538 
L 572.709727 254.818025 
L 572.35968 258.318497 
L 571.659593 261.118866 
L 571.309546 264.269283 
L 570.434428 267.4197 
L 570.084381 270.570124 
L 571.834616 272.845423 
L 573.584845 273.720541 
L 577.260332 273.19547 
L 579.885686 271.795282 
" style="fill:none;stroke:#000000;stroke-linecap:square;stroke-width:1.5;"/>
   </g>
   <g id="line2d_3">
    <path clip-path="url(#p97c3f0531e)" d="M 562.733406 276.345887 
L 565.883823 274.770682 
L 568.159122 272.845423 
L 569.209263 270.920171 
L 569.55931 268.469841 
L 570.259404 265.144401 
L 570.959499 261.993984 
L 571.484569 259.018583 
L 571.834616 256.218214 
L 572.534703 253.24282 
L 573.059774 250.092396 
L 573.234798 246.416909 
L 572.884751 242.741421 
L 572.534703 239.591004 
L 572.35968 236.440588 
L 572.184656 233.11514 
L 571.659593 230.664817 
L 569.909357 228.214487 
L 567.108988 226.114212 
L 565.183728 225.589141 
L 563.958563 226.814306 
L 562.383359 228.739558 
L 560.808147 232.065006 
L 559.933029 235.56547 
L 559.232935 239.941052 
L 558.532848 245.191751 
L 558.007777 249.742357 
L 557.307683 253.417844 
L 556.257541 256.04319 
L 555.2074 259.368631 
L 553.632195 262.344031 
L 552.056983 265.144401 
L 550.306747 267.244676 
L 548.556519 269.87003 
L 546.63126 272.320352 
L 545.406102 273.895564 
L 545.931173 275.120729 
L 550.481771 275.295753 
L 554.507313 276.695934 
L 557.832753 277.396028 
L 560.98317 277.045981 
L 562.733406 276.345887 
" style="fill:none;stroke:#000000;stroke-linecap:square;stroke-width:1.5;"/>
   </g>
   <g id="line2d_4">
    <path clip-path="url(#p97c3f0531e)" d="M 286.846066 138.685926 
L 290.796003 135.262643 
L 295.009274 131.839367 
L 301.065844 128.679412 
L 306.069097 125.519464 
L 311.335685 122.88617 
L 315.812284 121.306192 
L 320.025548 119.989549 
L 323.975485 117.092928 
L 327.135433 114.722968 
L 330.822043 112.353002 
L 333.718664 108.403064 
L 334.245326 106.559759 
L 336.87862 103.399811 
L 336.87862 101.029845 
L 332.665348 101.293172 
L 328.715411 101.029845 
L 319.762221 102.083161 
L 316.338938 103.926466 
L 313.968979 105.769771 
L 310.282369 107.086414 
L 305.542443 109.456381 
L 302.11916 112.353002 
L 299.222539 114.722968 
L 296.325918 117.619589 
L 294.219286 120.51621 
L 291.059337 123.939486 
L 289.216032 126.57278 
L 287.109393 128.942739 
L 285.266088 129.996062 
L 284.476106 131.312706 
L 284.739434 135.262643 
L 286.846066 138.685926 
" style="fill:none;stroke:#000000;stroke-linecap:square;stroke-width:1.5;"/>
   </g>
   <g id="line2d_5">
    <path clip-path="url(#p97c3f0531e)" d="M 144.119342 273.228866 
L 147.104608 271.736233 
L 146.806083 268.452442 
L 144.417867 265.168651 
L 141.731134 260.690752 
L 139.939968 257.108435 
L 138.447335 252.929061 
L 137.253234 248.749687 
L 136.656177 245.167371 
L 135.760601 241.286529 
L 134.566493 237.40568 
L 133.969443 234.420414 
L 132.433141 230.355112 
L 131.581227 228.449889 
L 128.595961 230.241047 
L 125.610695 232.33073 
L 121.431328 236.510104 
L 119.341637 240.689471 
L 118.446062 242.779162 
L 116.953429 247.555586 
L 116.654904 251.137903 
L 116.953429 255.018744 
L 117.849004 258.302543 
L 118.744587 261.884859 
L 122.625429 264.870126 
L 127.103328 267.855392 
L 131.282702 270.2436 
L 135.760601 271.139183 
L 139.342918 272.930341 
L 144.119342 273.228866 
" style="fill:none;stroke:#000000;stroke-linecap:square;stroke-width:1.5;"/>
   </g>
   <g id="line2d_6">
    <path clip-path="url(#p97c3f0531e)" d="M 122.028378 289.946355 
L 127.40186 286.364032 
L 131.879752 283.378766 
L 135.163544 280.692032 
L 139.342918 278.303816 
L 141.432601 275.31855 
L 138.745867 273.228866 
L 136.059126 271.736233 
L 130.984177 270.840651 
L 127.103328 268.750967 
L 123.819537 266.661284 
L 121.132803 264.571593 
L 117.550479 262.48191 
L 115.162271 262.780435 
L 113.07258 264.273068 
L 111.281422 266.362759 
L 109.788789 267.556859 
L 107.99763 270.2436 
L 107.99763 274.422974 
L 107.40058 279.796449 
L 108.296156 283.975823 
L 110.087321 289.050773 
L 113.07258 291.438981 
L 115.759321 291.438981 
L 119.341637 290.543406 
L 122.028378 289.946355 
" style="fill:none;stroke:#000000;stroke-linecap:square;stroke-width:1.5;"/>
   </g>
  </g>
 </g>
 <defs>
  <clipPath id="p97c3f0531e">
   <rect height="508.32" width="726.48" x="0" y="0"/>
  </clipPath>
 </defs>
</svg>
