<?xml version="1.0" encoding="utf-8" standalone="no"?>
<!DOCTYPE svg PUBLIC "-//W3C//DTD SVG 1.1//EN"
  "http://www.w3.org/Graphics/SVG/1.1/DTD/svg11.dtd">
<!-- Created with matplotlib (https://matplotlib.org/) -->
<svg height="660.96pt" version="1.1" viewBox="0 0 816.48 660.96" width="816.48pt" xmlns="http://www.w3.org/2000/svg" xmlns:xlink="http://www.w3.org/1999/xlink">
 <defs>
  <style type="text/css">
*{stroke-linecap:butt;stroke-linejoin:round;}
  </style>
 </defs>
 <g id="figure_1">
  <g><image xlink:href="../../img/cb/mongooselemur_cor_cell.json.cb-50%25.png" width="816.48px" height="660.9599999999999px"/></g>

  <g id="patch_1">
   <path d="M 0 660.96 
L 816.48 660.96 
L 816.48 0 
L 0 0 
z
" style="fill:none;"/>
  </g>
  <g id="axes_1">
   <g id="line2d_1">
    <path clip-path="url(#peba7cdc866)" d="M 243.654623 273.577292 
L 253.596345 274.950334 
L 233.906619 276.086278 
L 230.120128 277.979524 
L 226.712296 276.84358 
L 219.896614 275.328985 
L 214.216886 274.193032 
L 209.294458 273.81439 
L 203.614721 276.464929 
L 199.828238 279.115468 
L 197.177699 283.280602 
L 195.663104 295.01871 
L 194.905803 288.203037 
L 195.284454 282.523308 
L 194.905803 279.115468 
L 192.255264 275.707627 
L 186.575535 273.81439 
L 179.759862 273.057088 
L 174.837427 273.81439 
L 171.429594 275.707627 
L 168.779047 279.494119 
L 168.021754 287.067093 
L 167.643103 282.523308 
L 168.779047 277.222222 
L 170.293642 273.435739 
L 168.400404 269.270605 
L 163.477969 265.484114 
L 158.176891 265.484114 
L 152.497162 267.75601 
L 148.710671 270.027899 
L 145.302838 271.921144 
L 143.788243 274.193032 
L 140.001752 277.222222 
L 131.671484 280.630063 
L 127.50635 282.523308 
L 123.719859 288.581688 
L 121.06932 296.533305 
L 122.583915 302.591685 
L 129.399588 304.48493 
L 135.457967 304.48493 
L 142.273649 306.756819 
L 147.953377 307.135469 
L 150.225266 305.620874 
L 153.633106 308.271414 
L 160.070128 310.164659 
L 164.613913 313.193849 
L 174.458776 316.223039 
L 183.167694 317.358983 
L 182.03175 321.145466 
L 179.00256 323.038712 
L 174.458776 324.553307 
L 169.536348 326.825195 
L 166.128508 324.931957 
L 159.691486 322.28141 
L 153.633106 320.388173 
L 149.089321 320.009522 
L 144.545537 320.388173 
L 141.137696 321.524117 
L 139.244459 319.25222 
L 134.700674 316.223039 
L 130.53554 313.951142 
L 126.370406 313.193849 
L 122.962566 313.572492 
L 118.418781 316.223039 
L 115.01094 320.009522 
L 113.874996 325.689251 
L 113.874996 330.611686 
L 115.389591 332.883574 
L 121.06932 335.912764 
L 125.613105 340.456549 
L 126.749049 343.485739 
L 123.341216 338.941954 
L 119.176083 335.912764 
L 115.389591 335.155471 
L 112.739052 337.80601 
L 110.467156 342.349795 
L 111.224457 349.165468 
L 113.496346 356.359791 
L 116.146893 363.554115 
L 118.797432 371.127089 
L 121.826622 377.942762 
L 127.885001 384.379793 
L 136.972562 390.816815 
L 144.924188 394.603306 
L 150.982567 393.467354 
L 156.662296 389.30222 
L 161.963374 384.379793 
L 166.128508 379.078706 
L 168.779047 374.156279 
L 170.672293 370.369788 
L 174.080133 369.612494 
L 179.759862 369.991145 
L 185.818242 369.612494 
L 192.633914 365.826003 
L 197.934993 363.175464 
L 205.129316 363.554115 
L 209.294458 363.554115 
L 200.964182 365.06871 
L 196.041755 368.47655 
L 192.255264 371.50574 
L 189.983375 376.049517 
L 190.740669 380.971952 
L 193.769859 390.059521 
L 198.692294 399.147091 
L 203.236079 406.720057 
L 210.809045 411.642493 
L 216.488782 410.885191 
L 220.275265 408.613303 
L 222.547153 401.79763 
L 224.81905 397.253845 
L 226.712296 391.952759 
L 225.954994 387.408982 
L 227.84824 381.350603 
L 232.770667 377.564112 
L 232.392024 384.001142 
L 233.149318 391.574116 
L 233.527968 398.389789 
L 233.149318 402.554923 
L 229.362835 408.991954 
L 226.333645 415.807627 
L 226.712296 423.380601 
L 231.427549 428.438801 
L 238.621873 432.982585 
L 246.194847 434.49718 
L 252.63187 434.49718 
L 254.903766 429.953396 
L 256.03971 425.788262 
L 259.447551 422.001779 
L 255.661059 429.196102 
L 255.661059 434.118538 
L 258.690249 436.390426 
L 267.399168 435.633124 
L 276.486737 434.49718 
L 285.195656 430.710697 
L 290.118091 425.409619 
L 293.525924 418.593938 
L 295.040518 411.399614 
L 293.904574 406.098536 
L 290.496734 402.312045 
L 286.710251 399.661506 
L 286.3316 395.875023 
L 289.73944 390.952587 
L 294.661876 386.787453 
L 299.584303 384.136914 
L 304.128088 381.107725 
L 309.807817 378.457186 
L 320.409981 375.427996 
L 307.157278 380.729074 
L 300.720247 385.272858 
L 296.555113 392.088531 
L 295.040518 399.282855 
L 298.069708 405.719885 
L 304.885381 406.85583 
L 311.701062 403.82664 
L 319.274037 400.79745 
L 327.604305 398.904213 
L 335.555922 396.253674 
L 342.750245 392.467182 
L 346.536737 386.787453 
L 347.29403 379.97178 
L 345.779435 375.806647 
L 340.478357 371.262862 
L 336.313223 368.612323 
L 329.118899 364.825832 
L 333.662684 363.689887 
L 339.721064 363.311237 
L 347.672681 362.932586 
L 354.109711 364.447181 
L 358.274845 366.340426 
L 359.410789 372.020155 
L 358.653496 379.97178 
L 358.653496 386.787453 
L 361.454137 391.942079 
L 367.891167 397.621808 
L 375.464141 402.544244 
L 384.17306 407.088028 
L 391.746026 409.359917 
L 402.726841 410.874512 
L 414.086299 410.495861 
L 423.931162 409.359917 
L 435.290619 406.330727 
L 443.242244 400.650998 
L 449.300624 395.34992 
L 453.087107 390.048834 
L 455.359004 383.233161 
L 456.494948 375.660186 
L 455.737646 368.465863 
L 453.844409 362.786134 
L 451.572512 360.135595 
L 446.271434 358.242349 
L 439.834404 357.106405 
L 431.125485 355.970461 
L 422.416567 355.213159 
L 411.43576 354.455866 
L 400.833596 354.834509 
L 380.386569 357.106405 
L 371.67765 358.999651 
L 365.997921 361.65019 
L 362.211438 363.543427 
L 362.590081 360.892888 
L 365.61927 359.378293 
L 373.949546 357.106405 
L 385.309004 355.213159 
L 392.881979 354.834509 
L 403.105492 353.698564 
L 412.950355 353.319922 
L 424.688463 354.455866 
L 442.863594 356.727754 
L 449.300624 358.621 
L 456.873599 360.135595 
L 462.93197 359.756944 
L 468.99035 357.863698 
L 477.320626 357.863698 
L 485.650893 359.756944 
L 481.485759 363.922078 
L 476.941975 369.980458 
L 472.776841 376.038837 
L 471.640889 383.990454 
L 476.563324 388.91289 
L 485.272243 393.078024 
L 494.359812 394.971269 
L 501.932786 397.621808 
L 510.263054 398.757752 
L 518.971973 396.864515 
L 520.865219 393.078024 
L 524.273051 390.427485 
L 525.030352 385.505049 
L 525.030352 381.339915 
L 520.486568 378.310725 
L 511.398998 375.281536 
L 497.010351 368.844513 
L 524.651702 378.689376 
L 530.710081 379.82532 
L 534.496564 378.310725 
L 546.613324 375.281536 
L 536.768461 379.446678 
L 533.739271 383.990454 
L 534.496564 388.155596 
L 532.224676 392.699373 
L 525.787646 396.485864 
L 521.622512 400.272347 
L 524.651702 408.223972 
L 530.331431 415.796947 
L 539.797651 421.855318 
L 550.778457 424.505866 
L 557.215488 423.369913 
L 559.866027 421.855318 
L 557.972781 417.690184 
L 557.972781 413.903701 
L 560.244678 410.874512 
L 561.001971 415.039645 
L 561.001971 419.204779 
L 564.788454 422.991271 
L 574.254674 424.127215 
L 585.235481 421.476676 
L 590.536567 418.447486 
L 595.458995 413.525051 
L 598.109534 407.845322 
L 598.109534 402.544244 
L 595.080352 398.000459 
L 591.672511 393.835325 
L 586.750076 388.155596 
L 585.235481 384.369105 
L 585.614132 378.689376 
L 585.614132 372.252354 
L 584.856839 360.892888 
L 587.128727 360.135595 
L 590.536567 362.786134 
L 592.051162 370.359108 
L 595.837645 379.446678 
L 600.188586 383.965437 
L 605.868314 388.509222 
L 611.926694 389.266523 
L 619.121018 384.344088 
L 622.907509 377.907066 
L 624.422104 372.98463 
L 625.558048 368.819496 
L 623.664802 363.51841 
L 620.25697 359.353276 
L 614.577233 356.702737 
L 603.596426 352.158953 
L 614.577233 353.673548 
L 621.014263 357.460039 
L 626.315341 358.217332 
L 630.480475 355.945444 
L 635.402911 357.081388 
L 640.325346 360.110578 
L 644.49048 365.790307 
L 650.170209 371.470035 
L 657.743183 375.256519 
L 666.073451 377.528415 
L 672.889124 375.635169 
L 679.326155 370.712734 
L 685.384534 363.897061 
L 689.171017 356.702737 
L 689.549668 351.780302 
L 686.141828 346.857875 
L 683.112638 343.071383 
L 681.976694 339.2849 
L 682.733995 336.634361 
L 687.277772 338.148956 
L 692.578858 340.420844 
L 696.365341 337.770305 
L 699.773182 331.711926 
L 702.04507 324.896253 
L 703.181014 317.701929 
L 701.287777 312.0222 
L 697.501285 307.857066 
L 694.472095 304.070575 
L 689.549668 301.420036 
L 683.869939 301.420036 
L 678.568853 304.070575 
L 674.025077 309.371661 
L 674.025077 315.808683 
L 670.995887 323.003007 
L 668.72399 326.410848 
L 666.073451 321.867063 
L 664.937507 316.565985 
L 663.422912 311.264899 
L 658.121826 308.99301 
L 650.54886 311.264899 
L 646.005075 313.915446 
L 641.46129 319.216524 
L 636.160212 321.867063 
L 630.859126 322.245714 
L 626.315341 322.245714 
L 620.635613 321.867063 
L 618.020778 318.091259 
L 616.506183 314.304776 
L 615.748882 309.382341 
L 616.506183 303.702612 
L 617.642128 298.022883 
L 618.778072 293.479098 
L 615.370231 291.585853 
L 613.098343 290.071258 
L 617.642128 284.012886 
L 621.807261 282.119641 
L 625.972395 280.983697 
L 630.894831 282.876934 
L 634.681314 287.420719 
L 639.603749 293.857749 
L 646.798073 293.100448 
L 655.885643 293.100448 
L 663.458609 292.343154 
L 673.30348 291.20721 
L 677.089963 288.935314 
L 684.284287 289.692615 
L 689.964015 285.906124 
L 689.964015 282.119641 
L 688.44942 276.439912 
L 679.361851 266.216398 
L 674.439424 263.565859 
L 669.516988 260.53667 
L 664.594561 259.400726 
L 659.672126 258.643424 
L 656.264285 259.400726 
L 650.963207 265.459097 
L 655.128341 256.371536 
L 652.477802 252.206394 
L 648.312668 249.177212 
L 641.875638 245.769371 
L 636.95321 244.254777 
L 632.030775 246.148022 
L 629.001585 250.691807 
L 628.622934 258.643424 
L 628.622934 266.595049 
L 627.10834 259.400726 
L 624.836451 256.750178 
L 619.156722 253.720989 
L 612.719692 252.585044 
L 605.904019 253.342346 
L 600.981584 255.992885 
L 599.466989 259.400726 
L 601.360234 266.595049 
L 602.496179 268.866937 
L 599.84564 264.323153 
L 597.573751 259.400726 
L 594.923212 255.614234 
L 589.243475 254.099639 
L 583.185104 253.720989 
L 577.884018 254.099639 
L 571.068345 254.099639 
L 565.009965 254.47829 
L 558.194292 255.614234 
L 550.242667 257.886131 
L 543.805645 257.886131 
L 540.776455 257.128829 
L 547.592128 255.614234 
L 554.786452 253.342346 
L 558.194292 251.4491 
L 557.058348 249.934505 
L 561.223482 250.313156 
L 567.281862 250.691807 
L 576.369423 249.934505 
L 586.971587 249.934505 
L 612.341049 250.691807 
L 616.127533 248.798561 
L 619.914016 243.497475 
L 621.049968 239.710992 
L 616.506183 232.516668 
L 612.341049 226.458289 
L 607.039963 221.914504 
L 601.360234 218.128021 
L 593.78726 218.506672 
L 589.243475 219.642616 
L 583.942397 226.458289 
L 586.592936 220.399909 
L 586.214294 216.992077 
L 581.291858 213.962887 
L 574.476185 211.312348 
L 568.417806 209.419102 
L 561.602125 207.904507 
L 556.679697 207.904507 
L 553.650508 209.419102 
L 552.135913 215.477482 
L 552.135913 220.399909 
L 558.572943 225.322344 
L 552.514563 222.671805 
L 547.213477 223.050456 
L 541.155106 219.642616 
L 547.213477 219.642616 
L 549.864024 215.098831 
L 550.621318 209.797753 
L 548.349429 202.603429 
L 544.258122 200.453735 
L 538.575968 198.18108 
L 532.517588 195.15189 
L 525.701907 190.986756 
L 517.75029 187.957566 
L 511.691911 184.549726 
L 503.361643 181.899187 
L 494.652724 181.141893 
L 480.642719 181.141893 
L 475.720292 179.248648 
L 472.312452 177.355402 
L 470.040563 172.432975 
L 465.118128 168.646483 
L 459.059748 165.238651 
L 450.72948 160.694866 
L 442.777855 156.529732 
L 432.554342 151.985948 
L 413.168208 144.852345 
L 401.80875 143.716393 
L 390.070642 143.716393 
L 381.740374 145.230988 
L 373.788757 147.881527 
L 366.594433 152.046669 
L 359.400101 157.347747 
L 354.856325 163.406127 
L 359.400101 167.19261 
L 365.837132 167.571261 
L 376.060645 167.19261 
L 386.284159 166.435317 
L 410.89632 167.949912 
L 421.498484 170.600451 
L 434.372536 175.144235 
L 450.65443 180.445313 
L 465.80037 186.503693 
L 475.516433 189.826366 
L 485.796913 195.489937 
L 493.74853 200.791015 
L 502.836099 207.606688 
L 510.030423 215.179662 
L 516.088802 225.024525 
L 516.467453 233.733444 
L 515.331501 229.56831 
L 513.438263 223.509939 
L 510.030423 218.208852 
L 505.486638 213.286425 
L 499.806909 207.985339 
L 488.826102 199.27642 
L 483.146365 196.24723 
L 476.709343 193.596691 
L 472.544209 193.218041 
L 466.864481 191.324803 
L 460.42745 191.703446 
L 451.339881 189.052907 
L 443.388264 185.266424 
L 435.815289 182.615885 
L 427.485021 180.722639 
L 416.882857 180.343988 
L 403.251503 180.343988 
L 388.862856 181.10129 
L 377.882049 182.237234 
L 347.211508 190.188851 
L 337.366646 195.489937 
L 328.657727 201.169666 
L 322.220697 206.470744 
L 314.26908 214.422369 
L 308.403536 220.94513 
L 298.180023 235.333777 
L 299.315975 229.275398 
L 304.617053 221.323781 
L 310.675433 212.614862 
L 317.869756 205.799189 
L 322.792184 201.634047 
L 326.578675 195.575676 
L 324.685429 191.410534 
L 316.355162 190.274589 
L 308.403536 191.031891 
L 299.694618 194.061081 
L 293.636246 197.847564 
L 290.985699 201.255404 
L 285.30597 216.401345 
L 287.956509 205.420538 
L 285.30597 202.391349 
L 279.247591 202.769999 
L 272.053267 206.935133 
L 264.10165 211.100267 
L 256.907326 214.508108 
L 250.470296 218.294591 
L 246.683813 223.217026 
L 245.169218 229.654048 
L 247.441106 236.848372 
L 252.742192 241.013506 
L 259.179214 241.770808 
L 264.480301 242.528101 
L 269.402728 238.362967 
L 265.994896 243.664045 
L 269.781379 248.20783 
L 273.567862 255.023511 
L 265.616245 246.693235 
L 260.693809 243.664045 
L 255.014081 242.528101 
L 249.334352 241.770808 
L 245.169218 242.149458 
L 245.926511 238.362967 
L 245.547869 234.197833 
L 243.654623 228.896755 
L 241.382727 224.35297 
L 239.489489 221.702431 
L 232.673808 223.217026 
L 222.071652 225.867565 
L 215.255971 228.896755 
L 211.090837 231.168643 
L 208.440298 234.576484 
L 209.576242 239.120269 
L 214.120027 245.557291 
L 218.663811 247.450536 
L 215.634621 247.829187 
L 211.848138 244.799997 
L 209.576242 241.392157 
L 207.683004 237.605674 
L 206.16841 234.955127 
L 200.867323 233.819182 
L 195.566245 234.955127 
L 187.235977 237.227023 
L 180.420296 241.770808 
L 175.497869 245.557291 
L 172.090028 250.858377 
L 170.954084 256.159455 
L 168.682188 262.596477 
L 172.090028 268.654857 
L 179.663003 270.548102 
L 186.857327 270.926753 
L 191.779762 269.412158 
L 198.974086 270.169452 
L 205.411108 271.684047 
L 211.090837 272.062697 
L 218.663811 273.955943 
L 225.858135 275.470538 
L 233.80976 274.334586 
L 243.654623 273.577292 
L 243.654623 273.577292 
" style="fill:none;stroke:#000000;stroke-linecap:square;stroke-width:1.5;"/>
   </g>
   <g id="line2d_2">
    <path clip-path="url(#peba7cdc866)" d="M 589.496894 309.583995 
L 591.948229 316.20261 
L 592.4385 323.31149 
L 592.193369 334.587642 
L 591.703097 330.420369 
L 591.212833 320.124752 
L 589.496894 309.583995 
" style="fill:none;stroke:#000000;stroke-linecap:square;stroke-width:1.5;"/>
   </g>
   <g id="line2d_3">
    <path clip-path="url(#peba7cdc866)" d="M 314.380521 266.549049 
L 309.785984 262.307933 
L 309.785984 256.653123 
L 312.613389 251.705157 
L 321.802463 240.395529 
L 327.457273 234.740719 
L 334.525793 229.085901 
L 340.534033 223.784513 
L 347.955975 219.896827 
L 355.731347 216.009149 
L 363.153289 213.181736 
L 370.92866 211.061182 
L 379.764305 208.940629 
L 390.367081 206.820075 
L 399.909577 205.759794 
L 409.805502 205.759794 
L 426.063097 207.880348 
L 434.19189 210.000909 
L 444.087816 212.474885 
L 456.104295 214.948868 
L 463.172807 217.069422 
L 468.120774 217.069422 
L 469.887898 221.663959 
L 473.775584 225.551645 
L 479.430402 229.439331 
L 484.37836 234.033868 
L 488.619476 238.981826 
L 492.860583 242.869512 
L 494.981137 249.231181 
L 494.627715 254.885991 
L 492.153732 243.929793 
L 485.085212 236.154421 
L 476.602997 229.085901 
L 467.767344 224.844793 
L 457.164568 222.37081 
L 449.389204 218.483124 
L 436.312444 214.242017 
L 423.942535 208.940629 
L 414.046618 207.526926 
L 404.857544 207.173496 
L 393.194486 207.526926 
L 384.358842 208.940629 
L 376.58347 210.707761 
L 368.101247 212.828314 
L 358.558751 216.009149 
L 350.78338 219.896827 
L 341.594314 224.844793 
L 334.172364 230.499603 
L 328.517554 235.800992 
L 323.923017 241.10238 
L 319.32848 246.757198 
L 315.087372 253.472289 
L 312.966819 260.540809 
L 314.380521 266.549049 
" style="fill:none;stroke:#000000;stroke-linecap:square;stroke-width:1.5;"/>
   </g>
   <g id="line2d_4">
    <path clip-path="url(#peba7cdc866)" d="M 374.352928 377.062025 
L 385.718648 375.818902 
L 397.439554 375.818902 
L 405.43108 375.10854 
L 412.179475 374.930955 
L 419.815825 375.10854 
L 429.405652 375.641309 
L 440.238611 377.594795 
L 433.845384 377.062025 
L 424.788327 376.706848 
L 417.32957 376.706848 
L 409.515636 377.062025 
L 401.524109 377.239618 
L 384.653118 376.884441 
L 374.352928 377.062025 
" style="fill:none;stroke:#000000;stroke-linecap:square;stroke-width:1.5;"/>
   </g>
   <g id="line2d_5">
    <path clip-path="url(#peba7cdc866)" d="M 216.346682 332.129433 
L 216.822698 335.699524 
L 216.346682 341.649687 
L 216.346682 348.075859 
L 214.680638 343.553735 
L 214.918642 337.841584 
L 216.346682 332.129433 
L 216.346682 332.129433 
" style="fill:none;stroke:#000000;stroke-linecap:square;stroke-width:1.5;"/>
   </g>
   <g id="line2d_6">
    <path clip-path="url(#peba7cdc866)" d="M 348.554626 187.684772 
L 358.399497 186.170177 
L 367.487058 183.519638 
L 375.060033 181.626392 
L 384.904895 180.111798 
L 395.128409 179.354496 
L 405.351922 178.975853 
L 415.575436 179.354496 
L 430.721385 180.111798 
L 428.449488 176.325314 
L 423.527061 173.296125 
L 415.196793 169.888284 
L 406.487875 167.995038 
L 393.613814 166.859094 
L 382.254356 167.237745 
L 371.27355 167.995038 
L 360.292735 168.373689 
L 353.855712 171.402879 
L 347.418682 174.810719 
L 342.496255 178.975853 
L 340.98166 183.898281 
L 348.554626 187.684772 
" style="fill:none;stroke:#000000;stroke-linecap:square;stroke-width:1.5;"/>
   </g>
  </g>
 </g>
 <defs>
  <clipPath id="peba7cdc866">
   <rect height="660.96" width="816.48" x="0" y="0"/>
  </clipPath>
 </defs>
</svg>
