<?xml version="1.0" encoding="utf-8" standalone="no"?>
<!DOCTYPE svg PUBLIC "-//W3C//DTD SVG 1.1//EN"
  "http://www.w3.org/Graphics/SVG/1.1/DTD/svg11.dtd">
<!-- Created with matplotlib (https://matplotlib.org/) -->
<svg height="570.24pt" version="1.1" viewBox="0 0 829.44 570.24" width="829.44pt" xmlns="http://www.w3.org/2000/svg" xmlns:xlink="http://www.w3.org/1999/xlink">
 <defs>
  <style type="text/css">
*{stroke-linecap:butt;stroke-linejoin:round;}
  </style>
 </defs>
 <g id="figure_1">
  <g><image xlink:href="../../img/cb/mountbeaver_cor_cell.json.cb-50%25.png" width="829.4399999999999px" height="570.24px"/></g>

  <g id="patch_1">
   <path d="M 0 570.24 
L 829.44 570.24 
L 829.44 0 
L 0 0 
z
" style="fill:none;"/>
  </g>
  <g id="axes_1">
   <g id="line2d_1">
    <path clip-path="url(#pd864e8334c)" d="M 307.015698 78.373387 
L 307.309743 83.70701 
L 304.410435 79.720464 
L 289.551491 73.559442 
L 283.752884 72.834611 
L 275.05497 74.284265 
L 266.719463 76.096334 
L 259.833609 78.633226 
L 253.672587 81.894941 
L 248.961218 85.156664 
L 244.974673 89.14321 
L 240.625711 96.39147 
L 243.162603 102.190085 
L 245.699495 105.814215 
L 249.686041 105.4518 
L 245.699495 108.351107 
L 244.612257 113.424891 
L 242.800188 119.948329 
L 243.525019 125.746936 
L 248.236387 131.183136 
L 253.672587 132.632789 
L 259.108786 130.820728 
L 266.357047 127.19659 
L 271.793247 124.659698 
L 277.229446 122.485221 
L 282.30323 120.310745 
L 285.92736 118.498676 
L 275.417377 124.297291 
L 268.893939 127.19659 
L 262.732917 130.095897 
L 253.672587 134.807266 
L 249.686041 139.156227 
L 244.612257 149.303795 
L 243.525019 154.377579 
L 242.800188 160.901017 
L 243.887434 166.699632 
L 247.149149 168.874108 
L 252.222933 167.78687 
L 265.269809 164.16274 
L 269.981177 161.988255 
L 274.692554 158.72654 
L 285.564945 150.391033 
L 277.229446 157.639302 
L 273.2429 162.350671 
L 273.2429 167.062047 
L 276.867031 169.961347 
L 281.940815 167.78687 
L 286.652191 165.249978 
L 292.813214 161.625848 
L 284.115291 168.511693 
L 273.967723 175.397546 
L 271.793247 179.021676 
L 267.081878 186.269945 
L 262.732917 194.96786 
L 258.021548 201.853713 
L 254.759825 207.289904 
L 253.672587 210.914043 
L 256.209479 214.538173 
L 261.645678 211.638865 
L 269.981177 208.377151 
L 264.907393 212.363688 
L 253.672587 219.249541 
L 246.424326 225.410564 
L 250.773279 219.249541 
L 251.860518 215.625411 
L 250.773279 212.363688 
L 251.860518 208.739558 
L 254.035002 204.753012 
L 257.659133 200.041644 
L 261.283263 193.880621 
L 264.544986 189.53166 
L 267.081878 184.820291 
L 269.981177 179.746507 
L 273.2429 175.397546 
L 274.330139 172.860654 
L 273.2429 169.598939 
L 271.068424 165.249978 
L 267.806701 164.887563 
L 261.645678 167.062047 
L 256.93431 168.874108 
L 252.585349 170.323762 
L 248.236387 171.048585 
L 244.974673 171.411 
L 242.075365 172.860654 
L 239.176058 174.672723 
L 235.551927 178.296854 
L 233.377451 182.283399 
L 231.927797 187.719599 
L 230.840559 193.15579 
L 229.390905 198.229574 
L 227.941251 202.578536 
L 225.766775 208.014735 
L 222.867467 214.900588 
L 230.478143 190.256491 
L 232.290213 183.008222 
L 235.551927 177.209615 
L 239.176058 172.135831 
L 240.988127 168.874108 
L 240.988127 164.525147 
L 241.350542 160.176194 
L 242.800188 151.115864 
L 244.612257 147.129319 
L 248.598803 137.344166 
L 247.149149 132.995205 
L 244.974673 130.820728 
L 241.71295 127.921421 
L 239.538473 125.746936 
L 239.538473 123.57246 
L 238.451235 121.760399 
L 234.464689 123.210044 
L 231.565382 125.384529 
L 227.216429 129.371075 
L 224.317121 132.632789 
L 221.780229 137.344166 
L 219.243337 141.330704 
L 216.706445 149.303795 
L 218.880922 138.793812 
L 221.417814 134.807266 
L 225.041944 130.458313 
L 229.02849 126.109352 
L 234.464689 122.122806 
L 239.176058 118.861091 
L 242.075365 115.961784 
L 243.162603 110.887999 
L 243.162603 107.263869 
L 241.350542 101.82767 
L 239.176058 98.203539 
L 233.015035 97.116301 
L 225.766775 98.565947 
L 219.96816 100.378016 
L 211.270246 104.726977 
L 206.558869 108.713523 
L 199.673024 115.961784 
L 193.512002 122.122806 
L 190.612694 127.921421 
L 186.263733 137.344166 
L 184.451672 143.505188 
L 181.91478 149.666211 
L 179.015472 155.10241 
L 176.47858 163.437909 
L 171.767203 171.773416 
L 168.143073 181.558568 
L 166.331012 188.806837 
L 165.243766 198.59199 
L 166.331012 205.115428 
L 173.579273 211.27645 
L 179.740295 212.001281 
L 186.263733 209.464389 
L 190.97511 205.115428 
L 194.59924 202.21612 
L 197.136132 199.316821 
L 194.236824 205.840259 
L 184.089256 214.175757 
L 179.377879 215.987827 
L 173.941688 216.350234 
L 171.042381 214.538173 
L 167.055835 210.914043 
L 164.518943 206.927497 
L 163.069289 209.464389 
L 164.156527 215.262996 
L 167.780658 220.699195 
L 171.767203 228.309871 
L 178.517568 237.661782 
L 183.220833 242.731178 
L 188.657032 246.717724 
L 200.979077 255.415639 
L 207.502514 259.039769 
L 209.676999 263.026315 
L 208.227345 269.187337 
L 203.878384 271.361822 
L 199.529431 271.361822 
L 195.18047 268.100099 
L 190.469101 265.563207 
L 184.670486 264.113553 
L 178.87188 263.026315 
L 173.073265 262.663899 
L 168.361896 263.751137 
L 164.012935 266.288029 
L 161.476043 270.274575 
L 161.113627 274.623536 
L 162.925697 280.422151 
L 167.637065 286.583174 
L 172.710849 285.495935 
L 179.959118 282.234212 
L 183.945664 280.059736 
L 185.757725 280.059736 
L 182.49601 283.683866 
L 178.509464 286.583174 
L 175.972572 290.207304 
L 175.247741 292.38178 
L 178.87188 298.542803 
L 183.583248 301.804526 
L 183.583248 306.153487 
L 187.207378 312.314509 
L 193.005993 319.200362 
L 201.341492 324.636554 
L 206.415276 326.086207 
L 207.140107 322.462077 
L 206.052869 318.113116 
L 198.8046 313.401747 
L 195.18047 310.864855 
L 193.368401 305.428656 
L 199.529431 311.952094 
L 206.052869 314.12657 
L 211.851476 312.676925 
L 214.750783 309.052786 
L 214.388368 304.703833 
L 211.851476 297.093157 
L 211.126653 293.106611 
L 211.851476 288.395235 
L 212.938714 296.005911 
L 214.750783 300.717287 
L 216.200437 305.791071 
L 219.462152 308.327963 
L 224.898351 306.87831 
L 230.334551 304.341418 
L 233.596265 303.254179 
L 240.119703 304.703833 
L 244.106249 306.87831 
L 245.193487 309.777617 
L 240.119703 307.965548 
L 235.045919 306.515894 
L 230.696958 306.87831 
L 225.260767 309.415202 
L 219.099736 314.851401 
L 217.287675 318.475531 
L 216.562844 321.737255 
L 216.562844 325.723792 
L 219.099736 328.985515 
L 223.448697 330.435169 
L 225.753097 336.069654 
L 228.289989 344.405161 
L 230.464466 352.378253 
L 233.001358 359.988929 
L 233.726189 366.874774 
L 234.813427 373.760627 
L 236.263081 380.284065 
L 231.551712 380.64648 
L 224.665859 383.908195 
L 219.592075 386.445087 
L 215.243114 388.257156 
L 214.518291 392.968525 
L 219.22966 399.491963 
L 223.941028 400.941616 
L 233.726189 401.304032 
L 242.786519 403.478508 
L 250.034779 407.82747 
L 255.833394 416.162968 
L 261.994417 423.411237 
L 269.787951 428.754755 
L 274.877171 433.121168 
L 281.763016 440.731844 
L 291.548177 447.980104 
L 297.709199 452.691481 
L 304.957459 453.778719 
L 316.554689 453.053888 
L 316.554689 463.201465 
L 318.729166 469.362487 
L 326.339842 472.261795 
L 330.688803 472.624202 
L 337.212241 478.422817 
L 346.272571 482.046947 
L 353.158416 484.583839 
L 360.769092 490.020039 
L 368.742183 493.281753 
L 389.76215 491.8321 
L 394.473519 486.758316 
L 399.909718 482.77177 
L 403.896264 478.785224 
L 407.88281 478.060401 
L 414.043832 483.134185 
L 420.929686 489.295208 
L 431.439669 493.644169 
L 440.862406 493.281753 
L 450.285151 492.556931 
L 460.070312 489.295208 
L 467.680988 487.120731 
L 472.754772 482.046947 
L 480.727864 476.973163 
L 488.33854 471.536963 
L 495.949216 467.550418 
L 501.747822 462.839049 
L 507.184022 457.40285 
L 514.794698 451.241827 
L 521.680551 446.168043 
L 528.928812 441.094259 
L 533.640189 436.382883 
L 541.250865 429.497038 
L 547.049471 423.336007 
L 552.123255 418.262223 
L 555.022563 413.188439 
L 559.009109 406.665001 
L 564.082893 400.503979 
L 567.320355 395.766359 
L 570.26441 390.301718 
L 572.07648 384.865518 
L 574.250956 379.429319 
L 576.425433 373.630704 
L 579.32474 367.469681 
L 580.774394 362.033482 
L 581.136809 358.409352 
L 582.224048 354.060399 
L 584.036109 349.349022 
L 585.848178 345.000069 
L 588.747485 342.825584 
L 594.183685 339.201454 
L 598.170231 334.852492 
L 599.619876 330.50354 
L 598.532638 324.342517 
L 594.546092 319.268725 
L 590.197139 315.644595 
L 585.485762 313.832534 
L 581.499217 313.470118 
L 572.438887 316.731833 
L 576.787848 313.107703 
L 581.499217 312.020464 
L 584.398524 310.570811 
L 585.123355 304.409788 
L 586.573009 310.933226 
L 589.109901 313.470118 
L 593.82127 316.00701 
L 599.619876 316.369426 
L 602.881599 314.194941 
L 605.418491 310.570811 
L 606.50573 306.221858 
L 607.955383 301.872896 
L 609.042622 297.523935 
L 609.405037 292.450151 
L 610.854691 298.611173 
L 608.317799 306.94668 
L 606.868145 310.208395 
L 606.868145 313.832534 
L 611.217098 317.094248 
L 617.015713 317.456664 
L 621.364674 315.644595 
L 625.713627 312.745287 
L 627.163281 308.396334 
L 625.35122 303.684957 
L 623.901566 298.973589 
L 622.089497 294.26222 
L 619.915021 289.550844 
L 617.740536 285.201891 
L 614.116406 281.940168 
L 610.492275 279.765691 
L 606.50573 278.316037 
L 605.418491 275.779145 
L 607.230561 271.7926 
L 613.391583 268.530885 
L 621.002259 263.457101 
L 625.35122 259.832962 
L 631.512242 254.396771 
L 636.223611 250.410225 
L 639.847741 248.23574 
L 646.733594 245.698848 
L 654.34427 242.074718 
L 659.055639 238.088172 
L 664.491838 231.92715 
L 666.4831 226.59585 
L 670.071631 222.148849 
L 669.709223 214.900588 
L 668.25957 207.65232 
L 667.172331 201.128882 
L 664.997847 194.96786 
L 661.736132 190.618898 
L 658.112002 185.182707 
L 650.863733 170.686178 
L 647.602018 163.800324 
L 645.427533 155.827233 
L 643.253057 148.578972 
L 641.440988 142.055535 
L 639.628927 137.344166 
L 637.816857 132.270374 
L 632.743073 125.746936 
L 627.669289 120.310745 
L 621.508267 116.686606 
L 614.984829 113.424891 
L 609.911045 111.250415 
L 604.837261 111.612822 
L 601.937954 113.787307 
L 600.850715 117.411437 
L 601.213131 122.122806 
L 603.750023 126.109352 
L 608.098976 144.230011 
L 613.535175 153.290341 
L 618.971375 164.887563 
L 623.320328 172.135831 
L 626.219636 178.659269 
L 628.39412 183.008222 
L 629.843766 192.068552 
L 626.219636 182.645807 
L 620.783436 171.773416 
L 610.273461 151.47828 
L 607.73656 147.491734 
L 604.837261 143.505188 
L 601.213131 142.41795 
L 599.038646 144.592427 
L 599.401062 150.028626 
L 600.4883 157.276887 
L 602.300369 164.525147 
L 603.387607 170.323762 
L 603.387607 182.645807 
L 603.750023 188.082006 
L 603.750023 194.605444 
L 604.11243 199.316821 
L 604.11243 203.665774 
L 604.837261 208.739558 
L 607.73656 218.524719 
L 610.273461 226.135395 
L 611.360699 228.672287 
L 613.17276 235.195724 
L 616.434483 243.168816 
L 613.17276 238.095032 
L 609.186214 231.571594 
L 607.011738 224.685741 
L 603.750023 215.262996 
L 601.213131 209.826796 
L 598.676231 203.665774 
L 591.065555 193.15579 
L 585.991771 188.444422 
L 574.756964 180.108915 
L 572.220072 180.833746 
L 571.49525 185.182707 
L 572.220072 190.981314 
L 571.857657 196.055098 
L 572.220072 201.491297 
L 573.307311 205.840259 
L 574.032142 211.27645 
L 575.11938 216.712649 
L 576.569034 221.424018 
L 578.018679 227.585048 
L 579.830748 233.383655 
L 583.454879 242.8064 
L 580.193164 237.007785 
L 576.206618 235.55814 
L 572.582488 231.571594 
L 566.421457 225.772979 
L 561.347673 222.873672 
L 558.810781 220.33678 
L 563.522158 222.511264 
L 568.958349 226.135395 
L 573.307311 230.846763 
L 577.656272 233.746071 
L 577.293856 230.846763 
L 575.844203 225.048156 
L 574.032142 220.33678 
L 572.944895 215.987827 
L 572.582488 211.27645 
L 570.045596 207.65232 
L 565.696635 203.303358 
L 556.273889 198.229574 
L 547.575975 190.981314 
L 543.227014 185.182707 
L 548.663213 190.618898 
L 553.736997 194.605444 
L 559.173197 198.59199 
L 565.696635 201.853713 
L 570.408003 204.753012 
L 570.770419 201.128882 
L 569.68318 196.779929 
L 569.68318 189.169244 
L 570.408003 183.733053 
L 570.408003 178.659269 
L 567.871111 172.860654 
L 565.334219 168.149286 
L 561.347673 162.350671 
L 558.448374 156.189648 
L 553.736997 148.941388 
L 560.260435 158.001718 
L 563.159743 162.350671 
L 566.05905 167.062047 
L 569.68318 172.498239 
L 571.857657 176.484784 
L 576.569034 179.746507 
L 581.642818 184.09546 
L 587.441424 187.357183 
L 593.964862 193.15579 
L 597.226585 197.142336 
L 600.4883 200.766466 
L 600.4883 194.96786 
L 600.125884 191.706136 
L 599.763477 184.457876 
L 599.763477 177.572023 
L 598.313823 171.411 
L 596.86417 164.525147 
L 595.0521 158.364125 
L 591.790386 150.391033 
L 587.80384 143.505188 
L 583.454879 138.068989 
L 578.74351 132.632789 
L 574.394549 128.646244 
L 569.320765 125.384529 
L 565.696635 123.934875 
L 560.985266 121.760399 
L 555.549067 117.049022 
L 565.334219 122.485221 
L 574.756964 127.19659 
L 583.092471 131.907967 
L 589.615901 130.458313 
L 594.689693 125.022113 
L 596.86417 118.861091 
L 597.226585 114.51213 
L 597.588992 107.988692 
L 595.0521 101.82767 
L 589.052006 96.853369 
L 580.73337 92.131408 
L 573.847525 88.869694 
L 567.324087 86.695217 
L 561.887888 85.970386 
L 555.726865 86.332802 
L 550.290666 87.057624 
L 545.941704 87.057624 
L 536.518959 84.883148 
L 530.720352 84.158325 
L 526.008984 84.158325 
L 520.935192 85.607971 
L 512.962108 88.869694 
L 510.425216 92.493824 
L 508.250732 96.842785 
L 508.250732 102.278985 
L 508.613147 108.440007 
L 510.425216 110.252068 
L 508.975563 112.78896 
L 508.975563 118.94999 
L 509.33797 125.111013 
L 510.425216 131.272035 
L 512.599693 137.07065 
L 516.948654 146.493387 
L 512.237277 139.969949 
L 510.062801 134.171342 
L 508.613147 128.735143 
L 507.888324 122.574121 
L 507.525909 117.137921 
L 506.801078 111.339314 
L 506.438671 105.903115 
L 505.71384 99.742093 
L 504.264186 92.856239 
L 501.727294 86.332802 
L 498.103164 80.896602 
L 492.666964 75.822818 
L 487.59318 73.648342 
L 479.982504 71.111449 
L 472.734244 69.29938 
L 463.311498 68.212142 
L 455.338407 67.124904 
L 443.378769 65.67525 
L 431.329569 64.601532 
L 419.00137 62.78962 
L 415.37724 62.064789 
L 401.605542 61.339966 
L 388.558666 60.252728 
L 377.323852 59.890312 
L 368.263522 60.252728 
L 350.867693 61.702382 
L 342.894602 63.514443 
L 334.196687 65.688919 
L 326.223596 68.225811 
L 319.700158 70.03788 
L 313.539136 73.299603 
L 309.915006 75.836495 
L 307.015698 78.373387 
L 307.015698 78.373387 
" style="fill:none;stroke:#000000;stroke-linecap:square;stroke-width:1.5;"/>
   </g>
   <g id="line2d_2">
    <path clip-path="url(#pd864e8334c)" d="M 324.267138 208.561933 
L 322.817484 208.924349 
L 323.904722 207.112279 
L 329.703329 201.313673 
L 334.414706 196.964711 
L 340.575728 191.166105 
L 346.011928 188.266797 
L 351.448127 183.917836 
L 355.434665 179.93129 
L 358.696388 174.857506 
L 357.246734 171.595791 
L 350.360881 169.783722 
L 344.199858 171.595791 
L 337.314005 174.857506 
L 327.891268 183.193013 
L 334.05229 176.669575 
L 339.48849 173.045445 
L 345.287097 168.696484 
L 350.360881 165.072354 
L 355.072257 162.897877 
L 359.783626 159.636154 
L 365.944648 156.736847 
L 371.743263 155.287201 
L 377.179463 152.750301 
L 383.340485 149.126171 
L 388.776684 145.50204 
L 388.414269 142.602733 
L 379.353939 139.703434 
L 368.843956 137.166542 
L 359.058803 135.716888 
L 351.085712 136.079295 
L 345.287097 137.166542 
L 339.126074 141.153079 
L 333.327468 145.864456 
L 325.354376 154.199955 
L 330.065744 148.401348 
L 332.602636 144.414802 
L 337.314005 140.790672 
L 342.750205 137.528949 
L 349.273642 135.716888 
L 356.521911 134.992057 
L 364.85741 135.716888 
L 374.280155 136.079295 
L 383.7029 137.528949 
L 394.575291 138.25378 
L 403.635621 139.341018 
L 414.50802 139.703434 
L 425.380411 140.428256 
L 439.152117 140.428256 
L 444.588317 140.065841 
L 449.299685 140.428256 
L 457.272777 139.703434 
L 463.071384 138.616187 
L 475.031021 137.166542 
L 480.46722 138.616187 
L 484.453766 140.065841 
L 486.990658 143.689979 
L 494.238919 152.750301 
L 489.165135 146.589279 
L 483.366528 141.515495 
L 476.480675 138.616187 
L 471.044475 138.978602 
L 465.245868 140.065841 
L 458.360015 140.065841 
L 453.648647 141.153079 
L 448.212447 142.965148 
L 447.487616 146.226871 
L 448.93727 150.575824 
L 452.198993 154.924786 
L 459.447253 157.099262 
L 467.420345 162.173046 
L 483.004112 173.770268 
L 491.339611 181.743359 
L 495.326157 186.092321 
L 484.091351 176.30716 
L 477.205497 170.87096 
L 470.319652 167.24683 
L 462.346561 162.535462 
L 455.460708 159.273739 
L 441.326594 156.736847 
L 431.903849 156.374439 
L 419.94422 158.911331 
L 415.957674 159.99857 
L 409.07182 163.985115 
L 407.259751 166.884423 
L 411.246297 170.146138 
L 416.682497 172.320614 
L 439.152117 173.770268 
L 447.125209 176.669575 
L 453.648647 179.206467 
L 461.62173 181.743359 
L 467.420345 184.642667 
L 475.031021 188.629213 
L 481.192043 192.253343 
L 486.265827 196.602304 
L 490.614789 202.038495 
L 493.151681 206.749872 
L 496.413395 212.548479 
L 493.514096 210.011587 
L 491.702027 205.300218 
L 486.265827 198.414365 
L 477.567913 191.52852 
L 467.420345 186.454728 
L 456.547946 181.380944 
L 442.413832 175.944753 
L 428.642134 174.495099 
L 401.098729 173.045445 
L 387.327031 174.132683 
L 376.817047 175.944753 
L 369.206371 178.844052 
L 363.407756 183.555429 
L 356.521911 188.266797 
L 349.998473 192.978166 
L 343.11262 196.964711 
L 334.777113 202.038495 
L 324.267138 208.561933 
" style="fill:none;stroke:#000000;stroke-linecap:square;stroke-width:1.5;"/>
   </g>
   <g id="line2d_3">
    <path clip-path="url(#pd864e8334c)" d="M 324.745791 114.902066 
L 329.094752 109.465867 
L 335.61819 104.392083 
L 343.228866 99.680714 
L 353.376434 97.868645 
L 364.973656 97.143822 
L 378.745362 95.694168 
L 392.154645 97.143822 
L 405.563936 97.506229 
L 440.355602 101.492775 
L 453.040062 103.304844 
L 464.999699 105.116905 
L 472.247959 105.841736 
L 479.858635 108.378628 
L 486.744489 112.72759 
L 478.40899 109.465867 
L 470.798306 107.29139 
L 450.865585 104.754498 
L 436.731471 102.942429 
L 406.651175 99.318299 
L 377.658116 97.506229 
L 353.014019 99.680714 
L 345.765758 101.13036 
L 339.24232 104.029667 
L 332.718883 107.653797 
L 324.745791 114.902066 
" style="fill:none;stroke:#000000;stroke-linecap:square;stroke-width:1.5;"/>
   </g>
   <g id="line2d_4">
    <path clip-path="url(#pd864e8334c)" d="M 408.120171 369.606982 
L 405.151729 367.529069 
L 402.480128 363.96694 
L 400.402215 359.217425 
L 396.543237 355.358447 
L 391.496883 352.093158 
L 383.482079 349.718405 
L 375.170435 348.23418 
L 368.639855 348.53102 
L 363.890341 350.015245 
L 358.547138 349.124708 
L 353.500784 344.375202 
L 351.126031 340.219376 
L 349.938654 334.876173 
L 349.344966 329.23613 
L 349.344966 322.111863 
L 350.829182 319.143421 
L 353.797632 316.47182 
L 356.469233 311.722306 
L 357.062922 321.518175 
L 358.547138 327.751905 
L 362.406124 332.50142 
L 365.671414 336.954086 
L 371.608297 340.813064 
L 378.435724 342.000441 
L 387.044217 344.672042 
L 395.355861 347.640492 
L 403.370656 347.937332 
L 419.103416 347.343643 
L 424.743459 345.562578 
L 428.602445 344.96889 
L 430.977198 344.375202 
L 437.507777 343.781514 
L 443.444668 341.703601 
L 448.787863 339.031999 
L 453.240537 335.469861 
L 456.505827 330.126667 
L 459.474268 324.189776 
L 460.364805 319.440261 
L 462.14587 314.097059 
L 463.630094 317.956037 
L 466.301688 321.221326 
L 467.489072 325.970841 
L 467.785912 331.314043 
L 466.301688 336.657246 
L 464.223783 342.594137 
L 460.958493 347.343643 
L 455.61529 350.905781 
L 440.773067 350.905781 
L 430.68035 351.202621 
L 422.665554 352.389998 
L 417.322351 355.655287 
L 414.057062 360.107962 
L 411.979149 364.560628 
L 408.120171 369.606982 
" style="fill:none;stroke:#000000;stroke-linecap:square;stroke-width:1.5;"/>
   </g>
   <g id="line2d_5">
    <path clip-path="url(#pd864e8334c)" d="M 387.210785 248.105999 
L 402.069721 248.830822 
L 414.754181 248.830822 
L 429.613126 249.91806 
L 421.640035 251.005299 
L 406.056267 250.280476 
L 395.908699 249.91806 
L 387.210785 248.105999 
L 387.210785 248.105999 
" style="fill:none;stroke:#000000;stroke-linecap:square;stroke-width:1.5;"/>
   </g>
   <g id="line2d_6">
    <path clip-path="url(#pd864e8334c)" d="M 629.362823 298.121928 
L 633.653143 296.21512 
L 633.653143 292.401504 
L 632.223039 289.779645 
L 630.554579 286.919429 
L 629.839527 284.535917 
L 630.077875 282.390761 
L 633.891491 280.960657 
L 635.321595 278.577145 
L 632.699735 278.100441 
L 628.886119 278.815493 
L 625.549207 279.768901 
L 622.927348 282.390761 
L 621.497244 283.820865 
L 620.067132 286.442725 
L 620.782192 289.302941 
L 622.450644 293.354904 
L 624.357451 296.691824 
L 627.217667 298.598632 
L 629.362823 298.121928 
" style="fill:none;stroke:#000000;stroke-linecap:square;stroke-width:1.5;"/>
   </g>
   <g id="line2d_7">
    <path clip-path="url(#pd864e8334c)" d="M 388.414269 164.709938 
L 400.736313 162.897877 
L 409.796643 159.636154 
L 418.494566 158.548916 
L 427.19248 156.736847 
L 434.440741 155.649608 
L 440.239356 152.387894 
L 440.601771 148.401348 
L 436.615225 145.139625 
L 430.454195 143.327564 
L 421.756281 142.602733 
L 410.88389 142.965148 
L 401.461144 146.226871 
L 394.575291 149.851002 
L 389.139092 153.112716 
L 384.790139 157.099262 
L 381.890831 160.360985 
L 383.340485 163.985115 
L 388.414269 164.709938 
" style="fill:none;stroke:#000000;stroke-linecap:square;stroke-width:1.5;"/>
   </g>
  </g>
 </g>
 <defs>
  <clipPath id="pd864e8334c">
   <rect height="570.24" width="829.44" x="0" y="0"/>
  </clipPath>
 </defs>
</svg>
