<?xml version="1.0" encoding="utf-8" standalone="no"?>
<!DOCTYPE svg PUBLIC "-//W3C//DTD SVG 1.1//EN"
  "http://www.w3.org/Graphics/SVG/1.1/DTD/svg11.dtd">
<!-- Created with matplotlib (https://matplotlib.org/) -->
<svg height="483.84pt" version="1.1" viewBox="0 0 725.76 483.84" width="725.76pt" xmlns="http://www.w3.org/2000/svg" xmlns:xlink="http://www.w3.org/1999/xlink">
 <defs>
  <style type="text/css">
*{stroke-linecap:butt;stroke-linejoin:round;}
  </style>
 </defs>
 <g id="figure_1">
  <g><image xlink:href="../../img/cb/northamerporcupine_cor_cell.json.cb-50%25.png" width="725.76px" height="483.84px"/></g>

  <g id="patch_1">
   <path d="M 0 483.84 
L 725.76 483.84 
L 725.76 0 
L 0 0 
z
" style="fill:none;"/>
  </g>
  <g id="axes_1">
   <g id="line2d_1">
    <path clip-path="url(#p33d236aa20)" d="M 245.398616 143.778064 
L 242.829433 145.60187 
L 240.320858 147.531542 
L 237.619318 149.847145 
L 230.286566 155.443197 
L 226.234248 158.337709 
L 221.975039 160.281309 
L 216.571959 162.018016 
L 211.554809 162.982849 
L 206.537666 163.754717 
L 203.643154 164.333619 
L 199.204907 166.070326 
L 196.117436 167.999999 
L 192.644022 170.315602 
L 189.170614 172.245274 
L 186.469074 174.946821 
L 183.767534 177.262424 
L 180.487084 179.578034 
L 177.785544 181.893636 
L 175.855872 183.823309 
L 173.733234 187.489689 
L 171.610597 190.770131 
L 169.294987 195.787281 
L 168.330154 199.646626 
L 167.944217 202.734096 
L 168.330154 204.856741 
L 170.259827 206.014546 
L 172.575429 205.242671 
L 175.662907 204.856741 
L 178.750384 204.277838 
L 181.644889 203.120033 
L 187.819844 200.225528 
L 183.381597 203.312998 
L 181.065987 204.277838 
L 177.978517 205.242671 
L 174.312137 206.207511 
L 171.996527 206.400476 
L 168.909057 207.751246 
L 166.979384 209.102016 
L 165.821579 211.224661 
L 165.049712 212.961361 
L 165.628614 215.083998 
L 166.786412 216.627741 
L 167.944217 218.943343 
L 168.716085 220.873016 
L 168.909057 222.802688 
L 166.786412 224.925333 
L 166.400482 227.433908 
L 166.612839 229.084576 
L 167.770644 232.172046 
L 169.700317 234.680621 
L 175.296362 239.118869 
L 178.962742 241.434479 
L 182.243184 243.750081 
L 179.927574 243.364151 
L 177.611972 242.206346 
L 174.138564 239.697771 
L 170.472184 237.382161 
L 167.191742 236.417329 
L 165.069104 236.031391 
L 162.367557 235.838426 
L 154.262937 234.873594 
L 150.017655 233.908754 
L 146.930185 233.522824 
L 143.263805 233.522824 
L 135.931052 234.487656 
L 132.65061 235.259524 
L 129.177195 235.645461 
L 126.089718 235.645461 
L 121.458505 235.452489 
L 119.142903 236.031391 
L 117.020258 237.961064 
L 114.51169 241.434479 
L 112.19608 244.907886 
L 110.459373 249.153168 
L 109.49454 253.012513 
L 109.108603 257.450754 
L 109.301575 261.310098 
L 110.266408 264.397576 
L 111.231248 267.099116 
L 112.582018 268.835823 
L 114.318718 270.572531 
L 116.24839 271.537363 
L 118.178063 272.309231 
L 120.300708 271.730328 
L 122.61631 269.800656 
L 125.124885 267.870983 
L 128.01939 265.169443 
L 131.68577 260.924168 
L 133.03654 258.608558 
L 133.422477 256.099984 
L 133.808407 250.696904 
L 134.00138 253.977346 
L 134.38731 255.714053 
L 135.159177 257.836691 
L 138.246655 263.046806 
L 142.298965 264.783513 
L 143.842707 265.169443 
L 145.386442 266.713186 
L 147.895017 268.256921 
L 150.596557 269.607691 
L 153.684035 269.993628 
L 155.999644 269.800656 
L 157.929317 269.028788 
L 159.473052 266.906151 
L 161.981627 264.590541 
L 164.104264 261.696036 
L 163.718327 263.818673 
L 162.367557 265.362416 
L 161.016787 267.099116 
L 159.858989 268.835823 
L 159.087115 271.151433 
L 159.666017 273.852973 
L 162.174592 278.870116 
L 160.244919 277.712318 
L 158.508212 275.589673 
L 156.385575 273.852973 
L 153.298097 271.923301 
L 148.666885 270.379558 
L 143.842707 268.063956 
L 139.790397 265.555381 
L 134.966212 265.555381 
L 132.843575 266.327248 
L 129.756097 268.256921 
L 126.66862 270.765496 
L 124.353018 273.274071 
L 121.072575 278.484186 
L 121.458505 280.027921 
L 124.93192 286.974743 
L 128.01939 291.220018 
L 130.720937 293.921565 
L 134.00138 296.237168 
L 137.281822 297.587938 
L 140.176327 297.78091 
L 141.72007 297.202008 
L 143.263805 295.272335 
L 144.228637 293.14969 
L 145.965345 290.44815 
L 144.80754 294.500468 
L 143.45677 297.202008 
L 143.842707 299.324645 
L 145.579407 301.83322 
L 148.861853 303.957229 
L 151.768289 306.50472 
L 156.978412 308.627357 
L 160.065882 309.592197 
L 163.346324 309.399232 
L 165.468969 307.469559 
L 167.398641 305.15395 
L 169.328314 302.645375 
L 171.643917 298.593065 
L 172.222819 296.470427 
L 173.380624 294.926685 
L 175.117324 293.38295 
L 174.345456 295.698552 
L 171.257986 301.48757 
L 167.591607 307.662524 
L 166.433802 310.364064 
L 167.398641 312.679674 
L 169.714244 314.995277 
L 173.380624 317.696817 
L 177.625899 320.398357 
L 182.064146 322.521002 
L 186.116456 323.678807 
L 189.782836 323.099904 
L 193.642181 321.942099 
L 196.729658 319.819462 
L 199.045261 316.924949 
L 203.097578 310.55703 
L 204.448348 307.469559 
L 205.220216 303.417242 
L 203.290543 301.873507 
L 196.729658 301.10164 
L 193.449216 298.4001 
L 190.940641 294.154817 
L 196.343721 298.593065 
L 198.466359 299.75087 
L 205.220216 301.48757 
L 207.342853 302.259444 
L 209.465491 301.48757 
L 213.131871 296.856357 
L 214.868578 294.347782 
L 216.412313 287.786897 
L 216.991216 285.278322 
L 216.798251 282.769748 
L 216.219348 280.840075 
L 213.710773 279.489305 
L 210.816268 278.717438 
L 207.728791 278.524472 
L 204.641313 278.717438 
L 201.553836 279.103375 
L 198.852296 279.29634 
L 196.536693 280.64711 
L 193.449216 281.61195 
L 195.764819 279.875242 
L 198.273394 278.524472 
L 200.010101 277.752605 
L 201.939773 276.015898 
L 202.518676 274.858093 
L 202.325704 272.92842 
L 205.413181 275.62996 
L 207.342853 276.401835 
L 209.272526 277.366668 
L 211.781101 277.94557 
L 214.482641 278.138535 
L 216.991216 277.559633 
L 218.920888 276.980737 
L 221.043526 275.822932 
L 222.973198 274.27919 
L 223.938038 272.735455 
L 225.288808 269.647978 
L 226.832543 268.87611 
L 229.148153 266.753473 
L 227.411446 270.998748 
L 226.060676 273.121392 
L 221.815393 276.208863 
L 219.306826 278.331507 
L 218.534951 280.64711 
L 218.149021 283.155685 
L 218.149021 286.050197 
L 217.377153 287.786897 
L 216.605278 290.295472 
L 218.341986 288.558765 
L 221.236498 285.857225 
L 222.40823 283.946945 
L 226.267575 279.70167 
L 229.740983 275.07045 
L 231.670655 272.175945 
L 233.407363 268.702537 
L 234.372195 266.386928 
L 236.108903 263.492423 
L 237.266708 260.983848 
L 238.424512 259.054175 
L 239.775282 256.5456 
L 241.89792 254.22999 
L 244.020557 252.107353 
L 245.95023 250.756583 
L 249.037707 249.984715 
L 251.160345 249.598778 
L 254.826725 247.47614 
L 259.457937 246.704273 
L 263.896185 245.546468 
L 272.772679 242.844928 
L 277.403892 242.07306 
L 281.649167 241.108221 
L 285.315547 240.143388 
L 289.367857 239.371513 
L 292.648299 239.178548 
L 296.314679 238.792611 
L 298.630282 239.178548 
L 301.717759 240.143388 
L 303.261501 241.687123 
L 305.384139 243.42383 
L 306.541944 244.967565 
L 307.506776 246.704273 
L 306.348971 248.248008 
L 304.226334 250.370645 
L 300.945891 252.300318 
L 294.770937 256.5456 
L 293.227202 258.475273 
L 292.841264 262.527583 
L 293.806104 265.229123 
L 296.121714 268.123635 
L 299.142545 271.077819 
L 303.580785 274.165297 
L 311.546661 276.135256 
L 316.949749 276.714159 
L 321.580961 276.521193 
L 325.054369 275.556354 
L 328.913713 273.626681 
L 332.387121 272.082946 
L 334.316793 270.732176 
L 336.825368 268.030629 
L 337.404271 266.100956 
L 334.702731 264.171284 
L 330.071518 262.627549 
L 325.054369 261.083814 
L 327.177006 261.083814 
L 332.001191 262.241619 
L 334.702731 263.013486 
L 337.404271 264.364256 
L 341.070651 265.329089 
L 346.473731 266.100956 
L 348.982306 264.943159 
L 352.841651 263.785354 
L 357.8588 262.627549 
L 374.646943 260.311946 
L 388.926525 258.189301 
L 380.628933 259.540071 
L 375.418818 260.890841 
L 368.857933 262.241619 
L 364.419685 263.013486 
L 360.367368 263.592389 
L 355.929128 264.557221 
L 349.368243 266.486894 
L 347.438571 267.837664 
L 348.403403 269.188434 
L 350.719013 270.925141 
L 353.999455 272.275911 
L 357.472863 273.240744 
L 360.753305 274.591521 
L 365.384518 275.942291 
L 374.646943 278.064929 
L 379.08519 279.415699 
L 383.330473 280.187566 
L 387.961685 280.187566 
L 392.399932 279.608664 
L 396.259277 278.257894 
L 407.112692 273.33375 
L 410.586106 270.63221 
L 413.094681 268.123635 
L 414.831381 265.808025 
L 415.796221 263.106485 
L 416.568089 260.019008 
L 416.182151 257.317468 
L 415.410284 255.001858 
L 413.480611 251.52845 
L 411.357974 249.212848 
L 409.621266 246.5113 
L 406.533789 242.844928 
L 404.411152 240.722283 
L 404.218186 239.178548 
L 404.604117 237.248876 
L 405.375991 235.512168 
L 406.340824 234.740301 
L 407.691594 233.968433 
L 410.779071 233.775468 
L 414.059514 234.547336 
L 420.813364 235.705141 
L 427.567221 237.248876 
L 431.619531 238.020743 
L 454.389663 239.178548 
L 457.477141 239.564485 
L 460.564618 240.336353 
L 466.160663 243.80976 
L 468.476273 245.739433 
L 476.387928 251.914388 
L 479.28244 254.615928 
L 488.692085 259.354074 
L 491.20066 262.441551 
L 493.130333 264.371224 
L 495.445935 265.914959 
L 499.884183 267.458694 
L 502.97166 269.002436 
L 504.901333 271.125073 
L 507.602873 273.440683 
L 509.532545 275.756286 
L 511.655183 278.071896 
L 513.77782 280.194533 
L 517.058263 283.667941 
L 519.952775 286.369481 
L 522.268378 288.685091 
L 524.776952 290.035861 
L 525.355855 287.527286 
L 524.391022 285.983551 
L 522.075412 283.667941 
L 519.180907 282.317171 
L 517.058263 280.387498 
L 515.900465 278.071896 
L 514.163758 275.563321 
L 513.198918 273.247711 
L 513.198918 271.125073 
L 511.655183 269.774304 
L 508.181775 268.230561 
L 505.480235 266.879791 
L 500.077148 263.406384 
L 503.35759 264.757154 
L 509.146608 267.458694 
L 511.848148 268.423534 
L 512.812988 269.967269 
L 514.935625 270.353206 
L 515.514528 269.195401 
L 516.865298 267.458694 
L 518.40904 266.107924 
L 520.531677 263.985286 
L 524.583987 260.704844 
L 527.092562 259.161101 
L 530.373005 257.424401 
L 533.26751 255.687694 
L 536.354987 254.143959 
L 539.2495 252.986154 
L 541.758074 252.214286 
L 545.038517 252.600216 
L 546.968189 252.021314 
L 549.476757 249.512746 
L 549.090827 252.021314 
L 547.35412 253.565056 
L 541.372137 254.336924 
L 538.28466 255.301764 
L 535.004217 257.038464 
L 530.56597 259.740004 
L 526.127722 262.248579 
L 521.689482 265.143091 
L 518.216068 267.844631 
L 516.865298 269.581338 
L 516.09343 271.896941 
L 516.286395 274.984418 
L 516.672332 277.300021 
L 517.4442 279.229693 
L 518.602005 280.580471 
L 521.689482 281.738268 
L 523.233217 283.282011 
L 525.355855 284.439808 
L 528.250367 284.632781 
L 530.758942 284.246843 
L 536.547952 282.896073 
L 538.477625 281.931241 
L 540.407297 280.773436 
L 544.845545 278.457826 
L 547.161154 276.528153 
L 549.476757 274.212551 
L 557.195447 263.792321 
L 555.072809 268.809464 
L 553.336102 271.703976 
L 550.441597 275.370349 
L 544.073677 282.703108 
L 540.9862 283.474976 
L 538.28466 283.667941 
L 535.390155 284.246843 
L 529.794102 286.755418 
L 528.82927 287.527286 
L 528.250367 288.299153 
L 527.092562 290.807728 
L 527.671465 292.158498 
L 529.022235 294.474108 
L 530.373005 296.210815 
L 531.723775 298.719383 
L 533.26751 300.456091 
L 535.969057 301.613895 
L 539.2495 302.192798 
L 541.95104 301.806861 
L 545.424447 297.947516 
L 543.880712 300.649056 
L 543.30181 303.350603 
L 544.845545 304.315435 
L 546.968189 305.47324 
L 549.476757 306.245108 
L 551.792367 306.245108 
L 554.879844 305.666205 
L 557.195447 304.894338 
L 559.511057 303.543568 
L 560.668862 302.192798 
L 561.633694 300.456091 
L 562.791499 299.491258 
L 564.721172 298.140488 
L 566.457879 296.596746 
L 567.036782 295.053011 
L 563.756332 292.351471 
L 567.615677 294.088171 
L 572.828934 291.769106 
L 574.795751 290.281545 
L 577.111361 287.579998 
L 579.619936 285.07143 
L 580.970706 282.176918 
L 582.128511 279.282413 
L 584.058183 275.616033 
L 583.093343 273.300423 
L 579.812901 270.598883 
L 574.988723 267.125475 
L 572.480148 262.880193 
L 574.409821 265.002838 
L 576.532458 266.546573 
L 578.462131 268.090308 
L 581.163671 269.827015 
L 582.900378 271.370751 
L 585.601918 271.949653 
L 587.724556 271.563723 
L 591.197971 270.405918 
L 594.671378 268.862183 
L 596.794016 266.93251 
L 599.109625 264.423935 
L 601.232263 261.529423 
L 602.776005 257.091176 
L 603.740838 253.038866 
L 602.776005 247.828751 
L 601.232263 243.969406 
L 597.372918 240.110061 
L 594.671378 237.794458 
L 590.040166 237.215556 
L 586.180821 237.408521 
L 581.935538 237.794458 
L 578.462131 237.022584 
L 576.339493 235.478849 
L 574.216856 235.478849 
L 574.216856 237.601486 
L 572.480148 238.373361 
L 569.585636 237.987423 
L 571.129378 236.443688 
L 572.094211 235.092911 
L 573.444981 234.321044 
L 575.953556 233.163246 
L 574.988723 232.005441 
L 572.480148 230.461699 
L 568.620804 229.882796 
L 564.182556 229.496866 
L 561.673981 229.882796 
L 559.744309 230.654671 
L 557.814636 232.584343 
L 555.691999 233.549176 
L 553.376389 232.584343 
L 552.218591 230.075769 
L 551.832654 227.946164 
L 552.025619 226.016491 
L 552.025619 223.314951 
L 553.955291 217.911864 
L 555.499034 215.596261 
L 558.779476 210.000209 
L 559.551344 207.877572 
L 559.551344 192.247227 
L 559.744309 194.755802 
L 560.516176 200.158882 
L 560.323211 203.246359 
L 560.323211 206.719767 
L 560.516176 210.193174 
L 559.165406 212.315819 
L 557.042769 214.052519 
L 554.920131 217.139997 
L 554.148264 219.069669 
L 554.534194 221.385279 
L 557.428706 223.314951 
L 560.130246 224.279784 
L 563.024751 225.051651 
L 566.691131 225.630554 
L 568.813769 225.630554 
L 570.936413 225.244624 
L 572.480148 223.700881 
L 572.480148 224.665721 
L 572.866086 226.209456 
L 574.216856 227.946164 
L 576.146528 230.647704 
L 578.462131 234.121111 
L 581.742573 236.243756 
L 584.058183 236.822651 
L 588.882361 236.243756 
L 594.478413 236.822651 
L 598.144786 235.278916 
L 602.004131 234.314084 
L 605.67051 231.805509 
L 608.179085 229.489899 
L 609.33689 226.402421 
L 611.459528 223.507916 
L 612.424368 219.069669 
L 613.196235 213.473617 
L 611.266563 210.193174 
L 606.828315 207.491634 
L 601.039298 205.368997 
L 596.022148 202.667457 
L 586.373786 197.071404 
L 588.882361 197.843272 
L 591.197971 199.001077 
L 593.320608 199.579979 
L 596.21512 200.737784 
L 598.723688 201.316687 
L 601.6182 202.667457 
L 604.31974 204.790094 
L 606.828315 205.561962 
L 610.68766 207.105704 
L 614.354033 207.105704 
L 617.248545 204.790094 
L 617.44151 202.088554 
L 618.020413 199.965917 
L 620.14305 195.527669 
L 620.914925 192.440192 
L 622.072723 188.387882 
L 622.651625 184.914467 
L 622.072723 181.055122 
L 622.006083 177.14853 
L 621.041244 167.693133 
L 620.076411 162.868956 
L 618.532669 158.237743 
L 617.567836 152.255753 
L 615.638164 148.975311 
L 612.743651 146.466736 
L 611.199916 143.958168 
L 607.533536 139.905851 
L 605.024969 136.625409 
L 601.937491 133.730904 
L 598.850014 130.643426 
L 595.955509 127.555949 
L 591.710227 124.661444 
L 587.271979 120.995064 
L 584.956377 119.837259 
L 583.026704 121.959904 
L 582.447802 124.468471 
L 583.219669 126.977046 
L 583.219669 129.485621 
L 583.991537 131.415294 
L 584.763404 133.923869 
L 588.236819 140.098823 
L 585.535272 135.853541 
L 583.219669 133.923869 
L 579.167359 132.766064 
L 575.693944 132.766064 
L 572.220537 133.152001 
L 572.413502 134.695736 
L 572.413502 138.555081 
L 572.220537 140.098823 
L 572.220537 143.572231 
L 571.641634 145.887834 
L 570.869767 150.133116 
L 571.834599 154.571363 
L 570.676802 151.097956 
L 570.676802 147.238611 
L 571.448669 144.537064 
L 570.869767 135.467604 
L 568.940094 132.959036 
L 566.431519 131.415294 
L 562.572175 130.643426 
L 556.976122 126.977046 
L 552.151945 126.591116 
L 554.66052 124.854409 
L 557.169095 124.468471 
L 558.905795 123.503639 
L 560.642502 120.802099 
L 560.835467 117.328684 
L 559.484697 113.855277 
L 558.519865 110.381869 
L 558.71283 106.522524 
L 558.133927 102.856144 
L 555.432387 100.926472 
L 550.99414 99.189764 
L 546.555892 98.031967 
L 542.310617 96.488224 
L 537.87237 95.523392 
L 532.083353 93.979649 
L 526.792664 92.688559 
L 522.354416 92.109656 
L 517.916169 92.302629 
L 513.670894 91.916691 
L 507.881877 91.530761 
L 494.567134 91.916691 
L 488.006249 91.916691 
L 481.63833 92.109656 
L 475.849312 91.916691 
L 470.446232 92.495594 
L 469.86733 93.653399 
L 471.604037 95.776036 
L 475.463382 99.056479 
L 480.094595 99.828346 
L 481.63833 101.758019 
L 484.807978 101.975986 
L 488.781898 102.394292 
L 494.429051 104.067525 
L 499.239585 106.786527 
L 504.050118 110.55129 
L 508.024038 114.316062 
L 499.030428 107.832289 
L 492.546662 104.485831 
L 486.69036 102.812606 
L 481.879826 103.021755 
L 479.369981 104.485831 
L 477.905906 105.5316 
L 477.487592 108.878058 
L 477.696749 110.342134 
L 478.324212 111.806217 
L 476.860136 113.270292 
L 472.467902 113.479442 
L 469.539751 111.387903 
L 470.167214 108.878058 
L 471.003826 106.995676 
L 471.631289 104.276682 
L 471.840446 101.348523 
L 470.794677 98.629528 
L 468.284832 98.420372 
L 468.284832 98.211222 
L 465.356681 98.211222 
L 464.310911 94.864757 
L 462.010216 90.890837 
L 458.663758 89.635918 
L 453.853225 89.008455 
L 449.460991 88.799298 
L 445.696227 89.008455 
L 441.535452 88.596521 
L 437.561531 86.295825 
L 432.750991 85.040906 
L 428.149614 83.576831 
L 424.594 81.276135 
L 416.646159 76.465602 
L 410.162386 72.909987 
L 401.377932 69.354373 
L 394.68501 67.262834 
L 386.946325 64.962146 
L 377.116094 63.916377 
L 363.102794 63.079764 
L 355.991572 63.288914 
L 345.952192 63.70722 
L 340.514196 64.125534 
L 335.285349 64.962146 
L 331.520578 66.426222 
L 326.919202 67.681148 
L 322.317818 68.72691 
L 318.13474 70.400142 
L 313.11505 72.909987 
L 306.631285 76.883908 
L 304.539746 78.557141 
L 300.774982 81.276135 
L 296.801062 83.78598 
L 292.408835 86.714139 
L 286.343375 89.851439 
L 291.990521 86.086676 
L 293.87291 85.040906 
L 295.336986 83.367674 
L 299.93837 80.648679 
L 302.029901 78.76629 
L 309.977742 73.119144 
L 313.324207 71.445912 
L 321.062892 68.099454 
L 328.383277 65.171303 
L 334.23958 63.498071 
L 339.677576 62.452301 
L 346.161342 62.033995 
L 353.690877 61.406532 
L 362.057024 61.406532 
L 371.678098 62.452301 
L 377.116094 62.661458 
L 389.66532 64.334683 
L 400.750469 67.681148 
L 411.208155 72.282524 
L 414.136314 74.164914 
L 417.901078 76.256445 
L 420.410923 77.511371 
L 422.920768 79.184604 
L 426.267225 81.066986 
L 430.031996 81.485292 
L 434.215067 81.276135 
L 435.260836 78.76629 
L 431.705222 74.792369 
L 427.940458 70.400142 
L 424.175687 65.589609 
L 419.78346 61.197382 
L 414.76377 56.805148 
L 410.162386 52.412921 
L 403.260314 48.229844 
L 395.521629 44.255923 
L 386.946325 41.118622 
L 379.625939 39.863696 
L 373.769637 39.44539 
L 368.331641 38.817927 
L 362.057024 37.772157 
L 353.690877 38.190464 
L 346.788805 39.027084 
L 339.886733 40.282002 
L 332.984661 41.746078 
L 326.291739 44.255923 
L 318.97136 46.347462 
L 313.324207 48.648157 
L 306.631285 51.576309 
L 301.193289 54.50446 
L 293.056996 60.56195 
L 289.083076 64.954185 
L 282.59931 72.902026 
L 279.880316 77.294253 
L 274.442319 78.340022 
L 270.886705 80.013255 
L 266.285321 82.313943 
L 261.683937 85.032945 
L 256.873404 86.287864 
L 252.48117 88.588552 
L 249.343869 89.425172 
L 239.095332 90.889247 
L 236.794644 92.980786 
L 235.958024 95.281474 
L 237.422107 97.582162 
L 241.605177 100.928627 
L 243.905873 102.392703 
L 246.834024 103.647622 
L 249.971325 104.065935 
L 252.062864 105.320854 
L 255.200172 104.275085 
L 257.082554 104.484242 
L 260.638168 104.065935 
L 258.546629 104.693391 
L 257.50086 105.73916 
L 256.664247 108.249005 
L 255.200172 109.713081 
L 251.880792 112.422525 
L 246.233639 107.193678 
L 242.887182 103.428914 
L 239.331567 100.082456 
L 236.821722 98.618381 
L 234.311877 97.781761 
L 230.1288 95.481073 
L 226.782342 94.85361 
L 219.461957 92.343765 
L 217.788732 94.016997 
L 217.161269 98.618381 
L 216.533805 101.546532 
L 216.115499 109.076067 
L 216.324656 112.213368 
L 218.625344 113.259137 
L 221.762652 115.350676 
L 224.89996 116.814752 
L 226.783932 117.424695 
L 224.483243 120.143689 
L 222.810011 122.653534 
L 218.417784 125.999999 
L 213.188937 129.555614 
L 208.587561 132.483765 
L 203.149565 135.411916 
L 183.69826 145.242139 
L 178.469421 148.379447 
L 173.868037 151.725905 
L 166.338502 156.954752 
L 162.782888 160.09206 
L 157.554048 165.948362 
L 155.253353 169.503977 
L 151.906895 179.125051 
L 150.651969 190.419349 
L 150.651969 194.39327 
L 151.279432 203.177731 
L 152.116045 208.615728 
L 152.116045 211.125573 
L 152.534358 214.053724 
L 153.58012 217.400181 
L 155.044203 220.119183 
L 157.344891 222.419871 
L 159.854736 224.720567 
L 163.201194 226.812098 
L 165.501889 226.184643 
L 166.965965 222.629028 
L 166.756808 219.49172 
L 164.037814 214.053724 
L 164.037814 212.380491 
L 164.45612 210.916416 
L 165.920196 209.034034 
L 166.338502 207.151652 
L 165.083576 205.269263 
L 164.874426 203.596038 
L 165.292733 201.504499 
L 165.711039 198.785497 
L 166.129345 194.811576 
L 168.430041 188.955274 
L 170.730729 186.236272 
L 172.822268 182.889814 
L 174.913806 179.961663 
L 176.587039 176.615206 
L 178.469421 174.105361 
L 180.770109 171.804665 
L 183.907417 169.085671 
L 186.835568 166.157512 
L 189.55457 164.065981 
L 194.992566 160.09206 
L 198.548181 157.791364 
L 202.312945 156.327289 
L 205.868559 155.699826 
L 208.587561 155.908982 
L 211.306555 156.327289 
L 215.071326 156.536446 
L 218.626941 156.536446 
L 221.973398 156.327289 
L 226.156476 155.281519 
L 229.293777 153.817444 
L 235.359236 149.006911 
L 238.496544 147.333678 
L 242.052158 145.03299 
L 245.398616 143.778064 
L 245.398616 143.778064 
" style="fill:none;stroke:#000000;stroke-linecap:square;stroke-width:1.5;"/>
   </g>
   <g id="line2d_2">
    <path clip-path="url(#p33d236aa20)" d="M 438.386162 111.758222 
L 433.715076 107.087136 
L 430.357739 104.605625 
L 426.270542 102.270086 
L 415.614636 98.766777 
L 401.601386 95.847349 
L 409.483837 96.723175 
L 413.571034 97.307063 
L 417.366287 98.182888 
L 421.307512 98.912749 
L 425.102772 100.080519 
L 427.730256 101.39426 
L 432.839251 105.043541 
L 435.612706 107.816997 
L 438.386162 111.758222 
" style="fill:none;stroke:#000000;stroke-linecap:square;stroke-width:1.5;"/>
   </g>
   <g id="line2d_3">
    <path clip-path="url(#p33d236aa20)" d="M 287.645084 142.021529 
L 287.504831 138.748046 
L 288.276698 134.695736 
L 288.662636 133.152001 
L 289.434503 131.029364 
L 290.206371 129.485621 
L 290.785273 127.941886 
L 291.364176 125.433311 
L 289.627468 123.889576 
L 286.539991 120.995064 
L 288.855601 121.573966 
L 290.978238 121.573966 
L 295.030548 118.872426 
L 296.960221 117.907586 
L 299.468796 116.556816 
L 301.59144 115.206047 
L 303.714078 114.241214 
L 305.64375 114.048242 
L 307.766388 115.206047 
L 309.503095 115.591984 
L 311.818698 116.556816 
L 315.09914 116.749789 
L 321.660025 115.784949 
L 325.905308 115.399012 
L 329.764653 114.820116 
L 333.23806 114.434179 
L 339.027244 114.048321 
L 350.17343 112.504507 
L 353.453873 112.504507 
L 358.278057 112.118569 
L 369.27719 111.539674 
L 372.557632 111.346702 
L 378.73258 110.574834 
L 384.521597 110.767799 
L 387.995005 111.346702 
L 391.275447 111.732639 
L 395.520729 112.118569 
L 399.766012 112.697472 
L 403.432384 113.469339 
L 407.870632 114.627144 
L 414.624482 117.714621 
L 417.711959 119.451329 
L 420.799436 121.959904 
L 423.500976 125.433311 
L 424.465816 127.555949 
L 425.044719 131.608259 
L 424.851746 135.081674 
L 424.265884 133.530971 
L 423.879947 129.671626 
L 421.564337 126.970086 
L 419.441699 123.689644 
L 415.968292 121.181069 
L 410.372239 118.093592 
L 405.933992 116.549856 
L 401.495745 114.813149 
L 396.092665 114.620184 
L 387.409142 113.269407 
L 382.199027 112.690512 
L 376.79594 112.883477 
L 367.147578 113.462379 
L 361.165595 113.076442 
L 348.23679 114.427212 
L 331.834578 115.777982 
L 317.747968 117.514689 
L 302.503561 123.496672 
L 299.030146 125.426344 
L 294.398934 128.706786 
L 292.083331 131.987229 
L 290.539589 135.460644 
L 289.574756 138.355149 
L 287.645084 142.021529 
" style="fill:none;stroke:#000000;stroke-linecap:square;stroke-width:1.5;"/>
   </g>
   <g id="line2d_4">
    <path clip-path="url(#p33d236aa20)" d="M 322.319509 169.529807 
L 316.723457 168.757939 
L 317.688289 166.442329 
L 318.074227 162.197047 
L 317.881262 159.688479 
L 316.530492 156.986932 
L 312.478174 155.443197 
L 306.496192 154.285392 
L 314.986749 153.127594 
L 317.881262 152.35572 
L 320.196864 151.969789 
L 323.477307 151.969789 
L 326.950721 151.776817 
L 332.546766 151.00495 
L 336.213146 150.233082 
L 339.686554 149.65418 
L 342.966996 148.689347 
L 346.247439 147.917472 
L 349.527881 147.338577 
L 354.352066 147.145605 
L 358.018446 146.759675 
L 361.491853 146.180772 
L 372.683951 145.408905 
L 376.929233 145.408905 
L 380.981543 145.215932 
L 384.840888 145.215932 
L 395.261118 147.338577 
L 398.734525 148.689347 
L 401.822003 150.426047 
L 404.137613 151.969789 
L 405.102445 154.478364 
L 405.488383 157.951772 
L 404.716515 159.688479 
L 403.94464 160.846277 
L 404.330578 156.986932 
L 403.172773 154.478364 
L 400.664198 151.776817 
L 396.032985 150.426047 
L 391.015835 148.30341 
L 387.349463 147.724507 
L 382.332313 147.338577 
L 376.543296 147.338577 
L 371.526146 147.531542 
L 359.562181 148.496375 
L 347.791181 150.233082 
L 342.581066 151.197922 
L 333.318634 152.741657 
L 330.038192 153.70649 
L 325.985882 155.250232 
L 323.863244 156.793967 
L 322.512474 158.723639 
L 321.354669 161.232214 
L 320.968732 163.547824 
L 321.547634 165.863427 
L 322.319509 169.529807 
" style="fill:none;stroke:#000000;stroke-linecap:square;stroke-width:1.5;"/>
   </g>
   <g id="line2d_5">
    <path clip-path="url(#p33d236aa20)" d="M 330.632959 233.169742 
L 340.59281 231.402668 
L 348.785588 230.920742 
L 357.78158 230.117529 
L 370.472357 229.153676 
L 364.689218 230.278176 
L 352.159088 231.884602 
L 330.632959 233.169742 
L 330.632959 233.169742 
" style="fill:none;stroke:#000000;stroke-linecap:square;stroke-width:1.5;"/>
   </g>
   <g id="line2d_6">
    <path clip-path="url(#p33d236aa20)" d="M 583.373044 118.580649 
L 581.43586 116.196433 
L 579.200657 113.514191 
L 576.220389 111.278981 
L 573.687153 109.043778 
L 570.855898 107.106601 
L 568.024635 105.765477 
L 564.895347 104.871398 
L 561.766058 104.871398 
L 560.126915 105.46745 
L 559.232829 107.851666 
L 559.828882 112.024053 
L 560.87198 115.153335 
L 562.064092 117.686571 
L 565.193373 121.262898 
L 567.428583 124.243174 
L 568.322661 125.882317 
L 568.024635 128.117527 
L 568.024635 129.160619 
L 567.13055 130.203717 
L 566.683511 130.799769 
L 568.471674 131.395829 
L 569.514773 132.43892 
L 571.004911 134.227084 
L 571.600963 132.885959 
L 573.687153 132.140894 
L 577.26348 132.289907 
L 580.541782 132.289907 
L 582.776985 133.183993 
L 584.416135 134.376097 
L 583.224024 131.693855 
L 582.776985 129.160619 
L 582.478958 126.776403 
L 581.882906 124.5412 
L 582.180932 122.156977 
L 583.224024 120.2198 
L 583.373044 118.580649 
" style="fill:none;stroke:#000000;stroke-linecap:square;stroke-width:1.5;"/>
   </g>
   <g id="line2d_7">
    <path clip-path="url(#p33d236aa20)" d="M 325.439108 280.25991 
L 330.005656 284.717731 
L 335.876938 287.544639 
L 340.443485 289.719183 
L 345.336211 291.023918 
L 350.555129 291.785008 
L 355.447855 292.00246 
L 360.55804 291.893734 
L 365.885684 291.785008 
L 370.887143 291.350096 
L 375.018779 290.48028 
L 378.063146 288.958093 
L 380.563875 287.001001 
L 382.738419 284.500271 
L 384.478059 282.217001 
L 383.282057 280.912274 
L 380.781328 280.477362 
L 377.73696 279.824998 
L 374.148963 279.172634 
L 370.343505 278.085359 
L 361.971501 276.236993 
L 358.383496 275.475903 
L 355.556588 274.279901 
L 352.729673 273.192633 
L 350.33767 271.996631 
L 347.945674 271.235541 
L 345.55367 270.691904 
L 342.618029 270.365718 
L 339.682395 270.58317 
L 336.85548 271.56172 
L 334.354751 272.866448 
L 331.527843 274.171175 
L 329.244566 275.475903 
L 327.287474 276.236993 
L 325.439108 277.541721 
L 324.786745 279.063908 
L 325.439108 280.25991 
" style="fill:none;stroke:#000000;stroke-linecap:square;stroke-width:1.5;"/>
   </g>
   <g id="line2d_8">
    <path clip-path="url(#p33d236aa20)" d="M 165.509104 155.720423 
L 170.111634 152.926029 
L 175.536037 148.487883 
L 179.97419 145.69349 
L 184.905468 142.570348 
L 189.507998 139.611577 
L 194.274899 137.145938 
L 199.699301 134.680299 
L 203.8087 132.379038 
L 207.589351 130.735278 
L 211.863126 128.434017 
L 214.986267 126.461503 
L 218.438163 124.488996 
L 221.23255 122.516482 
L 222.383184 120.543968 
L 222.547562 118.242706 
L 221.561305 116.598947 
L 219.095666 115.283942 
L 217.451906 114.297685 
L 215.150645 113.311428 
L 212.685006 112.982673 
L 208.575608 113.147051 
L 204.466209 114.297685 
L 199.534931 115.941445 
L 193.124264 118.242706 
L 185.891725 121.694602 
L 180.796069 125.146498 
L 175.207289 128.927142 
L 171.919771 132.21466 
L 169.782879 135.173431 
L 167.810372 138.46095 
L 166.495361 142.077216 
L 164.851601 145.200365 
L 163.700974 147.994751 
L 162.879094 150.29602 
L 162.55034 152.432904 
L 163.043465 154.241041 
L 164.851601 155.8848 
L 165.509104 155.720423 
" style="fill:none;stroke:#000000;stroke-linecap:square;stroke-width:1.5;"/>
   </g>
   <g id="line2d_9">
    <path clip-path="url(#p33d236aa20)" d="M 150.057767 139.28283 
L 154.989045 136.652813 
L 158.769696 134.187174 
L 163.865344 131.392781 
L 166.988493 128.927142 
L 170.440389 126.297125 
L 176.851049 123.502739 
L 182.932961 120.708345 
L 188.192986 117.913959 
L 194.439276 115.448312 
L 199.863679 112.818303 
L 203.973077 110.845789 
L 207.753728 109.530785 
L 211.534371 107.393893 
L 213.506885 105.421386 
L 214.493143 103.120118 
L 215.150645 100.490101 
L 215.64377 96.709458 
L 215.150645 94.243819 
L 213.835633 93.421939 
L 209.890612 92.764437 
L 206.109969 92.928814 
L 201.343061 93.421939 
L 195.918658 95.065698 
L 191.151757 96.54508 
L 185.891725 98.18884 
L 180.138567 100.654479 
L 175.207289 102.79137 
L 171.262268 104.270752 
L 167.15287 106.078889 
L 163.536597 107.393893 
L 159.920323 108.708905 
L 155.810925 110.352664 
L 151.537149 112.489549 
L 148.742763 114.133308 
L 145.619614 116.105822 
L 142.332096 119.393341 
L 140.852714 122.352104 
L 140.030834 124.324619 
L 139.373332 126.461503 
L 139.702087 129.091519 
L 141.345846 131.392781 
L 142.989605 134.680299 
L 144.797735 137.63907 
L 146.605871 139.775955 
L 150.057767 139.28283 
" style="fill:none;stroke:#000000;stroke-linecap:square;stroke-width:1.5;"/>
   </g>
   <g id="line2d_10">
    <path clip-path="url(#p33d236aa20)" d="M 157.125937 109.037653 
L 161.72846 107.558271 
L 166.33099 105.585757 
L 171.262268 103.777627 
L 175.864792 101.805113 
L 181.782326 99.339474 
L 186.549227 97.36696 
L 190.494248 95.723201 
L 194.274899 94.736944 
L 199.370554 93.421939 
L 203.8087 92.271305 
L 206.274339 91.77818 
L 206.931848 89.476918 
L 206.603093 86.846902 
L 205.616836 84.71001 
L 202.98682 82.408749 
L 200.521181 80.76499 
L 198.21992 79.778733 
L 195.589903 79.94311 
L 192.631139 80.600612 
L 189.343621 81.422492 
L 186.549227 82.080001 
L 182.604206 82.901881 
L 179.809812 83.395006 
L 176.357916 84.216886 
L 173.56353 85.203143 
L 171.097891 86.518147 
L 168.632252 88.161906 
L 166.495361 89.641296 
L 164.687224 91.120678 
L 162.714717 92.435682 
L 160.90658 94.243819 
L 158.605319 96.54508 
L 154.660298 99.996976 
L 152.687784 102.79137 
L 151.372779 105.092632 
L 150.879647 107.722648 
L 152.359029 109.20203 
L 154.49592 109.530785 
L 157.125937 109.037653 
" style="fill:none;stroke:#000000;stroke-linecap:square;stroke-width:1.5;"/>
   </g>
   <g id="line2d_11">
    <path clip-path="url(#p33d236aa20)" d="M 137.881953 224.301187 
L 138.375078 227.91746 
L 139.03258 229.561219 
L 142.484476 228.73934 
L 146.758252 226.438078 
L 148.895136 223.808062 
L 151.196405 220.027411 
L 151.525153 216.08239 
L 151.525153 211.808614 
L 151.196405 207.534839 
L 150.703273 203.261063 
L 150.210148 199.973544 
L 149.881393 195.699776 
L 150.045771 192.24788 
L 150.210148 188.631607 
L 150.374518 184.686586 
L 150.538896 178.933428 
L 152.018285 173.509018 
L 153.168912 169.563997 
L 154.155169 166.112101 
L 154.977049 163.153337 
L 156.127683 160.030189 
L 157.607065 156.249545 
L 159.250824 152.797649 
L 160.730206 149.674508 
L 162.209588 146.880114 
L 163.219773 144.65971 
L 164.699228 141.536097 
L 165.685478 139.892337 
L 165.685478 136.933574 
L 164.041718 135.947317 
L 161.904834 135.782939 
L 158.94607 136.111694 
L 156.480431 137.097951 
L 153.192913 138.90608 
L 150.398519 140.714217 
L 147.604125 143.015479 
L 145.467241 145.15237 
L 143.16598 148.275511 
L 141.029088 150.576773 
L 139.385329 152.878042 
L 137.905947 155.343681 
L 136.426565 158.138067 
L 134.782806 161.754341 
L 133.467794 165.370614 
L 131.988412 168.98688 
L 131.33091 172.110021 
L 130.344653 175.726295 
L 129.68715 181.150705 
L 128.865271 186.081983 
L 128.372138 192.328265 
L 127.221511 195.944539 
L 126.399632 199.232057 
L 124.767869 205.305565 
L 122.795355 209.579341 
L 121.644728 212.86686 
L 120.822848 216.154378 
L 120.000969 220.099399 
L 119.507836 223.222548 
L 119.179089 226.838814 
L 118.850334 230.126332 
L 119.179089 233.085103 
L 121.315973 234.400108 
L 124.932247 234.400108 
L 128.877267 234.235731 
L 133.644168 232.920726 
L 136.274184 231.276967 
L 137.424819 230.29071 
L 137.589196 225.195054 
L 137.881953 224.301187 
" style="fill:none;stroke:#000000;stroke-linecap:square;stroke-width:1.5;"/>
   </g>
   <g id="line2d_12">
    <path clip-path="url(#p33d236aa20)" d="M 127.538262 184.814965 
L 128.524519 178.568676 
L 129.346399 173.966153 
L 130.990158 168.870497 
L 132.46954 164.432351 
L 134.113299 160.158576 
L 134.935179 158.021684 
L 137.89395 152.597282 
L 140.030834 149.63851 
L 142.332096 146.844124 
L 145.619614 143.885353 
L 147.099004 142.077216 
L 145.290867 139.611577 
L 142.496473 136.159688 
L 139.537709 132.543415 
L 137.236448 129.584644 
L 134.606431 130.406524 
L 129.675153 133.529672 
L 127.209515 135.502179 
L 124.579498 137.310316 
L 121.29198 139.940332 
L 118.990711 142.405971 
L 116.196324 145.69349 
L 114.059433 148.159128 
L 112.251303 150.953522 
L 110.443167 154.076663 
L 108.963785 156.70668 
L 107.81315 159.007941 
L 106.826893 161.966705 
L 106.662516 164.761099 
L 106.498146 167.88424 
L 106.826893 171.007389 
L 108.141905 174.294907 
L 111.758171 173.473028 
L 114.716942 171.171759 
L 115.703192 170.021132 
L 114.881312 172.158016 
L 113.566308 173.473028 
L 111.922549 174.294907 
L 109.621287 174.95241 
L 108.306275 175.281157 
L 107.320025 176.267414 
L 106.498146 178.89743 
L 106.005014 181.691824 
L 105.018757 184.486211 
L 103.539375 187.444982 
L 102.553118 190.403746 
L 101.566861 193.855642 
L 100.909358 197.307538 
L 100.580611 200.430679 
L 100.580611 203.38945 
L 100.909358 206.676969 
L 101.40249 209.635732 
L 101.883619 215.26051 
L 103.034246 219.369909 
L 105.00676 223.31493 
L 107.801154 226.766826 
L 110.59554 228.903717 
L 114.869316 228.246207 
L 117.663709 225.944946 
L 118.814337 222.821805 
L 119.636216 219.698663 
L 119.800594 217.397395 
L 120.293726 214.603008 
L 121.115605 211.151112 
L 122.101862 209.178598 
L 123.25249 206.712959 
L 123.909992 204.576075 
L 124.567501 202.603561 
L 124.731871 200.302299 
L 125.553751 197.672283 
L 125.882506 195.699776 
L 126.540008 193.562885 
L 127.03314 191.261623 
L 127.19751 189.453486 
L 127.690643 187.152225 
L 127.538262 184.814965 
" style="fill:none;stroke:#000000;stroke-linecap:square;stroke-width:1.5;"/>
   </g>
  </g>
 </g>
 <defs>
  <clipPath id="p33d236aa20">
   <rect height="483.84" width="725.76" x="0" y="0"/>
  </clipPath>
 </defs>
</svg>
