<?xml version="1.0" encoding="utf-8" standalone="no"?>
<!DOCTYPE svg PUBLIC "-//W3C//DTD SVG 1.1//EN"
  "http://www.w3.org/Graphics/SVG/1.1/DTD/svg11.dtd">
<!-- Created with matplotlib (https://matplotlib.org/) -->
<svg height="295.92pt" version="1.1" viewBox="0 0 414.72 295.92" width="414.72pt" xmlns="http://www.w3.org/2000/svg" xmlns:xlink="http://www.w3.org/1999/xlink">
 <defs>
  <style type="text/css">
*{stroke-linecap:butt;stroke-linejoin:round;}
  </style>
 </defs>
 <g id="figure_1">
  <g><image xlink:href="../../img/cb/owlmonkey_cor_cell.json.cb-50%25.png" width="414.71999999999997px" height="295.92px"/></g>

  <g id="patch_1">
   <path d="M 0 295.92 
L 414.72 295.92 
L 414.72 0 
L 0 0 
z
" style="fill:none;"/>
  </g>
  <g id="axes_1">
   <g id="line2d_1">
    <path clip-path="url(#p11e6749d30)" d="M 104.68723 156.120162 
L 104.837757 159.461457 
L 103.604015 155.914448 
L 102.216055 152.675875 
L 101.444966 150.208391 
L 99.440135 149.128866 
L 97.435304 149.59152 
L 94.50517 151.750568 
L 92.500339 154.526488 
L 91.575032 157.148191 
L 91.72925 161.157853 
L 92.500339 165.013293 
L 94.350952 167.943431 
L 98.514828 171.49044 
L 101.290748 173.186836 
L 103.758233 174.26636 
L 104.991975 173.495271 
L 105.146193 175.808538 
L 109.772726 180.280849 
L 113.782384 182.439898 
L 121.955927 186.44956 
L 131.208989 181.051938 
L 136.298176 176.579627 
L 129.512594 182.748334 
L 126.119802 185.215818 
L 123.498104 186.44956 
L 121.955927 188.145956 
L 125.741312 190.868361 
L 130.984717 192.410538 
L 138.695606 195.186458 
L 146.252273 196.882854 
L 151.033024 197.19129 
L 158.589691 196.728636 
L 164.449967 197.345507 
L 169.539153 197.345507 
L 173.703029 197.19129 
L 178.175345 196.728636 
L 181.220294 196.074789 
L 181.159081 195.91306 
L 182.698542 195.784771 
L 185.937112 196.401642 
L 183.623845 196.710077 
L 179.768405 197.943816 
L 178.226227 199.02334 
L 177.30092 200.719736 
L 177.455138 202.878785 
L 177.892879 204.340693 
L 181.594106 205.111778 
L 187.608599 207.887698 
L 191.309822 208.967222 
L 199.534445 210.70059 
L 204.160978 212.705421 
L 208.170641 213.939164 
L 212.488734 213.939164 
L 216.344179 214.401817 
L 219.891188 214.247599 
L 223.59241 213.939164 
L 228.527379 212.859639 
L 232.228606 211.317461 
L 235.775615 209.466848 
L 238.705749 208.541546 
L 241.944322 206.999368 
L 244.411806 205.45719 
L 246.416638 204.06923 
L 247.804598 202.372834 
L 247.804598 200.213785 
L 247.958815 198.51739 
L 248.839747 197.551627 
L 248.616507 197.060503 
L 249.31857 195.305354 
L 250.196147 193.901233 
L 252.126809 192.321598 
L 254.408508 191.795052 
L 257.567778 191.268507 
L 261.07808 191.09299 
L 264.7639 191.619535 
L 267.396626 192.672629 
L 270.380383 194.778809 
L 275.821351 198.289111 
L 279.331653 199.868747 
L 282.841955 201.097351 
L 287.054316 201.097351 
L 291.091163 200.570806 
L 288.282924 201.623896 
L 284.772622 201.974927 
L 281.26232 200.921837 
L 275.996865 198.99117 
L 271.433473 195.8319 
L 266.519049 193.023656 
L 261.429112 191.619535 
L 257.392265 191.795052 
L 254.408508 192.497111 
L 251.600264 194.603292 
L 249.845115 196.533958 
L 249.625542 198.070985 
L 250.226936 199.975404 
L 251.614896 203.522413 
L 253.928162 206.298333 
L 257.629389 208.303165 
L 261.793269 209.999556 
L 266.882452 211.850169 
L 270.892114 213.700783 
L 275.518647 214.626089 
L 279.682523 214.317654 
L 281.687354 214.626089 
L 283.846403 216.939356 
L 286.15967 218.01888 
L 289.244025 219.098405 
L 293.716337 219.40684 
L 297.880217 217.710445 
L 300.347701 216.014049 
L 301.273008 212.621258 
L 301.756095 209.18128 
L 302.372966 205.634271 
L 303.760926 201.316173 
L 305.148886 198.231822 
L 305.765753 194.993249 
L 307.924802 190.212498 
L 307.153713 186.819706 
L 299.597046 179.87991 
L 294.199423 175.407595 
L 290.035548 170.472626 
L 293.428335 173.094328 
L 295.278948 173.402764 
L 297.283779 174.32807 
L 298.517521 175.561813 
L 300.368135 177.10399 
L 301.910312 178.800386 
L 306.691059 182.501613 
L 309.312762 184.814875 
L 312.2429 186.357053 
L 314.710384 185.8944 
L 320.724873 181.26787 
L 324.4261 177.258208 
L 325.968278 174.790724 
L 326.276713 170.781061 
L 326.122495 168.005146 
L 323.655011 166.925621 
L 320.724873 166.617186 
L 318.565828 165.075008 
L 315.327255 163.070177 
L 312.088682 162.761741 
L 309.158544 161.682217 
L 309.004326 159.831603 
L 311.009157 159.523168 
L 313.168206 159.677386 
L 315.789908 159.523168 
L 318.565828 159.523168 
L 321.187527 159.677386 
L 322.883922 160.602692 
L 330.286376 165.383443 
L 332.136989 164.766572 
L 337.380389 159.214732 
L 338.922567 156.130377 
L 339.539438 152.891807 
L 339.539438 149.190581 
L 338.459914 145.952007 
L 335.067127 142.404998 
L 331.520118 140.400167 
L 328.127327 138.857989 
L 325.039081 136.970404 
L 318.253499 134.965573 
L 314.398054 134.348706 
L 310.388396 133.423399 
L 305.299209 132.806528 
L 303.602814 132.960746 
L 301.7522 133.731835 
L 302.060636 136.353533 
L 301.7522 141.134284 
L 301.906418 143.447551 
L 300.36424 140.671631 
L 300.36424 139.129453 
L 300.518458 134.348706 
L 299.438934 131.572786 
L 293.578662 129.87639 
L 290.648524 130.339043 
L 288.643693 131.881221 
L 287.718387 134.348706 
L 286.638862 137.741493 
L 286.330427 139.437888 
L 286.484644 141.442719 
L 290.340089 144.989728 
L 292.653356 148.228302 
L 295.891929 152.23796 
L 293.73288 150.078911 
L 288.335258 143.447551 
L 285.250902 142.830679 
L 283.091853 143.601768 
L 281.241244 144.989728 
L 279.390631 146.686124 
L 278.156889 148.999391 
L 277.077364 152.23796 
L 276.152057 155.939187 
L 276.923146 150.078911 
L 278.156889 146.994559 
L 279.014571 145.214001 
L 280.710967 144.288694 
L 283.332669 141.666992 
L 285.491718 139.199507 
L 287.033895 135.498281 
L 287.804984 131.180187 
L 286.72546 129.021138 
L 284.720629 127.47896 
L 282.253144 126.245218 
L 279.631442 125.165693 
L 277.163958 125.628347 
L 275.62178 127.47896 
L 274.542255 129.329574 
L 272.691646 131.951276 
L 275.159126 125.011476 
L 273.925384 122.852427 
L 270.841033 121.001813 
L 267.448242 119.45964 
L 264.055451 118.07168 
L 259.89157 116.221066 
L 256.498783 114.524671 
L 252.643339 112.365622 
L 247.554152 110.206573 
L 243.390272 110.206573 
L 233.982992 109.589702 
L 228.893805 108.664395 
L 223.650405 107.893306 
L 218.407 107.276435 
L 213.009382 106.968 
L 207.920195 106.968 
L 201.134613 107.276435 
L 196.970737 107.276435 
L 192.961075 107.893306 
L 188.951413 107.893306 
L 185.712839 108.818613 
L 183.399577 110.669226 
L 181.394746 113.136711 
L 180.315221 115.604195 
L 180.932092 118.225898 
L 185.250186 120.53916 
L 187.717671 120.384942 
L 190.956244 119.922289 
L 194.349035 119.613858 
L 203.910533 120.076507 
L 207.61176 120.076507 
L 214.705774 120.693378 
L 219.332307 121.310249 
L 222.262445 121.92712 
L 226.117889 122.543991 
L 232.595032 123.31508 
L 235.987823 124.086169 
L 240.151703 124.70304 
L 246.474628 125.319911 
L 248.633677 126.245218 
L 251.101161 127.016307 
L 253.877081 128.558485 
L 257.42409 131.334405 
L 260.971095 133.801889 
L 263.592797 136.269369 
L 258.748316 133.295935 
L 254.58444 130.520019 
L 250.728996 128.36097 
L 246.102462 127.127228 
L 232.839737 125.739268 
L 229.292728 125.739268 
L 224.357764 125.58505 
L 219.422795 125.739268 
L 214.025172 125.122397 
L 206.468505 124.042872 
L 202.921497 123.888654 
L 196.444354 123.426001 
L 187.851455 121.4849 
L 184.612886 121.330682 
L 182.299619 120.251158 
L 179.832135 119.634287 
L 176.901997 119.634287 
L 173.971859 121.022247 
L 170.116415 124.723473 
L 168.111588 127.345176 
L 166.723628 129.504225 
L 164.718796 132.125927 
L 162.868183 133.976536 
L 161.01757 136.135585 
L 159.939559 136.726752 
L 160.018319 136.470778 
L 162.177363 133.849076 
L 164.49063 131.535809 
L 166.341243 128.914111 
L 167.574986 126.90928 
L 171.276212 121.511658 
L 171.43043 119.661044 
L 169.117163 119.198391 
L 166.958114 119.044173 
L 164.182194 119.044173 
L 161.714714 120.277916 
L 158.476141 121.511658 
L 156.317092 122.591182 
L 151.998994 125.675538 
L 150.148381 127.217716 
L 148.14355 127.371933 
L 144.750763 127.834587 
L 141.974843 128.914111 
L 139.815794 130.456289 
L 138.582051 131.690027 
L 137.502527 133.54064 
L 137.96518 135.545472 
L 139.815794 137.087649 
L 142.745931 138.475609 
L 145.676069 139.246698 
L 148.451985 140.48044 
L 150.148381 142.331054 
L 146.755594 140.326223 
L 144.442327 139.400916 
L 141.666407 138.475609 
L 138.890487 137.241867 
L 136.57722 137.087649 
L 133.8013 138.475609 
L 130.408513 140.943094 
L 128.095247 143.873232 
L 126.707287 147.111801 
L 127.015722 149.887721 
L 128.712118 152.509423 
L 132.104905 153.743165 
L 136.114567 154.668472 
L 139.044705 154.82269 
L 144.596545 156.21065 
L 140.586883 156.056432 
L 137.810962 155.439561 
L 134.726607 155.439561 
L 131.33382 155.285343 
L 127.632593 154.514254 
L 125.165109 152.663641 
L 124.085584 150.504592 
L 123.931367 147.574454 
L 125.165109 144.952756 
L 126.861504 142.485272 
L 128.866335 140.634658 
L 135.035042 137.087649 
L 135.960349 135.545472 
L 134.726607 134.003294 
L 132.721776 132.923769 
L 129.94586 132.923769 
L 121.188529 134.99233 
L 112.552337 137.459815 
L 105.920973 140.54417 
L 103.607706 142.857437 
L 102.219746 144.553833 
L 101.91131 147.175531 
L 102.990835 149.797233 
L 103.916142 152.881589 
L 104.68723 156.120162 
L 104.68723 156.120162 
" style="fill:none;stroke:#000000;stroke-linecap:square;stroke-width:1.5;"/>
   </g>
   <g id="line2d_2">
    <path clip-path="url(#p11e6749d30)" d="M 161.672044 151.681401 
L 165.009407 147.926867 
L 169.389697 144.79809 
L 175.43867 141.877898 
L 180.027542 140.417801 
L 187.328025 139.792043 
L 194.837094 140.00063 
L 201.928989 140.834968 
L 210.063813 141.66931 
L 219.241562 142.503652 
L 239.891499 143.755161 
L 246.357639 144.79809 
L 253.032367 146.675354 
L 257.412656 148.552621 
L 249.48642 146.46677 
L 244.063201 144.79809 
L 236.554136 144.172332 
L 223.413268 143.337994 
L 206.100694 142.086481 
L 197.96587 141.043556 
L 190.039634 140.417801 
L 182.530564 140.626385 
L 176.898766 141.877898 
L 171.475547 144.380919 
L 166.26092 147.509696 
L 161.672044 151.681401 
" style="fill:none;stroke:#000000;stroke-linecap:square;stroke-width:1.5;"/>
   </g>
   <g id="line2d_3">
    <path clip-path="url(#p11e6749d30)" d="M 240.191786 186.529597 
L 235.277362 187.407174 
L 218.778942 187.056142 
L 212.284883 187.056142 
L 207.019428 188.109233 
L 196.137494 188.986809 
L 211.758338 186.354084 
L 217.901365 186.17857 
L 224.219911 186.354084 
L 231.942574 186.17857 
L 240.191786 186.529597 
" style="fill:none;stroke:#000000;stroke-linecap:square;stroke-width:1.5;"/>
   </g>
   <g id="line2d_4">
    <path clip-path="url(#p11e6749d30)" d="M 203.509126 200.921837 
L 211.056275 203.554562 
L 214.566577 204.607653 
L 220.534091 204.958684 
L 228.958817 203.554562 
L 232.82015 202.325959 
L 236.505966 200.395292 
L 234.575299 202.150445 
L 231.76706 203.554562 
L 227.554695 204.78317 
L 222.464758 205.485229 
L 217.901365 205.485229 
L 212.460397 204.958684 
L 208.774581 203.379049 
L 203.509126 200.921837 
L 203.509126 200.921837 
" style="fill:none;stroke:#000000;stroke-linecap:square;stroke-width:1.5;"/>
   </g>
   <g id="line2d_5">
    <path clip-path="url(#p11e6749d30)" d="M 186.909609 107.494383 
L 191.381925 107.494383 
L 195.083148 106.569076 
L 199.247028 106.414859 
L 205.415739 106.260641 
L 213.126624 106.569076 
L 219.295335 106.877512 
L 225.309824 107.802819 
L 231.632753 108.728125 
L 237.338811 109.499214 
L 242.273776 109.80765 
L 245.975002 109.653432 
L 242.273776 105.797992 
L 239.343638 102.4052 
L 236.259286 99.62928 
L 233.020713 97.316014 
L 229.473704 94.540094 
L 225.772477 92.381045 
L 219.449552 91.30152 
L 212.818188 90.684653 
L 208.037441 90.993089 
L 204.64465 91.764174 
L 200.943423 92.68948 
L 199.709681 93.306352 
L 195.700019 95.002747 
L 192.153014 97.932885 
L 188.91444 100.863023 
L 186.755392 103.484725 
L 185.521649 105.335338 
L 186.13852 107.494383 
L 186.909609 107.494383 
" style="fill:none;stroke:#000000;stroke-linecap:square;stroke-width:1.5;"/>
   </g>
   <g id="line2d_6">
    <path clip-path="url(#p11e6749d30)" d="M 156.12331 205.339849 
L 153.054689 206.470392 
L 150.632093 208.892988 
L 150.470589 210.831065 
L 152.731676 211.8001 
L 156.284814 212.123113 
L 160.483979 211.315583 
L 163.714108 210.508052 
L 167.751764 208.731483 
L 170.658881 207.277923 
L 173.889006 205.501354 
L 175.827084 202.432732 
L 175.01955 200.33315 
L 172.758463 199.041102 
L 169.043816 199.202607 
L 164.360134 199.52562 
L 162.422056 200.33315 
L 161.453017 202.432732 
L 159.191931 204.047797 
L 156.769336 205.016836 
L 156.12331 205.339849 
" style="fill:none;stroke:#000000;stroke-linecap:square;stroke-width:1.5;"/>
   </g>
   <g id="line2d_7">
    <path clip-path="url(#p11e6749d30)" d="M 140.941713 209.862026 
L 144.171838 210.023531 
L 147.886485 209.862026 
L 148.855524 209.539014 
L 149.986068 207.762444 
L 151.924145 205.824366 
L 153.700715 205.339849 
L 155.800297 205.016836 
L 158.061383 204.047797 
L 159.676448 202.755745 
L 160.9685 201.786706 
L 162.099043 200.33315 
L 164.360134 199.041102 
L 167.105738 198.71809 
L 170.174359 198.556581 
L 169.043816 197.749051 
L 164.683147 197.749051 
L 161.291513 197.264529 
L 158.222892 197.103025 
L 154.023728 197.749051 
L 149.824563 197.749051 
L 144.979373 197.103025 
L 140.941713 195.972481 
L 136.742548 194.841934 
L 133.350914 193.872899 
L 129.797776 192.419339 
L 124.468068 190.481265 
L 124.629573 191.934821 
L 127.536685 193.872899 
L 131.089828 196.295494 
L 133.835436 197.587542 
L 135.773509 199.52562 
L 137.388574 201.786706 
L 137.711587 203.078758 
L 138.196105 205.824366 
L 138.680626 208.892988 
L 140.941713 209.862026 
" style="fill:none;stroke:#000000;stroke-linecap:square;stroke-width:1.5;"/>
   </g>
   <g id="line2d_8">
    <path clip-path="url(#p11e6749d30)" d="M 135.288992 216.806799 
L 136.742548 214.545708 
L 137.711587 211.315583 
L 137.550079 208.731483 
L 137.550079 206.631897 
L 137.388574 204.047797 
L 136.904053 201.302189 
L 135.127484 199.364115 
L 133.18941 197.910555 
L 131.897358 197.910555 
L 130.443802 196.456999 
L 128.828737 195.003442 
L 126.890663 193.872899 
L 125.437103 193.711391 
L 123.660534 195.164947 
L 123.499029 198.71809 
L 123.822042 201.786706 
L 124.629573 205.178341 
L 126.406142 209.539014 
L 129.15175 213.415165 
L 131.897358 216.322278 
L 135.288992 216.806799 
" style="fill:none;stroke:#000000;stroke-linecap:square;stroke-width:1.5;"/>
   </g>
   <g id="line2d_9">
    <path clip-path="url(#p11e6749d30)" d="M 85.714757 180.89772 
L 85.252103 178.584454 
L 85.097886 176.116973 
L 84.943668 173.186836 
L 84.172579 170.10248 
L 82.784619 167.634996 
L 80.471356 166.247036 
L 78.003872 166.092818 
L 75.536387 166.401253 
L 73.223121 167.943431 
L 71.835161 169.794044 
L 70.292983 172.8784 
L 70.292983 175.191667 
L 70.909854 176.888062 
L 72.297814 178.276022 
L 69.984547 176.579627 
L 68.44237 175.962756 
L 67.208627 177.196498 
L 65.820667 179.355543 
L 65.358018 181.977245 
L 65.512236 184.598947 
L 66.283321 187.683303 
L 67.517063 189.996569 
L 69.984547 190.921876 
L 71.989379 191.076094 
L 75.227952 189.996569 
L 78.003872 189.22548 
L 80.779788 189.22548 
L 83.093055 189.22548 
L 86.948499 191.847183 
L 83.247272 190.150787 
L 80.162921 190.150787 
L 78.003872 190.767658 
L 75.844823 192.155618 
L 74.919516 192.926707 
L 74.456863 194.623099 
L 75.38217 196.473712 
L 76.461694 198.01589 
L 76.924347 199.558068 
L 76.615912 201.100245 
L 77.695436 203.56773 
L 80.162921 205.418343 
L 83.093055 205.572561 
L 85.868975 204.338819 
L 87.719588 202.488205 
L 89.261766 202.025552 
L 88.644895 203.56773 
L 87.411152 205.109908 
L 86.331628 206.960521 
L 86.023192 209.273784 
L 87.256935 211.58705 
L 90.495508 213.129228 
L 92.962992 212.97501 
L 95.58469 212.512357 
L 97.897957 210.661744 
L 99.440135 208.040045 
L 100.211224 205.418343 
L 102.216055 203.413512 
L 103.604015 201.408681 
L 103.604015 199.712285 
L 102.524491 199.095414 
L 100.673877 198.01589 
L 99.902788 197.707454 
L 98.206393 196.62793 
L 100.365442 195.394188 
L 103.604015 193.080925 
L 104.375104 191.538747 
L 104.837757 189.842352 
L 104.529322 188.608609 
L 103.758233 186.44956 
L 102.832926 184.907383 
L 101.444966 183.982076 
L 99.131699 183.519423 
L 97.281086 183.827858 
L 96.664215 184.444729 
L 96.201562 185.832689 
L 96.355779 187.529085 
L 95.430477 189.688134 
L 95.276259 187.529085 
L 95.58469 186.44956 
L 95.738908 184.907383 
L 95.58469 183.519423 
L 94.350952 182.748334 
L 92.808775 184.136294 
L 94.042517 182.131463 
L 93.888299 181.051938 
L 93.888299 178.892889 
L 94.967824 176.888062 
L 96.509997 175.191667 
L 96.047344 172.724182 
L 93.425646 171.336222 
L 90.803943 170.719351 
L 88.644895 171.644658 
L 87.719588 173.341053 
L 88.028023 175.65432 
L 88.028023 177.813369 
L 88.182241 180.280849 
L 87.56537 181.977245 
L 85.714757 180.89772 
" style="fill:none;stroke:#000000;stroke-linecap:square;stroke-width:1.5;"/>
   </g>
  </g>
 </g>
 <defs>
  <clipPath id="p11e6749d30">
   <rect height="295.92" width="414.72" x="0" y="0"/>
  </clipPath>
 </defs>
</svg>
