<?xml version="1.0" encoding="utf-8" standalone="no"?>
<!DOCTYPE svg PUBLIC "-//W3C//DTD SVG 1.1//EN"
  "http://www.w3.org/Graphics/SVG/1.1/DTD/svg11.dtd">
<!-- Created with matplotlib (https://matplotlib.org/) -->
<svg height="622.08pt" version="1.1" viewBox="0 0 829.44 622.08" width="829.44pt" xmlns="http://www.w3.org/2000/svg" xmlns:xlink="http://www.w3.org/1999/xlink">
 <defs>
  <style type="text/css">
*{stroke-linecap:butt;stroke-linejoin:round;}
  </style>
 </defs>
 <g id="figure_1">
  <g><image xlink:href="../../img/cb/peccary_cor_cell.json.cb-50%25.png" width="829.4399999999999px" height="622.0799999999999px"/></g>

  <g id="patch_1">
   <path d="M 0 622.08 
L 829.44 622.08 
L 829.44 0 
L 0 0 
z
" style="fill:none;"/>
  </g>
  <g id="axes_1">
   <g id="line2d_1">
    <path clip-path="url(#p1c704e3223)" d="M 584.10268 227.843029 
L 580.792617 231.153092 
L 578.861747 236.394016 
L 578.585908 236.945693 
L 575.953009 243.873085 
L 574.310419 248.392986 
L 572.931226 252.530556 
L 576.379208 257.633569 
L 581.068455 263.150332 
L 585.481872 268.942942 
L 589.343604 275.011382 
L 594.03286 282.734854 
L 597.480833 286.320755 
L 602.03217 286.596594 
L 605.480152 283.42445 
L 606.859336 277.35601 
L 607.273094 271.5634 
L 607.411014 265.357041 
L 606.445587 260.943632 
L 603.82512 258.599004 
L 599.549623 256.254377 
L 603.549282 258.323166 
L 606.445587 259.150681 
L 608.790206 255.013103 
L 609.893561 249.910098 
L 609.755641 244.117488 
L 608.10061 237.911128 
L 605.066394 232.808115 
L 601.204654 228.118868 
L 595.96373 224.395047 
L 590.860716 223.429612 
L 587.274815 224.808805 
L 584.10268 227.843029 
" style="fill:none;stroke:#000000;stroke-linecap:square;stroke-width:1.5;"/>
   </g>
   <g id="line2d_2">
    <path clip-path="url(#p1c704e3223)" d="M 236.808935 154.696996 
L 232.512801 159.118501 
L 227.700747 167.13858 
L 225.027387 173.554647 
L 224.492714 179.43604 
L 225.027387 185.317433 
L 228.770094 189.594814 
L 231.978128 192.268173 
L 237.859521 189.06014 
L 238.394194 192.268173 
L 233.047466 197.614893 
L 227.700747 199.753587 
L 221.819354 193.337521 
L 217.541973 193.337521 
L 214.868613 201.3576 
L 212.729927 208.843014 
L 211.66058 215.793754 
L 214.868613 223.813834 
L 218.076647 229.695227 
L 222.354027 230.2299 
L 228.235421 231.299248 
L 231.443454 232.368586 
L 229.839441 239.319327 
L 231.978128 243.062034 
L 237.05751 242.52736 
L 241.602228 239.854 
L 244.008251 236.111293 
L 249.087633 232.10125 
L 254.70169 228.358543 
L 260.583091 225.685183 
L 265.929811 222.744486 
L 271.811204 219.80379 
L 277.42526 216.595756 
L 282.504643 214.45707 
L 280.633294 216.32842 
L 274.7519 219.536453 
L 268.870507 223.011823 
L 263.791125 226.219856 
L 252.83034 231.299248 
L 246.948947 235.57662 
L 243.20624 238.784653 
L 240.265544 242.52736 
L 238.126858 245.468057 
L 237.592184 248.141417 
L 239.463533 254.290147 
L 243.740914 260.438876 
L 246.414274 261.508224 
L 250.156981 260.706213 
L 254.434361 258.834864 
L 258.711734 255.359494 
L 263.256451 252.15146 
L 267.266486 249.478101 
L 271.009193 246.804733 
L 274.484564 243.864036 
L 279.296618 240.388674 
L 285.178011 233.972607 
L 288.118708 230.497237 
L 289.990057 228.091214 
L 292.930754 225.95252 
L 295.604113 222.744486 
L 298.277473 220.338463 
L 296.940797 222.209813 
L 294.534774 224.883181 
L 291.326741 228.091214 
L 289.188047 230.764574 
L 287.04936 232.90326 
L 284.376001 235.843957 
L 283.039317 238.517316 
L 282.237314 241.458013 
L 282.237314 243.062034 
L 284.338867 244.804173 
L 287.052006 245.736555 
L 289.72272 246.00273 
L 298.277473 246.00273 
L 301.21817 245.067056 
L 303.891538 243.997708 
L 302.421189 245.468057 
L 299.747821 246.537404 
L 297.074462 246.671068 
L 294.668439 247.072069 
L 291.727742 246.671068 
L 288.252372 246.671068 
L 284.910674 246.00273 
L 282.237314 244.532382 
L 280.09862 244.265045 
L 272.746879 246.804733 
L 269.405181 248.408753 
L 265.395137 251.34945 
L 261.518766 254.02281 
L 257.107721 257.364516 
L 253.097677 261.107214 
L 251.359992 263.780574 
L 251.359992 266.186605 
L 251.537227 267.517342 
L 252.442428 270.422879 
L 253.051992 273.509938 
L 255.319996 276.587941 
L 259.04599 279.503936 
L 262.93399 281.771941 
L 266.659992 284.201943 
L 269.899992 287.603941 
L 268.927996 290.357938 
L 265.201994 290.357938 
L 260.827992 288.089943 
L 257.425994 284.201943 
L 254.671996 280.799936 
L 252.241994 276.101938 
L 248.839996 267.515941 
L 246.08599 264.437938 
L 243.007996 264.113943 
L 237.985994 269.621938 
L 233.935996 275.777943 
L 231.82999 278.531941 
L 229.23799 280.637938 
L 229.723992 279.341938 
L 232.47799 276.749938 
L 236.689994 270.755941 
L 238.633994 268.325938 
L 241.387992 265.247936 
L 242.035992 262.979941 
L 241.063996 260.063936 
L 239.281994 257.147941 
L 237.01399 253.097943 
L 234.097994 249.857943 
L 230.695996 248.885938 
L 227.131992 249.695936 
L 224.70199 252.449943 
L 222.595992 255.365938 
L 220.327996 259.901938 
L 216.601994 263.627941 
L 213.03799 267.515941 
L 208.825994 270.431936 
L 206.719996 272.213938 
L 205.099992 274.967936 
L 204.127996 278.693938 
L 203.96599 282.419941 
L 203.479996 286.631936 
L 203.31799 291.329943 
L 203.479996 297.647936 
L 205.423996 302.345943 
L 207.20599 304.613938 
L 210.121994 307.691941 
L 213.847996 309.311936 
L 216.763992 310.445938 
L 215.924847 312.078799 
L 215.276847 315.966799 
L 215.114849 319.206799 
L 215.276847 323.418795 
L 216.086853 326.820793 
L 217.706849 330.708793 
L 219.974853 333.786795 
L 222.404847 335.244793 
L 226.130849 336.216797 
L 229.370849 334.758799 
L 232.772847 332.976797 
L 235.202849 330.870799 
L 236.498849 328.116793 
L 235.850849 324.390799 
L 234.068847 319.368797 
L 233.744851 318.072797 
L 236.336851 325.848797 
L 237.632851 328.602795 
L 239.414853 329.412793 
L 241.682849 329.736797 
L 244.598853 328.764793 
L 248.648851 323.904797 
L 249.782853 321.960797 
L 251.078853 320.016797 
L 252.860847 317.586795 
L 254.318853 314.346795 
L 253.508847 309.810795 
L 254.966853 313.212793 
L 256.910853 313.212793 
L 259.502853 312.240797 
L 262.904851 310.134799 
L 265.334853 307.866795 
L 266.251833 304.810192 
L 266.306849 306.570795 
L 264.848851 310.296797 
L 261.770849 312.078799 
L 256.100847 314.508793 
L 254.642849 315.642795 
L 252.374853 318.558799 
L 250.592851 321.150799 
L 248.972847 323.742799 
L 246.542853 326.982799 
L 245.570849 329.088797 
L 244.875754 330.980998 
L 245.492509 332.755569 
L 246.381113 334.597854 
L 247.676847 336.702799 
L 249.05385 338.565796 
L 249.70185 339.861796 
L 248.081846 337.998799 
L 246.46185 335.892793 
L 245.408851 333.867798 
L 242.735848 331.599794 
L 240.305846 331.7618 
L 236.903848 332.166799 
L 234.311848 332.814799 
L 231.233846 334.110799 
L 228.884847 336.2978 
L 227.588847 338.484793 
L 226.778849 340.8338 
L 226.616851 343.020793 
L 227.183848 344.964793 
L 228.155852 347.3138 
L 230.099852 349.824797 
L 232.469098 353.469796 
L 235.202849 356.021294 
L 238.483351 358.390548 
L 241.217102 359.484049 
L 245.955602 360.030799 
L 249.236103 358.572793 
L 252.334352 355.83905 
L 254.521353 353.105298 
L 257.072851 350.736045 
L 259.62435 348.549044 
L 254.3391 354.198799 
L 252.152099 357.297048 
L 252.516596 359.666293 
L 253.336722 360.759794 
L 255.979351 361.944425 
L 259.442097 363.129048 
L 264.647613 361.557143 
L 270.491009 360.019402 
L 275.411753 356.021294 
L 280.024957 352.023186 
L 283.407978 348.025078 
L 285.868346 343.104326 
L 287.098538 339.106217 
L 287.098538 336.030745 
L 284.638162 329.572261 
L 283.10043 327.419433 
L 285.868346 330.802453 
L 288.328722 332.032637 
L 294.479658 331.110001 
L 301.553239 330.802453 
L 308.011723 329.264721 
L 316.007947 328.034529 
L 324.004164 329.572261 
L 328.30982 327.111893 
L 332.923024 320.653409 
L 337.843768 318.80812 
L 342.32291 317.420517 
L 346.916407 316.347752 
L 350.606967 313.733598 
L 353.682439 315.11756 
L 352.606025 318.500581 
L 351.222063 321.729823 
L 349.223005 325.112835 
L 347.070177 327.573211 
L 345.224897 330.494905 
L 346.608859 334.185465 
L 349.069235 337.876034 
L 355.700716 340.432517 
L 364.00448 340.951498 
L 372.308244 340.951498 
L 368.156358 343.027445 
L 359.333613 342.508456 
L 351.548829 344.065414 
L 354.143757 353.926137 
L 357.776655 361.710913 
L 366.080419 370.533666 
L 375.422153 375.204533 
L 388.915773 379.8754 
L 399.814466 380.394389 
L 411.232147 378.318441 
L 424.725767 372.609605 
L 437.181409 364.824829 
L 443.409235 357.040046 
L 442.890254 347.698312 
L 437.700398 346.141353 
L 429.915615 343.027445 
L 422.130839 340.432517 
L 426.801706 340.432517 
L 435.624459 343.027445 
L 442.371265 344.065414 
L 448.599091 340.951498 
L 450.67503 333.685703 
L 449.626891 323.835149 
L 448.558431 317.383416 
L 437.700398 312.407307 
L 444.447204 309.812379 
L 451.712999 312.926288 
L 456.902855 319.154113 
L 460.535752 322.26803 
L 471.434445 321.230052 
L 478.181259 323.82498 
L 487.522993 331.609764 
L 496.345746 333.685703 
L 513.917325 336.845222 
L 527.410945 344.111017 
L 538.828618 337.883192 
L 551.284269 331.655375 
L 555.741107 329.042556 
L 551.284269 312.971898 
L 555.955135 325.427549 
L 565.815858 323.351602 
L 576.714551 316.604796 
L 589.689182 310.895959 
L 599.335876 304.668134 
L 599.851282 295.3264 
L 593.104476 282.148457 
L 582.731922 268.861724 
L 572.769551 261.494273 
L 565.913931 264.818643 
L 559.588033 274.047996 
L 560.626002 280.79481 
L 562.70195 289.098575 
L 560.107022 282.351761 
L 554.398185 277.680894 
L 549.20833 282.351761 
L 542.980504 289.098575 
L 538.828618 284.946689 
L 540.904565 280.275822 
L 547.402448 276.14949 
L 554.449544 271.944238 
L 558.290573 266.522711 
L 558.290573 261.332855 
L 553.360208 261.851844 
L 546.872892 258.737927 
L 540.126086 257.440467 
L 534.67674 256.661988 
L 528.967895 257.440467 
L 520.40464 257.440467 
L 526.113477 253.54808 
L 533.119781 252.250612 
L 537.271668 248.877204 
L 536.493189 242.389889 
L 531.822322 237.200041 
L 525.853987 229.415257 
L 530.784344 235.383593 
L 535.9742 241.092429 
L 541.942535 245.503806 
L 548.17036 249.655684 
L 554.657676 252.769601 
L 560.885501 254.06706 
L 567.372817 249.655684 
L 570.486725 241.870908 
L 570.746224 236.162063 
L 564.518398 230.193737 
L 555.955135 227.339318 
L 546.872892 223.706421 
L 541.164055 221.111493 
L 549.72731 223.187432 
L 557.771584 225.263371 
L 567.372817 229.674748 
L 573.600642 229.674748 
L 576.45506 224.225402 
L 576.45506 217.478596 
L 575.840238 212.615017 
L 577.647148 214.615526 
L 581.020555 214.875017 
L 589.064829 210.982629 
L 594.514175 202.419374 
L 595.811635 192.299153 
L 594.514175 179.84351 
L 589.58381 168.68532 
L 583.874973 162.457503 
L 579.204106 164.273951 
L 576.609179 172.058727 
L 571.678821 178.286552 
L 565.710486 180.103001 
L 560.780129 174.913145 
L 566.748456 174.134666 
L 571.159832 166.34989 
L 575.05222 159.862575 
L 577.128167 151.818301 
L 574.53324 142.995547 
L 570.960103 137.086982 
L 564.732278 130.599666 
L 557.725982 125.40981 
L 550.460187 123.333871 
L 544.232361 124.631331 
L 540.858954 126.966769 
L 542.415913 132.935095 
L 542.675403 139.162921 
L 539.561494 144.352776 
L 536.188087 148.245164 
L 536.447578 153.954001 
L 541.118445 160.181826 
L 544.491852 168.2261 
L 546.04881 176.529864 
L 541.118445 182.4982 
L 534.631129 184.833629 
L 528.662802 189.504504 
L 522.434977 188.985515 
L 522.175478 185.352618 
L 526.846353 180.422261 
L 528.662802 175.232405 
L 533.07417 172.377986 
L 535.928597 167.447621 
L 534.890619 159.922336 
L 529.700772 150.580602 
L 526.586855 141.23886 
L 529.181783 137.346472 
L 531.51722 131.897126 
L 530.479251 124.371841 
L 523.991927 117.884525 
L 517.245121 116.327567 
L 510.238816 119.441475 
L 505.82744 124.631331 
L 504.010991 131.378145 
L 504.010991 138.64394 
L 505.048969 143.314807 
L 511.017296 147.466685 
L 507.124908 145.909735 
L 502.713531 149.542632 
L 505.048969 163.555233 
L 505.308459 170.302039 
L 509.200847 175.491895 
L 511.536284 180.941241 
L 506.605919 174.453925 
L 501.675562 172.896967 
L 500.118603 175.232405 
L 499.599623 175.491895 
L 498.950884 178.735553 
L 498.691394 183.146929 
L 498.950884 188.077295 
L 499.469873 191.969683 
L 497.134436 196.381059 
L 493.890778 201.830406 
L 489.609151 201.051926 
L 491.425599 195.86207 
L 494.020527 191.320953 
L 494.799006 186.390587 
L 494.669257 180.681751 
L 494.669257 175.102655 
L 494.409767 171.340017 
L 492.982558 169.134329 
L 495.058497 169.523568 
L 497.783174 168.355849 
L 499.859113 164.852693 
L 500.897082 161.219796 
L 500.507843 156.678678 
L 499.599623 151.618571 
L 497.134436 148.893894 
L 493.631288 147.077445 
L 497.004695 144.742016 
L 499.859113 141.23886 
L 501.253883 135.594894 
L 501.837742 129.172457 
L 503.88125 123.041941 
L 505.048969 117.787215 
L 501.837742 111.36477 
L 496.583016 107.277762 
L 490.4525 108.153543 
L 488.117071 112.240559 
L 486.365493 116.327567 
L 485.489704 122.166152 
L 485.781633 128.296668 
L 485.489704 133.259464 
L 484.613915 124.793511 
L 484.613915 118.954926 
L 485.197774 112.824418 
L 487.533212 104.942325 
L 486.365493 96.76831 
L 480.526907 92.681294 
L 474.104462 93.265153 
L 468.557806 94.724802 
L 464.762728 92.389364 
L 460.96765 86.842708 
L 453.377486 82.171841 
L 444.327682 78.668693 
L 438.559474 77.744738 
L 433.304748 78.036668 
L 422.211436 80.372106 
L 416.08092 81.539824 
L 421.043717 78.912457 
L 436.807896 75.117379 
L 442.646482 72.490012 
L 444.981919 68.111075 
L 444.10613 61.10477 
L 437.975615 57.309692 
L 432.137029 54.098474 
L 426.882303 53.514614 
L 422.211436 55.850044 
L 417.832498 59.3532 
L 412.577772 62.564419 
L 416.08092 58.477411 
L 419.292147 56.725833 
L 423.671084 53.222685 
L 423.963014 49.135677 
L 419.584077 43.880951 
L 410.826194 40.669724 
L 399.440952 39.793935 
L 392.142726 38.626225 
L 384.552562 38.918146 
L 375.794688 38.626225 
L 368.788383 42.421302 
L 364.701376 49.135677 
L 363.533657 53.222685 
L 366.744875 57.893552 
L 365.285227 61.3967 
L 364.117516 66.651426 
L 363.825586 71.614223 
L 367.912594 73.657731 
L 375.210828 72.198082 
L 380.173625 72.781942 
L 386.30414 75.117379 
L 389.515359 78.328598 
L 383.384843 75.117379 
L 376.962398 73.657731 
L 371.123812 73.657731 
L 364.993297 76.868957 
L 358.27893 81.247895 
L 354.775774 84.459113 
L 349.812977 90.297699 
L 346.601759 95.260496 
L 342.806681 101.97487 
L 338.719665 106.645737 
L 328.794072 124.745354 
L 327.918283 130.58394 
L 327.042494 138.174095 
L 325.582854 141.677252 
L 326.458643 133.503229 
L 324.998994 125.621143 
L 321.203908 122.993776 
L 315.949182 119.198698 
L 308.067096 120.366417 
L 303.396229 121.826057 
L 300.185003 126.496924 
L 300.185003 130.875869 
L 301.936581 135.546736 
L 303.688159 140.801463 
L 303.688159 144.304611 
L 305.731659 148.391618 
L 307.826907 151.345569 
L 311.74451 157.337527 
L 314.197612 161.674403 
L 314.343577 166.491235 
L 314.343577 171.308067 
L 315.219366 175.687004 
L 316.679006 181.379625 
L 318.138654 185.758571 
L 315.803217 179.77402 
L 312.737963 170.578243 
L 311.862174 161.966333 
L 309.964639 158.31722 
L 304.126054 152.624599 
L 302.374475 149.559337 
L 302.52044 144.304611 
L 302.374475 139.341814 
L 301.060792 134.962877 
L 297.849573 128.102537 
L 294.173031 126.087935 
L 289.940058 126.379857 
L 282.203938 130.612837 
L 277.824992 131.780548 
L 273.30009 133.824056 
L 269.796942 137.035283 
L 267.899399 140.976325 
L 266.439759 145.063333 
L 267.169575 149.7342 
L 268.337294 153.967172 
L 270.380801 156.886469 
L 273.88395 158.054188 
L 278.262887 155.134891 
L 275.489563 158.200153 
L 276.073422 162.28716 
L 277.970957 168.563641 
L 279.284641 172.066789 
L 283.517613 172.212754 
L 288.334453 174.402226 
L 292.421461 178.489234 
L 294.902855 183.014136 
L 292.567426 185.495539 
L 287.166734 184.619749 
L 283.955508 179.656953 
L 279.430606 176.591691 
L 275.051668 176.445726 
L 272.570266 178.343269 
L 273.30009 174.110297 
L 271.694485 167.687852 
L 268.191329 164.330668 
L 264.250286 164.62259 
L 259.579419 166.520133 
L 255.784333 169.293465 
L 255.200482 164.62259 
L 253.302939 158.929977 
L 254.032763 153.237356 
L 255.346447 147.544735 
L 252.719079 145.793157 
L 245.712775 147.544735 
L 241.187873 151.485778 
L 236.808935 154.696996 
L 236.808935 154.696996 
" style="fill:none;stroke:#000000;stroke-linecap:square;stroke-width:1.5;"/>
   </g>
   <g id="line2d_3">
    <path clip-path="url(#p1c704e3223)" d="M 478.278668 155.693477 
L 476.077807 150.875377 
L 475.54247 146.592621 
L 475.007125 143.559002 
L 473.401088 138.562456 
L 471.438161 133.744355 
L 461.801959 120.896089 
L 458.41144 114.650397 
L 454.485585 109.296959 
L 449.132138 105.371095 
L 443.778692 103.586613 
L 439.495937 103.051268 
L 435.391635 103.229722 
L 430.930426 105.371095 
L 426.647671 109.653851 
L 421.472678 114.650397 
L 416.654578 116.434879 
L 405.590794 118.754707 
L 400.058902 120.360743 
L 393.634764 121.966772 
L 387.745981 123.037462 
L 377.752879 126.784872 
L 370.614951 134.2797 
L 365.083059 139.633138 
L 361.514103 141.952966 
L 357.945139 144.629693 
L 354.019275 147.127967 
L 349.914965 149.62624 
L 345.98911 152.481405 
L 341.706354 156.585714 
L 335.639117 161.225369 
L 339.208081 157.477959 
L 342.598591 154.444341 
L 345.275318 150.696931 
L 350.271865 148.377103 
L 356.696002 144.629693 
L 359.729621 142.309866 
L 364.190822 138.681414 
L 368.949435 134.993492 
L 375.730464 127.736597 
L 379.418395 125.595223 
L 385.128741 123.810741 
L 390.363212 121.907292 
L 397.144249 120.47971 
L 403.09252 118.933153 
L 408.327 117.386604 
L 408.802858 117.148671 
L 414.989062 114.531439 
L 417.606302 112.390057 
L 421.413191 111.676266 
L 425.458021 109.059026 
L 429.026986 105.490062 
L 430.216635 101.44524 
L 426.885604 98.828 
L 420.461475 96.686618 
L 413.56148 95.496969 
L 407.6132 96.448693 
L 396.668383 98.590067 
L 391.671836 100.731449 
L 386.913223 103.348688 
L 380.964944 106.917644 
L 389.530455 100.731449 
L 393.81321 99.065925 
L 399.285623 96.686618 
L 404.995969 95.734894 
L 410.468374 94.307311 
L 416.892511 95.496969 
L 432.120084 97.638342 
L 437.354563 99.303858 
L 443.540767 100.017649 
L 449.013172 99.065925 
L 454.485585 98.590067 
L 459.006273 97.876276 
L 460.909722 102.159031 
L 462.813162 105.727995 
L 465.668335 108.345235 
L 462.813162 111.438333 
L 461.623513 115.721088 
L 464.240753 121.193501 
L 467.571784 125.71419 
L 471.140748 129.521079 
L 473.044189 135.231417 
L 475.423504 140.941763 
L 476.613153 148.079691 
L 477.564877 153.076238 
L 478.278668 155.693477 
" style="fill:none;stroke:#000000;stroke-linecap:square;stroke-width:1.5;"/>
   </g>
   <g id="line2d_4">
    <path clip-path="url(#p1c704e3223)" d="M 455.043234 148.97936 
L 456.498702 154.274256 
L 457.176247 157.887827 
L 459.208881 161.049711 
L 463.500005 164.437434 
L 468.016978 167.825157 
L 471.178853 172.567978 
L 471.856397 176.859102 
L 472.75979 181.827763 
L 472.985639 185.441343 
L 471.630549 180.020977 
L 471.178853 175.504005 
L 469.597915 171.438737 
L 465.758487 167.147612 
L 460.33813 163.308193 
L 454.014372 160.146318 
L 448.368158 157.436131 
L 442.496096 156.081042 
L 435.043105 156.081042 
L 428.719346 156.532738 
L 423.073133 157.661979 
L 416.523526 158.565372 
L 411.780713 158.339524 
L 407.715437 159.468765 
L 398.907348 160.372166 
L 389.195867 163.082345 
L 383.549653 164.437434 
L 377.677599 166.24422 
L 372.483082 168.276862 
L 366.61102 170.083648 
L 361.642359 172.793826 
L 356.221994 174.374764 
L 351.027485 175.729853 
L 346.058816 178.214192 
L 342.671093 185.893039 
L 343.574485 180.472674 
L 347.188057 176.407398 
L 353.511815 173.923067 
L 359.609725 173.019674 
L 363.674993 170.083648 
L 369.772904 168.276862 
L 374.741564 166.470068 
L 381.517019 164.211586 
L 386.937385 161.727255 
L 395.519625 160.146318 
L 403.650169 158.565372 
L 413.587499 157.210283 
L 421.718043 156.758586 
L 430.977829 155.629345 
L 439.560069 155.403497 
L 447.464765 154.048408 
L 455.043234 148.97936 
" style="fill:none;stroke:#000000;stroke-linecap:square;stroke-width:1.5;"/>
   </g>
   <g id="line2d_5">
    <path clip-path="url(#p1c704e3223)" d="M 467.339425 207.574485 
L 463.048309 206.219396 
L 459.434729 203.057521 
L 455.143613 200.79903 
L 451.078337 197.637155 
L 440.68931 191.313397 
L 435.494801 189.732459 
L 421.492195 188.829066 
L 417.201071 190.184156 
L 413.361651 190.410004 
L 411.329017 188.37737 
L 409.084154 187.332043 
L 407.037893 187.699825 
L 400.939991 189.054914 
L 394.390384 189.506611 
L 387.614929 191.313397 
L 374.289868 195.378673 
L 367.514421 197.863003 
L 360.061422 201.702423 
L 354.866905 204.864306 
L 350.34994 208.929574 
L 347.865602 211.639761 
L 351.930878 206.219396 
L 356.67369 202.831672 
L 363.449145 199.443941 
L 370.450448 195.830369 
L 377.000055 194.023584 
L 384.678902 191.313397 
L 391.680197 189.506611 
L 398.229804 188.603218 
L 404.327714 187.473977 
L 409.973928 186.570584 
L 414.942589 185.441343 
L 419.685409 187.248129 
L 426.686712 188.151522 
L 433.236311 188.829066 
L 440.68931 188.37737 
L 446.109676 188.829066 
L 451.078337 192.668486 
L 454.691916 196.733762 
L 457.627943 200.573182 
L 462.82246 203.735065 
L 467.339425 207.574485 
" style="fill:none;stroke:#000000;stroke-linecap:square;stroke-width:1.5;"/>
   </g>
   <g id="line2d_6">
    <path clip-path="url(#p1c704e3223)" d="M 443.27752 248.836769 
L 440.73342 251.126463 
L 444.040745 246.801489 
L 446.839251 240.441244 
L 446.839251 234.335404 
L 444.040745 229.501619 
L 438.18932 225.939879 
L 421.652667 223.141365 
L 415.546836 223.395779 
L 408.932176 223.395779 
L 401.554282 222.632545 
L 395.702857 224.413419 
L 389.342611 226.703105 
L 383.745592 230.010439 
L 376.367698 232.300124 
L 370.770687 235.09863 
L 366.445713 239.423604 
L 365.936893 244.25739 
L 369.753047 251.380869 
L 366.954533 249.091183 
L 363.647207 242.985344 
L 364.919253 237.897144 
L 370.770687 233.06335 
L 378.148572 229.501619 
L 385.272052 226.957519 
L 393.158757 223.141365 
L 399.010182 221.869319 
L 405.116022 221.614905 
L 410.713042 220.851679 
L 417.327701 221.360499 
L 424.451181 221.614905 
L 433.10112 223.141365 
L 440.2246 225.176645 
L 447.093665 230.264845 
L 448.620125 236.11627 
L 445.821611 243.23975 
L 443.27752 248.836769 
" style="fill:none;stroke:#000000;stroke-linecap:square;stroke-width:1.5;"/>
   </g>
   <g id="line2d_7">
    <path clip-path="url(#p1c704e3223)" d="M 446.812311 134.815038 
L 445.384729 134.815038 
L 441.994218 134.458146 
L 438.425254 134.458146 
L 434.142499 134.101246 
L 424.684743 134.815038 
L 419.152851 135.528837 
L 414.513196 136.777974 
L 410.051995 137.670211 
L 405.412348 139.633138 
L 399.880447 140.703829 
L 403.984757 139.097793 
L 408.089067 137.848656 
L 412.371822 136.421074 
L 416.476132 135.350383 
L 421.651124 134.993492 
L 426.826125 134.2797 
L 431.465772 133.922801 
L 440.209736 133.922801 
L 443.957146 134.2797 
L 446.812311 134.815038 
" style="fill:none;stroke:#000000;stroke-linecap:square;stroke-width:1.5;"/>
   </g>
   <g id="line2d_8">
    <path clip-path="url(#p1c704e3223)" d="M 412.493916 303.280498 
L 410.204222 303.534903 
L 405.879256 303.280498 
L 401.045462 303.789318 
L 396.211677 305.824597 
L 391.886711 308.114283 
L 388.833791 309.131923 
L 392.141117 306.842237 
L 398.246957 303.789318 
L 403.080742 302.771678 
L 408.423356 302.771678 
L 412.493916 303.280498 
L 412.493916 303.280498 
" style="fill:none;stroke:#000000;stroke-linecap:square;stroke-width:1.5;"/>
   </g>
   <g id="line2d_9">
    <path clip-path="url(#p1c704e3223)" d="M 345.170685 60.319008 
L 338.301611 69.763974 
L 332.291182 80.067577 
L 327.139381 90.371179 
L 327.139381 101.533418 
L 334.867082 105.826582 
L 340.877511 98.957517 
L 343.453412 91.229815 
L 352.03975 83.502114 
L 359.767452 77.491676 
L 363.201989 68.04671 
L 363.201989 59.460372 
L 361.484724 50.015406 
L 352.898386 54.308571 
L 345.170685 60.319008 
" style="fill:none;stroke:#000000;stroke-linecap:square;stroke-width:1.5;"/>
   </g>
   <g id="line2d_10">
    <path clip-path="url(#p1c704e3223)" d="M 208.72058 245.131047 
L 204.992728 249.73604 
L 202.79988 255.218165 
L 201.703451 261.358153 
L 203.019167 268.155986 
L 204.992728 271.664551 
L 210.036288 267.71742 
L 215.079847 263.112435 
L 219.026978 258.946017 
L 222.316255 253.244604 
L 222.535542 247.76247 
L 218.807699 241.84177 
L 208.72058 245.131047 
" style="fill:none;stroke:#000000;stroke-linecap:square;stroke-width:1.5;"/>
   </g>
  </g>
 </g>
 <defs>
  <clipPath id="p1c704e3223">
   <rect height="622.08" width="829.44" x="0" y="0"/>
  </clipPath>
 </defs>
</svg>
