<?xml version="1.0" encoding="utf-8" standalone="no"?>
<!DOCTYPE svg PUBLIC "-//W3C//DTD SVG 1.1//EN"
  "http://www.w3.org/Graphics/SVG/1.1/DTD/svg11.dtd">
<!-- Created with matplotlib (https://matplotlib.org/) -->
<svg height="486pt" version="1.1" viewBox="0 0 518.4 486" width="518.4pt" xmlns="http://www.w3.org/2000/svg" xmlns:xlink="http://www.w3.org/1999/xlink">
 <defs>
  <style type="text/css">
*{stroke-linecap:butt;stroke-linejoin:round;}
  </style>
 </defs>
 <g id="figure_1">
  <g><image xlink:href="../../img/cb/pig_cor_cell.json.cb-50%25.png" width="518.4px" height="486.0px"/></g>

  <g id="patch_1">
   <path d="M 0 486 
L 518.4 486 
L 518.4 0 
L 0 0 
z
" style="fill:none;"/>
  </g>
  <g id="axes_1">
   <g id="line2d_1">
    <path clip-path="url(#p78be1a3138)" d="M 176.905928 252.435715 
L 178.091862 257.73525 
L 174.902836 252.093135 
L 173.430979 249.885347 
L 169.996647 250.130659 
L 171.959122 248.168184 
L 172.695053 246.941634 
L 172.94036 242.526063 
L 172.449741 239.827662 
L 170.977884 238.601112 
L 169.015409 237.865186 
L 166.317007 238.601112 
L 163.373293 240.072968 
L 166.807626 237.129255 
L 168.770102 235.166779 
L 169.506028 232.958996 
L 169.996647 230.996521 
L 169.506028 228.052807 
L 168.034171 226.826257 
L 166.071695 226.335638 
L 164.599838 226.335638 
L 161.410818 228.298114 
L 158.957723 230.996521 
L 156.014009 233.940234 
L 157.485866 231.732446 
L 159.448342 229.524664 
L 164.599838 225.3544 
L 166.317007 223.391924 
L 166.071695 221.674761 
L 165.826388 218.731047 
L 165.090457 216.523259 
L 163.373293 216.277952 
L 159.693649 217.749809 
L 156.995247 219.221666 
L 154.051534 220.693523 
L 149.635963 221.674761 
L 148.164106 222.655999 
L 146.692249 224.373162 
L 146.937556 228.298114 
L 147.673487 231.977758 
L 146.692249 230.26059 
L 145.956318 227.316876 
L 145.711011 224.863781 
L 144.239155 223.391924 
L 142.276679 224.373162 
L 137.861108 226.090331 
L 135.408014 226.826257 
L 133.936157 227.807495 
L 133.936157 231.732446 
L 134.426776 234.921472 
L 135.653321 237.865186 
L 138.842346 239.827662 
L 142.521986 241.299518 
L 145.956318 243.261994 
L 150.862508 246.205708 
L 146.692249 244.243232 
L 143.012605 242.771375 
L 140.314203 241.544825 
L 138.842346 241.299518 
L 136.87987 239.827662 
L 134.672083 237.619874 
L 133.690845 234.67616 
L 132.218988 229.279352 
L 130.256512 227.807495 
L 127.558111 228.052807 
L 124.614397 228.052807 
L 122.161302 229.034045 
L 121.425371 231.241827 
L 121.91599 235.657398 
L 123.14254 240.072968 
L 125.595635 243.507301 
L 127.312798 245.469777 
L 126.576873 247.432253 
L 127.558111 250.866585 
L 130.992443 252.583754 
L 139.087653 253.564992 
L 141.050129 255.772775 
L 142.031367 258.9618 
L 145.465699 260.433657 
L 147.673487 259.207107 
L 150.126582 257.244631 
L 153.560915 256.018087 
L 148.900032 259.452419 
L 147.673487 261.905514 
L 149.145344 264.849228 
L 151.353127 266.321085 
L 155.032771 265.830466 
L 157.240554 265.830466 
L 161.901437 268.528867 
L 158.221792 267.792941 
L 154.787459 267.547629 
L 151.353127 267.792941 
L 148.164106 268.528867 
L 148.409413 267.05701 
L 147.918794 264.603916 
L 146.692249 262.886752 
L 144.97508 261.414895 
L 143.012605 259.943038 
L 141.050129 259.452419 
L 137.615796 264.358609 
L 140.068891 259.452419 
L 139.823584 257.244631 
L 138.351727 255.527468 
L 136.87987 254.54623 
L 133.936157 254.055611 
L 130.992443 254.54623 
L 129.520586 256.018087 
L 128.784655 254.055611 
L 126.331561 252.093135 
L 123.387847 252.093135 
L 125.350323 249.885347 
L 125.840942 248.658803 
L 125.105016 245.960396 
L 124.123778 243.99792 
L 122.651921 241.790137 
L 121.670683 239.58235 
L 121.670683 237.374567 
L 120.689445 232.468377 
L 118.72697 229.769971 
L 116.764494 230.015283 
L 113.82078 230.505902 
L 111.612992 231.732446 
L 109.895829 231.977758 
L 109.159898 234.430853 
L 110.141135 237.619874 
L 111.122373 242.771375 
L 112.839542 246.941634 
L 111.122373 243.99792 
L 107.933353 238.110493 
L 107.197422 235.412091 
L 105.970877 233.204303 
L 103.027163 232.958996 
L 100.08345 233.694922 
L 97.630355 234.185541 
L 95.17726 235.90271 
L 92.478853 237.619874 
L 91.252309 240.318281 
L 92.478853 243.99792 
L 95.17726 246.451015 
L 98.8569 249.149422 
L 101.064688 250.621278 
L 102.045925 254.055611 
L 103.517782 259.697726 
L 106.952115 260.678964 
L 109.650516 260.678964 
L 110.631754 258.471181 
L 110.631754 261.660202 
L 112.839542 263.377371 
L 116.519182 265.339847 
L 119.217588 266.566391 
L 120.934752 268.528867 
L 124.123778 270.246036 
L 129.275274 272.699131 
L 125.840942 272.944438 
L 121.91599 272.208512 
L 119.708207 270.981962 
L 117.50042 270.000724 
L 115.047325 269.264798 
L 112.348923 270.000724 
L 111.367685 267.547629 
L 108.669279 265.585154 
L 105.234946 265.339847 
L 102.536544 265.585154 
L 100.328757 267.792941 
L 100.328757 261.660202 
L 99.592831 258.471181 
L 97.630355 255.036849 
L 95.913186 253.31968 
L 93.95071 249.885347 
L 91.988234 246.941634 
L 89.780452 245.22447 
L 86.346119 244.979158 
L 83.402406 245.960396 
L 80.949311 248.41349 
L 80.21338 250.866585 
L 80.458692 254.055611 
L 81.194618 257.73525 
L 84.138331 262.886752 
L 87.572664 269.510105 
L 84.62895 269.019486 
L 82.911787 266.566391 
L 80.949311 263.377371 
L 79.722761 260.924276 
L 77.760285 258.716488 
L 75.061884 257.489944 
L 73.344715 258.716488 
L 71.627551 260.188345 
L 70.89162 263.377371 
L 69.910382 266.321085 
L 71.136932 276.133463 
L 74.325953 280.549034 
L 78.005597 283.983367 
L 80.703999 283.002129 
L 84.138331 282.51151 
L 87.327357 281.530272 
L 91.742928 281.530272 
L 95.667879 282.266198 
L 103.517782 284.473985 
L 94.196022 283.983367 
L 91.497616 285.209911 
L 88.799214 286.191149 
L 85.610188 286.436461 
L 82.666475 287.172387 
L 80.458692 288.398937 
L 83.402406 291.097339 
L 86.591426 294.531671 
L 92.478853 297.475385 
L 95.17726 296.494147 
L 98.366281 295.02229 
L 101.555306 293.305126 
L 100.819375 296.24884 
L 102.291232 297.720697 
L 106.706803 297.966004 
L 110.877066 298.947242 
L 120.689445 299.437861 
L 120.934752 296.003528 
L 120.198826 293.795745 
L 119.708207 290.852032 
L 120.934752 288.153625 
L 121.425371 292.078577 
L 121.425371 295.02229 
L 121.91599 298.211316 
L 123.14254 300.419099 
L 127.558111 300.909718 
L 130.747131 299.683173 
L 132.709607 296.003528 
L 134.181464 292.814508 
L 134.917395 289.870794 
L 134.426776 294.041052 
L 133.200226 297.475385 
L 131.728369 300.173792 
L 131.483062 301.890955 
L 139.578272 303.853431 
L 141.050129 305.325288 
L 138.842346 306.061219 
L 135.898633 305.5706 
L 133.200226 304.589362 
L 129.520586 303.117505 
L 122.161302 301.645649 
L 118.972276 300.664411 
L 111.858304 299.92848 
L 107.688041 300.173792 
L 104.253708 301.890955 
L 101.309994 305.5706 
L 98.366281 308.269002 
L 96.649117 312.684572 
L 96.649117 316.118905 
L 99.102212 319.30793 
L 103.517782 322.251644 
L 107.933353 325.931284 
L 111.367685 325.931284 
L 114.311399 319.062618 
L 117.009801 317.836074 
L 118.972276 320.043856 
L 120.934752 324.21412 
L 124.614397 326.912522 
L 127.067492 327.893759 
L 130.011205 324.459427 
L 132.218988 321.515713 
L 133.936157 316.118905 
L 132.709607 322.006332 
L 130.992443 325.195358 
L 128.784655 327.40314 
L 128.784655 330.592166 
L 130.747131 334.026499 
L 132.4643 335.988975 
L 135.653321 336.970212 
L 140.55951 335.743663 
L 143.503224 333.781187 
L 144.239155 332.064023 
L 141.295441 331.328092 
L 143.993843 330.837473 
L 146.937556 330.837473 
L 148.164106 327.893759 
L 149.145344 323.232882 
L 148.654725 321.025094 
L 147.182868 317.590762 
L 145.465699 314.156429 
L 148.164106 318.326693 
L 149.88127 322.496951 
L 149.88127 325.931284 
L 148.654725 328.874997 
L 146.692249 332.064023 
L 144.97508 333.781187 
L 147.673487 336.7249 
L 144.97508 335.498356 
L 142.767298 335.253044 
L 136.143939 337.706138 
L 135.408014 340.649852 
L 137.370489 343.593566 
L 139.823584 346.537279 
L 143.083636 348.214925 
L 149.219361 348.221042 
L 153.389625 348.956974 
L 157.314576 348.466355 
L 160.012978 347.485117 
L 162.220766 345.522641 
L 162.466073 343.314853 
L 162.466073 340.616451 
L 161.975454 339.144595 
L 159.522359 336.6915 
L 162.711385 339.389902 
L 164.673861 340.371139 
L 169.089431 336.6915 
L 171.051907 334.238405 
L 171.542526 331.294692 
L 173.014383 331.78531 
L 171.787833 333.993093 
L 169.58005 336.200881 
L 167.372262 338.899283 
L 165.164479 342.333615 
L 165.900405 345.032022 
L 167.862881 347.239805 
L 173.259689 348.221042 
L 177.429953 347.239805 
L 181.109593 345.767948 
L 183.072068 342.824234 
L 184.789237 339.88052 
L 185.770475 336.200881 
L 186.751713 333.257167 
L 188.22357 330.313454 
L 190.186046 327.860359 
L 192.884447 325.407264 
L 196.564092 324.426026 
L 199.753112 322.954169 
L 200.73435 319.765144 
L 204.413995 318.04798 
L 208.338947 317.312049 
L 212.999824 316.085504 
L 222.076277 313.877716 
L 231.152725 310.934003 
L 236.058914 310.198077 
L 242.050825 308.887354 
L 248.183559 307.66081 
L 253.82568 306.188953 
L 259.467795 303.981165 
L 263.638059 303.490546 
L 269.034867 304.226477 
L 274.676982 305.207715 
L 284.734673 307.906116 
L 294.30174 309.623285 
L 299.698548 310.359211 
L 304.114119 310.604523 
L 309.756239 312.321687 
L 322.26702 314.284163 
L 327.173209 316.246639 
L 327.90914 318.699733 
L 324.720115 324.587161 
L 323.49357 328.757424 
L 323.002951 333.418302 
L 324.474808 338.079184 
L 329.626304 340.286967 
L 338.212138 343.475993 
L 338.212138 338.81511 
L 337.476207 336.607327 
L 339.438683 340.04166 
L 339.929302 342.740062 
L 344.099566 343.966611 
L 350.2323 343.966611 
L 354.454248 342.862368 
L 358.388437 340.895164 
L 359.860294 339.177995 
L 359.369675 335.988975 
L 357.897818 329.856235 
L 355.935343 327.157834 
L 354.218174 326.176596 
L 350.783841 325.195358 
L 347.59482 324.950046 
L 337.53713 323.723501 
L 342.198012 323.232882 
L 347.104202 324.21412 
L 351.765079 324.704739 
L 355.935343 325.931284 
L 358.143125 328.139071 
L 359.369675 331.573404 
L 360.350913 337.95145 
L 362.313389 341.385783 
L 365.502409 342.367021 
L 370.899218 342.612328 
L 375.805407 341.876402 
L 379.730359 340.159233 
L 380.956909 338.196757 
L 380.956909 335.743663 
L 379.23974 333.53588 
L 376.786645 329.856235 
L 374.824169 327.157834 
L 373.107006 323.968808 
L 372.616387 321.761025 
L 372.861694 319.30793 
L 374.33355 323.968808 
L 376.786645 328.139071 
L 378.994433 331.328092 
L 381.202216 334.271806 
L 384.636548 337.215519 
L 388.5615 335.988975 
L 390.769288 334.026499 
L 393.467689 331.082785 
L 394.694239 328.139071 
L 392.97707 327.40314 
L 395.430165 326.667215 
L 397.392641 324.459427 
L 398.128572 321.761025 
L 398.128572 319.062618 
L 396.902022 317.100143 
L 393.958308 316.364217 
L 390.523975 315.873598 
L 388.806812 314.647048 
L 385.617786 310.722096 
L 383.65531 306.306526 
L 387.825574 311.703334 
L 391.505213 314.647048 
L 396.166096 314.89236 
L 399.10981 314.89236 
L 401.808211 313.911122 
L 404.997237 312.929884 
L 407.695639 311.703334 
L 410.884664 314.89236 
L 416.281473 316.854836 
L 423.150138 316.364217 
L 427.565708 315.137667 
L 431.981279 313.420503 
L 434.434374 310.47679 
L 435.415611 307.533076 
L 435.170299 305.079981 
L 433.698443 302.626886 
L 432.226586 301.400336 
L 431.735967 298.456623 
L 431.000041 296.003528 
L 429.037565 293.795745 
L 425.848539 292.569195 
L 422.414207 293.305126 
L 420.451731 295.512909 
L 419.225186 298.701935 
L 419.225186 301.890955 
L 418.489255 304.834669 
L 416.281473 306.551838 
L 414.809616 307.042457 
L 411.865902 306.551838 
L 410.394045 304.589362 
L 409.412807 302.136267 
L 407.940951 299.92848 
L 406.714401 297.230078 
L 406.223782 294.286364 
L 407.450332 291.83327 
L 409.658114 288.644244 
L 413.828378 286.681768 
L 418.489255 287.172387 
L 422.414207 286.191149 
L 423.640757 284.473985 
L 422.904826 283.002129 
L 421.187662 281.775579 
L 417.017398 282.756817 
L 414.318997 283.247436 
L 410.394045 284.473985 
L 406.714401 284.719292 
L 403.280068 285.209911 
L 400.091047 286.191149 
L 394.939546 289.870794 
L 393.222382 291.342651 
L 390.523975 291.587958 
L 387.825574 291.097339 
L 392.97707 289.870794 
L 396.166096 287.908318 
L 396.902022 285.945842 
L 396.166096 283.247436 
L 395.184858 281.28496 
L 393.713001 279.322484 
L 388.5615 277.360008 
L 385.617786 275.642844 
L 381.938147 271.472581 
L 387.825574 275.642844 
L 390.769288 276.37877 
L 393.713001 277.850627 
L 396.656715 278.095939 
L 398.619191 278.095939 
L 401.562904 276.133463 
L 399.10981 279.077177 
L 397.637953 280.549034 
L 398.128572 283.002129 
L 399.845735 284.719292 
L 407.695639 284.228673 
L 412.356521 283.002129 
L 415.300235 281.530272 
L 415.790854 279.322484 
L 417.508017 281.530272 
L 421.923588 281.039653 
L 424.621995 278.831865 
L 425.603233 277.360008 
L 429.282872 275.642844 
L 436.887468 271.472581 
L 441.057727 269.510105 
L 444.737371 267.302322 
L 447.435773 263.377371 
L 447.435773 255.282156 
L 446.699847 251.111897 
L 444.737371 246.696327 
L 442.774896 245.22447 
L 441.057727 249.149422 
L 438.359325 253.31968 
L 435.170299 258.471181 
L 431.735967 260.678964 
L 430.018803 259.943038 
L 428.546946 256.754013 
L 427.075089 254.055611 
L 425.848539 253.074373 
L 422.659519 256.263394 
L 419.470493 258.471181 
L 416.281473 259.697726 
L 413.092447 259.697726 
L 417.998636 257.489944 
L 421.923588 253.564992 
L 424.621995 250.130659 
L 426.829777 246.696327 
L 428.792253 248.904109 
L 431.000041 253.074373 
L 432.962517 256.263394 
L 435.90623 253.810299 
L 438.359325 249.885347 
L 439.831182 246.451015 
L 441.548346 240.072968 
L 442.038965 234.67616 
L 441.303039 230.26059 
L 437.868706 226.335638 
L 435.90623 224.863781 
L 432.226586 222.901305 
L 428.546946 221.920068 
L 427.075089 224.618474 
L 425.603233 227.807495 
L 424.621995 230.26059 
L 421.187662 231.732446 
L 415.300235 234.921472 
L 411.62059 238.110493 
L 410.148733 241.054206 
L 407.940951 242.035444 
L 405.487856 243.752613 
L 403.034761 245.960396 
L 401.562904 248.41349 
L 400.091047 251.357204 
L 399.10981 253.810299 
L 391.995832 256.999325 
L 396.902022 253.31968 
L 398.864498 251.357204 
L 400.091047 248.658803 
L 401.562904 246.451015 
L 404.261306 243.016682 
L 406.714401 240.808899 
L 409.903426 238.355805 
L 411.865902 235.90271 
L 413.828378 233.940234 
L 417.017398 232.223065 
L 418.979874 230.015283 
L 421.678281 228.298114 
L 424.621995 225.599712 
L 426.093852 221.920068 
L 425.357921 218.976354 
L 419.715805 217.013878 
L 414.318997 216.03264 
L 410.639352 215.787333 
L 408.186257 216.768571 
L 407.695639 219.957592 
L 407.450332 226.090331 
L 406.469094 222.901305 
L 406.469094 218.976354 
L 405.978475 216.277952 
L 403.52538 215.296714 
L 399.600429 215.051402 
L 396.656715 216.277952 
L 395.675477 217.25919 
L 395.920784 221.429449 
L 396.902022 229.279352 
L 398.373879 231.241827 
L 396.411403 231.977758 
L 394.20362 234.185541 
L 391.750525 237.129255 
L 389.052119 241.054206 
L 386.108405 244.243232 
L 384.145929 248.904109 
L 379.730359 252.583754 
L 382.674072 248.41349 
L 384.636548 245.22447 
L 387.825574 240.808899 
L 391.014594 236.883948 
L 393.467689 233.449615 
L 395.430165 231.241827 
L 395.675477 228.298114 
L 395.430165 225.599712 
L 394.448927 217.995116 
L 393.467689 216.03264 
L 390.278669 216.03264 
L 387.334955 216.277952 
L 384.391241 217.013878 
L 383.164691 218.485735 
L 383.164691 225.599712 
L 382.919384 228.052807 
L 383.164691 230.996521 
L 382.183453 228.298114 
L 378.994433 227.562188 
L 376.296026 227.316876 
L 372.125768 227.071569 
L 369.91798 228.298114 
L 368.200816 231.48714 
L 367.955504 235.412091 
L 368.446123 237.129255 
L 372.125768 238.110493 
L 375.069481 239.337043 
L 372.371075 238.601112 
L 369.427361 238.355805 
L 367.710197 239.827662 
L 365.747721 242.035444 
L 365.257102 244.243232 
L 365.993028 245.469777 
L 367.219578 246.451015 
L 365.747721 247.186946 
L 364.521171 248.658803 
L 365.01179 251.602516 
L 367.464885 255.036849 
L 363.049315 251.111897 
L 360.59622 250.375966 
L 357.407199 251.111897 
L 355.199412 251.847823 
L 354.463486 254.791537 
L 355.69003 257.73525 
L 353.482248 256.018087 
L 349.311984 257.73525 
L 352.255698 255.282156 
L 353.972867 253.074373 
L 353.972867 252.829061 
L 354.218174 249.64004 
L 348.821365 245.22447 
L 353.482248 248.658803 
L 356.425961 249.394728 
L 359.124363 249.394728 
L 362.313389 248.168184 
L 364.275865 245.960396 
L 364.275865 243.016682 
L 363.049315 241.299518 
L 360.59622 239.827662 
L 352.50101 238.110493 
L 357.652506 238.846424 
L 361.82277 239.827662 
L 365.01179 240.318281 
L 366.974266 238.110493 
L 367.710197 235.166779 
L 366.974266 232.713684 
L 364.275865 231.732446 
L 360.841532 231.241827 
L 357.161887 230.505902 
L 360.841532 230.015283 
L 363.539934 230.996521 
L 366.728959 229.769971 
L 368.691435 228.052807 
L 370.163292 225.599712 
L 372.616387 226.090331 
L 375.805407 226.335638 
L 379.730359 226.335638 
L 382.183453 224.373162 
L 382.428766 221.184142 
L 381.938147 217.995116 
L 379.485052 216.523259 
L 374.33355 215.787333 
L 368.936742 214.315476 
L 365.993028 213.088927 
L 359.124363 211.126451 
L 356.91658 210.881144 
L 354.954105 211.862382 
L 354.218174 215.296714 
L 354.954105 218.240428 
L 356.671268 220.202904 
L 354.708793 219.712285 
L 352.010391 222.655999 
L 353.236936 218.976354 
L 353.482248 216.277952 
L 352.746317 213.579545 
L 353.697094 210.786816 
L 351.97993 208.333721 
L 348.545597 206.861864 
L 342.65817 205.144701 
L 341.922239 206.371245 
L 340.695694 204.40877 
L 338.242599 203.182225 
L 335.053574 203.182225 
L 334.317648 205.390007 
L 335.298886 209.069652 
L 337.016049 212.503985 
L 339.714456 215.938317 
L 341.186313 219.617957 
L 341.43162 223.297601 
L 340.941001 226.731934 
L 339.959763 232.374049 
L 339.959763 227.46786 
L 340.450382 224.524146 
L 340.695694 221.335126 
L 339.959763 218.391412 
L 337.75198 214.711767 
L 335.298886 211.277435 
L 334.317648 207.843102 
L 333.091098 204.163463 
L 330.638003 199.747892 
L 327.694289 197.294797 
L 323.769338 197.049485 
L 320.089698 198.521342 
L 317.881911 200.72913 
L 317.391292 204.163463 
L 319.108461 206.861864 
L 321.316243 208.579033 
L 323.524031 212.258673 
L 327.939602 220.353888 
L 324.995888 216.183624 
L 322.7881 212.503985 
L 321.316243 209.560271 
L 318.617842 207.107176 
L 316.410054 206.861864 
L 314.69289 208.333721 
L 313.956959 212.503985 
L 312.730414 216.428936 
L 312.485102 221.089814 
L 313.956959 224.769458 
L 316.410054 228.939717 
L 320.335005 229.920955 
L 324.505269 230.166267 
L 327.203671 231.392811 
L 328.920839 234.091218 
L 326.713052 231.88343 
L 324.01465 230.411574 
L 321.561555 230.411574 
L 319.599079 231.392811 
L 318.617842 233.600599 
L 319.353767 236.78962 
L 320.335005 239.978646 
L 321.316243 241.450502 
L 323.033412 242.922359 
L 326.222433 243.658285 
L 323.769338 244.884835 
L 323.278719 247.092618 
L 323.033412 251.508188 
L 322.7881 248.073856 
L 322.297481 244.884835 
L 321.316243 242.43174 
L 317.881911 235.317763 
L 317.881911 232.619361 
L 317.145985 230.411574 
L 315.183509 227.958479 
L 312.730414 225.260077 
L 310.032007 224.524146 
L 306.842987 225.505384 
L 303.653961 227.222553 
L 302.427416 229.430336 
L 304.880511 235.808382 
L 305.861749 239.733334 
L 305.616437 242.677047 
L 303.163342 248.319168 
L 302.918035 251.262881 
L 303.653961 252.489426 
L 301.200866 253.225357 
L 297.766534 253.715976 
L 291.388488 254.942521 
L 287.78581 254.643502 
L 282.634313 255.134121 
L 273.312554 255.134121 
L 268.161052 255.379428 
L 262.764244 255.379428 
L 258.348673 255.134121 
L 252.951865 255.870047 
L 245.286123 255.962815 
L 243.875417 256.360666 
L 238.233296 256.851285 
L 232.345869 256.605978 
L 230.371061 256.893773 
L 227.426735 256.325586 
L 225.690992 256.211289 
L 224.005347 256.360666 
L 221.552252 255.62474 
L 220.816327 252.681027 
L 219.589777 249.98262 
L 218.11792 247.529525 
L 216.400756 245.812361 
L 215.174206 243.849886 
L 213.947661 240.906172 
L 211.739873 238.207765 
L 208.550853 235.509364 
L 206.343065 235.264052 
L 204.871208 236.490602 
L 203.644663 238.207765 
L 202.663426 240.906172 
L 201.436876 243.359267 
L 200.70095 246.057668 
L 200.210331 251.454477 
L 200.455638 256.605978 
L 199.719712 253.907571 
L 199.229093 248.020144 
L 199.965019 245.812361 
L 200.946257 242.132717 
L 202.908732 239.434315 
L 204.135282 236.245289 
L 204.380589 234.037507 
L 202.663426 233.301576 
L 200.455638 233.546888 
L 198.002543 234.773433 
L 195.304141 236.490602 
L 192.851047 240.906172 
L 193.586973 237.962458 
L 195.304141 235.264052 
L 198.002543 232.810957 
L 201.682188 232.075031 
L 205.361827 228.886005 
L 206.343065 225.451673 
L 206.097758 222.753271 
L 205.361827 217.60177 
L 203.154045 214.412749 
L 201.191569 212.69558 
L 199.229093 211.714342 
L 197.266617 212.69558 
L 194.813522 214.903368 
L 192.851047 217.356463 
L 191.869809 220.545483 
L 190.643259 226.92353 
L 190.643259 223.489197 
L 191.869809 219.564245 
L 193.832285 214.658056 
L 196.775998 211.714342 
L 198.983781 209.261248 
L 198.493162 206.808153 
L 197.757236 204.355058 
L 196.040067 201.166038 
L 193.341666 199.203562 
L 189.416714 200.1848 
L 186.718307 201.656657 
L 185.24645 202.883201 
L 185.24645 206.072227 
L 186.227688 209.261248 
L 184.755832 213.676818 
L 185.24645 210.733104 
L 184.755832 207.789391 
L 183.774594 204.60037 
L 182.05743 203.128513 
L 179.849642 203.37382 
L 177.151241 205.336296 
L 174.698146 208.28001 
L 173.716908 209.261248 
L 170.282575 210.978416 
L 168.810718 212.204961 
L 167.338862 214.167437 
L 166.602931 216.375225 
L 167.584169 222.507959 
L 169.056025 225.206366 
L 171.999739 225.942292 
L 174.698146 224.715747 
L 178.132478 222.998578 
L 180.094954 223.24389 
L 178.377785 223.979816 
L 176.170003 224.470435 
L 173.226289 225.942292 
L 171.50912 228.150079 
L 170.773194 230.357862 
L 169.791956 234.528126 
L 170.527882 236.735908 
L 172.980977 238.943696 
L 174.698146 239.189003 
L 177.151241 237.962458 
L 180.094954 235.264052 
L 178.623097 237.226527 
L 176.170003 239.434315 
L 174.452834 241.151479 
L 173.962215 242.623336 
L 173.471596 245.07643 
L 175.188765 249.492001 
L 176.905928 252.435715 
L 176.905928 252.435715 
" style="fill:none;stroke:#000000;stroke-linecap:square;stroke-width:1.5;"/>
   </g>
   <g id="line2d_2">
    <path clip-path="url(#p78be1a3138)" d="M 202.562835 199.017632 
L 207.041034 198.3459 
L 212.190959 197.674173 
L 217.564797 196.778533 
L 222.042991 195.882894 
L 227.416829 194.987254 
L 233.014574 194.763341 
L 238.836232 196.106801 
L 245.777437 197.002441 
L 254.733828 197.226353 
L 263.242405 197.89808 
L 273.766164 198.121993 
L 282.050828 197.226353 
L 287.424666 197.226353 
L 292.126772 197.45026 
L 298.172337 197.674173 
L 306.233095 198.121993 
L 311.606927 199.465452 
L 314.517759 198.79372 
L 315.413399 196.778533 
L 314.517759 193.867702 
L 312.502567 190.732968 
L 310.263468 188.046049 
L 307.352642 185.135223 
L 303.546175 184.01567 
L 298.84407 183.343943 
L 294.365871 183.120031 
L 285.8573 181.104844 
L 280.259549 179.985292 
L 276.453083 179.761385 
L 272.198797 178.865745 
L 267.496691 178.194012 
L 262.122853 177.522285 
L 257.868567 176.850558 
L 253.614281 176.402738 
L 249.35999 176.626646 
L 245.777437 176.850558 
L 242.194878 177.522285 
L 238.1645 177.298378 
L 233.686301 177.746198 
L 229.208108 178.194012 
L 224.506002 179.089652 
L 219.579984 179.761385 
L 215.997425 180.433112 
L 213.310506 179.985292 
L 209.05622 180.433112 
L 206.593214 181.776571 
L 204.130202 184.46349 
L 202.338923 188.046049 
L 201.219376 190.509055 
L 200.995468 194.091614 
L 201.667196 198.569813 
L 202.562835 199.017632 
" style="fill:none;stroke:#000000;stroke-linecap:square;stroke-width:1.5;"/>
   </g>
   <g id="line2d_3">
    <path clip-path="url(#p78be1a3138)" d="M 312.054747 201.032819 
L 308.472194 199.68936 
L 304.441815 199.465452 
L 301.307076 199.465452 
L 298.39625 200.137179 
L 296.381058 200.808912 
L 291.231132 200.361092 
L 287.648574 199.913272 
L 283.6182 200.361092 
L 280.483462 200.361092 
L 276.900903 200.137179 
L 272.646617 199.913272 
L 267.496691 199.24154 
L 262.122853 199.017632 
L 257.644655 198.79372 
L 252.942549 198.569813 
L 248.912171 198.3459 
L 244.881797 198.79372 
L 241.075326 199.017632 
L 238.612319 198.569813 
L 236.597133 197.45026 
L 232.566754 196.778533 
L 227.864648 197.226353 
L 223.38645 197.674173 
L 219.356071 198.3459 
L 215.773518 198.121993 
L 212.638779 198.3459 
L 209.05622 199.017632 
L 206.369301 199.68936 
L 202.786743 201.480639 
L 200.323736 204.167558 
L 199.652009 207.078384 
L 200.323736 209.093571 
L 201.891108 211.33267 
L 204.354115 213.12395 
L 205.921481 216.034781 
L 206.593214 218.497788 
L 207.712761 222.304254 
L 210.175767 223.647713 
L 213.086599 225.6629 
L 219.132164 226.55854 
L 225.625549 226.782452 
L 231.895027 226.782452 
L 239.060139 226.334632 
L 246.896984 225.886812 
L 253.614281 225.438993 
L 262.794586 226.11072 
L 268.392331 226.334632 
L 276.005263 226.334632 
L 283.394288 226.334632 
L 287.648574 227.006359 
L 293.022412 227.230272 
L 297.50061 226.55854 
L 301.754896 223.871626 
L 303.546175 222.304254 
L 306.680914 220.960794 
L 308.696101 217.826055 
L 310.263468 214.691322 
L 311.38302 211.556583 
L 312.72648 208.421844 
L 314.069939 205.734925 
L 313.846027 203.271918 
L 312.054747 201.032819 
" style="fill:none;stroke:#000000;stroke-linecap:square;stroke-width:1.5;"/>
   </g>
   <g id="line2d_4">
    <path clip-path="url(#p78be1a3138)" d="M 241.795731 309.26363 
L 239.485637 309.985533 
L 236.598014 311.573724 
L 234.14354 313.017535 
L 231.833446 314.894485 
L 229.667732 316.049538 
L 227.790776 317.204585 
L 226.49135 319.947823 
L 225.625062 323.124199 
L 225.769442 325.578678 
L 225.625062 328.033152 
L 224.614394 330.487631 
L 223.748112 332.653345 
L 226.058206 332.797725 
L 229.378967 332.797725 
L 225.625062 333.664013 
L 223.892491 334.81906 
L 222.44868 337.562298 
L 223.170588 341.171824 
L 226.49135 345.358868 
L 232.266585 348.67963 
L 237.464302 350.412205 
L 242.373254 350.989729 
L 245.694016 350.989729 
L 250.602968 353.299823 
L 256.378209 354.021726 
L 260.565253 353.732967 
L 263.019732 352.433535 
L 265.041062 351.422868 
L 272.837637 352.000391 
L 279.33478 353.299823 
L 284.676872 353.299823 
L 289.730209 352.57792 
L 293.484114 350.700964 
L 297.815543 349.112773 
L 301.280685 347.091439 
L 304.312687 344.059441 
L 306.767161 340.883059 
L 307.777828 337.995442 
L 308.210972 335.685348 
L 308.066587 333.808392 
L 306.334017 332.220201 
L 304.312687 332.220201 
L 299.692494 333.086489 
L 294.783541 333.230869 
L 301.136305 331.787057 
L 303.590779 330.487631 
L 306.045257 328.321916 
L 307.200305 326.011822 
L 307.344684 323.412964 
L 307.055925 320.236582 
L 305.467734 317.782108 
L 303.157635 315.03887 
L 300.125638 313.306294 
L 298.104303 313.017535 
L 296.949256 311.862488 
L 295.072305 310.563056 
L 291.895923 309.696774 
L 287.564494 308.830486 
L 284.388113 307.964203 
L 281.067351 306.953536 
L 276.880302 305.942868 
L 272.837637 304.932201 
L 269.372491 304.354677 
L 265.61859 303.777154 
L 262.875347 303.632774 
L 259.265826 304.210298 
L 255.223157 305.798489 
L 250.314204 307.242295 
L 245.549636 308.541727 
L 241.795731 309.26363 
" style="fill:none;stroke:#000000;stroke-linecap:square;stroke-width:1.5;"/>
   </g>
   <g id="line2d_5">
    <path clip-path="url(#p78be1a3138)" d="M 251.180492 324.568011 
L 250.602968 324.71239 
L 253.634971 323.124199 
L 255.223162 322.402296 
L 256.378209 321.680393 
L 257.100112 321.10287 
L 257.822015 320.669726 
L 257.533256 319.514679 
L 256.666968 319.225914 
L 255.078777 318.359627 
L 257.100112 317.782103 
L 259.265826 317.782103 
L 261.864685 318.215247 
L 264.174779 318.504011 
L 267.062397 318.359627 
L 270.816302 317.926488 
L 269.372496 318.79277 
L 268.073064 319.947823 
L 269.083731 320.380961 
L 271.538205 320.669726 
L 273.992684 320.669726 
L 276.880302 320.95849 
L 279.33478 320.669726 
L 281.644874 321.10287 
L 277.024681 321.824773 
L 273.270781 321.536014 
L 268.217444 321.536014 
L 263.597255 321.391629 
L 260.132109 321.680393 
L 256.811348 322.691061 
L 254.645633 323.557343 
L 251.180492 324.568011 
" style="fill:none;stroke:#000000;stroke-linecap:square;stroke-width:1.5;"/>
   </g>
   <g id="line2d_6">
    <path clip-path="url(#p78be1a3138)" d="M 227.653468 254.60102 
L 228.149509 255.05844 
L 229.647468 255.379428 
L 235.780202 255.870047 
L 240.644095 255.480936 
L 246.328512 254.39819 
L 256.14089 252.926334 
L 259.575223 252.926334 
L 268.651671 253.662265 
L 278.954669 253.907571 
L 288.767048 253.662265 
L 296.862263 252.435715 
L 300.541902 251.454477 
L 302.013759 249.492001 
L 302.994997 246.793599 
L 304.221547 244.831124 
L 304.712166 242.378029 
L 304.712166 240.170241 
L 304.466854 237.717146 
L 303.730928 235.264052 
L 302.504378 232.56565 
L 300.296595 230.603174 
L 297.843501 229.131317 
L 293.182618 228.640698 
L 288.276429 229.376624 
L 285.578027 228.395386 
L 281.162457 227.904767 
L 276.256267 227.659461 
L 270.859459 227.659461 
L 265.46265 227.168842 
L 259.575223 226.92353 
L 254.178415 226.678223 
L 247.30975 226.92353 
L 242.40356 227.414148 
L 238.723915 227.659461 
L 234.308345 227.904767 
L 227.194373 227.659461 
L 222.042871 227.414148 
L 216.891375 226.92353 
L 213.702349 226.432911 
L 210.758636 227.904767 
L 210.268017 230.603174 
L 211.985186 235.509364 
L 215.664825 242.132717 
L 218.11792 246.30298 
L 220.571014 249.246694 
L 225.231897 253.171646 
L 227.653468 254.60102 
" style="fill:none;stroke:#000000;stroke-linecap:square;stroke-width:1.5;"/>
   </g>
   <g id="line2d_7">
    <path clip-path="url(#p78be1a3138)" d="M 212.190959 178.417925 
L 216.669158 179.537472 
L 220.699531 178.865745 
L 226.297276 177.746198 
L 231.895027 176.850558 
L 237.71668 175.507099 
L 242.642698 175.283186 
L 248.016536 174.611459 
L 255.629468 174.835366 
L 260.555486 175.283186 
L 265.481499 175.507099 
L 273.542257 177.522285 
L 280.931281 178.865745 
L 289.215946 180.880932 
L 298.172337 182.224391 
L 301.530989 181.328751 
L 304.217903 179.313565 
L 304.217903 176.626646 
L 302.426623 173.715819 
L 299.963617 170.357168 
L 296.604971 167.894161 
L 292.798505 164.983335 
L 288.992033 161.176869 
L 286.305119 157.59431 
L 285.185567 154.683484 
L 283.394288 150.429193 
L 280.707369 145.50318 
L 278.244362 142.144528 
L 274.885716 137.666335 
L 271.750977 134.307684 
L 267.944511 131.396857 
L 263.914133 128.933851 
L 259.659847 127.814299 
L 255.405561 128.038211 
L 252.046909 128.709938 
L 248.240443 129.82949 
L 245.105705 131.17295 
L 242.194878 133.188137 
L 239.284052 135.651143 
L 236.149313 139.457609 
L 233.014574 143.7119 
L 230.327655 146.174907 
L 227.640736 149.981373 
L 225.625549 154.011751 
L 224.28209 156.474758 
L 223.38645 159.161677 
L 221.819083 161.624689 
L 224.058182 163.415963 
L 228.312468 162.968143 
L 231.895027 162.520323 
L 235.9254 162.296416 
L 240.851419 162.296416 
L 245.329617 162.520323 
L 248.912171 162.968143 
L 253.838189 163.415963 
L 259.659847 164.311603 
L 265.257592 165.207242 
L 256.972928 164.535515 
L 251.823002 164.087695 
L 246.896984 163.415963 
L 243.090518 163.192056 
L 239.284052 163.192056 
L 235.9254 163.192056 
L 233.238481 163.192056 
L 229.208108 163.415963 
L 225.401637 163.863783 
L 221.595171 163.863783 
L 218.908252 164.983335 
L 215.997425 166.550702 
L 214.430058 169.013714 
L 212.414867 171.252808 
L 211.519227 173.715819 
L 211.071407 176.402738 
L 212.190959 178.417925 
" style="fill:none;stroke:#000000;stroke-linecap:square;stroke-width:1.5;"/>
   </g>
   <g id="line2d_8">
    <path clip-path="url(#p78be1a3138)" d="M 189.526423 346.49475 
L 194.366879 345.668332 
L 198.026737 344.251612 
L 201.214358 343.189074 
L 204.520034 341.300112 
L 205.936754 339.175035 
L 205.818693 337.286074 
L 205.228396 335.515178 
L 204.047797 333.272035 
L 202.631077 331.501139 
L 200.505995 329.848298 
L 198.380918 328.313518 
L 195.547478 327.959342 
L 192.832099 328.195458 
L 190.588962 328.90382 
L 189.054181 330.438601 
L 187.637462 332.091436 
L 186.929104 333.744277 
L 186.338802 335.633238 
L 185.748505 337.522194 
L 185.158203 339.293095 
L 184.331786 341.063997 
L 183.741483 342.480711 
L 183.859544 344.605793 
L 184.685962 345.786392 
L 187.28328 346.376689 
L 189.526423 346.49475 
" style="fill:none;stroke:#000000;stroke-linecap:square;stroke-width:1.5;"/>
   </g>
  </g>
 </g>
 <defs>
  <clipPath id="p78be1a3138">
   <rect height="486" width="518.4" x="0" y="0"/>
  </clipPath>
 </defs>
</svg>
