<?xml version="1.0" encoding="utf-8" standalone="no"?>
<!DOCTYPE svg PUBLIC "-//W3C//DTD SVG 1.1//EN"
  "http://www.w3.org/Graphics/SVG/1.1/DTD/svg11.dtd">
<!-- Created with matplotlib (https://matplotlib.org/) -->
<svg height="612.72pt" version="1.1" viewBox="0 0 828.72 612.72" width="828.72pt" xmlns="http://www.w3.org/2000/svg" xmlns:xlink="http://www.w3.org/1999/xlink">
 <defs>
  <style type="text/css">
*{stroke-linecap:butt;stroke-linejoin:round;}
  </style>
 </defs>
 <g id="figure_1">
  <g><image xlink:href="../../img/cb/pigmacaque_cor_cell.json.cb-50%25.png" width="828.7199999999999px" height="612.72px"/></g>

  <g id="patch_1">
   <path d="M 0 612.72 
L 828.72 612.72 
L 828.72 0 
L 0 0 
z
" style="fill:none;"/>
  </g>
  <g id="axes_1">
   <g id="line2d_1">
    <path clip-path="url(#pb180bf04ca)" d="M 237.008484 435.293003 
L 237.699122 435.049973 
L 237.826032 435.303793 
L 239.302231 436.337132 
L 241.664158 436.92762 
L 245.207044 437.5181 
L 248.60231 437.5181 
L 251.407088 437.37048 
L 253.621394 437.5181 
L 254.654733 437.22286 
L 255.688081 436.189512 
L 257.3119 434.122834 
L 256.72142 435.599033 
L 254.949973 437.81334 
L 256.5738 438.994299 
L 259.083347 439.584778 
L 261.297645 439.437158 
L 263.069092 439.141919 
L 264.545291 438.403819 
L 265.431011 436.92762 
L 265.57863 435.599033 
L 266.759598 436.78 
L 266.169118 438.699059 
L 264.988151 440.322886 
L 263.364332 441.946705 
L 262.183365 442.537184 
L 260.559546 441.503845 
L 258.492859 441.060985 
L 255.245221 439.141919 
L 254.211874 438.256199 
L 253.030915 437.960959 
L 251.554716 438.256199 
L 250.373748 438.846679 
L 248.749929 439.880018 
L 248.15945 440.765746 
L 249.045169 442.832424 
L 250.373748 446.52293 
L 251.259468 454.494429 
L 252.145195 459.661134 
L 254.064254 462.61354 
L 257.16428 466.451665 
L 259.821446 469.404071 
L 261.888125 471.47075 
L 264.102432 472.208849 
L 262.773852 472.946957 
L 260.854786 474.275536 
L 259.821446 476.637463 
L 259.969066 480.327968 
L 260.411926 483.132746 
L 264.397671 485.494673 
L 268.826276 487.56136 
L 274.731089 488.004219 
L 281.66924 487.41374 
L 286.245465 486.380392 
L 288.459772 484.756573 
L 290.67407 482.985126 
L 291.855038 480.623208 
L 291.11693 478.556521 
L 289.788351 476.046975 
L 287.426424 474.127916 
L 285.212126 472.651717 
L 283.293059 472.061229 
L 282.70258 470.88027 
L 281.96448 469.994551 
L 278.864454 470.289791 
L 281.52162 469.108832 
L 281.96448 467.927864 
L 281.226381 465.418326 
L 279.159694 461.432572 
L 277.240635 457.446827 
L 276.059668 453.608701 
L 276.059668 450.065816 
L 275.912048 447.408657 
L 276.354908 444.899111 
L 277.535875 444.456251 
L 278.126355 446.67055 
L 277.978735 450.213435 
L 278.273974 454.346801 
L 279.012074 457.299207 
L 280.488281 459.808753 
L 283.293059 464.975458 
L 283.588299 467.927864 
L 285.064506 470.289791 
L 289.640731 474.570776 
L 291.412178 476.785083 
L 292.445517 479.294621 
L 294.512196 482.394647 
L 297.907462 484.608954 
L 302.483695 486.675632 
L 308.240879 487.56136 
L 312.079005 486.675632 
L 313.407592 484.166094 
L 313.555212 481.213688 
L 312.521864 474.423156 
L 311.045665 471.32313 
L 309.569466 468.813583 
L 308.536119 468.075484 
L 307.20754 467.337385 
L 305.583713 466.894525 
L 302.926555 466.894525 
L 305.731341 466.008806 
L 305.288473 464.089739 
L 305.288473 461.284952 
L 304.993233 458.627794 
L 303.664654 455.970628 
L 301.597967 453.018222 
L 299.236049 450.803915 
L 297.021742 448.294377 
L 294.807436 445.489591 
L 298.350321 448.294377 
L 302.926555 453.018222 
L 305.731341 456.708727 
L 306.61706 458.627794 
L 307.05992 461.137332 
L 307.6504 462.908779 
L 311.045665 462.3183 
L 308.978979 463.499259 
L 308.093259 465.123078 
L 308.831359 466.599285 
L 310.307566 468.075484 
L 311.193285 469.994551 
L 312.226625 471.91361 
L 314.588551 471.32313 
L 312.817104 472.651717 
L 313.555212 474.570776 
L 313.702832 476.785083 
L 314.145691 479.589861 
L 314.440931 485.051813 
L 318.279057 486.675632 
L 324.626729 487.41374 
L 327.874375 486.085152 
L 330.826773 483.280366 
L 332.893459 479.442241 
L 329.202954 475.456495 
L 331.56488 477.227942 
L 333.779179 478.113662 
L 336.141105 477.966042 
L 338.060164 475.161255 
L 340.126851 471.61837 
L 341.60305 468.665964 
L 342.636397 465.713566 
L 343.079257 463.351639 
L 342.341157 461.432572 
L 340.56971 460.103993 
L 335.698246 458.775414 
L 333.336319 459.218274 
L 330.974401 460.842093 
L 328.317234 462.3183 
L 326.545787 464.237358 
L 325.217208 464.975458 
L 328.760094 461.580192 
L 330.974401 460.251613 
L 332.893459 458.923034 
L 337.174445 457.742067 
L 337.322064 456.118248 
L 336.510731 454.223595 
L 335.329772 452.304536 
L 334.296424 449.49975 
L 333.558325 448.318783 
L 330.458299 448.318783 
L 328.096381 448.171163 
L 325.882074 448.171163 
L 322.782048 447.728303 
L 320.715369 446.842584 
L 314.662937 442.118739 
L 318.796302 444.628277 
L 321.601089 446.104484 
L 324.258255 447.285443 
L 327.801141 447.580683 
L 332.229746 447.433063 
L 335.329772 446.252104 
L 337.54407 444.185417 
L 339.463137 441.971119 
L 341.529816 440.347292 
L 344.334602 437.394886 
L 345.072701 435.771067 
L 346.548909 433.999628 
L 342.858403 433.26152 
L 339.020278 433.55676 
L 341.382196 432.818661 
L 344.186982 432.966281 
L 346.844148 433.26152 
L 349.206075 432.818661 
L 352.306093 431.490082 
L 354.668019 430.309114 
L 357.915665 428.980535 
L 361.015691 427.947196 
L 365.149057 427.061477 
L 360.720452 428.832915 
L 358.506145 429.866255 
L 355.848979 430.751982 
L 354.22516 432.080561 
L 352.306093 433.26152 
L 350.091794 433.852 
L 348.320347 434.737728 
L 347.139388 435.918687 
L 345.810809 437.985374 
L 344.777462 439.166333 
L 342.710783 441.233019 
L 340.644096 442.561599 
L 338.429798 444.628277 
L 336.363111 446.399724 
L 335.477392 448.466411 
L 335.920251 450.533089 
L 336.658351 452.304536 
L 337.39645 454.518835 
L 338.577418 456.733141 
L 339.020278 458.35696 
L 341.529816 460.276027 
L 344.334602 459.833167 
L 347.139388 457.914101 
L 349.648935 457.028381 
L 352.748961 455.404554 
L 357.472806 451.123569 
L 358.653765 446.990204 
L 363.22999 444.037797 
L 365.001437 442.561599 
L 367.068124 441.233019 
L 371.791968 437.542506 
L 369.134802 440.347292 
L 366.625256 442.561599 
L 364.558577 444.037797 
L 361.310931 446.547344 
L 359.687104 448.023543 
L 359.096624 449.94261 
L 358.358525 451.271189 
L 356.882326 453.190256 
L 356.882326 454.814075 
L 358.506145 455.404554 
L 361.606171 455.995042 
L 371.791968 454.814075 
L 377.696773 453.485495 
L 381.977766 451.566429 
L 384.192064 449.20451 
L 386.849231 446.547344 
L 387.73495 443.742558 
L 388.03019 440.347292 
L 388.03019 437.837754 
L 386.390476 434.024034 
L 384.914277 432.104975 
L 382.699971 430.185908 
L 380.928532 429.300189 
L 378.714225 428.857329 
L 376.499927 428.56209 
L 375.02372 427.823982 
L 374.8761 426.347783 
L 374.58086 424.871584 
L 373.399901 423.542997 
L 372.071313 422.362037 
L 370.299875 420.59059 
L 368.823676 420.147731 
L 367.052229 417.933432 
L 369.414155 418.376292 
L 371.923694 418.966772 
L 375.02372 420.738219 
L 380.190432 426.052543 
L 382.257111 428.56209 
L 384.176178 430.481148 
L 387.128584 433.728794 
L 389.047643 435.352621 
L 390.67147 436.38596 
L 391.704809 437.56692 
L 391.409569 440.076466 
L 391.261949 443.471732 
L 391.557189 446.866998 
L 392.000049 449.524156 
L 394.952455 452.033702 
L 399.52868 454.100389 
L 405.728732 456.757547 
L 411.699403 459.004787 
L 417.456595 460.628606 
L 423.804267 462.252433 
L 429.413831 462.400053 
L 438.861529 459.300027 
L 443.142515 457.380968 
L 447.57112 456.052381 
L 452.442585 453.985703 
L 455.69023 452.361875 
L 459.380736 450.295197 
L 461.004563 448.81899 
L 461.004563 446.161823 
L 460.856943 443.504665 
L 460.561704 440.699879 
L 460.561704 437.895093 
L 460.118844 435.533166 
L 458.642637 434.499827 
L 455.83785 434.056967 
L 449.637807 434.352207 
L 446.242541 435.090306 
L 443.290135 435.385546 
L 440.337728 435.976034 
L 436.647223 436.566514 
L 433.842436 436.861754 
L 430.004311 437.452233 
L 420.261381 437.747473 
L 415.242288 437.599853 
L 410.961303 437.747473 
L 408.008897 437.599853 
L 405.499351 437.599853 
L 402.399333 437.156993 
L 399.742166 437.009373 
L 398.856447 436.418894 
L 403.580292 436.418894 
L 407.713657 436.861754 
L 416.866116 436.861754 
L 427.937632 436.566514 
L 439.009149 435.090306 
L 445.356821 434.056967 
L 449.342567 433.614108 
L 453.771172 433.318868 
L 457.756917 433.614108 
L 461.004563 431.695041 
L 463.66173 429.037883 
L 465.137929 427.118816 
L 467.831302 425.223773 
L 469.017507 423.157484 
L 470.788954 420.943178 
L 471.969913 418.581251 
L 472.708012 417.695532 
L 475.955658 417.547912 
L 479.941404 418.433631 
L 484.665257 419.171739 
L 482.15571 420.057458 
L 480.384263 420.352698 
L 478.169965 420.943178 
L 476.398518 421.976517 
L 474.627079 423.895584 
L 472.183399 427.742229 
L 471.15006 431.432734 
L 471.15006 436.008967 
L 472.478639 439.404225 
L 474.250078 441.766152 
L 479.121551 445.751897 
L 482.664437 447.523344 
L 485.173975 447.523344 
L 487.535901 448.261444 
L 490.045448 449.294783 
L 491.964507 449.737642 
L 493.735954 448.851923 
L 494.916913 448.704303 
L 497.278839 449.442403 
L 499.050278 452.394809 
L 497.426459 450.91861 
L 495.950252 450.032882 
L 494.474053 449.737642 
L 492.997854 450.62337 
L 492.112126 451.951949 
L 494.178813 453.871008 
L 498.607418 457.413893 
L 502.150304 458.742481 
L 506.726529 461.104399 
L 511.450382 463.909185 
L 514.698028 465.680632 
L 517.207566 465.090153 
L 518.536154 463.023466 
L 519.864733 459.6282 
L 520.012353 455.347215 
L 519.126633 451.21385 
L 517.355186 445.899517 
L 513.074201 446.489996 
L 516.174227 445.309037 
L 517.650426 444.570938 
L 517.355186 441.913772 
L 516.764707 438.223266 
L 514.993268 435.861339 
L 512.778961 434.38514 
L 510.269415 433.204181 
L 508.202736 433.351801 
L 505.84081 434.089901 
L 502.740784 435.713719 
L 504.069371 433.647041 
L 504.95509 432.023214 
L 505.10271 430.104155 
L 503.774131 428.037468 
L 502.150304 426.26603 
L 499.936006 425.38031 
L 497.131219 424.494583 
L 501.855064 425.38031 
L 504.659851 426.708889 
L 506.431289 428.332708 
L 508.202736 428.627948 
L 509.826555 427.742229 
L 508.940836 429.366056 
L 509.974175 431.432734 
L 512.926581 433.204181 
L 516.026607 435.41848 
L 518.240914 436.008967 
L 520.602832 435.12324 
L 523.301451 433.466488 
L 525.958617 432.137909 
L 528.763404 430.956941 
L 531.568182 429.185502 
L 534.372968 428.595023 
L 538.801573 428.152155 
L 536.882514 429.480742 
L 534.520588 430.956941 
L 532.011041 431.842661 
L 529.206263 433.023628 
L 524.48241 434.647447 
L 520.496665 436.861754 
L 520.053805 438.633192 
L 520.201425 441.880838 
L 521.234773 445.571344 
L 521.087144 448.81899 
L 521.234773 452.214256 
L 521.677632 456.200001 
L 521.382392 459.742887 
L 521.677632 462.252433 
L 525.072898 461.661954 
L 529.353883 460.038127 
L 534.815828 457.233349 
L 538.506333 454.280942 
L 542.049219 451.033296 
L 545.149245 446.604691 
L 547.068312 443.061806 
L 548.544511 439.66654 
L 551.644537 434.499827 
L 554.301703 431.547421 
L 552.530256 434.942687 
L 547.658792 443.061806 
L 545.001625 447.93327 
L 543.082567 450.442817 
L 541.01588 452.804735 
L 535.553927 457.08572 
L 533.339629 458.414308 
L 530.387223 459.742887 
L 528.172916 460.923854 
L 525.810998 461.957193 
L 521.677632 463.138153 
L 520.053805 463.433392 
L 518.725226 464.76198 
L 517.396639 467.566758 
L 516.510919 470.666784 
L 516.658539 473.61919 
L 518.725226 476.046975 
L 522.563352 477.670802 
L 526.401477 478.408901 
L 530.682462 477.966042 
L 533.782488 476.489843 
L 535.996795 474.570776 
L 536.587275 472.799337 
L 536.292035 470.58503 
L 536.734895 468.518344 
L 538.358713 466.746905 
L 542.492079 463.351639 
L 544.115906 462.46592 
L 541.901599 464.680218 
L 539.687301 466.451665 
L 538.211094 468.075484 
L 536.882514 469.256451 
L 536.734895 471.47075 
L 536.734895 474.275536 
L 538.358713 476.785083 
L 541.606359 477.523182 
L 545.001625 477.080322 
L 548.692131 475.751735 
L 551.349297 474.275536 
L 554.154083 472.061229 
L 556.220762 470.58503 
L 557.696969 467.927864 
L 558.877928 465.123078 
L 560.058887 462.02306 
L 560.501747 459.218274 
L 560.354127 456.856347 
L 559.173168 455.970628 
L 554.301703 455.970628 
L 555.925522 455.380148 
L 558.287449 454.937289 
L 560.058887 455.084909 
L 561.929126 454.404148 
L 564.143433 452.927949 
L 565.91488 451.304122 
L 568.276798 448.056476 
L 570.048245 445.10407 
L 574.181611 439.051646 
L 575.36257 436.837339 
L 575.953049 434.918281 
L 576.248289 432.703974 
L 576.248289 429.899188 
L 576.395909 427.832509 
L 577.134017 431.375395 
L 577.281637 432.999214 
L 578.905455 433.884933 
L 580.676902 433.884933 
L 578.610216 434.180173 
L 577.576876 435.065901 
L 576.395909 436.984959 
L 575.805429 438.904026 
L 574.91971 440.823085 
L 573.000651 443.627871 
L 571.229204 445.842178 
L 568.129178 450.123163 
L 566.800599 451.451742 
L 567.095839 455.880347 
L 566.0625 454.551768 
L 564.881532 453.961289 
L 563.552953 454.256528 
L 562.519614 455.142248 
L 561.338647 455.880347 
L 561.043407 457.504174 
L 561.191027 459.275613 
L 560.748167 461.48992 
L 559.714828 464.885185 
L 558.829108 466.656624 
L 558.38624 467.837592 
L 557.352901 470.05189 
L 557.795761 471.528097 
L 561.633886 470.789998 
L 565.91488 468.870931 
L 568.572038 466.804244 
L 569.900625 465.623285 
L 570.786345 464.442326 
L 576.691157 464.147086 
L 581.710242 462.523259 
L 589.534113 458.389894 
L 591.600799 457.061315 
L 591.896039 453.666049 
L 591.896039 450.713643 
L 592.043659 448.204096 
L 592.486519 445.694558 
L 593.519858 442.889772 
L 594.700825 440.232605 
L 595.438925 438.165927 
L 596.177024 435.50876 
L 596.619884 433.146834 
L 596.324644 436.39448 
L 594.996065 441.413564 
L 594.110338 443.185011 
L 593.815098 445.251698 
L 593.224618 447.613617 
L 592.929378 449.680303 
L 592.634139 455.142248 
L 592.191279 457.504174 
L 592.043659 459.423233 
L 593.962718 460.89944 
L 597.210364 462.670879 
L 602.081837 463.556606 
L 604.738995 463.113738 
L 605.772342 461.785159 
L 606.215202 460.308961 
L 606.658062 459.275613 
L 609.758088 459.127993 
L 612.710494 458.537513 
L 615.884898 454.018636 
L 617.065865 451.36147 
L 617.803964 448.999543 
L 618.099204 446.637616 
L 618.984924 443.242359 
L 619.427783 440.585192 
L 619.723023 436.894687 
L 619.575403 433.499421 
L 618.984924 430.547015 
L 618.099204 428.037468 
L 616.623005 426.11841 
L 614.999178 425.38031 
L 613.08012 423.166004 
L 611.603912 421.246937 
L 608.356266 419.327878 
L 606.289588 419.770738 
L 603.927661 420.508837 
L 602.008603 421.542185 
L 599.203816 422.723144 
L 594.627583 424.199343 
L 591.970425 425.38031 
L 590.198978 426.856509 
L 588.943633 426.55275 
L 587.467434 424.928923 
L 583.6293 421.533657 
L 581.562622 420.205078 
L 578.905455 419.466979 
L 576.248289 419.024119 
L 573.148271 419.171739 
L 568.276798 418.876499 
L 564.291053 418.286011 
L 557.943381 416.957432 
L 562.814854 417.105052 
L 568.719658 417.547912 
L 572.853023 416.957432 
L 576.543529 417.990771 
L 582.448341 419.171739 
L 586.581706 419.024119 
L 591.600799 418.728879 
L 596.915124 417.695532 
L 601.196109 416.219333 
L 610.053328 415.481233 
L 613.153354 416.219333 
L 615.819039 418.490979 
L 618.476197 419.819558 
L 619.804785 418.490979 
L 619.509545 420.852905 
L 621.871463 424.248171 
L 625.561969 427.052949 
L 629.104854 428.529156 
L 632.50012 432.219662 
L 635.452526 432.514902 
L 639.585892 430.152975 
L 643.128778 427.791057 
L 645.490704 425.13389 
L 647.262143 422.476724 
L 649.47645 420.557665 
L 651.543128 419.376698 
L 655.233642 418.048119 
L 657.59556 415.390953 
L 658.48128 413.176654 
L 662.090032 401.596411 
L 662.385272 397.905905 
L 662.237652 394.805879 
L 660.613833 393.624912 
L 658.104287 393.920152 
L 656.775708 394.658259 
L 654.118541 397.610657 
L 651.166135 401.153543 
L 650.870895 402.62975 
L 649.247076 403.663089 
L 647.623249 405.139297 
L 644.227983 407.796455 
L 648.656589 402.77737 
L 653.232822 398.201145 
L 655.15188 395.986838 
L 656.775708 393.920152 
L 658.251907 392.296333 
L 657.956667 388.458207 
L 659.137626 391.853473 
L 660.761453 392.739192 
L 663.270999 392.296333 
L 665.928158 390.082026 
L 671.68535 382.258155 
L 672.571069 379.748609 
L 673.161549 376.943831 
L 672.866309 374.139044 
L 668.142464 367.496133 
L 665.928158 365.577074 
L 663.713859 364.691346 
L 661.204313 364.543726 
L 658.547146 364.838966 
L 656.480468 365.429454 
L 655.004261 366.758033 
L 654.118541 369.4152 
L 653.380442 372.072358 
L 652.494722 374.434284 
L 651.461375 376.205731 
L 649.837556 377.68193 
L 647.770869 379.158129 
L 644.375603 381.815295 
L 643.637504 384.324842 
L 643.047024 388.015348 
L 643.047024 389.786786 
L 643.489884 392.443953 
L 642.161305 390.082026 
L 640.832718 388.901067 
L 639.061279 388.605827 
L 637.142212 389.048687 
L 635.370773 389.934406 
L 633.746946 391.262993 
L 632.713607 392.886812 
L 631.827888 394.658259 
L 631.237408 402.18689 
L 630.794548 405.877396 
L 630.942168 402.77737 
L 631.385028 399.086864 
L 631.237408 397.020178 
L 630.4993 395.101119 
L 628.727861 393.920152 
L 624.889736 393.920152 
L 619.427783 394.805879 
L 617.951584 396.134458 
L 617.361105 398.201145 
L 617.508725 399.972584 
L 617.213485 402.77737 
L 616.918245 400.858303 
L 615.294418 399.824964 
L 612.78488 399.529724 
L 608.208647 399.529724 
L 611.899152 399.086864 
L 614.851558 398.201145 
L 616.918245 396.872558 
L 618.689684 394.953499 
L 619.280163 393.920152 
L 618.689684 391.853473 
L 620.461131 393.624912 
L 627.694522 393.329672 
L 630.4993 393.477292 
L 631.827888 392.296333 
L 632.713607 390.820134 
L 631.680268 389.048687 
L 628.875481 383.143874 
L 631.385028 387.424868 
L 633.156467 389.786786 
L 634.927914 389.491546 
L 637.142212 388.458207 
L 639.946998 387.867728 
L 641.866065 387.277248 
L 642.751785 385.653421 
L 643.489884 383.439123 
L 643.932744 381.077196 
L 642.308925 378.862889 
L 640.094618 376.500971 
L 643.047024 379.305749 
L 644.670843 380.339097 
L 646.44229 379.453369 
L 648.951837 377.23907 
L 651.018515 375.024764 
L 652.642342 372.515217 
L 653.675682 369.26758 
L 653.970921 366.905653 
L 653.380442 364.100867 
L 651.608995 361.296081 
L 648.508969 359.081782 
L 645.556571 357.753195 
L 642.308925 356.867475 
L 638.766039 356.276996 
L 636.108873 355.981756 
L 633.599326 356.129376 
L 633.008847 358.196063 
L 633.156467 361.59132 
L 633.156467 364.543726 
L 633.599326 367.200893 
L 633.894566 369.710439 
L 633.304086 370.891398 
L 633.008847 367.938992 
L 632.565987 366.315173 
L 632.565987 364.543726 
L 632.713607 362.329428 
L 632.713607 359.672262 
L 632.418367 357.605575 
L 631.975507 355.538896 
L 629.465961 353.767449 
L 626.365935 352.73411 
L 621.19923 351.553151 
L 619.132544 351.700771 
L 618.246824 352.58649 
L 617.951584 355.834136 
L 617.803964 358.934162 
L 617.951584 361.886568 
L 618.394444 364.838966 
L 619.132544 367.496133 
L 620.165891 370.005679 
L 621.34685 371.777118 
L 621.78971 372.662845 
L 620.461131 373.400945 
L 615.294418 377.091451 
L 617.361105 375.024764 
L 619.427783 373.400945 
L 620.165891 371.629498 
L 619.280163 369.26758 
L 618.542064 366.905653 
L 617.656345 364.543726 
L 617.656345 362.329428 
L 617.361105 357.457955 
L 617.803964 354.653177 
L 617.656345 352.58649 
L 616.475385 350.372184 
L 613.818219 348.895985 
L 610.865813 348.453125 
L 608.503886 348.305505 
L 605.846728 348.600745 
L 604.222901 353.767449 
L 603.189562 357.162715 
L 602.451462 360.262741 
L 602.451462 362.624668 
L 605.846728 369.858059 
L 604.665761 367.938992 
L 603.484802 365.134206 
L 601.713355 362.624668 
L 600.089536 361.886568 
L 598.170469 361.738948 
L 595.808551 362.329428 
L 594.037104 363.510387 
L 592.265665 366.019934 
L 591.822805 368.824712 
L 592.265665 372.072358 
L 595.070451 378.42003 
L 596.69427 381.224816 
L 598.908577 381.815295 
L 601.270495 382.110535 
L 605.551488 382.996255 
L 603.189562 383.143874 
L 601.122875 382.996255 
L 599.056197 382.996255 
L 597.579989 383.586742 
L 595.513311 387.277248 
L 594.479963 389.639166 
L 594.037104 388.015348 
L 588.870399 388.015348 
L 592.413285 387.277248 
L 594.922831 386.096281 
L 596.39903 384.472462 
L 597.13713 382.996255 
L 594.332343 377.38669 
L 593.151384 375.467623 
L 592.560905 373.696185 
L 591.527565 371.777118 
L 590.346598 370.153299 
L 588.427539 369.11996 
L 585.753335 368.890578 
L 582.948548 368.447719 
L 580.291382 367.561999 
L 578.077075 368.152479 
L 576.748496 369.628678 
L 575.715157 370.514405 
L 572.024651 372.581084 
L 570.696064 374.500151 
L 570.991312 377.157317 
L 571.581792 380.257335 
L 573.35323 382.914501 
L 576.010397 385.276428 
L 578.815183 387.195487 
L 580.143762 388.671694 
L 577.781835 387.047867 
L 576.010397 386.162147 
L 574.23895 385.571668 
L 572.467511 386.162147 
L 571.138932 387.638346 
L 568.334146 388.376454 
L 571.138932 387.047867 
L 571.729411 386.014527 
L 572.024651 383.947841 
L 571.581792 381.881162 
L 570.548444 379.519236 
L 569.367485 377.747797 
L 567.743666 375.82873 
L 565.972219 374.647771 
L 563.610292 374.647771 
L 561.395994 374.795391 
L 557.705488 374.204911 
L 555.491182 374.204911 
L 554.014983 374.352531 
L 552.538776 375.82873 
L 551.653056 377.009697 
L 551.505436 379.223996 
L 551.948296 381.290683 
L 554.014983 384.685948 
L 552.834015 383.947841 
L 551.062577 381.585922 
L 550.472097 378.928756 
L 551.062577 376.862069 
L 551.505436 374.647771 
L 550.472097 371.990604 
L 547.962551 369.923926 
L 545.600624 368.742958 
L 543.533946 368.152479 
L 541.614879 368.152479 
L 539.40058 367.561999 
L 536.891034 365.938172 
L 540.2863 366.97152 
L 542.795846 367.266759 
L 543.976805 366.085792 
L 543.853599 364.010594 
L 544.739319 366.815372 
L 546.215518 368.14396 
L 548.577444 369.620159 
L 551.234611 371.834465 
L 553.006049 373.605904 
L 556.106075 373.605904 
L 560.82992 373.901144 
L 565.258534 374.344012 
L 568.210932 374.786871 
L 568.210932 372.424945 
L 567.768072 370.210638 
L 565.406154 368.439199 
L 559.796581 363.715355 
L 556.991795 361.648668 
L 553.448909 358.401022 
L 556.548935 360.467709 
L 559.501341 362.682007 
L 562.306128 365.043934 
L 564.815666 367.40586 
L 567.325212 369.324919 
L 569.391899 370.653506 
L 571.901437 370.948746 
L 574.706223 370.210638 
L 576.182431 368.586819 
L 576.62529 366.520132 
L 576.034811 364.158214 
L 574.410984 361.943908 
L 571.753817 360.320089 
L 569.539519 358.401022 
L 565.849013 356.039095 
L 570.572858 358.548642 
L 573.082405 360.615328 
L 575.887191 363.124867 
L 577.65863 365.782033 
L 579.872936 367.11062 
L 582.677714 367.84872 
L 585.63012 368.14396 
L 587.992047 368.14396 
L 590.353974 367.84872 
L 591.239693 366.520132 
L 592.543858 364.18262 
L 593.134346 362.706421 
L 592.248618 360.639734 
L 587.967633 356.506369 
L 592.100998 359.754015 
L 594.610545 361.230222 
L 597.562951 361.230222 
L 600.515357 360.787354 
L 601.843936 359.458775 
L 602.139176 357.392097 
L 603.024895 355.32541 
L 604.353483 351.192045 
L 604.353483 348.830118 
L 602.582036 347.206299 
L 598.15343 345.287232 
L 589.73908 342.187206 
L 586.343814 340.563387 
L 583.391408 339.382428 
L 581.177101 339.08718 
L 577.338976 338.201461 
L 576.600876 340.415767 
L 577.043736 343.515793 
L 576.896116 346.61582 
L 575.715157 345.730092 
L 573.35323 345.730092 
L 569.662725 346.61582 
L 566.857938 346.468191 
L 563.610292 346.025332 
L 560.657895 345.877712 
L 557.557869 345.287232 
L 553.719743 343.811033 
L 555.195942 343.368174 
L 556.229281 342.187206 
L 557.410249 343.368174 
L 559.919787 344.549133 
L 563.757921 345.287232 
L 568.038906 345.730092 
L 572.910371 344.844373 
L 574.681818 344.106273 
L 575.272297 342.039586 
L 574.23895 336.725262 
L 568.924625 333.625236 
L 559.919787 328.163283 
L 558.353315 327.802185 
L 556.286629 329.130764 
L 553.777082 328.983144 
L 552.448503 327.654565 
L 552.596123 325.883118 
L 548.462758 323.078332 
L 537.98172 317.025908 
L 533.553115 314.811601 
L 528.829262 312.154435 
L 525.286376 310.382996 
L 522.333979 308.759169 
L 519.676812 308.611549 
L 518.200605 311.268715 
L 517.757745 315.402081 
L 520.267292 318.797347 
L 524.253037 322.044993 
L 528.534022 325.145019 
L 535.767414 330.754583 
L 539.457919 333.264129 
L 542.853185 334.887956 
L 539.457919 333.706989 
L 537.8341 332.67365 
L 535.324554 331.345071 
L 533.700735 329.868863 
L 531.191189 327.802185 
L 522.776838 321.454513 
L 520.414912 319.978306 
L 517.905365 319.240206 
L 515.395827 319.240206 
L 514.06724 320.125926 
L 513.91962 322.487852 
L 514.21486 324.406919 
L 514.21486 326.473598 
L 514.510099 328.687904 
L 517.905365 331.345071 
L 522.333979 334.592708 
L 525.433996 337.545114 
L 528.681642 340.054661 
L 532.519768 342.268968 
L 534.881694 343.892786 
L 536.505521 345.368985 
L 538.5722 348.173772 
L 536.653141 346.697573 
L 534.143595 346.402333 
L 531.486429 345.959473 
L 530.157849 345.959473 
L 532.224528 345.073746 
L 532.372148 343.449927 
L 531.338809 342.268968 
L 527.500683 339.611801 
L 523.810177 336.364155 
L 522.186359 334.740328 
L 519.972052 333.264129 
L 518.200605 332.37841 
L 515.691067 330.311723 
L 512.738661 328.687904 
L 510.229114 328.245045 
L 505.029476 327.162877 
L 502.51993 327.162877 
L 503.110409 330.262903 
L 504.143757 333.215309 
L 505.472336 337.643914 
L 507.981882 341.77728 
L 510.048561 343.843967 
L 512.558107 345.467785 
L 519.643879 348.567811 
L 508.867602 344.729686 
L 505.619956 343.696347 
L 500.649691 341.867561 
L 498.435384 341.277073 
L 495.630606 340.686593 
L 492.97344 340.243733 
L 490.463893 340.096114 
L 487.511487 340.538973 
L 485.740049 340.981833 
L 485.001949 343.343759 
L 486.330528 345.853306 
L 485.887668 347.624745 
L 483.673362 348.362844 
L 480.720964 348.805704 
L 467.73038 353.381937 
L 472.011365 350.872391 
L 475.701871 349.396192 
L 479.835236 347.477125 
L 482.197163 345.705686 
L 482.640023 343.19614 
L 480.720964 342.1628 
L 478.293171 341.424693 
L 474.159805 340.538973 
L 471.207399 340.096114 
L 468.550233 339.948494 
L 450.540564 339.358014 
L 446.407199 338.472295 
L 435.909123 337.430428 
L 429.413831 337.282808 
L 414.208949 336.397089 
L 409.485104 336.397089 
L 404.023152 336.987568 
L 395.608801 339.201875 
L 388.08017 340.825694 
L 383.651557 341.416173 
L 378.927712 342.301893 
L 374.941966 342.744761 
L 370.553662 342.482446 
L 367.010776 342.039586 
L 360.663104 341.891966 
L 354.610672 342.482446 
L 347.967768 344.844373 
L 344.572503 347.501539 
L 341.915336 350.158705 
L 338.96293 352.520624 
L 335.567664 354.58731 
L 331.877159 356.653989 
L 325.529487 360.787354 
L 335.715284 352.963483 
L 338.66769 350.453945 
L 341.177237 346.61582 
L 340.291517 344.991992 
L 337.191491 343.663413 
L 334.239085 341.744346 
L 331.434299 340.268148 
L 329.072372 338.79194 
L 327.448554 339.382428 
L 324.939007 341.301487 
L 321.838981 343.958653 
L 318.591343 346.320571 
L 315.934177 348.830118 
L 313.129391 351.782524 
L 310.767464 354.43969 
L 308.996025 357.539717 
L 309.291265 360.344494 
L 310.029365 362.854041 
L 308.405546 360.639734 
L 307.076958 359.754015 
L 309.586505 355.32541 
L 315.196077 348.977738 
L 317.557996 347.058679 
L 320.067542 344.844373 
L 325.234247 340.711007 
L 327.743793 338.496701 
L 329.9581 337.168121 
L 331.139059 335.396674 
L 331.139059 332.739516 
L 329.81048 331.115689 
L 327.596173 329.93473 
L 325.086627 329.63949 
L 321.986601 329.63949 
L 319.034203 330.08235 
L 316.967516 330.52521 
L 315.491317 331.263309 
L 314.45797 332.887136 
L 313.57225 334.953815 
L 312.391291 336.725262 
L 310.767464 338.79194 
L 309.438885 340.711007 
L 307.372198 343.368174 
L 305.01028 345.730092 
L 302.795973 347.649159 
L 299.105468 350.453945 
L 303.091213 346.911059 
L 306.043619 343.811033 
L 308.700786 341.301487 
L 310.767464 338.496701 
L 312.538911 335.839542 
L 314.16273 333.182376 
L 315.196077 330.820449 
L 314.45797 327.868043 
L 312.391291 325.653745 
L 310.324604 325.801365 
L 305.45314 328.753771 
L 302.353114 330.37759 
L 296.891161 333.477616 
L 294.234003 335.544294 
L 292.167316 337.315741 
L 290.691117 338.349081 
L 290.248257 341.449107 
L 290.395877 343.811033 
L 290.248257 347.058679 
L 289.607798 348.920399 
L 287.688739 350.987077 
L 288.722078 349.068019 
L 289.164938 347.148952 
L 289.164938 339.325081 
L 285.917292 341.096519 
L 281.931547 343.015586 
L 277.502942 345.525133 
L 272.779097 348.034671 
L 268.498103 350.544218 
L 264.955218 352.906144 
L 263.183779 354.382343 
L 263.036159 358.072849 
L 263.331399 362.944322 
L 263.921878 365.7491 
L 267.907624 366.191959 
L 272.483849 366.191959 
L 276.174354 365.89672 
L 288.426839 364.568141 
L 286.064912 365.30624 
L 282.079167 365.89672 
L 277.207702 366.487199 
L 269.974311 366.782447 
L 266.726665 367.077687 
L 263.626639 367.520547 
L 260.821852 369.439605 
L 262.593299 367.372927 
L 262.888539 365.15862 
L 262.593299 362.501454 
L 262.593299 355.415682 
L 261.707572 354.529963 
L 259.936133 355.120442 
L 258.312306 356.30141 
L 256.393247 357.334749 
L 254.17894 358.220469 
L 250.193195 360.139535 
L 246.797929 361.615734 
L 244.583631 362.944322 
L 242.074084 363.977661 
L 237.431993 366.495727 
L 235.512926 368.119546 
L 234.331967 369.300505 
L 233.889107 371.071952 
L 234.922446 373.876738 
L 237.284373 375.205317 
L 240.384399 374.910077 
L 243.189185 374.319598 
L 246.436823 373.876738 
L 243.189185 374.762457 
L 241.270118 375.500557 
L 240.827259 377.419624 
L 241.565358 380.076782 
L 243.927285 382.438708 
L 246.289203 383.914916 
L 247.76541 385.538734 
L 252.932115 388.78638 
L 255.441661 388.048281 
L 257.36072 385.391115 
L 259.279787 383.324428 
L 261.641713 381.552989 
L 264.298871 380.37203 
L 270.146336 378.748203 
L 268.079658 379.781542 
L 265.865351 380.37203 
L 261.289126 382.143469 
L 258.1891 385.391115 
L 255.827173 388.78638 
L 256.122421 390.410199 
L 259.370059 391.886406 
L 262.912945 393.657845 
L 266.898699 394.100705 
L 270.441584 394.248325 
L 273.541602 393.214985 
L 275.608289 391.443547 
L 277.232108 388.934 
L 277.511461 386.219495 
L 278.39718 383.562328 
L 280.168627 381.200402 
L 281.940066 379.428963 
L 284.301993 377.952756 
L 286.811539 376.624177 
L 288.671825 375.765581 
L 288.660447 375.924928 
L 287.738355 376.978745 
L 286.289354 377.769111 
L 283.786529 378.822928 
L 281.678887 379.876754 
L 278.780878 383.433396 
L 278.253969 385.27758 
L 277.858786 387.121764 
L 277.727061 389.097681 
L 275.751152 392.52259 
L 279.834703 392.917773 
L 283.52307 393.049507 
L 286.025896 392.654323 
L 293.270906 385.804488 
L 294.85164 385.014121 
L 295.773731 383.433396 
L 296.30064 382.116121 
L 297.222732 381.062296 
L 297.48619 383.433396 
L 298.144832 385.27758 
L 303.413933 385.409305 
L 300.779383 387.516947 
L 299.593832 387.121764 
L 297.749649 386.72658 
L 295.905457 386.990039 
L 293.929548 387.516947 
L 292.085364 388.570764 
L 289.31908 391.468773 
L 287.343171 394.498507 
L 286.947988 396.737874 
L 286.816263 399.372425 
L 287.87008 400.953158 
L 289.845997 401.480067 
L 291.953631 401.084883 
L 290.636355 402.270434 
L 289.450813 402.665617 
L 288.265263 402.797342 
L 286.947988 402.797342 
L 286.421079 401.480067 
L 286.552804 400.294517 
L 286.289354 398.450333 
L 286.421079 396.342691 
L 286.025896 394.89369 
L 284.049979 394.103324 
L 281.547162 394.366782 
L 279.834703 394.103324 
L 277.990519 393.44469 
L 275.751152 393.181232 
L 273.90696 393.576415 
L 272.326234 394.498507 
L 270.613776 395.815782 
L 269.428225 397.133058 
L 268.242675 398.977241 
L 267.715767 400.557975 
L 267.8475 402.402159 
L 267.452317 403.851159 
L 268.506134 405.827076 
L 270.745501 407.012618 
L 273.380051 407.67126 
L 272.062776 408.066443 
L 270.086867 407.934718 
L 268.769592 407.407802 
L 267.188858 407.539535 
L 265.871583 407.802985 
L 263.763941 408.066443 
L 266.9254 404.773251 
L 267.584042 401.084883 
L 267.8475 398.977241 
L 267.188858 397.396516 
L 266.266766 395.552324 
L 264.290849 394.761965 
L 260.86594 394.498507 
L 258.23139 394.103324 
L 256.123747 392.786048 
L 254.279564 391.205315 
L 251.381555 388.965947 
L 249.405646 388.043856 
L 247.956637 388.043856 
L 246.112453 392.127415 
L 245.45382 394.498507 
L 245.058637 396.606149 
L 244.663453 402.533884 
L 245.058637 405.168434 
L 246.771095 407.144352 
L 249.669096 408.066443 
L 253.094013 409.778902 
L 250.986371 409.515444 
L 249.800821 409.515444 
L 248.088371 409.12026 
L 246.507637 408.593352 
L 244.795178 407.67126 
L 243.346178 405.958801 
L 242.830333 404.479636 
L 242.303424 403.557544 
L 239.53714 403.42581 
L 238.878507 403.030627 
L 242.566874 402.898902 
L 243.225516 401.713352 
L 244.015875 398.420167 
L 244.806242 393.019341 
L 245.464883 390.779974 
L 245.33315 388.408874 
L 244.937975 385.906048 
L 243.6207 383.798414 
L 241.117874 380.241772 
L 240.195782 378.661038 
L 239.010232 377.212038 
L 237.692957 376.158212 
L 235.717048 375.236121 
L 234.004589 374.840937 
L 233.214222 376.553396 
L 232.819039 378.792763 
L 230.579672 383.271497 
L 229.92103 385.115689 
L 229.394121 386.169506 
L 227.813396 390.121332 
L 227.154754 392.492424 
L 225.705754 395.258708 
L 227.023029 397.234617 
L 225.178845 396.312525 
L 224.915387 394.073158 
L 226.100937 392.492424 
L 230.843122 381.163864 
L 231.765222 378.529313 
L 232.950764 376.289946 
L 233.609406 373.918845 
L 232.819039 371.547753 
L 231.501764 369.835294 
L 229.262396 369.176652 
L 226.759571 369.308386 
L 223.598112 369.967019 
L 221.358745 370.889111 
L 219.909744 371.284295 
L 214.640643 373.78712 
L 213.586818 374.709212 
L 215.431002 376.553396 
L 215.957918 379.056221 
L 216.089643 380.373497 
L 215.69446 382.612864 
L 215.035818 384.720506 
L 213.455093 386.959873 
L 214.50891 384.852231 
L 215.69446 381.03213 
L 215.431002 378.002396 
L 214.772368 376.685121 
L 213.323368 375.367846 
L 211.215726 374.709212 
L 208.844625 375.104395 
L 205.419716 376.158212 
L 202.785165 377.212038 
L 200.54579 378.39758 
L 198.042973 380.110038 
L 196.330514 381.03213 
L 194.354597 382.876322 
L 193.169055 384.588773 
L 193.169055 386.56469 
L 194.222872 389.462699 
L 195.671872 392.492424 
L 203.443799 398.815351 
L 204.892799 400.396076 
L 207.52735 399.605718 
L 210.425359 397.761526 
L 213.323368 396.312525 
L 210.030175 398.815351 
L 207.395625 400.132626 
L 206.210074 401.581627 
L 206.210074 403.557544 
L 208.185991 406.060361 
L 210.293634 407.377636 
L 212.928184 409.221828 
L 216.353093 410.802554 
L 222.149111 413.173654 
L 228.867213 416.335113 
L 231.765222 416.598563 
L 233.872856 416.993747 
L 234.062144 417.234656 
L 229.409569 417.234656 
L 225.866186 415.369712 
L 220.644355 413.504778 
L 215.982009 410.893862 
L 211.319664 408.842432 
L 208.335766 407.163984 
L 205.538355 406.604507 
L 203.486925 407.163984 
L 202.367963 409.588404 
L 201.621982 412.57231 
L 201.435495 416.115693 
L 201.062505 413.691273 
L 201.249 411.266852 
L 201.994972 408.842432 
L 202.92744 406.977497 
L 204.419393 405.672039 
L 204.792383 402.874629 
L 202.92744 399.331246 
L 200.87601 396.906825 
L 195.281197 393.736433 
L 193.789244 393.922928 
L 193.975739 391.685003 
L 193.416254 388.14162 
L 191.551319 385.530704 
L 188.194431 384.971219 
L 183.71858 385.530704 
L 180.175197 386.090181 
L 177.564282 387.582134 
L 176.072329 389.447069 
L 173.461414 391.498507 
L 170.477516 394.482405 
L 166.934133 398.585273 
L 173.647909 407.909965 
L 176.818301 410.707367 
L 178.683245 411.639843 
L 182.599618 411.639843 
L 185.210525 411.266852 
L 186.888973 411.826329 
L 187.634945 412.9453 
L 182.599618 412.57231 
L 180.92117 413.318282 
L 180.361684 414.437245 
L 180.175197 415.742703 
L 179.056235 414.25075 
L 177.191292 413.131787 
L 174.207394 410.52088 
L 171.969469 408.282947 
L 170.850506 405.672039 
L 168.239591 401.569171 
L 166.374648 399.890731 
L 164.509713 399.331246 
L 163.01776 400.263713 
L 161.33932 401.569171 
L 160.220357 403.620601 
L 158.168919 409.588404 
L 158.355414 413.318282 
L 158.9149 417.04816 
L 160.406844 421.151029 
L 162.644778 425.626879 
L 165.81517 430.10273 
L 168.239591 432.52715 
L 171.596479 433.086627 
L 173.834404 432.713645 
L 176.072329 431.967665 
L 177.377787 430.47572 
L 177.191292 429.729739 
L 179.056235 431.221692 
L 179.802207 431.967665 
L 178.123759 431.967665 
L 177.191292 432.90014 
L 174.020899 434.765075 
L 175.885834 437.003001 
L 180.734675 440.546384 
L 184.837543 444.089766 
L 189.686384 446.327692 
L 194.348729 446.700682 
L 198.451589 446.514187 
L 200.689515 445.022234 
L 203.67342 442.038336 
L 205.538355 439.986906 
L 207.776281 437.748973 
L 208.335766 435.324552 
L 206.470823 433.459618 
L 203.30043 431.035197 
L 199.570552 429.916235 
L 195.654179 428.610777 
L 198.451589 429.170262 
L 201.808477 430.289225 
L 204.978878 431.78117 
L 207.40329 433.459618 
L 209.081738 434.765075 
L 209.641224 437.189496 
L 212.252131 437.562486 
L 214.863047 436.63001 
L 216.354999 434.95157 
L 218.592925 434.019103 
L 220.644355 434.019103 
L 222.695785 436.070533 
L 218.965915 435.138066 
L 216.914477 436.257028 
L 212.998112 438.867935 
L 211.319664 440.732879 
L 208.335766 443.157299 
L 205.911346 445.395224 
L 204.978878 448.00614 
L 204.978878 450.244065 
L 207.40329 452.48199 
L 210.014206 454.53342 
L 212.252131 458.263298 
L 215.795514 461.993176 
L 218.965915 462.552654 
L 222.136308 461.620186 
L 224.374233 459.009271 
L 226.425663 454.346925 
L 228.104111 451.176532 
L 229.782551 448.379122 
L 231.088008 445.581719 
L 232.579961 442.784309 
L 233.698924 440.173393 
L 234.993476 437.895242 
L 235.703026 436.038975 
L 237.008484 435.293003 
L 237.008484 435.293003 
" style="fill:none;stroke:#000000;stroke-linecap:square;stroke-width:1.5;"/>
   </g>
   <g id="line2d_2">
    <path clip-path="url(#pb180bf04ca)" d="M 343.382303 305.360315 
L 338.576647 301.478814 
L 335.988977 303.696817 
L 332.292314 306.284478 
L 328.595651 309.241807 
L 325.083818 312.753641 
L 322.680985 315.52614 
L 320.278153 318.483469 
L 317.505654 321.255968 
L 315.287659 323.84363 
L 314.391332 325.927438 
L 315.500848 329.067955 
L 317.903671 329.622452 
L 322.154839 328.883118 
L 327.330171 329.067955 
L 330.2875 328.883118 
L 335.277993 326.295456 
L 339.529161 323.707794 
L 343.225824 321.304962 
L 346.367991 318.717292 
L 349.694987 316.31446 
L 353.576487 315.020629 
L 359.860812 312.24813 
L 366.699642 310.030135 
L 371.690144 308.736296 
L 376.31097 306.887969 
L 381.301464 305.778968 
L 389.057223 303.402994 
L 397.196803 301.369423 
L 402.926631 300.075592 
L 407.732295 298.412094 
L 412.168293 298.042427 
L 417.898121 297.67276 
L 426.030781 297.67276 
L 432.86961 297.67276 
L 440.262936 298.412094 
L 447.471433 299.15142 
L 453.940595 299.890754 
L 459.855261 300.814926 
L 465.030593 302.108757 
L 470.021087 304.511589 
L 475.381247 307.099251 
L 480.556579 309.502083 
L 485.124509 311.561701 
L 489.745335 315.443194 
L 494.551 320.618525 
L 499.541502 325.23936 
L 502.498831 326.533191 
L 508.228659 327.087687 
L 510.631491 326.348353 
L 511.925322 323.945529 
L 512.110159 322.097194 
L 511.555654 319.879191 
L 508.783155 316.737033 
L 512.664656 319.139865 
L 515.252318 317.661196 
L 516.730986 315.443194 
L 517.47032 312.485865 
L 518.024817 309.343698 
L 517.47032 307.495371 
L 513.665095 303.703264 
L 510.710683 301.475226 
L 507.19885 298.517897 
L 503.502187 295.745398 
L 499.251027 292.603231 
L 494.260525 290.015569 
L 490.563862 287.612737 
L 486.682361 285.764402 
L 483.540203 284.285741 
L 482.061535 286.134069 
L 481.691867 287.982404 
L 483.90987 293.712232 
L 480.213199 288.167234 
L 477.25587 287.982404 
L 473.744037 288.352072 
L 469.862544 287.612737 
L 464.132716 285.394734 
L 457.478716 282.807073 
L 450.639886 280.219403 
L 444.170724 278.371076 
L 436.777398 276.153073 
L 430.677903 274.859242 
L 424.208741 274.119908 
L 419.772743 274.119908 
L 411.824912 274.304745 
L 406.517814 275.096819 
L 400.787986 275.651316 
L 396.167151 276.39065 
L 391.731154 278.608645 
L 386.370993 281.196315 
L 382.119833 283.968814 
L 378.423162 286.926143 
L 375.096166 288.219974 
L 372.138838 288.589641 
L 368.811842 290.992473 
L 361.418507 296.167804 
L 368.442175 290.253139 
L 369.181509 287.665477 
L 367.70284 286.001979 
L 365.669675 284.153643 
L 363.63651 281.196315 
L 359.939847 283.044642 
L 355.319012 285.262645 
L 351.067853 288.219974 
L 347.37119 291.731807 
L 344.413852 294.873974 
L 342.195858 297.091968 
L 340.717189 299.4948 
L 340.162693 301.158298 
L 343.382303 305.360315 
" style="fill:none;stroke:#000000;stroke-linecap:square;stroke-width:1.5;"/>
   </g>
   <g id="line2d_3">
    <path clip-path="url(#pb180bf04ca)" d="M 367.940575 311.772983 
L 362.131555 312.0633 
L 356.771394 314.466133 
L 351.041557 316.499298 
L 348.084228 318.347625 
L 344.202736 321.489792 
L 338.842567 324.44712 
L 334.22174 328.143792 
L 332.373404 330.361786 
L 331.63407 333.503953 
L 331.449241 336.276452 
L 333.297576 339.233781 
L 338.103233 342.191109 
L 343.463402 343.669778 
L 347.344894 344.039445 
L 352.705063 342.560777 
L 357.880387 340.897279 
L 365.643388 340.712449 
L 372.667047 341.266946 
L 378.951372 341.451775 
L 385.050875 340.342782 
L 392.074534 339.233781 
L 398.174029 337.755112 
L 402.610027 336.461281 
L 408.524692 335.537118 
L 416.287686 335.537118 
L 420.063218 334.982613 
L 426.162713 335.167451 
L 434.295373 335.537118 
L 443.537035 337.015778 
L 452.039363 338.124779 
L 458.138858 338.679284 
L 466.641185 339.233781 
L 472.925518 339.788277 
L 479.025013 340.897279 
L 482.906506 341.451775 
L 485.863843 340.157944 
L 491.224004 339.603448 
L 494.735837 339.603448 
L 499.911169 340.897279 
L 503.422994 341.082116 
L 503.792661 337.93995 
L 503.053327 334.243287 
L 501.574667 330.361786 
L 499.911169 327.21962 
L 497.13867 323.707794 
L 493.072339 320.011123 
L 489.560506 316.499298 
L 486.048672 313.357131 
L 482.721676 311.323966 
L 476.807011 308.366637 
L 470.337848 305.594138 
L 464.238353 302.821639 
L 456.47536 300.788474 
L 447.603365 299.86431 
L 439.285876 299.124976 
L 431.338045 298.755309 
L 425.053712 298.385641 
L 418.584549 298.570471 
L 412.300225 298.570471 
L 406.940055 299.309805 
L 400.655731 301.527808 
L 395.850066 302.451972 
L 391.599222 303.825152 
L 387.717729 304.934154 
L 384.390733 306.412822 
L 377.921571 308.07632 
L 374.779405 309.554989 
L 371.822076 310.479152 
L 367.940575 311.772983 
" style="fill:none;stroke:#000000;stroke-linecap:square;stroke-width:1.5;"/>
   </g>
   <g id="line2d_4">
    <path clip-path="url(#pb180bf04ca)" d="M 396.120229 321.821644 
L 400.838522 321.170842 
L 409.136213 320.357346 
L 415.481498 319.381147 
L 421.989495 319.543841 
L 428.33478 319.869246 
L 434.680074 320.357346 
L 444.442055 321.984338 
L 436.957868 321.496239 
L 428.660177 320.682743 
L 420.525196 320.357346 
L 413.203704 320.357346 
L 403.929821 321.333545 
L 396.120229 321.821644 
" style="fill:none;stroke:#000000;stroke-linecap:square;stroke-width:1.5;"/>
   </g>
   <g id="line2d_5">
    <path clip-path="url(#pb180bf04ca)" d="M 438.597698 248.643132 
L 436.010037 250.49146 
L 432.128536 251.600461 
L 427.877376 251.78529 
L 423.441379 251.415623 
L 418.081218 250.676297 
L 414.939052 250.121793 
L 411.612047 250.861127 
L 407.915384 251.78529 
L 402.370394 252.154958 
L 396.825395 251.600461 
L 394.422563 251.230794 
L 392.574227 251.970128 
L 390.356233 253.633626 
L 388.692735 256.221288 
L 386.105065 258.439291 
L 383.517403 261.026952 
L 379.266236 264.169119 
L 376.308907 266.75678 
L 373.721245 268.789945 
L 370.579079 271.932112 
L 368.176247 274.704611 
L 366.512749 277.66194 
L 365.03408 280.064772 
L 365.773414 283.391776 
L 369.10041 285.240104 
L 372.057747 286.903602 
L 375.93924 287.088439 
L 379.82074 285.055274 
L 383.147736 282.837271 
L 386.844399 280.24961 
L 390.7259 278.401274 
L 395.531564 276.368109 
L 400.706896 274.704611 
L 405.69739 274.334944 
L 411.981714 273.041113 
L 419.375049 273.041113 
L 428.80154 273.780447 
L 436.010037 275.628775 
L 444.327526 277.47711 
L 452.090528 280.064772 
L 459.114187 282.467604 
L 465.39852 285.055274 
L 471.682844 287.458106 
L 475.934012 287.458106 
L 479.261008 286.718772 
L 482.033507 284.870436 
L 482.772842 283.022109 
L 477.227843 277.846778 
L 471.128348 272.301779 
L 464.844015 267.311285 
L 459.299016 262.875288 
L 453.569188 258.439291 
L 449.502858 255.112295 
L 445.06686 251.415623 
L 441.370197 249.382458 
L 438.597698 248.643132 
" style="fill:none;stroke:#000000;stroke-linecap:square;stroke-width:1.5;"/>
   </g>
   <g id="line2d_6">
    <path clip-path="url(#pb180bf04ca)" d="M 395.716394 250.861127 
L 402.555223 251.415623 
L 409.76372 250.861127 
L 413.645221 249.936963 
L 419.190211 250.30663 
L 424.55038 251.045964 
L 430.280208 251.230794 
L 434.531368 249.936963 
L 437.673534 248.643132 
L 437.303867 245.685795 
L 434.716206 242.358799 
L 431.204372 238.662136 
L 427.138042 236.074466 
L 422.886874 234.226139 
L 418.820544 233.117138 
L 414.569384 233.486805 
L 410.687884 234.226139 
L 407.730555 235.33514 
L 404.033892 237.553135 
L 400.522058 239.955967 
L 397.56473 243.098134 
L 395.901232 245.685795 
L 395.531564 248.458295 
L 395.716394 250.861127 
" style="fill:none;stroke:#000000;stroke-linecap:square;stroke-width:1.5;"/>
   </g>
   <g id="line2d_7">
    <path clip-path="url(#pb180bf04ca)" d="M 240.924849 437.903919 
L 238.643043 437.026296 
L 236.742514 437.399949 
L 235.542503 438.767917 
L 234.957045 440.328339 
L 234.024578 443.125741 
L 232.346138 445.923152 
L 230.2947 449.093545 
L 229.362232 451.517965 
L 227.870279 453.569395 
L 226.56483 455.80732 
L 224.886382 459.164208 
L 221.715989 463.080581 
L 220.783522 465.318507 
L 221.156504 468.115917 
L 222.648457 471.28631 
L 225.632354 475.016188 
L 228.98925 476.881123 
L 231.973148 477.627104 
L 234.957045 479.119056 
L 239.246409 481.356982 
L 245.214212 483.035421 
L 251.554997 484.340879 
L 256.403838 484.713869 
L 259.201249 483.408412 
L 258.828259 477.254113 
L 257.709296 472.591768 
L 256.030856 468.302412 
L 254.352408 465.132011 
L 252.300978 463.267077 
L 250.436035 462.148114 
L 248.5711 460.656161 
L 246.51967 460.656161 
L 248.19811 458.231741 
L 249.876558 454.315376 
L 249.690063 450.585498 
L 249.503567 447.042115 
L 248.757595 443.125741 
L 247.079147 440.701321 
L 244.841222 439.209368 
L 242.789792 438.276901 
L 240.924849 437.903919 
" style="fill:none;stroke:#000000;stroke-linecap:square;stroke-width:1.5;"/>
   </g>
  </g>
 </g>
 <defs>
  <clipPath id="pb180bf04ca">
   <rect height="612.72" width="828.72" x="0" y="0"/>
  </clipPath>
 </defs>
</svg>
