<?xml version="1.0" encoding="utf-8" standalone="no"?>
<!DOCTYPE svg PUBLIC "-//W3C//DTD SVG 1.1//EN"
  "http://www.w3.org/Graphics/SVG/1.1/DTD/svg11.dtd">
<!-- Created with matplotlib (https://matplotlib.org/) -->
<svg height="275.04pt" version="1.1" viewBox="0 0 414.72 275.04" width="414.72pt" xmlns="http://www.w3.org/2000/svg" xmlns:xlink="http://www.w3.org/1999/xlink">
 <defs>
  <style type="text/css">
*{stroke-linecap:butt;stroke-linejoin:round;}
  </style>
 </defs>
 <g id="figure_1">
  <g><image xlink:href="../../img/cb/pocketgopher_cor_cell.json.cb-50%25.png" width="414.71999999999997px" height="275.03999999999996px"/></g>

  <g id="patch_1">
   <path d="M 0 275.04 
L 414.72 275.04 
L 414.72 0 
L 0 0 
z
" style="fill:none;"/>
  </g>
  <g id="axes_1">
   <g id="line2d_1">
    <path clip-path="url(#pef84b3e3a6)" d="M 148.742621 39.591046 
L 147.11105 42.496429 
L 149.390895 37.176795 
L 152.937315 27.804102 
L 154.457214 24.510993 
L 149.897525 15.644935 
L 136.725093 17.418145 
L 129.125614 17.924779 
L 124.565925 19.697989 
L 121.272816 20.457939 
L 116.966447 20.964569 
L 109.873599 22.231149 
L 103.5407 26.284207 
L 100.500906 29.070682 
L 98.221061 31.350526 
L 97.207797 33.883686 
L 97.207797 37.176795 
L 98.221061 41.736484 
L 100.754221 45.029588 
L 104.807279 46.802803 
L 109.366964 47.056118 
L 113.166708 45.282904 
L 117.473077 43.763009 
L 122.032766 42.496429 
L 114.939918 45.789538 
L 112.153443 47.562748 
L 110.380229 49.082647 
L 110.126914 52.629071 
L 108.607019 56.935441 
L 106.327174 62.255079 
L 106.073859 64.788239 
L 106.327174 68.081343 
L 107.847069 72.387717 
L 110.633544 74.160927 
L 115.193233 75.427507 
L 118.992972 75.934141 
L 123.299346 75.427507 
L 127.099085 73.907612 
L 131.658774 71.374452 
L 123.552661 76.187456 
L 121.019501 78.213986 
L 120.259552 82.520355 
L 119.499606 88.853258 
L 120.259552 93.919577 
L 120.512871 99.239211 
L 121.526132 103.545585 
L 120.259552 100.505791 
L 119.752921 97.466001 
L 119.246291 91.893048 
L 118.486342 89.613204 
L 118.992972 86.066779 
L 120.006237 83.02699 
L 119.752921 80.49383 
L 117.979707 78.467301 
L 115.699867 76.440772 
L 111.646809 75.427507 
L 109.366964 75.427507 
L 106.327174 76.694091 
L 103.794015 78.720616 
L 106.833805 75.427507 
L 107.340439 73.147667 
L 106.327174 70.361188 
L 104.807279 68.334663 
L 104.807279 66.054818 
L 104.55396 63.26834 
L 105.567225 60.73518 
L 107.340439 57.69539 
L 108.860334 54.655596 
L 109.113649 52.375752 
L 109.113649 50.349227 
L 107.08712 48.576013 
L 103.28738 47.056118 
L 99.234326 46.042853 
L 96.701166 47.056118 
L 90.114948 53.642332 
L 97.967746 44.776273 
L 98.221061 42.749744 
L 97.461112 39.963269 
L 95.687902 37.43011 
L 94.421322 35.403581 
L 91.381528 34.89695 
L 88.341738 35.656896 
L 85.048629 37.43011 
L 82.262155 39.20332 
L 79.47568 41.736484 
L 76.689201 44.016324 
L 73.902727 47.309433 
L 70.609618 50.349227 
L 68.836408 52.882386 
L 66.809878 55.415546 
L 62.756824 61.495129 
L 61.743559 64.534919 
L 60.98361 68.334663 
L 63.516769 70.361188 
L 68.583092 71.121137 
L 75.929256 71.627768 
L 75.675937 73.654297 
L 77.702466 78.213986 
L 79.728995 81.76041 
L 82.00884 85.053515 
L 79.98231 85.053515 
L 76.689201 86.826729 
L 77.955781 84.293569 
L 77.449151 81.76041 
L 76.689201 79.480565 
L 74.662676 76.694091 
L 71.116252 76.694091 
L 68.076458 76.187456 
L 61.743559 74.414246 
L 58.45045 74.414246 
L 55.663976 75.174192 
L 53.384131 76.947406 
L 50.344337 81.76041 
L 49.077757 85.053515 
L 48.824442 89.106573 
L 48.824442 95.186157 
L 49.837707 98.985896 
L 52.370866 98.985896 
L 56.170606 98.479266 
L 60.476979 98.225947 
L 54.752392 99.389668 
L 51.459283 100.656247 
L 50.192703 103.189407 
L 49.686073 106.735831 
L 50.192703 111.29552 
L 52.725863 113.575364 
L 55.765657 114.33531 
L 62.098555 112.308785 
L 66.911559 110.53557 
L 71.724563 111.042205 
L 78.310777 111.548835 
L 81.857201 109.522306 
L 83.883731 105.722567 
L 84.64368 102.176142 
L 86.41689 98.123088 
L 83.630416 107.749096 
L 82.870466 111.29552 
L 83.883731 113.828679 
L 88.190104 113.828679 
L 93.763054 113.575364 
L 97.562793 114.33531 
L 99.589322 116.361839 
L 95.789583 115.601889 
L 92.243159 114.588625 
L 88.696735 114.841944 
L 85.91026 114.841944 
L 83.630416 115.348574 
L 82.870466 116.868469 
L 83.883731 120.414893 
L 85.91026 125.227897 
L 91.483209 131.5608 
L 94.269688 136.120485 
L 96.802848 140.680174 
L 93.256423 136.120485 
L 91.483209 133.080695 
L 88.95005 130.547536 
L 86.923525 128.267691 
L 84.64368 124.974582 
L 83.630416 121.934792 
L 82.363836 119.401629 
L 81.097256 116.361839 
L 79.830676 114.588625 
L 77.044197 113.575364 
L 73.751093 113.06873 
L 66.658244 112.5621 
L 63.61845 113.06873 
L 60.578661 114.33531 
L 57.792182 115.348574 
L 55.259022 116.615154 
L 53.232497 119.654948 
L 53.485812 124.467952 
L 54.245758 129.534271 
L 55.765657 133.080695 
L 58.298816 136.627119 
L 62.858505 136.880434 
L 68.938089 138.400329 
L 72.231193 137.893699 
L 74.764353 141.693438 
L 77.297517 144.733228 
L 81.097256 148.786287 
L 77.297517 146.759757 
L 68.178139 139.666909 
L 61.338606 138.147014 
L 59.058761 139.413594 
L 57.792182 142.200069 
L 56.778921 145.493178 
L 55.005707 152.332711 
L 55.259022 155.625816 
L 56.272287 158.918925 
L 59.058761 163.731929 
L 62.098555 165.758458 
L 66.404929 165.758458 
L 71.977878 166.011773 
L 75.777618 166.011773 
L 77.804147 166.265088 
L 73.497773 167.025038 
L 68.431454 166.518408 
L 64.88503 167.278353 
L 63.365135 168.038302 
L 63.61845 170.824777 
L 64.631715 173.864571 
L 68.938089 175.891096 
L 74.004408 178.424256 
L 79.577357 179.43752 
L 84.896995 179.43752 
L 90.216629 178.170941 
L 91.989844 175.637781 
L 92.496474 172.851306 
L 92.496474 170.318147 
L 92.749789 167.531668 
L 94.016369 165.505143 
L 97.056163 163.478614 
L 99.589322 161.958719 
L 102.375797 161.705404 
L 107.94875 160.692139 
L 104.149011 162.465349 
L 98.829373 163.478614 
L 96.042898 165.251824 
L 94.776318 167.025038 
L 93.763054 169.304882 
L 93.509738 171.838042 
L 93.509738 174.877832 
L 92.749789 176.904361 
L 93.763054 179.690835 
L 96.042898 180.7041 
L 99.589322 179.43752 
L 102.375797 177.410995 
L 103.895696 174.624516 
L 105.567225 173.051716 
L 106.833805 170.771871 
L 106.833805 174.06498 
L 105.060595 177.611404 
L 102.527435 180.397879 
L 99.740956 183.944303 
L 96.954482 187.237412 
L 95.181272 189.770572 
L 95.181272 194.583576 
L 99.234326 194.330261 
L 101.51417 198.63663 
L 101.767486 202.943004 
L 103.034065 207.756008 
L 108.100384 212.062377 
L 110.633544 212.315692 
L 112.913388 218.648595 
L 115.953182 223.461599 
L 120.259552 229.541183 
L 128.365665 236.634031 
L 139.508457 244.913829 
L 146.449829 251.273452 
L 157.089101 256.593087 
L 167.475059 260.89946 
L 174.314588 261.912725 
L 180.140856 263.43262 
L 183.940596 263.93925 
L 188.7536 266.219095 
L 195.339818 266.219095 
L 200.659452 265.712464 
L 204.459191 263.93925 
L 206.739036 262.16604 
L 207.7523 258.366301 
L 207.498985 251.780083 
L 209.525514 260.646141 
L 213.831884 263.179305 
L 220.924732 263.685935 
L 226.751001 262.16604 
L 230.55074 259.632881 
L 237.896904 255.073192 
L 243.216538 252.793347 
L 248.789491 249.753553 
L 254.10913 247.220394 
L 256.642289 245.193869 
L 261.708608 241.647445 
L 265.761663 238.607651 
L 270.827982 233.794647 
L 275.640985 229.741592 
L 279.440725 225.181904 
L 281.973888 221.888795 
L 285.773628 218.849005 
L 289.94822 214.510946 
L 293.370154 210.390255 
L 296.916578 205.830571 
L 299.196422 201.777512 
L 299.449737 198.484403 
L 304.51606 196.964508 
L 309.329064 195.191298 
L 312.368854 191.391559 
L 315.155329 187.591815 
L 316.421913 184.552026 
L 316.168593 179.485707 
L 314.902014 173.152804 
L 312.368854 168.593119 
L 310.848959 165.30001 
L 307.55585 160.740321 
L 303.813268 157.127057 
L 300.018683 154.339649 
L 297.232204 151.806489 
L 293.17915 150.286594 
L 288.872776 150.286594 
L 284.819722 150.53991 
L 291.152621 148.7667 
L 295.205679 148.7667 
L 297.232204 150.033279 
L 299.765364 152.313124 
L 301.791893 153.326388 
L 304.071738 152.566439 
L 306.858212 152.059809 
L 309.898006 155.352913 
L 312.937796 159.152653 
L 315.724275 160.925867 
L 317.7508 159.405972 
L 318.257434 154.086334 
L 317.7508 150.793229 
L 316.48422 148.513384 
L 313.951061 146.993485 
L 305.844948 144.460326 
L 311.671216 145.47359 
L 315.470956 146.486855 
L 318.510749 148.260065 
L 319.777329 151.806489 
L 320.790594 155.099598 
L 321.550539 158.392707 
L 324.843648 160.419237 
L 329.909967 161.179182 
L 334.469656 160.925867 
L 337.762765 159.405972 
L 344.855614 156.619493 
L 348.655353 154.846283 
L 351.188512 151.806489 
L 353.721672 149.779964 
L 356.001516 146.486855 
L 356.254831 142.687116 
L 356.001516 139.140692 
L 354.988252 135.847583 
L 352.455092 134.327688 
L 350.428563 134.327688 
L 347.388773 135.594267 
L 344.348979 137.114162 
L 340.802555 138.380742 
L 338.01608 138.887377 
L 334.976291 138.380742 
L 331.683182 137.114162 
L 329.909967 134.327688 
L 328.643388 131.794528 
L 328.643388 129.514684 
L 330.163287 127.488155 
L 332.696446 131.034579 
L 337.002816 133.567738 
L 342.069139 133.061108 
L 346.628824 131.541213 
L 350.681882 129.514684 
L 352.961727 127.488155 
L 354.228306 123.94173 
L 354.988252 120.648625 
L 356.254831 117.355516 
L 357.014781 113.809092 
L 357.268096 111.275933 
L 356.761466 108.742773 
L 353.468357 107.729509 
L 349.921933 106.462929 
L 353.721672 105.956294 
L 356.001516 107.222874 
L 358.028046 106.969559 
L 360.561205 103.929769 
L 361.067835 101.39661 
L 360.561205 97.850186 
L 357.77473 91.263967 
L 351.188512 91.263967 
L 347.388773 91.770602 
L 344.855614 92.277232 
L 343.842349 93.797127 
L 344.298437 96.736422 
L 343.791803 99.776212 
L 342.525223 95.469842 
L 341.005328 93.949943 
L 338.472169 94.963208 
L 336.192324 95.469842 
L 333.15253 96.736422 
L 331.37932 99.016262 
L 330.872686 101.296106 
L 331.632635 103.069321 
L 332.6459 105.09585 
L 333.659165 108.895589 
L 330.872686 104.3359 
L 328.592846 103.069321 
L 326.566316 103.575951 
L 324.539787 105.09585 
L 323.273207 107.629009 
L 321.499997 112.442013 
L 319.220153 116.748383 
L 316.180359 121.308072 
L 314.407149 123.334601 
L 316.433678 119.028227 
L 318.713519 115.481803 
L 319.473468 111.935379 
L 320.993363 108.895589 
L 322.513262 106.10911 
L 324.793102 104.082585 
L 327.832896 100.536161 
L 327.832896 98.256317 
L 326.313001 96.483103 
L 323.273207 95.216523 
L 320.486733 96.229787 
L 317.193624 97.243052 
L 314.153834 98.762947 
L 311.620674 99.269581 
L 313.140569 97.496367 
L 316.180359 96.483103 
L 320.740048 94.456577 
L 324.539787 93.696628 
L 327.832896 92.176733 
L 329.606106 90.150204 
L 329.859425 87.617044 
L 328.846161 85.083885 
L 326.566316 82.044091 
L 329.606106 83.817305 
L 330.619371 87.110414 
L 331.885951 90.656838 
L 334.925744 90.403519 
L 338.725484 89.896889 
L 343.538488 88.376994 
L 346.831597 87.110414 
L 350.884651 87.110414 
L 353.417811 87.363729 
L 356.457605 85.3372 
L 358.737449 82.80404 
L 358.990764 78.497667 
L 358.585811 76.018006 
L 357.572546 73.991477 
L 355.799336 73.231527 
L 351.492962 72.724897 
L 356.559286 71.964947 
L 358.332496 69.431788 
L 358.079181 66.138683 
L 356.559286 63.352204 
L 354.532756 60.059099 
L 352.506227 57.27262 
L 346.933278 53.219566 
L 344.653433 51.193037 
L 342.120274 49.926457 
L 339.840429 49.926457 
L 337.560585 50.939722 
L 334.77411 52.712932 
L 333.000896 54.486146 
L 331.481001 56.76599 
L 329.201157 61.325679 
L 326.921313 63.605519 
L 324.894783 64.618784 
L 322.108309 64.618784 
L 326.414682 62.592259 
L 328.187892 60.56573 
L 328.187892 58.792515 
L 328.947842 57.019305 
L 332.747581 53.219566 
L 335.280741 51.193037 
L 338.827165 48.913192 
L 339.08048 45.873403 
L 339.08048 42.833609 
L 338.32053 39.287185 
L 337.30727 37.260659 
L 335.027426 34.474181 
L 331.987632 32.194336 
L 329.454472 29.154546 
L 327.174628 27.887967 
L 324.894783 27.128017 
L 322.614939 27.634652 
L 320.335099 29.407862 
L 322.868258 26.368072 
L 322.614939 23.834912 
L 315.77541 18.261959 
L 311.215721 15.982114 
L 306.909347 13.955585 
L 303.362923 12.94232 
L 299.056554 12.43569 
L 296.523394 12.689005 
L 294.24355 16.488745 
L 293.230285 19.021908 
L 291.71039 25.861437 
L 292.97697 28.141282 
L 297.536659 32.194336 
L 301.083083 34.220865 
L 306.149402 37.76729 
L 301.083083 35.99408 
L 298.549919 34.474181 
L 296.01676 32.447655 
L 293.736919 30.927756 
L 291.71039 31.181076 
L 290.950441 33.96755 
L 291.71039 38.780554 
L 292.97697 45.366768 
L 295.003499 51.952986 
L 297.030024 60.059099 
L 301.336398 64.872103 
L 297.789974 62.33894 
L 294.75018 60.56573 
L 291.963705 60.312414 
L 289.683861 62.085624 
L 288.670596 64.365469 
L 287.910651 66.645313 
L 287.910651 70.445053 
L 288.670596 87.163909 
L 287.657332 80.577695 
L 286.897386 76.777951 
L 286.897386 73.991477 
L 287.150701 70.698368 
L 287.150701 67.405263 
L 286.644071 64.618784 
L 284.870857 62.33894 
L 279.804538 60.059099 
L 283.857592 61.07236 
L 286.897386 61.578994 
L 289.430546 60.56573 
L 291.457075 59.29915 
L 294.24355 57.779255 
L 294.24355 54.486146 
L 293.736919 51.446352 
L 292.97697 48.913192 
L 291.71039 45.620088 
L 290.697126 43.340243 
L 291.203756 40.300449 
L 290.697126 37.260659 
L 289.683861 33.460916 
L 286.644071 29.914496 
L 284.617542 28.647912 
L 279.551223 27.887967 
L 277.018063 27.634652 
L 288.163966 26.368072 
L 290.44381 24.594858 
L 291.457075 19.528539 
L 292.21702 16.488745 
L 293.990235 14.208904 
L 293.230285 12.182375 
L 289.937176 9.902531 
L 284.617542 8.382636 
L 280.057853 7.369371 
L 274.738219 6.609422 
L 271.95174 6.356107 
L 268.91195 6.862737 
L 266.632106 7.622686 
L 263.845631 6.609422 
L 260.045892 6.609422 
L 255.739518 6.356107 
L 249.153304 6.862737 
L 246.620141 7.369371 
L 243.580351 8.129317 
L 240.033927 10.409161 
L 239.780612 11.92906 
L 239.780612 14.96885 
L 243.327036 18.261959 
L 252.699724 25.354807 
L 255.992833 28.901231 
L 246.11351 21.301749 
L 242.060456 17.755324 
L 239.273977 15.475484 
L 238.260717 13.955585 
L 236.740818 10.915795 
L 234.460973 8.635951 
L 229.141339 7.116056 
L 223.568386 6.102791 
L 212.422483 6.609422 
L 196.716891 8.129317 
L 192.059656 8.939812 
L 187.499967 10.459707 
L 182.433648 10.966341 
L 176.100745 11.219657 
L 171.541061 12.739551 
L 166.728057 15.019396 
L 159.635208 19.8324 
L 156.595415 23.125509 
L 155.328835 26.165299 
L 153.555625 29.205093 
L 152.289045 31.991567 
L 150.515831 35.537991 
L 148.742621 39.591046 
L 148.742621 39.591046 
" style="fill:none;stroke:#000000;stroke-linecap:square;stroke-width:1.5;"/>
   </g>
   <g id="line2d_2">
    <path clip-path="url(#pef84b3e3a6)" d="M 256.401917 99.626937 
L 255.641968 96.587148 
L 255.135338 89.747614 
L 254.375388 84.93461 
L 253.615443 81.134871 
L 251.335598 78.348392 
L 248.549124 75.561918 
L 245.002699 73.788708 
L 240.696326 71.508863 
L 236.643271 69.735649 
L 233.603477 69.735649 
L 230.817003 71.255548 
L 227.777209 73.282073 
L 224.484104 75.055287 
L 221.190995 76.575182 
L 215.111411 77.588447 
L 203.712189 77.588447 
L 198.13924 78.601712 
L 202.698929 77.081813 
L 207.005298 76.828497 
L 210.298407 77.081813 
L 214.604777 76.828497 
L 218.657835 76.068552 
L 223.97747 74.548653 
L 226.003999 73.028758 
L 233.350162 69.229019 
L 234.110112 67.20249 
L 233.603477 64.66933 
L 232.590213 61.882855 
L 230.817003 58.843061 
L 229.297108 56.816536 
L 227.270579 55.296637 
L 222.964205 53.016793 
L 215.871357 51.750213 
L 209.791773 51.243583 
L 203.458874 51.750213 
L 199.40582 52.510163 
L 191.806337 55.549957 
L 182.940279 58.843061 
L 175.84743 61.882855 
L 171.034426 65.42928 
L 169.767847 67.709124 
L 167.741321 69.988964 
L 165.461477 72.775443 
L 163.181633 75.308603 
L 161.915053 78.348392 
L 161.661734 81.894816 
L 160.648473 86.20119 
L 160.901788 88.227719 
L 159.381893 90.760879 
L 157.608679 95.320564 
L 154.568889 101.906782 
L 159.381893 88.73435 
L 160.141839 83.921346 
L 160.395154 80.121606 
L 160.901788 76.575182 
L 163.181633 74.042023 
L 165.208158 72.015493 
L 168.501267 67.709124 
L 170.274481 64.1627 
L 169.514531 61.62954 
L 166.981372 58.083116 
L 164.701528 56.816536 
L 162.674998 55.296637 
L 164.954843 52.510163 
L 165.968107 50.483633 
L 169.767847 45.417314 
L 177.367329 38.324466 
L 180.913749 35.284676 
L 184.966808 32.244882 
L 189.019862 30.724987 
L 193.579551 29.711723 
L 199.40582 28.951773 
L 207.258613 28.445143 
L 213.844831 28.445143 
L 219.924415 29.205093 
L 224.230785 30.218357 
L 227.523894 32.244882 
L 231.070318 34.524727 
L 232.336898 36.804571 
L 232.843528 40.09768 
L 239.429746 45.163999 
L 240.949641 47.190528 
L 243.989435 50.230318 
L 248.802439 52.256848 
L 242.97617 51.750213 
L 240.189696 53.270112 
L 237.149902 55.296637 
L 234.110112 57.829797 
L 233.603477 59.603011 
L 234.870057 62.13617 
L 235.630007 64.1627 
L 236.389952 67.709124 
L 241.70959 71.255548 
L 246.269279 73.535388 
L 250.069019 75.308603 
L 253.362123 79.108342 
L 254.882022 82.908081 
L 256.655232 94.053984 
L 256.401917 99.626937 
" style="fill:none;stroke:#000000;stroke-linecap:square;stroke-width:1.5;"/>
   </g>
   <g id="line2d_3">
    <path clip-path="url(#pef84b3e3a6)" d="M 205.026636 197.966961 
L 204.021504 196.71055 
L 202.01124 193.443875 
L 200.00098 190.679763 
L 197.488154 187.915654 
L 193.216348 186.156677 
L 190.452239 184.648979 
L 189.195824 180.879738 
L 187.939413 177.613063 
L 186.431715 174.848955 
L 182.662474 172.587412 
L 179.144517 170.577148 
L 177.134257 168.315605 
L 173.867582 166.556624 
L 176.129125 165.300213 
L 178.893234 163.038666 
L 182.662474 161.028406 
L 185.426583 160.023274 
L 187.939413 159.520708 
L 188.441975 161.028406 
L 188.944541 163.541232 
L 191.206088 165.300213 
L 194.724046 166.807907 
L 198.995848 168.064322 
L 204.52407 168.818171 
L 210.052288 169.069454 
L 214.575377 168.064322 
L 219.852312 166.054062 
L 224.375402 164.043798 
L 227.390794 162.033538 
L 228.647208 159.26943 
L 225.631817 156.254034 
L 228.144643 156.7566 
L 231.6626 157.259166 
L 235.431841 159.26943 
L 238.698516 160.274557 
L 235.180558 163.289949 
L 232.165166 165.04893 
L 229.401053 168.315605 
L 221.862576 174.848955 
L 220.354878 177.110497 
L 219.601029 180.377172 
L 216.83692 183.89513 
L 213.067679 184.900262 
L 210.052288 187.161805 
L 208.544594 190.177201 
L 207.790745 194.449003 
L 205.026636 197.966961 
L 205.026636 197.966961 
" style="fill:none;stroke:#000000;stroke-linecap:square;stroke-width:1.5;"/>
   </g>
   <g id="line2d_4">
    <path clip-path="url(#pef84b3e3a6)" d="M 173.567586 62.389486 
L 180.660434 58.843061 
L 189.273177 55.549957 
L 194.846131 53.270112 
L 201.432345 51.243583 
L 207.005298 50.230318 
L 213.338197 50.230318 
L 219.417781 50.990268 
L 225.750684 52.763478 
L 230.563688 56.309902 
L 232.590213 57.829797 
L 235.123372 55.549957 
L 238.669797 52.510163 
L 242.216221 51.243583 
L 240.189696 48.963738 
L 239.176431 46.683894 
L 235.630007 43.897419 
L 232.590213 41.87089 
L 230.057053 40.857625 
L 229.601558 38.781143 
L 228.588293 36.501299 
L 225.295184 33.461509 
L 222.002079 31.688295 
L 217.949021 30.421715 
L 211.362807 29.40845 
L 205.029904 29.40845 
L 198.44369 30.1684 
L 193.124056 30.928349 
L 188.311052 32.448244 
L 184.257993 34.474774 
L 180.204939 37.007933 
L 177.418464 39.794408 
L 174.37867 42.834202 
L 172.098826 45.620676 
L 169.312351 48.407151 
L 167.285822 50.940311 
L 166.272557 53.220155 
L 166.779192 54.993369 
L 168.552402 57.779844 
L 170.832246 60.566318 
L 171.845511 62.339533 
L 173.567586 62.389486 
" style="fill:none;stroke:#000000;stroke-linecap:square;stroke-width:1.5;"/>
   </g>
  </g>
 </g>
 <defs>
  <clipPath id="pef84b3e3a6">
   <rect height="275.04" width="414.72" x="0" y="0"/>
  </clipPath>
 </defs>
</svg>
