<?xml version="1.0" encoding="utf-8" standalone="no"?>
<!DOCTYPE svg PUBLIC "-//W3C//DTD SVG 1.1//EN"
  "http://www.w3.org/Graphics/SVG/1.1/DTD/svg11.dtd">
<!-- Created with matplotlib (https://matplotlib.org/) -->
<svg height="246.24pt" version="1.1" viewBox="0 0 414.72 246.24" width="414.72pt" xmlns="http://www.w3.org/2000/svg" xmlns:xlink="http://www.w3.org/1999/xlink">
 <defs>
  <style type="text/css">
*{stroke-linecap:butt;stroke-linejoin:round;}
  </style>
 </defs>
 <g id="figure_1">
  <g><image xlink:href="../../img/cb/polarbear_cor_cell.json.cb-50%25.png" width="414.71999999999997px" height="246.23999999999998px"/></g>

  <g id="patch_1">
   <path d="M 0 246.24 
L 414.72 246.24 
L 414.72 0 
L 0 0 
z
" style="fill:none;"/>
  </g>
  <g id="axes_1">
   <g id="line2d_1">
    <path clip-path="url(#pad050421d1)" d="M 307.684923 129.666488 
L 308.01225 126.72057 
L 308.666898 123.12 
L 307.357602 121.483378 
L 305.393654 120.174082 
L 303.566708 119.680669 
L 303.920216 121.320194 
L 304.739006 122.792674 
L 305.134495 123.682526 
L 305.562042 125.344085 
L 305.884981 127.049149 
L 306.375628 129.74832 
L 307.684923 129.666488 
" style="fill:none;stroke:#000000;stroke-linecap:square;stroke-width:1.5;"/>
   </g>
   <g id="line2d_2">
    <path clip-path="url(#pad050421d1)" d="M 96.05269 126.828965 
L 97.34869 129.492965 
L 98.50069 130.356964 
L 99.364689 130.140965 
L 100.012689 128.412964 
L 100.44469 128.412964 
L 100.948691 130.716965 
L 100.948691 132.300964 
L 99.94069 131.508964 
L 99.004691 132.012965 
L 99.652691 134.604965 
L 101.020691 136.548965 
L 102.676689 137.124966 
L 103.900689 135.540964 
L 105.484691 131.220966 
L 106.42069 130.068965 
L 105.12469 133.596964 
L 104.836691 135.684967 
L 104.40469 137.268965 
L 103.324689 138.348966 
L 103.396688 139.644966 
L 104.188691 140.940966 
L 105.62869 141.372964 
L 107.57269 141.372964 
L 108.436689 140.796963 
L 108.22069 139.500963 
L 109.66069 141.660966 
L 111.60469 141.732965 
L 113.116688 141.444963 
L 114.484692 141.732965 
L 116.284689 142.236966 
L 118.516691 142.380965 
L 120.100689 141.372964 
L 122.47669 141.300964 
L 124.636689 141.732965 
L 127.300689 141.228964 
L 130.828691 141.228964 
L 132.052691 142.020964 
L 130.612688 142.236966 
L 129.316688 142.596964 
L 128.092692 143.388963 
L 129.460691 147.204964 
L 130.540689 149.220963 
L 129.964688 149.652964 
L 128.740692 147.492966 
L 128.164691 146.124966 
L 126.652689 145.764964 
L 125.428688 146.916965 
L 126.292691 148.428964 
L 126.796692 150.444964 
L 126.076688 149.796964 
L 124.996691 147.996967 
L 123.84469 147.924963 
L 121.97269 148.140966 
L 120.748689 149.364966 
L 120.316692 150.948964 
L 120.748689 152.892964 
L 122.692689 155.196966 
L 123.628691 156.564966 
L 125.06869 156.204964 
L 126.36469 154.908964 
L 127.588691 154.980964 
L 127.876689 155.628964 
L 126.50869 155.916966 
L 126.220691 156.780964 
L 126.796692 158.076964 
L 128.524689 158.868964 
L 130.036692 158.796964 
L 132.484689 158.148964 
L 133.924692 157.068967 
L 134.572692 155.772967 
L 134.86069 153.612964 
L 134.716691 151.308966 
L 134.21269 148.644967 
L 135.148688 149.580965 
L 135.076689 151.812963 
L 135.43669 155.844966 
L 135.724689 157.284965 
L 137.45269 158.220964 
L 139.036688 157.860966 
L 140.548691 157.068967 
L 140.718535 156.579427 
L 141.391808 155.790368 
L 139.08769 151.326463 
L 138.727689 149.742465 
L 138.367691 147.510463 
L 139.303689 147.654466 
L 139.663691 150.102463 
L 140.52769 152.694463 
L 141.391692 154.134466 
L 142.759692 154.422464 
L 143.191689 152.046463 
L 143.04769 149.886464 
L 143.11969 145.566463 
L 142.831691 143.622463 
L 140.815692 142.974463 
L 139.73569 142.470466 
L 142.111692 142.686465 
L 143.407692 142.686465 
L 144.127691 143.694467 
L 144.055692 147.438463 
L 143.551691 149.166465 
L 143.11969 152.622463 
L 143.04769 154.926465 
L 144.127691 156.150466 
L 146.143691 156.006467 
L 146.86369 154.494464 
L 147.58369 151.470467 
L 147.943692 149.022466 
L 148.375689 147.726466 
L 149.239692 145.566463 
L 149.959691 145.422464 
L 149.095689 147.222465 
L 148.663691 149.310464 
L 148.87969 151.614466 
L 148.80769 152.910466 
L 150.031691 153.270463 
L 148.519692 153.702465 
L 147.079689 154.782466 
L 146.575692 156.222465 
L 148.015691 157.374466 
L 150.24769 157.302467 
L 152.551691 156.942465 
L 155.503689 156.078466 
L 157.087691 154.566463 
L 157.663692 153.414467 
L 156.511691 152.694463 
L 155.143691 152.982465 
L 156.943692 152.478464 
L 158.311692 151.974463 
L 159.535692 150.678463 
L 159.24769 149.742465 
L 158.383691 148.662464 
L 157.30369 148.230467 
L 155.143691 148.446465 
L 154.13569 148.950466 
L 153.48769 149.022466 
L 153.919691 148.014464 
L 153.559689 145.998464 
L 154.279689 147.006466 
L 155.28769 147.654466 
L 156.871689 147.798465 
L 159.31969 147.654466 
L 159.89569 146.646464 
L 159.535692 145.638467 
L 158.311692 143.694467 
L 158.383691 142.182464 
L 157.807691 141.030463 
L 156.58369 140.742465 
L 155.071692 140.814464 
L 153.199691 142.470466 
L 153.847691 141.534464 
L 154.270229 140.81852 
L 155.586832 140.490833 
L 157.750431 140.160148 
L 159.533685 141.103325 
L 159.458015 142.760895 
L 159.530015 144.344897 
L 160.279194 138.560507 
L 163.625271 135.21443 
L 166.266909 131.868357 
L 168.028005 129.931154 
L 170.669643 127.641734 
L 173.663498 125.880642 
L 175.1552 124.870624 
L 178.070607 124.382449 
L 180.003435 124.295657 
L 183.877836 123.503164 
L 187.752242 122.886782 
L 190.129715 122.622618 
L 190.922208 124.471767 
L 192.947464 129.66699 
L 193.916063 130.987811 
L 193.563846 132.484738 
L 194.004121 134.686105 
L 194.092174 136.271086 
L 195.765213 138.824671 
L 198.054633 140.761874 
L 201.312652 142.082695 
L 205.715386 142.170748 
L 210.38228 141.64242 
L 217.514705 136.975526 
L 217.602763 135.478594 
L 219.27773 134.400786 
L 220.143682 132.704424 
L 220.703023 130.127308 
L 220.194763 124.590539 
L 218.970762 121.710541 
L 221.706761 121.998539 
L 224.51476 122.862542 
L 228.114762 124.158542 
L 234.783522 126.127798 
L 237.63862 127.623328 
L 243.348821 132.109914 
L 245.796051 135.10097 
L 247.155623 137.140327 
L 247.019665 139.587557 
L 247.427538 142.986486 
L 248.379238 145.70563 
L 249.330937 148.016902 
L 251.370294 151.687743 
L 252.593909 154.27093 
L 255.177096 154.406887 
L 257.080495 154.27093 
L 258.711982 155.76646 
L 260.724312 155.405616 
L 261.151938 154.182457 
L 259.639939 151.086461 
L 259.063939 149.358459 
L 258.703937 147.414459 
L 260.359939 151.590457 
L 261.295937 153.390458 
L 262.15994 154.758458 
L 263.527939 155.478457 
L 265.255936 155.478457 
L 266.119939 153.75046 
L 265.831937 151.87846 
L 265.255936 149.646457 
L 264.679936 148.56646 
L 263.743938 147.198461 
L 262.80794 145.182457 
L 263.599939 146.262458 
L 264.535937 146.69446 
L 265.255936 145.32646 
L 265.831937 143.814457 
L 266.04794 142.230459 
L 266.956861 141.968904 
L 268.702824 141.775706 
L 267.685926 142.166659 
L 266.920523 142.676337 
L 266.551256 143.829495 
L 266.047255 144.837493 
L 264.895254 146.565494 
L 264.967254 147.861494 
L 265.975256 149.013495 
L 267.127257 148.869496 
L 268.639255 147.213494 
L 268.279253 148.365495 
L 266.551256 149.301493 
L 266.047255 150.453494 
L 266.047255 152.181496 
L 266.911254 153.549495 
L 268.063255 153.189493 
L 269.359255 152.037497 
L 268.927253 153.189493 
L 268.330758 153.606606 
L 267.270663 154.013758 
L 266.000243 155.010388 
L 266.149637 156.807992 
L 268.093637 157.959993 
L 270.469639 158.823991 
L 273.781638 158.679992 
L 275.869637 157.815989 
L 276.445638 156.663993 
L 274.501638 155.655991 
L 272.84564 155.295993 
L 274.78964 153.85599 
L 274.78964 152.055993 
L 274.645637 150.61599 
L 273.853638 150.039989 
L 274.501638 148.815993 
L 273.781638 147.519993 
L 273.49364 145.935991 
L 273.181119 144.900364 
L 273.015215 143.307019 
L 273.521086 142.312126 
L 273.737085 144.040127 
L 275.105084 146.848126 
L 275.393087 147.856124 
L 275.537086 149.152124 
L 275.321087 150.304125 
L 276.329085 150.664126 
L 277.049084 150.736126 
L 275.753084 151.384126 
L 275.465086 152.680126 
L 275.681085 154.408127 
L 276.329085 155.632124 
L 278.129086 156.496126 
L 280.001086 156.712125 
L 281.009088 156.424127 
L 282.809085 156.064125 
L 284.177084 154.912124 
L 284.825084 153.688124 
L 284.897088 151.816127 
L 284.105085 150.448124 
L 282.449087 150.376124 
L 282.665086 150.016126 
L 283.817087 149.512126 
L 282.521087 146.992125 
L 281.369086 146.200126 
L 280.217085 146.416125 
L 280.865085 145.408127 
L 280.289084 144.544124 
L 279.209087 143.752125 
L 277.337087 142.168127 
L 277.769088 141.664126 
L 280.433088 144.040127 
L 282.089085 144.616124 
L 282.521087 144.904126 
L 282.665086 146.056127 
L 283.097087 147.424126 
L 283.745087 148.576127 
L 285.689087 149.080124 
L 287.057087 148.576127 
L 287.201086 147.208124 
L 287.057087 145.552126 
L 288.139804 145.224729 
L 289.435804 144.360731 
L 289.651803 142.56073 
L 288.571802 141.84073 
L 286.771805 141.336729 
L 285.331802 141.84073 
L 284.539803 141.19273 
L 286.555802 140.400731 
L 285.547804 139.32073 
L 283.099803 139.536729 
L 280.795802 140.040729 
L 278.491804 140.256728 
L 278.707803 139.392729 
L 281.227803 139.392729 
L 283.171803 138.888729 
L 284.467803 138.67273 
L 286.483803 138.888729 
L 288.283803 139.536729 
L 291.379804 140.184729 
L 293.611803 139.96873 
L 296.707803 140.112729 
L 299.227804 139.824731 
L 301.603801 138.456731 
L 304.555803 136.224729 
L 306.139801 134.352729 
L 305.347802 130.968729 
L 305.059804 128.160731 
L 303.835803 123.04873 
L 302.251801 120.600729 
L 300.091803 118.944728 
L 297.283804 119.016731 
L 294.115803 119.520728 
L 291.739802 120.168728 
L 289.795802 120.168728 
L 286.411803 120.312731 
L 284.251804 120.600729 
L 278.995805 120.600729 
L 276.259802 120.816728 
L 274.243802 120.45673 
L 271.651802 120.52873 
L 270.859803 119.952729 
L 273.811805 120.312731 
L 274.963802 119.80873 
L 275.179804 117.93673 
L 275.395803 119.80873 
L 276.547804 120.312731 
L 278.275801 120.240728 
L 280.003803 119.376729 
L 280.075802 117.432729 
L 281.371802 116.136729 
L 280.795802 117.720731 
L 280.435804 119.23273 
L 282.091802 119.952729 
L 284.899804 120.024729 
L 287.059803 119.736731 
L 288.931803 118.368731 
L 288.139804 117.144731 
L 289.507804 115.99273 
L 292.819803 115.92073 
L 293.683802 116.712729 
L 293.179801 117.93673 
L 294.043804 118.51273 
L 296.851803 118.656729 
L 299.731805 118.296728 
L 302.323805 117.21673 
L 303.873643 115.12677 
L 304.808484 112.750013 
L 304.66448 109.078012 
L 304.880483 106.630011 
L 304.736484 103.174013 
L 304.376482 99.718014 
L 302.792484 96.334011 
L 300.992483 93.814014 
L 298.688481 91.798011 
L 296.312484 89.926014 
L 293.00048 89.134011 
L 290.912481 89.566013 
L 287.600482 89.278014 
L 285.008482 89.206011 
L 282.848483 88.630014 
L 279.824482 88.486011 
L 278.456482 88.990012 
L 278.024481 89.998014 
L 274.568482 90.718013 
L 274.280484 91.798011 
L 274.352484 92.950012 
L 273.344482 94.534014 
L 272.120481 95.758014 
L 272.552483 94.678013 
L 273.344482 93.670011 
L 271.256483 92.662013 
L 269.67248 91.438013 
L 270.176481 90.358012 
L 271.976482 88.990012 
L 274.352484 88.198013 
L 275.360481 86.902013 
L 274.712481 85.822012 
L 274.136481 85.246011 
L 274.928484 85.462014 
L 276.440483 86.398012 
L 278.168484 86.038014 
L 279.032483 84.742014 
L 278.528482 83.302011 
L 277.088483 82.006011 
L 276.15248 80.494013 
L 277.664483 81.142013 
L 278.960483 82.870014 
L 280.112484 84.166014 
L 282.200483 84.166014 
L 283.496483 83.086013 
L 283.135992 82.398042 
L 282.764245 81.282798 
L 282.615547 80.464949 
L 283.879494 80.8367 
L 284.102543 79.6471 
L 283.591139 78.120126 
L 283.305069 76.54288 
L 282.585576 75.033527 
L 281.43384 73.810402 
L 280.13784 73.810402 
L 279.417841 74.386402 
L 279.48984 75.826401 
L 279.417841 77.410403 
L 278.26584 77.698402 
L 276.753841 77.2664 
L 276.32184 75.898401 
L 277.041843 74.170403 
L 278.337843 72.946403 
L 278.409843 71.794402 
L 277.61784 70.426403 
L 275.889842 69.5624 
L 273.65784 69.418401 
L 271.569841 70.066401 
L 271.641841 71.5064 
L 272.721842 72.514402 
L 273.72984 73.162402 
L 273.72984 73.810402 
L 272.937841 74.7464 
L 272.217841 75.898401 
L 272.145841 77.482403 
L 273.00984 78.490401 
L 271.06584 79.354403 
L 270.633843 80.074403 
L 270.201841 82.234402 
L 269.481842 83.1704 
L 268.689843 84.610403 
L 267.89784 86.3384 
L 267.033841 87.6344 
L 265.95384 89.5784 
L 266.673843 87.778403 
L 267.753841 85.834403 
L 268.257841 83.962403 
L 268.257841 82.4504 
L 267.465842 81.730401 
L 268.977841 82.162402 
L 269.84184 81.082401 
L 270.849841 79.354403 
L 270.561843 78.6344 
L 269.84184 77.482403 
L 270.777842 76.6184 
L 271.13784 75.250401 
L 271.281843 73.882401 
L 270.921841 72.226403 
L 269.985843 71.362401 
L 268.257841 71.146402 
L 266.817842 72.010401 
L 265.88184 72.7304 
L 265.825235 73.919145 
L 265.449843 72.7304 
L 264.297842 72.0824 
L 264.729843 72.010401 
L 266.313841 71.866402 
L 267.105841 70.8584 
L 266.673843 69.4904 
L 265.809841 68.1944 
L 264.081843 67.5464 
L 262.569841 67.978402 
L 261.705842 69.346401 
L 260.409842 72.8024 
L 259.329841 74.602401 
L 259.617843 73.234401 
L 260.553841 71.218402 
L 261.921841 67.690403 
L 261.777841 66.3224 
L 259.977841 65.6744 
L 258.249843 65.314402 
L 256.737841 65.890403 
L 256.88184 67.762403 
L 257.601843 68.698401 
L 256.449842 67.762403 
L 256.089841 66.538403 
L 254.505842 66.2504 
L 253.56984 67.186403 
L 253.353841 69.130403 
L 254.28984 70.570402 
L 255.801842 71.5064 
L 256.16184 72.586401 
L 255.153842 72.586401 
L 254.001841 72.0824 
L 252.99384 72.0824 
L 252.27384 72.946403 
L 252.129841 74.530401 
L 252.849841 75.898401 
L 254.001841 77.122401 
L 255.081843 77.194401 
L 255.51384 78.130403 
L 255.369841 79.8584 
L 255.081843 81.082401 
L 255.081843 78.706403 
L 254.28984 77.842401 
L 252.849841 77.554403 
L 251.481841 78.418401 
L 250.689842 79.642402 
L 250.473843 81.2264 
L 250.40184 82.738403 
L 250.97784 83.7464 
L 252.27384 83.890403 
L 252.057841 86.698402 
L 251.769843 85.618401 
L 250.833841 84.538403 
L 249.537841 84.970401 
L 248.38584 86.050402 
L 247.73784 87.346402 
L 248.313841 88.786401 
L 249.10584 89.794403 
L 250.113841 90.370403 
L 248.529843 90.514403 
L 247.16184 90.9464 
L 247.08984 92.314403 
L 247.521841 93.106403 
L 246.369841 93.178402 
L 246.153842 92.026401 
L 245.577841 91.162403 
L 245.937843 90.154401 
L 246.945841 89.0024 
L 247.305843 88.138401 
L 247.233843 86.770402 
L 246.081842 85.978403 
L 245.505842 85.330403 
L 247.377842 85.906403 
L 249.10584 85.0424 
L 250.113841 83.602401 
L 249.321842 80.002403 
L 248.241841 79.426403 
L 245.79384 80.218402 
L 245.361843 79.570402 
L 246.153842 79.2824 
L 247.80984 79.426403 
L 249.321842 79.2104 
L 250.545843 78.5624 
L 251.69784 77.122401 
L 252.057841 75.682402 
L 251.769843 74.170403 
L 250.97784 72.946403 
L 249.393842 72.7304 
L 247.73784 74.0984 
L 246.873841 74.386402 
L 247.881843 73.306401 
L 249.321842 72.370403 
L 250.545843 72.298403 
L 252.129841 71.290401 
L 252.417843 70.354403 
L 252.561842 68.9144 
L 251.913842 67.906402 
L 250.40184 67.6184 
L 249.249843 67.834403 
L 247.593841 68.554402 
L 248.313841 67.762403 
L 250.185841 66.9704 
L 251.193843 66.2504 
L 251.121843 64.666402 
L 249.897843 63.586401 
L 248.45784 62.794402 
L 246.657843 62.218401 
L 245.21784 62.722402 
L 244.713843 63.802403 
L 245.361843 64.882401 
L 246.585843 65.170403 
L 245.433842 65.314402 
L 245.14584 66.034402 
L 243.84984 67.042403 
L 244.425841 68.698401 
L 245.21784 69.346401 
L 245.14584 69.706403 
L 243.777841 70.498402 
L 244.137842 71.146402 
L 243.561842 72.442402 
L 243.20184 73.810402 
L 242.985841 72.7304 
L 243.489842 71.002403 
L 243.777841 69.5624 
L 243.633841 68.122401 
L 243.057841 66.8984 
L 242.913842 66.178401 
L 243.057841 64.9544 
L 244.065843 63.6584 
L 244.281841 62.074402 
L 242.697843 60.778402 
L 241.041841 60.634403 
L 239.457843 61.1384 
L 239.31384 62.290401 
L 238.233843 62.074402 
L 236.72184 62.002403 
L 236.14584 63.0104 
L 236.577841 64.594403 
L 238.73784 67.330402 
L 239.457843 68.698401 
L 238.377842 67.834403 
L 236.505841 65.530401 
L 235.137842 64.810401 
L 234.12984 65.746403 
L 233.625843 66.610402 
L 233.769842 68.338403 
L 234.561841 69.4904 
L 235.209841 70.930403 
L 235.281841 71.578403 
L 236.289843 72.658401 
L 237.977903 73.160971 
L 239.209687 73.713618 
L 239.914915 75.148234 
L 238.762072 75.21994 
L 238.258071 73.92394 
L 236.170072 73.419939 
L 235.738074 73.059941 
L 234.226072 73.059941 
L 232.786073 73.563942 
L 232.786073 74.715939 
L 233.506072 76.37194 
L 234.154072 77.379942 
L 235.666071 78.45994 
L 239.266073 79.323942 
L 239.050074 80.40394 
L 239.266073 82.491939 
L 239.050074 83.787939 
L 238.474074 83.067939 
L 238.186071 81.55594 
L 237.610071 80.25994 
L 236.386074 79.61194 
L 234.802072 78.45994 
L 233.002071 77.66794 
L 230.914072 77.955939 
L 229.330074 79.395942 
L 229.402074 80.763941 
L 230.410071 82.131941 
L 232.138073 83.49994 
L 234.442074 84.651941 
L 232.930072 84.86794 
L 231.922074 85.51594 
L 232.138073 87.099942 
L 233.794074 88.323939 
L 235.738074 88.75594 
L 237.610071 88.899939 
L 238.114072 89.187941 
L 236.818072 89.47594 
L 236.962071 90.339942 
L 235.666071 89.187941 
L 233.794074 88.611941 
L 229.518904 89.40394 
L 227.862902 90.12394 
L 226.494903 91.203941 
L 226.350904 92.57194 
L 226.854901 93.723941 
L 228.582902 94.01194 
L 232.470902 93.795941 
L 234.630901 94.01194 
L 234.702904 94.58794 
L 232.182904 94.227942 
L 228.294904 94.443941 
L 226.422903 94.947942 
L 226.350904 96.675939 
L 227.142903 98.043939 
L 229.014903 98.54794 
L 231.894902 98.259941 
L 234.270903 97.611941 
L 231.822902 98.763942 
L 228.438903 99.627941 
L 225.918902 100.563939 
L 223.398902 101.283939 
L 221.382902 102.147941 
L 219.792307 102.375168 
L 222.380333 101.454982 
L 225.326251 99.982021 
L 225.817238 96.463283 
L 225.080758 92.944546 
L 224.835264 90.244121 
L 225.817238 89.016654 
L 227.130847 86.078624 
L 227.540001 84.523834 
L 228.849297 83.214538 
L 228.35831 81.741577 
L 226.312534 80.51411 
L 223.693938 80.432281 
L 221.239007 81.332423 
L 218.374918 81.82341 
L 216.083648 81.332423 
L 213.756231 81.124229 
L 210.024091 81.143804 
L 207.056325 81.321649 
L 202.664374 80.833353 
L 198.983859 81.242698 
L 196.201602 81.324531 
L 192.437371 81.242698 
L 189.327792 81.570024 
L 187.036518 81.242698 
L 185.318067 80.669883 
L 183.190458 81.733685 
L 183.845106 83.45214 
L 185.481728 85.088762 
L 189.736946 85.579749 
L 195.137799 85.661577 
L 202.829922 85.416084 
L 206.430488 85.334255 
L 213.877117 85.416084 
L 220.341777 86.070732 
L 215.26825 85.988903 
L 210.440213 86.316225 
L 193.583006 85.825238 
L 189.000466 85.907071 
L 186.300041 86.070732 
L 184.663419 86.643551 
L 184.417926 88.280173 
L 185.072574 88.852989 
L 186.852393 89.343976 
L 186.791024 89.343976 
L 184.008767 89.671302 
L 184.254261 90.816937 
L 184.745248 92.535391 
L 186.054548 93.92652 
L 189.164127 95.153987 
L 192.27371 95.235816 
L 194.271076 95.64497 
L 190.448797 95.808635 
L 185.911349 94.826661 
L 184.089161 95.481309 
L 182.855912 97.036099 
L 183.101406 99.327373 
L 184.901689 101.209488 
L 189.320572 103.255265 
L 195.376073 104.810054 
L 199.222132 105.464702 
L 203.231856 105.628367 
L 207.732568 105.628367 
L 212.724262 105.13738 
L 215.342858 103.909912 
L 218.247877 102.917955 
L 217.134901 103.65994 
L 215.163732 104.55926 
L 212.571732 105.495263 
L 209.691734 105.85526 
L 206.595733 106.719263 
L 203.571732 106.791263 
L 197.595733 106.791263 
L 194.571731 106.143263 
L 188.811731 103.91126 
L 186.507733 102.61526 
L 184.635733 102.03926 
L 179.523732 99.879261 
L 176.283732 98.07926 
L 177.939734 98.15126 
L 179.739731 97.647263 
L 182.403735 96.13526 
L 182.907731 94.623262 
L 181.971733 93.471261 
L 180.891732 92.96726 
L 179.019731 93.255262 
L 177.147731 93.399261 
L 175.347734 94.119261 
L 173.187731 95.271262 
L 172.971733 95.199262 
L 172.611731 94.83926 
L 175.059732 93.327262 
L 176.859733 92.89526 
L 178.731733 92.751261 
L 180.675733 92.391259 
L 182.475734 91.743259 
L 182.763732 90.231261 
L 182.403735 89.223263 
L 181.323733 89.00726 
L 178.947732 89.151259 
L 177.075731 89.439262 
L 175.707732 88.935261 
L 177.147731 88.287261 
L 178.659734 88.575263 
L 180.243732 88.575263 
L 181.971733 88.43126 
L 182.907731 87.13526 
L 182.403735 85.911259 
L 181.323733 84.183262 
L 180.171732 82.59926 
L 178.875732 81.95126 
L 176.931732 82.887262 
L 173.907731 85.047261 
L 172.755734 86.559259 
L 172.395732 87.855259 
L 171.747732 89.223263 
L 170.811734 90.37526 
L 171.099732 88.935261 
L 172.323733 84.687263 
L 173.187731 84.54326 
L 174.267733 83.967259 
L 175.995734 82.887262 
L 177.723731 82.023259 
L 179.091731 81.519263 
L 181.107735 80.439261 
L 182.259731 79.431259 
L 182.403735 78.207263 
L 180.963731 76.479262 
L 179.379733 76.69526 
L 173.341999 79.121414 
L 172.933417 78.608629 
L 174.0182 77.454837 
L 177.474199 76.950836 
L 178.914198 76.518834 
L 180.714199 75.726835 
L 181.506198 74.646838 
L 181.1462 72.990836 
L 180.642199 72.126838 
L 178.842198 72.270837 
L 176.5382 72.630834 
L 177.330199 72.126838 
L 179.2022 71.550837 
L 180.858198 70.326837 
L 181.0742 69.102836 
L 180.780048 68.296479 
L 180.234508 67.494498 
L 179.154507 66.990501 
L 177.930507 67.2065 
L 176.562507 67.8545 
L 175.194508 68.862498 
L 174.330509 69.7265 
L 172.530508 72.030498 
L 171.954508 73.6145 
L 171.522506 72.462499 
L 171.954508 70.806498 
L 173.106508 69.582501 
L 174.474508 68.4305 
L 175.698508 67.566498 
L 176.562507 66.5585 
L 177.210507 65.334499 
L 176.346508 64.038499 
L 175.410506 63.2465 
L 173.898508 63.3185 
L 172.818506 64.182499 
L 171.594506 65.478499 
L 170.154507 66.4865 
L 170.442509 65.8385 
L 171.810508 64.470501 
L 172.746507 62.958498 
L 171.522506 62.094499 
L 169.794509 61.662498 
L 167.634506 62.526501 
L 166.266507 63.750501 
L 165.618507 64.758499 
L 166.626508 67.278499 
L 166.122508 69.1505 
L 165.618507 69.582501 
L 165.690506 70.950501 
L 166.842507 71.382498 
L 166.410506 71.886499 
L 165.906509 72.894501 
L 165.906509 74.190501 
L 166.698508 75.702499 
L 167.418508 76.566498 
L 167.418508 77.286498 
L 166.986506 78.294499 
L 167.346508 81.750498 
L 166.698508 81.894501 
L 166.482505 79.302501 
L 166.122508 78.006501 
L 165.402508 76.9265 
L 165.186505 75.846499 
L 165.690506 73.182499 
L 165.258509 72.102498 
L 164.106508 71.598501 
L 162.522506 72.246501 
L 163.746506 71.454498 
L 164.610509 70.662499 
L 164.898507 68.574499 
L 164.970507 66.198498 
L 164.394506 64.254498 
L 163.098506 62.814499 
L 161.226506 62.094499 
L 159.570508 62.0225 
L 157.626508 62.382498 
L 156.330508 63.462499 
L 156.834509 64.902498 
L 158.850508 65.9105 
L 159.714507 67.1345 
L 160.146508 68.4305 
L 159.138507 69.7265 
L 159.282506 68.286501 
L 158.058505 66.414501 
L 156.186509 65.550498 
L 154.602507 65.9105 
L 154.170505 67.062501 
L 154.242509 68.862498 
L 155.322506 70.3745 
L 156.114505 71.238499 
L 155.538509 71.7425 
L 155.826507 73.110499 
L 156.618506 74.190501 
L 157.986506 74.838501 
L 158.490507 73.902499 
L 158.994508 74.766501 
L 159.858506 75.6305 
L 159.498508 75.702499 
L 157.482509 74.622498 
L 156.258508 75.342498 
L 156.042506 76.2065 
L 156.402508 77.934498 
L 157.482509 79.086499 
L 160.002505 79.806498 
L 160.794508 80.7425 
L 162.234508 82.254499 
L 160.794508 81.606499 
L 159.570508 80.7425 
L 158.634506 81.030499 
L 157.986506 82.542501 
L 158.202508 84.198499 
L 158.850508 85.494499 
L 160.650505 85.9265 
L 162.378507 85.710498 
L 160.794508 86.286498 
L 159.786507 87.2225 
L 160.434507 89.022501 
L 161.730507 89.1665 
L 163.458508 88.662499 
L 163.818506 89.382499 
L 162.594505 89.454499 
L 160.794508 89.958499 
L 161.082507 91.470498 
L 161.946505 92.694499 
L 163.458508 93.558501 
L 162.306507 93.918499 
L 161.226506 94.4225 
L 160.722509 93.486498 
L 160.218508 92.118498 
L 158.850508 92.046499 
L 157.410505 92.766498 
L 157.266506 91.974499 
L 158.922508 91.398499 
L 159.930506 90.174498 
L 159.786507 88.878498 
L 159.282506 87.150501 
L 158.130509 85.638498 
L 157.194507 85.494499 
L 156.114505 86.718499 
L 155.322506 86.790499 
L 157.482509 83.766498 
L 157.482509 81.966501 
L 157.338506 79.806498 
L 155.898507 78.366499 
L 154.602507 78.726501 
L 153.133709 79.7057 
L 153.162508 79.374501 
L 154.818505 78.006501 
L 155.394506 76.998499 
L 155.538509 74.694498 
L 155.178507 73.326498 
L 153.738508 72.822501 
L 152.514508 73.398498 
L 152.082506 74.766501 
L 151.218508 75.486501 
L 151.650509 74.2625 
L 152.226505 73.182499 
L 154.098506 72.102498 
L 154.530507 71.166499 
L 154.170505 69.870499 
L 153.450506 68.934501 
L 153.306507 67.926499 
L 154.026506 66.4865 
L 153.882507 65.046501 
L 152.514508 63.9665 
L 150.354509 63.8945 
L 149.732657 64.246108 
L 148.762569 65.443028 
L 148.912631 66.806697 
L 148.840628 69.614696 
L 148.984631 71.414697 
L 148.192628 70.190696 
L 147.76063 69.0387 
L 148.048628 67.0947 
L 147.976629 65.366698 
L 146.248628 64.430696 
L 144.664629 65.1507 
L 143.368629 66.302696 
L 144.376631 67.382698 
L 144.736629 68.462699 
L 143.512628 66.806697 
L 142.00063 66.878697 
L 140.848629 68.318696 
L 141.064628 70.190696 
L 142.432631 71.414697 
L 144.59263 71.558696 
L 144.016629 72.206696 
L 143.584628 73.358697 
L 143.368629 74.726696 
L 144.736629 75.302697 
L 146.032629 75.230697 
L 146.824628 74.654697 
L 146.680629 75.662699 
L 145.528628 75.5187 
L 145.672631 75.950697 
L 144.304628 76.382698 
L 144.232628 77.246697 
L 145.16863 79.190697 
L 146.176628 80.0547 
L 148.552629 80.126699 
L 148.624629 80.7027 
L 147.256629 81.134697 
L 148.48063 84.086699 
L 149.200629 85.382699 
L 150.208631 86.390696 
L 150.568629 87.398698 
L 150.784628 88.910697 
L 151.288628 90.206697 
L 151.64863 91.790699 
L 150.280631 89.342698 
L 149.560631 88.4787 
L 149.12863 87.542697 
L 148.264631 87.1827 
L 148.40863 86.390696 
L 148.048628 85.2387 
L 147.616631 84.374697 
L 146.392631 83.654697 
L 146.46463 82.718699 
L 146.392631 81.494699 
L 145.88863 80.486697 
L 145.024631 79.910696 
L 144.304628 79.622698 
L 144.016629 77.174697 
L 142.864628 76.8147 
L 142.360628 76.238699 
L 142.504631 75.158698 
L 142.504631 73.934697 
L 142.00063 73.070699 
L 141.208631 72.566698 
L 140.70463 71.414697 
L 139.696628 70.3347 
L 138.400628 69.974698 
L 137.320631 70.190696 
L 135.736628 72.566698 
L 135.880628 73.5747 
L 137.104628 74.078696 
L 138.184629 75.014699 
L 138.832629 76.094696 
L 138.904629 77.246697 
L 138.544631 77.606699 
L 137.680628 75.734698 
L 136.960629 75.158698 
L 135.592629 74.798696 
L 134.368629 75.230697 
L 133.360631 76.526697 
L 133.432631 77.966696 
L 134.15263 79.4067 
L 135.304631 79.622698 
L 137.104628 79.622698 
L 137.752628 79.910696 
L 135.52063 80.342698 
L 134.440628 80.918698 
L 134.440628 81.926696 
L 135.952631 83.006697 
L 137.032628 83.366699 
L 139.264631 84.950697 
L 140.416628 84.5907 
L 140.560631 83.078697 
L 140.920628 82.286698 
L 140.992628 83.726697 
L 140.920628 84.5907 
L 140.344628 85.814696 
L 141.28063 87.542697 
L 142.00063 88.622699 
L 142.936628 89.1267 
L 144.088629 88.694698 
L 144.160628 87.614697 
L 144.160628 88.982696 
L 144.52063 89.414698 
L 144.59263 90.638698 
L 146.032629 90.782697 
L 145.24063 91.646696 
L 145.024631 91.574696 
L 143.728631 90.782697 
L 142.64863 89.846699 
L 140.560631 87.470698 
L 138.256629 86.030699 
L 137.032628 86.894697 
L 137.39263 88.766698 
L 138.184629 90.4227 
L 139.40863 92.294696 
L 141.208631 93.518696 
L 142.64863 94.094697 
L 144.59263 94.526698 
L 146.248628 94.742697 
L 146.824628 95.390697 
L 144.880628 95.246698 
L 143.29663 94.814696 
L 141.35263 94.022697 
L 137.39263 92.078697 
L 135.232628 90.710698 
L 132.064631 88.4787 
L 131.056629 87.470698 
L 131.056629 85.958699 
L 131.272628 84.518696 
L 131.848628 83.2947 
L 131.63263 82.214698 
L 130.192631 81.638698 
L 128.39263 81.854696 
L 126.736628 82.502696 
L 123.78463 84.950697 
L 122.48863 85.310699 
L 120.400631 85.526698 
L 118.744629 86.102698 
L 116.584631 87.110696 
L 115.36063 88.262697 
L 114.493911 88.45696 
L 111.181912 90.688962 
L 108.373913 93.352962 
L 107.50991 94.648962 
L 106.285914 96.736961 
L 105.853912 98.608961 
L 104.845911 100.76896 
L 103.405912 104.872963 
L 103.405912 108.400961 
L 103.62191 111.78496 
L 105.349912 115.02496 
L 106.551277 116.166469 
L 112.45346 118.760812 
L 114.181461 119.192813 
L 115.62146 118.832811 
L 117.205458 118.184811 
L 119.797458 118.040812 
L 121.45346 118.256811 
L 121.669459 118.544813 
L 119.221458 118.97681 
L 118.789461 119.408812 
L 119.221458 120.200811 
L 120.661461 121.064809 
L 121.957461 121.56881 
L 124.333458 121.496811 
L 125.701458 121.208813 
L 127.717457 120.27281 
L 129.013457 118.904811 
L 129.589458 119.120809 
L 128.077459 120.632812 
L 128.509461 121.352812 
L 130.021459 121.352812 
L 131.461458 120.776811 
L 132.757458 120.632812 
L 135.277459 120.200811 
L 137.509461 120.128811 
L 138.229461 121.208813 
L 138.085457 122.504813 
L 135.637461 123.080813 
L 131.317459 122.432813 
L 129.373459 122.93681 
L 127.429459 123.944812 
L 125.98946 124.376813 
L 125.13213 124.122154 
L 123.266769 123.435361 
L 118.73269 122.508964 
L 117.076692 121.356963 
L 113.54869 119.844964 
L 111.172688 119.052965 
L 108.29269 118.260966 
L 105.916689 117.828965 
L 103.18069 117.900964 
L 101.308689 118.836967 
L 101.596691 119.988964 
L 100.228692 119.484967 
L 98.428691 120.204966 
L 97.34869 120.780967 
L 96.340692 122.724967 
L 96.05269 126.828965 
L 96.05269 126.828965 
" style="fill:none;stroke:#000000;stroke-linecap:square;stroke-width:1.5;"/>
   </g>
   <g id="line2d_3">
    <path clip-path="url(#pad050421d1)" d="M 236.962071 90.339942 
L 238.474074 91.851941 
L 238.042072 92.427941 
L 236.962071 90.339942 
" style="fill:none;stroke:#000000;stroke-linecap:square;stroke-width:1.5;"/>
   </g>
   <g id="line2d_4">
    <path clip-path="url(#pad050421d1)" d="M 188.673157 89.343976 
L 189.900607 89.180315 
L 193.419345 89.425808 
L 188.673157 89.343976 
L 188.673157 89.343976 
" style="fill:none;stroke:#000000;stroke-linecap:square;stroke-width:1.5;"/>
   </g>
   <g id="line2d_5">
    <path clip-path="url(#pad050421d1)" d="M 289.845747 87.277977 
L 286.572503 85.805021 
L 283.953907 84.823047 
L 281.989959 84.986708 
L 283.141715 86.245022 
L 284.482779 87.054978 
L 285.522395 87.284675 
L 284.057968 87.591 
L 281.927527 87.217192 
L 279.935614 86.929654 
L 277.858954 87.146752 
L 277.214549 88.010879 
L 278.51074 88.658862 
L 280.166742 88.370864 
L 281.82274 88.226861 
L 283.69474 88.442864 
L 285.422741 88.730862 
L 286.360274 88.551247 
L 288.063612 88.617079 
L 289.845747 87.277977 
" style="fill:none;stroke:#000000;stroke-linecap:square;stroke-width:1.5;"/>
   </g>
   <g id="line2d_6">
    <path clip-path="url(#pad050421d1)" d="M 180.5194 63.301467 
L 180.764894 64.938089 
L 183.628983 65.756402 
L 186.92566 65.526401 
L 182.974331 66.574711 
L 182.81067 68.211333 
L 184.36546 69.111475 
L 187.884197 68.784153 
L 185.67476 69.111475 
L 181.828696 69.766123 
L 181.419542 71.56641 
L 183.056164 73.366693 
L 184.11997 73.366693 
L 182.07419 74.266834 
L 182.728838 75.330641 
L 183.547151 76.88543 
L 187.311382 77.130924 
L 189.929978 76.230782 
L 192.975628 74.921482 
L 197.718967 74.348667 
L 202.039138 73.694019 
L 206.248575 73.612186 
L 210.826479 73.366693 
L 214.672538 73.939512 
L 218.436769 74.757821 
L 221.219026 75.412469 
L 223.919454 76.88543 
L 226.456218 77.621911 
L 228.911149 77.294585 
L 229.074814 75.085147 
L 227.52002 73.694019 
L 224.901428 72.466551 
L 224.001283 71.811903 
L 226.865372 73.039367 
L 229.074814 74.021341 
L 230.793264 73.85768 
L 231.775238 72.139225 
L 230.629603 70.911762 
L 229.156642 69.929788 
L 229.647629 70.25711 
L 232.266225 70.338942 
L 232.839045 68.947814 
L 231.775238 66.983866 
L 230.547771 65.592737 
L 228.338333 65.592737 
L 226.874256 66.387262 
L 223.58378 67.508669 
L 221.600987 67.945353 
L 218.68979 68.177824 
L 216.324417 68.093092 
L 214.360474 67.192951 
L 211.578217 66.45647 
L 207.895818 65.556329 
L 205.031729 65.474501 
L 206.422857 64.901681 
L 209.696101 65.147175 
L 212.560191 66.129149 
L 216.078928 67.111123 
L 219.188507 67.438444 
L 222.952738 66.783797 
L 225.898656 65.801823 
L 229.826552 64.247033 
L 231.745669 63.219639 
L 234.036939 60.273717 
L 231.483765 58.77528 
L 227.081217 57.96089 
L 224.536923 58.800055 
L 222.907907 59.946395 
L 219.471002 62.074 
L 217.016071 63.3833 
L 214.920138 63.272433 
L 213.215017 62.638098 
L 211.365221 61.499484 
L 213.742827 62.319493 
L 215.788603 61.992171 
L 214.315642 59.864562 
L 212.67902 58.22794 
L 209.323948 57.164134 
L 206.296198 57.082305 
L 202.531967 57.245966 
L 199.013229 57.082305 
L 195.248998 57.082305 
L 192.139415 58.309773 
L 189.602652 59.78273 
L 186.738562 61.337523 
L 183.301657 61.746678 
L 180.5194 63.301467 
" style="fill:none;stroke:#000000;stroke-linecap:square;stroke-width:1.5;"/>
   </g>
   <g id="line2d_7">
    <path clip-path="url(#pad050421d1)" d="M 187.325315 65.437782 
L 189.929978 64.365274 
L 192.875896 62.564987 
L 195.821814 61.010197 
L 193.28505 62.728652 
L 190.420965 64.774428 
L 187.325315 65.437782 
" style="fill:none;stroke:#000000;stroke-linecap:square;stroke-width:1.5;"/>
   </g>
   <g id="line2d_8">
    <path clip-path="url(#pad050421d1)" d="M 225.898656 78.649305 
L 223.852879 77.50367 
L 221.316116 76.439867 
L 217.388224 75.621554 
L 213.214839 75.2124 
L 208.386801 74.966906 
L 204.540742 74.803245 
L 199.794537 75.2124 
L 195.211997 75.703387 
L 191.284105 76.603528 
L 189.367294 77.150552 
L 185.687645 78.164709 
L 185.868596 79.945168 
L 188.341679 80.841681 
L 191.861644 80.51411 
L 195.871364 80.595942 
L 199.962921 80.432281 
L 204.299968 80.268616 
L 208.96434 80.186788 
L 211.582936 80.186788 
L 216.492802 80.268616 
L 221.320835 80.677771 
L 225.003238 79.777629 
L 225.898656 78.649305 
" style="fill:none;stroke:#000000;stroke-linecap:square;stroke-width:1.5;"/>
   </g>
   <g id="line2d_9">
    <path clip-path="url(#pad050421d1)" d="M 210.796905 54.381877 
L 208.505635 52.745255 
L 203.595769 51.763285 
L 199.013229 52.417933 
L 196.196609 53.066522 
L 194.896922 54.396023 
L 195.738853 55.856327 
L 199.17689 55.363851 
L 202.77746 55.20019 
L 205.887039 55.363851 
L 208.178309 55.691177 
L 210.305918 56.182164 
L 210.796905 54.381877 
" style="fill:none;stroke:#000000;stroke-linecap:square;stroke-width:1.5;"/>
   </g>
   <g id="line2d_10">
    <path clip-path="url(#pad050421d1)" d="M 127.001862 142.432138 
L 124.383266 142.432138 
L 122.375283 142.222057 
L 121.097199 144.075885 
L 120.455374 145.705382 
L 120.128052 147.66933 
L 122.091996 146.851017 
L 123.513022 147.27119 
L 124.710592 147.178343 
L 124.792425 146.196369 
L 125.610734 145.541721 
L 126.751255 145.391434 
L 127.152775 144.380982 
L 127.359376 142.731989 
L 127.001862 142.432138 
" style="fill:none;stroke:#000000;stroke-linecap:square;stroke-width:1.5;"/>
   </g>
  </g>
 </g>
 <defs>
  <clipPath id="pad050421d1">
   <rect height="246.24" width="414.72" x="0" y="0"/>
  </clipPath>
 </defs>
</svg>
