<?xml version="1.0" encoding="utf-8" standalone="no"?>
<!DOCTYPE svg PUBLIC "-//W3C//DTD SVG 1.1//EN"
  "http://www.w3.org/Graphics/SVG/1.1/DTD/svg11.dtd">
<!-- Created with matplotlib (https://matplotlib.org/) -->
<svg height="504.72pt" version="1.1" viewBox="0 0 725.76 504.72" width="725.76pt" xmlns="http://www.w3.org/2000/svg" xmlns:xlink="http://www.w3.org/1999/xlink">
 <defs>
  <style type="text/css">
*{stroke-linecap:butt;stroke-linejoin:round;}
  </style>
 </defs>
 <g id="figure_1">
  <g><image xlink:href="../../img/cb/potto_cor_cell.json.cb-50%25.png" width="725.76px" height="504.71999999999997px"/></g>

  <g id="patch_1">
   <path d="M 0 504.72 
L 725.76 504.72 
L 725.76 0 
L 0 0 
z
" style="fill:none;"/>
  </g>
  <g id="axes_1">
   <g id="line2d_1">
    <path clip-path="url(#p5c67101259)" d="M 119.470714 205.026155 
L 119.470714 210.009332 
L 121.250415 216.416276 
L 125.165774 223.179154 
L 131.216777 226.026688 
L 138.691538 227.450455 
L 144.030657 228.162331 
L 146.878184 226.38263 
L 148.657893 218.551919 
L 149.725718 207.873682 
L 149.369776 216.772218 
L 149.013834 222.111336 
L 149.013834 228.874215 
L 152.929186 231.721749 
L 157.556421 233.145508 
L 161.47178 232.433632 
L 164.319307 229.94204 
L 163.607424 234.213334 
L 166.454957 237.772751 
L 173.573778 238.128685 
L 182.828248 236.704926 
L 176.421312 238.840569 
L 171.082193 239.552452 
L 165.031191 238.484627 
L 161.47178 236.704926 
L 156.844545 237.416809 
L 154.708895 234.925217 
L 145.454424 231.365807 
L 140.827189 231.009865 
L 136.91183 229.94204 
L 132.996478 227.80639 
L 127.301418 226.026688 
L 124.097949 225.314805 
L 122.31824 227.450455 
L 122.31824 232.07769 
L 123.742007 239.196511 
L 127.301418 247.027222 
L 132.284595 252.36634 
L 137.267772 256.637634 
L 142.60689 256.281692 
L 149.013834 256.281692 
L 155.420778 255.569809 
L 162.89554 256.281692 
L 153.997011 256.637634 
L 149.725718 258.061401 
L 145.810366 260.197044 
L 140.115305 266.248046 
L 141.539072 269.807456 
L 146.522249 276.2144 
L 152.929186 281.553519 
L 155.420778 284.045104 
L 157.20048 289.740164 
L 161.115839 295.435225 
L 164.319307 297.926817 
L 165.743074 302.198111 
L 167.522775 308.960996 
L 172.150018 313.944173 
L 179.980722 316.079816 
L 186.031724 314.300115 
L 188.87925 311.808523 
L 189.235192 307.537229 
L 187.099549 303.621877 
L 187.455484 298.994642 
L 188.523309 294.011458 
L 190.658959 291.163931 
L 189.235192 296.147108 
L 188.523309 301.486227 
L 189.591134 306.469404 
L 193.150544 310.384756 
L 199.201546 311.096639 
L 204.896607 308.249113 
L 209.879784 303.977819 
L 214.151077 298.994642 
L 215.218903 294.3674 
L 216.998611 290.096106 
L 216.286728 285.824812 
L 222.33773 284.045104 
L 229.45655 281.553519 
L 238.355086 282.265402 
L 245.829848 281.197577 
L 252.236792 277.282225 
L 258.287794 273.366874 
L 267.542265 271.943107 
L 277.864561 269.095573 
L 287.119031 265.536163 
L 295.305677 260.908927 
L 302.424504 256.637634 
L 306.695798 254.857925 
L 310.611149 256.281692 
L 308.831448 260.908927 
L 306.695798 263.756454 
L 305.983914 268.383697 
L 306.695798 273.010932 
L 309.543332 278.705985 
L 314.882443 282.621344 
L 323.780979 281.553519 
L 329.47604 282.977286 
L 335.849359 284.420314 
L 341.54442 284.776256 
L 376.070717 285.844074 
L 387.104896 284.776256 
L 394.223724 282.996548 
L 400.986602 281.572781 
L 408.10543 278.369312 
L 411.66484 273.742077 
L 413.088607 268.402958 
L 413.80049 263.063839 
L 415.224257 258.080662 
L 419.851492 256.300954 
L 425.546553 257.012837 
L 433.021315 261.640073 
L 447.258962 271.250485 
L 456.869382 274.098019 
L 461.496617 272.31831 
L 465.411969 271.250485 
L 478.937733 273.742077 
L 484.632794 275.87772 
L 475.022381 274.098019 
L 470.039204 273.742077 
L 465.767911 273.742077 
L 463.276319 275.87772 
L 461.496617 278.013371 
L 462.920377 284.064373 
L 465.411969 290.471309 
L 468.971379 296.522312 
L 472.641468 303.261146 
L 478.692463 312.515624 
L 487.94694 320.702269 
L 498.981112 327.465155 
L 510.015292 333.160215 
L 519.625704 336.007742 
L 529.592058 338.499327 
L 541.338121 339.21121 
L 549.524773 337.431509 
L 555.219827 334.583975 
L 559.491127 329.956739 
L 564.118363 322.837919 
L 565.186181 316.430975 
L 565.186181 310.735915 
L 566.254006 305.396796 
L 568.033714 301.481444 
L 568.745598 295.786384 
L 568.745598 291.159148 
L 567.321831 286.887855 
L 565.186181 284.040321 
L 569.457481 282.972496 
L 574.7966 280.480911 
L 577.644127 275.853676 
L 577.644127 271.582382 
L 575.508476 268.378907 
L 568.745598 265.175438 
L 563.406479 263.395729 
L 555.575768 260.192261 
L 549.524773 258.412552 
L 545.609414 258.412552 
L 542.405946 257.700669 
L 538.134652 255.565026 
L 532.439592 253.073434 
L 528.168298 250.581849 
L 521.761354 248.446198 
L 513.574709 242.751138 
L 520.337587 245.954614 
L 524.252939 248.80214 
L 529.948 250.225907 
L 536.710885 253.073434 
L 542.761888 255.920968 
L 548.101006 256.276909 
L 553.796067 257.700669 
L 558.779244 260.192261 
L 568.389656 264.107613 
L 574.440658 266.243263 
L 579.067894 266.955147 
L 583.339187 264.819496 
L 585.830772 262.327904 
L 584.051071 258.412552 
L 582.271362 253.429375 
L 580.135719 249.869965 
L 576.22036 246.310555 
L 568.389656 238.479844 
L 576.576302 243.818963 
L 581.91542 250.581849 
L 583.339187 254.497201 
L 584.762954 258.056611 
L 587.966423 261.260086 
L 592.237716 259.124436 
L 597.576835 254.853142 
L 601.136245 249.869965 
L 603.627837 245.954614 
L 601.848128 242.395196 
L 598.288718 239.903611 
L 596.50901 236.700136 
L 595.797126 234.208551 
L 599.000602 238.479844 
L 602.20407 241.683313 
L 605.76348 242.039254 
L 611.102599 238.479844 
L 614.662016 233.140726 
L 617.153601 226.733782 
L 621.352754 213.64089 
L 622.420579 207.589888 
L 622.420579 201.538885 
L 621.352754 195.487883 
L 619.573046 191.21659 
L 615.657694 188.013121 
L 612.454225 189.79283 
L 608.538866 192.284415 
L 604.267573 194.420065 
L 602.13193 197.623534 
L 599.996279 195.843825 
L 595.013102 194.064123 
L 591.09775 193.35224 
L 587.538333 192.996298 
L 583.978923 194.420065 
L 581.487338 196.199767 
L 581.131396 202.606711 
L 582.199214 214.352773 
L 581.131396 218.624067 
L 578.639804 219.691892 
L 580.063571 216.132475 
L 581.131396 212.573065 
L 581.487338 207.589888 
L 580.775455 205.098303 
L 580.775455 200.47106 
L 580.419513 196.555708 
L 577.927921 193.35224 
L 574.724452 191.21659 
L 570.453159 189.080946 
L 566.181865 188.725005 
L 561.554623 189.79283 
L 557.283329 192.284415 
L 554.079861 195.131949 
L 551.94421 205.454244 
L 551.588269 210.437421 
L 551.588269 208.657713 
L 550.876392 202.606711 
L 548.028859 200.47106 
L 539.842213 196.199767 
L 545.893215 198.691359 
L 550.520451 200.47106 
L 551.94421 198.691359 
L 553.012036 196.199767 
L 554.435803 193.35224 
L 557.639271 190.860648 
L 561.198688 189.080946 
L 564.758098 188.013121 
L 568.67345 187.657179 
L 572.944744 188.725005 
L 577.927921 190.860648 
L 580.775455 192.996298 
L 589.673983 192.284415 
L 594.65716 192.996298 
L 597.504687 192.996298 
L 600.352221 194.420065 
L 603.911631 192.996298 
L 607.115107 190.860648 
L 611.742342 188.725005 
L 615.657694 186.233413 
L 615.657694 183.029944 
L 614.94581 178.402709 
L 610.674517 172.707648 
L 605.335398 168.080413 
L 599.640337 164.876938 
L 593.233394 162.385353 
L 587.182391 160.961586 
L 575.080394 160.961586 
L 568.317508 161.317527 
L 561.198688 160.961586 
L 555.503628 159.537826 
L 548.740742 158.825943 
L 543.045682 157.758117 
L 538.062505 156.690292 
L 533.079328 157.046234 
L 530.231801 158.470001 
L 529.875859 162.741294 
L 533.435269 176.978942 
L 530.943684 169.148238 
L 528.808034 161.317527 
L 527.740209 158.114059 
L 524.53674 155.266525 
L 519.909505 152.77494 
L 513.502561 150.283348 
L 507.095617 149.21553 
L 499.976797 149.21553 
L 496.061438 150.63929 
L 493.569853 153.130882 
L 492.502028 158.825943 
L 492.502028 164.521003 
L 494.637678 169.860122 
L 501.756498 176.623 
L 508.163442 180.18241 
L 520.621389 186.589354 
L 511.010969 182.674002 
L 505.315916 181.250236 
L 504.959974 184.809653 
L 508.875326 194.064123 
L 502.468382 181.606177 
L 501.400557 178.758651 
L 498.55303 174.843299 
L 494.99362 170.92794 
L 491.434203 167.724471 
L 487.518851 167.724471 
L 482.891616 168.436355 
L 477.908439 169.50418 
L 474.70497 170.571998 
L 475.060905 176.978942 
L 476.12873 181.606177 
L 479.332205 186.589354 
L 485.3832 192.284415 
L 497.129263 201.538885 
L 484.671324 193.35224 
L 482.535674 190.860648 
L 476.840613 186.589354 
L 474.70497 185.521529 
L 471.857436 187.301238 
L 469.365851 189.436888 
L 464.738609 192.284415 
L 462.247024 194.420065 
L 461.535141 196.91165 
L 465.094551 202.250769 
L 470.077728 209.013655 
L 474.70497 215.064657 
L 481.82379 220.047834 
L 477.908439 218.980009 
L 475.060905 218.980009 
L 471.145553 219.33595 
L 466.162376 221.471593 
L 469.365851 219.33595 
L 472.56932 217.912183 
L 473.281203 216.132475 
L 472.213378 213.64089 
L 470.077728 209.725538 
L 464.382674 202.250769 
L 461.179199 199.403242 
L 457.263847 196.555708 
L 452.28067 194.064123 
L 448.009376 192.996298 
L 443.738083 191.572531 
L 438.754906 189.79283 
L 434.127663 188.725005 
L 429.500428 187.301238 
L 423.863036 186.30556 
L 416.388274 184.16991 
L 408.913505 181.322383 
L 390.048622 177.05109 
L 382.573853 175.983265 
L 374.74315 175.271381 
L 364.420854 174.915439 
L 354.810441 175.271381 
L 348.403498 175.627323 
L 343.42032 176.695148 
L 346.979731 179.898616 
L 353.742616 181.322383 
L 362.641145 182.390209 
L 371.895616 183.813968 
L 380.794152 185.593677 
L 402.15062 190.220912 
L 413.896682 193.424388 
L 401.438743 193.424388 
L 395.387741 193.068446 
L 387.201089 194.492206 
L 368.692147 196.983798 
L 359.793619 198.407565 
L 351.606966 199.475383 
L 342.708437 200.187266 
L 335.589617 201.611033 
L 330.606433 203.390742 
L 325.623256 204.45856 
L 319.572261 204.814502 
L 312.809375 203.390742 
L 306.046489 200.89915 
L 293.232609 196.627856 
L 286.113781 194.492206 
L 281.130604 193.780322 
L 274.367726 195.915973 
L 269.740483 198.407565 
L 265.46919 199.475383 
L 259.774129 199.119441 
L 255.502835 200.187266 
L 252.616778 203.915016 
L 249.057368 207.118492 
L 245.497958 210.677902 
L 243.006366 214.949196 
L 239.091014 219.576431 
L 232.328128 223.847724 
L 238.379131 218.508606 
L 241.938541 214.949196 
L 245.8539 209.966019 
L 249.769252 205.694725 
L 252.260837 201.06749 
L 253.328662 197.864021 
L 251.548953 192.168961 
L 248.345485 187.185784 
L 246.209842 185.050133 
L 241.582599 183.626367 
L 235.887546 184.33825 
L 231.616245 185.762017 
L 222.717716 191.813019 
L 219.87019 196.084313 
L 217.378597 198.575898 
L 214.531071 203.559075 
L 213.107304 207.474434 
L 211.327595 214.593254 
L 210.971653 210.32196 
L 212.39542 205.338783 
L 214.531071 201.06749 
L 221.293949 192.880844 
L 224.853367 189.321427 
L 229.12466 185.406075 
L 230.548427 182.914483 
L 229.836544 177.21943 
L 224.141483 176.863488 
L 218.090481 176.863488 
L 214.175129 178.287248 
L 210.615719 182.914483 
L 205.632535 188.253602 
L 200.649358 191.101136 
L 194.598363 196.440254 
L 198.869656 191.813019 
L 203.496891 188.609544 
L 207.412243 185.406075 
L 211.327595 181.490723 
L 214.175129 177.21943 
L 215.598896 173.660012 
L 216.310772 168.676835 
L 215.598896 163.693658 
L 214.175129 160.49019 
L 211.327595 159.422365 
L 208.480069 159.778307 
L 203.496891 161.202074 
L 198.513714 162.981775 
L 193.174596 164.761484 
L 187.479535 166.897134 
L 182.8523 168.320894 
L 178.936948 170.100602 
L 175.733472 172.592187 
L 174.665655 175.795663 
L 173.597829 188.609544 
L 174.665655 192.524903 
L 176.089414 196.440254 
L 176.777253 201.466745 
L 173.929719 197.195444 
L 172.861894 193.991976 
L 172.505952 189.008799 
L 172.505952 183.313738 
L 172.861894 177.618678 
L 171.438135 174.415209 
L 166.810899 174.415209 
L 162.89554 175.483034 
L 157.20048 177.618678 
L 140.827189 183.313738 
L 135.48807 185.093447 
L 130.860835 186.873155 
L 126.945476 188.652857 
L 124.097949 191.856333 
L 121.250415 195.771684 
L 119.826656 201.110803 
L 119.470714 205.026155 
L 119.470714 205.026155 
" style="fill:none;stroke:#000000;stroke-linecap:square;stroke-width:1.5;"/>
   </g>
   <g id="line2d_2">
    <path clip-path="url(#p5c67101259)" d="M 551.588269 210.437421 
L 551.94421 213.996832 
L 550.520451 216.488416 
L 546.961033 217.2003 
L 533.435269 217.2003 
L 528.452092 217.556242 
L 523.112973 218.268125 
L 515.638212 220.403776 
L 520.621389 217.912183 
L 524.892682 216.844358 
L 529.875859 216.488416 
L 536.282796 216.488416 
L 540.910038 216.132475 
L 545.537274 216.132475 
L 548.3848 215.776533 
L 550.520451 213.996832 
L 551.588269 211.505239 
L 551.588269 210.437421 
L 551.588269 210.437421 
" style="fill:none;stroke:#000000;stroke-linecap:square;stroke-width:1.5;"/>
   </g>
   <g id="line2d_3">
    <path clip-path="url(#p5c67101259)" d="M 323.759555 138.21737 
L 324.592981 138.068328 
L 327.467071 137.317319 
L 338.842517 135.447377 
L 342.270731 135.135721 
L 346.322257 134.979893 
L 351.620414 134.512409 
L 372.03388 134.512409 
L 376.241234 134.979893 
L 380.760244 135.135721 
L 383.454382 135.574305 
L 385.382856 135.574305 
L 394.281385 136.64213 
L 403.179921 138.421832 
L 412.07845 141.269365 
L 418.485394 143.049067 
L 424.892331 146.608484 
L 431.655217 150.523836 
L 438.418102 154.79513 
L 445.180981 157.642656 
L 451.587925 161.202074 
L 456.571102 164.405542 
L 461.554279 167.964952 
L 467.961223 172.236253 
L 472.232516 173.304071 
L 476.147868 168.676835 
L 466.893398 161.558015 
L 461.910221 157.998598 
L 456.927044 153.727304 
L 451.231983 149.100069 
L 445.892864 144.472834 
L 440.197804 141.981242 
L 433.790867 138.777773 
L 421.332921 133.082713 
L 413.502217 128.811419 
L 406.38339 125.607951 
L 399.264562 123.116359 
L 391.433859 120.624774 
L 383.247213 118.845065 
L 375.416502 117.421298 
L 358.331328 116.709415 
L 350.144676 117.065357 
L 341.95803 118.489123 
L 333.059494 119.556949 
L 325.22879 120.980716 
L 317.398087 123.116359 
L 310.991143 125.252009 
L 305.652024 127.387652 
L 299.956964 130.235186 
L 295.68567 133.082713 
L 287.854959 138.06589 
L 302.448549 127.743594 
L 307.787667 125.252009 
L 320.601555 120.624774 
L 335.195145 118.133182 
L 343.025855 117.421298 
L 348.720909 116.35348 
L 353.704086 115.641597 
L 360.822913 115.285655 
L 364.382323 115.997539 
L 371.501151 116.35348 
L 387.162565 118.489123 
L 394.993269 120.268832 
L 402.468038 123.116359 
L 414.214101 128.099536 
L 418.485394 130.591128 
L 423.824513 133.438655 
L 428.095807 135.218363 
L 432.723042 136.998065 
L 438.418102 140.20154 
L 445.536923 143.405009 
L 450.5201 146.608484 
L 455.503277 151.235719 
L 460.486454 155.151071 
L 465.825572 159.066423 
L 471.164691 163.693658 
L 477.215693 166.897134 
L 481.486987 167.60901 
L 488.249873 166.541192 
L 491.453341 165.117425 
L 491.453341 160.846132 
L 491.809283 156.574838 
L 491.453341 152.659479 
L 487.182047 148.744127 
L 482.554812 145.896601 
L 479.707285 142.337183 
L 475.791926 136.998065 
L 469.740931 133.438655 
L 464.045871 129.879244 
L 457.638927 127.387652 
L 451.231983 124.184184 
L 444.825046 120.624774 
L 439.129986 118.845065 
L 434.858692 115.641597 
L 430.943333 111.370303 
L 427.383923 107.099002 
L 422.044804 102.827709 
L 417.773511 98.912357 
L 411.010625 95.352947 
L 404.247747 91.081646 
L 398.196744 87.522236 
L 392.857626 83.606884 
L 386.09474 80.759358 
L 379.687796 80.403416 
L 371.145209 81.471234 
L 358.687263 81.115292 
L 353.704086 83.606884 
L 346.585266 86.098469 
L 339.82238 87.522236 
L 333.415436 89.657887 
L 327.720383 92.149471 
L 318.821847 96.420765 
L 328.076317 90.725712 
L 333.415436 88.946003 
L 340.534263 87.166294 
L 345.161499 85.386593 
L 350.856559 83.606884 
L 355.483794 81.827176 
L 352.280326 80.759358 
L 342.669914 80.403416 
L 334.839203 81.471234 
L 329.856026 82.539059 
L 324.160965 85.030651 
L 313.126786 90.36977 
L 308.499551 93.573238 
L 304.940141 96.776707 
L 301.736672 100.692066 
L 299.24508 104.251476 
L 297.109437 106.743061 
L 292.482194 110.65842 
L 288.922784 113.861888 
L 277.532663 123.4723 
L 272.905428 126.675776 
L 267.210368 129.879244 
L 261.515314 132.726771 
L 256.176196 135.930247 
L 250.837077 138.421832 
L 245.142016 141.269365 
L 240.158839 143.049067 
L 234.819721 145.184717 
L 229.12466 148.032244 
L 223.785541 150.879778 
L 220.539152 154.698879 
L 216.623408 158.614289 
L 216.267466 162.173699 
L 216.979342 166.444993 
L 217.691226 171.428177 
L 218.759051 173.919762 
L 221.962519 174.987587 
L 226.23382 175.699471 
L 231.572939 176.055412 
L 236.556116 172.140053 
L 241.539293 166.800935 
L 246.52247 163.597466 
L 251.861589 159.326173 
L 257.556642 155.766763 
L 261.827943 152.563287 
L 268.234879 150.783586 
L 260.760118 154.342996 
L 254.709115 158.258347 
L 247.94623 163.597466 
L 242.251169 167.86876 
L 237.979876 172.140053 
L 233.708582 176.055412 
L 232.640757 179.258881 
L 235.844232 182.462349 
L 240.115526 182.462349 
L 244.742761 183.174233 
L 248.302171 183.174233 
L 253.285348 180.682648 
L 258.980409 174.987587 
L 265.743295 170.00441 
L 273.92994 164.665291 
L 281.048767 159.682114 
L 303.117126 146.156343 
L 310.235946 142.596933 
L 323.759555 138.21737 
L 323.759555 138.21737 
" style="fill:none;stroke:#000000;stroke-linecap:square;stroke-width:1.5;"/>
   </g>
   <g id="line2d_4">
    <path clip-path="url(#p5c67101259)" d="M 397.928184 192.376666 
L 406.739332 192.524903 
L 402.82398 191.101136 
L 395.705152 189.677369 
L 385.382856 187.541726 
L 376.484328 186.117959 
L 366.873915 184.33825 
L 357.975386 183.270425 
L 348.720909 181.846665 
L 342.669914 180.066956 
L 336.618911 178.999131 
L 329.856026 178.999131 
L 322.381264 180.066956 
L 314.906495 181.134782 
L 299.601022 183.626367 
L 291.770318 186.117959 
L 286.787141 187.541726 
L 296.397554 182.914483 
L 304.940141 181.134782 
L 312.058968 180.422898 
L 319.889672 179.355073 
L 326.652557 178.287248 
L 336.26297 175.795663 
L 342.313972 174.727838 
L 349.432792 173.660012 
L 364.738265 173.660012 
L 372.213034 174.015954 
L 380.399679 175.083779 
L 388.586332 176.151605 
L 397.840803 177.575372 
L 406.027448 179.711015 
L 415.993802 182.558549 
L 426.316098 185.050133 
L 435.214627 188.253602 
L 446.248806 191.457077 
L 454.435459 193.948662 
L 459.774577 194.660546 
L 463.689929 192.524903 
L 467.605281 188.965485 
L 472.232516 186.117959 
L 474.368167 183.626367 
L 473.300342 179.711015 
L 469.38499 174.371896 
L 463.689929 170.812486 
L 456.21516 165.117425 
L 448.384456 160.134248 
L 437.706219 155.507013 
L 427.383923 149.456011 
L 418.485394 144.472834 
L 408.51904 140.913424 
L 398.908628 138.777773 
L 390.366034 137.354006 
L 380.216149 135.861379 
L 378.578653 135.75904 
L 374.215471 135.447377 
L 369.22897 135.135721 
L 364.086649 134.979893 
L 353.646177 134.979893 
L 348.192192 135.291549 
L 343.049871 135.603212 
L 338.375033 136.226524 
L 333.232711 137.005663 
L 329.181178 137.473147 
L 325.597135 138.252287 
L 322.013093 139.187254 
L 321.33781 139.425587 
L 316.417643 141.477071 
L 311.078524 143.612714 
L 304.671588 146.104306 
L 298.976527 150.3756 
L 292.925525 153.93501 
L 286.518581 157.850361 
L 279.755703 161.409779 
L 274.416584 165.325131 
L 269.789341 168.172657 
L 264.806164 171.732075 
L 260.178929 175.291485 
L 256.263577 178.494953 
L 253.41605 182.05437 
L 251.2804 184.545955 
L 251.636342 187.749431 
L 253.41605 193.08855 
L 255.551694 198.071727 
L 259.822987 198.427661 
L 266.229931 198.427661 
L 272.280933 195.936076 
L 277.975994 193.08855 
L 282.603229 192.376666 
L 288.654231 193.444484 
L 296.840877 195.936076 
L 302.535937 198.783603 
L 311.790408 201.275195 
L 318.553294 203.76678 
L 326.739939 202.698962 
L 333.858766 200.919253 
L 342.045412 198.783603 
L 352.723649 197.359843 
L 360.910302 196.292018 
L 368.385064 195.224193 
L 376.571716 193.800426 
L 385.470245 192.732608 
L 391.877189 192.376666 
L 397.928184 192.376666 
" style="fill:none;stroke:#000000;stroke-linecap:square;stroke-width:1.5;"/>
   </g>
  </g>
 </g>
 <defs>
  <clipPath id="p5c67101259">
   <rect height="504.72" width="725.76" x="0" y="0"/>
  </clipPath>
 </defs>
</svg>
