<?xml version="1.0" encoding="utf-8" standalone="no"?>
<!DOCTYPE svg PUBLIC "-//W3C//DTD SVG 1.1//EN"
  "http://www.w3.org/Graphics/SVG/1.1/DTD/svg11.dtd">
<!-- Created with matplotlib (https://matplotlib.org/) -->
<svg height="637.92pt" version="1.1" viewBox="0 0 803.52 637.92" width="803.52pt" xmlns="http://www.w3.org/2000/svg" xmlns:xlink="http://www.w3.org/1999/xlink">
 <defs>
  <style type="text/css">
*{stroke-linecap:butt;stroke-linejoin:round;}
  </style>
 </defs>
 <g id="figure_1">
  <g><image xlink:href="../../img/cb/rabbit_cor_cell.json.cb-50%25.png" width="803.52px" height="637.92px"/></g>

  <g id="patch_1">
   <path d="M 0 637.92 
L 803.52 637.92 
L 803.52 0 
L 0 0 
z
" style="fill:none;"/>
  </g>
  <g id="axes_1">
   <g id="line2d_1">
    <path clip-path="url(#p87c34147ce)" d="M 223.088088 279.213654 
L 227.420008 280.551161 
L 220.928507 280.551161 
L 212.728722 282.259453 
L 205.553907 283.967745 
L 192.570912 285.334371 
L 186.079419 281.57614 
L 180.612887 276.79293 
L 175.829677 272.351376 
L 170.021497 267.22651 
L 166.946579 264.151591 
L 166.027384 256.057582 
L 157.128376 246.742937 
L 149.847794 246.311406 
L 144.24272 246.571626 
L 143.372194 248.776992 
L 142.713211 253.665977 
L 146.447112 266.201532 
L 142.005559 258.001747 
L 140.980589 250.826932 
L 141.663903 246.043722 
L 136.197379 237.843937 
L 137.222349 233.402384 
L 138.930641 223.835972 
L 139.272298 218.027784 
L 138.588984 211.53629 
L 136.197379 205.044789 
L 131.072513 198.894952 
L 127.314273 195.820034 
L 121.506093 195.136712 
L 117.06454 195.478369 
L 112.28133 197.869974 
L 108.864755 200.603236 
L 107.839776 203.336505 
L 112.28133 212.902917 
L 107.839776 205.386445 
L 104.423201 200.261579 
L 99.639991 199.578265 
L 94.856781 199.236609 
L 90.073572 200.261579 
L 85.973683 201.96987 
L 83.240421 204.703132 
L 81.53213 207.77805 
L 81.53213 211.194634 
L 81.190473 216.661157 
L 83.240421 222.810994 
L 85.632026 227.594204 
L 92.12352 235.793989 
L 98.273365 239.552228 
L 103.398231 241.602177 
L 108.864755 246.043722 
L 101.68994 243.993782 
L 94.173468 241.26052 
L 88.023631 235.793989 
L 84.948705 231.352443 
L 81.190473 225.544255 
L 79.823838 221.10271 
L 80.165495 215.294522 
L 80.165495 209.827999 
L 78.798868 205.386445 
L 74.357315 201.286557 
L 69.232448 199.578265 
L 61.37432 199.236609 
L 53.857848 200.9449 
L 48.732982 205.728102 
L 44.633085 210.852969 
L 41.899824 220.077732 
L 41.558167 225.202599 
L 41.558167 232.71907 
L 42.924802 238.185594 
L 47.366347 246.385387 
L 51.8079 247.752013 
L 59.324372 248.09367 
L 67.865821 250.826932 
L 63.424268 250.826932 
L 57.274423 249.460305 
L 51.124587 248.776992 
L 47.366347 250.826932 
L 45.658063 255.610142 
L 45.316407 260.735008 
L 44.291429 265.518218 
L 42.583145 272.693033 
L 41.899824 279.184535 
L 41.899824 287.042663 
L 43.949772 292.16753 
L 49.074638 296.609083 
L 55.907797 298.317366 
L 64.107582 298.317366 
L 69.232448 294.559135 
L 72.307367 289.434268 
L 75.72395 284.309401 
L 79.482182 279.867848 
L 83.240421 277.476243 
L 89.048601 274.401325 
L 93.148498 273.718003 
L 98.615021 274.742981 
L 106.47315 278.159556 
L 113.989621 280.892818 
L 123.214384 284.651058 
L 118.772831 285.676028 
L 113.647964 284.992715 
L 108.864755 282.60111 
L 104.423201 280.551161 
L 99.298335 279.867848 
L 91.09855 280.551161 
L 87.34031 283.284423 
L 84.265391 286.359341 
L 80.165495 297.634053 
L 79.140525 300.025658 
L 77.432233 303.100576 
L 75.040628 305.492181 
L 72.990688 307.200473 
L 70.599083 308.908756 
L 68.890792 311.300361 
L 68.549135 313.691966 
L 66.499187 324.283364 
L 67.865821 331.458171 
L 68.890792 336.241381 
L 73.674002 338.974643 
L 76.74892 336.241381 
L 80.50716 330.433201 
L 84.265391 326.333304 
L 86.656996 324.625021 
L 93.831811 322.575073 
L 104.423201 320.525124 
L 111.598016 319.841811 
L 116.722883 319.158498 
L 121.847749 319.158498 
L 115.014591 321.891759 
L 108.181441 323.600043 
L 102.71491 325.308334 
L 94.173468 328.383253 
L 88.023631 331.799836 
L 84.948705 334.533097 
L 82.898765 337.608016 
L 80.848816 341.707904 
L 79.140525 344.782831 
L 78.457211 351.957646 
L 80.50716 357.424169 
L 87.34031 361.865714 
L 95.540103 364.598984 
L 101.348283 362.549036 
L 105.789836 364.257319 
L 116.722883 366.307267 
L 120.481115 364.598984 
L 122.87272 360.840744 
L 122.87272 356.057534 
L 124.922668 351.615981 
L 127.997586 352.640959 
L 131.755826 350.591011 
L 139.955611 339.316307 
L 144.397164 337.949673 
L 150.205344 338.291329 
L 157.038502 338.974643 
L 161.821712 341.024591 
L 165.921601 347.516092 
L 170.704811 351.615981 
L 174.121394 347.857749 
L 177.196312 343.074539 
L 179.587917 338.632986 
L 182.321179 333.849776 
L 183.004492 330.091544 
L 181.296209 326.333304 
L 178.904604 323.600043 
L 173.779737 317.450206 
L 179.246261 319.158498 
L 186.421075 322.233416 
L 194.62086 323.941699 
L 202.478989 322.916729 
L 210.678774 320.525124 
L 225.711717 315.058601 
L 235.96145 311.642026 
L 244.5029 309.933734 
L 256.802581 308.225443 
L 263.294075 310.275391 
L 266.710658 314.033623 
L 272.365872 312.929884 
L 283.640583 310.538279 
L 293.890317 309.513301 
L 305.16502 310.879935 
L 314.389783 312.588219 
L 321.906255 312.929884 
L 328.056091 314.296511 
L 326.689465 321.129669 
L 325.32283 326.937849 
L 329.343949 333.065709 
L 338.910369 343.315442 
L 352.918342 349.123623 
L 364.534702 352.881854 
L 372.734495 352.540198 
L 380.250967 353.906832 
L 392.208984 356.981751 
L 401.775403 360.398326 
L 412.025137 361.081647 
L 423.983162 357.665064 
L 432.524603 354.590146 
L 449.265838 349.123623 
L 457.807288 346.732018 
L 465.323751 341.948808 
L 471.473596 336.482284 
L 474.890171 330.674104 
L 473.865201 325.207573 
L 473.181888 317.691101 
L 471.473596 314.274526 
L 478.306754 312.224578 
L 486.506539 311.199608 
L 495.731302 309.832973 
L 505.297714 311.199608 
L 515.275745 312.136745 
L 519.722168 316.577093 
L 530.313558 318.968698 
L 540.904956 319.310355 
L 548.421419 319.993676 
L 558.329496 320.67699 
L 569.262551 320.335333 
L 576.095701 321.018646 
L 585.320464 322.726938 
L 593.520249 324.093565 
L 600.695064 326.143513 
L 607.528222 326.826826 
L 621.877852 327.851805 
L 622.219508 334.001641 
L 627.002718 344.934696 
L 634.860847 354.501108 
L 645.11058 360.309296 
L 657.410261 363.384214 
L 671.418226 365.434163 
L 688.159461 366.800789 
L 707.756695 362.622124 
L 706.048412 359.547205 
L 703.656807 356.813944 
L 708.781673 359.888862 
L 710.489957 363.305445 
L 716.298145 362.622124 
L 723.131295 359.888862 
L 728.256162 355.788974 
L 731.331088 351.689077 
L 734.06435 346.222554 
L 734.406007 341.097687 
L 734.406007 333.922872 
L 729.964453 324.356452 
L 726.547878 320.598221 
L 721.081347 317.864951 
L 714.93151 318.206616 
L 710.489957 319.914899 
L 705.023434 322.306504 
L 700.58188 322.989826 
L 694.432044 323.331482 
L 685.890602 323.673139 
L 697.165305 321.281534 
L 702.973485 319.914899 
L 709.806644 317.523294 
L 714.248197 316.498324 
L 719.031407 316.156667 
L 725.181243 317.181637 
L 726.889535 314.790033 
L 725.181243 311.373457 
L 722.106325 308.640196 
L 719.373063 305.906934 
L 714.589854 302.148694 
L 711.514935 299.415433 
L 707.415039 297.023828 
L 703.656807 295.998858 
L 700.58188 295.315544 
L 705.706747 294.290566 
L 709.12333 293.948909 
L 712.539905 297.023828 
L 716.981458 301.807038 
L 721.764668 305.906934 
L 724.839587 307.273561 
L 727.572848 302.832016 
L 728.939483 298.732119 
L 729.622797 295.657201 
L 729.964453 289.165699 
L 730.647767 294.290566 
L 729.622797 299.757089 
L 727.914505 304.540299 
L 726.547878 307.956882 
L 727.914505 311.715114 
L 729.28114 316.498324 
L 733.722693 321.281534 
L 734.06435 316.839981 
L 733.722693 311.373457 
L 734.406007 306.590248 
L 736.455955 298.048806 
L 737.139268 292.240618 
L 741.239165 285.749124 
L 742.605792 281.990884 
L 743.630762 277.549331 
L 743.972426 272.766129 
L 745.339053 267.982919 
L 747.047345 264.907993 
L 749.097293 261.833075 
L 750.46392 259.099813 
L 752.513868 256.366551 
L 747.730658 256.708208 
L 742.264135 259.099813 
L 738.164238 263.541366 
L 738.164238 261.491418 
L 741.239165 258.4165 
L 744.65574 257.049865 
L 748.413972 255.341581 
L 753.197182 253.63329 
L 756.613765 251.241685 
L 764.258719 234.798934 
L 766.000646 229.914175 
L 766.000646 222.056046 
L 765.317333 215.222888 
L 764.292363 208.731395 
L 762.242414 203.606528 
L 758.142518 198.823318 
L 754.042629 196.090057 
L 749.601076 194.723422 
L 745.50118 193.698452 
L 740.71797 194.381765 
L 737.301395 197.456683 
L 734.90979 200.531602 
L 733.201498 206.681447 
L 732.518185 211.123 
L 733.201498 218.297807 
L 732.518185 222.397703 
L 730.468236 226.839256 
L 727.734975 231.28081 
L 723.293429 239.138938 
L 719.193533 243.922148 
L 713.043688 250.755298 
L 706.893851 256.221829 
L 699.37738 263.738301 
L 692.544222 270.229794 
L 688.102676 273.304713 
L 688.102676 268.863168 
L 691.519252 263.738301 
L 698.35241 256.221829 
L 705.868881 248.705358 
L 711.335405 241.188886 
L 716.460271 233.672415 
L 718.851876 226.4976 
L 719.876846 220.006098 
L 720.56016 213.17294 
L 720.56016 206.681447 
L 722.610108 199.506632 
L 721.585138 193.01513 
L 718.851876 187.890264 
L 712.702031 183.790375 
L 705.868881 182.765397 
L 699.035723 183.448718 
L 693.910857 185.157002 
L 690.494281 188.231928 
L 689.469303 193.01513 
L 689.469303 199.506632 
L 692.202565 205.656468 
L 692.885878 211.464656 
L 692.885878 222.056046 
L 691.860908 215.90621 
L 690.152617 211.806313 
L 687.419355 208.389738 
L 683.319467 208.048073 
L 673.753047 212.489627 
L 668.62818 215.222888 
L 664.86994 219.322785 
L 662.478335 222.397703 
L 661.111708 226.155943 
L 661.795022 230.255831 
L 665.894918 233.672415 
L 671.703098 237.430646 
L 675.461338 241.188886 
L 668.969837 236.405676 
L 663.161657 232.989093 
L 658.03679 233.672415 
L 653.25358 238.11396 
L 649.836997 241.530543 
L 647.103735 245.972088 
L 645.053787 250.071985 
L 646.078765 253.830224 
L 649.153684 255.880165 
L 655.986842 258.613426 
L 660.770052 263.054979 
L 663.84497 264.763271 
L 669.311493 264.763271 
L 662.82 266.129898 
L 661.795022 269.888138 
L 660.428395 273.304713 
L 659.403417 276.721296 
L 657.011812 280.137871 
L 652.228602 283.554446 
L 656.328499 278.771244 
L 659.06176 274.329691 
L 660.08673 270.229794 
L 659.745074 267.154876 
L 657.011812 264.421614 
L 653.25358 261.688353 
L 648.812027 258.613426 
L 644.028817 256.221829 
L 640.953899 258.613426 
L 638.220637 263.396636 
L 635.145719 266.471563 
L 631.729135 271.596429 
L 627.629247 275.696318 
L 623.187694 278.087923 
L 619.771111 280.479528 
L 616.354536 284.579424 
L 616.012879 289.020977 
L 622.50438 290.045947 
L 628.654217 288.337656 
L 622.50438 291.754239 
L 617.379506 292.095896 
L 611.571326 291.754239 
L 602.138491 293.621017 
L 598.018595 297.382889 
L 591.86875 303.191069 
L 594.602012 297.041232 
L 593.918698 285.76652 
L 592.210407 281.324975 
L 588.452175 279.275027 
L 583.668965 279.95834 
L 575.810837 283.033259 
L 564.194469 285.76652 
L 580.935703 279.95834 
L 587.427197 276.200109 
L 590.502123 272.783526 
L 590.84378 266.975346 
L 592.552064 263.900427 
L 594.602012 258.775561 
L 594.602012 255.358977 
L 592.552064 253.992351 
L 589.135488 253.992351 
L 584.693935 255.358977 
L 578.885755 256.383956 
L 574.444202 256.725612 
L 568.977679 256.383956 
L 562.827842 256.725612 
L 557.361311 256.383956 
L 551.55313 256.383956 
L 546.086607 258.092239 
L 537.886822 262.192136 
L 531.395321 268.34198 
L 534.470239 262.875449 
L 539.253449 259.458874 
L 544.378316 256.042299 
L 550.186504 254.334007 
L 554.286392 252.625716 
L 552.578109 248.525827 
L 549.161526 245.792566 
L 543.353345 240.326034 
L 539.253449 235.884489 
L 532.761956 227.001383 
L 540.278427 233.834541 
L 545.74495 240.326034 
L 554.628049 247.842506 
L 562.486177 252.967372 
L 570.68597 255.017321 
L 577.860785 255.358977 
L 583.327308 254.675664 
L 589.477145 253.309037 
L 596.993617 251.942402 
L 600.068535 247.500849 
L 601.093513 242.717639 
L 601.776827 238.617751 
L 600.068535 234.859511 
L 592.552064 231.101279 
L 580.25239 225.634756 
L 564.877782 217.434963 
L 550.52816 211.626783 
L 534.811896 202.743676 
L 556.33634 213.335074 
L 568.294365 217.434963 
L 575.810837 221.876516 
L 585.035592 226.659726 
L 595.968647 231.442936 
L 602.801797 233.834541 
L 605.193402 231.784593 
L 608.951642 223.243151 
L 611.684903 218.118284 
L 613.393195 212.651753 
L 614.759822 206.501916 
L 615.443135 202.40202 
L 616.126456 196.935496 
L 612.368217 190.444003 
L 607.926671 185.660793 
L 598.701908 180.535926 
L 591.86875 177.461 
L 584.352279 175.41106 
L 577.860785 175.41106 
L 571.027627 176.777686 
L 563.169499 179.852605 
L 557.702975 180.535926 
L 551.211474 179.169291 
L 545.403294 176.094373 
L 538.911792 173.019455 
L 532.078634 166.86961 
L 519.375931 156.396377 
L 535.092188 167.671089 
L 542.950316 172.454299 
L 552.516736 176.895844 
L 558.324916 178.262479 
L 563.449782 177.237501 
L 568.916306 175.529217 
L 573.357859 173.820926 
L 578.482726 173.820926 
L 584.974227 173.479269 
L 589.757437 174.845904 
L 595.565617 177.920822 
L 603.765402 182.020711 
L 613.331822 187.145577 
L 619.823323 184.412316 
L 622.21492 179.629106 
L 623.183106 171.889135 
L 621.816479 164.372663 
L 620.449844 157.88117 
L 618.058239 148.31475 
L 614.641664 142.848227 
L 608.491827 137.381703 
L 603.025296 133.96512 
L 597.217116 132.94015 
L 587.992353 133.623464 
L 578.084284 132.256837 
L 558.268131 130.548545 
L 550.751659 129.18191 
L 546.310106 128.15694 
L 536.743686 124.057044 
L 530.252193 123.032074 
L 524.444005 123.37373 
L 517.952511 125.423679 
L 514.535928 128.498597 
L 511.802667 131.231859 
L 509.069405 133.623464 
L 506.336143 135.673412 
L 501.211277 137.381703 
L 497.453045 137.72336 
L 492.32817 137.72336 
L 489.936573 136.698382 
L 482.434645 132.559394 
L 477.649708 130.509157 
L 473.549811 116.159535 
L 471.158206 113.426273 
L 469.449923 110.693004 
L 468.424945 106.251458 
L 466.716661 100.101614 
L 466.375005 95.66006 
L 465.691683 91.560172 
L 466.03334 85.751992 
L 466.716661 79.26049 
L 464.325056 71.402362 
L 458.858533 64.910861 
L 454.41698 60.810972 
L 447.12866 56.221885 
L 439.283275 51.765739 
L 430.400177 48.690821 
L 421.51707 46.640873 
L 412.292315 46.640873 
L 394.184446 47.324186 
L 388.034609 48.0075 
L 375.051614 50.057448 
L 368.560112 51.424083 
L 355.235461 56.890606 
L 350.110594 60.648838 
L 346.352354 64.065421 
L 343.619093 67.140339 
L 342.594123 70.556914 
L 342.935779 77.048416 
L 342.935779 81.831626 
L 340.885831 86.273179 
L 336.785943 91.398046 
L 332.344389 97.206226 
L 327.219523 103.356062 
L 321.411343 114.972431 
L 320.044708 120.097297 
L 319.019738 127.613769 
L 316.286476 130.688687 
L 313.553206 134.10527 
L 312.186579 136.496875 
L 311.161601 138.888472 
L 308.42834 136.496875 
L 305.011765 135.813554 
L 300.911868 132.055322 
L 297.495293 129.32206 
L 294.420375 124.880507 
L 288.84851 120.701842 
L 284.406957 118.310237 
L 280.648725 116.601945 
L 275.523858 115.918632 
L 270.398992 118.310237 
L 266.982408 120.360185 
L 256.732675 127.876656 
L 252.291122 129.58494 
L 246.141285 130.951575 
L 238.96647 131.976545 
L 230.766685 133.001523 
L 223.250214 134.709807 
L 216.075399 136.076441 
L 209.583897 138.12639 
L 199.675821 142.567943 
L 192.842671 147.351145 
L 188.742774 151.109385 
L 185.667856 155.892595 
L 183.617908 160.334148 
L 181.567959 164.434036 
L 179.518011 171.608851 
L 178.493041 178.442009 
L 178.493041 184.933503 
L 179.176354 190.058369 
L 183.130243 197.185335 
L 189.263961 205.073916 
L 195.072141 213.273701 
L 199.712927 222.077589 
L 201.482319 223.650383 
L 204.516016 227.150805 
L 206.149548 230.884586 
L 208.016439 232.051393 
L 210.583412 231.584669 
L 213.383751 232.051393 
L 216.184083 234.385 
L 218.517698 236.718615 
L 222.01812 238.585505 
L 228.552232 240.452396 
L 230.885847 242.319286 
L 233.686187 246.053067 
L 236.719877 247.686599 
L 239.053492 248.386682 
L 240.871046 247.890982 
L 244.270867 242.31461 
L 245.979159 239.239691 
L 249.395734 234.456481 
L 253.837287 230.836182 
L 258.278841 225.91504 
L 266.136969 219.765203 
L 263.745364 221.815143 
L 262.037072 224.548405 
L 257.595519 230.69825 
L 255.887236 234.114825 
L 253.837287 236.50643 
L 249.054077 242.656274 
L 246.662472 247.09782 
L 250.420704 247.781141 
L 261.353759 251.197716 
L 264.428677 253.930978 
L 267.161939 256.664239 
L 267.845252 260.764136 
L 268.186909 266.913973 
L 266.820282 262.814084 
L 264.428677 258.372531 
L 261.695416 254.614291 
L 255.545571 252.564351 
L 246.662472 250.856059 
L 245.63608 250.456903 
L 244.187446 250.720297 
L 241.620465 250.48693 
L 237.419968 249.320123 
L 233.452821 247.453233 
L 231.819297 244.886259 
L 229.485682 242.319286 
L 226.918708 240.685762 
L 224.351727 240.219037 
L 221.784754 239.518955 
L 216.884166 236.485257 
L 214.783917 234.385 
L 212.683669 232.984834 
L 209.416605 232.51811 
L 206.149548 233.918284 
L 203.955248 236.551443 
L 203.955248 241.28964 
L 204.296905 248.122798 
L 204.980218 252.906008 
L 206.346853 259.397501 
L 209.421771 264.180711 
L 215.229951 271.697183 
L 219.671504 276.138736 
L 223.088088 279.213654 
L 223.088088 279.213654 
" style="fill:none;stroke:#000000;stroke-linecap:square;stroke-width:1.5;"/>
   </g>
   <g id="line2d_2">
    <path clip-path="url(#p87c34147ce)" d="M 315.281457 195.846719 
L 315.842274 190.238599 
L 318.085517 186.032517 
L 320.048356 183.789266 
L 322.572011 181.265619 
L 325.376071 177.339933 
L 326.497689 174.816286 
L 327.619314 170.610196 
L 328.460535 167.806137 
L 329.582153 163.319642 
L 330.984183 159.674369 
L 333.227426 155.468288 
L 335.470677 152.103411 
L 338.555141 148.177734 
L 352.29502 138.363533 
L 358.183544 136.400694 
L 369.960584 134.157443 
L 378.372755 133.035825 
L 385.1025 131.633795 
L 392.112642 131.072979 
L 405.852528 130.51217 
L 412.021449 130.51217 
L 418.190377 131.072979 
L 426.04174 131.9142 
L 432.491072 132.755413 
L 442.866082 134.998664 
L 452.399879 138.643937 
L 461.372868 142.569622 
L 469.22423 147.056108 
L 474.832342 152.944632 
L 479.318836 158.27234 
L 482.683704 163.880459 
L 484.366139 170.049388 
L 485.487764 175.657499 
L 486.048573 179.302772 
L 486.048573 184.910892 
L 488.011412 190.238599 
L 491.656693 198.65077 
L 484.366139 190.238599 
L 479.879645 186.87373 
L 473.430312 184.910892 
L 468.102605 185.4717 
L 460.531646 186.593326 
L 454.923535 186.593326 
L 449.315415 186.87373 
L 442.866082 186.87373 
L 435.575537 187.434539 
L 428.004578 187.434539 
L 420.153216 187.714952 
L 411.46064 187.714952 
L 405.291711 187.434539 
L 398.561974 185.752105 
L 392.67345 183.228457 
L 387.065339 181.826428 
L 381.457219 180.143993 
L 376.129512 179.302772 
L 369.399775 179.302772 
L 363.511251 179.022368 
L 358.183544 178.181155 
L 348.930151 175.657499 
L 342.761223 174.535874 
L 337.994324 174.535874 
L 333.507838 175.377095 
L 328.74094 177.339933 
L 323.974041 181.265619 
L 320.32876 184.630487 
L 317.244304 188.836569 
L 315.281457 195.846719 
" style="fill:none;stroke:#000000;stroke-linecap:square;stroke-width:1.5;"/>
   </g>
   <g id="line2d_3">
    <path clip-path="url(#p87c34147ce)" d="M 433.893102 265.948158 
L 439.501214 264.265723 
L 444.828929 262.583289 
L 456.325565 259.218421 
L 461.372868 256.694765 
L 465.859362 253.890713 
L 472.02829 246.600159 
L 473.430312 242.954886 
L 473.991129 237.627171 
L 472.589099 233.140685 
L 469.22423 227.532566 
L 462.774897 223.326484 
L 453.801909 221.64405 
L 445.389738 221.083233 
L 436.41675 219.961615 
L 430.808638 219.961615 
L 426.602548 220.802828 
L 419.592407 223.046071 
L 413.423478 224.167697 
L 402.487652 224.167697 
L 392.953863 222.485263 
L 382.859249 219.681203 
L 370.5214 217.718364 
L 361.268008 217.718364 
L 353.697049 218.559585 
L 347.808533 219.961615 
L 340.51798 223.887293 
L 336.592302 227.81297 
L 334.068647 233.140685 
L 334.909868 237.907584 
L 337.433515 244.076504 
L 341.920009 248.002189 
L 348.369342 251.927867 
L 355.940301 255.292735 
L 362.109221 258.657612 
L 365.754502 261.461664 
L 368.278149 266.228562 
L 371.923422 274.079925 
L 366.876119 265.106945 
L 361.548412 260.62045 
L 355.099079 256.694765 
L 343.322039 249.404219 
L 337.71392 246.880564 
L 332.947021 237.346767 
L 332.666617 233.140685 
L 333.507838 229.215 
L 336.31189 225.569727 
L 341.078788 221.363637 
L 344.443657 219.961615 
L 350.332181 218.279173 
L 354.818675 217.157555 
L 360.426787 216.316334 
L 364.913281 216.03593 
L 376.129512 217.157555 
L 380.055197 216.877151 
L 385.1025 215.755526 
L 390.710612 218.279173 
L 394.636297 219.961615 
L 398.28157 220.802828 
L 403.328873 221.64405 
L 408.65658 221.64405 
L 415.105913 220.802828 
L 421.555246 218.559585 
L 427.44377 215.755526 
L 431.930264 216.596739 
L 435.575537 218.559585 
L 441.183648 219.681203 
L 451.839071 220.802828 
L 457.166778 220.802828 
L 462.774897 221.64405 
L 468.663413 225.569727 
L 471.467473 230.056221 
L 474.832342 235.664333 
L 475.112746 241.552857 
L 474.551937 246.600159 
L 471.467473 249.684624 
L 467.541796 254.451522 
L 461.372868 258.096795 
L 450.717445 262.02248 
L 442.866082 263.985319 
L 433.893102 265.948158 
" style="fill:none;stroke:#000000;stroke-linecap:square;stroke-width:1.5;"/>
   </g>
   <g id="line2d_4">
    <path clip-path="url(#p87c34147ce)" d="M 329.862557 120.978373 
L 332.666617 116.772291 
L 335.190272 114.52904 
L 337.71392 112.005393 
L 340.237575 110.042546 
L 342.761223 107.799303 
L 346.686908 105.275648 
L 353.697049 100.508749 
L 358.183544 98.265506 
L 362.109221 95.741859 
L 366.876119 93.218203 
L 370.240988 91.255365 
L 373.886269 89.853335 
L 379.213976 88.451305 
L 384.541683 87.329679 
L 391.27142 86.768871 
L 396.318731 86.208062 
L 402.487652 85.927649 
L 408.376176 85.927649 
L 414.2647 86.488466 
L 422.957275 87.890496 
L 429.687013 90.133739 
L 435.855941 92.937799 
L 440.622839 95.461446 
L 445.670142 99.387132 
L 449.876232 104.434435 
L 456.325565 111.444576 
L 450.717445 106.677678 
L 445.109334 103.312809 
L 437.538375 99.387132 
L 428.004578 95.741859 
L 419.872811 94.059416 
L 409.778206 92.937799 
L 401.08563 92.657395 
L 394.07548 92.937799 
L 382.578845 94.900638 
L 375.288299 96.863476 
L 369.680179 98.826315 
L 361.548412 101.34997 
L 351.453806 106.677678 
L 346.967312 109.201333 
L 340.51798 112.566202 
L 336.872707 115.93107 
L 329.862557 120.978373 
" style="fill:none;stroke:#000000;stroke-linecap:square;stroke-width:1.5;"/>
   </g>
   <g id="line2d_5">
    <path clip-path="url(#p87c34147ce)" d="M 262.882174 183.537861 
L 271.97107 178.029434 
L 265.360961 183.262438 
L 259.57712 186.842915 
L 253.79327 189.597125 
L 247.183169 193.453024 
L 240.297638 197.584339 
L 235.890901 199.236866 
L 232.585847 199.236866 
L 228.729947 200.613971 
L 225.700315 203.092757 
L 222.946106 203.36818 
L 219.365628 202.817343 
L 214.958892 203.643603 
L 211.102992 204.745285 
L 206.971678 207.22408 
L 209.450465 201.715653 
L 210.00131 198.961443 
L 210.552155 195.105552 
L 211.102992 192.626757 
L 213.306364 189.597125 
L 217.437679 186.29207 
L 221.569001 183.537861 
L 227.903687 180.508229 
L 232.310424 178.580279 
L 237.268006 177.203174 
L 242.50101 176.652329 
L 233.687529 179.131124 
L 225.149478 182.987016 
L 216.611419 187.944598 
L 214.408047 192.626757 
L 213.85721 195.380966 
L 214.132624 197.584339 
L 215.234314 199.236866 
L 219.365628 200.889393 
L 224.598633 201.715653 
L 227.903687 200.063125 
L 230.933319 198.410598 
L 235.064633 197.859761 
L 238.920533 197.033494 
L 243.878115 194.554707 
L 250.212801 190.698807 
L 257.64917 186.842915 
L 262.882174 183.537861 
L 262.882174 183.537861 
" style="fill:none;stroke:#000000;stroke-linecap:square;stroke-width:1.5;"/>
   </g>
   <g id="line2d_6">
    <path clip-path="url(#p87c34147ce)" d="M 570.675733 127.73048 
L 577.022979 128.344731 
L 582.960727 129.573225 
L 589.103219 131.006471 
L 594.631461 131.825475 
L 599.954958 131.825475 
L 604.868948 131.620722 
L 608.963943 128.958974 
L 609.578194 125.47823 
L 608.349701 120.973737 
L 607.530697 117.492992 
L 605.073701 112.783747 
L 602.2072 108.688752 
L 598.521711 105.003254 
L 596.26946 103.774753 
L 592.583963 102.751004 
L 590.126968 102.136753 
L 587.669964 100.498753 
L 584.803471 99.475005 
L 581.322727 99.065507 
L 577.841975 98.656009 
L 573.337482 98.656009 
L 570.675733 98.246511 
L 566.990236 97.63226 
L 563.714245 96.813256 
L 560.438246 96.608511 
L 556.343251 97.018009 
L 552.657754 97.427507 
L 549.177009 97.837005 
L 545.286759 98.656009 
L 541.601262 99.679758 
L 539.34902 100.498753 
L 536.07302 103.160502 
L 533.82077 106.027003 
L 532.797021 108.688752 
L 532.592276 112.169496 
L 532.387523 115.240742 
L 532.592276 118.311988 
L 533.616025 120.973737 
L 537.506267 123.635485 
L 542.010768 125.887727 
L 547.129512 126.911476 
L 552.248256 127.116229 
L 556.547996 127.116229 
L 561.871492 127.116229 
L 566.375993 127.116229 
L 570.675733 127.73048 
" style="fill:none;stroke:#000000;stroke-linecap:square;stroke-width:1.5;"/>
   </g>
   <g id="line2d_7">
    <path clip-path="url(#p87c34147ce)" d="M 336.31189 173.975065 
L 342.480818 173.414256 
L 350.332181 175.09669 
L 355.379484 176.49872 
L 361.828816 177.900742 
L 367.71734 177.900742 
L 373.325452 178.181155 
L 380.055197 177.900742 
L 385.1025 179.583185 
L 393.234267 181.546023 
L 396.318731 183.228457 
L 400.244409 184.350075 
L 405.291711 186.032517 
L 412.021449 186.032517 
L 417.629568 185.752105 
L 423.798497 185.4717 
L 431.089042 185.4717 
L 441.464061 185.191296 
L 449.315415 184.350075 
L 454.923535 185.191296 
L 462.494493 185.4717 
L 467.8222 184.630487 
L 473.430312 183.789266 
L 477.355997 182.387236 
L 481.281675 178.741963 
L 482.4033 174.816286 
L 481.562079 167.525732 
L 479.038432 161.637208 
L 475.673563 156.029097 
L 471.187069 150.701389 
L 464.176927 146.214895 
L 456.605969 142.28921 
L 450.717445 139.765562 
L 446.511363 138.083128 
L 442.024869 136.12029 
L 436.697162 134.998664 
L 431.369447 133.877038 
L 424.63971 133.31623 
L 419.592407 132.475009 
L 415.386317 132.475009 
L 408.095771 132.475009 
L 402.768064 132.755413 
L 395.757915 133.035825 
L 390.149803 133.035825 
L 383.980875 133.596634 
L 377.531542 134.157443 
L 372.203835 134.71826 
L 366.034906 136.400694 
L 360.426787 137.802724 
L 356.220705 139.485158 
L 351.734211 141.167592 
L 346.686908 143.971644 
L 342.480818 146.4953 
L 339.396354 149.299359 
L 336.592302 152.664228 
L 334.629456 156.029097 
L 333.227426 159.113561 
L 332.386213 163.039238 
L 332.386213 166.404107 
L 333.788242 169.488571 
L 334.909868 171.731822 
L 336.31189 173.975065 
" style="fill:none;stroke:#000000;stroke-linecap:square;stroke-width:1.5;"/>
   </g>
   <g id="line2d_8">
    <path clip-path="url(#p87c34147ce)" d="M 196.286316 141.570919 
L 203.459106 136.053388 
L 211.735403 132.191117 
L 222.218719 127.777084 
L 231.598521 126.673578 
L 238.771311 127.777084 
L 248.151114 127.777084 
L 255.875657 126.121825 
L 262.496694 122.811307 
L 269.117739 117.845529 
L 271.324751 112.327998 
L 270.772998 104.603455 
L 264.703706 97.430665 
L 255.323904 93.01664 
L 247.047608 91.361381 
L 234.90904 90.809628 
L 224.977484 92.464887 
L 216.701188 94.120146 
L 208.976637 97.430665 
L 203.459106 102.396443 
L 198.493329 107.913973 
L 192.975798 115.086763 
L 190.768786 117.845529 
L 189.113526 124.466566 
L 188.01002 131.639364 
L 188.01002 137.708648 
L 190.217032 142.674425 
L 196.286316 141.570919 
" style="fill:none;stroke:#000000;stroke-linecap:square;stroke-width:1.5;"/>
   </g>
   <g id="line2d_9">
    <path clip-path="url(#p87c34147ce)" d="M 137.475322 380.801957 
L 145.200925 382.686251 
L 150.853817 382.686251 
L 153.491829 379.482954 
L 156.695126 375.525932 
L 158.390995 372.887919 
L 160.463715 369.873048 
L 161.782726 367.046602 
L 161.782726 363.654872 
L 160.840574 360.640001 
L 158.390995 358.001988 
L 154.999265 355.740835 
L 151.79596 354.233399 
L 149.534807 354.610258 
L 146.896794 356.494553 
L 144.824066 360.074708 
L 142.751346 362.524295 
L 141.243911 364.973882 
L 138.982757 365.162308 
L 136.53317 365.539166 
L 133.706724 364.973882 
L 130.503428 364.973882 
L 127.676982 366.292884 
L 125.981121 367.988753 
L 125.792687 371.003625 
L 126.734838 374.018496 
L 128.995992 376.468083 
L 134.083583 379.482954 
L 137.475322 380.801957 
" style="fill:none;stroke:#000000;stroke-linecap:square;stroke-width:1.5;"/>
   </g>
  </g>
 </g>
 <defs>
  <clipPath id="p87c34147ce">
   <rect height="637.92" width="803.52" x="0" y="0"/>
  </clipPath>
 </defs>
</svg>
