<?xml version="1.0" encoding="utf-8" standalone="no"?>
<!DOCTYPE svg PUBLIC "-//W3C//DTD SVG 1.1//EN"
  "http://www.w3.org/Graphics/SVG/1.1/DTD/svg11.dtd">
<!-- Created with matplotlib (https://matplotlib.org/) -->
<svg height="669.6pt" version="1.1" viewBox="0 0 829.44 669.6" width="829.44pt" xmlns="http://www.w3.org/2000/svg" xmlns:xlink="http://www.w3.org/1999/xlink">
 <defs>
  <style type="text/css">
*{stroke-linecap:butt;stroke-linejoin:round;}
  </style>
 </defs>
 <g id="figure_1">
  <g><image xlink:href="../../img/cb/ringtailcat_cor_cell.json.cb-50%25.png" width="829.4399999999999px" height="669.6px"/></g>

  <g id="patch_1">
   <path d="M 0 669.6 
L 829.44 669.6 
L 829.44 0 
L 0 0 
z
" style="fill:none;"/>
  </g>
  <g id="axes_1">
   <g id="line2d_1">
    <path clip-path="url(#p75fc9d22ac)" d="M 290.283919 238.265424 
L 285.140164 244.118251 
L 287.865878 239.484535 
L 291.681891 234.578239 
L 295.225325 228.581654 
L 298.223609 224.765649 
L 300.949332 220.404503 
L 302.857334 216.043349 
L 300.676761 213.862776 
L 297.951039 211.954774 
L 290.319029 209.774201 
L 286.230446 210.046772 
L 282.414441 210.591913 
L 279.961298 213.045065 
L 276.417864 216.31592 
L 274.237291 219.314213 
L 272.329289 222.585076 
L 271.511569 228.309083 
L 271.238998 223.947937 
L 272.05671 220.949644 
L 274.237291 217.40621 
L 277.780725 214.135347 
L 281.324159 209.501631 
L 282.414441 205.413047 
L 282.141871 201.051901 
L 282.141871 196.963318 
L 282.414441 192.602172 
L 279.961298 190.149029 
L 277.235576 189.331309 
L 274.509862 189.058738 
L 272.329289 189.603879 
L 270.148708 192.602172 
L 267.968135 196.145606 
L 265.514991 198.59875 
L 263.606989 202.142184 
L 267.695564 194.782745 
L 270.148708 190.96674 
L 271.238998 187.968448 
L 270.148708 184.152443 
L 267.150423 183.334731 
L 261.698987 183.062161 
L 258.155553 183.334731 
L 253.794399 183.334731 
L 250.250964 184.970163 
L 246.162389 187.150736 
L 241.801235 190.421599 
L 238.257801 193.419884 
L 235.259508 196.145606 
L 230.353221 201.597043 
L 228.99036 204.322765 
L 229.262931 207.866199 
L 231.170933 212.499915 
L 234.169226 214.680496 
L 238.257801 214.135347 
L 242.618955 213.045065 
L 246.162389 211.137062 
L 249.978394 211.137062 
L 240.710953 214.135347 
L 237.440089 215.770779 
L 235.804658 217.40621 
L 240.710953 231.034805 
L 243.164096 241.665108 
L 246.980101 244.390822 
L 254.066969 246.298832 
L 255.15726 249.842266 
L 256.520121 252.840551 
L 257.065262 256.111414 
L 254.884689 258.564566 
L 256.247542 255.566273 
L 255.42983 252.29541 
L 253.521828 247.934256 
L 251.613826 246.571403 
L 249.160674 245.753683 
L 243.709238 244.935971 
L 241.528665 246.026253 
L 239.893233 249.842266 
L 240.165804 246.026253 
L 241.528665 244.6634 
L 242.346376 242.482819 
L 242.346376 240.302246 
L 241.528665 237.849103 
L 240.438374 232.670237 
L 238.530372 227.491371 
L 237.985231 225.03822 
L 237.167519 222.312506 
L 235.804658 220.677074 
L 234.169226 219.586783 
L 232.533794 219.859354 
L 230.625792 221.767365 
L 228.71779 223.947937 
L 227.082358 226.401081 
L 223.811495 231.034805 
L 225.992067 227.218801 
L 227.90007 224.493079 
L 232.261224 219.314213 
L 232.261224 218.496501 
L 232.533794 216.861069 
L 231.716074 215.498208 
L 229.262931 212.227345 
L 227.354929 210.046772 
L 224.084065 209.229052 
L 220.26806 209.501631 
L 216.179485 210.046772 
L 212.636051 211.682204 
L 209.365188 213.862776 
L 206.366895 216.31592 
L 204.186322 217.951352 
L 201.73317 219.586783 
L 199.280027 221.494786 
L 197.644595 223.402796 
L 196.281734 226.12851 
L 195.736593 228.036513 
L 196.826883 231.034805 
L 201.4606 236.213671 
L 204.731463 238.666815 
L 208.002327 237.576532 
L 205.549183 240.847388 
L 208.547468 246.298832 
L 211.545761 253.113121 
L 215.906906 258.564566 
L 218.905199 262.925712 
L 222.993774 269.740009 
L 216.452056 262.108 
L 213.998904 258.291987 
L 211.545761 256.656555 
L 210.45547 253.658271 
L 209.910329 250.932549 
L 208.820038 248.479405 
L 207.457185 245.753683 
L 204.186322 241.937678 
L 202.005749 241.119966 
L 202.823461 239.484535 
L 201.73317 237.576532 
L 198.462307 234.305669 
L 196.009163 230.489664 
L 193.283449 229.126803 
L 190.557727 229.399374 
L 187.286864 232.125088 
L 183.74343 234.305669 
L 180.199995 237.303954 
L 178.564564 239.484535 
L 176.656561 241.392537 
L 175.566271 243.57311 
L 175.2937 245.753683 
L 178.291993 250.932549 
L 181.835427 254.475983 
L 184.56115 259.927419 
L 186.196573 264.833714 
L 189.194866 270.557721 
L 192.465729 275.464016 
L 196.281734 278.73488 
L 199.007456 281.733173 
L 194.918873 278.73488 
L 189.194866 272.193153 
L 187.286864 268.649719 
L 185.106291 264.016002 
L 183.74343 260.472568 
L 182.380568 257.746846 
L 181.017716 255.293703 
L 179.382284 253.3857 
L 176.383991 250.659978 
L 175.2937 248.479405 
L 172.567986 247.389114 
L 170.114835 247.934256 
L 165.801083 249.053228 
L 161.415651 251.234158 
L 158.689929 253.959872 
L 157.054497 256.140453 
L 156.509356 259.683887 
L 157.599647 262.682172 
L 160.325361 268.678757 
L 162.778512 273.039903 
L 166.049368 277.401057 
L 169.592802 280.671921 
L 166.049368 279.036489 
L 164.141365 277.128487 
L 162.778512 274.402764 
L 160.597931 271.131901 
L 158.962499 267.861037 
L 157.872217 265.135323 
L 156.236785 261.86446 
L 152.965922 260.501599 
L 148.604776 262.13703 
L 145.606483 263.772462 
L 142.880761 265.680464 
L 140.700188 267.043326 
L 137.156754 268.406187 
L 134.976181 269.76904 
L 132.250459 272.222191 
L 130.342457 274.402764 
L 128.434454 277.401057 
L 126.526452 279.58163 
L 125.708732 282.307344 
L 125.981311 285.850778 
L 129.252166 287.758789 
L 134.431032 289.939362 
L 138.792186 289.394212 
L 143.42591 288.5765 
L 145.879054 287.213639 
L 147.514486 286.941069 
L 146.424195 289.939362 
L 143.971052 292.119934 
L 140.427618 295.118227 
L 135.793893 296.753659 
L 132.250459 297.843941 
L 129.252166 296.20851 
L 127.344164 294.573078 
L 124.345879 293.482796 
L 121.620157 293.482796 
L 119.712155 295.935939 
L 118.349293 300.024523 
L 116.765146 305.759403 
L 114.312865 312.29617 
L 113.767716 320.473329 
L 114.858006 323.471622 
L 117.583729 325.107054 
L 120.309443 324.289334 
L 120.854592 327.560197 
L 120.036872 331.103631 
L 121.672304 334.101924 
L 125.215738 333.011633 
L 128.486601 331.64878 
L 130.939745 329.74077 
L 132.302606 326.469915 
L 132.575176 322.926481 
L 132.575176 319.928188 
L 133.392896 325.924765 
L 133.665467 329.74077 
L 136.93633 331.64878 
L 142.115196 330.013349 
L 145.38606 327.015056 
L 148.384344 325.107054 
L 151.382637 324.561904 
L 153.56321 322.381331 
L 154.108351 319.110468 
L 154.108351 315.839613 
L 154.653501 312.0236 
L 154.926071 308.207595 
L 156.016362 305.481881 
L 157.106644 301.938447 
L 158.742076 299.757866 
L 160.650078 299.212725 
L 158.469505 302.756159 
L 156.834073 306.572163 
L 156.016362 310.115597 
L 155.198642 314.204181 
L 154.926071 318.565327 
L 155.198642 321.83619 
L 158.469505 324.289334 
L 162.830651 326.197336 
L 167.736946 326.742485 
L 171.00781 323.199051 
L 174.278673 318.837897 
L 176.459246 315.567034 
L 181.092971 309.570456 
L 183.818685 303.573879 
L 183.818685 306.572163 
L 185.999266 306.572163 
L 188.452409 305.481881 
L 191.178132 304.664161 
L 183.818685 308.752736 
L 182.455832 309.843027 
L 180.00268 313.11389 
L 176.459246 317.202465 
L 174.278673 321.291049 
L 172.0981 324.561904 
L 168.554666 328.650488 
L 165.556373 330.83106 
L 161.740369 330.285919 
L 159.559796 329.195629 
L 157.379215 327.560197 
L 155.471212 326.469915 
L 152.472928 327.832768 
L 148.111774 330.55849 
L 143.205479 336.009926 
L 141.570047 339.008219 
L 140.752335 343.914514 
L 137.754042 340.371072 
L 135.573469 338.735649 
L 133.120326 339.008219 
L 130.394604 340.643651 
L 124.125447 343.096794 
L 120.582013 343.369365 
L 118.674011 343.914514 
L 115.130577 343.914514 
L 113.767716 344.732226 
L 112.404863 346.640228 
L 111.859713 349.365951 
L 111.587143 352.636806 
L 112.677433 356.452819 
L 115.130577 362.721967 
L 118.674011 366.81055 
L 123.852877 368.445974 
L 128.214031 368.173403 
L 146.748913 364.90254 
L 156.016362 362.449396 
L 161.467798 360.541394 
L 164.466083 358.360821 
L 165.283803 356.180248 
L 166.101514 353.454526 
L 167.191805 352.636806 
L 166.101514 355.907669 
L 165.556373 358.633392 
L 169.644948 359.451103 
L 176.186675 359.178533 
L 180.8204 358.360821 
L 185.726687 355.635099 
L 194.721566 349.911092 
L 196.084418 346.640228 
L 196.902138 343.914514 
L 198.265 340.098501 
L 200.990714 336.009926 
L 203.716436 333.556783 
L 206.169579 332.193922 
L 208.895302 330.013349 
L 210.803304 323.744192 
L 209.713013 330.013349 
L 211.893586 333.829353 
L 209.713013 332.466492 
L 207.25987 333.011633 
L 203.443865 335.192215 
L 200.718143 338.46307 
L 199.082711 340.916221 
L 197.71985 344.459655 
L 197.44728 348.548231 
L 199.900431 350.183662 
L 202.626145 351.001382 
L 206.987299 350.728804 
L 210.258155 348.548231 
L 213.529018 346.095087 
L 216.25474 343.096794 
L 218.707884 340.643651 
L 220.888465 338.735649 
L 221.161036 341.188792 
L 218.435313 345.004797 
L 214.074168 348.27566 
L 209.985584 351.001382 
L 206.169579 352.364235 
L 202.898716 352.909385 
L 200.445573 352.636806 
L 197.992421 351.819094 
L 195.266707 351.819094 
L 191.995843 352.909385 
L 189.270129 354.544816 
L 185.999266 356.99796 
L 183.546114 358.360821 
L 181.638112 360.541394 
L 179.184968 362.994537 
L 177.276966 365.447689 
L 175.531318 368.614259 
L 176.076459 372.702834 
L 177.439321 375.701127 
L 183.981048 383.605707 
L 177.984462 377.609129 
L 174.441028 375.701127 
L 170.352453 377.063988 
L 167.899309 383.605707 
L 167.35416 386.87657 
L 165.718728 390.692583 
L 163.810726 392.328006 
L 161.630153 395.326299 
L 159.994721 397.779451 
L 159.44958 402.140597 
L 159.994721 405.684031 
L 161.085012 410.862897 
L 165.446157 414.13376 
L 171.442743 416.314333 
L 177.439321 417.132053 
L 183.163327 416.859474 
L 188.069623 416.041762 
L 191.340486 414.13376 
L 197.882213 413.588619 
L 204.42394 410.590326 
L 209.602806 406.774321 
L 212.32852 403.503458 
L 215.871954 400.505165 
L 219.687958 398.324592 
L 224.049112 396.961731 
L 227.865117 395.59887 
L 232.226263 393.145726 
L 233.403653 389.381869 
L 233.403653 385.293285 
L 233.131082 382.295001 
L 232.585941 379.841849 
L 232.313371 377.116135 
L 235.039085 374.117842 
L 239.400239 370.846979 
L 235.856805 374.935554 
L 234.493944 377.388705 
L 234.493944 380.659569 
L 234.766514 384.475574 
L 234.766514 388.019008 
L 234.221373 391.562442 
L 233.676223 394.288156 
L 232.585941 395.923587 
L 230.677939 398.104169 
L 231.22308 402.192744 
L 238.855089 397.83159 
L 242.125953 395.105876 
L 244.579104 392.107583 
L 246.487107 388.564149 
L 248.66768 385.293285 
L 249.75797 381.20471 
L 251.120823 379.024137 
L 254.119116 375.753274 
L 256.844838 372.48241 
L 259.297982 368.666406 
L 261.205984 364.305252 
L 262.568845 360.761818 
L 265.839709 355.037811 
L 268.292852 352.312088 
L 271.540607 348.27566 
L 275.084041 343.369365 
L 278.627475 339.825931 
L 282.988621 336.009926 
L 287.894916 333.011633 
L 292.256062 330.83106 
L 297.707498 330.013349 
L 302.613794 330.013349 
L 310.518382 331.921351 
L 317.87782 333.284204 
L 323.329257 332.193922 
L 328.780693 329.74077 
L 336.140132 327.015056 
L 342.681859 323.471622 
L 348.678436 320.7459 
L 353.584731 316.929895 
L 358.763597 313.931602 
L 365.305324 311.751029 
L 370.211619 310.933317 
L 373.927817 309.598126 
L 377.745257 307.964055 
L 381.83384 306.601202 
L 384.559554 304.14805 
L 387.285277 303.87548 
L 390.283561 306.601202 
L 395.735006 308.781775 
L 400.913872 309.599487 
L 408.27331 310.962348 
L 420.811615 316.413784 
L 431.441917 321.865221 
L 439.346497 327.316657 
L 446.705944 331.950381 
L 454.883094 334.676104 
L 460.87968 334.403525 
L 468.511689 332.768101 
L 473.690555 330.042379 
L 478.324279 327.861806 
L 483.775716 327.044086 
L 488.48628 329.226111 
L 492.863608 333.585813 
L 498.315044 338.492108 
L 503.221339 341.762972 
L 508.400205 345.851547 
L 508.672776 348.30469 
L 507.855064 352.393274 
L 508.672776 355.936708 
L 512.48878 361.933285 
L 514.941932 366.29444 
L 519.030507 372.291017 
L 523.119082 377.469883 
L 526.662516 380.195605 
L 529.93338 384.01161 
L 531.841382 387.827614 
L 534.501106 390.680191 
L 537.771969 390.13505 
L 540.225113 388.227048 
L 544.586259 387.954477 
L 547.857122 385.773896 
L 548.402271 382.775611 
L 547.857122 379.504748 
L 547.584551 376.506455 
L 546.494269 373.780741 
L 544.041117 371.327589 
L 540.225113 369.419587 
L 537.22682 368.329296 
L 531.230242 366.421294 
L 529.04967 367.239014 
L 527.959379 370.237299 
L 527.959379 366.693865 
L 526.869088 364.240721 
L 525.233657 362.060148 
L 521.962801 359.334426 
L 519.237079 356.881283 
L 517.056506 354.428131 
L 523.325654 359.334426 
L 526.869088 362.87786 
L 529.594811 365.876153 
L 532.865674 365.603582 
L 534.501106 365.058441 
L 535.046247 366.421294 
L 538.31711 368.329296 
L 545.403979 370.782448 
L 547.311981 370.782448 
L 546.494269 372.145309 
L 547.857122 374.871023 
L 548.674842 378.414457 
L 549.765124 380.867609 
L 552.490847 381.41275 
L 556.851992 381.41275 
L 551.127985 382.503033 
L 548.947413 383.865894 
L 547.584551 386.591616 
L 546.22169 389.589909 
L 544.586259 391.497911 
L 544.858837 394.768766 
L 545.676549 397.767059 
L 546.494269 402.400784 
L 549.492554 406.216788 
L 551.400556 409.487652 
L 551.945705 411.940795 
L 555.216569 411.940795 
L 558.760003 410.305364 
L 561.213146 402.945925 
L 562.848578 399.402491 
L 566.664583 392.315623 
L 568.300014 389.862479 
L 569.390305 387.409328 
L 571.025737 387.409328 
L 575.386883 391.225332 
L 582.20118 394.768766 
L 589.560619 397.221918 
L 596.374916 397.767059 
L 599.373209 396.676777 
L 601.281211 392.043052 
L 603.734355 387.136757 
L 604.824645 382.775611 
L 604.279496 378.687028 
L 602.371494 375.143594 
L 600.190921 373.235592 
L 596.374916 373.780741 
L 592.558912 374.598453 
L 589.288048 376.506455 
L 590.378339 373.235592 
L 589.015478 370.782448 
L 585.744614 369.147016 
L 583.291471 369.692158 
L 583.291471 365.876153 
L 583.018892 362.060148 
L 583.018892 352.520129 
L 582.746321 347.613842 
L 582.746321 342.434976 
L 583.291471 338.073822 
L 584.654324 336.710961 
L 584.926894 342.980117 
L 584.381753 350.612126 
L 584.926894 360.969858 
L 585.472044 364.513292 
L 586.834905 368.056726 
L 590.10576 371.055019 
L 593.104053 372.41788 
L 597.192628 371.87273 
L 602.644073 372.145309 
L 603.734355 370.237299 
L 605.369787 365.876153 
L 605.914928 362.060148 
L 605.914928 358.244144 
L 606.187507 353.88299 
L 606.187507 351.429846 
L 605.097216 347.613842 
L 604.006925 345.16069 
L 606.187507 348.976694 
L 607.005218 353.337849 
L 607.005218 357.698994 
L 606.187507 364.240721 
L 605.369787 372.145309 
L 605.369787 374.871023 
L 606.732648 379.504748 
L 609.730941 382.230462 
L 615.182377 383.048182 
L 619.816093 382.775611 
L 622.541816 386.591616 
L 626.08525 391.225332 
L 632.081827 397.221918 
L 638.623554 398.85735 
L 644.620132 396.949348 
L 648.163574 393.405913 
L 652.52472 383.593323 
L 653.887581 379.777319 
L 655.250442 375.143594 
L 656.068154 370.509878 
L 657.431015 365.603582 
L 657.703585 361.242428 
L 657.758793 356.646899 
L 657.489084 351.696495 
L 655.308503 347.335349 
L 653.4005 343.246765 
L 650.674786 339.430761 
L 647.949064 336.977617 
L 644.40563 336.432468 
L 640.862196 336.977617 
L 635.955901 336.705038 
L 627.77875 336.705038 
L 621.782165 336.977617 
L 616.058158 335.887327 
L 612.242153 334.251895 
L 607.335858 333.161604 
L 599.158699 333.434183 
L 591.25412 333.979324 
L 586.892965 332.889034 
L 582.259249 332.071322 
L 577.898095 331.526173 
L 573.80952 331.253602 
L 570.538656 332.343893 
L 567.267793 333.706754 
L 564.81465 332.343893 
L 561.816357 330.981032 
L 560.180925 329.890749 
L 566.722652 327.982739 
L 570.538656 326.619886 
L 575.990093 325.257025 
L 581.168959 325.802166 
L 585.257534 326.619886 
L 589.618688 326.074736 
L 590.4364 323.894163 
L 586.075254 318.987868 
L 592.344402 324.439305 
L 595.615265 326.074736 
L 600.52156 328.800459 
L 606.245567 330.16332 
L 620.419304 332.343893 
L 628.323892 332.889034 
L 638.409053 332.616463 
L 645.22335 331.526173 
L 649.039355 328.527888 
L 653.673071 324.711883 
L 657.216505 320.350729 
L 658.851937 315.989584 
L 659.669657 311.355859 
L 659.397086 305.904423 
L 658.306796 299.907837 
L 656.943934 295.546691 
L 655.035932 292.548398 
L 652.037639 289.550114 
L 649.584496 289.550114 
L 647.403923 291.458116 
L 644.950771 296.091832 
L 639.499335 302.088418 
L 635.955901 302.633559 
L 632.139896 302.633559 
L 626.415889 302.360989 
L 631.867326 301.543269 
L 636.228471 301.543269 
L 638.954194 300.180416 
L 641.134767 297.182123 
L 643.587918 294.728979 
L 646.313632 291.730687 
L 648.766784 288.459823 
L 649.584496 285.18896 
L 649.584496 282.463246 
L 648.494205 279.192382 
L 644.678201 275.648948 
L 641.134767 272.923226 
L 637.591333 269.652362 
L 634.047899 267.74436 
L 626.68846 264.473497 
L 623.417596 264.473497 
L 621.237024 267.199219 
L 619.874162 270.470082 
L 619.056451 274.286087 
L 618.511301 278.102092 
L 615.785587 281.100384 
L 613.059865 285.18896 
L 609.516431 288.732394 
L 606.790717 292.003257 
L 604.610136 293.911259 
L 607.063287 290.095255 
L 611.151863 285.734101 
L 614.422726 281.918096 
L 616.603299 278.647233 
L 618.238731 275.921519 
L 618.511301 272.650655 
L 619.056451 269.652362 
L 620.691882 267.199219 
L 622.327314 264.200926 
L 622.054735 261.475212 
L 620.419304 258.74949 
L 616.875869 256.296346 
L 612.514724 252.480333 
L 608.426149 249.754619 
L 605.427856 247.574046 
L 603.247283 247.574046 
L 599.976419 249.754619 
L 598.613558 254.115765 
L 596.705556 258.204349 
L 595.615265 262.292924 
L 593.707263 266.381499 
L 592.071831 271.015224 
L 589.891258 274.286087 
L 589.346117 278.102092 
L 587.165544 280.827814 
L 584.712393 283.008387 
L 581.7141 286.00668 
L 578.443245 289.004964 
L 582.259249 283.826098 
L 585.257534 280.827814 
L 587.438115 278.374662 
L 589.073547 275.376369 
L 590.4364 271.560365 
L 592.071831 268.289501 
L 592.616981 265.018646 
L 592.616981 263.383214 
L 594.252412 262.020353 
L 595.615265 259.567201 
L 596.432985 256.841487 
L 597.523268 254.388344 
L 598.613558 250.572331 
L 600.52156 247.846617 
L 600.52156 244.848324 
L 598.340988 241.30489 
L 594.797554 238.034027 
L 590.708978 235.035742 
L 587.165544 233.127731 
L 583.894681 231.764879 
L 580.351247 231.764879 
L 577.898095 233.127731 
L 576.535234 236.126024 
L 574.354661 238.579176 
L 574.899811 242.395181 
L 575.990093 244.303183 
L 573.536949 243.212892 
L 570.538656 243.485463 
L 568.358084 244.303183 
L 566.722652 245.938615 
L 565.904932 249.482049 
L 565.632361 253.570624 
L 566.450081 257.114058 
L 568.358084 260.384921 
L 565.904932 257.931778 
L 563.99693 258.74949 
L 562.634077 260.112351 
L 561.543786 262.292924 
L 559.908354 265.291217 
L 559.090643 268.289501 
L 557.182632 269.652362 
L 555.5472 272.650655 
L 553.366627 275.921519 
L 556.09235 270.197512 
L 558.272923 266.654078 
L 562.361498 257.931778 
L 564.81465 256.023767 
L 565.632361 246.756326 
L 566.450081 244.303183 
L 566.450081 241.30489 
L 564.2695 238.579176 
L 568.630654 242.12261 
L 571.356376 241.577461 
L 573.264379 239.942029 
L 574.627232 237.216315 
L 576.535234 233.672881 
L 578.170666 231.219729 
L 577.898095 227.676295 
L 575.549245 224.155978 
L 565.464084 215.706248 
L 561.375501 212.707955 
L 557.559496 211.345094 
L 555.106353 211.345094 
L 552.653201 215.706248 
L 551.290348 217.886821 
L 549.382346 220.612543 
L 546.929194 222.793116 
L 544.748621 224.973689 
L 543.658331 227.426841 
L 543.11319 230.152555 
L 543.38576 233.150848 
L 547.201765 240.237716 
L 544.20348 235.876562 
L 542.022899 233.423418 
L 539.297185 233.150848 
L 536.298892 234.513709 
L 533.573178 236.966853 
L 532.482888 240.237716 
L 531.665176 243.78115 
L 531.665176 247.052013 
L 532.210317 250.322877 
L 535.48118 257.682316 
L 532.755458 252.77602 
L 530.574885 249.777727 
L 528.121742 248.960016 
L 525.941161 250.322877 
L 524.305729 252.77602 
L 522.942876 256.592025 
L 524.033158 251.68573 
L 525.941161 248.960016 
L 528.121742 247.324584 
L 530.029744 247.052013 
L 530.847456 244.871441 
L 532.755458 235.603991 
L 532.755458 233.150848 
L 535.48118 233.150848 
L 538.752044 232.605707 
L 540.932617 230.425126 
L 541.750329 228.789694 
L 543.38576 223.338258 
L 543.11319 221.157685 
L 546.111483 220.612543 
L 549.382346 217.34168 
L 552.380631 214.615958 
L 554.016062 211.617673 
L 554.288633 208.074239 
L 550.745199 204.803376 
L 544.748621 199.89708 
L 541.205187 197.989078 
L 538.206894 196.081076 
L 535.753751 195.808505 
L 534.118319 198.80679 
L 533.300599 201.805083 
L 532.755458 198.80679 
L 533.573178 196.898788 
L 533.300599 194.718215 
L 530.847456 192.537642 
L 524.033158 187.903917 
L 519.944583 186.268485 
L 516.94629 184.905624 
L 510.131993 185.723344 
L 508.769132 187.903917 
L 507.678849 191.992492 
L 507.406279 195.263356 
L 509.859422 199.07936 
L 514.220576 202.895373 
L 517.491431 206.438807 
L 519.399442 210.799953 
L 520.217154 216.251389 
L 519.672013 213.798246 
L 518.309151 209.709671 
L 516.67372 206.438807 
L 514.732614 204.246091 
L 512.0069 201.520369 
L 508.463466 198.794655 
L 506.555456 196.614074 
L 504.102312 195.251221 
L 500.013737 195.251221 
L 496.742874 196.068933 
L 494.562301 197.704365 
L 495.107442 201.520369 
L 495.107442 206.154094 
L 495.925154 209.424957 
L 497.288015 212.150671 
L 499.741167 216.511825 
L 503.284601 218.964969 
L 506.010315 223.326123 
L 508.463466 226.324407 
L 508.463466 229.867841 
L 508.190888 232.048423 
L 507.373176 229.05013 
L 507.373176 226.869557 
L 506.010315 223.871264 
L 503.829742 221.690691 
L 501.921739 218.419828 
L 499.468588 217.056966 
L 497.015444 215.148964 
L 494.834871 213.240962 
L 492.654299 212.968391 
L 489.383435 214.058674 
L 485.022281 215.694105 
L 482.296567 216.511825 
L 480.115986 217.602108 
L 480.388565 221.145542 
L 483.65942 225.779266 
L 488.838286 232.048423 
L 492.109149 237.227288 
L 495.380013 242.951295 
L 498.378305 246.494729 
L 496.493411 246.79633 
L 493.767697 245.978619 
L 490.224263 245.706048 
L 494.85798 245.160899 
L 494.040268 242.435185 
L 489.679114 235.075746 
L 486.680829 231.259741 
L 484.500248 228.261448 
L 480.411673 223.627724 
L 477.958529 220.629431 
L 475.232807 218.176287 
L 470.871661 216.268285 
L 464.875076 213.815142 
L 458.878498 211.634561 
L 452.881912 209.726558 
L 446.067615 207.818556 
L 437.345315 206.183124 
L 427.805304 204.820263 
L 418.265292 204.002551 
L 410.088133 203.18484 
L 403.001265 202.912261 
L 393.733824 202.912261 
L 382.961282 203.103372 
L 369.329759 204.466515 
L 356.791454 206.101947 
L 331.169696 208.827669 
L 311.544523 212.098524 
L 305.275367 214.279106 
L 303.367365 218.09511 
L 299.55136 224.364258 
L 294.645065 231.451126 
L 290.283919 238.265424 
L 290.283919 238.265424 
" style="fill:none;stroke:#000000;stroke-linecap:square;stroke-width:1.5;"/>
   </g>
   <g id="line2d_2">
    <path clip-path="url(#p75fc9d22ac)" d="M 447.526865 246.100845 
L 451.820428 246.100845 
L 444.378261 246.959556 
L 438.653516 248.390738 
L 433.215011 249.249449 
L 428.921448 252.398061 
L 425.772844 255.260434 
L 421.76552 258.695277 
L 416.899495 260.985179 
L 412.319692 262.98884 
L 407.167426 264.133783 
L 402.301392 264.706262 
L 382.837264 266.137444 
L 380.547371 266.137444 
L 375.108865 266.423684 
L 368.239169 266.137444 
L 357.075919 265.278734 
L 349.061281 263.275072 
L 340.474163 260.412699 
L 332.745765 256.691616 
L 327.02102 252.684301 
L 322.154985 249.535689 
L 317.575191 248.390738 
L 312.136686 247.818267 
L 324.731118 247.245796 
L 335.608137 244.955894 
L 343.336536 243.810943 
L 353.927315 242.093522 
L 367.666698 240.3761 
L 377.684998 240.08986 
L 387.130827 240.08986 
L 396.290416 240.948571 
L 406.308715 241.52105 
L 416.040775 243.524712 
L 425.772844 246.100845 
L 432.3563 247.532027 
L 438.367276 247.245796 
L 447.526865 246.100845 
L 447.526865 246.100845 
" style="fill:none;stroke:#000000;stroke-linecap:square;stroke-width:1.5;"/>
   </g>
   <g id="line2d_3">
    <path clip-path="url(#p75fc9d22ac)" d="M 605.613484 383.582856 
L 604.265346 387.627271 
L 601.569069 393.244521 
L 600.445617 396.839563 
L 601.569069 398.861771 
L 606.287554 399.086458 
L 611.455429 400.883979 
L 617.522053 402.456813 
L 623.813372 402.6815 
L 632.351594 402.6815 
L 634.149115 401.333361 
L 631.677525 398.412388 
L 629.205935 395.716111 
L 626.060275 392.121069 
L 623.363998 388.526036 
L 620.443026 384.930994 
L 618.420818 383.807543 
L 613.92702 384.03223 
L 609.657908 383.582856 
L 606.736936 382.010022 
L 605.613484 383.582856 
" style="fill:none;stroke:#000000;stroke-linecap:square;stroke-width:1.5;"/>
   </g>
   <g id="line2d_4">
    <path clip-path="url(#p75fc9d22ac)" d="M 566.292737 412.118478 
L 571.685299 409.422201 
L 573.932202 406.051854 
L 577.302549 402.906195 
L 579.774139 401.782743 
L 579.774139 398.637084 
L 579.324757 395.940798 
L 578.201313 393.91859 
L 574.381576 392.121069 
L 571.235917 390.548244 
L 569.438404 390.098862 
L 567.86557 393.019834 
L 565.843363 395.940798 
L 564.270529 398.861771 
L 562.697703 402.00743 
L 561.349564 405.377777 
L 560.4508 408.972819 
L 561.798938 411.444409 
L 563.596459 412.792547 
L 566.292737 412.118478 
" style="fill:none;stroke:#000000;stroke-linecap:square;stroke-width:1.5;"/>
   </g>
   <g id="line2d_5">
    <path clip-path="url(#p75fc9d22ac)" d="M 362.731373 135.334732 
L 372.192388 133.757891 
L 380.864988 133.363684 
L 388.354956 133.757891 
L 395.844923 134.546307 
L 403.729107 135.72894 
L 411.613283 137.699979 
L 417.526419 139.671027 
L 423.833762 141.247859 
L 431.32373 144.401531 
L 438.419498 147.160995 
L 444.332625 149.920459 
L 449.851553 153.074131 
L 456.553105 156.227803 
L 479.023016 168.84249 
L 484.147736 170.41933 
L 489.272456 171.207746 
L 494.791376 172.39037 
L 497.156632 171.601954 
L 495.579791 168.054074 
L 493.608752 164.111986 
L 487.695616 159.381475 
L 478.2346 149.132043 
L 473.898305 145.189955 
L 469.167793 142.036283 
L 462.466241 136.123147 
L 455.370481 130.998428 
L 449.457345 127.844756 
L 443.54421 123.902668 
L 434.083194 119.566372 
L 426.199018 109.711149 
L 421.862714 104.586429 
L 417.132211 99.461709 
L 412.007491 95.125413 
L 405.700147 91.183325 
L 400.575435 89.606485 
L 390.325995 88.818069 
L 384.412868 88.029653 
L 376.922892 88.029653 
L 372.980804 89.606485 
L 368.250301 90.000693 
L 361.942957 90.000693 
L 357.123205 91.488294 
L 349.499358 96.218797 
L 342.232501 98.279085 
L 337.10779 103.009589 
L 332.377278 106.951685 
L 329.617814 110.893772 
L 323.31047 114.83586 
L 318.579966 120.354788 
L 313.849454 123.902668 
L 307.936327 130.998428 
L 294.533215 142.824699 
L 288.225871 149.132043 
L 283.10116 155.833595 
L 279.159072 160.564107 
L 276.399608 166.477234 
L 277.97644 170.813538 
L 281.130112 170.025114 
L 286.649039 166.871442 
L 292.167967 164.506194 
L 299.263727 160.958315 
L 310.301574 155.045179 
L 315.820502 152.679923 
L 299.657935 162.535146 
L 293.744799 165.29461 
L 287.437455 167.265658 
L 279.159072 172.39037 
L 276.399608 174.361418 
L 274.034352 176.726674 
L 272.063304 181.457178 
L 271.669096 185.005058 
L 274.822768 187.370314 
L 279.159072 188.947145 
L 283.10116 188.947145 
L 288.620088 185.793473 
L 296.898471 181.851386 
L 292.562175 184.216642 
L 287.437455 188.158729 
L 284.677991 190.918193 
L 283.495368 195.254489 
L 283.10116 199.590793 
L 283.10116 204.715505 
L 285.466416 207.869177 
L 289.408503 208.263385 
L 294.139007 209.051809 
L 297.292679 209.840225 
L 299.657935 211.417056 
L 304.388447 211.811273 
L 311.089999 211.022849 
L 320.156798 209.446017 
L 328.829398 208.263385 
L 347.751429 205.898137 
L 358.395069 204.715505 
L 367.856084 203.532881 
L 379.288148 201.956041 
L 391.508628 201.561833 
L 402.940683 201.956041 
L 413.190123 201.956041 
L 421.074298 203.138673 
L 430.141106 204.321297 
L 439.602122 205.898137 
L 446.697881 207.474969 
L 454.976273 209.446017 
L 462.466241 212.205481 
L 468.773585 214.964945 
L 475.475136 216.935984 
L 479.417224 216.147568 
L 486.512992 214.17652 
L 491.637704 212.599689 
L 494.00296 209.840225 
L 494.791376 205.109713 
L 493.608752 198.802377 
L 489.272456 194.466073 
L 482.570896 191.706609 
L 471.533049 187.370314 
L 463.254657 183.822434 
L 454.976273 180.668762 
L 446.697881 177.120882 
L 438.813706 173.96721 
L 428.170058 167.659866 
L 421.074298 164.111986 
L 411.219075 159.381475 
L 404.123315 157.804643 
L 388.354956 156.227803 
L 378.105524 155.833595 
L 368.250301 156.622011 
L 361.548741 157.410435 
L 354.452981 159.381475 
L 346.963013 161.74673 
L 340.655669 164.506194 
L 332.771486 166.871442 
L 325.675726 170.025114 
L 319.76259 172.39037 
L 306.753695 176.726674 
L 321.733638 169.236698 
L 328.040982 166.477234 
L 333.954118 164.900402 
L 342.232501 161.74673 
L 351.693517 158.593059 
L 361.548741 155.833595 
L 371.009756 154.650971 
L 385.595492 154.650971 
L 394.268091 155.045179 
L 404.911731 156.227803 
L 411.219075 157.804643 
L 417.132211 160.564107 
L 422.651138 163.71777 
L 430.141106 166.871442 
L 436.842658 170.813538 
L 450.245761 177.120882 
L 458.129945 180.274554 
L 466.408329 183.034018 
L 472.715672 185.793473 
L 478.628808 188.947145 
L 485.724568 191.706609 
L 492.031912 194.860281 
L 499.12768 194.466073 
L 504.646599 193.677657 
L 507.800271 189.73557 
L 508.588695 184.61085 
L 505.435023 179.48613 
L 499.916095 174.361418 
L 484.541944 171.601954 
L 475.080928 167.265658 
L 462.072033 160.564107 
L 447.880514 152.679923 
L 433.294778 145.978371 
L 421.862714 142.036283 
L 408.459611 138.094187 
L 398.604387 135.72894 
L 385.9897 134.152099 
L 374.557644 134.546307 
L 362.731373 135.334732 
L 362.731373 135.334732 
" style="fill:none;stroke:#000000;stroke-linecap:square;stroke-width:1.5;"/>
   </g>
   <g id="line2d_6">
    <path clip-path="url(#p75fc9d22ac)" d="M 323.491097 249.771556 
L 329.215842 252.92016 
L 336.658009 257.499955 
L 345.531358 260.934807 
L 354.118476 263.51094 
L 365.567966 264.369651 
L 376.731217 265.514601 
L 390.18436 264.369651 
L 400.4889 263.797179 
L 410.5072 262.365989 
L 417.663127 260.076096 
L 421.67045 257.499955 
L 425.677773 254.351351 
L 429.685088 250.630267 
L 432.261221 248.912846 
L 423.674112 247.195415 
L 417.090656 245.191762 
L 411.365911 243.47434 
L 404.782454 242.615621 
L 397.054056 241.75691 
L 387.321988 240.898199 
L 378.73487 241.184439 
L 369.00281 241.470679 
L 357.839559 242.615621 
L 348.107499 244.333051 
L 337.23048 245.764233 
L 329.215842 247.195415 
L 323.491097 249.771556 
" style="fill:none;stroke:#000000;stroke-linecap:square;stroke-width:1.5;"/>
   </g>
   <g id="line2d_7">
    <path clip-path="url(#p75fc9d22ac)" d="M 365.586877 336.341536 
L 372.106707 334.47873 
L 378.936996 333.236859 
L 384.835882 333.236859 
L 390.113833 333.236859 
L 396.633663 336.031069 
L 405.01629 340.998552 
L 411.846579 342.240422 
L 417.435006 339.756681 
L 422.092021 336.031069 
L 425.196698 331.99498 
L 423.023424 328.269368 
L 419.60828 324.543756 
L 415.5722 322.991418 
L 410.294241 322.991418 
L 402.532549 323.301885 
L 398.496469 324.233288 
L 392.597583 324.543756 
L 383.283544 324.854224 
L 376.142787 324.543756 
L 369.002022 325.785627 
L 364.034539 324.854224 
L 359.687991 324.233288 
L 354.099573 326.406562 
L 349.753017 330.132174 
L 348.511146 333.236859 
L 354.720508 336.652004 
L 358.756588 338.51481 
L 365.586877 336.341536 
" style="fill:none;stroke:#000000;stroke-linecap:square;stroke-width:1.5;"/>
   </g>
   <g id="line2d_8">
    <path clip-path="url(#p75fc9d22ac)" d="M 392.597583 322.991418 
L 400.98021 322.68095 
L 410.294241 321.749547 
L 417.435006 321.128611 
L 418.055941 318.64487 
L 412.157047 316.471596 
L 406.568629 314.298322 
L 400.98021 312.745984 
L 391.666171 311.814581 
L 383.904479 312.435516 
L 376.453255 313.677387 
L 371.485772 313.987855 
L 366.51828 314.919258 
L 362.792668 317.092532 
L 362.482201 320.197208 
L 365.897345 322.370482 
L 372.106707 323.301885 
L 379.247464 323.301885 
L 383.904479 322.991418 
L 392.597583 322.991418 
" style="fill:none;stroke:#000000;stroke-linecap:square;stroke-width:1.5;"/>
   </g>
   <g id="line2d_9">
    <path clip-path="url(#p75fc9d22ac)" d="M 387.009156 371.734861 
L 394.770857 372.97674 
L 399.73834 369.561587 
L 400.048807 364.283636 
L 400.98021 359.937089 
L 399.427872 356.521944 
L 396.94413 353.1068 
L 394.149921 349.381179 
L 389.18243 348.139308 
L 382.973076 347.518373 
L 377.384658 346.897438 
L 373.03811 348.139308 
L 369.622957 348.760244 
L 364.034539 349.070712 
L 360.308927 349.070712 
L 357.20425 349.381179 
L 356.272847 354.34867 
L 358.756588 359.316153 
L 362.792668 363.352233 
L 369.933425 368.319716 
L 376.763722 370.49299 
L 381.420738 372.045329 
L 387.009156 371.734861 
" style="fill:none;stroke:#000000;stroke-linecap:square;stroke-width:1.5;"/>
   </g>
   <g id="line2d_10">
    <path clip-path="url(#p75fc9d22ac)" d="M 204.321264 419.346376 
L 208.430931 421.81172 
L 212.749129 419.934241 
L 217.630574 416.742531 
L 221.385524 414.114061 
L 223.638498 411.485599 
L 226.079217 408.293889 
L 226.642464 405.289922 
L 226.266969 402.661452 
L 225.328225 400.408486 
L 223.450746 399.094246 
L 221.010028 399.281998 
L 217.818318 400.220734 
L 215.002104 402.098212 
L 213.312377 404.351187 
L 211.247146 406.979649 
L 208.994179 408.669384 
L 205.802469 410.734607 
L 202.798503 412.048838 
L 201.29652 412.987582 
L 201.672016 415.616044 
L 204.321264 419.346376 
" style="fill:none;stroke:#000000;stroke-linecap:square;stroke-width:1.5;"/>
   </g>
   <g id="line2d_11">
    <path clip-path="url(#p75fc9d22ac)" d="M 158.377943 410.20311 
L 158.565695 406.635905 
L 158.565695 402.693203 
L 158.753439 399.313749 
L 159.504431 396.309783 
L 161.569662 393.493569 
L 164.198124 390.301859 
L 166.075603 387.485644 
L 167.20209 385.044918 
L 167.76533 382.604199 
L 168.704073 379.224746 
L 170.3938 375.469788 
L 171.332535 372.653574 
L 173.773262 371.15159 
L 175.275237 367.396641 
L 174.336502 364.580418 
L 171.520287 363.078444 
L 167.953082 361.951956 
L 164.57362 362.1397 
L 161.38191 362.327452 
L 158.1902 363.266187 
L 155.561729 364.580418 
L 153.121011 365.519162 
L 150.117053 366.082401 
L 147.488582 366.457897 
L 144.860112 366.833393 
L 142.419393 367.021145 
L 138.28894 367.584385 
L 135.09723 367.772128 
L 132.281016 368.147624 
L 130.028041 369.086368 
L 127.775074 370.400599 
L 126.273091 372.090326 
L 124.95886 373.967805 
L 123.832373 376.596275 
L 122.893629 379.600241 
L 122.33039 382.416456 
L 122.33039 385.23267 
L 122.893629 388.42438 
L 124.771108 392.742577 
L 126.648587 397.060775 
L 130.403537 402.505459 
L 135.09723 406.823657 
L 138.476692 409.827615 
L 142.794889 412.643829 
L 147.676326 414.145812 
L 151.994523 414.521308 
L 155.749481 413.39482 
L 157.814704 412.080589 
L 158.377943 410.20311 
" style="fill:none;stroke:#000000;stroke-linecap:square;stroke-width:1.5;"/>
   </g>
  </g>
 </g>
 <defs>
  <clipPath id="p75fc9d22ac">
   <rect height="669.6" width="829.44" x="0" y="0"/>
  </clipPath>
 </defs>
</svg>
