<?xml version="1.0" encoding="utf-8" standalone="no"?>
<!DOCTYPE svg PUBLIC "-//W3C//DTD SVG 1.1//EN"
  "http://www.w3.org/Graphics/SVG/1.1/DTD/svg11.dtd">
<!-- Created with matplotlib (https://matplotlib.org/) -->
<svg height="1895.76pt" version="1.1" viewBox="0 0 2313.36 1895.76" width="2313.36pt" xmlns="http://www.w3.org/2000/svg" xmlns:xlink="http://www.w3.org/1999/xlink">
 <defs>
  <style type="text/css">
*{stroke-linecap:butt;stroke-linejoin:round;}
  </style>
 </defs>
 <g id="figure_1">
  <g><image xlink:href="../../img/cb/rm316-nissl.json.cb-50%25.png" width="2313.36px" height="1895.76px"/></g>

  <g id="patch_1">
   <path d="M 0 1895.76 
L 2313.36 1895.76 
L 2313.36 0 
L 0 0 
z
" style="fill:none;"/>
  </g>
  <g id="axes_1">
   <g id="line2d_1">
    <path clip-path="url(#pf51ca319f7)" d="M 586.600777 1519.197924 
L 584.290147 1513.180273 
L 590.115465 1521.653463 
L 592.233739 1528.008333 
L 595.411186 1549.720836 
L 599.118206 1555.016556 
L 603.884352 1558.723577 
L 612.357519 1565.078446 
L 621.889835 1571.433315 
L 631.951725 1578.847333 
L 642.013615 1582.02478 
L 652.075505 1588.909223 
L 664.255692 1592.08667 
L 672.199284 1592.616244 
L 675.906282 1587.850075 
L 676.435856 1579.906482 
L 673.258433 1564.019297 
L 671.140136 1554.486982 
L 666.373966 1545.484241 
L 661.60782 1535.951925 
L 656.841651 1526.949184 
L 651.54593 1519.005591 
L 646.779761 1512.121148 
L 642.543189 1504.707107 
L 637.247445 1496.23394 
L 630.892576 1488.290347 
L 626.656004 1481.935478 
L 622.948984 1476.639734 
L 617.653263 1468.696142 
L 611.827945 1458.634252 
L 606.00265 1449.631511 
L 620.830686 1469.225716 
L 629.303853 1479.287606 
L 636.717871 1488.819922 
L 642.543189 1499.411386 
L 650.486781 1511.061999 
L 657.9008 1523.242163 
L 665.314818 1534.363202 
L 670.080987 1544.425092 
L 674.317559 1555.016556 
L 680.142877 1568.255892 
L 681.7316 1578.847333 
L 681.7316 1587.850075 
L 687.556895 1596.852816 
L 698.148359 1603.207708 
L 708.210249 1607.44428 
L 718.801713 1608.503429 
L 726.215731 1606.385131 
L 730.981878 1599.500688 
L 734.688898 1591.557095 
L 734.688898 1585.202226 
L 731.511452 1575.66991 
L 729.922729 1566.137595 
L 728.863603 1558.194002 
L 727.804455 1541.77722 
L 726.215731 1533.304053 
L 723.038285 1525.890035 
L 717.742565 1518.476017 
L 714.565118 1511.061999 
L 711.387672 1504.177532 
L 706.621526 1489.87907 
L 705.032803 1481.405904 
L 705.562377 1471.873588 
L 706.621526 1464.45957 
L 702.384931 1459.693401 
L 694.970913 1453.868106 
L 687.556895 1446.454088 
L 679.613302 1441.158344 
L 673.258433 1432.685177 
L 665.314818 1428.448605 
L 658.959948 1422.093713 
L 654.193802 1418.386715 
L 646.779761 1416.268418 
L 640.424892 1415.209269 
L 634.070022 1412.561397 
L 651.016356 1414.15012 
L 655.252951 1413.090972 
L 662.666969 1398.262936 
L 660.548671 1408.324826 
L 663.196543 1416.268418 
L 667.433115 1419.975415 
L 679.083728 1432.155603 
L 690.734341 1442.217493 
L 703.44408 1451.220234 
L 709.798972 1454.927255 
L 716.153842 1454.927255 
L 726.215731 1453.338531 
L 746.869086 1447.513236 
L 753.223955 1444.33579 
L 754.283104 1439.569621 
L 752.694381 1431.626028 
L 750.576083 1425.271159 
L 747.928234 1419.445864 
L 743.691639 1410.972674 
L 739.984619 1405.676954 
L 734.688898 1399.851659 
L 727.804455 1395.615064 
L 723.038285 1390.848918 
L 721.855719 1389.272154 
L 723.2956 1390.319343 
L 731.239193 1395.615064 
L 739.71236 1400.381233 
L 743.41938 1405.676954 
L 747.126401 1415.209269 
L 750.833398 1422.623287 
L 754.010844 1430.037305 
L 756.129142 1437.451347 
L 759.306565 1443.276641 
L 763.013586 1448.042788 
L 768.838881 1454.39768 
L 778.371196 1462.870847 
L 764.072734 1452.279383 
L 759.306565 1450.161085 
L 751.892547 1451.220234 
L 746.067252 1452.808957 
L 736.534936 1453.868106 
L 730.709618 1454.927255 
L 719.059028 1456.515978 
L 713.23371 1456.515978 
L 710.585862 1459.693401 
L 711.644987 1466.577844 
L 715.881582 1491.997368 
L 719.059028 1500.470535 
L 723.825175 1507.884553 
L 730.709618 1515.828145 
L 738.12366 1523.242163 
L 743.41938 1523.771738 
L 750.833398 1521.653463 
L 757.188291 1517.946443 
L 767.779732 1512.121148 
L 752.951696 1521.653463 
L 746.067252 1525.360461 
L 741.830657 1528.537907 
L 740.241934 1533.304053 
L 740.771508 1542.836369 
L 741.301083 1555.546131 
L 743.41938 1572.492464 
L 746.067252 1585.202226 
L 749.244675 1590.497947 
L 758.247416 1598.441539 
L 769.368455 1601.089411 
L 782.078217 1601.089411 
L 794.787978 1597.38239 
L 804.849845 1592.616244 
L 812.793461 1586.790949 
L 818.618756 1580.436057 
L 822.325776 1573.551613 
L 825.503199 1567.196744 
L 826.562348 1562.430574 
L 826.032774 1555.016556 
L 823.384902 1544.425092 
L 819.677904 1527.478758 
L 817.030033 1521.123889 
L 815.44131 1515.298571 
L 813.323035 1510.532425 
L 811.204738 1499.94096 
L 817.030033 1513.709848 
L 819.677904 1523.242163 
L 822.855351 1533.833628 
L 824.444051 1541.247646 
L 826.032774 1550.250387 
L 828.680646 1558.723577 
L 830.798943 1566.137595 
L 837.153812 1569.315018 
L 848.804426 1568.255892 
L 856.748018 1565.078446 
L 862.043739 1559.782702 
L 869.457757 1557.134854 
L 875.283075 1550.779961 
L 881.10837 1532.244904 
L 883.226667 1524.301312 
L 887.463262 1519.005591 
L 894.87728 1506.29583 
L 897.525129 1499.94096 
L 902.291298 1491.467794 
L 905.468744 1483.524201 
L 905.468744 1476.639734 
L 903.350447 1469.755291 
L 901.232149 1463.400421 
L 900.173001 1458.104678 
L 897.525129 1453.338531 
L 892.229408 1451.220234 
L 881.637944 1450.161085 
L 869.987331 1452.279383 
L 866.280333 1453.868106 
L 853.570572 1462.870847 
L 866.280333 1450.69066 
L 868.928205 1442.747067 
L 870.516905 1436.392198 
L 870.516905 1430.56688 
L 871.576054 1416.797992 
L 871.04648 1410.443123 
L 869.457757 1407.795251 
L 866.809908 1404.617805 
L 862.573313 1402.499507 
L 858.866315 1401.440359 
L 853.570572 1402.499507 
L 849.863574 1405.147379 
L 844.567831 1407.795251 
L 838.742536 1410.972674 
L 835.035515 1415.209269 
L 829.21022 1418.91629 
L 821.796202 1425.271159 
L 833.976366 1413.090972 
L 847.215702 1404.088231 
L 855.688869 1397.203787 
L 861.514164 1390.319343 
L 861.514164 1385.553174 
L 859.925464 1380.257453 
L 855.688869 1374.96171 
L 849.863574 1372.313861 
L 843.508682 1370.195563 
L 837.683387 1369.136415 
L 852.511423 1370.725138 
L 858.866315 1374.96171 
L 864.69161 1380.257453 
L 868.398631 1381.846176 
L 875.812649 1372.843435 
L 870.516905 1385.023599 
L 875.283075 1388.73062 
L 874.223926 1394.026341 
L 876.342223 1398.262936 
L 898.584278 1391.908043 
L 878.460521 1399.322084 
L 875.812649 1404.088231 
L 874.223926 1410.972674 
L 874.223926 1418.91629 
L 873.164777 1426.859882 
L 873.164777 1436.392198 
L 874.223926 1441.687918 
L 881.10837 1445.924513 
L 891.699834 1447.513236 
L 900.173001 1446.983662 
L 905.998319 1443.806216 
L 913.412337 1437.980921 
L 923.474227 1430.56688 
L 909.705316 1442.747067 
L 902.291298 1449.101936 
L 902.291298 1455.456829 
L 908.116593 1466.577844 
L 913.412337 1475.580609 
L 921.355929 1475.580609 
L 931.947394 1469.755291 
L 939.890986 1463.400421 
L 948.893727 1461.282124 
L 958.955617 1460.222975 
L 970.076656 1457.045529 
L 983.737602 1455.579599 
L 998.096581 1451.862214 
L 1009.747194 1444.977771 
L 1028.282251 1430.679309 
L 1036.225843 1421.676568 
L 1044.69901 1411.614678 
L 1047.876456 1401.552788 
L 1052.113028 1390.961324 
L 1055.290474 1380.899434 
L 1054.7609 1372.955841 
L 1054.86898 1364.617127 
L 1053.814181 1352.382414 
L 1051.695883 1342.850098 
L 1043.752291 1333.847357 
L 1037.926973 1325.37419 
L 1031.572103 1320.608021 
L 1026.276383 1312.134854 
L 1023.628511 1307.368708 
L 1020.980639 1298.895541 
L 1015.684918 1293.599797 
L 1008.800451 1288.833651 
L 1001.916008 1287.774502 
L 998.738562 1283.008333 
L 1002.445582 1278.242187 
L 1007.741303 1276.653464 
L 1014.096195 1277.183038 
L 1022.039788 1278.242187 
L 1023.975168 1278.642606 
L 1026.995838 1280.241786 
L 1037.514547 1287.254251 
L 1041.020791 1291.461744 
L 1045.228284 1300.577978 
L 1046.630758 1308.291692 
L 1054.344495 1320.914148 
L 1064.863204 1327.225387 
L 1079.589406 1327.926636 
L 1100.626848 1322.316645 
L 1118.859294 1320.914148 
L 1139.896735 1318.109176 
L 1158.83043 1315.30418 
L 1179.867848 1311.797936 
L 1197.399046 1309.69419 
L 1209.320275 1308.992941 
L 1225.448975 1310.395439 
L 1237.370182 1313.901683 
L 1246.486393 1319.511673 
L 1249.291389 1325.121641 
L 1249.596012 1324.817041 
L 1249.552336 1325.77771 
L 1260.168206 1321.133246 
L 1265.476164 1314.498321 
L 1267.466625 1309.853881 
L 1273.438078 1306.536407 
L 1275.42854 1301.228472 
L 1277.419024 1294.593547 
L 1284.717443 1289.949084 
L 1289.361907 1289.949084 
L 1294.006347 1293.266558 
L 1292.679358 1299.901482 
L 1287.371423 1304.545923 
L 1282.063464 1310.517376 
L 1276.092034 1316.488806 
L 1272.111089 1321.796741 
L 1268.793615 1327.104699 
L 1262.822185 1333.076129 
L 1260.831701 1337.720569 
L 1262.15869 1341.701538 
L 1272.111089 1345.018989 
L 1285.380938 1350.326947 
L 1299.977777 1358.288861 
L 1311.257165 1364.923786 
L 1317.89209 1371.558711 
L 1324.527015 1376.866646 
L 1312.584155 1370.231721 
L 1303.295251 1363.596796 
L 1294.006347 1357.625367 
L 1285.380938 1353.644398 
L 1277.419024 1348.999958 
L 1268.13012 1346.345978 
L 1260.831701 1345.018989 
L 1256.850755 1346.345978 
L 1252.206292 1354.971387 
L 1250.879302 1361.606312 
L 1250.879302 1369.568226 
L 1252.206292 1376.866646 
L 1254.196776 1384.82856 
L 1258.177745 1392.12698 
L 1264.149175 1403.406368 
L 1271.447594 1408.050808 
L 1283.390454 1412.031777 
L 1291.352368 1415.349227 
L 1299.314282 1429.946066 
L 1303.295251 1436.581014 
L 1313.911121 1441.888949 
L 1322.53653 1443.215939 
L 1331.161939 1445.2064 
L 1345.095283 1454.495304 
L 1353.720692 1458.476273 
L 1365.000081 1467.765176 
L 1373.62549 1473.073112 
L 1382.914393 1483.02551 
L 1388.885823 1482.362015 
L 1391.539779 1475.063596 
L 1394.193758 1466.438187 
L 1398.174727 1460.466734 
L 1394.193758 1452.50482 
L 1401.492178 1457.812778 
L 1406.136641 1452.50482 
L 1413.435061 1446.53339 
L 1415.425522 1441.888949 
L 1413.435061 1432.600046 
L 1413.435061 1424.638131 
L 1412.108071 1416.676217 
L 1410.117587 1412.695271 
L 1400.165188 1403.406368 
L 1389.549318 1397.434938 
L 1379.59692 1392.12698 
L 1371.635005 1386.819044 
L 1365.663575 1378.193635 
L 1381.587404 1391.463485 
L 1396.847738 1400.752389 
L 1406.800136 1406.060324 
L 1416.752512 1413.358743 
L 1424.050931 1414.022238 
L 1430.685856 1409.377798 
L 1436.657309 1402.742873 
L 1439.311265 1397.434938 
L 1440.638254 1390.136495 
L 1441.965244 1384.165065 
L 1441.965244 1378.85713 
L 1430.022384 1369.568226 
L 1443.955728 1378.193635 
L 1449.927158 1378.193635 
L 1464.523997 1374.212667 
L 1453.244632 1378.85713 
L 1445.946213 1383.50157 
L 1443.292234 1388.809529 
L 1443.292234 1394.780959 
L 1441.965244 1402.079378 
L 1439.97476 1406.060324 
L 1424.714426 1418.003207 
L 1420.73348 1419.993691 
L 1419.406491 1425.965121 
L 1420.069986 1433.927035 
L 1420.069986 1440.56196 
L 1418.742996 1447.196884 
L 1422.06047 1449.187369 
L 1433.339835 1454.495304 
L 1441.301749 1457.812778 
L 1428.0319 1453.831809 
L 1418.742996 1451.841348 
L 1412.108071 1452.50482 
L 1408.127103 1455.822293 
L 1402.819168 1460.466734 
L 1399.501694 1464.447703 
L 1397.511232 1470.419132 
L 1393.530264 1476.390562 
L 1387.558834 1485.679466 
L 1386.895339 1490.32393 
L 1394.193758 1507.574725 
L 1400.165188 1519.517607 
L 1404.809652 1526.816027 
L 1406.136641 1532.123962 
L 1405.473147 1541.412866 
L 1408.790597 1550.038275 
L 1414.098556 1564.635114 
L 1422.723942 1573.924018 
L 1432.67634 1580.558942 
L 1449.263663 1587.193867 
L 1460.543052 1587.193867 
L 1471.158922 1585.203406 
L 1477.793846 1579.231953 
L 1478.457341 1571.933533 
L 1477.130375 1559.990673 
L 1476.46688 1550.70177 
L 1475.13989 1541.412866 
L 1474.476396 1532.787457 
L 1473.149406 1518.854113 
L 1470.495427 1512.219188 
L 1469.168461 1505.584263 
L 1469.585236 1503.91714 
L 1471.794564 1509.219547 
L 1473.785048 1516.517966 
L 1475.775532 1524.47988 
L 1476.439027 1533.105289 
L 1478.429512 1542.394193 
L 1479.092983 1552.346569 
L 1479.756478 1564.289452 
L 1481.083468 1573.578355 
L 1485.727931 1580.876775 
L 1493.02635 1586.848205 
L 1506.959695 1593.483129 
L 1519.566049 1596.800603 
L 1534.162888 1594.810119 
L 1549.423222 1589.502184 
L 1565.34705 1581.54027 
L 1568.001029 1575.568817 
L 1568.001029 1564.289452 
L 1566.928301 1554.555596 
L 1568.255291 1520.717455 
L 1566.264807 1506.784111 
L 1559.629882 1504.130131 
L 1549.013988 1504.793626 
L 1541.052074 1505.457121 
L 1531.763194 1504.130131 
L 1519.156816 1497.495207 
L 1533.09016 1502.13967 
L 1542.379064 1502.803165 
L 1554.321947 1502.13967 
L 1564.937817 1500.812681 
L 1568.255291 1491.523777 
L 1569.58228 1480.244412 
L 1570.245775 1466.974539 
L 1569.58228 1456.358669 
L 1566.264807 1446.406271 
L 1560.293377 1442.425302 
L 1551.667968 1438.444356 
L 1541.715569 1439.107851 
L 1532.426688 1443.752291 
L 1516.50286 1449.723721 
L 1532.426688 1441.761807 
L 1541.052074 1437.117367 
L 1548.350517 1435.126882 
L 1548.350517 1431.809432 
L 1547.687022 1426.501473 
L 1549.677483 1419.203054 
L 1553.658452 1413.231624 
L 1560.293377 1404.606215 
L 1570.90927 1395.980806 
L 1576.217205 1394.653816 
L 1568.255291 1399.961775 
L 1564.274322 1404.606215 
L 1557.639397 1410.577645 
L 1554.321947 1417.212593 
L 1552.994957 1424.511012 
L 1552.331462 1432.472926 
L 1556.312408 1436.453872 
L 1566.264807 1441.761807 
L 1576.217205 1440.434841 
L 1589.487054 1431.809432 
L 1600.102948 1423.847517 
L 1609.391852 1417.212593 
L 1616.026776 1411.904634 
L 1622.661701 1405.933205 
L 1627.306141 1404.606215 
L 1632.6141 1405.26971 
L 1638.58553 1409.250678 
L 1645.883949 1407.923689 
L 1649.864918 1399.961775 
L 1647.874433 1393.990345 
L 1651.191884 1388.682386 
L 1657.163337 1388.018892 
L 1664.461757 1384.701441 
L 1672.423671 1375.412537 
L 1671.760176 1368.114118 
L 1666.452218 1359.488709 
L 1662.471272 1347.545826 
L 1657.826832 1336.266461 
L 1650.528389 1325.650567 
L 1643.893465 1317.688653 
L 1623.988691 1311.053728 
L 1616.026776 1302.428319 
L 1606.074378 1277.879082 
L 1611.382313 1287.83148 
L 1616.026776 1294.466405 
L 1620.671217 1300.437835 
L 1628.633131 1306.409288 
L 1639.249024 1309.063244 
L 1649.201423 1309.726739 
L 1655.836348 1305.082298 
L 1663.134767 1295.793395 
L 1670.433186 1278.542577 
L 1669.106197 1288.494975 
L 1665.788746 1293.80291 
L 1661.144283 1302.428319 
L 1657.163337 1309.063244 
L 1655.836348 1316.361663 
L 1657.163337 1324.987073 
L 1661.807777 1335.602966 
L 1665.788746 1344.228375 
L 1673.750637 1351.526794 
L 1683.039541 1355.50774 
L 1689.674466 1354.180774 
L 1700.290359 1346.882354 
L 1710.242758 1340.247406 
L 1718.868167 1332.948987 
L 1725.503091 1324.323578 
L 1722.849112 1305.745793 
L 1727.493576 1319.015643 
L 1726.166586 1326.977557 
L 1722.185618 1332.948987 
L 1711.569747 1341.574396 
L 1702.944338 1346.218859 
L 1694.982424 1350.8633 
L 1689.010994 1358.161719 
L 1687.684005 1365.460139 
L 1687.684005 1375.412537 
L 1691.66495 1380.720472 
L 1714.223703 1393.32685 
L 1722.185618 1397.307796 
L 1733.465006 1391.336366 
L 1759.341233 1383.374451 
L 1749.388834 1387.355397 
L 1737.445951 1391.336366 
L 1730.147532 1393.990345 
L 1722.849112 1401.952259 
L 1721.522123 1411.24114 
L 1722.849112 1420.530043 
L 1726.830081 1430.482442 
L 1731.474521 1439.107851 
L 1738.109446 1447.73326 
L 1749.388834 1461.003109 
L 1756.023759 1470.292013 
L 1765.976157 1474.272959 
L 1781.236491 1475.599948 
L 1795.83333 1473.609464 
L 1806.449223 1462.330099 
L 1813.084148 1453.041195 
L 1810.430169 1445.742776 
L 1802.468255 1429.818947 
L 1813.084148 1443.752291 
L 1817.065094 1451.714206 
L 1827.680987 1453.70469 
L 1838.960352 1453.70469 
L 1851.56673 1446.406271 
L 1858.201654 1435.790377 
L 1861.519128 1425.174507 
L 1862.1826 1415.222108 
L 1858.201654 1405.933205 
L 1849.576245 1393.990345 
L 1837.633386 1383.374451 
L 1819.055578 1366.123633 
L 1813.084148 1357.498224 
L 1811.093664 1352.190289 
L 1813.084148 1346.218859 
L 1814.411138 1341.574396 
L 1816.560272 1336.917903 
L 1816.055937 1345.491793 
L 1816.719431 1351.463223 
L 1819.373387 1358.098148 
L 1824.017851 1367.387052 
L 1831.31627 1376.675956 
L 1843.922625 1385.301365 
L 1855.865508 1394.590268 
L 1861.836938 1392.599784 
L 1860.509948 1399.234709 
L 1869.135357 1409.187107 
L 1882.405207 1418.476011 
L 1897.66554 1420.466472 
L 1911.598908 1415.158537 
L 1926.195747 1406.533128 
L 1935.48465 1396.58073 
L 1943.446565 1385.301365 
L 1947.42751 1374.685471 
L 1947.42751 1364.069601 
L 1946.100521 1354.780697 
L 1938.138606 1350.136234 
L 1924.868757 1343.501309 
L 1916.906843 1340.183858 
L 1906.954444 1340.847353 
L 1901.646509 1338.193374 
L 1895.675079 1332.885439 
L 1891.69411 1327.577481 
L 1902.310004 1333.548934 
L 1911.598908 1337.529879 
L 1920.887811 1338.856869 
L 1929.513197 1343.501309 
L 1941.45608 1350.136234 
L 1952.071974 1350.136234 
L 1962.687844 1342.837814 
L 1971.313253 1334.212405 
L 1977.284683 1324.923525 
L 1980.602157 1314.307631 
L 1983.256136 1300.374287 
L 1984.583102 1285.113953 
L 1982.592641 1271.180609 
L 1979.938662 1258.574231 
L 1974.630727 1246.631372 
L 1967.332307 1236.678973 
L 1960.69736 1229.380554 
L 1956.052919 1229.380554 
L 1953.39894 1234.024994 
L 1949.417994 1241.323413 
L 1945.437026 1247.294866 
L 1940.129091 1253.929791 
L 1931.503682 1261.228211 
L 1922.878273 1265.872651 
L 1913.589369 1269.85362 
L 1902.310004 1274.49806 
L 1918.233832 1266.536146 
L 1935.48465 1254.593286 
L 1942.119575 1248.621833 
L 1947.42751 1241.323413 
L 1950.081489 1236.015478 
L 1953.39894 1226.726574 
L 1951.408479 1218.76466 
L 1946.100521 1210.802746 
L 1944.110059 1202.840832 
L 1937.475112 1197.532897 
L 1932.830671 1192.888433 
L 1923.541767 1192.888433 
L 1907.617939 1197.532897 
L 1895.011584 1201.513842 
L 1884.395691 1208.812262 
L 1874.443292 1215.447209 
L 1868.471862 1221.418639 
L 1863.827422 1227.390069 
L 1859.182959 1236.678973 
L 1855.865508 1241.986908 
L 1855.202013 1249.285328 
L 1856.529003 1255.256781 
L 1850.55755 1248.621833 
L 1843.25913 1245.967877 
L 1833.970249 1247.294866 
L 1827.998796 1247.958338 
L 1813.401958 1255.920252 
L 1812.267254 1256.071546 
L 1828.280911 1245.395783 
L 1842.87775 1237.433869 
L 1854.157138 1230.135449 
L 1860.792062 1223.500525 
L 1868.753977 1219.519579 
L 1878.706375 1210.89417 
L 1886.004795 1205.586212 
L 1898.611149 1198.951287 
L 1909.890538 1194.970341 
L 1921.833397 1192.979857 
L 1929.795312 1189.662383 
L 1929.131817 1183.027459 
L 1925.814366 1171.748093 
L 1919.842913 1161.1322 
L 1910.554032 1150.516307 
L 1900.601634 1143.881382 
L 1887.995256 1137.909952 
L 1879.36987 1137.246457 
L 1873.398417 1136.582963 
L 1864.773008 1139.900437 
L 1859.465073 1143.881382 
L 1854.157138 1149.18934 
L 1850.176169 1155.16077 
L 1845.531729 1159.805211 
L 1840.887265 1161.795695 
L 1833.588846 1163.786179 
L 1811.693587 1173.075083 
L 1805.722158 1178.383018 
L 1797.760243 1184.354448 
L 1791.125319 1190.989373 
L 1785.153889 1195.633836 
L 1779.84593 1202.268761 
L 1778.518941 1209.56718 
L 1775.20149 1232.125934 
L 1776.52848 1212.884631 
L 1772.547511 1206.249706 
L 1765.912586 1201.605266 
L 1757.287177 1200.278277 
L 1744.680823 1202.268761 
L 1730.747455 1205.586212 
L 1719.46809 1207.576696 
L 1701.553778 1207.576696 
L 1723.449036 1206.249706 
L 1737.382403 1203.59575 
L 1747.998273 1199.614782 
L 1757.950672 1198.951287 
L 1770.557027 1199.614782 
L 1777.855446 1198.951287 
L 1783.163404 1194.306847 
L 1789.134834 1190.989373 
L 1794.442769 1185.681438 
L 1801.077717 1180.373503 
L 1814.347567 1168.43062 
L 1822.972976 1165.77664 
L 1842.214255 1158.478221 
L 1850.839664 1152.506791 
L 1856.147599 1145.871866 
L 1858.801578 1139.236942 
L 1856.811094 1131.275027 
L 1849.512674 1122.649618 
L 1839.560299 1118.005178 
L 1830.271395 1114.687704 
L 1820.318996 1111.37023 
L 1810.366598 1104.735306 
L 1803.068178 1097.436886 
L 1787.807845 1089.474972 
L 1771.220521 1082.840047 
L 1761.931641 1081.513058 
L 1754.633198 1081.513058 
L 1749.988758 1088.811477 
L 1748.661768 1095.446402 
L 1748.661768 1102.744844 
L 1751.315747 1111.37023 
L 1755.960188 1120.659134 
L 1759.277662 1131.275027 
L 1761.268146 1137.246457 
L 1770.557027 1140.563931 
L 1761.268146 1143.217887 
L 1755.296693 1146.535361 
L 1758.614167 1139.900437 
L 1757.950672 1131.275027 
L 1754.633198 1123.976608 
L 1751.315747 1114.024209 
L 1744.017328 1105.3988 
L 1737.382403 1100.090865 
L 1726.76651 1096.109897 
L 1713.49666 1094.119435 
L 1689.610918 1094.119435 
L 1682.975993 1099.427371 
L 1678.995024 1106.062295 
L 1678.33153 1114.687704 
L 1678.995024 1123.313113 
L 1683.639488 1130.611533 
L 1692.264874 1137.909952 
L 1702.217272 1143.217887 
L 1711.506176 1149.852835 
L 1696.245842 1142.554393 
L 1685.629949 1137.246457 
L 1675.677574 1133.929007 
L 1667.052165 1132.602017 
L 1662.407701 1134.592478 
L 1657.763261 1139.900437 
L 1655.772776 1145.871866 
L 1654.445787 1152.506791 
L 1652.455303 1159.805211 
L 1651.128336 1165.77664 
L 1649.137852 1169.757609 
L 1642.502927 1173.075083 
L 1635.868002 1175.065544 
L 1625.252109 1176.392534 
L 1612.645754 1174.402049 
L 1631.887034 1173.075083 
L 1644.493411 1169.757609 
L 1649.801347 1163.786179 
L 1652.455303 1155.824265 
L 1653.782292 1141.227426 
L 1651.791831 1135.255973 
L 1648.474357 1129.948038 
L 1643.166422 1123.976608 
L 1621.934635 1110.706759 
L 1611.318765 1106.72579 
L 1598.712387 1104.071811 
L 1588.760012 1104.735306 
L 1578.144118 1107.389285 
L 1570.182204 1114.687704 
L 1566.86473 1122.649618 
L 1564.874269 1131.938522 
L 1564.874269 1141.227426 
L 1564.210774 1155.16077 
L 1561.556795 1137.909952 
L 1557.575849 1129.284543 
L 1550.27743 1123.313113 
L 1542.978987 1119.995639 
L 1532.363117 1117.341683 
L 1514.448804 1116.014694 
L 1527.718654 1115.351199 
L 1540.988526 1119.332145 
L 1552.931386 1121.986124 
L 1559.566311 1119.995639 
L 1565.537764 1114.024209 
L 1568.855215 1106.72579 
L 1571.509194 1101.417855 
L 1568.19172 1095.446402 
L 1576.153634 1100.090865 
L 1598.712387 1101.417855 
L 1608.001291 1104.735306 
L 1617.95369 1107.389285 
L 1628.569583 1112.69722 
L 1640.512443 1119.995639 
L 1653.118797 1128.621048 
L 1661.744206 1129.948038 
L 1669.042626 1129.284543 
L 1675.014079 1126.630564 
L 1678.33153 1119.995639 
L 1675.677574 1099.427371 
L 1670.369615 1092.792446 
L 1663.734691 1086.821016 
L 1653.118797 1076.205123 
L 1666.38867 1086.821016 
L 1675.014079 1091.465456 
L 1685.629949 1092.128951 
L 1709.515692 1092.128951 
L 1722.785564 1093.455941 
L 1733.401435 1095.446402 
L 1740.699854 1094.78293 
L 1746.007812 1092.128951 
L 1749.325263 1087.484488 
L 1749.988758 1079.522596 
L 1731.41095 1062.271778 
L 1722.785564 1054.973359 
L 1715.487122 1051.655885 
L 1708.188702 1047.674939 
L 1702.880767 1044.357466 
L 1693.591863 1041.703486 
L 1682.312498 1035.732057 
L 1670.369615 1029.760627 
L 1658.426756 1021.135218 
L 1649.801347 1017.817744 
L 1637.858464 1015.163788 
L 1620.607669 1011.182819 
L 1615.963205 1017.154249 
L 1610.65527 1025.116163 
L 1603.356851 1034.405067 
L 1596.721926 1040.37652 
L 1585.442538 1041.703486 
L 1568.855215 1043.030476 
L 1551.604396 1045.02096 
L 1540.988526 1047.011445 
L 1538.778874 1046.900959 
L 1550.778064 1043.249019 
L 1568.028882 1041.258535 
L 1583.952711 1039.931568 
L 1596.559065 1038.604579 
L 1601.867024 1033.960115 
L 1613.809883 1017.372792 
L 1617.127357 1009.410878 
L 1615.800368 1000.785492 
L 1610.492433 992.823578 
L 1598.54955 984.861663 
L 1585.943195 974.909265 
L 1574.000312 969.60133 
L 1563.384442 964.293371 
L 1550.778064 957.658447 
L 1538.17171 955.004468 
L 1531.536785 952.350512 
L 1524.901837 949.033038 
L 1519.593902 947.706048 
L 1516.276451 949.033038 
L 1513.622472 954.340973 
L 1511.631988 962.302887 
L 1510.304998 968.937835 
L 1509.641503 980.880695 
L 1508.978009 984.861663 
L 1508.978009 970.264801 
L 1510.968493 961.639415 
L 1512.295483 953.014006 
L 1511.631988 946.379059 
L 1507.651042 942.398113 
L 1499.689128 928.464769 
L 1493.054203 919.175865 
L 1487.08275 913.204435 
L 1478.457341 907.896477 
L 1470.495427 900.598057 
L 1459.879557 896.617112 
L 1445.946213 891.972648 
L 1436.657309 889.982187 
L 1428.695395 891.972648 
L 1422.06047 895.290122 
L 1417.416006 898.607596 
L 1416.089017 903.252037 
L 1416.089017 909.223467 
L 1418.742996 917.185381 
L 1419.406491 924.4838 
L 1418.742996 932.445714 
L 1417.416006 940.407629 
L 1417.416006 946.379059 
L 1418.079501 953.677501 
L 1422.723942 960.975921 
L 1428.0319 968.937835 
L 1437.320804 974.909265 
L 1447.936674 984.198169 
L 1457.225578 992.823578 
L 1463.860502 1001.448964 
L 1469.168461 1010.737867 
L 1470.495427 1018.699782 
L 1470.495427 1028.65218 
L 1469.168461 1015.382331 
L 1463.860502 1007.420417 
L 1458.552567 998.795008 
L 1451.917643 991.496588 
L 1443.955728 983.534674 
L 1434.666824 974.909265 
L 1425.377921 967.610845 
L 1416.089017 964.293371 
L 1407.463608 961.639415 
L 1400.828683 960.312426 
L 1394.193758 960.975921 
L 1385.568349 964.956866 
L 1378.26993 970.264801 
L 1373.62549 974.24577 
L 1374.288984 982.871179 
L 1377.606435 992.160083 
L 1383.577865 999.458502 
L 1391.539779 1009.410878 
L 1401.492178 1020.690266 
L 1408.790597 1030.642665 
L 1416.752512 1039.931568 
L 1424.050931 1049.883944 
L 1424.714426 1054.528407 
L 1418.742996 1045.239503 
L 1412.108071 1039.931568 
L 1406.136641 1041.258535 
L 1398.838222 1051.874428 
L 1406.136641 1036.614094 
L 1403.482662 1029.97917 
L 1400.828683 1024.00774 
L 1395.520748 1015.382331 
L 1388.222329 1009.410878 
L 1381.587404 1002.112458 
L 1372.961995 998.795008 
L 1359.028651 994.814039 
L 1347.085768 992.823578 
L 1337.133369 988.842609 
L 1324.527015 987.515619 
L 1313.247626 986.18863 
L 1305.285712 986.18863 
L 1291.352368 985.525135 
L 1274.765045 987.515619 
L 1266.139636 984.198169 
L 1247.561851 982.871179 
L 1209.742764 978.226716 
L 1194.31957 979.553705 
L 1177.732247 982.207684 
L 1155.173494 982.871179 
L 1131.951246 984.861663 
L 1114.036956 986.852125 
L 1094.132159 992.160083 
L 1075.554351 992.160083 
L 1052.332103 994.814039 
L 1037.735264 997.468018 
L 1021.811436 1001.448964 
L 1007.878092 1008.083911 
L 994.608242 1016.045826 
L 982.001865 1026.661696 
L 969.39551 1038.604579 
L 960.106606 1045.239503 
L 950.817702 1053.201418 
L 942.192317 1057.845858 
L 932.239918 1061.163332 
L 945.509767 1053.864912 
L 957.45265 1045.239503 
L 970.7225 1032.633126 
L 982.001865 1021.353761 
L 989.300307 1009.410878 
L 992.617758 998.131513 
L 991.954263 989.506104 
L 984.655844 985.525135 
L 974.03995 981.544189 
L 962.097091 978.89021 
L 947.500252 978.226716 
L 934.893874 980.2172 
L 926.93196 980.880695 
L 916.316089 982.871179 
L 903.709712 986.18863 
L 896.312026 990.296718 
L 889.013607 996.268171 
L 883.705648 1000.249116 
L 877.070724 1006.220546 
L 871.762788 1014.845955 
L 869.108809 1024.134859 
L 869.108809 1029.442794 
L 867.118348 1036.741214 
L 865.791359 1044.703128 
L 861.81039 1052.001547 
L 860.4834 1057.309506 
L 861.81039 1048.020602 
L 864.464369 1040.722182 
L 865.791359 1031.433278 
L 867.78182 1022.144375 
L 870.435799 1014.18246 
L 873.753273 1008.874525 
L 878.397713 1000.912611 
L 885.696133 991.623707 
L 894.321542 983.661793 
L 896.312026 976.363374 
L 890.340596 969.728449 
L 884.369143 966.410975 
L 873.753273 971.055438 
L 857.16595 984.988783 
L 853.184981 991.623707 
L 844.559572 998.258632 
L 837.924647 1002.239601 
L 829.962733 1007.547536 
L 825.318293 1012.191999 
L 820.010357 1016.172945 
L 816.37711 1017.570353 
L 820.379639 1013.06749 
L 827.714887 1007.566066 
L 836.272677 1000.842077 
L 846.66429 994.118111 
L 855.222079 986.17158 
L 863.168587 976.39125 
L 866.836234 967.83346 
L 869.281317 958.664388 
L 869.892576 948.884057 
L 869.281317 941.548809 
L 865.00241 929.323396 
L 859.500963 921.988147 
L 852.165714 915.875441 
L 844.219207 907.92891 
L 836.272677 904.872545 
L 830.771252 904.872545 
L 824.047263 907.92891 
L 816.100733 912.207817 
L 810.599308 917.097982 
L 804.486601 921.988147 
L 800.207695 926.878313 
L 797.151353 930.545937 
L 794.094988 933.602279 
L 792.261188 940.326268 
L 790.427364 948.884057 
L 788.593541 958.664388 
L 786.75974 967.222178 
L 781.258292 978.836332 
L 785.537199 964.777095 
L 786.148458 957.441847 
L 787.982282 948.884057 
L 788.593541 940.937527 
L 789.816105 934.82482 
L 789.204823 928.712113 
L 780.647033 929.934655 
L 769.644161 933.602279 
L 759.86383 936.658644 
L 751.306041 940.326268 
L 743.970769 942.771351 
L 735.41298 946.438975 
L 725.632649 953.774223 
L 715.241059 960.498212 
L 704.849446 968.444719 
L 695.680374 974.557426 
L 687.122585 980.670133 
L 681.009878 986.782863 
L 676.119712 992.284287 
L 673.67463 999.619535 
L 677.342254 1006.343524 
L 686.511326 1017.957656 
L 696.902916 1028.960551 
L 709.128329 1036.295799 
L 726.243931 1038.740882 
L 734.801721 1038.740882 
L 743.970769 1044.242307 
L 752.528582 1051.577555 
L 758.641289 1056.46772 
L 742.136969 1046.07613 
L 735.41298 1041.185965 
L 726.243931 1039.352141 
L 717.686142 1039.352141 
L 709.128329 1038.1296 
L 701.181822 1035.073258 
L 692.624032 1027.73801 
L 687.733867 1021.62528 
L 681.62116 1014.290032 
L 676.119712 1008.177325 
L 669.395723 1002.6759 
L 662.671758 1001.453359 
L 654.725227 1002.6759 
L 646.77872 1006.954783 
L 640.666013 1011.23369 
L 632.1082 1015.512573 
L 626.606776 1020.402738 
L 620.494069 1024.681645 
L 613.77008 1027.126727 
L 607.657373 1032.016893 
L 602.767208 1036.295799 
L 598.488301 1039.352141 
L 592.871325 1045.365697 
L 588.592441 1050.255886 
L 587.981159 1053.92351 
L 592.260065 1058.813675 
L 600.817855 1064.3151 
L 606.319303 1068.594006 
L 615.488351 1071.650348 
L 621.601058 1072.26163 
L 626.491224 1072.872889 
L 619.155975 1074.095431 
L 611.209468 1072.26163 
L 603.874197 1069.205265 
L 596.538949 1063.703841 
L 583.090994 1055.75731 
L 575.755746 1054.534769 
L 567.197956 1056.979852 
L 562.307791 1059.424934 
L 551.916177 1063.703841 
L 543.358388 1067.371465 
L 537.245681 1072.872889 
L 532.966798 1076.540513 
L 529.299151 1081.430679 
L 527.46535 1087.543409 
L 528.076609 1093.044833 
L 535.411881 1099.15754 
L 546.414753 1102.825164 
L 561.085249 1107.104071 
L 573.310663 1111.382954 
L 583.090994 1113.216777 
L 588.592441 1112.605495 
L 595.316407 1110.160412 
L 589.2037 1115.66186 
L 587.3699 1122.997108 
L 587.981159 1130.332356 
L 589.814983 1141.335229 
L 594.093866 1146.225394 
L 604.485479 1148.670477 
L 613.654551 1146.225394 
L 622.21234 1140.72397 
L 630.158848 1133.99998 
L 639.327919 1124.830932 
L 647.885709 1117.495661 
L 657.66604 1111.382954 
L 665.001288 1108.937871 
L 675.392901 1110.771695 
L 681.505608 1114.439319 
L 690.063397 1121.163285 
L 702.900093 1129.109815 
L 713.291683 1133.99998 
L 722.460755 1132.777439 
L 728.573462 1129.721097 
L 737.131251 1126.664732 
L 743.85524 1123.608391 
L 751.190488 1120.552026 
L 759.137019 1118.718202 
L 767.638015 1118.718202 
L 763.625423 1120.05574 
L 755.244629 1120.521327 
L 746.863834 1122.849331 
L 739.879847 1126.108531 
L 733.827056 1129.367732 
L 729.636659 1132.161322 
L 726.843068 1138.214113 
L 725.911872 1142.87012 
L 731.964662 1153.113308 
L 726.377458 1147.060517 
L 722.187061 1140.542116 
L 716.134271 1136.351719 
L 707.287866 1132.626932 
L 699.372682 1128.902122 
L 691.923084 1123.314941 
L 684.939097 1119.59013 
L 674.032599 1116.89539 
L 665.651805 1116.89539 
L 658.667794 1118.292197 
L 650.287023 1121.085787 
L 643.303012 1126.207381 
L 636.784611 1130.397778 
L 628.403817 1138.778573 
L 621.885439 1148.090564 
L 619.091826 1156.471358 
L 618.160629 1162.058562 
L 620.488633 1168.57694 
L 621.419829 1176.026537 
L 623.747833 1181.613741 
L 626.075837 1186.269725 
L 632.128627 1188.597729 
L 644.699819 1188.132142 
L 664.720608 1187.200945 
L 654.477397 1188.597729 
L 644.234209 1189.528925 
L 635.853415 1189.994535 
L 627.007033 1189.063339 
L 623.747833 1186.735335 
L 621.885439 1181.148131 
L 620.023046 1172.767337 
L 619.091826 1165.783349 
L 615.832649 1159.264948 
L 613.504645 1152.746571 
L 607.451854 1150.418567 
L 598.60545 1149.952957 
L 592.552659 1150.418567 
L 586.965455 1152.280961 
L 581.843861 1156.005748 
L 573.928677 1160.661755 
L 566.479079 1164.852152 
L 556.701478 1166.714546 
L 568.341473 1161.592952 
L 572.99748 1157.868165 
L 577.187877 1153.677768 
L 582.309471 1146.693757 
L 583.706255 1140.640966 
L 581.843861 1135.053785 
L 581.843861 1127.138578 
L 581.378274 1122.948181 
L 569.73828 1111.308186 
L 559.495092 1107.583399 
L 545.527094 1103.393002 
L 535.749492 1100.599411 
L 531.093508 1101.996195 
L 525.506305 1103.858588 
L 521.781517 1104.324198 
L 518.522317 1108.514596 
L 515.728727 1115.032996 
L 511.538329 1120.15459 
L 508.744716 1126.672991 
L 506.416735 1134.588175 
L 504.088732 1141.106576 
L 504.088732 1152.280961 
L 507.813519 1156.471358 
L 513.400723 1162.524149 
L 505.951125 1156.471358 
L 502.691925 1152.280961 
L 502.691925 1143.43458 
L 504.088732 1137.381766 
L 505.019929 1131.328975 
L 507.347932 1126.207381 
L 515.263117 1111.773796 
L 517.12551 1107.117789 
L 517.59112 1102.461805 
L 515.728727 1096.874601 
L 510.607133 1092.684204 
L 503.623122 1090.3562 
L 495.242328 1092.684204 
L 486.395946 1095.943404 
L 475.221538 1099.668191 
L 461.71915 1108.980206 
L 456.597556 1113.170603 
L 454.735163 1118.757784 
L 453.803966 1120.620177 
L 449.147959 1117.826587 
L 434.714374 1118.757784 
L 424.005599 1121.551374 
L 409.106404 1127.604188 
L 403.053613 1133.656979 
L 399.794413 1141.106576 
L 399.328803 1148.090564 
L 400.259999 1155.074551 
L 403.5192 1159.264948 
L 409.106404 1164.852152 
L 415.624804 1170.439356 
L 424.005599 1176.492147 
L 431.920783 1181.613741 
L 436.57679 1180.682544 
L 445.888781 1173.698534 
L 443.095168 1176.492147 
L 438.904771 1181.148131 
L 438.439184 1186.269725 
L 440.301577 1192.322539 
L 448.682372 1203.962511 
L 453.803966 1209.084128 
L 457.063166 1214.671308 
L 464.978351 1217.930509 
L 471.031141 1220.258512 
L 481.739939 1217.930509 
L 487.79273 1215.136918 
L 494.776741 1213.274525 
L 500.829531 1213.274525 
L 505.485515 1213.740112 
L 510.141523 1215.602505 
L 517.59112 1218.861706 
L 525.040718 1224.44891 
L 531.093508 1228.639307 
L 538.077496 1232.829704 
L 541.802306 1233.760901 
L 558.098285 1233.760901 
L 567.410276 1233.295291 
L 563.219879 1234.692098 
L 554.839085 1235.157707 
L 546.45829 1236.088904 
L 540.4055 1236.554491 
L 533.887099 1231.898507 
L 526.903111 1227.2425 
L 519.919124 1223.052103 
L 513.86631 1218.861706 
L 506.416735 1215.602505 
L 499.432725 1215.136918 
L 491.51754 1217.464899 
L 486.395946 1219.327316 
L 483.602333 1226.776913 
L 481.274352 1233.760901 
L 480.808742 1240.744888 
L 482.671136 1247.263289 
L 484.067943 1252.850493 
L 486.395946 1258.437674 
L 489.189537 1264.490465 
L 493.204743 1271.935991 
L 490.938275 1271.11181 
L 488.256281 1265.747868 
L 483.965114 1255.556338 
L 479.673947 1244.292033 
L 476.991976 1234.100502 
L 472.700809 1227.663763 
L 467.336844 1222.299798 
L 460.363706 1218.008631 
L 452.85417 1213.181065 
L 445.881032 1206.744326 
L 439.444269 1198.69839 
L 436.2259 1195.480021 
L 431.398334 1186.897687 
L 427.643566 1180.997323 
L 421.206826 1176.169757 
L 413.697267 1170.269417 
L 406.18773 1163.296256 
L 399.214592 1157.395916 
L 396.532598 1154.713922 
L 390.632258 1154.713922 
L 384.731894 1155.25032 
L 380.977126 1157.395916 
L 377.758756 1162.223481 
L 374.540387 1165.441851 
L 375.613184 1170.805816 
L 379.367953 1179.388127 
L 382.586322 1189.579657 
L 383.65912 1196.552795 
L 380.440727 1184.752092 
L 376.14956 1175.633358 
L 372.394792 1168.123822 
L 367.03085 1165.97825 
L 362.203284 1168.123822 
L 356.839319 1170.269417 
L 350.938956 1172.951388 
L 346.111413 1175.633358 
L 341.283847 1178.851751 
L 336.99268 1183.142918 
L 334.310686 1187.970461 
L 331.628715 1192.261628 
L 330.019519 1196.552795 
L 327.873947 1203.525956 
L 326.80115 1212.108291 
L 327.873947 1220.690625 
L 330.019519 1229.272936 
L 342.356645 1239.464467 
L 358.984915 1250.728772 
L 374.540387 1259.847505 
L 386.341091 1264.675071 
L 397.068997 1265.747868 
L 404.578557 1264.138672 
L 412.624492 1268.429839 
L 419.061231 1273.793804 
L 429.252762 1279.694144 
L 439.980668 1286.667305 
L 446.953806 1292.031247 
L 454.822538 1297.610886 
L 451.781372 1297.07421 
L 442.662639 1290.63747 
L 431.934733 1283.664333 
L 422.816 1279.373165 
L 416.379261 1277.763969 
L 409.406099 1278.300368 
L 404.042158 1279.909564 
L 400.28739 1283.127934 
L 398.678193 1287.9555 
L 398.678193 1296.001435 
L 397.068997 1300.829001 
L 397.068997 1284.200731 
L 392.241454 1279.373165 
L 389.023061 1274.009201 
L 383.65912 1268.645236 
L 375.076786 1264.354069 
L 369.712821 1261.135699 
L 364.885255 1256.308133 
L 358.984915 1253.089764 
L 350.40258 1248.798597 
L 343.965818 1245.043828 
L 337.529079 1240.752661 
L 332.165114 1235.925095 
L 327.337548 1232.170327 
L 321.437208 1228.415559 
L 316.073243 1228.415559 
L 311.245677 1231.097529 
L 304.272539 1237.534292 
L 300.517771 1243.971031 
L 295.690205 1252.553365 
L 292.471836 1262.208497 
L 290.32624 1274.545599 
L 289.789842 1285.809905 
L 290.862639 1294.392239 
L 291.399038 1302.974573 
L 292.471836 1312.629705 
L 296.76298 1323.89401 
L 302.126944 1335.694714 
L 310.17288 1345.886244 
L 316.609642 1355.004954 
L 326.264751 1358.759746 
L 333.774311 1357.686948 
L 343.965818 1352.322983 
L 350.938956 1345.886244 
L 356.839319 1342.131476 
L 363.812457 1338.913083 
L 369.176422 1337.840309 
L 356.839319 1344.277048 
L 346.647789 1350.71381 
L 338.065478 1357.150549 
L 333.774311 1360.905318 
L 332.701513 1364.660086 
L 334.310686 1371.633224 
L 336.99268 1379.142784 
L 342.356645 1389.334291 
L 352.011754 1395.771054 
L 362.739683 1401.134995 
L 372.394792 1403.28059 
L 382.049923 1401.671394 
L 390.095859 1397.916626 
L 399.750991 1392.552661 
L 405.651331 1388.261494 
L 409.406099 1383.433951 
L 421.743202 1375.924391 
L 428.716363 1370.024051 
L 434.080305 1365.732884 
L 439.444269 1360.905318 
L 445.344633 1358.759746 
L 423.352398 1376.46079 
L 411.551695 1386.115922 
L 404.042158 1393.625458 
L 400.28739 1402.207793 
L 398.141794 1411.326526 
L 400.28739 1422.054432 
L 405.114932 1432.782361 
L 414.233665 1441.364696 
L 426.034369 1447.801435 
L 441.589865 1451.556203 
L 454.463366 1451.019804 
L 466.26407 1447.801435 
L 474.310005 1443.510268 
L 480.210346 1436.53713 
L 485.57431 1429.563992 
L 488.256281 1423.12723 
L 493.083847 1416.69049 
L 496.302217 1409.717329 
L 498.447812 1404.353388 
L 501.129782 1400.598596 
L 503.275378 1396.843828 
L 498.98421 1408.644555 
L 493.620246 1418.299664 
L 487.719905 1427.954796 
L 483.428738 1436.000731 
L 478.064774 1442.973869 
L 474.846404 1448.337834 
L 474.846404 1457.456567 
L 478.064774 1466.5753 
L 485.037911 1473.012039 
L 493.083847 1479.985177 
L 506.493747 1480.521576 
L 516.685278 1474.084836 
L 523.658416 1465.502502 
L 531.704351 1455.84737 
L 539.750287 1447.801435 
L 552.623788 1433.855136 
L 556.378556 1427.954796 
L 555.305759 1422.590831 
L 553.696586 1415.617693 
L 551.55099 1411.326526 
L 550.478193 1405.962561 
L 557.451354 1420.445259 
L 566.570087 1422.590831 
L 577.297993 1423.12723 
L 585.880328 1419.372461 
L 591.780668 1412.935722 
L 597.144633 1405.426162 
L 600.899401 1396.843828 
L 602.508597 1389.87069 
L 601.972198 1383.97035 
L 600.363002 1378.069986 
L 590.171495 1368.951253 
L 584.271131 1364.660086 
L 578.90719 1360.905318 
L 574.616022 1359.296121 
L 575.152398 1355.541353 
L 575.688797 1350.71381 
L 576.761594 1345.886244 
L 577.444198 1344.009092 
L 577.822872 1345.577873 
L 582.589018 1357.228487 
L 590.53261 1366.760802 
L 599.005777 1373.645246 
L 609.067667 1376.293118 
L 617.011259 1370.997397 
L 624.954852 1360.405933 
L 631.309744 1350.344043 
L 632.898467 1343.989173 
L 635.546316 1336.575132 
L 637.135039 1330.220263 
L 642.430783 1324.394968 
L 645.608206 1317.510501 
L 646.667355 1312.214781 
L 648.256078 1305.330337 
L 649.315227 1297.916319 
L 650.374375 1294.209298 
L 651.963098 1291.561426 
L 649.844801 1302.682465 
L 649.844801 1309.566909 
L 649.315227 1316.98095 
L 648.256078 1320.158373 
L 650.374375 1324.924542 
L 654.081373 1330.220263 
L 658.317968 1333.397709 
L 663.613688 1332.868135 
L 675.264301 1327.572391 
L 667.320709 1332.33856 
L 655.670096 1339.752579 
L 649.315227 1342.40045 
L 644.019483 1345.577873 
L 637.664614 1350.344043 
L 633.428042 1356.698912 
L 630.78017 1361.994656 
L 629.191447 1367.290376 
L 628.132298 1373.645246 
L 630.250595 1379.470564 
L 635.016742 1386.884582 
L 637.135039 1391.121177 
L 633.428042 1398.535195 
L 631.839319 1403.301341 
L 627.602724 1407.008362 
L 622.307003 1408.597085 
L 616.481685 1410.185808 
L 610.65639 1412.833657 
L 604.301521 1417.070252 
L 599.535351 1419.718124 
L 594.769205 1423.425121 
L 590.003036 1425.543418 
L 585.766464 1425.543418 
L 580.47072 1426.602567 
L 575.175 1428.19129 
L 569.879256 1430.309565 
L 565.642684 1432.427862 
L 560.34694 1433.487011 
L 556.110369 1436.664457 
L 551.873774 1440.371455 
L 546.578053 1446.196773 
L 540.223184 1452.022068 
L 535.457014 1457.317788 
L 530.690868 1463.143106 
L 524.86555 1470.557124 
L 520.628978 1474.793719 
L 514.049273 1483.18696 
L 510.342253 1490.071403 
L 509.812678 1500.662868 
L 514.578848 1509.136034 
L 520.404143 1521.316222 
L 529.406884 1531.907686 
L 555.885533 1547.794871 
L 568.595295 1552.031443 
L 579.186759 1555.208889 
L 587.659926 1553.620166 
L 591.896498 1549.383594 
L 592.426072 1543.028702 
L 591.896498 1536.673832 
L 590.837372 1530.848537 
L 588.1895 1525.023219 
L 586.600777 1519.197924 
L 586.600777 1519.197924 
" style="fill:none;stroke:#000000;stroke-linecap:square;stroke-width:1.5;"/>
   </g>
   <g id="line2d_2">
    <path clip-path="url(#pf51ca319f7)" d="M 1041.948865 1093.98105 
L 1051.48118 1088.155755 
L 1061.013472 1084.448735 
L 1073.723234 1081.271288 
L 1088.021719 1079.152991 
L 1101.790607 1077.564291 
L 1114.500368 1078.093865 
L 1125.621407 1078.093865 
L 1135.683274 1078.62344 
L 1143.097315 1080.21214 
L 1149.452184 1079.152991 
L 1159.514074 1078.62344 
L 1169.575964 1078.62344 
L 1180.167428 1079.682565 
L 1193.406741 1083.389586 
L 1225.181134 1091.862753 
L 1194.995465 1086.567032 
L 1183.344852 1086.037458 
L 1171.164687 1084.978309 
L 1160.043649 1085.507883 
L 1149.981759 1086.567032 
L 1141.508592 1087.096606 
L 1131.446702 1086.037458 
L 1116.089091 1083.389586 
L 1099.142735 1081.800863 
L 1079.018978 1083.389586 
L 1041.948865 1093.98105 
" style="fill:none;stroke:#000000;stroke-linecap:square;stroke-width:1.5;"/>
   </g>
   <g id="line2d_3">
    <path clip-path="url(#pf51ca319f7)" d="M 1070.545788 1213.664557 
L 1074.782383 1207.839262 
L 1090.669568 1199.89567 
L 1113.44122 1197.777372 
L 1130.917128 1195.129501 
L 1144.156464 1194.070352 
L 1157.925351 1195.129501 
L 1171.164687 1197.247798 
L 1185.992723 1198.306947 
L 1199.761634 1204.661816 
L 1181.756152 1201.48437 
L 1167.457667 1199.366096 
L 1151.040907 1197.247798 
L 1136.742423 1196.188649 
L 1098.61316 1203.073093 
L 1083.785124 1206.780114 
L 1070.545788 1213.664557 
" style="fill:none;stroke:#000000;stroke-linecap:square;stroke-width:1.5;"/>
   </g>
   <g id="line2d_4">
    <path clip-path="url(#pf51ca319f7)" d="M 973.935895 1397.949776 
L 977.749516 1387.46232 
L 979.656326 1383.648723 
L 981.086422 1379.835103 
L 982.039827 1375.544792 
L 982.039827 1372.207863 
L 983.469923 1365.53405 
L 985.853447 1358.860215 
L 986.806852 1355.046618 
L 987.760257 1349.326188 
L 988.236948 1343.605757 
L 989.190353 1338.362041 
L 990.620449 1333.595039 
L 993.480664 1330.734824 
L 996.817594 1327.874608 
L 1000.1545 1326.444512 
L 1003.491406 1326.444512 
L 1005.874907 1330.734824 
L 1006.828312 1334.07173 
L 1011.118646 1337.88535 
L 1006.828312 1340.268851 
L 1004.444811 1343.605757 
L 1004.444811 1347.419377 
L 1004.921502 1352.663094 
L 1005.874907 1358.383524 
L 1005.398216 1363.150526 
L 1002.06131 1366.964146 
L 994.910784 1371.731172 
L 990.143758 1376.021483 
L 986.330138 1383.648723 
L 980.609731 1390.322536 
L 973.935895 1397.949776 
L 973.935895 1397.949776 
" style="fill:none;stroke:#000000;stroke-linecap:square;stroke-width:1.5;"/>
   </g>
   <g id="line2d_5">
    <path clip-path="url(#pf51ca319f7)" d="M 1665.534485 1458.067039 
L 1664.207495 1469.346404 
L 1660.890021 1477.971813 
L 1656.909076 1486.597222 
L 1651.601117 1493.895642 
L 1646.956677 1501.857556 
L 1642.312237 1509.81947 
L 1639.658258 1517.781385 
L 1636.340784 1526.406794 
L 1634.350323 1531.714729 
L 1631.696343 1542.994117 
L 1630.369354 1550.292536 
L 1629.705859 1560.244935 
L 1634.350323 1565.55287 
L 1645.629688 1565.55287 
L 1660.226527 1558.917945 
L 1672.169409 1551.619526 
L 1683.448774 1544.984601 
L 1689.420227 1538.349653 
L 1694.064668 1533.041718 
L 1704.017066 1534.368708 
L 1717.286916 1535.695697 
L 1729.229799 1533.041718 
L 1739.845669 1525.743299 
L 1747.144088 1517.11789 
L 1751.125057 1507.165491 
L 1751.788552 1495.222631 
L 1749.134573 1485.270233 
L 1743.826638 1476.644824 
L 1737.191713 1468.682909 
L 1730.556765 1460.0575 
L 1725.24883 1451.432115 
L 1721.267884 1444.797167 
L 1715.296431 1438.825737 
L 1706.671022 1432.854307 
L 1700.036098 1427.546372 
L 1690.083722 1424.228898 
L 1682.121808 1424.892393 
L 1674.159894 1426.219382 
L 1670.84242 1426.219382 
L 1662.880506 1422.238414 
L 1653.591602 1416.266984 
L 1644.966193 1414.939994 
L 1637.004279 1417.593973 
L 1629.705859 1418.257468 
L 1623.734429 1418.257468 
L 1618.426494 1418.920963 
L 1613.118536 1422.901908 
L 1605.820116 1427.546372 
L 1596.531213 1432.854307 
L 1588.569298 1434.844791 
L 1579.943912 1441.479716 
L 1574.635954 1445.460662 
L 1571.981998 1451.432115 
L 1572.645493 1457.403544 
L 1574.635954 1465.365459 
L 1573.972459 1473.990868 
L 1573.972459 1480.625792 
L 1572.645493 1487.260717 
L 1569.991514 1495.886126 
L 1571.981998 1499.203577 
L 1581.270879 1492.568652 
L 1591.886772 1483.943243 
L 1601.175676 1475.317834 
L 1611.128075 1467.35592 
L 1620.416955 1461.38449 
L 1587.905827 1488.587707 
L 1576.626438 1499.867072 
L 1571.318503 1506.501996 
L 1570.655009 1512.473449 
L 1569.991514 1527.733783 
L 1569.991514 1542.330622 
L 1569.328019 1557.590956 
L 1569.991514 1568.206849 
L 1571.318503 1578.159225 
L 1576.626438 1582.803688 
L 1588.569298 1585.457644 
L 1597.858202 1584.794149 
L 1611.791569 1578.822719 
L 1620.416955 1570.860805 
L 1625.724914 1563.562386 
L 1627.051903 1556.263966 
L 1627.715375 1545.648073 
L 1630.369354 1538.349653 
L 1633.023333 1527.733783 
L 1637.004279 1518.444879 
L 1640.985247 1508.492481 
L 1647.620172 1497.87661 
L 1653.591602 1487.924212 
L 1656.909076 1481.289287 
L 1660.226527 1473.327373 
L 1662.880506 1465.365459 
L 1665.534485 1458.067039 
" style="fill:none;stroke:#000000;stroke-linecap:square;stroke-width:1.5;"/>
   </g>
   <g id="line2d_6">
    <path clip-path="url(#pf51ca319f7)" d="M 889.000513 919.002109 
L 908.117819 908.98829 
L 931.786846 894.422728 
L 986.407705 866.201957 
L 1015.53883 852.546725 
L 1030.104392 842.532907 
L 1050.132052 835.250125 
L 1069.249335 827.967344 
L 1091.097678 823.4156 
L 1112.035691 823.4156 
L 1127.511584 821.594917 
L 1148.449597 818.863879 
L 1181.222112 824.325954 
L 1214.904958 828.877698 
L 1254.049901 837.981163 
L 1290.463806 845.263944 
L 1323.236322 856.188115 
L 1351.457116 864.38125 
L 1402.436584 884.40891 
L 1417.912477 887.139947 
L 1424.381371 880.450334 
L 1428.629649 870.739959 
L 1430.450356 859.815788 
L 1428.629649 850.105413 
L 1423.167575 839.788151 
L 1415.277883 833.112257 
L 1409.815809 827.043273 
L 1406.174419 819.760491 
L 1403.139915 811.870823 
L 1397.677841 805.801839 
L 1386.753669 794.877667 
L 1374.6157 786.987976 
L 1367.332919 783.346586 
L 1359.443228 783.346586 
L 1347.912169 782.739699 
L 1339.415591 783.953496 
L 1327.88451 786.381089 
L 1319.994842 786.987976 
L 1310.284467 785.774179 
L 1298.753408 783.953496 
L 1279.332658 778.491398 
L 1262.339502 774.850008 
L 1247.77394 770.60173 
L 1235.029062 769.387933 
L 1221.070409 768.781023 
L 1207.111734 766.96034 
L 1194.366878 766.35343 
L 1179.801316 765.139633 
L 1164.021957 764.532746 
L 1202.863456 765.139633 
L 1216.822109 766.35343 
L 1233.815265 767.567227 
L 1245.346346 766.35343 
L 1254.449811 765.746543 
L 1263.553299 766.96034 
L 1275.691268 771.815527 
L 1286.00853 777.277601 
L 1295.718904 781.525902 
L 1303.001686 783.953496 
L 1325.456916 785.167293 
L 1335.774201 782.739699 
L 1343.663869 778.491398 
L 1346.698373 772.422414 
L 1345.484576 766.96034 
L 1341.843185 757.856852 
L 1338.201795 752.394777 
L 1332.739697 745.111996 
L 1316.353451 729.939524 
L 1310.284467 723.263653 
L 1304.215482 717.194668 
L 1298.146498 713.553278 
L 1290.863717 710.518774 
L 1283.580936 708.09118 
L 1268.408487 705.663587 
L 1257.484315 709.304977 
L 1248.987737 707.484294 
L 1259.304999 706.270497 
L 1264.160186 704.44979 
L 1262.339502 699.594602 
L 1259.304999 692.918731 
L 1255.663608 681.38765 
L 1252.629128 674.104868 
L 1251.305145 668.422423 
L 1243.415454 664.174146 
L 1236.739583 659.318959 
L 1229.456802 654.463771 
L 1220.960224 648.394787 
L 1213.677443 639.291299 
L 1203.360158 630.794721 
L 1191.222189 623.51194 
L 1185.760115 621.084346 
L 1182.118724 621.084346 
L 1174.835943 616.836069 
L 1168.160049 615.622272 
L 1160.270381 616.229159 
L 1151.166916 618.049865 
L 1143.277225 620.477459 
L 1132.959963 624.11885 
L 1123.249588 627.15333 
L 1111.718507 630.187834 
L 1101.401245 633.829225 
L 1086.835683 638.684412 
L 1080.766698 641.112006 
L 1074.697714 641.718893 
L 1069.235617 645.360283 
L 1057.704558 654.463771 
L 1052.242461 660.532755 
L 1046.173476 666.60174 
L 1043.745883 670.24313 
L 1038.283808 673.884521 
L 1029.78723 678.739708 
L 1024.325133 684.808693 
L 1020.076855 691.484564 
L 1017.042352 696.946661 
L 1015.221668 703.622532 
L 1012.739155 710.077339 
L 1005.456374 714.325616 
L 995.139112 717.967007 
L 989.677015 722.215307 
L 983.60803 727.677382 
L 976.932159 737.387757 
L 966.007988 750.739522 
L 961.1528 753.774026 
L 955.083816 756.808506 
L 946.587238 764.091287 
L 925.345781 786.546541 
L 922.311301 794.436209 
L 916.849203 803.539697 
L 908.959535 812.643162 
L 904.104348 818.712146 
L 900.462957 824.174244 
L 900.462957 831.457025 
L 907.745738 836.312212 
L 921.704391 836.312212 
L 937.48375 833.277708 
L 951.442425 829.029431 
L 962.973484 820.532853 
L 979.96664 812.036275 
L 995.745999 803.539697 
L 1014.559862 794.436209 
L 990.283925 808.394884 
L 973.290769 816.284552 
L 964.187281 822.353537 
L 957.51141 827.208724 
L 949.621718 831.457025 
L 941.12514 833.277708 
L 930.807879 836.312212 
L 918.66991 838.132896 
L 908.959535 838.739806 
L 900.462957 838.132896 
L 893.180176 838.132896 
L 884.683598 840.56049 
L 875.58011 844.20188 
L 868.904239 849.057068 
L 863.442142 853.305368 
L 859.193864 859.374352 
L 853.73179 869.084704 
L 848.876602 878.795079 
L 847.055895 887.291657 
L 846.449009 895.181348 
L 851.911083 904.284813 
L 860.407661 911.567594 
L 872.54563 917.636578 
L 881.649094 920.671082 
L 889.000513 919.002109 
L 889.000513 919.002109 
" style="fill:none;stroke:#000000;stroke-linecap:square;stroke-width:1.5;"/>
   </g>
   <g id="line2d_7">
    <path clip-path="url(#pf51ca319f7)" d="M 946.642134 963.098706 
L 961.814606 961.277999 
L 976.380169 961.277999 
L 998.835399 962.491796 
L 1017.042352 962.491796 
L 1046.173476 959.457315 
L 1060.132152 957.636609 
L 1073.483917 953.995218 
L 1084.408089 946.712437 
L 1098.973651 943.677956 
L 1114.1461 943.677956 
L 1139.028948 944.284843 
L 1159.663471 943.677956 
L 1177.263537 944.284843 
L 1188.794596 944.284843 
L 1202.753271 953.995218 
L 1218.53263 959.457315 
L 1234.311989 960.671112 
L 1246.449958 961.277999 
L 1261.622407 964.312503 
L 1274.974173 963.705593 
L 1289.539735 964.91939 
L 1301.070817 966.133187 
L 1318.670859 967.953894 
L 1336.546192 967.071 
L 1347.470364 965.250293 
L 1358.394536 960.395105 
L 1364.46352 956.753715 
L 1376.601465 956.146828 
L 1388.132547 956.146828 
L 1395.415328 951.291641 
L 1403.304996 947.65025 
L 1411.801574 944.615746 
L 1416.656762 939.153672 
L 1418.477469 928.836387 
L 1417.263672 916.091532 
L 1413.622281 905.16736 
L 1405.73259 894.850075 
L 1397.842922 886.353497 
L 1389.953231 881.49831 
L 1379.635969 877.250032 
L 1366.119122 871.126129 
L 1353.374244 867.484738 
L 1340.629388 862.629551 
L 1319.994842 856.560566 
L 1306.643076 851.705379 
L 1292.077514 847.457102 
L 1278.725748 845.029508 
L 1265.373983 843.208801 
L 1255.663608 842.601914 
L 1247.16703 839.56741 
L 1238.063565 838.353614 
L 1231.387671 838.353614 
L 1222.891093 835.92602 
L 1213.787628 832.891539 
L 1202.863456 829.250149 
L 1191.939285 828.036352 
L 1180.408203 827.429442 
L 1170.090941 826.822555 
L 1157.952973 828.036352 
L 1148.849485 827.429442 
L 1139.74602 826.822555 
L 1127.608051 825.608758 
L 1119.71836 825.608758 
L 1108.187301 827.429442 
L 1096.65622 832.284629 
L 1085.732048 834.712223 
L 1073.594079 836.53293 
L 1063.883705 838.353614 
L 1049.925052 841.388117 
L 1038.39397 844.422598 
L 1029.897392 846.243305 
L 1023.024539 849.517935 
L 1014.527961 854.373123 
L 1008.458976 858.621423 
L 996.321008 863.476611 
L 981.755446 870.152482 
L 965.976086 878.042173 
L 955.051915 884.111157 
L 939.879442 891.393938 
L 929.562181 897.462923 
L 919.244896 904.745704 
L 910.141431 915.062965 
L 902.251763 924.77334 
L 898.610372 935.090625 
L 898.003462 945.407887 
L 901.644853 954.511375 
L 912.569025 961.187246 
L 924.706993 962.401043 
L 935.631165 963.61484 
L 946.642134 963.098706 
" style="fill:none;stroke:#000000;stroke-linecap:square;stroke-width:1.5;"/>
   </g>
   <g id="line2d_8">
    <path clip-path="url(#pf51ca319f7)" d="M 1140.379302 1498.962941 
L 1153.189741 1493.543155 
L 1163.043915 1491.079612 
L 1173.88351 1487.630646 
L 1182.752284 1483.196259 
L 1192.606458 1479.254595 
L 1201.967932 1475.312907 
L 1212.314827 1472.356664 
L 1224.632544 1471.863941 
L 1238.428405 1470.38582 
L 1245.819035 1464.473311 
L 1249.268001 1458.560803 
L 1247.297157 1451.170173 
L 1243.355492 1443.28682 
L 1239.413827 1439.345156 
L 1233.994018 1432.447225 
L 1228.574209 1427.520138 
L 1221.183579 1422.593052 
L 1218.573669 1419.463608 
L 1216.110126 1414.856065 
L 1210.343984 1412.565677 
L 1202.953354 1411.580255 
L 1194.896823 1411.8998 
L 1187.01347 1412.392522 
L 1176.666574 1413.058376 
L 1167.478302 1413.724277 
L 1157.624105 1416.680543 
L 1146.78451 1417.665965 
L 1134.466793 1419.144086 
L 1122.641776 1420.622208 
L 1114.265724 1421.60763 
L 1106.875071 1423.085751 
L 1099.977164 1424.563872 
L 1092.586511 1426.042017 
L 1086.674002 1427.027416 
L 1081.254216 1429.983682 
L 1077.805251 1431.461803 
L 1073.370863 1436.38889 
L 1071.892742 1440.823277 
L 1070.90732 1447.228508 
L 1071.226841 1455.377735 
L 1075.341707 1464.966034 
L 1080.268794 1469.893121 
L 1086.115441 1477.003256 
L 1092.720639 1480.571729 
L 1100.696688 1484.301213 
L 1107.367794 1488.123346 
L 1112.29488 1495.513976 
L 1120.178233 1499.948363 
L 1130.525106 1500.933785 
L 1140.379302 1498.962941 
" style="fill:none;stroke:#000000;stroke-linecap:square;stroke-width:1.5;"/>
   </g>
   <g id="line2d_9">
    <path clip-path="url(#pf51ca319f7)" d="M 1206.581442 1408.669794 
L 1215.532434 1408.027813 
L 1225.437848 1405.791095 
L 1232.14798 1401.317681 
L 1236.940938 1396.524746 
L 1238.538567 1390.45368 
L 1239.816699 1384.702135 
L 1240.13622 1379.9092 
L 1239.497178 1375.116242 
L 1239.177633 1371.920937 
L 1240.455765 1366.488936 
L 1241.733873 1362.015522 
L 1241.414352 1357.542109 
L 1241.733873 1351.471042 
L 1241.094807 1344.76091 
L 1237.57998 1340.607018 
L 1233.426111 1337.731257 
L 1228.313632 1335.175017 
L 1224.15974 1333.577365 
L 1218.408195 1331.340669 
L 1213.61526 1330.701604 
L 1206.266062 1330.382083 
L 1197.319235 1331.021125 
L 1188.372407 1332.299256 
L 1185.816168 1332.618778 
L 1173.354514 1334.855496 
L 1166.963903 1336.133604 
L 1160.253794 1337.092191 
L 1153.224141 1338.050802 
L 1146.514009 1338.370323 
L 1137.567182 1339.648431 
L 1129.259397 1341.246084 
L 1122.868809 1341.565628 
L 1115.20009 1342.843736 
L 1110.407132 1343.163258 
L 1097.945478 1344.441389 
L 1089.637717 1344.76091 
L 1084.844759 1344.76091 
L 1080.051824 1346.039042 
L 1076.217453 1347.31715 
L 1073.022171 1349.553868 
L 1070.146386 1351.151521 
L 1068.868278 1354.027282 
L 1068.229212 1358.820217 
L 1068.229212 1363.932696 
L 1068.229212 1370.003763 
L 1069.187799 1373.199068 
L 1068.548734 1377.672482 
L 1068.229212 1383.424027 
L 1068.548734 1388.856027 
L 1068.868278 1394.607549 
L 1069.187799 1400.99816 
L 1069.507344 1405.791095 
L 1071.104973 1412.181706 
L 1072.383105 1416.335575 
L 1074.300279 1421.128533 
L 1078.773692 1422.726186 
L 1082.288519 1424.323838 
L 1086.12289 1426.241012 
L 1094.11113 1425.282425 
L 1108.809503 1422.08712 
L 1123.188331 1419.850401 
L 1134.052355 1417.933227 
L 1142.040595 1416.016053 
L 1153.863183 1414.09888 
L 1167.283447 1412.501227 
L 1176.230275 1410.264508 
L 1186.455233 1408.666879 
L 1197.638779 1408.027813 
L 1206.581442 1408.669794 
" style="fill:none;stroke:#000000;stroke-linecap:square;stroke-width:1.5;"/>
   </g>
  </g>
 </g>
 <defs>
  <clipPath id="pf51ca319f7">
   <rect height="1895.76" width="2313.36" x="0" y="0"/>
  </clipPath>
 </defs>
</svg>
