<?xml version="1.0" encoding="utf-8" standalone="no"?>
<!DOCTYPE svg PUBLIC "-//W3C//DTD SVG 1.1//EN"
  "http://www.w3.org/Graphics/SVG/1.1/DTD/svg11.dtd">
<!-- Created with matplotlib (https://matplotlib.org/) -->
<svg height="642.96pt" version="1.1" viewBox="0 0 803.52 642.96" width="803.52pt" xmlns="http://www.w3.org/2000/svg" xmlns:xlink="http://www.w3.org/1999/xlink">
 <defs>
  <style type="text/css">
*{stroke-linecap:butt;stroke-linejoin:round;}
  </style>
 </defs>
 <g id="figure_1">
  <g><image xlink:href="../../img/cb/rockhyrax_cor_cell.json.cb-50%25.png" width="803.52px" height="642.9599999999999px"/></g>

  <g id="patch_1">
   <path d="M 0 642.96 
L 803.52 642.96 
L 803.52 0 
L 0 0 
z
" style="fill:none;"/>
  </g>
  <g id="axes_1">
   <g id="line2d_1">
    <path clip-path="url(#p7f87281d53)" d="M 580.270967 340.251573 
L 576.67998 330.504602 
L 567.959008 325.887616 
L 555.647049 326.913615 
L 544.874079 328.452613 
L 535.640116 330.504602 
L 527.945134 339.738573 
L 524.867147 348.972545 
L 536.153115 353.58953 
L 551.030063 353.076531 
L 562.829023 353.076531 
L 573.601992 349.998535 
L 580.270967 340.251573 
" style="fill:none;stroke:#000000;stroke-linecap:square;stroke-width:1.5;"/>
   </g>
   <g id="line2d_2">
    <path clip-path="url(#p7f87281d53)" d="M 579.382877 204.636633 
L 577.033626 194.299951 
L 570.925588 180.674324 
L 561.998457 171.277335 
L 551.661774 168.458241 
L 542.264785 172.217035 
L 532.867803 178.325073 
L 525.820065 184.433119 
L 521.12157 193.8301 
L 520.65172 202.287389 
L 531.458252 206.046184 
L 545.083878 209.80497 
L 559.649205 215.443165 
L 573.744682 219.201959 
L 579.382877 212.624072 
L 579.382877 204.636633 
" style="fill:none;stroke:#000000;stroke-linecap:square;stroke-width:1.5;"/>
   </g>
   <g id="line2d_3">
    <path clip-path="url(#p7f87281d53)" d="M 568.985007 259.710834 
L 563.342022 250.476862 
L 555.13405 242.268889 
L 547.952075 238.677902 
L 537.692105 238.164903 
L 529.997132 241.75589 
L 524.354147 252.528859 
L 527.432143 263.301821 
L 538.205104 268.431806 
L 548.465075 273.048792 
L 560.264035 276.126779 
L 570.523997 272.022793 
L 568.985007 259.710834 
" style="fill:none;stroke:#000000;stroke-linecap:square;stroke-width:1.5;"/>
   </g>
   <g id="line2d_4">
    <path clip-path="url(#p7f87281d53)" d="M 442.186907 81.536139 
L 432.789918 77.307495 
L 421.513543 71.199457 
L 409.76731 66.500962 
L 397.551227 63.681869 
L 382.9859 64.621569 
L 371.239675 66.500962 
L 355.264797 69.789906 
L 341.169321 73.07885 
L 332.24219 78.247195 
L 327.073845 85.764784 
L 318.616563 93.282364 
L 314.387919 100.799953 
L 310.629125 110.666793 
L 298.882892 119.124074 
L 284.317565 122.882868 
L 270.691939 128.051213 
L 256.126612 133.21955 
L 244.380387 140.737139 
L 232.164304 149.194428 
L 222.767322 158.121559 
L 215.719584 167.518541 
L 211.49094 176.91553 
L 210.551239 189.131606 
L 213.370341 200.877839 
L 219.948229 209.335128 
L 227.935659 212.624072 
L 235.453248 210.74467 
L 241.091443 199.468288 
L 247.199481 186.782362 
L 256.126612 175.97583 
L 265.053752 167.518541 
L 274.450733 159.53111 
L 283.847723 153.892915 
L 291.365303 148.724577 
L 302.171836 142.14669 
L 314.387919 137.918045 
L 302.171836 143.556232 
L 293.714555 148.254727 
L 284.787415 154.362765 
L 276.330134 160.470802 
L 268.342696 167.518541 
L 259.415556 174.566279 
L 252.367818 182.553718 
L 245.78993 191.950707 
L 239.681892 204.166782 
L 237.802499 215.443165 
L 242.970836 221.551203 
L 252.837668 222.490903 
L 259.885406 218.732109 
L 266.463294 206.516026 
L 274.920583 193.36025 
L 285.257266 180.674324 
L 293.714555 168.458241 
L 304.990937 158.591409 
L 316.737162 152.953222 
L 330.832639 146.845176 
L 342.109021 145.905484 
L 351.036153 143.556232 
L 366.07133 139.327588 
L 381.106507 136.978344 
L 396.141684 139.797438 
L 412.586403 140.737139 
L 428.561281 143.086382 
L 442.186907 147.315027 
L 457.222076 152.483372 
L 469.90801 158.121559 
L 482.124085 166.108998 
L 491.051224 175.97583 
L 498.098962 188.191913 
L 507.026094 193.36025 
L 515.013533 191.011007 
L 522.531121 182.083867 
L 522.531121 175.036129 
L 515.483383 166.108998 
L 509.375345 157.651709 
L 501.387906 150.13412 
L 491.990925 141.206989 
L 483.533636 135.098951 
L 468.968309 127.581363 
L 464.269814 125.232111 
L 456.752234 122.413018 
L 445.006001 120.533625 
L 433.259768 119.593924 
L 441.247207 119.593924 
L 451.114038 120.533625 
L 462.390421 122.882868 
L 468.498459 126.171812 
L 477.425598 130.870307 
L 488.232131 136.978344 
L 498.568813 146.375326 
L 506.086401 153.892915 
L 512.194439 160.00096 
L 520.181878 169.867792 
L 527.699458 175.036129 
L 537.566298 170.807493 
L 544.614036 167.988391 
L 550.722074 160.470802 
L 548.37283 151.543671 
L 541.325092 138.857746 
L 530.988402 130.870307 
L 520.181878 125.232111 
L 506.556244 120.533625 
L 495.279869 118.184373 
L 483.533636 113.485886 
L 471.787403 107.377841 
L 466.619066 99.86026 
L 459.571328 90.933121 
L 449.704496 85.764784 
L 442.186907 81.536139 
" style="fill:none;stroke:#000000;stroke-linecap:square;stroke-width:1.5;"/>
   </g>
   <g id="line2d_5">
    <path clip-path="url(#p7f87281d53)" d="M 493.400468 194.299951 
L 482.124085 187.722063 
L 471.787403 184.902969 
L 460.51102 184.902969 
L 451.114038 183.963268 
L 447.445375 189.617864 
L 443.571645 195.041045 
L 439.837656 198.29367 
L 429.266048 199.468288 
L 422.923086 201.112764 
L 417.519823 206.985876 
L 408.592684 210.27482 
L 401.075096 210.979596 
L 391.443189 210.979596 
L 383.9256 210.27482 
L 378.522338 204.871558 
L 373.588918 199.703213 
L 366.030342 195.867449 
L 356.695658 194.089412 
L 347.80548 192.755891 
L 336.248251 191.866868 
L 326.469059 190.977853 
L 315.800853 191.422361 
L 305.577145 192.311375 
L 293.130902 196.311957 
L 283.796217 202.97959 
L 275.795054 212.314274 
L 271.349974 222.982489 
L 271.349974 234.095203 
L 272.683495 241.651858 
L 268.682914 248.763999 
L 269.127429 258.543191 
L 274.461532 267.433368 
L 285.129739 273.656486 
L 297.131483 276.768053 
L 311.355764 278.101574 
L 323.802007 277.657067 
L 337.137274 273.211978 
L 350.472532 268.322383 
L 363.807798 266.544345 
L 377.143064 267.877875 
L 390.47833 268.76689 
L 403.369081 269.655912 
L 418.926891 272.322964 
L 426.483539 274.545508 
L 439.37429 278.990597 
L 449.15349 282.546663 
L 461.155226 283.435678 
L 474.490484 282.102156 
L 484.269684 278.101574 
L 491.381825 271.878457 
L 498.049458 270.544927 
L 492.715346 276.768053 
L 477.602051 283.435678 
L 464.266785 285.213715 
L 451.376034 284.769208 
L 440.263312 281.657649 
L 432.26215 278.546082 
L 418.037869 274.990016 
L 405.591625 272.767471 
L 392.256359 270.544927 
L 377.587571 268.322383 
L 366.474849 268.322383 
L 354.028606 270.544927 
L 342.915884 274.100993 
L 330.469641 278.990597 
L 323.802007 281.657649 
L 311.355764 283.880193 
L 299.798535 282.99117 
L 289.13032 281.657649 
L 278.906621 279.879612 
L 268.238407 276.768053 
L 260.681759 277.657067 
L 256.056023 286.38675 
L 251.952037 298.698709 
L 247.84805 307.932672 
L 242.205066 318.192642 
L 240.153077 327.426614 
L 241.692066 338.712575 
L 250.926038 348.459545 
L 263.750997 355.12852 
L 275.036957 358.206516 
L 286.835925 356.154519 
L 296.582888 353.076531 
L 305.30386 347.946546 
L 309.920846 336.147586 
L 316.589829 327.426614 
L 323.771803 320.24464 
L 336.083762 317.166644 
L 347.882722 315.627654 
L 361.73368 315.114655 
L 374.045639 314.601655 
L 386.870598 313.575657 
L 396.617568 313.575657 
L 408.416528 315.114655 
L 421.241487 316.140653 
L 430.475459 316.653644 
L 439.709422 318.705642 
L 450.482391 319.73164 
L 462.281351 318.705642 
L 465.359339 327.426614 
L 465.872339 336.147586 
L 469.976325 347.946546 
L 479.210296 352.563532 
L 491.522256 353.58953 
L 504.347214 350.511535 
L 514.607184 345.894549 
L 521.789159 337.686576 
L 529.997132 329.991602 
L 533.075119 320.757631 
L 528.971133 311.523667 
L 524.354147 301.263697 
L 522.302158 289.464737 
L 516.659174 275.61378 
L 514.094185 265.866809 
L 509.477199 256.119847 
L 509.477199 243.294888 
L 512.555187 233.547917 
L 509.990199 222.774956 
L 508.451201 213.027985 
L 502.808216 202.768015 
L 493.400468 194.299951 
" style="fill:none;stroke:#000000;stroke-linecap:square;stroke-width:1.5;"/>
   </g>
   <g id="line2d_6">
    <path clip-path="url(#p7f87281d53)" d="M 477.158299 374.109463 
L 471.515323 367.953479 
L 462.281351 370.518475 
L 447.917395 374.109463 
L 430.475459 379.239448 
L 413.546513 381.291437 
L 394.052572 383.343434 
L 377.123627 383.343434 
L 364.811668 382.830435 
L 354.038706 378.213449 
L 343.778736 375.648452 
L 339.16175 380.265438 
L 350.96071 394.629395 
L 366.350665 400.78537 
L 384.8186 406.428355 
L 405.338541 408.993343 
L 424.319475 407.967353 
L 439.196423 405.915355 
L 460.229362 395.655393 
L 472.028322 386.934421 
L 477.158299 380.265438 
L 477.158299 374.109463 
" style="fill:none;stroke:#000000;stroke-linecap:square;stroke-width:1.5;"/>
   </g>
   <g id="line2d_7">
    <path clip-path="url(#p7f87281d53)" d="M 466.149215 171.277335 
L 453.933132 164.229597 
L 442.656757 158.591409 
L 427.15173 153.423064 
L 410.70701 150.13412 
L 397.081376 147.784877 
L 383.45575 149.194428 
L 369.360274 151.543671 
L 357.614049 152.953222 
L 344.458265 158.591409 
L 337.410527 168.458241 
L 343.988415 177.385381 
L 358.553741 180.204474 
L 374.528619 182.083867 
L 390.973339 182.553718 
L 405.068815 182.553718 
L 416.345198 182.083867 
L 429.500974 180.204474 
L 444.536151 180.204474 
L 458.161777 177.385381 
L 466.149215 171.277335 
" style="fill:none;stroke:#000000;stroke-linecap:square;stroke-width:1.5;"/>
   </g>
   <g id="line2d_8">
    <path clip-path="url(#p7f87281d53)" d="M 457.664366 327.939613 
L 449.456393 323.835627 
L 436.118435 321.27063 
L 422.780477 321.27063 
L 406.87753 320.757631 
L 393.026573 319.73164 
L 378.149625 319.218641 
L 364.811668 320.24464 
L 351.47371 319.73164 
L 338.135752 321.78363 
L 325.310793 326.400615 
L 315.56383 334.608588 
L 310.433845 346.407548 
L 317.61582 352.050533 
L 334.031765 354.10253 
L 352.499708 358.719507 
L 368.915654 361.797503 
L 387.896596 363.336493 
L 404.825541 362.823494 
L 424.319475 358.206516 
L 439.709422 353.076531 
L 455.099377 348.459545 
L 460.229362 340.764572 
L 460.229362 332.0436 
L 457.664366 327.939613 
" style="fill:none;stroke:#000000;stroke-linecap:square;stroke-width:1.5;"/>
   </g>
  </g>
 </g>
 <defs>
  <clipPath id="p7f87281d53">
   <rect height="642.96" width="803.52" x="0" y="0"/>
  </clipPath>
 </defs>
</svg>
