<?xml version="1.0" encoding="utf-8" standalone="no"?>
<!DOCTYPE svg PUBLIC "-//W3C//DTD SVG 1.1//EN"
  "http://www.w3.org/Graphics/SVG/1.1/DTD/svg11.dtd">
<!-- Created with matplotlib (https://matplotlib.org/) -->
<svg height="403.2pt" version="1.1" viewBox="0 0 504 403.2" width="504pt" xmlns="http://www.w3.org/2000/svg" xmlns:xlink="http://www.w3.org/1999/xlink">
 <defs>
  <style type="text/css">
*{stroke-linecap:butt;stroke-linejoin:round;}
  </style>
 </defs>
 <g id="figure_1">
  <g><image xlink:href="../../img/cb/sheep_cor_cell.json.cb-50%25.png" width="504.0px" height="403.2px"/></g>

  <g id="patch_1">
   <path d="M 0 403.2 
L 504 403.2 
L 504 0 
L 0 0 
z
" style="fill:none;"/>
  </g>
  <g id="axes_1">
   <g id="line2d_1">
    <path clip-path="url(#pebf50e24ed)" d="M 260.600347 28.820393 
L 257.843845 29.532969 
L 259.587035 27.0925 
L 262.027503 25.523628 
L 265.165251 23.954752 
L 268.651636 23.08316 
L 275.798724 21.514283 
L 279.285108 21.514283 
L 282.422851 20.817009 
L 284.166046 18.725178 
L 283.643086 16.807664 
L 282.248533 14.541514 
L 280.505343 12.275369 
L 277.716232 10.009218 
L 274.404171 8.091705 
L 270.917786 6.87147 
L 267.780038 6.348515 
L 264.642296 5.999873 
L 261.330229 5.999873 
L 258.018163 6.522834 
L 254.706097 7.220107 
L 252.61427 8.266023 
L 248.604925 10.706492 
L 248.08197 12.624006 
L 247.733328 14.367195 
L 248.08197 17.85358 
L 248.604925 19.073814 
L 247.384691 20.294049 
L 246.687417 21.514283 
L 245.467182 22.385881 
L 245.815819 20.294049 
L 245.815819 17.85358 
L 244.769903 15.58743 
L 243.201032 14.890156 
L 240.760563 15.064474 
L 239.017368 15.761748 
L 237.274178 16.981983 
L 235.705302 18.550859 
L 234.136431 20.294049 
L 232.741878 22.037244 
L 232.044599 24.82635 
L 232.393241 27.615455 
L 233.787794 29.184332 
L 235.705302 30.753203 
L 236.751218 31.799119 
L 236.751218 33.193672 
L 238.320094 35.285504 
L 240.411921 35.634141 
L 243.201032 36.505738 
L 247.036054 37.551654 
L 244.595585 37.551654 
L 241.980798 37.203012 
L 239.714647 37.37733 
L 237.622815 38.074609 
L 235.879626 39.294844 
L 234.485068 40.863715 
L 233.613475 42.781229 
L 233.962112 44.698742 
L 235.530984 46.441932 
L 238.494413 47.662166 
L 240.58624 48.185127 
L 243.898306 48.359445 
L 248.953562 49.056719 
L 250.696757 50.974232 
L 247.210372 49.928316 
L 245.11854 49.928316 
L 242.503753 50.799914 
L 240.411921 51.671506 
L 238.668731 53.414701 
L 237.274178 54.983573 
L 236.576899 56.901086 
L 237.797134 59.690192 
L 239.888966 62.827939 
L 242.155116 64.222492 
L 244.595585 64.745448 
L 246.687417 65.617045 
L 249.999478 66.140006 
L 251.568354 66.83728 
L 252.61427 68.231832 
L 252.09131 70.84662 
L 250.696757 73.287089 
L 248.779243 74.507328 
L 250.696757 72.241178 
L 251.394031 70.323664 
L 251.394031 68.754793 
L 250.522438 67.36024 
L 248.08197 66.488643 
L 244.769903 66.140006 
L 241.457837 65.965682 
L 238.494413 66.488643 
L 236.402581 67.185917 
L 232.916196 69.800709 
L 232.044599 71.36958 
L 231.347325 73.11277 
L 231.521643 75.901881 
L 231.347325 77.645071 
L 234.485068 79.736903 
L 231.521643 78.690987 
L 230.824364 80.08554 
L 230.824364 82.003053 
L 230.475727 86.012393 
L 228.906856 85.315119 
L 227.686622 85.838075 
L 226.815024 87.232627 
L 225.943427 84.269203 
L 225.59479 81.654411 
L 224.897511 71.36958 
L 225.071829 68.929111 
L 225.420471 66.488643 
L 225.071829 64.396811 
L 223.677276 63.176576 
L 221.759768 62.653621 
L 220.713852 61.782024 
L 219.842255 58.469957 
L 219.667936 53.937657 
L 220.190892 50.974232 
L 222.108405 47.662166 
L 226.989343 43.304184 
L 228.558214 42.432592 
L 231.347325 41.038039 
L 234.310749 38.771888 
L 235.705302 36.854375 
L 235.530984 34.936862 
L 235.530984 33.019353 
L 234.310749 31.10184 
L 232.393241 29.707287 
L 229.952772 29.35865 
L 226.989343 30.230248 
L 224.548874 31.799119 
L 222.108405 33.716627 
L 220.888171 35.111185 
L 218.796339 36.680057 
L 217.401786 38.074609 
L 215.832915 39.992123 
L 214.786999 41.735313 
L 214.264038 44.3501 
L 214.438362 48.185127 
L 214.438362 54.809254 
L 214.08972 57.075404 
L 213.392446 62.479297 
L 213.218127 65.268408 
L 213.741083 69.626385 
L 213.566764 74.333004 
L 214.438362 78.516668 
L 215.658596 82.87465 
L 217.401786 88.452862 
L 218.970657 92.636526 
L 220.198744 95.58229 
L 221.070342 98.894351 
L 220.896023 103.252333 
L 219.850107 107.435997 
L 218.804191 110.399421 
L 217.583957 113.188527 
L 216.01508 115.280358 
L 212.703019 118.418106 
L 216.712359 113.014208 
L 217.758275 110.748058 
L 219.501465 105.692802 
L 220.024426 103.252333 
L 219.327147 100.811864 
L 218.106912 99.417311 
L 216.538041 98.894351 
L 214.620528 98.894351 
L 213.051656 99.59163 
L 211.308466 100.986183 
L 210.436869 103.078014 
L 208.693674 108.133271 
L 207.647758 110.399421 
L 205.207289 112.665571 
L 207.124803 110.050784 
L 208.519356 107.261673 
L 209.565271 104.646886 
L 210.088227 102.729378 
L 211.308466 100.637546 
L 212.703019 98.894351 
L 213.400293 96.976842 
L 213.225975 95.059329 
L 212.354377 92.967502 
L 210.785506 92.270223 
L 208.867992 92.095905 
L 211.831422 91.224307 
L 213.051656 89.481118 
L 214.097572 87.563604 
L 214.097572 84.948817 
L 213.051656 82.33403 
L 211.831422 80.416516 
L 210.436869 78.847645 
L 208.519356 78.150366 
L 206.950484 78.673326 
L 208.867992 76.930132 
L 209.565271 74.315344 
L 209.042316 71.874876 
L 207.647758 67.168256 
L 204.161378 62.113 
L 201.895228 59.84685 
L 199.803396 58.277979 
L 197.711564 56.883421 
L 195.096777 56.186147 
L 193.179264 56.534784 
L 191.436074 57.755018 
L 191.087437 59.672532 
L 192.133348 62.984593 
L 193.179264 65.599385 
L 194.922459 67.691212 
L 196.49133 68.388491 
L 198.060201 69.434407 
L 198.583162 69.957362 
L 196.839967 69.783044 
L 194.573822 70.82896 
L 193.179264 72.223512 
L 191.784711 73.792384 
L 191.087437 75.884216 
L 191.610392 78.150366 
L 193.353587 80.590835 
L 195.096777 81.113795 
L 195.445414 83.728583 
L 195.096777 86.517688 
L 193.179264 91.398626 
L 192.307671 94.013413 
L 191.959029 95.930927 
L 192.133348 98.371395 
L 192.656308 100.637546 
L 193.353587 104.298249 
L 192.48199 105.692802 
L 192.48199 103.426651 
L 192.133348 101.85778 
L 190.913113 100.288909 
L 189.169924 99.242993 
L 187.949689 98.720032 
L 184.811941 99.59163 
L 188.298326 96.976842 
L 191.261755 92.444542 
L 192.830627 90.527028 
L 194.399498 86.517688 
L 194.74814 84.60018 
L 193.876543 82.682667 
L 192.656308 80.939472 
L 191.087437 79.3706 
L 188.646968 78.847645 
L 187.078092 79.3706 
L 185.334902 80.590835 
L 181.151238 84.60018 
L 184.637623 80.590835 
L 187.601052 77.453092 
L 188.646968 76.058534 
L 190.041521 73.269428 
L 192.133348 69.783044 
L 191.784711 64.379151 
L 190.913113 61.241403 
L 190.21584 57.406381 
L 189.344242 54.268633 
L 187.775371 52.002483 
L 185.857857 50.259293 
L 183.417389 49.910656 
L 180.97692 50.259293 
L 178.013496 50.956567 
L 176.618943 51.828165 
L 177.839177 54.268633 
L 179.059411 57.929337 
L 179.23373 61.59004 
L 178.885088 65.076425 
L 177.490535 67.865535 
L 175.747345 70.306004 
L 174.178469 73.09511 
L 172.631184 74.840265 
L 169.493441 77.106416 
L 171.93391 74.317305 
L 173.154144 72.399797 
L 173.502781 69.610686 
L 174.025742 67.344535 
L 176.46621 64.55543 
L 177.860763 61.592005 
L 178.035082 58.802895 
L 177.337803 56.536744 
L 175.594613 53.921957 
L 172.631184 52.701723 
L 169.319123 52.876041 
L 166.355693 53.921957 
L 163.217951 55.490833 
L 160.777477 57.059705 
L 158.337008 58.977213 
L 156.768137 61.766324 
L 156.245181 65.252709 
L 156.593818 67.518859 
L 155.722221 70.482283 
L 154.327668 73.271389 
L 153.281752 76.0605 
L 151.538562 79.546884 
L 150.666965 83.033269 
L 150.492646 80.244158 
L 151.364244 77.629371 
L 152.584478 75.537539 
L 154.850628 71.005244 
L 155.373584 68.739093 
L 155.373584 66.298625 
L 154.850628 65.252709 
L 153.107433 66.995898 
L 151.18992 68.739093 
L 149.795367 71.005244 
L 149.44673 73.09707 
L 149.098093 75.886181 
L 148.226496 77.978008 
L 145.611708 82.33599 
L 144.740111 86.171012 
L 145.611708 89.657397 
L 147.529217 92.795144 
L 151.364244 96.107211 
L 155.722221 100.465188 
L 157.465416 102.905657 
L 158.162689 105.171807 
L 158.162689 108.309555 
L 158.511331 111.795939 
L 158.337008 114.933682 
L 158.511331 117.709054 
L 160.603158 118.929288 
L 163.915224 120.323841 
L 168.273207 123.984544 
L 172.979826 127.470929 
L 176.814847 129.214124 
L 179.952595 129.562761 
L 183.090338 129.0398 
L 180.126914 130.434358 
L 179.429635 133.223464 
L 179.952595 136.01257 
L 182.21874 138.453039 
L 183.961935 141.590786 
L 182.044422 140.196234 
L 180.126914 138.104402 
L 177.512121 132.177548 
L 175.94325 130.782995 
L 174.374379 129.911398 
L 171.236631 127.122292 
L 168.970481 126.076376 
L 166.70433 123.810226 
L 164.089543 122.241354 
L 161.474756 120.49816 
L 159.382924 119.975204 
L 157.465416 120.672478 
L 156.245181 122.938628 
L 155.722221 125.204779 
L 156.245181 135.663933 
L 155.373584 141.765105 
L 155.373584 144.728529 
L 155.024947 147.169003 
L 154.327668 150.481064 
L 155.547902 153.270175 
L 157.814052 155.884962 
L 160.254521 157.453834 
L 162.346353 159.894302 
L 162.877483 161.95033 
L 164.269753 164.753654 
L 164.61839 166.322525 
L 161.829284 166.496844 
L 158.3429 165.973888 
L 156.599705 164.927972 
L 155.030833 162.138866 
L 153.636281 159.349756 
L 151.893086 156.734968 
L 151.544449 154.468818 
L 151.718767 150.808115 
L 152.067404 147.670372 
L 151.544449 144.009669 
L 150.672851 139.826005 
L 149.452617 138.431452 
L 148.929661 136.862581 
L 149.975577 134.596431 
L 150.498533 132.155962 
L 150.498533 129.018214 
L 150.149896 126.403427 
L 148.584946 120.838949 
L 148.759264 118.049844 
L 149.80518 115.783693 
L 150.32814 113.343224 
L 150.676777 109.85684 
L 150.502459 105.847494 
L 149.282225 102.709752 
L 146.493114 100.443601 
L 143.52969 99.746322 
L 140.740584 99.572004 
L 137.428518 100.443601 
L 132.54758 102.88407 
L 130.804385 104.278623 
L 129.235514 106.370455 
L 127.492324 107.765008 
L 126.446408 109.682521 
L 126.097766 111.774348 
L 126.097766 118.572799 
L 125.749129 120.14167 
L 125.749129 122.407821 
L 126.272089 124.499652 
L 130.455748 126.242847 
L 135.336686 127.11444 
L 139.520349 127.986037 
L 144.052645 128.683316 
L 147.016074 128.508993 
L 145.79584 129.903551 
L 143.704008 130.426506 
L 141.089221 130.775143 
L 138.474433 130.426506 
L 136.382602 129.903551 
L 134.465088 129.031953 
L 132.896217 127.986037 
L 130.804385 127.288758 
L 128.712558 126.242847 
L 126.272089 125.37125 
L 124.354576 124.151016 
L 122.960023 125.022608 
L 121.56547 126.591484 
L 120.693873 128.857635 
L 119.996594 131.472422 
L 119.125002 133.738572 
L 118.950678 136.35336 
L 119.996594 138.793828 
L 121.56547 139.665426 
L 124.180258 140.88566 
L 125.923447 141.059979 
L 128.189598 140.3627 
L 126.620726 141.931576 
L 126.620726 143.674766 
L 127.666642 145.940916 
L 130.107111 148.555704 
L 133.419177 150.473217 
L 136.208283 150.647535 
L 138.300115 149.775938 
L 140.740584 148.207067 
L 142.658092 146.812514 
L 142.309455 148.381385 
L 140.391942 149.601619 
L 138.82307 151.170491 
L 138.474433 152.565044 
L 139.171707 154.831194 
L 141.089221 157.097344 
L 148.933583 160.758048 
L 150.676777 163.198516 
L 148.933583 161.803963 
L 147.016074 161.281008 
L 145.098561 161.281008 
L 143.181053 161.803963 
L 141.612176 163.198516 
L 140.914902 164.418751 
L 139.868986 166.85922 
L 138.82307 168.951051 
L 137.254199 171.042883 
L 138.474433 168.079454 
L 140.043305 165.638985 
L 141.437858 163.024198 
L 141.960818 161.281008 
L 141.263539 159.712132 
L 137.428518 154.13392 
L 135.511004 153.088004 
L 133.767814 152.565044 
L 131.153027 153.262323 
L 128.712558 154.656876 
L 126.969363 156.40007 
L 123.134342 162.152605 
L 120.868191 165.11603 
L 120.170912 166.336264 
L 119.29932 162.501242 
L 120.868191 159.712132 
L 122.785705 157.097344 
L 124.528895 155.179836 
L 125.051855 153.088004 
L 124.354576 152.042088 
L 123.134342 150.473217 
L 121.04251 149.775938 
L 118.950678 150.821854 
L 117.207488 152.565044 
L 115.638617 155.005518 
L 114.941338 157.794623 
L 115.289975 160.060774 
L 116.161572 162.326924 
L 117.730444 165.290348 
L 118.253404 167.207862 
L 119.125002 169.474012 
L 120.693873 172.786073 
L 122.785705 175.226542 
L 124.186144 177.471106 
L 125.580697 180.085893 
L 127.323892 182.526362 
L 130.112998 183.223641 
L 132.553467 183.223641 
L 135.516891 183.92092 
L 138.654639 185.141154 
L 139.700555 187.581623 
L 139.874873 189.499131 
L 138.131683 187.93026 
L 136.21417 187.058663 
L 134.296656 186.710026 
L 132.030511 187.581623 
L 130.984595 189.847768 
L 131.507551 192.462561 
L 134.47098 197.16918 
L 137.783041 199.783967 
L 141.443744 200.829883 
L 143.012621 202.050117 
L 142.663979 204.839223 
L 144.407174 208.499926 
L 147.021961 212.334948 
L 151.031301 213.729501 
L 153.820412 212.68359 
L 157.655434 211.811993 
L 159.049986 210.591758 
L 156.609518 207.105373 
L 159.747265 210.243121 
L 162.013416 210.940395 
L 165.151158 209.894479 
L 168.114588 208.499926 
L 169.334822 205.885139 
L 167.940269 203.618989 
L 166.022756 201.17852 
L 163.756606 199.783967 
L 160.9675 199.086688 
L 156.709239 198.455458 
L 154.851404 197.874886 
L 153.574142 196.945968 
L 152.64523 195.784823 
L 151.832424 193.926988 
L 150.787395 190.791896 
L 150.671279 189.282406 
L 150.322939 187.540688 
L 150.322939 185.79897 
L 150.439051 183.825024 
L 150.903512 188.353494 
L 151.832424 192.417503 
L 152.761342 194.159221 
L 154.851404 196.365396 
L 156.941467 197.178196 
L 157.306797 197.452196 
L 157.771253 197.574547 
L 158.352713 197.866454 
L 160.793181 198.738051 
L 163.407969 198.91237 
L 166.197074 199.261007 
L 170.380738 204.141944 
L 175.610313 206.408094 
L 181.014206 209.371524 
L 186.766741 209.371524 
L 191.299041 209.197205 
L 197.225895 208.674245 
L 202.97843 207.628329 
L 207.510731 206.059458 
L 212.21735 205.013542 
L 216.923964 204.141944 
L 222.437094 203.788726 
L 225.77058 203.258735 
L 229.954733 202.038339 
L 234.83567 200.818104 
L 239.019334 200.120831 
L 241.982758 200.120831 
L 246.863696 199.772189 
L 254.708063 199.423552 
L 256.451252 199.59787 
L 259.06604 199.249233 
L 264.469938 196.111485 
L 267.084725 195.762848 
L 269.525194 196.285809 
L 272.488618 198.900596 
L 276.672282 200.295149 
L 279.984348 200.992423 
L 283.122091 202.038339 
L 287.82871 205.001768 
L 294.278524 207.0936 
L 298.254504 209.359745 
L 303.30976 211.277259 
L 308.016379 213.717727 
L 314.640507 214.415006 
L 320.044405 214.589325 
L 325.622616 214.937962 
L 331.54947 217.378431 
L 342.008624 221.039134 
L 348.981394 223.305284 
L 356.128482 225.222798 
L 362.055335 226.61735 
L 366.936273 225.745753 
L 368.505144 224.176882 
L 371.294255 221.562094 
L 372.863126 218.598665 
L 376.000874 216.158196 
L 378.78998 213.020454 
L 381.732362 212.710897 
L 384.689683 214.59876 
L 389.744616 215.643088 
L 393.231001 215.294451 
L 396.194425 213.202619 
L 398.111939 210.413514 
L 399.157854 206.578492 
L 399.506491 203.615063 
L 402.644234 202.917789 
L 406.304937 202.394828 
L 410.488601 202.22051 
L 414.497941 201.348912 
L 418.507286 200.651638 
L 423.039582 200.128678 
L 426.874609 199.257085 
L 430.012351 197.862528 
L 433.150099 195.24774 
L 434.718971 192.632953 
L 435.764886 189.843847 
L 436.287847 187.054736 
L 436.810802 183.219715 
L 436.810802 179.384693 
L 436.636484 176.944224 
L 435.241931 173.980795 
L 433.324418 172.411924 
L 431.406904 172.063287 
L 426.525967 173.109203 
L 423.911179 173.806476 
L 422.690945 174.503755 
L 422.516627 177.815822 
L 421.645029 174.852392 
L 419.727521 174.503755 
L 417.46137 175.201029 
L 415.020902 176.421264 
L 413.103388 177.641498 
L 412.057472 178.513096 
L 412.231791 181.825162 
L 412.754751 186.880418 
L 412.754751 189.669529 
L 412.580433 192.98159 
L 412.057472 196.990935 
L 412.231791 191.761356 
L 412.580433 188.623613 
L 412.231791 185.485865 
L 411.708835 182.522441 
L 410.837238 179.907648 
L 409.442685 179.036056 
L 407.176535 179.384693 
L 404.387429 180.25629 
L 402.295597 181.302206 
L 399.855128 182.173799 
L 397.41466 183.219715 
L 394.451235 183.394033 
L 397.588978 182.348117 
L 400.203765 181.650843 
L 405.084703 179.210375 
L 407.002216 177.641498 
L 407.873814 176.246945 
L 409.965646 175.898308 
L 411.708835 175.375353 
L 413.800667 173.980795 
L 415.543857 172.237605 
L 416.589773 170.843052 
L 418.507286 167.705304 
L 420.250476 167.182349 
L 421.819348 166.136433 
L 423.388224 164.21892 
L 425.654374 159.337982 
L 425.131414 157.24615 
L 423.213906 156.723195 
L 420.947755 156.897513 
L 418.332968 157.24615 
L 417.635689 156.374558 
L 418.158644 154.631363 
L 420.947755 151.319302 
L 421.645029 149.401788 
L 421.645029 146.264041 
L 421.458287 143.146992 
L 420.418908 140.695642 
L 418.327076 138.429492 
L 416.060931 137.383576 
L 413.620457 136.686297 
L 411.179988 137.034934 
L 408.390882 137.906531 
L 408.042246 138.429492 
L 405.427458 140.521319 
L 403.509945 142.61315 
L 402.115392 144.356345 
L 400.895158 146.622491 
L 400.372197 148.365685 
L 401.592432 150.108875 
L 403.509945 152.200707 
L 405.601777 155.164136 
L 406.822011 157.604605 
L 406.647693 159.522114 
L 405.776095 161.613945 
L 404.0329 163.008498 
L 405.253135 161.09099 
L 405.950414 159.173477 
L 405.601777 157.430287 
L 404.904498 155.512773 
L 403.335626 153.769578 
L 401.766755 151.85207 
L 400.197879 150.283199 
L 397.931728 149.411601 
L 396.01422 149.760238 
L 393.573751 150.631836 
L 391.481919 152.026389 
L 389.215769 154.292539 
L 387.821216 156.384371 
L 386.426663 159.347795 
L 385.903703 161.788264 
L 385.903703 163.705777 
L 387.123937 165.971928 
L 390.087366 167.715117 
L 394.445344 168.586715 
L 392.353517 169.10967 
L 390.610322 169.806949 
L 389.913048 168.761033 
L 388.344172 167.36648 
L 385.03211 165.448967 
L 383.114597 165.10033 
L 381.894363 166.494883 
L 379.105257 170.155586 
L 378.233659 171.898781 
L 377.710699 174.164926 
L 377.53638 176.431077 
L 376.839107 178.174272 
L 376.141828 180.61474 
L 374.747275 182.532249 
L 372.655443 182.532249 
L 371.26089 180.963377 
L 370.563611 177.825635 
L 370.737935 174.513568 
L 371.958169 170.852865 
L 373.701359 167.540799 
L 377.53638 161.962582 
L 378.407978 158.82484 
L 378.582296 156.035729 
L 377.013425 148.888641 
L 376.141828 145.750898 
L 375.967509 139.824045 
L 376.490465 137.034934 
L 377.013425 131.282404 
L 376.672635 129.204311 
L 375.975361 127.286798 
L 379.287423 122.928816 
L 382.076533 120.314028 
L 386.608829 113.341259 
L 387.654745 110.552153 
L 389.39794 107.937366 
L 391.838409 104.6253 
L 394.453196 102.010512 
L 397.41662 98.349809 
L 397.939581 95.037743 
L 397.41662 92.945911 
L 393.755917 88.587934 
L 392.413397 85.482996 
L 390.461516 82.163632 
L 388.892645 78.502929 
L 386.452176 75.539505 
L 384.186025 73.447673 
L 381.396915 71.181523 
L 378.259172 68.392417 
L 368.671615 61.593966 
L 364.836594 60.373732 
L 361.350209 59.676453 
L 358.543478 59.66662 
L 355.757049 59.841361 
L 353.839535 60.53864 
L 351.922027 62.28183 
L 351.573385 64.722299 
L 351.747708 68.208684 
L 352.444982 70.474834 
L 355.05977 73.961219 
L 355.931367 76.576006 
L 356.628646 79.190793 
L 355.58273 80.585351 
L 354.711133 81.979904 
L 355.408412 84.246054 
L 358.023199 88.429713 
L 361.683902 91.741779 
L 358.546154 89.649948 
L 357.32592 90.347226 
L 357.674562 92.962014 
L 358.023199 94.356567 
L 358.197517 96.448398 
L 359.243433 101.677973 
L 360.289349 105.164358 
L 360.637986 108.127787 
L 356.802965 99.586141 
L 355.931367 96.622717 
L 354.885451 92.613377 
L 352.793624 85.814926 
L 351.399066 83.374457 
L 349.132916 81.456944 
L 346.866771 79.365117 
L 344.949258 77.79624 
L 343.380386 76.227369 
L 344.774939 75.181453 
L 347.215408 70.997795 
L 347.738363 67.337091 
L 347.738363 63.676383 
L 347.389726 60.53864 
L 345.646536 58.795446 
L 342.33447 58.446809 
L 339.022404 58.969769 
L 336.407617 59.841361 
L 334.664422 60.887277 
L 333.618506 62.630472 
L 333.09555 63.850707 
L 331.352361 64.199344 
L 329.08621 65.593896 
L 326.994378 67.337091 
L 325.599826 69.603237 
L 325.425507 72.043705 
L 325.774144 75.007135 
L 327.865976 81.805586 
L 329.260529 84.246054 
L 331.526679 87.732439 
L 333.269869 90.695863 
L 337.104891 98.54023 
L 340.06832 104.118442 
L 341.637191 106.733229 
L 343.206063 110.045295 
L 345.472213 113.183043 
L 348.435642 116.495109 
L 346.169492 114.926233 
L 343.903342 111.962809 
L 341.985828 108.999379 
L 339.196722 103.246849 
L 335.884656 97.145672 
L 334.315785 93.659293 
L 332.746914 90.521545 
L 331.352361 88.081076 
L 329.609166 86.512205 
L 327.691657 85.989244 
L 325.425507 86.512205 
L 323.159357 88.255395 
L 321.939122 90.172908 
L 321.764804 92.962014 
L 322.462078 96.099762 
L 324.205273 100.109102 
L 326.2971 105.687318 
L 328.040294 108.999379 
L 329.783484 111.962809 
L 330.655082 113.705999 
L 332.049635 115.972149 
L 333.269869 117.715344 
L 334.838745 120.330131 
L 335.710338 124.165153 
L 334.141466 121.201728 
L 333.09555 118.935578 
L 331.526679 117.192383 
L 329.609166 115.449193 
L 328.737568 115.623512 
L 328.214613 117.715344 
L 329.783484 122.421963 
L 327.343015 118.586936 
L 326.645742 117.018065 
L 326.2971 113.53168 
L 325.774144 111.091211 
L 324.902547 108.825061 
L 323.682312 106.907553 
L 322.113441 105.164358 
L 321.241843 103.595486 
L 320.370246 99.934783 
L 319.150012 93.833611 
L 318.452738 91.393142 
L 317.929777 88.429713 
L 318.104101 85.29197 
L 319.150012 83.200139 
L 319.847291 80.062391 
L 318.975693 77.273285 
L 316.883861 72.915303 
L 315.663627 69.603237 
L 314.269074 67.162768 
L 313.397482 64.547981 
L 313.397482 62.630472 
L 316.709543 63.502065 
L 319.324335 64.373662 
L 321.416162 62.28183 
L 322.287759 58.969769 
L 322.113441 56.354977 
L 320.718888 52.868592 
L 318.975693 49.730849 
L 316.883861 47.116062 
L 314.966353 45.198549 
L 311.828605 44.326951 
L 309.039499 44.152633 
L 306.599031 44.849912 
L 304.681517 46.76742 
L 303.984243 48.510615 
L 303.461283 50.602447 
L 301.892412 48.684933 
L 299.80058 46.941738 
L 297.360111 45.372867 
L 295.28987 44.68344 
L 292.326441 44.334804 
L 289.014375 44.509122 
L 286.573906 45.555038 
L 284.656398 47.995507 
L 285.005035 49.738697 
L 287.968464 51.830528 
L 290.75757 52.527807 
L 295.812826 52.527807 
L 301.391042 52.702126 
L 293.895312 53.050763 
L 290.408933 53.050763 
L 287.271185 53.225081 
L 278.555226 57.060103 
L 275.766115 58.803298 
L 273.848607 60.197851 
L 272.454054 61.418085 
L 273.674288 59.500577 
L 272.628372 58.628979 
L 269.141988 58.106019 
L 274.720199 57.583063 
L 277.160668 56.014192 
L 278.380907 54.096679 
L 278.206584 51.830528 
L 276.637712 50.261657 
L 274.720199 49.215741 
L 272.628372 48.867104 
L 268.793351 48.344144 
L 273.499965 47.995507 
L 275.417478 47.123909 
L 277.857947 45.729356 
L 280.472734 44.68344 
L 283.959119 42.591609 
L 286.225269 40.6741 
L 286.573906 38.059313 
L 283.7848 36.490437 
L 279.77546 35.444521 
L 275.417478 35.793163 
L 271.931093 36.316118 
L 267.747435 37.362034 
L 264.609687 38.582268 
L 261.471939 39.628184 
L 265.306966 37.710671 
L 279.426818 34.39861 
L 283.087521 33.352694 
L 286.573906 31.783818 
L 289.188698 29.691991 
L 289.537335 27.077198 
L 288.491419 25.15969 
L 285.702314 22.89354 
L 282.738884 22.370579 
L 278.555226 22.370579 
L 274.720199 22.719221 
L 270.362222 23.939456 
L 266.701519 25.334009 
L 263.215134 26.90288 
L 260.600347 28.820393 
L 260.600347 28.820393 
" style="fill:none;stroke:#000000;stroke-linecap:square;stroke-width:1.5;"/>
   </g>
   <g id="line2d_2">
    <path clip-path="url(#pebf50e24ed)" d="M 257.573383 95.943557 
L 260.191855 94.721599 
L 263.683153 94.023342 
L 267.872714 93.499646 
L 271.189447 92.975949 
L 273.807924 92.103127 
L 277.648353 91.055735 
L 280.790521 90.532043 
L 283.583558 89.833782 
L 286.551166 89.310085 
L 289.518768 89.13552 
L 291.089852 89.13552 
L 292.48637 89.484651 
L 293.708328 90.182912 
L 294.930282 90.532043 
L 295.977674 90.182912 
L 297.374193 88.262698 
L 297.025062 90.357478 
L 297.025062 92.277693 
L 299.294407 93.848777 
L 300.16723 96.118122 
L 297.374193 94.372473 
L 294.755716 92.103127 
L 291.962679 90.182912 
L 288.296815 90.008347 
L 283.059867 90.881169 
L 280.092259 91.579431 
L 275.204442 92.452258 
L 269.967494 93.848777 
L 264.381415 94.721599 
L 257.573383 95.943557 
" style="fill:none;stroke:#000000;stroke-linecap:square;stroke-width:1.5;"/>
   </g>
   <g id="line2d_3">
    <path clip-path="url(#pebf50e24ed)" d="M 244.830141 117.065915 
L 252.510996 111.828966 
L 253.907519 110.432448 
L 254.082084 108.861364 
L 253.209257 107.464841 
L 250.939912 105.719191 
L 256.875121 107.464841 
L 259.668158 107.464841 
L 268.221845 106.941149 
L 271.364013 106.242888 
L 274.50618 105.719191 
L 277.648353 105.544626 
L 280.790521 105.1955 
L 284.28182 105.544626 
L 286.725731 105.893757 
L 293.708328 107.464841 
L 296.152235 107.813971 
L 298.42158 108.512233 
L 298.945277 111.130705 
L 299.119842 113.225485 
L 298.945277 115.494831 
L 297.374193 110.781579 
L 294.23202 108.861364 
L 290.391595 107.464841 
L 285.503773 106.242888 
L 281.663343 105.893757 
L 277.473788 106.242888 
L 270.14206 107.115715 
L 265.254237 107.813971 
L 260.890116 107.813971 
L 257.573383 108.163102 
L 255.304038 109.559621 
L 254.256645 111.654401 
L 252.685561 112.876354 
L 248.845131 114.971134 
L 244.830141 117.065915 
" style="fill:none;stroke:#000000;stroke-linecap:square;stroke-width:1.5;"/>
   </g>
   <g id="line2d_4">
    <path clip-path="url(#pebf50e24ed)" d="M 247.255062 132.486984 
L 250.384604 130.549648 
L 253.663175 129.357436 
L 257.239796 128.612308 
L 260.965444 127.718156 
L 264.542065 127.12205 
L 269.310893 126.674972 
L 278.10342 126.376921 
L 287.193997 128.314257 
L 290.621596 129.357436 
L 293.900166 130.847699 
L 295.688474 133.083085 
L 292.260881 130.698671 
L 288.833283 129.655492 
L 284.213483 128.463285 
L 279.742705 127.718156 
L 275.420956 127.271078 
L 270.950178 127.12205 
L 266.330373 127.569128 
L 260.369338 128.612308 
L 256.047589 129.506464 
L 252.619996 130.549648 
L 247.255062 132.486984 
" style="fill:none;stroke:#000000;stroke-linecap:square;stroke-width:1.5;"/>
   </g>
   <g id="line2d_5">
    <path clip-path="url(#pebf50e24ed)" d="M 253.514147 151.264245 
L 252.02389 149.62496 
L 250.831683 147.985674 
L 250.235582 145.899311 
L 250.235582 144.558081 
L 252.02389 144.558081 
L 255.749538 143.514897 
L 258.28298 143.067819 
L 261.561545 142.620741 
L 268.416737 142.32269 
L 277.507319 142.32269 
L 280.934912 142.620741 
L 283.766404 143.365874 
L 290.02549 145.899311 
L 292.856982 146.64444 
L 292.111853 148.134702 
L 292.111853 150.519116 
L 291.664775 152.009374 
L 290.02549 152.90353 
L 291.068674 150.519116 
L 291.366724 147.240546 
L 289.429389 146.048339 
L 285.70374 144.707104 
L 280.487834 143.216847 
L 277.507319 142.918796 
L 273.78167 142.769768 
L 270.652128 142.769768 
L 262.90278 143.067819 
L 259.326159 143.663925 
L 256.047589 144.111003 
L 253.216097 145.005155 
L 251.576811 145.750288 
L 252.02389 147.389574 
L 253.067074 149.62496 
L 253.514147 151.264245 
" style="fill:none;stroke:#000000;stroke-linecap:square;stroke-width:1.5;"/>
   </g>
   <g id="line2d_6">
    <path clip-path="url(#pebf50e24ed)" d="M 263.922715 164.767403 
L 265.88273 164.685735 
L 268.006077 164.930734 
L 272.416113 164.685735 
L 273.967793 164.604066 
L 277.642819 164.032394 
L 276.74448 164.604066 
L 274.457796 164.930734 
L 272.007777 165.012402 
L 269.394421 165.257407 
L 267.189406 165.257407 
L 263.922715 164.767403 
" style="fill:none;stroke:#000000;stroke-linecap:square;stroke-width:1.5;"/>
   </g>
   <g id="line2d_7">
    <path clip-path="url(#pebf50e24ed)" d="M 170.242032 151.003364 
L 167.724043 151.339094 
L 166.213248 149.660436 
L 166.04538 147.981774 
L 165.373916 146.638845 
L 164.030988 145.967381 
L 162.016596 143.785127 
L 161.177265 141.099265 
L 164.030988 143.61726 
L 168.56337 146.806713 
L 170.242032 148.485375 
L 170.242032 151.003364 
" style="fill:none;stroke:#000000;stroke-linecap:square;stroke-width:1.5;"/>
   </g>
   <g id="line2d_8">
    <path clip-path="url(#pebf50e24ed)" d="M 163.792223 191.372469 
L 161.934394 190.32744 
L 160.541015 186.495659 
L 159.960442 184.173368 
L 159.728214 181.967194 
L 159.37987 180.109359 
L 159.37987 177.903185 
L 159.612103 175.580894 
L 160.424904 174.187516 
L 161.121588 173.258603 
L 162.282733 172.445797 
L 162.979422 173.142487 
L 163.327767 175.580894 
L 163.443879 178.019297 
L 163.443879 188.121261 
L 163.792223 191.372469 
L 163.792223 191.372469 
" style="fill:none;stroke:#000000;stroke-linecap:square;stroke-width:1.5;"/>
   </g>
   <g id="line2d_9">
    <path clip-path="url(#pebf50e24ed)" d="M 380.886191 147.826894 
L 383.809447 150.300415 
L 386.62027 151.649613 
L 389.206228 152.099343 
L 391.792182 151.424749 
L 394.265708 150.075551 
L 397.188963 148.83879 
L 399.43762 147.489597 
L 399.887349 145.465806 
L 398.650589 143.554446 
L 396.514364 142.54255 
L 393.028942 141.193352 
L 394.940302 141.193352 
L 397.188963 142.205248 
L 399.550052 142.430118 
L 401.911141 141.755519 
L 403.597636 140.406326 
L 405.284131 138.607399 
L 406.183589 136.583607 
L 406.745756 135.121977 
L 407.757652 133.323054 
L 408.544683 130.961961 
L 408.769548 128.038705 
L 408.657115 125.790049 
L 407.870084 123.766257 
L 406.970621 121.96733 
L 405.396563 120.28084 
L 403.8225 119.493809 
L 402.023573 119.044074 
L 400.449516 119.156507 
L 399.999781 120.393272 
L 399.887349 122.304632 
L 399.550052 124.103554 
L 398.875453 125.340319 
L 397.97599 126.464648 
L 396.739229 127.813841 
L 395.390036 128.938169 
L 393.478677 130.062497 
L 391.342452 130.961961 
L 388.868926 132.198721 
L 384.821343 134.33495 
L 387.969463 132.311159 
L 390.330557 131.074393 
L 392.354348 129.837632 
L 394.040838 128.600872 
L 396.06463 127.364111 
L 397.638693 125.677616 
L 398.538156 123.653825 
L 399.100318 121.96733 
L 399.325188 119.381376 
L 399.43762 117.470017 
L 398.875453 115.333793 
L 397.413828 114.321897 
L 394.265708 114.209464 
L 391.792182 114.097027 
L 388.756494 114.434329 
L 386.845134 114.996491 
L 385.383509 116.008386 
L 384.371613 117.132715 
L 383.809447 118.481913 
L 382.797551 120.05597 
L 381.785655 121.180303 
L 380.886191 122.754361 
L 379.986728 124.553288 
L 379.536998 126.914377 
L 379.312134 128.938169 
L 378.974832 131.411695 
L 379.087269 133.210617 
L 379.874295 135.121977 
L 380.436462 137.145768 
L 380.436462 138.607399 
L 380.548894 140.293889 
L 380.211597 141.867951 
L 379.424566 144.791207 
L 379.312134 147.039863 
L 380.886191 147.826894 
" style="fill:none;stroke:#000000;stroke-linecap:square;stroke-width:1.5;"/>
   </g>
   <g id="line2d_10">
    <path clip-path="url(#pebf50e24ed)" d="M 379.949069 236.03898 
L 379.20084 237.107879 
L 378.987059 238.711229 
L 378.773282 240.314574 
L 378.452612 241.917924 
L 378.131942 243.41438 
L 377.59749 244.697055 
L 376.849262 246.300405 
L 375.032136 248.117532 
L 373.963237 249.079542 
L 374.177019 251.644897 
L 374.711466 253.35513 
L 376.314816 255.813597 
L 376.528592 257.523835 
L 378.452612 259.340962 
L 380.590409 259.661632 
L 383.155764 259.12718 
L 385.400449 257.523835 
L 386.896905 255.27915 
L 387.645134 253.141353 
L 387.965804 250.896668 
L 388.82092 248.758872 
L 389.676042 246.727963 
L 389.889819 244.269497 
L 389.78293 242.024812 
L 389.46226 239.566345 
L 388.286474 237.749219 
L 386.576235 236.252762 
L 384.438439 235.290752 
L 382.193754 235.076975 
L 379.949069 236.03898 
" style="fill:none;stroke:#000000;stroke-linecap:square;stroke-width:1.5;"/>
   </g>
   <g id="line2d_11">
    <path clip-path="url(#pebf50e24ed)" d="M 369.153197 225.991342 
L 371.611664 226.09823 
L 374.070131 226.525789 
L 375.994146 225.884449 
L 377.063044 224.174215 
L 377.27682 222.570865 
L 378.88017 221.608855 
L 380.697297 220.219292 
L 380.376627 218.936612 
L 378.773282 218.295272 
L 377.063044 217.653937 
L 375.245917 217.974602 
L 373.321902 218.829724 
L 372.573669 219.791729 
L 371.825441 221.181297 
L 370.863436 222.570865 
L 369.794537 223.425982 
L 368.511857 224.708662 
L 367.977411 225.563779 
L 369.153197 225.991342 
" style="fill:none;stroke:#000000;stroke-linecap:square;stroke-width:1.5;"/>
   </g>
   <g id="line2d_12">
    <path clip-path="url(#pebf50e24ed)" d="M 367.229182 231.122052 
L 368.511857 233.794295 
L 368.939416 236.573432 
L 369.046309 239.031899 
L 369.046309 240.955914 
L 369.153197 242.77304 
L 368.939416 245.231507 
L 370.115207 246.941745 
L 371.184106 247.476192 
L 373.428791 248.331308 
L 374.925247 247.58308 
L 376.207927 246.086623 
L 377.383714 244.269497 
L 377.91816 242.45237 
L 378.5595 239.780127 
L 378.773282 237.535442 
L 379.307729 235.825204 
L 378.88017 233.901184 
L 377.91816 232.297839 
L 376.314816 230.90827 
L 373.856349 230.26693 
L 371.397882 229.732484 
L 369.153197 229.625595 
L 367.122289 230.694494 
L 367.229182 231.122052 
" style="fill:none;stroke:#000000;stroke-linecap:square;stroke-width:1.5;"/>
   </g>
   <g id="line2d_13">
    <path clip-path="url(#pebf50e24ed)" d="M 248.39452 225.721798 
L 251.879615 226.923556 
L 255.605052 227.404256 
L 258.729615 227.284082 
L 261.61383 227.764782 
L 264.978746 228.125308 
L 268.103309 228.485835 
L 271.588398 228.606008 
L 275.073488 228.606008 
L 280.120861 228.005135 
L 282.644546 227.404256 
L 285.648935 225.96215 
L 286.129635 224.159514 
L 286.369988 221.756008 
L 286.249809 219.833198 
L 285.408582 218.511266 
L 284.327004 217.549861 
L 282.524372 216.948987 
L 280.601562 216.348108 
L 277.717351 215.627056 
L 275.554188 215.026177 
L 272.429625 215.146351 
L 268.944535 215.26653 
L 266.180499 215.386703 
L 263.055936 215.26653 
L 259.931372 215.26653 
L 257.047162 215.146351 
L 254.28312 214.906003 
L 251.038383 214.906003 
L 248.39452 214.785824 
L 246.471715 215.627056 
L 245.51031 217.189335 
L 245.029609 219.232319 
L 245.149783 221.034951 
L 246.351536 224.279693 
L 248.39452 225.721798 
" style="fill:none;stroke:#000000;stroke-linecap:square;stroke-width:1.5;"/>
   </g>
   <g id="line2d_14">
    <path clip-path="url(#pebf50e24ed)" d="M 249.115573 213.944598 
L 251.278736 214.305124 
L 254.523473 214.425298 
L 256.566457 214.665651 
L 259.931372 214.785824 
L 263.897162 215.026177 
L 267.262078 214.785824 
L 271.46822 214.665651 
L 274.833135 214.545477 
L 276.395419 214.665651 
L 279.159456 215.506877 
L 282.043667 216.22793 
L 283.846298 215.74723 
L 284.807704 214.184951 
L 284.927882 212.382314 
L 283.605951 210.699856 
L 280.962088 209.257751 
L 278.198051 208.296346 
L 276.155067 207.815646 
L 274.712962 207.334945 
L 273.511204 206.493714 
L 271.46822 206.37354 
L 269.305062 206.013014 
L 266.060325 205.652488 
L 263.176109 205.412135 
L 260.892778 205.412135 
L 258.248915 205.412135 
L 255.605052 205.532309 
L 253.922594 205.772661 
L 252.720841 206.253361 
L 251.519083 207.214767 
L 250.557683 208.296346 
L 249.716452 209.618277 
L 249.115573 211.060382 
L 248.875225 212.382314 
L 249.115573 213.944598 
" style="fill:none;stroke:#000000;stroke-linecap:square;stroke-width:1.5;"/>
   </g>
   <g id="line2d_15">
    <path clip-path="url(#pebf50e24ed)" d="M 264.481479 201.767489 
L 266.749711 202.130405 
L 268.745753 201.858219 
L 270.288154 200.588008 
L 270.83253 199.589988 
L 270.106694 198.047586 
L 269.199403 196.77738 
L 266.749711 196.142275 
L 265.66096 196.32373 
L 264.66294 196.59592 
L 263.664914 196.868105 
L 262.666893 197.866131 
L 262.122517 198.864152 
L 262.303978 200.225088 
L 263.392728 201.495299 
L 264.481479 201.767489 
" style="fill:none;stroke:#000000;stroke-linecap:square;stroke-width:1.5;"/>
   </g>
   <g id="line2d_16">
    <path clip-path="url(#pebf50e24ed)" d="M 227.437348 64.743971 
L 229.797661 62.826216 
L 232.305494 60.170862 
L 234.22325 57.810549 
L 235.108369 56.187835 
L 236.583562 53.975038 
L 237.173646 51.909762 
L 237.321161 49.54945 
L 237.026125 47.779215 
L 235.550927 46.74658 
L 233.928213 46.156501 
L 232.157974 45.713939 
L 229.65014 45.713939 
L 227.732385 46.008981 
L 225.519593 46.599059 
L 223.601838 47.926736 
L 222.421681 49.69697 
L 221.684082 51.762246 
L 221.241525 53.532481 
L 221.241525 55.597757 
L 221.094004 57.663028 
L 221.241525 59.285747 
L 221.684082 60.90846 
L 222.716718 62.236138 
L 224.339437 63.416294 
L 225.667114 64.301414 
L 227.437348 64.743971 
" style="fill:none;stroke:#000000;stroke-linecap:square;stroke-width:1.5;"/>
   </g>
  </g>
 </g>
 <defs>
  <clipPath id="pebf50e24ed">
   <rect height="403.2" width="504" x="0" y="0"/>
  </clipPath>
 </defs>
</svg>
