<?xml version="1.0" encoding="utf-8" standalone="no"?>
<!DOCTYPE svg PUBLIC "-//W3C//DTD SVG 1.1//EN"
  "http://www.w3.org/Graphics/SVG/1.1/DTD/svg11.dtd">
<!-- Created with matplotlib (https://matplotlib.org/) -->
<svg height="450pt" version="1.1" viewBox="0 0 570.24 450" width="570.24pt" xmlns="http://www.w3.org/2000/svg" xmlns:xlink="http://www.w3.org/1999/xlink">
 <defs>
  <style type="text/css">
*{stroke-linecap:butt;stroke-linejoin:round;}
  </style>
 </defs>
 <g id="figure_1">
  <g><image xlink:href="../../img/cb/spottedhyena_cor_cell.json.cb-50%25.png" width="570.24px" height="450.0px"/></g>

  <g id="patch_1">
   <path d="M 0 450 
L 570.24 450 
L 570.24 0 
L 0 0 
z
" style="fill:none;"/>
  </g>
  <g id="axes_1">
   <g id="line2d_1">
    <path clip-path="url(#p90b3127bd4)" d="M 459.15471 290.648317 
L 461.677498 291.253787 
L 465.814868 291.657431 
L 469.851324 290.143757 
L 473.988694 286.309127 
L 476.612391 281.364462 
L 478.02515 275.915249 
L 478.630619 272.282438 
L 477.92424 268.145067 
L 476.814216 264.714076 
L 476.208747 262.494023 
L 474.089604 259.567591 
L 471.970467 257.448454 
L 467.631271 255.430226 
L 463.594816 255.026576 
L 459.76018 255.732961 
L 456.732838 257.751189 
L 453.100028 259.668507 
L 449.669036 261.182174 
L 446.036225 262.393113 
L 441.797945 263.503142 
L 438.165134 264.814991 
L 441.394301 266.934128 
L 444.623467 269.557825 
L 446.742604 273.190636 
L 450.07268 277.227097 
L 452.090914 281.263552 
L 454.81552 285.905477 
L 456.631923 288.932824 
L 459.15471 290.648317 
" style="fill:none;stroke:#000000;stroke-linecap:square;stroke-width:1.5;"/>
   </g>
   <g id="line2d_2">
    <path clip-path="url(#p90b3127bd4)" d="M 176.691099 313.469844 
L 177.108469 317.017486 
L 177.969292 320.173839 
L 181.699534 322.469374 
L 183.995064 322.756313 
L 188.586129 318.452193 
L 190.881664 315.58278 
L 190.020841 313.000305 
L 193.751078 313.861128 
L 197.768259 310.991715 
L 197.768259 308.122296 
L 199.48991 305.252882 
L 202.072385 302.096524 
L 198.055204 299.800994 
L 192.60331 299.514049 
L 186.864483 300.661817 
L 192.029432 299.514049 
L 198.629088 298.940166 
L 204.367914 300.661817 
L 205.149326 301.351636 
L 203.794031 303.387764 
L 200.637678 305.683293 
L 199.059499 308.552707 
L 198.485615 311.135181 
L 197.050908 312.282949 
L 198.772554 313.430717 
L 196.477025 313.143772 
L 195.042318 313.143772 
L 194.038023 314.004601 
L 191.88596 315.439307 
L 190.451253 317.447898 
L 190.738192 319.743427 
L 189.016546 320.747723 
L 187.294895 322.612847 
L 189.446958 325.48226 
L 186.864483 324.047553 
L 185.860188 324.047553 
L 185.714064 326.161011 
L 185.860188 328.228274 
L 188.380187 328.582495 
L 191.692186 327.862493 
L 202.780184 315.766494 
L 205.592693 310.210811 
L 209.929693 305.085266 
L 211.506783 300.748265 
L 210.718238 295.622715 
L 215.055238 290.102894 
L 222.546419 287.342989 
L 230.826149 286.554439 
L 240.288701 286.160169 
L 249.356971 284.188804 
L 259.608067 281.034624 
L 267.099247 276.303348 
L 275.773253 271.966348 
L 284.841523 268.417893 
L 292.726979 271.177803 
L 303.372345 273.937713 
L 314.017716 277.486169 
L 320.720351 279.063259 
L 328.605807 280.246079 
L 337.674083 281.034624 
L 348.319448 281.428894 
L 358.964814 283.400259 
L 367.244545 288.920079 
L 367.080213 292.567591 
L 367.263443 296.781881 
L 368.179596 300.812948 
L 369.645432 303.378167 
L 372.577116 306.676309 
L 374.775876 308.50861 
L 376.424947 310.340911 
L 379.173401 314.371972 
L 381.73862 316.204279 
L 385.036763 317.486885 
L 388.334906 318.219809 
L 391.08336 317.853344 
L 389.434288 315.654584 
L 386.869064 313.089365 
L 384.303845 312.173212 
L 383.021232 311.440294 
L 384.670304 309.974452 
L 382.105085 308.50861 
L 379.906319 306.30985 
L 378.806942 304.11109 
L 378.074018 301.912325 
L 376.241717 302.095554 
L 375.362157 302.712423 
L 375.04256 301.073696 
L 374.408145 299.344426 
L 374.042958 296.690267 
L 375.14234 293.850203 
L 377.249486 292.475976 
L 379.72309 291.651443 
L 383.296077 290.643675 
L 386.960678 290.73529 
L 384.21223 291.010134 
L 381.188932 291.468208 
L 377.52433 293.39213 
L 375.966873 294.674736 
L 375.692029 297.331576 
L 376.150103 298.705803 
L 377.213503 300.340909 
L 378.819259 301.466574 
L 380.521129 301.940985 
L 382.095163 302.149653 
L 382.237335 303.156646 
L 382.093332 305.100645 
L 382.309333 306.900648 
L 383.245331 308.340646 
L 384.325331 309.348648 
L 385.621333 309.924647 
L 386.989333 310.140643 
L 388.645333 309.564643 
L 389.365335 310.716648 
L 388.933332 312.300644 
L 389.077335 313.596645 
L 389.509332 315.180646 
L 390.805333 315.972647 
L 393.541334 316.908645 
L 395.413335 315.756646 
L 397.141333 313.380644 
L 398.437334 309.996646 
L 399.517335 307.908644 
L 399.589333 305.820647 
L 398.365336 303.444645 
L 398.149335 300.780644 
L 398.437334 299.340645 
L 398.509333 297.396646 
L 397.141333 293.364644 
L 397.645334 292.068648 
L 398.941335 296.028646 
L 399.085332 299.052645 
L 399.013334 300.852648 
L 399.085332 302.724643 
L 400.381334 306.108647 
L 400.525331 307.404643 
L 399.877333 308.340646 
L 398.509333 311.148645 
L 398.005332 312.588643 
L 396.061332 315.972647 
L 396.349332 317.628647 
L 397.645334 320.004643 
L 398.293332 320.868648 
L 399.229335 323.100647 
L 399.949331 324.468647 
L 401.677335 325.836647 
L 403.837336 325.260648 
L 404.053332 325.332646 
L 405.205336 324.324644 
L 405.853334 322.236648 
L 406.069335 319.716643 
L 406.717333 317.484644 
L 409.165334 314.388646 
L 410.965336 312.732646 
L 412.909336 310.212647 
L 417.157333 304.956648 
L 416.365332 299.268647 
L 414.997332 296.748648 
L 413.413331 295.164646 
L 410.677336 293.436642 
L 409.669335 292.140647 
L 412.837331 292.644648 
L 415.141335 293.652644 
L 418.093336 296.172643 
L 419.893333 299.988643 
L 420.613335 303.156646 
L 419.821334 305.748643 
L 418.81157 308.430168 
L 416.793343 310.448396 
L 414.775115 312.870268 
L 411.344124 320.53954 
L 410.738654 323.768706 
L 412.353238 326.392403 
L 415.380579 327.199692 
L 420.224329 325.988759 
L 420.829798 322.759592 
L 422.242556 319.530426 
L 423.65532 316.906729 
L 425.875373 314.888495 
L 426.480842 316.099434 
L 425.068078 318.924956 
L 424.058965 322.154123 
L 424.664434 325.383289 
L 427.489956 326.997872 
L 431.728236 326.392403 
L 436.370161 323.566881 
L 441.012086 319.732245 
L 444.039433 315.09032 
L 446.057661 309.439282 
L 445.654016 304.999177 
L 442.0212 301.77001 
L 438.993858 299.751782 
L 435.764692 298.339024 
L 433.34282 295.715322 
L 436.975631 296.724441 
L 442.626669 297.329905 
L 446.461305 297.329905 
L 452.919638 296.320791 
L 455.946979 294.100738 
L 454.534221 289.256994 
L 452.314168 285.018714 
L 449.892296 280.780428 
L 446.057661 275.734859 
L 442.0212 271.496579 
L 438.186569 268.267412 
L 433.544639 266.652829 
L 429.104539 267.258298 
L 423.453495 268.671057 
L 418.206101 268.872882 
L 413.765996 268.469237 
L 410.536829 266.047359 
L 412.756882 261.20361 
L 416.389693 258.176268 
L 420.829798 254.947102 
L 424.866259 254.543457 
L 428.902714 254.341632 
L 432.535525 253.937988 
L 434.654668 254.341632 
L 436.874721 255.552571 
L 438.993858 256.35986 
L 442.223025 256.25895 
L 445.048547 254.745277 
L 448.277713 252.827959 
L 449.690471 250.607912 
L 443.030313 246.470541 
L 440.507532 244.654133 
L 439.094768 242.131351 
L 442.0212 243.140465 
L 449.085002 248.387859 
L 451.910524 248.085125 
L 455.038775 244.956868 
L 458.066122 241.424967 
L 458.570676 239.003095 
L 460.286175 236.783042 
L 465.129919 232.342937 
L 464.82719 229.921065 
L 464.73959 227.865771 
L 460.620917 223.403883 
L 459.591252 218.255539 
L 450.667464 218.255539 
L 446.205569 219.971654 
L 442.086897 220.658097 
L 443.116568 217.569096 
L 446.892013 215.166538 
L 453.070022 213.107202 
L 455.129358 210.0182 
L 455.815801 205.213079 
L 456.845472 201.437634 
L 457.188694 197.318961 
L 454.786136 194.22996 
L 450.667464 192.857067 
L 446.892013 192.170623 
L 443.116568 193.200289 
L 442.086897 196.632518 
L 441.400453 199.378297 
L 440.370782 196.975739 
L 440.370782 194.22996 
L 436.252116 191.484174 
L 432.819887 191.140952 
L 430.417329 193.886732 
L 428.357993 197.318961 
L 428.014771 200.064741 
L 429.387664 203.840192 
L 434.536001 208.302086 
L 433.849558 211.391087 
L 431.446994 207.958864 
L 428.014771 205.556306 
L 425.268991 206.929193 
L 423.896098 209.331751 
L 425.955435 213.793645 
L 428.014771 221.687768 
L 423.896098 222.03099 
L 424.582542 218.598761 
L 421.836762 210.361422 
L 420.463875 205.556306 
L 424.23932 196.632518 
L 426.298656 192.513845 
L 424.925769 189.424844 
L 421.49354 187.02228 
L 417.031646 186.679058 
L 414.285866 187.708729 
L 414.97231 191.484174 
L 416.345203 194.22996 
L 413.942645 191.827402 
L 411.883308 188.738394 
L 408.107858 187.02228 
L 405.7053 188.051951 
L 405.362078 192.513845 
L 406.391743 197.662183 
L 406.734971 200.75119 
L 407.764636 205.556306 
L 407.764636 210.704644 
L 406.391743 213.793645 
L 405.7053 217.225874 
L 404.332413 219.628432 
L 404.675635 214.480094 
L 404.675635 203.153748 
L 404.332413 198.691854 
L 403.645964 193.886732 
L 401.586627 189.424844 
L 399.184069 186.335836 
L 396.781511 184.962949 
L 393.006066 185.992615 
L 392.319617 189.081616 
L 393.69251 194.573181 
L 394.722175 200.75119 
L 394.722175 205.899528 
L 394.035732 215.50976 
L 391.976395 218.598761 
L 392.319617 212.76398 
L 391.633174 204.526635 
L 392.319617 198.005405 
L 390.603503 192.513845 
L 388.887394 188.395173 
L 385.798387 184.962949 
L 382.022942 183.590057 
L 380.306827 187.02228 
L 380.993271 191.140952 
L 382.366164 196.632518 
L 383.052607 201.437634 
L 383.395829 204.869857 
L 384.082278 209.674973 
L 382.709385 203.840192 
L 382.366164 198.005405 
L 380.650049 193.200289 
L 380.306827 189.081616 
L 377.904269 187.02228 
L 375.15849 186.679058 
L 372.412704 188.395173 
L 370.010146 190.454509 
L 368.637259 195.259625 
L 370.353374 199.035076 
L 371.383039 199.721519 
L 370.696595 201.437634 
L 370.696595 205.213079 
L 372.755929 206.41436 
L 370.696595 205.556306 
L 368.980481 206.24275 
L 367.95081 208.988529 
L 367.264366 212.077536 
L 367.607588 215.852981 
L 370.010146 219.28521 
L 375.15849 219.628432 
L 370.696595 220.658097 
L 372.069482 224.77677 
L 376.531377 225.119992 
L 371.726261 226.492884 
L 366.577923 227.52255 
L 370.696595 225.463213 
L 371.039817 222.374212 
L 368.637259 218.941989 
L 366.234701 217.569096 
L 363.488916 217.225874 
L 359.713471 216.882652 
L 357.997356 215.852981 
L 361.086358 215.852981 
L 365.548252 215.50976 
L 365.891479 212.420758 
L 365.891479 208.988529 
L 363.145694 206.929193 
L 360.743136 206.929193 
L 357.310913 205.899528 
L 355.251577 204.869857 
L 359.713471 204.526635 
L 363.145694 205.556306 
L 366.577923 204.183413 
L 367.95081 201.437634 
L 366.577923 197.662183 
L 364.861808 195.946068 
L 362.116029 196.289296 
L 359.713471 196.975739 
L 357.310913 196.632518 
L 360.743136 195.602847 
L 365.548252 193.886732 
L 366.577923 190.797731 
L 368.294037 187.708729 
L 370.353374 184.619722 
L 368.980481 181.873942 
L 365.548252 180.157828 
L 362.116029 179.128163 
L 359.027027 177.75527 
L 355.251577 177.068826 
L 352.162569 177.412048 
L 350.446461 179.128163 
L 352.849019 182.217164 
L 354.221906 185.306171 
L 357.997356 185.992615 
L 354.908355 187.708729 
L 352.849019 189.424844 
L 352.162569 191.827402 
L 350.446461 193.54351 
L 351.819348 189.081616 
L 351.132904 183.590057 
L 348.730346 181.187499 
L 347.014232 177.068826 
L 343.92523 175.352712 
L 340.493001 175.352712 
L 338.433665 175.695934 
L 334.65822 176.039161 
L 335.344664 179.128163 
L 337.747222 182.903613 
L 338.776892 186.335836 
L 340.149779 189.081616 
L 341.865894 190.797731 
L 339.120114 188.395173 
L 336.031107 184.619722 
L 333.628549 180.501055 
L 331.225991 175.695934 
L 327.450546 175.00949 
L 321.958981 175.352712 
L 317.840308 176.382383 
L 315.094529 178.098497 
L 322.645424 188.051951 
L 338.090443 196.632518 
L 341.17945 199.721519 
L 343.582008 202.810521 
L 345.984566 206.24275 
L 342.209116 203.840192 
L 338.776892 198.691854 
L 334.65822 196.975739 
L 330.539548 194.573181 
L 325.39121 192.513845 
L 323.675095 194.573181 
L 325.39121 198.691854 
L 328.823433 202.810521 
L 338.090443 210.704644 
L 342.209116 214.823316 
L 345.298117 217.569096 
L 335.344664 210.361422 
L 327.793768 203.49697 
L 323.331874 202.467299 
L 318.869979 202.810521 
L 318.526758 206.24275 
L 321.272537 210.704644 
L 325.047988 215.166538 
L 327.793768 217.912318 
L 331.569213 219.628432 
L 337.747222 223.403883 
L 330.196326 221.001319 
L 322.645424 220.314876 
L 314.064863 221.001319 
L 307.543633 219.971654 
L 289.009613 219.28521 
L 280.772268 219.28521 
L 272.191701 219.971654 
L 263.611135 219.971654 
L 255.030574 221.344547 
L 248.852565 223.747105 
L 240.271998 226.149663 
L 235.466882 229.238664 
L 229.632095 232.327666 
L 224.483758 234.387002 
L 225.170201 234.04378 
L 229.038367 231.76294 
L 233.064324 229.238664 
L 236.839775 226.149663 
L 243.189392 217.569096 
L 244.733892 212.935588 
L 246.106785 210.189808 
L 241.130056 209.160143 
L 235.981718 211.391087 
L 229.803709 214.480094 
L 225.685037 217.225874 
L 223.110871 220.486489 
L 220.879921 222.717434 
L 218.134141 226.492884 
L 216.58964 227.865771 
L 218.648976 224.261934 
L 221.394756 221.859376 
L 224.31215 218.083931 
L 235.295269 208.473694 
L 237.697827 205.556306 
L 240.786834 201.094412 
L 241.473277 197.833797 
L 239.585555 196.117682 
L 237.182997 195.431239 
L 233.064324 197.147347 
L 230.661766 198.863462 
L 227.572765 200.407963 
L 225.685037 201.780855 
L 222.252813 203.840192 
L 225.85665 200.579576 
L 231.519824 197.490575 
L 236.839775 193.886732 
L 239.928777 189.939673 
L 240.10039 187.02228 
L 239.070719 184.619722 
L 237.011383 183.590057 
L 234.437217 184.619722 
L 231.34821 186.50745 
L 228.087595 188.223559 
L 223.6257 192.513845 
L 224.655371 190.626123 
L 227.744373 187.537115 
L 230.833374 185.134557 
L 233.922382 182.388778 
L 235.810104 179.98622 
L 234.265603 177.583662 
L 231.004988 176.210769 
L 227.915987 175.695934 
L 223.968922 176.039161 
L 220.879921 177.068826 
L 217.619306 178.613327 
L 214.873526 180.844277 
L 211.441297 183.246835 
L 210.06841 185.992615 
L 211.612911 187.708729 
L 213.500633 189.081616 
L 216.418027 188.223559 
L 213.157411 190.969344 
L 212.127746 193.028681 
L 212.470968 195.946068 
L 213.157411 198.691854 
L 213.500633 201.437634 
L 213.157411 204.355027 
L 212.642576 202.467299 
L 211.098075 198.863462 
L 208.867131 196.632518 
L 210.06841 193.54351 
L 210.411632 190.111287 
L 208.352295 187.880337 
L 206.121351 187.02228 
L 201.487843 189.081616 
L 197.712392 191.484174 
L 195.309835 193.200289 
L 192.220833 194.744789 
L 193.250498 198.177018 
L 193.936947 201.609242 
L 196.854335 199.206684 
L 196.511113 200.236355 
L 195.481448 202.124077 
L 195.653056 204.869857 
L 198.398842 204.0118 
L 201.316229 202.982134 
L 196.339505 205.727914 
L 195.138226 208.302086 
L 195.481448 210.704644 
L 198.398842 211.562701 
L 201.487843 210.53303 
L 205.434902 208.816921 
L 203.375566 210.704644 
L 201.144621 211.219479 
L 198.57045 212.420758 
L 197.712392 214.823316 
L 195.653056 217.74071 
L 194.966613 220.143268 
L 197.369171 222.03099 
L 199.085285 221.859376 
L 202.517508 220.314876 
L 206.292959 219.28521 
L 204.920072 221.344547 
L 202.860736 222.545826 
L 200.629786 222.202598 
L 198.055614 222.717434 
L 197.025949 224.433548 
L 195.996284 227.179328 
L 196.682727 231.298 
L 197.197563 233.528944 
L 196.339505 236.27473 
L 194.623391 238.162452 
L 193.936947 239.192118 
L 194.451777 236.78956 
L 193.593726 234.730229 
L 191.019554 235.245059 
L 187.758939 236.103116 
L 192.735669 233.700558 
L 193.936947 230.268335 
L 194.280169 225.463213 
L 193.250498 222.889047 
L 187.244103 223.918713 
L 185.527989 223.918713 
L 189.818275 222.889047 
L 192.564055 221.001319 
L 194.280169 216.367817 
L 194.108556 212.249144 
L 191.362776 211.391087 
L 188.445382 211.734309 
L 185.356381 214.308481 
L 184.669937 214.651702 
L 186.386046 212.76398 
L 189.475053 210.53303 
L 190.676332 207.615642 
L 190.84794 206.24275 
L 190.016011 204.926345 
L 188.214093 204.583123 
L 185.639921 205.269567 
L 183.666395 205.097953 
L 189.501176 202.437983 
L 190.788259 199.520589 
L 190.788259 196.345778 
L 188.471511 194.114834 
L 185.039282 193.599998 
L 182.036084 195.144499 
L 180.31997 197.032222 
L 173.798739 199.348976 
L 171.138769 201.494116 
L 170.623934 204.239901 
L 172.254239 207.157289 
L 173.884549 208.444378 
L 175.858076 208.18696 
L 178.260634 207.414707 
L 176.630329 209.302435 
L 175.085828 210.3321 
L 175.343246 216.338495 
L 177.402582 219.770724 
L 176.801943 222.859726 
L 177.230968 225.519701 
L 177.831608 228.265481 
L 178.346443 231.354488 
L 178.947083 234.014458 
L 179.032887 240.192467 
L 177.917412 240.87891 
L 177.059355 237.789909 
L 176.458715 233.928654 
L 176.287107 230.753849 
L 175.257436 226.892594 
L 174.313575 219.513306 
L 173.026492 215.394634 
L 171.653599 211.876601 
L 170.194902 208.787599 
L 168.392984 206.299232 
L 166.333648 205.355371 
L 163.587868 205.612788 
L 162.644007 207.157289 
L 162.472393 210.160486 
L 162.987229 213.249494 
L 163.587868 219.341693 
L 163.673672 221.915864 
L 163.587868 226.034537 
L 163.244646 229.724178 
L 164.016899 233.328015 
L 164.102703 238.047327 
L 164.016899 241.136328 
L 164.102703 243.967918 
L 163.502064 241.47955 
L 162.987229 237.275073 
L 162.81562 234.271876 
L 161.957563 232.469957 
L 159.125974 233.585432 
L 161.957563 230.839653 
L 161.528532 226.892594 
L 162.043367 222.688112 
L 161.78595 218.655249 
L 161.871754 214.450773 
L 161.700146 210.761126 
L 160.413063 207.414707 
L 156.637612 206.299232 
L 153.806022 207.58632 
L 152.261522 210.074682 
L 151.060243 213.764329 
L 151.746686 216.424299 
L 152.089914 220.457168 
L 152.518939 223.374561 
L 152.776357 226.892594 
L 151.746686 229.981596 
L 151.31766 227.922259 
L 150.888635 223.374561 
L 150.116381 220.285554 
L 148.743489 216.424299 
L 148.228659 213.678519 
L 150.030577 211.962405 
L 151.31766 209.817265 
L 151.660882 206.814067 
L 149.515742 205.183763 
L 146.855766 205.183763 
L 141.020979 204.583123 
L 138.2752 204.754731 
L 137.073921 206.642459 
L 137.588756 210.074682 
L 139.047453 212.906272 
L 138.875839 214.965608 
L 137.245534 213.421102 
L 136.473281 210.3321 
L 135.872642 206.985681 
L 134.842976 204.754731 
L 131.753969 204.068288 
L 128.321746 204.239901 
L 123.688238 205.355371 
L 120.513432 208.18696 
L 119.826983 211.275961 
L 121.800515 213.850133 
L 124.117269 215.566248 
L 125.747574 215.652052 
L 124.288877 217.196552 
L 123.774048 220.371364 
L 123.859852 224.061005 
L 124.460491 227.32162 
L 125.490156 230.668039 
L 127.292075 233.585432 
L 129.866247 234.271876 
L 132.183001 231.955128 
L 134.328141 229.46676 
L 136.130059 227.750646 
L 137.67456 226.034537 
L 136.473281 228.694512 
L 134.585559 230.410621 
L 132.354609 233.328015 
L 133.212666 238.390548 
L 135.443616 238.991188 
L 137.502952 238.991188 
L 139.991314 239.248606 
L 138.395104 239.40971 
L 135.045799 239.580599 
L 133.329685 241.897353 
L 132.557437 244.471525 
L 131.184545 248.418584 
L 132.471633 251.765003 
L 135.045799 254.682396 
L 138.907054 258.543651 
L 135.560635 258.801069 
L 132.042602 257.513986 
L 128.610379 253.652731 
L 126.465233 250.735338 
L 127.494904 246.874083 
L 128.352961 243.012828 
L 127.923929 239.237378 
L 124.57751 239.494795 
L 120.802059 241.639936 
L 118.142084 243.870886 
L 115.482114 245.844412 
L 116.340165 243.012828 
L 119.171755 239.580599 
L 120.887869 236.749016 
L 119.772394 233.145179 
L 117.970476 231.600678 
L 115.825335 233.230983 
L 115.653722 231.600678 
L 117.970476 228.425867 
L 118.914337 223.963973 
L 119.732728 220.735736 
L 118.874671 217.56093 
L 115.957278 214.386119 
L 112.868276 212.498396 
L 109.007021 213.442258 
L 105.403184 215.759012 
L 102.657405 219.534457 
L 100.426455 223.481515 
L 101.198708 227.771801 
L 103.08643 230.517581 
L 105.31738 233.349171 
L 106.089628 237.038812 
L 103.601266 236.266558 
L 101.112904 233.091753 
L 98.881954 231.547252 
L 95.278117 233.692392 
L 92.789755 236.609786 
L 91.760084 241.414902 
L 92.360724 244.932929 
L 95.020699 249.566437 
L 98.881954 251.797381 
L 103.343848 253.427692 
L 106.947685 254.886388 
L 110.980554 257.031529 
L 113.983751 259.6057 
L 116.729531 261.407619 
L 119.990146 262.866316 
L 123.765597 262.95212 
L 129.514574 262.608898 
L 133.71905 262.780506 
L 138.60997 263.466955 
L 140.497699 265.697899 
L 138.776498 266.025639 
L 135.476952 266.279447 
L 134.461714 268.563743 
L 138.268876 271.355667 
L 143.598903 272.878527 
L 152.482279 273.893771 
L 157.050876 275.67045 
L 160.350416 278.462368 
L 155.020388 279.223798 
L 147.152251 279.477612 
L 138.268876 278.716176 
L 128.37025 276.939502 
L 120.502113 274.401393 
L 114.156842 271.355667 
L 110.251091 267.663539 
L 105.946965 264.507181 
L 101.3559 262.211652 
L 96.477896 261.350823 
L 91.312947 263.646358 
L 86.721883 268.524362 
L 84.426353 274.263195 
L 84.139408 280.86285 
L 87.008827 287.749445 
L 90.452125 290.905803 
L 95.330129 287.749445 
L 101.3559 283.15838 
L 107.955556 281.723673 
L 112.259682 286.314738 
L 114.268272 291.766626 
L 110.251091 294.062162 
L 106.520849 295.209929 
L 102.790613 296.644636 
L 99.921194 298.653227 
L 99.921194 301.809585 
L 105.086142 305.252882 
L 110.53803 308.122296 
L 118.285453 310.417831 
L 124.885109 310.991715 
L 127.180639 309.270063 
L 125.745932 306.113705 
L 124.024286 298.366282 
L 124.59817 291.766626 
L 126.60676 288.03639 
L 129.189235 284.019209 
L 127.180639 289.184158 
L 125.458993 292.914394 
L 125.745932 298.079343 
L 127.754522 304.392059 
L 130.336997 309.270063 
L 134.354178 310.417831 
L 138.658304 308.983124 
L 138.371359 312.139477 
L 135.215007 316.156658 
L 132.632532 321.034668 
L 135.78889 327.921262 
L 138.945243 333.086211 
L 142.962424 334.520918 
L 148.127373 335.094801 
L 146.405727 330.790681 
L 148.701257 331.651504 
L 148.988196 333.947034 
L 150.709847 336.816453 
L 155.587851 339.111983 
L 162.187507 339.398927 
L 167.6394 336.529508 
L 170.221875 332.799272 
L 170.795753 328.495146 
L 168.787162 324.764904 
L 163.909158 326.199616 
L 157.883387 326.199616 
L 154.440089 322.469374 
L 151.283731 318.452193 
L 150.422908 312.71336 
L 151.283731 308.40924 
L 153.579261 306.113705 
L 157.883387 304.678998 
L 155.013973 308.983124 
L 155.300912 313.000305 
L 156.161735 317.59137 
L 157.883387 322.182435 
L 160.465861 324.764904 
L 163.909158 325.625732 
L 168.213284 323.617142 
L 167.6394 319.8869 
L 167.352456 315.869719 
L 166.204694 311.565593 
L 167.352456 314.721951 
L 167.926339 319.026077 
L 170.221875 323.904081 
L 172.804349 328.495146 
L 176.534586 329.355969 
L 179.404005 327.634323 
L 178.830121 322.182435 
L 175.386818 316.730542 
L 176.691099 313.469844 
L 176.691099 313.469844 
" style="fill:none;stroke:#000000;stroke-linecap:square;stroke-width:1.5;"/>
   </g>
   <g id="line2d_3">
    <path clip-path="url(#p90b3127bd4)" d="M 328.626866 219.851259 
L 324.636588 216.633298 
L 320.388876 214.316361 
L 316.65604 211.999431 
L 312.408328 209.425059 
L 307.645746 206.979403 
L 302.883158 205.820937 
L 297.090826 205.434782 
L 291.041053 205.820937 
L 286.021031 205.820937 
L 281.968523 205.893609 
L 274.41704 205.593263 
L 269.062481 205.599718 
L 264.047112 205.986455 
L 259.413244 206.501331 
L 255.036812 207.659796 
L 250.91782 210.105447 
L 247.571139 212.422383 
L 244.996767 215.897785 
L 243.452147 219.501902 
L 242.808551 223.749614 
L 245.125488 223.749614 
L 250.91782 221.175242 
L 256.581438 219.888057 
L 262.502491 219.115746 
L 267.779948 218.858312 
L 273.443566 218.987026 
L 277.819993 218.858312 
L 283.741046 218.858312 
L 287.988758 218.858312 
L 293.523655 218.987026 
L 298.286243 218.729591 
L 303.434985 218.729591 
L 307.167822 219.373181 
L 311.029379 220.145492 
L 313.732465 220.145492 
L 317.467811 220.145492 
L 321.421188 220.073493 
L 324.661183 220.001495 
L 326.749185 220.289494 
L 328.626866 219.851259 
" style="fill:none;stroke:#000000;stroke-linecap:square;stroke-width:1.5;"/>
   </g>
   <g id="line2d_4">
    <path clip-path="url(#p90b3127bd4)" d="M 302.368283 181.235695 
L 296.704671 176.086959 
L 290.526177 173.512587 
L 284.34769 170.423341 
L 279.676095 168.949225 
L 272.918478 168.609139 
L 265.799043 168.620339 
L 260.663478 169.65103 
L 254.99986 172.225402 
L 249.593683 174.799773 
L 249.078808 179.94851 
L 253.45524 181.750571 
L 259.633728 181.493136 
L 266.584531 180.978261 
L 273.79277 180.978261 
L 279.713823 181.493136 
L 286.149751 183.037756 
L 292.328238 183.810067 
L 298.249291 184.582383 
L 303.140593 185.097252 
L 302.368283 181.235695 
" style="fill:none;stroke:#000000;stroke-linecap:square;stroke-width:1.5;"/>
   </g>
   <g id="line2d_5">
    <path clip-path="url(#p90b3127bd4)" d="M 301.853408 195.137297 
L 298.249291 190.76087 
L 293.872859 187.414189 
L 288.981557 184.582383 
L 283.57538 183.295197 
L 279.198947 182.780322 
L 273.535329 182.265446 
L 268.901462 182.008011 
L 264.267595 183.037756 
L 258.861417 184.067507 
L 252.940365 185.612128 
L 248.049063 188.443934 
L 245.217256 191.018305 
L 245.989567 195.137297 
L 248.959154 195.652172 
L 254.696008 193.642994 
L 259.484718 192.667667 
L 264.284679 192.68888 
L 269.931213 192.820366 
L 274.951235 193.206521 
L 281.258443 193.850117 
L 284.99128 194.622427 
L 289.625147 195.909613 
L 293.357984 196.681923 
L 296.833385 198.097823 
L 300.308787 198.483984 
L 303.011879 197.582954 
L 301.853408 195.137297 
" style="fill:none;stroke:#000000;stroke-linecap:square;stroke-width:1.5;"/>
   </g>
  </g>
 </g>
 <defs>
  <clipPath id="p90b3127bd4">
   <rect height="450" width="570.24" x="0" y="0"/>
  </clipPath>
 </defs>
</svg>
