<?xml version="1.0" encoding="utf-8" standalone="no"?>
<!DOCTYPE svg PUBLIC "-//W3C//DTD SVG 1.1//EN"
  "http://www.w3.org/Graphics/SVG/1.1/DTD/svg11.dtd">
<!-- Created with matplotlib (https://matplotlib.org/) -->
<svg height="652.32pt" version="1.1" viewBox="0 0 803.52 652.32" width="803.52pt" xmlns="http://www.w3.org/2000/svg" xmlns:xlink="http://www.w3.org/1999/xlink">
 <defs>
  <style type="text/css">
*{stroke-linecap:butt;stroke-linejoin:round;}
  </style>
 </defs>
 <g id="figure_1">
  <g><image xlink:href="../../img/cb/squirrelmonkey_cor_cell.json.cb-50%25.png" width="803.52px" height="652.3199999999999px"/></g>

  <g id="patch_1">
   <path d="M 0 652.32 
L 803.52 652.32 
L 803.52 0 
L 0 0 
z
" style="fill:none;"/>
  </g>
  <g id="axes_1">
   <g id="line2d_1">
    <path clip-path="url(#pb895b06b7c)" d="M 288.756418 373.324464 
L 294.143498 375.839039 
L 288.76782 374.345794 
L 275.627263 373.151201 
L 269.952934 372.255252 
L 267.563739 371.060659 
L 267.862391 367.178219 
L 268.758332 364.49038 
L 269.355637 360.60794 
L 267.563739 358.218754 
L 263.681307 356.725508 
L 258.902918 356.128204 
L 254.423182 356.426856 
L 249.644801 356.426856 
L 246.359666 356.725508 
L 243.373175 359.413347 
L 240.088032 364.49038 
L 236.2056 366.879566 
L 240.386684 362.101186 
L 244.269124 357.920101 
L 244.567768 355.530907 
L 242.477226 352.843068 
L 240.088032 348.960628 
L 237.101549 348.064688 
L 232.621812 349.259281 
L 227.544779 350.453874 
L 222.766398 352.544416 
L 218.286662 354.634966 
L 214.702874 357.024153 
L 212.612332 359.413347 
L 220.078552 364.49038 
L 214.404222 361.205237 
L 210.820434 359.413347 
L 207.535299 359.413347 
L 201.860969 360.906592 
L 196.783936 362.399838 
L 192.3042 364.49038 
L 188.421768 366.879566 
L 186.331218 369.567413 
L 189.317709 373.151201 
L 196.783936 375.839039 
L 209.028545 378.526878 
L 214.404222 377.332285 
L 218.286662 376.137692 
L 222.766398 378.82553 
L 229.933973 380.020124 
L 237.101549 380.916072 
L 243.970471 380.318776 
L 250.54075 380.61742 
L 240.386684 381.214717 
L 233.517761 381.214717 
L 226.64883 380.318776 
L 217.689365 378.228234 
L 213.806925 378.82553 
L 209.625841 379.721479 
L 206.938002 380.61742 
L 206.63935 384.798504 
L 207.535299 390.17419 
L 206.042054 387.486351 
L 205.444757 384.201208 
L 206.042054 381.513369 
L 205.743401 379.422827 
L 201.562317 377.929581 
L 194.992038 376.137692 
L 190.810954 374.345794 
L 187.227167 372.553904 
L 183.344735 370.463354 
L 179.462295 370.16471 
L 176.17716 371.060659 
L 172.593372 372.255252 
L 171.100127 373.748497 
L 176.475804 378.82553 
L 183.942031 384.49986 
L 189.616361 389.278241 
L 193.797445 393.757977 
L 186.62987 387.784995 
L 181.254193 383.006615 
L 171.398771 376.436336 
L 167.217687 374.644446 
L 162.73795 373.748497 
L 157.362273 374.047142 
L 151.389291 375.839039 
L 143.624419 380.020124 
L 141.533877 382.409318 
L 141.533877 384.49986 
L 147.805503 385.993106 
L 153.181189 389.875537 
L 157.959569 393.757977 
L 165.127145 398.237714 
L 176.475804 403.912044 
L 168.710932 400.925553 
L 162.73795 397.640417 
L 156.466324 393.160681 
L 151.687943 390.472842 
L 148.701452 387.486351 
L 143.624419 386.29175 
L 138.846038 386.889054 
L 134.664946 388.979597 
L 130.483862 392.862028 
L 127.796023 398.83501 
L 126.302778 405.703933 
L 127.796023 413.468805 
L 129.886565 419.441787 
L 134.366302 424.817472 
L 139.144683 428.40126 
L 142.72847 425.116117 
L 147.805503 422.72693 
L 154.07713 422.72693 
L 159.751467 423.025575 
L 170.50283 423.025575 
L 166.023093 424.220168 
L 151.389291 423.622871 
L 146.013613 424.51882 
L 142.72847 426.908015 
L 140.93658 429.297201 
L 141.832521 433.179641 
L 152.28524 444.229656 
L 160.050111 449.903986 
L 167.217687 454.383714 
L 173.190669 455.578315 
L 176.774456 454.981019 
L 177.371753 452.293172 
L 177.073101 446.917495 
L 177.371753 443.333707 
L 177.670405 438.256674 
L 178.864998 443.931004 
L 178.566346 446.917495 
L 177.670405 451.397231 
L 177.969049 456.772908 
L 181.552837 458.863451 
L 188.421768 460.953993 
L 196.485284 462.447238 
L 203.951511 462.74589 
L 207.236647 461.252645 
L 207.236647 456.474256 
L 206.63935 451.098579 
L 205.743401 447.216139 
L 205.146105 443.333707 
L 203.354215 440.347216 
L 198.874478 437.659377 
L 196.18664 435.568835 
L 193.498793 432.283692 
L 191.109607 428.998557 
L 190.213658 425.414769 
L 189.616361 422.129626 
L 190.810954 418.545838 
L 193.200149 416.156652 
L 191.408251 420.63638 
L 191.706903 425.116117 
L 193.200149 429.894506 
L 195.290691 432.880988 
L 199.173131 436.763428 
L 203.951511 439.749919 
L 208.132596 442.139106 
L 212.910976 440.944513 
L 217.092069 438.256674 
L 220.9745 435.270183 
L 222.169094 431.089099 
L 219.779907 426.908015 
L 217.092069 422.428278 
L 215.001518 417.948542 
L 213.806925 414.06611 
L 218.585306 410.780966 
L 222.169094 409.885017 
L 227.246127 409.586373 
L 230.829914 411.676915 
L 234.115058 412.871508 
L 239.192091 411.378263 
L 244.567768 408.093128 
L 253.228589 402.120146 
L 256.513732 400.328256 
L 263.681307 397.939062 
L 270.251578 396.744468 
L 260.694816 399.432307 
L 254.423182 402.418798 
L 248.450208 406.002586 
L 245.165065 408.690424 
L 241.581277 411.378263 
L 238.296142 413.170161 
L 234.712354 414.06611 
L 231.128567 413.170161 
L 227.544779 411.676915 
L 224.259644 411.079619 
L 220.078552 411.676915 
L 217.092069 413.170161 
L 215.300171 415.559355 
L 216.793416 419.143143 
L 218.883958 423.324227 
L 221.273153 426.908015 
L 223.065043 430.790446 
L 222.766398 434.374234 
L 219.481255 438.256674 
L 214.702874 441.243165 
L 210.52179 443.035055 
L 207.535299 444.826952 
L 206.938002 448.112088 
L 207.833943 452.890469 
L 208.132596 457.967502 
L 209.028545 463.044535 
L 212.31368 465.433729 
L 216.793416 465.135077 
L 219.481255 463.940484 
L 219.481255 456.772908 
L 220.377204 464.239136 
L 222.766398 466.329678 
L 226.947482 465.732381 
L 231.427219 463.044535 
L 235.309651 458.266154 
L 237.698845 453.487773 
L 239.192091 449.605333 
L 241.581277 445.722893 
L 246.359666 441.541809 
L 252.033996 437.360725 
L 258.305622 432.880988 
L 271.446179 421.532329 
L 276.22456 417.948542 
L 282.197542 414.364754 
L 287.274575 411.676915 
L 293.844853 409.885017 
L 301.311073 407.197179 
L 308.7773 405.106637 
L 317.139469 403.016095 
L 305.492157 407.197179 
L 289.066465 412.274212 
L 282.496186 415.260703 
L 275.925907 419.441787 
L 269.654281 424.817472 
L 263.084003 429.595853 
L 256.513732 435.270183 
L 249.943453 440.048564 
L 244.567768 444.229656 
L 240.983981 449.605333 
L 237.400193 455.578315 
L 234.413702 461.252645 
L 232.621812 466.329678 
L 237.698845 468.718864 
L 245.463717 468.718864 
L 254.721834 468.42022 
L 262.785358 469.316169 
L 269.654281 467.524271 
L 278.613754 463.940484 
L 289.663761 460.356696 
L 298.324582 457.370205 
L 303.401615 454.383714 
L 304.89486 449.903986 
L 304.89486 445.722893 
L 306.089454 442.437758 
L 309.971894 438.256674 
L 315.944876 436.166132 
L 321.619205 433.179641 
L 328.488128 429.894506 
L 332.370568 426.310718 
L 335.357059 419.441787 
L 334.162458 425.116117 
L 331.175967 429.595853 
L 316.840816 436.763428 
L 310.867842 439.451267 
L 307.284055 443.333707 
L 305.790809 448.709384 
L 306.388106 451.098579 
L 303.700267 454.981019 
L 296.532692 459.162103 
L 287.871871 462.148594 
L 281.301593 464.239136 
L 274.134018 466.926975 
L 268.758332 469.614813 
L 275.328611 472.899957 
L 282.740504 475.055029 
L 288.806574 477.404763 
L 295.0782 482.183152 
L 304.037665 486.065584 
L 311.802537 486.961532 
L 320.164714 485.169635 
L 327.033636 480.98855 
L 333.305263 477.703415 
L 338.083651 475.015577 
L 344.355278 470.834484 
L 347.043116 466.354756 
L 348.835014 460.083122 
L 349.432311 454.707444 
L 347.939065 446.046624 
L 348.237718 442.462836 
L 351.821505 456.797986 
L 351.821505 462.472316 
L 350.029607 465.458807 
L 348.835014 471.431789 
L 356.301234 476.807466 
L 364.66341 479.793957 
L 373.324231 482.481796 
L 383.179645 484.87099 
L 388.853974 486.364236 
L 396.917498 485.468287 
L 405.279667 483.676389 
L 418.420224 478.002059 
L 426.185096 475.015577 
L 430.36618 472.32773 
L 433.054018 468.445298 
L 434.845916 465.458807 
L 433.578363 462.497394 
L 431.786466 457.719013 
L 431.487821 453.537921 
L 431.786466 449.058192 
L 436.266202 437.709533 
L 436.564854 432.6325 
L 437.460803 439.501423 
L 435.370253 442.786558 
L 433.578363 447.266295 
L 432.682415 450.551438 
L 432.682415 454.732522 
L 433.578363 458.913606 
L 435.370253 464.289284 
L 438.0581 470.262266 
L 444.031074 474.742002 
L 451.795954 477.728493 
L 456.275682 479.221739 
L 462.547317 483.701467 
L 469.714892 487.285255 
L 478.973009 486.98661 
L 486.140584 485.493365 
L 491.814914 481.909577 
L 497.489243 478.624434 
L 503.163573 475.040646 
L 508.539251 472.65146 
L 514.512233 469.366317 
L 514.810885 466.97713 
L 509.435199 466.678478 
L 502.864921 464.289284 
L 496.29465 461.302801 
L 490.918965 457.719013 
L 485.543288 453.239277 
L 483.452737 449.954133 
L 483.154093 445.773049 
L 481.063551 441.591965 
L 476.882467 437.112228 
L 472.104078 433.827093 
L 465.533799 430.840602 
L 452.990547 426.062221 
L 450.601353 423.07573 
L 457.171631 426.659518 
L 471.506781 432.6325 
L 478.973009 436.813584 
L 483.75139 442.487914 
L 484.945983 448.162243 
L 487.63383 452.940624 
L 491.217617 456.524412 
L 498.385192 461.302801 
L 506.747361 463.990639 
L 516.005478 466.678478 
L 521.381163 467.275775 
L 529.743332 466.379834 
L 537.806856 464.587936 
L 547.960914 459.510903 
L 547.064973 454.732522 
L 544.078482 449.058192 
L 541.091991 443.682507 
L 535.716314 439.20277 
L 529.444679 434.723042 
L 524.666299 431.139254 
L 521.381163 427.555467 
L 518.693317 423.374383 
L 513.317639 418.595994 
L 507.046013 415.310859 
L 490.918965 410.53247 
L 484.348686 408.441928 
L 478.973009 405.754089 
L 473.895976 402.468954 
L 484.348686 406.948682 
L 491.516261 409.337877 
L 497.190591 410.831122 
L 503.76087 413.518961 
L 511.525742 415.908155 
L 516.602775 419.790595 
L 521.381163 424.270324 
L 524.666299 429.048712 
L 529.743332 433.528441 
L 538.404152 440.397372 
L 542.286584 444.279804 
L 544.974431 448.162243 
L 547.66227 454.135225 
L 550.648761 458.913606 
L 557.517684 457.420361 
L 562.594717 455.927115 
L 562.296064 447.266295 
L 564.087962 454.732522 
L 568.567699 455.927115 
L 576.033918 454.135225 
L 579.020409 452.64198 
L 579.020409 446.370346 
L 578.423112 441.890617 
L 577.228519 438.605474 
L 574.540673 436.514932 
L 572.151486 433.827093 
L 570.658241 429.347357 
L 568.567699 427.256815 
L 564.983911 427.555467 
L 561.101471 428.451408 
L 560.654634 425.57663 
L 560.654634 417.214462 
L 560.057337 412.734725 
L 559.161388 409.150938 
L 554.980304 407.060396 
L 550.79922 407.35904 
L 545.722187 408.254989 
L 539.151908 405.56715 
L 536.464069 402.580659 
L 532.581638 399.89282 
L 528.101901 397.802278 
L 522.726216 395.711736 
L 517.350538 394.815787 
L 523.622165 394.815787 
L 532.880282 398.996871 
L 537.360018 401.983362 
L 542.437051 405.865802 
L 547.514085 406.463099 
L 553.785711 405.56715 
L 557.668151 406.164447 
L 561.251938 410.345531 
L 562.446531 415.12392 
L 562.147879 420.200953 
L 562.745176 424.680681 
L 563.641125 426.771223 
L 567.822209 426.771223 
L 571.405996 427.667172 
L 574.093843 424.680681 
L 576.48303 420.499597 
L 580.066817 413.033378 
L 578.872224 419.006352 
L 576.781682 423.187436 
L 572.600598 428.861765 
L 573.496539 432.445553 
L 574.69114 435.432044 
L 577.378978 437.821238 
L 580.066817 438.717187 
L 583.949257 436.925289 
L 587.234392 434.237451 
L 590.519536 430.952316 
L 589.02629 434.536103 
L 586.637096 436.626645 
L 581.560063 440.210433 
L 580.664114 443.196916 
L 580.365469 447.079356 
L 581.560063 451.26044 
L 584.247901 453.350982 
L 589.623587 452.753685 
L 596.791162 451.26044 
L 603.062788 448.273949 
L 609.03577 444.988814 
L 613.216854 442.300975 
L 615.904693 439.314484 
L 616.203345 436.327993 
L 614.112803 433.341502 
L 611.723609 430.952316 
L 608.139821 429.45907 
L 606.049279 428.264469 
L 608.438474 428.264469 
L 610.82766 429.45907 
L 614.112803 431.25096 
L 617.099294 436.029341 
L 619.787133 437.522586 
L 626.954708 435.432044 
L 632.330385 432.146909 
L 637.108774 427.965825 
L 640.095265 424.083385 
L 642.783104 418.707707 
L 644.873646 414.825267 
L 646.068239 409.150938 
L 646.366891 407.060396 
L 646.665536 401.087414 
L 646.422286 397.002631 
L 645.247524 393.981396 
L 643.455634 390.696253 
L 640.767787 389.203015 
L 636.885355 388.307066 
L 633.301568 389.203015 
L 630.613729 391.293557 
L 627.328586 394.28004 
L 624.939391 397.266531 
L 622.251553 399.655726 
L 620.161011 400.551675 
L 615.38263 401.447616 
L 610.006945 402.642217 
L 602.242073 403.239513 
L 595.970447 402.343564 
L 602.540725 402.04492 
L 610.305597 402.343564 
L 616.278579 400.551675 
L 621.05696 397.863828 
L 624.342095 394.877345 
L 627.029942 391.890854 
L 630.016425 389.203015 
L 633.600212 387.112465 
L 637.482652 387.411117 
L 642.559685 388.605711 
L 646.143473 388.605711 
L 646.740769 384.424626 
L 646.442125 379.646246 
L 645.84482 374.867865 
L 643.455634 369.193527 
L 636.288059 362.623257 
L 632.405619 360.831359 
L 627.627238 360.831359 
L 623.446154 361.428655 
L 620.161011 362.623257 
L 617.473172 364.713799 
L 607.916402 370.686773 
L 603.138022 373.971916 
L 599.554234 376.958407 
L 590.594761 382.03544 
L 585.517728 384.424626 
L 581.635296 385.619228 
L 577.15556 385.917872 
L 586.413677 382.632737 
L 592.386659 380.243542 
L 607.319106 370.985425 
L 611.798842 367.700282 
L 615.979927 365.012443 
L 618.966418 362.025952 
L 616.577223 359.93541 
L 611.798842 357.546224 
L 607.319106 355.754326 
L 602.839369 354.858377 
L 598.956938 353.962436 
L 595.970447 354.858377 
L 594.178549 357.546224 
L 592.386659 359.636766 
L 584.920431 362.921901 
L 581.635296 364.713799 
L 578.051509 365.908392 
L 570.883933 367.401637 
L 569.092036 368.596231 
L 566.404197 370.985425 
L 564.910951 373.673264 
L 563.417706 380.243542 
L 562.521765 376.659755 
L 562.223113 374.27056 
L 560.132571 373.075967 
L 544.602827 373.971916 
L 537.1366 373.673264 
L 529.969024 373.673264 
L 538.032549 373.075967 
L 557.743376 372.180018 
L 562.820409 372.180018 
L 565.8069 370.089476 
L 568.196095 367.700282 
L 568.793391 365.60974 
L 566.105553 363.81785 
L 558.340673 361.428655 
L 566.105553 362.921901 
L 569.68934 365.012443 
L 574.169069 365.012443 
L 579.246102 363.519198 
L 585.219084 361.130011 
L 590.594761 358.740817 
L 594.477201 355.455682 
L 594.775853 353.365131 
L 590.594761 350.975945 
L 585.219084 348.586751 
L 580.739347 347.093505 
L 575.960966 345.301615 
L 572.377179 344.704319 
L 570.286637 345.898912 
L 568.196095 348.885403 
L 565.209604 350.975945 
L 562.223113 351.274589 
L 565.8069 349.781344 
L 568.494739 347.392157 
L 569.68934 345.002963 
L 569.390688 343.509718 
L 566.105553 341.120531 
L 560.431215 338.13404 
L 555.055538 335.446193 
L 550.874453 333.654304 
L 548.485259 333.355651 
L 545.79742 334.550253 
L 544.901471 337.238091 
L 544.602827 340.523227 
L 543.706878 342.613769 
L 542.213633 344.405666 
L 539.525794 346.794861 
L 538.331193 348.586751 
L 538.928489 353.066487 
L 539.525794 354.559733 
L 537.733896 351.274589 
L 537.1366 348.586751 
L 535.046058 347.392157 
L 530.267677 347.392157 
L 525.489288 347.690802 
L 521.009551 348.885403 
L 518.919009 351.274589 
L 517.425764 354.858377 
L 516.529823 359.636766 
L 514.439281 362.025952 
L 510.258189 363.81785 
L 497.416284 369.193527 
L 508.764951 363.220553 
L 513.543332 360.831359 
L 514.439281 357.844868 
L 514.140629 355.455682 
L 516.231171 352.170538 
L 518.620365 349.184047 
L 522.801449 347.093505 
L 526.086585 345.898912 
L 530.566321 346.496209 
L 534.747405 346.794861 
L 538.032549 345.898912 
L 540.421735 344.107014 
L 542.512277 340.523227 
L 542.810929 337.536744 
L 544.901471 334.550253 
L 544.602827 332.161058 
L 543.706878 330.369168 
L 538.928489 327.979974 
L 535.046058 324.396186 
L 530.566321 322.604289 
L 526.683889 322.006992 
L 524.593339 322.604289 
L 523.100102 327.382677 
L 521.009551 333.654304 
L 520.412255 329.771864 
L 522.204153 325.59078 
L 523.100102 323.79889 
L 522.502797 320.513747 
L 519.217662 316.631315 
L 516.142261 313.432807 
L 511.662533 310.147664 
L 503.599009 305.966579 
L 499.716569 304.771986 
L 494.340891 304.771986 
L 491.3544 305.667935 
L 488.666562 307.758477 
L 488.069265 310.744968 
L 489.861155 312.83551 
L 493.743595 316.717942 
L 497.327382 321.496331 
L 500.612518 327.767957 
L 501.209814 332.546338 
L 500.612518 338.220668 
L 500.015221 330.455796 
L 499.119272 326.872008 
L 497.626027 323.586873 
L 495.23684 319.704433 
L 492.548994 316.717942 
L 488.965206 313.432807 
L 485.978715 311.939561 
L 482.394927 312.536858 
L 478.81114 314.030103 
L 475.227352 316.419298 
L 473.435462 318.808484 
L 474.331411 326.872008 
L 476.123301 332.546338 
L 478.213843 337.026074 
L 479.707089 341.207159 
L 480.005741 345.985539 
L 480.005741 349.867979 
L 480.90169 354.347716 
L 480.90169 356.139606 
L 476.421953 354.945012 
L 468.657082 350.763928 
L 465.969235 348.374734 
L 460.593558 345.985539 
L 455.516525 344.19365 
L 449.842195 342.700404 
L 442.973264 342.103108 
L 435.208392 340.908514 
L 417.289454 340.012565 
L 410.719176 338.817964 
L 403.252956 338.220668 
L 396.085381 338.220668 
L 356.251086 342.563621 
L 345.798367 344.952807 
L 342.21458 346.446053 
L 338.033496 349.432544 
L 334.449708 353.613628 
L 332.65781 358.989313 
L 332.956463 363.767694 
L 335.942954 367.650134 
L 345.499723 369.740676 
L 357.147027 371.532566 
L 366.1065 372.129863 
L 378.351108 372.129863 
L 390.595716 371.831218 
L 403.437621 372.428515 
L 419.863314 372.727167 
L 430.913321 372.129863 
L 412.098442 373.92176 
L 398.061936 373.92176 
L 384.622734 373.324464 
L 370.287584 373.025811 
L 358.938925 372.428515 
L 349.680807 371.233922 
L 340.42269 369.740676 
L 334.151056 368.546075 
L 327.580785 365.559592 
L 323.399693 364.066346 
L 322.2051 360.781203 
L 323.101049 355.70417 
L 325.788887 347.342002 
L 325.191591 344.355511 
L 323.698345 340.473079 
L 325.788887 336.590639 
L 326.386184 333.006851 
L 324.892939 327.929818 
L 322.2051 324.346031 
L 319.517261 323.151438 
L 315.634821 323.450082 
L 312.051034 325.24198 
L 307.272653 328.825767 
L 303.98751 332.409555 
L 301.001027 337.486588 
L 300.105078 343.758214 
L 298.611832 351.821738 
L 298.611832 346.446053 
L 299.209129 340.771723 
L 300.105078 336.590639 
L 302.792916 331.513606 
L 306.675356 327.631174 
L 310.856441 324.346031 
L 314.141576 321.060895 
L 313.842932 316.879811 
L 312.349686 312.997371 
L 309.363195 308.517635 
L 306.376704 308.816287 
L 301.299671 311.205474 
L 296.52129 313.296024 
L 292.63885 315.983862 
L 289.055063 318.671701 
L 285.172631 320.762243 
L 276.51181 326.436573 
L 274.122616 328.527115 
L 275.615861 333.305504 
L 279.199649 339.875774 
L 280.095598 344.654163 
L 277.706403 338.979833 
L 275.615861 335.396046 
L 272.928023 331.214962 
L 269.344235 330.617657 
L 264.267202 332.110902 
L 259.190169 333.9028 
L 255.009085 336.291987 
L 250.828 338.382537 
L 248.140154 339.875774 
L 243.95907 342.862265 
L 240.972579 345.25146 
L 239.777985 347.342002 
L 242.764476 351.523086 
L 245.750967 355.106873 
L 249.932052 355.405526 
L 254.710432 355.405526 
L 259.787465 355.106873 
L 263.96855 355.405526 
L 268.448286 357.197416 
L 271.136125 359.58661 
L 270.83748 361.975804 
L 269.344235 365.858236 
L 269.642879 369.442024 
L 272.330726 371.532566 
L 277.407759 371.831218 
L 288.756418 373.324464 
L 288.756418 373.324464 
" style="fill:none;stroke:#000000;stroke-linecap:square;stroke-width:1.5;"/>
   </g>
   <g id="line2d_2">
    <path clip-path="url(#pb895b06b7c)" d="M 359.079533 417.921873 
L 362.686285 415.442226 
L 369.44895 413.864273 
L 379.142101 412.286321 
L 389.962366 410.933788 
L 405.516488 410.933788 
L 417.914705 412.962587 
L 427.157009 415.893073 
L 415.209639 413.413426 
L 403.938536 412.060893 
L 394.696224 411.610054 
L 385.679339 412.286321 
L 377.113302 413.413426 
L 367.420151 414.991379 
L 359.079533 417.921873 
" style="fill:none;stroke:#000000;stroke-linecap:square;stroke-width:1.5;"/>
   </g>
   <g id="line2d_3">
    <path clip-path="url(#pb895b06b7c)" d="M 363.137132 462.104609 
L 369.44895 461.653762 
L 381.170901 461.428343 
L 392.667424 460.977496 
L 402.360583 460.07581 
L 417.238439 458.497849 
L 407.770707 460.07581 
L 399.655517 461.202915 
L 391.089471 461.879182 
L 382.298006 462.330029 
L 373.506549 462.555448 
L 363.137132 462.104609 
L 363.137132 462.104609 
" style="fill:none;stroke:#000000;stroke-linecap:square;stroke-width:1.5;"/>
   </g>
  </g>
 </g>
 <defs>
  <clipPath id="pb895b06b7c">
   <rect height="652.32" width="803.52" x="0" y="0"/>
  </clipPath>
 </defs>
</svg>
