<?xml version="1.0" encoding="utf-8" standalone="no"?>
<!DOCTYPE svg PUBLIC "-//W3C//DTD SVG 1.1//EN"
  "http://www.w3.org/Graphics/SVG/1.1/DTD/svg11.dtd">
<!-- Created with matplotlib (https://matplotlib.org/) -->
<svg height="380.16pt" version="1.1" viewBox="0 0 570.24 380.16" width="570.24pt" xmlns="http://www.w3.org/2000/svg" xmlns:xlink="http://www.w3.org/1999/xlink">
 <defs>
  <style type="text/css">
*{stroke-linecap:butt;stroke-linejoin:round;}
  </style>
 </defs>
 <g id="figure_1">
  <g><image xlink:href="../../img/cb/tenrecEcaudatus_cor_cell.json.cb-50%25.png" width="570.24px" height="380.15999999999997px"/></g>

  <g id="patch_1">
   <path d="M 0 380.16 
L 570.24 380.16 
L 570.24 0 
L 0 0 
z
" style="fill:none;"/>
  </g>
  <g id="axes_1">
   <g id="line2d_1">
    <path clip-path="url(#pefa2828896)" d="M 168.885055 165.272807 
L 171.580551 160.960003 
L 168.885055 169.585612 
L 164.572251 177.133013 
L 160.79855 183.063115 
L 155.946646 189.532322 
L 150.555643 194.923326 
L 150.016544 198.697026 
L 157.563944 200.853428 
L 164.033151 201.392528 
L 178.049759 196.001524 
L 187.214462 192.766923 
L 199.613772 191.688725 
L 213.63038 190.071422 
L 226.029684 190.071422 
L 238.428994 190.610521 
L 260.532107 189.532322 
L 266.462209 187.37592 
L 270.235909 184.680418 
L 279.400618 184.141319 
L 289.64352 182.524016 
L 298.808229 183.063115 
L 304.738332 184.141319 
L 312.285737 187.37592 
L 325.224141 190.071422 
L 337.623451 191.14962 
L 350.022755 192.766923 
L 359.187464 192.766923 
L 366.195765 191.688725 
L 372.664973 188.993223 
L 381.829676 189.532322 
L 394.768085 191.688725 
L 400.698188 193.306023 
L 406.62829 198.697026 
L 415.253894 200.314329 
L 422.262201 199.236125 
L 424.957703 197.079728 
L 430.887805 195.462425 
L 430.887805 190.610521 
L 424.957703 184.141319 
L 418.488495 179.289415 
L 415.792994 174.437511 
L 413.636591 169.585612 
L 411.480194 162.038207 
L 412.558393 152.334398 
L 413.636591 163.655504 
L 415.792994 172.281114 
L 420.644898 179.828514 
L 424.418598 183.60222 
L 435.739704 192.227824 
L 445.443512 194.384227 
L 451.373615 191.688725 
L 455.68642 186.297722 
L 456.225519 180.906718 
L 457.303717 175.515715 
L 457.303717 169.585612 
L 456.225519 165.272807 
L 450.834515 162.038207 
L 448.139014 159.342705 
L 452.451819 159.881804 
L 457.303717 160.960003 
L 459.999219 159.342705 
L 462.155621 153.951702 
L 462.155621 147.4825 
L 461.616522 140.474193 
L 456.764618 133.465887 
L 449.217212 127.535784 
L 440.591608 124.301183 
L 430.887805 123.222985 
L 422.8013 123.762084 
L 414.175696 122.144781 
L 408.784693 115.13648 
L 417.949396 116.753777 
L 429.270502 118.371081 
L 437.896106 117.831981 
L 444.904413 116.214678 
L 446.52171 112.440978 
L 440.591608 103.815374 
L 424.957703 90.876965 
L 416.332093 86.56416 
L 408.245588 84.407763 
L 400.698188 84.946862 
L 394.22898 86.56416 
L 385.603376 77.399456 
L 381.290577 70.39115 
L 375.899573 65.539251 
L 367.273969 59.609149 
L 363.500264 55.296344 
L 358.10926 49.905341 
L 354.874659 44.514337 
L 346.788154 38.584235 
L 338.16255 34.810535 
L 328.997847 32.115033 
L 316.598537 29.95863 
L 296.112727 29.95863 
L 282.635219 31.036829 
L 271.314113 33.732331 
L 262.149404 38.045135 
L 255.141103 42.89704 
L 249.211001 46.13164 
L 245.9764 52.600842 
L 242.202694 54.757245 
L 232.498891 59.070044 
L 215.786782 72.547552 
L 201.23107 86.025061 
L 194.222769 88.181463 
L 186.136264 90.337866 
L 183.440762 97.885266 
L 182.362558 91.416064 
L 178.049759 90.876965 
L 168.885055 93.033367 
L 159.720346 98.96347 
L 149.477439 107.589074 
L 140.851835 118.371081 
L 135.460831 127.535784 
L 134.921732 135.622289 
L 141.930039 136.700493 
L 147.321042 135.622289 
L 156.485746 135.622289 
L 169.963254 132.926787 
L 164.033151 137.239592 
L 153.251145 138.85689 
L 144.62554 138.85689 
L 137.617234 141.013292 
L 131.687131 143.169695 
L 126.296128 147.4825 
L 122.522428 151.795299 
L 121.983323 159.881804 
L 125.21793 168.507408 
L 126.835227 172.281108 
L 125.21793 176.593913 
L 124.678825 183.60222 
L 127.913431 192.766923 
L 133.843534 200.314329 
L 140.312735 202.470726 
L 148.39924 194.384227 
L 153.251145 190.071422 
L 158.103049 184.680418 
L 162.415848 177.672112 
L 166.728653 171.742009 
L 168.885055 165.272807 
L 168.885055 165.272807 
" style="fill:none;stroke:#000000;stroke-linecap:square;stroke-width:1.5;"/>
   </g>
   <g id="line2d_2">
    <path clip-path="url(#pefa2828896)" d="M 238.515978 91.973707 
L 232.306795 93.645412 
L 223.383805 99.355253 
L 218.585794 102.307876 
L 213.418712 106.367728 
L 208.620702 111.165733 
L 206.406237 115.963744 
L 206.775314 120.761749 
L 208.989784 124.821601 
L 213.787789 128.512377 
L 220.431182 132.572229 
L 223.383805 135.893923 
L 224.121958 141.799163 
L 225.229187 147.335327 
L 224.86011 152.133332 
L 224.121958 149.918867 
L 223.752881 145.120862 
L 223.014723 139.953775 
L 221.907493 135.893923 
L 218.585794 132.572229 
L 214.156865 130.357765 
L 210.097013 127.036066 
L 206.406237 122.607137 
L 204.929932 115.963744 
L 206.406237 112.272968 
L 210.46609 107.474958 
L 215.2641 103.415105 
L 220.431182 99.355253 
L 230.76535 92.71186 
L 238.146902 89.390167 
L 239.455643 88.904733 
L 241.099519 88.652008 
L 247.004759 87.175697 
L 259.184316 83.484927 
L 264.720479 82.008615 
L 270.62572 79.794151 
L 275.423725 76.472451 
L 279.483577 73.888911 
L 291.294057 69.459982 
L 281.328965 67.983671 
L 269.518485 67.245518 
L 260.291551 66.876441 
L 252.540923 67.614594 
L 240.730443 69.459982 
L 252.540923 66.876441 
L 266.565867 65.769206 
L 286.496046 65.40013 
L 312.331471 67.614594 
L 332.261655 69.829059 
L 346.2866 72.043523 
L 355.513533 73.150758 
L 359.573386 78.317839 
L 364.002314 81.270462 
L 362.895085 87.175697 
L 364.371391 93.819095 
L 367.324014 100.093412 
L 369.907554 105.260493 
L 375.443718 111.165733 
L 378.765412 116.332821 
L 378.027259 125.559754 
L 373.59833 132.203147 
L 369.169401 137.739311 
L 359.942462 148.073479 
L 366.954937 138.846546 
L 371.014789 134.048535 
L 375.074641 128.143295 
L 377.736077 119.800108 
L 376.181871 114.487433 
L 371.383866 107.84404 
L 364.371391 101.569717 
L 355.513533 97.140789 
L 348.87014 93.080937 
L 338.535972 89.021084 
L 330.785344 86.068467 
L 321.927487 84.223079 
L 314.176859 81.639539 
L 308.271619 80.532304 
L 300.151914 79.794151 
L 290.186822 80.90138 
L 279.483577 82.746768 
L 269.518485 84.961232 
L 261.39878 87.544779 
L 252.171846 89.021084 
L 245.159371 89.390167 
L 238.515978 91.973707 
L 238.515978 91.973707 
" style="fill:none;stroke:#000000;stroke-linecap:square;stroke-width:1.5;"/>
   </g>
  </g>
 </g>
 <defs>
  <clipPath id="pefa2828896">
   <rect height="380.16" width="570.24" x="0" y="0"/>
  </clipPath>
 </defs>
</svg>
