<?xml version="1.0" encoding="utf-8" standalone="no"?>
<!DOCTYPE svg PUBLIC "-//W3C//DTD SVG 1.1//EN"
  "http://www.w3.org/Graphics/SVG/1.1/DTD/svg11.dtd">
<!-- Created with matplotlib (https://matplotlib.org/) -->
<svg height="421.2pt" version="1.1" viewBox="0 0 518.4 421.2" width="518.4pt" xmlns="http://www.w3.org/2000/svg" xmlns:xlink="http://www.w3.org/1999/xlink">
 <defs>
  <style type="text/css">
*{stroke-linecap:butt;stroke-linejoin:round;}
  </style>
 </defs>
 <g id="figure_1">
  <g><image xlink:href="../../img/cb/treeshrew_cor_cell.json.cb-50%25.png" width="518.4px" height="421.2px"/></g>

  <g id="patch_1">
   <path d="M 0 421.2 
L 518.4 421.2 
L 518.4 0 
L 0 0 
z
" style="fill:none;"/>
  </g>
  <g id="axes_1">
   <g id="line2d_1">
    <path clip-path="url(#pb6e2107336)" d="M 340.417552 106.379091 
L 336.547447 106.436789 
L 325.774841 93.33497 
L 321.989868 89.258848 
L 320.534112 86.056183 
L 317.331448 80.233152 
L 312.964171 75.86588 
L 307.14114 71.789758 
L 303.356172 68.878242 
L 297.824289 64.80212 
L 293.748172 62.472908 
L 287.633986 59.852541 
L 281.810954 57.814482 
L 275.987923 56.067573 
L 269.873742 53.73836 
L 264.341864 53.73836 
L 257.645375 54.029514 
L 252.113498 55.194121 
L 246.58162 57.232179 
L 242.505498 60.143695 
L 240.467435 63.055211 
L 238.720525 67.422482 
L 235.809009 69.460546 
L 231.441738 69.169391 
L 226.783313 69.460546 
L 218.631068 71.498604 
L 214.8461 73.245514 
L 210.478824 74.992423 
L 206.402702 77.030487 
L 202.035431 79.942003 
L 197.668159 83.726971 
L 194.465489 86.929635 
L 192.136277 89.841151 
L 191.262825 92.170364 
L 188.060155 93.917273 
L 178.452155 97.119943 
L 167.679549 100.031459 
L 162.189755 101.28044 
L 151.416304 104.775016 
L 146.757879 106.521921 
L 142.972906 107.395378 
L 139.770241 109.142287 
L 131.909151 114.674165 
L 128.415332 118.459138 
L 122.883449 124.28217 
L 117.933875 132.14326 
L 114.440056 139.713201 
L 112.110843 146.409685 
L 110.655088 152.232717 
L 110.946237 159.220355 
L 112.693146 167.954902 
L 115.604662 176.107147 
L 118.807327 181.639024 
L 122.009997 184.259386 
L 126.377268 185.423992 
L 130.45339 184.259386 
L 133.364906 181.34787 
L 134.529512 176.980599 
L 135.694119 173.48678 
L 135.694119 169.119509 
L 135.111815 163.87878 
L 135.111815 159.220355 
L 134.820666 154.561929 
L 135.985273 150.194658 
L 137.732182 146.409685 
L 140.643693 143.498169 
L 149.087091 140.00435 
L 154.036666 139.422047 
L 157.821639 138.548595 
L 161.606607 139.130898 
L 161.606607 143.20702 
L 159.859697 146.991988 
L 154.32782 153.688477 
L 151.998607 157.473445 
L 156.948182 155.435382 
L 161.606607 154.27078 
L 164.809272 152.523871 
L 168.303091 151.06811 
L 172.379213 149.030052 
L 169.467697 151.650414 
L 166.265032 153.688477 
L 154.910123 157.764594 
L 149.669395 160.967264 
L 146.175576 162.714174 
L 144.137512 165.043386 
L 142.390602 168.828354 
L 140.06139 172.031024 
L 138.31448 174.94254 
L 136.567576 176.68945 
L 134.238363 182.221327 
L 131.909151 184.259386 
L 130.744544 186.879753 
L 130.162241 189.791268 
L 130.162241 193.285087 
L 131.035693 197.36121 
L 133.073757 202.601938 
L 135.985273 206.969209 
L 139.479087 213.08339 
L 143.555209 218.324119 
L 147.340182 220.071028 
L 150.542847 220.944485 
L 155.201272 220.362182 
L 160.321115 217.906594 
L 166.144141 215.286227 
L 169.055657 213.248169 
L 174.296386 211.501259 
L 181.284024 208.298594 
L 185.360146 206.260531 
L 192.05663 203.931318 
L 197.588513 201.310956 
L 204.284996 200.728653 
L 213.892996 203.349015 
L 230.779788 199.855196 
L 236.020516 199.855196 
L 242.717 200.437499 
L 246.501973 200.14635 
L 249.995792 198.39944 
L 257.274579 198.108286 
L 260.477249 199.855196 
L 263.38876 198.108286 
L 267.464882 198.108286 
L 272.414462 198.981744 
L 280.566706 199.855196 
L 288.427796 199.564047 
L 294.250828 199.564047 
L 300.365009 199.855196 
L 313.779925 201.665293 
L 322.514473 204.28566 
L 329.502111 207.779479 
L 335.033988 210.982144 
L 341.439323 217.387479 
L 345.446773 222.26838 
L 350.687502 227.217955 
L 355.637076 229.256018 
L 360.877804 230.711774 
L 366.409682 229.256018 
L 372.523868 224.306444 
L 376.308836 219.356865 
L 381.549564 213.824987 
L 384.46108 208.293104 
L 386.499139 201.88777 
L 386.499139 197.811653 
L 385.334532 193.73553 
L 383.00532 192.27977 
L 379.802655 192.570924 
L 376.308836 196.647046 
L 371.359261 200.432014 
L 366.991985 203.925833 
L 362.33356 208.584259 
L 357.675134 212.369227 
L 351.269805 214.989593 
L 362.33356 205.963892 
L 367.865442 201.88777 
L 372.523868 197.811653 
L 376.308836 195.48244 
L 378.346899 193.153227 
L 379.802655 189.950557 
L 379.802655 187.912499 
L 377.473442 186.165589 
L 374.270777 185.000983 
L 370.776958 184.41868 
L 366.118533 184.709829 
L 356.219379 184.127526 
L 352.434411 182.089467 
L 348.940592 179.4691 
L 354.181321 181.798313 
L 358.839741 183.254073 
L 363.78932 183.836377 
L 371.941565 183.836377 
L 375.435384 184.41868 
L 378.055745 185.583286 
L 380.676112 187.039041 
L 382.714171 185.583286 
L 384.46108 182.380616 
L 384.752229 180.633707 
L 385.043383 177.431042 
L 386.20799 174.228377 
L 388.246048 167.531888 
L 389.701809 163.455766 
L 389.992958 160.54425 
L 389.410654 156.468128 
L 386.20799 151.227404 
L 380.967261 145.113218 
L 376.891139 141.32825 
L 373.688474 137.543277 
L 369.612352 133.758309 
L 365.827379 130.846793 
L 362.915863 132.593703 
L 363.498166 137.252128 
L 362.624714 141.32825 
L 358.839741 146.568979 
L 354.47247 148.607038 
L 345.737922 147.442431 
L 352.143257 147.442431 
L 355.637076 146.568979 
L 359.422044 143.657463 
L 360.295501 139.290187 
L 360.877804 135.505219 
L 360.58665 131.720246 
L 361.460108 128.517581 
L 365.827379 129.099884 
L 370.194655 132.593703 
L 374.561926 136.669825 
L 379.511506 142.201703 
L 384.752229 147.442431 
L 390.284112 156.176979 
L 391.739867 160.835404 
L 394.06908 162.582314 
L 393.195628 166.658436 
L 388.828351 180.051403 
L 388.828351 184.41868 
L 389.992958 187.912499 
L 392.32217 191.115164 
L 396.689447 191.406318 
L 399.018659 189.659408 
L 402.803627 185.000983 
L 406.297446 178.886797 
L 408.626659 173.937223 
L 409.500111 170.152255 
L 410.082414 166.367282 
L 409.208962 161.126553 
L 407.462053 155.303521 
L 405.423994 150.645101 
L 402.221324 145.404373 
L 398.145202 139.290187 
L 392.904473 134.049458 
L 382.423016 122.985703 
L 377.182293 118.909581 
L 359.924705 113.075575 
L 345.075977 107.543697 
L 340.417552 106.379091 
L 340.417552 106.379091 
" style="fill:none;stroke:#000000;stroke-linecap:square;stroke-width:1.5;"/>
   </g>
   <g id="line2d_2">
    <path clip-path="url(#pb6e2107336)" d="M 194.387185 138.914948 
L 194.969488 135.712283 
L 197.298701 132.509618 
L 199.627914 128.433496 
L 200.210217 125.230826 
L 199.04561 121.154704 
L 199.336765 117.078582 
L 201.374823 113.875917 
L 203.704036 110.673252 
L 206.615552 108.052885 
L 210.982823 104.850221 
L 215.058945 103.103311 
L 221.46428 101.356402 
L 229.32537 99.609492 
L 237.186465 98.153732 
L 247.085619 97.571428 
L 258.440528 97.571428 
L 268.630831 97.862583 
L 277.656528 98.444886 
L 286.973378 98.444886 
L 295.416777 99.027189 
L 302.113261 100.774098 
L 307.062835 102.229854 
L 310.265505 103.39446 
L 312.594718 105.432524 
L 314.341627 108.052885 
L 315.797383 109.217492 
L 318.126595 109.217492 
L 315.797383 111.255555 
L 315.21508 113.875917 
L 318.126595 118.534342 
L 319.582356 121.154704 
L 321.911569 124.357374 
L 323.658478 127.26889 
L 325.696537 131.927315 
L 328.608052 139.788406 
L 325.696537 133.965374 
L 323.658478 128.724645 
L 320.164659 123.192768 
L 316.961989 118.825491 
L 312.012415 116.787433 
L 303.86017 117.660885 
L 293.669868 118.534342 
L 280.568044 118.534342 
L 269.213134 117.660885 
L 260.769741 118.243188 
L 251.744039 117.369736 
L 230.198827 116.787433 
L 224.958099 117.369736 
L 221.46428 119.698949 
L 218.261615 120.572401 
L 212.438583 121.445858 
L 206.033249 124.357374 
L 201.083669 128.142342 
L 198.172158 131.927315 
L 194.387185 138.914948 
" style="fill:none;stroke:#000000;stroke-linecap:square;stroke-width:1.5;"/>
   </g>
   <g id="line2d_3">
    <path clip-path="url(#pb6e2107336)" d="M 220.590828 135.421134 
L 223.793493 134.838831 
L 218.552764 137.168044 
L 214.767796 140.079554 
L 211.273977 143.282225 
L 208.65361 147.067193 
L 206.324398 151.143315 
L 206.906701 155.219437 
L 214.476642 156.384043 
L 222.046583 156.092894 
L 236.313008 155.219437 
L 244.465252 154.054831 
L 258.440528 154.637134 
L 264.845863 153.763682 
L 285.517623 153.763682 
L 291.049501 154.054831 
L 298.910596 153.181378 
L 305.024777 153.181378 
L 310.265505 151.143315 
L 312.012415 148.522953 
L 311.430112 145.902586 
L 308.227442 141.535315 
L 303.86017 139.497251 
L 297.74599 137.168044 
L 286.68223 136.003438 
L 275.327315 135.421134 
L 285.226469 134.547677 
L 295.416777 135.712283 
L 302.695564 138.041496 
L 309.100899 140.661858 
L 312.594718 144.155677 
L 313.759324 147.649496 
L 311.138957 151.725618 
L 306.480532 154.054831 
L 299.784048 155.219437 
L 286.973378 155.219437 
L 273.87156 155.510591 
L 266.01047 155.510591 
L 242.718343 156.092894 
L 231.945737 156.966346 
L 219.135067 157.839804 
L 209.818217 157.257501 
L 205.450945 155.80174 
L 205.159791 153.181378 
L 205.159791 149.687559 
L 207.489004 147.067193 
L 210.40052 143.282225 
L 213.020887 140.370709 
L 216.805855 138.041496 
L 220.590828 135.421134 
" style="fill:none;stroke:#000000;stroke-linecap:square;stroke-width:1.5;"/>
   </g>
   <g id="line2d_4">
    <path clip-path="url(#pb6e2107336)" d="M 197.007552 96.909483 
L 201.957126 93.415664 
L 207.197855 90.795298 
L 213.60319 88.466085 
L 222.046583 85.845723 
L 231.363434 83.80766 
L 240.38913 81.478447 
L 249.99713 80.313841 
L 257.567071 80.604995 
L 265.428166 81.478447 
L 274.162714 82.351904 
L 282.606107 83.516511 
L 289.884894 84.098814 
L 298.328293 85.26342 
L 312.012415 90.504149 
L 294.54332 85.26342 
L 286.68223 84.681117 
L 277.656528 83.516511 
L 259.022832 82.934207 
L 250.288284 82.351904 
L 241.553737 82.643053 
L 231.363434 84.972266 
L 222.92004 86.719175 
L 215.058945 89.048388 
L 204.577488 92.833361 
L 197.007552 96.909483 
L 197.007552 96.909483 
" style="fill:none;stroke:#000000;stroke-linecap:square;stroke-width:1.5;"/>
   </g>
   <g id="line2d_5">
    <path clip-path="url(#pb6e2107336)" d="M 204.286339 123.483917 
L 208.071307 121.737007 
L 215.058945 119.990098 
L 218.552769 118.243188 
L 218.777884 115.043525 
L 223.211189 116.20513 
L 227.578461 115.913976 
L 232.819189 115.913976 
L 238.642221 115.913976 
L 247.959071 116.20513 
L 255.820162 116.787433 
L 263.681257 117.078587 
L 272.415804 116.787433 
L 279.112288 117.369736 
L 287.846836 117.078587 
L 297.74599 116.787433 
L 303.569016 116.496279 
L 309.100899 115.622827 
L 311.721266 114.167066 
L 313.177021 111.837859 
L 312.303564 108.635189 
L 311.138957 106.305976 
L 307.936293 103.685614 
L 303.569016 101.938705 
L 297.74599 100.191795 
L 292.505261 99.318338 
L 287.555682 99.318338 
L 279.403437 99.027189 
L 269.504283 98.736035 
L 257.858225 98.736035 
L 244.174103 99.027189 
L 237.186465 100.191795 
L 226.996157 101.938705 
L 219.426221 103.39446 
L 215.350099 105.432524 
L 213.894339 107.761736 
L 211.85628 108.052885 
L 208.65361 108.635189 
L 206.033249 110.382098 
L 204.286339 113.002465 
L 203.121733 115.331672 
L 201.957126 118.534342 
L 202.53943 120.863555 
L 204.286339 123.483917 
" style="fill:none;stroke:#000000;stroke-linecap:square;stroke-width:1.5;"/>
   </g>
   <g id="line2d_6">
    <path clip-path="url(#pb6e2107336)" d="M 137.961486 171.460738 
L 140.873002 166.802312 
L 143.493364 163.308493 
L 146.696034 160.396978 
L 149.60755 158.941222 
L 151.645608 156.61201 
L 152.810214 153.991643 
L 155.139427 151.371281 
L 158.050943 148.459765 
L 159.506698 145.839398 
L 160.380156 142.345585 
L 160.089001 140.307521 
L 156.304033 140.307521 
L 151.063305 140.889824 
L 146.11373 141.763281 
L 142.037608 143.510191 
L 138.834938 147.004005 
L 137.088029 149.915521 
L 135.923422 154.8651 
L 135.923422 155.447403 
L 135.923422 158.650068 
L 136.505726 163.017344 
L 136.79688 167.093467 
L 137.961486 171.460738 
" style="fill:none;stroke:#000000;stroke-linecap:square;stroke-width:1.5;"/>
   </g>
   <g id="line2d_7">
    <path clip-path="url(#pb6e2107336)" d="M 116.034224 289.955884 
L 122.87474 287.281583 
L 131.137611 282.774567 
L 135.644627 277.766766 
L 137.397358 273.009357 
L 136.646186 268.001561 
L 134.142288 262.99376 
L 130.136052 257.735572 
L 126.880982 254.230115 
L 124.877863 253.979722 
L 124.877863 252.226991 
L 122.123573 249.472706 
L 119.369283 247.970362 
L 115.363046 246.217636 
L 111.857584 245.716857 
L 107.851347 246.468023 
L 103.845105 248.220755 
L 99.838869 249.973486 
L 97.334971 252.226991 
L 94.079901 254.230115 
L 92.577562 256.984405 
L 92.32717 263.995319 
L 93.078342 266.74961 
L 98.33653 267.000002 
L 93.579121 268.251948 
L 92.827949 273.510137 
L 93.078342 281.272228 
L 95.331847 287.531975 
L 98.816465 291.378234 
L 102.30934 292.482524 
L 107.54181 292.129406 
L 111.235125 291.458223 
L 116.034224 289.955884 
" style="fill:none;stroke:#000000;stroke-linecap:square;stroke-width:1.5;"/>
   </g>
  </g>
 </g>
 <defs>
  <clipPath id="pb6e2107336">
   <rect height="421.2" width="518.4" x="0" y="0"/>
  </clipPath>
 </defs>
</svg>
