<?xml version="1.0" encoding="utf-8" standalone="no"?>
<!DOCTYPE svg PUBLIC "-//W3C//DTD SVG 1.1//EN"
  "http://www.w3.org/Graphics/SVG/1.1/DTD/svg11.dtd">
<!-- Created with matplotlib (https://matplotlib.org/) -->
<svg height="645.12pt" version="1.1" viewBox="0 0 829.44 645.12" width="829.44pt" xmlns="http://www.w3.org/2000/svg" xmlns:xlink="http://www.w3.org/1999/xlink">
 <defs>
  <style type="text/css">
*{stroke-linecap:butt;stroke-linejoin:round;}
  </style>
 </defs>
 <g id="figure_1">
  <g><image xlink:href="../../img/cb/twotoesloth_cor_cell.json.cb-50%25.png" width="829.4399999999999px" height="645.12px"/></g>

  <g id="patch_1">
   <path d="M 0 645.12 
L 829.44 645.12 
L 829.44 0 
L 0 0 
z
" style="fill:none;"/>
  </g>
  <g id="axes_1">
   <g id="line2d_1">
    <path clip-path="url(#pc77a55035a)" d="M 234.358289 303.177224 
L 232.148188 308.845036 
L 229.31745 299.139676 
L 226.082327 289.434307 
L 224.46477 281.750889 
L 223.655991 274.876258 
L 221.63404 267.597234 
L 221.229647 263.957718 
L 215.163795 263.957718 
L 219.61209 261.935767 
L 219.207696 257.083087 
L 216.781352 252.634792 
L 213.546229 248.186505 
L 209.097942 245.760161 
L 205.054041 246.973333 
L 200.201352 248.186505 
L 196.157451 249.399669 
L 193.326721 251.826013 
L 189.28282 252.230406 
L 184.834525 254.656742 
L 180.790623 257.48748 
L 175.129156 261.935767 
L 169.872082 267.597234 
L 166.232574 272.449914 
L 163.401845 277.302603 
L 162.593058 280.942111 
L 162.997451 286.199184 
L 166.232574 286.603578 
L 175.129156 283.77284 
L 167.041353 287.81675 
L 164.210623 291.051865 
L 161.379894 295.904553 
L 160.571107 302.374799 
L 162.997451 308.845036 
L 168.658919 314.910897 
L 174.320377 321.381134 
L 177.151107 325.020651 
L 176.746722 330.277724 
L 177.5555 333.917233 
L 183.216967 337.152355 
L 187.665254 337.152355 
L 188.069648 343.218208 
L 190.495992 347.666503 
L 196.157451 351.710404 
L 193.326721 354.541142 
L 189.28282 355.349921 
L 184.430131 360.606994 
L 180.38623 366.268453 
L 175.533549 373.547478 
L 170.276476 382.039674 
L 171.894033 385.274797 
L 177.5555 382.444068 
L 181.195017 380.422117 
L 185.643303 380.826502 
L 190.091598 385.274797 
L 194.539893 392.149428 
L 195.348672 407.11187 
L 196.966229 413.582116 
L 198.98818 422.883091 
L 205.862819 422.074313 
L 213.950622 418.434796 
L 220.016475 411.964551 
L 223.251598 406.303092 
L 224.869163 400.237239 
L 223.655991 393.766994 
L 221.63404 388.105526 
L 215.163795 388.105526 
L 222.847212 386.892363 
L 225.273548 383.252846 
L 228.913065 380.422117 
L 222.847212 373.951871 
L 229.31745 378.400166 
L 234.170138 378.400166 
L 230.530622 382.039674 
L 228.913065 384.870404 
L 228.508671 388.914313 
L 229.31745 392.958215 
L 231.339401 397.406502 
L 235.383311 401.046018 
L 241.044769 401.450412 
L 243.06672 408.729436 
L 248.323794 416.00846 
L 251.154523 421.669919 
L 253.176474 428.140165 
L 256.411597 437.036747 
L 264.269255 448.422893 
L 270.335108 454.488745 
L 275.592181 464.194114 
L 280.040476 473.090704 
L 286.106329 481.178507 
L 297.833648 487.244359 
L 310.369746 491.692654 
L 318.053164 492.905826 
L 331.802426 500.589236 
L 344.338524 502.611187 
L 360.109745 507.463875 
L 371.028286 506.655088 
L 380.733646 503.419965 
L 388.417064 500.993629 
L 396.909261 500.184851 
L 402.57072 497.354113 
L 411.871695 499.780457 
L 422.790236 503.01558 
L 431.836598 504.372502 
L 441.162041 503.966989 
L 451.271795 505.180161 
L 465.42545 503.966989 
L 478.365942 500.731866 
L 492.115212 497.496752 
L 507.077646 491.835285 
L 515.569843 487.38699 
L 532.554236 479.299186 
L 538.620088 474.042113 
L 543.472777 467.167482 
L 549.134236 458.675285 
L 555.200088 450.183089 
L 561.26594 443.308458 
L 569.353752 430.367966 
L 574.269652 421.669919 
L 577.504775 414.795288 
L 579.931111 410.346993 
L 580.335504 401.854797 
L 582.357455 396.193338 
L 584.783799 391.340649 
L 588.827701 387.296748 
L 590.445258 380.422117 
L 592.467209 373.143092 
L 594.489159 380.017723 
L 595.297946 388.50992 
L 597.724282 395.788944 
L 602.981356 403.876747 
L 609.855995 413.177723 
L 616.326233 417.221624 
L 622.796479 419.647968 
L 632.097454 418.434796 
L 640.994044 416.412846 
L 649.48624 410.346993 
L 655.552093 402.25919 
L 659.595994 392.958215 
L 660.404773 388.50992 
L 658.787216 382.848453 
L 653.934527 386.083576 
L 649.48624 389.723092 
L 643.824773 392.149428 
L 637.758921 393.766994 
L 632.906232 395.788944 
L 628.457946 395.788944 
L 619.561356 392.553821 
L 614.708675 390.936264 
L 610.664774 388.914313 
L 607.025258 383.65724 
L 607.025258 381.230896 
L 607.429651 378.400166 
L 610.664774 375.165043 
L 608.642823 379.613338 
L 608.23843 383.252846 
L 611.069159 387.701141 
L 617.13502 390.531871 
L 623.605257 390.127477 
L 630.884282 389.318699 
L 637.758921 387.296748 
L 644.229167 383.252846 
L 649.48624 378.400166 
L 653.125748 373.143092 
L 655.956478 367.886019 
L 656.360871 362.628945 
L 655.147699 358.989429 
L 652.721355 356.563093 
L 649.081847 353.732355 
L 645.846724 352.114798 
L 640.58965 352.114798 
L 647.059896 350.901626 
L 650.699404 350.901626 
L 650.295019 347.666503 
L 647.868675 344.43138 
L 644.229167 342.409429 
L 639.376478 342.005044 
L 640.185257 339.174306 
L 643.42038 335.939183 
L 647.059896 333.108454 
L 650.699404 331.086503 
L 652.31697 326.638208 
L 652.721355 321.785528 
L 652.721355 317.337233 
L 654.743306 313.697725 
L 652.31697 309.653823 
L 646.251117 304.801135 
L 637.758921 299.544061 
L 639.376478 303.992356 
L 639.780872 308.845036 
L 641.802822 312.484553 
L 645.442331 316.932848 
L 638.972093 313.293331 
L 634.928183 311.675774 
L 631.288675 310.058208 
L 625.222823 306.823086 
L 619.15697 304.801135 
L 614.708675 302.779184 
L 610.664774 301.566012 
L 607.834036 301.161627 
L 605.003307 302.779184 
L 602.981356 306.4187 
L 602.981356 310.462602 
L 606.216479 314.10211 
L 611.473553 319.359184 
L 617.13502 324.211872 
L 621.178921 327.042602 
L 613.495503 323.403085 
L 608.23843 319.359184 
L 600.959405 311.271381 
L 600.959405 307.227479 
L 602.576971 303.992356 
L 605.4077 301.566012 
L 607.834036 299.139676 
L 601.363799 295.50016 
L 607.834036 295.904553 
L 612.282331 295.904553 
L 618.348184 296.713332 
L 624.414044 299.139676 
L 627.649159 299.544061 
L 630.075503 295.50016 
L 631.693069 291.860652 
L 626.031601 285.794799 
L 624.414044 281.750889 
L 619.965749 278.515775 
L 626.435995 282.964061 
L 632.097454 287.007963 
L 640.185257 293.478209 
L 653.530142 303.183577 
L 657.978429 301.970405 
L 662.02233 297.52211 
L 663.235502 291.456258 
L 662.426724 285.794799 
L 661.213552 279.324553 
L 658.382822 274.876258 
L 654.338921 271.641136 
L 649.081847 269.214791 
L 640.994044 270.427963 
L 647.464281 268.810406 
L 647.464281 265.979677 
L 638.163306 254.656742 
L 633.310626 249.804062 
L 628.053552 245.355767 
L 618.752577 242.929431 
L 611.877946 241.311866 
L 605.003307 240.503087 
L 598.128676 242.120644 
L 592.871602 245.760161 
L 590.849651 250.208456 
L 590.040873 256.274308 
L 589.636479 261.935767 
L 590.445258 270.023578 
L 591.254037 274.876258 
L 591.254037 280.537726 
L 586.80575 294.691381 
L 583.975012 305.205528 
L 581.548676 297.52211 
L 579.122332 287.81675 
L 576.695988 279.324553 
L 575.887209 270.832357 
L 576.695988 262.34016 
L 578.717938 257.083087 
L 580.739889 251.421628 
L 587.210135 237.672358 
L 590.849651 231.606505 
L 594.489159 227.15821 
L 595.702332 221.901137 
L 594.893553 216.239669 
L 593.438616 211.031458 
L 595.044287 205.368946 
L 594.639894 197.281134 
L 592.617943 189.597725 
L 591.000386 182.3187 
L 586.552091 175.444061 
L 580.890623 167.356258 
L 574.824771 158.459676 
L 569.163312 154.011381 
L 561.479894 149.96748 
L 555.414042 147.136742 
L 548.943796 146.327963 
L 535.598919 146.327963 
L 529.937452 147.136742 
L 525.084772 148.754308 
L 520.232092 151.989431 
L 514.570625 154.011381 
L 509.717945 156.033332 
L 505.674035 158.055283 
L 502.43892 161.290406 
L 504.056477 163.312357 
L 510.931108 163.71675 
L 520.636477 162.907963 
L 528.72428 163.312357 
L 535.598919 164.121135 
L 542.877944 167.356258 
L 531.959403 164.525529 
L 524.680379 163.71675 
L 516.592576 163.71675 
L 509.313551 164.525529 
L 502.843305 166.143086 
L 497.990625 168.973824 
L 493.946724 172.208938 
L 493.137945 177.061627 
L 494.351109 179.892356 
L 501.225748 181.509913 
L 518.210133 182.3187 
L 527.106723 184.340651 
L 535.194526 187.980159 
L 541.260378 192.024061 
L 545.708673 197.281134 
L 550.156968 203.346995 
L 553.796476 207.390897 
L 547.730624 202.133823 
L 542.877944 198.494307 
L 540.047206 195.663577 
L 536.812092 192.024061 
L 532.768182 188.384553 
L 527.915502 186.766987 
L 521.445256 185.14943 
L 506.887207 183.531873 
L 500.416969 183.127479 
L 495.564281 185.14943 
L 492.329158 188.788938 
L 491.924773 191.619676 
L 494.351109 196.876749 
L 499.608182 200.920651 
L 502.960149 202.66639 
L 507.00405 206.710291 
L 513.474296 213.584922 
L 504.982099 207.114685 
L 498.10746 206.305898 
L 496.489903 204.688341 
L 493.25478 199.83566 
L 490.019657 197.004923 
L 489.615272 192.556636 
L 490.42405 188.108341 
L 492.850386 184.873218 
L 492.446001 181.23371 
L 489.210878 178.807366 
L 487.997706 175.976636 
L 492.446001 171.932726 
L 494.872337 168.293218 
L 498.511854 165.058096 
L 500.129411 162.631751 
L 501.342583 159.801022 
L 505.386485 156.970292 
L 509.430394 154.948342 
L 515.496247 152.521997 
L 520.75332 149.691268 
L 518.326976 148.073702 
L 513.069902 148.882489 
L 508.621607 150.095653 
L 504.577706 152.117604 
L 499.320632 154.543948 
L 496.085509 157.374678 
L 490.019657 159.801022 
L 484.358198 161.014194 
L 479.50551 161.418587 
L 474.652829 160.6098 
L 462.92551 159.396628 
L 452.815756 156.565899 
L 443.514781 152.521997 
L 432.59624 148.882489 
L 425.317216 148.073702 
L 419.655757 148.882489 
L 411.972339 149.286875 
L 404.288921 148.478096 
L 397.057706 147.455363 
L 390.183075 146.646585 
L 383.712829 146.646585 
L 377.242583 147.859757 
L 370.367952 149.881707 
L 364.3021 152.712437 
L 352.979174 160.395855 
L 349.339657 164.035363 
L 352.979174 169.292436 
L 356.618682 175.358289 
L 359.449411 178.189027 
L 356.214288 180.210977 
L 349.744051 182.232928 
L 353.383559 178.997805 
L 354.192338 176.571461 
L 353.383559 172.527559 
L 349.744051 168.483658 
L 344.891362 165.248535 
L 340.038682 166.057314 
L 333.568436 168.079264 
L 329.120141 169.292436 
L 325.07624 170.101223 
L 321.032338 170.505609 
L 314.562093 172.123174 
L 311.731363 175.358289 
L 310.922584 182.232928 
L 310.922584 186.681223 
L 310.113806 192.747075 
L 309.305019 195.982198 
L 305.665511 198.812928 
L 301.217216 200.430485 
L 298.386486 200.0261 
L 295.555757 202.048051 
L 295.151363 199.621706 
L 290.703068 200.0261 
L 276.953798 197.599756 
L 270.483561 197.19537 
L 266.844044 196.790977 
L 274.527462 195.577805 
L 282.615265 196.386583 
L 289.89429 198.004149 
L 297.577708 198.004149 
L 300.812831 195.577805 
L 302.834781 190.725125 
L 303.64356 186.27683 
L 302.430388 183.850485 
L 297.982093 181.424149 
L 292.320634 179.402199 
L 286.659167 178.189027 
L 279.380142 177.380248 
L 272.909897 178.189027 
L 267.652823 178.997805 
L 261.182586 180.210977 
L 264.822094 177.784633 
L 271.696733 176.571461 
L 284.232831 176.571461 
L 292.725019 177.784633 
L 307.687462 181.424149 
L 309.709412 178.593412 
L 309.709412 174.953904 
L 309.305019 169.69683 
L 307.687462 165.248535 
L 302.430388 161.204633 
L 297.173314 156.351953 
L 289.489896 151.903658 
L 274.123069 147.859757 
L 266.844044 148.264142 
L 258.351848 148.264142 
L 252.285996 147.455363 
L 246.624537 147.859757 
L 240.96307 148.668535 
L 235.301602 151.09488 
L 230.448922 153.521215 
L 224.38307 157.969511 
L 219.934775 161.609027 
L 216.295267 166.461707 
L 212.925609 172.963563 
L 207.264142 186.712825 
L 206.859756 193.183071 
L 209.690486 198.440144 
L 213.734387 197.226972 
L 216.96951 194.396243 
L 219.395855 191.16112 
L 218.182682 197.226972 
L 222.226584 200.866488 
L 228.292436 202.079661 
L 229.910002 206.123562 
L 227.079264 208.954292 
L 223.439756 209.358685 
L 218.587076 206.123562 
L 214.94756 203.292833 
L 206.859756 200.05771 
L 205.242191 201.675267 
L 206.050978 210.571857 
L 207.264142 216.233316 
L 207.264142 223.916734 
L 208.881707 230.791365 
L 214.138781 238.474783 
L 219.395855 244.136242 
L 224.652928 246.158192 
L 228.292436 242.518684 
L 230.718781 239.283561 
L 233.145125 236.857217 
L 233.145125 234.835266 
L 236.784633 237.666004 
L 242.041706 237.666004 
L 248.107559 238.070389 
L 252.15146 236.857217 
L 254.982198 235.23966 
L 249.320731 239.283561 
L 244.872436 240.496733 
L 239.615362 241.709906 
L 232.336338 241.305512 
L 229.910002 242.518684 
L 227.079264 244.540635 
L 225.8661 247.775758 
L 226.674879 256.267954 
L 230.314387 262.738192 
L 233.54951 268.804053 
L 233.953903 276.487462 
L 234.762682 283.766487 
L 234.762682 290.641126 
L 235.167076 297.92015 
L 234.358289 303.177224 
L 234.358289 303.177224 
" style="fill:none;stroke:#000000;stroke-linecap:square;stroke-width:1.5;"/>
   </g>
   <g id="line2d_2">
    <path clip-path="url(#pc77a55035a)" d="M 311.040987 295.057123 
L 313.070146 293.633654 
L 316.391572 292.447431 
L 322.322682 290.074983 
L 328.491036 283.906629 
L 332.049707 281.771435 
L 335.371125 280.110722 
L 338.929796 277.975519 
L 341.776724 275.603072 
L 346.9961 269.671962 
L 354.825167 263.503608 
L 357.672104 261.842894 
L 356.723125 260.419434 
L 344.623661 260.419434 
L 338.929796 260.656671 
L 333.710412 260.419434 
L 328.965526 260.656671 
L 324.457884 260.656671 
L 320.899213 262.791873 
L 315.917082 265.63881 
L 310.697707 268.960228 
L 305.715568 273.230633 
L 300.496192 278.212764 
L 302.631394 275.603072 
L 305.241078 272.756143 
L 309.274238 269.197473 
L 312.121167 267.062278 
L 315.679838 264.215342 
L 319.71299 261.60565 
L 323.034416 259.7077 
L 326.355834 258.995966 
L 332.761433 255.20005 
L 328.253791 259.470456 
L 332.761433 259.233211 
L 337.031838 259.7077 
L 348.894057 259.7077 
L 353.164462 259.233211 
L 356.723125 258.995966 
L 360.519041 258.521477 
L 365.026682 256.860764 
L 368.3481 254.725561 
L 374.041973 251.404143 
L 377.600636 250.21792 
L 377.600636 246.659249 
L 379.498593 249.268941 
L 381.633796 248.557207 
L 391.123568 247.845472 
L 420.779126 247.845472 
L 428.834697 246.502883 
L 430.49541 244.130435 
L 432.630612 242.232478 
L 439.98519 238.91106 
L 443.543853 238.91106 
L 441.171414 240.571765 
L 438.561722 241.757988 
L 435.714785 244.36768 
L 433.579591 246.740127 
L 432.156123 250.536035 
L 433.105102 253.620216 
L 435.477541 255.280921 
L 439.036211 256.467144 
L 442.594874 255.518166 
L 448.763237 252.433992 
L 457.066785 247.451853 
L 454.457102 250.29879 
L 450.898431 252.433992 
L 444.967321 255.043676 
L 440.696924 257.178879 
L 448.288747 260.73755 
L 453.270878 262.398254 
L 458.964743 264.058967 
L 466.556566 265.007946 
L 473.436655 265.482436 
L 482.926435 265.71968 
L 484.349904 264.533457 
L 487.671322 262.872744 
L 492.178963 261.449275 
L 496.212123 261.923765 
L 501.668744 264.296212 
L 494.314166 262.398254 
L 488.857545 263.347233 
L 486.485098 265.007946 
L 485.773364 267.617638 
L 490.755503 270.939056 
L 496.923858 273.548748 
L 501.431499 276.632921 
L 507.599853 280.191592 
L 513.530963 284.224744 
L 519.462081 289.681364 
L 515.666166 287.783415 
L 510.684035 284.224744 
L 505.464659 280.903326 
L 501.905988 278.056389 
L 487.196832 270.701811 
L 482.926435 267.380393 
L 476.520836 266.431415 
L 470.826963 266.431415 
L 462.523414 265.482436 
L 456.829541 264.533457 
L 437.849988 256.941634 
L 431.79841 254.013827 
L 425.392811 252.353122 
L 423.020364 251.878633 
L 408.548452 251.166898 
L 401.905608 251.641388 
L 396.448988 251.641388 
L 391.704102 252.353122 
L 387.196452 253.302101 
L 384.586768 255.437295 
L 383.1633 257.809742 
L 383.1633 260.893916 
L 384.824005 264.215342 
L 390.992368 266.350544 
L 394.55103 266.587789 
L 399.058672 266.587789 
L 404.040811 267.536768 
L 415.428541 269.197473 
L 403.803566 268.722983 
L 399.295916 268.011249 
L 393.127562 268.011249 
L 389.331654 267.536768 
L 383.400545 267.536768 
L 379.604629 265.876055 
L 374.385253 262.791873 
L 370.352101 261.13116 
L 366.793431 260.893916 
L 362.048544 261.842894 
L 357.30365 263.503608 
L 353.270498 266.113299 
L 349.949072 268.960228 
L 345.91592 273.467878 
L 344.017962 277.263785 
L 339.273076 280.110722 
L 333.816456 283.194895 
L 327.648101 286.516321 
L 323.852185 291.261207 
L 317.683831 293.870899 
L 311.040987 295.057123 
L 311.040987 295.057123 
" style="fill:none;stroke:#000000;stroke-linecap:square;stroke-width:1.5;"/>
   </g>
   <g id="line2d_3">
    <path clip-path="url(#pc77a55035a)" d="M 326.796731 238.617413 
L 336.906485 230.52961 
L 343.781115 226.485709 
L 356.721607 221.228635 
L 372.897222 219.206684 
L 380.176246 218.802291 
L 386.646483 219.206684 
L 399.991368 218.397897 
L 407.270393 219.206684 
L 414.549417 219.206684 
L 421.424048 219.611069 
L 429.511851 219.611069 
L 449.326974 220.419856 
L 456.605998 222.037414 
L 463.885023 226.081315 
L 470.759662 230.125217 
L 478.038687 235.38229 
L 493.001121 245.087659 
L 482.082588 239.426192 
L 475.612342 235.38229 
L 465.906974 230.125217 
L 456.605998 226.081315 
L 448.922589 224.059364 
L 438.408441 222.846192 
L 427.894294 222.441807 
L 416.975753 222.846192 
L 407.270393 221.228635 
L 397.160631 220.419856 
L 385.837705 221.63302 
L 369.257705 222.846192 
L 355.508435 223.654971 
L 347.420632 226.890094 
L 326.796731 238.617413 
" style="fill:none;stroke:#000000;stroke-linecap:square;stroke-width:1.5;"/>
   </g>
   <g id="line2d_4">
    <path clip-path="url(#pc77a55035a)" d="M 351.541107 360.14065 
L 355.183635 357.01848 
L 360.647438 355.977757 
L 365.07051 356.237936 
L 371.054662 358.059203 
L 379.640627 360.400829 
L 387.185868 361.961918 
L 393.430208 361.441552 
L 396.03202 359.360105 
L 399.154182 358.059203 
L 402.536538 358.319382 
L 406.439244 358.839748 
L 410.08178 358.839748 
L 415.025209 358.059203 
L 422.050093 357.538846 
L 427.513888 358.059203 
L 433.758228 357.538846 
L 440.002567 356.237936 
L 444.945996 355.717578 
L 449.889434 355.4574 
L 455.09305 356.498123 
L 459.776301 358.579569 
L 465.500274 360.14065 
L 469.923346 360.921194 
L 467.581721 362.222096 
L 461.857747 364.563722 
L 452.491238 365.864624 
L 444.685818 365.604445 
L 438.961844 366.384989 
L 431.416602 369.246972 
L 422.830638 372.108963 
L 414.244673 373.930231 
L 402.536538 374.19041 
L 393.170029 372.629329 
L 385.624788 368.986793 
L 379.380448 364.563722 
L 373.916653 361.181373 
L 365.851046 361.441552 
L 359.866893 360.400829 
L 351.541107 360.14065 
" style="fill:none;stroke:#000000;stroke-linecap:square;stroke-width:1.5;"/>
   </g>
   <g id="line2d_5">
    <path clip-path="url(#pc77a55035a)" d="M 367.412135 396.04559 
L 365.07051 393.964152 
L 359.606715 390.581795 
L 354.923456 388.240169 
L 354.663277 385.898544 
L 355.443822 383.036553 
L 357.525268 381.215294 
L 361.94834 379.133847 
L 368.192679 376.792222 
L 374.957376 375.491312 
L 384.844243 374.450588 
L 390.828404 376.271856 
L 395.511654 377.572758 
L 401.755994 378.353303 
L 409.821593 378.353303 
L 432.717504 376.271856 
L 443.384916 375.751499 
L 447.547809 376.271856 
L 452.751417 377.312579 
L 457.174497 379.133847 
L 460.556845 379.133847 
L 462.638292 382.776374 
L 461.597568 386.679089 
L 457.955033 389.280893 
L 453.79214 392.142884 
L 449.108889 392.923428 
L 444.685818 391.882705 
L 438.701657 392.403062 
L 431.156415 394.484509 
L 425.432442 397.086313 
L 421.789914 400.989027 
L 418.147379 403.851018 
L 412.683584 407.233367 
L 409.301235 407.753724 
L 399.154182 399.688125 
L 392.90985 396.04559 
L 382.762797 394.22433 
L 375.217555 395.004875 
L 367.412135 396.04559 
" style="fill:none;stroke:#000000;stroke-linecap:square;stroke-width:1.5;"/>
   </g>
   <g id="line2d_6">
    <path clip-path="url(#pc77a55035a)" d="M 375.95 196.711558 
L 386.059754 194.285222 
L 398.191459 193.476435 
L 412.345123 193.476435 
L 425.689999 194.689607 
L 444.696343 195.498386 
L 432.160245 196.711558 
L 422.85927 196.307173 
L 412.749508 195.498386 
L 401.426582 195.498386 
L 389.699271 196.307173 
L 375.95 196.711558 
" style="fill:none;stroke:#000000;stroke-linecap:square;stroke-width:1.5;"/>
   </g>
   <g id="line2d_7">
    <path clip-path="url(#pc77a55035a)" d="M 386.92569 327.618059 
L 393.950574 326.317148 
L 398.633824 326.317148 
L 405.918887 326.577336 
L 416.586298 326.05697 
L 422.050093 326.05697 
L 433.758228 324.756068 
L 423.090816 327.618059 
L 416.326111 330.740229 
L 408.520691 332.04113 
L 400.194905 333.081854 
L 393.690387 331.520765 
L 386.92569 327.618059 
L 386.92569 327.618059 
" style="fill:none;stroke:#000000;stroke-linecap:square;stroke-width:1.5;"/>
   </g>
  </g>
 </g>
 <defs>
  <clipPath id="pc77a55035a">
   <rect height="645.12" width="829.44" x="0" y="0"/>
  </clipPath>
 </defs>
</svg>
