<?xml version="1.0" encoding="utf-8" standalone="no"?>
<!DOCTYPE svg PUBLIC "-//W3C//DTD SVG 1.1//EN"
  "http://www.w3.org/Graphics/SVG/1.1/DTD/svg11.dtd">
<!-- Created with matplotlib (https://matplotlib.org/) -->
<svg height="246.24pt" version="1.1" viewBox="0 0 414.72 246.24" width="414.72pt" xmlns="http://www.w3.org/2000/svg" xmlns:xlink="http://www.w3.org/1999/xlink">
 <defs>
  <style type="text/css">
*{stroke-linecap:butt;stroke-linejoin:round;}
  </style>
 </defs>
 <g id="figure_1">
  <g><image xlink:href="../../img/cb/weasel_cor_cell.json.cb-50%25.png" width="414.71999999999997px" height="246.23999999999998px"/></g>

  <g id="patch_1">
   <path d="M 0 246.24 
L 414.72 246.24 
L 414.72 0 
L 0 0 
z
" style="fill:none;"/>
  </g>
  <g id="axes_1">
   <g id="line2d_1">
    <path clip-path="url(#p37c51aeb04)" d="M 123.823732 120.876378 
L 122.849159 120.706885 
L 121.374468 118.937263 
L 120.981218 116.971009 
L 119.703155 115.299695 
L 117.441969 115.103073 
L 114.885842 115.103073 
L 111.739839 114.906446 
L 109.576962 116.577759 
L 108.593839 119.527135 
L 108.888775 122.771453 
L 109.478652 125.524202 
L 113.017902 131.226333 
L 115.279092 132.799333 
L 118.130155 134.274019 
L 120.293032 135.060523 
L 123.144095 135.158832 
L 124.913722 134.175709 
L 128.944539 134.175709 
L 131.304039 135.158832 
L 132.287166 137.911586 
L 134.646665 139.287963 
L 136.416292 141.745776 
L 137.694356 145.285026 
L 138.972419 147.054652 
L 142.118419 149.512466 
L 146.444172 151.183779 
L 147.694055 153.33494 
L 149.653972 154.510891 
L 153.57381 149.807087 
L 156.513686 145.103283 
L 158.669595 140.007498 
L 160.433524 134.911709 
L 161.021497 128.247988 
L 160.433524 124.524142 
L 160.8709 122.035395 
L 165.364213 119.253818 
L 170.927366 114.974468 
L 175.848616 114.332568 
L 179.914 114.332568 
L 186.546991 113.262728 
L 191.682207 113.048761 
L 200.882808 115.402405 
L 206.873894 114.974468 
L 210.511341 115.830338 
L 224.419221 114.760501 
L 230.624278 114.760501 
L 238.755038 115.402405 
L 245.174062 117.114141 
L 248.811509 118.825881 
L 253.946725 121.821425 
L 257.370206 125.030939 
L 259.566712 128.50791 
L 262.294798 132.519799 
L 264.220505 136.852636 
L 266.467163 140.222626 
L 267.269543 142.469284 
L 271.441904 152.418765 
L 273.528087 153.542097 
L 280.589014 145.518318 
L 284.600903 141.666905 
L 287.970889 137.173588 
L 292.94563 137.334064 
L 297.599422 135.729309 
L 301.450836 133.48265 
L 300.006557 130.27314 
L 298.401802 126.421727 
L 298.72275 122.891265 
L 300.006557 119.681751 
L 299.364653 117.274617 
L 295.031812 116.311766 
L 289.73612 115.669862 
L 285.563755 115.027963 
L 282.193769 114.386059 
L 275.935221 112.94178 
L 280.268062 112.1394 
L 286.687086 112.620828 
L 292.143254 113.423204 
L 296.315619 114.225583 
L 301.450836 114.546535 
L 306.265105 114.386059 
L 307.548908 111.016073 
L 307.432123 107.076673 
L 306.030572 101.870925 
L 304.829249 98.467165 
L 302.626816 96.064509 
L 299.623497 95.664068 
L 295.619076 95.864291 
L 298.021728 93.661858 
L 296.620181 89.857656 
L 291.214211 83.250358 
L 289.011778 83.250358 
L 286.809345 87.855442 
L 287.009568 85.853232 
L 287.009568 82.449471 
L 287.209787 79.446156 
L 284.40669 78.244828 
L 280.602488 75.441732 
L 279.200942 74.841072 
L 278.199837 79.646379 
L 276.397845 84.051244 
L 274.996299 87.855442 
L 270.190992 92.060089 
L 271.99298 87.254782 
L 278.199837 73.239303 
L 275.997404 70.235984 
L 272.593644 67.032446 
L 268.789442 65.6309 
L 265.786127 66.031341 
L 263.383471 70.035761 
L 262.182148 74.440627 
L 259.57927 79.846597 
L 257.977501 85.252568 
L 258.177723 82.649694 
L 259.379051 78.04461 
L 262.382366 72.638639 
L 263.783917 67.63311 
L 264.184358 63.828908 
L 261.381261 60.825589 
L 257.176618 59.424043 
L 254.173299 60.224929 
L 253.172194 58.62316 
L 250.168879 57.021391 
L 247.293828 55.820064 
L 243.289404 53.917963 
L 239.785534 53.817849 
L 239.585316 57.421833 
L 241.887858 61.125921 
L 243.289404 63.628686 
L 244.991286 66.031341 
L 246.492942 68.433992 
L 247.894492 70.436207 
L 245.892278 68.033551 
L 241.387303 61.326144 
L 239.084761 58.72327 
L 235.981333 58.322828 
L 233.7789 59.323933 
L 231.676581 62.12703 
L 232.377354 65.130345 
L 234.179345 68.033551 
L 236.481887 70.936757 
L 238.183765 72.838858 
L 240.586421 75.942286 
L 240.886753 78.04461 
L 241.787749 82.04903 
L 240.786639 81.54848 
L 238.984652 75.541845 
L 236.581996 72.238194 
L 233.979123 69.435101 
L 230.27503 66.732114 
L 226.871274 65.230454 
L 221.36519 63.929017 
L 216.159442 63.328354 
L 210.152807 63.028022 
L 205.547723 62.527471 
L 199.61116 62.700662 
L 196.056964 63.895774 
L 192.44579 64.085836 
L 188.074371 65.226204 
L 183.702953 67.506944 
L 178.761348 72.828672 
L 177.050794 75.679594 
L 175.530302 79.480831 
L 174.199872 81.381447 
L 175.34024 77.770277 
L 177.050794 73.96904 
L 179.141472 70.928056 
L 181.612275 68.457254 
L 185.033387 65.606328 
L 189.404805 63.895774 
L 194.536468 62.375281 
L 199.478072 61.615033 
L 204.039553 61.615033 
L 208.791095 61.234909 
L 213.162513 61.615033 
L 218.104114 62.185219 
L 223.23578 62.945463 
L 228.367447 64.275898 
L 230.838249 61.995157 
L 233.499109 58.764107 
L 236.350035 56.293305 
L 236.730159 52.872197 
L 234.829543 49.070964 
L 230.648187 45.839914 
L 222.095412 40.708252 
L 217.533932 38.617569 
L 212.212203 37.287139 
L 207.460661 37.287139 
L 202.519061 37.857325 
L 198.527762 40.138066 
L 193.776224 42.228744 
L 179.901721 48.880902 
L 178.191166 51.161642 
L 180.441238 56.216072 
L 178.981606 58.945207 
L 175.886854 62.776009 
L 172.99594 65.728044 
L 168.936835 69.334743 
L 171.115819 66.988183 
L 173.537859 64.671769 
L 176.736428 61.192624 
L 178.001104 56.673429 
L 177.050794 53.252321 
L 174.770054 52.111948 
L 166.407341 54.962875 
L 165.52021 56.893152 
L 164.15333 57.053553 
L 162.157681 56.863491 
L 160.352098 57.243615 
L 157.881295 58.574045 
L 155.695584 60.284603 
L 155.166339 62.014288 
L 158.115716 68.109669 
L 158.508966 70.469168 
L 159.492093 73.221922 
L 160.86847 83.053179 
L 160.47522 86.395806 
L 159.885343 83.643052 
L 160.08197 79.513926 
L 159.688716 75.581422 
L 158.705593 72.828672 
L 157.525843 68.896169 
L 156.346089 65.356915 
L 154.576466 62.604165 
L 152.41359 63.587292 
L 148.481086 66.143419 
L 144.941832 68.699546 
L 145.138459 71.255673 
L 145.411815 72.440215 
L 143.56546 69.486046 
L 140.419456 69.879296 
L 136.880202 72.042172 
L 134.913953 73.615172 
L 134.127453 76.761172 
L 136.093702 82.070052 
L 137.470079 87.182306 
L 137.863329 91.508059 
L 137.273456 87.378929 
L 135.11058 82.266675 
L 132.947703 78.137549 
L 131.571326 76.564549 
L 127.442199 78.924049 
L 120.560319 85.216052 
L 117.610942 88.165428 
L 114.071689 91.901309 
L 111.515562 96.030436 
L 109.745939 101.142689 
L 110.139189 107.041442 
L 111.318939 110.777319 
L 114.268316 112.743569 
L 119.577192 113.136819 
L 125.8692 112.546946 
L 130.981449 111.367196 
L 135.897079 110.384069 
L 143.368833 110.580692 
L 136.880202 111.170569 
L 131.374699 112.546946 
L 125.672573 113.136819 
L 123.045786 113.726696 
L 120.981218 114.808132 
L 121.669409 118.347386 
L 123.823732 120.876378 
L 123.823732 120.876378 
" style="fill:none;stroke:#000000;stroke-linecap:square;stroke-width:1.5;"/>
   </g>
   <g id="line2d_2">
    <path clip-path="url(#p37c51aeb04)" d="M 145.627624 73.375387 
L 146.318209 76.367922 
L 147.104709 81.086925 
L 147.891209 85.019429 
L 147.891209 88.362056 
L 146.318209 78.727426 
L 145.627624 73.375387 
L 145.627624 73.375387 
" style="fill:none;stroke:#000000;stroke-linecap:square;stroke-width:1.5;"/>
   </g>
  </g>
 </g>
 <defs>
  <clipPath id="p37c51aeb04">
   <rect height="246.24" width="414.72" x="0" y="0"/>
  </clipPath>
 </defs>
</svg>
