<?xml version="1.0" encoding="utf-8" standalone="no"?>
<!DOCTYPE svg PUBLIC "-//W3C//DTD SVG 1.1//EN"
  "http://www.w3.org/Graphics/SVG/1.1/DTD/svg11.dtd">
<!-- Created with matplotlib (https://matplotlib.org/) -->
<svg height="414.72pt" version="1.1" viewBox="0 0 570.24 414.72" width="570.24pt" xmlns="http://www.w3.org/2000/svg" xmlns:xlink="http://www.w3.org/1999/xlink">
 <defs>
  <style type="text/css">
*{stroke-linecap:butt;stroke-linejoin:round;}
  </style>
 </defs>
 <g id="figure_1">
  <g><image xlink:href="../../img/cb/yellowmongoose_cor_cell.json.cb-50%25.png" width="570.24px" height="414.71999999999997px"/></g>

  <g id="patch_1">
   <path d="M 0 414.72 
L 570.24 414.72 
L 570.24 0 
L 0 0 
z
" style="fill:none;"/>
  </g>
  <g id="axes_1">
   <g id="line2d_1">
    <path clip-path="url(#pb6f859cdcc)" d="M 430.297664 156.042441 
L 427.257161 151.847299 
L 424.364898 148.633678 
L 419.865825 145.098691 
L 416.00948 142.849157 
L 410.867677 145.098691 
L 403.797704 154.418204 
L 404.761792 160.524088 
L 401.54817 156.025014 
L 393.68715 155.493528 
L 394.799557 155.382285 
L 399.298631 154.418204 
L 403.476346 152.811387 
L 407.97542 147.66959 
L 411.510406 143.813245 
L 412.153129 140.278253 
L 408.618143 136.421908 
L 402.512258 130.958747 
L 397.370461 127.42376 
L 394.156834 124.852862 
L 391.264571 123.246051 
L 387.408226 123.56741 
L 385.48005 125.81695 
L 385.48005 129.994659 
L 386.444138 133.529645 
L 389.015036 137.064631 
L 386.765502 135.45782 
L 384.194598 131.922834 
L 384.515963 128.387848 
L 385.48005 123.56741 
L 383.873239 120.996511 
L 374.875092 117.140166 
L 371.66147 117.140166 
L 369.090566 121.317876 
L 369.090566 127.745125 
L 369.41193 132.565557 
L 368.447843 137.707355 
L 366.519667 141.563705 
L 364.591498 146.705502 
L 365.55558 142.849157 
L 366.841032 138.671442 
L 367.805119 134.493733 
L 368.447843 130.316023 
L 366.519667 126.138308 
L 362.341958 126.459673 
L 358.164248 127.102396 
L 361.699235 125.81695 
L 365.55558 123.246051 
L 367.483755 119.3897 
L 368.447843 114.890627 
L 362.984681 111.35564 
L 355.914709 107.177931 
L 345.631115 101.714769 
L 336.954331 98.179783 
L 329.884359 95.930249 
L 313.173516 92.716622 
L 305.139456 91.752534 
L 297.426754 92.073899 
L 276.85956 94.644797 
L 269.468229 96.251608 
L 263.683703 98.822506 
L 260.791446 102.678857 
L 261.112805 106.213843 
L 266.254602 107.49929 
L 270.911222 107.110603 
L 274.770709 107.017249 
L 285.214985 104.124986 
L 297.908801 103.160898 
L 305.460814 102.839539 
L 311.566699 103.160898 
L 317.672584 104.44635 
L 323.778474 105.892479 
L 329.562994 106.695884 
L 334.704792 108.302701 
L 339.043183 110.23087 
L 344.345662 113.444498 
L 341.614082 112.319728 
L 336.150926 109.909512 
L 330.527082 107.820654 
L 324.742556 106.213843 
L 318.797354 105.089073 
L 313.173516 104.44635 
L 308.031713 104.124986 
L 301.283105 103.964304 
L 295.498579 103.964304 
L 290.999511 104.285668 
L 285.214985 104.928391 
L 280.23387 105.892479 
L 278.627053 106.535208 
L 271.717763 107.820654 
L 267.861418 109.266783 
L 264.326432 111.034276 
L 261.434169 112.801769 
L 257.899183 113.926539 
L 254.524879 114.729944 
L 250.668528 116.65812 
L 247.615583 118.586295 
L 244.562644 120.996511 
L 240.224252 124.210139 
L 238.456759 125.334903 
L 243.116515 121.478558 
L 247.133542 118.907659 
L 250.668528 114.729944 
L 250.025805 111.034276 
L 247.776265 108.784742 
L 242.313104 110.070194 
L 236.849948 111.516323 
L 231.065422 113.765857 
L 222.456942 118.856458 
L 218.301735 122.232563 
L 219.340541 127.686276 
L 221.158443 133.919091 
L 222.197244 140.151905 
L 223.495748 150.539927 
L 222.976345 158.330945 
L 223.236044 154.175732 
L 222.716647 148.46232 
L 221.158443 136.256396 
L 219.080836 131.062382 
L 217.522633 125.348971 
L 213.367425 124.829568 
L 203.758505 131.322086 
L 199.603297 134.957891 
L 200.382399 138.593701 
L 201.680898 143.528011 
L 202.46 149.501121 
L 201.940602 153.136931 
L 201.421199 147.942917 
L 200.122694 141.969807 
L 197.006287 138.8534 
L 191.812279 141.450404 
L 186.877969 144.826516 
L 182.722756 149.241422 
L 178.048145 153.916033 
L 176.230243 158.071241 
L 175.191442 161.96675 
L 177.528748 164.563754 
L 182.463057 164.044357 
L 180.125752 166.121958 
L 180.645155 171.835375 
L 184.28096 175.471179 
L 187.397367 177.548786 
L 194.409283 175.990582 
L 199.343593 174.692077 
L 193.370482 177.289082 
L 188.695872 178.327888 
L 188.176469 180.924892 
L 185.319766 184.300998 
L 186.358566 181.963692 
L 186.877969 179.366688 
L 183.761562 177.029383 
L 180.904854 173.133874 
L 179.34665 169.757768 
L 176.749646 165.342856 
L 173.113836 164.044357 
L 170.77653 165.732409 
L 167.530274 169.238365 
L 165.063119 173.783126 
L 163.504915 178.198038 
L 161.16761 183.392047 
L 160.128809 189.105458 
L 160.648212 193.260671 
L 162.20641 194.948724 
L 167.530274 196.117374 
L 173.892937 196.896476 
L 169.478031 196.377079 
L 163.375066 195.987525 
L 158.960154 196.377079 
L 155.454198 198.714378 
L 152.508669 202.937427 
L 150.455543 209.390126 
L 150.455543 216.722734 
L 151.335452 223.468736 
L 155.735019 228.748212 
L 159.254671 232.561167 
L 163.654238 234.907602 
L 162.187712 240.187084 
L 161.894409 246.346474 
L 165.120759 251.039344 
L 168.640411 253.385779 
L 171.866755 256.025517 
L 176.852933 255.732214 
L 179.199368 252.212562 
L 184.478844 249.279515 
L 181.839106 253.09247 
L 179.492671 257.78534 
L 180.079277 261.01169 
L 189.75832 263.064822 
L 194.157887 261.598301 
L 197.090934 256.025517 
L 200.610586 251.039344 
L 204.130233 246.346474 
L 201.783798 250.452732 
L 198.264151 255.438905 
L 196.211019 258.958558 
L 195.624407 263.064822 
L 200.903889 263.358125 
L 206.769976 258.958558 
L 209.703017 251.332647 
L 212.636064 244.293342 
L 211.462846 239.600472 
L 214.395887 233.734385 
L 217.035625 227.281692 
L 221.435192 223.762039 
L 229.647714 220.828993 
L 238.446843 218.482558 
L 251.645538 210.563344 
L 255.458493 209.096824 
L 257.511625 215.549517 
L 259.271454 218.775866 
L 270.123714 225.815171 
L 275.40319 227.574995 
L 278.62954 231.094647 
L 282.735798 232.267864 
L 290.655017 233.147779 
L 297.107711 232.854476 
L 306.493451 232.561167 
L 315.292584 229.334824 
L 337.877014 214.376299 
L 341.689975 209.390126 
L 346.089536 211.736561 
L 353.422144 215.256214 
L 360.168146 217.602649 
L 369.260583 218.482558 
L 374.246756 222.882125 
L 379.526231 229.921429 
L 380.112843 234.320996 
L 381.579363 240.480387 
L 384.51241 245.759863 
L 389.791886 250.746041 
L 396.244579 249.572824 
L 394.191453 245.759863 
L 390.965103 240.77369 
L 388.911971 237.254037 
L 391.258406 241.066993 
L 395.951276 245.759863 
L 399.764232 247.812995 
L 406.803536 247.812995 
L 407.683451 245.173257 
L 403.870496 241.066993 
L 402.990581 239.600472 
L 405.337016 241.066993 
L 410.323189 244.586645 
L 415.628964 243.851064 
L 419.415626 239.747127 
L 420.148886 235.200905 
L 417.215839 232.561167 
L 412.229667 230.65469 
L 406.950191 228.014952 
L 398.884323 223.615385 
L 395.657973 222.148864 
L 392.431624 220.53569 
L 389.058626 220.53569 
L 384.219101 219.655775 
L 386.565536 219.509126 
L 390.085189 219.949084 
L 394.044798 219.802429 
L 398.151057 221.562259 
L 410.029886 227.135037 
L 415.895973 230.214732 
L 420.735492 232.267864 
L 426.941094 231.694323 
L 432.621443 227.821361 
L 435.978013 221.108222 
L 438.301786 214.653282 
L 438.559985 208.972939 
L 437.785394 203.808988 
L 434.170626 199.161429 
L 430.555863 196.83765 
L 428.880486 196.518532 
L 435.461615 193.481086 
L 437.527195 185.476958 
L 435.978013 174.890863 
L 434.170626 170.501503 
L 429.006675 172.050686 
L 424.100923 172.825283 
L 420.744353 172.308885 
L 424.875514 171.792493 
L 431.072255 169.985105 
L 433.912432 167.661326 
L 432.105045 158.882612 
L 430.297664 156.042441 
L 430.297664 156.042441 
" style="fill:none;stroke:#000000;stroke-linecap:square;stroke-width:1.5;"/>
   </g>
   <g id="line2d_2">
    <path clip-path="url(#pb6f859cdcc)" d="M 418.578109 195.102472 
L 417.904182 195.030269 
L 411.707441 193.997478 
L 406.027092 193.481086 
L 413.514822 193.73928 
L 418.578109 195.102472 
" style="fill:none;stroke:#000000;stroke-linecap:square;stroke-width:1.5;"/>
   </g>
   <g id="line2d_3">
    <path clip-path="url(#pb6f859cdcc)" d="M 390.829785 155.779264 
L 385.801415 157.631825 
L 388.372313 156.025014 
L 390.829785 155.779264 
" style="fill:none;stroke:#000000;stroke-linecap:square;stroke-width:1.5;"/>
   </g>
   <g id="line2d_4">
    <path clip-path="url(#pb6f859cdcc)" d="M 345.097929 130.416836 
L 342.979749 129.181229 
L 338.213849 126.180478 
L 333.094918 123.885786 
L 326.387356 121.591095 
L 319.679794 119.649428 
L 311.736631 118.413826 
L 304.146491 117.707766 
L 296.732869 117.531254 
L 289.672277 117.707766 
L 283.141227 118.590344 
L 276.963213 119.649428 
L 265.666262 123.003214 
L 260.194302 125.474418 
L 255.428402 127.239567 
L 245.896606 133.417587 
L 240.954188 137.30091 
L 239.365556 137.124398 
L 243.425397 134.123647 
L 246.779178 131.82895 
L 255.428402 126.710025 
L 264.077631 123.003214 
L 266.901864 120.708517 
L 267.960954 119.649428 
L 270.432163 120.885035 
L 276.257153 119.296398 
L 283.847287 117.884284 
L 291.966969 117.354736 
L 299.910138 116.648676 
L 308.559362 117.178224 
L 316.149496 118.237314 
L 323.916147 120.178975 
L 330.094167 122.120637 
L 336.272187 124.768358 
L 341.56763 127.769109 
L 345.097929 130.416836 
" style="fill:none;stroke:#000000;stroke-linecap:square;stroke-width:1.5;"/>
   </g>
   <g id="line2d_5">
    <path clip-path="url(#pb6f859cdcc)" d="M 344.501418 149.571443 
L 343.093404 151.107459 
L 339.253368 153.795484 
L 334.901325 156.48351 
L 329.141273 159.683537 
L 324.533227 162.371563 
L 319.54118 165.059589 
L 312.885117 168.13162 
L 304.053029 172.867663 
L 299.700991 174.915686 
L 296.244955 176.195698 
L 292.788924 176.067696 
L 291.124907 174.915686 
L 295.47695 175.555689 
L 299.828993 174.403679 
L 305.205045 171.843654 
L 317.365156 165.699598 
L 327.477256 160.195544 
L 333.365309 156.995512 
L 337.589351 154.435488 
L 342.069396 151.491458 
L 344.501418 149.571443 
" style="fill:none;stroke:#000000;stroke-linecap:square;stroke-width:1.5;"/>
   </g>
   <g id="line2d_6">
    <path clip-path="url(#pb6f859cdcc)" d="M 337.154759 140.301661 
L 335.213098 140.831209 
L 329.741137 141.007721 
L 325.328267 141.537269 
L 321.268426 141.360751 
L 315.972983 142.066811 
L 311.383601 142.066811 
L 305.382093 142.243323 
L 300.616198 142.066811 
L 295.67378 141.713781 
L 291.084397 141.537269 
L 288.260158 141.184239 
L 283.317745 141.537269 
L 276.610183 141.537269 
L 271.667765 142.066811 
L 267.254894 142.949383 
L 262.488999 144.18499 
L 253.663258 147.362253 
L 249.250387 148.774373 
L 245.896606 150.363004 
L 242.189795 151.951642 
L 243.778427 150.009975 
L 249.250387 147.891801 
L 254.54583 145.420592 
L 258.60567 144.53802 
L 264.254143 142.243323 
L 269.726103 141.360751 
L 274.315486 141.007721 
L 280.316994 141.007721 
L 286.848038 140.831209 
L 292.496516 141.360751 
L 297.615441 141.537269 
L 302.910889 141.360751 
L 308.206332 141.537269 
L 314.031322 141.184239 
L 318.797223 141.184239 
L 323.739635 140.831209 
L 337.154759 140.301661 
" style="fill:none;stroke:#000000;stroke-linecap:square;stroke-width:1.5;"/>
   </g>
   <g id="line2d_7">
    <path clip-path="url(#pb6f859cdcc)" d="M 317.561615 202.611393 
L 313.854804 202.964417 
L 303.616949 202.964417 
L 297.968471 203.140935 
L 293.026058 203.670477 
L 287.024556 204.023507 
L 280.493506 205.435626 
L 273.962462 205.788656 
L 270.255651 205.788656 
L 277.492755 204.906084 
L 290.907879 202.964417 
L 295.32075 202.434875 
L 307.32376 202.434875 
L 313.854804 202.258363 
L 317.561615 202.611393 
L 317.561615 202.611393 
" style="fill:none;stroke:#000000;stroke-linecap:square;stroke-width:1.5;"/>
   </g>
   <g id="line2d_8">
    <path clip-path="url(#pb6f859cdcc)" d="M 329.958302 92.760148 
L 326.734576 89.75134 
L 322.866102 86.420157 
L 318.782716 83.411343 
L 313.83967 81.584562 
L 308.466795 80.402534 
L 301.589512 79.972699 
L 293.852564 80.402534 
L 286.975282 81.584562 
L 281.387488 84.05609 
L 276.122069 87.817103 
L 271.501397 91.470659 
L 268.492583 94.372011 
L 270.85665 95.339133 
L 276.551899 94.157099 
L 282.139692 93.404896 
L 289.339348 92.330318 
L 295.034598 92.115406 
L 300.944764 91.363203 
L 306.102728 91.470659 
L 311.045773 92.115406 
L 316.096281 92.760148 
L 321.684074 94.157099 
L 325.659998 95.016759 
L 330.925423 95.876419 
L 331.355253 94.264555 
L 329.958302 92.760148 
" style="fill:none;stroke:#000000;stroke-linecap:square;stroke-width:1.5;"/>
   </g>
  </g>
 </g>
 <defs>
  <clipPath id="pb6f859cdcc">
   <rect height="414.72" width="570.24" x="0" y="0"/>
  </clipPath>
 </defs>
</svg>
