<?xml version="1.0" encoding="utf-8" standalone="no"?>
<!DOCTYPE svg PUBLIC "-//W3C//DTD SVG 1.1//EN"
  "http://www.w3.org/Graphics/SVG/1.1/DTD/svg11.dtd">
<!-- Created with matplotlib (https://matplotlib.org/) -->
<svg height="440.64pt" version="1.1" viewBox="0 0 635.04 440.64" width="635.04pt" xmlns="http://www.w3.org/2000/svg" xmlns:xlink="http://www.w3.org/1999/xlink">
 <defs>
  <style type="text/css">
*{stroke-linecap:butt;stroke-linejoin:round;}
  </style>
 </defs>
 <g id="figure_1">
  <g><image xlink:href="../../img/cb/zebra_cor_cell.json.cb-50%25.png" width="635.04px" height="440.64px"/></g>

  <g id="patch_1">
   <path d="M 0 440.64 
L 635.04 440.64 
L 635.04 0 
L 0 0 
z
" style="fill:none;"/>
  </g>
  <g id="axes_1">
   <g id="line2d_1">
    <path clip-path="url(#pb75c82771c)" d="M 155.361361 212.929445 
L 156.665619 215.656523 
L 161.171221 219.332147 
L 166.032529 216.723638 
L 162.831178 219.332147 
L 162.356905 221.584945 
L 164.372572 224.786296 
L 167.455355 226.920532 
L 170.656706 227.513374 
L 173.858057 224.074886 
L 175.636582 223.007772 
L 174.095194 224.667728 
L 171.960958 227.276237 
L 171.842389 229.766178 
L 172.553799 232.374688 
L 174.806603 234.627486 
L 178.482228 233.916076 
L 176.347992 236.524585 
L 177.652249 239.370231 
L 179.430774 241.148756 
L 182.394989 242.097303 
L 185.714908 241.030188 
L 187.505283 239.871713 
L 185.907801 242.321186 
L 187.291763 244.570123 
L 191.616639 247.165049 
L 197.498475 249.586977 
L 199.055434 248.030024 
L 199.228426 244.916112 
L 199.228426 248.894999 
L 200.43939 252.008912 
L 203.207313 252.181903 
L 206.148234 250.451952 
L 204.245286 252.873887 
L 200.43939 254.257849 
L 197.498475 254.257849 
L 195.422536 251.316928 
L 193.437909 250.6111 
L 190.250313 250.091466 
L 187.713004 250.624175 
L 186.513286 252.960386 
L 187.135607 255.577506 
L 188.519568 258.258931 
L 190.509015 261.199852 
L 192.152467 263.275791 
L 194.747393 264.573254 
L 197.255826 265.178739 
L 199.591256 263.967769 
L 200.629229 263.016301 
L 199.850752 264.919243 
L 201.321206 265.524728 
L 203.743141 265.697726 
L 206.078577 265.005742 
L 207.808527 263.794778 
L 210.230456 262.843304 
L 211.008932 261.545841 
L 210.662943 259.556394 
L 212.133404 258.34543 
L 213.517365 257.047967 
L 216.631278 253.847556 
L 212.825381 258.258931 
L 211.873914 260.594367 
L 212.565891 261.805331 
L 214.72833 262.497315 
L 221.215644 260.767364 
L 223.637579 258.777917 
L 226.059513 255.837003 
L 227.09748 253.588066 
L 228.048954 250.560652 
L 229.432916 249.17669 
L 231.595354 247.965726 
L 229.432916 249.522679 
L 228.221952 251.512126 
L 227.875956 254.280043 
L 229.432916 255.145019 
L 231.941343 254.885529 
L 234.882264 253.501567 
L 236.958203 251.858115 
L 234.449776 254.193551 
L 231.681853 255.837003 
L 229.000428 257.047967 
L 226.578494 258.950915 
L 224.502554 260.853863 
L 222.167118 262.670306 
L 219.399201 263.62178 
L 216.977267 263.535281 
L 214.295842 263.62178 
L 212.046905 265.697726 
L 210.835941 268.465643 
L 213.603864 270.022602 
L 218.534226 268.552142 
L 222.686105 268.033155 
L 227.616466 264.573254 
L 231.162866 261.026854 
L 234.276779 258.34543 
L 237.47719 255.318016 
L 240.418104 251.598619 
L 242.75354 247.879227 
L 251.101795 244.933671 
L 261.173358 242.744199 
L 269.493341 241.868409 
L 278.689114 241.430517 
L 287.884887 243.182091 
L 295.766978 246.247352 
L 304.962744 249.312608 
L 313.720626 252.377864 
L 322.916398 251.939972 
L 332.987955 248.436818 
L 344.811092 243.182091 
L 355.758438 237.927363 
L 364.516313 236.17579 
L 376.777341 236.613681 
L 387.286796 236.613681 
L 396.482569 237.489471 
L 405.678342 241.868409 
L 413.122535 248.436818 
L 421.880416 254.567335 
L 428.448825 256.756801 
L 435.455126 254.567335 
L 445.088791 252.815755 
L 449.905627 247.561034 
L 455.160348 243.182091 
L 456.036138 237.927363 
L 452.970882 236.613681 
L 450.343519 237.489471 
L 452.970882 233.986324 
L 449.029837 230.045278 
L 444.650899 226.542125 
L 441.585637 226.104233 
L 435.893018 226.542125 
L 432.389871 228.731597 
L 432.609671 231.587308 
L 435.455126 234.205267 
L 439.834064 236.613681 
L 436.987757 235.95684 
L 433.484604 235.518949 
L 429.98145 237.70842 
L 427.573035 238.584204 
L 430.256314 236.696808 
L 431.699493 233.993671 
L 430.865241 231.665189 
L 429.105666 229.60738 
L 428.229876 228.293698 
L 432.090875 226.141224 
L 436.221874 224.197227 
L 440.595877 221.281225 
L 443.754877 221.038227 
L 444.726875 223.954229 
L 447.156875 227.356227 
L 450.55888 230.029225 
L 453.474875 232.945227 
L 458.091877 235.618224 
L 462.951876 233.917225 
L 466.353874 230.272229 
L 468.783874 225.898226 
L 469.026878 222.496228 
L 467.568877 221.281225 
L 463.923874 221.038227 
L 460.764874 219.09423 
L 464.895879 220.552224 
L 469.998877 219.09423 
L 472.428876 215.692225 
L 474.129875 212.533225 
L 475.101874 207.430228 
L 474.37288 203.056225 
L 471.456878 201.355225 
L 464.166879 198.43923 
L 460.764874 199.654226 
L 456.633875 200.869229 
L 459.549878 198.43923 
L 464.166879 198.196225 
L 469.512874 199.411228 
L 474.615878 201.112227 
L 478.017876 198.682228 
L 479.718875 195.766226 
L 478.017876 193.579224 
L 480.690874 193.579224 
L 482.391879 192.121229 
L 482.758037 189.32043 
L 483.48538 185.438729 
L 482.756379 181.915229 
L 481.298378 179.849729 
L 479.354375 179.971225 
L 477.045877 180.94323 
L 473.522377 181.307724 
L 469.512874 179.120729 
L 473.157877 179.971225 
L 477.896374 179.971225 
L 481.541376 178.027228 
L 482.999377 174.868228 
L 480.812376 169.400724 
L 475.587876 160.166728 
L 472.550378 156.643228 
L 468.783874 154.334724 
L 465.017375 153.484227 
L 461.736879 154.577728 
L 460.47711 156.557357 
L 461.250877 153.241229 
L 462.46588 148.624228 
L 461.615377 143.642727 
L 461.250877 138.539729 
L 459.549878 133.436726 
L 456.51238 127.69585 
L 452.502877 122.046102 
L 448.493374 119.676851 
L 443.754877 118.036599 
L 439.380874 118.21885 
L 434.642377 120.223601 
L 431.908625 124.050854 
L 429.90388 128.06035 
L 428.445879 132.434353 
L 429.357129 137.17285 
L 432.273125 139.906602 
L 438.83413 141.364603 
L 430.268374 142.093604 
L 428.810379 144.827349 
L 427.534628 147.561101 
L 426.987878 150.841604 
L 426.805628 157.402602 
L 426.076627 165.421601 
L 426.258877 171.071349 
L 425.165376 175.809852 
L 423.889625 180.366099 
L 422.978375 173.258351 
L 422.978375 165.057101 
L 423.889625 156.491351 
L 422.978375 152.481855 
L 418.604378 154.4866 
L 412.954624 158.496103 
L 407.487127 160.865354 
L 402.019629 159.589604 
L 407.851627 159.407353 
L 413.501374 156.126851 
L 417.146377 151.388354 
L 414.230375 149.383603 
L 409.309628 150.477103 
L 403.659874 147.925602 
L 398.374626 147.014351 
L 394.547374 143.369355 
L 401.108378 144.462849 
L 407.487127 145.3741 
L 414.777125 144.462849 
L 418.057628 141.364603 
L 414.230375 137.3551 
L 409.127378 136.80835 
L 403.11313 135.897099 
L 398.556877 135.350349 
L 393.818379 135.168099 
L 389.079876 134.621355 
L 383.976879 132.616603 
L 381.972127 130.611852 
L 378.691625 126.055599 
L 375.775629 120.588101 
L 371.583876 116.031854 
L 368.303374 111.293351 
L 366.480879 107.101604 
L 363.929377 101.816351 
L 364.293878 97.260104 
L 364.840628 93.068351 
L 362.653626 90.516849 
L 360.466625 91.063599 
L 362.835877 88.147604 
L 360.648875 83.7736 
L 357.915129 80.493104 
L 354.999127 81.404349 
L 353.358876 84.867101 
L 352.629876 88.329854 
L 352.812126 92.33935 
L 354.816877 96.713353 
L 352.265375 93.615101 
L 350.807374 89.423354 
L 351.718625 84.867101 
L 353.541126 80.310854 
L 350.442874 75.207851 
L 346.068877 75.754601 
L 342.788375 80.310854 
L 341.512624 85.231601 
L 342.423875 88.512104 
L 343.881876 92.33935 
L 341.877124 89.605605 
L 339.325629 88.329854 
L 338.414378 92.1571 
L 339.872379 95.619853 
L 342.606125 101.08735 
L 345.522127 104.367852 
L 348.255879 105.643603 
L 351.718625 108.559599 
L 352.447625 112.204602 
L 353.358876 115.667354 
L 354.634627 120.041351 
L 356.092628 123.321853 
L 359.008624 127.1491 
L 360.102125 130.976352 
L 363.929377 136.07935 
L 360.466625 132.798854 
L 354.634627 122.957353 
L 353.176626 117.489849 
L 350.989624 112.022351 
L 349.713874 108.377349 
L 346.251127 105.825853 
L 342.970625 105.461353 
L 339.872379 107.101604 
L 340.054629 110.928851 
L 340.783624 115.485104 
L 342.423875 119.859101 
L 343.335125 124.233104 
L 345.157627 127.69585 
L 347.162378 127.1491 
L 346.615628 129.153851 
L 347.891379 131.340853 
L 349.34938 134.985849 
L 351.536375 137.901851 
L 352.994376 138.084101 
L 352.083125 139.906602 
L 354.452377 143.369355 
L 357.550629 145.7386 
L 353.723376 143.369355 
L 351.354125 138.630851 
L 348.802629 134.803605 
L 346.615628 130.794102 
L 343.881876 126.966849 
L 342.423875 123.139603 
L 341.512624 119.859101 
L 338.414378 116.214104 
L 336.956377 114.938354 
L 332.582374 112.386852 
L 328.208377 110.928851 
L 316.362125 111.840101 
L 310.894628 112.386852 
L 298.501625 114.756103 
L 292.305127 116.396355 
L 287.01988 118.94785 
L 284.286128 121.499352 
L 283.374877 123.868604 
L 280.823375 129.336101 
L 281.916876 131.887603 
L 285.561879 135.714849 
L 289.753625 135.897099 
L 296.861374 134.439105 
L 305.609374 133.345604 
L 313.263879 133.163354 
L 320.371628 132.434353 
L 325.292375 132.798854 
L 331.124379 133.345604 
L 335.316126 134.985849 
L 338.414378 137.013385 
L 340.874752 140.703946 
L 342.515003 145.624693 
L 344.360283 150.340417 
L 347.845814 153.825949 
L 352.151468 154.8511 
L 356.252093 156.69638 
L 360.762782 158.336632 
L 355.637 156.901416 
L 351.946439 155.671229 
L 347.43575 155.466194 
L 344.565312 158.131603 
L 346.000534 162.847321 
L 348.665937 166.947945 
L 355.021906 169.20329 
L 358.917502 170.843541 
L 360.762782 175.149195 
L 358.507438 178.634726 
L 359.737624 175.354224 
L 358.097379 171.253599 
L 349.896124 168.178132 
L 346.615628 166.537881 
L 342.720032 163.667443 
L 338.209343 161.207069 
L 334.928847 160.797005 
L 321.806844 161.207069 
L 316.065968 161.207069 
L 307.893373 161.550595 
L 310.127264 161.302383 
L 318.892353 160.994839 
L 324.12065 160.379746 
L 328.118754 160.533521 
L 333.500826 160.225971 
L 336.576299 158.842009 
L 337.498936 156.381635 
L 336.883843 153.613712 
L 334.577244 150.538245 
L 331.501771 148.53919 
L 327.349892 147.924097 
L 322.890463 148.23164 
L 318.27726 148.385415 
L 312.741413 148.23164 
L 309.119813 148.326946 
L 310.390755 148.238276 
L 316.234146 147.930733 
L 322.538854 147.930733 
L 327.305833 147.469408 
L 332.22658 147.315633 
L 336.378465 146.392996 
L 338.37752 143.317529 
L 337.608652 140.088287 
L 334.994504 137.012814 
L 331.457718 135.167534 
L 327.305833 134.091122 
L 317.925651 133.783572 
L 312.543585 133.783572 
L 307.161513 134.091122 
L 301.471898 134.706215 
L 291.476622 136.39772 
L 287.786062 138.396776 
L 287.170968 142.548661 
L 288.554924 146.239221 
L 291.169072 148.545826 
L 293.480855 148.65591 
L 292.443318 148.692965 
L 289.214076 150.999564 
L 287.676346 154.075037 
L 289.214076 157.150504 
L 292.135775 160.533521 
L 296.133885 161.917476 
L 299.6614 162.027712 
L 295.562844 163.05235 
L 292.487377 164.692601 
L 290.437062 167.973103 
L 284.901221 170.843541 
L 281.210661 173.098886 
L 278.340223 174.534101 
L 277.725129 178.224662 
L 278.135188 183.55548 
L 276.084878 185.810818 
L 276.494936 180.685042 
L 275.674814 173.303915 
L 278.340223 172.278757 
L 282.645877 171.04857 
L 286.336437 167.768068 
L 287.566624 163.257385 
L 287.156566 159.361789 
L 283.465999 156.286322 
L 279.57041 156.901416 
L 275.674814 157.311474 
L 275.059721 155.876258 
L 281.210661 155.056136 
L 285.516315 153.620913 
L 286.131408 150.545446 
L 284.286128 145.829728 
L 284.901221 142.139162 
L 285.516315 137.628479 
L 283.876063 134.758041 
L 281.825754 132.502696 
L 278.750281 132.297667 
L 276.289907 134.347976 
L 274.239598 138.65363 
L 274.239598 141.524068 
L 273.134857 143.693079 
L 273.727019 140.80646 
L 273.727019 138.346087 
L 274.137077 135.578163 
L 274.854692 132.297667 
L 276.084878 129.837287 
L 279.57041 123.788868 
L 280.493047 120.200822 
L 280.595561 113.639824 
L 282.235812 109.641714 
L 284.183613 106.463726 
L 287.464109 104.515931 
L 291.769769 102.978194 
L 295.562844 102.56813 
L 298.125739 102.670651 
L 301.713785 102.363101 
L 305.711895 101.748008 
L 314.015659 101.235429 
L 317.398676 101.337943 
L 321.19175 101.850522 
L 329.393 102.56813 
L 332.263438 103.285744 
L 336.159034 103.798323 
L 339.747079 103.18323 
L 340.054629 100.210271 
L 337.799285 96.519711 
L 335.54394 93.854308 
L 326.932626 89.343619 
L 319.975966 87.497767 
L 314.645155 86.472616 
L 307.571578 85.857516 
L 304.086046 85.857516 
L 300.805544 85.652487 
L 296.089826 85.652487 
L 292.296745 85.857516 
L 289.323792 86.165066 
L 286.248325 87.190224 
L 280.609964 91.495877 
L 278.551431 93.797961 
L 277.275724 95.924145 
L 276.283506 98.475558 
L 275.433035 101.7357 
L 273.165104 107.405522 
L 272.031145 113.358825 
L 271.180668 120.587841 
L 271.180668 117.752933 
L 271.322415 114.49279 
L 272.172886 110.807406 
L 272.739869 107.830757 
L 273.59034 104.712355 
L 274.724305 101.168724 
L 276.141759 97.625087 
L 277.275724 94.081449 
L 277.842707 90.25433 
L 277.559213 85.293238 
L 275.858271 81.749601 
L 273.448599 80.190406 
L 270.755432 79.481676 
L 267.920525 80.048659 
L 266.752819 82.912823 
L 267.48182 85.342822 
L 269.425817 88.258818 
L 266.752819 87.529824 
L 265.780821 90.44582 
L 265.294818 94.33382 
L 266.023819 96.520822 
L 265.294818 99.92282 
L 264.079815 103.810821 
L 263.350821 106.969821 
L 262.864819 111.586822 
L 263.107817 114.502824 
L 261.406818 115.474823 
L 259.948817 118.14782 
L 258.976818 122.035821 
L 259.214645 126.078905 
L 258.976818 124.830321 
L 258.855316 121.30682 
L 258.00482 119.119819 
L 256.060816 118.876821 
L 254.238321 120.820818 
L 252.294318 123.250824 
L 250.714821 125.923822 
L 246.948316 130.297818 
L 244.03232 132.84932 
L 245.490321 131.026819 
L 247.920321 128.232319 
L 252.537316 122.643319 
L 254.481319 119.848819 
L 256.546819 117.904822 
L 258.855316 116.811321 
L 260.920815 115.231818 
L 262.257321 111.951322 
L 262.135818 108.063322 
L 260.920815 105.997822 
L 258.126315 105.997822 
L 256.546819 105.51182 
L 259.09832 105.268822 
L 261.649816 104.661323 
L 263.229319 103.567823 
L 264.079815 101.259319 
L 264.808816 98.100319 
L 264.079815 95.791821 
L 263.836817 93.96932 
L 264.201318 90.931822 
L 264.808816 88.744821 
L 265.05182 84.49232 
L 264.444316 80.968819 
L 263.229319 78.417324 
L 260.920815 79.024822 
L 259.219816 80.361321 
L 258.126315 82.42682 
L 257.518817 84.613822 
L 257.275819 87.28682 
L 257.518817 89.595323 
L 257.032821 87.043821 
L 257.275819 84.127819 
L 258.00482 81.576324 
L 259.462821 78.660322 
L 260.677817 75.622824 
L 260.556321 72.220819 
L 258.00482 71.127319 
L 254.602821 72.706822 
L 253.387818 74.164823 
L 252.41582 77.566821 
L 251.200817 81.33332 
L 250.471816 84.249322 
L 249.25682 88.137322 
L 249.135318 90.44582 
L 249.499818 92.389823 
L 251.494505 94.501841 
L 250.593319 93.96932 
L 248.406317 92.997321 
L 246.705318 92.754323 
L 243.060315 94.090822 
L 240.994816 95.184323 
L 239.293817 97.857321 
L 240.387318 100.408823 
L 241.723816 101.745321 
L 245.004319 102.474322 
L 248.284821 103.689318 
L 242.938819 103.08182 
L 240.387318 104.539821 
L 238.200316 107.212819 
L 236.985319 109.03532 
L 238.07882 111.46532 
L 239.415319 113.530819 
L 239.293817 115.596318 
L 238.321818 117.297324 
L 237.228318 119.848819 
L 235.770316 121.792823 
L 236.256319 119.970322 
L 237.471316 117.78332 
L 238.321818 115.231818 
L 238.321818 112.801819 
L 236.620819 111.10082 
L 234.433818 110.371819 
L 237.34982 107.334321 
L 239.050819 104.782819 
L 240.14432 102.231324 
L 239.415319 100.165818 
L 238.07882 97.735818 
L 235.648821 97.12832 
L 233.218821 96.76382 
L 231.274818 96.885322 
L 233.826319 96.39932 
L 236.620819 95.670319 
L 239.050819 94.819823 
L 244.882817 91.782318 
L 246.948316 89.595323 
L 248.041817 86.071823 
L 247.555821 82.791321 
L 244.518316 80.482823 
L 240.630316 79.996821 
L 234.433818 82.183822 
L 232.611316 83.155821 
L 231.335565 84.249322 
L 232.246816 82.791321 
L 234.798318 80.786569 
L 238.26107 79.693068 
L 242.088317 78.235074 
L 245.368819 77.323823 
L 249.013815 75.865822 
L 250.836317 73.13207 
L 249.378316 70.945068 
L 247.373571 70.033824 
L 244.275318 68.393573 
L 248.102571 69.669324 
L 250.289566 71.309569 
L 252.658818 71.856319 
L 255.75707 71.674069 
L 258.673066 70.216068 
L 260.131067 68.575823 
L 259.948817 64.56632 
L 257.397321 61.468068 
L 252.658818 59.463323 
L 249.742816 57.276321 
L 245.186569 58.916573 
L 242.635067 59.281073 
L 239.536821 58.734323 
L 235.709569 59.827823 
L 232.975817 61.285818 
L 230.971065 62.561569 
L 230.971065 65.295321 
L 230.784408 68.184137 
L 229.874865 70.136428 
L 228.41957 71.947447 
L 226.414818 73.587699 
L 227.508319 71.947447 
L 229.239692 69.669324 
L 230.333193 66.571072 
L 229.968693 63.563948 
L 227.599441 63.108319 
L 224.318945 64.292948 
L 221.676321 66.206571 
L 219.215941 68.211323 
L 217.120068 70.580568 
L 215.844317 73.223198 
L 216.459411 76.412572 
L 217.279539 79.077975 
L 219.534884 81.128291 
L 219.944942 82.768542 
L 218.919784 86.049038 
L 220.149977 88.714447 
L 218.919784 95.48048 
L 217.484568 99.171041 
L 217.484568 102.451537 
L 218.776002 107.769046 
L 217.689597 105.732039 
L 216.459411 102.246508 
L 217.074504 98.350912 
L 217.689597 95.685509 
L 218.714755 90.149662 
L 218.714755 85.63898 
L 218.099662 81.538355 
L 216.254382 78.257853 
L 212.76885 74.772321 
L 210.103441 76.412572 
L 207.233003 78.667917 
L 206.002816 81.33332 
L 208.873254 86.869166 
L 209.898412 90.764756 
L 209.688906 92.960095 
L 209.077687 91.482745 
L 208.77074 88.919476 
L 207.848097 86.356588 
L 205.490238 84.511307 
L 203.234899 84.818851 
L 201.389613 86.356588 
L 199.441818 88.919476 
L 197.904082 91.687399 
L 198.109117 94.865381 
L 200.877034 97.223246 
L 202.6198 99.991163 
L 204.670115 102.246508 
L 206.207852 102.759087 
L 208.155647 100.708777 
L 206.720431 102.861601 
L 206.002816 105.321975 
L 207.027974 108.704991 
L 206.822945 109.935178 
L 205.900302 107.269776 
L 204.362565 106.039589 
L 202.722321 106.859711 
L 201.287098 108.499962 
L 199.441818 110.242728 
L 200.774519 108.704991 
L 202.824835 106.757197 
L 204.055022 105.116946 
L 203.589468 103.126616 
L 202.007405 100.475857 
L 200.064507 98.030433 
L 197.472508 95.942427 
L 194.952504 95.870433 
L 192.864506 97.670428 
L 190.560504 100.334428 
L 189.048506 102.782431 
L 188.040507 105.230434 
L 188.688508 107.174431 
L 191.136505 109.406431 
L 190.848508 110.630433 
L 188.256503 108.686429 
L 186.528508 108.974433 
L 184.224507 110.702434 
L 182.082504 113.946929 
L 180.989004 118.320932 
L 180.989004 123.059429 
L 182.082504 125.975431 
L 186.092007 127.433432 
L 189.008003 124.881931 
L 192.288505 121.601428 
L 194.840007 116.862931 
L 193.017506 120.872428 
L 190.466004 124.51743 
L 187.550008 126.704432 
L 186.456508 129.620428 
L 187.550008 133.994431 
L 191.195005 135.816932 
L 195.569008 136.181432 
L 197.391503 131.807429 
L 198.120503 127.433432 
L 200.307505 124.51743 
L 203.588007 121.236928 
L 205.410508 119.778933 
L 207.944597 119.128055 
L 210.160938 118.682448 
L 207.779754 120.325677 
L 205.046008 121.419178 
L 203.041257 123.059429 
L 200.125255 126.704432 
L 198.849504 129.255927 
L 197.573753 132.354179 
L 197.938253 135.634682 
L 200.489755 136.910433 
L 204.681508 135.087931 
L 208.691004 132.354179 
L 210.878006 129.802678 
L 214.340758 126.704432 
L 216.345503 124.69968 
L 219.079255 125.064181 
L 221.995257 125.975431 
L 220.172756 129.984928 
L 220.355006 126.886682 
L 218.350255 125.975431 
L 216.345503 126.886682 
L 212.882757 130.167178 
L 209.966755 132.171929 
L 206.686253 134.723431 
L 203.041257 136.910433 
L 200.489755 140.373179 
L 199.031754 144.929432 
L 200.489755 147.845428 
L 203.041257 150.214679 
L 213.065007 149.485679 
L 217.256754 146.569683 
L 221.084007 142.37793 
L 216.460109 147.457266 
L 214.032713 149.521121 
L 212.057186 152.134399 
L 210.969128 155.215162 
L 210.354034 157.983086 
L 210.354034 161.981196 
L 214.659694 163.518933 
L 218.042711 163.518933 
L 220.810628 161.673646 
L 218.350255 164.749119 
L 215.582331 167.209493 
L 213.121958 165.671756 
L 210.046491 164.749119 
L 207.893661 167.209493 
L 209.123848 170.900053 
L 212.814414 177.358537 
L 213.737051 185.047214 
L 210.969128 181.356647 
L 208.816304 171.822697 
L 205.433287 167.209493 
L 202.35782 162.288746 
L 199.589897 155.830256 
L 197.744617 148.141585 
L 192.823863 141.068008 
L 187.595566 134.609524 
L 185.442742 130.30387 
L 181.444632 126.613304 
L 175.908785 124.768023 
L 170.680488 125.383117 
L 165.759741 128.458584 
L 162.684274 131.841601 
L 160.223894 136.762354 
L 163.299368 141.068008 
L 165.759741 142.913288 
L 171.295582 140.760464 
L 167.912571 142.605745 
L 166.067285 145.681211 
L 166.067285 149.132755 
L 165.911757 152.506983 
L 164.373087 155.53594 
L 163.145593 158.290636 
L 162.70349 161.596762 
L 164.087452 165.402658 
L 167.893348 170.246521 
L 170.142285 175.436373 
L 173.0832 179.761249 
L 174.813151 185.989074 
L 177.754065 193.081874 
L 178.965036 198.790712 
L 181.732953 202.942597 
L 184.350848 205.992211 
L 187.291763 208.933126 
L 191.097659 213.258002 
L 194.211572 216.198923 
L 197.498475 219.831816 
L 199.92041 224.156699 
L 201.996349 228.308577 
L 205.802239 231.249498 
L 210.127122 234.190413 
L 216.354946 236.785339 
L 216.527938 237.996303 
L 211.165088 235.228386 
L 207.359198 234.536402 
L 203.7263 237.131328 
L 205.802239 234.536402 
L 203.380311 231.941476 
L 199.401423 231.076501 
L 195.768525 232.979449 
L 193.854994 234.144205 
L 194.607551 233.323234 
L 195.318961 230.240452 
L 193.658998 226.683396 
L 191.524768 224.786296 
L 190.260034 225.892939 
L 191.524768 223.363477 
L 190.101942 220.754967 
L 188.679122 217.909321 
L 184.219408 214.652912 
L 183.331247 211.728769 
L 181.446442 208.1867 
L 179.786479 207.356722 
L 178.126523 210.676641 
L 175.75515 211.388051 
L 177.889386 210.083799 
L 178.837933 208.1867 
L 176.585128 206.171039 
L 174.095194 205.222492 
L 170.182433 205.815334 
L 166.151097 207.712427 
L 163.068315 208.542411 
L 162.119768 209.016685 
L 158.207007 210.320936 
L 155.361361 212.929445 
L 155.361361 212.929445 
" style="fill:none;stroke:#000000;stroke-linecap:square;stroke-width:1.5;"/>
   </g>
   <g id="line2d_2">
    <path clip-path="url(#pb75c82771c)" d="M 460.028837 157.291539 
L 459.428375 160.774226 
L 458.456377 165.391227 
L 458.577879 167.942729 
L 458.213379 167.942729 
L 458.334875 163.568726 
L 458.213379 160.774226 
L 455.904875 160.409726 
L 453.71788 160.531228 
L 457.727376 159.802228 
L 460.028837 157.291539 
" style="fill:none;stroke:#000000;stroke-linecap:square;stroke-width:1.5;"/>
   </g>
   <g id="line2d_3">
    <path clip-path="url(#pb75c82771c)" d="M 259.462821 127.543843 
L 259.948817 130.297818 
L 261.406818 131.998824 
L 263.350821 129.568824 
L 261.16382 132.727818 
L 258.976818 134.91482 
L 259.219816 139.653309 
L 258.490816 137.101821 
L 256.060816 136.615819 
L 253.776615 137.072661 
L 254.724317 136.251318 
L 256.789817 135.157824 
L 258.36932 133.821319 
L 259.462821 130.540823 
L 259.462821 127.543843 
" style="fill:none;stroke:#000000;stroke-linecap:square;stroke-width:1.5;"/>
   </g>
   <g id="line2d_4">
    <path clip-path="url(#pb75c82771c)" d="M 259.219816 142.042846 
L 259.219816 143.905824 
L 258.00482 148.765823 
L 256.303821 152.896822 
L 254.359817 156.29882 
L 250.714821 159.700818 
L 253.14482 155.569819 
L 255.57482 152.653824 
L 257.275819 149.008821 
L 258.73382 145.12082 
L 259.219816 142.042846 
" style="fill:none;stroke:#000000;stroke-linecap:square;stroke-width:1.5;"/>
   </g>
   <g id="line2d_5">
    <path clip-path="url(#pb75c82771c)" d="M 253.422534 137.379532 
L 251.443821 140.017823 
L 249.013815 144.148822 
L 247.555821 148.279821 
L 245.368819 152.410819 
L 248.041817 145.363818 
L 249.703774 142.191 
L 251.102449 139.732258 
L 253.422534 137.379532 
" style="fill:none;stroke:#000000;stroke-linecap:square;stroke-width:1.5;"/>
   </g>
   <g id="line2d_6">
    <path clip-path="url(#pb75c82771c)" d="M 219.395662 110.12375 
L 219.534884 110.652792 
L 219.534884 112.908131 
L 219.395662 110.12375 
L 219.395662 110.12375 
" style="fill:none;stroke:#000000;stroke-linecap:square;stroke-width:1.5;"/>
   </g>
   <g id="line2d_7">
    <path clip-path="url(#pb75c82771c)" d="M 434.377425 114.504151 
L 432.620854 111.396374 
L 430.323806 108.153478 
L 426.675546 104.910583 
L 423.162409 102.343288 
L 420.459997 100.316481 
L 416.541495 98.695027 
L 413.568841 97.884304 
L 409.109857 98.289669 
L 407.218168 100.72184 
L 407.893768 104.099859 
L 411.677152 106.396907 
L 416.271254 108.693961 
L 420.459997 111.396374 
L 424.108251 113.963669 
L 427.621387 117.206564 
L 430.323806 119.638735 
L 433.161336 118.963135 
L 434.377425 114.504151 
" style="fill:none;stroke:#000000;stroke-linecap:square;stroke-width:1.5;"/>
   </g>
   <g id="line2d_8">
    <path clip-path="url(#pb75c82771c)" d="M 387.220308 118.828012 
L 390.868562 118.828012 
L 394.111463 118.692894 
L 397.6246 117.611929 
L 399.78653 118.287529 
L 403.299666 119.233377 
L 407.758651 118.55777 
L 408.028892 115.720234 
L 406.677685 111.396374 
L 406.534619 109.608036 
L 407.353285 112.882704 
L 408.569374 116.530958 
L 410.596187 118.287529 
L 412.893235 119.503618 
L 415.325406 120.449459 
L 418.568301 122.070907 
L 420.865355 124.09772 
L 423.432651 126.124526 
L 426.270181 126.935256 
L 429.107717 125.989409 
L 429.783324 122.746513 
L 429.107717 119.638735 
L 427.080905 117.206564 
L 423.973133 114.369027 
L 421.000479 112.07198 
L 417.352219 109.774926 
L 413.839082 108.153478 
L 410.461063 106.667148 
L 407.353285 106.396907 
L 406.426081 108.25132 
L 406.407444 108.018354 
L 407.218168 104.775459 
L 406.677685 101.532564 
L 403.164549 100.451599 
L 399.110924 100.316481 
L 395.732911 100.316481 
L 391.814409 100.856964 
L 388.031031 101.262323 
L 383.842288 102.343288 
L 380.599393 103.018894 
L 376.951133 104.234977 
L 373.437996 105.315942 
L 371.005825 106.937389 
L 370.195101 108.829085 
L 371.951666 111.666615 
L 373.978479 114.504151 
L 376.680892 117.07144 
L 381.545234 118.287529 
L 387.220308 118.828012 
" style="fill:none;stroke:#000000;stroke-linecap:square;stroke-width:1.5;"/>
   </g>
   <g id="line2d_9">
    <path clip-path="url(#pb75c82771c)" d="M 426.135063 99.235516 
L 424.378492 96.262856 
L 421.000479 92.479478 
L 418.027819 89.236583 
L 415.190289 87.20977 
L 411.13667 86.53417 
L 409.785457 88.6961 
L 410.055705 92.344361 
L 413.028359 95.722373 
L 418.162943 97.478945 
L 422.216562 99.911116 
L 425.32434 101.397446 
L 426.135063 99.235516 
" style="fill:none;stroke:#000000;stroke-linecap:square;stroke-width:1.5;"/>
   </g>
   <g id="line2d_10">
    <path clip-path="url(#pb75c82771c)" d="M 413.703959 134.096647 
L 416.676613 136.799066 
L 421.811203 138.690755 
L 424.783857 135.447853 
L 425.864822 131.123993 
L 423.973133 127.340615 
L 420.730238 124.09772 
L 417.487336 121.935789 
L 412.622993 119.773859 
L 408.028892 119.233377 
L 405.866962 120.584583 
L 407.758651 125.448926 
L 409.920581 129.502545 
L 412.893235 133.285923 
L 413.703959 134.096647 
" style="fill:none;stroke:#000000;stroke-linecap:square;stroke-width:1.5;"/>
   </g>
   <g id="line2d_11">
    <path clip-path="url(#pb75c82771c)" d="M 379.788669 101.802805 
L 384.11253 100.316481 
L 389.382238 99.505758 
L 394.787063 99.235516 
L 400.056771 99.370634 
L 404.785997 99.100392 
L 408.434251 96.127738 
L 408.164009 93.695567 
L 404.245514 92.074119 
L 399.78653 90.452672 
L 402.488943 91.128272 
L 406.27232 91.803878 
L 408.704492 87.885376 
L 408.028892 83.696634 
L 406.002079 79.372773 
L 402.894308 77.345961 
L 399.651406 75.994754 
L 395.597787 77.210843 
L 391.544168 78.832291 
L 386.814942 80.048373 
L 383.031565 80.183497 
L 379.788669 79.237649 
L 376.005292 78.291808 
L 372.76239 78.291808 
L 372.492149 76.264995 
L 371.681425 74.103065 
L 370.195101 71.670894 
L 368.168288 70.319687 
L 364.655152 69.508964 
L 360.196168 71.130411 
L 357.358637 73.427465 
L 357.088396 76.805478 
L 358.304479 79.778132 
L 360.73665 82.750792 
L 362.628339 85.182964 
L 364.384911 87.885376 
L 366.546841 89.236583 
L 369.384606 89.367071 
L 373.202009 89.464245 
L 376.975131 89.389634 
L 381.001081 89.533464 
L 377.041086 89.605465 
L 374.30508 89.821461 
L 370.561081 89.965463 
L 367.537084 89.893462 
L 366.817082 91.765465 
L 366.457084 94.64546 
L 367.393082 96.733465 
L 366.889083 98.53346 
L 366.601086 101.557464 
L 367.681086 103.861465 
L 370.561081 105.08546 
L 374.521082 103.789464 
L 379.788669 101.802805 
" style="fill:none;stroke:#000000;stroke-linecap:square;stroke-width:1.5;"/>
   </g>
   <g id="line2d_12">
    <path clip-path="url(#pb75c82771c)" d="M 406.677685 132.475199 
L 408.299133 131.123993 
L 408.028892 127.340615 
L 406.947927 124.908443 
L 404.607646 121.193898 
L 402.209893 119.358619 
L 399.78653 118.963135 
L 396.813876 118.692894 
L 393.570981 119.233377 
L 389.92272 119.368494 
L 385.869101 119.503618 
L 382.085717 119.908977 
L 378.57258 121.260183 
L 378.302339 123.422113 
L 380.464269 126.529891 
L 383.707171 129.90791 
L 387.490549 132.74544 
L 392.219774 133.691288 
L 398.435324 133.826405 
L 403.569908 133.826405 
L 406.677685 132.475199 
" style="fill:none;stroke:#000000;stroke-linecap:square;stroke-width:1.5;"/>
   </g>
   <g id="line2d_13">
    <path clip-path="url(#pb75c82771c)" d="M 399.08208 71.506463 
L 396.65208 67.375464 
L 392.035086 63.730462 
L 387.418084 60.81446 
L 382.072083 59.842461 
L 376.240085 59.599463 
L 370.408081 60.571461 
L 367.006083 64.459462 
L 369.922085 68.590461 
L 376.726081 70.29146 
L 380.857086 71.749461 
L 386.932082 73.693464 
L 393.007084 75.394464 
L 399.08208 75.394464 
L 399.08208 71.506463 
" style="fill:none;stroke:#000000;stroke-linecap:square;stroke-width:1.5;"/>
   </g>
   <g id="line2d_14">
    <path clip-path="url(#pb75c82771c)" d="M 392.278084 77.338461 
L 389.605086 74.665463 
L 384.259084 72.964464 
L 379.399085 71.506463 
L 376.969085 74.179461 
L 379.156081 77.824463 
L 384.74508 79.525462 
L 392.278084 77.338461 
" style="fill:none;stroke:#000000;stroke-linecap:square;stroke-width:1.5;"/>
   </g>
   <g id="line2d_15">
    <path clip-path="url(#pb75c82771c)" d="M 327.453588 55.668451 
L 322.350756 53.400526 
L 316.680941 52.833544 
L 310.727631 52.266561 
L 306.191782 51.983073 
L 300.805455 53.684015 
L 296.553094 55.951946 
L 293.718186 58.786853 
L 290.883279 62.75572 
L 288.048371 63.889685 
L 282.378557 65.023644 
L 278.126195 65.874122 
L 273.306851 68.709029 
L 271.889398 74.378844 
L 273.59034 78.064223 
L 277.842707 78.914693 
L 282.378557 74.945827 
L 286.063935 73.244879 
L 290.316296 71.827425 
L 294.285169 70.409971 
L 298.821019 68.709029 
L 302.789892 67.858558 
L 307.609236 66.724593 
L 312.145085 67.291575 
L 317.531412 68.142046 
L 322.067267 69.5595 
L 327.1701 70.409971 
L 332.839915 70.976954 
L 337.942747 70.693466 
L 339.3602 67.008081 
L 336.241805 61.905249 
L 332.272932 58.786853 
L 327.453588 55.668451 
" style="fill:none;stroke:#000000;stroke-linecap:square;stroke-width:1.5;"/>
   </g>
   <g id="line2d_16">
    <path clip-path="url(#pb75c82771c)" d="M 336.241805 77.49724 
L 332.839915 73.244879 
L 328.587553 71.260442 
L 322.917738 70.409971 
L 317.814906 69.5595 
L 311.861597 69.276012 
L 306.191782 69.276012 
L 302.222909 68.992517 
L 297.687059 69.842988 
L 294.655321 70.899314 
L 289.72228 72.54603 
L 286.34743 73.953609 
L 283.08728 75.512803 
L 280.819356 77.355499 
L 278.834919 78.914693 
L 278.126195 81.466113 
L 278.126195 85.151491 
L 278.267943 87.986399 
L 277.984448 90.821306 
L 279.401902 90.821306 
L 281.811574 89.120364 
L 283.937758 86.852439 
L 286.34743 84.584508 
L 288.33186 83.734037 
L 292.725968 83.592297 
L 296.978329 83.875785 
L 301.230691 84.726256 
L 306.191782 84.868003 
L 309.593672 84.584508 
L 313.846033 85.718474 
L 317.531412 86.427204 
L 321.500285 86.852439 
L 325.469158 87.70291 
L 329.721519 88.978617 
L 334.824351 90.25433 
L 336.950528 88.553381 
L 337.37577 83.450549 
L 336.241805 77.49724 
" style="fill:none;stroke:#000000;stroke-linecap:square;stroke-width:1.5;"/>
   </g>
   <g id="line2d_17">
    <path clip-path="url(#pb75c82771c)" d="M 335.302054 107.949637 
L 333.918092 105.489263 
L 330.68885 103.643983 
L 326.844515 103.336433 
L 320.539799 102.72134 
L 315.003959 102.875115 
L 310.23698 102.72134 
L 304.854908 102.72134 
L 299.319068 103.643983 
L 294.705864 103.951527 
L 289.785117 105.335488 
L 286.4021 107.334543 
L 284.710589 109.948692 
L 283.326633 113.024159 
L 283.172858 117.022269 
L 285.633232 117.637362 
L 290.553979 116.253401 
L 294.552089 114.869439 
L 300.087936 113.485477 
L 306.392645 112.409065 
L 311.620942 111.947747 
L 318.233201 111.025104 
L 323.307723 110.71756 
L 328.84357 110.256235 
L 333.610542 110.41001 
L 335.302054 107.949637 
" style="fill:none;stroke:#000000;stroke-linecap:square;stroke-width:1.5;"/>
   </g>
   <g id="line2d_18">
    <path clip-path="url(#pb75c82771c)" d="M 174.082017 190.585862 
L 172.395712 185.948514 
L 170.498613 183.629843 
L 166.493631 183.840632 
L 161.434706 184.051421 
L 156.586569 184.472998 
L 152.792377 185.948514 
L 153.003166 189.110346 
L 158.27288 191.429017 
L 158.27288 194.380054 
L 158.27288 198.595824 
L 163.542594 200.492924 
L 167.336787 201.757657 
L 169.932278 203.681885 
L 173.542861 204.105253 
L 175.569941 202.179228 
L 174.819774 197.963458 
L 175.135961 194.274663 
L 174.082017 190.585862 
" style="fill:none;stroke:#000000;stroke-linecap:square;stroke-width:1.5;"/>
   </g>
   <g id="line2d_19">
    <path clip-path="url(#pb75c82771c)" d="M 160.591551 183.629843 
L 165.228898 182.997476 
L 170.287824 182.786688 
L 170.077035 179.624862 
L 168.179942 174.776725 
L 165.650476 171.614899 
L 162.067072 170.350166 
L 157.218936 172.668837 
L 154.689476 177.727762 
L 154.478687 182.154321 
L 157.429725 183.419054 
L 160.591551 183.629843 
" style="fill:none;stroke:#000000;stroke-linecap:square;stroke-width:1.5;"/>
   </g>
   <g id="line2d_20">
    <path clip-path="url(#pb75c82771c)" d="M 163.964172 153.908663 
L 163.753383 149.692893 
L 162.067072 146.741855 
L 158.062091 146.741855 
L 157.640513 152.433141 
L 158.905246 157.913644 
L 162.277861 156.438122 
L 163.964172 153.908663 
" style="fill:none;stroke:#000000;stroke-linecap:square;stroke-width:1.5;"/>
   </g>
   <g id="line2d_21">
    <path clip-path="url(#pb75c82771c)" d="M 156.270389 194.485452 
L 155.532631 192.482961 
L 153.213954 192.377563 
L 150.473706 192.588352 
L 149.419762 194.801632 
L 149.419762 198.279644 
L 150.579097 201.12529 
L 153.951712 200.809104 
L 156.481178 198.279644 
L 156.270389 194.485452 
" style="fill:none;stroke:#000000;stroke-linecap:square;stroke-width:1.5;"/>
   </g>
  </g>
 </g>
 <defs>
  <clipPath id="pb75c82771c">
   <rect height="440.64" width="635.04" x="0" y="0"/>
  </clipPath>
 </defs>
</svg>
