<?xml version="1.0" encoding="utf-8" standalone="no"?>
<!DOCTYPE svg PUBLIC "-//W3C//DTD SVG 1.1//EN"
  "http://www.w3.org/Graphics/SVG/1.1/DTD/svg11.dtd">
<!-- Created with matplotlib (https://matplotlib.org/) -->
<svg height="447.84pt" version="1.1" viewBox="0 0 622.08 447.84" width="622.08pt" xmlns="http://www.w3.org/2000/svg" xmlns:xlink="http://www.w3.org/1999/xlink">
 <defs>
  <style type="text/css">
*{stroke-linecap:butt;stroke-linejoin:round;}
  </style>
 </defs>
 <g id="figure_1">
  <g><image xlink:href="../../img/cb/zebu_cor_cell.json.cb-50%25.png" width="622.0799999999999px" height="447.84px"/></g>

  <g id="patch_1">
   <path d="M 0 447.84 
L 622.08 447.84 
L 622.08 0 
L 0 0 
z
" style="fill:none;"/>
  </g>
  <g id="axes_1">
   <g id="line2d_1">
    <path clip-path="url(#p58833938ca)" d="M 205.198824 257.203175 
L 206.516949 257.383616 
L 205.218332 258.682232 
L 203.683598 259.862791 
L 201.912754 261.043356 
L 199.787742 262.105862 
L 197.898845 262.8142 
L 196.24606 263.05031 
L 195.065495 263.05031 
L 194.002989 262.460031 
L 193.05854 261.515583 
L 192.586313 260.335018 
L 189.871021 259.626681 
L 187.982125 259.508622 
L 186.80156 258.918343 
L 185.621002 258.091953 
L 184.086268 257.737784 
L 182.787651 257.737784 
L 180.898755 257.619726 
L 177.120957 258.091953 
L 175.586223 259.036401 
L 174.405665 260.453076 
L 173.933437 262.341973 
L 174.877885 264.821154 
L 176.766788 265.411434 
L 179.954301 265.411434 
L 187.273787 265.883661 
L 185.502943 266.23783 
L 183.14182 266.119771 
L 178.773742 266.119771 
L 177.120957 266.001713 
L 175.350113 266.23783 
L 173.815379 267.064219 
L 172.044541 268.598953 
L 171.572314 270.13368 
L 170.863976 274.383706 
L 171.454256 275.564271 
L 174.169548 276.272602 
L 178.065405 276.98094 
L 177.239009 277.335108 
L 175.704281 277.098998 
L 174.287606 276.744829 
L 172.988989 276.272602 
L 170.863976 276.508719 
L 169.329243 277.925394 
L 168.384795 279.460121 
L 167.912574 281.703192 
L 167.912574 284.418485 
L 168.384795 287.015718 
L 169.56536 290.085179 
L 171.454256 292.210192 
L 174.051496 294.571315 
L 176.648729 296.224101 
L 179.48208 297.050497 
L 182.787651 296.224101 
L 184.204327 294.925484 
L 184.676554 293.15464 
L 184.558495 291.147686 
L 183.968216 289.376842 
L 182.433482 285.835154 
L 181.725145 284.772653 
L 182.90571 284.182368 
L 183.259878 283.592089 
L 183.732099 282.41153 
L 183.968216 280.758738 
L 184.086268 282.765693 
L 183.495989 284.418485 
L 183.259878 285.480991 
L 183.732099 287.251829 
L 185.266833 291.265744 
L 186.919619 292.210192 
L 189.162684 291.265744 
L 191.051586 289.967121 
L 192.82243 288.196283 
L 194.357157 286.189322 
L 195.419664 284.182368 
L 195.065495 282.41153 
L 194.475216 280.758738 
L 193.412709 279.460121 
L 191.877982 277.098998 
L 189.98908 276.862887 
L 191.641865 276.626771 
L 192.114092 275.682323 
L 192.232145 274.619816 
L 193.884936 272.848972 
L 194.357157 271.786472 
L 194.239105 270.842018 
L 195.065495 269.30729 
L 194.711326 270.487849 
L 194.239105 273.085089 
L 193.412709 274.147595 
L 192.940482 274.973985 
L 192.82243 276.036492 
L 192.940482 277.217056 
L 193.530768 278.633732 
L 195.537722 281.349024 
L 197.072449 282.529582 
L 198.843293 282.293472 
L 200.496079 280.876796 
L 202.030813 279.342063 
L 203.211371 277.571225 
L 204.273878 276.626771 
L 204.273878 275.446212 
L 203.801657 274.619816 
L 205.100274 275.092043 
L 206.398891 274.265647 
L 207.461397 272.73092 
L 208.287793 270.960076 
L 207.815566 269.89757 
L 207.107228 269.30729 
L 206.16278 268.244784 
L 205.100274 267.418388 
L 203.683598 266.946167 
L 205.454442 267.300336 
L 208.287793 269.189232 
L 209.82252 269.425343 
L 211.121137 268.244784 
L 214.072546 266.119771 
L 215.253104 264.348927 
L 216.90589 262.932252 
L 218.204513 261.633635 
L 219.50313 260.689187 
L 221.746195 259.508622 
L 225.682742 258.595042 
L 230.170813 257.296481 
L 232.768047 256.352033 
L 235.955566 254.935358 
L 240.913923 251.747844 
L 242.684767 250.449221 
L 244.927832 249.740884 
L 247.525072 249.268663 
L 250.240364 248.560325 
L 253.073715 248.206156 
L 262.518208 246.317254 
L 266.296006 244.428358 
L 269.837694 242.067235 
L 272.080759 240.414449 
L 274.323824 239.351942 
L 277.747454 238.171378 
L 282.699746 236.898857 
L 285.624418 235.796674 
L 290.936944 234.498058 
L 293.298067 234.498058 
L 295.068911 234.734168 
L 297.902261 234.852226 
L 300.971722 235.324447 
L 303.096735 235.796674 
L 304.867573 235.324447 
L 309.353709 234.734168 
L 312.305118 235.206395 
L 321.513501 239.456415 
L 324.701014 240.164752 
L 325.52741 242.880044 
L 330.971574 248.413222 
L 334.159093 251.836852 
L 337.110496 253.489644 
L 340.179957 255.61465 
L 343.131365 257.267436 
L 346.554995 259.864676 
L 350.450846 261.281351 
L 354.346703 261.989689 
L 357.298105 261.281351 
L 360.603683 260.336903 
L 363.200917 259.156338 
L 365.207871 257.739663 
L 367.214826 256.913273 
L 370.284286 256.441046 
L 373.235695 256.559105 
L 378.087695 257.383616 
L 387.532195 260.689187 
L 390.955824 262.341973 
L 393.080831 264.112817 
L 394.733623 266.001713 
L 396.85863 268.008674 
L 398.865584 269.189232 
L 400.282259 269.661459 
L 399.573922 270.723966 
L 399.337811 272.612862 
L 399.69198 273.911479 
L 402.171162 276.98094 
L 413.268441 286.425439 
L 415.747622 287.133777 
L 418.344856 288.314335 
L 420.824038 289.140731 
L 422.240713 288.668504 
L 422.358771 286.779608 
L 422.004602 284.890705 
L 421.768486 282.293472 
L 421.768486 278.043446 
L 421.532375 276.39066 
L 421.532375 274.619816 
L 421.886544 272.49481 
L 422.594882 270.487849 
L 423.657388 268.835063 
L 425.428232 266.946167 
L 426.726849 265.765602 
L 424.956005 267.890615 
L 422.94905 271.432303 
L 422.358771 272.73092 
L 422.122655 274.619816 
L 422.122655 276.15455 
L 422.240713 278.515673 
L 422.240713 281.112907 
L 422.354286 283.497955 
L 424.87218 279.973555 
L 427.017839 277.449241 
L 427.522707 276.439518 
L 429.542153 273.410343 
L 428.279996 275.808437 
L 427.017839 277.954103 
L 425.881903 279.594907 
L 423.736237 281.993001 
L 422.978948 283.128938 
L 422.539635 284.556698 
L 423.067109 287.605998 
L 423.303219 290.203238 
L 424.719895 293.036582 
L 427.435187 294.099088 
L 429.79631 293.744919 
L 432.275492 290.675458 
L 434.518557 284.890705 
L 435.226894 282.293472 
L 436.289401 279.224011 
L 436.997738 276.508719 
L 437.706076 270.13368 
L 437.642916 267.61216 
L 437.764159 261.59101 
L 436.701659 258.993776 
L 434.694698 256.986822 
L 430.798848 253.681244 
L 429.264114 252.736796 
L 427.847439 252.264575 
L 426.312712 252.382627 
L 424.659926 253.445134 
L 423.361309 254.743751 
L 421.944634 255.924315 
L 420.17379 257.104874 
L 419.819621 258.639608 
L 419.819621 261.236841 
L 419.465452 262.771575 
L 419.583511 260.646562 
L 419.583511 257.104874 
L 418.639056 256.278484 
L 416.51405 256.278484 
L 414.507089 256.868763 
L 412.854303 257.93127 
L 411.909855 259.111835 
L 411.083465 260.410452 
L 411.319576 259.229887 
L 411.909855 257.93127 
L 412.736251 257.104874 
L 415.569595 256.278484 
L 420.764069 255.215978 
L 422.534913 253.917361 
L 423.83353 251.910406 
L 424.423809 248.604829 
L 423.83353 247.188154 
L 422.771024 246.007595 
L 421.354348 245.063147 
L 419.701563 244.472861 
L 416.986271 243.764524 
L 414.389037 244.118693 
L 417.104329 242.820076 
L 418.757115 243.174245 
L 421.944634 244.59092 
L 423.16378 245.958793 
L 424.580455 247.847689 
L 425.406845 249.500481 
L 426.351293 250.799098 
L 428.004085 251.743546 
L 429.302702 251.743546 
L 430.01104 250.562987 
L 430.601319 248.674085 
L 430.601319 246.785189 
L 430.48326 245.250455 
L 430.129092 244.187949 
L 430.01104 243.479611 
L 430.601319 242.299053 
L 431.427715 241.00043 
L 432.017994 238.403196 
L 431.899936 236.868468 
L 431.899936 234.979566 
L 432.136052 233.444839 
L 432.017994 231.673995 
L 432.136052 230.25732 
L 431.899936 228.722586 
L 431.309656 227.66008 
L 430.129092 226.951748 
L 427.059631 224.944787 
L 425.761014 224.590619 
L 424.462397 225.417015 
L 422.927663 226.951748 
L 420.802657 229.548982 
L 420.448488 231.319826 
L 420.448488 233.799008 
L 420.802657 238.049027 
L 419.976261 234.625397 
L 419.858202 232.972612 
L 419.858202 231.319826 
L 420.33043 228.486475 
L 422.455442 225.535073 
L 423.281832 223.528118 
L 424.108228 222.347554 
L 424.698507 221.166989 
L 425.406845 220.930878 
L 427.177689 221.993385 
L 431.191598 225.653125 
L 432.254104 227.423969 
L 432.608273 228.840644 
L 432.608273 230.25732 
L 432.490221 232.500384 
L 432.608273 233.91706 
L 432.490221 235.569845 
L 432.608273 237.812917 
L 432.608273 240.41015 
L 431.781884 242.062936 
L 431.309656 243.715728 
L 431.073546 245.486566 
L 430.955488 247.611579 
L 430.601319 251.507435 
L 431.899936 253.51439 
L 433.788838 255.167176 
L 436.031903 256.819961 
L 437.920805 256.34774 
L 440.16387 255.049117 
L 441.580546 252.569942 
L 442.643052 250.444929 
L 444.295838 245.722682 
L 444.531948 243.125442 
L 444.531948 240.882377 
L 443.5875 239.583761 
L 442.170825 238.403196 
L 441.816656 236.986521 
L 441.816656 234.507339 
L 442.761104 236.042073 
L 444.295838 237.458748 
L 446.184734 237.930969 
L 447.365299 236.632352 
L 448.309747 234.625397 
L 448.781974 232.500384 
L 449.136143 229.903151 
L 449.136143 224.118398 
L 448.427805 222.819781 
L 447.01113 221.993385 
L 445.476402 222.111443 
L 443.5875 222.465612 
L 438.629143 223.764229 
L 436.858299 224.000339 
L 435.323565 223.646171 
L 434.024949 222.937833 
L 431.338701 219.574172 
L 430.276195 217.921386 
L 429.331747 216.03249 
L 429.331747 214.497756 
L 430.984533 212.490802 
L 432.873429 210.956074 
L 434.762331 210.247737 
L 437.005396 209.77551 
L 441.255422 209.067172 
L 443.970714 208.358834 
L 445.623499 207.178276 
L 447.276285 205.053263 
L 448.102681 201.983802 
L 448.105754 199.090359 
L 447.866564 195.77321 
L 447.984623 193.057918 
L 447.748512 190.342626 
L 447.276285 187.391217 
L 446.686006 184.912042 
L 445.387389 180.543964 
L 444.442935 177.946724 
L 443.970714 175.585601 
L 443.144318 173.342536 
L 440.547084 167.675835 
L 439.248467 167.085556 
L 437.477623 166.141108 
L 435.588721 165.904991 
L 434.408162 167.203614 
L 434.762331 169.68279 
L 435.470669 171.453634 
L 436.179006 173.814757 
L 437.241506 175.703659 
L 438.54013 179.717568 
L 439.366519 181.252296 
L 440.192915 183.731477 
L 437.713734 178.655062 
L 437.123454 176.648107 
L 436.415117 175.113374 
L 435.1165 171.453634 
L 434.526214 170.155017 
L 434.053993 168.266114 
L 434.053993 166.377218 
L 434.762331 165.078601 
L 434.998441 162.717478 
L 434.526214 157.168835 
L 432.991487 155.161881 
L 430.748416 153.509095 
L 426.262286 150.675745 
L 423.783104 149.49518 
L 421.421981 148.550732 
L 419.17891 148.078505 
L 416.463618 148.078505 
L 414.574722 148.66879 
L 413.158046 149.849349 
L 412.213598 151.856303 
L 412.33165 153.509095 
L 412.685819 155.988271 
L 414.338605 158.585511 
L 416.463618 159.529959 
L 418.470572 159.884128 
L 421.540033 160.002186 
L 420.123364 160.002186 
L 418.706689 160.356355 
L 417.290014 161.064686 
L 416.463618 162.245251 
L 416.581676 163.307757 
L 417.526124 164.724433 
L 418.942799 165.904991 
L 421.540033 168.738342 
L 423.546994 171.217523 
L 425.43589 173.342536 
L 427.915072 178.064783 
L 430.158137 183.377308 
L 430.984533 185.974548 
L 430.158137 184.439815 
L 428.741461 182.787029 
L 428.033124 181.606464 
L 426.262286 177.592555 
L 425.317832 175.349491 
L 424.137273 173.224478 
L 421.77615 169.918906 
L 420.123364 168.148062 
L 417.053903 165.550822 
L 415.165001 164.488316 
L 413.394157 164.134153 
L 409.616358 164.488316 
L 408.199683 165.196653 
L 408.199683 166.731387 
L 408.67191 168.974452 
L 409.616358 170.745296 
L 411.859429 173.460588 
L 414.574722 177.002276 
L 418.35252 183.02314 
L 422.366429 188.453724 
L 423.901163 191.287074 
L 425.43589 193.530146 
L 426.734507 194.474594 
L 427.797013 194.828762 
L 427.915072 196.717659 
L 428.977578 204.273256 
L 428.505351 207.106606 
L 427.915072 205.217704 
L 427.206734 203.564918 
L 427.088676 202.030191 
L 427.088676 200.141288 
L 426.262286 196.481548 
L 425.199779 194.356535 
L 424.019215 192.585691 
L 421.77615 188.571782 
L 419.060858 185.030094 
L 415.283059 179.59951 
L 414.338605 177.946724 
L 413.039988 176.293939 
L 409.262189 170.863354 
L 407.491352 168.738342 
L 405.633373 165.43277 
L 403.036139 164.370264 
L 400.084736 163.661926 
L 398.786113 164.960543 
L 399.02223 167.439725 
L 398.668061 170.981406 
L 398.904172 173.106419 
L 399.84862 175.467543 
L 402.209743 179.59951 
L 403.744477 181.724523 
L 404.688925 183.967588 
L 405.515321 186.800938 
L 406.577827 189.044009 
L 407.522275 191.759302 
L 408.702834 194.120425 
L 411.772295 199.551009 
L 417.630602 207.754975 
L 419.16533 209.525819 
L 421.99868 211.296657 
L 420.109778 210.942488 
L 418.220882 209.643871 
L 416.450038 207.991086 
L 413.498635 204.449398 
L 412.554181 202.91467 
L 410.783343 200.671599 
L 409.48472 198.310476 
L 408.65833 196.539638 
L 406.415259 190.872937 
L 405.943038 189.33821 
L 404.526363 185.324294 
L 402.519408 181.546496 
L 401.220791 179.421489 
L 400.158285 177.414529 
L 397.797162 173.990899 
L 396.14437 172.338113 
L 395.08187 170.803386 
L 391.776292 167.733925 
L 389.887396 166.435308 
L 388.352662 165.72697 
L 388.132017 163.810908 
L 388.604238 160.151162 
L 389.076465 157.908097 
L 391.437588 156.60948 
L 392.618147 155.665032 
L 393.798711 154.130298 
L 393.798711 152.123344 
L 393.208432 150.234441 
L 392.027867 149.053883 
L 389.784802 148.345545 
L 387.541731 148.463603 
L 384.944497 148.463603 
L 381.638926 150.470558 
L 383.409764 148.227487 
L 384.000049 146.692759 
L 384.23616 144.449688 
L 383.881991 142.796903 
L 383.291712 141.380227 
L 381.993095 139.8455 
L 379.986134 139.727442 
L 378.097238 140.317721 
L 376.562504 141.262175 
L 375.381946 143.033019 
L 374.791667 146.810818 
L 374.791667 148.699714 
L 374.55555 149.76222 
L 373.374991 149.76222 
L 372.312485 149.408052 
L 371.013868 148.463603 
L 370.423583 147.637208 
L 370.89581 146.10248 
L 371.722206 144.449688 
L 372.666654 143.26913 
L 373.847212 142.324682 
L 375.381946 140.789948 
L 376.562504 139.255221 
L 376.916673 137.366318 
L 376.916673 135.477422 
L 377.034732 132.998241 
L 376.326394 130.755169 
L 374.673608 130.401001 
L 372.902764 130.519059 
L 371.249979 131.109338 
L 369.361076 132.407961 
L 367.826349 133.82463 
L 365.347167 136.539929 
L 362.442153 139.092659 
L 360.90742 140.273217 
L 358.900465 142.16212 
L 357.011569 143.696847 
L 355.122667 144.877412 
L 350.518478 146.64825 
L 348.983745 148.182983 
L 347.921238 149.599658 
L 347.449017 151.134386 
L 347.921238 152.551061 
L 348.747634 154.321905 
L 349.692082 155.856632 
L 349.101803 158.217762 
L 348.865686 156.32886 
L 348.275407 154.912184 
L 346.74068 152.314951 
L 346.504563 150.544106 
L 347.212901 148.419094 
L 348.275407 145.703802 
L 349.455972 143.342678 
L 352.171264 138.9746 
L 353.587939 137.439867 
L 357.837959 133.3079 
L 359.962971 130.828724 
L 362.324095 128.585653 
L 363.549163 126.890242 
L 364.84778 124.883288 
L 365.910286 122.994385 
L 366.736682 118.862424 
L 366.854735 116.501295 
L 366.618624 111.660996 
L 365.674176 110.126263 
L 364.84778 107.883198 
L 364.257501 105.522074 
L 362.014436 100.799821 
L 358.708858 96.195633 
L 357.056073 93.598393 
L 355.285228 91.709497 
L 351.153261 88.049757 
L 348.556027 86.869192 
L 346.194904 86.278913 
L 343.597664 86.160854 
L 341.708768 85.924744 
L 337.694859 86.160854 
L 334.861509 87.459471 
L 333.444833 89.112263 
L 332.146216 91.119218 
L 330.493431 94.542847 
L 330.257314 97.730361 
L 330.257314 101.309883 
L 330.733361 101.256988 
L 335.420914 103.935596 
L 337.318258 105.498112 
L 339.215602 107.841891 
L 341.224553 111.301751 
L 346.804978 121.569729 
L 345.912113 120.676864 
L 345.019241 119.225955 
L 342.340639 113.980353 
L 337.987908 106.837413 
L 336.648607 105.498112 
L 333.635177 103.48916 
L 332.072662 102.596295 
L 330.621753 102.149859 
L 330.223417 102.149859 
L 329.430924 105.640126 
L 329.548976 106.702633 
L 329.194814 108.945704 
L 329.903145 112.251275 
L 330.729541 114.376288 
L 331.555937 115.911016 
L 332.264275 118.154087 
L 333.208723 120.633262 
L 334.861509 125.473567 
L 336.042067 127.59858 
L 337.576801 129.133314 
L 340.410151 130.668041 
L 339.111528 130.668041 
L 337.930969 130.786099 
L 336.986521 131.02221 
L 335.687904 130.904151 
L 334.035113 130.43193 
L 333.090664 129.723593 
L 332.028158 128.779145 
L 330.965652 127.362469 
L 330.729541 125.709684 
L 331.673989 121.813827 
L 331.673989 120.161041 
L 330.139262 115.084626 
L 329.548976 113.786003 
L 328.368418 109.654042 
L 327.896191 108.591535 
L 326.833684 107.529029 
L 325.771184 104.223451 
L 327.42397 104.695678 
L 328.368418 102.924834 
L 328.604528 100.91788 
L 328.368418 98.438698 
L 328.486476 96.667854 
L 328.958697 94.306731 
L 330.139262 92.063666 
L 330.965652 90.765049 
L 331.201768 89.230315 
L 330.375372 87.459471 
L 327.069801 84.980296 
L 325.062846 84.39001 
L 323.055886 83.681673 
L 321.285048 82.855283 
L 319.632256 82.855283 
L 315.854464 84.1539 
L 315.028068 84.862238 
L 315.028068 86.751134 
L 315.618347 87.57753 
L 314.555841 86.751134 
L 313.021113 83.681673 
L 311.368328 82.265004 
L 309.554859 81.543086 
L 307.429846 81.070859 
L 304.832612 80.71669 
L 301.881203 80.48058 
L 299.75619 80.48058 
L 298.339521 80.834749 
L 297.277015 83.077814 
L 297.158957 84.848658 
L 299.402028 86.265333 
L 302.235372 87.918119 
L 305.186781 89.334794 
L 309.909027 90.987579 
L 308.492352 90.869521 
L 306.485398 90.161183 
L 305.068723 89.807015 
L 303.770106 88.980625 
L 302.235372 88.508398 
L 301.290924 87.682008 
L 298.457574 86.265333 
L 297.513125 86.383385 
L 296.922846 87.209781 
L 296.686729 90.3973 
L 296.804788 92.050086 
L 297.867294 92.994534 
L 297.277015 93.466761 
L 296.922846 94.175099 
L 296.568677 95.473716 
L 296.332567 97.362612 
L 296.686729 99.015397 
L 298.103405 99.841793 
L 300.464528 99.841793 
L 301.881203 99.605683 
L 303.415937 98.779287 
L 303.888158 98.070949 
L 304.242327 98.189008 
L 304.950664 99.369566 
L 306.60345 101.022358 
L 308.846521 101.966806 
L 310.499307 101.966806 
L 311.325703 100.550131 
L 312.03404 97.716781 
L 312.506261 99.723735 
L 311.443755 101.73069 
L 310.381248 102.793196 
L 310.853476 104.445988 
L 311.679871 106.216826 
L 312.86043 108.341838 
L 314.040995 109.994624 
L 314.749332 111.293241 
L 315.45767 113.772423 
L 316.638229 115.661325 
L 317.464625 117.90439 
L 315.575722 114.952987 
L 314.277105 113.418254 
L 311.679871 109.522403 
L 310.263196 106.570994 
L 308.020125 103.73765 
L 306.839567 102.675144 
L 305.659002 101.966806 
L 303.533989 100.195962 
L 298.103405 102.557085 
L 297.749236 104.209871 
L 297.749236 106.216826 
L 297.867294 108.22378 
L 299.165911 107.98767 
L 298.69369 109.286287 
L 298.575632 111.293241 
L 299.402028 112.827975 
L 301.527034 114.126592 
L 303.297878 114.48076 
L 304.360385 113.772423 
L 305.54095 113.418254 
L 306.957619 114.598819 
L 308.256242 115.897436 
L 308.610411 116.723832 
L 307.547904 116.251604 
L 305.895118 115.779377 
L 304.124274 115.543267 
L 302.235372 115.661325 
L 300.936755 116.369663 
L 300.228418 117.90439 
L 299.992307 119.439124 
L 300.110359 120.855799 
L 301.585124 122.889913 
L 303.592079 124.660757 
L 305.835144 125.014926 
L 307.487936 125.014926 
L 310.203228 125.369095 
L 312.446293 125.251037 
L 314.217137 125.605205 
L 315.751864 127.376049 
L 316.814371 129.028835 
L 317.168539 130.563569 
L 316.224091 129.501062 
L 315.397702 128.320498 
L 314.099078 127.494108 
L 312.800462 127.021881 
L 311.265734 126.195485 
L 309.731001 125.959374 
L 308.432384 125.959374 
L 306.779598 126.195485 
L 305.126812 126.903822 
L 303.355968 128.084387 
L 302.41152 129.501062 
L 301.939293 131.153848 
L 302.175404 132.570523 
L 303.710137 132.924692 
L 305.362923 132.924692 
L 307.133767 134.105251 
L 311.501845 137.29277 
L 313.74491 138.001107 
L 315.633812 137.410828 
L 316.814371 137.764997 
L 316.814371 139.653893 
L 316.696318 142.133075 
L 316.34215 143.54975 
L 315.397702 145.084477 
L 314.807416 145.556705 
L 314.335195 144.730309 
L 313.626857 143.903919 
L 312.328234 143.54975 
L 311.029617 143.667802 
L 309.849059 143.903919 
L 308.668494 144.258088 
L 307.251819 144.37614 
L 305.835144 144.021971 
L 308.078215 143.78586 
L 309.849059 143.195581 
L 311.383786 142.369185 
L 313.036572 141.070568 
L 314.099078 139.417783 
L 313.508799 138.591387 
L 312.800462 138.001107 
L 311.856013 137.52888 
L 309.612942 136.702491 
L 308.904611 136.230263 
L 307.724046 136.230263 
L 307.724046 135.285815 
L 307.015708 134.223309 
L 305.835144 133.63303 
L 304.300416 133.160803 
L 301.349014 132.806634 
L 300.168449 133.396913 
L 299.460111 134.931647 
L 298.987891 137.52888 
L 298.515663 138.001107 
L 296.626761 137.883049 
L 295.918423 137.646939 
L 295.918423 134.931647 
L 295.564261 133.278861 
L 294.501754 132.334407 
L 293.439248 131.03579 
L 295.210092 131.980238 
L 296.744819 132.452465 
L 299.342053 132.924692 
L 300.640676 132.334407 
L 301.349014 131.626069 
L 302.057351 130.2094 
L 303.355968 126.667712 
L 302.883741 125.014926 
L 302.293462 123.95242 
L 301.230955 122.771855 
L 299.57817 122.063517 
L 298.161495 122.299634 
L 296.626761 123.126024 
L 294.619806 124.542699 
L 295.564261 123.480193 
L 297.217046 122.299634 
L 298.869832 121.355186 
L 299.460111 120.056563 
L 299.81428 114.862095 
L 299.224001 113.681531 
L 297.453157 112.737083 
L 295.446202 113.091251 
L 293.675358 113.917641 
L 292.140631 114.980147 
L 291.654824 116.309694 
L 291.300655 117.726363 
L 289.647869 119.379155 
L 289.647869 118.316649 
L 290.238149 117.490253 
L 290.828428 116.191636 
L 290.828428 115.129129 
L 290.592317 113.948571 
L 289.057584 111.823558 
L 290.356207 111.94161 
L 291.182597 112.768006 
L 292.245103 113.240233 
L 293.54372 113.240233 
L 295.196506 112.649948 
L 296.96735 111.823558 
L 297.321519 110.170772 
L 296.377071 107.219364 
L 295.786791 106.629084 
L 296.495129 105.802688 
L 297.557629 102.733227 
L 297.439577 101.316552 
L 296.849298 99.899883 
L 295.904843 98.719318 
L 294.370116 98.010981 
L 292.71733 97.53876 
L 290.828428 97.892922 
L 289.88398 98.483208 
L 288.703415 102.733227 
L 288.113136 103.441565 
L 286.932577 103.323513 
L 286.106181 103.795734 
L 285.043675 104.85824 
L 283.863116 105.330467 
L 282.80061 105.44852 
L 284.099227 104.740182 
L 285.161733 103.323513 
L 285.279785 101.906838 
L 285.752013 100.135994 
L 285.988123 98.483208 
L 285.752013 96.004026 
L 286.342292 95.17763 
L 287.877025 95.059578 
L 289.175642 95.767916 
L 291.536766 96.004026 
L 294.133999 95.413747 
L 294.960395 94.11513 
L 295.314564 92.462338 
L 295.078454 90.6915 
L 295.432622 88.448429 
L 294.960395 83.253956 
L 294.370116 81.365059 
L 293.30761 79.712274 
L 291.772876 78.649767 
L 289.765922 78.059482 
L 287.286746 78.531709 
L 285.279785 79.240047 
L 283.508948 80.302553 
L 279.731149 84.43452 
L 278.550584 85.497027 
L 277.842247 86.795644 
L 278.550584 88.330371 
L 279.96726 89.156767 
L 279.140864 89.983163 
L 277.606136 89.865104 
L 276.071403 89.628994 
L 274.772786 88.920656 
L 274.182506 88.448429 
L 272.529721 89.156767 
L 273.946396 87.976202 
L 274.418617 86.913702 
L 274.654727 85.26091 
L 275.481123 84.080351 
L 279.140864 81.128943 
L 281.147818 79.712274 
L 282.682552 78.413651 
L 281.147818 77.823371 
L 278.550584 77.587261 
L 275.835292 77.823371 
L 273.474169 78.531709 
L 270.994987 79.476157 
L 266.392678 82.723645 
L 264.031554 85.084768 
L 262.378769 87.327839 
L 261.434321 89.098677 
L 258.955139 92.640365 
L 257.656522 95.237599 
L 257.420405 98.779287 
L 258.36486 100.786241 
L 260.962093 100.9043 
L 263.559327 100.077904 
L 264.976002 98.897345 
L 266.156567 98.070949 
L 267.573242 97.24456 
L 268.51769 97.008443 
L 266.864905 97.952897 
L 264.621834 100.314021 
L 265.68434 102.202917 
L 270.170476 102.557085 
L 272.295489 103.029313 
L 270.524645 103.501534 
L 268.28158 103.501534 
L 264.149613 102.675144 
L 260.017645 101.966806 
L 255.531509 102.439027 
L 253.288438 103.73765 
L 251.5176 105.626546 
L 249.864808 107.98767 
L 248.68425 109.876572 
L 247.267575 112.709916 
L 246.559237 115.425208 
L 246.08701 117.90439 
L 246.205068 121.091909 
L 245.998003 123.996923 
L 246.70634 131.31641 
L 247.650788 134.385871 
L 248.241068 136.983105 
L 251.310528 145.010929 
L 251.074418 149.733175 
L 251.428587 154.33737 
L 251.310528 156.698493 
L 250.838301 161.538798 
L 249.775801 165.31659 
L 250.248022 162.365188 
L 250.36608 160.122123 
L 250.248022 158.233221 
L 249.421632 157.052662 
L 249.657743 155.517928 
L 249.421632 151.74013 
L 249.067464 149.851234 
L 248.241068 148.552617 
L 246.352171 148.788727 
L 246.470224 145.955377 
L 245.643834 144.892871 
L 244.581327 144.184533 
L 241.747977 144.65676 
L 243.28271 143.476195 
L 243.636879 142.413689 
L 242.810483 139.580345 
L 241.629919 137.101163 
L 240.331302 135.566436 
L 238.914626 134.74004 
L 237.720488 134.178799 
L 235.713527 134.296857 
L 234.41491 135.123253 
L 233.470462 136.42187 
L 232.526014 137.484377 
L 231.817677 139.491331 
L 231.935735 141.970513 
L 232.171845 143.741351 
L 233.234352 145.630253 
L 234.887137 147.637208 
L 235.949644 150.116389 
L 237.720488 152.831681 
L 239.255215 155.546973 
L 239.845495 157.43587 
L 240.553832 159.324772 
L 241.380228 161.922006 
L 240.553832 160.26922 
L 239.845495 158.498376 
L 239.373274 156.491421 
L 238.664936 154.838636 
L 237.720488 152.94974 
L 236.776034 151.887233 
L 236.067696 150.824727 
L 233.706573 146.692759 
L 232.526014 145.158026 
L 231.227397 143.741351 
L 229.220437 143.151071 
L 227.09543 143.26913 
L 225.324586 143.977467 
L 223.907911 145.039974 
L 223.317631 146.810818 
L 223.081515 148.463603 
L 223.199573 150.824727 
L 224.025969 152.94974 
L 226.387092 156.84559 
L 228.630157 159.678941 
L 231.345449 160.859499 
L 233.116293 162.630343 
L 234.1788 164.165077 
L 230.401001 160.859499 
L 228.984326 160.387278 
L 226.859313 159.560882 
L 225.206528 159.678941 
L 223.789852 160.387278 
L 222.963463 161.922006 
L 222.963463 163.574791 
L 225.678755 168.651213 
L 226.269034 171.130388 
L 227.685709 172.547064 
L 229.051106 172.941624 
L 230.815139 173.179968 
L 231.877645 173.888305 
L 232.585983 175.541097 
L 232.822093 177.548052 
L 232.349872 178.610558 
L 229.516522 179.673065 
L 228.572074 180.853623 
L 228.454015 182.15224 
L 227.273451 182.506409 
L 222.433152 183.214747 
L 219.127574 183.332805 
L 212.634484 182.860578 
L 206.849731 181.91613 
L 204.252497 181.207792 
L 200.474698 180.853623 
L 197.877458 180.735565 
L 195.870504 181.32585 
L 193.863549 182.270298 
L 192.564932 183.450857 
L 191.738536 185.339759 
L 191.266316 186.992545 
L 190.912147 189.471727 
L 191.266316 190.770344 
L 193.509381 191.242571 
L 196.10662 191.006454 
L 205.787224 191.950908 
L 208.856685 191.83285 
L 211.690036 191.360623 
L 209.683081 192.187019 
L 206.259451 192.895356 
L 204.842776 193.485636 
L 204.370549 194.193973 
L 203.426101 193.367577 
L 199.766361 192.423129 
L 197.995517 192.187019 
L 195.162166 191.950908 
L 193.155212 192.187019 
L 191.738536 192.895356 
L 190.234733 193.263105 
L 188.581947 194.207553 
L 187.519441 198.221462 
L 187.519441 200.464534 
L 189.054168 202.235378 
L 190.94307 203.179826 
L 193.304194 202.825657 
L 195.075038 202.707598 
L 196.845882 202.117319 
L 193.776421 203.770105 
L 192.359746 205.068722 
L 191.297239 206.367345 
L 189.998622 208.256241 
L 189.880564 206.249287 
L 189.998622 204.714553 
L 189.054168 203.297884 
L 187.401382 201.52704 
L 186.456934 201.999261 
L 186.220824 204.242332 
L 186.456934 206.721514 
L 186.220824 210.263196 
L 186.456934 211.679871 
L 186.338876 213.922942 
L 186.574993 215.221559 
L 187.519441 216.520176 
L 188.936116 222.304929 
L 190.116674 224.075773 
L 192.005577 226.673007 
L 194.13059 229.270247 
L 194.484758 230.804974 
L 193.511265 231.93915 
L 193.039038 233.473877 
L 193.039038 234.654442 
L 192.448759 235.953059 
L 190.677915 239.376689 
L 189.969577 241.029475 
L 189.379298 243.154487 
L 189.143181 245.161442 
L 189.025129 247.286455 
L 188.67096 248.93924 
L 188.434844 250.710084 
L 187.726506 252.008701 
L 186.900116 253.071208 
L 185.129272 254.605941 
L 184.657045 255.314273 
L 185.011214 256.140669 
L 186.900116 257.557344 
L 188.907071 258.501792 
L 190.677915 259.092071 
L 193.275149 259.328188 
L 194.927934 260.272636 
L 196.816837 260.980974 
L 198.587681 260.980974 
L 200.594635 260.154578 
L 202.129363 258.974019 
L 203.782155 258.265681 
L 205.198824 257.203175 
L 205.198824 257.203175 
" style="fill:none;stroke:#000000;stroke-linecap:square;stroke-width:1.5;"/>
   </g>
   <g id="line2d_2">
    <path clip-path="url(#p58833938ca)" d="M 354.617569 120.788471 
L 353.836311 120.900078 
L 352.273795 119.895606 
L 350.711273 117.886655 
L 349.371972 116.43574 
L 348.479107 114.873224 
L 347.251414 112.97588 
L 346.804978 111.190144 
L 344.572812 106.502591 
L 343.01029 104.270418 
L 340.108473 101.591816 
L 334.19322 97.685521 
L 336.648607 97.908736 
L 339.327209 99.248037 
L 340.889731 99.80608 
L 342.340639 100.587338 
L 343.903161 101.703424 
L 345.688892 103.712375 
L 347.921064 106.056155 
L 348.702322 107.61867 
L 348.925537 111.190144 
L 349.148758 112.864273 
L 349.818408 114.65001 
L 351.827359 117.886655 
L 354.617569 120.788471 
" style="fill:none;stroke:#000000;stroke-linecap:square;stroke-width:1.5;"/>
   </g>
   <g id="line2d_3">
    <path clip-path="url(#p58833938ca)" d="M 261.511116 138.654721 
L 264.581753 137.200211 
L 266.521106 136.715374 
L 271.046253 136.715374 
L 272.339153 137.0386 
L 273.793669 137.0386 
L 275.086569 136.230537 
L 277.349143 134.291184 
L 275.733016 136.715374 
L 276.217853 137.846664 
L 278.642042 139.462784 
L 273.955279 138.008274 
L 270.399806 137.361821 
L 267.65239 137.361821 
L 265.06659 137.846664 
L 261.511116 138.654721 
" style="fill:none;stroke:#000000;stroke-linecap:square;stroke-width:1.5;"/>
   </g>
   <g id="line2d_4">
    <path clip-path="url(#p58833938ca)" d="M 257.470806 131.382158 
L 260.056606 129.604421 
L 264.581753 127.018621 
L 268.137226 125.725721 
L 269.753353 125.402501 
L 271.854316 125.079274 
L 273.955279 124.917658 
L 275.086569 125.564111 
L 271.854316 125.725721 
L 268.783679 126.210558 
L 265.874653 127.018621 
L 263.288853 128.311521 
L 261.02628 129.766037 
L 257.470806 131.382158 
" style="fill:none;stroke:#000000;stroke-linecap:square;stroke-width:1.5;"/>
   </g>
   <g id="line2d_5">
    <path clip-path="url(#p58833938ca)" d="M 254.400163 122.331858 
L 254.885 119.746058 
L 256.01629 118.453158 
L 257.30919 117.160258 
L 258.60209 116.028974 
L 261.672727 114.574458 
L 262.804016 114.251238 
L 264.420143 114.251238 
L 265.874653 114.736074 
L 267.65239 115.059295 
L 269.106906 115.705748 
L 271.53109 116.675421 
L 269.753353 116.513811 
L 267.005943 116.028974 
L 264.420143 115.705748 
L 262.31918 115.544138 
L 260.379827 116.028974 
L 258.60209 116.837038 
L 257.14758 118.129938 
L 255.531453 119.746058 
L 254.400163 122.331858 
" style="fill:none;stroke:#000000;stroke-linecap:square;stroke-width:1.5;"/>
   </g>
   <g id="line2d_6">
    <path clip-path="url(#p58833938ca)" d="M 193.316032 222.174323 
L 193.116487 221.775234 
L 195.211684 222.174323 
L 196.508708 222.174323 
L 198.70368 221.775234 
L 205.887205 219.580268 
L 207.683088 219.181185 
L 209.279426 218.682327 
L 210.775995 218.383013 
L 213.569594 217.584841 
L 214.567305 217.485072 
L 215.565015 217.485072 
L 216.961815 216.986219 
L 218.458384 216.287816 
L 220.453805 215.190337 
L 221.950374 214.19262 
L 223.347174 212.795826 
L 227.238247 209.603144 
L 228.036419 208.306119 
L 230.530699 204.614585 
L 229.832302 206.410467 
L 228.734816 208.20635 
L 227.437792 209.902458 
L 226.140767 211.299257 
L 221.850605 214.791247 
L 219.555864 216.287816 
L 217.161354 217.584841 
L 215.165932 218.383013 
L 212.172794 219.280954 
L 209.379201 220.278665 
L 204.091322 221.775234 
L 201.397498 222.673175 
L 198.504135 223.271803 
L 195.910081 223.471347 
L 193.316032 222.174323 
" style="fill:none;stroke:#000000;stroke-linecap:square;stroke-width:1.5;"/>
   </g>
   <g id="line2d_7">
    <path clip-path="url(#p58833938ca)" d="M 199.202532 212.895595 
L 201.297729 211.598571 
L 203.293156 210.102002 
L 204.789725 209.204061 
L 206.386063 208.605433 
L 207.683088 208.006806 
L 208.980112 207.009095 
L 209.878053 206.011378 
L 210.676226 205.512526 
L 211.97325 204.814123 
L 213.170505 204.41504 
L 214.667074 203.816413 
L 215.964098 203.118016 
L 217.859757 201.820991 
L 220.354036 200.92305 
L 221.451516 200.324422 
L 222.549002 199.626019 
L 224.344885 198.628309 
L 225.941223 197.630598 
L 227.93665 195.834716 
L 226.938939 197.530823 
L 224.943512 199.027392 
L 219.456095 202.619157 
L 216.462957 203.816413 
L 210.476681 206.80955 
L 206.485832 209.603144 
L 204.590181 210.800399 
L 202.095901 211.997654 
L 199.202532 212.895595 
L 199.202532 212.895595 
" style="fill:none;stroke:#000000;stroke-linecap:square;stroke-width:1.5;"/>
   </g>
   <g id="line2d_8">
    <path clip-path="url(#p58833938ca)" d="M 440.406531 220.983432 
L 443.859082 220.408008 
L 446.160778 220.02439 
L 447.503438 219.065348 
L 447.407532 217.339076 
L 447.311632 215.516891 
L 446.736202 213.790619 
L 446.160778 212.256153 
L 445.393548 211.297111 
L 443.859082 211.105305 
L 442.324615 211.393017 
L 440.406531 212.064341 
L 438.680253 213.311095 
L 437.337599 214.557849 
L 436.090845 215.900509 
L 436.186745 217.722687 
L 436.666269 219.448966 
L 437.817117 220.69572 
L 440.406531 220.983432 
" style="fill:none;stroke:#000000;stroke-linecap:square;stroke-width:1.5;"/>
   </g>
   <g id="line2d_9">
    <path clip-path="url(#p58833938ca)" d="M 406.820389 149.691639 
L 409.047491 148.843222 
L 410.426176 146.934276 
L 410.426176 145.661643 
L 410.214065 144.495069 
L 409.365648 143.540599 
L 407.880917 142.90428 
L 406.820389 142.586123 
L 405.547762 142.586123 
L 404.063025 143.328495 
L 403.002503 143.858756 
L 401.729871 144.282965 
L 400.563296 144.495069 
L 399.396716 146.19191 
L 399.714879 147.888746 
L 402.578294 148.525065 
L 404.381182 149.26743 
L 406.820389 149.691639 
" style="fill:none;stroke:#000000;stroke-linecap:square;stroke-width:1.5;"/>
   </g>
   <g id="line2d_10">
    <path clip-path="url(#p58833938ca)" d="M 398.548298 156.691103 
L 400.139088 158.069782 
L 402.896451 158.281886 
L 405.653814 158.600042 
L 407.562754 158.706095 
L 408.411178 157.433468 
L 408.51723 155.842679 
L 408.305126 154.039792 
L 407.456702 152.767159 
L 406.290128 151.706637 
L 405.229606 151.176376 
L 403.32066 150.2219 
L 401.623818 149.585587 
L 399.820931 149.373483 
L 397.275672 149.479535 
L 394.942517 149.26743 
L 394.306204 150.646109 
L 394.518309 152.34295 
L 395.04857 154.145844 
L 396.957515 155.948731 
L 398.548298 156.691103 
" style="fill:none;stroke:#000000;stroke-linecap:square;stroke-width:1.5;"/>
   </g>
   <g id="line2d_11">
    <path clip-path="url(#p58833938ca)" d="M 403.532764 142.374019 
L 402.472242 140.677184 
L 401.411714 139.510603 
L 399.714879 138.450081 
L 398.018037 137.389553 
L 396.215144 136.541135 
L 394.412256 135.904822 
L 392.927519 135.904822 
L 391.230678 136.010874 
L 389.427791 136.75324 
L 388.155158 137.707716 
L 387.094636 138.980342 
L 386.458323 140.571131 
L 386.77648 142.267967 
L 386.882532 142.798228 
L 388.367262 145.237434 
L 389.851999 145.767702 
L 392.397258 145.555591 
L 395.366726 145.661643 
L 396.745405 145.873754 
L 398.336194 145.555591 
L 399.184612 145.237434 
L 400.24514 144.495069 
L 401.729871 143.964808 
L 403.214608 143.434547 
L 403.532764 142.374019 
" style="fill:none;stroke:#000000;stroke-linecap:square;stroke-width:1.5;"/>
   </g>
   <g id="line2d_12">
    <path clip-path="url(#p58833938ca)" d="M 319.255611 280.694925 
L 321.110206 280.304483 
L 322.281533 279.035552 
L 323.160022 276.985736 
L 323.745685 274.643088 
L 323.452854 272.788494 
L 322.281533 269.860183 
L 320.71977 267.712756 
L 317.791459 265.174894 
L 315.644033 263.710735 
L 313.594217 262.929857 
L 311.34918 262.441804 
L 307.932822 262.441804 
L 303.442748 262.344193 
L 299.245506 262.539415 
L 294.462601 263.027467 
L 290.655801 264.198788 
L 288.020322 265.56533 
L 286.360948 267.22471 
L 285.287238 268.493641 
L 284.213522 270.445846 
L 283.823079 272.007609 
L 283.823079 272.983715 
L 283.432637 274.447867 
L 283.237416 276.107241 
L 283.139812 277.376178 
L 283.432637 279.328383 
L 284.311132 280.597315 
L 285.580063 281.182978 
L 287.044222 280.402093 
L 288.410764 279.816436 
L 287.434658 280.402093 
L 286.65378 281.085367 
L 286.068116 281.963863 
L 285.580063 282.939962 
L 285.287238 284.208893 
L 285.384842 286.063494 
L 285.384842 287.430036 
L 285.384842 289.284631 
L 285.482453 290.651172 
L 286.946611 291.432057 
L 289.289259 292.505767 
L 287.629879 292.115331 
L 286.849001 292.798599 
L 287.72749 294.555583 
L 289.191648 296.214963 
L 291.6319 298.362389 
L 295.145875 299.728931 
L 298.367011 300.509815 
L 302.759474 300.802647 
L 306.371053 300.705037 
L 308.61609 300.216984 
L 311.056348 299.436099 
L 313.203775 298.55761 
L 315.448812 296.995841 
L 317.303406 295.238857 
L 318.279512 294.165147 
L 318.767565 292.310552 
L 319.06039 290.651172 
L 319.158001 289.382241 
L 320.036496 288.308525 
L 320.524549 286.941983 
L 320.914985 285.868273 
L 321.012596 284.404114 
L 321.012596 283.135183 
L 320.62216 282.354299 
L 319.548443 281.47581 
L 317.98668 280.304483 
L 319.255611 280.694925 
" style="fill:none;stroke:#000000;stroke-linecap:square;stroke-width:1.5;"/>
   </g>
   <g id="line2d_13">
    <path clip-path="url(#p58833938ca)" d="M 206.348583 178.565202 
L 204.526262 179.780087 
L 204.678118 180.843104 
L 207.563462 181.602408 
L 211.056248 182.209845 
L 214.397166 182.665425 
L 218.041808 182.817287 
L 221.990175 182.817287 
L 225.634817 182.361707 
L 227.457138 182.057989 
L 228.064575 180.843104 
L 229.27946 179.628225 
L 231.253643 178.261484 
L 231.253643 176.287301 
L 230.342482 174.92056 
L 228.975741 173.857544 
L 226.697834 173.098239 
L 224.875513 173.250101 
L 223.205054 174.0094 
L 220.77529 174.313124 
L 218.19367 174.616842 
L 215.308327 175.37614 
L 212.119265 176.439163 
L 208.930202 177.046606 
L 206.348583 178.565202 
" style="fill:none;stroke:#000000;stroke-linecap:square;stroke-width:1.5;"/>
   </g>
   <g id="line2d_14">
    <path clip-path="url(#p58833938ca)" d="M 204.981842 178.413346 
L 207.86718 177.046606 
L 211.056248 176.287301 
L 215.612051 174.92056 
L 218.952969 174.161262 
L 223.356916 173.705681 
L 225.331093 171.579642 
L 225.482955 169.909177 
L 224.723657 167.935 
L 223.964352 167.023839 
L 223.205054 165.505236 
L 222.142031 164.138495 
L 220.31971 162.92361 
L 218.497389 162.46803 
L 216.523211 162.46803 
L 215.004608 162.92361 
L 213.182287 163.531053 
L 211.359966 164.442214 
L 209.841363 165.353374 
L 208.32276 166.112672 
L 206.348583 166.568253 
L 205.437422 166.720115 
L 203.615101 166.871977 
L 200.881619 167.175695 
L 198.755574 167.327557 
L 196.022092 167.783138 
L 194.503495 168.998016 
L 193.136755 170.668482 
L 192.37745 172.187078 
L 191.618152 174.616842 
L 191.162571 176.287301 
L 191.314433 178.261484 
L 191.618152 179.476363 
L 194.047915 180.539386 
L 196.781397 180.083805 
L 198.907436 180.083805 
L 201.489056 180.387524 
L 203.463239 179.780087 
L 204.981842 178.413346 
" style="fill:none;stroke:#000000;stroke-linecap:square;stroke-width:1.5;"/>
   </g>
   <g id="line2d_15">
    <path clip-path="url(#p58833938ca)" d="M 208.019042 165.657092 
L 210.600668 164.594076 
L 213.78973 163.075473 
L 217.586228 161.708732 
L 219.712273 160.645709 
L 220.77529 158.671532 
L 221.079014 155.786188 
L 220.471572 153.963867 
L 219.104831 151.837828 
L 217.434372 151.078523 
L 215.460189 150.774805 
L 212.271127 151.078523 
L 209.689507 151.382247 
L 206.804163 152.293408 
L 203.918819 153.508287 
L 201.3372 154.875027 
L 199.211154 156.697349 
L 197.996276 158.51967 
L 197.236977 160.190129 
L 196.477673 161.55687 
L 196.933253 164.594076 
L 197.996276 165.808954 
L 200.577895 166.720115 
L 202.703941 166.720115 
L 205.589278 166.416397 
L 208.019042 165.657092 
" style="fill:none;stroke:#000000;stroke-linecap:square;stroke-width:1.5;"/>
   </g>
   <g id="line2d_16">
    <path clip-path="url(#p58833938ca)" d="M 176.394821 181.563889 
L 177.12431 179.083631 
L 178.291487 176.74927 
L 179.166872 175.144403 
L 180.479952 173.393634 
L 182.084819 171.788761 
L 183.981491 170.037991 
L 186.315846 168.287222 
L 188.212512 166.682348 
L 191.130466 165.077475 
L 192.881229 163.326712 
L 193.902516 161.867735 
L 194.631999 159.533374 
L 193.610717 157.344915 
L 192.151747 156.177738 
L 190.400977 156.46953 
L 187.92072 157.053122 
L 185.002772 158.512093 
L 182.084819 160.262862 
L 179.312768 162.159528 
L 176.686614 164.056194 
L 174.060466 166.390556 
L 171.872001 169.01671 
L 169.683542 171.642864 
L 167.495077 174.852604 
L 166.036107 178.645942 
L 165.160722 182.439274 
L 164.431234 186.08671 
L 163.993538 190.755426 
L 164.139435 193.965172 
L 165.160722 197.904401 
L 167.349181 202.573117 
L 170.121232 206.804145 
L 173.185081 209.1385 
L 176.686614 210.45158 
L 180.625849 211.910557 
L 183.397899 211.764654 
L 184.856876 210.159787 
L 185.002772 206.658248 
L 184.856876 203.156709 
L 185.294565 200.676451 
L 185.440462 197.320809 
L 185.440462 195.278246 
L 185.294565 193.089788 
L 184.273284 192.214403 
L 182.960204 193.81927 
L 182.230722 195.861838 
L 181.355337 197.758504 
L 180.188153 197.174912 
L 180.334056 194.694654 
L 181.64713 192.506196 
L 183.689692 189.442352 
L 185.586358 186.232606 
L 186.315846 184.190044 
L 186.899438 181.563889 
L 187.191231 178.645942 
L 187.628927 175.873885 
L 187.483024 173.393634 
L 188.066616 171.642864 
L 188.504311 169.454399 
L 188.796104 167.70363 
L 187.045335 168.870813 
L 185.148669 170.183887 
L 183.252003 171.496968 
L 181.793026 173.101835 
L 180.479952 174.269018 
L 179.166872 175.873885 
L 178.583286 177.332862 
L 177.853798 178.645942 
L 176.978413 180.250809 
L 176.394821 181.563889 
" style="fill:none;stroke:#000000;stroke-linecap:square;stroke-width:1.5;"/>
   </g>
   <g id="line2d_17">
    <path clip-path="url(#p58833938ca)" d="M 173.933904 245.99911 
L 174.410137 243.856044 
L 174.529197 241.712979 
L 175.005437 238.61744 
L 174.886377 236.117195 
L 173.695784 234.569423 
L 172.148012 234.926602 
L 170.004946 235.879075 
L 167.98094 237.069668 
L 166.909408 238.260261 
L 166.075995 240.284266 
L 166.552228 242.546392 
L 167.266587 243.856044 
L 168.45718 247.665942 
L 170.004946 250.642421 
L 172.028952 252.071133 
L 173.576724 251.475834 
L 174.410137 253.380786 
L 175.36261 255.404792 
L 176.07697 256.952558 
L 177.981915 257.428797 
L 181.910873 256.595384 
L 184.172999 254.928552 
L 185.244531 253.261726 
L 186.197004 250.642421 
L 187.030417 248.023116 
L 187.149477 245.284757 
L 187.268537 243.379805 
L 187.625717 241.355799 
L 188.10195 239.450853 
L 188.935369 238.141201 
L 190.245016 236.712488 
L 191.197495 235.879075 
L 192.269028 235.164722 
L 192.626201 234.212249 
L 191.554668 231.473884 
L 190.483135 230.521411 
L 189.173483 230.878585 
L 187.744777 232.069177 
L 186.316064 233.73601 
L 185.006412 235.879075 
L 183.934879 237.903081 
L 182.506166 240.165206 
L 181.315574 242.427332 
L 179.767807 244.570397 
L 178.815328 246.35629 
L 177.624736 248.142175 
L 176.434149 249.213708 
L 175.005437 250.285241 
L 176.553203 248.499355 
L 177.624736 247.308762 
L 178.815328 245.64193 
L 180.005921 243.736984 
L 181.553693 241.474859 
L 182.744286 239.450853 
L 184.053939 237.307788 
L 185.006412 235.521895 
L 185.720765 233.974129 
L 186.911357 232.664477 
L 188.22101 231.235764 
L 189.530663 230.164231 
L 191.078435 229.568938 
L 191.911848 228.378346 
L 190.959375 226.711513 
L 189.530663 225.163741 
L 187.744777 223.615975 
L 186.077944 223.139735 
L 183.696759 224.330328 
L 182.625226 226.711513 
L 181.672753 228.497405 
L 180.244041 229.568938 
L 178.696275 230.997644 
L 177.624736 232.545417 
L 176.910383 233.61695 
L 176.672263 235.760015 
L 176.553203 237.784021 
L 176.315089 240.046146 
L 175.48167 241.712979 
L 175.124497 243.260751 
L 174.648257 244.689457 
L 173.933904 245.99911 
" style="fill:none;stroke:#000000;stroke-linecap:square;stroke-width:1.5;"/>
   </g>
   <g id="line2d_18">
    <path clip-path="url(#p58833938ca)" d="M 166.182003 227.52158 
L 169.683542 225.479017 
L 172.747386 224.020041 
L 175.37354 222.123375 
L 176.832517 220.664398 
L 177.561999 218.767732 
L 177.12431 216.72517 
L 175.227644 215.120297 
L 173.476874 213.661326 
L 171.580208 212.494142 
L 168.954054 211.618758 
L 166.473796 211.181068 
L 164.723027 211.472861 
L 163.118154 212.348246 
L 162.096872 213.661326 
L 160.929695 215.412089 
L 160.783798 217.746451 
L 160.637902 219.93491 
L 160.637902 222.123375 
L 160.783798 224.749529 
L 161.075591 226.354402 
L 162.242769 228.542861 
L 164.431234 228.834654 
L 166.182003 227.52158 
" style="fill:none;stroke:#000000;stroke-linecap:square;stroke-width:1.5;"/>
   </g>
  </g>
 </g>
 <defs>
  <clipPath id="p58833938ca">
   <rect height="447.84" width="622.08" x="0" y="0"/>
  </clipPath>
 </defs>
</svg>
