<?xml version="1.0" encoding="utf-8" standalone="no"?>
<!DOCTYPE svg PUBLIC "-//W3C//DTD SVG 1.1//EN"
  "http://www.w3.org/Graphics/SVG/1.1/DTD/svg11.dtd">
<!-- Created with matplotlib (https://matplotlib.org/) -->
<svg height="388.8pt" version="1.1" viewBox="0 0 518.4 388.8" width="518.4pt" xmlns="http://www.w3.org/2000/svg" xmlns:xlink="http://www.w3.org/1999/xlink">
 <defs>
  <style type="text/css">
*{stroke-linecap:butt;stroke-linejoin:round;}
  </style>
 </defs>
 <g id="figure_1">
  <g><image xlink:href="../../img/ctx/9bandarmadillo_cor_cell.json.ctx-50%25.png" width="518.4px" height="388.8px"/></g>

  <g id="patch_1">
   <path d="M 0 388.8 
L 518.4 388.8 
L 518.4 0 
L 0 0 
z
" style="fill:none;"/>
  </g>
  <g id="axes_1">
   <g id="line2d_1">
    <path clip-path="url(#pad354f17f7)" d="M 212.727451 47.662318 
L 199.59655 50.426717 
L 185.083445 56.30107 
L 167.46039 62.175424 
L 151.56508 70.468626 
L 137.743079 76.688529 
L 125.994372 83.599532 
L 114.591221 90.51053 
L 105.211644 99.58409 
L 97.955091 111.332792 
L 91.735188 121.008194 
L 86.20639 131.029151 
L 81.714236 141.395653 
L 81.714236 147.270006 
L 85.51529 155.563209 
L 79.986487 153.144354 
L 72.384384 150.034405 
L 63.400082 152.453254 
L 54.321959 159.988442 
L 46.401792 170.596674 
L 42.946293 181.654275 
L 41.218539 187.874179 
L 36.03529 194.094082 
L 35.344191 205.151683 
L 33.616441 213.790436 
L 36.38084 225.884692 
L 37.76304 237.287844 
L 40.181889 252.146499 
L 39.836339 264.586306 
L 43.982943 279.099411 
L 50.893946 296.722466 
L 58.373628 308.680269 
L 69.812871 315.996319 
L 79.833823 320.488467 
L 90.54588 317.378518 
L 99.184632 311.849715 
L 107.823385 313.57747 
L 115.771037 315.305219 
L 123.37314 318.069618 
L 137.195146 316.687418 
L 145.488348 314.614119 
L 149.634947 309.430866 
L 161.038104 310.121965 
L 171.750155 309.776416 
L 186.954361 307.703116 
L 197.320863 307.012016 
L 208.378469 308.394216 
L 223.237125 313.923019 
L 233.636426 316.251999 
L 242.246366 315.916635 
L 250.539568 307.623433 
L 254.340622 300.36688 
L 255.722822 294.146977 
L 254.340622 287.927079 
L 251.921768 280.670526 
L 251.230668 274.105073 
L 256.759471 271.340674 
L 261.597175 274.450623 
L 260.56052 280.670526 
L 259.178321 287.927079 
L 258.832771 296.565831 
L 262.633825 304.167934 
L 270.581477 311.424487 
L 279.22023 314.879986 
L 292.696686 309.696732 
L 304.099837 305.550134 
L 318.267393 303.131284 
L 331.743849 301.74908 
L 343.49255 301.40353 
L 355.932357 299.33023 
L 365.607759 297.256931 
L 367.681058 305.550134 
L 377.01091 307.623433 
L 383.310211 311.434259 
L 394.839884 311.460034 
L 404.860836 306.96788 
L 415.227337 305.24013 
L 423.866095 299.365777 
L 431.813748 303.512381 
L 445.981298 303.857931 
L 458.766654 295.910278 
L 467.248715 288.467843 
L 472.174241 274.615293 
L 475.132283 265.286695 
L 476.514483 251.464689 
L 475.823383 231.76833 
L 478.242232 221.747378 
L 479.278887 212.763076 
L 478.242232 199.63217 
L 475.477833 185.119064 
L 470.640129 172.333713 
L 465.111331 161.276106 
L 458.200328 152.982904 
L 452.325975 142.616402 
L 446.451622 136.396499 
L 438.849519 130.522145 
L 430.556316 128.103296 
L 423.645314 130.522145 
L 417.425416 135.705399 
L 415.352111 125.338897 
L 409.132213 116.700145 
L 406.367809 109.789142 
L 399.111256 104.951438 
L 394.964657 106.333638 
L 393.928008 100.80484 
L 387.362555 92.857187 
L 379.069352 84.909534 
L 371.574833 78.263418 
L 360.862781 71.006865 
L 348.077425 64.441412 
L 334.600969 58.912614 
L 321.815618 56.839315 
L 310.066911 53.038261 
L 297.62711 47.855007 
L 285.187304 44.745058 
L 274.475252 43.708409 
L 269.387659 43.962767 
L 261.987634 49.143257 
L 257.841035 55.70871 
L 250.930032 61.928614 
L 246.092329 65.384112 
L 244.710129 70.221816 
L 243.673479 79.206118 
L 243.673479 87.844871 
L 246.783428 95.446973 
L 250.238932 98.556922 
L 247.128978 101.321327 
L 245.401229 106.504575 
L 244.710129 120.326581 
L 249.202278 124.818735 
L 261.987634 124.127635 
L 249.893383 127.237584 
L 244.019029 126.892034 
L 235.034727 127.237584 
L 229.160374 124.127635 
L 236.762476 125.509834 
L 242.29128 122.05433 
L 244.019029 117.907732 
L 244.364579 109.960079 
L 245.746779 103.049076 
L 242.63683 96.829173 
L 245.055679 93.028124 
L 242.98238 89.57262 
L 242.63683 83.007167 
L 242.63683 74.368415 
L 241.600175 68.148511 
L 237.799126 63.310813 
L 232.961422 58.473109 
L 228.814824 53.289861 
L 225.01377 47.415508 
L 219.830522 47.069958 
L 212.727451 47.662318 
L 212.727451 47.662318 
" style="fill:none;stroke:#000000;stroke-linecap:square;stroke-width:1.5;"/>
   </g>
  </g>
 </g>
 <defs>
  <clipPath id="pad354f17f7">
   <rect height="388.8" width="518.4" x="0" y="0"/>
  </clipPath>
 </defs>
</svg>
