<?xml version="1.0" encoding="utf-8" standalone="no"?>
<!DOCTYPE svg PUBLIC "-//W3C//DTD SVG 1.1//EN"
  "http://www.w3.org/Graphics/SVG/1.1/DTD/svg11.dtd">
<!-- Created with matplotlib (https://matplotlib.org/) -->
<svg height="253.44pt" version="1.1" viewBox="0 0 518.4 253.44" width="518.4pt" xmlns="http://www.w3.org/2000/svg" xmlns:xlink="http://www.w3.org/1999/xlink">
 <defs>
  <style type="text/css">
*{stroke-linecap:butt;stroke-linejoin:round;}
  </style>
 </defs>
 <g id="figure_1">
  <g><image xlink:href="../../img/ctx/americanmole_cor_cell.json.ctx-50%25.png" width="518.4px" height="253.44px"/></g>

  <g id="patch_1">
   <path d="M 0 253.44 
L 518.4 253.44 
L 518.4 0 
L 0 0 
z
" style="fill:none;"/>
  </g>
  <g id="axes_1">
   <g id="line2d_1">
    <path clip-path="url(#p3ef8065b05)" d="M 241.597381 15.504929 
L 231.90625 15.504929 
L 224.476386 17.766195 
L 216.077404 17.120119 
L 205.740197 17.120119 
L 192.818693 19.381379 
L 183.127563 21.965681 
L 167.944788 24.226947 
L 156.638474 28.749474 
L 141.455699 33.595042 
L 132.08761 39.086681 
L 122.073439 43.932243 
L 112.705349 48.777811 
L 103.014219 52.008185 
L 93.323089 59.438054 
L 85.247148 67.190959 
L 76.848166 74.297788 
L 68.449189 80.75854 
L 59.727171 85.604107 
L 51.974266 93.680048 
L 46.040929 99.053031 
L 39.28571 108.069511 
L 35.233455 118.259482 
L 31.622892 127.922043 
L 31.033964 136.762717 
L 34.791758 146.249468 
L 41.04813 152.914599 
L 50.036041 160.548848 
L 55.466172 170.18283 
L 61.399503 179.227884 
L 69.651255 185.569979 
L 79.755503 189.299198 
L 90.09271 188.330086 
L 95.584349 183.161482 
L 101.39903 173.793393 
L 108.505858 169.270861 
L 117.227876 168.624789 
L 127.242042 171.855162 
L 136.287101 170.239978 
L 143.070888 171.855162 
L 153.731131 175.731618 
L 162.77619 176.70073 
L 170.852131 173.470352 
L 180.22022 168.301748 
L 190.234392 167.655677 
L 205.740197 172.824275 
L 216.016959 177.614213 
L 228.977145 182.481118 
L 239.960424 183.127195 
L 249.651554 181.835042 
L 258.373572 176.989479 
L 262.250022 175.37429 
L 269.356856 178.927704 
L 275.817607 180.865929 
L 285.831774 180.219857 
L 296.168981 179.250745 
L 308.444413 176.020366 
L 316.197318 173.7591 
L 326.211484 164.391011 
L 339.132993 166.0062 
L 348.294521 167.687434 
L 358.631728 169.302618 
L 367.676781 170.27173 
L 376.075763 170.917807 
L 383.182592 174.148186 
L 388.997272 179.962861 
L 397.073213 180.285902 
L 405.149154 182.224127 
L 409.994717 184.808428 
L 417.424586 190.946144 
L 424.531415 195.791707 
L 436.806847 199.022086 
L 450.051391 197.08386 
L 460.711634 190.946144 
L 471.371877 184.485393 
L 480.41693 175.117298 
L 487.200723 164.457055 
L 488.815913 153.796812 
L 487.8468 141.844416 
L 485.908575 133.122398 
L 482.355156 125.692534 
L 479.447818 119.877854 
L 474.602255 113.417102 
L 467.172386 108.248498 
L 460.711634 105.664197 
L 454.250882 105.01812 
L 449.405315 106.633309 
L 449.082279 98.557368 
L 448.445139 91.001071 
L 443.922514 82.276954 
L 438.430875 74.201013 
L 425.509366 60.633427 
L 416.464312 52.880522 
L 404.511921 42.866356 
L 393.205602 36.405604 
L 384.160548 30.913965 
L 374.146377 25.42232 
L 364.22347 21.828025 
L 353.240191 20.212836 
L 341.933872 18.920682 
L 331.919706 17.95157 
L 310.922256 16.659422 
L 293.47822 13.106007 
L 286.048356 12.136895 
L 276.034185 12.459931 
L 269.250392 13.429043 
L 265.050906 16.982457 
L 261.820528 21.181948 
L 259.559262 25.704475 
L 258.91319 31.842191 
L 258.590149 41.856357 
L 259.236226 50.255339 
L 259.882303 63.82292 
L 265.050906 68.668487 
L 257.621037 69.314564 
L 258.267113 65.115073 
L 258.91319 60.269505 
L 258.91319 53.162677 
L 258.267113 45.732813 
L 258.267113 37.010795 
L 258.590149 28.288777 
L 256.974965 24.412327 
L 253.09851 19.889795 
L 248.252947 16.013345 
L 241.597381 15.504929 
L 241.597381 15.504929 
" style="fill:none;stroke:#000000;stroke-linecap:square;stroke-width:1.5;"/>
   </g>
  </g>
 </g>
 <defs>
  <clipPath id="p3ef8065b05">
   <rect height="253.44" width="518.4" x="0" y="0"/>
  </clipPath>
 </defs>
</svg>
