<?xml version="1.0" encoding="utf-8" standalone="no"?>
<!DOCTYPE svg PUBLIC "-//W3C//DTD SVG 1.1//EN"
  "http://www.w3.org/Graphics/SVG/1.1/DTD/svg11.dtd">
<!-- Created with matplotlib (https://matplotlib.org/) -->
<svg height="611.28pt" version="1.1" viewBox="0 0 725.76 611.28" width="725.76pt" xmlns="http://www.w3.org/2000/svg" xmlns:xlink="http://www.w3.org/1999/xlink">
 <defs>
  <style type="text/css">
*{stroke-linecap:butt;stroke-linejoin:round;}
  </style>
 </defs>
 <g id="figure_1">
  <g><image xlink:href="../../img/ctx/basenji_cor_cell.json.ctx-50%25.png" width="725.76px" height="611.28px"/></g>

  <g id="patch_1">
   <path d="M 0 611.28 
L 725.76 611.28 
L 725.76 0 
L 0 0 
z
" style="fill:none;"/>
  </g>
  <g id="axes_1">
   <g id="line2d_1">
    <path clip-path="url(#p998f51c6b4)" d="M 334.762555 274.639994 
L 329.175423 273.102349 
L 336.630001 273.475077 
L 343.711844 270.493249 
L 347.066401 265.64777 
L 350.048229 258.938656 
L 351.166415 252.229542 
L 351.911872 245.893156 
L 352.657337 241.047678 
L 354.520979 236.202206 
L 357.130079 230.611278 
L 358.248265 225.393078 
L 359.366451 220.920328 
L 357.875536 217.193042 
L 357.875536 213.465757 
L 358.993722 205.638457 
L 359.366451 200.047528 
L 360.111908 195.574778 
L 358.993722 190.356578 
L 357.502808 186.256564 
L 354.148251 182.15655 
L 350.793686 180.292907 
L 342.22093 180.292907 
L 334.020901 184.020193 
L 329.920887 185.511107 
L 322.09358 188.120207 
L 317.620837 190.729307 
L 312.775366 193.338407 
L 307.929894 195.574778 
L 301.593502 198.929335 
L 307.929894 193.711136 
L 312.402637 190.729307 
L 317.993566 187.37475 
L 322.466308 185.511107 
L 328.429965 182.529279 
L 335.139087 179.920179 
L 341.848201 177.683807 
L 349.675501 176.565614 
L 353.775522 173.956514 
L 357.130079 170.974686 
L 358.993722 167.2474 
L 358.993722 159.4201 
L 357.875536 151.592793 
L 356.011894 144.883679 
L 353.775522 139.292751 
L 352.284608 134.44728 
L 350.048229 130.719987 
L 350.048229 125.501787 
L 350.793686 121.401773 
L 350.793686 117.301758 
L 351.166415 110.592644 
L 351.911872 105.374437 
L 351.539144 99.783509 
L 350.420958 96.80168 
L 349.675501 91.58348 
L 347.439129 88.601652 
L 346.693672 84.128902 
L 347.066401 80.401616 
L 345.575487 76.67433 
L 342.22093 73.319773 
L 337.375458 71.083402 
L 332.902715 69.219759 
L 327.684508 68.847031 
L 323.584494 69.219759 
L 317.248109 71.083402 
L 312.402637 72.947045 
L 307.929894 74.437959 
L 303.084416 75.928873 
L 298.238945 77.792516 
L 289.666188 80.028888 
L 285.193445 81.89253 
L 280.347966 83.383445 
L 275.875224 86.365273 
L 272.520666 88.97438 
L 269.538838 91.58348 
L 266.557009 94.938037 
L 265.066095 97.547137 
L 262.829724 102.392609 
L 262.084259 106.492623 
L 261.711531 110.965373 
L 264.320638 117.301758 
L 269.538838 123.265415 
L 273.638852 127.738158 
L 278.857052 131.092715 
L 282.211609 132.210901 
L 285.566173 137.056379 
L 286.684359 143.392765 
L 285.938902 148.983693 
L 284.820709 154.947358 
L 282.584338 148.983693 
L 279.602509 143.020036 
L 274.757038 136.683651 
L 271.775209 131.092715 
L 268.420652 126.619972 
L 265.066095 124.010872 
L 257.984245 113.947201 
L 255.375145 109.474451 
L 246.42966 105.374437 
L 241.21146 103.883523 
L 235.247796 103.883523 
L 228.538681 104.62898 
L 211.39316 109.84718 
L 206.295016 111.761365 
L 199.95863 113.625007 
L 193.622244 116.234107 
L 187.658587 119.588664 
L 182.813109 123.688679 
L 179.085823 128.53415 
L 176.849452 134.125086 
L 176.476723 138.2251 
L 178.340366 144.188757 
L 180.576738 148.288771 
L 183.185837 158.725178 
L 183.931295 169.907035 
L 185.794937 175.497963 
L 189.52223 187.052556 
L 191.385873 193.76167 
L 193.249516 198.234413 
L 190.640416 196.743499 
L 188.776773 193.016213 
L 186.167666 188.916199 
L 184.676752 182.952542 
L 182.44038 177.361606 
L 180.576738 172.143406 
L 177.967638 167.297935 
L 174.61308 163.197921 
L 170.885795 159.843364 
L 166.040324 156.861535 
L 161.194845 155.370614 
L 156.349374 154.625157 
L 151.876631 154.625157 
L 148.522074 154.997885 
L 144.049331 156.116071 
L 140.694767 157.234264 
L 136.594753 159.470635 
L 133.240195 162.452464 
L 129.885638 164.688835 
L 126.90381 167.670664 
L 125.040167 171.770678 
L 123.176524 175.497963 
L 120.940153 182.579813 
L 120.940153 186.679828 
L 122.803796 189.661656 
L 130.631096 203.45262 
L 134.358381 208.298091 
L 139.576581 214.634477 
L 146.285702 221.343591 
L 152.622088 226.18907 
L 157.840288 231.40727 
L 147.03116 225.070884 
L 143.676602 223.57997 
L 140.694767 222.089048 
L 138.085667 220.225405 
L 134.358381 213.88902 
L 133.612924 211.27992 
L 129.885638 204.570806 
L 127.649267 201.588977 
L 125.040167 197.488956 
L 122.431067 194.134399 
L 116.840131 189.661656 
L 112.367389 188.54347 
L 107.894646 189.288927 
L 104.540089 190.407113 
L 100.440075 193.016213 
L 94.849139 198.607142 
L 91.86731 202.707163 
L 89.25821 207.179906 
L 86.649111 211.27992 
L 85.530925 214.634477 
L 83.667282 219.10722 
L 82.549096 223.207234 
L 80.685454 227.679984 
L 77.703625 239.980027 
L 77.330896 244.080041 
L 77.330896 254.516448 
L 78.449082 261.225562 
L 81.430911 269.052869 
L 85.158196 276.134712 
L 92.240039 280.607454 
L 100.067346 284.33474 
L 108.640103 287.316569 
L 119.821967 288.807483 
L 128.767453 288.062026 
L 138.085667 287.689297 
L 145.912974 286.94384 
L 150.012988 287.689297 
L 155.976645 288.062026 
L 148.149345 290.671133 
L 143.676602 292.534776 
L 138.085667 294.398419 
L 132.494738 294.02569 
L 125.412896 294.771147 
L 117.21286 294.771147 
L 111.249203 294.02569 
L 105.658275 294.02569 
L 100.440075 293.652961 
L 95.967325 293.652961 
L 93.730953 291.41659 
L 88.512753 291.043862 
L 84.040011 291.41659 
L 80.685454 292.534776 
L 78.076354 295.143876 
L 75.467254 298.498433 
L 74.349061 301.107533 
L 72.485418 304.834818 
L 71.367232 308.934833 
L 70.621775 312.662118 
L 69.449259 320.95942 
L 70.940173 329.532184 
L 72.431088 336.614027 
L 75.412916 344.068598 
L 78.394745 350.032263 
L 82.122037 354.505005 
L 86.59478 356.741377 
L 86.967509 360.841391 
L 86.967509 367.550505 
L 88.085694 373.886898 
L 91.440251 380.596012 
L 96.658451 388.050583 
L 102.622116 394.386976 
L 111.194873 399.977905 
L 119.394901 401.841547 
L 126.84948 400.723362 
L 133.931322 396.996076 
L 137.658608 393.641519 
L 141.013165 388.423312 
L 142.504079 384.323298 
L 144.740451 378.732369 
L 145.858636 373.514169 
L 146.604093 367.177777 
L 147.722286 362.705034 
L 147.722286 358.60502 
L 147.349558 354.505005 
L 147.349558 350.404991 
L 150.704115 353.759548 
L 152.940486 357.486834 
L 152.195029 362.332305 
L 151.8223 366.432319 
L 151.076843 370.159612 
L 150.704115 373.514169 
L 150.704115 377.241455 
L 152.195029 379.850555 
L 156.667772 385.068755 
L 154.058672 388.423312 
L 152.567758 391.777876 
L 149.213201 394.014248 
L 146.976829 395.87789 
L 145.485908 399.232447 
L 145.485908 403.70519 
L 145.113179 407.059747 
L 149.213201 416.00524 
L 146.604093 414.141597 
L 143.994993 411.53249 
L 141.013165 411.159762 
L 137.285879 412.650676 
L 132.067679 414.141597 
L 127.222208 416.750697 
L 123.494915 419.359797 
L 120.885815 423.087083 
L 117.636123 432.184172 
L 118.008852 440.384201 
L 119.127037 448.956965 
L 119.499766 456.038808 
L 121.736145 468.711586 
L 124.717973 475.4207 
L 129.190716 479.520714 
L 135.89983 483.993457 
L 138.136201 486.602564 
L 140.372573 490.32985 
L 145.963509 494.802593 
L 151.554437 498.529878 
L 162.363565 504.866264 
L 172.054515 508.593557 
L 181.745458 514.184485 
L 189.572765 518.284499 
L 198.145522 521.639057 
L 206.718279 521.266328 
L 216.409229 519.029957 
L 230.945643 514.929942 
L 239.145678 511.948114 
L 255.173014 500.393521 
L 261.882128 495.920778 
L 264.863956 490.32985 
L 264.491228 486.229836 
L 262.254857 482.875271 
L 259.273028 481.011629 
L 261.509399 478.0298 
L 264.118499 473.184329 
L 266.354871 468.338857 
L 267.473056 463.866115 
L 270.082156 458.647908 
L 273.809442 457.529722 
L 279.400378 456.784265 
L 281.264021 455.29335 
L 282.382206 457.90245 
L 287.227678 464.611572 
L 296.173163 469.457043 
L 308.845941 476.911614 
L 322.636906 481.384357 
L 334.191491 484.738914 
L 343.509705 484.366186 
L 353.946112 484.366186 
L 365.127969 483.993457 
L 374.818919 484.366186 
L 384.509862 482.129814 
L 401.259865 470.520898 
L 409.087165 464.184506 
L 415.423558 459.339034 
L 417.659929 454.866292 
L 421.759944 454.120834 
L 429.587243 454.866292 
L 434.805451 455.611749 
L 438.160008 461.575406 
L 443.005479 467.539063 
L 448.596407 474.620913 
L 451.205507 479.466384 
L 448.969136 482.448212 
L 447.105493 486.175498 
L 448.223679 490.275512 
L 453.814607 495.493719 
L 464.251014 500.339191 
L 475.432871 504.439205 
L 487.732921 507.793762 
L 494.814764 510.030133 
L 506.742085 510.775591 
L 524.260335 508.166491 
L 534.696734 505.184662 
L 544.760413 501.830105 
L 554.451356 497.357362 
L 566.005948 491.393705 
L 573.087791 485.430041 
L 585.015105 471.266356 
L 589.115126 463.439048 
L 592.469684 455.23902 
L 595.078783 447.038992 
L 597.315155 441.075327 
L 599.178798 433.248028 
L 601.04244 426.166185 
L 601.415169 420.575249 
L 601.415169 415.357049 
L 598.806069 412.747949 
L 595.078783 409.393392 
L 591.351498 407.529749 
L 579.051448 407.529749 
L 573.833248 407.157021 
L 570.478691 408.275207 
L 567.124134 410.138849 
L 564.515027 413.493407 
L 561.533198 413.120678 
L 562.278655 410.138849 
L 564.887755 406.784292 
L 566.378677 402.684278 
L 566.751405 399.702442 
L 565.633212 396.347885 
L 564.887755 392.247871 
L 565.260484 385.166028 
L 566.005948 380.320557 
L 566.378677 375.10235 
L 567.124134 369.511422 
L 566.378677 365.038679 
L 565.260484 359.820479 
L 562.651384 355.720457 
L 563.024113 353.856815 
L 564.887755 357.584108 
L 567.869591 365.038679 
L 571.969605 376.593264 
L 573.087791 380.693286 
L 577.933262 391.502414 
L 580.542362 395.975157 
L 584.642376 400.4479 
L 590.330579 402.156143 
L 596.666964 401.783414 
L 604.494271 399.547043 
L 611.203385 395.819757 
L 614.930671 390.974286 
L 619.776142 385.010629 
L 623.503435 380.16515 
L 627.976178 373.083307 
L 631.703464 367.492379 
L 635.430749 360.783265 
L 638.412578 353.328686 
L 640.648949 346.992301 
L 642.139863 339.537729 
L 642.512592 335.064979 
L 641.767135 329.101322 
L 642.139863 326.119494 
L 645.121699 320.901294 
L 648.848985 315.310366 
L 652.203542 309.71943 
L 656.303556 302.264859 
L 657.421742 296.301202 
L 658.858326 289.49861 
L 658.485597 283.534953 
L 656.994683 276.825838 
L 655.13104 271.98036 
L 652.52194 267.134889 
L 649.91284 264.15306 
L 645.067361 261.171232 
L 641.340076 260.425774 
L 636.121876 261.916689 
L 624.194555 266.76216 
L 619.721812 267.507617 
L 615.249069 267.880346 
L 611.149055 268.625803 
L 608.167226 270.489446 
L 603.694476 273.098546 
L 598.849005 275.334924 
L 594.376262 276.825838 
L 589.158062 279.434938 
L 584.312591 281.298581 
L 579.467113 282.416767 
L 574.99437 283.162224 
L 567.912527 283.907681 
L 551.512463 285.025867 
L 549.276092 284.653138 
L 558.967034 283.162224 
L 568.657984 283.162224 
L 577.230741 280.925853 
L 589.530791 277.944024 
L 598.849005 273.471281 
L 609.658141 267.507617 
L 626.058197 259.680317 
L 630.903676 257.816674 
L 636.121876 257.071217 
L 640.594619 253.71666 
L 644.694633 250.362096 
L 647.303733 245.143896 
L 649.91284 237.316596 
L 650.658297 232.843853 
L 649.91284 227.252918 
L 648.794654 222.034718 
L 645.812819 216.816518 
L 644.321904 210.852861 
L 641.712804 204.516468 
L 639.103704 200.416454 
L 635.749147 195.943711 
L 630.530947 191.843697 
L 626.058197 187.370954 
L 620.467269 184.016397 
L 615.249069 181.034561 
L 610.776326 179.170919 
L 607.049041 176.934547 
L 601.085376 176.934547 
L 595.867177 178.052733 
L 592.51262 179.916376 
L 591.394434 182.525476 
L 592.139891 193.70734 
L 591.767162 200.043725 
L 592.139891 205.261925 
L 591.767162 208.61649 
L 588.039877 211.598318 
L 585.058048 213.83469 
L 580.958027 216.071061 
L 578.348927 219.052889 
L 573.503456 221.289261 
L 569.403441 224.271089 
L 565.303427 226.880189 
L 560.830684 229.116568 
L 556.357934 230.607482 
L 552.630649 230.607482 
L 548.157906 230.980211 
L 542.939706 232.098396 
L 537.348778 232.098396 
L 550.394277 230.234754 
L 557.47612 228.371103 
L 566.048884 225.016546 
L 573.503456 220.543804 
L 579.467113 216.071061 
L 584.68532 210.107404 
L 586.176234 204.516468 
L 588.412605 198.552811 
L 589.530791 193.334611 
L 590.276248 188.48914 
L 590.648977 185.134583 
L 590.648977 178.79819 
L 588.412605 173.207262 
L 584.68532 168.36179 
L 580.21257 165.007233 
L 575.739827 162.398133 
L 569.403441 160.161755 
L 558.967034 159.416298 
L 554.86702 159.416298 
L 550.021549 162.025405 
L 547.03972 164.261776 
L 541.448792 173.57999 
L 544.803349 167.243605 
L 546.666992 162.770862 
L 547.03972 157.925383 
L 544.057892 148.607169 
L 540.330606 145.998069 
L 537.348778 142.270784 
L 532.13057 138.543491 
L 522.439628 131.834377 
L 519.085071 130.716191 
L 514.985057 129.970734 
L 507.530478 129.970734 
L 503.803192 130.343462 
L 500.075907 131.088919 
L 495.230435 132.207105 
L 504.921378 128.47982 
L 508.275935 123.634348 
L 508.648664 119.907063 
L 507.530478 116.17977 
L 503.177791 111.978686 
L 500.195962 108.2514 
L 493.486848 104.524115 
L 485.286819 102.287743 
L 481.186798 101.542286 
L 476.714055 100.051372 
L 471.123127 98.933186 
L 466.277656 98.560458 
L 461.059456 98.560458 
L 455.46852 99.305915 
L 451.741234 100.796829 
L 447.268492 103.778658 
L 445.777577 107.133215 
L 444.286663 111.605958 
L 443.168477 116.824165 
L 442.795749 121.296907 
L 442.050292 132.478764 
L 440.186649 138.442429 
L 438.323006 145.897 
L 439.068463 151.1152 
L 440.186649 156.3334 
L 444.659392 166.769807 
L 448.013949 176.088021 
L 451.368506 182.424414 
L 452.85942 186.151699 
L 448.759406 180.933499 
L 445.404849 174.224378 
L 443.913934 169.378907 
L 442.050292 164.533435 
L 439.441192 160.060693 
L 437.577542 155.587943 
L 436.086627 151.1152 
L 434.595713 145.524271 
L 434.222985 140.6788 
L 434.595713 135.087864 
L 435.713899 129.496936 
L 437.577542 123.533279 
L 438.695735 118.315079 
L 439.441192 113.096872 
L 440.186649 106.015029 
L 439.81392 101.542286 
L 438.323006 97.442272 
L 435.713899 93.714987 
L 431.241156 90.733151 
L 427.141142 87.005865 
L 421.550213 84.769494 
L 417.077471 81.414937 
L 413.350178 79.178565 
L 408.131978 76.569465 
L 398.441035 72.84218 
L 393.968292 71.723994 
L 388.750085 70.978537 
L 384.277343 70.978537 
L 378.686414 71.351265 
L 374.959128 72.84218 
L 371.604571 75.078551 
L 368.250007 79.178565 
L 366.759093 84.024037 
L 366.759093 91.478615 
L 363.777264 95.951358 
L 362.659079 100.796829 
L 360.795436 104.896843 
L 360.049979 110.8605 
L 359.67725 118.315079 
L 360.049979 126.142379 
L 360.795436 132.851493 
L 361.913622 138.815157 
L 362.659079 144.033357 
L 363.777264 154.469757 
L 364.149993 159.687964 
L 365.640907 163.787978 
L 367.877279 168.260721 
L 371.604571 172.733464 
L 376.077314 174.224378 
L 382.786428 177.206206 
L 390.613728 180.933499 
L 397.695578 183.169871 
L 404.404692 186.524428 
L 410.741078 190.251713 
L 415.959285 192.860813 
L 419.313842 196.960828 
L 413.722906 192.115356 
L 407.759249 189.133528 
L 401.795592 185.406242 
L 394.71375 182.797142 
L 388.750085 180.933499 
L 383.531885 179.442578 
L 377.940957 178.324392 
L 374.213671 179.069849 
L 371.604571 183.169871 
L 367.50455 190.997171 
L 366.386364 195.842642 
L 365.268179 199.569928 
L 365.268179 203.29722 
L 366.013636 205.90632 
L 367.131821 210.751792 
L 367.50455 215.224534 
L 366.386364 219.324549 
L 367.131821 223.051834 
L 364.149993 224.915477 
L 361.913622 228.270041 
L 360.049979 231.997327 
L 358.186336 236.47007 
L 357.06815 240.197355 
L 355.204507 245.042827 
L 354.086322 250.633762 
L 354.144448 254.885381 
L 355.262634 259.358123 
L 355.262634 266.812695 
L 357.126276 270.53998 
L 360.480841 274.267266 
L 365.326312 276.130916 
L 372.780883 276.130916 
L 377.999083 275.385459 
L 370.171783 277.249102 
L 362.717212 277.249102 
L 356.753548 276.130916 
L 350.417162 275.758187 
L 346.317148 276.130916 
L 342.217134 275.758187 
L 338.862577 275.012723 
L 334.762555 274.639994 
L 334.762555 274.639994 
" style="fill:none;stroke:#000000;stroke-linecap:square;stroke-width:1.5;"/>
   </g>
   <g id="line2d_2">
    <path clip-path="url(#p998f51c6b4)" d="M 407.548539 235.25202 
L 405.025863 235.022679 
L 400.43919 232.958676 
L 396.311176 230.66534 
L 391.036498 228.142663 
L 386.449818 225.161328 
L 381.863138 221.262647 
L 378.652463 218.281305 
L 377.276466 215.758636 
L 377.735131 214.153298 
L 378.652463 212.547961 
L 379.569802 210.71329 
L 380.945807 208.419947 
L 381.863138 206.585276 
L 382.551144 204.979939 
L 383.239143 206.12661 
L 384.615148 206.355943 
L 386.449818 205.667944 
L 385.761819 207.502615 
L 381.404472 212.318628 
L 379.111136 215.29997 
L 379.569802 217.363973 
L 384.615148 223.326651 
L 388.513821 225.849327 
L 393.788507 228.601336 
L 397.228515 230.206674 
L 402.044528 232.729343 
L 407.548539 235.25202 
L 407.548539 235.25202 
" style="fill:none;stroke:#000000;stroke-linecap:square;stroke-width:1.5;"/>
   </g>
  </g>
 </g>
 <defs>
  <clipPath id="p998f51c6b4">
   <rect height="611.28" width="725.76" x="0" y="0"/>
  </clipPath>
 </defs>
</svg>
