<?xml version="1.0" encoding="utf-8" standalone="no"?>
<!DOCTYPE svg PUBLIC "-//W3C//DTD SVG 1.1//EN"
  "http://www.w3.org/Graphics/SVG/1.1/DTD/svg11.dtd">
<!-- Created with matplotlib (https://matplotlib.org/) -->
<svg height="522.72pt" version="1.1" viewBox="0 0 816.48 522.72" width="816.48pt" xmlns="http://www.w3.org/2000/svg" xmlns:xlink="http://www.w3.org/1999/xlink">
 <defs>
  <style type="text/css">
*{stroke-linecap:butt;stroke-linejoin:round;}
  </style>
 </defs>
 <g id="figure_1">
  <g><image xlink:href="../../img/ctx/beaver_cor_cell.json.ctx-50%25.png" width="816.48px" height="522.72px"/></g>

  <g id="patch_1">
   <path d="M 0 522.72 
L 816.48 522.72 
L 816.48 0 
L 0 0 
z
" style="fill:none;"/>
  </g>
  <g id="axes_1">
   <g id="line2d_1">
    <path clip-path="url(#p7fc54bd250)" d="M 396.455516 115.819231 
L 392.741315 107.860225 
L 394.863714 97.77882 
L 393.271913 86.105613 
L 389.027115 77.085412 
L 377.884506 67.004007 
L 366.2113 57.453199 
L 356.660493 51.6166 
L 343.395485 48.432998 
L 332.252884 51.085994 
L 315.273677 55.3308 
L 303.60047 62.759201 
L 288.743661 70.187609 
L 275.478654 75.493611 
L 263.805447 78.146615 
L 245.234438 78.146615 
L 231.969431 79.207811 
L 216.051426 79.738408 
L 203.847614 80.269014 
L 189.521411 83.983214 
L 176.787001 87.697415 
L 164.052599 94.06462 
L 150.787592 100.431825 
L 138.053182 106.79903 
L 122.665775 115.819231 
L 108.87017 124.308835 
L 95.605162 135.451444 
L 82.87076 147.655248 
L 70.666948 159.859052 
L 61.116149 173.12406 
L 54.748944 185.327864 
L 49.442943 199.654075 
L 44.136941 212.388477 
L 39.892135 224.592289 
L 38.830931 235.204292 
L 37.239138 247.938694 
L 36.177935 261.734307 
L 36.177935 274.999306 
L 32.994332 285.611317 
L 35.116731 297.815122 
L 40.422733 309.488328 
L 46.25934 323.814531 
L 52.095939 339.732543 
L 61.646747 351.936348 
L 72.789355 359.895354 
L 84.993159 370.507357 
L 95.605162 382.711161 
L 106.915705 387.634519 
L 114.344113 391.879317 
L 117.527716 400.899526 
L 123.364315 407.797329 
L 135.037521 413.10333 
L 150.955525 417.878734 
L 163.159338 424.776537 
L 175.363142 433.266141 
L 184.913949 437.510939 
L 190.219951 436.449743 
L 202.423755 439.10274 
L 219.402962 439.633346 
L 233.729174 438.041544 
L 245.40238 433.796738 
L 256.544981 432.204937 
L 272.462993 428.490737 
L 280.421991 423.715333 
L 285.728001 412.042127 
L 291.034002 399.838323 
L 297.401199 390.818121 
L 305.890811 387.103921 
L 316.502814 388.165116 
L 335.604421 393.471118 
L 347.231675 398.124148 
L 361.557887 401.307742 
L 374.822894 403.430149 
L 389.679703 406.083146 
L 407.189509 405.02195 
L 423.638119 404.491344 
L 443.270331 403.430149 
L 457.596534 402.368945 
L 470.330944 399.715941 
L 483.065346 393.879342 
L 494.207955 388.042742 
L 507.472962 390.165141 
L 518.084965 393.879342 
L 528.696968 401.838348 
L 541.431378 412.980948 
L 556.288187 420.409357 
L 573.797993 426.776562 
L 592.369002 429.429558 
L 610.940011 431.02136 
L 624.205018 428.898961 
L 642.652437 425.014312 
L 654.325643 423.422511 
L 665.468252 419.177713 
L 676.080255 414.402309 
L 680.325053 411.749305 
L 685.631062 410.688109 
L 693.059463 405.912705 
L 696.773663 401.667899 
L 696.243065 396.892504 
L 693.59006 391.055897 
L 700.487863 389.994693 
L 711.099874 387.341696 
L 721.711877 381.505089 
L 730.201481 374.076689 
L 740.282886 364.525881 
L 749.303087 354.975082 
L 757.792691 344.893677 
L 763.098701 333.751068 
L 769.465898 326.322668 
L 773.180106 318.363662 
L 778.486107 305.098654 
L 780.077909 290.772451 
L 776.634935 280.798584 
L 772.920735 270.717179 
L 770.26773 261.16638 
L 770.26773 249.493173 
L 768.328933 236.818497 
L 764.084135 219.308692 
L 757.71693 201.798878 
L 753.472124 190.656277 
L 741.26832 175.268871 
L 716.330106 151.391852 
L 700.942699 140.779849 
L 688.208298 130.698444 
L 675.473888 121.678243 
L 662.20888 113.719236 
L 643.107273 106.821434 
L 630.372863 101.515432 
L 613.924253 96.740029 
L 600.128648 94.087024 
L 588.986047 92.495223 
L 579.965838 95.678825 
L 567.762033 91.434027 
L 556.088827 91.434027 
L 539.858944 86.458096 
L 523.94094 80.621489 
L 510.675932 74.254292 
L 497.410924 70.009486 
L 483.084713 64.172887 
L 468.75851 59.397483 
L 457.615901 58.866877 
L 445.412097 60.458678 
L 436.922493 66.295286 
L 431.085886 74.78489 
L 423.126888 81.682692 
L 418.351484 88.580495 
L 413.576081 98.131302 
L 408.800677 108.212708 
L 406.678278 115.641108 
L 406.14768 131.028514 
L 407.739481 140.048724 
L 411.453682 146.415929 
L 423.126888 151.191325 
L 413.045483 151.191325 
L 402.433472 150.660727 
L 392.352067 151.721931 
L 380.148263 149.068926 
L 389.168472 147.477125 
L 397.658076 143.232327 
L 398.188674 133.150922 
L 399.249878 124.130712 
L 396.455516 115.819231 
L 396.455516 115.819231 
" style="fill:none;stroke:#000000;stroke-linecap:square;stroke-width:1.5;"/>
   </g>
  </g>
 </g>
 <defs>
  <clipPath id="p7fc54bd250">
   <rect height="522.72" width="816.48" x="0" y="0"/>
  </clipPath>
 </defs>
</svg>
