<?xml version="1.0" encoding="utf-8" standalone="no"?>
<!DOCTYPE svg PUBLIC "-//W3C//DTD SVG 1.1//EN"
  "http://www.w3.org/Graphics/SVG/1.1/DTD/svg11.dtd">
<!-- Created with matplotlib (https://matplotlib.org/) -->
<svg height="238.32pt" version="1.1" viewBox="0 0 362.88 238.32" width="362.88pt" xmlns="http://www.w3.org/2000/svg" xmlns:xlink="http://www.w3.org/1999/xlink">
 <defs>
  <style type="text/css">
*{stroke-linecap:butt;stroke-linejoin:round;}
  </style>
 </defs>
 <g id="figure_1">
  <g><image xlink:href="../../img/ctx/calsealion_cor_cell.json.ctx-50%25.png" width="362.88px" height="238.32px"/></g>

  <g id="patch_1">
   <path d="M 0 238.32 
L 362.88 238.32 
L 362.88 0 
L 0 0 
z
" style="fill:none;"/>
  </g>
  <g id="axes_1">
   <g id="line2d_1">
    <path clip-path="url(#p1f31cd1238)" d="M 319.140756 139.990348 
L 315.934632 139.821605 
L 312.728511 141.677783 
L 311.041075 143.365215 
L 310.76754 146.031262 
L 310.872332 148.877678 
L 309.438013 148.258775 
L 307.413092 146.824456 
L 303.025767 146.993199 
L 299.060298 147.330684 
L 296.529148 149.355606 
L 295.347945 152.224245 
L 293.913625 154.924137 
L 291.973077 157.370914 
L 291.888704 160.408295 
L 293.323024 162.517586 
L 295.094829 163.192561 
L 292.648049 165.301852 
L 290.032526 165.892454 
L 286.573289 169.098578 
L 284.339367 178.139625 
L 283.3629 183.662593 
L 282.51244 187.220678 
L 282.765556 190.848662 
L 283.91831 193.790116 
L 287.012631 195.175962 
L 289.375038 195.597821 
L 288.193835 197.622742 
L 285.493942 197.200884 
L 283.637764 195.260336 
L 281.275357 192.47607 
L 279.672295 190.451149 
L 276.634916 190.704265 
L 273.260049 192.813556 
L 272.310407 193.989392 
L 269.886484 197.102598 
L 269.15469 201.028709 
L 268.64943 204.908418 
L 270.505608 207.777054 
L 274.555447 209.211373 
L 278.436547 208.789514 
L 284.595676 209.04263 
L 288.814261 208.03017 
L 293.20159 206.258365 
L 297.75766 202.714754 
L 301.132528 199.50863 
L 305.435483 195.121302 
L 308.725977 190.143376 
L 309.354209 188.096504 
L 311.370247 184.424485 
L 312.045219 181.808965 
L 311.876476 179.193443 
L 308.839098 177.843496 
L 305.379857 178.771584 
L 302.089363 180.03716 
L 298.714495 181.977708 
L 296.098972 181.471476 
L 299.558213 180.459019 
L 301.183513 179.745848 
L 304.316266 178.731188 
L 306.646573 177.303288 
L 307.15192 175.362918 
L 309.008098 177.219092 
L 311.876733 178.06281 
L 314.829742 177.05035 
L 316.517177 174.266084 
L 316.264061 170.891216 
L 314.57663 168.866299 
L 311.623621 168.022581 
L 308.670612 169.203784 
L 306.814434 170.97559 
L 306.392575 169.288158 
L 306.645691 167.263236 
L 308.080011 164.985199 
L 308.867213 166.166403 
L 310.501618 166.672635 
L 314.381092 166.335145 
L 317.3341 165.069572 
L 320.371478 161.104103 
L 320.857578 158.453417 
L 321.129361 155.286041 
L 321.21373 152.586148 
L 321.044987 149.801883 
L 322.985535 150.983086 
L 324.251112 149.380024 
L 324.75734 146.933244 
L 324.166739 144.317721 
L 322.226191 141.786571 
L 319.140756 139.990348 
" style="fill:none;stroke:#000000;stroke-linecap:square;stroke-width:1.5;"/>
   </g>
   <g id="line2d_2">
    <path clip-path="url(#p1f31cd1238)" d="M 310.052655 84.705732 
L 307.313263 85.548623 
L 306.048928 88.604101 
L 305.732841 91.764942 
L 304.67923 95.874032 
L 304.573868 99.772401 
L 305.627483 102.406434 
L 309.104406 102.617159 
L 311.843798 99.983125 
L 312.897413 95.557949 
L 313.318858 91.132772 
L 312.475968 86.91832 
L 310.052655 84.705732 
" style="fill:none;stroke:#000000;stroke-linecap:square;stroke-width:1.5;"/>
   </g>
   <g id="line2d_3">
    <path clip-path="url(#p1f31cd1238)" d="M 310.941341 134.976863 
L 309.782368 134.02861 
L 308.307308 135.50367 
L 306.832248 136.873365 
L 305.46255 136.451919 
L 304.61966 134.02861 
L 304.408939 131.921384 
L 302.301713 130.973132 
L 300.615932 133.18572 
L 300.195702 134.02496 
L 299.777581 137.386542 
L 299.339861 140.826688 
L 300.784159 142.505981 
L 304.155725 143.243509 
L 307.000479 142.295256 
L 310.055958 139.661223 
L 311.109572 136.921827 
L 310.941341 134.976863 
" style="fill:none;stroke:#000000;stroke-linecap:square;stroke-width:1.5;"/>
   </g>
   <g id="line2d_4">
    <path clip-path="url(#p1f31cd1238)" d="M 302.46994 107.63138 
L 300.889522 107.947463 
L 300.257356 110.160051 
L 300.468076 112.161915 
L 302.996748 112.58336 
L 304.261083 109.949327 
L 303.945 108.263546 
L 302.46994 107.63138 
" style="fill:none;stroke:#000000;stroke-linecap:square;stroke-width:1.5;"/>
   </g>
   <g id="line2d_5">
    <path clip-path="url(#p1f31cd1238)" d="M 288.829238 63.752602 
L 286.511287 61.750738 
L 283.561171 61.645376 
L 281.453945 63.436519 
L 281.348582 66.491997 
L 281.980748 70.390367 
L 284.509423 73.656566 
L 285.563034 77.238852 
L 287.670261 81.453308 
L 289.672128 85.03559 
L 290.093573 88.8286 
L 291.463271 93.675222 
L 291.252547 97.784312 
L 292.41152 101.366598 
L 293.570497 105.686412 
L 297.574228 107.266831 
L 300.840428 103.895269 
L 302.420846 98.416482 
L 303.26374 93.991305 
L 303.053016 88.512514 
L 302.631571 83.244447 
L 301.367235 77.976384 
L 299.365368 74.920905 
L 296.309893 73.0244 
L 294.202663 69.126031 
L 291.779354 65.859828 
L 288.829238 63.752602 
" style="fill:none;stroke:#000000;stroke-linecap:square;stroke-width:1.5;"/>
   </g>
   <g id="line2d_6">
    <path clip-path="url(#p1f31cd1238)" d="M 165.910801 16.915227 
L 163.805313 17.286783 
L 160.089752 17.65834 
L 156.126485 18.89686 
L 152.782481 20.383082 
L 149.93388 22.117013 
L 147.580691 24.84176 
L 147.580691 27.566506 
L 149.562324 30.91051 
L 150.676993 34.50222 
L 148.819214 32.892144 
L 146.961432 29.548139 
L 144.360537 26.947244 
L 141.759645 26.327982 
L 139.15875 26.823393 
L 137.177117 29.300434 
L 137.92023 33.511406 
L 139.15875 36.979261 
L 141.883496 40.323269 
L 144.855948 43.295717 
L 146.589876 45.896612 
L 146.713727 49.736028 
L 145.475206 53.946996 
L 142.626609 55.433222 
L 139.406456 55.804779 
L 136.310153 56.919448 
L 134.204669 60.139602 
L 133.21385 63.359755 
L 133.585407 66.827614 
L 135.938597 70.543175 
L 139.406456 76.735781 
L 140.025714 80.20364 
L 137.92023 82.309124 
L 135.690891 80.699047 
L 134.947778 76.488075 
L 133.833112 73.515627 
L 132.842294 70.543175 
L 131.479923 68.066135 
L 130.73681 66.084501 
L 127.392802 63.235904 
L 126.897394 56.424041 
L 127.1451 53.451589 
L 128.879027 52.584625 
L 130.860661 53.57544 
L 133.21385 52.584625 
L 135.071633 51.593807 
L 137.672524 51.098399 
L 139.282601 48.373653 
L 140.025714 44.781943 
L 138.663343 41.809495 
L 135.690891 36.112297 
L 135.814746 32.644438 
L 135.319335 29.176583 
L 135.071633 25.461018 
L 132.099181 22.860126 
L 128.135915 21.869308 
L 123.801092 21.869308 
L 119.837825 22.612421 
L 114.636038 24.717905 
L 111.253957 27.499808 
L 109.059164 30.486434 
L 107.201382 34.821257 
L 107.325236 39.15608 
L 108.316051 42.376234 
L 110.297684 43.367052 
L 114.013249 44.481722 
L 115.994882 45.967944 
L 114.632507 47.825726 
L 109.430721 46.587206 
L 107.449087 47.825726 
L 106.334418 51.293585 
L 106.458273 55.009146 
L 108.316051 56.990779 
L 111.288503 58.2293 
L 114.260951 59.220118 
L 115.004064 61.573308 
L 111.78391 61.0779 
L 109.430721 60.954046 
L 105.839011 61.82101 
L 102.990413 62.811828 
L 100.389518 64.174199 
L 99.274849 66.279687 
L 99.274849 68.632877 
L 101.751893 72.224587 
L 104.972047 74.577777 
L 108.439906 77.550225 
L 110.669241 80.274971 
L 113.889394 85.724463 
L 115.127915 89.316173 
L 116.737995 92.412476 
L 116.614141 96.128037 
L 114.260951 97.985819 
L 111.660059 95.75648 
L 111.536205 90.92625 
L 109.802277 88.201504 
L 107.201382 84.857499 
L 105.839011 80.894233 
L 103.485821 77.921781 
L 96.426252 69.747546 
L 93.82536 68.880579 
L 90.852908 68.756728 
L 88.004311 69.128284 
L 87.261198 72.472289 
L 86.889642 77.302523 
L 85.774973 79.408007 
L 83.793339 77.79793 
L 84.412601 73.091551 
L 84.412601 69.499841 
L 82.926375 66.651244 
L 80.077778 64.174199 
L 76.981476 61.82101 
L 74.132879 60.954046 
L 70.665019 61.573308 
L 68.064124 63.43109 
L 67.321015 66.031982 
L 69.054943 73.339256 
L 68.064124 74.082366 
L 66.330197 70.862212 
L 65.339382 68.013615 
L 62.738486 68.385171 
L 61.004559 71.357623 
L 60.509148 74.701628 
L 60.509148 78.169487 
L 61.376115 81.885048 
L 61.499966 85.600612 
L 63.110043 88.820766 
L 64.224712 94.889517 
L 63.187246 108.722314 
L 62.567984 113.428689 
L 62.815689 118.135069 
L 64.921173 122.22219 
L 66.159694 125.937751 
L 68.141327 129.529461 
L 71.23763 132.254207 
L 74.041215 132.790551 
L 76.765961 132.790551 
L 78.747595 135.391442 
L 81.472337 137.992338 
L 84.940196 139.602414 
L 88.903463 138.487745 
L 91.628209 135.391442 
L 94.229104 132.047438 
L 97.077701 132.790551 
L 96.394282 135.441019 
L 94.239987 137.736221 
L 91.515241 139.346297 
L 89.162051 141.20408 
L 89.162051 144.424233 
L 92.010652 145.538903 
L 94.63115 144.848694 
L 98.111945 143.437015 
L 103.561438 138.978341 
L 106.010312 134.941928 
L 107.419193 130.759058 
L 106.799931 122.213263 
L 107.664783 119.971249 
L 110.000359 121.599495 
L 110.495766 124.200387 
L 110.495766 127.792097 
L 108.761838 135.347073 
L 107.442501 139.878541 
L 105.796815 142.929843 
L 103.939033 145.283032 
L 102.452807 148.379335 
L 101.957399 151.847194 
L 100.84273 154.324235 
L 98.861097 152.96186 
L 97.746427 150.484819 
L 96.0125 149.617855 
L 93.65931 150.237114 
L 91.801528 152.96186 
L 90.810713 155.31505 
L 89.572192 157.420537 
L 91.801528 162.49847 
L 88.95293 162.870026 
L 87.095148 164.356252 
L 85.980482 169.062631 
L 84.807698 172.419413 
L 85.418443 175.0494 
L 85.170741 178.517259 
L 83.932221 182.480526 
L 83.684515 185.329123 
L 84.303777 188.053869 
L 86.409261 189.663946 
L 89.629415 189.663946 
L 93.344976 189.41624 
L 95.078907 190.035502 
L 99.289876 193.751063 
L 101.76692 196.847366 
L 103.500848 204.526197 
L 104.786307 207.048964 
L 108.575732 210.574855 
L 112.167442 214.166565 
L 115.635301 216.519755 
L 120.589382 216.891311 
L 125.295762 215.281234 
L 132.850738 211.93723 
L 136.070892 211.441823 
L 139.291049 209.831746 
L 142.758904 206.983145 
L 144.568761 205.019257 
L 145.311874 201.922954 
L 144.568761 196.101905 
L 142.83483 195.978054 
L 138.500007 196.101905 
L 143.577943 194.739534 
L 145.435725 194.367977 
L 153.857665 194.244126 
L 161.16494 193.87257 
L 166.738283 194.120272 
L 173.17859 196.101905 
L 178.504228 198.331244 
L 184.696833 198.7028 
L 190.765584 198.455095 
L 195.348113 195.854203 
L 200.673754 193.748715 
L 204.817049 193.554937 
L 209.417634 194.052863 
L 214.124014 194.176718 
L 218.211131 193.681307 
L 221.67899 193.805161 
L 224.899144 194.795976 
L 228.243152 196.529908 
L 223.536773 196.653759 
L 221.926696 198.635392 
L 221.307434 200.864731 
L 222.062293 203.750998 
L 223.293694 206.770994 
L 227.289696 209.146995 
L 231.609695 209.902994 
L 234.093696 211.522992 
L 238.197694 213.466994 
L 241.977696 215.626994 
L 246.405695 216.274992 
L 251.373693 215.626994 
L 257.313694 212.602991 
L 259.929347 209.81378 
L 262.413348 207.65378 
L 264.357351 204.089779 
L 265.22135 202.037776 
L 265.869348 198.365779 
L 267.273349 195.449777 
L 269.433349 193.181777 
L 271.809349 190.481779 
L 273.537347 189.077778 
L 276.66935 188.861778 
L 278.721349 187.889778 
L 280.341347 185.297777 
L 280.12535 179.573777 
L 279.801349 177.305777 
L 279.153347 174.605779 
L 277.209348 173.957777 
L 275.049349 174.497779 
L 272.781349 175.79378 
L 270.405348 176.441778 
L 269.001347 174.821776 
L 268.56935 171.797778 
L 269.217348 169.205777 
L 269.217348 162.509777 
L 269.75735 159.91778 
L 271.05335 157.217778 
L 271.807861 154.886593 
L 270.727861 152.618593 
L 268.351865 150.458594 
L 265.327862 148.514595 
L 262.195863 146.678596 
L 260.035863 144.734594 
L 258.199861 135.878594 
L 256.687864 131.666595 
L 255.607864 128.210595 
L 254.635864 124.538594 
L 254.203863 121.406595 
L 255.931861 120.002594 
L 258.415862 121.082594 
L 258.631863 124.538594 
L 258.523862 128.750593 
L 259.171864 132.530595 
L 260.683862 136.094595 
L 261.007863 138.686596 
L 264.355863 143.654594 
L 267.379862 146.678596 
L 270.511864 149.270594 
L 273.967865 151.106596 
L 276.019864 150.566594 
L 277.099864 148.514595 
L 278.827862 147.974597 
L 279.475864 149.486594 
L 281.419863 150.458594 
L 284.659862 150.458594 
L 287.467864 148.946596 
L 289.843865 148.190594 
L 292.651863 146.030594 
L 295.027863 143.870595 
L 296.863862 141.278593 
L 297.727864 129.722596 
L 298.915865 126.806594 
L 300.643863 123.566595 
L 300.535862 121.190595 
L 300.211861 118.166596 
L 299.023861 115.682595 
L 296.431864 113.414595 
L 294.487861 113.090594 
L 292.003864 115.034597 
L 289.087862 116.546594 
L 287.467864 116.006596 
L 286.387864 114.926596 
L 286.279864 117.950595 
L 285.739862 121.298595 
L 283.471862 124.106597 
L 281.419863 125.618594 
L 280.123862 122.918596 
L 282.175862 120.866593 
L 283.363862 117.626594 
L 282.175862 114.710596 
L 280.231863 113.090594 
L 277.423865 112.550596 
L 275.155865 112.766597 
L 274.291862 111.038595 
L 274.723863 109.418597 
L 277.531861 109.634594 
L 284.335861 109.418597 
L 286.063863 108.554594 
L 287.359864 106.286594 
L 287.742278 103.521274 
L 287.742278 100.065274 
L 286.878279 98.769274 
L 284.394278 99.741273 
L 282.018277 101.469275 
L 278.994279 102.009273 
L 277.374277 101.253274 
L 279.642277 98.769274 
L 283.206278 96.717274 
L 285.258277 94.125273 
L 286.554277 90.777273 
L 286.014279 86.997272 
L 283.85428 83.217275 
L 282.77428 79.653274 
L 282.126278 77.061273 
L 280.39828 73.497272 
L 279.534277 70.581274 
L 277.914279 69.177273 
L 273.918277 69.933272 
L 270.030279 71.985275 
L 266.250278 73.821274 
L 263.982278 75.441275 
L 262.578277 78.249273 
L 263.226279 82.353272 
L 265.386279 82.785273 
L 267.546278 82.029274 
L 267.762279 89.589273 
L 268.410277 93.477275 
L 266.142277 94.449274 
L 262.25428 95.205273 
L 259.230277 97.257272 
L 256.206278 99.093275 
L 252.750278 99.849273 
L 251.238277 96.609274 
L 255.126279 95.637274 
L 257.934277 94.557275 
L 259.98628 91.749273 
L 260.533477 89.29079 
L 260.201228 86.803607 
L 259.985227 83.023606 
L 259.013228 80.431604 
L 256.961228 79.675606 
L 254.045226 80.107603 
L 250.589226 79.243604 
L 251.777226 77.947604 
L 255.881229 77.839603 
L 258.689227 77.083605 
L 261.605229 75.247606 
L 264.953229 72.655605 
L 267.653226 71.035603 
L 270.785229 69.631606 
L 272.297227 68.551606 
L 277.049227 64.987606 
L 277.805226 61.099604 
L 277.824876 57.201703 
L 275.988874 49.317704 
L 272.748874 46.185704 
L 269.616875 43.593703 
L 266.268875 41.973705 
L 262.272874 42.081702 
L 258.708877 43.161702 
L 255.684874 45.213705 
L 252.876876 46.401705 
L 252.660875 44.457703 
L 254.820875 42.513704 
L 256.548873 39.381704 
L 255.036876 35.709704 
L 252.336874 34.737704 
L 246.504874 30.201704 
L 242.940873 28.797703 
L 239.663813 28.487735 
L 236.787528 28.603493 
L 234.843529 28.495493 
L 233.223528 26.227493 
L 230.415529 24.931493 
L 227.715528 25.795492 
L 225.339528 26.227493 
L 223.611529 29.143492 
L 223.179528 32.707492 
L 222.963527 37.135492 
L 227.931529 44.911495 
L 228.687528 48.043494 
L 229.011529 51.823492 
L 231.063528 55.063495 
L 233.439528 57.439491 
L 237.003529 58.843492 
L 239.919527 57.331495 
L 240.891527 54.415493 
L 240.891527 51.715495 
L 242.295528 52.363493 
L 242.835529 56.035494 
L 240.999527 59.599495 
L 238.839527 63.271492 
L 236.031529 67.159493 
L 233.223528 70.507493 
L 230.955528 73.747493 
L 230.307529 76.879492 
L 230.307529 81.091494 
L 228.039529 83.143494 
L 226.203527 80.551493 
L 226.635528 77.095493 
L 228.147529 73.531492 
L 229.875528 69.859495 
L 230.955528 65.971493 
L 230.847527 63.055495 
L 229.227529 60.679494 
L 226.743529 60.247493 
L 224.691529 61.219493 
L 224.151528 58.303494 
L 225.231527 55.603493 
L 226.527528 51.067493 
L 225.771529 46.315492 
L 224.259528 43.831491 
L 219.291527 38.323492 
L 218.643528 35.191493 
L 220.26353 31.519492 
L 221.45153 27.739494 
L 219.961345 25.825393 
L 216.929062 24.287566 
L 214.901771 24.144097 
L 212.61735 24.239782 
L 210.34935 24.99578 
L 209.16135 22.835781 
L 212.185349 22.187782 
L 216.505348 21.863781 
L 218.12535 19.487781 
L 216.304469 17.170081 
L 212.509042 15.380393 
L 207.829026 14.408198 
L 202.861024 14.552199 
L 199.261022 16.6402 
L 196.525023 18.5122 
L 194.077024 21.536199 
L 193.644344 25.669783 
L 194.68913 29.102649 
L 197.375719 32.237004 
L 199.017523 35.52061 
L 199.913052 38.953477 
L 202.151877 42.684849 
L 203.495171 46.714733 
L 205.435487 50.147599 
L 208.420585 52.983441 
L 210.65941 55.819287 
L 212.748982 59.102897 
L 211.256431 60.595444 
L 208.569841 57.908855 
L 205.286231 54.028227 
L 202.151877 50.595364 
L 199.913052 45.222185 
L 197.674228 41.043045 
L 195.58466 36.117631 
L 193.047326 28.953393 
L 189.763716 28.356372 
L 185.883085 29.550414 
L 183.495008 33.132533 
L 182.599478 37.759435 
L 182.151713 42.237084 
L 182.74873 46.863989 
L 184.241281 50.296852 
L 186.032341 53.132697 
L 186.629362 58.207367 
L 186.480106 62.53576 
L 187.226379 66.565644 
L 189.166695 69.252233 
L 192.151797 70.744784 
L 197.07721 70.89404 
L 201.853368 70.89404 
L 205.136978 72.6851 
L 204.838466 75.968707 
L 200.957838 75.520942 
L 197.07721 74.177647 
L 192.450305 73.879138 
L 189.166695 74.625412 
L 186.480106 77.461257 
L 185.027501 79.830439 
L 185.505258 84.667281 
L 184.758686 87.501058 
L 186.699002 89.59063 
L 191.176651 89.441374 
L 195.355791 88.695101 
L 199.236419 88.993609 
L 202.669282 90.635413 
L 205.505127 91.829455 
L 209.236503 91.38169 
L 209.982776 95.560826 
L 207.792288 97.252087 
L 204.629487 95.554893 
L 200.599603 93.166816 
L 198.360779 91.972774 
L 194.330895 92.12203 
L 190.450267 91.972774 
L 187.315913 92.271287 
L 185.674106 94.80862 
L 186.569635 101.077328 
L 190.301011 101.674349 
L 194.330895 102.719132 
L 191.345797 102.569879 
L 187.763678 101.972858 
L 185.823362 104.062426 
L 183.435281 107.047528 
L 183.136772 109.734117 
L 182.987516 113.764001 
L 184.480067 115.85357 
L 187.91293 116.152078 
L 191.984607 113.238638 
L 194.372684 112.343108 
L 192.581624 114.731185 
L 185.715899 117.567031 
L 181.387502 117.567031 
L 177.059109 116.671501 
L 173.327734 115.029698 
L 169.745615 112.343108 
L 172.730717 114.134168 
L 176.760601 115.775971 
L 179.596443 114.731185 
L 180.491972 110.99981 
L 178.999425 108.611733 
L 180.491972 105.775888 
L 182.581544 102.79079 
L 183.924839 97.865376 
L 182.432288 94.283257 
L 179.745699 91.447411 
L 175.566559 90.999646 
L 171.984439 92.64145 
L 168.253068 95.328039 
L 164.820201 98.462393 
L 163.924671 101.148983 
L 160.491809 100.551965 
L 161.238082 97.417611 
L 166.611261 93.238471 
L 169.447106 90.104116 
L 172.879969 85.626468 
L 173.029225 82.790622 
L 174.820285 83.835408 
L 177.65613 86.074232 
L 181.686014 85.924976 
L 183.775583 82.492113 
L 183.775583 76.820426 
L 181.387502 73.98458 
L 177.357618 73.089051 
L 174.074011 73.238307 
L 170.790401 72.044265 
L 178.253148 70.253205 
L 181.088993 66.820342 
L 181.584118 60.475091 
L 181.014991 56.185984 
L 179.820953 51.26057 
L 179.074679 47.678451 
L 178.626914 44.544097 
L 178.179149 39.61868 
L 174.447774 36.93209 
L 170.567146 36.185817 
L 167.880557 37.976876 
L 166.23875 41.857508 
L 165.790985 46.633665 
L 166.23875 52.1561 
L 166.23875 56.783002 
L 163.104396 61.26065 
L 159.522277 66.036812 
L 156.537179 69.768183 
L 155.641649 67.977124 
L 158.776003 62.15618 
L 159.820789 56.484493 
L 160.268554 50.365041 
L 160.417806 46.036644 
L 162.805887 42.305273 
L 164.298438 38.872406 
L 167.13428 34.544013 
L 167.462062 32.727309 
L 165.977005 29.986386 
L 168.514341 28.643087 
L 171.499439 26.553519 
L 172.394969 21.329597 
L 170.753166 18.344495 
L 168.81285 16.851948 
L 165.910801 16.915227 
L 165.910801 16.915227 
" style="fill:none;stroke:#000000;stroke-linecap:square;stroke-width:1.5;"/>
   </g>
   <g id="line2d_7">
    <path clip-path="url(#p1f31cd1238)" d="M 286.574156 156.729759 
L 284.541593 156.418321 
L 282.638193 158.123138 
L 281.900664 160.441085 
L 283.059638 162.126866 
L 285.904396 162.653673 
L 288.222346 161.389338 
L 288.74915 158.860667 
L 286.574156 156.729759 
" style="fill:none;stroke:#000000;stroke-linecap:square;stroke-width:1.5;"/>
   </g>
   <g id="line2d_8">
    <path clip-path="url(#p1f31cd1238)" d="M 99.369811 33.759071 
L 95.614373 33.575878 
L 93.232875 34.675031 
L 90.210204 37.972489 
L 88.378285 42.002718 
L 85.447212 46.490923 
L 83.246396 48.49123 
L 80.765842 53.539457 
L 79.954091 57.826815 
L 81.419629 61.39906 
L 84.533894 64.238538 
L 88.289332 66.345249 
L 93.601902 66.620036 
L 96.624573 64.055345 
L 98.73128 60.208313 
L 101.204373 58.65118 
L 103.952256 56.910855 
L 105.143003 53.33861 
L 106.608541 49.674767 
L 105.967368 45.186562 
L 104.410236 40.606758 
L 104.135449 36.210148 
L 102.028738 34.378224 
L 99.369811 33.759071 
" style="fill:none;stroke:#000000;stroke-linecap:square;stroke-width:1.5;"/>
   </g>
   <g id="line2d_9">
    <path clip-path="url(#p1f31cd1238)" d="M 71.661267 140.861263 
L 66.966289 138.135145 
L 61.816956 136.469185 
L 57.727781 135.863379 
L 53.941506 137.377891 
L 50.912489 139.801106 
L 50.306682 144.344632 
L 50.306682 149.342516 
L 50.912489 154.491849 
L 47.883468 156.763612 
L 47.732016 152.068631 
L 48.337822 145.707693 
L 48.943625 140.255457 
L 46.671862 137.22644 
L 42.734135 132.380007 
L 39.099311 128.593735 
L 35.313039 126.927774 
L 32.43547 128.745186 
L 31.223864 134.954673 
L 31.223864 140.406909 
L 32.43547 144.193184 
L 36.070294 147.07075 
L 34.858685 151.008477 
L 33.041273 155.703455 
L 32.586922 162.215844 
L 35.010136 166.456474 
L 38.493508 168.879689 
L 43.339938 167.365177 
L 48.337822 167.365177 
L 52.426997 166.607922 
L 54.395857 164.487611 
L 57.979794 161.588232 
L 58.306713 163.727432 
L 57.284418 165.9424 
L 57.625181 168.498135 
L 59.499387 171.224253 
L 60.180916 173.609605 
L 57.284418 171.394636 
L 55.750978 168.498135 
L 51.150654 169.009284 
L 46.37995 169.350047 
L 41.950009 169.350047 
L 39.223892 172.246548 
L 38.201597 176.16534 
L 40.586949 180.936047 
L 43.824216 184.854839 
L 48.083774 187.580957 
L 52.002566 187.75134 
L 54.217534 184.684456 
L 54.047155 181.787958 
L 51.661799 179.743369 
L 56.262124 180.765664 
L 59.158624 182.63987 
L 58.13633 184.514076 
L 55.069446 186.899428 
L 54.899066 190.647837 
L 57.625181 193.714721 
L 61.543976 194.907395 
L 64.270094 195.588927 
L 65.122006 198.144662 
L 62.566271 200.359631 
L 59.499387 203.767277 
L 58.988241 206.152629 
L 61.20321 208.708364 
L 66.31468 210.923336 
L 71.596532 210.58257 
L 76.196857 211.434481 
L 79.093354 212.286393 
L 83.864061 212.967922 
L 86.419796 211.434481 
L 90.338588 211.264098 
L 94.768529 210.923336 
L 99.028087 210.241807 
L 101.243056 206.834161 
L 100.220764 201.381925 
L 98.516941 197.46313 
L 96.131586 194.907395 
L 92.383177 193.885104 
L 88.634765 193.714721 
L 85.397501 193.544338 
L 83.523295 195.077778 
L 81.478706 198.315041 
L 78.752591 200.018865 
L 75.344945 198.82619 
L 77.90068 196.611218 
L 79.774882 193.203572 
L 80.626794 190.307074 
L 79.856567 187.739306 
L 79.007525 185.449265 
L 78.837781 182.895443 
L 79.51931 179.828562 
L 78.922971 176.420916 
L 78.497015 174.802283 
L 75.85609 174.54671 
L 72.448444 174.887472 
L 74.748606 173.950371 
L 78.497015 172.672503 
L 79.945265 171.05387 
L 79.774882 168.498135 
L 80.286032 164.749726 
L 80.96756 161.853225 
L 80.115648 158.445579 
L 79.178547 156.060227 
L 76.708002 154.526787 
L 72.363254 153.078537 
L 69.593692 152.644888 
L 67.037758 151.963247 
L 64.056067 150.770569 
L 61.32995 149.492702 
L 65.248742 150.855762 
L 68.060053 151.452101 
L 71.382506 152.304013 
L 74.364196 151.452101 
L 75.98283 148.811173 
L 76.238403 145.233144 
L 74.44939 142.762602 
L 71.661267 140.861263 
" style="fill:none;stroke:#000000;stroke-linecap:square;stroke-width:1.5;"/>
   </g>
  </g>
 </g>
 <defs>
  <clipPath id="p1f31cd1238">
   <rect height="238.32" width="362.88" x="0" y="0"/>
  </clipPath>
 </defs>
</svg>
