<?xml version="1.0" encoding="utf-8" standalone="no"?>
<!DOCTYPE svg PUBLIC "-//W3C//DTD SVG 1.1//EN"
  "http://www.w3.org/Graphics/SVG/1.1/DTD/svg11.dtd">
<!-- Created with matplotlib (https://matplotlib.org/) -->
<svg height="601.92pt" version="1.1" viewBox="0 0 816.48 601.92" width="816.48pt" xmlns="http://www.w3.org/2000/svg" xmlns:xlink="http://www.w3.org/1999/xlink">
 <defs>
  <style type="text/css">
*{stroke-linecap:butt;stroke-linejoin:round;}
  </style>
 </defs>
 <g id="figure_1">
  <g><image xlink:href="../../img/ctx/cat_cor_cell.json.ctx-50%25.png" width="816.48px" height="601.92px"/></g>

  <g id="patch_1">
   <path d="M 0 601.92 
L 816.48 601.92 
L 816.48 0 
L 0 0 
z
" style="fill:none;"/>
  </g>
  <g id="axes_1">
   <g id="line2d_1">
    <path clip-path="url(#p154606104a)" d="M 402.975157 25.358644 
L 392.621685 25.090251 
L 382.249106 26.686028 
L 372.27546 30.27654 
L 363.099719 34.66494 
L 353.525022 40.649126 
L 343.152435 49.026987 
L 334.774583 56.208002 
L 328.790397 62.990077 
L 329.588286 71.766877 
L 331.184071 81.341575 
L 331.184071 91.714161 
L 329.189345 100.092014 
L 325.997774 103.682525 
L 327.992508 94.506776 
L 329.588286 85.331027 
L 329.588286 79.745789 
L 327.194611 70.968989 
L 324.003048 62.591136 
L 313.630462 57.005899 
L 301.662098 53.016439 
L 287.699 50.622764 
L 274.932747 51.021713 
L 262.565435 56.208002 
L 251.7939 62.990077 
L 244.213936 71.766877 
L 236.633973 83.336301 
L 233.497212 89.169234 
L 234.917764 97.206557 
L 238.109328 105.584409 
L 244.492462 115.159107 
L 248.880862 124.733797 
L 252.870314 133.909546 
L 257.657663 141.090569 
L 264.04079 145.478969 
L 271.221813 150.665259 
L 264.838686 154.654719 
L 258.056612 157.447333 
L 251.673477 157.846282 
L 253.269263 149.069481 
L 248.481914 137.101117 
L 244.891402 126.728531 
L 240.104062 114.760159 
L 231.327253 103.988632 
L 222.550452 97.206557 
L 212.177866 97.206557 
L 198.613716 99.999172 
L 187.044301 104.786521 
L 176.671714 112.765433 
L 164.70335 120.744345 
L 149.942363 132.313768 
L 138.155577 144.632002 
L 125.327524 159.421566 
L 114.954938 172.985715 
L 107.773923 185.353028 
L 100.5929 198.119288 
L 95.007662 210.087652 
L 89.422425 222.454965 
L 82.64035 232.029662 
L 75.060386 243.200138 
L 70.273037 255.56745 
L 68.677252 267.535814 
L 70.671986 282.695749 
L 75.060386 292.669387 
L 81.443513 302.244085 
L 91.816099 310.621937 
L 101.789737 319.398738 
L 113.359161 326.579761 
L 124.928584 331.36711 
L 139.689563 332.563947 
L 140.721234 337.404653 
L 137.529671 340.197268 
L 132.742322 337.404653 
L 123.566573 338.202542 
L 114.789772 336.606756 
L 105.614023 330.22363 
L 98.03406 322.244718 
L 88.060422 317.058428 
L 80.08151 315.462643 
L 73.698383 316.260532 
L 66.916309 327.431007 
L 63.008978 337.432821 
L 61.413201 350.598022 
L 62.61003 364.162172 
L 64.205815 380.119996 
L 64.205815 392.886249 
L 66.59949 404.056732 
L 65.801601 418.817711 
L 70.98789 432.38186 
L 74.97735 443.951284 
L 81.759425 451.531247 
L 93.32884 458.712271 
L 105.297213 461.903834 
L 114.472954 456.717545 
L 119.260302 447.940744 
L 126.042377 439.562884 
L 121.255028 448.738633 
L 115.669791 459.111219 
L 113.276125 465.095397 
L 116.068739 471.478532 
L 134.688933 487.754497 
L 148.652031 498.127083 
L 165.407744 508.499662 
L 191.339206 516.079633 
L 213.680156 518.074359 
L 233.627432 516.079633 
L 251.97893 510.893336 
L 265.144132 505.707047 
L 277.511444 498.526024 
L 290.277705 492.142897 
L 307.432366 470.200887 
L 313.416544 463.019872 
L 311.820766 455.4399 
L 311.022878 445.466263 
L 307.033418 441.476811 
L 293.070328 440.678922 
L 252.776819 434.694736 
L 235.622158 427.912661 
L 254.372605 431.104224 
L 273.521992 433.09895 
L 294.267157 433.497899 
L 316.209167 433.09895 
L 331.768042 437.487351 
L 343.337466 445.865211 
L 352.513215 454.243071 
L 362.486853 465.014598 
L 375.253114 473.791399 
L 386.423589 480.573474 
L 388.418315 487.355548 
L 390.132776 493.637529 
L 398.111688 500.419604 
L 409.282163 496.031196 
L 419.255801 495.632255 
L 427.633662 499.222767 
L 435.213625 497.228033 
L 440.399914 493.238581 
L 440.798863 486.456506 
L 446.783049 482.467054 
L 463.538762 472.892356 
L 477.9008 451.349295 
L 485.13269 446.869016 
L 495.505276 437.294318 
L 502.287351 432.506969 
L 516.250449 430.911192 
L 536.596673 430.911192 
L 560.93235 428.916458 
L 589.656435 425.724895 
L 564.522861 431.310132 
L 544.575585 432.905918 
L 527.819865 435.698533 
L 516.649389 436.49643 
L 508.670477 439.289044 
L 504.282077 447.267956 
L 505.079974 460.034217 
L 511.4631 470.007855 
L 520.239901 477.188878 
L 527.819865 487.162516 
L 544.575585 497.934043 
L 565.719699 508.306629 
L 586.863812 515.487653 
L 607.210036 516.68449 
L 627.955209 513.093978 
L 647.503536 508.705578 
L 668.248709 497.535103 
L 681.01497 487.960405 
L 693.382282 477.188878 
L 697.371734 466.018403 
L 696.174897 458.438431 
L 692.185445 452.055305 
L 689.791771 443.677445 
L 694.180171 451.257416 
L 697.371734 457.640543 
L 701.760135 461.231054 
L 711.334832 464.023669 
L 720.510573 462.028943 
L 729.287382 456.443705 
L 735.910954 447.807943 
L 740.792884 433.001193 
L 745.979181 416.644421 
L 747.973907 399.090819 
L 749.569693 381.51109 
L 751.963359 364.124443 
L 750.76653 353.352908 
L 749.170744 340.586655 
L 744.383395 315.453082 
L 743.585507 306.676281 
L 747.176018 293.511072 
L 745.979181 284.734271 
L 737.601321 281.542708 
L 730.420305 281.941656 
L 720.446659 288.324783 
L 712.467755 296.702635 
L 706.483569 305.878384 
L 695.313094 321.43726 
L 688.92996 329.81512 
L 685.339456 335.001409 
L 681.748945 344.576107 
L 678.158433 339.389818 
L 681.349996 331.809846 
L 687.334182 327.022505 
L 694.116257 319.043593 
L 705.685681 303.883658 
L 711.669859 294.308969 
L 719.648771 286.330057 
L 730.420305 280.345871 
L 738.000269 279.946922 
L 746.77707 282.340597 
L 746.77707 275.159582 
L 748.771796 265.584884 
L 749.170744 250.823897 
L 743.585507 236.860807 
L 735.606595 223.296658 
L 725.234008 211.328286 
L 715.659319 192.577847 
L 708.041773 178.893577 
L 702.057595 163.73365 
L 694.078683 146.18004 
L 684.902933 127.828542 
L 675.802962 109.896795 
L 665.389976 99.465855 
L 654.618441 92.284832 
L 644.245863 89.093269 
L 633.873276 87.098543 
L 625.495416 85.901706 
L 618.314401 87.896432 
L 610.335489 96.274284 
L 603.952354 104.652144 
L 597.968176 113.827894 
L 585.999804 133.376221 
L 581.611404 138.16357 
L 577.223004 148.137208 
L 571.637766 152.525608 
L 566.850417 151.328779 
L 573.632492 144.546704 
L 581.212456 136.168844 
L 592.781879 121.008909 
L 597.569228 111.833168 
L 603.154466 102.657418 
L 607.542866 91.885884 
L 611.133378 84.30592 
L 607.941814 70.342822 
L 604.351303 61.566021 
L 593.978716 53.188169 
L 585.254007 48.057229 
L 573.684583 46.062503 
L 562.913057 44.067769 
L 551.343633 44.865666 
L 542.566832 47.25934 
L 534.986869 50.051955 
L 526.210068 54.041415 
L 519.029045 60.82349 
L 515.438533 69.999231 
L 513.842748 81.169706 
L 513.842748 92.340189 
L 515.837482 101.11699 
L 509.853296 91.941241 
L 512.24697 80.371817 
L 513.842748 68.403453 
L 514.640644 57.631918 
L 507.459621 48.057229 
L 495.890198 39.679369 
L 481.927108 32.099405 
L 469.160847 27.312056 
L 457.369243 23.81517 
L 446.540236 23.40075 
L 438.960264 26.991261 
L 432.577138 36.964899 
L 431.779249 48.135374 
L 429.784515 64.093198 
L 432.358321 88.840503 
L 432.757261 104.798327 
L 437.14567 115.170913 
L 445.124574 121.952988 
L 457.890835 125.94244 
L 467.465532 134.719241 
L 477.838111 143.89499 
L 484.620185 153.070739 
L 486.614919 162.645437 
L 483.423348 153.070739 
L 476.641273 144.692887 
L 466.667635 136.713975 
L 456.693997 128.336114 
L 445.124574 123.548766 
L 438.741447 124.745603 
L 430.762535 132.724515 
L 424.379409 147.086553 
L 422.384683 161.049651 
L 421.187846 174.214852 
L 419.59206 187.779002 
L 420.788898 196.555811 
L 425.576246 203.337886 
L 433.954099 207.327338 
L 444.725634 206.1305 
L 453.103486 202.539989 
L 444.326685 207.925752 
L 433.954099 209.721012 
L 425.775721 211.316789 
L 412.610511 212.513627 
L 403.434762 210.917849 
L 396.7869 210.139719 
L 387.693624 205.569399 
L 397.068847 207.963073 
L 403.651448 206.566762 
L 410.034574 203.375199 
L 415.021397 195.994701 
L 417.614538 187.217901 
L 418.412435 173.454277 
L 420.008212 160.48855 
L 418.412435 146.9244 
L 414.622449 141.538629 
L 414.2235 134.956028 
L 411.231411 126.179227 
L 405.446699 122.78819 
L 400.060936 120.992938 
L 394.07675 123.586079 
L 385.100475 129.171316 
L 376.722623 135.753925 
L 371.536325 141.937577 
L 366.549511 146.9244 
L 361.961636 151.312801 
L 357.573236 156.698564 
L 352.985361 160.88749 
L 355.97745 154.703838 
L 361.961636 147.323341 
L 366.948451 141.738103 
L 371.336859 136.152865 
L 376.1242 130.966576 
L 383.105749 126.378702 
L 395.672536 120.394516 
L 402.654085 116.804004 
L 407.241959 111.817189 
L 410.555121 105.74617 
L 411.552484 98.166207 
L 412.549847 88.192569 
L 413.14827 79.814708 
L 414.544573 72.035271 
L 414.943521 63.657418 
L 415.541944 53.683772 
L 414.943521 43.510668 
L 411.951432 34.135445 
L 408.360921 28.949148 
L 402.975157 25.358644 
L 402.975157 25.358644 
" style="fill:none;stroke:#000000;stroke-linecap:square;stroke-width:1.5;"/>
   </g>
   <g id="line2d_2">
    <path clip-path="url(#p154606104a)" d="M 653.618457 173.205332 
L 657.392146 175.361729 
L 660.08764 178.596329 
L 663.591785 187.491462 
L 664.669988 196.117051 
L 664.400435 202.855787 
L 662.244038 209.055434 
L 656.583496 214.98552 
L 651.46206 222.532914 
L 645.531966 226.306603 
L 641.219171 224.419758 
L 644.184219 221.454711 
L 650.114313 217.681014 
L 655.774854 213.368228 
L 660.357193 208.516328 
L 662.783143 203.12534 
L 663.32224 196.386604 
L 661.165843 188.839209 
L 657.392146 183.178668 
L 654.427099 176.979029 
L 653.618457 173.205332 
L 653.618457 173.205332 
" style="fill:none;stroke:#000000;stroke-linecap:square;stroke-width:1.5;"/>
   </g>
  </g>
 </g>
 <defs>
  <clipPath id="p154606104a">
   <rect height="601.92" width="816.48" x="0" y="0"/>
  </clipPath>
 </defs>
</svg>
