<?xml version="1.0" encoding="utf-8" standalone="no"?>
<!DOCTYPE svg PUBLIC "-//W3C//DTD SVG 1.1//EN"
  "http://www.w3.org/Graphics/SVG/1.1/DTD/svg11.dtd">
<!-- Created with matplotlib (https://matplotlib.org/) -->
<svg height="246.24pt" version="1.1" viewBox="0 0 414.72 246.24" width="414.72pt" xmlns="http://www.w3.org/2000/svg" xmlns:xlink="http://www.w3.org/1999/xlink">
 <defs>
  <style type="text/css">
*{stroke-linecap:butt;stroke-linejoin:round;}
  </style>
 </defs>
 <g id="figure_1">
  <g><image xlink:href="../../img/ctx/chimp_cor_cell.json.ctx-50%25.png" width="414.71999999999997px" height="246.23999999999998px"/></g>

  <g id="patch_1">
   <path d="M 0 246.24 
L 414.72 246.24 
L 414.72 0 
L 0 0 
z
" style="fill:none;"/>
  </g>
  <g id="axes_1">
   <g id="line2d_1">
    <path clip-path="url(#pcb48bf9045)" d="M 141.177552 36.162929 
L 136.965481 38.715062 
L 134.091754 41.041409 
L 131.491712 42.683542 
L 129.439051 44.462513 
L 128.617985 46.241487 
L 129.165361 50.483658 
L 127.523232 49.115215 
L 125.470571 48.430997 
L 122.733688 48.704684 
L 119.723116 50.620503 
L 118.354672 52.673164 
L 117.944141 55.410047 
L 118.628363 58.420619 
L 120.407337 61.431192 
L 122.323153 64.441765 
L 122.459998 68.136555 
L 122.459998 72.241881 
L 123.554751 75.662985 
L 125.060035 78.810399 
L 129.02852 84.694699 
L 134.912816 88.66318 
L 132.586465 88.66318 
L 129.165361 85.515766 
L 126.702169 82.505193 
L 123.691596 78.536712 
L 121.091555 75.662985 
L 118.765204 74.020855 
L 116.165166 74.705077 
L 118.902049 72.105036 
L 120.133647 68.683932 
L 120.407337 64.989141 
L 118.628363 60.610125 
L 115.89148 57.599557 
L 112.880907 56.231113 
L 109.596648 56.915335 
L 104.943946 61.704878 
L 103.028127 64.30492 
L 102.070219 67.041802 
L 101.796528 69.368153 
L 102.617595 72.515567 
L 105.217632 75.115608 
L 106.175544 76.484048 
L 103.438658 73.610324 
L 100.428089 71.968191 
L 97.006985 71.968191 
L 94.543789 74.157701 
L 92.217438 78.126181 
L 90.848995 82.505193 
L 88.933179 86.473674 
L 86.606828 90.578999 
L 84.143632 95.231702 
L 83.45941 99.063337 
L 82.638347 104.537102 
L 82.464521 111.05699 
L 83.422429 114.341253 
L 85.611935 116.804445 
L 88.759353 118.446574 
L 90.948859 120.088708 
L 87.801441 119.951863 
L 86.159312 121.320302 
L 86.022467 124.194029 
L 87.39091 126.520381 
L 91.35939 127.751979 
L 95.464716 127.341447 
L 99.570042 126.246694 
L 107.780689 122.962435 
L 110.517576 121.457147 
L 110.517576 119.541331 
L 109.149132 117.762357 
L 112.707082 118.309733 
L 116.128186 118.172888 
L 119.138754 116.94129 
L 121.328264 114.614939 
L 124.88621 112.835964 
L 127.212561 112.288588 
L 126.117808 114.067562 
L 123.51777 116.120223 
L 123.51777 119.404486 
L 125.1599 123.236122 
L 127.896782 123.920343 
L 131.865263 123.236122 
L 134.328459 120.499239 
L 137.749563 117.21498 
L 136.791655 119.951863 
L 134.191614 122.278214 
L 131.181041 124.330875 
L 128.85469 127.067757 
L 128.170473 130.899397 
L 129.12838 134.731032 
L 130.907355 137.60476 
L 130.907355 141.025864 
L 130.050896 143.252209 
L 129.812602 141.84693 
L 128.581004 137.057383 
L 126.528343 135.141563 
L 123.654616 134.04681 
L 122.286172 132.541526 
L 120.917729 129.120422 
L 118.865068 126.930916 
L 115.854495 124.878251 
L 112.980768 124.604565 
L 106.549091 126.794071 
L 102.170079 126.109849 
L 99.159506 127.067757 
L 95.738402 128.573045 
L 91.633081 128.846732 
L 87.527755 128.573045 
L 85.201404 129.530953 
L 83.696115 133.088903 
L 81.7803 135.552099 
L 79.590794 137.60476 
L 78.906572 141.025864 
L 79.590794 145.541721 
L 81.369764 149.236515 
L 83.422429 151.973398 
L 86.433002 152.383929 
L 90.264637 152.383929 
L 93.822587 153.341837 
L 97.517377 154.026058 
L 102.443769 153.204996 
L 113.117613 153.752372 
L 117.90716 154.71028 
L 120.917729 157.173476 
L 120.917729 160.047204 
L 120.709697 160.816435 
L 118.05417 167.118553 
L 118.490754 162.848044 
L 118.24699 159.511498 
L 117.352049 158.025108 
L 115.854495 156.215564 
L 111.612329 154.847125 
L 107.233313 154.98397 
L 102.991146 155.394502 
L 99.570042 156.6261 
L 95.191026 156.215564 
L 90.538324 154.573435 
L 86.569843 154.43659 
L 83.285584 156.215564 
L 82.327676 159.499827 
L 82.875053 163.468308 
L 85.47509 173.184244 
L 88.348818 177.563256 
L 91.222545 180.847514 
L 95.191026 181.668581 
L 99.843728 180.163293 
L 100.487282 179.246057 
L 102.679886 176.506072 
L 104.45789 174.591223 
L 104.321049 179.10708 
L 105.278957 181.843962 
L 109.794814 182.801874 
L 112.632432 183.183321 
L 112.632432 184.688605 
L 108.663952 184.414919 
L 104.421785 183.457007 
L 101.137522 183.593852 
L 98.126953 186.74127 
L 96.621665 190.025529 
L 97.169041 194.2677 
L 99.358551 198.783557 
L 101.790963 201.785429 
L 105.759443 205.343374 
L 109.864769 207.80657 
L 114.791158 209.996076 
L 119.44386 211.638206 
L 128.475574 213.417181 
L 133.265121 214.648779 
L 137.917823 214.785624 
L 141.886304 213.006649 
L 144.896877 209.311859 
L 146.265316 205.069688 
L 147.086383 201.374894 
L 146.675847 197.95379 
L 144.507811 195.072908 
L 144.072641 194.226386 
L 143.355367 193.509932 
L 144.3495 192.480025 
L 143.983435 193.471857 
L 144.810561 194.885529 
L 147.360069 197.816949 
L 149.68642 199.185388 
L 153.518059 197.816949 
L 157.48654 194.669531 
L 160.770799 190.290519 
L 163.09715 186.322038 
L 163.09715 181.669336 
L 161.591862 178.111387 
L 158.170758 177.56401 
L 154.886499 179.753516 
L 151.875926 182.490399 
L 148.04429 183.037775 
L 144.486341 182.900934 
L 142.707367 181.12196 
L 142.981057 179.20614 
L 145.99163 179.616671 
L 148.865357 179.47983 
L 152.012771 178.111387 
L 154.202277 176.332412 
L 155.160189 176.879789 
L 158.718134 176.742948 
L 162.276083 175.648191 
L 164.328748 174.827128 
L 168.023538 174.142906 
L 171.110187 172.098901 
L 171.657564 167.993575 
L 170.01543 164.298781 
L 168.373301 161.972429 
L 163.583758 160.60399 
L 159.888963 161.972429 
L 155.783638 162.930341 
L 151.815157 163.477718 
L 147.436145 164.709316 
L 142.509757 164.846157 
L 138.814962 165.94091 
L 135.393858 168.267261 
L 133.341197 171.414679 
L 133.614884 176.067381 
L 134.572791 180.309548 
L 132.383285 180.583238 
L 129.099027 178.667418 
L 126.362144 176.204226 
L 127.593742 171.414679 
L 130.46747 166.898822 
L 135.120168 163.067187 
L 141.551845 159.509237 
L 147.57299 157.593418 
L 154.552039 157.456572 
L 161.804783 157.730263 
L 168.099615 158.825016 
L 176.716584 168.436011 
L 180.414273 170.898983 
L 185.066975 173.225334 
L 189.309142 173.909556 
L 193.961844 171.446359 
L 196.42504 168.162101 
L 197.519793 164.19362 
L 201.214584 161.046202 
L 202.856713 160.225139 
L 206.551508 161.730424 
L 209.151545 164.330461 
L 210.786081 166.585277 
L 212.722462 169.729966 
L 217.785696 171.098409 
L 224.901594 170.551033 
L 230.512204 169.319435 
L 233.796463 165.62464 
L 236.396501 162.477227 
L 238.859697 159.740344 
L 240.638671 157.413993 
L 244.059775 158.919277 
L 248.849323 159.603499 
L 253.087168 159.672044 
L 258.153396 159.260273 
L 261.985031 159.94449 
L 267.048265 163.77613 
L 269.785147 166.102481 
L 273.206251 167.47092 
L 278.543175 177.323701 
L 280.11547 182.037118 
L 278.002401 185.429669 
L 274.307607 186.661267 
L 270.339126 187.75602 
L 269.381218 184.882292 
L 271.160193 180.640121 
L 271.570724 176.124264 
L 270.06544 171.745252 
L 266.096959 167.229395 
L 261.033722 166.81886 
L 256.65471 164.766199 
L 252.95992 162.439848 
L 247.896682 161.071405 
L 244.201892 160.250342 
L 239.959721 161.20825 
L 237.359684 163.260915 
L 236.812307 167.09255 
L 237.63337 170.376809 
L 241.60185 176.397955 
L 243.380825 177.492707 
L 250.359878 178.31377 
L 252.686229 180.503276 
L 255.286271 184.471757 
L 252.275698 182.419096 
L 249.12828 180.092745 
L 245.296645 179.134837 
L 242.012386 179.819059 
L 240.780788 183.377004 
L 241.191319 187.482329 
L 244.201892 192.956098 
L 246.528243 195.692981 
L 250.359878 198.703554 
L 252.823075 201.029901 
L 256.244179 200.071993 
L 258.57053 197.608796 
L 260.349504 194.598228 
L 261.307412 195.692981 
L 256.244179 200.619369 
L 255.01258 203.766787 
L 257.065241 208.966866 
L 259.528438 212.661656 
L 262.675855 213.893254 
L 265.179325 211.52714 
L 268.737274 210.158701 
L 272.158378 207.558659 
L 274.211043 205.232308 
L 273.663667 202.35858 
L 271.884692 198.116414 
L 270.789939 193.874243 
L 272.8426 198.253255 
L 274.074198 201.400673 
L 276.263704 204.137555 
L 280.09534 203.316492 
L 283.790134 201.263828 
L 285.705954 198.3901 
L 286.527016 194.69531 
L 288.032305 194.832151 
L 287.348083 198.116414 
L 284.611197 200.990141 
L 281.326938 203.590179 
L 273.253131 207.011283 
L 269.695186 210.295542 
L 268.737274 213.716646 
L 270.92678 213.990336 
L 276.263704 213.853491 
L 281.463783 213.169269 
L 286.663862 211.937675 
L 290.819041 210.122715 
L 294.240145 208.343741 
L 297.387563 207.112143 
L 301.766575 205.743703 
L 305.324524 202.322599 
L 307.924561 199.312027 
L 310.250912 195.480391 
L 311.619356 191.922442 
L 311.071979 187.953961 
L 309.293004 186.448673 
L 306.419277 186.585518 
L 303.135018 187.26974 
L 299.577069 187.26974 
L 296.977031 187.132895 
L 296.429655 185.490765 
L 299.029692 185.490765 
L 302.724487 185.764455 
L 306.419277 185.62761 
L 310.524603 185.35392 
L 313.808861 183.574945 
L 315.587836 180.838063 
L 317.229966 177.82749 
L 316.956279 174.543231 
L 316.135213 171.669504 
L 317.640497 169.206307 
L 320.240538 167.427337 
L 321.882668 164.416764 
L 321.608982 160.72197 
L 319.145785 159.07984 
L 315.450991 158.669309 
L 312.029887 158.121933 
L 309.156159 157.02718 
L 305.598214 155.932427 
L 303.026681 155.92886 
L 300.319322 157.567303 
L 296.624532 160.577871 
L 290.466541 166.599017 
L 287.045437 167.556925 
L 285.813839 165.504264 
L 289.371788 163.862134 
L 292.382361 161.809469 
L 295.529775 158.935742 
L 298.950883 155.240952 
L 303.329895 152.230379 
L 307.024685 151.546157 
L 309.487881 152.64091 
L 316.056403 156.062014 
L 320.024884 157.840989 
L 323.719674 156.746236 
L 326.730247 154.28304 
L 328.782908 150.861935 
L 328.782908 147.30399 
L 329.056598 145.11448 
L 330.698727 142.240753 
L 330.151351 137.040678 
L 327.84574 133.684619 
L 324.693615 131.007688 
L 321.956733 129.502404 
L 318.125097 128.544496 
L 314.567148 126.628676 
L 311.282889 126.628676 
L 308.546002 127.176053 
L 308.546002 131.41822 
L 307.45125 134.976169 
L 305.80912 131.41822 
L 301.840639 127.997115 
L 296.914251 127.039208 
L 292.535235 127.586584 
L 289.387821 130.597157 
L 286.377249 132.102441 
L 285.14565 136.070922 
L 283.777211 141.407846 
L 281.998237 146.334234 
L 278.713974 149.207962 
L 277.208689 146.607924 
L 281.314015 137.713051 
L 281.587701 132.649818 
L 279.398195 128.270806 
L 275.56656 125.397078 
L 273.1311 121.805603 
L 271.275083 118.240048 
L 274.422501 121.387462 
L 277.296224 123.713813 
L 280.991019 125.766473 
L 284.822654 125.219097 
L 287.28585 122.89275 
L 287.28585 118.513734 
L 286.464784 115.503161 
L 283.454215 111.945216 
L 287.833227 113.997877 
L 290.980645 117.00845 
L 293.306992 120.429554 
L 296.7281 120.70324 
L 301.243957 119.882177 
L 305.075592 119.06111 
L 309.728295 120.70324 
L 314.107306 121.797993 
L 317.802101 123.850658 
L 322.181113 125.219097 
L 326.802139 124.196472 
L 329.792925 120.977017 
L 329.656084 115.640093 
L 330.203461 111.808458 
L 331.161368 107.703132 
L 330.066615 103.05043 
L 329.382394 98.671418 
L 328.698172 93.197653 
L 327.466578 89.502859 
L 325.413913 86.081755 
L 322.677031 84.029094 
L 321.992809 80.744831 
L 319.666458 78.007949 
L 316.108509 77.734262 
L 312.687405 80.197455 
L 310.087367 82.25012 
L 306.529418 83.481718 
L 308.718924 80.471145 
L 312.140028 78.555325 
L 314.74007 74.860535 
L 312.687405 70.481519 
L 309.676836 68.018327 
L 307.142233 67.040562 
L 303.793826 66.907993 
L 304.067516 62.802667 
L 301.741165 58.149969 
L 297.088463 54.455175 
L 293.256827 54.044643 
L 289.151501 56.64468 
L 286.55146 59.928939 
L 283.677732 64.581642 
L 281.625072 69.644875 
L 279.298721 74.708113 
L 275.877616 78.402903 
L 273.551265 80.455568 
L 271.088069 83.466137 
L 268.488032 86.066178 
L 269.993316 81.550321 
L 270.951228 76.076552 
L 272.045981 74.160736 
L 275.60393 72.655448 
L 277.793436 70.055411 
L 276.835524 67.865905 
L 273.41442 68.550122 
L 273.140734 66.907993 
L 275.176624 63.48365 
L 278.14307 62.303531 
L 282.24227 61.489614 
L 286.073906 59.573794 
L 289.221324 56.289535 
L 291.137139 53.826339 
L 289.7687 49.447327 
L 286.894973 46.71044 
L 283.337023 45.342001 
L 279.231698 45.478846 
L 275.810594 47.120976 
L 273.073711 49.584168 
L 272.800025 47.120976 
L 271.02105 42.605119 
L 268.666187 38.988905 
L 264.259713 34.860409 
L 260.017546 32.397213 
L 255.364844 31.576146 
L 251.806894 31.576146 
L 250.438455 31.849837 
L 246.880506 29.523485 
L 243.322557 28.018201 
L 237.942577 26.963668 
L 232.618932 26.118688 
L 227.829389 26.666065 
L 224.818816 28.581884 
L 223.313532 32.002989 
L 224.408285 34.055649 
L 228.103075 36.929377 
L 230.703117 41.171548 
L 232.618932 45.82425 
L 233.987375 49.929576 
L 233.713685 52.513368 
L 233.029468 56.327038 
L 232.618932 51.948026 
L 231.250493 46.611102 
L 229.745205 42.232091 
L 227.418853 38.400455 
L 223.724063 36.34779 
L 219.892428 36.210945 
L 216.74501 38.810986 
L 213.871282 42.095245 
L 212.030913 47.985953 
L 211.252404 51.523892 
L 211.636937 56.224005 
L 213.142225 59.9188 
L 214.236978 62.929368 
L 212.594849 66.076786 
L 210.815874 68.539982 
L 210.679029 72.645304 
L 211.363251 75.929567 
L 213.00538 77.434851 
L 214.52136 78.156746 
L 215.685176 78.436064 
L 217.424881 78.706685 
L 220.25812 78.529604 
L 229.563524 77.708542 
L 232.984628 79.624357 
L 235.584665 83.729683 
L 236.816264 87.971854 
L 236.405732 90.708736 
L 234.489912 85.645503 
L 231.479344 82.36124 
L 229.700369 80.171734 
L 225.458198 80.034893 
L 221.079186 80.71911 
L 218.205459 79.076981 
L 217.081497 78.877007 
L 214.365405 78.605792 
L 210.131653 80.308579 
L 208.626368 84.003373 
L 208.352678 87.835009 
L 208.215833 91.529799 
L 207.668456 94.814062 
L 208.179595 98.581337 
L 210.542184 100.360312 
L 212.883726 100.612101 
L 215.628028 100.248549 
L 212.343765 101.343302 
L 208.512129 101.069611 
L 205.574041 101.206456 
L 202.764674 102.848586 
L 197.411518 102.510535 
L 200.9857 101.725711 
L 203.110845 98.642657 
L 202.901519 94.911625 
L 201.533076 90.532613 
L 199.754102 86.564132 
L 197.42775 83.690405 
L 194.964558 78.900857 
L 191.132919 76.711351 
L 187.301283 76.30082 
L 184.15387 76.574506 
L 181.553828 77.532414 
L 179.227477 80.269301 
L 177.174816 83.279869 
L 174.848465 86.016756 
L 176.216904 81.500895 
L 178.269569 78.353481 
L 181.006452 76.163975 
L 184.427556 74.932377 
L 187.985505 75.069222 
L 195.511935 76.848197 
L 199.754102 75.479753 
L 202.217298 71.921804 
L 202.217298 67.269102 
L 200.712014 64.532219 
L 200.575168 61.658492 
L 202.627829 57.963702 
L 202.901519 52.079401 
L 203.859427 40.995022 
L 203.722582 35.931789 
L 201.631738 32.456584 
L 198.347479 29.856547 
L 193.968467 28.488104 
L 190.136832 29.03548 
L 186.715728 31.088145 
L 184.389377 33.961873 
L 183.157779 38.20404 
L 183.29462 44.225185 
L 183.56831 49.288419 
L 182.336712 52.983209 
L 179.462984 55.172719 
L 177.820855 53.804276 
L 180.010361 50.383172 
L 180.557737 45.730469 
L 180.284051 40.667236 
L 179.599829 35.877688 
L 181.789335 33.277651 
L 181.956173 32.324562 
L 184.037997 30.31677 
L 183.080089 27.579884 
L 179.667566 25.128287 
L 170.325359 26.036462 
L 166.220033 26.857524 
L 162.388398 28.089122 
L 158.967294 30.141787 
L 156.504097 32.468138 
L 155.819876 34.383954 
L 156.777784 37.941903 
L 159.104135 38.76297 
L 162.798929 39.447188 
L 164.988435 40.815631 
L 161.567331 40.131409 
L 158.967294 39.857723 
L 156.230407 41.636698 
L 154.998813 45.194643 
L 156.504097 48.06837 
L 158.146227 50.121035 
L 156.640943 49.98419 
L 154.177746 46.289396 
L 153.63037 43.826204 
L 155.135654 41.226162 
L 156.093566 38.48928 
L 154.998813 35.205021 
L 152.809303 34.110268 
L 148.567136 34.383954 
L 144.598656 34.931331 
L 141.177552 36.162929 
L 141.177552 36.162929 
" style="fill:none;stroke:#000000;stroke-linecap:square;stroke-width:1.5;"/>
   </g>
   <g id="line2d_2">
    <path clip-path="url(#pcb48bf9045)" d="M 317.887176 98.928126 
L 317.593148 98.854621 
L 317.372625 98.119546 
L 317.666653 97.678504 
L 318.181205 97.752009 
L 318.916279 98.119546 
L 318.916279 98.928126 
L 317.887176 98.928126 
" style="fill:none;stroke:#000000;stroke-linecap:square;stroke-width:1.5;"/>
   </g>
   <g id="line2d_3">
    <path clip-path="url(#pcb48bf9045)" d="M 139.369468 201.705927 
L 139.873469 202.56993 
L 139.009466 202.713929 
L 136.993466 202.713929 
L 135.913469 202.353927 
L 135.769466 201.417929 
L 134.977467 200.553926 
L 132.889468 198.897929 
L 132.60147 198.897929 
L 131.665467 199.113927 
L 130.441467 199.689928 
L 129.145467 200.04993 
L 126.481467 200.193929 
L 125.401466 200.553926 
L 124.321469 201.417929 
L 123.097468 201.92193 
L 121.441466 202.137929 
L 119.209468 201.777927 
L 117.121469 201.201926 
L 115.75347 200.62593 
L 114.241467 199.257926 
L 115.249469 199.473929 
L 115.969468 199.833927 
L 117.265468 200.265928 
L 119.857468 200.841929 
L 121.297467 200.985928 
L 122.809466 200.769929 
L 123.889467 200.265928 
L 124.969469 199.32993 
L 125.545469 199.257926 
L 126.337468 199.40193 
L 127.273466 199.40193 
L 128.497467 199.185927 
L 132.385467 198.177929 
L 132.745469 197.241927 
L 132.889468 195.945927 
L 132.889468 192.345929 
L 132.313467 190.97793 
L 131.449469 189.177929 
L 130.441467 187.66593 
L 129.289466 186.297926 
L 128.71347 185.07393 
L 128.785469 184.569929 
L 129.649468 184.929927 
L 130.081469 185.649926 
L 130.945468 186.36993 
L 131.809466 187.449927 
L 132.961467 188.745927 
L 133.393469 189.897928 
L 133.681467 191.337927 
L 133.609467 193.065929 
L 133.753466 194.937929 
L 133.753466 197.38593 
L 133.89747 198.609926 
L 134.689469 199.32993 
L 135.769466 200.481927 
L 136.993466 201.417929 
L 138.073468 201.849926 
L 139.369468 201.705927 
" style="fill:none;stroke:#000000;stroke-linecap:square;stroke-width:1.5;"/>
   </g>
   <g id="line2d_4">
    <path clip-path="url(#pcb48bf9045)" d="M 116.93886 95.551376 
L 115.631583 95.115617 
L 114.411461 94.156951 
L 112.66843 93.198284 
L 111.099697 93.023977 
L 109.966728 93.285433 
L 108.659452 93.808345 
L 107.526478 94.592709 
L 106.916417 95.638529 
L 106.306355 96.945806 
L 105.609145 99.734657 
L 104.737627 98.601687 
L 103.953263 96.771499 
L 103.691807 95.638529 
L 104.040412 94.244104 
L 104.563325 92.936828 
L 105.434838 92.06531 
L 107.613632 90.409429 
L 109.008057 89.712214 
L 109.530969 89.102152 
L 109.618119 87.79488 
L 109.356662 85.964692 
L 110.489636 89.102152 
L 112.058364 91.280946 
L 113.191338 92.326766 
L 114.672917 93.285433 
L 116.067342 94.331253 
L 116.93886 95.551376 
L 116.93886 95.551376 
" style="fill:none;stroke:#000000;stroke-linecap:square;stroke-width:1.5;"/>
   </g>
  </g>
 </g>
 <defs>
  <clipPath id="pcb48bf9045">
   <rect height="246.24" width="414.72" x="0" y="0"/>
  </clipPath>
 </defs>
</svg>
