<?xml version="1.0" encoding="utf-8" standalone="no"?>
<!DOCTYPE svg PUBLIC "-//W3C//DTD SVG 1.1//EN"
  "http://www.w3.org/Graphics/SVG/1.1/DTD/svg11.dtd">
<!-- Created with matplotlib (https://matplotlib.org/) -->
<svg height="403.2pt" version="1.1" viewBox="0 0 725.76 403.2" width="725.76pt" xmlns="http://www.w3.org/2000/svg" xmlns:xlink="http://www.w3.org/1999/xlink">
 <defs>
  <style type="text/css">
*{stroke-linecap:butt;stroke-linejoin:round;}
  </style>
 </defs>
 <g id="figure_1">
  <g><image xlink:href="../../img/ctx/chinchilla_cor_cell.json.ctx-50%25.png" width="725.76px" height="403.2px"/></g>

  <g id="patch_1">
   <path d="M 0 403.2 
L 725.76 403.2 
L 725.76 0 
L 0 0 
z
" style="fill:none;"/>
  </g>
  <g id="axes_1">
   <g id="line2d_1">
    <path clip-path="url(#pb6ff628226)" d="M 367.901149 128.201868 
L 372.406108 125.198557 
L 375.034005 120.693598 
L 376.160247 116.564052 
L 375.784833 110.932851 
L 376.911067 92.162172 
L 376.911067 87.281799 
L 377.286481 80.524357 
L 377.286481 73.3915 
L 376.535653 69.261948 
L 375.034005 64.756988 
L 371.279866 59.501201 
L 367.150321 56.122476 
L 363.771596 54.996235 
L 360.017465 51.992931 
L 355.512498 50.491276 
L 349.13047 48.98962 
L 344.250096 48.614206 
L 337.868068 48.614206 
L 329.233556 47.863378 
L 325.479424 47.863378 
L 320.974458 48.614206 
L 317.59574 47.487972 
L 313.090781 47.112558 
L 296.572585 47.112558 
L 292.818446 46.737144 
L 289.815143 46.737144 
L 286.061004 46.36173 
L 281.556045 45.610902 
L 272.921533 45.235489 
L 266.539504 45.235489 
L 262.409959 45.610902 
L 258.280406 46.36173 
L 254.150861 47.863378 
L 248.144246 48.614206 
L 244.014693 48.614206 
L 237.257251 48.98962 
L 231.250636 49.740448 
L 221.48989 50.491276 
L 216.984923 51.242103 
L 211.353722 52.368345 
L 197.226942 57.680299 
L 184.462885 63.311499 
L 178.831684 66.31481 
L 172.074241 70.444356 
L 166.818447 73.072253 
L 163.43973 76.826384 
L 158.934763 80.205109 
L 151.801907 85.83631 
L 148.047775 89.215028 
L 145.419878 93.34458 
L 143.91823 95.97247 
L 140.539505 98.975781 
L 137.536194 100.852851 
L 135.659132 104.231568 
L 131.529579 104.982396 
L 125.147551 108.361121 
L 121.393419 112.115252 
L 116.888453 115.493977 
L 112.758907 119.998937 
L 108.629362 126.380965 
L 105.250637 133.513822 
L 102.247333 140.271264 
L 99.99485 147.028706 
L 98.117781 156.78946 
L 97.366953 165.423965 
L 96.512668 170.812776 
L 95.76184 179.447288 
L 97.63891 188.457214 
L 99.515972 194.839242 
L 102.519283 203.473754 
L 105.898 211.732845 
L 111.153795 221.118185 
L 117.911237 231.254352 
L 124.293266 236.510139 
L 128.047397 241.765926 
L 133.678605 250.400438 
L 140.060634 258.284122 
L 148.695139 265.416978 
L 156.203409 273.300662 
L 164.462507 277.430208 
L 173.472433 284.18765 
L 182.482358 291.320507 
L 193.369346 297.327121 
L 206.133403 302.207495 
L 217.020399 303.70915 
L 226.030317 303.70915 
L 232.036939 303.333736 
L 239.920616 304.459978 
L 247.428886 303.70915 
L 251.933853 301.832088 
L 255.687984 298.828777 
L 260.192943 298.828777 
L 263.947082 303.333736 
L 273.707836 307.463289 
L 286.096479 310.091179 
L 295.106405 310.466593 
L 303.740909 308.964944 
L 310.498352 306.337047 
L 316.88038 305.210806 
L 322.136175 304.835392 
L 329.559829 304.44584 
L 333.729654 303.324867 
L 336.357544 299.94615 
L 342.364158 295.441191 
L 346.869125 292.43788 
L 350.99867 290.936224 
L 344.616642 296.192011 
L 339.736268 299.195322 
L 335.98213 302.574047 
L 333.729654 305.952765 
L 335.606716 308.956076 
L 341.988752 312.710207 
L 348.37078 315.338104 
L 357.380699 316.83976 
L 366.766038 319.092236 
L 375.775964 318.341408 
L 384.035062 314.96269 
L 387.038366 311.959379 
L 385.161296 307.45442 
L 382.533407 304.451109 
L 380.656337 300.696978 
L 376.151378 296.942839 
L 372.772653 294.690363 
L 371.270998 292.062466 
L 378.779268 297.693667 
L 384.035062 302.949461 
L 391.918739 307.45442 
L 401.679492 311.208552 
L 411.81566 312.710207 
L 429.46009 313.836449 
L 437.343774 315.338104 
L 447.104528 314.211863 
L 456.865274 312.710207 
L 465.499786 310.457724 
L 470.755573 307.829834 
L 474.134298 304.075695 
L 479.765499 304.075695 
L 484.270458 301.823219 
L 488.024597 299.195322 
L 492.90497 297.318253 
L 498.160757 293.188707 
L 500.788654 289.809982 
L 504.918199 286.806679 
L 512.051056 283.803368 
L 518.433084 281.550892 
L 524.439706 279.298408 
L 531.197149 275.54427 
L 536.080476 272.23058 
L 539.834615 269.978104 
L 544.714988 266.599379 
L 550.346188 263.220662 
L 556.352803 259.091109 
L 566.113557 249.330363 
L 570.99393 242.948334 
L 575.87431 237.69254 
L 584.508815 227.55638 
L 588.262954 222.676007 
L 593.143327 218.17104 
L 596.522052 214.041495 
L 600.651597 209.536528 
L 604.405736 203.529914 
L 607.784453 197.523299 
L 609.661523 191.516684 
L 611.163178 183.633 
L 612.664826 176.875557 
L 613.415654 171.61977 
L 613.791068 164.862328 
L 610.787764 151.382911 
L 609.286109 143.874641 
L 607.409039 135.990957 
L 604.030322 129.233514 
L 599.525355 122.100658 
L 594.269568 115.343215 
L 589.764609 110.087428 
L 584.884229 104.831641 
L 579.628442 98.825026 
L 573.246413 93.193818 
L 567.239798 88.313445 
L 559.356114 83.808486 
L 552.974086 80.429761 
L 545.643351 77.317753 
L 536.257837 73.935407 
L 528.374153 72.058337 
L 523.118366 70.556682 
L 515.234682 69.055026 
L 508.101825 67.928792 
L 499.467313 64.925481 
L 491.208223 61.546763 
L 481.822883 58.918866 
L 470.935895 56.666383 
L 460.799728 54.413907 
L 439.776573 52.912251 
L 432.268302 52.161424 
L 423.258377 51.410596 
L 406.364774 51.410596 
L 399.231918 52.161424 
L 388.720336 57.041797 
L 384.215377 60.420522 
L 378.584176 67.553378 
L 378.584176 72.433751 
L 378.208762 78.81578 
L 378.208762 91.204423 
L 377.833349 97.961866 
L 377.082521 103.21766 
L 377.082521 108.848861 
L 377.457935 114.480062 
L 377.082521 118.234193 
L 378.208762 123.114573 
L 380.836652 127.619533 
L 384.12965 129.750821 
L 378.49845 129.375407 
L 373.242663 127.873752 
L 367.901149 128.201868 
L 367.901149 128.201868 
" style="fill:none;stroke:#000000;stroke-linecap:square;stroke-width:1.5;"/>
   </g>
  </g>
 </g>
 <defs>
  <clipPath id="pb6ff628226">
   <rect height="403.2" width="725.76" x="0" y="0"/>
  </clipPath>
 </defs>
</svg>
