<?xml version="1.0" encoding="utf-8" standalone="no"?>
<!DOCTYPE svg PUBLIC "-//W3C//DTD SVG 1.1//EN"
  "http://www.w3.org/Graphics/SVG/1.1/DTD/svg11.dtd">
<!-- Created with matplotlib (https://matplotlib.org/) -->
<svg height="564.48pt" version="1.1" viewBox="0 0 725.76 564.48" width="725.76pt" xmlns="http://www.w3.org/2000/svg" xmlns:xlink="http://www.w3.org/1999/xlink">
 <defs>
  <style type="text/css">
*{stroke-linecap:butt;stroke-linejoin:round;}
  </style>
 </defs>
 <g id="figure_1">
  <g><image xlink:href="../../img/ctx/coatimundi_cor_cell.json.ctx-50%25.png" width="725.76px" height="564.48px"/></g>

  <g id="patch_1">
   <path d="M 0 564.48 
L 725.76 564.48 
L 725.76 0 
L 0 0 
z
" style="fill:none;"/>
  </g>
  <g id="axes_1">
   <g id="line2d_1">
    <path clip-path="url(#p017bb20748)" d="M 377.429906 247.597843 
L 378.009527 245.279345 
L 377.719716 242.091408 
L 378.299345 238.613667 
L 377.429906 235.42573 
L 375.980846 233.397042 
L 368.445723 228.760046 
L 365.547603 226.731365 
L 363.518916 225.861926 
L 360.620796 223.833238 
L 359.171729 221.80455 
L 357.143049 221.224929 
L 353.955112 221.224929 
L 347.869055 222.094368 
L 355.693989 220.06568 
L 358.01248 216.877743 
L 362.359666 199.778823 
L 365.837414 182.390085 
L 365.837414 177.753088 
L 364.678165 174.275341 
L 362.359666 171.667032 
L 358.881919 169.928162 
L 353.085673 169.928162 
L 347.289427 170.217972 
L 341.782999 170.217972 
L 336.276563 171.667032 
L 332.798816 173.405909 
L 324.684071 176.304029 
L 329.031258 172.826281 
L 332.509005 171.377221 
L 338.595062 170.217972 
L 344.391308 169.638351 
L 350.187553 169.638351 
L 356.56342 169.348534 
L 362.649477 168.189284 
L 366.127224 164.421726 
L 367.866102 160.943979 
L 368.735541 156.88661 
L 369.894782 140.657122 
L 369.025351 133.701626 
L 367.866102 128.195198 
L 362.939295 121.529514 
L 359.171729 120.370264 
L 354.53474 118.631394 
L 349.897743 116.602706 
L 346.130185 116.023085 
L 342.072809 115.733268 
L 336.566374 117.182327 
L 339.17469 115.733268 
L 342.072809 114.863836 
L 346.130185 114.863836 
L 349.897743 115.733268 
L 354.244922 117.761955 
L 358.881919 120.080454 
L 364.098544 120.660075 
L 367.576291 117.182327 
L 369.604972 113.704587 
L 370.1846 108.777772 
L 369.894782 105.010214 
L 370.284937 97.363309 
L 370.284791 89.827925 
L 368.256103 84.031679 
L 365.937605 78.815054 
L 362.170047 74.757685 
L 350.577555 69.830878 
L 344.491499 67.51238 
L 339.854502 66.353131 
L 330.580516 65.773502 
L 325.653701 67.222569 
L 318.408396 70.410499 
L 314.930648 72.728997 
L 312.901967 75.047496 
L 310.583469 77.365994 
L 307.97516 79.684493 
L 306.236283 80.843742 
L 298.990977 82.292801 
L 294.933609 83.452051 
L 285.079987 86.639988 
L 279.863369 88.089047 
L 274.646751 90.407546 
L 268.850505 93.885293 
L 264.503319 97.942662 
L 259.866322 102.000038 
L 256.388575 106.637034 
L 254.359894 110.404593 
L 254.359894 114.751772 
L 255.229326 119.678586 
L 257.837634 123.735955 
L 262.764449 128.083141 
L 265.952379 129.822011 
L 270.589376 133.589569 
L 272.907874 135.328446 
L 275.226372 137.936755 
L 276.675432 141.994124 
L 270.589376 137.067317 
L 254.939515 121.417456 
L 252.331206 118.519337 
L 247.694209 115.911021 
L 244.216462 114.751772 
L 239.289655 114.172151 
L 234.942468 114.751772 
L 227.986973 117.649898 
L 222.72509 120.403664 
L 218.377911 122.432352 
L 214.610353 123.591601 
L 210.552977 126.19991 
L 206.205791 128.808219 
L 203.8873 130.547089 
L 200.989173 131.996156 
L 198.670675 134.314654 
L 197.511425 136.053524 
L 196.641987 138.951644 
L 194.323488 141.270142 
L 189.106871 145.907139 
L 185.629123 149.674704 
L 183.310625 153.152444 
L 182.151375 156.340381 
L 181.281944 160.10794 
L 181.571754 165.034747 
L 182.731004 167.932873 
L 187.657811 171.410621 
L 193.743867 174.30874 
L 200.409552 176.047618 
L 207.36504 176.337428 
L 214.320535 175.178179 
L 220.116781 173.439302 
L 226.202837 170.830993 
L 230.260213 170.541182 
L 234.317582 171.410621 
L 237.505519 173.149491 
L 240.693449 176.047618 
L 236.63608 176.917049 
L 229.390775 175.178179 
L 225.333406 174.888369 
L 220.98622 175.467989 
L 216.928851 176.337428 
L 212.291854 177.206867 
L 208.524289 178.945737 
L 205.046549 180.974425 
L 203.017861 182.423485 
L 201.278983 185.031793 
L 199.829924 182.423485 
L 197.221615 180.974425 
L 194.033678 178.366116 
L 191.135558 176.917049 
L 189.106871 174.598551 
L 185.339313 171.700431 
L 182.151375 169.671744 
L 179.832877 167.353245 
L 176.065319 167.353245 
L 169.109824 169.961561 
L 166.211705 172.56987 
L 162.544338 176.772696 
L 158.77678 185.756879 
L 155.878653 189.814247 
L 152.111095 192.712366 
L 150.662035 198.508612 
L 147.763916 201.696549 
L 143.70654 205.464108 
L 140.228793 209.521483 
L 138.200105 213.578852 
L 136.751045 216.187161 
L 132.983487 219.664908 
L 131.824238 222.852845 
L 130.664989 226.910214 
L 130.954799 229.808341 
L 128.926118 234.44533 
L 127.187241 239.082327 
L 126.317802 243.139703 
L 125.15856 249.225759 
L 124.578932 255.311815 
L 124.868743 260.818251 
L 126.60762 269.222806 
L 130.085368 275.888483 
L 135.012175 279.945859 
L 141.677852 281.684729 
L 146.314849 281.97454 
L 152.980534 281.394919 
L 159.356401 279.656041 
L 168.920205 276.757922 
L 175.296079 274.149613 
L 182.541384 270.671865 
L 188.33763 268.063557 
L 192.394999 267.194118 
L 185.439504 270.092237 
L 178.194198 273.569985 
L 171.238703 276.757922 
L 165.152646 278.78661 
L 158.197151 280.81529 
L 150.662035 282.554168 
L 143.70654 283.133789 
L 137.910294 283.423607 
L 133.563115 285.162477 
L 130.085368 289.219852 
L 127.477051 294.726281 
L 126.027992 299.942906 
L 125.738181 305.159523 
L 126.027992 310.665959 
L 127.187241 316.462198 
L 128.636301 322.548261 
L 130.988198 330.385054 
L 133.596507 337.340549 
L 138.233504 343.136795 
L 140.841813 344.296044 
L 142.58069 348.933041 
L 147.507498 354.72928 
L 152.434305 359.366277 
L 158.520361 361.394964 
L 163.447169 361.105154 
L 170.112853 359.945905 
L 179.966468 354.439469 
L 182.574777 350.961722 
L 184.603464 346.614543 
L 188.950651 345.455293 
L 192.718209 342.846977 
L 194.746897 338.499798 
L 196.485767 334.152612 
L 197.934827 330.095244 
L 199.383893 326.617496 
L 200.543143 322.56012 
L 202.282013 319.951811 
L 204.310701 318.212941 
L 202.571823 327.197117 
L 199.963514 332.413742 
L 194.457079 345.455293 
L 192.718209 349.222852 
L 192.138588 352.120971 
L 193.877458 356.178347 
L 195.906146 360.525526 
L 192.718209 359.366277 
L 189.530272 357.627406 
L 186.342342 356.757968 
L 183.154405 358.496845 
L 182.574777 356.468157 
L 179.966468 356.178347 
L 176.48872 357.047778 
L 172.431352 359.656094 
L 169.243415 362.554214 
L 167.504544 365.452333 
L 166.635106 368.64027 
L 167.214734 372.987456 
L 168.663794 376.175386 
L 172.141541 381.102201 
L 174.74985 385.44938 
L 176.48872 388.057689 
L 176.19891 391.825254 
L 175.329471 387.767878 
L 173.880411 384.579941 
L 171.272102 380.522572 
L 166.924916 375.595765 
L 164.896235 375.305955 
L 163.157358 377.914264 
L 163.157358 381.681822 
L 164.026797 386.608629 
L 165.765667 393.853934 
L 169.243415 402.838118 
L 173.30079 408.054735 
L 178.227598 411.242672 
L 183.154405 415.879669 
L 186.921963 419.937038 
L 190.1099 425.153663 
L 191.84877 429.211031 
L 190.689521 432.398968 
L 189.240461 435.876716 
L 189.129072 439.585444 
L 192.609367 442.76907 
L 199.275051 445.667196 
L 204.781487 447.695877 
L 209.708294 448.565316 
L 214.345291 450.594004 
L 219.272098 454.361562 
L 225.647965 457.839309 
L 233.762709 461.606867 
L 241.297825 462.476306 
L 249.41257 461.896678 
L 255.788444 458.998559 
L 260.135623 454.941183 
L 265.06243 449.724565 
L 268.250367 445.957007 
L 272.017925 442.189449 
L 275.205862 437.262642 
L 277.23455 433.784894 
L 279.842859 430.017336 
L 282.740978 428.858087 
L 287.957603 427.40902 
L 293.464032 424.510901 
L 297.23159 422.192402 
L 300.129716 418.714655 
L 301.035922 416.830153 
L 298.309641 414.975379 
L 293.274884 412.398786 
L 286.105718 406.623558 
L 288.626878 407.784796 
L 291.975883 410.667907 
L 294.313468 412.301941 
L 300.123184 415.095638 
L 301.929311 415.392452 
L 305.375045 413.834848 
L 308.599546 415.479725 
L 313.171268 418.424844 
L 321.286012 423.931272 
L 329.400749 426.249771 
L 336.935873 428.858087 
L 346.209866 427.988648 
L 354.324603 426.249771 
L 358.9616 424.510901 
L 364.178225 423.931272 
L 372.292969 424.800711 
L 380.117896 425.95996 
L 388.522451 426.829399 
L 396.057567 424.510901 
L 403.882501 421.902592 
L 409.388936 418.424844 
L 414.025933 416.396156 
L 420.981421 413.787847 
L 425.328607 411.759159 
L 429.880363 409.304987 
L 434.793316 406.386322 
L 439.720123 402.908574 
L 442.328439 400.300258 
L 448.994117 399.430827 
L 455.949612 397.691949 
L 464.933795 394.79383 
L 467.252293 395.953079 
L 462.615296 398.561388 
L 457.398671 400.879886 
L 447.545057 404.357634 
L 443.777499 404.937255 
L 441.459 405.516883 
L 438.850692 407.545564 
L 436.242375 410.44369 
L 434.213695 413.051999 
L 432.764635 416.819557 
L 431.895196 422.905614 
L 432.764635 426.673179 
L 436.532193 431.020358 
L 441.459 433.338856 
L 446.095997 435.657355 
L 448.124678 440.873973 
L 454.210742 447.249847 
L 459.71717 452.756275 
L 465.513416 458.26271 
L 471.309662 464.348767 
L 475.946658 467.826514 
L 483.481775 468.695953 
L 491.886329 467.246893 
L 504.927881 462.609897 
L 510.724127 460.291398 
L 518.259243 456.813651 
L 521.44718 454.495152 
L 527.533237 453.046093 
L 533.619293 449.568345 
L 538.25629 446.670219 
L 542.893286 444.641538 
L 548.979343 440.873973 
L 557.673715 436.236983 
L 561.441274 432.759236 
L 565.498642 428.70186 
L 568.686579 423.485242 
L 571.294888 418.848245 
L 572.164327 414.501059 
L 568.97639 411.023311 
L 566.07827 408.704813 
L 564.049582 407.255753 
L 560.861645 406.096504 
L 566.947702 406.386322 
L 571.874516 404.067823 
L 575.062446 404.647444 
L 578.540194 404.937255 
L 582.597569 403.488195 
L 585.495689 400.300258 
L 591.403992 394.614974 
L 596.62061 388.818728 
L 600.388168 382.442861 
L 603.576105 375.487366 
L 605.314982 369.401309 
L 606.764042 363.025442 
L 606.764042 356.939386 
L 607.053853 352.88201 
L 605.894603 348.824642 
L 604.155733 345.926515 
L 601.257607 343.028396 
L 597.779859 341.579336 
L 592.853052 342.448767 
L 588.505865 344.187645 
L 583.579058 345.636704 
L 578.942061 347.955203 
L 575.174503 349.114452 
L 570.537507 349.404263 
L 566.480138 348.824642 
L 561.553331 348.534824 
L 558.075583 349.114452 
L 554.308025 351.14314 
L 547.932151 354.33107 
L 544.454403 357.229196 
L 547.642341 352.012571 
L 548.80159 347.665392 
L 548.221969 344.187645 
L 547.932151 341.289518 
L 547.642341 336.0729 
L 546.483091 332.305342 
L 543.005344 325.349847 
L 542.135905 321.8721 
L 539.817414 316.655482 
L 539.237786 314.336984 
L 539.817414 310.859236 
L 541.556284 309.410176 
L 543.005344 314.047166 
L 545.034032 318.104542 
L 547.35253 321.8721 
L 547.932151 327.088717 
L 549.960839 336.652521 
L 551.699716 340.420087 
L 554.308025 344.477455 
L 558.945022 347.085764 
L 568.219008 348.245013 
L 574.015254 347.955203 
L 580.391128 346.216333 
L 585.897557 344.187645 
L 590.244743 342.448767 
L 595.17155 340.999708 
L 600.098357 338.681209 
L 604.155733 334.33403 
L 608.213102 328.537784 
L 611.98066 321.582289 
L 613.719537 316.075854 
L 616.907467 308.250927 
L 619.225965 301.875053 
L 619.515783 296.368625 
L 620.095404 287.674252 
L 619.515783 282.167824 
L 618.356534 276.951199 
L 616.038036 273.183641 
L 612.560288 270.285522 
L 609.951972 267.967023 
L 602.416856 266.228146 
L 597.779859 266.517964 
L 594.012301 266.517964 
L 590.244743 266.228146 
L 585.607746 266.517964 
L 578.07263 266.807774 
L 575.464314 266.228146 
L 572.566195 264.489276 
L 568.508826 261.591149 
L 565.320889 258.69303 
L 561.26352 256.664342 
L 560.104271 254.345843 
L 558.075583 251.157914 
L 557.206145 249.129226 
L 558.075583 246.231099 
L 560.683892 248.259787 
L 565.90051 253.186594 
L 571.406945 255.794903 
L 576.043942 260.142089 
L 581.550378 262.460588 
L 587.636434 262.750398 
L 592.853052 262.750398 
L 597.490049 264.489276 
L 602.996484 265.648525 
L 609.08254 265.648525 
L 614.878786 264.199465 
L 618.066716 260.4319 
L 619.805594 257.53378 
L 622.124092 253.186594 
L 623.372762 248.60453 
L 624.532011 242.808284 
L 624.821829 236.142607 
L 624.821829 231.215792 
L 623.082952 225.419554 
L 621.633892 219.913118 
L 617.576523 210.928935 
L 614.678397 208.030816 
L 612.359898 204.842879 
L 610.331218 200.78551 
L 608.30253 194.699454 
L 605.114593 186.584709 
L 602.796094 181.657902 
L 600.187786 176.731095 
L 598.159098 171.51447 
L 590.623982 160.791417 
L 585.697174 156.15442 
L 581.639798 152.96649 
L 577.002802 150.358174 
L 572.945433 149.198932 
L 568.018626 148.909114 
L 564.251068 148.909114 
L 561.063131 147.460055 
L 556.715945 147.170244 
L 553.238204 148.909114 
L 550.340078 152.386862 
L 548.31139 156.15442 
L 545.992891 159.632168 
L 544.254021 161.081227 
L 540.776274 162.240476 
L 537.588336 162.820105 
L 527.444912 164.848793 
L 518.750546 168.616351 
L 514.40336 170.355221 
L 510.925612 171.51447 
L 514.69317 168.616351 
L 520.489416 166.008042 
L 534.690217 160.791417 
L 540.196653 158.183108 
L 545.41327 154.41555 
L 550.050267 150.647992 
L 553.817825 146.880434 
L 555.846513 143.692497 
L 555.846513 140.214749 
L 552.368765 135.577752 
L 550.050267 132.100005 
L 545.992891 128.042636 
L 541.935523 124.564889 
L 536.429087 120.797331 
L 530.464755 117.397145 
L 524.088888 114.209208 
L 513.945463 110.44165 
L 508.439028 109.282401 
L 503.802031 108.702772 
L 500.614094 106.963902 
L 496.266915 104.065776 
L 489.31142 101.457467 
L 482.355925 98.559347 
L 475.69024 96.53066 
L 469.893994 95.0816 
L 464.967187 94.212161 
L 460.33019 94.212161 
L 454.823762 93.342722 
L 451.925635 91.024224 
L 449.317327 87.836294 
L 446.998828 84.358547 
L 442.651649 80.590989 
L 437.724835 77.98268 
L 431.638778 75.084553 
L 425.842532 73.635493 
L 420.625915 72.186434 
L 414.829669 71.316995 
L 408.163991 71.316995 
L 401.788117 72.476244 
L 397.440938 73.925304 
L 392.803941 75.664181 
L 390.775253 78.852111 
L 388.166944 80.880799 
L 385.268818 84.068736 
L 383.240137 88.126105 
L 382.370698 92.183473 
L 382.080888 96.53066 
L 381.211449 99.138968 
L 379.472572 102.326905 
L 378.31333 105.804653 
L 377.733702 109.572211 
L 378.023512 113.919397 
L 380.921639 119.136015 
L 384.979007 120.874893 
L 390.195625 122.034142 
L 396.281689 120.874893 
L 402.077927 120.005454 
L 408.743612 120.005454 
L 414.250048 122.034142 
L 418.307416 124.932261 
L 420.625915 128.410009 
L 415.119479 125.222072 
L 410.192672 122.903573 
L 406.135303 121.744324 
L 402.077927 121.454514 
L 398.020559 121.454514 
L 389.036383 122.613763 
L 385.848446 122.613763 
L 382.080888 123.773012 
L 379.182761 125.8017 
L 377.154081 128.699819 
L 375.125393 132.177567 
L 373.676333 135.075693 
L 372.517084 139.133062 
L 372.227266 144.929308 
L 372.227266 152.174613 
L 373.096705 157.391231 
L 375.125393 163.187477 
L 378.60314 166.665225 
L 382.370698 169.273534 
L 389.036383 170.142972 
L 397.15112 171.592032 
L 403.526994 174.779969 
L 408.743612 178.547527 
L 411.062111 182.025275 
L 411.641739 185.503022 
L 403.526994 178.547527 
L 398.889998 175.939218 
L 393.093752 174.200341 
L 383.819758 170.432783 
L 379.76239 169.563351 
L 375.415203 170.432783 
L 372.806894 173.041092 
L 371.647645 176.518839 
L 371.068017 179.996587 
L 370.778207 184.923394 
L 370.198586 191.299268 
L 370.488396 197.095514 
L 371.357835 201.732511 
L 372.227266 205.500069 
L 372.517084 208.687999 
L 374.15466 216.848009 
L 374.444478 220.325756 
L 375.024099 224.383125 
L 378.212036 227.571062 
L 382.269404 230.758992 
L 384.87772 234.236739 
L 388.06565 238.004305 
L 387.77584 241.482045 
L 386.32678 244.090361 
L 384.587903 244.669982 
L 382.269404 245.829231 
L 379.661095 246.98848 
L 377.429906 247.597843 
L 377.429906 247.597843 
" style="fill:none;stroke:#000000;stroke-linecap:square;stroke-width:1.5;"/>
   </g>
  </g>
 </g>
 <defs>
  <clipPath id="p017bb20748">
   <rect height="564.48" width="725.76" x="0" y="0"/>
  </clipPath>
 </defs>
</svg>
