<?xml version="1.0" encoding="utf-8" standalone="no"?>
<!DOCTYPE svg PUBLIC "-//W3C//DTD SVG 1.1//EN"
  "http://www.w3.org/Graphics/SVG/1.1/DTD/svg11.dtd">
<!-- Created with matplotlib (https://matplotlib.org/) -->
<svg height="525.6pt" version="1.1" viewBox="0 0 725.76 525.6" width="725.76pt" xmlns="http://www.w3.org/2000/svg" xmlns:xlink="http://www.w3.org/1999/xlink">
 <defs>
  <style type="text/css">
*{stroke-linecap:butt;stroke-linejoin:round;}
  </style>
 </defs>
 <g id="figure_1">
  <g><image xlink:href="../../img/ctx/collaredanteater_cor_cell.json.ctx-50%25.png" width="725.76px" height="525.6px"/></g>

  <g id="patch_1">
   <path d="M 0 525.6 
L 725.76 525.6 
L 725.76 0 
L 0 0 
z
" style="fill:none;"/>
  </g>
  <g id="axes_1">
   <g id="line2d_1">
    <path clip-path="url(#p3aedb8d7e5)" d="M 333.847851 180.578944 
L 341.909891 179.466942 
L 346.357914 177.24293 
L 350.527928 173.350911 
L 354.141951 168.902888 
L 356.365956 164.732874 
L 358.033963 160.284851 
L 359.145972 149.442802 
L 358.589967 144.160779 
L 356.365956 139.156751 
L 352.751939 135.264732 
L 348.859921 133.040728 
L 344.133902 132.484723 
L 339.407877 132.484723 
L 333.291853 133.596725 
L 327.453825 135.264732 
L 322.171802 136.098739 
L 330.233835 133.596725 
L 337.183872 132.20672 
L 344.689907 130.538714 
L 351.083932 126.368693 
L 354.975951 121.642674 
L 356.92196 117.750655 
L 357.477965 113.302632 
L 359.145972 103.850588 
L 360.257974 96.900558 
L 361.091981 90.506532 
L 361.647979 81.332483 
L 361.091981 64.374411 
L 359.979972 57.424374 
L 356.365956 50.752346 
L 351.083932 45.470323 
L 344.967902 41.578304 
L 338.573877 39.07629 
L 330.233835 38.24229 
L 318.001781 38.798288 
L 304.935721 39.910297 
L 297.707688 40.1883 
L 295.761679 40.466295 
L 285.75363 42.134309 
L 276.85759 44.358313 
L 269.073553 46.860327 
L 262.679528 49.362341 
L 257.953502 51.586346 
L 253.227484 54.644365 
L 249.89147 56.312372 
L 246.277453 59.648385 
L 242.66343 62.706404 
L 240.161423 66.320421 
L 236.547407 73.270451 
L 235.157402 79.108479 
L 233.211393 83.000497 
L 233.489388 87.448513 
L 235.7134 94.398544 
L 238.493416 108.854616 
L 238.771418 113.858637 
L 238.493416 118.30666 
L 237.659409 121.642674 
L 237.659409 115.804646 
L 237.937411 111.078628 
L 235.991402 98.846567 
L 234.601397 92.452542 
L 232.655388 86.336511 
L 231.108431 82.36926 
L 228.884419 78.755244 
L 224.9924 76.253237 
L 220.266382 72.917223 
L 215.818359 71.249209 
L 210.258333 70.137207 
L 204.698307 69.859205 
L 196.91427 70.971214 
L 189.96424 72.361219 
L 184.960219 72.917223 
L 176.898179 75.141228 
L 162.442114 80.979256 
L 156.048082 84.871274 
L 141.314014 93.489311 
L 132.695977 100.439349 
L 120.185921 112.949405 
L 115.737898 117.675423 
L 111.011879 123.791453 
L 105.173852 132.131495 
L 102.115833 138.247519 
L 99.891828 143.529549 
L 98.501816 148.811572 
L 94.331803 154.6496 
L 89.605777 160.209626 
L 87.103763 164.657642 
L 84.601756 171.051675 
L 83.489747 177.723702 
L 82.099742 184.395737 
L 82.310154 187.010019 
L 77.584129 198.96407 
L 76.194124 205.080101 
L 74.526117 213.420135 
L 74.248115 220.648175 
L 74.804119 227.042201 
L 77.306134 233.158231 
L 83.978161 243.444275 
L 87.314175 247.058291 
L 93.430206 248.726298 
L 98.990231 250.672308 
L 102.048243 253.730326 
L 103.994252 258.456345 
L 100.93624 255.120331 
L 97.878222 252.340322 
L 95.098213 250.394312 
L 89.816189 249.282303 
L 84.812161 249.004301 
L 81.75415 250.95031 
L 78.418136 255.954338 
L 76.194124 260.958359 
L 73.136113 265.96238 
L 72.580108 269.576396 
L 72.85811 274.580424 
L 72.85811 280.418445 
L 73.69211 285.700475 
L 73.707387 297.263109 
L 72.317383 304.213147 
L 70.649376 311.719182 
L 69.259364 317.279207 
L 67.591357 322.283228 
L 67.869359 327.287249 
L 66.479355 332.291277 
L 65.367353 337.5733 
L 65.08935 342.021316 
L 65.08935 347.30334 
L 67.313355 354.53138 
L 69.537366 359.813403 
L 71.483376 361.48141 
L 70.371373 365.373428 
L 70.093371 372.323458 
L 71.483376 379.551491 
L 73.98539 387.335528 
L 76.487404 393.173556 
L 80.93542 400.679591 
L 85.105441 408.741624 
L 87.05145 411.243638 
L 90.387464 413.745652 
L 93.16748 416.803663 
L 98.449504 424.031696 
L 109.40382 436.646392 
L 118.021865 443.040417 
L 126.083897 448.044438 
L 136.091946 452.492461 
L 148.880004 457.774484 
L 158.054046 459.720494 
L 165.560081 459.998496 
L 172.510111 459.442491 
L 179.738144 457.218487 
L 186.132176 454.716473 
L 192.248207 450.546452 
L 197.53023 447.766443 
L 201.700251 443.318419 
L 204.48026 441.928415 
L 209.206286 436.090387 
L 231.446388 416.352291 
L 241.45443 408.568261 
L 248.126465 404.954245 
L 252.852483 401.618224 
L 257.856504 397.44821 
L 261.748523 393.000187 
L 265.918544 386.328159 
L 266.752551 381.880136 
L 264.873028 377.854889 
L 261.52284 372.541506 
L 257.352819 367.537485 
L 253.182806 363.089462 
L 248.734782 358.919441 
L 243.174757 356.139431 
L 252.348799 360.03145 
L 262.634843 361.699457 
L 273.198896 362.811459 
L 284.040945 366.425475 
L 294.882994 367.259483 
L 303.501031 373.097511 
L 316.845094 381.715548 
L 331.579161 385.607566 
L 341.309208 386.441573 
L 349.093245 386.441573 
L 352.429259 383.383555 
L 358.54529 384.495564 
L 363.54931 385.607566 
L 370.33955 386.046339 
L 383.451994 385.246697 
L 398.464056 380.520678 
L 408.194103 376.072655 
L 423.206173 369.678629 
L 433.492224 366.064613 
L 442.388264 362.728599 
L 450.450296 361.338587 
L 455.732326 360.78259 
L 464.906368 359.114576 
L 458.512336 363.562599 
L 455.732326 368.56662 
L 453.508315 373.570648 
L 452.11831 378.852671 
L 451.562305 387.748711 
L 454.342315 394.976743 
L 461.292352 397.75676 
L 470.744396 404.150785 
L 479.362433 407.764801 
L 489.09248 414.436836 
L 495.764508 420.830862 
L 507.605152 430.883589 
L 513.165177 438.389624 
L 524.007226 447.007661 
L 532.903265 452.567686 
L 546.247328 457.571714 
L 557.923384 458.127712 
L 572.657452 455.903707 
L 584.333508 451.177682 
L 591.839535 446.451663 
L 597.955565 443.671647 
L 604.905596 438.945628 
L 616.025647 428.381575 
L 620.195668 424.767558 
L 627.250338 420.612815 
L 633.088359 415.886796 
L 638.648384 409.770766 
L 645.598422 401.152729 
L 650.32444 392.812687 
L 654.494461 383.08264 
L 657.830475 373.908598 
L 660.610492 364.178559 
L 662.000496 353.892507 
L 661.722494 343.606463 
L 659.975423 332.140682 
L 658.825928 322.949665 
L 657.157921 311.829613 
L 654.933909 304.045576 
L 652.153893 293.759532 
L 649.651886 287.087497 
L 648.539876 279.025457 
L 646.593867 272.35343 
L 645.203862 265.681402 
L 643.535855 258.731364 
L 639.921839 255.39535 
L 636.585825 254.005346 
L 632.971809 253.449341 
L 628.801788 254.839353 
L 621.295753 258.453369 
L 625.187772 254.283348 
L 634.639816 249.557322 
L 639.921839 244.553302 
L 644.647858 238.993276 
L 647.149872 234.267258 
L 649.373883 227.595222 
L 649.929881 221.479192 
L 649.929881 214.529162 
L 648.261874 206.745125 
L 646.037869 199.795095 
L 637.284645 182.45438 
L 635.060633 175.50435 
L 632.836622 169.110317 
L 629.77861 161.326287 
L 626.442596 154.654252 
L 622.550578 148.260227 
L 615.044543 137.140176 
L 607.538508 127.688131 
L 600.310475 119.070087 
L 592.80444 111.008055 
L 582.406121 103.870524 
L 572.954077 97.198489 
L 563.502033 91.360461 
L 555.161998 86.356441 
L 542.095938 81.074417 
L 528.751875 76.904396 
L 517.353821 75.236389 
L 507.345772 74.958387 
L 499.839737 77.182399 
L 494.001717 80.24041 
L 490.387693 85.244438 
L 487.885686 91.082459 
L 485.383672 98.032496 
L 483.715665 106.094529 
L 482.047658 112.766564 
L 481.213651 119.438592 
L 480.935656 113.878566 
L 483.437663 101.646513 
L 485.383672 94.696483 
L 486.773677 88.30245 
L 487.329681 84.132429 
L 485.661675 77.460401 
L 481.491654 69.954366 
L 476.487633 63.004336 
L 468.425593 56.888306 
L 457.027539 51.32828 
L 445.629493 46.324259 
L 433.953437 43.822245 
L 419.460329 41.538278 
L 405.004257 40.148274 
L 392.216199 40.148274 
L 381.652153 43.484288 
L 373.312111 49.322316 
L 368.864094 52.936332 
L 364.416071 58.496358 
L 363.026066 64.612388 
L 361.914064 70.450416 
L 362.470062 76.010441 
L 362.470062 83.794479 
L 362.192059 94.080523 
L 362.470062 104.366567 
L 361.35806 112.428607 
L 360.802055 119.656639 
L 362.470062 124.104662 
L 364.138069 129.386686 
L 368.864094 134.112704 
L 372.200108 136.336716 
L 379.150138 138.282725 
L 371.366101 138.282725 
L 364.972076 140.228734 
L 361.35806 142.730749 
L 359.696519 146.696388 
L 359.134048 160.3571 
L 358.300048 164.249119 
L 361.080057 167.863135 
L 365.528081 172.867156 
L 369.976097 177.315179 
L 375.536122 178.705184 
L 380.262148 180.651193 
L 388.602183 180.373191 
L 375.536122 181.485193 
L 368.030087 181.485193 
L 363.026066 182.3192 
L 358.856045 183.153207 
L 356.076036 182.597203 
L 352.740015 181.485193 
L 349.404001 180.095188 
L 345.233987 179.817186 
L 339.39596 180.373191 
L 333.847851 180.578944 
L 333.847851 180.578944 
" style="fill:none;stroke:#000000;stroke-linecap:square;stroke-width:1.5;"/>
   </g>
  </g>
 </g>
 <defs>
  <clipPath id="p3aedb8d7e5">
   <rect height="525.6" width="725.76" x="0" y="0"/>
  </clipPath>
 </defs>
</svg>
