<?xml version="1.0" encoding="utf-8" standalone="no"?>
<!DOCTYPE svg PUBLIC "-//W3C//DTD SVG 1.1//EN"
  "http://www.w3.org/Graphics/SVG/1.1/DTD/svg11.dtd">
<!-- Created with matplotlib (https://matplotlib.org/) -->
<svg height="324pt" version="1.1" viewBox="0 0 540 324" width="540pt" xmlns="http://www.w3.org/2000/svg" xmlns:xlink="http://www.w3.org/1999/xlink">
 <defs>
  <style type="text/css">
*{stroke-linecap:butt;stroke-linejoin:round;}
  </style>
 </defs>
 <g id="figure_1">
  <g><image xlink:href="../../img/ctx/commonshrew_cor_cell.json.ctx-50%25.png" width="540.0px" height="324.0px"/></g>

  <g id="patch_1">
   <path d="M 0 324 
L 540 324 
L 540 0 
L 0 0 
z
" style="fill:none;"/>
  </g>
  <g id="axes_1">
   <g id="line2d_1">
    <path clip-path="url(#pa68d6ba072)" d="M 259.361611 46.835469 
L 249.284979 48.786646 
L 242.081509 50.227339 
L 235.166177 53.10873 
L 228.250845 54.837562 
L 220.182959 56.566393 
L 212.115073 58.007086 
L 202.606493 59.735918 
L 195.403023 61.752893 
L 186.182582 65.498695 
L 178.114696 68.956364 
L 168.894256 74.430997 
L 161.402647 79.329359 
L 154.199176 85.956552 
L 147.571988 94.600715 
L 142.09735 102.95674 
L 136.910849 109.872067 
L 133.453186 117.075537 
L 129.995518 123.990869 
L 125.961577 131.770616 
L 119.334384 138.39781 
L 112.707191 145.025003 
L 106.080003 152.516612 
L 97.723978 160.872637 
L 92.537478 168.076102 
L 86.486562 176.720265 
L 81.300067 184.788151 
L 78.730245 193.507277 
L 78.442106 201.575164 
L 81.035354 209.64305 
L 86.221854 214.829545 
L 94.28974 218.86349 
L 101.781349 222.321154 
L 110.137374 224.626262 
L 119.934092 227.507654 
L 128.866394 228.083931 
L 138.95125 227.507654 
L 147.307275 227.507654 
L 154.798884 226.066961 
L 162.86677 224.914401 
L 170.070241 220.304183 
L 178.138127 214.253267 
L 184.189037 210.795604 
L 191.680646 207.626074 
L 196.579008 205.320965 
L 202.629924 207.626074 
L 207.816419 209.354911 
L 212.71478 214.829545 
L 218.765691 220.304183 
L 227.121716 223.185569 
L 235.477741 225.778817 
L 242.96935 228.083931 
L 250.17282 229.236485 
L 256.511875 229.236485 
L 265.732315 228.37207 
L 272.359508 228.37207 
L 275.529033 230.38904 
L 283.020642 229.812763 
L 290.224112 228.660208 
L 296.275028 226.931377 
L 302.643265 226.379551 
L 307.829765 222.921882 
L 313.304398 217.735387 
L 321.948562 213.98958 
L 330.59273 213.98958 
L 338.660611 217.15911 
L 345.864082 221.769328 
L 350.762443 228.684659 
L 357.101498 235.023714 
L 370.06774 237.328823 
L 381.593295 239.633932 
L 391.96629 243.0916 
L 402.339285 243.0916 
L 411.559726 241.362763 
L 421.068305 239.633932 
L 430.576884 237.328823 
L 439.509191 232.7186 
L 446.136379 228.396521 
L 451.611018 221.481189 
L 452.475434 212.548887 
L 450.746602 205.345417 
L 447.000795 198.718223 
L 442.390577 189.785921 
L 436.051523 179.989204 
L 431.153167 171.34504 
L 425.390389 165.294124 
L 419.339473 160.107629 
L 414.441117 150.310912 
L 410.863417 141.162442 
L 406.541333 130.501309 
L 402.587507 120.829844 
L 398.8417 112.473819 
L 394.231482 104.117794 
L 387.604289 93.456655 
L 380.977096 84.812492 
L 374.061764 78.473443 
L 364.265046 72.710665 
L 353.892051 68.388581 
L 345.247888 65.219056 
L 334.29861 62.049532 
L 325.942585 59.744417 
L 318.162843 57.727447 
L 309.806818 53.693507 
L 302.603348 51.100254 
L 295.976155 48.795145 
L 288.772684 47.930729 
L 282.43363 48.507007 
L 278.399689 53.405368 
L 275.806436 58.591863 
L 275.806436 66.659749 
L 275.806436 74.151358 
L 275.518298 79.914136 
L 276.09458 87.693883 
L 274.077605 81.354829 
L 274.365743 73.575081 
L 274.077605 66.371611 
L 274.942021 60.896972 
L 274.077605 54.557923 
L 270.331803 49.659561 
L 266.009719 47.354452 
L 259.361611 46.835469 
" style="fill:none;stroke:#000000;stroke-linecap:square;stroke-width:1.5;"/>
   </g>
  </g>
 </g>
 <defs>
  <clipPath id="pa68d6ba072">
   <rect height="324" width="540" x="0" y="0"/>
  </clipPath>
 </defs>
</svg>
