<?xml version="1.0" encoding="utf-8" standalone="no"?>
<!DOCTYPE svg PUBLIC "-//W3C//DTD SVG 1.1//EN"
  "http://www.w3.org/Graphics/SVG/1.1/DTD/svg11.dtd">
<!-- Created with matplotlib (https://matplotlib.org/) -->
<svg height="414.72pt" version="1.1" viewBox="0 0 570.24 414.72" width="570.24pt" xmlns="http://www.w3.org/2000/svg" xmlns:xlink="http://www.w3.org/1999/xlink">
 <defs>
  <style type="text/css">
*{stroke-linecap:butt;stroke-linejoin:round;}
  </style>
 </defs>
 <g id="figure_1">
  <g><image xlink:href="../../img/ctx/deer_cor_cell.json.ctx-50%25.png" width="570.24px" height="414.71999999999997px"/></g>

  <g id="patch_1">
   <path d="M 0 414.72 
L 570.24 414.72 
L 570.24 0 
L 0 0 
z
" style="fill:none;"/>
  </g>
  <g id="axes_1">
   <g id="line2d_1">
    <path clip-path="url(#p329cd04c14)" d="M 277.571995 170.656438 
L 275.78301 169.627097 
L 281.081686 170.80458 
L 286.085992 168.449615 
L 288.735327 164.917166 
L 289.029697 161.679081 
L 290.501554 158.441002 
L 290.795924 154.908553 
L 289.618441 151.376099 
L 287.263475 148.726764 
L 284.908504 146.371792 
L 282.847907 142.250599 
L 282.847907 137.540668 
L 283.142282 132.536361 
L 284.025396 127.532055 
L 284.025396 123.116493 
L 284.614134 118.406555 
L 284.319765 114.874107 
L 283.436652 111.636027 
L 283.142282 106.92609 
L 282.259169 103.688011 
L 282.553538 100.155557 
L 284.319765 90.146949 
L 285.497248 85.731381 
L 286.085992 82.198933 
L 285.791617 77.488996 
L 283.436652 74.250916 
L 279.021089 72.19032 
L 275.488635 71.307206 
L 271.367442 72.484695 
L 266.95188 75.722774 
L 263.713801 78.666484 
L 260.475721 82.493302 
L 259.003863 85.437012 
L 256.060153 89.558205 
L 253.999557 92.796284 
L 252.822074 96.623108 
L 251.055847 101.333045 
L 250.172739 105.159863 
L 249.583995 108.397948 
L 248.406512 110.458544 
L 248.112143 112.81351 
L 248.112143 116.05159 
L 247.817768 119.878413 
L 246.640285 130.770134 
L 245.462802 124.588345 
L 245.168432 121.350265 
L 245.462802 117.523442 
L 245.462802 113.402249 
L 245.757171 109.8698 
L 245.757171 103.099267 
L 246.345915 100.155557 
L 249.878364 93.385029 
L 252.822074 89.263836 
L 256.060153 85.731381 
L 258.12075 83.082046 
L 259.886977 79.843967 
L 261.653204 77.488996 
L 263.713801 73.956547 
L 264.596914 71.89595 
L 267.834993 70.718468 
L 270.778704 70.424098 
L 274.896646 69.255534 
L 278.232852 68.470542 
L 280.587818 66.311824 
L 281.961549 62.583127 
L 282.746541 59.246921 
L 283.139032 56.106963 
L 284.316515 50.415791 
L 284.512763 46.294598 
L 284.316515 42.369653 
L 283.33528 39.033453 
L 282.354045 36.285991 
L 280.39157 32.753536 
L 277.840356 30.202323 
L 275.48539 28.239847 
L 271.560446 27.651109 
L 263.31806 27.258612 
L 259.589357 28.632343 
L 256.056909 29.809826 
L 250.758233 31.772302 
L 242.515847 35.500998 
L 239.375889 37.659722 
L 236.432179 41.780915 
L 234.469709 45.902107 
L 232.89973 50.219548 
L 231.525999 54.92948 
L 228.974785 64.741845 
L 228.386041 68.66679 
L 227.208558 74.357962 
L 225.442331 75.142948 
L 224.657344 77.301672 
L 222.694869 78.479155 
L 221.12489 79.656637 
L 216.611207 82.404099 
L 215.237476 84.562823 
L 213.078752 87.114037 
L 212.097518 89.076506 
L 210.527539 88.487768 
L 209.546304 87.310285 
L 208.761311 85.347809 
L 209.153808 83.385334 
L 211.508773 81.619113 
L 213.471249 79.264141 
L 214.256235 77.301672 
L 214.059987 74.946706 
L 215.392342 73.330959 
L 216.569824 71.172236 
L 218.924796 69.013518 
L 221.672258 66.266056 
L 222.653493 63.911085 
L 223.242237 60.574884 
L 223.634727 56.64994 
L 223.438479 53.509982 
L 222.849741 50.76252 
L 221.672258 48.407554 
L 219.709783 45.856334 
L 216.373582 44.090113 
L 213.037376 43.108872 
L 210.093666 42.716382 
L 206.75746 42.716382 
L 204.206246 42.91263 
L 201.458784 43.501369 
L 198.90757 44.286361 
L 193.805142 46.641327 
L 191.646419 48.015058 
L 190.272688 49.585037 
L 188.702715 51.155016 
L 187.721474 53.509982 
L 186.936487 55.864947 
L 186.561555 58.457543 
L 186.757803 60.616261 
L 185.58032 58.457543 
L 184.206589 56.29882 
L 182.047865 54.925089 
L 179.889148 53.35511 
L 176.945438 51.981379 
L 173.80548 51.196392 
L 170.665527 51.196392 
L 166.151838 51.39264 
L 163.208128 52.177627 
L 160.264418 53.551358 
L 157.124466 56.495068 
L 155.554487 59.24253 
L 155.554487 62.382488 
L 156.535721 65.914937 
L 157.516956 70.232378 
L 158.694439 74.746067 
L 159.675679 77.297281 
L 161.441901 80.044743 
L 163.01188 82.988453 
L 164.189363 88.875867 
L 164.385611 92.408321 
L 164.974355 95.155783 
L 165.170603 98.295742 
L 166.936825 104.379404 
L 168.114313 107.911858 
L 169.684287 110.65932 
L 172.039258 113.799273 
L 175.375459 117.920466 
L 178.515417 119.686693 
L 180.281644 120.275437 
L 185.384072 121.256672 
L 188.52403 119.882941 
L 190.290251 118.705458 
L 193.037713 117.724223 
L 195.588933 117.527975 
L 198.336395 116.742983 
L 199.513878 116.742983 
L 198.728885 118.901706 
L 198.140147 121.060424 
L 196.570168 122.237907 
L 194.215202 122.237907 
L 191.663982 123.022899 
L 189.701513 124.592878 
L 185.972816 128.714071 
L 184.599085 130.480292 
L 182.63661 132.639016 
L 181.262879 134.797733 
L 180.477892 137.545195 
L 180.085396 139.507671 
L 179.889148 142.255133 
L 180.674135 144.806346 
L 181.459127 146.768816 
L 184.795327 150.693767 
L 191.075244 154.029967 
L 193.037713 155.403698 
L 188.91652 154.814959 
L 185.384072 153.441228 
L 182.63661 151.282505 
L 178.122921 146.768816 
L 176.552942 143.825112 
L 175.375459 139.507671 
L 175.375459 134.012747 
L 175.767955 131.265285 
L 175.964203 128.714071 
L 175.571707 126.3591 
L 174.394224 123.41539 
L 173.609237 122.434155 
L 172.431749 119.294197 
L 170.861775 115.761748 
L 168.703052 112.818038 
L 167.329321 109.874328 
L 165.366851 106.145631 
L 164.385611 103.005673 
L 163.01188 92.99706 
L 162.226893 90.053356 
L 160.264418 81.418474 
L 159.283183 78.86726 
L 158.301948 75.92355 
L 157.713204 72.587344 
L 156.535721 68.466151 
L 155.16199 64.344958 
L 153.395763 61.008757 
L 151.433294 58.653786 
L 148.097087 57.476303 
L 144.760881 57.083812 
L 135.537261 59.24253 
L 130.631081 61.008757 
L 122.584943 65.522441 
L 111.361862 73.710277 
L 104.885697 80.77518 
L 103.904463 83.130146 
L 102.530732 85.681366 
L 99.979518 87.840083 
L 97.232056 89.802558 
L 94.680842 91.765028 
L 92.32587 93.923751 
L 89.38216 93.727503 
L 87.615939 93.923751 
L 84.868477 95.493725 
L 81.924767 96.867456 
L 75.841099 100.988649 
L 73.486133 103.34362 
L 71.523658 105.894834 
L 69.757436 109.623531 
L 67.402465 115.707199 
L 66.42123 121.005875 
L 64.655003 125.127068 
L 63.673768 129.837005 
L 62.888782 134.350688 
L 61.907541 137.883142 
L 60.730058 141.219343 
L 59.748823 144.359301 
L 58.767589 148.480494 
L 57.5901 150.83546 
L 55.627631 154.171666 
L 54.842638 157.900363 
L 53.665155 160.844073 
L 52.579213 165.189718 
L 52.382965 170.684642 
L 52.382965 177.357048 
L 52.186717 183.04822 
L 52.186717 189.916875 
L 52.382965 194.823061 
L 53.952944 198.748005 
L 55.522917 200.514227 
L 58.074137 199.72924 
L 62.19533 199.140496 
L 57.485393 200.710475 
L 54.737931 202.084206 
L 53.167952 203.261689 
L 51.597973 205.61666 
L 51.794221 208.364122 
L 52.775455 212.485315 
L 53.756696 214.840281 
L 53.952944 217.195247 
L 53.560448 220.923949 
L 54.737931 223.671411 
L 55.719165 227.792604 
L 56.896648 230.540066 
L 58.859124 234.072514 
L 60.821599 238.389955 
L 62.19533 241.922404 
L 64.354047 246.239845 
L 66.316523 249.576051 
L 68.278992 253.500996 
L 71.615198 257.818437 
L 74.951399 261.547134 
L 78.287605 264.687092 
L 82.801294 266.84581 
L 86.333743 266.84581 
L 89.866197 266.060823 
L 93.202398 264.294596 
L 95.557364 262.135878 
L 97.323591 259.977155 
L 98.501074 256.837202 
L 98.89357 253.1085 
L 98.697322 250.753534 
L 97.912335 244.473624 
L 96.734852 239.763686 
L 95.557364 237.997459 
L 94.183633 236.231238 
L 94.379881 233.483776 
L 97.912335 226.222625 
L 98.304825 223.475163 
L 98.501074 220.531453 
L 98.501074 217.391495 
L 98.108583 214.840281 
L 97.323591 212.092819 
L 94.968625 209.541605 
L 93.791142 206.794143 
L 92.417411 201.691715 
L 92.024915 197.570522 
L 94.576129 203.850433 
L 97.323591 208.56037 
L 101.444784 212.877806 
L 106.154721 214.840281 
L 114.397107 216.41026 
L 119.303286 215.625267 
L 125.975693 214.251537 
L 131.274374 212.289067 
L 136.376802 209.737853 
L 140.301747 206.794143 
L 144.619188 204.439177 
L 149.132877 201.495467 
L 152.861574 200.121736 
L 157.375263 198.159261 
L 161.10396 197.374274 
L 163.655173 195.215551 
L 165.813891 192.271841 
L 167.38387 189.916875 
L 167.023975 187.913023 
L 167.220223 184.773071 
L 168.201457 188.30552 
L 168.201457 191.052982 
L 165.846492 196.351657 
L 164.472761 198.117884 
L 162.117789 200.08036 
L 160.15532 201.454091 
L 153.679155 203.809056 
L 151.127942 204.986539 
L 148.184232 206.556518 
L 144.848031 209.30398 
L 141.708073 212.443938 
L 140.138094 214.406408 
L 136.605645 215.1914 
L 131.895708 216.565131 
L 127.382025 217.742614 
L 123.457074 218.920097 
L 121.102108 220.882567 
L 119.532129 222.648794 
L 118.158398 225.200008 
L 117.56966 227.358731 
L 117.56966 229.124952 
L 118.16718 230.873616 
L 117.382193 233.228582 
L 116.008462 235.583553 
L 116.008462 229.107389 
L 115.615966 226.752423 
L 112.279766 221.846244 
L 109.728546 220.668761 
L 106.784842 220.472513 
L 104.626118 221.061251 
L 102.467401 222.042492 
L 100.701174 224.201209 
L 99.719939 225.771189 
L 98.346208 228.322402 
L 97.168725 233.817326 
L 97.168725 236.172292 
L 97.364967 239.31225 
L 98.934946 249.909602 
L 100.112429 255.012035 
L 101.682408 258.348236 
L 105.607353 261.684442 
L 109.728546 263.646911 
L 114.634731 265.020642 
L 118.952172 265.805635 
L 123.662104 266.001883 
L 118.755924 267.964352 
L 115.419718 268.749345 
L 114.242235 267.179366 
L 112.868504 265.609387 
L 110.906035 264.431904 
L 108.158573 263.450669 
L 105.999849 262.861925 
L 103.056139 262.665677 
L 101.289918 263.646911 
L 99.916187 265.21689 
L 97.561215 266.983118 
L 95.991236 268.356849 
L 93.440023 269.926828 
L 91.085057 271.693055 
L 88.337595 274.440517 
L 86.767616 277.187979 
L 86.178871 280.327931 
L 86.767616 285.430365 
L 87.748851 290.140296 
L 89.515078 296.027716 
L 91.085057 299.560165 
L 93.636271 303.092619 
L 95.20625 306.625068 
L 100.504925 312.904984 
L 102.709416 313.818497 
L 104.671886 315.192228 
L 108.20434 318.33218 
L 112.325533 320.490904 
L 116.05423 320.294656 
L 117.820457 318.33218 
L 117.427961 311.267283 
L 115.465485 308.323573 
L 117.231713 307.931077 
L 118.409196 306.753594 
L 119.586678 307.734829 
L 123.119133 307.14609 
L 118.99794 309.10856 
L 118.016705 311.071035 
L 117.624209 313.229753 
L 117.820457 315.977215 
L 119.194188 318.724677 
L 122.530388 320.687152 
L 132.539001 322.845869 
L 134.893967 324.2196 
L 141.173883 330.499517 
L 146.472559 335.0132 
L 151.378739 338.153158 
L 157.658655 338.545654 
L 161.779848 336.583179 
L 166.293537 335.209448 
L 170.610972 334.816952 
L 173.947179 335.994441 
L 178.26462 336.583179 
L 182.582061 335.0132 
L 187.880736 332.854482 
L 191.805681 331.873248 
L 197.496853 332.854482 
L 204.954252 334.424462 
L 212.01915 335.209448 
L 218.495314 336.975675 
L 227.326438 338.153158 
L 242.829975 339.330641 
L 252.260485 340.316267 
L 257.16667 340.316267 
L 262.465346 341.297507 
L 267.764021 342.082494 
L 273.258945 342.671238 
L 278.950117 341.101259 
L 282.286323 339.923776 
L 284.837537 335.802583 
L 286.01502 330.70015 
L 286.01502 325.401474 
L 286.211268 317.355336 
L 285.818772 312.056661 
L 285.230034 307.935468 
L 285.033785 304.403019 
L 285.622524 301.459309 
L 287.584999 300.085578 
L 289.154978 300.674317 
L 290.136213 304.206771 
L 290.332461 309.505447 
L 290.136213 314.411626 
L 290.136213 319.51406 
L 290.528709 325.79397 
L 292.687427 333.447612 
L 295.238641 338.550045 
L 300.929813 341.886246 
L 307.798468 343.652473 
L 313.293391 344.633708 
L 319.37706 344.633708 
L 320.947039 343.456225 
L 321.339529 340.708763 
L 323.694501 338.942536 
L 326.049466 338.157549 
L 329.385667 337.176314 
L 334.4881 336.391322 
L 337.628058 335.017591 
L 339.590528 333.25137 
L 344.104217 333.055121 
L 350.384128 332.270129 
L 355.094065 331.877639 
L 360.588989 330.896398 
L 366.280161 330.111411 
L 377.662499 327.756446 
L 382.568684 327.167701 
L 387.278621 327.167701 
L 396.502242 327.952688 
L 403.04318 328.852863 
L 408.004325 331.38482 
L 412.91051 334.32853 
L 414.480484 337.468488 
L 415.265476 341.982177 
L 417.227946 345.710874 
L 418.797925 349.439571 
L 419.582917 351.598294 
L 424.0966 351.402046 
L 428.021551 350.617059 
L 435.675192 345.122135 
L 436.852675 343.15966 
L 438.030158 340.21595 
L 437.833916 337.075992 
L 439.992633 334.524778 
L 439.600137 331.188578 
L 439.600137 329.42235 
L 439.992633 326.674889 
L 442.936344 323.927427 
L 445.880054 320.59122 
L 450.001246 317.451268 
L 452.55246 316.077537 
L 455.49617 316.077537 
L 457.066149 315.096296 
L 458.43988 313.722566 
L 459.224867 312.348835 
L 458.832371 315.292545 
L 460.009854 317.451268 
L 463.149812 318.432503 
L 465.897274 318.040007 
L 468.644736 316.666276 
L 470.607211 313.526317 
L 471.980942 311.563848 
L 473.747163 310.975104 
L 477.868356 307.246407 
L 479.242087 304.302697 
L 480.812066 301.751483 
L 482.382045 297.237794 
L 484.344521 288.79916 
L 487.288231 286.83669 
L 492.373095 279.835118 
L 493.550578 273.555208 
L 494.335565 270.022753 
L 494.531813 266.490305 
L 494.335565 263.154099 
L 493.158082 259.817898 
L 491.195612 256.874188 
L 488.840641 254.322974 
L 486.681923 251.771755 
L 482.953226 249.809285 
L 479.61702 248.82805 
L 476.28082 248.631802 
L 473.33711 249.613037 
L 470.982138 250.79052 
L 469.215917 252.360499 
L 465.87971 254.911713 
L 463.720993 255.696705 
L 461.169779 255.696705 
L 455.674855 254.911713 
L 459.403552 254.715465 
L 462.54351 253.341734 
L 465.290972 251.968003 
L 468.038434 249.809285 
L 470.197151 247.650562 
L 473.140861 246.276831 
L 475.103331 244.118113 
L 477.262054 241.959395 
L 478.635785 239.408176 
L 479.028282 236.856962 
L 479.383786 230.644773 
L 480.168779 224.953601 
L 480.561269 219.654925 
L 480.168779 217.103712 
L 479.187538 214.552498 
L 477.225069 211.41254 
L 474.477607 209.842561 
L 471.337649 208.861326 
L 468.393938 209.253822 
L 465.450228 210.235057 
L 462.899015 211.608788 
L 459.759056 213.571257 
L 457.011595 214.748746 
L 454.067885 215.533733 
L 451.12418 216.122477 
L 447.002987 216.318725 
L 439.545588 215.533733 
L 434.639409 213.963753 
L 428.359492 212.393774 
L 424.630796 210.823795 
L 419.72461 209.253822 
L 416.38841 207.095099 
L 413.837196 204.543885 
L 411.285982 202.188919 
L 409.127259 198.460217 
L 408.538514 195.320264 
L 410.697238 200.422692 
L 412.070969 202.385167 
L 414.033444 204.151389 
L 419.135872 207.880091 
L 421.490837 209.253822 
L 425.023292 210.431305 
L 428.55574 211.805036 
L 439.545588 214.748746 
L 444.451768 214.944994 
L 447.787974 214.552498 
L 451.712919 213.571257 
L 454.656629 212.197526 
L 458.189077 211.216292 
L 465.842725 207.487595 
L 473.103876 204.936381 
L 477.813807 200.815188 
L 481.150013 193.554037 
L 481.54251 190.806575 
L 481.54251 188.059113 
L 481.346262 184.330416 
L 482.719992 185.900396 
L 482.916241 188.647857 
L 482.719992 191.78781 
L 482.131248 194.339024 
L 480.757517 197.871478 
L 479.383786 200.61894 
L 478.795048 202.973906 
L 478.5988 205.721368 
L 478.5988 207.880091 
L 478.795048 210.431305 
L 479.776282 212.590023 
L 480.168779 214.552498 
L 481.150013 216.122477 
L 482.719992 218.869939 
L 482.523744 221.224905 
L 482.131248 223.383622 
L 480.757517 225.934842 
L 479.972531 229.074794 
L 479.580034 232.803497 
L 480.168779 235.943449 
L 483.112483 240.26089 
L 487.233676 242.615856 
L 492.139861 243.400848 
L 497.046041 242.812104 
L 501.363482 240.849634 
L 506.073419 236.728441 
L 513.72706 228.289807 
L 517.652005 223.57987 
L 521.18446 218.869939 
L 524.12817 214.35625 
L 526.679384 210.235057 
L 528.641853 205.328871 
L 530.40808 195.320264 
L 530.40808 191.395319 
L 530.211832 186.096638 
L 529.426845 182.367941 
L 527.856866 180.209224 
L 525.305653 178.835493 
L 522.361943 178.442996 
L 518.829494 179.227983 
L 511.960833 182.564189 
L 509.213371 184.919155 
L 507.83964 185.311651 
L 509.802116 182.564189 
L 512.35333 179.816727 
L 515.100791 178.0505 
L 522.198289 176.388986 
L 524.945751 174.622759 
L 527.104475 171.875297 
L 528.674454 168.1466 
L 529.851937 163.829159 
L 530.636923 159.119228 
L 530.244427 153.820546 
L 529.263192 147.736884 
L 527.300723 141.26072 
L 525.534496 136.35454 
L 522.983282 131.055864 
L 520.62831 127.130919 
L 517.880848 123.205975 
L 515.534664 119.586376 
L 512.98345 116.838914 
L 510.03974 114.091452 
L 506.899782 112.325225 
L 503.75983 111.736481 
L 500.423624 111.34399 
L 498.657396 110.36275 
L 495.517444 104.475336 
L 493.947465 101.924122 
L 491.98499 99.765398 
L 488.845032 98.391667 
L 487.275058 95.840453 
L 483.546356 92.700495 
L 480.406403 89.364295 
L 476.481453 86.224337 
L 472.949004 84.654358 
L 469.220307 82.49564 
L 462.940391 77.196959 
L 459.800439 74.057006 
L 455.482998 70.524552 
L 450.969309 67.580842 
L 447.633102 65.225876 
L 444.296902 63.459649 
L 440.960696 62.085918 
L 437.231999 60.908435 
L 431.148331 60.319696 
L 427.615882 61.693427 
L 425.653407 63.459649 
L 423.494689 66.010868 
L 422.317206 68.75833 
L 421.403693 71.606109 
L 419.24497 74.353571 
L 416.497508 76.904785 
L 413.357556 78.86726 
L 409.825101 80.829729 
L 406.096405 82.595957 
L 402.956446 84.558432 
L 400.405233 85.932163 
L 397.069026 88.875867 
L 395.106557 90.838342 
L 393.34033 94.763287 
L 392.555343 98.688232 
L 391.770351 103.398169 
L 391.377854 107.911858 
L 391.966599 112.229299 
L 392.947833 116.546735 
L 394.321564 119.490445 
L 395.695295 126.555348 
L 396.087792 131.069037 
L 395.302805 133.227754 
L 394.714061 137.348947 
L 395.499047 141.273892 
L 396.480288 145.395085 
L 396.676536 147.161312 
L 394.517813 154.618711 
L 392.559734 159.904215 
L 388.046045 163.044173 
L 390.008514 160.296711 
L 391.578493 157.353001 
L 393.148472 154.016794 
L 393.148472 150.680594 
L 392.952224 147.344388 
L 392.559734 143.026947 
L 391.97099 140.083237 
L 391.578493 136.747036 
L 390.40101 133.41083 
L 389.419776 129.878381 
L 389.223528 126.542175 
L 389.419776 123.205975 
L 390.597259 120.458513 
L 391.382245 118.299789 
L 391.728974 113.356618 
L 390.551491 106.291721 
L 390.943987 101.581784 
L 390.943987 96.08686 
L 390.551491 90.003192 
L 389.570256 80.975819 
L 389.766499 76.46213 
L 391.728974 73.51842 
L 396.635154 71.752199 
L 400.560104 71.359702 
L 407.625001 70.770958 
L 411.746194 69.985971 
L 415.278649 67.827248 
L 417.829862 65.276034 
L 418.614849 62.332324 
L 418.811097 58.996124 
L 418.373409 55.8834 
L 417.391599 53.318124 
L 414.644137 51.159407 
L 411.111688 48.804435 
L 406.597999 46.645718 
L 402.476806 44.87949 
L 397.963117 43.309511 
L 393.841924 43.113263 
L 389.916979 43.309511 
L 385.992035 44.290752 
L 382.852076 44.683242 
L 379.712118 43.505759 
L 374.805939 41.93578 
L 371.27349 41.150794 
L 367.544788 40.758297 
L 362.44236 41.150794 
L 358.713663 42.720773 
L 355.377457 44.683242 
L 353.414987 46.841966 
L 351.64876 49.589428 
L 351.060016 53.318124 
L 350.667526 57.046821 
L 350.667526 60.383027 
L 351.64876 66.859186 
L 354.003726 68.429165 
L 354.984961 69.606648 
L 352.629995 72.746606 
L 352.629995 75.886564 
L 353.218739 78.830274 
L 354.003726 81.381488 
L 354.396222 84.325198 
L 354.003726 86.287668 
L 352.826243 86.876412 
L 351.256264 85.306433 
L 350.078781 83.343958 
L 348.70505 81.577736 
L 347.331319 79.419013 
L 347.135071 76.082812 
L 347.135071 69.4104 
L 346.742575 66.662938 
L 346.546333 63.522985 
L 345.957588 60.383027 
L 346.350085 56.850573 
L 346.153836 53.514372 
L 346.350085 50.570662 
L 345.957588 46.449469 
L 343.798871 42.132028 
L 341.247651 38.59958 
L 337.715203 36.244608 
L 334.182748 34.674635 
L 330.6503 34.085891 
L 327.117851 34.085891 
L 322.407914 35.067125 
L 320.249196 36.440856 
L 317.305486 38.010836 
L 313.184293 41.347042 
L 310.633079 42.720773 
L 309.455591 45.860725 
L 309.651839 41.54329 
L 309.455591 38.99207 
L 309.0631 36.440856 
L 307.885617 33.693395 
L 305.923142 32.319664 
L 303.686056 30.357194 
L 300.742346 29.572202 
L 297.602394 29.572202 
L 295.443671 30.553442 
L 293.088705 32.319664 
L 290.929981 34.282139 
L 289.556251 36.833353 
L 288.771264 38.99207 
L 287.986277 41.739532 
L 285.827554 46.841966 
L 285.238815 50.178166 
L 284.257575 53.906869 
L 282.883844 61.56051 
L 282.491353 65.681703 
L 282.491353 67.840426 
L 286.612546 74.120337 
L 288.967512 75.690316 
L 295.443671 75.690316 
L 298.191133 75.494068 
L 301.919829 77.652786 
L 305.648532 81.577736 
L 308.592242 85.502681 
L 312.896504 90.195049 
L 317.213945 95.297482 
L 320.353904 101.184897 
L 323.101366 107.072317 
L 325.063841 113.548475 
L 326.437572 119.435896 
L 327.418807 124.734571 
L 327.811303 128.855764 
L 327.615055 132.584467 
L 326.241324 128.659516 
L 324.475096 125.127068 
L 323.297614 121.398371 
L 322.120131 116.688434 
L 321.13889 111.782254 
L 318.980173 107.857303 
L 316.821455 102.754876 
L 313.681497 97.063704 
L 310.737787 92.746263 
L 307.990325 89.017566 
L 305.242863 85.681366 
L 302.102905 82.541407 
L 299.355443 80.77518 
L 296.019242 80.578932 
L 292.094298 80.77518 
L 289.346836 81.952663 
L 286.991864 83.326394 
L 286.599374 85.485117 
L 285.618133 87.643835 
L 284.44065 95.101234 
L 284.636898 99.026179 
L 285.029395 103.147372 
L 285.421885 105.894834 
L 286.206877 110.016027 
L 286.991864 115.510951 
L 287.38436 119.632144 
L 287.188112 123.949585 
L 286.206877 128.659516 
L 285.421885 140.04186 
L 286.599374 143.770557 
L 288.561843 146.125528 
L 291.309305 149.657977 
L 293.075532 152.405439 
L 293.860519 155.349149 
L 293.075532 161.432817 
L 292.094298 163.591535 
L 292.683036 167.123983 
L 294.841759 170.46019 
L 297.981712 173.207651 
L 301.514166 173.600148 
L 307.00909 173.4039 
L 304.457876 174.385134 
L 300.925422 174.777631 
L 297.392973 174.188886 
L 293.664271 173.4039 
L 289.346836 172.226417 
L 282.870671 171.83392 
L 279.730713 171.245176 
L 277.571995 170.656438 
L 277.571995 170.656438 
" style="fill:none;stroke:#000000;stroke-linecap:square;stroke-width:1.5;"/>
   </g>
   <g id="line2d_2">
    <path clip-path="url(#p329cd04c14)" d="M 431.651208 169.145148 
L 428.149992 168.911731 
L 432.584868 167.044412 
L 436.786328 165.177098 
L 440.28755 161.909292 
L 442.154864 158.874903 
L 443.32194 154.673437 
L 444.022183 150.705394 
L 443.555356 148.137831 
L 441.45462 146.503928 
L 439.587307 144.636609 
L 437.719988 143.002712 
L 439.120474 139.968322 
L 440.520961 137.634176 
L 440.754377 132.26564 
L 441.45462 127.363931 
L 441.688037 124.096125 
L 442.621696 118.727589 
L 443.088523 117.327102 
L 448.457059 125.730028 
L 453.125352 131.33198 
L 457.326818 136.933932 
L 460.828034 140.668565 
L 464.329256 142.535879 
L 468.2973 143.702955 
L 472.265349 144.636609 
L 476.933642 146.270512 
L 481.368518 148.838074 
L 485.103151 151.405637 
L 487.90413 154.673437 
L 490.705103 158.17466 
L 491.405346 159.575146 
L 490.471692 160.975633 
L 487.90413 160.041973 
L 486.503643 158.408076 
L 485.569984 155.840513 
L 483.702664 153.973194 
L 481.135107 151.639048 
L 477.167058 149.538318 
L 473.899252 148.604658 
L 470.864863 146.737344 
L 468.997543 146.037101 
L 465.26291 145.103441 
L 462.461937 144.636609 
L 459.194131 144.870025 
L 456.393158 145.570268 
L 454.059012 146.970755 
L 451.724865 149.071491 
L 450.557789 151.872464 
L 450.324379 153.739783 
L 449.390719 154.673437 
L 446.356329 155.14027 
L 445.656086 158.408076 
L 444.48901 160.975633 
L 442.621696 163.776612 
L 440.987794 165.877342 
L 438.887064 167.978072 
L 435.152425 169.145148 
L 431.651208 169.145148 
" style="fill:none;stroke:#000000;stroke-linecap:square;stroke-width:1.5;"/>
   </g>
   <g id="line2d_3">
    <path clip-path="url(#p329cd04c14)" d="M 338.090911 75.521821 
L 336.528111 74.800531 
L 334.123808 72.877088 
L 332.080142 70.352562 
L 330.276912 67.828041 
L 325.708731 62.057702 
L 322.943774 59.653394 
L 318.616023 57.729946 
L 314.769127 54.724564 
L 316.812787 54.964995 
L 318.856453 55.445855 
L 321.020326 56.046934 
L 322.703344 56.888437 
L 324.747004 57.729946 
L 328.714112 61.336406 
L 329.91627 63.259854 
L 331.599282 64.341793 
L 332.681221 66.505671 
L 334.724881 68.308901 
L 336.167469 70.112131 
L 336.768541 71.194071 
L 338.090911 75.521821 
" style="fill:none;stroke:#000000;stroke-linecap:square;stroke-width:1.5;"/>
   </g>
   <g id="line2d_4">
    <path clip-path="url(#p329cd04c14)" d="M 134.367767 103.356291 
L 134.367767 107.32434 
L 133.900934 110.592146 
L 134.13435 113.859952 
L 134.13435 116.194098 
L 135.301426 119.461904 
L 136.701913 122.729704 
L 137.16874 125.063851 
L 133.667523 125.99751 
L 130.399718 126.697754 
L 126.198252 129.265316 
L 123.397279 131.599463 
L 121.529965 134.867263 
L 120.362889 138.368485 
L 119.896062 142.103118 
L 120.129473 145.370924 
L 121.296549 148.872141 
L 122.463619 151.206287 
L 124.564355 153.773849 
L 127.365328 155.407752 
L 131.099961 156.574823 
L 134.834594 157.975309 
L 138.802643 158.908969 
L 143.470936 159.375802 
L 146.038498 161.009699 
L 146.738742 163.110435 
L 139.736303 160.542872 
L 134.13435 159.142385 
L 129.466058 157.741899 
L 124.330938 155.641163 
L 118.49557 153.773849 
L 112.893623 153.073606 
L 108.692158 153.307017 
L 104.957525 154.707509 
L 100.289232 157.508482 
L 96.087772 161.476532 
L 93.053383 166.845067 
L 92.353134 169.879457 
L 92.353134 171.51336 
L 91.186063 170.5797 
L 91.886307 168.012138 
L 93.053383 164.977748 
L 94.453869 161.943359 
L 96.788016 159.375802 
L 99.355573 157.041655 
L 105.190941 153.073606 
L 107.758498 151.439703 
L 109.15899 149.338973 
L 111.026304 147.471654 
L 112.660207 144.670681 
L 113.593867 136.734582 
L 114.29411 132.299706 
L 115.928013 126.464337 
L 118.028743 122.262877 
L 120.596305 120.628974 
L 123.163862 119.228488 
L 125.498009 117.361169 
L 128.065571 115.027022 
L 130.866545 111.759222 
L 133.200691 107.32434 
L 134.367767 103.356291 
L 134.367767 103.356291 
" style="fill:none;stroke:#000000;stroke-linecap:square;stroke-width:1.5;"/>
   </g>
  </g>
 </g>
 <defs>
  <clipPath id="p329cd04c14">
   <rect height="414.72" width="570.24" x="0" y="0"/>
  </clipPath>
 </defs>
</svg>
