<?xml version="1.0" encoding="utf-8" standalone="no"?>
<!DOCTYPE svg PUBLIC "-//W3C//DTD SVG 1.1//EN"
  "http://www.w3.org/Graphics/SVG/1.1/DTD/svg11.dtd">
<!-- Created with matplotlib (https://matplotlib.org/) -->
<svg height="323.28pt" version="1.1" viewBox="0 0 518.4 323.28" width="518.4pt" xmlns="http://www.w3.org/2000/svg" xmlns:xlink="http://www.w3.org/1999/xlink">
 <defs>
  <style type="text/css">
*{stroke-linecap:butt;stroke-linejoin:round;}
  </style>
 </defs>
 <g id="figure_1">
  <g><image xlink:href="../../img/ctx/elephantshrew_cor_cell.json.ctx-50%25.png" width="518.4px" height="323.28px"/></g>

  <g id="patch_1">
   <path d="M 0 323.28 
L 518.4 323.28 
L 518.4 0 
L 0 0 
z
" style="fill:none;"/>
  </g>
  <g id="axes_1">
   <g id="line2d_1">
    <path clip-path="url(#p5c14f95318)" d="M 267.301229 72.945531 
L 267.71654 67.131167 
L 266.678262 56.748382 
L 265.84764 53.010578 
L 264.394047 49.272774 
L 257.749066 42.212477 
L 252.142357 39.928267 
L 247.15862 37.021085 
L 241.967228 35.359836 
L 238.229424 34.529214 
L 233.453343 33.906247 
L 229.923194 33.906247 
L 225.770079 33.698592 
L 213.310734 33.283281 
L 208.326997 32.86797 
L 201.682011 32.86797 
L 195.659997 33.075626 
L 186.315485 34.529214 
L 177.178633 35.775152 
L 173.233173 36.605774 
L 171.156618 36.81343 
L 168.041781 35.775152 
L 156.828369 34.529214 
L 150.598699 35.15218 
L 145.199646 35.567491 
L 141.254187 36.398119 
L 137.045696 37.750624 
L 122.920286 40.449021 
L 117.105928 41.279642 
L 111.291569 42.733231 
L 105.892516 44.809791 
L 101.116434 46.886346 
L 91.771927 51.454777 
L 85.542252 55.192576 
L 83.050386 57.269136 
L 81.181481 60.383973 
L 78.689616 60.799284 
L 75.990089 61.837562 
L 72.875252 63.498806 
L 69.760419 65.36771 
L 66.853237 67.651921 
L 63.7384 69.728481 
L 61.246529 72.428007 
L 58.339352 74.919873 
L 57.093414 76.996433 
L 53.147959 84.26438 
L 50.448433 89.871089 
L 47.956562 94.231859 
L 46.502974 97.346697 
L 45.257041 103.161056 
L 43.595791 106.275893 
L 41.934548 110.013697 
L 39.650332 113.959157 
L 39.142507 117.869059 
L 38.727196 122.022174 
L 39.350163 126.382944 
L 41.634373 129.290126 
L 44.956866 132.404964 
L 48.279359 136.558079 
L 50.355919 140.088227 
L 52.017163 144.448998 
L 57.416211 155.66241 
L 60.115738 160.438491 
L 63.438231 165.214572 
L 66.760718 168.537065 
L 68.629623 170.61362 
L 73.198049 171.236587 
L 78.181786 170.198309 
L 85.449738 166.668161 
L 88.772231 165.422228 
L 90.848786 165.629883 
L 87.318638 166.875816 
L 79.220068 170.821276 
L 76.312886 172.067214 
L 73.821015 173.728458 
L 72.159771 175.389702 
L 70.706178 178.089228 
L 70.498522 181.204066 
L 70.706178 184.94187 
L 72.367427 191.17154 
L 74.443982 198.024181 
L 78.804752 203.423229 
L 84.149218 209.595517 
L 87.912517 212.732184 
L 91.650321 213.978117 
L 95.180469 214.185773 
L 103.279044 221.038414 
L 108.885747 226.645118 
L 115.115422 233.290104 
L 121.552747 238.481496 
L 127.990078 242.634611 
L 140.657078 249.279597 
L 146.056126 250.733185 
L 149.586274 252.60209 
L 152.285801 256.96286 
L 158.930787 263.815502 
L 165.991079 266.515023 
L 177.412146 272.329387 
L 182.188227 273.367665 
L 186.756653 271.914071 
L 194.439917 267.345645 
L 200.046625 267.968617 
L 205.653329 267.345645 
L 211.052377 268.799239 
L 216.866741 270.668138 
L 220.252655 271.163039 
L 222.952181 271.370695 
L 226.067019 274.070216 
L 227.312952 278.638647 
L 231.673722 282.16879 
L 236.657459 284.660661 
L 243.094789 286.11425 
L 248.909148 286.529561 
L 254.100546 287.152532 
L 260.330216 288.813776 
L 266.559891 289.644398 
L 273.204871 290.059709 
L 280.680479 289.644398 
L 286.910154 287.567843 
L 291.270925 285.491283 
L 296.047006 283.622384 
L 301.605846 283.398694 
L 305.448475 280.708737 
L 306.694408 277.386244 
L 309.393935 275.102034 
L 314.792983 274.894379 
L 318.530787 274.894379 
L 322.060935 273.440785 
L 325.383428 272.610163 
L 331.197787 271.571886 
L 336.804496 269.910636 
L 341.788232 268.664704 
L 345.941347 267.834082 
L 350.717429 267.211115 
L 354.039922 266.380493 
L 362.969118 265.342211 
L 367.952855 263.265656 
L 376.051429 257.451292 
L 380.204544 254.959426 
L 385.395942 248.31444 
L 388.508213 244.965208 
L 391.072536 242.00518 
L 395.640962 238.267376 
L 398.755799 237.436754 
L 406.439063 235.567855 
L 412.876388 233.283639 
L 418.483097 230.584118 
L 424.0898 227.46928 
L 428.03526 224.354443 
L 434.887901 218.124768 
L 436.549145 215.632902 
L 438.210389 213.348686 
L 441.948193 212.518064 
L 445.767899 209.580079 
L 450.136051 206.413231 
L 453.873855 202.883082 
L 457.819315 198.729967 
L 461.349463 195.199819 
L 464.048984 191.254359 
L 465.087267 187.931866 
L 465.710234 184.817034 
L 465.502578 181.494541 
L 464.048984 178.172048 
L 462.595396 175.264866 
L 459.688214 172.357684 
L 457.404004 169.450507 
L 449.72074 166.958636 
L 441.829821 163.843798 
L 439.753266 162.805521 
L 446.605903 164.882081 
L 453.6662 167.581602 
L 465.087267 170.904095 
L 469.032727 169.242852 
L 472.978186 167.373947 
L 475.885363 163.843798 
L 477.131301 159.275373 
L 478.584889 154.706947 
L 479.623167 150.969143 
L 480.96336 147.379005 
L 482.418442 138.235486 
L 482.210786 134.082372 
L 481.795475 129.30629 
L 479.926571 119.546467 
L 477.850016 110.61727 
L 476.188767 105.010567 
L 474.319867 101.065107 
L 472.035652 97.742614 
L 470.582063 93.5895 
L 468.920814 89.228729 
L 464.560044 81.130155 
L 462.068178 77.184695 
L 459.576307 74.485169 
L 457.543946 72.019788 
L 456.08818 69.939366 
L 454.219275 68.485777 
L 452.142721 65.578595 
L 449.65085 62.671418 
L 446.120701 59.971892 
L 442.798208 56.857054 
L 439.060404 53.949878 
L 434.284323 50.627385 
L 430.131208 48.75848 
L 425.355126 47.097236 
L 421.617322 45.643648 
L 418.71014 43.774743 
L 413.726403 41.698188 
L 409.157978 39.621628 
L 404.174241 38.375695 
L 399.605815 37.545073 
L 395.660355 36.299135 
L 391.714896 34.845547 
L 381.12445 32.353676 
L 372.40291 31.523054 
L 369.311991 31.027764 
L 361.624202 32.056736 
L 357.263431 31.641425 
L 345.634714 29.56487 
L 339.612694 28.734248 
L 333.383024 28.526593 
L 327.361005 28.526593 
L 321.961957 28.941904 
L 305.349497 30.810803 
L 300.158105 31.849081 
L 294.966707 33.095019 
L 286.660477 36.832823 
L 282.092052 39.324689 
L 278.146592 42.231871 
L 272.9552 46.800297 
L 270.878645 48.876857 
L 269.425051 50.745756 
L 268.386774 53.860594 
L 268.594429 57.183087 
L 268.386774 60.297919 
L 268.594429 63.620412 
L 268.386774 66.527594 
L 267.301229 72.945531 
L 267.301229 72.945531 
" style="fill:none;stroke:#000000;stroke-linecap:square;stroke-width:1.5;"/>
   </g>
  </g>
 </g>
 <defs>
  <clipPath id="p5c14f95318">
   <rect height="323.28" width="518.4" x="0" y="0"/>
  </clipPath>
 </defs>
</svg>
