<?xml version="1.0" encoding="utf-8" standalone="no"?>
<!DOCTYPE svg PUBLIC "-//W3C//DTD SVG 1.1//EN"
  "http://www.w3.org/Graphics/SVG/1.1/DTD/svg11.dtd">
<!-- Created with matplotlib (https://matplotlib.org/) -->
<svg height="440.64pt" version="1.1" viewBox="0 0 518.4 440.64" width="518.4pt" xmlns="http://www.w3.org/2000/svg" xmlns:xlink="http://www.w3.org/1999/xlink">
 <defs>
  <style type="text/css">
*{stroke-linecap:butt;stroke-linejoin:round;}
  </style>
 </defs>
 <g id="figure_1">
  <g><image xlink:href="../../img/ctx/flyingfox_cor_cell.json.ctx-50%25.png" width="518.4px" height="440.64px"/></g>

  <g id="patch_1">
   <path d="M 0 440.64 
L 518.4 440.64 
L 518.4 0 
L 0 0 
z
" style="fill:none;"/>
  </g>
  <g id="axes_1">
   <g id="line2d_1">
    <path clip-path="url(#p4e307fdde7)" d="M 203.899737 26.22526 
L 192.847366 30.172534 
L 180.610814 37.277631 
L 173.505717 44.777453 
L 160.479709 64.119097 
L 149.427343 66.88219 
L 139.559153 68.066376 
L 130.085694 71.224194 
L 120.612235 76.355649 
L 109.165139 80.697654 
L 99.296949 85.829109 
L 91.007671 94.513117 
L 84.297304 105.960214 
L 82.323667 117.40731 
L 85.08676 128.854406 
L 90.218215 136.748959 
L 97.718037 141.880414 
L 86.665671 139.117321 
L 72.850208 138.722596 
L 61.797837 147.406599 
L 50.35074 160.432607 
L 44.035099 173.06389 
L 38.508914 188.45826 
L 36.930007 204.247361 
L 34.956365 216.089187 
L 29.82491 223.58901 
L 29.035454 236.220287 
L 28.640729 248.85157 
L 30.219636 261.877572 
L 35.351096 274.508855 
L 39.6931 291.087411 
L 43.569312 303.909092 
L 47.121855 317.724555 
L 53.437496 327.59274 
L 59.358407 338.645111 
L 68.042416 349.302757 
L 75.936963 359.960397 
L 86.989334 370.618038 
L 99.620612 376.933679 
L 110.672983 383.24932 
L 125.672628 384.038776 
L 139.488091 388.380775 
L 152.908824 386.801869 
L 168.3032 382.459864 
L 182.513389 374.960042 
L 190.802667 368.644401 
L 201.855038 366.276038 
L 218.038864 364.697127 
L 231.854327 361.144578 
L 236.985782 365.091857 
L 236.591057 375.354767 
L 236.985782 380.486227 
L 244.485605 384.828232 
L 257.511613 382.065139 
L 264.61671 381.670409 
L 287.116177 385.617682 
L 296.194906 382.85459 
L 298.957999 375.749498 
L 298.168543 365.486583 
L 307.642002 362.72349 
L 316.027433 362.157247 
L 326.882708 362.221347 
L 336.356168 365.379165 
L 344.645446 372.484262 
L 353.72418 379.589354 
L 356.487273 388.273363 
L 360.434546 396.562636 
L 372.671099 396.16791 
L 388.065469 387.878632 
L 401.78774 378.397127 
L 419.550477 372.476211 
L 436.523759 362.608027 
L 451.918134 348.397838 
L 461.391593 332.214007 
L 469.286141 316.424906 
L 476.785964 304.583084 
L 480.733237 285.636166 
L 480.733237 269.847065 
L 485.469967 257.215783 
L 487.443609 240.242501 
L 492.575064 225.242856 
L 489.811971 214.979941 
L 492.180339 203.92757 
L 490.601427 182.612289 
L 488.62779 168.796825 
L 484.349342 159.006079 
L 479.603794 150.312988 
L 469.735604 146.365714 
L 466.972512 136.102799 
L 460.262145 120.708429 
L 448.815049 112.02442 
L 438.157408 107.287691 
L 426.536638 106.194442 
L 418.146261 107.281009 
L 411.041169 110.044101 
L 400.778254 114.780836 
L 406.30444 110.044101 
L 414.198987 104.912646 
L 420.514629 95.044457 
L 420.119898 80.044812 
L 413.826916 67.296158 
L 403.092687 57.252915 
L 392.435047 49.753093 
L 379.803769 42.647996 
L 366.777761 39.095447 
L 352.962298 39.884903 
L 340.331015 41.069089 
L 332.436468 37.911266 
L 326.214372 31.307534 
L 314.372545 24.597168 
L 300.557081 19.070982 
L 284.76798 17.097345 
L 272.136703 19.465707 
L 263.057969 25.781349 
L 255.952877 38.807357 
L 253.97924 51.833364 
L 255.163421 63.280461 
L 255.952877 79.859017 
L 256.742328 107.095214 
L 260.689607 114.989762 
L 268.978885 119.331766 
L 278.452344 119.331766 
L 289.899441 121.305403 
L 301.741262 122.094859 
L 314.76727 124.068496 
L 304.899085 125.647407 
L 274.505065 120.515947 
L 266.610518 121.700134 
L 259.505421 126.831588 
L 257.137058 133.541955 
L 255.163421 140.647052 
L 255.163421 148.93633 
L 256.347602 160.778152 
L 255.952877 170.646342 
L 259.110695 177.751434 
L 267.005243 180.119801 
L 258.321239 182.093438 
L 249.242505 182.093438 
L 241.347958 181.303982 
L 245.689962 178.540889 
L 248.058324 171.041067 
L 250.031961 160.778152 
L 249.637236 149.725781 
L 248.84778 141.041777 
L 248.453055 133.14723 
L 244.505776 127.621044 
L 239.374321 125.647407 
L 231.874498 125.252677 
L 225.953588 128.01577 
L 217.664309 130.778862 
L 209.769756 132.357774 
L 200.691028 135.120867 
L 187.66502 136.305048 
L 200.691028 132.357774 
L 212.138124 129.989407 
L 223.979945 126.436863 
L 232.269224 123.27904 
L 242.137414 119.726491 
L 244.900506 110.253032 
L 244.505776 98.805936 
L 242.532139 81.832654 
L 239.769046 63.280461 
L 237.400684 45.912454 
L 232.300286 35.528186 
L 221.352943 25.61685 
L 212.668934 25.61685 
L 203.899737 26.22526 
L 203.899737 26.22526 
" style="fill:none;stroke:#000000;stroke-linecap:square;stroke-width:1.5;"/>
   </g>
  </g>
 </g>
 <defs>
  <clipPath id="p4e307fdde7">
   <rect height="440.64" width="518.4" x="0" y="0"/>
  </clipPath>
 </defs>
</svg>
