<?xml version="1.0" encoding="utf-8" standalone="no"?>
<!DOCTYPE svg PUBLIC "-//W3C//DTD SVG 1.1//EN"
  "http://www.w3.org/Graphics/SVG/1.1/DTD/svg11.dtd">
<!-- Created with matplotlib (https://matplotlib.org/) -->
<svg height="505.44pt" version="1.1" viewBox="0 0 622.08 505.44" width="622.08pt" xmlns="http://www.w3.org/2000/svg" xmlns:xlink="http://www.w3.org/1999/xlink">
 <defs>
  <style type="text/css">
*{stroke-linecap:butt;stroke-linejoin:round;}
  </style>
 </defs>
 <g id="figure_1">
  <g><image xlink:href="../../img/ctx/flyinglemur_cor_cell.json.ctx-50%25.png" width="622.0799999999999px" height="505.44px"/></g>

  <g id="patch_1">
   <path d="M 0 505.44 
L 622.08 505.44 
L 622.08 0 
L 0 0 
z
" style="fill:none;"/>
  </g>
  <g id="axes_1">
   <g id="line2d_1">
    <path clip-path="url(#p7c04774a56)" d="M 402.261202 99.321865 
L 392.642937 93.265923 
L 378.037431 87.566208 
L 364.500616 85.072588 
L 349.538876 87.20998 
L 334.220903 94.334619 
L 321.396556 102.527947 
L 315.696841 115.708529 
L 311.778291 128.176648 
L 309.640899 140.288533 
L 312.490759 148.838096 
L 325.67134 152.756652 
L 337.426991 154.181576 
L 349.538876 157.03143 
L 365.569312 162.374911 
L 353.457427 159.881285 
L 342.414238 156.318968 
L 328.521194 153.469114 
L 316.409309 151.331722 
L 306.791044 152.400418 
L 302.160032 158.456361 
L 301.44757 168.430854 
L 301.091336 180.186505 
L 301.803798 190.873466 
L 307.85974 197.998104 
L 316.765537 199.066801 
L 325.315106 201.204187 
L 316.053075 204.766509 
L 298.597709 205.122743 
L 286.129596 206.903901 
L 277.580028 202.629117 
L 283.279742 197.285636 
L 284.704666 185.529985 
L 286.129596 175.911726 
L 285.417134 164.156069 
L 282.567274 155.606506 
L 278.648724 151.687956 
L 266.893073 150.975488 
L 255.493649 149.550564 
L 244.45046 148.481868 
L 236.61336 144.919545 
L 235.900898 140.288533 
L 242.313068 144.563317 
L 250.862637 147.413172 
L 261.193364 149.550564 
L 271.880319 149.906792 
L 279.71742 148.838096 
L 288.266989 139.576071 
L 293.254235 127.820414 
L 296.104089 117.133459 
L 297.172785 105.377808 
L 295.035393 95.403309 
L 287.910755 87.566208 
L 277.580028 80.441569 
L 265.111914 76.166791 
L 247.656549 74.029399 
L 231.504534 74.891347 
L 219.29594 78.442384 
L 208.252751 77.373688 
L 195.428404 73.811372 
L 180.822899 73.811372 
L 167.642317 74.1676 
L 157.31159 77.373688 
L 144.843471 85.567023 
L 137.00637 94.116586 
L 133.800282 100.884997 
L 139.499997 111.928186 
L 144.843471 126.533691 
L 150.899414 139.358044 
L 156.242894 147.907607 
L 158.024052 154.676012 
L 151.96811 158.594562 
L 152.324344 148.620069 
L 150.899414 141.139202 
L 145.555939 131.16471 
L 141.281155 120.12152 
L 136.293908 108.365863 
L 130.594194 102.309921 
L 119.907239 103.378617 
L 111.001442 108.009635 
L 99.245791 118.340356 
L 90.339988 130.452241 
L 83.927817 143.632823 
L 80.009267 154.676012 
L 73.240856 170.350219 
L 71.815932 187.093117 
L 76.446945 204.90471 
L 86.983723 238.84147 
L 90.874355 254.460953 
L 97.642765 264.435446 
L 109.042182 268.353996 
L 117.235517 272.628781 
L 105.8361 268.71023 
L 96.574069 269.066458 
L 92.655519 276.191097 
L 92.299285 288.659216 
L 97.642765 298.989943 
L 105.479866 311.101829 
L 115.098125 323.926176 
L 139.321895 343.518927 
L 167.82045 358.480673 
L 176.726247 360.261831 
L 182.425962 367.030236 
L 189.398663 374.199216 
L 201.866783 383.461247 
L 218.253446 392.723278 
L 233.215185 402.341537 
L 253.164178 406.972556 
L 268.838379 408.753714 
L 283.44389 404.122701 
L 295.912004 398.779221 
L 304.461572 390.229652 
L 309.092585 382.036323 
L 313.723603 372.774292 
L 319.067078 380.255159 
L 328.329109 392.010816 
L 347.921867 399.847917 
L 361.161794 401.791519 
L 380.411687 400.164357 
L 402.854293 394.464648 
L 414.358381 385.726539 
L 430.077359 375.939734 
L 442.189245 364.896545 
L 446.820257 352.072198 
L 457.507218 346.728717 
L 474.250116 336.397996 
L 487.074463 331.410744 
L 500.255044 326.067269 
L 516.997948 318.230169 
L 526.323474 308.958794 
L 535.854984 298.393362 
L 542.267161 284.856547 
L 542.623389 272.0322 
L 540.842231 264.195099 
L 536.211218 260.989011 
L 529.442814 259.920315 
L 518.399625 260.989011 
L 508.068898 263.838865 
L 504.506575 261.345239 
L 511.987448 260.632777 
L 524.455561 259.920315 
L 533.361364 257.426688 
L 540.486003 255.289302 
L 553.31035 245.314803 
L 561.147451 236.409006 
L 561.859913 225.365817 
L 561.503685 212.54147 
L 554.379046 205.060597 
L 543.335857 204.70437 
L 528.730345 202.210743 
L 546.898173 201.854515 
L 555.091508 200.429585 
L 561.503685 191.880016 
L 563.94607 179.652748 
L 560.072596 172.049537 
L 555.797811 166.706056 
L 554.372881 156.375335 
L 547.248243 147.469532 
L 539.767376 140.3449 
L 530.149111 133.220261 
L 521.955776 128.945476 
L 511.268821 125.026926 
L 500.225632 123.245768 
L 489.538677 125.383154 
L 482.057804 134.288957 
L 475.645628 146.75707 
L 470.784751 154.86434 
L 465.797504 162.701447 
L 459.0291 171.607244 
L 453.685619 171.607244 
L 461.878954 163.770143 
L 467.222434 157.001732 
L 471.497213 150.94579 
L 476.840693 141.327531 
L 483.965332 130.64057 
L 480.759243 124.584627 
L 472.209681 116.391299 
L 463.303884 107.129268 
L 451.904461 102.854483 
L 438.011418 100.360857 
L 429.353644 99.094352 
L 419.829941 100.836014 
L 411.636607 105.823261 
L 402.261202 99.321865 
L 402.261202 99.321865 
" style="fill:none;stroke:#000000;stroke-linecap:square;stroke-width:1.5;"/>
   </g>
  </g>
 </g>
 <defs>
  <clipPath id="p7c04774a56">
   <rect height="505.44" width="622.08" x="0" y="0"/>
  </clipPath>
 </defs>
</svg>
