<?xml version="1.0" encoding="utf-8" standalone="no"?>
<!DOCTYPE svg PUBLIC "-//W3C//DTD SVG 1.1//EN"
  "http://www.w3.org/Graphics/SVG/1.1/DTD/svg11.dtd">
<!-- Created with matplotlib (https://matplotlib.org/) -->
<svg height="622.08pt" version="1.1" viewBox="0 0 829.44 622.08" width="829.44pt" xmlns="http://www.w3.org/2000/svg" xmlns:xlink="http://www.w3.org/1999/xlink">
 <defs>
  <style type="text/css">
*{stroke-linecap:butt;stroke-linejoin:round;}
  </style>
 </defs>
 <g id="figure_1">
  <g><image xlink:href="../../img/ctx/giantanteater_cell.json.ctx-50%25.png" width="829.4399999999999px" height="622.0799999999999px"/></g>

  <g id="patch_1">
   <path d="M 0 622.08 
L 829.44 622.08 
L 829.44 0 
L 0 0 
z
" style="fill:none;"/>
  </g>
  <g id="axes_1">
   <g id="line2d_1">
    <path clip-path="url(#p70e5212bb6)" d="M 110.394756 347.490122 
L 114.680954 364.634937 
L 117.252682 367.635287 
L 117.681304 372.350106 
L 118.109925 379.208041 
L 119.824403 385.637345 
L 121.96751 396.781477 
L 123.681987 407.496988 
L 128.396814 419.498362 
L 133.968876 432.35698 
L 140.398189 442.643869 
L 147.684737 450.359038 
L 155.399905 454.645244 
L 161.82921 456.359721 
L 166.972659 454.645244 
L 171.687486 456.788342 
L 173.401963 460.645927 
L 173.401963 467.932474 
L 175.116449 473.933166 
L 177.281428 483.672965 
L 182.853498 491.388133 
L 192.711766 499.103302 
L 202.141421 502.532265 
L 211.999688 504.246743 
L 222.715207 502.960887 
L 233.430718 500.389158 
L 240.717265 493.102611 
L 245.432092 487.530549 
L 250.146911 481.101236 
L 253.147261 479.81538 
L 261.719665 481.529858 
L 271.149319 479.81538 
L 280.578965 475.529174 
L 287.865521 468.671248 
L 291.723097 463.099178 
L 293.866204 455.812631 
L 296.437924 437.381951 
L 299.691818 424.06 
L 297.548719 417.630696 
L 291.548027 402.628979 
L 289.404929 396.628288 
L 287.26183 388.913119 
L 296.691476 388.913119 
L 304.406645 391.913469 
L 311.693192 394.485189 
L 323.694567 397.056909 
L 334.410077 398.342774 
L 346.411452 401.771737 
L 352.840757 407.343807 
L 363.556276 417.202074 
L 372.128679 425.774486 
L 384.987297 433.061033 
L 396.131428 436.489996 
L 403.417976 440.347581 
L 411.561766 440.776202 
L 418.419692 437.775861 
L 426.563483 433.918276 
L 444.504593 426.301554 
L 452.219762 420.729492 
L 461.220795 413.871566 
L 471.936306 405.299154 
L 481.36596 400.584327 
L 489.50975 399.298463 
L 498.510775 400.584327 
L 519.513183 395.440878 
L 533.657657 392.869158 
L 537.515241 390.726059 
L 543.944546 387.297096 
L 537.943862 394.155022 
L 530.657315 411.299837 
L 528.514208 423.301212 
L 529.800072 436.15983 
L 532.371792 438.73155 
L 531.943171 446.018097 
L 533.657657 458.448093 
L 537.515241 467.020505 
L 547.80213 477.307394 
L 555.94592 482.022221 
L 564.518332 482.879464 
L 571.80488 482.450843 
L 575.662464 480.307736 
L 583.377633 490.166012 
L 589.806937 497.881181 
L 600.093835 502.167378 
L 609.746094 503.278172 
L 623.461947 500.277831 
L 632.891601 495.991625 
L 641.464013 488.705078 
L 649.179182 481.41853 
L 655.608486 472.846118 
L 664.180898 462.559229 
L 671.467445 454.84406 
L 675.32503 449.27199 
L 675.32503 444.12855 
L 681.325713 440.270966 
L 686.897783 431.698554 
L 691.612602 423.983385 
L 696.327429 414.982352 
L 700.613635 403.83822 
L 702.756742 393.979952 
L 704.47122 384.978919 
L 706.614327 378.120993 
L 707.900183 369.977203 
L 709.186047 360.547557 
L 709.186047 339.97377 
L 710.747343 329.892889 
L 710.747343 321.320477 
L 706.889759 310.176346 
L 702.603553 299.032214 
L 699.17459 288.745316 
L 692.745277 280.172913 
L 685.887351 274.600843 
L 678.600804 272.886365 
L 672.60012 273.7436 
L 666.170808 275.029464 
L 660.598746 273.7436 
L 656.741161 269.886016 
L 657.598404 265.599818 
L 663.599087 260.884991 
L 672.60012 250.16948 
L 688.030458 230.024315 
L 693.173899 217.165698 
L 694.459763 210.307772 
L 694.888384 202.163981 
L 694.031141 194.877434 
L 691.888043 186.733644 
L 688.030458 177.303997 
L 683.315631 168.731586 
L 677.743561 161.016417 
L 670.653972 152.684725 
L 665.081902 144.540943 
L 659.938462 140.683359 
L 654.795013 134.254046 
L 649.651564 127.39612 
L 647.079844 122.252671 
L 643.22226 113.680268 
L 635.507091 102.964749 
L 629.077786 95.24958 
L 620.933996 88.391654 
L 608.075378 83.676827 
L 599.931588 79.819242 
L 590.930563 77.676144 
L 582.786773 77.676144 
L 572.928497 78.962008 
L 562.641608 83.676827 
L 556.212303 88.820276 
L 552.354719 94.392346 
L 550.211612 101.678893 
L 545.925406 115.394745 
L 550.211612 98.678551 
L 551.497476 90.963383 
L 548.068513 84.53407 
L 537.781624 67.817876 
L 530.066455 62.245806 
L 520.636801 56.245123 
L 512.49301 54.102016 
L 501.170035 50.848122 
L 494.312109 48.705024 
L 488.311417 45.276061 
L 481.453491 43.132954 
L 474.595565 42.275711 
L 465.594532 43.132954 
L 453.164544 46.561917 
L 444.592132 50.419501 
L 437.734206 55.991571 
L 431.733515 62.420876 
L 430.019037 70.564666 
L 429.590416 79.565699 
L 432.162136 90.709831 
L 433.876622 99.710856 
L 438.591441 105.282926 
L 444.163511 106.140169 
L 448.878338 109.14051 
L 443.306268 109.569132 
L 434.733856 111.712231 
L 427.447309 114.283959 
L 423.589724 118.998778 
L 420.160761 124.570848 
L 418.446284 132.714638 
L 418.446284 142.572906 
L 421.018004 151.145318 
L 425.30421 158.860487 
L 430.447659 161.432207 
L 436.876963 165.289791 
L 445.020754 164.003927 
L 450.748675 162.367382 
L 448.021095 164.003927 
L 441.163169 165.289791 
L 435.162478 167.432898 
L 430.019037 169.147376 
L 424.875589 170.004619 
L 413.731457 170.861861 
L 408.588008 169.575997 
L 405.587667 169.575997 
L 401.730082 166.147034 
L 398.72974 165.289791 
L 392.300436 167.004277 
L 387.585609 165.718413 
L 383.299403 163.146693 
L 376.441477 157.146001 
L 384.156646 162.28945 
L 390.157329 164.86117 
L 395.729399 165.718413 
L 402.587325 163.575314 
L 406.016288 158.431865 
L 409.01663 151.573939 
L 413.731457 146.001869 
L 415.445942 141.715663 
L 415.445942 137.429457 
L 415.874556 131.000153 
L 414.5887 127.142568 
L 410.731115 124.570848 
L 407.302152 120.713264 
L 406.873531 118.570157 
L 412.016971 117.284301 
L 418.446284 111.283609 
L 422.73249 103.997062 
L 424.875589 96.281893 
L 426.161453 86.852247 
L 426.161453 77.851214 
L 424.446967 69.278802 
L 420.589383 63.278119 
L 415.017321 55.134328 
L 408.159387 49.562258 
L 399.586983 46.990538 
L 391.014572 46.990538 
L 379.441818 47.847781 
L 368.297686 49.562258 
L 360.153896 51.276744 
L 352.867349 50.848122 
L 343.866316 52.99123 
L 328.864599 59.420534 
L 320.292188 65.849839 
L 312.148406 74.42225 
L 305.290471 84.280518 
L 301.861508 93.710173 
L 300.575652 101.853963 
L 300.147031 111.283609 
L 298.790813 117.054546 
L 294.504608 112.339719 
L 292.361501 105.481793 
L 290.218402 99.481101 
L 285.932196 94.766282 
L 285.503575 89.194212 
L 271.787722 78.907323 
L 264.929796 74.621117 
L 255.500142 73.335253 
L 247.784973 72.906631 
L 239.212561 73.335253 
L 228.925672 76.335594 
L 208.780507 84.050763 
L 201.49396 90.480076 
L 192.064314 98.623866 
L 186.920865 106.339035 
L 179.634317 117.483167 
L 171.490527 129.484534 
L 164.632601 141.057287 
L 157.346054 151.772806 
L 150.916749 160.345209 
L 145.344679 168.917621 
L 142.772959 177.061411 
L 140.20123 185.633823 
L 138.486753 208.779329 
L 140.20123 217.780354 
L 143.630193 227.63863 
L 150.488128 234.925178 
L 160.346395 244.354824 
L 167.632943 249.926894 
L 175.348112 253.355857 
L 177.919832 255.070343 
L 176.205354 258.927927 
L 171.919149 263.214125 
L 166.7757 266.643096 
L 160.775017 267.071709 
L 155.631568 266.643096 
L 150.059506 267.50033 
L 144.058815 270.500672 
L 139.772609 273.501022 
L 133.343304 278.644462 
L 129.48572 282.930668 
L 126.056757 288.93136 
L 118.538406 307.197926 
L 115.109575 317.058068 
L 112.109234 328.2022 
L 110.823378 337.631855 
L 110.394756 347.490122 
L 110.394756 347.490122 
" style="fill:none;stroke:#000000;stroke-linecap:square;stroke-width:1.5;"/>
   </g>
  </g>
 </g>
 <defs>
  <clipPath id="p70e5212bb6">
   <rect height="622.08" width="829.44" x="0" y="0"/>
  </clipPath>
 </defs>
</svg>
