<?xml version="1.0" encoding="utf-8" standalone="no"?>
<!DOCTYPE svg PUBLIC "-//W3C//DTD SVG 1.1//EN"
  "http://www.w3.org/Graphics/SVG/1.1/DTD/svg11.dtd">
<!-- Created with matplotlib (https://matplotlib.org/) -->
<svg height="715.68pt" version="1.1" viewBox="0 0 933.12 715.68" width="933.12pt" xmlns="http://www.w3.org/2000/svg" xmlns:xlink="http://www.w3.org/1999/xlink">
 <defs>
  <style type="text/css">
*{stroke-linecap:butt;stroke-linejoin:round;}
  </style>
 </defs>
 <g id="figure_1">
  <g><image xlink:href="../../img/ctx/goat_cor_cell.json.ctx-50%25.png" width="933.12px" height="716.4px"/></g>

  <g id="patch_1">
   <path d="M 0 715.68 
L 933.12 715.68 
L 933.12 0 
L 0 0 
z
" style="fill:none;"/>
  </g>
  <g id="axes_1">
   <g id="line2d_1">
    <path clip-path="url(#pa4b952d34b)" d="M 415.979036 115.37083 
L 419.233432 112.119705 
L 423.504826 106.633439 
L 425.945625 101.959944 
L 428.589826 98.302425 
L 431.234018 94.441718 
L 434.895217 90.784207 
L 441.200607 82.65639 
L 443.438005 78.795683 
L 444.0482 73.106211 
L 442.217605 67.823134 
L 440.387001 63.962427 
L 437.74281 60.304907 
L 434.895217 57.053782 
L 430.827215 54.412248 
L 426.759222 52.583484 
L 422.691229 51.161123 
L 416.58924 50.348344 
L 411.911043 49.535556 
L 407.436248 48.925974 
L 403.368255 47.909998 
L 393.198274 47.706801 
L 388.926879 48.722777 
L 384.655485 49.129171 
L 378.96029 50.957926 
L 374.892297 52.583484 
L 373.265095 54.005854 
L 371.841303 55.631421 
L 371.027706 59.288931 
L 370.010708 61.727278 
L 369.603905 64.165624 
L 367.163106 67.823134 
L 361.671312 73.309408 
L 358.620318 75.747755 
L 354.552325 78.389289 
L 349.467334 81.030832 
L 345.806135 82.65639 
L 339.500745 87.939467 
L 336.042947 91.596986 
L 334.008951 94.644915 
L 331.161358 96.270473 
L 327.906962 96.47367 
L 325.059369 95.457694 
L 322.415168 93.628939 
L 322.61857 91.596986 
L 326.889964 90.58101 
L 332.788551 88.345861 
L 337.67015 86.313909 
L 341.33134 84.485145 
L 344.992539 82.453193 
L 349.263933 80.421241 
L 353.535327 77.779707 
L 356.586321 76.357336 
L 360.450912 73.512605 
L 363.705308 70.26148 
L 366.756312 67.010355 
L 369.197102 63.352836 
L 370.010708 60.10171 
L 371.027706 56.647397 
L 370.620903 53.396272 
L 368.993701 50.957926 
L 366.146108 48.925974 
L 362.484918 46.487628 
L 359.230522 45.065257 
L 354.959128 44.252478 
L 350.280931 43.642896 
L 346.212938 42.830118 
L 340.110949 42.830118 
L 333.654057 43.003037 
L 328.569067 43.409431 
L 323.280674 44.425408 
L 319.00928 45.847778 
L 314.331083 47.066951 
L 310.466492 47.87973 
L 306.805293 49.098903 
L 302.940702 50.927658 
L 297.855711 52.95961 
L 293.584317 54.178783 
L 284.431324 55.194759 
L 278.125934 56.617129 
L 270.803545 58.649082 
L 264.091361 61.493813 
L 259.819967 63.525765 
L 255.751965 65.760914 
L 251.887374 68.402448 
L 248.022783 72.263164 
L 245.785385 75.717487 
L 243.751389 80.797367 
L 242.530989 84.861271 
L 242.124186 90.144348 
L 243.344586 95.224229 
L 247.209177 99.897724 
L 250.260181 102.132873 
L 254.124772 104.164825 
L 258.599567 105.790383 
L 263.481157 106.399974 
L 267.345757 105.99358 
L 271.617142 106.603171 
L 276.498741 109.447903 
L 282.397328 113.105413 
L 286.46533 116.559735 
L 290.12652 122.452403 
L 292.567319 128.345063 
L 294.194512 132.815361 
L 293.787719 138.504832 
L 290.883868 146.524592 
L 288.239676 155.465188 
L 287.629472 161.967439 
L 288.64647 169.485665 
L 290.477065 175.784719 
L 292.714463 182.28696 
L 296.375662 188.179628 
L 304.308245 201.996908 
L 307.359249 206.467206 
L 309.596638 210.937505 
L 311.834035 215.814188 
L 312.44424 220.690871 
L 317.732632 235.320939 
L 317.936034 239.791228 
L 316.919035 244.464724 
L 315.87173 242.177727 
L 316.075131 239.332986 
L 316.481934 237.097837 
L 316.075131 232.424351 
L 314.854731 228.563634 
L 313.43094 225.312509 
L 312.21054 221.858196 
L 309.037391 217.209525 
L 305.788295 212.939189 
L 302.533899 210.094448 
L 300.499903 206.030544 
L 296.43191 199.934688 
L 291.957114 192.619659 
L 286.872124 182.663086 
L 284.634726 177.98959 
L 280.363332 170.064979 
L 277.71914 167.017051 
L 275.074939 164.375508 
L 271.006947 162.546753 
L 267.955952 161.733974 
L 263.88796 162.140359 
L 259.616566 162.343556 
L 254.734967 162.74995 
L 250.463573 164.375508 
L 246.192179 166.813854 
L 243.344586 170.674561 
L 240.496993 174.33208 
L 238.666389 179.818355 
L 238.056193 184.085456 
L 238.86979 195.870784 
L 239.479995 201.357049 
L 241.920785 207.249717 
L 248.226175 221.066997 
L 251.887374 227.569248 
L 254.484909 232.788843 
L 257.318571 238.083545 
L 263.623961 249.462488 
L 259.149166 250.07207 
L 252.23358 249.056094 
L 251.419974 244.179411 
L 250.402976 239.099521 
L 247.351981 231.581295 
L 243.690792 225.079053 
L 240.029593 217.764015 
L 236.775197 213.700111 
L 235.758199 208.62023 
L 235.554797 203.133956 
L 234.477202 195.118531 
L 233.256803 188.819478 
L 231.019405 182.11404 
L 228.375213 174.79901 
L 226.137816 170.735097 
L 224.103819 165.045635 
L 222.88342 160.168942 
L 222.680018 155.698653 
L 225.527611 152.041134 
L 229.595613 149.196403 
L 233.791835 145.988186 
L 237.806658 142.321056 
L 242.688248 138.053955 
L 247.773248 133.99005 
L 251.027644 130.33254 
L 251.637839 126.878218 
L 251.027644 123.220699 
L 251.434437 118.75041 
L 248.180041 110.825789 
L 245.332449 105.745909 
L 243.268154 103.303219 
L 241.234157 100.661685 
L 239.606955 97.004165 
L 237.979762 93.956237 
L 233.098163 87.047602 
L 229.233572 85.218837 
L 225.572373 83.999674 
L 220.487382 83.999674 
L 215.605793 84.406058 
L 208.893599 86.234813 
L 202.79161 88.67316 
L 196.282818 91.924285 
L 189.367224 96.800968 
L 184.689036 101.880858 
L 179.604045 107.976714 
L 176.756443 113.259791 
L 175.332651 118.136474 
L 176.146247 124.841922 
L 178.790439 130.734591 
L 181.841433 135.001692 
L 185.095829 140.081572 
L 183.265235 139.268793 
L 177.976842 132.766543 
L 174.112251 129.109023 
L 168.823859 129.31222 
L 162.111665 130.328196 
L 158.943378 131.666866 
L 154.26128 133.90359 
L 148.769486 136.951519 
L 144.498092 140.405841 
L 141.853901 144.266548 
L 140.633501 148.127264 
L 136.768901 151.175193 
L 133.107711 155.0359 
L 130.46351 159.709395 
L 128.429514 163.570102 
L 126.802321 168.040401 
L 123.547925 170.478747 
L 119.886726 172.307502 
L 116.225536 174.339454 
L 112.767739 176.7778 
L 109.513343 180.638507 
L 107.479346 184.296027 
L 105.852153 189.375907 
L 105.241949 192.830229 
L 105.852153 198.722888 
L 108.496344 203.396384 
L 110.733742 208.273067 
L 115.208538 215.994491 
L 118.666326 218.026443 
L 121.372971 220.756525 
L 124.214378 224.01425 
L 124.621171 226.655793 
L 120.959982 227.062178 
L 118.722584 224.420644 
L 116.485186 220.966322 
L 115.468188 218.121591 
L 113.139895 213.906337 
L 110.902497 210.248827 
L 108.665099 205.981726 
L 107.037906 202.121009 
L 104.393705 198.260302 
L 100.529114 195.618768 
L 96.664514 194.602792 
L 91.986326 195.618768 
L 86.697933 198.057105 
L 82.833333 200.089057 
L 79.98574 202.324207 
L 73.476948 207.200899 
L 66.764755 214.312731 
L 61.27297 221.018179 
L 57.204968 227.520429 
L 53.74718 233.819483 
L 50.899578 239.915339 
L 47.72739 248.311224 
L 44.472994 257.251821 
L 42.438997 265.786024 
L 40.608403 274.929808 
L 39.998198 283.260813 
L 41.421999 291.998213 
L 43.862799 295.655723 
L 50.574983 297.078093 
L 57.693979 296.468511 
L 65.423161 293.420583 
L 70.101359 289.559867 
L 74.982948 285.089568 
L 83.932539 278.587327 
L 89.01753 275.133005 
L 92.678729 274.523414 
L 96.54332 274.929808 
L 97.560318 277.977736 
L 93.899128 282.854419 
L 86.780132 287.934309 
L 80.678143 292.607795 
L 73.96595 296.265314 
L 67.863961 296.468511 
L 60.541572 296.874896 
L 55.25318 297.484487 
L 49.557985 297.890872 
L 45.693393 297.484487 
L 41.218598 298.094069 
L 37.557399 301.345195 
L 33.692808 305.612296 
L 32.879211 310.488988 
L 33.082613 316.17845 
L 34.913207 322.477504 
L 36.947204 328.370172 
L 40.144735 331.042366 
L 42.789543 334.297443 
L 45.230342 338.361348 
L 47.060937 343.23804 
L 49.298335 346.89555 
L 52.756132 349.537094 
L 56.417322 349.943478 
L 63.536318 349.537094 
L 70.655305 348.927502 
L 78.384497 347.505141 
L 84.689887 345.879574 
L 89.774878 345.269992 
L 92.825872 344.457204 
L 94.859869 342.628449 
L 94.453075 346.89555 
L 94.859869 350.756267 
L 95.876867 355.836147 
L 96.487071 359.493657 
L 96.28367 365.386325 
L 94.859869 361.932003 
L 93.232675 357.461705 
L 91.605473 353.600998 
L 88.75788 350.959454 
L 86.520482 350.146675 
L 82.452489 350.349872 
L 79.604896 349.333896 
L 76.757294 348.724305 
L 72.892703 349.333896 
L 67.807712 349.943478 
L 61.502322 350.349872 
L 57.230928 351.365849 
L 53.976532 353.600998 
L 52.552731 357.868099 
L 51.332331 362.541585 
L 52.145928 367.418278 
L 53.976532 372.701355 
L 56.010528 379.406802 
L 62.315918 388.753784 
L 66.790714 392.411294 
L 71.672303 397.084789 
L 74.519896 401.758285 
L 76.471694 405.856801 
L 80.132884 409.717508 
L 80.336285 414.391003 
L 82.980486 419.470884 
L 85.014482 423.737985 
L 87.862075 428.817865 
L 92.336871 432.881769 
L 99.049064 434.913721 
L 104.134055 434.30414 
L 108.202048 432.272187 
L 112.27004 430.037038 
L 116.541435 426.98911 
L 121.219632 423.331591 
L 125.084223 419.877268 
L 128.135217 415.610167 
L 130.372615 411.74946 
L 131.999818 408.091941 
L 135.050812 403.215258 
L 137.491611 400.776911 
L 138.915403 396.713007 
L 139.322206 392.242709 
L 138.915403 386.756444 
L 138.101807 383.098924 
L 136.474613 380.050996 
L 136.474613 376.596674 
L 136.881407 371.313597 
L 137.582507 357.111512 
L 136.362107 352.844411 
L 135.955304 349.186891 
L 134.938306 346.34216 
L 139.616503 345.326184 
L 145.718492 343.091035 
L 151.006884 340.246304 
L 154.464682 337.807958 
L 158.532674 332.728077 
L 162.600667 326.632221 
L 165.244868 322.161923 
L 168.092461 317.082043 
L 169.719663 312.611744 
L 171.346857 308.751028 
L 176.83865 312.814941 
L 183.957638 316.472451 
L 190.669831 318.910798 
L 197.788818 320.333168 
L 211.416597 323.787481 
L 206.128205 325.413048 
L 202.873809 326.835409 
L 198.602415 326.02263 
L 193.314023 324.60026 
L 188.635835 322.36512 
L 183.754236 322.161923 
L 180.296448 322.771505 
L 176.635249 325.006654 
L 173.584255 328.257779 
L 170.126457 332.728077 
L 167.889059 337.401564 
L 165.855063 341.059083 
L 163.414264 345.122987 
L 162.193873 347.967727 
L 158.329273 351.42204 
L 154.26128 354.266781 
L 150.193288 355.892339 
L 145.718492 360.565834 
L 143.277693 364.832935 
L 140.836903 369.709619 
L 139.616503 375.195893 
L 139.413102 379.259797 
L 140.313254 384.867143 
L 142.347251 391.572591 
L 146.00844 396.042889 
L 150.686637 398.684423 
L 155.97503 400.309991 
L 161.466824 401.12277 
L 167.162009 400.716375 
L 172.450402 399.903596 
L 169.602809 401.529164 
L 164.111015 402.138746 
L 158.619221 401.935549 
L 153.941033 400.716375 
L 148.856043 399.090817 
L 145.398245 398.684423 
L 142.550652 399.090817 
L 140.109853 400.309991 
L 137.465652 402.54514 
L 135.228254 404.983477 
L 128.719472 415.752828 
L 127.092269 418.800757 
L 124.244676 421.848685 
L 120.99028 424.693425 
L 117.12568 427.741353 
L 113.871284 430.586084 
L 110.210094 433.430825 
L 106.955698 436.681941 
L 104.311497 440.136263 
L 103.177654 446.119735 
L 102.974252 453.028371 
L 105.21165 460.140212 
L 108.059243 467.252044 
L 111.313639 473.551098 
L 115.17824 478.834175 
L 120.26323 482.0853 
L 126.975424 482.288497 
L 132.467208 482.0853 
L 138.569206 480.053348 
L 143.654197 477.00542 
L 148.332394 473.957492 
L 153.010582 470.706367 
L 156.061577 467.455242 
L 158.298974 462.984943 
L 156.264978 468.877602 
L 149.145991 476.599026 
L 142.840601 480.459742 
L 136.942004 485.133229 
L 132.263816 489.40033 
L 128.373265 493.468578 
L 125.525673 498.34527 
L 125.729065 504.034733 
L 127.559669 510.130589 
L 130.407262 515.007281 
L 134.271853 522.119114 
L 139.153452 528.824561 
L 142.204446 531.669292 
L 145.052039 534.107639 
L 151.154037 540.406692 
L 157.459428 545.283375 
L 167.400058 554.578509 
L 171.264649 560.471177 
L 174.519045 566.567033 
L 177.366647 572.459693 
L 183.061833 578.555558 
L 191.197828 585.464194 
L 199.944008 590.747271 
L 207.6732 594.201593 
L 217.232986 596.233545 
L 225.165579 598.468694 
L 233.911769 601.923017 
L 241.234157 607.409282 
L 249.776946 611.676383 
L 258.929929 614.927508 
L 270.116918 615.537099 
L 281.710701 614.317926 
L 289.439883 612.692359 
L 297.575878 612.692359 
L 303.474465 610.457219 
L 308.356064 607.206094 
L 313.847858 603.345378 
L 317.91585 599.281473 
L 320.560042 595.420766 
L 324.221241 591.153665 
L 325.645032 587.699343 
L 325.44164 581.603486 
L 324.753576 579.022479 
L 323.329784 574.755378 
L 320.888985 571.70745 
L 307.871401 568.862719 
L 317.431188 570.081892 
L 320.685584 569.065916 
L 322.312786 566.017978 
L 322.312786 562.766862 
L 320.685584 559.109343 
L 312.082199 554.954635 
L 304.75981 552.109894 
L 298.047617 549.265163 
L 291.945628 547.436408 
L 286.250432 546.420432 
L 282.589243 544.794865 
L 284.826641 547.639605 
L 282.996036 549.874745 
L 280.555246 552.516289 
L 278.928044 554.548241 
L 278.52125 558.20576 
L 278.317849 562.472861 
L 278.724642 567.146347 
L 278.317849 573.039016 
L 276.283852 570.194276 
L 274.453248 565.520789 
L 273.639651 560.034515 
L 273.43625 554.954635 
L 272.622653 550.687534 
L 269.571659 543.575692 
L 267.334261 536.057465 
L 264.283267 530.5712 
L 262.656073 526.913681 
L 259.808471 523.459359 
L 257.774475 520.614628 
L 257.774475 516.144329 
L 260.622068 512.080425 
L 263.062867 509.642079 
L 265.823913 510.018205 
L 271.112305 513.066133 
L 272.536106 517.333234 
L 276.604099 523.022706 
L 276.197296 527.492995 
L 281.282296 535.011221 
L 287.384285 541.310275 
L 295.52027 542.935842 
L 298.978068 544.5614 
L 307.927659 550.860453 
L 315.860243 554.517973 
L 322.165633 556.346728 
L 329.691423 563.661757 
L 340.268208 571.179984 
L 349.217799 574.227912 
L 354.30279 574.431109 
L 362.235383 576.869455 
L 389.28754 578.495013 
L 398.440532 578.495013 
L 404.871465 580.648046 
L 413.821047 585.727926 
L 422.974039 593.042956 
L 439.856214 604.218702 
L 446.7718 606.047457 
L 451.8568 610.517755 
L 458.568984 613.362486 
L 468.738975 614.581659 
L 475.654561 614.784856 
L 486.84155 613.159289 
L 496.80813 610.517755 
L 502.706727 606.657039 
L 510.232517 601.577158 
L 519.847404 595.237024 
L 527.590779 588.715319 
L 532.879171 584.041823 
L 545.28656 574.491645 
L 547.930751 573.069284 
L 554.439543 573.678866 
L 564.812926 573.069284 
L 587.7971 572.66289 
L 594.712685 570.834135 
L 602.645278 565.551057 
L 608.747267 561.893538 
L 613.832258 557.626437 
L 618.510455 554.172114 
L 623.595446 549.092234 
L 625.019247 546.857085 
L 630.307639 545.637912 
L 636.61303 542.996378 
L 652.10997 534.035711 
L 658.787945 529.408219 
L 663.466133 527.376267 
L 670.991923 521.483599 
L 676.483717 517.013309 
L 681.161914 511.527035 
L 686.246905 505.837564 
L 690.314898 500.96088 
L 691.9421 495.881 
L 694.38289 492.629875 
L 697.230493 491.817087 
L 700.484889 491.004308 
L 702.518885 488.565961 
L 702.315483 495.068212 
L 700.078086 503.19603 
L 698.044089 509.088689 
L 696.620288 514.77816 
L 696.213494 520.467622 
L 694.789693 528.59544 
L 693.365892 538.755201 
L 693.162491 545.054254 
L 692.348894 551.556504 
L 692.348894 558.058755 
L 692.959098 559.88751 
L 688.484303 569.640886 
L 688.0775 564.561005 
L 687.263903 560.700298 
L 686.13006 557.392972 
L 686.333452 552.922683 
L 685.723257 548.452384 
L 685.519855 543.982086 
L 683.68926 540.527764 
L 680.841658 536.667057 
L 676.773666 533.619128 
L 673.722671 531.180782 
L 669.85808 530.977585 
L 666.196881 533.415931 
L 662.128888 535.854278 
L 656.637095 538.902206 
L 651.348702 541.340543 
L 644.83991 544.794865 
L 639.551518 547.436408 
L 634.87333 549.46836 
L 629.381536 552.313091 
L 626.533934 554.751438 
L 624.296546 557.596169 
L 624.093144 561.253688 
L 625.516936 565.114395 
L 629.178135 566.536765 
L 633.042726 567.146347 
L 637.31412 566.130371 
L 642.602513 564.301616 
L 646.670514 562.676049 
L 649.111304 561.456885 
L 644.83991 564.098419 
L 635.483525 567.552742 
L 631.212131 568.36552 
L 628.161137 569.584694 
L 625.923739 571.819843 
L 624.093144 575.070968 
L 622.465942 578.931675 
L 622.26254 583.198776 
L 624.093144 588.075469 
L 627.550942 593.561734 
L 632.229129 600.063984 
L 646.441154 612.026585 
L 653.966944 614.668119 
L 664.74713 614.871316 
L 674.917121 613.245758 
L 684.070104 611.213797 
L 692.612892 609.181845 
L 699.325086 606.946696 
L 709.495067 601.257234 
L 700.748878 599.022084 
L 708.274668 600.241257 
L 712.749463 600.647642 
L 717.631062 599.225281 
L 728.818042 596.583738 
L 734.920031 593.739007 
L 741.225421 591.097464 
L 746.920616 588.252733 
L 750.988609 585.814386 
L 763.404685 577.016451 
L 767.269285 573.155744 
L 771.947473 564.824738 
L 772.150875 560.760834 
L 772.557678 555.884142 
L 772.557678 551.820237 
L 772.76107 548.975506 
L 775.405271 546.943554 
L 778.863068 547.146751 
L 784.965057 545.521184 
L 790.456851 544.302011 
L 795.33844 541.660477 
L 800.220039 538.612549 
L 805.30503 534.345448 
L 808.559425 530.484731 
L 812.220615 525.404851 
L 817.452572 518.650128 
L 820.707155 512.741864 
L 821.927555 508.068369 
L 822.741151 501.972513 
L 822.130956 498.111805 
L 818.062963 494.251089 
L 817.045956 492.625531 
L 813.588168 490.187185 
L 810.13037 487.545651 
L 806.875974 483.27855 
L 804.638577 479.824227 
L 801.790984 476.979496 
L 797.926383 472.915583 
L 794.265193 468.648481 
L 792.434599 465.80375 
L 792.027796 461.536649 
L 792.231197 456.050375 
L 794.875389 458.691918 
L 797.316188 463.162216 
L 799.146783 467.632505 
L 801.384181 471.493222 
L 802.807982 475.150732 
L 807.079376 480.027424 
L 812.774562 484.091329 
L 819.486755 486.529675 
L 824.571746 485.920084 
L 829.249943 484.294526 
L 832.911142 481.0434 
L 836.572332 476.979496 
L 839.826728 472.712395 
L 842.877722 467.429308 
L 846.33552 462.552625 
L 849.589916 456.659966 
L 851.623912 451.173691 
L 852.844312 446.093811 
L 853.657908 440.201143 
L 852.326346 436.008616 
L 850.896862 429.077254 
L 849.066267 425.622932 
L 845.405068 421.965422 
L 841.94728 417.901518 
L 838.489483 413.431219 
L 836.252085 409.976897 
L 833.811286 404.897017 
L 832.184092 402.458671 
L 821.607308 397.37879 
L 815.098516 394.127665 
L 810.827122 392.29891 
L 807.979519 391.892516 
L 802.691127 392.908492 
L 798.216341 394.330862 
L 793.741545 395.143641 
L 789.470151 394.127665 
L 785.605551 392.29891 
L 783.164761 389.45417 
L 781.334157 386.812636 
L 780.317158 383.967905 
L 786.012354 383.764708 
L 789.673553 382.545534 
L 794.555142 380.716779 
L 799.029937 378.888015 
L 804.31833 375.230505 
L 807.369324 371.166601 
L 808.996518 366.493105 
L 809.606722 359.584461 
L 809.199919 353.894999 
L 806.105488 345.153059 
L 802.833932 341.871862 
L 798.359136 337.604761 
L 794.901348 334.963227 
L 791.443551 331.305707 
L 787.782352 326.835409 
L 783.510958 323.177899 
L 780.663365 321.145947 
L 776.595372 320.129971 
L 771.30698 319.926774 
L 766.018587 319.317182 
L 761.747193 316.675648 
L 765.611784 315.253278 
L 769.069582 313.221326 
L 772.730771 313.62772 
L 778.019164 315.862869 
L 783.104164 320.333168 
L 787.57895 324.803457 
L 792.867342 330.289731 
L 798.562538 336.385587 
L 803.85093 341.26228 
L 808.529127 343.903814 
L 810.563123 343.903814 
L 811.173319 347.561333 
L 811.37672 352.844411 
L 811.783523 356.705118 
L 810.969917 364.020147 
L 809.952919 370.116013 
L 809.342724 375.195893 
L 809.693269 380.803239 
L 810.506875 385.883119 
L 811.930667 389.540639 
L 815.185063 392.994961 
L 820.066661 395.839692 
L 825.965249 397.871644 
L 830.846838 399.294015 
L 834.91484 397.871644 
L 839.186234 394.620519 
L 836.948836 400.513178 
L 836.338632 405.593068 
L 837.152238 409.047381 
L 839.593028 412.7049 
L 842.033827 415.956025 
L 845.288223 420.01993 
L 849.763019 423.880646 
L 855.458205 424.490228 
L 862.170398 422.864661 
L 868.882592 417.378396 
L 874.170984 410.469751 
L 877.628781 404.577092 
L 881.289971 397.46525 
L 885.357964 386.695898 
L 888.031072 376.495346 
L 887.630008 363.501369 
L 886.002805 358.218292 
L 883.155212 352.935215 
L 879.697415 350.090483 
L 874.815826 349.887286 
L 861.188047 350.700065 
L 866.476439 347.855334 
L 870.747833 346.636161 
L 877.053224 344.401012 
L 882.138214 341.149887 
L 884.985807 336.882786 
L 886.206207 330.583732 
L 886.206207 326.113434 
L 887.732997 321.664445 
L 888.936955 315.919061 
L 889.547159 310.635984 
L 889.343758 305.556104 
L 888.936955 300.882608 
L 886.699557 296.005925 
L 883.241769 292.7548 
L 879.173767 290.316454 
L 874.292177 289.300478 
L 867.579984 289.097281 
L 862.901796 290.113257 
L 858.223599 292.348406 
L 853.34201 295.193146 
L 849.070616 298.647459 
L 846.223013 301.898584 
L 844.392419 304.946513 
L 842.968617 308.197638 
L 842.968617 313.887109 
L 835.036034 297.225098 
L 839.917623 296.818704 
L 844.799222 296.005925 
L 849.884212 294.786752 
L 863.30859 289.300478 
L 867.17319 288.284502 
L 871.647977 288.690896 
L 877.749975 289.503675 
L 884.055365 289.503675 
L 890.157354 286.862132 
L 893.818553 283.001424 
L 895.242345 279.140717 
L 895.445747 275.076804 
L 896.055951 270.200121 
L 896.666146 263.901067 
L 897.072949 253.53811 
L 896.808951 251.151621 
L 894.16475 248.713274 
L 893.147752 246.884519 
L 894.368152 243.227 
L 894.978347 239.569481 
L 894.571553 234.083216 
L 892.537557 228.190547 
L 889.893356 222.90747 
L 886.63896 217.82759 
L 882.570967 211.731733 
L 877.485977 206.448656 
L 872.197584 200.35279 
L 867.315986 195.27291 
L 860.4004 189.786636 
L 856.942603 188.161078 
L 852.87461 183.893977 
L 847.993011 179.830072 
L 844.331822 176.578947 
L 840.670623 172.515034 
L 836.399229 169.060721 
L 830.907444 166.622374 
L 825.619043 165.200004 
L 820.127258 165.809595 
L 811.787862 169.8735 
L 803.245074 174.343798 
L 799.380483 177.188529 
L 796.329488 180.03326 
L 793.075092 183.690779 
L 790.227499 187.145102 
L 787.583298 190.599415 
L 785.345901 194.663328 
L 783.515306 198.320838 
L 780.871105 198.117641 
L 776.599711 199.336814 
L 773.955519 200.555987 
L 772.124925 199.336814 
L 771.51472 196.898468 
L 776.396319 196.69528 
L 779.447313 195.679304 
L 782.905111 193.647352 
L 786.769702 189.583439 
L 790.634293 185.316337 
L 792.871691 181.658827 
L 796.126087 177.391726 
L 798.363485 173.124625 
L 800.194079 168.247932 
L 801.847232 161.187957 
L 802.660829 156.311265 
L 802.457437 151.434582 
L 801.643831 147.370677 
L 798.999639 142.900379 
L 795.745243 139.446057 
L 791.880643 135.58535 
L 787.609249 132.131027 
L 782.931061 129.083099 
L 777.642668 126.035171 
L 773.574676 123.190431 
L 769.710075 121.76807 
L 766.862482 118.923329 
L 764.014889 116.484993 
L 759.743495 115.062622 
L 753.031302 115.062622 
L 747.539508 117.297771 
L 742.251116 121.158479 
L 739.200121 124.003219 
L 737.572919 128.067123 
L 737.572919 133.756585 
L 735.945725 129.692681 
L 735.538922 125.628777 
L 736.759322 120.142503 
L 737.369527 115.875401 
L 737.369527 109.982742 
L 736.962724 105.918838 
L 735.538922 102.261319 
L 733.820834 98.74646 
L 730.159635 95.08895 
L 719.58285 85.945157 
L 715.921661 83.913204 
L 712.260462 83.100425 
L 710.429867 82.897228 
L 707.785666 81.474858 
L 702.700675 79.442906 
L 697.819086 79.036521 
L 693.547692 78.833324 
L 689.886493 79.036521 
L 686.632097 79.8493 
L 680.530108 83.913204 
L 675.648509 90.821849 
L 672.597515 95.698532 
L 668.936325 103.419956 
L 667.308022 107.460695 
L 665.270778 113.955842 
L 665.067386 120.458093 
L 665.677581 125.537973 
L 667.914979 130.82105 
L 671.982971 135.900931 
L 676.661169 140.574426 
L 681.660135 143.918919 
L 686.510903 146.415237 
L 690.172093 151.088723 
L 694.443487 157.997368 
L 699.121684 162.264469 
L 702.986275 166.734768 
L 706.647474 173.033821 
L 709.698469 179.739259 
L 711.935867 187.054298 
L 713.969863 194.369327 
L 715.597066 200.668381 
L 716.003859 205.951458 
L 716.410662 208.796189 
L 715.190263 213.06329 
L 712.952865 217.127194 
L 710.308673 222.613469 
L 706.971015 232.046677 
L 703.916727 236.322699 
L 698.424933 247.498445 
L 696.390937 251.155955 
L 692.933139 254.813475 
L 689.271949 256.64223 
L 684.797154 259.080576 
L 675.440769 264.56685 
L 682.966559 258.0646 
L 686.627749 254.000696 
L 693.950137 243.028147 
L 695.780741 239.573825 
L 699.645333 233.884363 
L 701.679329 229.414064 
L 704.730323 224.943766 
L 706.967721 220.473468 
L 710.156584 214.929668 
L 712.199865 208.186607 
L 712.81006 202.90353 
L 712.81006 197.417255 
L 711.996463 192.946957 
L 710.36927 186.647904 
L 708.538666 181.974408 
L 706.911473 177.50411 
L 703.657077 173.440206 
L 700.809484 170.798672 
L 696.741482 167.953931 
L 692.266695 166.734768 
L 687.995301 166.328373 
L 683.927299 167.344349 
L 679.859307 169.782696 
L 676.808312 172.221033 
L 673.757318 175.878552 
L 670.706323 180.145653 
L 668.672327 184.819149 
L 666.638331 188.679856 
L 661.146537 195.385303 
L 655.451342 201.48116 
L 653.213944 204.529088 
L 651.383349 207.98341 
L 649.145951 211.437732 
L 647.315356 214.688858 
L 644.874557 217.939983 
L 641.608973 221.88179 
L 637.690625 225.549013 
L 634.232827 228.596941 
L 625.079844 237.943923 
L 630.571638 230.425696 
L 633.622632 226.564989 
L 637.08042 222.501076 
L 641.962019 217.421195 
L 645.216415 213.154094 
L 649.081006 207.464632 
L 652.335402 200.35279 
L 654.165997 194.460131 
L 653.555802 190.19303 
L 652.132001 183.690779 
L 651.521805 179.830072 
L 648.470811 175.766159 
L 645.419816 172.311846 
L 643.792614 168.247932 
L 642.775616 163.980831 
L 639.768534 157.612694 
L 637.283822 151.637779 
L 636.673627 144.729134 
L 636.877028 139.24286 
L 637.690625 133.350201 
L 637.894026 129.489484 
L 637.487223 125.222383 
L 636.470225 123.393628 
L 639.114426 120.548897 
L 641.962019 115.875401 
L 645.623209 105.715641 
L 646.030012 99.822972 
L 643.589212 95.555871 
L 640.538218 91.491967 
L 638.30082 87.834457 
L 636.877028 86.005692 
L 639.928023 82.957764 
L 643.792614 80.31623 
L 649.569989 76.217453 
L 653.646697 72.093265 
L 655.680693 68.029361 
L 655.884095 63.355874 
L 655.680693 58.479182 
L 653.850098 54.821672 
L 650.595702 50.960955 
L 645.714113 46.897051 
L 640.018918 44.661902 
L 635.340721 43.442729 
L 628.831929 42.62995 
L 622.323146 42.020368 
L 618.255144 42.020368 
L 605.23757 44.255517 
L 599.745776 45.677878 
L 595.881175 47.913027 
L 593.033573 50.93547 
L 589.363696 53.779763 
L 585.295704 56.218109 
L 581.837906 57.843667 
L 576.956317 58.250061 
L 570.854319 58.046864 
L 566.176131 57.234085 
L 560.074132 56.014912 
L 555.192543 55.608527 
L 549.497348 56.827691 
L 545.632757 58.046864 
L 541.564764 59.875628 
L 538.310368 62.110768 
L 536.479773 64.955508 
L 536.479773 66.784263 
L 542.174959 70.848168 
L 549.904151 76.131245 
L 563.938733 86.900597 
L 569.83732 90.151722 
L 573.498519 91.980477 
L 576.956317 92.590068 
L 582.041308 94.62202 
L 575.939319 97.060366 
L 573.295118 97.873145 
L 570.447525 97.263554 
L 568.006726 94.62202 
L 565.769328 92.793265 
L 562.31153 89.338943 
L 559.87074 86.494212 
L 550.514346 79.38237 
L 541.564764 71.660956 
L 537.700164 68.816216 
L 533.42877 66.174682 
L 528.953983 64.752311 
L 524.072385 64.345917 
L 518.987394 63.329941 
L 514.105805 63.329941 
L 507.597013 64.752311 
L 501.698416 66.784263 
L 496.613425 69.628995 
L 491.935228 72.473735 
L 487.867235 75.521663 
L 483.098152 82.054181 
L 480.453952 87.134062 
L 478.419955 92.620336 
L 478.013152 96.68424 
L 478.216554 101.560923 
L 480.25055 106.234419 
L 482.691349 109.485544 
L 488.793338 112.939866 
L 496.929333 116.394189 
L 514.4823 123.657361 
L 521.397895 125.89251 
L 528.516882 129.143635 
L 532.788276 131.988366 
L 540.314066 136.255467 
L 530.75428 133.410736 
L 523.635293 131.175587 
L 518.957095 130.566005 
L 514.4823 129.346832 
L 510.414307 127.721265 
L 506.549716 125.89251 
L 502.07492 123.454164 
L 495.76953 120.609433 
L 489.46414 119.39026 
L 483.158749 119.39026 
L 476.446556 119.999851 
L 470.344567 121.015827 
L 463.480881 127.513733 
L 459.819682 131.171243 
L 457.785686 135.03196 
L 456.972089 138.079888 
L 454.938093 141.737398 
L 454.734692 146.61409 
L 455.344887 152.100365 
L 456.158493 163.479298 
L 456.357546 168.070669 
L 454.526942 174.369722 
L 454.120148 182.091145 
L 454.32355 187.374223 
L 455.137146 192.454103 
L 457.984739 197.330786 
L 461.645938 202.004282 
L 467.137732 205.661801 
L 473.443122 206.880965 
L 478.934907 206.47458 
L 486.612198 202.151277 
L 490.883592 198.087373 
L 496.578778 195.242642 
L 502.273974 191.78832 
L 505.935163 189.756368 
L 509.596362 186.302045 
L 513.664355 183.660511 
L 517.935749 182.034944 
L 522.410545 182.441338 
L 527.902338 183.660511 
L 532.580526 186.302045 
L 535.021325 187.521219 
L 534.41113 199.916138 
L 537.055322 210.482292 
L 538.479123 216.781346 
L 539.29272 222.064423 
L 538.682524 227.753885 
L 538.885926 234.256135 
L 538.479123 240.758386 
L 539.089318 246.651054 
L 542.317764 252.51779 
L 544.148359 257.191276 
L 545.165357 261.255189 
L 544.961965 264.09992 
L 542.317764 266.538267 
L 539.26677 265.115896 
L 537.436175 262.271165 
L 536.622569 258.207261 
L 536.622569 254.143348 
L 537.436175 250.28264 
L 537.842968 246.421933 
L 537.842968 243.983587 
L 537.639567 239.716486 
L 538.04637 231.995062 
L 537.436175 217.568201 
L 536.622569 213.707484 
L 536.012374 209.64358 
L 534.385171 205.782873 
L 531.740979 201.312574 
L 524.621992 195.623103 
L 519.943795 192.371978 
L 515.875803 190.74642 
L 511.80781 190.74642 
L 507.333014 191.559199 
L 504.078618 192.371978 
L 500.010626 194.200742 
L 495.53583 197.045473 
L 484.145449 204.970094 
L 480.891053 207.002046 
L 477.026452 210.253171 
L 473.772056 213.707484 
L 470.517661 223.664057 
L 469.704064 228.743937 
L 469.704064 232.401456 
L 470.517661 238.090919 
L 471.179765 243.78039 
L 473.010369 249.469862 
L 473.620564 253.94016 
L 472.196763 263.083944 
L 471.78997 267.554243 
L 470.772971 274.462878 
L 470.162767 280.152349 
L 469.959375 285.638624 
L 469.552572 290.921701 
L 471.395353 295.335192 
L 483.180351 308.197638 
L 486.027944 310.22959 
L 490.299338 311.042378 
L 495.791132 310.432787 
L 501.689729 308.197638 
L 496.80813 311.65196 
L 490.909542 312.871133 
L 486.027944 312.464739 
L 482.773557 313.07433 
L 478.502163 314.293503 
L 473.010369 314.090306 
L 468.535574 314.293503 
L 463.857377 314.090306 
L 458.568984 313.277527 
L 454.094189 312.261542 
L 446.975202 311.042378 
L 442.500406 310.432787 
L 440.46641 308.807229 
L 439.449411 306.57208 
L 439.042618 305.14971 
L 442.297014 307.791253 
L 447.382005 308.604032 
L 452.466995 307.791253 
L 455.924793 305.352907 
L 462.840378 297.83468 
L 465.891373 294.177161 
L 468.128771 291.738824 
L 468.738975 288.690896 
L 469.34917 285.033376 
L 469.552572 279.343905 
L 469.959375 274.873616 
L 471.993371 259.024375 
L 471.586568 255.163668 
L 467.66138 228.826062 
L 465.627375 224.762158 
L 464.406984 220.29186 
L 463.79678 216.227956 
L 463.593378 211.351263 
L 463.186585 207.693753 
L 462.57638 203.833037 
L 459.728787 200.378724 
L 457.898192 199.362738 
L 455.660794 196.721204 
L 454.236993 193.673276 
L 452.406399 190.625348 
L 448.948601 188.593396 
L 444.473805 186.967829 
L 439.388815 186.358247 
L 434.303824 185.951853 
L 430.235831 185.951853 
L 425.761036 184.935877 
L 422.099837 184.732679 
L 418.642049 185.545458 
L 415.184251 187.983805 
L 412.54005 190.218954 
L 409.692457 193.470079 
L 407.048256 196.31481 
L 405.01426 200.175527 
L 400.539474 209.725705 
L 399.522476 215.008782 
L 399.115673 219.479081 
L 399.319074 224.558961 
L 399.929269 229.232447 
L 400.448569 234.169676 
L 401.87237 239.452753 
L 402.482575 243.516657 
L 402.685967 248.190152 
L 401.87237 251.847663 
L 399.431571 255.708379 
L 397.397575 256.724355 
L 394.143179 256.724355 
L 391.295586 255.911576 
L 390.278588 252.457254 
L 392.109183 243.719854 
L 393.532984 239.65595 
L 394.753383 236.608022 
L 396.583978 232.747305 
L 397.397575 229.902574 
L 397.194173 226.041867 
L 395.770382 218.726828 
L 395.363579 213.850145 
L 394.753383 199.626471 
L 395.56698 196.375346 
L 397.194173 193.530615 
L 397.397575 189.263514 
L 398.007779 185.402807 
L 398.414573 179.916532 
L 399.634973 170.772748 
L 400.448569 167.72481 
L 403.499573 163.864103 
L 406.347166 161.019372 
L 409.601562 164.473685 
L 412.042361 168.131204 
L 414.483151 174.227061 
L 416.720549 178.494162 
L 420.178347 182.151681 
L 423.432743 183.777239 
L 428.435525 184.788881 
L 433.113723 185.195266 
L 437.79192 185.804857 
L 443.080312 185.804857 
L 447.351706 183.163313 
L 450.199299 181.131361 
L 452.436697 178.489818 
L 454.877496 172.800356 
L 455.487691 170.158813 
L 455.691093 166.298105 
L 454.877496 158.373485 
L 454.877496 153.903196 
L 453.860498 146.994551 
L 451.826492 144.14982 
L 451.012896 141.914671 
L 451.012896 139.06994 
L 452.029894 136.2252 
L 454.267292 134.396445 
L 457.114894 131.754901 
L 459.759086 129.722949 
L 462.199885 127.284612 
L 464.233881 125.455848 
L 466.878073 122.814314 
L 469.318872 120.782362 
L 471.149467 117.531237 
L 471.963073 113.264135 
L 472.369866 109.809813 
L 472.747659 104.697344 
L 471.729373 100.194755 
L 469.288574 95.927653 
L 467.051176 92.676528 
L 462.983183 90.034994 
L 459.118592 88.815821 
L 453.626798 89.019018 
L 448.541798 89.6286 
L 443.86361 90.847773 
L 440.202411 92.473331 
L 436.744623 93.692504 
L 434.100422 95.114874 
L 431.863025 97.553221 
L 429.625627 99.585173 
L 427.998433 102.429904 
L 425.354233 105.274635 
L 423.320236 108.728957 
L 422.303238 111.776885 
L 420.06584 113.808837 
L 415.979036 115.37083 
L 415.979036 115.37083 
" style="fill:none;stroke:#000000;stroke-linecap:square;stroke-width:1.5;"/>
   </g>
   <g id="line2d_2">
    <path clip-path="url(#pa4b952d34b)" d="M 250.203102 161.244308 
L 256.34403 159.557254 
L 260.796197 156.48988 
L 264.327226 154.035976 
L 267.551211 152.042187 
L 269.700532 149.281548 
L 269.700532 146.214166 
L 268.625876 142.99343 
L 266.937116 139.772684 
L 264.327226 136.551939 
L 260.949714 134.098034 
L 258.032781 132.104236 
L 254.655269 130.877289 
L 252.352422 131.337395 
L 248.97492 133.7913 
L 246.211504 136.245195 
L 243.601604 138.545727 
L 241.452284 140.999632 
L 240.070576 144.220377 
L 239.456489 147.287751 
L 240.224102 151.428709 
L 240.684671 153.882613 
L 242.987518 156.643252 
L 246.82559 160.01736 
L 250.203102 161.244308 
" style="fill:none;stroke:#000000;stroke-linecap:square;stroke-width:1.5;"/>
   </g>
  </g>
 </g>
 <defs>
  <clipPath id="pa4b952d34b">
   <rect height="715.68" width="933.12" x="0" y="0"/>
  </clipPath>
 </defs>
</svg>
