<?xml version="1.0" encoding="utf-8" standalone="no"?>
<!DOCTYPE svg PUBLIC "-//W3C//DTD SVG 1.1//EN"
  "http://www.w3.org/Graphics/SVG/1.1/DTD/svg11.dtd">
<!-- Created with matplotlib (https://matplotlib.org/) -->
<svg height="641.52pt" version="1.1" viewBox="0 0 855.36 641.52" width="855.36pt" xmlns="http://www.w3.org/2000/svg" xmlns:xlink="http://www.w3.org/1999/xlink">
 <defs>
  <style type="text/css">
*{stroke-linecap:butt;stroke-linejoin:round;}
  </style>
 </defs>
 <g id="figure_1">
  <g><image xlink:href="../../img/ctx/graykangaroo_cor_cell.json.ctx-50%25.png" width="855.36px" height="641.52px"/></g>

  <g id="patch_1">
   <path d="M 0 641.52 
L 855.36 641.52 
L 855.36 0 
L 0 0 
z
" style="fill:none;"/>
  </g>
  <g id="axes_1">
   <g id="line2d_1">
    <path clip-path="url(#p03e829dfc4)" d="M 404.600377 167.828081 
L 409.76747 167.483611 
L 416.312462 168.517031 
L 425.613236 169.205972 
L 431.124808 166.794661 
L 435.258481 163.6944 
L 437.669792 159.905198 
L 439.392162 155.427046 
L 439.392162 149.915483 
L 438.703212 145.092852 
L 437.325322 140.27023 
L 434.91401 133.380767 
L 428.024548 120.290791 
L 424.579816 115.812639 
L 419.757194 114.090278 
L 415.279042 111.334487 
L 409.76747 109.612126 
L 403.566957 109.612126 
L 386.68777 113.401328 
L 375.320164 116.846059 
L 366.708331 119.94632 
L 357.407557 123.046573 
L 348.795733 127.180254 
L 341.90627 130.624985 
L 334.672336 134.758658 
L 329.505235 138.547868 
L 323.993663 140.95918 
L 316.415259 144.403911 
L 310.903687 148.537584 
L 306.770014 152.671265 
L 302.980804 157.149416 
L 301.947383 160.594148 
L 301.602913 165.41677 
L 301.602913 171.961763 
L 300.569492 178.506746 
L 300.913963 182.640428 
L 300.225022 180.573587 
L 300.913963 170.928342 
L 300.913963 161.972039 
L 298.502652 158.527307 
L 294.368979 154.738105 
L 289.890827 150.948895 
L 285.412676 148.537584 
L 280.245583 147.504163 
L 275.078481 147.504163 
L 270.006291 147.159693 
L 266.21708 147.848642 
L 253.127104 153.015735 
L 242.79291 157.493887 
L 237.970287 157.838358 
L 232.803194 158.527307 
L 220.057689 163.6944 
L 213.168226 166.794661 
L 205.934292 168.861502 
L 198.35588 172.650704 
L 189.744055 176.784385 
L 174.931709 187.118579 
L 168.386717 191.941202 
L 162.875145 196.419353 
L 158.397002 201.241976 
L 154.95227 205.720127 
L 149.354683 209.965664 
L 143.154162 214.443816 
L 132.131026 228.911683 
L 129.030765 234.078784 
L 125.241563 240.623768 
L 121.107882 249.580071 
L 118.00763 262.325577 
L 117.663151 269.55951 
L 118.3521 274.382141 
L 115.596318 278.171343 
L 111.462637 281.960545 
L 106.295544 285.060806 
L 101.472914 290.916849 
L 97.683712 296.772891 
L 95.616871 304.695775 
L 95.298249 312.678824 
L 96.67614 322.324069 
L 98.742981 331.280372 
L 102.187712 339.203255 
L 106.665855 347.81508 
L 112.866377 354.360072 
L 119.411361 359.182694 
L 126.989774 362.971896 
L 130.090034 364.005317 
L 132.501346 367.794527 
L 134.912657 372.27267 
L 139.046329 376.061881 
L 150.413944 383.640285 
L 155.581045 388.807386 
L 160.748138 393.630009 
L 164.88182 399.141581 
L 168.326551 403.275253 
L 171.771274 408.786825 
L 165.570761 401.897363 
L 157.303407 392.252118 
L 152.480785 388.462907 
L 148.002633 384.673705 
L 143.868952 381.917924 
L 139.046329 379.506612 
L 134.223707 376.406351 
L 128.367664 376.406351 
L 124.578462 373.65057 
L 119.06689 370.205838 
L 112.521898 367.450048 
L 104.943494 365.383216 
L 97.709561 364.694266 
L 90.820098 365.727687 
L 86.686416 368.483468 
L 83.930635 373.65057 
L 81.519324 381.573444 
L 78.763533 388.462907 
L 77.385642 395.35237 
L 78.074592 405.342094 
L 78.074592 412.920498 
L 80.856223 423.822891 
L 83.956475 434.157085 
L 86.367786 440.702078 
L 89.468047 447.936011 
L 90.156997 452.758633 
L 89.468047 459.303626 
L 90.845938 469.29335 
L 94.290669 478.249644 
L 98.07988 485.828057 
L 104.624864 492.02857 
L 112.892218 498.918033 
L 138.038758 513.385909 
L 148.028482 517.175111 
L 158.362676 519.241951 
L 166.285551 518.553002 
L 174.208434 515.452741 
L 179.720006 512.008009 
L 182.131317 505.807496 
L 185.576049 500.295924 
L 189.365251 495.817772 
L 191.776562 490.306209 
L 192.809982 485.139107 
L 192.121041 479.627535 
L 191.776562 475.149392 
L 192.121041 471.015711 
L 194.187873 466.537559 
L 197.977084 456.547844 
L 198.321554 452.414163 
L 199.699445 447.936011 
L 203.144177 443.113389 
L 206.588908 440.013128 
L 211.06706 434.501564 
L 214.856262 429.334463 
L 217.956523 424.511841 
L 220.367834 419.689218 
L 221.745725 414.866596 
L 220.712304 420.378159 
L 218.645464 424.856311 
L 210.37811 437.257346 
L 206.933379 443.457859 
L 202.799706 448.624961 
L 200.043916 454.136533 
L 198.321554 458.959155 
L 196.943663 464.815198 
L 195.910243 469.982291 
L 194.532352 475.493863 
L 194.187873 480.316485 
L 194.876823 485.139107 
L 196.254714 489.96173 
L 199.010504 496.162251 
L 204.866547 501.673815 
L 212.789421 505.118546 
L 220.367834 505.118546 
L 227.946238 503.740656 
L 235.52465 501.673815 
L 242.069643 499.262504 
L 245.858845 495.128831 
L 248.614627 490.99515 
L 249.648047 486.861477 
L 255.84856 482.383326 
L 261.360132 476.527283 
L 265.493813 470.326761 
L 268.594066 464.470719 
L 269.971965 458.614676 
L 271.349856 453.447583 
L 272.383276 450.347322 
L 277.89484 450.691801 
L 284.095361 452.758633 
L 292.362715 454.136533 
L 297.331527 452.672618 
L 303.53204 450.605778 
L 309.043612 448.194467 
L 317.310966 451.983669 
L 327.64516 455.08393 
L 338.668305 457.83972 
L 350.38039 458.528661 
L 361.403525 458.18419 
L 372.08219 455.08393 
L 380.349553 450.950257 
L 386.205595 448.883416 
L 393.439529 446.816576 
L 413.418968 439.238163 
L 420.652901 435.104491 
L 426.853423 429.592919 
L 431.331566 424.081347 
L 434.776298 419.603203 
L 437.532088 414.091631 
L 441.923814 418.707487 
L 446.746436 421.463278 
L 449.846697 429.041682 
L 456.391689 434.897724 
L 465.347984 440.409296 
L 476.026658 444.887448 
L 485.671903 450.743491 
L 491.527945 456.599533 
L 499.795299 461.077685 
L 511.507384 465.211358 
L 517.707897 465.555837 
L 524.25289 465.211358 
L 543.198908 468.311619 
L 554.222052 467.278198 
L 561.800457 465.211358 
L 567.656508 461.077685 
L 570.75676 457.288475 
L 592.80304 456.255063 
L 596.247771 454.188222 
L 597.281191 448.67665 
L 597.625662 455.566113 
L 604.859604 461.077685 
L 608.304335 461.766626 
L 606.581965 464.866887 
L 604.170654 469.68951 
L 603.137234 476.234502 
L 605.548545 481.401595 
L 611.404588 487.602116 
L 619.327471 492.08026 
L 630.695086 496.902891 
L 640.34033 498.280781 
L 648.263213 497.247361 
L 663.42003 491.735789 
L 666.864762 486.913167 
L 670.998443 474.856611 
L 673.409754 468.656089 
L 674.787645 463.144517 
L 674.443166 456.599533 
L 672.031854 451.776911 
L 665.142392 441.787187 
L 661.697669 437.997985 
L 659.286349 434.897724 
L 655.152676 431.797464 
L 651.018995 426.974841 
L 657.098766 432.167783 
L 662.954808 434.579094 
L 667.777431 433.201203 
L 665.36612 435.268044 
L 666.74401 440.779616 
L 671.222162 446.291188 
L 676.044784 452.491701 
L 682.589777 457.658794 
L 686.723458 462.136946 
L 688.79029 467.304047 
L 690.51266 473.16009 
L 688.101349 477.982712 
L 685.001088 482.460864 
L 683.967668 489.005848 
L 684.656617 496.58426 
L 687.067929 502.095832 
L 691.890551 507.262925 
L 700.502384 511.052127 
L 708.080788 512.085548 
L 715.314721 510.363186 
L 718.414982 507.951875 
L 720.137344 505.196085 
L 722.204184 504.851614 
L 727.026807 504.507144 
L 736.327581 502.784774 
L 747.006254 500.373462 
L 754.929129 498.306622 
L 761.129651 495.895311 
L 764.918853 492.795058 
L 768.363584 487.283486 
L 771.463845 481.771914 
L 773.186206 476.604821 
L 773.875156 470.4043 
L 773.530677 466.615098 
L 770.085945 463.170366 
L 766.985693 459.725635 
L 764.918853 455.936433 
L 770.430425 446.291188 
L 772.841736 441.468557 
L 775.253047 435.956994 
L 776.286467 430.445422 
L 776.975408 424.589379 
L 776.975408 419.077807 
L 774.564097 414.944134 
L 770.774895 411.843874 
L 765.952273 410.121504 
L 761.818592 409.432562 
L 758.37386 408.054671 
L 754.240188 407.021251 
L 749.073086 407.710192 
L 736.67206 411.154924 
L 730.816017 411.499403 
L 724.959975 411.154924 
L 719.792873 411.499403 
L 713.59236 413.221764 
L 706.013947 416.322025 
L 699.468963 419.422278 
L 693.957391 422.522538 
L 687.067929 425.96727 
L 682.589777 428.03411 
L 679.833995 428.723052 
L 685.690038 425.96727 
L 690.857131 422.522538 
L 696.713173 419.766757 
L 703.258166 416.322025 
L 708.425258 413.910714 
L 714.62578 411.843874 
L 719.792873 410.810453 
L 726.337865 410.465983 
L 731.849437 410.465983 
L 738.738892 409.088083 
L 745.972834 406.332301 
L 752.862297 403.232041 
L 759.06281 399.098368 
L 765.607802 394.275746 
L 770.430425 388.075224 
L 775.941988 379.80787 
L 779.042249 373.951828 
L 781.88384 367.502781 
L 784.295365 361.301224 
L 783.950895 352.344921 
L 783.261945 345.110987 
L 782.917475 338.910474 
L 779.817214 329.954171 
L 776.028012 324.787078 
L 772.927751 322.375766 
L 768.105128 319.619976 
L 765.693817 317.553136 
L 765.349347 312.041572 
L 765.349347 301.362907 
L 764.315926 294.128965 
L 762.593556 287.583981 
L 759.837775 281.038989 
L 756.522271 272.711461 
L 748.943858 256.865703 
L 745.154656 250.665181 
L 740.332034 242.397827 
L 734.820462 234.474944 
L 722.419427 220.351548 
L 716.218914 215.184455 
L 711.396292 209.672883 
L 702.095517 203.12789 
L 694.517105 197.616327 
L 690.038962 195.205007 
L 685.216331 194.516066 
L 680.738188 191.415805 
L 676.948977 186.937654 
L 670.403993 181.081611 
L 662.136639 177.292409 
L 655.936118 173.158728 
L 645.946402 169.025055 
L 638.71246 166.958215 
L 630.445107 165.924794 
L 623.211173 164.891374 
L 617.01066 165.580324 
L 612.876979 166.958215 
L 610.465668 169.714005 
L 608.398827 173.158728 
L 607.365407 179.014779 
L 607.365407 184.526342 
L 608.398827 191.760276 
L 607.020936 186.593183 
L 607.020936 176.258989 
L 606.331986 171.091896 
L 604.609625 165.924794 
L 600.820423 163.169012 
L 596.29946 159.638266 
L 593.315434 156.976155 
L 588.837283 154.220373 
L 582.98124 150.431171 
L 574.713886 146.29749 
L 567.479953 141.819338 
L 560.934961 139.063556 
L 556.456809 137.341186 
L 551.289716 133.551984 
L 542.677892 128.729362 
L 535.443949 124.94016 
L 528.210016 121.839899 
L 520.976083 119.084117 
L 511.675308 117.017277 
L 502.030064 115.294907 
L 493.07376 114.605966 
L 484.806407 114.605966 
L 477.572465 115.983856 
L 471.371951 119.428588 
L 467.238279 124.595681 
L 463.449068 131.829623 
L 460.348816 138.719086 
L 458.626446 144.575128 
L 458.281975 151.464591 
L 459.315396 158.009575 
L 462.415648 162.487727 
L 467.92722 165.932458 
L 472.749842 167.310349 
L 479.294835 167.999299 
L 483.428516 167.654828 
L 488.251138 169.032719 
L 482.395095 169.37719 
L 477.572465 170.41061 
L 472.060901 172.477451 
L 459.659866 180.744804 
L 455.181714 185.911897 
L 453.114874 191.078999 
L 452.425933 198.312932 
L 452.770403 206.924757 
L 452.425933 216.225531 
L 453.459353 225.181834 
L 453.459353 232.415768 
L 454.492773 239.30523 
L 455.526185 245.161273 
L 455.870664 252.395207 
L 455.870664 260.31809 
L 456.559605 265.829662 
L 458.703984 272.064501 
L 462.148716 276.542652 
L 468.349229 279.642913 
L 474.205271 281.020804 
L 480.405793 280.676334 
L 483.850525 279.642913 
L 487.984197 277.231602 
L 483.850525 282.743174 
L 479.372373 287.565796 
L 474.549751 291.354998 
L 469.038179 293.421839 
L 463.182136 295.1442 
L 456.292673 296.86657 
L 450.09216 298.588932 
L 443.547168 298.933411 
L 437.691125 297.899991 
L 430.457191 294.455259 
L 423.567728 291.354998 
L 418.745106 290.666057 
L 413.578005 288.599217 
L 409.099853 285.843426 
L 405.310651 283.087645 
L 402.89934 279.987384 
L 398.765659 274.47582 
L 403.93276 278.609493 
L 412.544584 279.642913 
L 420.467468 278.953964 
L 426.667981 275.509232 
L 431.146133 271.031089 
L 433.557444 265.863987 
L 434.590864 260.352415 
L 435.279814 249.67375 
L 435.968755 243.128767 
L 437.002175 235.894825 
L 437.691125 226.93853 
L 439.069016 218.326697 
L 439.757965 212.126184 
L 440.102436 204.547771 
L 439.757965 197.313837 
L 439.069016 190.424375 
L 438.724545 184.568332 
L 435.624284 178.712289 
L 432.524023 174.923087 
L 428.04588 172.167297 
L 415.989316 169.411515 
L 404.600377 167.828081 
L 404.600377 167.828081 
" style="fill:none;stroke:#000000;stroke-linecap:square;stroke-width:1.5;"/>
   </g>
  </g>
 </g>
 <defs>
  <clipPath id="p03e829dfc4">
   <rect height="641.52" width="855.36" x="0" y="0"/>
  </clipPath>
 </defs>
</svg>
