<?xml version="1.0" encoding="utf-8" standalone="no"?>
<!DOCTYPE svg PUBLIC "-//W3C//DTD SVG 1.1//EN"
  "http://www.w3.org/Graphics/SVG/1.1/DTD/svg11.dtd">
<!-- Created with matplotlib (https://matplotlib.org/) -->
<svg height="622.08pt" version="1.1" viewBox="0 0 829.44 622.08" width="829.44pt" xmlns="http://www.w3.org/2000/svg" xmlns:xlink="http://www.w3.org/1999/xlink">
 <defs>
  <style type="text/css">
*{stroke-linecap:butt;stroke-linejoin:round;}
  </style>
 </defs>
 <g id="figure_1">
  <g><image xlink:href="../../img/ctx/grison_cor_cell.json.ctx-50%25.png" width="829.4399999999999px" height="622.0799999999999px"/></g>

  <g id="patch_1">
   <path d="M 0 622.08 
L 829.44 622.08 
L 829.44 0 
L 0 0 
z
" style="fill:none;"/>
  </g>
  <g id="axes_1">
   <g id="line2d_1">
    <path clip-path="url(#pa6504a2638)" d="M 374.708685 172.832976 
L 382.675158 173.788947 
L 391.916272 173.470293 
L 398.289457 170.921017 
L 401.476041 165.503812 
L 404.662634 159.767952 
L 405.937267 154.669409 
L 405.618613 149.889521 
L 404.981296 143.834999 
L 404.662634 138.736456 
L 403.388 133.637913 
L 403.069337 127.902045 
L 403.069337 120.572889 
L 402.750683 113.243734 
L 403.388 109.10117 
L 403.706654 104.321282 
L 403.706654 99.222739 
L 404.343979 95.080167 
L 404.025317 89.662962 
L 403.069337 85.839061 
L 400.52007 82.333806 
L 397.65214 79.147214 
L 394.784202 77.235263 
L 390.960293 75.960629 
L 387.773709 75.323313 
L 383.312483 75.960629 
L 378.851257 77.235263 
L 369.928797 81.059172 
L 365.467571 83.60844 
L 360.050374 86.157715 
L 351.446576 92.5309 
L 347.304013 96.354809 
L 344.11742 99.860056 
L 341.886807 104.321282 
L 338.062898 108.782508 
L 339.018877 104.958598 
L 344.754737 97.948097 
L 349.215963 93.805533 
L 353.358535 90.300287 
L 358.138415 86.795032 
L 363.236958 83.927102 
L 368.972826 80.421855 
L 372.15941 78.828559 
L 377.895278 76.916601 
L 384.587117 74.367333 
L 387.455046 70.862078 
L 392.234935 67.675494 
L 395.102865 62.895606 
L 396.696161 57.4784 
L 395.740182 52.379858 
L 394.465548 48.874611 
L 394.784202 45.050702 
L 394.465548 40.270813 
L 393.190906 35.809587 
L 390.641639 32.941657 
L 387.136392 28.799094 
L 382.99382 24.656522 
L 375.983319 19.239317 
L 371.522093 16.371387 
L 368.016846 14.778091 
L 356.545119 15.415408 
L 351.446576 16.371387 
L 346.98535 17.327367 
L 341.886807 19.239317 
L 338.062898 21.46993 
L 330.41508 27.524452 
L 326.909833 29.436411 
L 321.81129 31.348361 
L 316.394085 33.578974 
L 309.383583 35.490933 
L 303.966378 37.084221 
L 293.769292 41.226793 
L 289.626721 42.501426 
L 285.165495 44.413385 
L 281.022931 46.325335 
L 276.561705 48.874611 
L 273.05645 50.467907 
L 268.913887 53.973154 
L 267.001937 56.203767 
L 265.40864 59.071697 
L 263.178027 61.939626 
L 261.266069 66.400852 
L 259.991435 70.224762 
L 259.991435 74.367333 
L 260.310089 81.696489 
L 262.222048 89.662962 
L 264.452661 98.266759 
L 267.957908 105.914578 
L 272.419134 112.287754 
L 276.561705 120.254235 
L 281.022931 129.176687 
L 284.846841 134.912547 
L 286.758791 139.373773 
L 287.396108 143.516344 
L 286.758791 150.8455 
L 285.80282 144.472315 
L 282.934882 140.648415 
L 281.341586 137.461822 
L 279.110973 133.637913 
L 276.243043 130.132666 
L 273.375113 128.53937 
L 270.507183 127.902045 
L 267.320591 129.814004 
L 264.771324 132.044617 
L 265.40864 128.220708 
L 264.452661 124.715461 
L 262.222048 120.891552 
L 259.354118 117.704959 
L 256.486188 112.606417 
L 255.211547 108.782508 
L 253.61825 102.409323 
L 251.387637 96.673463 
L 248.519708 92.212237 
L 245.651778 88.069674 
L 241.509214 84.564419 
L 236.379592 83.87605 
L 230.952981 83.87493 
L 225.854438 84.193585 
L 221.393212 85.149564 
L 214.382711 86.424206 
L 211.514781 87.061523 
L 206.416238 88.973473 
L 203.866963 89.61079 
L 201.955012 90.566769 
L 198.131103 92.160065 
L 193.03256 95.027995 
L 191.439264 96.302629 
L 184.747425 101.082517 
L 179.967537 105.862406 
L 176.46229 110.642286 
L 174.550331 113.510216 
L 172.957043 118.290105 
L 172.001064 124.663289 
L 173.275698 129.761832 
L 177.736924 136.453671 
L 182.19815 139.958918 
L 188.252672 143.464173 
L 193.98854 146.969419 
L 198.76842 150.156012 
L 205.141605 156.210534 
L 199.405737 153.661258 
L 194.307194 150.793328 
L 188.571334 147.288073 
L 184.110108 144.101489 
L 178.692903 139.640263 
L 174.868994 136.772325 
L 170.407768 134.860375 
L 164.671908 133.585741 
L 159.89202 133.267079 
L 155.112131 134.223058 
L 150.332251 136.135008 
L 145.2337 138.365621 
L 140.45382 141.23356 
L 130.894051 147.606736 
L 127.070142 150.793328 
L 119.103661 159.397118 
L 115.279752 164.177006 
L 111.137188 168.638232 
L 106.675962 175.011417 
L 102.852053 181.384593 
L 100.940094 186.801799 
L 100.302777 191.263025 
L 97.168365 195.324411 
L 93.344456 201.378933 
L 89.839201 209.664068 
L 87.608588 216.674561 
L 85.696638 225.915676 
L 83.147362 235.15679 
L 82.191391 242.804601 
L 81.554074 251.089736 
L 81.872728 259.693533 
L 82.510045 267.341352 
L 84.422004 276.263804 
L 87.608588 284.867593 
L 92.069822 293.152728 
L 97.168365 298.251279 
L 103.541542 300.16323 
L 108.958747 298.251279 
L 115.013269 295.064687 
L 119.155833 291.559432 
L 121.705108 287.416869 
L 125.84768 282.955643 
L 129.034264 278.494417 
L 132.858173 274.98917 
L 136.363428 271.165261 
L 139.868675 267.978669 
L 143.055267 264.473422 
L 146.241851 261.28683 
L 150.384423 259.056217 
L 156.120282 256.825604 
L 161.218825 255.550962 
L 165.361397 254.276328 
L 169.185306 254.276328 
L 172.690553 255.550962 
L 176.514462 256.188287 
L 181.613005 257.781575 
L 188.94216 256.825604 
L 178.107758 260.33085 
L 170.45994 263.836097 
L 164.72408 266.06671 
L 156.757599 270.527936 
L 148.791127 275.626487 
L 142.099288 279.76905 
L 133.814152 286.779552 
L 127.122313 292.834074 
L 122.661087 297.613954 
L 109.277409 308.767028 
L 106.090817 312.590928 
L 103.222887 316.414838 
L 100.992274 320.557409 
L 99.717632 325.33729 
L 96.531048 334.897067 
L 94.937752 340.632926 
L 94.398931 349.914517 
L 94.717586 359.474286 
L 95.992228 368.078084 
L 98.541495 379.549811 
L 101.409433 387.516284 
L 105.233334 393.88946 
L 110.650539 399.943983 
L 118.935674 404.723871 
L 127.220809 405.998505 
L 135.18729 408.229118 
L 142.8351 408.54778 
L 153.988165 405.042534 
L 160.998667 402.174596 
L 167.053189 398.350686 
L 172.470394 393.88946 
L 175.975641 388.472263 
L 182.348826 380.187128 
L 185.854072 377.31919 
L 189.677981 373.495289 
L 190.952615 370.946014 
L 195.095187 367.440767 
L 196.688483 366.80345 
L 198.919096 366.166125 
L 198.600433 370.946014 
L 197.644454 377.000536 
L 196.36982 382.099079 
L 194.45787 388.153601 
L 191.589932 391.340193 
L 189.996644 396.120073 
L 186.172735 399.943983 
L 181.392846 402.174596 
L 175.975641 404.086554 
L 171.833078 404.405209 
L 168.646485 403.767892 
L 165.141239 405.361188 
L 161.317329 407.591801 
L 158.130737 411.097048 
L 153.032194 417.470232 
L 151.438898 420.019508 
L 149.208285 425.118051 
L 149.208285 421.931458 
L 148.570968 418.107549 
L 146.65901 414.920957 
L 142.8351 413.009006 
L 139.011191 413.009006 
L 133.593994 413.646323 
L 125.627513 415.558282 
L 122.122267 416.195599 
L 117.661041 416.514253 
L 113.199815 417.15157 
L 109.69456 418.107549 
L 108.419926 419.700845 
L 109.057243 424.799388 
L 109.69456 428.94196 
L 110.969202 434.040503 
L 113.518469 438.820391 
L 118.298357 442.644292 
L 124.671542 445.193568 
L 130.726056 446.468201 
L 137.736558 443.281617 
L 141.241804 441.369658 
L 146.65901 439.457708 
L 149.526939 436.589778 
L 151.438898 440.413679 
L 156.218787 443.281617 
L 161.954646 447.105526 
L 165.459893 449.973456 
L 169.921119 454.11602 
L 164.503913 452.522723 
L 160.042687 452.204069 
L 154.306828 452.841386 
L 148.889623 454.11602 
L 143.472417 456.346632 
L 139.967171 459.214562 
L 137.099241 462.0825 
L 134.868628 466.225064 
L 134.231311 469.411656 
L 133.593994 474.510199 
L 133.912648 478.971425 
L 135.18729 485.025947 
L 140.355324 494.921689 
L 148.959113 504.162803 
L 156.606931 509.898671 
L 162.342791 513.403918 
L 171.90256 518.183798 
L 181.462337 521.370391 
L 190.703443 526.150279 
L 198.669924 526.787596 
L 203.768467 529.018209 
L 210.778968 533.160781 
L 220.338737 537.940661 
L 229.261189 540.171274 
L 241.051571 542.083233 
L 250.292685 543.995183 
L 258.896483 543.995183 
L 259.5338 539.85262 
L 261.764413 546.225796 
L 268.456252 549.412388 
L 275.466753 548.775072 
L 279.290654 545.907142 
L 283.114563 546.225796 
L 288.531769 544.951162 
L 293.311657 542.083233 
L 297.454221 538.89664 
L 300.322151 535.072731 
L 306.376673 525.831617 
L 309.244611 521.689053 
L 312.749857 518.821123 
L 314.661808 512.766601 
L 315.93645 507.668058 
L 315.93645 501.93219 
L 316.573767 496.833648 
L 315.617787 491.097788 
L 313.068512 484.405941 
L 308.607286 476.758131 
L 305.739356 473.252876 
L 298.091538 469.110312 
L 303.914206 469.898297 
L 309.331412 473.722206 
L 316.023251 476.908798 
L 323.352406 477.227461 
L 330.362908 475.634165 
L 333.5495 473.403552 
L 336.098768 473.084889 
L 357.767581 489.973822 
L 363.822103 496.346999 
L 370.832604 501.445541 
L 379.11774 504.950796 
L 389.633488 507.181409 
L 397.918623 507.181409 
L 402.379849 505.269451 
L 408.115708 505.269451 
L 415.12621 506.544092 
L 420.224753 505.588113 
L 423.730008 505.906776 
L 431.377818 506.862747 
L 439.025636 505.269451 
L 446.354792 502.401521 
L 455.914569 498.258957 
L 460.694449 494.753702 
L 466.111655 490.292476 
L 469.298247 485.83125 
L 473.122156 482.644666 
L 478.858016 479.139411 
L 484.593875 476.590144 
L 495.746949 472.447572 
L 499.570858 472.766235 
L 502.438787 474.996848 
L 509.449281 474.040869 
L 514.866486 471.491593 
L 520.602354 468.942326 
L 526.97553 465.755734 
L 519.269693 471.85658 
L 512.577854 483.328307 
L 510.028578 493.525393 
L 509.391261 498.942598 
L 508.43529 504.678458 
L 509.391261 509.139684 
L 511.621874 514.875552 
L 521.818968 527.940567 
L 526.917511 533.357773 
L 532.653371 537.181682 
L 538.389239 539.09364 
L 542.850465 539.730957 
L 547.949007 542.917541 
L 553.04755 544.8295 
L 559.420735 544.192183 
L 565.793911 542.917541 
L 570.5738 541.005591 
L 573.123067 539.09364 
L 577.584293 540.368274 
L 585.869428 540.049612 
L 600.846402 538.774978 
L 608.494221 535.907048 
L 615.504722 532.083139 
L 622.196561 527.940567 
L 628.251083 525.072637 
L 634.942922 523.160687 
L 642.909395 521.886045 
L 651.513193 519.336778 
L 662.028941 517.106165 
L 669.676759 514.238235 
L 676.820386 510.709822 
L 682.874908 506.885913 
L 688.92943 502.106024 
L 693.70931 496.688819 
L 696.577248 490.315643 
L 698.170545 485.2171 
L 698.170545 479.799895 
L 697.53322 475.338669 
L 694.027973 465.460237 
L 690.522726 461.954991 
L 687.017471 458.768398 
L 682.874908 457.493765 
L 678.413682 456.537785 
L 674.908435 456.219123 
L 669.809884 457.493765 
L 675.22709 453.98851 
L 675.864406 450.483263 
L 675.22709 447.933988 
L 687.336134 449.527284 
L 694.983952 449.527284 
L 700.401158 448.571313 
L 704.862384 446.340691 
L 707.411651 444.110078 
L 712.191539 445.38472 
L 717.290082 445.38472 
L 724.937901 445.703375 
L 731.62974 443.472762 
L 738.958895 439.011536 
L 742.782804 435.187626 
L 747.562693 430.7264 
L 750.11196 425.309203 
L 751.386602 419.573335 
L 752.661236 414.474793 
L 753.617215 410.013567 
L 753.594464 404.726948 
L 753.280487 398.008866 
L 751.6872 393.228986 
L 749.456587 389.405076 
L 748.500607 385.262505 
L 748.500607 380.482625 
L 747.544628 376.021399 
L 744.358035 372.834806 
L 741.490106 370.285531 
L 737.02888 369.010897 
L 734.16095 368.37358 
L 730.974358 370.922847 
L 729.381061 373.790786 
L 727.150448 377.296032 
L 723.963864 380.801279 
L 721.095926 384.306534 
L 718.227996 388.130435 
L 712.810791 394.822282 
L 710.580178 396.41557 
L 708.668228 399.602162 
L 707.393594 402.788754 
L 706.118952 405.019367 
L 702.613705 406.294001 
L 698.152479 405.019367 
L 693.691253 402.470092 
L 687.376088 400.899962 
L 680.365595 398.350686 
L 674.629727 396.120073 
L 669.531184 394.526786 
L 658.059457 392.614827 
L 652.004943 391.97751 
L 646.269075 391.658847 
L 641.489195 393.252144 
L 640.214553 387.516284 
L 637.665285 381.143099 
L 634.160031 376.363219 
L 631.610763 371.901993 
L 629.38015 366.484788 
L 626.51222 358.518315 
L 630.973446 363.298195 
L 638.939919 368.078084 
L 647.862371 372.220647 
L 654.55421 377.31919 
L 663.476662 381.461762 
L 674.629727 388.472263 
L 685.145475 392.933489 
L 696.935865 395.164102 
L 706.814296 393.88946 
L 713.506135 391.021531 
L 718.604678 386.560305 
L 722.109925 381.780424 
L 726.571151 376.681873 
L 730.713723 369.990034 
L 734.218969 364.891492 
L 736.13092 357.88099 
L 738.042878 351.507814 
L 740.412472 330.383669 
L 740.09381 321.461209 
L 739.13783 314.132053 
L 737.863197 307.440214 
L 735.313921 296.924466 
L 733.720625 290.869944 
L 730.534041 285.134084 
L 725.43549 282.266154 
L 719.380976 280.035541 
L 707.590586 278.123582 
L 701.21741 274.299673 
L 696.118867 269.838447 
L 692.474639 264.056263 
L 687.376088 259.595037 
L 681.958891 255.133811 
L 676.541686 251.947219 
L 669.531184 249.397944 
L 663.158008 246.530014 
L 654.235556 244.299401 
L 647.543708 243.980738 
L 637.98394 243.980738 
L 634.797347 240.794154 
L 631.292101 236.970245 
L 637.665285 239.200858 
L 640.214553 237.926216 
L 641.489195 236.332928 
L 645.313095 237.926216 
L 659.971415 242.706105 
L 663.795325 243.024767 
L 672.717776 245.892697 
L 679.090953 248.760627 
L 683.552187 252.265873 
L 696.617203 265.330897 
L 702.353062 269.47346 
L 708.08893 272.022736 
L 712.231494 275.527983 
L 716.055403 278.395921 
L 722.428587 278.077258 
L 729.120426 275.846645 
L 734.856286 272.660053 
L 737.405562 269.154806 
L 738.042878 264.056263 
L 738.998858 258.639058 
L 738.361541 251.947219 
L 738.680195 247.485993 
L 737.405562 241.750125 
L 737.405562 229.959743 
L 736.768245 223.586567 
L 736.768245 217.850699 
L 735.812265 212.114839 
L 732.504011 197.584029 
L 730.273398 190.89219 
L 726.449489 184.200351 
L 722.944242 177.508512 
L 720.713629 172.091307 
L 717.208382 166.355448 
L 714.659107 160.61958 
L 709.560564 154.565066 
L 705.099338 148.191881 
L 698.726153 143.093338 
L 692.034314 136.401499 
L 686.298455 131.621611 
L 680.881249 128.435018 
L 673.552094 124.611109 
L 668.453551 122.380496 
L 663.355 121.424525 
L 658.893774 120.787208 
L 652.201935 122.380496 
L 647.103392 124.292455 
L 642.960829 126.841722 
L 639.774236 130.984294 
L 633.719714 139.906746 
L 630.533122 145.323951 
L 627.983846 149.14786 
L 624.797262 152.97177 
L 623.52262 153.609086 
L 622.885303 151.059811 
L 623.203966 147.235902 
L 624.797262 142.456021 
L 626.709212 139.588083 
L 630.851784 136.082837 
L 638.18094 130.665631 
L 641.04887 126.841722 
L 642.323503 122.380496 
L 642.816 116.969147 
L 641.541366 112.189258 
L 640.266724 108.365349 
L 637.08014 103.904123 
L 632.937569 99.76156 
L 629.432322 96.574967 
L 623.3778 93.388375 
L 617.323278 90.839099 
L 611.587418 88.608486 
L 599.159711 84.14726 
L 593.105189 83.509944 
L 582.270787 83.509944 
L 576.216264 84.784577 
L 571.117722 86.696536 
L 566.97515 89.245811 
L 564.10722 92.432395 
L 560.601974 95.618988 
L 558.371352 99.124234 
L 551.042196 116.013167 
L 549.4489 121.430373 
L 547.53695 126.84757 
L 544.987674 132.583438 
L 543.713041 137.044664 
L 542.438407 140.231256 
L 540.526448 143.736503 
L 538.295835 145.011136 
L 535.427906 144.692482 
L 535.109243 141.824544 
L 539.570477 132.264775 
L 542.438407 127.484895 
L 544.031703 123.023669 
L 548.811583 112.189258 
L 551.042196 105.178757 
L 552.316838 102.629489 
L 553.910126 96.574967 
L 555.503422 91.476424 
L 556.140739 88.608486 
L 557.096719 85.421902 
L 558.052698 80.960676 
L 558.371352 75.862125 
L 557.734035 70.444928 
L 556.140739 65.027723 
L 552.316838 59.610517 
L 548.174267 55.467954 
L 544.66902 51.00672 
L 540.265813 48.190962 
L 535.804587 45.960349 
L 530.706045 44.048398 
L 526.882135 43.092419 
L 517.322358 41.817785 
L 513.179795 40.543152 
L 509.674548 39.26851 
L 505.850639 37.675214 
L 501.708067 36.40058 
L 499.1588 35.125946 
L 495.016228 34.488629 
L 491.829636 33.851313 
L 483.544501 33.851313 
L 477.489979 32.576671 
L 474.622049 30.66472 
L 471.435457 28.115445 
L 465.699597 23.016902 
L 461.557034 20.467626 
L 457.414462 16.96238 
L 450.40396 14.09445 
L 445.305418 13.138471 
L 431.603085 13.138471 
L 426.18588 14.09445 
L 421.724654 16.0064 
L 417.900745 19.192993 
L 414.714152 22.379585 
L 409.296947 30.66472 
L 407.384997 34.807284 
L 406.429017 39.26851 
L 406.74768 44.367061 
L 407.066334 52.014871 
L 408.340976 60.618669 
L 410.252926 66.673191 
L 415.670132 71.771734 
L 422.043308 75.914297 
L 430.009789 79.738206 
L 436.064311 82.287482 
L 439.88822 82.287482 
L 444.668101 86.748708 
L 450.722623 92.80323 
L 455.183849 99.176415 
L 457.733124 103.63764 
L 460.919708 110.966796 
L 465.380943 116.702656 
L 468.248873 120.207903 
L 469.523506 126.581087 
L 466.655576 124.031812 
L 463.468984 119.570586 
L 460.601054 115.746677 
L 457.733124 110.010817 
L 454.546532 104.593612 
L 452.315919 99.495069 
L 450.085306 95.67116 
L 447.536031 91.84725 
L 444.668101 88.660666 
L 440.206875 85.155411 
L 434.789669 82.924798 
L 429.05381 81.012848 
L 423.955267 79.738206 
L 417.263428 79.419552 
L 413.439519 80.694185 
L 410.252926 83.243461 
L 407.384997 86.748708 
L 406.921514 90.862266 
L 405.965535 96.598125 
L 405.328218 103.289964 
L 404.690901 116.354988 
L 405.009555 121.772193 
L 405.009555 132.287941 
L 405.646872 139.298435 
L 406.921514 151.088825 
L 407.877485 156.50603 
L 408.833464 160.648593 
L 411.701394 163.835186 
L 414.887986 168.615066 
L 419.030558 172.120321 
L 423.491784 172.757638 
L 427.634348 173.076292 
L 434.326187 171.483004 
L 425.08508 175.306913 
L 421.261171 176.581547 
L 417.437262 176.581547 
L 412.976036 176.900201 
L 409.152127 175.94423 
L 406.921514 176.900201 
L 403.097605 176.262884 
L 396.405766 174.988251 
L 392.263194 175.306913 
L 384.934038 176.900201 
L 382.066108 176.581547 
L 378.879516 175.625568 
L 376.330241 174.032271 
L 374.708685 172.832976 
L 374.708685 172.832976 
" style="fill:none;stroke:#000000;stroke-linecap:square;stroke-width:1.5;"/>
   </g>
  </g>
 </g>
 <defs>
  <clipPath id="pa6504a2638">
   <rect height="622.08" width="829.44" x="0" y="0"/>
  </clipPath>
 </defs>
</svg>
