<?xml version="1.0" encoding="utf-8" standalone="no"?>
<!DOCTYPE svg PUBLIC "-//W3C//DTD SVG 1.1//EN"
  "http://www.w3.org/Graphics/SVG/1.1/DTD/svg11.dtd">
<!-- Created with matplotlib (https://matplotlib.org/) -->
<svg height="342pt" version="1.1" viewBox="0 0 570.24 342" width="570.24pt" xmlns="http://www.w3.org/2000/svg" xmlns:xlink="http://www.w3.org/1999/xlink">
 <defs>
  <style type="text/css">
*{stroke-linecap:butt;stroke-linejoin:round;}
  </style>
 </defs>
 <g id="figure_1">
  <g><image xlink:href="../../img/ctx/guineapig_cor_cell.json.ctx-50%25.png" width="570.24px" height="342.0px"/></g>

  <g id="patch_1">
   <path d="M 0 342 
L 570.24 342 
L 570.24 0 
L 0 0 
z
" style="fill:none;"/>
  </g>
  <g id="axes_1">
   <g id="line2d_1">
    <path clip-path="url(#p46c3898041)" d="M 270.711432 129.875684 
L 269.508414 125.063588 
L 267.703878 123.860564 
L 262.591027 122.958297 
L 268.30539 120.853005 
L 265.29783 106.717479 
L 264.094806 99.800092 
L 262.891782 91.67968 
L 260.786491 84.160781 
L 256.275151 78.446417 
L 250.260031 74.536595 
L 242.440376 72.431303 
L 234.319964 72.431303 
L 225.598047 74.235839 
L 217.176879 76.341125 
L 209.357224 79.348685 
L 203.342104 82.055489 
L 197.928496 84.762293 
L 191.311865 86.266073 
L 184.995995 86.867585 
L 166.950636 87.469096 
L 156.424177 88.67212 
L 148.604521 89.875144 
L 139.581847 91.67968 
L 132.965216 93.484216 
L 125.14556 96.792532 
L 118.528929 100.401604 
L 112.213053 104.612187 
L 107.100202 110.326551 
L 103.190374 115.138647 
L 101.085088 120.251493 
L 94.468456 121.454517 
L 87.250313 121.153761 
L 79.731413 124.462076 
L 73.114781 128.67266 
L 68.302686 134.086268 
L 62.287566 141.605167 
L 57.776232 149.424823 
L 55.370184 158.748258 
L 55.069428 168.071688 
L 55.971696 177.094367 
L 60.18228 184.914023 
L 63.189834 188.222339 
L 68.603442 190.026875 
L 74.017049 192.733678 
L 81.836705 192.432922 
L 89.65636 190.628387 
L 93.566188 190.628387 
L 86.949557 196.34275 
L 80.633681 199.651066 
L 78.227633 206.869204 
L 79.430657 215.891883 
L 82.738973 222.809271 
L 89.054848 228.523634 
L 96.272992 233.034974 
L 101.987356 239.35085 
L 109.807005 245.065208 
L 116.423637 251.080327 
L 124.544048 256.794691 
L 133.265972 261.907543 
L 143.792431 264.012834 
L 155.822665 263.712078 
L 164.544588 262.208299 
L 169.958196 256.945069 
L 174.469536 251.982595 
L 177.025961 248.223145 
L 179.432009 245.065208 
L 181.838057 244.012562 
L 183.341837 247.621633 
L 183.191459 253.185619 
L 190.334411 252.095383 
L 197.439766 248.373523 
L 202.515028 242.959921 
L 207.251932 246.343423 
L 214.018941 248.035177 
L 221.124297 248.035177 
L 228.229659 246.681775 
L 232.289864 244.65167 
L 237.026768 247.696825 
L 246.16223 249.388579 
L 254.282641 252.433729 
L 263.756455 253.110433 
L 269.170062 252.095383 
L 271.876866 246.681775 
L 275.59872 245.66672 
L 280.673976 248.035177 
L 284.057478 252.095383 
L 287.440985 254.802181 
L 294.546341 254.463835 
L 305.711908 252.772081 
L 314.509018 250.065277 
L 324.75805 247.421217 
L 333.555159 247.082871 
L 343.705671 245.729469 
L 358.593092 240.654207 
L 362.314946 242.684313 
L 364.006699 247.082871 
L 369.420307 250.804725 
L 378.555769 254.188226 
L 387.014526 259.940186 
L 397.165038 265.353794 
L 410.699057 268.737296 
L 420.73933 267.465204 
L 432.243249 263.066647 
L 440.363654 258.668089 
L 449.499116 252.239431 
L 458.972929 244.795724 
L 467.770045 235.998614 
L 477.582204 226.524801 
L 483.67251 218.404389 
L 487.732716 209.268928 
L 486.379314 201.148516 
L 482.319108 195.396562 
L 477.582204 193.028105 
L 471.830245 190.998005 
L 478.935606 191.336357 
L 487.732716 193.366457 
L 495.853127 192.351407 
L 501.605087 185.246045 
L 504.988589 173.40378 
L 505.665292 162.57657 
L 501.266735 153.102757 
L 497.883233 144.305647 
L 491.792921 134.15513 
L 482.319108 126.711422 
L 473.86035 121.297815 
L 466.416643 120.621117 
L 456.604477 120.282765 
L 451.529222 120.282765 
L 447.130664 116.222559 
L 441.040358 108.440499 
L 429.198093 100.65844 
L 422.376728 96.372447 
L 414.256317 92.650594 
L 405.797553 89.605438 
L 396.662092 87.575338 
L 387.864982 84.868534 
L 377.714471 84.191836 
L 365.195502 83.853484 
L 353.691588 84.191836 
L 344.556127 81.485032 
L 334.067263 77.763173 
L 325.270154 75.394721 
L 315.457988 73.364621 
L 306.660879 72.011219 
L 299.555517 72.349571 
L 291.773458 74.718023 
L 286.021504 79.793278 
L 281.622946 85.883584 
L 280.269544 94.003996 
L 279.59284 103.139457 
L 279.931192 112.274919 
L 278.239439 119.041928 
L 279.59284 122.087084 
L 285.3448 122.763782 
L 277.56274 124.793888 
L 275.870987 128.854088 
L 272.149133 130.20749 
L 270.711432 129.875684 
L 270.711432 129.875684 
" style="fill:none;stroke:#000000;stroke-linecap:square;stroke-width:1.5;"/>
   </g>
  </g>
 </g>
 <defs>
  <clipPath id="p46c3898041">
   <rect height="342" width="570.24" x="0" y="0"/>
  </clipPath>
 </defs>
</svg>
