<?xml version="1.0" encoding="utf-8" standalone="no"?>
<!DOCTYPE svg PUBLIC "-//W3C//DTD SVG 1.1//EN"
  "http://www.w3.org/Graphics/SVG/1.1/DTD/svg11.dtd">
<!-- Created with matplotlib (https://matplotlib.org/) -->
<svg height="380.16pt" version="1.1" viewBox="0 0 570.24 380.16" width="570.24pt" xmlns="http://www.w3.org/2000/svg" xmlns:xlink="http://www.w3.org/1999/xlink">
 <defs>
  <style type="text/css">
*{stroke-linecap:butt;stroke-linejoin:round;}
  </style>
 </defs>
 <g id="figure_1">
  <g><image xlink:href="../../img/ctx/harborseal_cor_cell.json.ctx-50%25.png" width="570.24px" height="380.15999999999997px"/></g>

  <g id="patch_1">
   <path d="M 0 380.16 
L 570.24 380.16 
L 570.24 0 
L 0 0 
z
" style="fill:none;"/>
  </g>
  <g id="axes_1">
   <g id="line2d_1">
    <path clip-path="url(#pe1b63ad0eb)" d="M 428.237001 220.054197 
L 429.101796 222.334113 
L 428.737293 227.072613 
L 430.195294 231.082113 
L 436.027299 232.904612 
L 428.372796 232.904612 
L 415.615295 232.175611 
L 410.876795 230.71761 
L 405.409294 233.633612 
L 403.222298 240.559108 
L 402.857795 247.849108 
L 402.493298 251.858608 
L 404.315796 257.690612 
L 406.867295 262.064609 
L 403.586795 264.980612 
L 405.773797 269.719112 
L 414.521798 271.54161 
L 425.808814 278.127774 
L 433.488242 277.212664 
L 442.315871 275.746703 
L 452.521873 275.746703 
L 461.998868 276.1112 
L 467.830872 274.288702 
L 472.20487 270.279202 
L 470.382371 264.0827 
L 469.653371 260.802201 
L 467.466369 255.699203 
L 466.737368 252.783201 
L 467.466369 249.502701 
L 467.466369 238.932202 
L 470.746868 233.464701 
L 473.662871 233.464701 
L 471.111372 237.109704 
L 469.288867 241.483701 
L 468.19537 246.951202 
L 467.466369 252.0542 
L 468.559873 255.699203 
L 471.475869 262.989202 
L 474.027368 267.3632 
L 476.94337 270.643699 
L 482.410871 272.466203 
L 488.607373 271.3727 
L 494.074868 267.3632 
L 496.99087 261.531201 
L 497.719871 256.0637 
L 495.897372 250.231702 
L 499.906872 252.783201 
L 504.645373 252.418703 
L 510.112868 253.876704 
L 514.851368 252.0542 
L 519.225372 247.3157 
L 524.32837 244.764201 
L 532.23067 236.942327 
L 532.23067 231.917435 
L 530.436068 228.328225 
L 527.026318 224.91848 
L 524.154954 222.764952 
L 519.488982 221.50873 
L 515.540851 220.970349 
L 511.951641 221.14981 
L 507.644596 221.50873 
L 504.593766 221.50873 
L 508.721357 218.637366 
L 517.87384 217.560599 
L 522.001425 218.996287 
L 526.667397 222.226571 
L 531.333369 226.174702 
L 535.64042 229.046071 
L 540.665312 228.507685 
L 545.869665 223.841719 
L 549.099949 218.637366 
L 550.894557 213.433014 
L 551.432937 207.690281 
L 552.150778 202.665389 
L 551.253477 198.537798 
L 549.458869 196.025349 
L 544.972363 195.666428 
L 539.22963 196.025349 
L 535.99934 197.102116 
L 530.615528 198.358338 
L 527.385238 197.281576 
L 526.308477 193.871826 
L 541.742074 195.128048 
L 547.305346 194.948587 
L 550.715096 194.051286 
L 553.22754 191.179923 
L 554.483761 185.257729 
L 554.304301 179.15607 
L 552.150778 174.131178 
L 549.099949 171.080354 
L 545.151824 169.285752 
L 538.870704 168.567905 
L 540.665312 166.234922 
L 542.100994 161.38949 
L 544.196791 157.805298 
L 544.196791 152.421485 
L 542.043269 144.884144 
L 534.326467 131.962996 
L 529.839956 125.681883 
L 525.891831 120.47753 
L 523.112823 116.312469 
L 518.267391 111.825957 
L 515.588062 109.612993 
L 511.28101 108.895152 
L 508.948022 106.023788 
L 508.230181 101.178356 
L 506.435578 95.794543 
L 502.487448 90.949112 
L 496.744715 84.667998 
L 490.284141 80.181486 
L 484.900328 76.771736 
L 479.875436 76.053895 
L 475.568385 77.310117 
L 473.414862 82.155549 
L 471.79972 88.257202 
L 471.70438 89.925625 
L 471.440794 86.10368 
L 473.953242 80.360947 
L 473.953242 76.771736 
L 472.876481 73.182532 
L 470.184572 69.952242 
L 467.175353 67.193871 
L 462.743949 65.369177 
L 457.530541 63.805152 
L 452.577802 63.544483 
L 446.061036 64.847835 
L 440.586955 67.715213 
L 435.634215 70.582591 
L 430.420802 73.449963 
L 425.207388 76.838682 
L 420.254648 81.530754 
L 417.387271 85.180142 
L 413.998557 89.090198 
L 411.391853 92.739585 
L 411.391853 98.213667 
L 410.349169 95.606963 
L 411.131179 90.654223 
L 417.387271 81.791422 
L 420.515322 77.881366 
L 429.89946 70.061249 
L 433.027505 67.193871 
L 439.283603 65.108509 
L 444.236342 62.5018 
L 443.715001 56.76705 
L 441.368965 52.335646 
L 436.937567 48.425591 
L 431.984827 45.036871 
L 425.989404 41.908825 
L 420.515322 40.344805 
L 409.567153 39.302121 
L 403.832404 38.520111 
L 399.401006 38.520111 
L 395.230276 39.041453 
L 391.059546 41.126815 
L 389.234853 44.515535 
L 391.841556 55.203024 
L 393.405582 60.155764 
L 393.66625 61.459121 
L 391.320215 58.070402 
L 389.234853 53.37833 
L 387.931501 48.164922 
L 387.149485 42.430167 
L 384.542781 37.738095 
L 378.286689 34.088708 
L 373.755403 29.787849 
L 367.499311 26.659798 
L 362.285898 25.61712 
L 357.8545 25.61712 
L 352.380418 25.877788 
L 346.906337 26.39913 
L 341.953591 27.963155 
L 338.043535 30.309185 
L 334.394148 32.133879 
L 332.830122 33.697905 
L 330.223418 34.740589 
L 326.57403 37.347293 
L 323.185311 41.518023 
L 323.967326 47.252772 
L 326.57403 52.466186 
L 329.96275 57.418925 
L 334.915489 61.068313 
L 340.910913 64.978375 
L 348.470357 67.585079 
L 354.987122 68.627762 
L 365.153275 72.016476 
L 369.324005 72.537818 
L 372.973393 70.452456 
L 370.366683 74.883854 
L 370.106015 78.79391 
L 370.627357 86.874701 
L 371.409367 89.481405 
L 368.281321 85.832017 
L 366.717295 81.40062 
L 364.110591 76.187206 
L 360.461204 71.755808 
L 356.551148 70.452456 
L 350.034382 69.409772 
L 341.692923 67.585079 
L 335.6975 64.978375 
L 331.266102 61.589655 
L 327.095372 56.376242 
L 324.488668 50.641492 
L 321.62129 44.646068 
L 314.335859 35.86338 
L 309.904455 33.256676 
L 304.430374 32.735334 
L 299.738308 34.820702 
L 295.306904 38.991432 
L 293.48221 43.422829 
L 295.828246 47.072217 
L 298.695624 52.546299 
L 301.82367 59.323732 
L 304.691047 67.14385 
L 307.588266 71.992407 
L 311.041451 76.008647 
L 314.951507 79.397361 
L 321.72894 83.046748 
L 317.818885 81.743396 
L 312.605471 78.876024 
L 308.695415 75.487305 
L 305.046027 70.273891 
L 302.439318 64.0178 
L 300.614624 58.804386 
L 298.78993 54.89433 
L 296.704568 51.114609 
L 293.967525 47.334881 
L 290.694336 45.499495 
L 287.957292 45.369161 
L 283.916902 47.063515 
L 281.440532 50.061227 
L 280.658516 54.753299 
L 280.658516 59.315036 
L 280.91919 64.919452 
L 281.7012 70.002526 
L 283.134886 74.433929 
L 285.480922 76.910299 
L 289.912325 79.777671 
L 287.43595 82.38438 
L 286.132598 85.773094 
L 286.132598 93.07187 
L 286.656894 97.380643 
L 287.717671 102.25031 
L 289.519898 105.558729 
L 292.812777 106.370636 
L 297.504843 105.588626 
L 302.110597 104.154935 
L 305.885603 102.508926 
L 311.735604 102.076923 
L 319.025604 101.833921 
L 326.801607 101.347923 
L 332.876608 103.534924 
L 339.194605 106.693923 
L 344.540605 109.609925 
L 348.185607 112.525921 
L 352.316603 117.142926 
L 346.727606 114.712923 
L 338.708606 110.338925 
L 332.633606 107.665925 
L 326.558605 105.721926 
L 315.380607 104.020923 
L 307.118605 105.721926 
L 301.286606 106.693923 
L 294.482605 107.422923 
L 289.136605 109.609925 
L 286.949604 114.469926 
L 285.491603 119.572924 
L 288.407605 125.647925 
L 292.781608 130.750923 
L 299.342607 131.479923 
L 305.174605 131.479923 
L 310.520605 130.264924 
L 314.408604 131.965922 
L 320.240603 134.395925 
L 324.614606 136.825923 
L 327.530608 139.012925 
L 315.623603 132.937924 
L 309.305606 132.451926 
L 301.529603 132.937924 
L 294.725607 134.881924 
L 290.351604 138.526926 
L 288.893603 143.629924 
L 288.650607 150.190923 
L 291.080605 155.293921 
L 295.940606 158.209923 
L 302.258603 157.723925 
L 312.221603 155.779925 
L 307.361607 158.452925 
L 298.856603 160.396925 
L 289.379607 161.368922 
L 279.902606 161.854926 
L 273.584604 161.368922 
L 267.266607 160.396925 
L 259.733605 156.022922 
L 264.107603 157.480923 
L 270.911604 160.153923 
L 278.201603 158.452925 
L 282.332604 153.592924 
L 283.061605 148.732922 
L 283.304607 143.386922 
L 285.005604 138.283924 
L 285.005604 133.423923 
L 283.547603 128.563921 
L 280.388605 126.376925 
L 275.285607 127.105926 
L 256.331605 135.367922 
L 250.013608 137.554924 
L 251.471603 133.909921 
L 258.032608 130.021922 
L 265.565604 127.348922 
L 273.098605 124.918924 
L 278.930604 120.544921 
L 280.388605 116.170924 
L 281.603604 111.553924 
L 280.388605 106.207924 
L 277.715605 100.861924 
L 274.313604 97.702926 
L 269.939607 96.244925 
L 266.051608 95.758926 
L 261.191606 95.515924 
L 256.331605 97.216922 
L 247.097606 105.478924 
L 242.237604 108.880924 
L 237.134606 112.768923 
L 233.003605 116.413926 
L 231.059606 119.572924 
L 229.358603 123.217921 
L 227.171607 126.862924 
L 225.713606 130.264924 
L 223.040606 131.965922 
L 221.096606 129.535924 
L 223.283608 125.404923 
L 227.171607 121.030925 
L 232.274605 115.684925 
L 237.863607 110.581922 
L 243.209607 106.693923 
L 247.826606 103.534924 
L 250.499606 100.132924 
L 255.359608 96.244925 
L 259.976607 94.300925 
L 264.350605 95.029926 
L 268.481606 95.515924 
L 273.098605 94.300925 
L 276.986604 88.954925 
L 277.229606 83.365923 
L 277.788664 77.604161 
L 278.228416 71.275883 
L 277.013417 65.443879 
L 276.284416 59.854882 
L 276.284416 52.564883 
L 273.682354 47.137356 
L 268.355241 44.556261 
L 262.766244 44.313259 
L 257.906243 45.77126 
L 254.535765 49.842272 
L 250.26185 62.139999 
L 249.532856 67.729001 
L 245.644851 73.561 
L 241.546935 76.318903 
L 243.61292 72.494594 
L 245.799922 67.634593 
L 246.28592 62.288593 
L 247.986924 57.914595 
L 250.659924 52.082597 
L 253.575926 47.222595 
L 254.061924 41.876595 
L 250.902926 37.988596 
L 244.827925 34.829592 
L 236.565923 33.371597 
L 229.518926 33.614593 
L 223.686921 35.315596 
L 218.826926 37.502592 
L 216.153926 43.334596 
L 212.751925 50.381594 
L 209.835923 54.998593 
L 206.19092 57.914595 
L 203.274924 62.774597 
L 202.788926 68.120597 
L 201.573921 74.195592 
L 200.84492 82.457594 
L 199.531321 77.927613 
L 198.559324 67.964613 
L 198.316322 62.86161 
L 203.176324 59.216613 
L 207.793323 53.870613 
L 211.681322 49.739612 
L 214.354322 45.122612 
L 214.840321 40.748609 
L 213.893055 37.403741 
L 209.935259 35.204599 
L 203.374254 35.204599 
L 196.813255 37.634597 
L 189.766258 41.522602 
L 185.392255 45.896599 
L 181.261254 45.896599 
L 176.887256 43.952599 
L 171.298254 44.924602 
L 166.438258 50.0276 
L 162.064255 54.887602 
L 163.522256 60.233602 
L 167.410255 66.794601 
L 171.541256 72.626599 
L 173.485256 78.458597 
L 172.999257 83.318599 
L 172.270257 85.019602 
L 171.298254 82.1036 
L 170.569254 77.486601 
L 169.111258 71.897598 
L 166.924257 68.495598 
L 159.634257 58.775601 
L 155.503256 55.859598 
L 150.400258 54.401597 
L 143.353255 55.3736 
L 135.577257 57.803598 
L 129.016258 61.691597 
L 124.156257 66.551598 
L 119.782254 71.897598 
L 120.754256 76.514598 
L 124.885257 80.402597 
L 133.390256 87.935598 
L 137.493195 93.249836 
L 141.925009 97.289587 
L 145.763728 100.97648 
L 148.922727 104.864479 
L 149.408725 109.72448 
L 145.763728 106.808478 
L 140.660724 100.97648 
L 135.314724 95.873482 
L 125.594727 88.826479 
L 120.248727 87.125481 
L 114.173727 86.396481 
L 110.771726 84.452481 
L 108.098726 82.022478 
L 101.051729 82.26548 
L 95.164788 82.970986 
L 89.085322 85.645566 
L 84.954321 89.047566 
L 81.309318 93.421564 
L 81.309318 97.795567 
L 83.010322 103.627565 
L 84.954321 109.702566 
L 86.229497 119.591839 
L 87.687498 122.750838 
L 87.444496 127.124841 
L 85.500497 131.74184 
L 84.074543 136.460308 
L 83.102541 140.834311 
L 79.943542 149.582312 
L 80.672543 153.227309 
L 81.887542 157.115308 
L 83.831541 161.003312 
L 83.831541 162.947312 
L 81.401543 160.76031 
L 79.214542 157.844308 
L 76.784538 155.657312 
L 74.35454 152.01231 
L 76.29854 149.582312 
L 79.457538 148.367313 
L 83.588539 138.404308 
L 83.102541 134.516309 
L 81.158541 130.62831 
L 81.182526 127.145677 
L 83.5374 121.523812 
L 84.266401 117.392811 
L 84.752399 112.046811 
L 82.8084 107.18681 
L 80.1354 103.784809 
L 75.275398 105.485812 
L 69.4434 106.214813 
L 64.583398 109.616813 
L 59.966398 113.990811 
L 56.564398 117.87881 
L 55.349399 121.523812 
L 58.265401 128.084811 
L 56.0784 124.925813 
L 52.190401 122.738811 
L 48.302402 124.925813 
L 44.171401 128.57081 
L 41.255398 132.701811 
L 38.582398 138.533809 
L 39.055299 143.978694 
L 40.271655 149.096627 
L 42.944655 153.227628 
L 46.346655 154.442627 
L 50.720653 153.713626 
L 47.075656 156.386626 
L 46.346655 160.760624 
L 46.346655 165.377623 
L 47.075656 171.452624 
L 49.748656 176.069623 
L 53.879657 177.041626 
L 60.197654 177.284628 
L 65.300657 177.284628 
L 70.889654 178.985625 
L 69.674655 184.331625 
L 69.674655 188.462626 
L 72.833653 194.051623 
L 76.964654 197.939627 
L 82.067658 199.154626 
L 87.656654 199.154626 
L 92.273654 195.995628 
L 89.600654 198.668628 
L 84.740658 200.126623 
L 79.394658 199.397623 
L 74.534656 197.453623 
L 70.889654 192.836624 
L 67.730655 183.116626 
L 65.786656 179.714626 
L 62.141653 178.742623 
L 58.010658 178.013623 
L 51.935657 178.013623 
L 47.561654 177.284628 
L 44.402656 174.854624 
L 43.187657 171.209627 
L 42.944655 166.592628 
L 43.673655 162.461627 
L 43.916657 160.031623 
L 42.215654 156.629623 
L 37.598655 153.227628 
L 31.037656 154.199625 
L 25.934658 158.573628 
L 21.803657 164.891625 
L 18.887655 177.527624 
L 19.130657 184.331625 
L 20.345656 189.434623 
L 26.663653 190.892624 
L 32.981655 193.565624 
L 24.719653 191.378623 
L 20.345656 192.836624 
L 18.401656 195.995628 
L 17.672656 201.341628 
L 16.214655 206.687628 
L 16.214655 214.706628 
L 17.452349 219.10806 
L 21.568547 223.622633 
L 25.456551 223.37963 
L 29.349084 220.687351 
L 34.194442 216.375584 
L 39.540442 214.431578 
L 45.129444 215.646583 
L 51.204444 217.104578 
L 56.550444 219.777578 
L 60.438443 223.665583 
L 53.391446 218.805581 
L 48.045446 216.61858 
L 41.970445 216.61858 
L 29.334446 221.721584 
L 25.932445 224.880582 
L 24.960443 227.796578 
L 24.960443 234.114581 
L 26.904442 240.432584 
L 32.007446 245.292579 
L 37.110444 246.75058 
L 41.970445 246.02158 
L 46.587445 242.619579 
L 49.746443 239.946579 
L 54.606445 238.974583 
L 50.475444 240.67558 
L 46.587445 243.834578 
L 45.372446 246.993583 
L 46.344443 252.582579 
L 49.503441 257.199578 
L 54.363443 262.78858 
L 58.980442 263.517581 
L 63.98634 262.565286 
L 66.910804 263.560988 
L 72.013802 263.074983 
L 75.658805 259.186985 
L 77.8458 254.326989 
L 78.817803 248.980989 
L 80.275804 246.307989 
L 79.7898 251.653989 
L 77.359802 257.242985 
L 74.929804 261.616988 
L 71.7708 266.233988 
L 70.555801 271.822984 
L 73.228801 277.411986 
L 78.817803 279.355986 
L 86.350805 280.084986 
L 93.397802 279.355986 
L 99.472802 274.981988 
L 105.304801 268.663986 
L 106.823755 264.786901 
L 107.795752 260.169902 
L 107.066757 256.767901 
L 107.552755 253.122898 
L 106.337756 249.720898 
L 103.907753 246.804902 
L 103.178752 244.374898 
L 107.066757 246.075901 
L 108.524752 250.6929 
L 108.281756 255.066898 
L 108.281756 258.954903 
L 108.524752 263.3289 
L 107.795752 267.459901 
L 108.281756 271.104898 
L 110.468752 277.179898 
L 114.599753 282.525898 
L 125.048756 283.011903 
L 142.787754 282.525898 
L 152.750753 281.310899 
L 167.330752 277.179898 
L 173.891757 274.263902 
L 174.863754 268.188902 
L 175.592754 260.412898 
L 175.106756 254.823902 
L 174.134753 249.477902 
L 170.732753 245.589903 
L 169.274752 240.729901 
L 165.386753 237.3279 
L 160.040753 235.869899 
L 153.479754 239.2719 
L 145.946752 241.215899 
L 140.357756 242.187902 
L 142.787754 237.813899 
L 143.759756 233.682898 
L 142.301755 228.5799 
L 141.572755 223.2339 
L 144.002753 220.803902 
L 146.918755 213.999901 
L 144.974755 208.653901 
L 148.376756 213.999901 
L 146.432756 220.5609 
L 145.460754 225.9069 
L 148.619752 233.196899 
L 154.208754 234.897903 
L 162.470756 230.280903 
L 165.386753 228.093902 
L 167.816756 221.2899 
L 172.190754 213.756899 
L 180.452756 206.952898 
L 187.499753 201.363902 
L 194.789753 197.718899 
L 203.537753 195.531903 
L 207.911756 188.970898 
L 207.911756 180.708902 
L 205.238756 173.418903 
L 201.593754 167.343902 
L 196.976754 162.240898 
L 203.249486 165.112017 
L 216.857488 171.673016 
L 215.15649 175.075016 
L 217.343486 179.206017 
L 221.960486 180.421016 
L 220.988489 185.52402 
L 222.932488 191.356018 
L 227.063489 195.730016 
L 234.596491 198.160019 
L 242.372489 199.132016 
L 250.634491 198.88902 
L 260.354488 195.244017 
L 268.61649 191.842017 
L 278.336488 189.169017 
L 288.299487 188.440016 
L 293.402491 188.926021 
L 298.262487 192.328015 
L 308.71149 194.272021 
L 319.40349 195.244017 
L 329.290534 195.956264 
L 337.309534 193.283264 
L 340.468532 188.423263 
L 340.954536 183.806263 
L 340.225536 178.703265 
L 342.898536 176.75926 
L 343.384534 173.357265 
L 341.440535 169.469261 
L 346.300536 166.553264 
L 353.104532 161.936265 
L 365.254533 155.861264 
L 361.123532 160.964262 
L 356.506532 167.768263 
L 352.132535 173.114263 
L 350.431532 178.946262 
L 352.375537 185.750263 
L 356.992536 192.311262 
L 357.478535 198.629264 
L 354.319536 201.788263 
L 358.693534 204.461263 
L 357.235533 206.648264 
L 361.852532 207.863263 
L 368.413537 207.134263 
L 373.759537 207.863263 
L 378.376536 210.779265 
L 385.361794 214.315113 
L 393.016296 216.502108 
L 401.035296 219.782608 
L 404.680293 224.156611 
L 409.783297 226.70811 
L 418.166794 229.259609 
L 423.269798 227.801608 
L 426.550298 223.42761 
L 428.237001 220.054197 
L 428.237001 220.054197 
" style="fill:none;stroke:#000000;stroke-linecap:square;stroke-width:1.5;"/>
   </g>
   <g id="line2d_2">
    <path clip-path="url(#pe1b63ad0eb)" d="M 471.585085 92.013258 
L 471.440794 94.538322 
L 474.132703 98.845367 
L 475.030004 103.511339 
L 471.620254 107.45947 
L 467.851589 110.330839 
L 464.441839 115.355726 
L 460.134788 120.021697 
L 455.468822 123.790368 
L 450.98231 128.6358 
L 447.75202 131.327703 
L 452.238532 126.482271 
L 457.263424 121.636845 
L 462.467776 115.714652 
L 466.056981 110.510299 
L 466.954288 106.562169 
L 466.056981 102.075657 
L 467.492668 98.306987 
L 470.543492 95.435623 
L 471.585085 92.013258 
L 471.585085 92.013258 
" style="fill:none;stroke:#000000;stroke-linecap:square;stroke-width:1.5;"/>
   </g>
  </g>
 </g>
 <defs>
  <clipPath id="pe1b63ad0eb">
   <rect height="380.16" width="570.24" x="0" y="0"/>
  </clipPath>
 </defs>
</svg>
