<?xml version="1.0" encoding="utf-8" standalone="no"?>
<!DOCTYPE svg PUBLIC "-//W3C//DTD SVG 1.1//EN"
  "http://www.w3.org/Graphics/SVG/1.1/DTD/svg11.dtd">
<!-- Created with matplotlib (https://matplotlib.org/) -->
<svg height="414.72pt" version="1.1" viewBox="0 0 673.92 414.72" width="673.92pt" xmlns="http://www.w3.org/2000/svg" xmlns:xlink="http://www.w3.org/1999/xlink">
 <defs>
  <style type="text/css">
*{stroke-linecap:butt;stroke-linejoin:round;}
  </style>
 </defs>
 <g id="figure_1">
  <g><image xlink:href="../../img/ctx/hedgehog_cor_cell.json.ctx-50%25.png" width="673.92px" height="414.71999999999997px"/></g>

  <g id="patch_1">
   <path d="M 0 414.72 
L 673.92 414.72 
L 673.92 0 
L 0 0 
z
" style="fill:none;"/>
  </g>
  <g id="axes_1">
   <g id="line2d_1">
    <path clip-path="url(#p0bef69abee)" d="M 329.804567 146.959558 
L 332.828068 140.53462 
L 333.583944 127.30681 
L 333.206003 118.236305 
L 332.450127 111.811368 
L 332.450127 105.38643 
L 333.583944 98.961493 
L 334.339813 92.536555 
L 334.339813 86.111617 
L 332.828068 80.820489 
L 327.914875 75.529368 
L 319.222318 68.348555 
L 316.198816 63.435369 
L 311.285629 59.655991 
L 305.994501 57.766306 
L 295.034311 55.49868 
L 288.231439 56.254555 
L 279.91681 57.388365 
L 266.689 58.900116 
L 260.641997 60.033926 
L 252.327374 60.789801 
L 244.390686 61.167742 
L 236.831932 61.167742 
L 230.02906 60.411867 
L 222.470306 59.27805 
L 216.045368 57.388365 
L 210.376306 55.876614 
L 206.218994 55.120739 
L 200.927866 56.254555 
L 196.770555 58.522182 
L 191.479427 61.545677 
L 186.56624 64.569178 
L 182.408929 66.836804 
L 177.495742 68.348555 
L 172.96049 69.482365 
L 169.181113 72.127932 
L 166.157618 74.395552 
L 159.694691 78.329499 
L 151.756412 84.376422 
L 149.110852 88.155799 
L 142.685914 93.446927 
L 138.150662 97.604238 
L 134.371285 101.761549 
L 130.969849 106.674736 
L 128.702222 112.721739 
L 125.300786 118.390802 
L 123.03316 125.193674 
L 117.364098 136.531805 
L 115.096472 143.334677 
L 110.183285 146.736113 
L 104.892157 149.003739 
L 98.719562 150.888653 
L 90.783352 153.555583 
L 77.933477 163.759898 
L 70.752664 170.184836 
L 62.438041 180.011209 
L 59.036605 186.436147 
L 56.013103 191.727275 
L 55.635162 200.419839 
L 56.391038 211.002088 
L 57.902789 222.718153 
L 60.92629 232.922461 
L 65.461543 243.504717 
L 71.508539 255.220776 
L 74.154107 261.267779 
L 76.799667 266.180966 
L 79.445228 272.983844 
L 85.492231 278.652907 
L 92.295103 284.321969 
L 100.987667 287.723405 
L 110.058172 289.61309 
L 118.750729 292.636592 
L 130.844735 299.061529 
L 144.072545 303.974723 
L 159.945922 307.376159 
L 176.953109 311.53347 
L 193.204427 316.824598 
L 205.591784 320.058423 
L 217.317082 320.065149 
L 260.024026 321.5769 
L 267.582773 324.600395 
L 275.141527 327.245962 
L 285.723776 332.159149 
L 293.660465 335.560585 
L 300.463343 335.938526 
L 311.801468 334.048834 
L 319.360215 331.403274 
L 322.383717 324.22246 
L 323.517527 318.175457 
L 320.116091 306.837333 
L 319.360215 303.057956 
L 320.116091 297.010959 
L 320.494032 289.830146 
L 321.249907 284.161084 
L 322.761651 280.003773 
L 326.541028 275.090579 
L 329.942464 270.933268 
L 332.965966 267.909766 
L 338.257094 266.775956 
L 342.792346 269.421517 
L 348.461409 276.224395 
L 351.106969 281.893458 
L 346.193782 305.703523 
L 345.059966 313.26227 
L 344.682031 317.797523 
L 345.815841 323.844519 
L 351.484903 331.403274 
L 359.043658 334.426775 
L 366.602405 336.31646 
L 382.097847 329.891523 
L 391.546287 327.245962 
L 403.262345 323.844519 
L 411.954909 320.821024 
L 426.694476 320.065149 
L 438.566669 320.3746 
L 452.17459 319.996194 
L 463.890655 319.240318 
L 472.205278 318.48445 
L 492.991842 314.327131 
L 502.440281 312.059505 
L 508.865219 307.146318 
L 516.801907 305.256633 
L 526.628281 303.366948 
L 539.100222 299.965505 
L 552.705972 296.564069 
L 559.886785 293.162633 
L 571.22491 289.005322 
L 579.917474 284.470069 
L 587.098287 278.801007 
L 592.389414 272.754004 
L 595.034975 265.951132 
L 596.92466 256.124752 
L 598.488121 249.417684 
L 600.471946 242.13335 
L 603.497699 235.327992 
L 605.38739 228.903054 
L 608.032951 220.966365 
L 612.190262 212.651743 
L 617.103449 194.888674 
L 617.103449 181.282923 
L 613.324079 175.235927 
L 611.434387 169.566858 
L 609.922636 165.409546 
L 606.899141 160.874301 
L 596.316885 151.04792 
L 588.758138 147.646484 
L 581.577325 145.378858 
L 575.152387 144.245048 
L 567.593633 143.111232 
L 562.680447 141.977422 
L 557.389325 137.820111 
L 553.987883 131.395173 
L 551.720256 124.592294 
L 546.429135 115.143855 
L 543.027699 108.718917 
L 532.067509 97.002859 
L 527.154322 92.845541 
L 521.863195 88.688229 
L 516.194132 85.286793 
L 508.257444 80.373606 
L 501.076631 77.350105 
L 493.866543 73.153511 
L 485.17007 68.240027 
L 475.721631 64.838591 
L 468.162883 61.81509 
L 459.848261 60.303339 
L 446.620444 60.303339 
L 439.817566 59.925404 
L 433.392628 58.413654 
L 426.96769 57.279837 
L 419.408943 56.146027 
L 409.582569 55.390152 
L 400.512064 55.768093 
L 394.087127 55.768093 
L 388.04013 54.634277 
L 380.859317 54.256342 
L 375.568189 55.390152 
L 371.788812 57.279837 
L 367.631501 59.547463 
L 364.607999 62.570965 
L 361.584498 66.350342 
L 360.072747 68.617968 
L 357.427186 70.885588 
L 353.647809 73.153214 
L 351.002249 75.042906 
L 347.600813 77.688467 
L 344.577311 81.089902 
L 342.687626 83.73547 
L 340.797934 87.51484 
L 339.286183 91.294217 
L 338.530308 98.47503 
L 337.396498 104.144092 
L 335.506813 108.301404 
L 335.128872 112.458722 
L 336.640623 118.88366 
L 337.018564 126.442407 
L 336.262688 131.355594 
L 335.506813 139.292282 
L 334.750937 143.449594 
L 335.128872 145.339285 
L 337.774432 147.984846 
L 334.372996 149.118663 
L 329.804567 146.959558 
L 329.804567 146.959558 
" style="fill:none;stroke:#000000;stroke-linecap:square;stroke-width:1.5;"/>
   </g>
  </g>
 </g>
 <defs>
  <clipPath id="p0bef69abee">
   <rect height="414.72" width="673.92" x="0" y="0"/>
  </clipPath>
 </defs>
</svg>
