<?xml version="1.0" encoding="utf-8" standalone="no"?>
<!DOCTYPE svg PUBLIC "-//W3C//DTD SVG 1.1//EN"
  "http://www.w3.org/Graphics/SVG/1.1/DTD/svg11.dtd">
<!-- Created with matplotlib (https://matplotlib.org/) -->
<svg height="699.84pt" version="1.1" viewBox="0 0 933.12 699.84" width="933.12pt" xmlns="http://www.w3.org/2000/svg" xmlns:xlink="http://www.w3.org/1999/xlink">
 <defs>
  <style type="text/css">
*{stroke-linecap:butt;stroke-linejoin:round;}
  </style>
 </defs>
 <g id="figure_1">
  <g><image xlink:href="../../img/ctx/howler_cor_cell.json.ctx-50%25.png" width="933.12px" height="699.8399999999999px"/></g>

  <g id="patch_1">
   <path d="M 0 699.84 
L 933.12 699.84 
L 933.12 0 
L 0 0 
z
" style="fill:none;"/>
  </g>
  <g id="axes_1">
   <g id="line2d_1">
    <path clip-path="url(#pc626c7e53b)" d="M 418.020852 246.111688 
L 422.639441 251.150144 
L 429.777259 254.509124 
L 439.014438 255.768733 
L 449.091359 254.089248 
L 452.870206 249.890534 
L 454.969558 243.59245 
L 455.80931 237.714252 
L 456.229177 231.416177 
L 455.389434 224.278359 
L 453.709948 211.6822 
L 451.610587 203.284774 
L 450.350978 196.98669 
L 449.511226 190.268748 
L 447.83174 184.39054 
L 444.892646 178.512341 
L 440.693923 173.473876 
L 436.075334 168.855286 
L 431.87662 167.175801 
L 416.761233 168.015544 
L 407.94393 170.954648 
L 402.485598 174.733494 
L 397.447133 177.252722 
L 392.408677 178.092465 
L 387.370211 181.871312 
L 381.492013 185.650159 
L 374.774062 190.688615 
L 388.209963 178.092465 
L 394.088162 173.893752 
L 397.447133 169.275162 
L 404.58496 168.015544 
L 412.142644 167.595677 
L 420.959956 166.755934 
L 432.296487 164.656573 
L 439.014438 160.037984 
L 444.47277 153.320033 
L 447.83174 144.922597 
L 447.83174 138.204655 
L 446.991998 129.807219 
L 447.411874 121.829659 
L 446.572131 112.59248 
L 445.732388 104.61492 
L 444.052894 97.896969 
L 442.793284 92.018761 
L 444.052894 84.041201 
L 443.213151 75.223898 
L 441.533666 67.666205 
L 439.434304 61.36813 
L 435.235591 52.130951 
L 429.777259 44.993134 
L 422.219565 41.214287 
L 414.242005 38.695059 
L 403.745217 39.114925 
L 392.828543 39.954668 
L 374.774062 42.473905 
L 367.636244 44.153391 
L 360.918294 45.413 
L 352.100991 47.932238 
L 335.725994 53.39057 
L 326.068949 57.589283 
L 309.693943 66.826462 
L 300.87664 71.025175 
L 290.379852 76.483507 
L 281.982416 82.361715 
L 274.004856 87.400172 
L 260.149088 97.477093 
L 251.331776 102.935425 
L 244.193958 108.813633 
L 239.155502 112.59248 
L 232.017675 120.150173 
L 221.473475 125.954581 
L 208.45745 133.932141 
L 197.120919 141.069968 
L 189.143359 146.948167 
L 183.685027 153.666118 
L 173.608105 158.704574 
L 163.111308 166.262267 
L 143.797207 183.057139 
L 136.65939 191.0347 
L 128.68183 201.111621 
L 121.963879 211.188543 
L 116.925423 220.425721 
L 112.7267 229.243024 
L 108.527987 238.480203 
L 105.169007 252.335971 
L 106.008759 260.313531 
L 107.268368 268.710968 
L 111.047215 276.688528 
L 115.245928 283.826345 
L 123.643364 289.284677 
L 132.880543 291.384039 
L 141.277979 291.803915 
L 151.774767 290.964163 
L 160.172204 288.025068 
L 167.729897 286.765449 
L 176.5472 283.406479 
L 186.204255 282.566736 
L 192.922196 280.467375 
L 202.159375 278.368013 
L 208.877326 275.428909 
L 217.274762 272.489814 
L 231.13053 266.611606 
L 220.633733 271.650072 
L 212.656172 275.009042 
L 205.098479 278.787889 
L 197.120919 282.14686 
L 190.822844 285.505831 
L 185.784379 289.704553 
L 183.265151 293.063524 
L 179.486304 296.002628 
L 172.348486 298.101989 
L 163.95105 298.941732 
L 157.652975 299.361599 
L 152.614519 298.521856 
L 146.316435 296.422504 
L 140.438236 294.323143 
L 128.267272 291.806415 
L 121.969198 289.287187 
L 117.350608 288.867311 
L 110.632657 290.12693 
L 102.235231 293.066034 
L 93.417918 295.165386 
L 84.600616 299.364109 
L 77.462798 304.822441 
L 70.324971 310.70064 
L 62.347411 320.777561 
L 56.469212 330.434616 
L 51.850623 340.931404 
L 49.331386 349.748716 
L 47.232034 359.825638 
L 46.392291 368.642941 
L 46.812158 376.620501 
L 47.6519 382.078833 
L 49.751262 388.376908 
L 52.27049 393.83524 
L 53.949975 399.713448 
L 54.369851 407.271142 
L 58.148698 416.088444 
L 63.187154 424.066004 
L 68.645486 431.203822 
L 75.363437 434.982669 
L 84.18074 434.982669 
L 94.257661 432.463441 
L 103.49484 428.684594 
L 111.892276 424.066004 
L 119.030094 419.867291 
L 124.488426 415.248702 
L 132.046119 411.889731 
L 138.344194 409.370494 
L 143.802526 406.011523 
L 148.421115 404.751904 
L 144.642269 408.950627 
L 139.183937 413.989083 
L 134.985223 419.027548 
L 130.7865 421.546776 
L 125.748044 423.226262 
L 119.869836 425.325623 
L 115.251247 429.524337 
L 108.533305 430.783955 
L 100.555736 432.463441 
L 94.257661 434.142926 
L 89.219205 435.822411 
L 83.340997 437.501906 
L 78.722408 438.341649 
L 73.683951 441.700619 
L 69.485229 447.578818 
L 67.385877 453.876902 
L 66.126258 460.174977 
L 65.706391 466.053176 
L 67.385877 470.251899 
L 69.444834 474.188835 
L 70.704443 477.967681 
L 67.345473 483.426013 
L 63.986502 489.724088 
L 63.146759 497.701658 
L 63.566626 506.938836 
L 63.566626 515.336263 
L 63.986502 525.833061 
L 64.826245 532.131136 
L 67.765349 536.749725 
L 69.864701 540.528572 
L 69.864701 546.40677 
L 71.964062 553.964464 
L 75.323033 561.942024 
L 82.460859 569.919594 
L 88.758934 575.797792 
L 97.845022 580.648271 
L 106.242458 582.747633 
L 115.479637 586.526479 
L 125.556559 590.305317 
L 135.213604 593.244421 
L 143.61104 597.023268 
L 151.588601 599.962372 
L 162.085398 604.161085 
L 173.002062 606.260447 
L 186.018079 606.680313 
L 198.194361 603.741218 
L 207.011664 601.221981 
L 213.309748 598.282886 
L 217.508462 593.664297 
L 224.226413 593.664297 
L 230.944354 591.984812 
L 235.982819 590.305317 
L 244.380256 589.465574 
L 252.357816 584.846985 
L 262.854604 579.388653 
L 271.25204 571.830969 
L 278.389857 564.273275 
L 290.56614 552.096992 
L 294.764854 545.798917 
L 298.123834 538.6611 
L 299.383443 531.523283 
L 298.429515 524.801823 
L 296.330153 518.503748 
L 292.971183 512.62555 
L 288.77246 507.587084 
L 282.894261 504.228114 
L 278.275672 502.548628 
L 272.397463 500.869143 
L 266.519265 501.708885 
L 263.580161 503.388371 
L 259.801314 506.327475 
L 255.182725 509.26657 
L 250.144259 513.885159 
L 245.105803 518.923624 
L 235.448758 526.901185 
L 237.128243 522.702471 
L 242.586575 518.083882 
L 247.205164 513.045416 
L 251.823754 508.426827 
L 254.342982 502.968495 
L 254.762849 497.090296 
L 253.503239 492.051831 
L 250.564135 487.013375 
L 247.205164 484.914013 
L 247.205164 479.455681 
L 245.105803 474.837092 
L 239.647471 472.73773 
L 235.868624 470.638378 
L 230.830168 468.11915 
L 224.95196 464.340303 
L 219.493628 463.920427 
L 214.875038 466.439656 
L 208.157088 468.958893 
L 203.118632 470.638378 
L 195.141071 472.73773 
L 188.842997 475.676834 
L 183.804531 479.875557 
L 179.185942 485.753756 
L 174.147486 493.311449 
L 169.528896 501.289009 
L 164.910307 510.526188 
L 162.810946 517.244139 
L 162.39107 528.160803 
L 162.39107 544.955666 
L 161.13146 549.154389 
L 155.253252 549.154389 
L 148.535311 546.635161 
L 143.496845 542.016572 
L 138.878256 535.718497 
L 135.939152 529.840289 
L 134.259666 522.702471 
L 133.8398 515.144778 
L 135.099409 507.587084 
L 137.19877 499.609524 
L 148.115435 482.814652 
L 161.551327 467.279398 
L 167.849411 460.561457 
L 174.987228 454.683249 
L 180.445561 451.744145 
L 187.163502 453.003763 
L 192.201967 452.164021 
L 197.240424 449.644793 
L 202.698756 447.125555 
L 207.737221 447.545431 
L 213.195553 448.385174 
L 216.554524 448.385174 
L 222.432732 455.522991 
L 229.570549 460.981323 
L 240.067338 466.019789 
L 247.205164 466.439656 
L 254.342982 466.439656 
L 260.221181 463.080685 
L 267.359007 465.599913 
L 278.695538 469.37876 
L 298.849381 471.478121 
L 305.567332 471.478121 
L 308.926303 468.539017 
L 310.185921 462.660809 
L 312.285274 459.301838 
L 310.605788 467.279398 
L 311.445531 475.676834 
L 315.644254 484.07427 
L 320.68271 492.891573 
L 325.805482 498.427205 
L 334.202909 506.404765 
L 345.959316 514.382335 
L 358.135599 520.680409 
L 367.372778 524.879123 
L 379.549061 527.818227 
L 387.526621 527.818227 
L 402.641999 527.398351 
L 414.818281 524.03938 
L 420.276613 520.260533 
L 424.05546 511.863097 
L 427.414431 505.145156 
L 429.513792 498.427205 
L 434.972124 492.12913 
L 440.430456 489.190026 
L 446.308665 487.510541 
L 452.606739 483.311827 
L 456.385586 477.853495 
L 459.744557 474.494515 
L 465.622765 476.593877 
L 471.081097 483.731694 
L 479.478524 489.609902 
L 484.097113 492.548997 
L 488.302844 496.213658 
L 496.280404 508.809807 
L 503.418221 515.947625 
L 511.395791 521.825833 
L 521.892579 524.345061 
L 531.969501 524.345061 
L 543.725907 523.085442 
L 554.642572 518.886729 
L 561.780389 516.367501 
L 571.017568 512.588654 
L 578.575261 508.809807 
L 586.132955 504.191218 
L 593.690648 499.152753 
L 599.568847 492.854678 
L 604.607312 486.976479 
L 606.706664 479.418786 
L 610.065645 471.861092 
L 611.74513 465.563017 
L 615.523977 462.204047 
L 619.72269 461.784171 
L 624.341279 463.883532 
L 632.31884 461.364304 
L 641.556018 459.264942 
L 649.533579 457.165581 
L 658.770757 455.066229 
L 667.58807 454.226486 
L 675.303852 454.646353 
L 679.082699 456.325838 
L 685.80065 458.005333 
L 691.678848 455.486096 
L 696.297438 454.226486 
L 699.236542 450.027764 
L 702.175646 443.729689 
L 706.374359 438.271357 
L 711.412825 434.072643 
L 717.7109 430.713663 
L 725.268593 429.034178 
L 733.66602 430.293797 
L 741.223713 431.553406 
L 750.460892 431.553406 
L 757.59871 436.171995 
L 766.416012 443.309822 
L 773.553839 448.348278 
L 780.691657 457.585457 
L 789.50896 466.40276 
L 795.807034 475.639939 
L 800.8455 487.816222 
L 802.524985 498.732886 
L 801.265366 508.809807 
L 798.326272 516.367501 
L 794.547425 523.505318 
L 789.928836 527.704032 
L 784.89037 530.643136 
L 781.111523 531.482878 
L 779.012171 528.123908 
L 777.752553 516.367501 
L 776.492934 508.809807 
L 774.813449 501.252114 
L 771.874354 494.114296 
L 768.93525 488.236088 
L 764.736527 481.518147 
L 761.377556 474.800196 
L 755.499348 468.082245 
L 745.422427 458.845076 
L 739.124352 455.905972 
L 730.726925 454.646353 
L 723.589098 455.066229 
L 719.390385 455.066229 
L 715.191672 453.80661 
L 712.252568 450.44764 
L 710.153206 445.82905 
L 707.214102 445.82905 
L 703.855131 450.027764 
L 701.75577 455.486096 
L 700.496161 458.4252 
L 697.137181 460.944428 
L 691.678848 463.463665 
L 688.739744 465.982893 
L 685.380774 470.181607 
L 684.121164 477.7393 
L 683.281412 485.296994 
L 683.281412 491.175192 
L 685.380774 498.31301 
L 682.44167 493.69442 
L 677.82308 489.07584 
L 671.525005 485.71686 
L 664.387188 485.71686 
L 658.508989 488.655964 
L 650.111553 494.114296 
L 643.813478 499.992505 
L 639.194889 507.130322 
L 635.835909 513.428397 
L 635.835909 519.726472 
L 637.095528 527.284165 
L 641.714117 536.941211 
L 649.691677 546.178389 
L 656.258537 555.113396 
L 666.755335 563.510823 
L 675.992513 571.488392 
L 686.909178 576.526848 
L 694.886738 579.465952 
L 705.383526 582.824923 
L 713.780962 585.34416 
L 718.819428 584.504408 
L 728.896349 584.504408 
L 735.61429 587.863389 
L 743.171984 591.222359 
L 752.829039 592.062102 
L 762.066208 590.802493 
L 770.043778 588.703131 
L 781.800185 584.924284 
L 791.037363 580.305695 
L 800.694409 576.946724 
L 808.252102 574.00762 
L 812.450816 571.068516 
L 818.329024 570.64865 
L 822.947613 567.709545 
L 831.764916 564.770441 
L 838.482867 563.090956 
L 846.007164 559.765372 
L 852.725115 554.30704 
L 857.763571 548.848708 
L 861.542418 542.550633 
L 864.901388 535.832683 
L 867.00075 529.534608 
L 869.100111 521.976914 
L 870.35972 514.839097 
L 870.35972 506.861537 
L 868.680235 502.242947 
L 865.741131 497.624358 
L 864.061646 494.265387 
L 866.161007 488.807055 
L 869.939854 484.608332 
L 871.619339 479.569876 
L 874.97831 467.393593 
L 874.97831 449.339112 
L 874.138567 440.101933 
L 872.878958 432.964115 
L 871.619339 424.986546 
L 869.519978 417.008986 
L 864.901388 410.291044 
L 860.282799 405.672455 
L 852.305239 401.893608 
L 847.686649 400.214123 
L 837.609728 400.214123 
L 831.311653 398.114762 
L 826.693064 397.275019 
L 819.975122 398.114762 
L 815.7764 399.37438 
L 812.837295 397.694886 
L 808.638582 394.755791 
L 807.798839 391.396811 
L 806.119354 388.03784 
L 801.080889 384.678869 
L 796.462299 380.06028 
L 790.164224 375.861557 
L 785.965511 372.502586 
L 782.606531 370.403225 
L 777.987942 367.044254 
L 785.125768 371.242968 
L 790.5841 372.502586 
L 794.782814 373.762205 
L 802.760374 377.960919 
L 808.638582 380.06028 
L 814.936657 381.319889 
L 817.875761 383.839127 
L 823.334093 389.297459 
L 831.731529 392.656429 
L 838.869347 394.755791 
L 848.526392 396.0154 
L 855.244343 394.335915 
L 860.702675 390.557068 
L 866.161007 387.617964 
L 869.519978 381.739765 
L 873.718701 376.281433 
L 874.97831 369.983358 
L 876.77199 362.573247 
L 877.611733 355.015554 
L 877.191866 347.877736 
L 875.932248 340.739919 
L 874.252762 334.021968 
L 871.313658 327.304027 
L 870.893792 323.105304 
L 871.733534 316.807229 
L 871.733534 310.089278 
L 866.695069 300.012357 
L 860.81687 291.195054 
L 855.778405 283.217494 
L 851.999558 276.499543 
L 846.541226 271.041211 
L 839.403408 264.743136 
L 832.265591 260.544423 
L 824.707898 256.765576 
L 818.409823 255.086091 
L 812.111748 255.086091 
L 805.393797 255.925833 
L 800.775208 258.025185 
L 794.897009 262.223908 
L 789.438677 264.323269 
L 784.400212 265.582879 
L 776.496443 264.319761 
L 768.099006 261.800533 
L 759.70157 258.861429 
L 752.983629 256.762067 
L 745.006059 255.082582 
L 738.707985 253.403097 
L 729.050939 251.723611 
L 720.653503 250.044126 
L 704.698383 247.944765 
L 697.560556 247.524889 
L 690.002872 245.425537 
L 684.124664 242.906299 
L 678.666331 241.226814 
L 688.323386 243.326175 
L 692.102224 241.64669 
L 695.461204 240.806947 
L 701.759279 240.387071 
L 709.316972 242.486433 
L 713.935552 245.425537 
L 719.393894 248.364631 
L 727.371454 250.463993 
L 735.349014 251.723611 
L 750.044525 255.082582 
L 760.961189 254.242839 
L 771.877853 252.983221 
L 782.794517 251.303735 
L 792.871439 248.784507 
L 798.749647 245.845403 
L 802.94836 240.387071 
L 804.207979 234.928739 
L 806.727207 229.05054 
L 807.147074 222.33259 
L 805.484851 215.269795 
L 802.890488 208.598593 
L 798.81365 200.444907 
L 794.366176 192.291211 
L 789.918711 187.102504 
L 783.618136 179.319434 
L 779.170671 173.389484 
L 775.093823 170.424505 
L 770.275733 167.088909 
L 767.310763 163.382687 
L 763.604541 157.452728 
L 758.78645 153.005263 
L 755.450845 148.187173 
L 750.262138 144.110325 
L 744.702805 138.921618 
L 737.290361 133.362285 
L 730.619159 128.173568 
L 724.6892 124.837972 
L 716.535514 119.649265 
L 709.12307 115.572417 
L 702.822494 111.495569 
L 695.039424 107.418731 
L 688.368223 102.230014 
L 682.067647 98.153176 
L 672.548787 91.741391 
L 642.528385 72.839655 
L 631.039103 65.797837 
L 620.291053 60.609121 
L 613.990478 59.126636 
L 608.060519 55.049788 
L 602.130569 49.861081 
L 591.011903 44.672374 
L 570.998299 36.518678 
L 559.509016 32.441839 
L 550.243452 30.588728 
L 540.60728 29.47686 
L 532.453594 28.735617 
L 526.153009 28.364991 
L 519.852433 27.253123 
L 513.922474 26.882506 
L 505.398171 26.882506 
L 497.985727 27.623749 
L 492.797011 29.47686 
L 487.608304 32.812456 
L 483.160839 37.259929 
L 478.342749 41.707394 
L 474.636527 48.00797 
L 472.41279 53.196677 
L 469.818436 56.902899 
L 467.224083 60.238504 
L 465.370972 65.056595 
L 465.000346 71.35717 
L 465.000346 83.587705 
L 465.370972 93.965128 
L 466.853457 98.783209 
L 466.482831 104.342542 
L 467.224083 122.13241 
L 467.224083 130.286106 
L 467.965325 135.845439 
L 471.300921 143.257883 
L 477.601506 149.558458 
L 484.272698 154.005923 
L 492.055768 156.600276 
L 497.615101 158.082771 
L 510.216252 162.530235 
L 516.146211 165.124589 
L 530.229857 174.019527 
L 537.271675 179.57886 
L 542.460391 184.767567 
L 535.418564 179.208234 
L 526.894261 172.907659 
L 520.593676 169.201437 
L 514.2931 165.124589 
L 507.251282 162.530235 
L 500.950697 161.418367 
L 495.020748 161.04775 
L 488.720172 161.418367 
L 484.643324 163.271478 
L 480.937102 165.124589 
L 476.489638 170.313305 
L 471.671547 179.949477 
L 470.189053 184.767567 
L 468.706568 188.473789 
L 468.706568 195.515616 
L 469.44781 202.557435 
L 472.060677 215.331586 
L 473.172546 221.632171 
L 473.172546 226.820878 
L 470.948809 232.380211 
L 468.725072 237.568927 
L 469.466324 242.387009 
L 475.766899 250.170079 
L 480.955606 253.876301 
L 487.256182 254.988169 
L 492.444898 254.617543 
L 498.374848 252.02319 
L 503.563564 249.05821 
L 509.86414 242.387009 
L 507.269786 246.834482 
L 500.969211 251.652564 
L 495.409878 254.988169 
L 489.109293 256.470654 
L 476.508142 257.953148 
L 469.83694 257.582523 
L 462.795122 257.582523 
L 455.753295 257.211897 
L 448.711477 257.211897 
L 442.410901 257.953148 
L 435.369074 257.211897 
L 427.95663 255.729412 
L 422.767923 253.505675 
L 418.691075 250.540704 
L 416.467347 247.946342 
L 418.020852 246.111688 
L 418.020852 246.111688 
" style="fill:none;stroke:#000000;stroke-linecap:square;stroke-width:1.5;"/>
   </g>
  </g>
 </g>
 <defs>
  <clipPath id="pc626c7e53b">
   <rect height="699.84" width="933.12" x="0" y="0"/>
  </clipPath>
 </defs>
</svg>
