<?xml version="1.0" encoding="utf-8" standalone="no"?>
<!DOCTYPE svg PUBLIC "-//W3C//DTD SVG 1.1//EN"
  "http://www.w3.org/Graphics/SVG/1.1/DTD/svg11.dtd">
<!-- Created with matplotlib (https://matplotlib.org/) -->
<svg height="678.96pt" version="1.1" viewBox="0 0 933.12 678.96" width="933.12pt" xmlns="http://www.w3.org/2000/svg" xmlns:xlink="http://www.w3.org/1999/xlink">
 <defs>
  <style type="text/css">
*{stroke-linecap:butt;stroke-linejoin:round;}
  </style>
 </defs>
 <g id="figure_1">
  <g><image xlink:href="../../img/ctx/langur_cor_cell.json.ctx-50%25.png" width="933.12px" height="678.9599999999999px"/></g>

  <g id="patch_1">
   <path d="M 0 678.96 
L 933.12 678.96 
L 933.12 0 
L 0 0 
z
" style="fill:none;"/>
  </g>
  <g id="axes_1">
   <g id="line2d_1">
    <path clip-path="url(#p01166e7ae9)" d="M 416.90373 230.436177 
L 422.565902 234.32892 
L 431.05917 237.867787 
L 440.614095 239.991102 
L 450.522914 240.344987 
L 457.60063 238.221673 
L 463.262811 234.32892 
L 468.217221 229.728405 
L 470.340536 222.296795 
L 468.924993 217.696271 
L 466.447783 212.387984 
L 466.093897 208.141346 
L 466.093897 201.771402 
L 465.386126 189.031496 
L 464.678354 183.369315 
L 464.678354 178.061028 
L 464.324468 172.398847 
L 463.616697 166.736665 
L 462.201154 161.074493 
L 460.431725 155.412312 
L 457.246744 152.935111 
L 453.354001 151.165683 
L 449.107362 151.165683 
L 443.799076 151.519568 
L 437.783008 151.519568 
L 427.520312 153.288997 
L 423.981445 155.412312 
L 421.150359 157.889512 
L 417.257616 159.65895 
L 414.42652 160.720607 
L 410.887663 162.490036 
L 407.348796 164.967237 
L 404.51771 168.152218 
L 400.624966 171.33719 
L 396.378328 176.2916 
L 392.83947 179.476571 
L 388.946718 182.661543 
L 385.053974 186.20041 
L 381.161222 191.154811 
L 377.622364 192.216468 
L 374.791278 191.508697 
L 376.560707 188.67761 
L 379.391793 186.554296 
L 383.284545 184.430981 
L 386.469517 181.599886 
L 389.654489 177.707143 
L 393.901128 173.81439 
L 397.793871 170.629418 
L 404.163824 165.675008 
L 407.348796 162.136151 
L 408.410462 159.305064 
L 407.348796 157.889512 
L 408.764348 155.766197 
L 409.47212 153.642883 
L 410.533777 151.873454 
L 415.488178 151.873454 
L 420.088702 153.288997 
L 425.396998 153.288997 
L 429.643627 152.581226 
L 434.244151 151.165683 
L 438.844666 151.165683 
L 444.506847 150.811797 
L 449.461248 150.104025 
L 456.892858 147.980701 
L 460.077839 144.087958 
L 462.908925 138.779662 
L 464.324468 132.763595 
L 465.03224 123.916442 
L 465.740011 117.192612 
L 465.386126 111.884317 
L 464.678354 109.053231 
L 466.801669 103.391049 
L 468.217221 97.728868 
L 469.278878 92.066695 
L 469.98665 85.696742 
L 469.98665 79.326789 
L 469.632764 71.895179 
L 470.45684 61.8651 
L 469.395182 57.618462 
L 467.625754 54.079604 
L 464.794668 47.709651 
L 460.194143 42.75525 
L 453.470305 37.80084 
L 447.100361 34.969754 
L 441.792065 33.200316 
L 436.129884 32.846431 
L 429.052159 30.36923 
L 421.266663 27.184258 
L 413.127291 25.41483 
L 408.172881 23.999277 
L 394.371317 23.291506 
L 379.15422 24.707049 
L 372.076496 26.122601 
L 357.921047 31.430887 
L 351.551094 33.200316 
L 342.70394 34.969754 
L 337.041768 33.908097 
L 327.84072 34.615869 
L 319.347452 36.385297 
L 312.623623 38.508612 
L 307.669213 40.278041 
L 299.175945 42.401365 
L 292.098221 45.232451 
L 285.020496 48.417423 
L 277.942781 53.371833 
L 271.572828 57.972347 
L 262.371789 63.988415 
L 250.339654 69.29671 
L 244.081051 72.249065 
L 234.880012 77.203475 
L 226.74063 82.157875 
L 218.247362 88.881714 
L 213.292952 94.897781 
L 209.754095 100.559963 
L 208.338552 105.868249 
L 209.400209 113.29986 
L 211.523523 115.77706 
L 211.169638 120.73147 
L 212.585181 129.578623 
L 215.770162 139.133548 
L 222.847886 146.565158 
L 231.69504 153.642883 
L 249.035461 163.197808 
L 256.820957 168.152218 
L 266.729767 174.168276 
L 274.161378 178.414914 
L 279.115778 181.953772 
L 280.177435 184.430981 
L 276.992464 183.015429 
L 273.453597 183.369315 
L 270.268625 180.892114 
L 266.729767 177.353257 
L 261.775357 173.81439 
L 256.467062 170.629418 
L 249.743232 168.152218 
L 243.727165 164.613351 
L 239.126641 162.136151 
L 233.818354 160.366722 
L 229.21783 157.889512 
L 225.678972 154.70454 
L 221.432334 152.935111 
L 214.354619 145.149615 
L 212.585181 140.195205 
L 211.877409 130.286395 
L 210.461866 121.085356 
L 210.10798 117.546498 
L 207.276894 110.822659 
L 204.445799 107.637678 
L 200.19917 105.868249 
L 193.121445 105.868249 
L 186.397606 107.283792 
L 182.150977 108.345459 
L 176.13491 110.468774 
L 169.764957 112.945974 
L 162.687233 116.484841 
L 157.732832 119.669813 
L 147.894938 126.712079 
L 141.878871 131.666479 
L 138.340014 136.267003 
L 130.554517 144.760271 
L 126.661774 149.714672 
L 123.476793 155.730739 
L 121.353478 161.039035 
L 118.876278 166.701207 
L 116.752954 172.363388 
L 114.275754 176.963903 
L 111.090782 180.148884 
L 106.844144 184.041628 
L 102.597514 186.872723 
L 97.99699 191.827124 
L 94.104247 196.427648 
L 89.503723 202.797601 
L 85.610979 209.167545 
L 82.425998 215.183612 
L 80.302684 221.907451 
L 77.825483 228.985175 
L 76.40994 236.770671 
L 75.702169 242.786729 
L 75.702169 249.864454 
L 75.348274 254.111092 
L 74.640502 260.12715 
L 73.578845 266.497103 
L 71.809416 272.867056 
L 71.101644 277.113685 
L 69.686101 282.068095 
L 68.624444 286.314724 
L 68.624444 291.976906 
L 71.809416 297.285202 
L 75.348274 301.885716 
L 82.582734 304.92389 
L 88.952687 307.40109 
L 97.09206 309.524414 
L 107.00088 309.170519 
L 117.617462 308.462747 
L 125.402958 307.047204 
L 130.357359 305.631661 
L 136.01954 302.092804 
L 141.681722 299.615594 
L 145.220579 296.784508 
L 152.298304 297.49228 
L 161.853229 297.138394 
L 167.161524 296.784508 
L 176.008678 297.49228 
L 184.855831 297.138394 
L 194.764642 293.953422 
L 203.611795 289.352898 
L 209.627862 285.106269 
L 213.874491 281.213516 
L 218.828901 278.38243 
L 223.07553 274.135791 
L 228.737712 269.889162 
L 233.692122 267.765848 
L 238.646522 264.580867 
L 254.5714 258.918694 
L 252.0942 262.103666 
L 247.493676 267.058067 
L 242.185389 271.304705 
L 236.169322 275.551334 
L 229.799369 277.674658 
L 225.55274 281.213516 
L 222.721645 284.398497 
L 221.306102 286.875697 
L 217.767244 288.29124 
L 213.16672 291.122327 
L 208.920091 294.307308 
L 204.319566 298.907823 
L 200.426823 305.631661 
L 196.180185 312.709386 
L 192.641327 320.494882 
L 186.979145 332.527007 
L 186.979145 338.89696 
L 186.271374 348.451885 
L 184.855831 356.945153 
L 185.209717 366.500077 
L 185.917488 374.285573 
L 186.271374 379.947755 
L 185.563602 382.778841 
L 181.67085 383.486613 
L 176.716449 382.778841 
L 173.531477 382.07107 
L 170.346496 383.840498 
L 173.531477 379.239983 
L 176.716449 372.162259 
L 179.547535 365.43842 
L 180.963078 358.714581 
L 181.67085 351.636857 
L 181.67085 345.974685 
L 183.086402 342.081932 
L 183.440288 336.773646 
L 183.440288 330.403693 
L 181.67085 325.095397 
L 179.193649 321.556539 
L 175.654792 319.433225 
L 170.700382 316.602129 
L 165.03821 314.8327 
L 160.0838 313.417157 
L 155.483276 311.293843 
L 149.113332 309.170519 
L 143.097265 309.170519 
L 134.603997 309.524414 
L 117.971348 312.3555 
L 108.062537 313.417157 
L 97.799841 312.709386 
L 91.429888 310.232186 
L 84.706049 307.754976 
L 79.397753 304.92389 
L 73.735581 302.092804 
L 69.842828 299.96948 
L 63.472885 299.96948 
L 58.518475 302.44669 
L 54.625722 307.047204 
L 52.856293 313.063272 
L 52.856293 319.079339 
L 53.210179 322.618197 
L 51.44075 325.449283 
L 47.901892 328.98815 
L 45.424683 333.234779 
L 41.885825 347.390228 
L 41.764557 357.460739 
L 42.118443 366.661778 
L 44.241757 377.632246 
L 46.718958 387.541056 
L 50.965596 397.803753 
L 53.796682 405.235363 
L 59.458864 411.959202 
L 65.474922 417.267497 
L 70.075446 421.514127 
L 74.322084 423.991327 
L 76.091513 426.114651 
L 76.799285 431.069051 
L 77.15317 438.500662 
L 78.214828 446.286158 
L 80.692028 454.071654 
L 84.230895 460.441607 
L 89.185295 466.457665 
L 94.493591 471.76596 
L 100.155773 473.889275 
L 106.525716 474.597047 
L 113.249555 474.950932 
L 123.476793 477.63522 
L 131.262289 480.820192 
L 137.986128 482.943516 
L 156.742092 489.667345 
L 166.650902 491.436783 
L 182.221894 489.313459 
L 191.422934 484.005173 
L 193.546248 473.742477 
L 193.192362 482.58963 
L 195.315686 485.06683 
L 198.500658 487.544031 
L 200.977858 492.498441 
L 202.393401 496.391184 
L 201.331744 498.514508 
L 191.422934 502.053365 
L 184.699095 503.115023 
L 179.744694 503.468908 
L 174.082513 503.115023 
L 169.481998 501.69948 
L 163.819816 498.868394 
L 157.095977 496.037298 
L 150.372139 492.144555 
L 144.002195 489.667345 
L 139.755557 488.251802 
L 134.801147 484.712944 
L 128.431203 481.527973 
L 124.184564 479.758535 
L 117.814611 477.281334 
L 111.444668 475.865791 
L 105.428601 475.511905 
L 100.474191 476.219677 
L 96.227561 479.050763 
L 94.104247 483.297401 
L 93.396475 488.605688 
L 93.04259 495.329527 
L 93.04259 502.053365 
L 94.812018 508.423318 
L 100.120305 524.348196 
L 104.013057 531.072026 
L 109.321344 538.857522 
L 117.460726 547.350789 
L 125.953993 555.136285 
L 137.278356 563.983439 
L 155.326549 574.246135 
L 164.881474 578.138888 
L 174.082513 581.677745 
L 204.16284 592.648223 
L 216.54885 596.18708 
L 229.642642 599.725938 
L 240.61311 602.910919 
L 254.060788 605.034234 
L 265.031256 606.449777 
L 281.006485 612.511231 
L 289.853638 613.572888 
L 300.116334 612.865117 
L 307.547945 610.387916 
L 315.687326 605.787392 
L 320.995613 600.12522 
L 325.242251 594.463038 
L 327.719452 589.154743 
L 329.134995 582.430904 
L 328.073337 576.414846 
L 325.950023 571.10655 
L 322.05727 566.506035 
L 318.164527 562.259397 
L 312.502345 558.720539 
L 307.547945 556.951101 
L 309.671259 555.181672 
L 313.564003 555.535558 
L 317.810641 559.074425 
L 325.242251 563.321054 
L 330.550538 566.859921 
L 337.982148 571.460436 
L 345.059872 572.168207 
L 353.55314 570.398779 
L 359.569207 565.798254 
L 365.93916 559.428311 
L 376.201857 547.042291 
L 381.555539 534.924356 
L 382.971082 528.908288 
L 383.678854 521.476678 
L 384.03274 514.752839 
L 384.03274 507.675124 
L 383.324968 502.366828 
L 383.678854 496.350761 
L 384.386625 489.273037 
L 384.740511 483.256979 
L 384.03274 475.471483 
L 382.617197 466.270444 
L 379.432215 458.838833 
L 376.990474 454.268803 
L 372.743845 449.314403 
L 367.081663 446.129431 
L 361.065596 443.652221 
L 354.695652 441.528907 
L 348.679585 439.759478 
L 342.309632 439.051706 
L 335.939679 438.697821 
L 331.69305 437.636163 
L 325.676983 436.928382 
L 320.722582 435.512839 
L 328.508069 435.512839 
L 335.585793 434.451182 
L 343.371289 434.097296 
L 352.572328 434.451182 
L 363.542806 433.743411 
L 372.389959 433.035639 
L 377.698245 431.620096 
L 384.422084 433.035639 
L 394.68478 434.451182 
L 405.655258 434.451182 
L 412.732973 432.681753 
L 419.102926 431.26621 
L 425.472879 432.681753 
L 435.027804 436.928382 
L 446.352157 440.821135 
L 454.845425 441.882792 
L 464.40035 442.236678 
L 471.478074 441.882792 
L 479.26357 442.590564 
L 487.756838 444.359993 
L 495.542334 444.006107 
L 501.204515 441.528907 
L 506.158916 439.051706 
L 511.467212 435.866725 
L 516.35566 434.137719 
L 520.602298 431.306633 
L 523.079498 429.89109 
L 529.803337 435.199376 
L 540.419919 438.030472 
L 549.974844 438.738243 
L 558.821997 437.3227 
L 567.669151 435.553262 
L 576.87019 432.36829 
L 585.009572 432.36829 
L 592.441182 433.429948 
L 599.872792 433.429948 
L 606.242745 433.076062 
L 627.475909 433.076062 
L 637.030834 434.491605 
L 643.365329 435.866725 
L 640.180357 439.051706 
L 634.872061 440.821135 
L 628.855994 442.590564 
L 623.547708 444.359993 
L 620.362726 445.067764 
L 616.116097 444.359993 
L 610.10003 443.652221 
L 605.14562 443.652221 
L 599.483448 444.713879 
L 594.882924 446.483317 
L 592.051838 447.89886 
L 592.759609 444.359993 
L 592.405723 441.175021 
L 586.743542 437.282268 
L 581.789141 436.928382 
L 575.773074 437.282268 
L 569.403121 439.405592 
L 565.510378 441.882792 
L 563.033168 444.713879 
L 562.679282 448.606631 
L 561.263739 453.914918 
L 558.432653 458.161556 
L 556.663224 462.408185 
L 554.186015 469.839795 
L 553.478243 475.501977 
L 554.186015 482.933587 
L 555.601567 487.887988 
L 558.432653 493.196284 
L 556.390184 499.379006 
L 553.205212 507.872274 
L 549.666345 516.365541 
L 548.604688 523.443266 
L 549.312459 530.874876 
L 551.435774 540.429801 
L 555.682413 551.754155 
L 562.052366 560.247422 
L 570.191747 568.032918 
L 576.915577 573.6951 
L 588.593826 579.357281 
L 597.087093 581.834482 
L 604.872589 583.60391 
L 611.596419 584.311682 
L 615.843057 582.896139 
L 618.320257 579.711167 
L 621.151353 575.818414 
L 624.336325 573.6951 
L 627.521296 572.279557 
L 631.060163 571.217899 
L 627.167411 573.341214 
L 622.920782 576.1723 
L 620.089686 579.711167 
L 617.966372 583.250025 
L 618.320257 588.204435 
L 621.859124 594.928264 
L 627.167411 600.23656 
L 633.183478 604.483189 
L 641.676745 607.314284 
L 653.708871 609.437599 
L 663.617691 608.022056 
L 672.81873 605.898741 
L 682.72754 603.067646 
L 690.866922 599.174902 
L 699.714075 595.989921 
L 707.499572 591.389406 
L 714.577296 585.373339 
L 719.177811 581.12671 
L 721.301125 575.818414 
L 724.839992 571.571785 
L 728.024964 565.909604 
L 730.148279 561.309079 
L 732.979374 559.185765 
L 736.164346 558.831879 
L 737.226003 559.185765 
L 735.102689 560.955194 
L 730.148279 566.971261 
L 726.255535 576.880072 
L 726.609421 581.834482 
L 733.33326 583.957796 
L 743.595956 585.019453 
L 753.858653 585.019453 
L 762.559008 584.392527 
L 779.899429 583.684756 
L 784.499943 582.976984 
L 792.639325 583.33087 
L 802.902022 581.915327 
L 812.810842 580.145898 
L 820.242442 576.607031 
L 827.320167 572.006516 
L 834.044006 566.698221 
L 838.998416 561.036049 
L 840.413959 558.204953 
L 843.245045 554.31221 
L 846.783912 549.711686 
L 851.030541 543.341733 
L 859.523808 528.478521 
L 863.416552 521.400797 
L 864.875644 515.101761 
L 866.998958 508.024046 
L 869.476168 500.946321 
L 871.245597 492.099168 
L 871.599482 485.729215 
L 871.599482 477.943719 
L 870.891711 470.512108 
L 869.122282 464.142155 
L 865.229529 457.772212 
L 860.629014 453.171688 
L 854.966833 449.986716 
L 848.59688 449.63283 
L 843.642479 450.694487 
L 840.103612 452.817802 
L 837.626412 456.002783 
L 834.795326 459.187755 
L 832.318116 462.372727 
L 830.548688 466.973251 
L 829.48703 471.573766 
L 825.240392 474.050975 
L 822.05542 476.882061 
L 817.454905 480.420919 
L 813.916038 483.959786 
L 807.192199 489.268072 
L 803.653342 492.453054 
L 796.929503 499.884664 
L 792.682874 503.069636 
L 787.728464 505.19295 
L 782.420168 505.546836 
L 775.696339 504.485179 
L 769.680272 501.300207 
L 767.203071 498.469121 
L 765.079747 494.930254 
L 764.01809 490.329739 
L 762.248661 487.144758 
L 760.833118 482.190357 
L 758.355918 478.65149 
L 755.524822 472.281537 
L 761.54089 481.482586 
L 766.849185 487.852529 
L 775.342453 492.453054 
L 782.420168 494.576368 
L 789.851779 494.576368 
L 797.99116 493.160825 
L 802.94557 490.683625 
L 807.546085 488.206415 
L 811.084952 484.667558 
L 816.039353 480.774805 
L 821.347648 475.112633 
L 825.240392 469.804337 
L 827.00983 465.203822 
L 828.779259 460.957184 
L 830.548688 457.06444 
L 833.025888 453.171688 
L 836.564755 450.340601 
L 840.457498 448.217287 
L 850.720204 446.093963 
L 856.382376 444.67842 
L 861.336786 443.262877 
L 870.183939 435.123495 
L 878.323321 422.383598 
L 880.800521 416.721417 
L 885.284732 408.14234 
L 889.177485 400.002958 
L 891.654685 392.217462 
L 895.193543 376.292584 
L 896.609095 363.552687 
L 897.316867 353.997753 
L 896.609095 347.273924 
L 897.316867 341.611742 
L 897.316867 335.241789 
L 895.901314 329.579617 
L 894.485771 323.209664 
L 891.654685 317.547482 
L 890.946914 314.362511 
L 892.008571 307.638672 
L 892.008571 299.145404 
L 889.885256 291.713794 
L 888.070441 283.882911 
L 884.177688 275.743529 
L 881.346602 269.01969 
L 878.161621 264.419176 
L 873.20722 260.526423 
L 868.606696 255.925908 
L 864.006181 252.740927 
L 860.467314 251.325384 
L 856.928457 251.325384 
L 853.38959 252.387041 
L 850.558504 255.572022 
L 848.081303 259.11088 
L 845.957989 261.941975 
L 842.065236 265.834719 
L 839.588036 268.665805 
L 834.633626 270.789129 
L 830.386997 272.204672 
L 825.078701 272.912443 
L 820.832072 272.204672 
L 815.16989 270.789129 
L 804.553308 266.896376 
L 799.598898 266.188604 
L 794.290602 266.54249 
L 786.505116 267.958033 
L 779.781277 269.01969 
L 775.888524 270.081348 
L 772.349667 270.789129 
L 767.041371 271.4969 
L 761.733084 271.4969 
L 758.194218 270.789129 
L 752.17816 271.850786 
L 746.869864 273.620215 
L 741.915454 275.743529 
L 737.668825 278.220729 
L 734.837729 281.405711 
L 732.360529 285.65234 
L 731.298872 290.960636 
L 730.944986 297.330589 
L 731.652758 302.638875 
L 733.068301 309.362714 
L 735.54551 315.732667 
L 739.438254 322.456505 
L 742.26934 329.180335 
L 745.100435 335.196402 
L 746.515978 341.920241 
L 748.993178 348.64408 
L 751.116493 357.137347 
L 748.993178 352.182937 
L 747.22375 346.520756 
L 745.808207 340.504698 
L 744.392664 335.904174 
L 742.623225 332.01143 
L 740.853797 327.05702 
L 734.837729 315.732667 
L 732.006643 308.654942 
L 725.63669 293.791722 
L 722.805604 288.483435 
L 719.620632 283.882911 
L 715.373994 277.159072 
L 710.773479 272.204672 
L 707.234612 267.604147 
L 703.341869 264.419176 
L 700.510773 261.58808 
L 698.741345 259.464766 
L 701.218554 258.049223 
L 706.880726 259.11088 
L 714.312337 259.818651 
L 721.743947 259.11088 
L 727.052243 258.756994 
L 731.298872 259.464766 
L 736.607167 262.295861 
L 746.515978 265.480833 
L 756.070903 267.250262 
L 765.271942 267.604147 
L 774.119095 265.834719 
L 791.105631 260.880309 
L 796.06004 259.818651 
L 800.660555 262.295861 
L 807.030508 266.188604 
L 814.816004 269.01969 
L 823.309272 270.789129 
L 830.386997 270.081348 
L 836.75694 267.250262 
L 842.773007 263.003632 
L 847.019646 258.049223 
L 850.912389 251.325384 
L 854.09737 242.832116 
L 855.159028 236.462172 
L 855.866799 229.738334 
L 855.159028 221.952838 
L 854.805142 214.167342 
L 852.681818 208.151274 
L 846.822487 194.734101 
L 842.575858 188.364147 
L 837.975334 183.409747 
L 832.313152 179.163108 
L 827.004866 176.685908 
L 822.050456 173.854813 
L 818.865484 172.43927 
L 814.972731 174.562584 
L 816.388284 170.669841 
L 816.034389 166.777097 
L 811.787759 161.114916 
L 806.479464 155.80662 
L 801.878949 152.267763 
L 797.278425 149.436677 
L 793.385681 147.667238 
L 789.492929 145.190038 
L 788.077386 141.651181 
L 785.246299 138.112314 
L 782.061318 133.157913 
L 778.168575 128.203503 
L 774.275832 123.602979 
L 770.736965 120.064121 
L 766.490335 114.755825 
L 760.828154 109.447539 
L 755.165973 104.493129 
L 749.149915 99.892614 
L 743.133847 94.938204 
L 735.348351 90.337689 
L 728.978398 86.798822 
L 721.546788 84.675508 
L 713.761292 82.198308 
L 706.329691 80.074984 
L 699.605852 79.013326 
L 694.651442 79.013326 
L 691.46647 81.136641 
L 688.281489 84.675508 
L 686.865946 88.214365 
L 686.51206 93.168775 
L 687.573718 100.954271 
L 689.343156 108.385882 
L 691.112585 114.048054 
L 691.820356 121.125778 
L 692.174242 126.080188 
L 692.882013 129.619046 
L 694.651442 130.680703 
L 692.528128 132.096246 
L 692.174242 135.281228 
L 692.528128 137.404542 
L 693.235899 138.820085 
L 691.112585 140.589514 
L 690.758699 143.774495 
L 688.98927 148.021124 
L 686.158175 151.559991 
L 683.327089 154.037191 
L 680.849888 157.929944 
L 673.064392 167.130983 
L 670.587183 170.669841 
L 668.817754 174.562584 
L 666.340553 177.747565 
L 663.509467 180.578651 
L 661.032258 180.224766 
L 660.324486 177.747565 
L 661.740029 174.916479 
L 665.986668 167.838755 
L 667.048325 165.007659 
L 670.941068 161.468802 
L 674.479935 157.576049 
L 677.664907 153.683306 
L 680.849888 150.144448 
L 683.327089 146.605581 
L 685.450403 143.066724 
L 686.865946 139.527857 
L 689.697042 131.742361 
L 690.050927 127.495731 
L 690.050927 123.249093 
L 689.697042 119.35635 
L 690.050927 115.817492 
L 688.635375 106.262558 
L 687.219832 102.369815 
L 686.51206 97.76929 
L 685.450403 92.461004 
L 684.742632 82.906079 
L 681.55766 76.536126 
L 677.311021 70.873945 
L 664.834236 56.713541 
L 657.402626 49.635816 
L 652.802102 46.096949 
L 649.263244 43.619749 
L 645.370492 42.911977 
L 640.062205 40.080891 
L 633.338367 36.89591 
L 626.260642 33.710938 
L 613.16686 30.879852 
L 606.089135 30.525966 
L 599.365296 31.233738 
L 592.995343 32.295395 
L 588.394828 34.41871 
L 584.855961 38.311453 
L 583.794304 41.496434 
L 581.317104 46.804721 
L 580.609332 49.989702 
L 579.547675 52.820788 
L 576.71658 53.528559 
L 574.593265 51.051359 
L 573.531608 45.743063 
L 571.408293 39.019234 
L 569.992741 33.710938 
L 565.746112 29.110414 
L 559.730044 24.863785 
L 551.944548 21.678813 
L 541.681852 18.847718 
L 531.06527 17.78606 
L 522.218117 17.78606 
L 513.724849 18.493832 
L 505.939353 20.263261 
L 498.861628 22.74047 
L 493.199447 26.279328 
L 488.194695 30.172081 
L 484.301942 35.126481 
L 480.763085 41.496434 
L 480.409199 45.743063 
L 481.470856 53.882445 
L 482.886399 62.729599 
L 483.240285 68.39178 
L 483.594171 76.177276 
L 485.009723 86.439972 
L 485.363609 94.225468 
L 485.363609 101.657079 
L 490.31801 118.9975 
L 493.502991 126.782996 
L 495.626305 133.152949 
L 501.728182 135.518809 
L 510.929221 137.642124 
L 520.838032 140.119324 
L 531.8085 144.719848 
L 541.717311 149.320363 
L 561.888827 159.936945 
L 568.966551 162.414155 
L 574.628724 166.660784 
L 580.998677 173.030737 
L 583.475877 175.861823 
L 582.060334 180.108462 
L 580.290905 184.355091 
L 577.813705 184.355091 
L 571.443752 175.154052 
L 567.197113 169.845765 
L 561.181055 164.891355 
L 546.317835 153.213116 
L 541.717311 150.38202 
L 537.116796 148.258706 
L 531.100728 145.781506 
L 525.438547 144.012077 
L 520.130261 141.180981 
L 514.468079 139.411553 
L 509.159783 137.99601 
L 503.851497 136.934352 
L 498.543201 136.226581 
L 494.650458 136.226581 
L 491.111591 137.99601 
L 488.280505 141.534867 
L 485.095533 150.735906 
L 484.033876 154.982545 
L 482.618323 164.183584 
L 481.556666 169.845765 
L 481.910552 173.738509 
L 481.910552 180.816233 
L 481.556666 188.601729 
L 481.556666 195.679454 
L 482.618323 203.111055 
L 483.679981 207.003807 
L 482.618323 213.019875 
L 481.910552 219.743704 
L 482.618323 225.759771 
L 486.15719 230.360296 
L 490.757705 235.668582 
L 495.712115 237.43802 
L 503.851497 237.43802 
L 510.22145 236.730239 
L 516.591394 234.96081 
L 523.315232 232.129724 
L 528.623528 228.590857 
L 532.516272 226.821429 
L 529.685185 229.298638 
L 525.792433 232.129724 
L 518.714718 236.022468 
L 512.344765 238.145792 
L 504.205383 239.207449 
L 494.296572 239.561335 
L 487.218848 240.269106 
L 480.141123 241.330763 
L 472.355627 240.976878 
L 466.33956 241.684649 
L 455.015206 240.976878 
L 445.490776 241.922231 
L 435.935851 240.860574 
L 427.796469 238.029478 
L 421.07263 235.198392 
L 416.90373 230.436177 
L 416.90373 230.436177 
" style="fill:none;stroke:#000000;stroke-linecap:square;stroke-width:1.5;"/>
   </g>
  </g>
 </g>
 <defs>
  <clipPath id="p01166e7ae9">
   <rect height="678.96" width="933.12" x="0" y="0"/>
  </clipPath>
 </defs>
</svg>
