<?xml version="1.0" encoding="utf-8" standalone="no"?>
<!DOCTYPE svg PUBLIC "-//W3C//DTD SVG 1.1//EN"
  "http://www.w3.org/Graphics/SVG/1.1/DTD/svg11.dtd">
<!-- Created with matplotlib (https://matplotlib.org/) -->
<svg height="592.56pt" version="1.1" viewBox="0 0 829.44 592.56" width="829.44pt" xmlns="http://www.w3.org/2000/svg" xmlns:xlink="http://www.w3.org/1999/xlink">
 <defs>
  <style type="text/css">
*{stroke-linecap:butt;stroke-linejoin:round;}
  </style>
 </defs>
 <g id="figure_1">
  <g><image xlink:href="../../img/ctx/lesserpanda_cor_cell.json.ctx-50%25.png" width="829.4399999999999px" height="592.56px"/></g>

  <g id="patch_1">
   <path d="M 0 592.56 
L 829.44 592.56 
L 829.44 0 
L 0 0 
z
" style="fill:none;"/>
  </g>
  <g id="axes_1">
   <g id="line2d_1">
    <path clip-path="url(#p220a52a441)" d="M 376.520381 212.174916 
L 384.175615 214.362124 
L 392.55991 212.174916 
L 398.392457 205.977821 
L 400.944204 200.145274 
L 403.131413 194.312718 
L 403.860482 187.386562 
L 404.225013 180.095868 
L 403.495943 167.701695 
L 403.860482 161.869139 
L 402.402343 150.204028 
L 401.308735 146.923219 
L 398.392457 142.913341 
L 393.288979 138.903455 
L 388.914562 136.716247 
L 383.811076 134.529047 
L 376.520381 131.977299 
L 385.633754 134.529047 
L 392.195371 135.622647 
L 401.673274 135.987177 
L 408.963968 134.164508 
L 412.973846 130.519161 
L 415.890124 125.780213 
L 418.441863 121.041266 
L 419.535472 108.647085 
L 417.712794 101.35639 
L 415.161055 86.410479 
L 414.796516 80.577923 
L 414.067446 74.380837 
L 414.796516 69.641881 
L 416.983724 62.351195 
L 418.806402 55.42503 
L 419.900002 49.592483 
L 419.535472 43.759927 
L 417.348263 38.29191 
L 414.067446 32.094816 
L 408.963968 25.533199 
L 404.589552 21.887852 
L 400.215135 20.429713 
L 395.476187 19.336104 
L 390.008162 19.700643 
L 383.811076 20.794243 
L 378.343059 22.616921 
L 369.958764 27.720407 
L 364.855278 33.552955 
L 363.397139 36.833772 
L 362.303539 40.11458 
L 358.658192 39.02098 
L 355.012845 38.29191 
L 349.544828 37.927372 
L 342.983203 40.11458 
L 336.421577 42.666319 
L 331.318091 45.947136 
L 327.672744 49.592483 
L 323.298335 54.33143 
L 320.017518 57.247708 
L 315.64311 57.612239 
L 310.175085 59.434917 
L 303.613468 62.715725 
L 296.687304 67.090142 
L 287.938479 73.287228 
L 282.105923 78.755245 
L 277.002437 84.587801 
L 274.086159 89.691287 
L 272.992559 95.888373 
L 272.992559 103.543599 
L 274.086159 110.469763 
L 276.637906 119.583127 
L 283.199523 130.519161 
L 288.303009 139.267994 
L 291.583826 143.642411 
L 289.032079 145.10055 
L 285.386731 144.736011 
L 282.470453 142.913341 
L 279.918714 139.267994 
L 276.637906 133.799977 
L 274.450698 130.519161 
L 271.169881 126.144744 
L 268.253611 121.405796 
L 265.337333 117.395918 
L 260.061332 113.56505 
L 257.874124 109.919703 
L 256.051446 105.180756 
L 254.593307 100.806339 
L 249.12529 94.609252 
L 244.021804 93.151114 
L 238.918326 93.151114 
L 233.81484 94.973791 
L 221.785197 100.441808 
L 215.952642 101.535408 
L 206.110208 104.816225 
L 201.735791 105.909825 
L 193.351497 108.461572 
L 189.341619 109.919703 
L 186.425341 112.47145 
L 183.509063 115.387728 
L 180.228255 117.939467 
L 176.947438 121.584814 
L 172.20849 125.230162 
L 167.469543 128.14644 
L 163.824196 129.604579 
L 157.99164 130.333648 
L 153.981762 129.604579 
L 147.784676 128.875509 
L 143.04572 128.51097 
L 137.577703 129.24004 
L 132.474217 132.156317 
L 127.370731 137.988873 
L 122.267253 144.550498 
L 118.621905 151.476654 
L 116.799228 159.49641 
L 116.070158 169.338844 
L 116.070158 177.358608 
L 118.986436 185.378372 
L 124.818992 190.117319 
L 132.109686 194.491736 
L 140.493981 194.856267 
L 158.720709 193.398128 
L 188.97708 192.304528 
L 199.184052 193.398128 
L 199.184052 195.949875 
L 192.622427 198.137083 
L 184.238132 199.595222 
L 178.041046 200.324292 
L 169.656751 201.782431 
L 162.730587 202.146961 
L 157.26257 201.053361 
L 151.794554 198.866153 
L 146.326537 197.408014 
L 140.493981 196.678944 
L 133.567825 197.043475 
L 128.464339 198.501614 
L 124.089922 201.417892 
L 120.080044 205.792309 
L 115.705628 211.624864 
L 112.78935 216.363812 
L 110.602141 222.196367 
L 109.144002 228.393454 
L 108.050402 237.506818 
L 109.374271 245.177919 
L 110.83241 252.833152 
L 111.926019 260.852908 
L 114.477758 268.508133 
L 117.758574 275.069758 
L 125.4138 280.902314 
L 134.891694 286.370331 
L 144.734128 288.92207 
L 154.941101 290.380209 
L 165.148073 290.015678 
L 171.345159 286.73487 
L 176.084107 283.818592 
L 178.635854 284.547662 
L 177.906785 289.286609 
L 175.719576 291.473817 
L 172.43876 293.296487 
L 170.251551 295.119165 
L 167.335273 296.212765 
L 163.325395 298.399973 
L 158.586448 302.04532 
L 154.941101 305.326129 
L 152.389362 307.148807 
L 148.014945 307.877876 
L 141.817859 306.419737 
L 135.620764 303.86799 
L 130.152747 302.04532 
L 124.320191 300.587181 
L 118.123105 301.316251 
L 114.113227 304.232529 
L 111.926019 306.784268 
L 109.374271 311.523223 
L 107.916141 314.804032 
L 106.458002 319.907518 
L 104.635324 323.917396 
L 101.354516 333.03076 
L 98.802768 338.863316 
L 97.709168 343.602263 
L 96.615568 349.79935 
L 96.251029 355.631905 
L 96.251029 362.9226 
L 98.802768 370.942356 
L 102.812655 381.878398 
L 105.617041 388.09136 
L 110.355997 394.652985 
L 115.459475 397.569263 
L 121.656569 399.027402 
L 128.947256 397.933793 
L 133.321672 393.194846 
L 136.96702 387.726829 
L 139.883298 382.987882 
L 144.986784 391.007638 
L 141.705967 394.652985 
L 138.06062 397.933793 
L 135.87342 401.21461 
L 132.592603 404.859957 
L 131.499003 411.421574 
L 131.863533 417.618669 
L 134.779811 424.180286 
L 140.247828 433.658189 
L 146.809453 440.219814 
L 154.829217 446.4169 
L 162.484443 451.884917 
L 169.046068 455.165734 
L 171.597807 455.165734 
L 174.878615 460.269212 
L 181.804779 464.279098 
L 202.947786 480.683149 
L 211.696611 488.338382 
L 222.507938 494.028606 
L 231.992162 498.404582 
L 242.199134 499.862721 
L 250.947968 498.769121 
L 262.24854 494.394704 
L 272.090974 490.020287 
L 279.01713 484.916801 
L 286.307824 478.719715 
L 291.046772 473.251698 
L 293.23398 468.148212 
L 294.32758 462.315656 
L 292.140372 450.286014 
L 293.23398 445.911605 
L 294.32758 442.630789 
L 293.598511 437.891841 
L 291.775841 433.881963 
L 286.672355 430.601147 
L 279.746199 428.413938 
L 273.184574 425.13313 
L 265.529349 421.487783 
L 258.603193 416.019766 
L 247.667151 408.000002 
L 242.928204 404.354654 
L 239.647395 400.709307 
L 237.095648 398.157568 
L 233.81484 391.960482 
L 240.011926 398.157568 
L 246.209012 403.261054 
L 252.770637 406.906401 
L 265.893879 415.655227 
L 272.820043 419.665113 
L 282.662477 422.945921 
L 291.411302 426.591269 
L 296.879328 432.059286 
L 306.357222 440.07905 
L 314.376986 442.266258 
L 326.406628 442.995328 
L 334.426393 440.07905 
L 342.389647 441.746174 
L 353.330931 444.661357 
L 362.808834 446.848566 
L 373.015798 447.213096 
L 381.764632 447.213096 
L 390.513465 445.390427 
L 397.075082 447.213096 
L 406.552985 447.942166 
L 419.676227 448.306705 
L 433.893078 446.848566 
L 440.819242 445.025896 
L 445.558189 442.109618 
L 453.942484 442.109618 
L 462.691318 443.567757 
L 472.898282 442.838688 
L 481.647115 441.01601 
L 490.395941 437.735202 
L 497.322105 434.818924 
L 507.084406 427.780876 
L 511.458823 425.593676 
L 515.625341 422.699777 
L 521.457896 419.054429 
L 525.467774 415.409082 
L 528.748583 412.857335 
L 534.581139 410.670135 
L 540.413694 409.941065 
L 528.748583 415.044543 
L 519.270688 421.241638 
L 512.344532 425.980585 
L 508.699185 429.625933 
L 506.147438 434.000349 
L 510.157324 435.458488 
L 514.896271 436.916619 
L 522.916035 436.552088 
L 517.08348 438.739297 
L 510.157324 440.197436 
L 505.418368 442.749175 
L 501.773021 444.936383 
L 500.679421 448.946261 
L 499.950351 457.330564 
L 503.23116 461.340442 
L 511.250924 468.266598 
L 522.916035 472.276476 
L 535.310208 474.099153 
L 546.975319 474.828223 
L 558.275892 473.005545 
L 567.024717 470.818337 
L 578.689829 465.35032 
L 592.906679 457.330564 
L 608.21713 450.768939 
L 625.350258 445.300922 
L 634.828153 442.020105 
L 645.399656 438.739297 
L 653.054881 435.093949 
L 659.616506 432.177672 
L 664.355454 427.803255 
L 666.178131 423.064307 
L 666.907201 418.689891 
L 666.542662 411.763735 
L 665.449062 397.546884 
L 665.813593 395.359676 
L 668.36534 403.37944 
L 670.917079 409.941065 
L 674.562426 416.138152 
L 680.030443 421.606168 
L 690.237416 423.793377 
L 702.996127 421.606168 
L 717.577508 415.409082 
L 724.868203 409.576526 
L 730.33622 403.014901 
L 735.075167 396.453284 
L 738.720514 388.06899 
L 741.636792 382.236434 
L 741.809307 375.994591 
L 742.173846 369.797505 
L 741.809307 363.23588 
L 740.351168 356.309724 
L 737.434899 350.477168 
L 734.518621 345.009151 
L 730.144204 339.905665 
L 725.405257 336.624856 
L 720.301771 335.531248 
L 714.104684 336.989387 
L 710.823867 339.905665 
L 709.730267 340.634734 
L 710.823867 336.989387 
L 713.375615 332.25044 
L 714.104684 327.146953 
L 713.375615 321.314398 
L 712.282006 315.846381 
L 710.109421 310.017176 
L 706.828613 303.455559 
L 702.818726 296.893934 
L 698.079779 291.790448 
L 694.798971 287.416031 
L 688.966415 283.770684 
L 683.133859 281.583483 
L 678.394912 281.218945 
L 675.478634 277.573597 
L 672.197825 275.386389 
L 667.823409 273.563719 
L 664.178061 271.376511 
L 660.532714 270.282911 
L 655.429228 269.553841 
L 650.69028 268.095703 
L 645.586794 267.002094 
L 640.483316 264.450355 
L 636.108899 262.992216 
L 641.212386 264.085816 
L 645.222264 266.273025 
L 657.616436 268.824772 
L 664.5426 269.918372 
L 670.375148 265.908494 
L 676.572242 261.169538 
L 681.31119 254.607922 
L 684.956537 247.681766 
L 687.872815 238.932932 
L 689.330954 231.642238 
L 689.695484 225.445151 
L 689.241441 218.480742 
L 686.325163 203.899352 
L 684.137954 196.608666 
L 680.857146 190.047041 
L 677.576337 186.037163 
L 673.201921 182.027277 
L 668.827504 180.933677 
L 662.265879 180.933677 
L 655.339723 182.391816 
L 646.226359 184.943555 
L 637.842064 187.495302 
L 629.8223 188.953441 
L 619.979866 190.411571 
L 609.043833 190.77611 
L 602.482207 190.047041 
L 598.107791 188.953441 
L 594.462443 188.953441 
L 591.181635 186.037163 
L 588.994426 182.756346 
L 591.546165 181.662746 
L 595.191513 181.298207 
L 598.472321 184.943555 
L 603.211277 187.495302 
L 610.866502 188.588902 
L 626.906022 187.859832 
L 633.103108 186.401693 
L 635.654856 184.214485 
L 639.300203 184.943555 
L 644.03915 184.214485 
L 649.507167 182.756346 
L 656.797862 180.933677 
L 666.640295 179.475538 
L 671.379243 175.83019 
L 673.93099 171.820312 
L 674.295521 167.081357 
L 673.93099 161.248809 
L 674.295521 155.416254 
L 672.837382 151.041837 
L 670.285643 146.302889 
L 668.098434 142.657542 
L 663.724018 139.012195 
L 660.07867 134.273247 
L 659.71414 129.5343 
L 658.98507 124.795344 
L 657.7572 118.240222 
L 656.299061 113.136736 
L 653.747322 109.855927 
L 648.279306 105.846049 
L 646.456628 102.565233 
L 644.998489 98.919894 
L 641.71768 95.639077 
L 633.333386 90.535591 
L 627.50083 86.161182 
L 620.574674 82.880365 
L 616.200257 81.057696 
L 611.096771 80.693157 
L 606.722354 79.599557 
L 603.077015 77.047818 
L 597.973529 74.496071 
L 592.870043 73.037932 
L 587.037487 71.579793 
L 580.840401 70.850723 
L 572.456106 70.850723 
L 564.436342 73.037932 
L 556.781117 76.318748 
L 552.771239 81.422226 
L 550.58403 87.619321 
L 548.396822 97.826285 
L 543.657875 108.762327 
L 541.106127 115.688483 
L 537.46078 121.885569 
L 534.179972 128.811725 
L 535.638111 121.885569 
L 538.554388 118.240222 
L 541.835197 111.314066 
L 544.751475 103.658841 
L 547.303214 96.003616 
L 548.761353 90.900129 
L 549.854961 84.338504 
L 550.219492 80.328626 
L 549.125891 75.589679 
L 546.938683 70.850723 
L 543.293336 67.205376 
L 540.741597 63.195498 
L 535.638111 59.18562 
L 528.711955 55.175734 
L 520.32766 52.988534 
L 510.923386 51.96206 
L 501.080953 51.597522 
L 491.603058 52.326591 
L 486.499572 53.420199 
L 482.125155 55.242869 
L 477.750738 61.439955 
L 478.844346 56.336469 
L 477.021669 51.96206 
L 473.376321 49.045783 
L 466.085635 45.400435 
L 460.982149 41.755088 
L 455.149593 39.203349 
L 449.681576 37.380671 
L 443.84902 35.558002 
L 433.642056 34.099863 
L 429.996709 35.558002 
L 426.351362 39.203349 
L 423.435084 43.213227 
L 421.247875 48.681244 
L 419.425206 54.149269 
L 417.967067 66.178911 
L 418.696136 73.105067 
L 419.060667 81.124822 
L 420.883345 92.425395 
L 421.976945 101.903298 
L 424.164153 109.923062 
L 425.622292 116.484679 
L 428.53857 124.139913 
L 432.912987 127.056182 
L 438.381004 129.607929 
L 458.79494 135.805016 
L 464.627496 137.992224 
L 467.179235 143.82478 
L 463.898427 140.908502 
L 462.804818 138.721294 
L 459.159479 136.898624 
L 452.597854 134.711416 
L 443.119951 131.795138 
L 435.100195 130.336999 
L 430.361239 129.97246 
L 423.799623 131.066068 
L 416.873458 133.617807 
L 410.311842 136.898624 
L 407.031025 142.002102 
L 404.114747 150.386397 
L 404.479286 155.125352 
L 404.479286 160.957908 
L 405.572886 166.790456 
L 405.572886 174.08115 
L 405.208355 180.642775 
L 404.479286 187.933462 
L 405.208355 195.588695 
L 408.124633 202.514851 
L 412.49905 210.899146 
L 419.060667 213.815424 
L 424.193034 212.648186 
L 428.931982 209.731908 
L 424.193034 213.377255 
L 416.90234 215.564464 
L 413.256992 212.648186 
L 409.247114 211.919116 
L 403.050028 213.377255 
L 399.404681 213.012717 
L 396.488403 211.554586 
L 390.655847 213.377255 
L 384.094222 215.199925 
L 379.719813 214.835394 
L 376.520381 212.174916 
L 376.520381 212.174916 
" style="fill:none;stroke:#000000;stroke-linecap:square;stroke-width:1.5;"/>
   </g>
   <g id="line2d_2">
    <path clip-path="url(#p220a52a441)" d="M 392.523887 495.599557 
L 395.872403 491.220728 
L 398.705761 486.841898 
L 401.023963 482.720643 
L 402.054277 478.341814 
L 402.827016 473.190245 
L 400.766389 468.296258 
L 397.160291 463.659855 
L 391.751148 460.568913 
L 387.114744 459.281025 
L 381.963175 457.735555 
L 376.554032 458.250712 
L 374.493404 458.250712 
L 372.690359 456.705241 
L 368.569104 455.932501 
L 364.963006 456.705241 
L 362.902387 458.250712 
L 360.06902 460.568913 
L 356.46293 462.371958 
L 356.978087 467.265945 
L 359.553863 471.129625 
L 364.705432 474.478141 
L 366.508477 475.766029 
L 362.644804 473.962984 
L 359.553863 471.902357 
L 357.493243 470.614469 
L 355.432616 470.099312 
L 354.917459 467.781102 
L 354.659876 465.4629 
L 353.887145 463.659855 
L 351.826518 464.175012 
L 349.76589 465.205325 
L 346.417374 467.523527 
L 344.099173 469.326572 
L 342.553702 472.417514 
L 342.038545 476.538769 
L 343.326433 480.402441 
L 345.387061 485.038845 
L 350.796204 491.220728 
L 354.659876 495.0844 
L 361.356916 499.205655 
L 369.599418 500.751126 
L 378.099502 501.0087 
L 385.311691 499.46323 
L 390.205677 496.887445 
L 392.523887 495.599557 
" style="fill:none;stroke:#000000;stroke-linecap:square;stroke-width:1.5;"/>
   </g>
  </g>
 </g>
 <defs>
  <clipPath id="p220a52a441">
   <rect height="592.56" width="829.44" x="0" y="0"/>
  </clipPath>
 </defs>
</svg>
