<?xml version="1.0" encoding="utf-8" standalone="no"?>
<!DOCTYPE svg PUBLIC "-//W3C//DTD SVG 1.1//EN"
  "http://www.w3.org/Graphics/SVG/1.1/DTD/svg11.dtd">
<!-- Created with matplotlib (https://matplotlib.org/) -->
<svg height="529.92pt" version="1.1" viewBox="0 0 777.6 529.92" width="777.6pt" xmlns="http://www.w3.org/2000/svg" xmlns:xlink="http://www.w3.org/1999/xlink">
 <defs>
  <style type="text/css">
*{stroke-linecap:butt;stroke-linejoin:round;}
  </style>
 </defs>
 <g id="figure_1">
  <g><image xlink:href="../../img/ctx/lion_cor_cell.json.ctx-50%25.png" width="777.6px" height="529.92px"/></g>

  <g id="patch_1">
   <path d="M 0 529.92 
L 777.6 529.92 
L 777.6 0 
L 0 0 
z
" style="fill:none;"/>
  </g>
  <g id="axes_1">
   <g id="line2d_1">
    <path clip-path="url(#p0c4858e3a6)" d="M 39.301063 447.580674 
L 39.396062 453.530807 
L 40.586855 460.983239 
L 42.880752 466.276853 
L 45.174649 472.452723 
L 48.703724 478.099242 
L 53.291517 483.216394 
L 61.584839 488.333546 
L 72.877862 489.921631 
L 84.523798 490.627443 
L 93.875838 487.451282 
L 99.345904 482.863488 
L 104.286603 478.275695 
L 110.462481 475.981798 
L 113.815096 474.21726 
L 121.402598 473.511449 
L 127.22557 470.688193 
L 126.166844 468.394296 
L 119.783813 465.46839 
L 113.550416 461.42438 
L 118.579342 461.865512 
L 126.034504 462.902177 
L 134.669706 461.115587 
L 141.220543 458.137931 
L 148.366912 452.778152 
L 154.322224 444.142951 
L 154.917749 439.378704 
L 153.821772 435.177458 
L 155.513282 439.080946 
L 160.575294 444.142951 
L 168.317196 447.716139 
L 192.138428 445.929549 
L 216.555193 445.334016 
L 230.252399 444.142951 
L 239.777167 442.469602 
L 247.585328 436.796435 
L 250.265218 426.970176 
L 248.776394 419.52604 
L 244.905439 411.188605 
L 241.630024 404.637768 
L 233.590356 390.345029 
L 229.719408 387.069607 
L 222.275273 387.367373 
L 213.044546 389.153964 
L 207.387001 393.024919 
L 204.707111 398.384698 
L 198.454041 401.957878 
L 205.004878 396.598099 
L 202.920521 393.620451 
L 200.240631 387.367373 
L 199.645099 379.625471 
L 194.880852 373.3724 
L 187.734483 370.990277 
L 182.375372 369.41367 
L 180.301008 361.884511 
L 181.194307 353.844843 
L 179.705475 346.102948 
L 174.643462 345.209649 
L 170.176982 350.271662 
L 171.368048 343.125292 
L 178.812184 335.085624 
L 182.385365 342.231993 
L 189.134886 351.165466 
L 195.022313 356.023841 
L 201.561595 355.691409 
L 211.387854 357.478 
L 214.067743 366.113201 
L 218.83199 373.855096 
L 230.742613 380.108174 
L 242.057697 383.383588 
L 244.43982 391.423257 
L 251.883956 401.547282 
L 261.114682 415.244489 
L 270.940941 423.581924 
L 286.126979 430.430527 
L 301.015251 437.27913 
L 312.330334 435.492539 
L 324.24095 430.728293 
L 332.578322 427.723584 
L 342.70234 420.874981 
L 351.933074 418.790625 
L 359.674976 414.324145 
L 368.012404 409.857665 
L 379.625253 398.84034 
L 382.900675 393.480561 
L 383.198442 380.974412 
L 379.167682 366.074858 
L 379.400519 355.199609 
L 379.102753 345.968874 
L 376.422863 335.844849 
L 374.934031 326.911889 
L 376.422863 318.87222 
L 372.849674 312.61915 
L 373.742974 306.663838 
L 381.187109 302.197358 
L 378.209453 294.455456 
L 373.445207 283.735906 
L 382.675933 293.264398 
L 394.586549 284.926963 
L 404.115042 275.994003 
L 416.025666 266.167744 
L 430.616171 254.554895 
L 438.953598 250.981706 
L 443.420078 247.706292 
L 441.633488 238.475558 
L 438.358065 234.902377 
L 451.459747 234.902377 
L 467.836843 236.093435 
L 459.201649 244.728636 
L 449.37539 252.172772 
L 438.655832 260.510199 
L 429.425105 270.336458 
L 419.598846 278.673893 
L 410.665886 284.926963 
L 400.839627 294.455456 
L 397.564205 305.175014 
L 405.008341 310.83256 
L 402.923984 317.681163 
L 399.648562 325.423065 
L 402.328452 330.485078 
L 399.648562 339.418038 
L 394.586549 352.221953 
L 395.479848 360.261613 
L 394.884316 372.469996 
L 397.861972 379.914132 
L 397.861972 388.847099 
L 396.670914 397.184526 
L 395.777615 405.521961 
L 403.817283 410.286208 
L 416.323424 414.454921 
L 426.149683 416.539278 
L 435.082651 419.219168 
L 444.015611 424.876713 
L 450.268689 430.534259 
L 457.415059 429.640959 
L 466.943551 426.365537 
L 478.258634 420.708 
L 483.618413 415.943753 
L 495.231263 415.34822 
L 506.248587 410.286208 
L 514.883781 403.139838 
L 523.518982 394.504637 
L 533.643 379.914132 
L 540.171022 378.425307 
L 551.536649 374.256594 
L 563.745031 371.576704 
L 570.295868 360.55938 
L 571.189167 349.244297 
L 569.402569 339.715804 
L 566.424921 334.653791 
L 562.256199 328.996246 
L 551.536649 317.681163 
L 568.807044 334.058259 
L 575.357881 338.524739 
L 584.886373 342.395694 
L 590.543919 336.738148 
L 595.308165 331.378369 
L 597.988055 321.55211 
L 601.263469 322.147643 
L 609.303138 327.805188 
L 613.471851 339.715804 
L 609.89867 334.058259 
L 605.134424 330.485078 
L 599.774645 331.676135 
L 598.58358 340.906862 
L 598.881346 347.755473 
L 594.1171 354.306309 
L 587.566263 356.986199 
L 579.526594 363.239269 
L 574.464582 371.874471 
L 574.464582 380.211898 
L 574.762348 383.48732 
L 570.891401 387.358267 
L 572.380225 396.291235 
L 567.020446 387.9538 
L 560.767375 384.082853 
L 551.238883 382.594021 
L 542.008156 384.678378 
L 536.648377 389.740391 
L 532.777422 400.459949 
L 528.013176 408.201851 
L 521.760106 418.921401 
L 517.591392 429.343193 
L 525.631053 439.467218 
L 535.764643 442.802648 
L 552.038598 444.674394 
L 566.629103 444.674394 
L 580.028551 443.781094 
L 591.343634 443.18557 
L 602.360958 439.016848 
L 609.209561 433.954835 
L 612.18721 425.617408 
L 614.867099 416.684441 
L 618.440288 409.835837 
L 626.777723 402.987234 
L 619.929112 410.133604 
L 616.058165 416.982207 
L 613.973808 425.021875 
L 610.698385 433.657069 
L 612.484976 440.207914 
L 617.546989 444.674394 
L 624.776919 449.398796 
L 632.342586 452.415954 
L 640.680021 452.415954 
L 647.82639 449.736064 
L 656.75935 445.269584 
L 648.421923 450.927122 
L 642.466611 453.904778 
L 639.488955 459.264557 
L 638.000131 467.304225 
L 641.998574 472.223105 
L 651.08476 479.127431 
L 658.826662 483.296145 
L 667.164089 484.784977 
L 676.69259 485.082735 
L 685.62555 481.509554 
L 694.55851 475.554243 
L 705.278068 453.519601 
L 712.126671 440.120161 
L 719.570807 424.040824 
L 723.441754 416.29893 
L 726.41941 404.388314 
L 727.908242 396.050879 
L 729.694832 390.6911 
L 730.290365 382.949198 
L 728.503767 375.207295 
L 726.121644 367.465401 
L 719.570807 362.701155 
L 710.935613 365.381044 
L 700.811588 368.954225 
L 690.985329 373.122939 
L 682.350127 376.993894 
L 675.203758 379.97155 
L 674.310467 374.314004 
L 674.905992 367.465401 
L 681.754595 367.465401 
L 693.367452 366.274335 
L 703.491477 364.189979 
L 710.935613 361.212323 
L 720.761865 360.319031 
L 728.801533 353.768187 
L 736.543435 341.262038 
L 741.009915 328.160365 
L 740.712149 311.485503 
L 738.627792 298.965287 
L 735.054611 290.21273 
L 730.588124 281.279771 
L 727.908242 273.240102 
L 728.503767 264.604908 
L 727.610475 252.694285 
L 732.970247 244.654624 
L 732.672488 232.744008 
L 729.179385 222.081254 
L 725.306019 212.53906 
L 719.052941 206.285981 
L 711.906571 202.415034 
L 706.249034 203.010567 
L 700.293722 205.988223 
L 694.933943 210.454703 
L 683.916626 221.174253 
L 690.169696 212.53906 
L 696.720541 206.583748 
L 702.973611 201.223977 
L 708.035624 191.695476 
L 711.311046 182.46475 
L 711.906571 170.256368 
L 707.737858 153.879272 
L 701.696108 145.253728 
L 693.950885 135.943321 
L 687.697807 125.223763 
L 680.849204 112.419848 
L 672.21401 102.593589 
L 665.067641 96.936051 
L 655.241382 94.256162 
L 647.201713 98.722642 
L 643.015706 104.972571 
L 635.858551 115.0405 
L 631.392071 123.080161 
L 627.223357 128.142174 
L 629.903247 120.995804 
L 634.667493 113.849435 
L 641.21833 104.618708 
L 642.409396 95.090216 
L 640.622797 84.370658 
L 634.062933 73.035256 
L 625.942705 67.666519 
L 616.414204 61.115682 
L 605.099121 59.031317 
L 595.570628 57.84026 
L 587.53096 58.435792 
L 580.086824 62.902272 
L 572.642688 72.430765 
L 566.091851 84.341381 
L 560.136547 95.656464 
L 555.67006 105.184964 
L 551.799112 112.926859 
L 544.950509 120.966528 
L 538.399665 130.197254 
L 532.444361 137.939156 
L 527.977881 144.489993 
L 523.213634 149.849772 
L 527.977881 143.001169 
L 531.848828 137.045857 
L 538.995197 129.006196 
L 543.461677 120.073228 
L 552.096879 111.735801 
L 554.479002 104.291665 
L 559.838781 93.572107 
L 564.900794 82.852557 
L 571.153864 70.644175 
L 574.13152 59.031317 
L 571.749397 50.396124 
L 567.168151 43.868234 
L 557.341892 37.019631 
L 548.408932 32.255385 
L 511.783785 20.642535 
L 501.064227 20.642535 
L 494.51339 26.300081 
L 491.237968 36.126332 
L 490.642443 48.63248 
L 491.070932 57.919552 
L 491.666465 68.341343 
L 492.857522 78.763127 
L 492.857522 87.398329 
L 491.368698 95.437997 
L 490.177633 86.50503 
L 489.879874 76.083246 
L 488.093276 64.768155 
L 487.199985 53.453072 
L 488.093276 42.733513 
L 489.284341 31.716197 
L 488.986575 24.272061 
L 482.733497 17.423458 
L 472.907246 15.339093 
L 460.996622 14.148035 
L 439.259747 15.339093 
L 427.646898 11.765912 
L 419.904995 9.979322 
L 409.185445 8.788256 
L 400.252477 11.468146 
L 392.808341 20.103339 
L 389.235161 30.525131 
L 388.639628 40.946923 
L 390.723985 52.559772 
L 395.785997 59.706142 
L 405.910023 63.279331 
L 415.140749 63.279331 
L 423.478184 65.95922 
L 433.304443 66.554745 
L 429.731254 70.723466 
L 419.309463 67.448044 
L 408.589912 65.363687 
L 399.06142 64.172622 
L 390.723985 67.745811 
L 386.257505 75.487713 
L 386.555271 86.802796 
L 388.639628 98.713412 
L 389.235161 109.43297 
L 392.212816 114.197216 
L 399.359186 116.877106 
L 411.865334 118.36593 
L 421.393827 116.877106 
L 432.113378 118.36593 
L 437.473157 130.276546 
L 445.810592 142.484928 
L 449.802977 151.492467 
L 454.864989 160.127661 
L 457.544879 170.549453 
L 453.376165 160.425427 
L 449.207452 152.088 
L 442.656607 143.155032 
L 437.296836 130.94665 
L 429.257167 122.311457 
L 419.728675 118.738268 
L 399.182857 119.333801 
L 394.418611 122.906989 
L 388.761066 128.266761 
L 386.974475 137.795253 
L 387.570008 148.514812 
L 388.412262 158.902581 
L 386.676709 147.621512 
L 386.081184 138.09302 
L 382.805762 129.755593 
L 378.339282 123.204748 
L 370.299613 121.418158 
L 361.582398 122.034196 
L 352.277878 122.350407 
L 370.73933 119.372751 
L 376.992408 112.524148 
L 379.076765 102.697889 
L 377.8857 89.893974 
L 375.775184 78.357127 
L 372.053715 72.146957 
L 365.205112 70.062592 
L 351.805664 71.551424 
L 343.468229 73.933547 
L 336.917393 74.826838 
L 344.659295 71.253658 
L 352.103431 70.062592 
L 365.502871 68.573768 
L 371.458183 65.000579 
L 376.222429 58.151976 
L 377.413494 44.45477 
L 375.924662 31.948621 
L 373.840306 21.229063 
L 368.480527 16.464817 
L 361.036391 11.998337 
L 350.912365 12.296103 
L 338.108458 15.273759 
L 326.495601 19.442473 
L 313.98946 23.313428 
L 302.674369 24.206719 
L 289.274929 25.100018 
L 277.364314 28.37544 
L 270.217944 31.948621 
L 266.432494 35.260793 
L 264.58609 43.614177 
L 266.372681 51.058312 
L 268.754804 62.075629 
L 267.861513 73.688479 
L 262.501734 91.852173 
L 261.906201 102.869489 
L 256.844188 92.745472 
L 254.759831 84.408037 
L 260.11961 81.430381 
L 264.883857 75.17731 
L 267.26598 62.075629 
L 264.883857 50.760546 
L 262.203967 42.125345 
L 256.248655 34.38345 
L 247.613462 31.108028 
L 237.409258 28.81354 
L 227.52786 31.28389 
L 216.234829 34.812965 
L 207.059242 37.283315 
L 197.883656 40.812383 
L 189.766795 45.400176 
L 183.76737 51.399601 
L 179.179576 58.104838 
L 176.356321 65.162981 
L 178.120858 73.279842 
L 184.120276 82.102523 
L 190.119701 89.513572 
L 195.413306 98.689158 
L 201.412731 107.864745 
L 208.117968 112.805444 
L 212.705762 117.040332 
L 219.763905 118.80487 
L 211.999942 118.451964 
L 209.176686 120.922313 
L 207.412148 126.92173 
L 208.470874 135.391505 
L 210.588318 143.86128 
L 213.411574 150.566517 
L 218.705179 168.211871 
L 212.705762 149.507791 
L 209.882498 142.802554 
L 207.059242 135.391505 
L 202.824355 121.275219 
L 198.589476 111.040915 
L 194.001682 101.512422 
L 188.708069 91.983921 
L 175.297603 76.456011 
L 167.53364 71.515312 
L 159.769685 70.456586 
L 150.947004 72.221124 
L 144.594673 77.161823 
L 140.359794 84.219966 
L 140.00688 90.925203 
L 140.7127 97.63044 
L 143.888861 108.217651 
L 146.712117 118.451964 
L 148.476655 129.39208 
L 149.888286 141.743836 
L 144.947587 129.039174 
L 143.535955 115.981614 
L 140.7127 107.158933 
L 137.889444 100.10079 
L 132.948737 96.924629 
L 126.243508 96.218809 
L 118.479545 101.159508 
L 111.068496 108.217651 
L 106.127797 114.922888 
L 102.598721 121.981031 
L 96.246398 126.92173 
L 92.011511 134.685693 
L 87.423717 147.743254 
L 86.364992 159.036284 
L 86.338468 170.257036 
L 89.161723 178.373905 
L 94.455336 186.13786 
L 98.33731 193.548909 
L 100.101848 199.90124 
L 104.689641 206.253563 
L 108.924528 208.723921 
L 103.278017 206.959383 
L 96.219866 193.548909 
L 93.043705 186.490766 
L 87.044287 178.726811 
L 81.750674 175.197736 
L 76.809975 175.197736 
L 71.163464 179.432623 
L 64.811133 187.549484 
L 60.576245 197.077984 
L 58.811708 206.606477 
L 59.517527 215.42915 
L 60.223339 218.252413 
L 52.81229 228.133812 
L 50.694847 238.721023 
L 49.283215 247.896609 
L 50.341941 255.660572 
L 52.459384 265.189065 
L 60.223339 271.188482 
L 70.104738 275.776275 
L 81.044862 275.776275 
L 90.926261 273.658832 
L 100.454754 269.071038 
L 108.571622 265.894877 
L 116.335577 265.894877 
L 120.923371 271.541396 
L 125.511164 279.658257 
L 129.746051 288.128032 
L 132.922213 296.950704 
L 132.922213 322.007115 
L 130.451863 304.361761 
L 126.216976 292.010005 
L 121.629183 285.304768 
L 115.276859 278.952445 
L 108.571622 276.129189 
L 89.161723 276.835001 
L 77.868701 277.893719 
L 66.222764 279.305351 
L 58.105896 282.481512 
L 51.400659 292.010005 
L 47.46545 300.756917 
L 44.230813 311.768883 
L 41.40755 322.003196 
L 40.701738 330.120057 
L 41.054644 342.118899 
L 40.701738 353.764835 
L 41.760464 363.999148 
L 43.524994 374.233452 
L 46.701163 384.114851 
L 53.077413 392.423383 
L 62.958812 397.011176 
L 72.487304 400.893157 
L 79.898353 404.422225 
L 86.956496 405.128045 
L 93.661733 401.951875 
L 95.602724 402.304781 
L 95.779177 405.304498 
L 92.073649 408.480659 
L 87.309402 412.186188 
L 83.427429 412.715547 
L 80.251259 409.539377 
L 74.251842 405.833857 
L 66.840793 402.481234 
L 60.664915 399.834432 
L 55.194857 400.010885 
L 50.077697 404.069319 
L 47.077988 409.010018 
L 46.901535 415.891708 
L 45.31345 423.47921 
L 43.725373 428.772823 
L 43.810233 430.740742 
L 43.002361 434.556916 
L 39.830422 441.05189 
L 39.301063 447.580674 
L 39.301063 447.580674 
" style="fill:none;stroke:#000000;stroke-linecap:square;stroke-width:1.5;"/>
   </g>
   <g id="line2d_2">
    <path clip-path="url(#p0c4858e3a6)" d="M 352.277878 122.350407 
L 341.558319 124.136997 
L 334.114184 128.603485 
L 327.861113 135.452088 
L 324.287925 145.278347 
L 322.7991 154.80684 
L 321.905801 169.992878 
L 322.501334 175.352649 
L 320.714744 169.397345 
L 321.310276 154.211307 
L 323.096867 143.789515 
L 322.203568 135.154322 
L 322.203568 128.007952 
L 327.26558 123.839231 
L 334.41195 124.136997 
L 340.665028 122.945939 
L 352.277878 122.350407 
" style="fill:none;stroke:#000000;stroke-linecap:square;stroke-width:1.5;"/>
   </g>
   <g id="line2d_3">
    <path clip-path="url(#p0c4858e3a6)" d="M 151.608787 430.038949 
L 149.855736 427.170322 
L 144.495965 417.344063 
L 149.260211 422.406076 
L 151.608787 430.038949 
" style="fill:none;stroke:#000000;stroke-linecap:square;stroke-width:1.5;"/>
   </g>
   <g id="line2d_4">
    <path clip-path="url(#p0c4858e3a6)" d="M 388.454098 159.41855 
L 388.463307 159.532128 
L 391.143189 165.189674 
L 390.249897 172.038277 
L 391.143189 181.269011 
L 391.440955 186.926549 
L 397.098501 191.393029 
L 405.435936 194.966217 
L 414.071129 197.943873 
L 425.683979 195.56175 
L 417.048785 199.730464 
L 408.115825 201.219288 
L 398.587325 203.899177 
L 386.974475 205.388009 
L 375.957158 204.49471 
L 365.535367 200.921529 
L 357.793464 199.134931 
L 353.029218 194.668451 
L 358.98453 198.241639 
L 365.833133 198.837164 
L 374.766093 196.455041 
L 383.996819 192.584094 
L 389.654365 187.819848 
L 389.654365 180.971245 
L 389.058832 171.442752 
L 388.165541 165.189674 
L 388.454098 159.41855 
L 388.454098 159.41855 
" style="fill:none;stroke:#000000;stroke-linecap:square;stroke-width:1.5;"/>
   </g>
  </g>
 </g>
 <defs>
  <clipPath id="p0c4858e3a6">
   <rect height="529.92" width="777.6" x="0" y="0"/>
  </clipPath>
 </defs>
</svg>
