<?xml version="1.0" encoding="utf-8" standalone="no"?>
<!DOCTYPE svg PUBLIC "-//W3C//DTD SVG 1.1//EN"
  "http://www.w3.org/Graphics/SVG/1.1/DTD/svg11.dtd">
<!-- Created with matplotlib (https://matplotlib.org/) -->
<svg height="511.2pt" version="1.1" viewBox="0 0 611.28 511.2" width="611.28pt" xmlns="http://www.w3.org/2000/svg" xmlns:xlink="http://www.w3.org/1999/xlink">
 <defs>
  <style type="text/css">
*{stroke-linecap:butt;stroke-linejoin:round;}
  </style>
 </defs>
 <g id="figure_1">
  <g><image xlink:href="../../img/ctx/llama_cor_cell.json.ctx-50%25.png" width="611.28px" height="511.2px"/></g>

  <g id="patch_1">
   <path d="M 0 511.2 
L 611.28 511.2 
L 611.28 0 
L 0 0 
z
" style="fill:none;"/>
  </g>
  <g id="axes_1">
   <g id="line2d_1">
    <path clip-path="url(#pe660d29b97)" d="M 44.970665 246.134215 
L 45.532585 253.064559 
L 46.514991 261.386415 
L 48.003366 268.550286 
L 51.00027 276.791771 
L 53.778605 282.965461 
L 56.775509 286.711593 
L 59.772413 290.645033 
L 60.896252 295.140386 
L 63.143928 301.508811 
L 65.953524 306.378781 
L 69.137736 311.623361 
L 72.509257 315.369493 
L 82.888254 315.433158 
L 87.945526 313.934709 
L 91.504349 311.687026 
L 92.628194 306.629754 
L 91.317047 300.823248 
L 87.758224 294.642131 
L 92.440885 295.953278 
L 97.685466 295.204057 
L 104.221015 292.029648 
L 100.68237 295.391359 
L 96.748936 297.639042 
L 93.939334 300.823248 
L 93.377415 306.255137 
L 92.066275 311.499724 
L 90.567819 316.931613 
L 91.129739 322.738113 
L 91.628464 324.604345 
L 92.841928 330.280911 
L 95.828257 335.617666 
L 100.884557 339.167687 
L 107.065674 337.107319 
L 111.935644 334.485026 
L 114.18332 328.865828 
L 114.932548 317.440131 
L 117.367533 316.316293 
L 120.926356 313.693999 
L 123.92326 312.382852 
L 120.926356 316.316293 
L 119.05329 322.122792 
L 119.05329 330.364283 
L 120.07178 335.933496 
L 121.771878 341.041609 
L 115.965379 337.482786 
L 112.406549 336.920866 
L 106.97466 339.168543 
L 101.73008 342.540064 
L 98.358565 348.346564 
L 95.548963 353.965761 
L 95.361661 361.645327 
L 96.86011 369.886818 
L 97.203912 374.507862 
L 101.7765 383.091108 
L 105.681956 390.152804 
L 109.113963 393.400327 
L 113.234705 396.771841 
L 119.415822 398.082988 
L 125.971549 397.521069 
L 129.530373 398.270296 
L 140.206842 405.949862 
L 144.379458 407.955484 
L 149.356145 409.888608 
L 156.507345 411.964277 
L 162.313851 414.024645 
L 169.431497 415.897711 
L 178.42221 417.208857 
L 185.352554 418.707306 
L 193.03212 422.266136 
L 199.025928 424.139201 
L 204.645125 426.386878 
L 209.702404 426.761489 
L 214.385065 428.634555 
L 223.001167 430.320312 
L 231.778115 432.187699 
L 239.45768 433.124229 
L 258.375641 431.813082 
L 267.179045 432.936921 
L 272.437819 435.678407 
L 273.154472 439.985297 
L 267.323778 444.272613 
L 263.015733 450.82834 
L 261.329969 456.260236 
L 260.76805 464.50172 
L 260.955359 471.619367 
L 258.333065 477.425873 
L 256.272697 483.045064 
L 256.445396 486.346135 
L 261.502668 491.028797 
L 267.665153 491.289893 
L 279.47482 491.907426 
L 289.776679 492.282043 
L 300.265846 490.596279 
L 310.005786 490.408977 
L 316.93613 491.532815 
L 324.803004 493.031264 
L 339.974833 489.65975 
L 347.841708 488.348603 
L 355.708582 487.412073 
L 359.642016 485.539007 
L 358.330875 478.421355 
L 352.898986 472.802163 
L 349.902082 466.059127 
L 348.965546 459.503394 
L 343.720965 452.011137 
L 339.600217 446.579247 
L 335.666783 442.271197 
L 331.920651 438.337757 
L 336.41601 434.404323 
L 340.724061 432.718565 
L 345.223131 432.616555 
L 352.53613 433.16653 
L 360.964923 434.103065 
L 371.079474 433.728449 
L 379.508273 432.23 
L 389.997435 429.607706 
L 399.362764 428.671176 
L 408.728087 427.172721 
L 417.156886 423.613898 
L 423.899916 419.118539 
L 428.899856 416.014196 
L 438.561283 411.275187 
L 441.558187 408.278283 
L 446.615466 407.154444 
L 458.41578 403.033702 
L 463.825296 399.929806 
L 471.814322 396.951411 
L 479.493888 393.017977 
L 487.548071 390.957603 
L 494.853025 387.398779 
L 501.408753 381.030361 
L 506.840642 374.661935 
L 511.523303 368.668127 
L 515.456744 361.925091 
L 517.086618 356.767875 
L 515.217843 350.019643 
L 513.532086 347.022739 
L 509.036726 345.711598 
L 505.290595 345.149673 
L 501.544463 346.086209 
L 499.484095 346.086209 
L 496.112574 342.340078 
L 492.741059 340.841629 
L 488.994928 341.216239 
L 485.998023 343.838533 
L 490.493377 337.470108 
L 490.493377 331.85091 
L 488.058392 325.857102 
L 486.372634 320.612521 
L 487.30917 316.491779 
L 489.744155 320.425213 
L 491.055302 327.168249 
L 493.490287 332.600138 
L 496.299882 337.844718 
L 499.858706 341.028931 
L 507.350969 342.527386 
L 513.906696 342.714688 
L 520.837041 339.343173 
L 526.456232 331.476299 
L 530.389672 323.984036 
L 530.951591 315.367934 
L 528.329298 309.374126 
L 523.833945 307.50106 
L 514.843226 303.380318 
L 509.036726 299.072267 
L 504.541367 293.827686 
L 509.411337 298.697656 
L 514.655924 302.63109 
L 524.208555 306.939141 
L 528.329298 308.437596 
L 533.948495 306.18992 
L 540.691531 301.69456 
L 546.027083 296.012108 
L 549.493853 288.089063 
L 553.239985 281.346027 
L 555.862272 274.977602 
L 557.173419 268.234566 
L 563.541844 262.802677 
L 566.72605 257.745405 
L 568.789267 252.522983 
L 571.224252 243.906882 
L 571.036944 235.852699 
L 568.227348 227.798517 
L 563.357378 223.490472 
L 556.988953 224.239693 
L 552.86821 228.360442 
L 550.245917 230.608119 
L 548.934776 225.176229 
L 542.940962 222.741244 
L 536.385235 222.741244 
L 531.327962 224.988921 
L 526.80199 228.572795 
L 524.72263 232.723111 
L 522.287645 235.907323 
L 519.290741 237.967691 
L 512.735013 238.716919 
L 505.173009 240.870947 
L 500.883376 241.713823 
L 494.327643 242.744013 
L 489.457673 244.523425 
L 485.898849 248.26955 
L 483.182908 252.296645 
L 480.935225 254.169711 
L 480.46696 249.018778 
L 481.309842 243.961506 
L 482.527334 241.713823 
L 487.116342 237.780389 
L 491.116106 237.021247 
L 496.423477 234.925259 
L 500.263263 234.363334 
L 506.163417 233.988723 
L 510.752424 232.302966 
L 514.873173 229.774327 
L 518.431996 227.058385 
L 521.054283 223.874172 
L 524.519459 224.155129 
L 530.513267 221.907452 
L 534.165744 221.064571 
L 539.32694 220.256495 
L 543.739868 221.002012 
L 548.516184 221.095666 
L 554.416338 218.754336 
L 559.286308 216.506659 
L 562.845131 211.823991 
L 564.249932 207.890558 
L 565.186462 201.615787 
L 565.280116 194.591794 
L 565.02767 189.599495 
L 564.002865 183.008197 
L 562.59807 177.950919 
L 559.413858 172.893647 
L 556.477538 170.276586 
L 552.058411 169.393555 
L 547.375744 168.737982 
L 544.472494 169.861826 
L 541.007325 173.888914 
L 538.197723 176.69851 
L 532.016606 182.317708 
L 528.738745 182.59867 
L 518.717843 179.508112 
L 514.878063 179.227149 
L 512.25577 182.317708 
L 509.914439 185.876531 
L 507.198491 188.030559 
L 502.784206 188.134385 
L 501.305801 185.418444 
L 503.366175 175.865806 
L 504.302711 172.868902 
L 506.644042 172.962556 
L 509.547292 173.805438 
L 511.794969 176.52138 
L 514.698218 177.738872 
L 518.44435 178.956364 
L 522.190482 179.8929 
L 525.936613 181.391349 
L 528.465253 181.859621 
L 534.833672 177.92618 
L 538.579803 174.461011 
L 542.606898 170.246615 
L 543.730736 164.814726 
L 543.82439 157.884381 
L 543.075163 151.890573 
L 541.341982 148.002429 
L 538.310534 144.448166 
L 534.28344 141.544916 
L 529.694433 139.390894 
L 526.697529 138.922629 
L 522.389478 139.952813 
L 519.783218 141.424451 
L 518.282538 142.547678 
L 516.222164 143.484208 
L 513.838325 143.237287 
L 514.991401 141.519199 
L 516.594721 141.7634 
L 524.466815 138.811357 
L 527.182757 137.031946 
L 530.717716 130.123314 
L 530.968719 125.950503 
L 530.244548 120.986298 
L 528.562593 115.897209 
L 519.453665 102.059773 
L 515.239269 98.407296 
L 511.305835 95.223089 
L 505.686637 91.757914 
L 500.910321 89.510238 
L 490.522296 89.14424 
L 486.013856 89.145548 
L 479.64543 88.583629 
L 475.524688 86.710563 
L 473.667797 85.638134 
L 469.998955 80.014302 
L 465.035331 77.953928 
L 460.914589 78.609502 
L 456.138273 80.576222 
L 453.51598 83.104861 
L 453.609634 88.817706 
L 454.639818 94.530558 
L 455.950965 100.898977 
L 458.104993 106.705483 
L 459.416134 112.418329 
L 461.289199 116.16446 
L 463.724184 119.255019 
L 464.848029 124.218643 
L 467.177592 128.94789 
L 469.271942 131.089974 
L 472.001013 132.071622 
L 477.058292 132.165277 
L 485.674393 131.884314 
L 486.142658 135.817754 
L 484.550549 139.657534 
L 480.710769 138.159085 
L 478.088476 134.319299 
L 475.934454 132.258931 
L 471.158138 132.633542 
L 467.224698 135.536792 
L 464.696058 138.814658 
L 463.103955 145.089423 
L 459.357824 163.539119 
L 458.214265 167.521852 
L 456.227086 171.263161 
L 453.913862 175.239641 
L 450.823303 179.454038 
L 450.823303 177.955589 
L 453.258288 175.614258 
L 455.880582 170.931591 
L 457.379037 167.65373 
L 457.566339 163.064717 
L 459.439405 156.977254 
L 461.687088 143.210226 
L 462.529963 135.998925 
L 462.249007 128.974927 
L 461.892887 125.168266 
L 459.55155 121.609443 
L 456.648301 118.612539 
L 457.21022 113.274298 
L 455.149852 105.032813 
L 453.183896 98.292449 
L 452.48733 91.312291 
L 451.925411 84.007336 
L 451.263981 80.429563 
L 446.655376 75.892221 
L 441.879061 74.11281 
L 437.290047 74.581075 
L 432.513731 76.454141 
L 427.643761 78.795471 
L 423.710327 80.200272 
L 420.245152 79.076434 
L 420.05785 75.704913 
L 422.867446 74.581075 
L 427.643761 74.019156 
L 432.982002 73.550891 
L 438.226583 71.771479 
L 441.691752 67.838039 
L 442.721936 61.844231 
L 440.47426 56.59965 
L 437.94562 52.197945 
L 432.139121 46.766056 
L 427.940648 44.004696 
L 421.639103 42.294072 
L 416.019912 42.106764 
L 411.056287 43.698873 
L 406.841891 47.445005 
L 403.376716 51.565747 
L 401.222693 54.937262 
L 398.975017 59.245313 
L 395.69715 61.867606 
L 393.543128 58.964356 
L 395.135231 54.562651 
L 398.694054 48.849799 
L 399.068665 42.668683 
L 396.678976 37.896469 
L 392.697208 33.725039 
L 387.733584 31.758319 
L 382.957268 30.540826 
L 378.742871 30.447178 
L 374.085749 30.720861 
L 368.841162 32.874883 
L 365.750604 35.309868 
L 363.502927 38.49408 
L 362.847354 44.019624 
L 363.690236 49.357859 
L 363.928115 53.12835 
L 369.314012 71.720462 
L 371.766021 79.536239 
L 372.397974 82.286785 
L 369.40107 77.885086 
L 367.247042 73.015116 
L 365.935895 69.17533 
L 365.901835 66.263632 
L 365.388194 59.602594 
L 363.601894 52.352782 
L 363.039974 49.262224 
L 359.855762 42.33188 
L 355.828668 37.555564 
L 350.86505 34.371357 
L 344.964889 34.184049 
L 339.533 34.465006 
L 335.318604 36.712688 
L 332.134391 39.990549 
L 329.886715 45.047827 
L 325.953281 60.406965 
L 326.210519 65.961159 
L 328.154983 69.21458 
L 332.179883 72.621115 
L 336.76889 74.587835 
L 340.608676 78.98954 
L 342.97167 82.64887 
L 346.248406 89.773987 
L 350.181846 95.955097 
L 355.455982 105.830307 
L 358.107605 110.012795 
L 360.823547 113.758927 
L 364.995801 126.091495 
L 367.341032 130.999578 
L 369.307746 135.775894 
L 371.742731 140.083945 
L 366.310842 131.748799 
L 363.220284 128.002674 
L 360.878953 124.818461 
L 357.882049 121.44694 
L 356.008983 117.232544 
L 356.008983 113.392764 
L 354.41688 106.930685 
L 352.565826 102.017552 
L 349.634794 96.428277 
L 345.607699 90.153512 
L 342.122168 82.606185 
L 339.284222 79.093978 
L 335.725398 76.097074 
L 332.521142 74.822732 
L 328.96771 74.310333 
L 325.411638 74.686325 
L 322.602042 76.746699 
L 321.066745 78.832588 
L 320.52726 82.00839 
L 321.557444 85.848175 
L 323.711472 89.594301 
L 326.989333 98.491365 
L 327.551258 103.080373 
L 328.581442 106.639196 
L 330.829119 109.448798 
L 331.765655 112.633004 
L 328.394134 110.759944 
L 327.082987 102.799416 
L 325.39723 96.899256 
L 323.055899 90.624491 
L 320.714568 85.098948 
L 318.185929 81.727427 
L 315.532913 81.221911 
L 312.810406 83.287053 
L 309.438891 87.033184 
L 307.09756 91.996809 
L 306.067376 96.67947 
L 305.236476 103.986601 
L 305.478249 107.887534 
L 305.4774 117.527003 
L 305.664702 121.179481 
L 306.531045 123.661058 
L 309.335377 127.432777 
L 311.957664 130.336027 
L 315.703796 132.396402 
L 319.637236 133.051975 
L 322.839023 133.959536 
L 328.169054 135.76019 
L 332.664408 138.007873 
L 335.193047 142.222269 
L 337.534378 146.436666 
L 339.78206 151.681246 
L 341.688575 155.09574 
L 344.527696 159.621523 
L 350.146893 166.364553 
L 352.488224 167.582045 
L 355.578782 168.14397 
L 359.137606 175.167963 
L 356.702621 174.231433 
L 352.956489 171.796448 
L 351.364386 168.799538 
L 349.678628 166.364553 
L 344.246739 159.621523 
L 339.095807 151.473686 
L 336.473513 146.510062 
L 333.94488 142.576628 
L 328.981256 137.332041 
L 324.485897 135.458976 
L 319.241316 133.58591 
L 314.745957 132.743034 
L 311.280788 133.679564 
L 308.377538 136.676468 
L 307.2537 141.827401 
L 307.62831 154.283282 
L 308.471192 159.434215 
L 310.344252 163.83592 
L 313.528464 167.769354 
L 313.903081 169.361463 
L 309.688685 174.418735 
L 308.752149 178.914094 
L 308.658495 184.533292 
L 307.762584 191.446685 
L 308.228759 195.770092 
L 309.446251 199.141606 
L 309.633559 202.419473 
L 310.080882 203.432003 
L 312.546578 204.128019 
L 317.318724 205.804051 
L 321.814084 205.991359 
L 325.091944 205.710397 
L 321.907738 207.677117 
L 317.880644 209.924793 
L 313.291636 212.078822 
L 305.11186 213.562741 
L 301.05658 212.122962 
L 296.280264 212.216617 
L 292.534132 211.092772 
L 287.757817 210.811816 
L 284.47995 207.533949 
L 288.694346 209.687977 
L 292.159522 209.87528 
L 296.842183 207.252992 
L 300.120044 203.694169 
L 300.869271 198.730545 
L 300.962926 193.39231 
L 300.869271 187.866767 
L 300.588315 182.809488 
L 300.681969 178.126827 
L 298.878326 175.857462 
L 296.147335 173.01001 
L 296.615606 169.732143 
L 299.050591 166.735239 
L 301.298268 163.551033 
L 301.017305 158.025489 
L 300.54904 152.312638 
L 301.209987 137.254611 
L 299.243267 132.571949 
L 294.560605 130.698883 
L 289.035062 131.073494 
L 284.258746 133.227522 
L 279.576084 136.037118 
L 275.923607 140.345169 
L 273.582276 145.308793 
L 271.147291 149.804152 
L 268.524998 153.550278 
L 265.153477 157.202755 
L 262.812146 161.042541 
L 261.875616 164.601364 
L 261.454683 168.248768 
L 259.58438 172.716522 
L 256.119474 174.118658 
L 253.028915 169.716953 
L 252.56065 166.345438 
L 256.025819 162.786615 
L 260.521179 160.070667 
L 264.26731 156.511844 
L 268.575355 151.641874 
L 270.542075 148.738624 
L 275.131089 139.747912 
L 277.378765 137.031964 
L 279.532787 133.473141 
L 281.124897 130.382582 
L 284.121801 128.790479 
L 288.617154 129.258744 
L 293.580778 129.446053 
L 298.076137 127.572987 
L 301.354004 123.545892 
L 302.384188 120.174378 
L 302.323843 115.224324 
L 302.796399 109.662636 
L 302.23448 97.01944 
L 302.515442 92.243124 
L 303.115707 87.487402 
L 304.612127 83.369973 
L 305.829619 77.469819 
L 305.2677 72.506195 
L 301.615222 68.291798 
L 296.370642 66.231424 
L 291.126055 65.575851 
L 287.192621 67.729879 
L 284.757636 71.288702 
L 283.259181 75.409445 
L 284.289371 85.61765 
L 283.446489 88.469625 
L 282.228997 91.158071 
L 279.513049 95.062873 
L 276.890762 99.651006 
L 274.830388 102.835219 
L 272.020792 105.176549 
L 270.813575 104.34118 
L 270.853003 102.994127 
L 272.819717 100.090877 
L 275.348356 98.77973 
L 278.907179 94.752636 
L 281.997737 90.819202 
L 283.027921 88.0096 
L 283.683495 83.888858 
L 283.121576 79.393505 
L 281.342164 74.9918 
L 277.221422 72.744123 
L 272.318999 72.900825 
L 266.257993 75.369412 
L 260.826103 79.3965 
L 256.611707 83.142632 
L 252.678267 88.668175 
L 249.962325 94.755638 
L 247.714649 100.562137 
L 245.935237 105.619416 
L 243.21929 111.332261 
L 238.72393 119.480098 
L 237.131827 123.319884 
L 236.195297 127.253318 
L 234.041269 131.37406 
L 235.071453 125.473906 
L 235.633378 118.73087 
L 235.82068 113.48629 
L 236.569908 108.522666 
L 238.030091 104.448277 
L 240.633948 93.506285 
L 244.380049 88.82396 
L 249.530982 83.204768 
L 253.183459 80.957086 
L 258.521694 76.274424 
L 262.736091 73.183866 
L 267.330184 70.706067 
L 272.67955 70.224415 
L 277.830477 68.351349 
L 283.168711 65.354445 
L 286.821189 62.357541 
L 288.881563 57.11296 
L 290.19271 49.33974 
L 290.567321 42.409396 
L 289.730967 35.05648 
L 285.954547 30.442728 
L 279.960298 29.315833 
L 273.591879 29.315833 
L 267.691725 30.439672 
L 260.061368 32.120906 
L 254.323105 34.511665 
L 249.265827 38.257796 
L 246.175268 42.378539 
L 244.583165 48.091384 
L 243.272019 50.620023 
L 240.998699 54.336936 
L 238.095449 55.741737 
L 231.914332 56.584619 
L 228.261855 53.962325 
L 227.138016 48.811393 
L 228.542811 44.971613 
L 232.007986 41.319135 
L 235.285847 36.730122 
L 235.004891 32.515725 
L 232.905327 28.222388 
L 227.123639 25.186552 
L 221.129831 23.875411 
L 216.728126 23.500794 
L 212.794686 23.688102 
L 209.41229 25.888026 
L 203.418482 29.634158 
L 200.046961 34.504127 
L 198.173901 39.748708 
L 197.799284 44.993295 
L 200.046961 50.612486 
L 203.793093 56.980911 
L 205.853475 59.790522 
L 203.793093 57.730139 
L 200.046961 50.987103 
L 194.053153 46.117133 
L 185.811668 43.120229 
L 178.319405 43.49484 
L 171.201758 47.240972 
L 166.706399 53.609397 
L 162.585656 61.101654 
L 159.963363 67.470079 
L 158.464914 74.587725 
L 156.966459 91.445312 
L 156.966459 100.061413 
L 158.839525 106.804449 
L 162.211046 114.296713 
L 165.582561 120.665132 
L 168.579465 127.408167 
L 169.703303 134.151203 
L 174.94789 137.522718 
L 180.153617 143.843964 
L 179.068632 143.141916 
L 173.074824 136.39888 
L 168.954082 136.39888 
L 165.20795 137.522718 
L 163.709495 130.030461 
L 161.836429 121.78897 
L 158.839525 113.547485 
L 154.344172 106.429839 
L 147.226519 103.807545 
L 141.981938 104.556773 
L 137.111968 108.302904 
L 131.867388 110.925192 
L 127.372028 110.175964 
L 126.24819 102.683707 
L 129.619705 89.572246 
L 131.867388 95.191444 
L 137.486579 99.312186 
L 141.981938 101.559869 
L 147.226519 101.934479 
L 152.845717 100.061413 
L 154.718782 93.318378 
L 155.842621 87.324569 
L 155.842621 78.708468 
L 154.718782 71.590821 
L 152.845717 63.34933 
L 146.851908 60.727043 
L 135.98813 61.476271 
L 124.749735 64.473175 
L 114.260574 69.343145 
L 104.895245 76.835402 
L 99.276047 85.076893 
L 95.155305 93.692995 
L 92.907628 103.432934 
L 93.656856 113.547485 
L 97.02837 118.792066 
L 95.904532 124.411263 
L 90.659945 128.157395 
L 84.666137 133.401976 
L 79.796167 139.021173 
L 77.17388 145.389592 
L 77.548491 149.135724 
L 81.669233 154.380311 
L 86.164592 160.748729 
L 89.910724 167.491765 
L 92.533011 174.234801 
L 98.152209 179.853999 
L 103.022179 182.476286 
L 108.266766 185.098579 
L 113.136735 189.968549 
L 109.765215 191.467004 
L 103.771406 189.593939 
L 99.650664 189.219322 
L 97.02837 183.60013 
L 92.158401 181.352448 
L 89.536107 174.234801 
L 85.789982 166.742538 
L 82.418461 159.624891 
L 74.176976 150.634179 
L 65.560874 152.132628 
L 59.941677 158.501053 
L 58.443228 165.244089 
L 58.817838 172.736346 
L 57.694 179.104771 
L 57.319383 180.228609 
L 55.19178 182.96056 
L 52.252104 191.302741 
L 51.325575 197.086196 
L 50.576347 204.01654 
L 51.325575 211.696106 
L 52.141316 216.861947 
L 54.175051 220.875294 
L 56.984646 223.684896 
L 61.105395 224.996036 
L 66.349976 225.183345 
L 73.093011 223.872198 
L 76.62547 223.844739 
L 77.749308 226.841643 
L 80.371596 230.775077 
L 84.492344 233.771982 
L 92.359218 234.521209 
L 99.664173 233.584679 
L 107.15643 232.086224 
L 116.52176 230.400467 
L 124.201325 230.02585 
L 129.633214 232.648143 
L 130.944361 238.641952 
L 130.382442 241.264245 
L 125.512472 237.143503 
L 119.331355 233.771982 
L 112.588319 231.898916 
L 104.721445 233.02276 
L 96.292652 235.645047 
L 89.736925 240.515017 
L 85.990793 245.010377 
L 84.305036 249.880347 
L 82.993889 254.563008 
L 79.996985 258.121831 
L 83.930425 249.693038 
L 84.305036 245.010377 
L 84.679646 238.267341 
L 79.996985 232.086224 
L 72.69203 227.028946 
L 62.01556 225.530497 
L 57.520201 226.092416 
L 52.837539 230.962386 
L 48.904099 235.457745 
L 46.469114 240.702326 
L 44.970665 246.134215 
L 44.970665 246.134215 
" style="fill:none;stroke:#000000;stroke-linecap:square;stroke-width:1.5;"/>
   </g>
   <g id="line2d_2">
    <path clip-path="url(#pe660d29b97)" d="M 104.258238 291.994286 
L 107.238104 287.524485 
L 106.676184 280.21953 
L 102.555436 276.098788 
L 96.374319 272.727273 
L 102.742744 275.536868 
L 106.863487 279.095692 
L 110.42231 279.283 
L 115.104978 279.283 
L 119.787639 276.660707 
L 116.228816 279.844919 
L 112.108073 283.778353 
L 108.361942 287.149874 
L 104.258238 291.994286 
" style="fill:none;stroke:#000000;stroke-linecap:square;stroke-width:1.5;"/>
   </g>
   <g id="line2d_3">
    <path clip-path="url(#pe660d29b97)" d="M 210.625301 67.684092 
L 210.910745 68.2193 
L 211.256566 69.199128 
L 210.625301 67.684092 
" style="fill:none;stroke:#000000;stroke-linecap:square;stroke-width:1.5;"/>
   </g>
   <g id="line2d_4">
    <path clip-path="url(#pe660d29b97)" d="M 212.52907 72.804559 
L 213.158422 74.587725 
L 215.031488 80.581534 
L 213.533033 83.203827 
L 213.158422 77.210019 
L 212.52907 72.804559 
" style="fill:none;stroke:#000000;stroke-linecap:square;stroke-width:1.5;"/>
   </g>
   <g id="line2d_5">
    <path clip-path="url(#pe660d29b97)" d="M 187.010434 149.622727 
L 190.681638 152.507245 
L 194.42777 154.380311 
L 192.929314 157.377215 
L 189.183183 152.881855 
L 187.010434 149.622727 
L 187.010434 149.622727 
" style="fill:none;stroke:#000000;stroke-linecap:square;stroke-width:1.5;"/>
   </g>
  </g>
 </g>
 <defs>
  <clipPath id="pe660d29b97">
   <rect height="511.2" width="611.28" x="0" y="0"/>
  </clipPath>
 </defs>
</svg>
