<?xml version="1.0" encoding="utf-8" standalone="no"?>
<!DOCTYPE svg PUBLIC "-//W3C//DTD SVG 1.1//EN"
  "http://www.w3.org/Graphics/SVG/1.1/DTD/svg11.dtd">
<!-- Created with matplotlib (https://matplotlib.org/) -->
<svg height="2056.32pt" version="1.1" viewBox="0 0 2358.72 2056.32" width="2358.72pt" xmlns="http://www.w3.org/2000/svg" xmlns:xlink="http://www.w3.org/1999/xlink">
 <defs>
  <style type="text/css">
*{stroke-linecap:butt;stroke-linejoin:round;}
  </style>
 </defs>
 <g id="figure_1">
  <g><image xlink:href="../../img/ctx/manatee_cell.json.ctx-50%25.png" width="2358.72px" height="2056.3199999999997px"/></g>

  <g id="patch_1">
   <path d="M 0 2056.32 
L 2358.72 2056.32 
L 2358.72 0 
L 0 0 
z
" style="fill:none;"/>
  </g>
  <g id="axes_1">
   <g id="line2d_1">
    <path clip-path="url(#paab569401b)" d="M 1020.043277 686.256493 
L 1040.912901 665.386869 
L 1075.063204 642.620008 
L 1099.727325 604.675209 
L 1109.213507 566.730433 
L 1111.110743 511.710505 
L 1105.419034 477.560203 
L 1094.035592 445.307136 
L 1092.138356 416.848566 
L 1096.970901 390.34337 
L 1094.441268 363.782036 
L 1089.381955 344.809648 
L 1086.852299 320.777948 
L 1083.057826 300.54072 
L 1074.20404 279.038699 
L 1065.350255 260.066287 
L 1056.496469 243.623556 
L 1048.907523 225.916008 
L 1043.84821 201.884307 
L 1033.729608 177.852606 
L 1026.140662 162.674691 
L 1009.697907 144.96712 
L 988.195863 132.318861 
L 965.429002 120.935443 
L 926.219386 112.081657 
L 893.333923 108.287184 
L 861.713277 101.963055 
L 835.15192 101.963055 
L 802.266457 103.227871 
L 766.851314 110.816841 
L 744.084453 119.670603 
L 712.463806 132.318861 
L 685.902449 142.437487 
L 664.400405 156.350562 
L 645.428017 182.911919 
L 632.779758 208.208437 
L 625.190813 242.358739 
L 622.661156 272.71457 
L 627.720469 303.070376 
L 637.839071 330.89655 
L 656.811459 361.25238 
L 678.313504 394.137866 
L 693.491419 414.375071 
L 698.550708 430.817802 
L 703.610021 440.936428 
L 688.432106 428.288169 
L 671.989374 410.580598 
L 649.22249 387.813737 
L 622.661156 366.311693 
L 596.099799 346.074465 
L 565.743992 329.631733 
L 536.652979 323.307604 
L 510.091645 322.042764 
L 481.000632 330.89655 
L 456.968954 339.750335 
L 437.996566 356.193067 
L 415.229682 378.959951 
L 383.609036 413.110254 
L 363.371831 444.730901 
L 350.723573 476.351547 
L 343.134603 519.355636 
L 344.399443 572.478327 
L 350.723573 609.158286 
L 368.431121 645.838222 
L 384.873876 669.869923 
L 410.170393 692.636784 
L 435.46691 711.609195 
L 460.763427 722.992614 
L 485.410895 728.653117 
L 513.237069 736.242086 
L 547.387372 743.831032 
L 519.561198 747.625529 
L 498.059154 751.420001 
L 485.410895 757.744131 
L 479.086766 769.127549 
L 474.027453 781.775831 
L 462.644011 795.688907 
L 456.319882 804.542692 
L 458.849538 820.985424 
L 456.319882 836.163339 
L 438.612334 853.87091 
L 412.050977 879.167427 
L 393.078589 889.28603 
L 382.959987 901.934288 
L 381.695147 915.847387 
L 384.224803 934.819775 
L 375.371017 956.321819 
L 358.928286 985.412809 
L 338.691081 1004.385197 
L 323.513166 1019.563112 
L 312.129724 1038.5355 
L 298.216649 1062.567201 
L 286.833207 1086.598878 
L 277.979421 1105.57129 
L 272.920132 1124.543677 
L 260.27185 1132.132623 
L 243.829118 1151.105011 
L 224.85673 1166.282926 
L 205.31641 1185.937645 
L 183.814389 1213.763818 
L 167.371634 1239.060359 
L 149.664086 1269.416165 
L 125.632385 1336.451955 
L 114.248943 1361.748472 
L 110.45447 1384.515333 
L 110.45447 1413.606347 
L 111.719287 1445.226993 
L 119.308256 1483.171769 
L 126.897202 1510.997943 
L 140.8103 1537.559276 
L 158.517848 1554.002031 
L 174.960603 1574.239236 
L 204.051593 1600.800593 
L 225.553638 1618.508141 
L 239.466713 1633.686056 
L 254.644628 1640.010185 
L 278.676329 1653.923284 
L 298.913533 1657.717757 
L 316.621105 1667.836359 
L 334.328676 1680.484617 
L 355.83072 1685.54393 
L 377.332765 1684.279114 
L 426.660983 1683.014274 
L 453.222316 1680.484617 
L 475.989177 1666.571542 
L 489.902276 1647.599154 
L 496.226405 1626.09711 
L 502.550534 1602.065409 
L 522.787739 1617.243324 
L 543.024967 1646.334314 
L 554.27941 1679.009686 
L 577.046295 1723.278591 
L 604.872468 1775.136466 
L 625.109673 1785.255068 
L 656.730319 1813.081241 
L 703.528881 1847.231544 
L 770.56467 1872.528062 
L 831.276307 1887.705977 
L 885.663838 1890.235633 
L 943.845841 1901.619075 
L 1006.043189 1913.597976 
L 1054.162374 1926.218685 
L 1121.928329 1934.504538 
L 1167.462074 1937.034195 
L 1205.40685 1937.034195 
L 1250.940595 1943.358324 
L 1293.944683 1953.476926 
L 1323.035674 1944.62314 
L 1347.067374 1930.710065 
L 1381.217677 1915.53215 
L 1396.395569 1907.943205 
L 1424.221742 1887.705977 
L 1453.312756 1883.911504 
L 1489.992715 1882.646664 
L 1545.645039 1872.528062 
L 1597.502914 1857.350147 
L 1651.890444 1826.99434 
L 1692.364877 1800.432983 
L 1732.839309 1770.077153 
L 1766.989612 1747.310292 
L 1797.345418 1719.484118 
L 1826.436432 1700.51173 
L 1870.447364 1681.701599 
L 1900.803194 1681.701599 
L 1929.894184 1690.555385 
L 1960.250014 1688.025728 
L 1989.341028 1676.64231 
L 2008.313416 1662.729211 
L 2023.491331 1648.816136 
L 2038.669222 1636.167877 
L 2061.436107 1628.578908 
L 2091.791913 1615.930649 
L 2115.823614 1600.752734 
L 2136.060842 1583.045163 
L 2149.973917 1557.748646 
L 2175.270434 1531.187312 
L 2187.918693 1499.566666 
L 2194.242822 1471.740492 
L 2200.032324 1444.577944 
L 2197.502667 1416.75177 
L 2189.913722 1387.660757 
L 2179.795096 1361.099423 
L 2172.20615 1337.067722 
L 2158.293052 1307.976732 
L 2143.11516 1282.680215 
L 2131.731718 1261.178171 
L 2116.553803 1237.14647 
L 2098.846231 1220.703739 
L 2079.873843 1199.201694 
L 2063.431112 1182.758939 
L 2049.518037 1159.992078 
L 2028.015993 1138.490034 
L 2006.513948 1113.193517 
L 1991.336033 1086.632183 
L 1974.941137 1042.086577 
L 1971.146664 1025.643845 
L 1964.822534 1002.876984 
L 1962.292878 980.1101 
L 1958.498405 961.137712 
L 1945.850147 942.165324 
L 1930.672231 914.339151 
L 1914.2295 887.777817 
L 1904.110874 863.746116 
L 1895.257112 840.979255 
L 1885.138486 816.947555 
L 1875.019884 791.651037 
L 1866.166098 775.208306 
L 1853.51784 760.030391 
L 1832.015796 749.911765 
L 1807.984118 739.793163 
L 1785.217234 734.733874 
L 1756.126244 732.204217 
L 1714.386972 734.733874 
L 1691.620111 733.469034 
L 1677.707036 728.409744 
L 1663.793937 725.880088 
L 1643.556733 729.674561 
L 1623.319505 734.733874 
L 1632.173291 725.880088 
L 1653.675335 720.820775 
L 1681.501509 719.555959 
L 1711.857339 714.496646 
L 1733.359383 708.172516 
L 1761.185533 701.848387 
L 1787.74689 691.729785 
L 1813.043408 680.346343 
L 1842.134421 663.903611 
L 1869.960571 641.136727 
L 1885.138486 623.429179 
L 1895.257112 606.986424 
L 1906.640531 584.219563 
L 1912.96466 555.128573 
L 1915.494316 527.302399 
L 1912.883544 494.302515 
L 1902.764918 472.800471 
L 1887.587003 453.828083 
L 1871.144271 431.061198 
L 1852.171883 414.618467 
L 1831.934679 401.970208 
L 1812.962291 394.381263 
L 1795.25472 389.32195 
L 1780.076805 390.586766 
L 1757.309944 396.910895 
L 1718.100328 413.353651 
L 1711.776199 423.472253 
L 1704.187253 431.061198 
L 1678.890712 442.444641 
L 1689.009338 424.737069 
L 1690.274154 412.088811 
L 1705.452069 401.970208 
L 1718.100328 377.938508 
L 1725.689274 355.171647 
L 1730.748587 334.934419 
L 1723.159641 308.373085 
L 1715.570672 288.135857 
L 1697.863124 266.633813 
L 1676.165518 247.174632 
L 1657.19313 228.202245 
L 1636.955926 213.024329 
L 1615.453881 205.435384 
L 1590.157364 195.316782 
L 1564.860847 186.462996 
L 1545.888435 180.138867 
L 1520.591918 175.079554 
L 1492.765745 175.079554 
L 1468.734067 173.814737 
L 1443.437527 167.490608 
L 1418.141009 163.696135 
L 1358.694189 163.696135 
L 1329.603199 164.960952 
L 1297.982553 171.285081 
L 1272.686035 180.138867 
L 1243.595022 191.522309 
L 1220.828161 202.905727 
L 1181.618545 244.645 
L 1168.970287 271.206333 
L 1160.116501 293.973218 
L 1156.322028 319.269735 
L 1148.733082 343.301412 
L 1148.733082 402.748232 
L 1153.792372 436.898535 
L 1160.116501 465.989549 
L 1161.381341 477.372967 
L 1158.851684 492.550882 
L 1153.792372 521.641896 
L 1152.527555 557.057015 
L 1160.116501 589.942502 
L 1175.294416 620.298308 
L 1191.493775 644.687827 
L 1210.466163 664.925031 
L 1229.43855 680.102946 
L 1247.146122 685.162259 
L 1269.912983 687.691916 
L 1248.410938 696.545678 
L 1231.968207 707.92912 
L 1219.319948 723.107035 
L 1207.936506 744.609079 
L 1200.347537 764.846284 
L 1194.023407 786.348328 
L 1194.023407 809.115213 
L 1191.493775 835.676546 
L 1190.228935 854.648934 
L 1185.169645 883.739948 
L 1180.110332 944.451584 
L 1181.375149 964.688812 
L 1194.023431 986.190857 
L 1215.525452 998.839115 
L 1264.85367 1000.103932 
L 1231.968207 1003.898404 
L 1205.40685 1001.368772 
L 1186.434462 1007.692877 
L 1182.639989 1020.341136 
L 1168.72689 1014.017007 
L 1153.548975 1007.692877 
L 1133.311771 1001.368748 
L 1115.604199 996.309459 
L 1081.453896 996.309459 
L 1062.481509 997.574275 
L 1075.129767 992.514986 
L 1101.691124 991.250146 
L 1123.193169 983.6612 
L 1137.106244 965.953629 
L 1142.165557 953.30537 
L 1140.900717 928.008853 
L 1133.311771 907.771625 
L 1132.046954 887.534421 
L 1128.252458 863.50272 
L 1119.398696 833.14689 
L 1111.809727 811.644845 
L 1106.750437 796.466954 
L 1099.161468 777.494542 
L 1081.453896 734.490477 
L 1067.540821 715.518066 
L 1049.83325 702.869807 
L 1037.184991 694.016045 
L 1020.043277 686.256493 
L 1020.043277 686.256493 
" style="fill:none;stroke:#000000;stroke-linecap:square;stroke-width:1.5;"/>
   </g>
   <g id="line2d_2">
    <path clip-path="url(#paab569401b)" d="M 1907.938982 777.69534 
L 1911.501192 814.208208 
L 1922.187892 840.034376 
L 1933.76515 864.07945 
L 1944.45185 889.01506 
L 1955.13855 912.169576 
L 1974.73081 931.761859 
L 2002.338118 955.806911 
L 2021.930377 962.040819 
L 2037.960427 956.697469 
L 2058.443268 954.916352 
L 2071.80162 947.791886 
L 2090.503344 955.806911 
L 2106.533394 946.010769 
L 2111.876721 929.090184 
L 2116.329512 910.38846 
L 2117.22007 891.686735 
L 2101.190044 889.905618 
L 2083.378878 879.218942 
L 2063.786595 865.860567 
L 2045.975452 852.502192 
L 2030.83596 842.706051 
L 2018.368144 827.566583 
L 2016.587027 817.770441 
L 2012.134236 806.193183 
L 1996.994768 793.725366 
L 1987.198626 780.367015 
L 1972.059135 775.023665 
L 1957.810225 767.00864 
L 1942.670733 762.555849 
L 1929.312359 763.446407 
L 1917.7351 767.899199 
L 1907.938982 777.69534 
" style="fill:none;stroke:#000000;stroke-linecap:square;stroke-width:1.5;"/>
   </g>
   <g id="line2d_3">
    <path clip-path="url(#paab569401b)" d="M 419.816708 823.113791 
L 438.518433 808.864858 
L 454.548459 793.725366 
L 453.657901 779.476457 
L 450.095668 763.446407 
L 442.080667 750.978591 
L 427.831733 740.291891 
L 410.020567 731.386331 
L 392.209424 723.371306 
L 370.836024 719.809073 
L 345.900415 719.809073 
L 328.979807 722.480748 
L 315.621432 729.605214 
L 306.715849 738.510774 
L 304.934732 751.869149 
L 311.16864 769.680315 
L 327.19869 784.819807 
L 347.681508 807.9743 
L 371.726583 824.004349 
L 392.209424 831.128816 
L 408.23945 830.238258 
L 419.816708 823.113791 
" style="fill:none;stroke:#000000;stroke-linecap:square;stroke-width:1.5;"/>
   </g>
  </g>
 </g>
 <defs>
  <clipPath id="paab569401b">
   <rect height="2056.32" width="2358.72" x="0" y="0"/>
  </clipPath>
 </defs>
</svg>
