<?xml version="1.0" encoding="utf-8" standalone="no"?>
<!DOCTYPE svg PUBLIC "-//W3C//DTD SVG 1.1//EN"
  "http://www.w3.org/Graphics/SVG/1.1/DTD/svg11.dtd">
<!-- Created with matplotlib (https://matplotlib.org/) -->
<svg height="503.28pt" version="1.1" viewBox="0 0 570.24 503.28" width="570.24pt" xmlns="http://www.w3.org/2000/svg" xmlns:xlink="http://www.w3.org/1999/xlink">
 <defs>
  <style type="text/css">
*{stroke-linecap:butt;stroke-linejoin:round;}
  </style>
 </defs>
 <g id="figure_1">
  <g><image xlink:href="../../img/ctx/mandrill_cell.json.ctx-50%25.png" width="570.24px" height="503.28px"/></g>

  <g id="patch_1">
   <path d="M 0 503.28 
L 570.24 503.28 
L 570.24 0 
L 0 0 
z
" style="fill:none;"/>
  </g>
  <g id="axes_1">
   <g id="line2d_1">
    <path clip-path="url(#pe3af5f749e)" d="M 277.494488 145.896195 
L 280.825083 141.108465 
L 282.490378 136.112576 
L 284.155673 130.492199 
L 284.571999 125.079983 
L 285.612807 118.626959 
L 285.612807 104.471943 
L 285.404647 98.6434 
L 284.988326 94.271997 
L 284.155673 89.067947 
L 282.074052 84.072057 
L 279.57611 80.325141 
L 276.245515 76.786386 
L 272.082272 74.080278 
L 267.710869 73.039464 
L 262.923146 73.039464 
L 258.343577 74.288438 
L 255.221148 75.537412 
L 248.976284 79.700654 
L 246.270176 83.23941 
L 242.939581 88.859786 
L 240.649799 94.271997 
L 238.360018 99.267887 
L 238.360018 102.390321 
L 240.025312 105.929077 
L 242.731421 110.50864 
L 244.813042 112.590261 
L 242.939581 114.255556 
L 239.817152 113.422909 
L 236.278397 111.965774 
L 235.237589 109.051506 
L 235.029423 106.137237 
L 235.862076 102.806642 
L 237.111044 99.684213 
L 239.192665 95.937297 
L 241.274286 91.774055 
L 243.355908 86.986326 
L 247.102823 81.574109 
L 249.392611 78.659841 
L 251.890553 76.370059 
L 253.764014 73.663951 
L 252.306879 70.957849 
L 248.768124 68.668061 
L 243.564068 68.668061 
L 237.735531 69.292548 
L 231.282507 70.541522 
L 223.788675 71.790496 
L 212.339761 74.496598 
L 207.135705 75.953738 
L 200.266361 77.619033 
L 194.229657 79.284328 
L 188.19296 81.365949 
L 181.948096 83.655731 
L 177.160367 85.945518 
L 168.802291 89.65798 
L 157.561537 95.486517 
L 125.712738 113.804776 
L 115.929119 120.465966 
L 107.394474 128.376124 
L 100.94145 137.32709 
L 98.443508 143.571954 
L 98.859829 149.19233 
L 101.565937 153.355573 
L 109.684261 160.84941 
L 113.431177 165.637134 
L 119.467875 170.84119 
L 127.274671 175.001569 
L 131.437908 177.083191 
L 135.60115 177.915838 
L 140.38888 178.748485 
L 146.217417 179.164812 
L 151.213306 179.372972 
L 155.168388 180.830107 
L 163.494868 183.328054 
L 158.290817 182.703567 
L 153.919415 182.703567 
L 149.548012 182.495401 
L 145.59293 181.038267 
L 141.429693 180.413786 
L 137.266451 179.372972 
L 131.229747 179.581133 
L 129.148126 178.123998 
L 127.066505 175.626056 
L 124.776723 174.168922 
L 118.323699 170.422006 
L 115.825757 169.589353 
L 113.744136 167.299572 
L 111.454349 164.593463 
L 108.956407 161.262874 
L 106.250299 158.140439 
L 100.838088 153.14455 
L 98.34014 151.062928 
L 95.425872 150.438442 
L 90.429982 151.062928 
L 85.469978 152.554522 
L 81.306735 155.468791 
L 76.935332 159.840194 
L 73.396577 163.58711 
L 71.106795 167.334025 
L 70.274148 169.831973 
L 69.441495 171.705434 
L 65.902739 174.827863 
L 62.57215 178.158458 
L 60.490529 182.321695 
L 58.200747 188.358398 
L 57.159934 192.937961 
L 58.200747 198.558338 
L 60.490529 203.554228 
L 64.445605 207.50931 
L 68.400687 209.174604 
L 73.188417 208.966444 
L 79.225114 208.550117 
L 83.388356 209.799091 
L 94.83727 215.211307 
L 101.082134 217.709249 
L 106.910671 218.750063 
L 113.571855 220.623518 
L 127.10239 219.790871 
L 131.473793 220.415358 
L 137.926823 222.288818 
L 145.628815 223.121466 
L 153.538973 223.537787 
L 160.200163 223.537787 
L 163.530753 222.705139 
L 164.779727 223.121466 
L 162.627766 225.338046 
L 160.129824 226.378859 
L 157.00739 226.378859 
L 149.721718 226.79518 
L 142.01972 226.378859 
L 137.856478 225.754372 
L 133.276915 225.962533 
L 129.94632 226.378859 
L 125.15859 227.627827 
L 123.076975 227.627827 
L 120.995354 226.79518 
L 118.081085 225.338046 
L 115.583137 224.505398 
L 112.044382 224.297238 
L 107.672979 224.505398 
L 99.55466 224.505398 
L 97.6812 224.089077 
L 94.766931 222.631938 
L 92.89347 222.215617 
L 89.354715 222.215617 
L 86.856773 222.007456 
L 83.734338 220.342156 
L 78.185732 218.29642 
L 75.063303 216.631125 
L 71.940874 216.422965 
L 69.442926 214.965831 
L 67.153145 212.884209 
L 63.82255 212.051562 
L 59.451147 212.051562 
L 55.079744 212.676043 
L 50.708341 215.382151 
L 46.336938 219.753554 
L 42.590017 225.790257 
L 39.883914 231.202468 
L 37.802293 238.071818 
L 37.594127 244.316682 
L 38.63494 249.728893 
L 40.924722 254.308462 
L 44.047151 259.096191 
L 47.585906 261.802293 
L 51.540988 262.42678 
L 55.287904 261.594133 
L 60.908281 260.136999 
L 71.732708 256.806404 
L 76.936764 256.598243 
L 81.516327 258.055377 
L 84.430595 260.969646 
L 87.136704 264.716562 
L 89.010164 268.463483 
L 89.218325 272.41856 
L 88.177511 274.708347 
L 87.344864 277.206289 
L 87.55303 281.785852 
L 87.136704 287.406229 
L 86.512217 291.361311 
L 87.136704 296.773527 
L 88.246425 303.431849 
L 90.119886 308.635905 
L 92.825988 313.215468 
L 96.78107 316.754224 
L 101.152473 319.668492 
L 106.148363 320.917466 
L 110.936092 320.917466 
L 114.683008 320.50114 
L 118.013603 320.50114 
L 116.348303 321.541953 
L 112.185066 322.582761 
L 109.895279 322.582761 
L 103.650421 323.207248 
L 97.821878 327.37049 
L 97.197391 328.619464 
L 95.115775 328.203137 
L 92.617828 329.452111 
L 90.952533 329.868438 
L 91.368854 324.039895 
L 90.536206 316.962384 
L 89.495399 314.256282 
L 88.662746 312.590981 
L 89.287233 311.133847 
L 89.495399 309.052226 
L 89.079072 306.762444 
L 88.038264 303.848176 
L 87.205611 300.10126 
L 86.789291 297.395152 
L 86.164804 294.480883 
L 85.956643 292.399262 
L 86.789291 285.529911 
L 86.789291 280.534022 
L 87.205611 272.415703 
L 85.123996 269.085108 
L 81.58524 266.170839 
L 78.462806 263.881058 
L 74.92405 262.215763 
L 70.344487 262.215763 
L 65.140431 262.840244 
L 60.144541 263.04841 
L 55.773139 263.672897 
L 52.442549 263.881058 
L 48.487467 264.713705 
L 45.573199 265.546352 
L 43.283417 267.211653 
L 41.201796 270.125921 
L 39.952822 272.207542 
L 39.328335 275.954458 
L 39.744662 279.285053 
L 39.952822 282.407482 
L 39.536501 285.321751 
L 37.871201 287.819699 
L 35.997746 289.484993 
L 32.355623 292.328923 
L 30.482162 296.700326 
L 29.649515 303.56967 
L 30.065841 310.439021 
L 30.482162 315.434911 
L 30.482162 320.847127 
L 32.355623 324.385882 
L 32.98011 330.21442 
L 34.853565 337.08377 
L 36.935186 343.536794 
L 39.641294 349.781652 
L 44.012697 354.569381 
L 48.800426 358.732624 
L 53.37999 361.438732 
L 57.751392 362.6877 
L 61.290148 361.230566 
L 67.118691 357.69181 
L 71.281927 356.026516 
L 61.290148 362.063219 
L 58.167719 365.185648 
L 57.126911 368.932564 
L 57.751392 373.720293 
L 59.311352 378.639993 
L 59.936381 383.015815 
L 62.226163 390.509653 
L 66.181245 396.754511 
L 70.760808 400.917753 
L 75.548537 404.040188 
L 81.377074 406.329969 
L 87.830098 405.913643 
L 92.409667 403.832021 
L 95.948423 400.085106 
L 97.405557 396.54635 
L 98.030044 391.758621 
L 97.821878 386.554571 
L 99.070852 378.436252 
L 100.944312 374.68933 
L 103.442255 371.358741 
L 105.940202 367.819985 
L 108.438144 364.48939 
L 111.9769 361.991448 
L 107.397336 366.987338 
L 101.98512 374.897496 
L 99.903499 378.644412 
L 99.279012 382.183168 
L 98.446365 385.305597 
L 98.654531 389.885166 
L 98.654531 395.505542 
L 100.111665 399.252458 
L 102.609607 404.040188 
L 106.98101 409.452398 
L 111.144252 412.158506 
L 116.140142 416.113588 
L 122.385006 419.652344 
L 129.878838 423.191099 
L 136.748188 424.231907 
L 140.286944 423.39926 
L 144.242026 421.942125 
L 144.829196 424.092654 
L 149.408759 424.092654 
L 155.653623 423.260007 
L 161.898486 421.178386 
L 168.35151 417.63963 
L 173.971887 413.684554 
L 179.384098 408.896825 
L 186.461609 399.945853 
L 188.335069 395.782616 
L 190.624851 390.994887 
L 190.833011 388.080618 
L 189.167717 386.207158 
L 189.792204 383.917376 
L 194.579933 378.296999 
L 196.453388 374.550083 
L 198.326849 370.386841 
L 200.164419 366.885402 
L 201.621559 362.513994 
L 202.03788 357.72627 
L 201.205232 353.354867 
L 197.666477 346.485517 
L 197.458316 342.946761 
L 196.001182 339.408006 
L 193.295074 336.701897 
L 189.964479 334.412116 
L 187.674697 333.579468 
L 184.760429 335.036603 
L 181.84616 336.910064 
L 178.931892 338.575358 
L 176.017623 341.489627 
L 174.560489 344.403895 
L 174.144162 341.905953 
L 172.270702 339.408006 
L 169.564599 338.783519 
L 164.568709 339.616166 
L 161.446275 339.616166 
L 164.360543 337.950871 
L 167.899299 336.493737 
L 170.397246 336.077411 
L 174.97681 340.032493 
L 176.225784 338.783519 
L 175.809457 332.330495 
L 180.597186 330.87336 
L 184.760429 328.375418 
L 188.507345 324.628497 
L 190.172639 321.297907 
L 191.213453 318.383639 
L 191.421613 312.971423 
L 192.462427 301.106182 
L 193.503234 308.391854 
L 193.711395 315.677531 
L 194.960369 319.840773 
L 199.123611 321.506068 
L 205.576635 324.420336 
L 211.821499 325.877471 
L 215.360254 327.334605 
L 219.731657 333.163142 
L 224.519386 340.86514 
L 228.474463 349.816112 
L 230.347923 359.599725 
L 229.931597 363.346647 
L 225.143873 371.673126 
L 222.437765 378.958803 
L 222.437765 388.117929 
L 225.939204 393.283237 
L 232.808555 399.528101 
L 239.261579 404.732151 
L 247.796224 409.10356 
L 257.371677 412.850475 
L 272.567512 417.846365 
L 281.102152 417.638205 
L 287.971502 414.30761 
L 294.840853 410.768854 
L 299.628582 408.687233 
L 305.87344 409.31172 
L 311.077496 412.017828 
L 316.906033 410.768854 
L 321.485596 409.31172 
L 330.153775 406.054327 
L 339.312907 401.266597 
L 345.974091 395.021734 
L 350.76182 389.817683 
L 353.676089 384.197307 
L 354.925063 378.160609 
L 354.508736 373.16472 
L 352.427115 367.960664 
L 350.345494 363.797421 
L 348.472039 359.634185 
L 348.472039 352.764834 
L 349.929173 348.809752 
L 350.969981 344.230189 
L 350.55366 337.985325 
L 353.884249 333.613922 
L 356.798524 330.491493 
L 358.671979 327.369059 
L 362.002574 325.287438 
L 366.373977 323.413982 
L 371.578027 322.165009 
L 377.198403 320.291548 
L 380.528999 318.418093 
L 381.986133 316.336472 
L 382.81878 313.630363 
L 384.828631 311.548742 
L 387.534739 309.0508 
L 390.657168 306.761013 
L 383.371497 316.960958 
L 385.036791 321.124201 
L 388.783713 326.536411 
L 393.363276 331.11598 
L 398.775492 333.197602 
L 409.599919 336.11187 
L 414.387649 340.066946 
L 417.093751 344.438349 
L 418.134564 347.560784 
L 422.714128 349.850566 
L 427.085531 354.430129 
L 429.167152 355.887263 
L 432.497747 355.262776 
L 434.787528 359.217858 
L 435.620176 364.630074 
L 435.620176 370.042285 
L 434.787528 373.789206 
L 433.330394 377.536122 
L 432.289586 373.16472 
L 431.248773 369.417798 
L 431.248773 365.670882 
L 429.791639 361.299479 
L 427.918184 357.760724 
L 423.963102 354.221968 
L 416.885591 348.601592 
L 414.179482 348.185271 
L 411.473374 346.31181 
L 410.01624 343.813862 
L 408.767272 340.275107 
L 406.893811 337.985325 
L 403.771382 336.944517 
L 401.065274 337.360838 
L 398.151005 339.234299 
L 396.069384 336.528191 
L 393.155116 334.654736 
L 390.240847 332.364949 
L 385.869439 332.156788 
L 382.538849 332.781275 
L 379.416415 335.695544 
L 377.54296 339.234299 
L 376.918473 342.148568 
L 376.502146 349.850566 
L 373.587878 352.764834 
L 370.673609 355.054616 
L 370.881769 359.634185 
L 373.379717 366.919856 
L 375.045012 373.16472 
L 376.293986 375.662662 
L 375.877659 380.242231 
L 377.54296 383.989146 
L 379.208254 389.609523 
L 381.706202 393.148279 
L 382.330689 396.687034 
L 385.036791 401.682924 
L 388.367386 407.3033 
L 391.906142 412.366667 
L 396.277545 417.154396 
L 401.273434 421.733965 
L 406.269324 424.440067 
L 412.930509 424.856394 
L 418.134564 424.023747 
L 425.003909 422.774773 
L 434.579368 417.154396 
L 439.367097 412.991154 
L 445.195634 408.619751 
L 448.109903 405.289156 
L 450.191524 400.709593 
L 452.064979 395.089216 
L 453.522114 391.966787 
L 453.93844 381.766841 
L 452.273145 372.607715 
L 453.73028 377.395438 
L 454.354767 386.554571 
L 454.354767 390.717813 
L 452.689466 396.33819 
L 450.399685 401.334079 
L 448.94255 406.121809 
L 448.526224 410.285045 
L 449.983358 414.031967 
L 455.187414 418.195209 
L 461.224111 419.444178 
L 467.260815 418.819691 
L 471.350382 417.502619 
L 475.723689 418.126296 
L 481.760387 417.085488 
L 489.462385 415.003867 
L 496.539896 412.71408 
L 501.743946 410.007977 
L 504.658214 406.677382 
L 506.739836 402.7223 
L 507.364323 399.183545 
L 506.531675 396.269276 
L 503.20108 394.603982 
L 493.209301 389.399931 
L 504.450054 394.603982 
L 508.19697 395.436629 
L 511.735725 392.52236 
L 514.85816 388.983605 
L 516.523455 384.195876 
L 517.980589 380.44896 
L 517.980589 376.910204 
L 517.147942 371.914314 
L 515.898968 368.791885 
L 514.025513 366.502104 
L 510.486757 364.836803 
L 506.115349 363.379669 
L 500.078651 361.506214 
L 512.152052 364.836803 
L 517.147942 365.46129 
L 524.017292 362.963348 
L 527.972368 359.216427 
L 530.05399 354.428703 
L 532.968258 349.224647 
L 534.076548 346.972182 
L 534.076548 344.682401 
L 536.366336 341.559966 
L 538.447957 337.81305 
L 540.945899 332.81716 
L 543.23568 326.572297 
L 544.068328 321.576407 
L 544.484654 317.413164 
L 543.652007 313.874409 
L 542.81936 310.96014 
L 542.194873 308.045872 
L 544.692815 305.54793 
L 547.398923 303.466309 
L 548.02341 299.719387 
L 549.272384 294.515337 
L 549.272384 289.103126 
L 548.02341 282.650097 
L 547.190762 277.237886 
L 545.525462 272.658317 
L 543.652007 269.327728 
L 540.858863 265.947744 
L 538.344589 263.431709 
L 534.805834 263.431709 
L 531.058918 264.264356 
L 525.854862 265.72149 
L 511.69984 268.843919 
L 502.332548 271.550027 
L 497.752984 273.839809 
L 495.046876 275.71327 
L 492.757095 277.794891 
L 490.883634 280.91732 
L 489.842826 284.456075 
L 489.842826 288.827478 
L 490.259147 292.78256 
L 491.508121 295.696829 
L 493.173415 297.570289 
L 494.422389 297.362123 
L 493.797902 301.109045 
L 493.797902 302.77434 
L 491.508121 304.855961 
L 489.842826 311.517145 
L 489.010179 316.304875 
L 488.385692 318.802822 
L 489.218339 322.966059 
L 489.010179 327.129301 
L 489.842826 330.459896 
L 489.842826 333.998652 
L 489.150857 336.113296 
L 487.277396 336.113296 
L 483.53048 333.615354 
L 481.240699 332.782706 
L 477.701943 333.199027 
L 473.33054 332.57454 
L 469.583625 331.325572 
L 465.212216 329.035785 
L 461.881627 326.537843 
L 459.800005 323.415408 
L 458.134705 320.50114 
L 457.926545 318.419518 
L 457.926545 316.754224 
L 460.216326 319.252171 
L 464.379569 321.333793 
L 469.583625 321.541953 
L 474.995835 320.292979 
L 479.367238 317.795037 
L 482.281506 314.464442 
L 483.114159 311.550174 
L 483.32232 308.844065 
L 486.028428 303.223689 
L 488.31821 300.30942 
L 488.73453 297.603312 
L 488.942697 293.023749 
L 488.942697 290.525801 
L 489.150857 285.529911 
L 488.942697 280.950348 
L 488.942697 277.203432 
L 489.775344 273.872837 
L 491.232478 271.166729 
L 493.73042 268.460621 
L 497.893663 267.836134 
L 502.889552 267.419813 
L 507.469121 267.419813 
L 511.840524 267.003487 
L 515.7956 266.795326 
L 520.167009 266.170839 
L 524.330246 265.754518 
L 528.285328 264.713705 
L 532.44857 263.464731 
L 536.403646 262.007597 
L 538.55275 259.686218 
L 539.593563 256.355629 
L 540.009884 253.025034 
L 539.385397 242.616928 
L 536.679289 232.833314 
L 532.307886 224.090503 
L 529.185457 220.343587 
L 525.854862 216.596671 
L 521.899786 214.098724 
L 517.944704 214.098724 
L 513.781461 215.555858 
L 509.826385 217.429319 
L 495.463203 223.674182 
L 490.883634 225.131317 
L 487.344878 226.588451 
L 480.683694 229.71088 
L 477.353099 230.751693 
L 474.022504 230.751693 
L 471.524562 229.71088 
L 469.026614 228.253745 
L 465.904185 228.253745 
L 461.740943 228.670072 
L 455.777441 229.050508 
L 448.283609 229.258674 
L 439.748964 229.050508 
L 431.422479 228.426021 
L 424.344968 228.0097 
L 419.140918 228.0097 
L 415.394002 227.177053 
L 417.059297 225.928079 
L 420.389892 226.136239 
L 423.304161 226.968886 
L 428.09189 227.801539 
L 434.961235 227.801539 
L 441.414259 227.593373 
L 459.524363 226.136239 
L 465.3529 225.303592 
L 467.850842 224.470944 
L 470.140629 221.972997 
L 472.222245 220.307702 
L 473.263058 218.850568 
L 478.883435 219.266894 
L 485.75278 219.266894 
L 490.956836 219.475055 
L 494.666435 218.678293 
L 504.241894 213.474237 
L 508.405136 211.808942 
L 511.111238 210.351808 
L 514.649994 209.51916 
L 517.356102 205.980405 
L 518.813236 201.609002 
L 517.980589 197.65392 
L 516.80196 191.480827 
L 513.887686 185.235969 
L 511.389744 180.44824 
L 509.099962 178.158458 
L 505.977527 176.909484 
L 505.977527 173.787049 
L 504.520393 171.289107 
L 502.646938 167.125865 
L 495.985748 158.59122 
L 493.071479 156.301438 
L 489.324563 153.59533 
L 486.410295 151.721869 
L 482.038892 150.264735 
L 478.500137 149.432088 
L 474.961381 149.223927 
L 472.047113 149.432088 
L 469.757331 151.305548 
L 466.426736 155.676951 
L 463.096141 159.423867 
L 463.512467 163.58711 
L 463.720628 166.917705 
L 460.598199 169.831973 
L 457.475764 172.121755 
L 455.394143 172.746242 
L 452.271714 175.66051 
L 449.149285 176.701324 
L 447.067664 175.45235 
L 444.777877 175.244189 
L 440.8228 176.076837 
L 435.410584 177.742131 
L 427.500426 180.6564 
L 421.463728 183.362508 
L 416.467838 186.068616 
L 411.471949 188.150238 
L 405.435246 188.774724 
L 409.182161 186.484937 
L 412.929083 184.611482 
L 416.467838 184.195156 
L 420.214754 183.154348 
L 424.794318 181.489047 
L 429.582047 179.407426 
L 439.781987 175.66051 
L 444.569716 174.411536 
L 446.859498 173.578889 
L 448.108472 170.664621 
L 449.357446 167.125865 
L 451.230906 163.378949 
L 453.728848 162.962623 
L 457.267604 163.58711 
L 460.806359 162.129975 
L 464.761441 156.925925 
L 467.67571 153.59533 
L 470.381812 149.640254 
L 470.798139 146.101498 
L 470.173652 141.521929 
L 469.237637 137.741985 
L 466.531529 133.370582 
L 462.992773 128.791019 
L 457.996884 123.795129 
L 452.376507 119.423727 
L 445.923483 115.260484 
L 441.760246 112.346216 
L 426.564411 102.354436 
L 419.070579 98.607515 
L 409.845396 93.162276 
L 400.686264 88.166386 
L 395.690374 85.668444 
L 385.282268 80.048067 
L 374.457841 74.635851 
L 369.253791 73.595043 
L 365.506875 71.305262 
L 360.719146 67.55834 
L 354.474282 64.644072 
L 347.604932 61.937963 
L 331.368294 58.607374 
L 324.91527 58.815534 
L 317.83776 60.064508 
L 313.674517 61.313482 
L 309.094948 65.268558 
L 307.013327 69.431801 
L 307.637814 73.803204 
L 310.760249 76.509312 
L 317.213273 80.256228 
L 324.290784 85.043957 
L 329.078507 90.248007 
L 332.200942 95.452057 
L 333.24175 97.950005 
L 332.617263 103.154055 
L 331.160128 104.819356 
L 329.494834 102.321408 
L 328.870347 98.990813 
L 329.286673 95.660223 
L 329.078507 92.745955 
L 327.829539 89.831686 
L 325.539752 87.541899 
L 322.000996 84.21131 
L 313.882678 78.799093 
L 309.094948 76.925633 
L 305.802228 76.751903 
L 302.054754 77.376413 
L 298.307838 79.041713 
L 295.393569 82.372303 
L 293.311948 86.327385 
L 292.479301 91.323275 
L 292.479301 98.192625 
L 292.271135 105.478296 
L 293.103782 112.347641 
L 293.311948 121.298613 
L 294.352756 125.253695 
L 294.560922 130.457745 
L 296.434377 137.11893 
L 299.764972 142.947467 
L 305.385349 146.486222 
L 310.589399 148.359683 
L 315.585289 149.19233 
L 321.620561 149.81396 
L 326.40829 151.895582 
L 330.155206 154.393524 
L 333.693961 157.932279 
L 337.024551 161.887361 
L 340.771472 166.883251 
L 343.061254 168.964866 
L 343.269414 171.462814 
L 341.395959 169.797519 
L 339.730659 166.883251 
L 337.857204 163.968977 
L 334.526609 160.222061 
L 332.028661 157.099632 
L 328.489905 153.977197 
L 324.118503 151.895582 
L 313.918563 149.605794 
L 309.963481 149.397634 
L 305.800244 151.062928 
L 302.885975 154.601684 
L 301.220675 157.307792 
L 300.388028 159.597574 
L 300.388028 163.552656 
L 302.053322 168.340385 
L 301.845162 173.544435 
L 302.053322 184.785189 
L 302.677809 195.609615 
L 301.637002 201.438152 
L 299.139054 212.678906 
L 299.139054 216.633982 
L 301.428835 219.964577 
L 305.592078 219.756417 
L 314.126723 217.882956 
L 306.632891 220.380904 
L 297.473759 221.629872 
L 291.020735 222.254359 
L 285.816685 221.629872 
L 282.48609 220.797225 
L 278.322848 220.797225 
L 273.118797 221.005391 
L 267.29026 219.964577 
L 262.294371 218.091116 
L 271.453497 220.172738 
L 275.824906 219.756417 
L 279.155495 218.091116 
L 279.988142 215.593174 
L 279.571821 212.054419 
L 278.531008 208.723824 
L 277.073874 204.768748 
L 276.033066 200.397345 
L 275.616739 195.609615 
L 275.408579 191.238213 
L 274.784092 187.07497 
L 274.367766 179.997459 
L 274.337623 169.348683 
L 275.341097 164.975336 
L 275.757423 160.395767 
L 275.965584 156.232525 
L 273.259476 153.734583 
L 269.928886 152.277448 
L 263.684023 152.901935 
L 258.063646 154.56723 
L 254.733051 156.024364 
L 250.986135 158.522312 
L 248.071866 161.436581 
L 243.700464 166.016144 
L 233.500518 181.003813 
L 235.373979 176.63241 
L 238.496408 172.052847 
L 242.243329 167.473278 
L 245.990245 162.685549 
L 249.32084 159.56312 
L 255.357538 154.56723 
L 259.31262 153.734583 
L 262.226888 152.693769 
L 266.390131 151.861122 
L 271.594181 151.444801 
L 275.132936 149.987667 
L 277.494488 145.896195 
L 277.494488 145.896195 
" style="fill:none;stroke:#000000;stroke-linecap:square;stroke-width:1.5;"/>
   </g>
  </g>
 </g>
 <defs>
  <clipPath id="pe3af5f749e">
   <rect height="503.28" width="570.24" x="0" y="0"/>
  </clipPath>
 </defs>
</svg>
