<?xml version="1.0" encoding="utf-8" standalone="no"?>
<!DOCTYPE svg PUBLIC "-//W3C//DTD SVG 1.1//EN"
  "http://www.w3.org/Graphics/SVG/1.1/DTD/svg11.dtd">
<!-- Created with matplotlib (https://matplotlib.org/) -->
<svg height="2056.32pt" version="1.1" viewBox="0 0 2365.92 2056.32" width="2365.92pt" xmlns="http://www.w3.org/2000/svg" xmlns:xlink="http://www.w3.org/1999/xlink">
 <defs>
  <style type="text/css">
*{stroke-linecap:butt;stroke-linejoin:round;}
  </style>
 </defs>
 <g id="figure_1">
  <g><image xlink:href="../../img/ctx/MicroDraw_Coronal.json.ctx-50%25.png" width="2365.92px" height="2056.3199999999997px"/></g>

  <g id="patch_1">
   <path d="M 0 2056.32 
L 2365.92 2056.32 
L 2365.92 0 
L 0 0 
z
" style="fill:none;"/>
  </g>
  <g id="axes_1">
   <g id="line2d_1">
    <path clip-path="url(#pf8eca0e7bc)" d="M 909.248868 153.896329 
L 900.080242 151.350671 
L 887.281064 147.084278 
L 873.201971 144.097801 
L 859.122878 142.817885 
L 846.750323 143.671178 
L 834.377768 146.657655 
L 821.151968 150.070755 
L 810.485975 154.763794 
L 803.233105 159.456833 
L 796.406882 171.402742 
L 795.126943 160.736748 
L 792.567112 151.350671 
L 784.887596 145.377716 
L 767.395379 139.831408 
L 753.742932 139.404786 
L 740.943755 141.111324 
L 725.584723 145.804363 
L 717.905206 153.057232 
L 709.799068 162.869933 
L 701.692905 173.962572 
L 695.719975 186.76175 
L 690.173643 199.987574 
L 681.214212 215.773229 
L 675.667904 226.865868 
L 670.974865 238.811753 
L 668.415034 249.477747 
L 667.988411 264.410132 
L 669.268327 275.502748 
L 673.961342 290.008488 
L 682.494151 301.101127 
L 690.600289 313.047036 
L 697.853159 322.859737 
L 703.399467 330.112606 
L 707.66586 338.645391 
L 710.652337 346.324907 
L 715.345376 355.284339 
L 705.106029 344.191699 
L 696.99989 333.52573 
L 688.467081 323.286383 
L 681.640858 311.767097 
L 673.534719 300.674481 
L 665.428557 290.861781 
L 657.322418 279.342518 
L 649.216256 266.969963 
L 643.669948 254.597432 
L 636.417078 240.518315 
L 626.177731 230.705615 
L 615.511738 223.452745 
L 605.699037 216.199875 
L 591.619944 210.226921 
L 583.049115 208.947006 
L 569.396645 206.387175 
L 554.890905 206.813797 
L 540.811789 209.373652 
L 526.306049 212.786752 
L 510.947041 216.199875 
L 496.867948 218.759706 
L 481.935562 222.599476 
L 462.736783 231.132261 
L 452.799801 237.342399 
L 436.759881 246.872159 
L 411.161525 269.910707 
L 401.348825 281.429969 
L 392.389394 293.802501 
L 385.557823 304.251918 
L 373.996211 329.426513 
L 368.876526 338.812591 
L 369.729818 348.625291 
L 368.876526 369.103985 
L 368.023257 377.63677 
L 368.876526 395.128987 
L 366.743341 405.79498 
L 369.042779 420.254442 
L 370.307103 434.40456 
L 374.146873 444.643907 
L 374.573495 457.016462 
L 380.119827 469.388993 
L 384.812842 482.188195 
L 390.35915 492.427542 
L 394.19892 502.240242 
L 399.717949 511.747242 
L 407.39711 527.129484 
L 416.356542 542.06187 
L 424.462704 557.420878 
L 434.702051 568.513494 
L 446.221313 583.019233 
L 457.313929 589.845481 
L 468.833191 598.804912 
L 479.499185 606.057782 
L 488.238988 610.735206 
L 501.467817 616.28899 
L 514.693641 619.70209 
L 526.639549 621.408651 
L 543.278473 625.248398 
L 526.639549 623.115213 
L 513.413725 620.982005 
L 501.04117 617.568905 
L 487.388723 612.875866 
L 478.429292 606.902912 
L 466.483383 600.076689 
L 454.110828 593.677088 
L 443.018212 587.277487 
L 433.205512 583.011095 
L 425.952642 576.184871 
L 417.84648 569.785271 
L 413.580087 559.545924 
L 400.78091 543.333646 
L 392.674771 531.387738 
L 384.995255 522.00166 
L 374.99224 512.967986 
L 368.100528 500.535526 
L 365.11405 486.456409 
L 360.847658 474.083878 
L 356.581242 462.564615 
L 348.901749 451.045353 
L 342.502149 440.806006 
L 336.529194 433.12649 
L 328.849678 428.433451 
L 321.170186 418.620751 
L 313.49067 410.514588 
L 304.957885 400.701888 
L 298.131661 393.022372 
L 288.318937 391.742456 
L 277.226321 393.022372 
L 265.280412 396.435495 
L 256.747627 401.555157 
L 248.641465 410.087966 
L 243.095157 419.047373 
L 236.69558 431.846575 
L 229.869333 442.939191 
L 223.896379 454.458453 
L 222.616463 464.271153 
L 220.909901 475.790439 
L 225.176318 488.162971 
L 236.268934 498.828964 
L 259.307458 513.334703 
L 270.82672 521.440842 
L 281.492714 530.82692 
L 289.17223 538.933059 
L 296.425099 547.89249 
L 302.824676 554.718737 
L 308.371008 561.971607 
L 300.691492 562.824876 
L 290.878768 554.718737 
L 282.772629 546.612575 
L 275.093113 536.799874 
L 264.000497 528.693712 
L 252.481235 522.720758 
L 241.815242 518.454365 
L 233.377566 516.67155 
L 222.711597 517.524819 
L 212.47225 520.084673 
L 203.939465 525.204335 
L 195.406656 532.883851 
L 189.007079 541.843282 
L 186.020602 549.522798 
L 177.91444 560.188768 
L 169.068241 570.465165 
L 161.388725 580.704512 
L 155.415771 590.943859 
L 150.296109 601.609852 
L 148.162901 614.40903 
L 145.60307 624.648377 
L 145.60307 634.461077 
L 144.323155 641.287301 
L 138.3502 650.673378 
L 132.377246 659.63281 
L 121.711253 672.858634 
L 117.018214 687.79102 
L 113.878354 703.31013 
L 113.025085 716.962577 
L 115.15827 731.041693 
L 119.424662 742.987602 
L 127.957471 753.653572 
L 141.609918 760.906441 
L 153.982473 763.466272 
L 167.208297 760.906441 
L 179.580828 755.360133 
L 188.540259 748.107264 
L 195.793129 740.001125 
L 200.912814 745.120786 
L 208.165684 753.653572 
L 219.684946 758.773257 
L 227.364439 763.039649 
L 239.310347 764.319565 
L 248.696425 760.479819 
L 261.495603 757.493341 
L 272.588219 756.640049 
L 281.974297 762.613003 
L 290.080459 765.59948 
L 289.227166 773.705619 
L 290.507082 780.958489 
L 295.200121 785.224905 
L 294.346852 789.91792 
L 297.333329 794.610959 
L 294.773474 799.303998 
L 294.361828 806.148415 
L 291.801973 810.841454 
L 296.068366 821.080801 
L 302.467967 832.173417 
L 311.000752 842.412764 
L 316.54706 849.665634 
L 323.799929 854.358672 
L 304.601175 853.078757 
L 289.668789 854.358672 
L 273.883134 855.211942 
L 257.244187 859.478334 
L 244.445009 864.598019 
L 232.4991 868.437766 
L 223.966315 873.130804 
L 215.006884 871.850889 
L 209.033929 866.304581 
L 210.313845 859.051711 
L 207.327368 849.665634 
L 202.207706 840.706202 
L 196.661398 833.02671 
L 188.128589 826.200463 
L 180.87572 821.080801 
L 172.769581 819.800886 
L 165.090065 829.613586 
L 159.543757 842.83941 
L 156.983926 855.211942 
L 156.130633 868.864412 
L 160.823672 882.516882 
L 158.690488 892.756229 
L 159.11711 907.261969 
L 160.823672 922.620977 
L 163.810149 937.126716 
L 170.636373 951.205833 
L 181.302366 965.284926 
L 197.088021 973.391065 
L 214.580237 975.95092 
L 235.485578 975.097627 
L 254.25771 972.11115 
L 272.603195 970.831234 
L 286.682312 970.831234 
L 300.761405 974.671004 
L 311.000752 977.657458 
L 325.842263 978.071186 
L 339.921356 973.378147 
L 351.867264 965.272008 
L 361.679965 952.472807 
L 368.506212 940.526898 
L 369.359481 931.140844 
L 371.492665 922.181413 
L 375.759082 919.194936 
L 384.291867 919.194936 
L 394.957836 918.768289 
L 404.343914 915.355189 
L 411.170137 914.501897 
L 420.129569 917.488374 
L 428.235731 926.874452 
L 441.461555 935.833883 
L 458.100479 941.806837 
L 476.445989 940.953545 
L 492.231643 930.287552 
L 504.177552 919.621582 
L 512.283691 906.395758 
L 519.963207 892.316665 
L 523.376307 879.517464 
L 523.376307 866.718286 
L 522.949684 857.332208 
L 518.683291 847.946154 
L 522.523038 841.546553 
L 532.762385 837.706807 
L 544.281647 839.413369 
L 548.121393 849.652716 
L 552.387809 861.598624 
L 559.640679 869.278117 
L 569.453379 872.264594 
L 578.839434 877.384279 
L 589.932073 880.370756 
L 601.113955 884.106804 
L 603.844937 888.823076 
L 597.018713 896.502592 
L 584.646158 903.328816 
L 573.980189 908.448501 
L 563.314196 918.261202 
L 555.63468 926.36734 
L 544.96871 931.913672 
L 532.169509 939.166542 
L 519.796977 951.112427 
L 508.704361 964.338251 
L 498.524257 973.547239 
L 490.348182 984.303753 
L 484.375227 1000.942677 
L 482.242019 1013.315232 
L 485.655143 1024.834494 
L 488.214974 1038.060318 
L 489.921535 1052.566057 
L 495.041197 1067.071797 
L 500.160882 1084.137367 
L 507.413752 1102.05623 
L 519.786283 1117.415262 
L 532.585485 1128.081232 
L 546.237931 1134.054186 
L 562.450233 1138.747225 
L 579.942449 1139.173871 
L 594.448189 1137.467309 
L 602.980974 1135.760748 
L 614.50026 1129.361147 
L 625.166229 1122.96157 
L 615.353529 1131.494355 
L 602.980974 1137.040663 
L 594.874835 1145.146826 
L 588.475234 1154.106233 
L 585.394523 1162.327119 
L 583.261338 1171.713197 
L 585.394523 1180.672629 
L 588.381 1189.632036 
L 593.927331 1197.311552 
L 602.886763 1202.431238 
L 609.28634 1206.69763 
L 600.753555 1210.11073 
L 581.554776 1222.483285 
L 574.301907 1229.736155 
L 568.328952 1224.61647 
L 558.089605 1214.377123 
L 546.570343 1209.684107 
L 534.624435 1205.844338 
L 523.958465 1204.564422 
L 514.145741 1205.844338 
L 526.091649 1199.018114 
L 531.637957 1184.939021 
L 530.358042 1170.859904 
L 526.570441 1157.853117 
L 521.644903 1142.425402 
L 515.671948 1129.626225 
L 505.859248 1116.827047 
L 497.326463 1107.014347 
L 489.646947 1097.628269 
L 484.527285 1088.668837 
L 480.687515 1078.42949 
L 473.008023 1064.77702 
L 465.328507 1050.271281 
L 458.075637 1035.338918 
L 453.382598 1018.273325 
L 444.423167 1005.047501 
L 436.317028 995.2348 
L 426.922456 989.969019 
L 418.053474 986.401803 
L 408.240774 985.121888 
L 396.294865 984.695265 
L 383.069041 983.41535 
L 371.123132 984.268619 
L 356.617393 988.961658 
L 343.818215 996.214527 
L 331.44566 1003.894044 
L 318.646483 1013.706744 
L 306.86413 1022.078694 
L 301.317822 1031.464748 
L 294.918221 1042.557388 
L 290.225206 1053.650004 
L 291.078475 1066.875828 
L 292.785037 1077.541821 
L 298.757991 1084.368044 
L 304.730946 1087.781168 
L 297.478076 1084.794691 
L 289.371913 1077.968444 
L 284.252252 1069.009036 
L 283.398959 1055.356565 
L 283.825605 1040.850826 
L 287.238729 1031.464748 
L 291.505121 1022.078694 
L 288.518644 1012.692616 
L 277.426005 1005.0131 
L 264.626827 1002.453269 
L 246.707964 1004.159831 
L 234.335433 1003.733185 
L 221.962878 1005.439746 
L 209.1637 1011.839347 
L 195.937876 1022.931963 
L 185.698529 1035.731141 
L 178.44566 1051.943442 
L 175.885829 1068.155743 
L 177.165744 1087.354521 
L 181.005514 1101.006992 
L 187.831737 1114.232816 
L 193.804692 1123.61887 
L 196.364522 1135.564779 
L 197.217792 1149.217249 
L 203.190746 1165.42955 
L 210.443616 1180.788559 
L 219.829693 1192.734467 
L 233.908786 1203.827083 
L 247.13461 1212.786515 
L 260.360435 1225.15907 
L 271.453074 1232.838562 
L 278.705944 1237.531601 
L 287.665352 1241.371347 
L 291.837107 1247.280256 
L 286.311052 1247.352038 
L 278.204889 1248.631953 
L 268.392189 1253.751615 
L 258.152842 1274.230309 
L 258.579488 1285.749571 
L 261.139319 1295.988918 
L 264.979065 1306.228265 
L 274.365143 1316.894258 
L 284.295146 1326.320296 
L 297.52097 1333.573166 
L 312.880002 1339.119474 
L 327.812388 1342.959244 
L 344.877958 1347.225636 
L 362.796821 1351.492029 
L 382.422222 1351.918675 
L 396.501339 1350.212113 
L 411.433701 1349.785467 
L 427.646002 1346.372367 
L 442.578388 1344.665806 
L 453.244381 1341.679328 
L 463.057082 1336.559643 
L 467.750121 1337.412936 
L 465.616912 1342.532597 
L 457.510774 1343.38589 
L 446.418134 1346.372367 
L 432.765687 1349.358821 
L 417.406655 1351.492029 
L 403.754209 1354.05186 
L 390.101738 1357.038337 
L 373.889437 1359.171545 
L 367.916483 1362.584645 
L 359.810344 1360.878107 
L 347.437789 1357.464983 
L 334.638611 1354.478506 
L 318.852956 1352.771944 
L 303.920571 1349.785467 
L 288.134916 1345.092428 
L 272.775884 1344.239159 
L 259.976706 1344.665806 
L 248.88409 1345.945721 
L 239.924659 1349.785467 
L 228.405396 1358.744899 
L 221.682351 1368.381977 
L 218.269227 1382.46107 
L 219.975789 1394.406979 
L 224.242182 1409.339364 
L 230.215136 1422.991835 
L 236.614736 1433.231182 
L 245.574144 1443.897151 
L 259.226615 1451.576667 
L 272.025792 1456.269706 
L 286.958178 1456.269706 
L 301.037271 1455.416413 
L 318.956134 1454.989791 
L 334.741789 1453.283229 
L 349.674175 1451.150021 
L 358.20696 1448.59019 
L 372.712699 1449.443483 
L 382.525424 1448.163544 
L 390.631562 1448.59019 
L 380.818862 1451.576667 
L 368.872953 1453.283229 
L 356.927044 1456.269706 
L 331.755312 1458.829537 
L 318.956134 1458.402891 
L 301.463918 1460.536099 
L 293.784402 1464.802491 
L 286.531532 1470.348799 
L 278.852039 1483.147977 
L 275.865562 1501.493486 
L 282.281015 1514.409091 
L 288.680615 1529.341477 
L 296.786754 1540.007446 
L 308.306016 1551.526732 
L 318.545363 1563.472617 
L 335.184311 1576.698441 
L 347.983488 1586.511165 
L 360.782666 1594.190658 
L 375.288429 1599.736989 
L 387.66096 1599.736989 
L 401.740054 1598.883697 
L 410.272862 1593.764035 
L 415.81917 1589.070996 
L 408.992923 1580.111565 
L 402.1667 1570.725487 
L 399.606869 1557.926309 
L 398.326954 1542.140654 
L 399.606869 1529.341477 
L 400.886784 1520.382045 
L 410.699485 1507.156221 
L 410.272862 1519.10213 
L 412.406047 1533.607869 
L 418.379001 1549.82017 
L 429.898263 1559.206225 
L 445.257295 1563.472617 
L 461.896219 1566.885741 
L 476.401959 1566.459094 
L 492.187614 1564.32591 
L 504.133522 1566.032472 
L 515.652785 1568.592302 
L 525.465509 1569.445571 
L 538.691333 1573.711964 
L 545.944202 1581.818126 
L 551.917133 1585.23125 
L 560.876565 1593.337389 
L 571.115911 1605.283297 
L 580.928636 1615.949267 
L 592.46065 1625.424493 
L 609.52622 1633.104009 
L 629.578268 1636.517132 
L 648.777046 1636.517132 
L 672.668863 1634.81057 
L 695.280742 1628.837616 
L 713.626251 1618.598269 
L 728.305602 1609.509753 
L 739.398217 1597.137198 
L 741.104779 1585.191289 
L 742.384695 1570.68555 
L 741.104779 1558.739641 
L 735.985118 1549.780234 
L 728.732248 1540.820802 
L 718.066255 1529.30154 
L 707.400261 1519.062193 
L 695.02773 1507.969553 
L 684.788383 1496.450291 
L 674.008021 1482.947347 
L 670.069948 1472.574586 
L 670.069948 1461.481946 
L 667.510117 1451.669246 
L 667.936763 1445.269645 
L 676.469548 1436.310214 
L 682.015856 1418.817997 
L 682.015856 1402.179073 
L 680.309294 1390.659811 
L 673.483071 1382.980295 
L 664.52364 1375.300779 
L 653.857646 1370.181117 
L 644.044946 1367.19464 
L 642.76503 1360.795039 
L 654.710939 1359.515124 
L 667.936763 1362.928247 
L 677.322817 1369.754471 
L 688.415433 1382.553648 
L 689.268726 1397.912681 
L 687.562164 1412.41842 
L 685.42898 1424.790951 
L 683.295772 1441.003252 
L 679.029379 1455.508992 
L 678.17611 1470.868024 
L 682.015856 1482.813933 
L 691.828557 1492.199987 
L 703.774465 1498.599588 
L 716.146997 1504.999165 
L 733.713196 1518.490516 
L 752.058705 1530.009802 
L 776.803791 1544.088895 
L 808.375101 1553.901595 
L 819.46774 1553.901595 
L 840.373057 1550.915118 
L 855.732089 1543.662248 
L 865.118143 1535.982732 
L 874.504221 1530.863071 
L 891.143169 1522.756932 
L 901.809138 1513.7975 
L 916.570066 1503.626718 
L 934.062282 1492.107456 
L 970.753277 1469.068931 
L 984.405748 1458.829584 
L 1000.618049 1447.736968 
L 1014.697142 1434.511144 
L 1017.683619 1424.271797 
L 1017.683619 1416.165635 
L 1015.123788 1411.899242 
L 1008.724188 1411.472596 
L 998.911487 1413.605804 
L 980.566001 1413.605804 
L 972.886485 1414.459073 
L 963.500407 1414.032451 
L 953.261061 1415.312366 
L 940.888529 1417.018928 
L 928.942621 1420.005405 
L 914.436881 1420.005405 
L 899.931142 1416.592281 
L 881.15901 1411.045973 
L 867.506539 1400.806627 
L 893.531541 1411.045973 
L 912.730319 1417.018928 
L 934.062282 1416.165635 
L 945.581568 1411.899242 
L 966.060238 1411.045973 
L 983.552455 1408.486143 
L 999.764756 1407.206204 
L 1012.137311 1399.953334 
L 1014.270495 1389.287364 
L 1007.444272 1378.194725 
L 999.764756 1367.955378 
L 990.805348 1363.262363 
L 984.832394 1354.729554 
L 977.152878 1345.770146 
L 968.995493 1331.871383 
L 959.524716 1317.687409 
L 945.872245 1305.314854 
L 937.766106 1296.782069 
L 928.806675 1289.102577 
L 916.860766 1284.409538 
L 908.754604 1282.702976 
L 896.808719 1270.330421 
L 880.596418 1257.104597 
L 868.223863 1243.025504 
L 884.436164 1251.558289 
L 906.621419 1259.664451 
L 922.833721 1266.917321 
L 940.325937 1269.477152 
L 954.831677 1278.436583 
L 964.644377 1289.955846 
L 977.443555 1301.048461 
L 988.536194 1310.007893 
L 1004.321849 1329.206671 
L 1016.694404 1344.992326 
L 1046.132506 1376.990282 
L 1058.505061 1398.748891 
L 1068.67582 1413.121311 
L 1081.474997 1428.48032 
L 1097.687298 1443.412705 
L 1116.032808 1449.38566 
L 1134.80494 1446.825829 
L 1146.324202 1433.600005 
L 1154.430341 1416.107788 
L 1156.136903 1398.615572 
L 1158.696757 1382.829917 
L 1167.229542 1375.577047 
L 1179.175427 1365.764323 
L 1191.547982 1332.913098 
L 1200.220333 1319.347551 
L 1213.269162 1311.518249 
L 1225.596812 1314.787643 
L 1240.493425 1324.19518 
L 1249.02621 1335.714442 
L 1254.999165 1348.086997 
L 1260.545473 1366.005836 
L 1266.642709 1373.434683 
L 1276.882056 1371.301498 
L 1283.281633 1377.274429 
L 1288.827941 1393.48673 
L 1288.827941 1424.631417 
L 1299.804745 1430.488536 
L 1316.731648 1439.735947 
L 1333.354342 1444.839355 
L 1343.069141 1444.966263 
L 1363.82247 1441.344394 
L 1382.407435 1425.687682 
L 1399.201421 1400.49998 
L 1413.70716 1379.168017 
L 1428.2129 1354.422931 
L 1439.305516 1330.104491 
L 1447.411678 1310.479066 
L 1455.944463 1291.280288 
L 1472.69811 1268.475043 
L 1484.020623 1254.861657 
L 1498.526386 1248.888703 
L 1513.458748 1240.355918 
L 1523.698095 1238.222733 
L 1538.630481 1235.662903 
L 1558.255905 1228.836656 
L 1565.082129 1231.823133 
L 1552.282951 1239.929295 
L 1543.750166 1251.448558 
L 1537.777212 1262.114527 
L 1529.671049 1264.247735 
L 1516.445225 1265.527651 
L 1505.352609 1268.940774 
L 1496.393178 1280.886683 
L 1492.126785 1295.392422 
L 1486.580477 1311.178077 
L 1486.580477 1330.803478 
L 1488.287039 1348.295695 
L 1493.406701 1359.388334 
L 1505.352609 1363.654727 
L 1515.16531 1366.641204 
L 1522.844826 1371.760866 
L 1528.391134 1376.027258 
L 1533.510819 1385.413336 
L 1549.723097 1389.679728 
L 1558.080023 1388.944472 
L 1577.278801 1389.371118 
L 1603.730449 1389.371118 
L 1617.342936 1387.188628 
L 1634.835152 1382.922211 
L 1646.781061 1380.789027 
L 1656.167115 1372.256242 
L 1661.713447 1364.576726 
L 1673.232709 1360.73698 
L 1687.311802 1357.323856 
L 1689.44501 1364.576726 
L 1670.246232 1376.949281 
L 1656.593761 1380.362381 
L 1641.234753 1385.05542 
L 1625.022452 1389.321812 
L 1604.970404 1393.161558 
L 1591.74458 1394.441497 
L 1573.399071 1393.161558 
L 1562.815294 1394.669383 
L 1545.767586 1394.619982 
L 1534.341044 1396.742875 
L 1521.968513 1402.289183 
L 1518.555389 1409.968699 
L 1518.128767 1420.208046 
L 1527.514821 1433.860516 
L 1545.433684 1444.953132 
L 1562.072608 1458.178956 
L 1584.684509 1469.271572 
L 1611.136157 1479.937565 
L 1636.734513 1492.31012 
L 1666.599284 1503.402736 
L 1697.743971 1513.642083 
L 1717.711153 1517.26213 
L 1761.228371 1530.061308 
L 1777.867319 1530.061308 
L 1788.533289 1523.661731 
L 1796.212805 1519.821961 
L 1806.025529 1507.876052 
L 1811.571837 1494.223606 
L 1813.705021 1482.704343 
L 1811.998459 1473.744912 
L 1808.158713 1468.625227 
L 1801.759113 1463.505565 
L 1798.772635 1457.532611 
L 1804.318967 1452.839572 
L 1806.452152 1442.173578 
L 1805.172236 1431.080963 
L 1804.318967 1416.575223 
L 1800.479197 1406.335876 
L 1800.479197 1398.229714 
L 1807.305444 1386.710452 
L 1815.838229 1374.33792 
L 1825.224284 1362.392012 
L 1835.037008 1350.446103 
L 1849.542747 1330.820702 
L 1837.170192 1351.299396 
L 1817.118145 1374.33792 
L 1811.14519 1385.003913 
L 1806.452152 1397.803091 
L 1805.172236 1411.028915 
L 1807.305444 1426.387924 
L 1810.718544 1437.907186 
L 1816.264852 1451.13301 
L 1822.068785 1462.542304 
L 1826.737526 1478.697918 
L 1827.19183 1490.174002 
L 1825.485268 1506.812926 
L 1825.911915 1521.318666 
L 1825.485268 1534.117843 
L 1828.471745 1546.490398 
L 1837.431177 1555.876476 
L 1849.377085 1566.969092 
L 1867.722571 1576.781792 
L 1884.788165 1583.608039 
L 1902.280382 1586.16787 
L 1921.905783 1587.447786 
L 1942.864119 1586.616449 
L 1958.46483 1580.701294 
L 1969.984092 1572.168509 
L 1987.049686 1555.102938 
L 1989.182871 1543.583676 
L 1987.902955 1530.357852 
L 1986.196394 1505.18612 
L 1979.796817 1493.240211 
L 1969.984092 1485.560695 
L 1958.038184 1480.014387 
L 1949.932045 1478.307825 
L 1939.266052 1478.307825 
L 1930.30662 1480.014387 
L 1923.053751 1479.587741 
L 1926.466874 1468.921771 
L 1931.159913 1450.149639 
L 1932.866475 1434.36396 
L 1930.733267 1419.431598 
L 1932.013182 1404.499213 
L 1935.852952 1386.58035 
L 1943.959091 1376.767649 
L 1936.706221 1388.286911 
L 1933.293097 1404.925859 
L 1932.013182 1418.578306 
L 1934.573037 1429.244299 
L 1939.266052 1439.483646 
L 1945.239006 1449.296346 
L 1952.491876 1457.402509 
L 1961.451307 1465.508647 
L 1972.543923 1472.334871 
L 1990.03614 1485.134072 
L 2000.702133 1491.107003 
L 2012.221395 1496.226688 
L 2015.207872 1506.466035 
L 2022.034119 1523.531605 
L 2025.823803 1532.600579 
L 2042.036104 1545.826403 
L 2064.648006 1554.359188 
L 2088.113177 1561.185411 
L 2110.725055 1562.891973 
L 2132.91031 1560.758789 
L 2151.255796 1553.932542 
L 2165.761559 1541.56001 
L 2172.587783 1529.187455 
L 2176.000906 1518.948108 
L 2173.014429 1507.0022 
L 2169.174659 1495.482937 
L 2166.614828 1482.68376 
L 2156.375481 1475.43089 
L 2144.429573 1469.457936 
L 2128.217272 1461.77842 
L 2118.831217 1457.085404 
L 2108.165224 1448.125973 
L 2095.366046 1432.340318 
L 2108.165224 1440.873103 
L 2122.670964 1448.979242 
L 2138.029996 1454.52555 
L 2153.389004 1460.498504 
L 2170.881221 1468.604667 
L 2187.520168 1470.737851 
L 2202.025908 1464.338274 
L 2214.825085 1451.11245 
L 2224.637786 1431.487025 
L 2231.037387 1411.008332 
L 2236.923488 1393.380217 
L 2237.350134 1375.034731 
L 2233.083718 1361.382261 
L 2220.711187 1354.556037 
L 2203.645617 1351.996206 
L 2187.006669 1351.996206 
L 2166.527975 1354.556037 
L 2150.74232 1357.115868 
L 2133.250104 1355.835953 
L 2118.317718 1353.702745 
L 2107.651725 1347.729814 
L 2120.450926 1347.303168 
L 2134.103373 1345.596606 
L 2144.769366 1342.610129 
L 2160.128375 1341.75686 
L 2180.180446 1338.343736 
L 2192.971508 1333.232639 
L 2204.917417 1332.37937 
L 2216.010056 1335.365847 
L 2231.795711 1333.232639 
L 2245.874804 1328.112977 
L 2259.527275 1317.446984 
L 2268.913329 1306.780991 
L 2276.592845 1290.56869 
L 2280.005968 1279.90272 
L 2282.565799 1267.530165 
L 2282.992446 1258.144111 
L 2283.419068 1242.358433 
L 2282.565799 1234.67894 
L 2287.685461 1226.999424 
L 2292.3785 1220.173201 
L 2296.21827 1210.360477 
L 2297.924808 1201.401069 
L 2299.63137 1189.028514 
L 2301.277671 1175.431453 
L 2297.498824 1163.579732 
L 2288.966015 1155.046947 
L 2274.460276 1148.64737 
L 2259.527914 1144.380977 
L 2240.329135 1146.940808 
L 2205.771325 1149.500639 
L 2164.813961 1151.207201 
L 2149.028282 1152.913762 
L 2132.389359 1152.913762 
L 2114.470496 1154.620324 
L 2093.991802 1158.46007 
L 2076.926232 1162.299817 
L 2063.762797 1166.330067 
L 2053.52345 1174.436229 
L 2044.564019 1185.102199 
L 2047.550496 1196.621461 
L 2052.243535 1207.7141 
L 2064.61609 1217.526801 
L 2079.548452 1225.206317 
L 2099.173876 1228.619417 
L 2117.519362 1231.605894 
L 2136.71814 1235.87231 
L 2149.090695 1238.005495 
L 2117.946008 1236.725579 
L 2099.600523 1238.858764 
L 2080.401744 1242.271887 
L 2063.336174 1244.405095 
L 2043.284103 1243.978449 
L 2030.484925 1246.53828 
L 1999.340238 1252.084588 
L 2017.259101 1244.831718 
L 2029.631656 1236.298933 
L 2036.45788 1222.646486 
L 2039.444357 1211.980493 
L 2022.805409 1189.795238 
L 2012.566063 1183.395637 
L 2000.406843 1180.195848 
L 1985.687792 1180.622495 
L 1978.648233 1181.262452 
L 1973.397145 1181.942844 
L 1965.93094 1185.142632 
L 1952.491805 1185.78259 
L 1964.651025 1183.43607 
L 1972.757187 1180.022947 
L 1982.143241 1174.263328 
L 1991.742631 1170.423558 
L 2003.261893 1166.157165 
L 2013.287928 1160.824192 
L 2025.660483 1155.277861 
L 2038.459661 1150.37151 
L 2057.765095 1144.665219 
L 2078.403772 1137.465677 
L 2097.602551 1135.06583 
L 2115.361406 1128.346262 
L 2135.520133 1130.266135 
L 2159.518606 1129.306187 
L 2181.81629 1129.786019 
L 2202.454991 1124.50635 
L 2219.733873 1117.786783 
L 2231.733109 1105.787546 
L 2241.332498 1097.148105 
L 2256.211556 1085.148869 
L 2272.050539 1068.349938 
L 2280.68998 1050.591082 
L 2280.68998 1035.712024 
L 2276.850233 1015.553297 
L 2267.730818 999.23434 
L 2259.571328 985.795205 
L 2249.491988 970.436197 
L 2241.812472 960.836807 
L 2228.526294 950.035342 
L 2216.047083 942.8358 
L 2202.127974 937.07618 
L 2186.288991 935.156284 
L 2175.249703 933.236411 
L 2162.770492 930.356589 
L 2155.57095 926.516843 
L 2166.610238 926.996817 
L 2187.248916 922.677097 
L 2193.488533 915.477555 
L 2198.768202 904.438243 
L 2198.288227 892.43903 
L 2196.368354 877.559972 
L 2189.168812 862.20094 
L 2178.609475 846.361957 
L 2169.970034 840.122364 
L 2161.916916 833.441172 
L 2149.437729 830.56135 
L 2136.958518 831.521298 
L 2127.359129 832.961197 
L 2119.199638 838.72084 
L 2114.399944 843.040561 
L 2103.84063 849.280154 
L 2095.201189 854.079849 
L 2086.081751 862.239339 
L 2077.922284 868.478933 
L 2066.882996 873.278627 
L 2060.163404 879.038246 
L 2052.483912 884.797889 
L 2049.124116 897.2771 
L 2050.564039 907.35644 
L 2055.363734 917.915777 
L 2052.963886 930.394988 
L 2055.843684 940.474328 
L 2060.643379 947.67387 
L 2069.762794 953.913487 
L 2075.522437 964.472801 
L 2078.882232 976.472037 
L 2077.44231 992.790994 
L 2073.602564 1004.310256 
L 2065.923047 1013.429671 
L 2059.20348 1022.549086 
L 2050.084065 1025.428908 
L 2034.245058 1028.308729 
L 2038.084828 1017.269441 
L 2045.764344 999.990536 
L 2049.124116 977.431985 
L 2047.204243 964.952775 
L 2039.524727 952.953538 
L 2028.965413 937.59453 
L 2013.606381 925.115319 
L 1974.728874 915.995904 
L 1956.969995 914.076031 
L 1934.891418 913.596057 
L 1914.252717 917.435803 
L 1896.493862 919.83565 
L 1884.014651 925.595293 
L 1874.66728 934.541286 
L 1867.467738 943.660701 
L 1864.587916 953.260091 
L 1866.027839 967.1792 
L 1871.307508 981.09831 
L 1879.466974 990.217725 
L 1884.746643 999.817114 
L 1892.426159 1010.376451 
L 1902.505499 1017.096019 
L 1916.424608 1026.695408 
L 1912.104888 1036.294797 
L 1904.425372 1052.13378 
L 1900.105652 1067.972763 
L 1897.705804 1081.411922 
L 1897.705804 1095.331031 
L 1886.666516 1103.010524 
L 1853.068654 1124.609149 
L 1836.749697 1134.688513 
L 1822.350613 1145.24785 
L 1811.152407 1143.363821 
L 1800.857224 1137.197524 
L 1793.657682 1129.038033 
L 1790.297886 1120.878567 
L 1784.538267 1115.118924 
L 1790.777861 1108.87933 
L 1795.577555 1099.279941 
L 1793.177708 1089.680552 
L 1791.257835 1081.041111 
L 1780.698497 1066.162053 
L 1773.97893 1056.08269 
L 1759.579846 1046.963275 
L 1743.260889 1042.16358 
L 1761.499719 1045.523376 
L 1775.898803 1055.602739 
L 1782.13842 1065.682079 
L 1800.37725 1089.200578 
L 1809.016691 1094.960221 
L 1817.656155 1096.880094 
L 1826.77557 1093.520298 
L 1834.935037 1087.280705 
L 1837.814858 1080.561137 
L 1844.054452 1074.321543 
L 1856.053688 1069.521849 
L 1862.293305 1058.962511 
L 1865.173103 1042.16358 
L 1861.333357 1024.404725 
L 1855.093763 1006.165895 
L 1844.054452 985.527194 
L 1833.975112 968.248312 
L 1822.9358 952.409306 
L 1814.709591 942.275739 
L 1808.469974 930.276503 
L 1801.750406 919.237191 
L 1795.510813 911.077724 
L 1787.351322 901.958309 
L 1781.591703 892.35892 
L 1776.792008 883.239505 
L 1769.592467 874.12009 
L 1757.113256 863.080778 
L 1745.582779 850.131696 
L 1733.103592 840.532331 
L 1721.104356 829.972993 
L 1709.585093 819.413679 
L 1698.545782 810.294241 
L 1690.386315 802.134774 
L 1690.866266 791.575436 
L 1697.585857 782.456021 
L 1709.105119 781.496097 
L 1722.544255 787.255716 
L 1734.063517 794.935232 
L 1743.662906 804.054647 
L 1771.981099 819.89363 
L 1787.340108 826.613197 
L 1805.098987 827.573146 
L 1815.658301 818.933705 
L 1827.657538 809.81429 
L 1847.33629 809.81429 
L 1869.89484 813.654036 
L 1889.573593 820.373604 
L 1909.252346 828.05312 
L 1940.450337 836.692561 
L 1958.992998 841.183597 
L 1978.191776 845.983292 
L 1997.390531 851.742911 
L 2017.069284 853.662784 
L 2032.908266 850.303012 
L 2050.187172 849.823038 
L 2064.106281 845.983292 
L 2078.025391 838.303776 
L 2096.264221 828.704387 
L 2110.440529 818.770149 
L 2122.439766 807.250887 
L 2132.039155 798.611422 
L 2136.83885 789.012033 
L 2142.118518 775.092923 
L 2142.118518 759.733915 
L 2140.678596 733.335595 
L 2135.398927 714.616791 
L 2133.479054 694.458088 
L 2128.679359 676.699208 
L 2121.959792 657.020479 
L 2115.240224 644.061294 
L 2105.160861 627.742338 
L 2094.121573 616.223075 
L 2082.60231 608.063585 
L 2073.482895 604.223839 
L 2059.563786 602.78394 
L 2047.564549 609.503508 
L 2037.485186 618.622923 
L 2031.245592 631.102133 
L 2030.765618 646.461142 
L 2028.845745 661.820174 
L 2033.64544 674.779335 
L 2038.925085 685.338673 
L 2045.644676 693.018165 
L 2037.485186 686.298597 
L 2026.925848 679.099055 
L 2017.806433 670.939589 
L 2005.807197 663.740047 
L 2002.447425 656.540505 
L 2001.487477 646.941116 
L 1999.567603 638.301675 
L 2010.126941 633.501981 
L 2023.086102 625.822464 
L 2035.679705 618.18757 
L 2047.198967 606.188333 
L 2051.518688 593.229172 
L 2048.158892 579.310062 
L 2038.079552 567.7908 
L 2022.240546 559.151336 
L 2009.281385 554.831615 
L 1995.780546 553.827732 
L 1979.461589 557.667478 
L 1965.54248 563.907095 
L 1954.023218 571.586611 
L 1944.903779 579.266104 
L 1937.224286 588.385519 
L 1924.265102 590.785366 
L 1911.30594 595.10511 
L 1898.82673 599.904781 
L 1885.867545 607.104323 
L 1872.42841 614.783839 
L 1880.107926 603.744551 
L 1897.866781 588.385519 
L 1910.345992 575.426357 
L 1923.785127 563.907095 
L 1946.343701 545.668265 
L 1968.836479 524.988184 
L 1974.596099 508.189277 
L 1969.796404 490.430397 
L 1960.197015 475.071389 
L 1947.237854 462.112204 
L 1932.83877 451.072916 
L 1917.479761 442.913426 
L 1907.400398 439.07368 
L 1902.600703 429.954265 
L 1899.263668 416.74971 
L 1889.184305 400.430753 
L 1873.825296 385.071721 
L 1861.346085 371.632586 
L 1844.547154 358.673425 
L 1831.108019 346.674188 
L 1812.389215 334.674952 
L 1776.391505 311.156453 
L 1754.79288 301.557064 
L 1741.881889 294.762733 
L 1725.562932 289.963038 
L 1704.44428 286.603266 
L 1688.605298 285.643318 
L 1669.406519 285.163344 
L 1655.967384 281.323598 
L 1645.888021 274.124056 
L 1638.454963 265.271398 
L 1629.335548 257.111908 
L 1620.216133 252.792188 
L 1606.776974 248.952441 
L 1592.377913 247.032545 
L 1561.179899 240.792951 
L 1545.820866 241.272925 
L 1531.901757 241.272925 
L 1519.42257 244.152747 
L 1509.343207 252.792188 
L 1506.463385 262.871551 
L 1511.743054 276.790661 
L 1516.062774 289.269848 
L 1522.782342 299.349211 
L 1532.381731 311.348447 
L 1543.900993 319.987888 
L 1545.820866 331.987125 
L 1545.340916 343.506387 
L 1546.780815 355.505623 
L 1548.220714 365.584987 
L 1554.460331 377.584223 
L 1559.260026 384.303791 
L 1562.619798 393.423206 
L 1563.579746 401.102722 
L 1566.939518 410.702111 
L 1570.299314 417.901653 
L 1570.779288 425.581169 
L 1575.578982 436.140483 
L 1588.058169 438.060356 
L 1596.697634 428.460967 
L 1602.937227 421.741399 
L 1608.216896 412.14201 
L 1613.496565 406.382391 
L 1622.61598 399.662823 
L 1626.455726 392.463281 
L 1623.095954 388.143537 
L 1619.736158 380.464045 
L 1625.015827 372.784529 
L 1633.175294 371.34463 
L 1643.254657 375.66435 
L 1656.693792 380.464045 
L 1671.57285 383.343866 
L 1681.652214 385.74369 
L 1684.052061 394.863128 
L 1685.011986 406.382391 
L 1683.572087 456.29921 
L 1683.827772 470.433618 
L 1688.147492 488.192474 
L 1695.347034 500.671684 
L 1702.546576 514.590794 
L 1711.186017 525.150108 
L 1716.945636 534.749497 
L 1723.185253 543.868912 
L 1723.185253 553.468301 
L 1726.545025 565.947512 
L 1736.144414 573.147054 
L 1746.703752 583.226417 
L 1740.464159 593.305757 
L 1727.024999 605.304993 
L 1713.585864 613.464484 
L 1697.266907 618.744152 
L 1681.907875 616.824256 
L 1671.348561 611.54461 
L 1675.188307 603.38512 
L 1691.507264 588.506062 
L 1698.706806 573.147054 
L 1698.226832 554.42825 
L 1698.706806 540.989114 
L 1689.107417 521.310362 
L 1675.668282 510.751024 
L 1662.70912 496.831915 
L 1659.829299 480.033007 
L 1653.589682 463.234076 
L 1644.470267 452.674739 
L 1632.951005 444.995223 
L 1620.471794 441.63545 
L 1608.472581 449.314967 
L 1582.554235 470.433618 
L 1569.59505 471.873517 
L 1560.475635 466.113874 
L 1549.436347 450.754865 
L 1538.397035 434.915883 
L 1524.9579 422.916646 
L 1510.35123 423.093381 
L 1502.19174 429.332974 
L 1492.112377 438.932363 
L 1483.95291 437.01249 
L 1487.312682 423.573331 
L 1499.311919 412.534043 
L 1508.911308 398.614933 
L 1514.670951 379.896129 
L 1514.670951 358.777478 
L 1515.630876 340.058674 
L 1509.391282 324.699642 
L 1503.631639 305.500887 
L 1496.432097 289.661881 
L 1488.163183 278.109756 
L 1477.123871 263.710696 
L 1469.92433 252.19141 
L 1458.405067 241.152122 
L 1445.925857 230.112833 
L 1431.046822 221.953343 
L 1416.272764 217.078957 
L 1400.433781 216.598982 
L 1383.63485 217.078957 
L 1368.275818 218.038905 
L 1353.876734 223.318574 
L 1346.677192 229.078193 
L 1345.237293 240.597455 
L 1347.637141 253.076666 
L 1352.436835 265.555877 
L 1357.716504 277.555113 
L 1361.55625 288.594401 
L 1365.875971 297.713816 
L 1368.275818 308.27313 
L 1357.716504 295.313969 
L 1346.677192 273.235369 
L 1337.557777 258.356335 
L 1329.878285 243.477277 
L 1318.358999 227.15832 
L 1308.279659 213.719184 
L 1295.320475 203.159847 
L 1284.281186 197.880178 
L 1272.28195 194.040432 
L 1258.36284 191.16061 
L 1245.403656 190.200686 
L 1233.884393 191.640585 
L 1219.48531 195.480331 
L 1207.966047 202.199922 
L 1201.726454 209.39944 
L 1194.526912 220.438752 
L 1192.127065 231.958014 
L 1191.167116 247.796997 
L 1193.566964 264.115954 
L 1201.24648 279.474986 
L 1209.88592 296.273917 
L 1220.445258 312.1129 
L 1230.524621 324.59211 
L 1237.244189 336.111373 
L 1242.043884 352.43033 
L 1236.284241 337.071297 
L 1229.084699 326.511984 
L 1218.525385 313.072825 
L 1208.446021 297.233842 
L 1198.846632 279.95496 
L 1191.64709 264.595928 
L 1184.447549 248.756946 
L 1176.768056 234.357862 
L 1171.488387 224.758473 
L 1164.749159 208.556865 
L 1154.669819 194.157782 
L 1145.07043 183.118494 
L 1132.591219 173.999079 
L 1121.551931 169.199384 
L 1105.712949 165.839612 
L 1087.954069 165.839612 
L 1069.235265 166.799537 
L 1052.436334 169.199384 
L 1048.114011 172.799794 
L 1028.804934 180.866871 
L 1016.325723 190.946234 
L 1008.646207 201.025574 
L 1003.366562 213.504785 
L 1005.286435 228.863817 
L 1008.646207 246.142699 
L 1015.845749 261.501731 
L 1043.204017 299.899264 
L 1052.616002 312.588876 
L 1065.5754 329.388658 
L 1071.335043 348.107463 
L 1076.614688 363.466495 
L 1083.334279 374.985757 
L 1091.013772 387.464968 
L 1095.813466 400.424129 
L 1095.333516 419.142933 
L 1091.525757 432.153316 
L 1080.006494 441.752682 
L 1070.887056 453.751918 
L 1062.727589 465.271181 
L 1056.008021 481.110187 
L 1051.688301 495.989221 
L 1051.208327 511.348253 
L 1054.738492 521.382664 
L 1063.857931 533.861851 
L 1068.657602 542.98129 
L 1079.696914 550.180808 
L 1096.015871 552.100705 
L 1114.254701 548.740909 
L 1123.374116 545.381113 
L 1138.253173 542.021341 
L 1151.212335 540.101468 
L 1166.571367 540.101468 
L 1179.530528 545.381113 
L 1200.169229 551.140756 
L 1215.528237 559.780197 
L 1229.447347 566.979739 
L 1239.046736 577.059102 
L 1251.045973 585.218593 
L 1254.885719 596.737855 
L 1246.726252 586.178517 
L 1238.086788 579.45895 
L 1223.207753 575.619204 
L 1212.648416 569.859561 
L 1200.169229 562.660019 
L 1192.969687 555.460477 
L 1176.65073 550.660782 
L 1163.691545 549.700858 
L 1150.732384 549.220883 
L 1137.773199 550.180808 
L 1127.213885 552.580655 
L 1113.294776 555.940451 
L 1104.655311 559.300247 
L 1095.055922 562.660019 
L 1084.976583 566.499789 
L 1078.256991 572.739382 
L 1076.337118 584.738619 
L 1077.89581 597.570209 
L 1084.615377 617.248938 
L 1090.374997 635.967742 
L 1099.974386 648.446953 
L 1112.933571 653.726622 
L 1128.292579 657.566368 
L 1141.251764 660.446189 
L 1152.771026 664.285936 
L 1157.090747 672.445426 
L 1148.931257 673.885325 
L 1135.492121 670.525553 
L 1124.932807 669.08563 
L 1112.453597 670.045579 
L 1108.613827 676.285172 
L 1109.093801 687.32446 
L 1108.133876 701.243593 
L 1108.133876 716.122628 
L 1108.613827 732.441585 
L 1112.13292 746.341672 
L 1118.372513 757.860934 
L 1128.931827 771.300093 
L 1143.330911 782.339382 
L 1159.169917 788.099001 
L 1172.129078 787.139076 
L 1182.688416 784.259255 
L 1195.167603 778.979586 
L 1210.046661 773.219967 
L 1221.085949 765.060476 
L 1231.645287 755.461087 
L 1242.204601 743.461851 
L 1255.64376 732.422563 
L 1259.003532 737.702231 
L 1250.364091 748.741519 
L 1239.324779 758.820883 
L 1225.405669 771.300093 
L 1185.088263 792.898695 
L 1169.249257 799.138313 
L 1155.330147 801.53816 
L 1144.290859 801.058186 
L 1133.251571 794.818592 
L 1122.692234 796.258491 
L 1109.253098 795.778517 
L 1096.293914 789.538923 
L 1084.294677 783.299306 
L 1072.295441 778.979586 
L 1055.016559 774.179891 
L 1036.297755 765.54045 
L 1018.538875 758.340909 
L 1003.659841 751.621341 
L 984.461063 741.541978 
L 960.879796 728.311445 
L 974.561557 731.072592 
L 993.760335 740.192007 
L 1014.399012 744.511728 
L 1034.077765 745.951627 
L 1057.596264 744.991702 
L 1072.955296 740.192007 
L 1084.954508 732.512491 
L 1093.113999 721.473203 
L 1099.353592 708.034068 
L 1098.873642 685.955468 
L 1094.553898 666.75669 
L 1090.234177 648.997834 
L 1085.434483 634.59875 
L 1081.114762 616.839871 
L 1075.835093 601.960836 
L 1071.995347 587.081778 
L 1068.635552 570.762822 
L 1065.755754 558.283611 
L 1065.27578 547.724297 
L 1059.996111 534.765112 
L 1054.716442 524.205798 
L 1047.03695 516.046308 
L 1037.917511 510.286689 
L 1030.238019 507.406867 
L 1018.238782 508.366792 
L 1005.279597 511.726588 
L 992.80041 517.966181 
L 982.241073 525.645697 
L 970.72181 531.40534 
L 954.402854 538.124908 
L 940.00377 545.32445 
L 928.004533 554.923839 
L 915.045372 565.483153 
L 903.046136 577.002415 
L 894.406671 588.521677 
L 880.487562 611.560225 
L 875.687867 620.67964 
L 872.328095 618.759767 
L 879.047663 600.04094 
L 886.247205 581.80211 
L 895.36662 567.403026 
L 904.00606 552.523992 
L 917.92517 536.684985 
L 928.046647 524.907033 
L 944.833464 514.789105 
L 963.072294 502.309895 
L 984.190946 485.03099 
L 998.590029 471.11188 
L 1011.069216 453.353024 
L 1020.188655 433.674272 
L 1024.508375 416.875341 
L 1024.157155 395.753992 
L 1019.502396 353.726712 
L 1014.235716 338.601172 
L 1003.676379 303.563411 
L 998.876684 289.164328 
L 993.117065 271.405472 
L 986.397474 250.28682 
L 981.597803 230.128094 
L 980.15788 212.849212 
L 977.278059 196.530255 
L 973.438312 183.091096 
L 967.325177 173.575082 
L 956.76584 166.855514 
L 945.246578 162.53577 
L 931.327468 159.655972 
L 919.328232 155.816203 
L 909.248868 153.896329 
L 909.248868 153.896329 
" style="fill:none;stroke:#000000;stroke-linecap:square;stroke-width:1.5;"/>
   </g>
   <g id="line2d_2">
    <path clip-path="url(#pf8eca0e7bc)" d="M 410.06795 662.506243 
L 401.875786 660.09679 
L 392.719818 654.79597 
L 379.708701 649.49515 
L 367.661389 647.567564 
L 360.914874 644.19433 
L 370.070842 641.784853 
L 383.081959 643.712416 
L 393.201708 647.567564 
L 400.911982 655.277861 
L 410.06795 662.506243 
L 410.06795 662.506243 
" style="fill:none;stroke:#000000;stroke-linecap:square;stroke-width:1.5;"/>
   </g>
  </g>
 </g>
 <defs>
  <clipPath id="pf8eca0e7bc">
   <rect height="2056.32" width="2365.92" x="0" y="0"/>
  </clipPath>
 </defs>
</svg>
