<?xml version="1.0" encoding="utf-8" standalone="no"?>
<!DOCTYPE svg PUBLIC "-//W3C//DTD SVG 1.1//EN"
  "http://www.w3.org/Graphics/SVG/1.1/DTD/svg11.dtd">
<!-- Created with matplotlib (https://matplotlib.org/) -->
<svg height="508.32pt" version="1.1" viewBox="0 0 726.48 508.32" width="726.48pt" xmlns="http://www.w3.org/2000/svg" xmlns:xlink="http://www.w3.org/1999/xlink">
 <defs>
  <style type="text/css">
*{stroke-linecap:butt;stroke-linejoin:round;}
  </style>
 </defs>
 <g id="figure_1">
  <g><image xlink:href="../../img/ctx/mink_cor_cell.json.ctx-50%25.png" width="726.48px" height="508.32px"/></g>

  <g id="patch_1">
   <path d="M 0 508.32 
L 726.48 508.32 
L 726.48 0 
L 0 0 
z
" style="fill:none;"/>
  </g>
  <g id="axes_1">
   <g id="line2d_1">
    <path clip-path="url(#p2ec66ed017)" d="M 350.439299 192.651243 
L 357.463874 191.982242 
L 360.474407 188.637201 
L 362.146931 185.292168 
L 363.48494 181.947127 
L 363.819448 177.598577 
L 364.822956 174.253544 
L 366.829981 170.574002 
L 368.837005 166.225453 
L 369.840514 160.873395 
L 369.840514 155.521337 
L 368.502498 132.10608 
L 367.164481 102.66975 
L 363.15044 96.648683 
L 359.470898 93.30365 
L 354.453341 92.969142 
L 347.094265 92.300134 
L 339.400675 93.30365 
L 332.041592 95.979675 
L 326.020526 98.3212 
L 319.66496 102.66975 
L 315.31641 106.349291 
L 310.967861 111.366849 
L 307.622827 116.718907 
L 303.943286 123.074481 
L 301.936261 127.088522 
L 300.932753 131.771572 
L 299.260236 138.461647 
L 298.925728 134.113097 
L 300.263744 129.430047 
L 302.605269 122.739973 
L 305.95031 117.722415 
L 308.960843 112.370357 
L 312.305877 108.356315 
L 316.988927 103.673266 
L 321.671984 99.993724 
L 328.362058 96.648683 
L 334.383125 93.972658 
L 342.745716 91.965634 
L 348.432274 91.296625 
L 353.449832 91.965634 
L 359.470898 92.300134 
L 363.15044 92.300134 
L 366.160973 89.624109 
L 368.167997 85.944567 
L 369.171506 82.265026 
L 369.171506 77.581976 
L 369.840514 68.215869 
L 369.840514 63.532819 
L 370.175014 54.50122 
L 370.844023 46.473129 
L 369.171506 35.434505 
L 365.157464 29.078938 
L 358.46739 22.388864 
L 352.446323 19.378331 
L 347.094265 17.371306 
L 343.749224 15.69879 
L 337.728158 15.364289 
L 328.362058 15.029781 
L 321.337476 15.029781 
L 312.640385 15.69879 
L 305.615803 16.367798 
L 297.253211 17.705814 
L 289.894129 19.04383 
L 280.528029 22.054364 
L 271.49643 26.068405 
L 264.471847 29.413439 
L 258.450781 32.423972 
L 253.767731 35.100005 
L 251.426206 39.448554 
L 250.422691 44.466112 
L 251.091699 49.149162 
L 251.760707 55.504728 
L 252.095215 63.198319 
L 251.760707 69.888386 
L 251.091699 76.24396 
L 250.757198 82.934034 
L 249.084681 91.631133 
L 249.75369 84.941059 
L 250.422691 79.923501 
L 250.422691 73.902435 
L 251.091699 66.877853 
L 251.091699 60.187786 
L 250.757198 53.832212 
L 250.08819 47.476645 
L 248.415673 42.793588 
L 246.074148 40.117562 
L 241.725599 38.445046 
L 235.035524 39.114046 
L 228.01095 40.117562 
L 220.986367 42.459087 
L 209.613243 48.814654 
L 205.933702 51.490687 
L 204.595686 54.50122 
L 205.264694 61.191294 
L 205.599201 68.550377 
L 205.599201 75.574952 
L 204.261185 81.930526 
L 201.91966 89.958609 
L 199.539167 97.417285 
L 198.535658 102.769343 
L 196.863141 106.114376 
L 193.518101 110.462926 
L 196.528634 103.772851 
L 198.20115 99.424309 
L 201.546191 88.720186 
L 205.560233 73.66752 
L 205.225733 68.98447 
L 204.556724 64.30142 
L 203.218708 57.276838 
L 201.880692 52.593788 
L 197.86665 49.248755 
L 194.187109 47.24173 
L 188.500543 46.907223 
L 181.141468 47.24173 
L 174.451393 47.910738 
L 168.764827 48.914247 
L 162.074753 50.586764 
L 155.050178 53.931805 
L 148.025596 57.945846 
L 141.670029 63.297905 
L 136.317971 67.980962 
L 130.965913 74.002028 
L 125.279347 80.023094 
L 119.927289 86.713169 
L 112.653735 95.559646 
L 107.636178 102.584228 
L 101.949612 111.28132 
L 95.259537 121.985444 
L 90.576488 131.686051 
L 87.565954 139.714135 
L 86.896946 145.735201 
L 87.231454 154.4323 
L 87.900462 161.791382 
L 90.576488 169.150465 
L 93.587021 175.506031 
L 99.942595 180.523589 
L 107.970678 181.861605 
L 117.671286 182.865114 
L 127.037393 180.85809 
L 136.068992 179.185573 
L 147.107616 179.854581 
L 154.466691 181.192597 
L 160.487757 183.199615 
L 156.139215 184.537631 
L 150.118149 186.210148 
L 142.090058 186.544655 
L 135.065483 185.875647 
L 126.033877 187.548164 
L 120.012811 189.220681 
L 114.99526 187.548164 
L 104.291137 183.534122 
L 99.273586 182.530606 
L 95.259537 182.196106 
L 91.245496 184.20313 
L 76.527331 197.583279 
L 73.851305 202.60083 
L 72.178788 207.283887 
L 70.840772 211.632429 
L 68.833748 216.984487 
L 66.492223 222.336552 
L 65.154206 226.685095 
L 62.812681 233.375169 
L 59.368055 245.431373 
L 58.699046 251.117932 
L 59.702555 256.804498 
L 63.047596 261.153047 
L 67.396145 267.843122 
L 72.413696 272.191664 
L 74.086212 277.543729 
L 78.434762 284.233796 
L 86.128352 289.585862 
L 92.149418 292.930895 
L 99.173993 295.606928 
L 105.864068 296.944937 
L 111.550626 295.941428 
L 117.237192 293.599903 
L 122.25475 292.930895 
L 129.279324 292.261887 
L 134.296882 288.582346 
L 137.976423 285.571813 
L 141.321457 284.568304 
L 144.666498 281.557771 
L 140.986957 286.909829 
L 136.972908 290.254862 
L 133.627874 291.927386 
L 129.279324 293.265396 
L 125.934291 293.934404 
L 121.585741 294.93792 
L 118.240701 296.610436 
L 114.561167 297.279445 
L 109.878109 298.282953 
L 105.864068 298.282953 
L 102.184526 297.613945 
L 93.487428 294.603412 
L 88.804378 292.596395 
L 85.459344 291.592879 
L 79.10377 291.592879 
L 76.762245 287.913337 
L 74.755221 282.226779 
L 72.079195 277.209221 
L 70.072171 272.860672 
L 67.396145 268.512122 
L 63.716604 264.498081 
L 60.706071 260.149531 
L 56.692022 257.808006 
L 51.339964 257.138998 
L 48.329431 258.477014 
L 44.315389 262.491056 
L 41.639356 267.508614 
L 37.290807 274.533189 
L 32.408578 283.963161 
L 30.067046 290.653228 
L 26.387512 297.343302 
L 23.376979 306.040401 
L 22.038962 314.402992 
L 21.035446 323.434592 
L 22.373463 331.462682 
L 27.056513 340.828782 
L 32.408578 348.187865 
L 40.436661 354.877939 
L 47.461244 358.22298 
L 53.147802 361.233513 
L 59.503376 360.564505 
L 64.520926 358.22298 
L 69.203984 357.553972 
L 73.887033 358.22298 
L 80.911608 358.891988 
L 75.894058 360.229997 
L 69.538484 364.578547 
L 66.19345 364.578547 
L 61.844901 366.251063 
L 59.837876 367.923588 
L 57.161851 370.934121 
L 55.823835 375.951671 
L 56.158335 381.638237 
L 58.16536 390.000828 
L 61.510393 398.363419 
L 66.862459 406.057009 
L 72.104092 413.789554 
L 77.121649 418.472611 
L 81.804699 420.814136 
L 86.822257 426.500694 
L 99.19889 432.18726 
L 121.610638 437.873819 
L 142.349869 439.546343 
L 164.092609 438.208326 
L 173.458709 436.201302 
L 182.490309 434.863285 
L 192.190916 433.190769 
L 200.553507 431.518252 
L 206.240073 428.507719 
L 211.257631 424.828177 
L 217.613197 420.479628 
L 223.299763 417.803603 
L 227.313805 415.46207 
L 239.355937 410.44452 
L 244.707995 407.433987 
L 252.067078 404.423454 
L 258.088144 402.416429 
L 263.261321 399.406673 
L 275.311285 393.71933 
L 277.987318 390.374297 
L 277.987318 386.360255 
L 276.649301 383.349722 
L 274.307776 382.346206 
L 275.980293 380.673689 
L 277.987318 377.328656 
L 278.321818 375.321631 
L 282.001359 375.990639 
L 284.008384 380.004681 
L 291.367467 385.691247 
L 298.726549 390.374297 
L 306.420132 395.057347 
L 313.779215 398.736888 
L 321.807305 403.085437 
L 329.500888 404.088946 
L 337.528979 403.419938 
L 347.62785 400.872354 
L 352.595709 398.487909 
L 354.937234 393.804859 
L 355.606243 389.790817 
L 353.933726 375.407152 
L 352.93021 369.051586 
L 352.93021 350.653879 
L 356.609751 340.618771 
L 360.289293 335.266713 
L 362.965325 332.925188 
L 366.644866 333.928697 
L 368.986391 340.284271 
L 369.6554 347.308846 
L 368.317383 358.012962 
L 367.982876 367.044561 
L 365.975858 380.42471 
L 365.30685 390.459825 
L 367.982876 394.473867 
L 374.338449 398.487909 
L 380.025008 400.829434 
L 388.387606 401.163941 
L 394.408673 399.156917 
L 400.429739 396.815392 
L 407.454314 393.135851 
L 414.144388 390.459825 
L 418.631492 387.548878 
L 422.645534 385.876361 
L 427.328591 384.203844 
L 430.673624 381.193311 
L 433.349657 378.182778 
L 436.36019 375.506746 
L 434.018658 380.858804 
L 435.356674 385.876361 
L 440.708732 392.566436 
L 449.071331 398.253001 
L 467.693113 406.9003 
L 477.728221 411.917858 
L 485.087303 415.9319 
L 490.439361 418.273424 
L 497.463944 423.95999 
L 504.488518 429.981057 
L 511.513093 434.664106 
L 519.206684 437.340132 
L 526.231258 438.343648 
L 537.93889 439.681664 
L 559.012622 444.030206 
L 572.058263 444.030206 
L 583.096887 444.364714 
L 590.45597 443.361198 
L 599.82207 441.354181 
L 605.843136 438.343648 
L 613.871227 435.667615 
L 620.226801 432.322581 
L 630.930917 424.963499 
L 636.617475 420.614949 
L 642.304041 415.9319 
L 647.321599 410.579841 
L 652.339149 404.893276 
L 656.01869 398.872209 
L 658.694723 393.185644 
L 659.363731 387.164577 
L 659.363731 381.812519 
L 656.687698 379.136494 
L 653.342665 376.460461 
L 649.328616 374.118936 
L 646.987091 371.442904 
L 646.987091 369.101379 
L 649.997624 368.766878 
L 655.015182 371.108403 
L 661.705256 373.784436 
L 667.391815 372.111912 
L 674.081889 369.101379 
L 679.768455 365.087337 
L 684.786012 361.073295 
L 691.68933 355.297968 
L 699.382921 344.259351 
L 700.72093 339.241794 
L 701.055438 332.88622 
L 701.055438 326.530653 
L 700.051929 320.844087 
L 697.710397 312.146996 
L 695.368872 306.12593 
L 693.361855 301.442872 
L 691.020322 296.759822 
L 684.330255 287.393723 
L 680.316206 283.714181 
L 676.971173 281.038149 
L 673.626132 280.03464 
L 670.281098 281.038149 
L 665.932549 283.714181 
L 662.587515 286.390207 
L 658.238966 290.738756 
L 655.562933 294.418298 
L 652.5524 297.09433 
L 647.86935 300.104863 
L 642.851792 303.115396 
L 638.168742 304.787913 
L 633.820193 305.791422 
L 628.468135 306.46043 
L 621.778061 307.463939 
L 617.429511 307.798446 
L 612.746461 306.79493 
L 609.06692 305.456921 
L 604.38387 304.453405 
L 600.369821 302.780889 
L 595.686771 300.439364 
L 592.341738 297.428831 
L 590.000213 294.418298 
L 587.65868 292.076773 
L 584.313647 286.055706 
L 589.665705 291.742265 
L 594.014254 295.421806 
L 600.369821 299.770356 
L 605.052878 303.115396 
L 610.739437 305.122414 
L 615.756994 306.46043 
L 620.774552 306.46043 
L 625.792102 306.12593 
L 631.813169 305.122414 
L 638.168742 303.784397 
L 643.520801 301.442872 
L 648.872859 298.097839 
L 653.555909 294.752798 
L 657.23545 290.738756 
L 661.249499 287.393723 
L 664.594532 283.714181 
L 668.274074 281.038149 
L 672.622623 277.693115 
L 676.636665 273.679066 
L 677.640181 268.661516 
L 677.974681 262.64045 
L 677.974681 256.619376 
L 677.305673 249.929309 
L 675.967657 243.239234 
L 672.622623 229.524578 
L 670.281098 223.503512 
L 667.605066 219.154962 
L 665.263541 215.809929 
L 662.922016 214.137412 
L 660.580491 212.799396 
L 657.23545 211.126879 
L 655.228433 203.767796 
L 652.886908 200.422755 
L 649.541867 198.08123 
L 645.193317 197.077722 
L 640.844768 197.412222 
L 635.827218 198.415738 
L 630.475159 199.084746 
L 624.788594 199.084746 
L 619.436536 199.419247 
L 613.080962 199.084746 
L 606.725395 197.412222 
L 600.369821 196.074213 
L 594.683262 195.070697 
L 591.003721 195.070697 
L 588.327689 193.398181 
L 586.989679 190.722155 
L 584.648147 189.049631 
L 592.00723 191.391156 
L 599.70082 192.729172 
L 617.095011 196.408714 
L 631.813169 197.74673 
L 638.503243 197.077722 
L 644.189809 196.074213 
L 649.207366 193.06368 
L 652.862004 188.42719 
L 654.869028 182.740624 
L 656.207045 177.388566 
L 655.872537 173.040017 
L 655.203529 167.018951 
L 655.538037 162.001393 
L 654.869028 150.628269 
L 653.196512 146.279719 
L 650.520479 142.265678 
L 647.175445 137.917128 
L 644.83392 134.572095 
L 642.826896 131.227054 
L 639.147355 126.878504 
L 636.80583 122.529962 
L 634.129797 119.184921 
L 631.119264 116.174388 
L 622.756673 109.818821 
L 620.749648 105.135764 
L 619.74614 101.456223 
L 617.070114 97.442181 
L 612.052557 91.755615 
L 606.365991 86.069057 
L 601.34844 82.055015 
L 595.327374 76.70295 
L 587.968292 71.685399 
L 580.943709 68.340359 
L 574.588143 65.664333 
L 568.567077 63.657309 
L 561.207994 63.657309 
L 553.848911 63.991809 
L 548.496853 64.660817 
L 543.144795 67.002342 
L 541.137771 68.005858 
L 538.796246 70.681884 
L 538.127238 75.699441 
L 538.127238 95.100656 
L 538.796246 109.818821 
L 539.799754 115.50538 
L 540.80327 123.198963 
L 539.465254 118.181413 
L 538.461745 112.829355 
L 537.792737 107.142789 
L 537.458229 101.121723 
L 537.123729 92.090123 
L 537.792737 79.044475 
L 537.792737 73.357916 
L 537.123729 68.674866 
L 535.785713 64.660817 
L 527.088614 59.643267 
L 518.338489 55.554529 
L 510.310406 52.878496 
L 501.947807 51.205979 
L 495.257733 50.202471 
L 489.571174 51.205979 
L 486.560641 53.213004 
L 485.891633 57.227045 
L 486.226133 61.910095 
L 485.891633 66.927653 
L 485.557125 60.237578 
L 484.888124 55.220021 
L 482.8811 50.871471 
L 479.536059 46.85743 
L 475.856518 43.177888 
L 472.845985 40.836363 
L 458.796835 34.480797 
L 454.448285 31.804764 
L 448.092711 29.128731 
L 441.402637 26.787206 
L 433.374554 24.445681 
L 418.407409 21.285762 
L 410.044818 21.285762 
L 403.020243 20.951262 
L 397.333677 20.282254 
L 390.309102 21.285762 
L 384.622537 23.961795 
L 380.273987 27.641329 
L 377.263454 30.98637 
L 372.245904 39.348961 
L 371.576896 44.366519 
L 370.907887 51.391093 
L 370.57338 58.081168 
L 370.907887 64.436742 
L 370.907887 76.813375 
L 371.242388 84.172457 
L 371.576896 87.18299 
L 375.925445 92.869556 
L 379.939487 94.542073 
L 385.291545 95.211081 
L 398.337186 96.54909 
L 404.69276 98.221614 
L 411.048327 101.232147 
L 416.400392 103.573672 
L 425.097484 109.260231 
L 430.449542 115.281297 
L 435.467099 121.302371 
L 439.146641 126.319921 
L 442.157174 131.671979 
L 442.491674 138.027553 
L 441.153665 133.679004 
L 439.481141 129.664962 
L 436.470608 124.981905 
L 432.456566 119.629847 
L 427.439009 113.943288 
L 422.755959 109.594739 
L 418.407409 105.915197 
L 413.055351 103.239165 
L 407.703293 100.228632 
L 402.016727 98.556115 
L 395.661161 96.883598 
L 381.946511 95.545582 
L 376.594446 95.880089 
L 371.911396 96.883598 
L 369.235371 99.559623 
L 368.566362 106.918706 
L 368.566362 112.605272 
L 369.235371 124.312904 
L 369.235371 129.999462 
L 370.238879 148.731669 
L 370.907887 154.418235 
L 371.576896 161.108309 
L 372.245904 165.456852 
L 374.587429 169.470901 
L 377.932462 174.153951 
L 379.53029 179.92927 
L 380.533798 185.281336 
L 381.871815 189.964386 
L 385.885856 191.97141 
L 390.234406 192.640411 
L 395.920972 191.97141 
L 386.554865 193.978427 
L 383.544331 193.643927 
L 379.53029 191.97141 
L 375.516241 191.636902 
L 369.495174 192.305911 
L 365.81564 191.97141 
L 362.4706 190.967894 
L 359.794574 192.305911 
L 354.777017 193.309419 
L 350.439299 192.651243 
L 350.439299 192.651243 
" style="fill:none;stroke:#000000;stroke-linecap:square;stroke-width:1.5;"/>
   </g>
  </g>
 </g>
 <defs>
  <clipPath id="p2ec66ed017">
   <rect height="508.32" width="726.48" x="0" y="0"/>
  </clipPath>
 </defs>
</svg>
