<?xml version="1.0" encoding="utf-8" standalone="no"?>
<!DOCTYPE svg PUBLIC "-//W3C//DTD SVG 1.1//EN"
  "http://www.w3.org/Graphics/SVG/1.1/DTD/svg11.dtd">
<!-- Created with matplotlib (https://matplotlib.org/) -->
<svg height="660.96pt" version="1.1" viewBox="0 0 816.48 660.96" width="816.48pt" xmlns="http://www.w3.org/2000/svg" xmlns:xlink="http://www.w3.org/1999/xlink">
 <defs>
  <style type="text/css">
*{stroke-linecap:butt;stroke-linejoin:round;}
  </style>
 </defs>
 <g id="figure_1">
  <g><image xlink:href="../../img/ctx/mongooselemur_cor_cell.json.ctx-50%25.png" width="816.48px" height="660.9599999999999px"/></g>

  <g id="patch_1">
   <path d="M 0 660.96 
L 816.48 660.96 
L 816.48 0 
L 0 0 
z
" style="fill:none;"/>
  </g>
  <g id="axes_1">
   <g id="line2d_1">
    <path clip-path="url(#p77dfc189de)" d="M 268.90345 127.695153 
L 265.10018 127.695153 
L 262.142082 122.624135 
L 259.183991 114.172432 
L 255.803306 85.859232 
L 251.577459 79.097872 
L 244.816098 75.717195 
L 229.180449 72.759097 
L 220.306161 72.336511 
L 211.43188 72.759097 
L 202.557592 75.717195 
L 190.725205 79.097872 
L 181.005753 83.323727 
L 172.55405 86.281818 
L 148.889284 100.64971 
L 144.170421 105.368581 
L 128.957358 115.2289 
L 122.759442 121.426816 
L 115.716355 127.90645 
L 111.208781 133.82264 
L 105.292591 140.584 
L 100.785017 146.50019 
L 94.876919 155.562146 
L 90.369345 163.732123 
L 86.988669 171.056936 
L 85.580053 178.381742 
L 84.453156 186.833445 
L 85.298327 195.566866 
L 87.552114 202.328226 
L 93.468303 209.371314 
L 100.229664 214.442332 
L 110.935154 217.823016 
L 121.640644 220.640248 
L 133.473023 221.485419 
L 141.924726 221.767146 
L 149.531258 222.894035 
L 156.0109 226.274719 
L 161.081919 231.345738 
L 163.053979 237.825372 
L 161.645363 242.896399 
L 159.391576 247.403973 
L 154.884003 251.911546 
L 149.249539 256.41912 
L 145.30541 260.644968 
L 140.234384 263.743926 
L 134.318194 267.969773 
L 130.374073 271.632184 
L 126.429944 275.858031 
L 120.232028 281.774221 
L 115.442728 289.380753 
L 110.935154 296.142113 
L 107.757895 303.200509 
L 102.686869 317.286675 
L 102.405151 324.048036 
L 102.686869 331.37285 
L 103.250322 339.2611 
L 103.250322 346.02246 
L 104.940656 354.192437 
L 101.559979 344.0504 
L 100.714808 338.979373 
L 100.714808 326.301823 
L 101.278253 313.342546 
L 102.686869 306.299467 
L 105.785827 298.411209 
L 109.729956 291.368122 
L 114.23753 284.325043 
L 120.717172 276.155067 
L 125.788191 268.266808 
L 128.605422 262.350619 
L 131.70438 254.462361 
L 132.549551 249.954787 
L 132.548057 241.444142 
L 131.70438 234.084669 
L 129.168867 229.295369 
L 124.661293 224.787795 
L 119.872001 221.688837 
L 113.955812 219.998495 
L 109.166511 219.153324 
L 104.377211 216.899537 
L 97.897577 214.082305 
L 94.516892 211.546792 
L 88.882429 209.856458 
L 83.529684 210.701629 
L 70.852134 217.46299 
L 63.52732 222.252282 
L 57.047686 226.759855 
L 50.568044 232.1126 
L 44.933581 237.465345 
L 40.14428 244.226706 
L 36.763604 251.833238 
L 34.228091 259.158043 
L 30.402278 270.922957 
L 28.711944 279.092933 
L 27.585046 287.26291 
L 26.458157 298.531844 
L 25.894704 307.265273 
L 25.612986 315.716976 
L 26.17643 328.1128 
L 27.021602 337.691401 
L 28.430217 347.551719 
L 30.965731 356.848585 
L 33.219518 366.99063 
L 37.163639 378.823009 
L 39.417425 387.556439 
L 44.230126 401.884732 
L 47.61081 411.463332 
L 52.681829 423.013985 
L 57.189403 432.310859 
L 67.613174 452.031497 
L 74.092808 461.891815 
L 80.854169 471.188689 
L 88.178975 480.485555 
L 96.912404 488.937258 
L 105.364107 495.698619 
L 114.660973 502.741706 
L 125.084744 515.419256 
L 133.254721 524.152685 
L 148.639702 537.847325 
L 160.190355 542.636617 
L 166.669997 549.96143 
L 178.220658 558.131407 
L 193.997167 566.58311 
L 206.392991 571.654128 
L 218.507096 575.034813 
L 227.80397 575.316531 
L 236.537391 573.062744 
L 245.552547 567.991726 
L 251.750455 562.357254 
L 258.511816 554.750723 
L 264.428013 545.17213 
L 270.344203 537.002154 
L 280.48624 520.098748 
L 282.766832 512.72012 
L 288.671525 499.204412 
L 299.095297 480.610673 
L 300.222186 474.13103 
L 298.81357 469.341738 
L 295.996339 465.397609 
L 292.615654 462.580377 
L 290.643594 460.608309 
L 291.207039 456.945906 
L 293.179099 454.410393 
L 302.194255 457.509351 
L 311.491121 461.735206 
L 321.351439 466.524498 
L 329.239698 472.15897 
L 336.564503 478.075159 
L 343.325864 480.610673 
L 352.904456 480.610673 
L 366.145459 478.075159 
L 377.977838 475.257928 
L 384.739199 474.694483 
L 392.345731 472.722414 
L 397.698476 469.905183 
L 404.92879 469.185121 
L 411.690151 468.903403 
L 428.31183 470.030292 
L 438.453875 470.312018 
L 451.131425 471.438908 
L 462.682086 471.157189 
L 473.10585 468.621676 
L 481.557553 464.395829 
L 488.318913 457.352742 
L 498.179232 448.61932 
L 501.27819 444.393465 
L 504.940593 441.576233 
L 511.1385 439.322446 
L 517.899869 437.632104 
L 521.507364 436.434998 
L 524.888048 433.054321 
L 523.761151 437.280169 
L 526.014938 439.815682 
L 521.78909 442.91464 
L 516.154627 444.886701 
L 511.365327 448.83083 
L 509.393258 453.338403 
L 508.266369 461.50838 
L 516.99979 471.08698 
L 519.81703 473.904212 
L 520.943919 478.693512 
L 527.423561 490.525891 
L 531.085964 497.850697 
L 534.46664 504.893784 
L 539.866194 511.960271 
L 544.655494 519.848529 
L 548.599615 523.79265 
L 551.416855 529.145395 
L 562.404063 542.386398 
L 568.320253 546.048801 
L 573.934753 549.865992 
L 582.961772 552.136909 
L 589.723141 552.418635 
L 597.047946 553.545525 
L 605.781368 553.827251 
L 615.923413 552.136909 
L 626.628902 548.19278 
L 634.517153 544.530377 
L 642.405411 540.30453 
L 652.547448 533.543169 
L 660.153979 526.218355 
L 667.197067 519.175276 
L 672.268085 513.822531 
L 679.311172 506.216 
L 685.227362 500.018084 
L 691.143551 493.538449 
L 696.214578 486.777089 
L 700.252317 481.127308 
L 703.633001 476.05629 
L 708.140575 470.1401 
L 715.183654 463.097013 
L 725.325699 448.447394 
L 730.678444 437.741913 
L 735.749462 428.163312 
L 739.97531 419.148165 
L 743.355994 410.696462 
L 747.300123 401.681314 
L 750.117355 394.074782 
L 753.498039 385.904806 
L 758.019077 372.649629 
L 763.375145 355.46337 
L 765.91065 345.884777 
L 768.72789 337.433074 
L 771.263395 328.98138 
L 773.798908 319.684506 
L 775.770969 309.260742 
L 776.897866 298.836971 
L 777.461311 290.385276 
L 777.179584 281.088402 
L 776.749887 271.109179 
L 774.495561 251.953873 
L 772.241775 242.657007 
L 769.987988 232.796688 
L 766.88903 223.499814 
L 762.663182 212.794324 
L 759.282498 204.906074 
L 754.493206 196.454371 
L 748.29529 187.157497 
L 742.942545 180.959581 
L 735.899458 175.043392 
L 729.138097 171.099263 
L 721.531565 166.873415 
L 713.643315 164.619628 
L 706.318502 164.337902 
L 699.557141 165.746518 
L 693.077507 169.690647 
L 689.133378 172.22616 
L 684.344077 172.789605 
L 678.427888 174.761665 
L 673.638588 177.860623 
L 666.877227 182.086479 
L 658.988977 188.84784 
L 653.636232 194.482303 
L 649.973829 199.553329 
L 647.720042 205.187793 
L 648.283487 210.258819 
L 653.072787 218.710514 
L 656.73519 224.626704 
L 663.214824 230.82462 
L 675.32893 240.40322 
L 681.808572 247.446299 
L 688.288207 255.898002 
L 696.739909 271.956237 
L 699.838867 288.577916 
L 699.838867 299.001679 
L 698.891987 310.340823 
L 699.173714 301.889128 
L 698.891987 295.409486 
L 698.328543 286.957783 
L 696.638201 277.942635 
L 694.384414 270.61783 
L 689.87684 262.166127 
L 685.369266 254.841322 
L 679.17135 248.361679 
L 673.818605 243.854105 
L 668.46586 239.628258 
L 661.422781 234.275513 
L 656.493063 231.64639 
L 650.576865 228.829159 
L 640.434828 222.349516 
L 636.772425 218.687114 
L 627.193825 211.644026 
L 623.531422 208.545068 
L 622.686251 204.882666 
L 622.686251 200.938537 
L 623.813149 198.966476 
L 629.729338 197.55786 
L 642.12517 195.022347 
L 646.351018 193.613731 
L 652.548934 189.106158 
L 657.338226 186.288926 
L 666.6351 179.527565 
L 671.142674 177.555497 
L 676.205601 174.409738 
L 682.12179 171.874225 
L 687.474535 168.775267 
L 693.390725 166.52148 
L 697.334854 162.295632 
L 700.433812 156.661161 
L 701.842428 151.026698 
L 700.997257 145.1105 
L 698.74347 137.503977 
L 696.771409 130.179163 
L 693.672451 122.854358 
L 690.291767 116.938168 
L 685.502475 110.740252 
L 680.713175 105.105781 
L 675.078703 100.598207 
L 667.355162 93.868346 
L 658.903459 87.67043 
L 649.888311 82.317685 
L 638.33765 76.683222 
L 626.505271 71.612203 
L 615.236337 66.541177 
L 606.221181 63.723945 
L 593.261912 61.188432 
L 580.020909 59.779816 
L 568.18853 61.188432 
L 561.990614 63.723945 
L 555.51098 67.386348 
L 550.439953 71.612203 
L 546.495832 77.810111 
L 542.833421 84.571472 
L 539.734463 91.614559 
L 536.917232 98.657646 
L 536.353787 104.573836 
L 533.536555 112.462094 
L 529.874145 118.096557 
L 525.930024 121.195515 
L 526.211742 114.434154 
L 527.056913 107.672794 
L 529.592426 101.474878 
L 532.409658 94.995244 
L 533.536555 91.051114 
L 534.945171 83.444583 
L 535.790342 74.99288 
L 536.353787 67.386348 
L 535.508616 60.343261 
L 532.691384 52.455011 
L 528.747255 45.975368 
L 523.39451 40.340905 
L 517.016658 35.692701 
L 510.396524 31.897302 
L 501.663095 27.953173 
L 492.084503 25.699386 
L 483.6328 24.572488 
L 473.209036 23.445599 
L 454.897015 22.318701 
L 447.572209 22.882154 
L 439.120506 24.29077 
L 431.513975 25.699386 
L 424.470896 28.516617 
L 418.27298 32.460746 
L 412.920235 37.531765 
L 405.313703 49.364144 
L 402.77819 55.843786 
L 400.806129 62.041702 
L 399.397513 68.521337 
L 399.679232 76.409595 
L 400.242685 84.016127 
L 400.612632 93.033781 
L 401.447883 101.780005 
L 403.983388 109.949981 
L 407.364072 118.401684 
L 411.589919 123.190984 
L 418.35128 125.163045 
L 426.802983 125.444771 
L 433.84607 125.163045 
L 441.73432 125.444771 
L 436.381584 126.289942 
L 428.493325 126.57166 
L 420.041622 127.416831 
L 413.843706 128.825447 
L 408.772688 131.642687 
L 405.392012 135.023363 
L 402.293054 139.249219 
L 399.194096 144.883682 
L 398.630643 151.081598 
L 398.630643 158.124685 
L 398.348925 165.44949 
L 398.912369 179.817383 
L 400.602711 185.733573 
L 403.808383 190.988209 
L 407.465781 195.844118 
L 411.691628 196.407563 
L 417.607826 196.689289 
L 413.945415 198.379623 
L 405.493721 198.943076 
L 402.113036 201.196863 
L 398.168907 202.042034 
L 395.351675 202.323752 
L 390.562375 202.042034 
L 387.181699 201.196863 
L 381.265509 200.351692 
L 385.773083 199.506521 
L 390.562375 198.379623 
L 394.224778 195.280665 
L 396.478565 191.899989 
L 397.605462 188.237586 
L 397.887189 184.011731 
L 397.887189 180.631054 
L 398.168907 176.405199 
L 398.168907 162.319033 
L 397.605462 148.514585 
L 394.788231 141.753224 
L 391.125828 136.682206 
L 386.618254 133.583248 
L 382.110672 131.611187 
L 377.039654 130.202571 
L 365.207275 129.639119 
L 361.544872 128.230503 
L 366.052446 127.103613 
L 370.278293 127.667058 
L 377.039654 125.976716 
L 382.110672 123.722929 
L 386.054801 119.7788 
L 388.590315 114.989508 
L 390.562375 109.918481 
L 392.31192 103.794334 
L 393.434515 97.867375 
L 394.279686 91.106015 
L 393.99796 84.62638 
L 393.99796 77.86502 
L 393.716233 69.976761 
L 392.025899 58.4261 
L 390.053831 52.791637 
L 386.954873 46.875448 
L 382.165581 40.95925 
L 375.685938 33.916171 
L 369.488022 29.690315 
L 364.075486 27.061642 
L 356.716862 25.362759 
L 343.757586 23.672417 
L 336.714499 23.954143 
L 329.953138 25.081033 
L 315.303519 27.33482 
L 307.978714 29.306888 
L 301.499079 31.842393 
L 293.047376 34.941351 
L 287.694632 38.322036 
L 281.496716 42.547883 
L 275.862252 46.773739 
L 270.791226 53.253373 
L 266.283652 60.014734 
L 263.184694 67.057821 
L 259.522291 73.537455 
L 257.550231 83.961218 
L 258.395402 91.56775 
L 259.804018 98.329111 
L 261.776078 104.245309 
L 266.565378 116.641133 
L 269.100892 121.148706 
L 270.791226 124.811109 
L 268.90345 127.695153 
L 268.90345 127.695153 
" style="fill:none;stroke:#000000;stroke-linecap:square;stroke-width:1.5;"/>
   </g>
  </g>
 </g>
 <defs>
  <clipPath id="p77dfc189de">
   <rect height="660.96" width="816.48" x="0" y="0"/>
  </clipPath>
 </defs>
</svg>
