<?xml version="1.0" encoding="utf-8" standalone="no"?>
<!DOCTYPE svg PUBLIC "-//W3C//DTD SVG 1.1//EN"
  "http://www.w3.org/Graphics/SVG/1.1/DTD/svg11.dtd">
<!-- Created with matplotlib (https://matplotlib.org/) -->
<svg height="570.24pt" version="1.1" viewBox="0 0 829.44 570.24" width="829.44pt" xmlns="http://www.w3.org/2000/svg" xmlns:xlink="http://www.w3.org/1999/xlink">
 <defs>
  <style type="text/css">
*{stroke-linecap:butt;stroke-linejoin:round;}
  </style>
 </defs>
 <g id="figure_1">
  <g><image xlink:href="../../img/ctx/mountbeaver_cor_cell.json.ctx-50%25.png" width="829.4399999999999px" height="570.24px"/></g>

  <g id="patch_1">
   <path d="M 0 570.24 
L 829.44 570.24 
L 829.44 0 
L 0 0 
z
" style="fill:none;"/>
  </g>
  <g id="axes_1">
   <g id="line2d_1">
    <path clip-path="url(#p9e87747bc9)" d="M 404.608687 201.765311 
L 411.275103 200.28389 
L 413.867593 196.580324 
L 414.978661 191.395337 
L 414.978661 174.7293 
L 413.867593 166.951815 
L 412.756525 141.026871 
L 412.756525 134.730816 
L 412.01581 128.434753 
L 410.164027 121.768345 
L 405.719755 114.361213 
L 400.534768 107.694796 
L 394.609066 101.028388 
L 387.572296 95.47304 
L 379.794811 91.769474 
L 369.795191 89.176984 
L 362.017706 88.065916 
L 353.499506 87.325202 
L 348.684881 87.325202 
L 342.388818 87.695555 
L 331.648482 88.065916 
L 326.463495 88.806623 
L 310.167819 91.399121 
L 297.5757 95.102686 
L 283.872514 98.065537 
L 266.836123 102.509809 
L 253.503298 106.213375 
L 241.281533 110.657647 
L 228.689423 115.842643 
L 216.467658 120.286915 
L 206.468037 126.212617 
L 198.69056 129.916183 
L 189.986525 133.323564 
L 181.468334 137.027129 
L 169.987283 142.952831 
L 158.876594 150.359954 
L 150.728756 157.026371 
L 145.173408 163.322426 
L 138.506991 169.248128 
L 128.137017 179.988463 
L 121.840962 188.877016 
L 112.952409 197.765569 
L 104.804571 207.76519 
L 99.249223 215.542674 
L 91.471738 227.394078 
L 86.286751 239.245482 
L 82.212832 250.726524 
L 79.620334 258.874362 
L 78.138913 271.096127 
L 77.027845 281.836454 
L 75.916769 295.799388 
L 74.435347 309.872928 
L 74.805701 321.353979 
L 74.435347 328.761102 
L 73.324279 342.83465 
L 72.953926 350.982488 
L 71.102143 361.352462 
L 71.472496 370.241015 
L 75.916769 380.240635 
L 80.361049 389.869903 
L 89.619955 399.869524 
L 91.101385 406.906294 
L 91.471738 413.202349 
L 90.731023 419.498412 
L 94.434589 426.905535 
L 102.156128 435.495581 
L 111.063667 442.942517 
L 121.063287 448.868219 
L 131.43327 450.720002 
L 140.321823 451.460717 
L 146.988231 455.534636 
L 161.802485 459.238193 
L 176.987102 459.978908 
L 188.09779 457.756772 
L 194.764199 455.164274 
L 201.800977 449.238572 
L 209.2081 445.905368 
L 217.355938 444.053585 
L 226.244491 442.201802 
L 235.133044 440.720381 
L 242.540175 437.387177 
L 248.095515 434.424326 
L 254.761932 432.572543 
L 261.798702 429.980045 
L 266.613336 427.757909 
L 276.612956 428.868977 
L 288.093999 429.239331 
L 295.871483 428.128263 
L 306.686784 427.016929 
L 315.204975 427.016929 
L 327.42674 426.276223 
L 339.648497 427.016929 
L 345.944552 428.128005 
L 356.314535 429.239073 
L 365.573441 431.46121 
L 375.202708 431.46121 
L 388.16518 429.609427 
L 396.683371 428.868712 
L 404.460856 427.387291 
L 414.830838 428.498359 
L 424.830459 430.720495 
L 436.311501 432.201924 
L 445.570415 430.720495 
L 478.161767 426.646576 
L 505.56814 426.276223 
L 533.344867 426.646576 
L 548.159121 426.646576 
L 558.529095 425.535508 
L 564.084444 426.646576 
L 577.046915 430.720495 
L 591.120455 435.535129 
L 603.836044 441.487173 
L 609.454015 442.609115 
L 613.898288 445.942328 
L 623.527555 453.349451 
L 632.786461 460.756583 
L 640.563946 462.978719 
L 650.193214 462.978719 
L 660.933541 461.497289 
L 670.93317 459.275153 
L 685.377063 455.941949 
L 699.08025 452.238383 
L 708.339156 446.312681 
L 715.005572 439.646265 
L 719.820206 433.350209 
L 723.894125 424.83201 
L 725.375546 417.424887 
L 724.63484 409.647402 
L 725.005193 403.7217 
L 723.894125 399.277428 
L 725.375546 396.314577 
L 730.560542 390.018514 
L 736.486243 383.352105 
L 741.560616 372.833512 
L 745.264182 362.833891 
L 747.85668 354.315692 
L 748.597386 345.797501 
L 748.597386 338.020016 
L 748.227033 331.353599 
L 748.227033 314.317209 
L 747.85668 306.539724 
L 748.227033 298.391886 
L 746.745612 288.762618 
L 746.37525 280.985134 
L 747.115965 275.059432 
L 744.523467 266.541241 
L 743.412399 258.393403 
L 741.190263 249.134488 
L 737.486697 240.616297 
L 734.523846 232.468459 
L 731.50456 224.693936 
L 728.523711 219.46824 
L 724.07943 212.061117 
L 717.783375 203.542917 
L 712.968741 194.654364 
L 705.931971 186.87688 
L 697.784133 178.358688 
L 689.636295 170.581204 
L 674.822041 154.28552 
L 668.525977 148.359818 
L 658.896718 140.952695 
L 644.83095 130.616429 
L 634.823292 126.138175 
L 620.009038 119.842119 
L 604.82443 113.546064 
L 592.973026 109.101784 
L 580.010554 105.027865 
L 568.159151 102.435376 
L 541.307656 98.954075 
L 532.04875 97.102292 
L 519.826993 94.509803 
L 506.49416 91.546952 
L 494.642757 89.695169 
L 486.124565 88.954454 
L 476.124944 88.584101 
L 466.86603 87.843386 
L 460.199622 88.584101 
L 453.533205 90.065522 
L 448.348218 91.546952 
L 442.79287 93.769088 
L 436.496814 97.843007 
L 431.682181 101.176211 
L 426.497194 106.361198 
L 422.052913 111.916547 
L 418.719709 117.842248 
L 416.127211 123.027235 
L 414.64579 128.952937 
L 414.275428 133.767571 
L 414.275428 138.952558 
L 414.64579 145.989328 
L 414.64579 153.396459 
L 415.386505 161.173944 
L 415.386505 168.581067 
L 416.127211 175.988199 
L 416.127211 195.617079 
L 417.238279 199.690998 
L 420.23804 201.318251 
L 425.42282 202.432106 
L 416.904621 202.061753 
L 412.830702 201.6914 
L 404.608687 201.765311 
L 404.608687 201.765311 
" style="fill:none;stroke:#000000;stroke-linecap:square;stroke-width:1.5;"/>
   </g>
  </g>
 </g>
 <defs>
  <clipPath id="p9e87747bc9">
   <rect height="570.24" width="829.44" x="0" y="0"/>
  </clipPath>
 </defs>
</svg>
