<?xml version="1.0" encoding="utf-8" standalone="no"?>
<!DOCTYPE svg PUBLIC "-//W3C//DTD SVG 1.1//EN"
  "http://www.w3.org/Graphics/SVG/1.1/DTD/svg11.dtd">
<!-- Created with matplotlib (https://matplotlib.org/) -->
<svg height="483.84pt" version="1.1" viewBox="0 0 725.76 483.84" width="725.76pt" xmlns="http://www.w3.org/2000/svg" xmlns:xlink="http://www.w3.org/1999/xlink">
 <defs>
  <style type="text/css">
*{stroke-linecap:butt;stroke-linejoin:round;}
  </style>
 </defs>
 <g id="figure_1">
  <g><image xlink:href="../../img/ctx/northamerporcupine_cor_cell.json.ctx-50%25.png" width="725.76px" height="483.84px"/></g>

  <g id="patch_1">
   <path d="M 0 483.84 
L 725.76 483.84 
L 725.76 0 
L 0 0 
z
" style="fill:none;"/>
  </g>
  <g id="axes_1">
   <g id="line2d_1">
    <path clip-path="url(#pe5792cf7e4)" d="M 348.14713 133.825543 
L 352.624917 132.706094 
L 355.610113 128.974606 
L 357.84901 125.98941 
L 357.84901 120.765325 
L 356.356412 115.541232 
L 353.744365 108.824548 
L 355.236963 103.973611 
L 357.102711 99.495817 
L 357.84901 93.525433 
L 359.71475 88.674496 
L 360.834199 80.838364 
L 361.953647 76.36057 
L 362.699946 68.524438 
L 361.953647 60.315156 
L 358.968458 49.866977 
L 356.356412 41.657695 
L 352.251767 37.926207 
L 348.14713 34.941011 
L 345.535084 30.836367 
L 340.684147 26.35858 
L 335.460054 23.000234 
L 329.11652 21.134494 
L 308.220169 21.134494 
L 303.369226 21.880793 
L 298.891439 23.000234 
L 295.533094 25.239131 
L 291.801606 25.612281 
L 286.577513 26.35858 
L 275.383042 27.104879 
L 270.905248 27.851178 
L 267.546903 29.343776 
L 253.740385 31.955815 
L 248.14315 33.448413 
L 244.784805 35.68731 
L 241.426466 37.553058 
L 238.81442 40.165097 
L 237.694971 41.657695 
L 237.694971 45.76234 
L 236.575523 49.866977 
L 236.202373 46.135489 
L 235.456074 42.403994 
L 233.217184 39.045648 
L 227.993091 37.553058 
L 223.142155 35.68731 
L 215.306023 35.314161 
L 207.096741 36.06046 
L 200.0069 37.926207 
L 189.185579 41.284546 
L 185.454084 43.150293 
L 181.349447 46.508639 
L 176.871653 48.374379 
L 164.545795 51.514452 
L 155.56982 53.379771 
L 135.046619 55.618661 
L 129.822534 57.111259 
L 123.478992 60.096455 
L 115.26971 64.201092 
L 107.433578 68.678887 
L 101.836343 72.410374 
L 98.104848 75.76872 
L 93.253911 78.753916 
L 89.895566 80.992806 
L 77.954796 91.814134 
L 74.223301 95.545629 
L 70.491813 100.396565 
L 64.521421 107.113249 
L 60.416784 113.456791 
L 56.312139 121.292923 
L 49.968605 136.218889 
L 47.356559 143.681872 
L 44.37137 150.025406 
L 41.759323 155.995791 
L 38.027828 168.682867 
L 38.027828 178.384746 
L 40.864962 193.079238 
L 43.477008 197.930182 
L 47.954795 200.542228 
L 53.92518 201.28852 
L 64.746508 200.169079 
L 57.656675 201.661669 
L 51.313141 202.034819 
L 47.581646 203.154267 
L 43.850158 205.393164 
L 40.864962 208.75151 
L 37.133467 215.841343 
L 35.267727 224.050625 
L 33.775129 233.752505 
L 33.775129 243.454378 
L 34.521428 254.275706 
L 36.014026 263.977586 
L 37.879766 272.186868 
L 40.864962 281.142448 
L 44.596457 290.098029 
L 48.327945 296.814713 
L 50.193692 303.904546 
L 53.552031 311.740679 
L 56.910376 316.591622 
L 58.776124 318.830512 
L 61.38817 324.054605 
L 65.492807 328.905541 
L 70.343744 332.637036 
L 77.433584 338.234272 
L 82.65767 340.473169 
L 83.506933 345.086252 
L 81.641185 360.012217 
L 81.268036 368.221499 
L 82.760634 376.057632 
L 85.37268 384.266913 
L 89.477317 391.356747 
L 99.179197 400.685477 
L 106.269031 407.029019 
L 117.836658 414.865151 
L 128.284837 421.208685 
L 140.598756 423.820732 
L 152.539533 425.686472 
L 164.48031 424.940173 
L 174.182182 424.193874 
L 179.779425 422.328134 
L 182.391464 420.835536 
L 183.884062 414.118852 
L 184.257212 420.835536 
L 189.854454 421.208685 
L 196.944288 420.089237 
L 205.899868 417.47719 
L 214.10915 414.118852 
L 221.945282 408.14846 
L 227.169368 405.90957 
L 232.020312 402.551225 
L 237.617547 398.81973 
L 242.095334 393.968793 
L 250.677765 385.386362 
L 253.289812 382.401166 
L 254.78241 379.415977 
L 257.767599 377.923379 
L 261.872243 374.938183 
L 265.230589 370.087247 
L 266.221527 365.512876 
L 264.728929 360.66194 
L 261.370591 357.303594 
L 256.519647 354.691547 
L 251.295561 353.198949 
L 237.862186 344.989668 
L 233.757549 342.750778 
L 229.652904 340.138731 
L 225.921417 338.646133 
L 219.204733 331.5563 
L 224.801968 333.422048 
L 233.3844 337.153535 
L 242.33998 340.88503 
L 254.653899 347.601714 
L 266.221527 353.198949 
L 277.416005 356.557295 
L 287.864176 356.557295 
L 294.207718 356.184145 
L 304.655889 361.408231 
L 315.477218 366.632324 
L 329.283742 373.722158 
L 338.985615 377.453653 
L 347.014908 377.76893 
L 355.970489 375.903183 
L 359.328835 371.798545 
L 360.075134 365.455011 
L 360.448283 359.111469 
L 360.448283 351.275337 
L 361.940881 363.216114 
L 364.55292 370.305947 
L 370.523312 375.156884 
L 377.613146 377.76893 
L 386.195577 375.903183 
L 397.016898 371.798545 
L 407.091928 366.201303 
L 424.62994 357.245729 
L 427.988285 354.633683 
L 434.704969 354.260533 
L 442.167952 355.379982 
L 449.257785 354.260533 
L 456.720768 351.275337 
L 466.422648 347.543849 
L 475.005079 343.439205 
L 483.214361 340.080866 
L 491.796792 335.603072 
L 497.214046 333.898161 
L 493.109402 339.495396 
L 487.139017 342.480592 
L 484.153821 344.346339 
L 479.676034 345.838937 
L 476.317689 348.450977 
L 472.586194 349.197276 
L 468.108407 350.689874 
L 462.138022 352.555621 
L 457.287079 354.421369 
L 453.555591 356.660259 
L 450.197245 358.899156 
L 448.331498 362.257501 
L 447.958348 366.362138 
L 449.450946 371.586224 
L 455.048189 379.049214 
L 460.272275 380.914955 
L 463.257471 385.019599 
L 468.481556 390.616834 
L 484.90012 405.5428 
L 493.482551 410.393744 
L 496.840897 411.886342 
L 503.184431 416.737278 
L 511.766863 419.722474 
L 523.334483 421.961364 
L 530.051174 421.588221 
L 536.021559 420.841922 
L 537.514157 415.24468 
L 538.633605 422.334513 
L 546.096588 424.200261 
L 556.917909 426.439158 
L 567.366088 427.558606 
L 580.426313 425.692859 
L 589.755044 420.095623 
L 593.859681 415.617829 
L 601.322664 409.647445 
L 606.546757 405.91595 
L 615.129181 399.945565 
L 622.96532 393.228881 
L 629.308855 387.631646 
L 634.159791 381.288104 
L 636.771838 374.94457 
L 638.264436 365.988989 
L 637.518137 359.272305 
L 637.518137 352.928771 
L 636.398688 346.585229 
L 634.90609 340.241695 
L 639.010735 337.629656 
L 644.981119 335.017609 
L 649.458906 330.912965 
L 652.309212 324.266919 
L 656.41385 316.057637 
L 659.025896 309.340953 
L 659.772195 302.997419 
L 660.518494 290.310343 
L 662.384242 285.086257 
L 663.651499 278.802671 
L 664.640709 273.205436 
L 661.000609 270.432408 
L 665.725009 271.930936 
L 670.220374 268.294544 
L 673.578712 263.443601 
L 677.310207 258.965814 
L 681.787994 254.11487 
L 685.892639 246.278738 
L 688.131536 238.442606 
L 690.743575 230.979623 
L 692.609323 224.636088 
L 693.355622 216.799956 
L 692.609323 196.276748 
L 691.863024 186.201726 
L 689.997276 177.246145 
L 688.350236 168.734352 
L 684.991891 159.778771 
L 682.752994 151.942639 
L 680.140954 144.852798 
L 676.409459 138.136114 
L 673.051121 131.046281 
L 670.065925 125.075896 
L 665.588131 117.986063 
L 660.364045 112.015671 
L 649.169567 100.074901 
L 643.199183 92.611918 
L 639.094545 87.760975 
L 634.616751 82.910039 
L 629.392665 79.551693 
L 622.302832 73.954458 
L 615.212992 69.476664 
L 606.63056 65.745176 
L 598.048129 62.38683 
L 589.092555 60.521083 
L 583.495313 60.521083 
L 577.898077 61.640531 
L 573.793433 63.506279 
L 569.315646 66.118325 
L 568.196198 62.38683 
L 565.211002 56.789595 
L 561.852663 51.565509 
L 556.62857 47.834014 
L 552.150783 44.102519 
L 546.180399 41.11733 
L 536.851668 35.520088 
L 531.96853 32.065448 
L 523.385968 29.079977 
L 518.161882 26.84108 
L 511.072049 25.348482 
L 504.355358 26.094781 
L 499.504422 25.348482 
L 489.056243 24.229033 
L 481.59326 24.229033 
L 473.757128 24.602183 
L 465.920995 24.229033 
L 458.831162 24.975332 
L 449.875581 24.229033 
L 439.800552 22.363293 
L 430.844971 20.870695 
L 421.143091 19.004947 
L 413.306959 17.885499 
L 406.217125 19.004947 
L 398.380993 21.616994 
L 392.410608 25.721631 
L 387.186515 30.945717 
L 383.455027 37.289258 
L 381.21613 43.632793 
L 378.977233 50.722626 
L 377.857785 59.305057 
L 376.365194 67.14119 
L 376.365194 73.111575 
L 374.126297 78.335668 
L 372.633699 86.918099 
L 371.8874 94.007932 
L 370.767952 99.232018 
L 369.648503 105.20241 
L 368.155912 109.307047 
L 368.155912 115.277432 
L 368.902204 121.247824 
L 371.8874 128.337658 
L 375.618895 132.442295 
L 381.711404 134.243791 
L 376.487311 135.363239 
L 370.890075 134.99009 
L 362.680793 134.61694 
L 348.50112 135.363239 
L 345.88908 135.363239 
L 348.14713 133.825543 
L 348.14713 133.825543 
" style="fill:none;stroke:#000000;stroke-linecap:square;stroke-width:1.5;"/>
   </g>
  </g>
 </g>
 <defs>
  <clipPath id="pe5792cf7e4">
   <rect height="483.84" width="725.76" x="0" y="0"/>
  </clipPath>
 </defs>
</svg>
