<?xml version="1.0" encoding="utf-8" standalone="no"?>
<!DOCTYPE svg PUBLIC "-//W3C//DTD SVG 1.1//EN"
  "http://www.w3.org/Graphics/SVG/1.1/DTD/svg11.dtd">
<!-- Created with matplotlib (https://matplotlib.org/) -->
<svg height="295.92pt" version="1.1" viewBox="0 0 414.72 295.92" width="414.72pt" xmlns="http://www.w3.org/2000/svg" xmlns:xlink="http://www.w3.org/1999/xlink">
 <defs>
  <style type="text/css">
*{stroke-linecap:butt;stroke-linejoin:round;}
  </style>
 </defs>
 <g id="figure_1">
  <g><image xlink:href="../../img/ctx/owlmonkey_cor_cell.json.ctx-50%25.png" width="414.71999999999997px" height="295.92px"/></g>

  <g id="patch_1">
   <path d="M 0 295.92 
L 414.72 295.92 
L 414.72 0 
L 0 0 
z
" style="fill:none;"/>
  </g>
  <g id="axes_1">
   <g id="line2d_1">
    <path clip-path="url(#pc422b835e3)" d="M 172.361887 11.58259 
L 163.8685 13.814614 
L 154.161771 17.042624 
L 135.302533 23.671123 
L 126.000251 27.453357 
L 118.570426 32.007169 
L 110.88593 37.062755 
L 104.414776 42.522793 
L 97.943626 48.387274 
L 83.233752 61.232251 
L 78.073271 66.08562 
L 75.047482 70.841653 
L 74.615336 76.8236 
L 76.621946 81.183244 
L 80.261973 84.119271 
L 84.658444 86.133939 
L 89.863806 87.804174 
L 96.791853 88.0064 
L 105.030573 87.609517 
L 112.610174 86.545951 
L 119.388445 84.980611 
L 124.241809 84.373942 
L 132.832527 84.269047 
L 139.865469 84.523718 
L 144.26194 85.789506 
L 137.386339 85.040625 
L 129.844054 84.98818 
L 122.017351 85.991728 
L 114.53508 87.609517 
L 106.041689 88.418412 
L 97.346077 89.025081 
L 89.406914 89.122411 
L 82.329086 87.354846 
L 72.674807 79.520578 
L 68.368097 78.404562 
L 64.466009 79.270613 
L 59.445206 81.428149 
L 56.699146 83.565047 
L 55.174718 85.719887 
L 52.051632 86.595319 
L 49.190698 87.936619 
L 45.545517 90.057929 
L 39.890822 95.210845 
L 36.894785 100.917986 
L 32.850315 103.951339 
L 29.015632 108.048258 
L 24.716491 115.485648 
L 20.672021 124.083934 
L 17.23422 135.295988 
L 16.118209 145.257389 
L 15.616431 152.889439 
L 17.683549 159.158368 
L 18.087996 168.258428 
L 21.323571 176.751814 
L 23.612618 179.982326 
L 26.783609 182.009626 
L 29.769767 183.604121 
L 33.456984 184.234089 
L 37.80084 183.276467 
L 41.504182 181.086853 
L 47.129125 176.39083 
L 51.173595 172.286346 
L 54.004726 166.826308 
L 58.453644 158.737369 
L 54.566514 166.931203 
L 51.578042 172.893015 
L 47.638468 179.251709 
L 41.713973 183.708191 
L 35.376582 187.87042 
L 31.713497 194.151927 
L 26.822816 201.881304 
L 24.336122 210.022693 
L 23.369887 217.512528 
L 24.029005 226.155695 
L 23.961717 230.532509 
L 25.242343 235.607753 
L 28.642832 243.846473 
L 31.190776 248.34796 
L 34.158035 252.712253 
L 38.418495 256.848144 
L 41.43052 259.183403 
L 45.196397 261.825908 
L 49.819011 264.635876 
L 58.724414 267.931465 
L 68.880472 272.372818 
L 74.408088 272.874592 
L 78.841872 272.125711 
L 80.400161 275.166633 
L 86.572016 277.048143 
L 91.634404 278.791522 
L 97.989042 279.611428 
L 102.494461 279.899969 
L 107.826171 280.046398 
L 112.815427 279.607981 
L 117.415045 278.511652 
L 121.907923 275.810618 
L 128.431522 269.893688 
L 134.648005 263.227877 
L 138.519308 257.920365 
L 143.672225 251.958553 
L 145.297579 248.213632 
L 146.106474 244.371388 
L 150.555391 244.566045 
L 156.966531 241.18069 
L 161.864776 238.05001 
L 165.519932 234.86688 
L 165.722158 231.226854 
L 169.36218 230.417963 
L 175.024439 231.631301 
L 181.293372 231.024632 
L 181.900041 228.800174 
L 184.124499 230.822407 
L 190.797875 234.462433 
L 197.471255 235.877997 
L 205.964641 234.462433 
L 211.204969 235.755866 
L 218.485017 234.340298 
L 224.349498 231.711392 
L 230.618431 228.07137 
L 237.696254 228.07137 
L 245.38075 227.869144 
L 252.256351 225.240238 
L 259.536396 222.813558 
L 269.040903 219.173531 
L 273.894268 216.342404 
L 279.15208 213.106829 
L 285.623234 213.309051 
L 298.969989 211.084592 
L 291.68994 214.117945 
L 286.432128 215.533509 
L 281.780986 216.342404 
L 277.938742 217.555746 
L 274.493372 220.74644 
L 267.220892 223.218005 
L 259.536396 226.049133 
L 254.076362 227.067818 
L 250.488786 228.93271 
L 249.477669 233.733629 
L 251.402576 237.718085 
L 256.607938 241.155885 
L 262.015526 245.14791 
L 266.262221 248.136382 
L 271.265362 248.091501 
L 269.40047 250.727971 
L 269.767601 254.428012 
L 273.690931 259.932151 
L 282.006365 270.407796 
L 289.084188 276.519383 
L 294.331139 279.851575 
L 299.1878 281.88209 
L 304.317219 283.166806 
L 308.138084 283.552325 
L 317.133249 283.507444 
L 325.019967 282.698549 
L 334.524474 280.069644 
L 341.856968 277.792735 
L 350.552581 273.650935 
L 358.341972 269.351794 
L 366.468228 266.011324 
L 375.9803 259.839722 
L 381.399699 254.19124 
L 385.743721 247.270758 
L 389.031746 240.83692 
L 391.608206 232.201322 
L 392.424665 224.419499 
L 393.990005 217.236781 
L 394.184662 209.200287 
L 393.787784 192.969954 
L 393.18111 184.07212 
L 392.248637 178.2559 
L 390.289969 171.788931 
L 386.043273 167.032893 
L 380.396147 164.456436 
L 376.778308 163.931961 
L 369.835642 159.805293 
L 362.046251 154.547482 
L 371.340968 157.985282 
L 375.385442 160.007515 
L 380.950371 163.138199 
L 385.901066 164.658658 
L 390.245088 163.595092 
L 394.394453 158.794177 
L 396.657032 152.746917 
L 397.263705 142.029071 
L 397.263705 131.917891 
L 395.338799 122.211162 
L 391.953444 112.81155 
L 386.148977 103.831518 
L 381.013255 98.980165 
L 378.166994 94.568564 
L 372.909182 89.258303 
L 354.40951 75.147538 
L 347.578789 72.983093 
L 341.774323 73.731974 
L 337.580077 79.147126 
L 334.540341 83.289263 
L 331.851421 86.075513 
L 328.001604 88.547075 
L 321.890017 88.846627 
L 315.683715 89.715685 
L 308.583709 90.419685 
L 304.561422 89.813016 
L 298.899163 88.801895 
L 288.38354 87.693452 
L 279.193718 87.13166 
L 288.638211 86.876989 
L 293.948468 87.281436 
L 299.505832 87.386331 
L 304.763644 88.397448 
L 310.628129 89.206343 
L 316.290388 89.303673 
L 321.735289 88.037885 
L 325.794896 85.768542 
L 333.269597 81.162284 
L 337.82341 77.125379 
L 340.047872 72.826238 
L 339.096766 66.707082 
L 333.66648 59.284825 
L 327.607338 54.019449 
L 316.700401 44.928422 
L 311.18035 40.734176 
L 304.304748 36.135483 
L 295.968702 31.431894 
L 274.982335 22.182058 
L 266.709136 19.433729 
L 257.406854 16.962164 
L 250.785924 14.737706 
L 244.464546 12.970144 
L 238.802287 12.063919 
L 232.391147 11.861697 
L 225.912429 13.322142 
L 220.707066 16.804824 
L 217.471487 21.860414 
L 215.044807 26.916 
L 214.438134 34.39827 
L 213.629239 42.082766 
L 213.988806 48.748578 
L 216.011043 52.448614 
L 217.875935 55.227296 
L 215.396805 58.170887 
L 213.164782 63.31624 
L 211.809228 70.596288 
L 211.404781 79.089675 
L 212.011454 85.560829 
L 213.02257 93.851994 
L 213.224792 100.52537 
L 214.745255 112.90589 
L 218.280382 115.287689 
L 213.629239 115.085468 
L 209.989217 115.287689 
L 205.944747 116.501031 
L 200.447393 116.24636 
L 207.015878 115.160097 
L 209.470771 111.097081 
L 210.393664 106.389855 
L 209.337667 86.781736 
L 209.075427 77.524335 
L 208.307776 61.627458 
L 207.715316 51.891189 
L 207.809639 48.276552 
L 207.457638 38.292968 
L 207.022982 34.375249 
L 205.779838 29.799577 
L 204.640299 26.433071 
L 202.903825 21.763083 
L 200.119039 17.962552 
L 196.889568 14.842601 
L 191.276184 12.418255 
L 185.332977 11.240094 
L 179.116494 11.187644 
L 172.361887 11.58259 
L 172.361887 11.58259 
" style="fill:none;stroke:#000000;stroke-linecap:square;stroke-width:1.5;"/>
   </g>
  </g>
 </g>
 <defs>
  <clipPath id="pc422b835e3">
   <rect height="295.92" width="414.72" x="0" y="0"/>
  </clipPath>
 </defs>
</svg>
