<?xml version="1.0" encoding="utf-8" standalone="no"?>
<!DOCTYPE svg PUBLIC "-//W3C//DTD SVG 1.1//EN"
  "http://www.w3.org/Graphics/SVG/1.1/DTD/svg11.dtd">
<!-- Created with matplotlib (https://matplotlib.org/) -->
<svg height="622.08pt" version="1.1" viewBox="0 0 829.44 622.08" width="829.44pt" xmlns="http://www.w3.org/2000/svg" xmlns:xlink="http://www.w3.org/1999/xlink">
 <defs>
  <style type="text/css">
*{stroke-linecap:butt;stroke-linejoin:round;}
  </style>
 </defs>
 <g id="figure_1">
  <g><image xlink:href="../../img/ctx/peccary_cor_cell.json.ctx-50%25.png" width="829.4399999999999px" height="622.0799999999999px"/></g>

  <g id="patch_1">
   <path d="M 0 622.08 
L 829.44 622.08 
L 829.44 0 
L 0 0 
z
" style="fill:none;"/>
  </g>
  <g id="axes_1">
   <g id="line2d_1">
    <path clip-path="url(#p2aff446afb)" d="M 410.555174 53.76027 
L 404.470212 47.860471 
L 398.098097 43.25839 
L 390.663967 40.426342 
L 382.875833 37.948298 
L 373.317665 38.656308 
L 365.52953 40.072337 
L 357.033385 42.55038 
L 344.643169 53.524568 
L 340.041088 60.250687 
L 338.271063 67.330804 
L 335.793019 74.764934 
L 336.501029 82.907073 
L 342.165126 81.491053 
L 350.661279 76.888972 
L 361.635467 71.224875 
L 353.493327 77.596982 
L 346.413202 81.845058 
L 341.811121 87.86316 
L 340.041088 93.88127 
L 337.209039 99.899371 
L 333.314976 104.501452 
L 330.482928 110.165549 
L 327.296866 117.245674 
L 328.35889 112.997597 
L 330.482928 105.209462 
L 331.898948 97.067323 
L 330.836933 89.279188 
L 325.172836 83.969097 
L 317.384702 82.199063 
L 308.180539 83.261087 
L 301.454419 86.093135 
L 294.374303 89.987198 
L 289.418216 95.29729 
L 288.356193 102.731419 
L 289.064203 109.811544 
L 290.480231 116.18365 
L 291.188241 123.971785 
L 291.896259 130.3439 
L 292.604269 137.77803 
L 292.250264 144.150136 
L 294.374303 149.106222 
L 296.852338 155.832342 
L 302.656958 174.921655 
L 305.843019 186.603853 
L 305.135001 191.205934 
L 300.53292 188.373886 
L 298.40889 174.921655 
L 295.222828 165.363487 
L 292.744785 157.221347 
L 290.266742 146.955169 
L 287.434693 137.751006 
L 289.558732 128.900857 
L 290.620755 120.050699 
L 289.558732 112.970574 
L 287.080688 105.182439 
L 281.062587 100.226353 
L 273.274452 97.394305 
L 265.840322 96.33229 
L 246.369982 103.766419 
L 237.873837 110.846536 
L 232.563745 117.218651 
L 230.085702 124.65278 
L 229.023679 134.210948 
L 230.439707 141.291065 
L 230.793712 150.849233 
L 227.961664 157.221347 
L 224.067601 163.593454 
L 225.483621 173.151622 
L 227.253654 180.939756 
L 231.501722 188.727891 
L 236.457809 194.391988 
L 241.7679 200.056084 
L 247.78601 203.242146 
L 252.742096 206.428199 
L 258.760198 208.198232 
L 248.848025 206.782204 
L 240.35188 202.888141 
L 232.563745 201.118107 
L 228.315669 196.870031 
L 226.191631 189.789906 
L 223.005577 181.293761 
L 213.447409 169.611555 
L 205.30527 169.25755 
L 198.225145 172.089598 
L 193.269059 176.337675 
L 192.561049 182.001771 
L 193.623072 187.665876 
L 190.083005 191.913944 
L 185.126919 196.516026 
L 183.002881 202.180122 
L 183.710899 212.4463 
L 187.604962 219.88043 
L 191.499034 228.730588 
L 186.188942 224.128506 
L 180.170832 220.942453 
L 173.444721 219.88043 
L 166.010591 224.128506 
L 158.930467 231.916641 
L 155.744413 239.704776 
L 156.098418 250.324959 
L 161.762515 262.36117 
L 168.488634 275.105391 
L 176.984779 282.893526 
L 184.418909 289.973651 
L 194.331082 292.097681 
L 202.827227 289.265632 
L 225.129616 286.079579 
L 232.91775 285.725574 
L 238.581847 282.185516 
L 244.953962 277.229429 
L 248.848025 271.919338 
L 249.20203 259.883127 
L 250.264053 266.963252 
L 248.49402 276.521411 
L 246.369982 283.247531 
L 242.475918 291.389671 
L 238.227842 293.513709 
L 233.979765 289.973651 
L 226.545636 289.973651 
L 216.987476 291.389671 
L 207.783313 292.097681 
L 199.995178 293.159704 
L 195.039092 298.469795 
L 196.101115 306.96594 
L 200.85768 317.402858 
L 208.291809 325.899003 
L 216.433957 334.749161 
L 223.160069 338.997229 
L 230.948204 338.997229 
L 236.258295 343.953316 
L 235.550285 353.157479 
L 239.444357 363.423656 
L 248.294506 374.043839 
L 258.560684 382.539984 
L 269.534872 386.080051 
L 282.279093 390.328127 
L 293.607295 394.576195 
L 299.625396 400.240292 
L 305.854076 403.829179 
L 315.412244 402.767156 
L 322.846365 402.767156 
L 343.378721 407.369237 
L 366.035115 409.493276 
L 374.885273 409.847281 
L 382.319403 413.741352 
L 396.125639 420.467463 
L 396.718763 426.500188 
L 404.860911 423.314135 
L 416.897114 416.23401 
L 420.791186 420.836091 
L 426.455282 418.712053 
L 430.349354 416.588015 
L 438.845498 417.65003 
L 452.297729 416.23401 
L 463.625931 412.339939 
L 469.644032 409.153885 
L 478.140177 408.445875 
L 488.05235 405.613827 
L 497.964523 404.905809 
L 510.708744 401.365751 
L 521.328927 398.179697 
L 529.117062 398.179697 
L 535.843181 398.887707 
L 546.463364 397.117674 
L 556.035342 391.165322 
L 565.947515 383.377188 
L 573.381645 379.837121 
L 584.001828 374.173025 
L 590.727948 367.80091 
L 593.205991 361.428803 
L 600.640121 353.994674 
L 604.888197 347.268554 
L 606.658222 341.604458 
L 618.340428 339.126414 
L 633.916698 332.04629 
L 645.952909 322.134125 
L 651.97101 309.389904 
L 655.157064 300.185741 
L 654.095049 293.459621 
L 647.722934 290.273568 
L 640.288804 286.73351 
L 632.500669 282.839438 
L 622.588496 283.901461 
L 613.738347 287.44152 
L 608.07425 284.963476 
L 603.472169 278.59137 
L 600.286116 271.511245 
L 599.932111 261.599072 
L 607.36624 263.369106 
L 611.260304 270.095217 
L 619.756448 276.113327 
L 638.518779 273.635283 
L 648.076939 272.57326 
L 654.449054 274.697298 
L 665.069237 265.493135 
L 673.211376 253.102928 
L 675.689419 241.420721 
L 671.087338 232.570563 
L 667.460736 228.59631 
L 660.734616 224.702238 
L 652.946482 222.932213 
L 645.714992 223.664626 
L 641.112919 224.726649 
L 650.317074 218.354534 
L 657.751204 209.150379 
L 664.477323 201.008231 
L 665.185333 192.512087 
L 663.4153 185.431962 
L 660.583252 177.643827 
L 656.335184 171.271721 
L 648.901054 166.669639 
L 639.696891 163.837591 
L 633.678789 167.377649 
L 625.53665 165.253611 
L 618.456525 165.607624 
L 612.438415 168.439673 
L 606.420314 173.395759 
L 601.110222 179.767866 
L 595.800131 188.618024 
L 600.048207 177.643827 
L 606.774319 169.855693 
L 615.270472 163.483586 
L 624.474626 161.005543 
L 633.678789 156.403461 
L 638.280871 146.845293 
L 638.634876 136.579116 
L 634.032794 124.896918 
L 626.95267 114.276726 
L 620.934568 107.19661 
L 614.916458 100.824495 
L 608.829099 95.783756 
L 599.978941 90.473665 
L 591.128791 87.995621 
L 581.570623 86.579601 
L 570.95044 86.579601 
L 560.684262 89.41165 
L 555.374171 95.075746 
L 557.852214 103.217886 
L 564.578326 126.228285 
L 566.348359 137.202473 
L 565.994354 147.822664 
L 561.392272 158.442847 
L 558.206219 169.417035 
L 553.604138 178.267185 
L 543.33796 190.303396 
L 549.710066 182.515261 
L 553.604138 174.373121 
L 552.542123 169.77104 
L 557.852214 162.33691 
L 561.038267 151.008717 
L 564.224321 138.972506 
L 563.516311 128.352323 
L 561.038267 118.44015 
L 557.498201 108.173972 
L 555.020158 99.677828 
L 551.126094 93.659718 
L 543.33796 93.305713 
L 536.257835 94.367736 
L 534.133797 101.447853 
L 533.779792 109.235987 
L 533.779792 118.44015 
L 532.363772 111.006021 
L 530.947743 102.509876 
L 527.76169 96.137761 
L 522.805604 90.473665 
L 516.433489 87.287611 
L 510.061383 85.871583 
L 510.415388 79.145472 
L 509.353373 70.649319 
L 505.105296 61.799169 
L 498.025171 53.657029 
L 490.945047 46.93091 
L 483.156912 40.912808 
L 473.598752 37.726747 
L 460.854531 39.850785 
L 450.942358 44.098861 
L 444.745861 49.952933 
L 437.665736 58.095081 
L 431.647635 68.715264 
L 430.939616 76.503398 
L 433.771673 85.707553 
L 439.081764 94.911716 
L 444.391856 102.699851 
L 452.533995 106.239909 
L 460.676135 110.487985 
L 453.59601 108.717952 
L 446.161881 108.009942 
L 440.143779 111.550009 
L 435.895703 118.98413 
L 432.355645 126.064255 
L 429.169591 135.976428 
L 429.877601 145.180591 
L 437.665736 149.074654 
L 446.515894 150.136677 
L 457.844087 151.198692 
L 462.800173 156.154779 
L 468.110265 165.358942 
L 471.296318 174.917101 
L 474.482371 184.121264 
L 474.482371 193.325427 
L 472.358341 179.873188 
L 469.526293 171.023038 
L 465.632222 161.818875 
L 459.61412 155.092764 
L 451.825985 151.198692 
L 441.913812 150.490682 
L 433.063655 152.614721 
L 427.399558 156.862789 
L 424.921515 164.650923 
L 424.921515 174.209091 
L 425.98353 185.891298 
L 426.691548 197.9275 
L 428.461573 209.963712 
L 428.461573 219.167875 
L 432.355645 226.956009 
L 436.957726 231.558091 
L 441.559807 231.204078 
L 436.603721 235.098149 
L 433.771673 240.408241 
L 427.399558 242.178274 
L 422.797477 241.116251 
L 415.717352 241.470256 
L 413.239309 237.930197 
L 406.513197 232.620106 
L 412.885304 233.682121 
L 422.089467 229.434053 
L 425.27552 219.52188 
L 424.56751 196.511481 
L 423.151482 185.891298 
L 420.673438 175.271115 
L 418.903413 164.650923 
L 414.301332 157.570807 
L 408.28323 155.446769 
L 400.495087 157.570807 
L 389.520899 165.004937 
L 383.502798 173.501081 
L 379.608727 183.059249 
L 378.900717 191.909399 
L 377.130683 197.219491 
L 377.838702 187.661323 
L 381.024755 178.457168 
L 385.626836 168.544995 
L 394.830991 160.04885 
L 403.681149 154.384745 
L 414.655337 150.844687 
L 421.027452 144.472573 
L 425.629525 130.666336 
L 431.29363 118.98413 
L 438.019741 110.13398 
L 440.497784 103.761874 
L 437.311731 93.849701 
L 430.585611 81.81349 
L 423.8595 76.503398 
L 416.42537 80.043457 
L 410.053255 86.415571 
L 404.389159 94.557711 
L 397.663039 102.345846 
L 406.159192 90.309635 
L 413.947327 81.81349 
L 417.84139 71.901317 
L 416.779375 63.405172 
L 410.555174 53.76027 
L 410.555174 53.76027 
" style="fill:none;stroke:#000000;stroke-linecap:square;stroke-width:1.5;"/>
   </g>
  </g>
 </g>
 <defs>
  <clipPath id="p2aff446afb">
   <rect height="622.08" width="829.44" x="0" y="0"/>
  </clipPath>
 </defs>
</svg>
