<?xml version="1.0" encoding="utf-8" standalone="no"?>
<!DOCTYPE svg PUBLIC "-//W3C//DTD SVG 1.1//EN"
  "http://www.w3.org/Graphics/SVG/1.1/DTD/svg11.dtd">
<!-- Created with matplotlib (https://matplotlib.org/) -->
<svg height="486pt" version="1.1" viewBox="0 0 518.4 486" width="518.4pt" xmlns="http://www.w3.org/2000/svg" xmlns:xlink="http://www.w3.org/1999/xlink">
 <defs>
  <style type="text/css">
*{stroke-linecap:butt;stroke-linejoin:round;}
  </style>
 </defs>
 <g id="figure_1">
  <g><image xlink:href="../../img/ctx/pig_cor_cell.json.ctx-50%25.png" width="518.4px" height="486.0px"/></g>

  <g id="patch_1">
   <path d="M 0 486 
L 518.4 486 
L 518.4 0 
L 0 0 
z
" style="fill:none;"/>
  </g>
  <g id="axes_1">
   <g id="line2d_1">
    <path clip-path="url(#p00a0f1f4eb)" d="M 219.089267 35.669036 
L 215.422976 34.693013 
L 210.205985 34.530629 
L 206.853005 34.800363 
L 204.520562 33.626773 
L 200.879813 32.557231 
L 196.929185 32.582171 
L 192.501785 33.503331 
L 186.82516 35.206322 
L 184.525631 36.640258 
L 182.466105 38.684822 
L 179.836402 45.565053 
L 179.578374 47.964623 
L 176.804306 46.555964 
L 173.848073 45.289378 
L 171.177945 44.724856 
L 167.604469 44.694877 
L 163.310717 45.658007 
L 159.90077 47.154747 
L 157.09604 49.04274 
L 153.19889 51.829554 
L 147.555266 57.527309 
L 145.08719 58.64218 
L 141.874136 59.011338 
L 138.059531 59.820234 
L 135.12111 61.571814 
L 132.847195 63.631283 
L 130.872164 65.654105 
L 129.062782 68.415487 
L 128.568006 70.81584 
L 128.279055 73.740503 
L 128.533765 77.29358 
L 129.441219 80.443741 
L 131.242597 83.748982 
L 133.538181 86.980444 
L 135.721397 89.545451 
L 139.522658 94.568809 
L 142.389166 97.570869 
L 143.713715 100.762149 
L 144.280694 106.625953 
L 139.172417 109.384432 
L 134.415055 114.980545 
L 132.15142 118.722885 
L 129.469161 123.385405 
L 127.008607 128.387706 
L 126.15857 131.915739 
L 125.900122 135.415028 
L 126.269156 138.426035 
L 127.143473 141.388224 
L 128.203576 143.056124 
L 128.549214 145.173322 
L 128.108066 147.35196 
L 126.98109 148.849706 
L 124.526689 149.399116 
L 123.007455 147.173558 
L 121.237404 144.108285 
L 119.710193 140.06436 
L 119.602164 135.521014 
L 121.334335 130.570341 
L 122.520984 128.359505 
L 123.176293 125.054436 
L 123.844848 122.818426 
L 125.543857 120.662753 
L 128.062742 118.25029 
L 130.050992 115.771618 
L 131.438143 113.435179 
L 132.224924 110.627104 
L 132.179869 107.673318 
L 131.143951 103.625936 
L 129.558455 100.384002 
L 128.478457 97.729074 
L 127.299408 95.298198 
L 125.270479 91.440908 
L 123.743827 87.509124 
L 120.13468 76.788358 
L 114.836497 71.194283 
L 108.240603 69.816059 
L 104.456537 70.57607 
L 101.48301 71.464696 
L 98.624247 72.497706 
L 95.914415 74.249333 
L 90.805453 77.763333 
L 89.200513 79.689459 
L 87.777919 81.790648 
L 87.113082 84.656332 
L 89.023028 90.500406 
L 90.318981 93.009031 
L 91.427419 95.545303 
L 92.69766 97.495975 
L 93.766844 99.547564 
L 95.482981 103.68591 
L 94.022208 103.604718 
L 91.744234 102.269714 
L 89.09689 101.045984 
L 85.885713 100.145067 
L 83.183646 99.192123 
L 80.721713 98.847361 
L 77.488835 99.205327 
L 73.964799 100.145067 
L 71.275583 102.186106 
L 69.12625 104.767557 
L 66.053683 107.516036 
L 63.638846 110.36299 
L 61.531239 113.470388 
L 57.74821 119.555357 
L 56.15189 123.284359 
L 56.064665 126.220877 
L 56.141709 128.339345 
L 55.935832 131.985796 
L 54.277175 131.89138 
L 49.753103 131.504399 
L 46.84123 131.915154 
L 43.813447 133.17189 
L 40.867354 135.727089 
L 38.636393 138.142921 
L 36.299897 140.89041 
L 34.49826 143.954703 
L 32.326263 148.025761 
L 30.190481 153.271637 
L 29.255106 158.235504 
L 29.285836 161.943899 
L 29.720852 165.957149 
L 30.282709 169.337309 
L 31.931335 173.635716 
L 31.310681 181.313935 
L 32.255423 184.63872 
L 30.252336 186.989923 
L 28.552881 189.963056 
L 27.160707 193.39969 
L 26.147365 197.207126 
L 25.891721 200.497291 
L 26.072767 208.585005 
L 27.162392 215.347274 
L 26.977313 220.090743 
L 27.35265 227.019781 
L 28.920095 231.804654 
L 31.121693 234.841421 
L 33.460709 237.047799 
L 35.723426 238.043391 
L 38.083198 238.58908 
L 40.385563 237.947658 
L 43.218998 236.480135 
L 45.854823 234.691629 
L 47.895168 232.101221 
L 49.614851 230.344798 
L 52.004348 228.154424 
L 50.380543 230.664641 
L 47.814655 233.696177 
L 46.342399 235.870917 
L 44.436201 238.913168 
L 37.732278 246.482005 
L 35.866904 249.592768 
L 35.115861 252.012415 
L 34.484875 257.217488 
L 35.073321 264.473372 
L 36.001771 267.998819 
L 37.612367 271.265153 
L 39.757413 275.235579 
L 40.406268 280.182157 
L 43.027159 286.670021 
L 46.135884 293.644352 
L 48.710787 296.795856 
L 52.570073 300.104699 
L 56.663904 302.525995 
L 64.587669 304.672197 
L 68.409588 305.294853 
L 77.654568 306.348983 
L 81.999569 306.693086 
L 86.169506 306.105413 
L 89.582724 304.701834 
L 94.902166 301.663647 
L 98.090414 299.158593 
L 99.931527 296.729418 
L 102.780851 291.261661 
L 104.523924 287.426906 
L 105.09885 283.498248 
L 105.443187 279.560824 
L 105.848467 271.316299 
L 104.862574 268.789908 
L 103.199376 266.423396 
L 100.361063 261.692872 
L 96.008986 256.773131 
L 93.853541 254.098068 
L 94.823421 251.68671 
L 98.658078 251.285727 
L 101.929187 255.205692 
L 105.848467 260.935992 
L 109.254443 267.369497 
L 111.768668 270.937856 
L 113.707909 273.937962 
L 117.011812 275.585826 
L 121.175357 276.073656 
L 116.282454 277.290169 
L 111.912716 279.101189 
L 107.9299 282.50716 
L 105.659246 287.426906 
L 104.448689 290.681934 
L 103.559462 294.139652 
L 103.129013 297.446204 
L 102.83787 301.242634 
L 104.218742 305.140551 
L 107.037444 308.271345 
L 109.525292 309.890251 
L 113.660175 311.308059 
L 117.139484 311.653298 
L 120.409644 311.559758 
L 124.319023 310.352773 
L 127.746699 308.495636 
L 130.609211 307.396903 
L 131.070976 310.517137 
L 131.996237 313.578708 
L 133.853031 316.347027 
L 137.691218 318.489268 
L 144.736513 319.075288 
L 151.882776 318.86771 
L 155.907908 316.855147 
L 158.694728 314.668131 
L 161.081012 312.367291 
L 161.883941 309.127425 
L 162.343927 306.235821 
L 163.309395 297.477484 
L 163.306943 293.781463 
L 163.101818 290.015256 
L 164.823434 287.377357 
L 168.005529 282.039512 
L 170.338106 279.428066 
L 174.671827 275.184372 
L 179.970009 271.021511 
L 186.403514 264.777227 
L 192.837024 257.965275 
L 197.855965 251.801825 
L 205.127194 245.926809 
L 212.696026 240.827023 
L 222.735687 236.456584 
L 228.95066 236.087323 
L 234.984437 236.78413 
L 237.791495 236.644079 
L 240.280842 235.604682 
L 242.814765 234.09818 
L 246.120924 230.657404 
L 248.021767 228.393028 
L 250.004543 225.458422 
L 250.321239 222.30895 
L 249.247658 220.538682 
L 246.003366 213.978434 
L 244.985405 211.274998 
L 245.494152 210.108925 
L 248.599161 206.517984 
L 251.217941 204.134349 
L 253.772373 202.121781 
L 258.519481 197.453744 
L 268.358962 195.750753 
L 274.792471 198.210624 
L 279.01781 204.274872 
L 281.145204 206.255673 
L 282.848128 208.301808 
L 281.827491 213.251372 
L 280.990856 216.565042 
L 280.982468 220.20631 
L 281.099238 223.637879 
L 281.745797 228.05078 
L 283.118183 231.135047 
L 285.312523 234.377556 
L 289.920394 239.266141 
L 291.921543 239.991704 
L 294.754106 239.482303 
L 296.931303 238.514658 
L 302.191249 234.219175 
L 304.121693 231.891932 
L 305.977181 230.576565 
L 309.745006 231.259417 
L 311.879746 231.891932 
L 320.394684 236.054788 
L 326.710636 239.938407 
L 339.764767 252.264783 
L 346.468332 258.90587 
L 356.929084 269.630281 
L 358.578462 271.501046 
L 360.416496 277.080746 
L 362.948901 283.557879 
L 364.38816 288.936129 
L 365.306729 293.121188 
L 366.300849 299.002674 
L 367.11413 302.158797 
L 369.439046 305.542762 
L 371.941342 306.940006 
L 373.917488 308.407565 
L 376.007728 311.769021 
L 378.035787 314.734051 
L 382.133065 315.413813 
L 385.806022 315.585031 
L 389.253901 315.44611 
L 391.955853 315.213644 
L 395.136704 314.670516 
L 397.089698 313.3845 
L 399.019971 311.147335 
L 399.599641 308.953554 
L 399.789707 304.388161 
L 400.628659 303.371335 
L 402.895109 304.434936 
L 408.752475 306.984495 
L 413.572667 308.787013 
L 416.163651 308.89795 
L 419.951822 308.813856 
L 423.10343 307.714692 
L 427.150693 305.668764 
L 429.813429 303.105473 
L 431.908024 300.579212 
L 433.01303 297.633974 
L 432.772959 294.550608 
L 431.719933 291.847126 
L 430.439474 289.91929 
L 427.899091 285.594046 
L 424.816524 281.440018 
L 417.123365 279.827732 
L 414.35514 278.599705 
L 413.546177 277.385187 
L 415.314216 275.137923 
L 418.411215 273.781166 
L 421.011494 272.87097 
L 423.212107 271.614534 
L 425.832111 268.838943 
L 427.728813 265.157292 
L 429.621019 259.535752 
L 430.463782 254.425282 
L 430.666326 248.07412 
L 431.395186 245.607303 
L 432.522514 243.469961 
L 433.710635 245.861584 
L 433.982282 248.731804 
L 434.133494 252.018631 
L 434.153136 255.931374 
L 434.5898 258.460912 
L 434.34271 260.617731 
L 432.486869 266.239317 
L 432.279291 271.825922 
L 432.43548 274.590829 
L 431.810829 277.682583 
L 430.96002 280.507474 
L 430.585482 284.683756 
L 431.867392 289.68374 
L 434.064174 292.964999 
L 436.398441 295.085685 
L 439.587244 297.271529 
L 443.813899 298.492289 
L 447.91296 298.974515 
L 457.211615 298.812136 
L 461.484937 297.885087 
L 466.139956 296.469119 
L 469.876277 294.652407 
L 472.34637 292.942195 
L 474.637937 291.198105 
L 476.734756 288.369388 
L 478.547689 285.269429 
L 479.666583 282.276348 
L 480.566613 278.448296 
L 480.58609 274.121506 
L 480.025461 270.618232 
L 478.605636 267.892785 
L 476.439776 265.329556 
L 472.724787 263.120239 
L 470.06314 261.265238 
L 468.63416 259.574922 
L 473.870539 259.997527 
L 477.553978 259.260057 
L 479.369726 257.358508 
L 481.727798 253.429156 
L 482.642676 250.897513 
L 483.61014 247.572138 
L 484.061599 244.37038 
L 483.917255 241.697463 
L 482.085639 238.751764 
L 479.673203 236.50731 
L 475.393489 235.074737 
L 472.266755 229.587333 
L 469.428442 223.721487 
L 464.508702 216.341876 
L 466.779351 216.341876 
L 469.637819 219.682632 
L 473.403274 224.763865 
L 477.168138 230.154991 
L 481.527094 233.921473 
L 484.526272 234.18664 
L 486.677362 232.702124 
L 488.586173 230.792017 
L 490.075236 228.809329 
L 492.567563 225.022095 
L 494.336924 220.058016 
L 494.454477 215.004684 
L 493.923127 210.559865 
L 493.633378 206.544806 
L 492.898152 201.438203 
L 491.979801 197.085545 
L 490.888605 192.787812 
L 489.430242 188.15369 
L 484.406008 181.114398 
L 482.838921 179.167231 
L 480.361415 176.658527 
L 477.31539 174.876263 
L 474.400961 174.430594 
L 472.279025 172.51266 
L 471.857042 170.914132 
L 475.635396 168.884476 
L 478.199858 167.063296 
L 480.407029 165.150109 
L 482.539934 162.08958 
L 484.269498 158.74661 
L 485.414747 154.212046 
L 485.556887 147.931137 
L 483.534147 140.379231 
L 480.868452 134.31393 
L 475.972366 129.417839 
L 470.863404 126.011868 
L 467.670299 122.393022 
L 462.348467 118.348423 
L 457.239505 115.793945 
L 451.491921 114.942453 
L 448.950175 113.252199 
L 446.38296 107.491878 
L 443.615606 102.595792 
L 438.71952 98.76407 
L 435.584947 97.285567 
L 431.923762 96.819769 
L 426.273187 96.64961 
L 422.022089 96.687826 
L 420.876176 93.860224 
L 420.688225 90.294502 
L 421.694813 88.360285 
L 422.025267 81.967713 
L 419.467606 77.713427 
L 414.355461 73.881704 
L 408.070919 71.117539 
L 403.073169 69.93877 
L 398.806146 70.787085 
L 395.653305 74.176731 
L 393.808397 77.290864 
L 391.46679 84.954309 
L 389.75425 93.253188 
L 388.699436 100.602098 
L 388.060813 107.944638 
L 389.106074 115.182332 
L 390.55368 118.50554 
L 393.693997 121.571721 
L 397.306846 124.833706 
L 402.394895 130.069473 
L 404.877813 133.276571 
L 405.729311 137.959786 
L 401.258966 139.23703 
L 397.001498 135.192432 
L 390.936202 134.013668 
L 384.441967 133.276571 
L 379.758751 129.231977 
L 377.204273 124.123016 
L 378.046217 117.628786 
L 382.738981 112.202107 
L 384.441967 106.667399 
L 385.506335 97.088093 
L 386.681916 91.340509 
L 388.705807 85.380055 
L 391.149073 79.419601 
L 395.085636 71.756156 
L 394.872766 65.369955 
L 391.041043 60.260993 
L 386.144957 56.642147 
L 376.670498 52.27346 
L 366.528758 48.317788 
L 353.057471 42.154017 
L 347.152542 40.847561 
L 341.288287 41.330083 
L 339.322624 39.488275 
L 336.824314 37.600019 
L 332.579582 34.731006 
L 329.035411 33.33792 
L 323.154754 32.192168 
L 318.949322 32.386211 
L 315.126537 33.561035 
L 311.91494 35.159936 
L 308.381287 36.177773 
L 305.954486 36.529284 
L 303.229516 37.480595 
L 299.777973 38.343482 
L 297.009846 39.510742 
L 294.138418 41.215682 
L 291.564132 43.237608 
L 289.563232 45.584364 
L 288.934024 47.956946 
L 289.242332 50.804543 
L 291.25542 54.701039 
L 293.502984 57.61649 
L 294.453486 59.469371 
L 296.054279 62.306076 
L 298.39907 65.384776 
L 300.758262 67.376557 
L 303.295161 68.479406 
L 305.835824 68.872597 
L 311.904836 68.67391 
L 315.003199 68.148947 
L 318.031951 68.473688 
L 320.112161 69.216498 
L 323.943883 76.028446 
L 323.585114 78.71919 
L 323.218097 80.499542 
L 323.092385 82.414651 
L 323.917932 85.716828 
L 324.687347 89.334628 
L 324.664293 91.914259 
L 324.061462 94.859787 
L 321.036483 94.527321 
L 318.634783 92.947103 
L 313.30658 87.202708 
L 310.938637 85.30877 
L 307.339754 81.563159 
L 300.740678 76.879943 
L 296.270338 75.815575 
L 291.577574 77.312061 
L 290.913312 75.762885 
L 290.935769 73.15625 
L 291.894332 70.956109 
L 292.759521 68.682723 
L 293.024579 65.610036 
L 293.077238 63.68179 
L 292.496858 61.400509 
L 291.374247 58.572829 
L 288.606893 53.889614 
L 287.345144 52.77693 
L 285.741069 51.652847 
L 283.260027 51.365508 
L 280.730578 52.186628 
L 277.964053 54.092173 
L 275.19587 56.971502 
L 273.009269 58.971256 
L 269.874037 61.540322 
L 267.712864 63.721106 
L 265.51491 66.98292 
L 264.520811 70.001605 
L 263.373431 72.619286 
L 262.349581 75.685716 
L 261.57197 80.073044 
L 261.956442 83.646178 
L 264.441807 91.728599 
L 266.893808 95.933704 
L 270.234222 99.135923 
L 273.918631 100.721761 
L 281.156324 103.063368 
L 288.394023 106.68222 
L 293.928731 110.726813 
L 297.334707 116.474397 
L 302.230793 123.49922 
L 304.998146 129.246799 
L 308.829869 134.14289 
L 313.72596 139.251851 
L 314.577453 143.083574 
L 311.14607 144.30299 
L 306.256951 141.837345 
L 304.34109 137.15413 
L 301.786607 130.342178 
L 297.742014 123.317355 
L 293.910291 116.292532 
L 289.439952 111.18357 
L 284.543861 107.138977 
L 279.222028 104.584494 
L 274.538813 102.881508 
L 269.544252 102.452579 
L 264.956324 103.40573 
L 261.979282 107.564724 
L 261.760035 112.883373 
L 264.746636 122.040116 
L 267.51399 129.916431 
L 268.155795 136.849145 
L 268.152612 149.926531 
L 269.216976 158.228593 
L 270.707091 164.189053 
L 273.474445 170.362378 
L 273.261574 175.684215 
L 267.301115 178.238699 
L 258.999053 178.025823 
L 254.102967 175.897091 
L 247.929637 176.109962 
L 247.291015 169.723761 
L 249.845498 164.189053 
L 251.335613 158.441469 
L 250.909861 150.565154 
L 250.696991 142.688838 
L 251.548483 134.812522 
L 252.399976 125.658962 
L 252.82254 117.887493 
L 253.038598 111.396446 
L 251.87576 107.145348 
L 249.70695 104.708526 
L 247.078144 103.520131 
L 243.452128 103.14991 
L 240.912927 103.573956 
L 236.837131 105.3803 
L 232.63159 107.837101 
L 229.465934 110.400341 
L 226.419069 114.108108 
L 224.009588 118.091561 
L 222.479317 121.244149 
L 216.417205 134.016555 
L 211.095367 138.912641 
L 207.234132 140.502564 
L 203.857674 141.568783 
L 200.790903 141.783343 
L 197.89722 141.679995 
L 197.19837 140.271596 
L 197.109449 138.946539 
L 199.174459 136.151658 
L 202.898416 133.857562 
L 210.561276 130.060272 
L 213.224105 127.417479 
L 215.595183 124.396347 
L 218.545937 120.078122 
L 220.465919 116.915804 
L 223.442028 112.516341 
L 229.189611 107.407379 
L 236.214434 104.214273 
L 239.502464 103.149034 
L 244.634075 100.592244 
L 248.379706 98.085541 
L 251.328443 95.699341 
L 253.184414 92.853517 
L 255.385774 88.966761 
L 256.011659 84.62992 
L 256.077801 81.352693 
L 255.382591 78.246902 
L 253.922097 75.048421 
L 250.738167 69.130501 
L 249.412582 65.897059 
L 248.310925 62.11248 
L 247.499909 57.680735 
L 246.165812 54.912059 
L 244.738921 53.121469 
L 243.27568 50.611745 
L 240.684774 47.589949 
L 238.705585 46.53246 
L 236.214434 45.886959 
L 233.55893 45.834704 
L 230.892597 46.951327 
L 228.913973 50.04221 
L 227.378591 53.334345 
L 225.728633 56.419644 
L 224.506396 60.349619 
L 223.633421 63.899062 
L 223.346891 67.342654 
L 223.016281 69.090164 
L 221.122618 70.692492 
L 219.197099 71.814875 
L 215.67215 74.451296 
L 213.152249 76.675694 
L 205.770347 85.789581 
L 202.69075 89.346432 
L 198.952034 93.348179 
L 193.420504 99.527875 
L 188.216255 105.170613 
L 185.540249 106.25708 
L 184.270132 104.535179 
L 185.605401 100.259224 
L 187.666559 96.017058 
L 189.867033 92.662606 
L 192.038424 88.674518 
L 194.704119 82.726796 
L 194.704119 79.157207 
L 194.272002 75.368336 
L 195.631164 72.338713 
L 197.76665 70.26362 
L 199.600205 68.877289 
L 203.001438 67.346806 
L 207.689397 66.961427 
L 212.030095 66.939406 
L 215.99783 66.32281 
L 220.063827 64.272424 
L 221.955101 59.726917 
L 223.413319 56.757325 
L 223.992937 51.395311 
L 224.722455 48.552655 
L 225.684802 45.363297 
L 225.57076 42.693858 
L 224.592731 40.470607 
L 222.164789 37.584897 
L 219.089267 35.669036 
L 219.089267 35.669036 
" style="fill:none;stroke:#000000;stroke-linecap:square;stroke-width:1.5;"/>
   </g>
   <g id="line2d_2">
    <path clip-path="url(#p00a0f1f4eb)" d="M 435.932669 200.94507 
L 438.155568 198.983693 
L 440.116945 197.414589 
L 441.686043 195.191695 
L 443.124391 192.83804 
L 443.908937 190.092112 
L 444.301216 187.738462 
L 443.908937 184.992533 
L 443.255147 182.115848 
L 441.94756 179.108403 
L 440.116945 176.623991 
L 437.76329 173.747302 
L 434.886605 170.478339 
L 431.617642 168.778479 
L 428.740952 167.470893 
L 420.895445 166.947858 
L 417.103448 167.340137 
L 413.572967 167.209376 
L 410.565522 165.771033 
L 412.003869 166.294068 
L 413.834485 166.294068 
L 415.665105 166.032551 
L 420.110893 164.855726 
L 424.033647 163.548139 
L 426.256541 163.417383 
L 428.871713 163.155866 
L 431.748398 163.155866 
L 434.102053 164.724964 
L 435.932669 166.817102 
L 440.247701 171.132134 
L 441.555287 173.747302 
L 442.862873 176.100957 
L 443.778181 178.716124 
L 444.82425 182.115848 
L 444.955006 184.992533 
L 445.216523 188.130735 
L 445.347285 190.876663 
L 444.955006 193.884109 
L 443.385908 196.237764 
L 439.724666 198.852932 
L 435.932669 200.94507 
" style="fill:none;stroke:#000000;stroke-linecap:square;stroke-width:1.5;"/>
   </g>
   <g id="line2d_3">
    <path clip-path="url(#p00a0f1f4eb)" d="M 105.256242 165.214127 
L 110.018409 164.737909 
L 105.256242 165.849084 
L 102.081462 166.325296 
L 99.065421 167.277732 
L 96.843071 168.071428 
L 94.779466 169.500076 
L 92.8746 171.722426 
L 91.604686 173.468553 
L 90.176038 176.008376 
L 88.271167 178.548199 
L 87.794949 181.088027 
L 87.159997 182.675415 
L 87.318731 184.897759 
L 84.620169 185.850195 
L 81.286649 186.643891 
L 79.381783 187.755066 
L 76.84196 189.024975 
L 75.095828 190.13615 
L 73.984659 192.041016 
L 73.190962 193.787148 
L 72.714745 195.692014 
L 72.556005 198.390576 
L 72.556005 201.089138 
L 74.937089 205.692572 
L 77.794396 208.549873 
L 84.461429 213.629519 
L 79.381783 210.296 
L 76.048264 207.756177 
L 73.508441 204.898875 
L 70.651139 200.61292 
L 70.968618 198.231837 
L 70.968618 196.326971 
L 71.762309 193.945887 
L 72.714745 191.882276 
L 74.302137 189.97741 
L 76.207003 188.390018 
L 77.476917 186.96137 
L 78.429348 185.532716 
L 80.01674 183.310372 
L 81.921606 181.881718 
L 86.52504 180.294331 
L 87.47747 178.706938 
L 90.334777 174.738467 
L 91.604686 172.516117 
L 93.033339 170.611251 
L 94.779466 168.547646 
L 97.16055 167.118993 
L 100.176591 166.484036 
L 102.081462 165.849084 
L 105.256242 165.214127 
L 105.256242 165.214127 
" style="fill:none;stroke:#000000;stroke-linecap:square;stroke-width:1.5;"/>
   </g>
  </g>
 </g>
 <defs>
  <clipPath id="p00a0f1f4eb">
   <rect height="486" width="518.4" x="0" y="0"/>
  </clipPath>
 </defs>
</svg>
