<?xml version="1.0" encoding="utf-8" standalone="no"?>
<!DOCTYPE svg PUBLIC "-//W3C//DTD SVG 1.1//EN"
  "http://www.w3.org/Graphics/SVG/1.1/DTD/svg11.dtd">
<!-- Created with matplotlib (https://matplotlib.org/) -->
<svg height="612.72pt" version="1.1" viewBox="0 0 828.72 612.72" width="828.72pt" xmlns="http://www.w3.org/2000/svg" xmlns:xlink="http://www.w3.org/1999/xlink">
 <defs>
  <style type="text/css">
*{stroke-linecap:butt;stroke-linejoin:round;}
  </style>
 </defs>
 <g id="figure_1">
  <g><image xlink:href="../../img/ctx/pigmacaque_cor_cell.json.ctx-50%25.png" width="828.7199999999999px" height="612.72px"/></g>

  <g id="patch_1">
   <path d="M 0 612.72 
L 828.72 612.72 
L 828.72 0 
L 0 0 
z
" style="fill:none;"/>
  </g>
  <g id="axes_1">
   <g id="line2d_1">
    <path clip-path="url(#p6ab2e39acf)" d="M 366.237862 205.410525 
L 365.646819 202.01724 
L 370.487223 207.66437 
L 377.747822 214.924977 
L 385.815162 218.958639 
L 394.285857 222.185575 
L 403.159932 222.185575 
L 408.403699 218.958639 
L 413.647467 214.118243 
L 414.454201 208.067741 
L 413.647467 200.403772 
L 412.437361 192.739803 
L 410.42053 184.67247 
L 408.000328 178.621969 
L 405.983497 174.588299 
L 402.353198 171.764734 
L 397.916165 171.361362 
L 391.865664 172.168097 
L 389.04209 171.764734 
L 385.815162 170.151266 
L 392.269026 169.344531 
L 399.932996 168.94116 
L 404.370029 166.117595 
L 406.38686 162.083925 
L 406.790231 157.243529 
L 407.596965 151.59639 
L 408.403699 142.722324 
L 410.017167 134.654992 
L 409.210433 127.394385 
L 409.613796 120.133787 
L 409.613796 111.663084 
L 408.807062 106.015945 
L 407.596965 100.368815 
L 405.176763 94.721677 
L 401.143093 90.688015 
L 396.70606 88.267812 
L 384.605057 88.267812 
L 378.554556 90.284643 
L 370.487223 92.704846 
L 364.840085 95.528411 
L 360.403052 98.351976 
L 357.176116 101.578912 
L 353.142454 103.595751 
L 347.898686 106.015945 
L 344.67175 108.032784 
L 340.234717 107.22605 
L 336.201047 105.209211 
L 330.150545 102.385646 
L 339.024612 103.19238 
L 346.285218 103.19238 
L 352.739082 101.578912 
L 361.613157 96.335145 
L 366.856924 93.51158 
L 372.504054 91.091378 
L 377.344459 89.881281 
L 381.378121 88.671175 
L 392.269026 87.057707 
L 397.916165 84.637513 
L 402.353198 81.007206 
L 404.7734 76.16681 
L 405.580134 66.082638 
L 404.370029 59.225403 
L 403.159932 54.384999 
L 401.546464 48.737868 
L 399.529625 43.494101 
L 396.008369 37.737928 
L 391.974698 32.897524 
L 387.134294 28.863862 
L 382.697261 25.636926 
L 376.646759 23.620095 
L 369.386161 22.813361 
L 353.654859 22.006626 
L 344.377422 22.409989 
L 331.066314 24.426829 
L 320.57878 26.847023 
L 310.897979 30.47733 
L 303.23401 34.107629 
L 300.007074 38.141291 
L 298.393605 44.595164 
L 297.586871 50.242294 
L 296.780146 57.906263 
L 295.973412 50.645665 
L 295.166678 47.418729 
L 291.939741 42.981695 
L 289.116176 40.15813 
L 284.275772 39.754759 
L 279.032005 39.754759 
L 274.1916 40.15813 
L 269.754567 41.368227 
L 262.897332 44.191792 
L 255.233362 47.015366 
L 247.972764 49.838931 
L 241.518892 54.275964 
L 236.275124 59.519731 
L 233.854931 64.360136 
L 233.451559 69.200532 
L 233.451559 74.84767 
L 235.46839 82.511639 
L 239.502061 88.965504 
L 243.939094 93.805908 
L 249.586232 98.242941 
L 259.670404 104.696814 
L 262.897332 109.133847 
L 266.124268 112.360775 
L 269.351204 119.21801 
L 271.368035 127.285351 
L 273.384866 134.142586 
L 276.611802 141.403184 
L 279.032005 147.453686 
L 280.242102 153.907558 
L 276.20844 150.680622 
L 273.384866 145.840217 
L 270.964672 140.999821 
L 268.947833 135.756054 
L 267.334365 130.512287 
L 266.124268 125.671883 
L 264.107437 121.234849 
L 262.897332 117.60455 
L 261.283864 113.57088 
L 260.073767 109.53721 
L 258.056936 105.503548 
L 254.023265 102.276611 
L 250.392966 100.259772 
L 246.359296 97.032844 
L 242.325626 93.402545 
L 238.291964 90.578972 
L 235.065027 86.141939 
L 232.241462 83.318373 
L 230.627994 78.477969 
L 227.804429 71.620734 
L 225.78759 67.183701 
L 221.753928 63.956764 
L 215.703427 62.343296 
L 209.249554 63.15003 
L 204.005787 64.763498 
L 198.76202 66.780338 
L 192.771377 69.780171 
L 177.981261 77.578592 
L 171.258485 81.881174 
L 164.266798 85.914836 
L 158.888571 91.024152 
L 152.165787 97.746927 
L 147.325391 103.394066 
L 142.753898 108.234462 
L 138.989148 114.957246 
L 136.837857 121.142198 
L 137.106768 127.32716 
L 140.333696 132.97429 
L 144.636278 137.814694 
L 154.317078 146.957672 
L 157.544014 152.066987 
L 159.695305 157.445214 
L 161.039862 164.436901 
L 164.53571 171.6975 
L 169.699539 178.478484 
L 175.077757 183.5878 
L 182.069453 187.083639 
L 188.254405 188.697108 
L 193.363721 189.23493 
L 196.321746 188.159285 
L 199.548674 187.352551 
L 202.77561 188.159285 
L 206.002546 189.772753 
L 209.229483 191.655132 
L 214.069879 192.999689 
L 218.910283 192.730778 
L 227.246527 193.268601 
L 232.355842 195.957714 
L 230.204552 195.419891 
L 227.246527 196.226625 
L 223.481768 197.033351 
L 219.717017 195.688803 
L 216.758992 194.344246 
L 205.733635 191.924044 
L 202.77561 193.268601 
L 199.817585 194.344246 
L 196.590657 194.882069 
L 194.977189 193.268601 
L 192.288076 191.386221 
L 189.598962 190.041664 
L 185.834203 188.697108 
L 182.607275 188.159285 
L 179.64925 187.352551 
L 172.657563 182.781066 
L 169.699539 180.091953 
L 167.279336 177.133928 
L 163.245666 171.217886 
L 162.170021 168.797684 
L 160.556561 165.839659 
L 159.749827 162.612723 
L 158.943093 158.847972 
L 157.598536 155.083213 
L 155.178334 150.51172 
L 151.682486 147.015873 
L 147.917736 142.444388 
L 144.690799 139.755275 
L 142.001686 138.410718 
L 135.273383 136.419304 
L 130.970801 136.419304 
L 126.399316 136.688215 
L 122.096735 137.494949 
L 119.13871 138.570594 
L 110.264643 145.024459 
L 106.499885 148.789218 
L 104.348594 152.016154 
L 101.659488 156.318727 
L 100.583843 161.428043 
L 98.970375 167.881907 
L 96.819084 174.335779 
L 96.01235 179.176184 
L 93.323237 183.478757 
L 92.247591 188.588073 
L 90.365212 195.041937 
L 88.48284 202.840366 
L 87.138284 209.832053 
L 85.255904 217.361563 
L 84.718082 223.815435 
L 86.600461 230.000388 
L 89.020663 234.30297 
L 87.407195 238.067729 
L 86.33155 243.177036 
L 86.062638 247.748529 
L 87.407195 252.857845 
L 89.289575 258.504975 
L 94.720475 268.354859 
L 101.443251 279.111305 
L 106.014744 287.447557 
L 111.661874 294.439244 
L 115.157721 300.624205 
L 118.653569 309.22936 
L 121.073771 312.187385 
L 121.073771 317.027781 
L 123.225054 324.019476 
L 125.107433 330.742251 
L 129.141103 336.658301 
L 135.326056 339.078495 
L 143.124485 340.423052 
L 148.771616 339.885229 
L 154.687665 337.465035 
L 159.796973 335.582656 
L 163.023909 333.700276 
L 166.250845 332.086808 
L 169.20887 331.280074 
L 171.09125 329.935517 
L 172.166887 327.784227 
L 172.435798 332.086808 
L 173.242532 336.120479 
L 171.897975 337.733947 
L 168.133225 337.733947 
L 161.141529 338.809584 
L 158.452424 339.347406 
L 153.343109 341.767609 
L 151.191818 342.03652 
L 145.813599 345.263456 
L 141.779929 347.145836 
L 138.821904 350.910595 
L 136.401702 353.061877 
L 133.981499 356.288813 
L 130.268179 360.733081 
L 129.783519 361.876218 
L 129.778911 364.07569 
L 128.9261 363.946957 
L 127.393308 364.341278 
L 124.300699 366.238525 
L 122.41832 368.389816 
L 117.577923 370.272195 
L 114.619899 373.23022 
L 113.00643 375.381511 
L 111.124051 378.339528 
L 108.651175 380.870613 
L 105.962062 388.400122 
L 104.348594 385.711009 
L 104.886416 383.828629 
L 104.617505 379.794967 
L 104.617505 376.030208 
L 103.54186 371.458715 
L 102.466223 367.425053 
L 100.04602 363.391383 
L 97.625818 361.240092 
L 95.205616 358.550979 
L 93.323237 356.668607 
L 92.785414 355.055139 
L 88.48284 352.366026 
L 93.054325 354.517317 
L 96.01235 355.055139 
L 100.852754 355.324051 
L 106.230973 353.17276 
L 111.071378 350.483646 
L 114.567225 347.525621 
L 116.987419 344.298694 
L 119.676533 341.340669 
L 121.021089 337.306998 
L 121.827823 333.542239 
L 121.827823 329.777489 
L 120.666082 326.176725 
L 120.397171 323.218709 
L 119.321525 319.991772 
L 117.976977 316.495925 
L 115.825686 312.731166 
L 114.212218 310.310972 
L 114.212218 306.815124 
L 113.136573 302.243631 
L 111.254193 298.209969 
L 108.296168 293.369565 
L 106.6827 290.142629 
L 104.262506 286.646781 
L 101.573393 283.150942 
L 100.766659 280.192917 
L 97.808634 277.772715 
L 96.195166 274.007956 
L 93.506052 269.974294 
L 91.892592 265.940624 
L 88.665656 260.562405 
L 85.43872 255.453089 
L 81.942872 249.268128 
L 77.90921 244.158821 
L 74.144451 240.662973 
L 69.035136 236.091488 
L 64.463651 231.788907 
L 59.892158 229.099793 
L 57.203044 227.755236 
L 54.513939 228.293059 
L 51.018092 229.906527 
L 49.135712 232.057818 
L 47.791155 234.746932 
L 45.370953 240.12515 
L 39.186 252.495064 
L 37.303621 258.948937 
L 33.807773 273.470142 
L 33.269951 280.73074 
L 31.925394 289.066983 
L 31.387571 301.97472 
L 32.194305 308.428593 
L 36.765798 311.65552 
L 39.723823 312.731166 
L 44.564219 313.5379 
L 38.648178 313.5379 
L 35.421241 314.882457 
L 33.001039 317.033748 
L 31.387571 321.605241 
L 30.580837 325.907814 
L 30.68804 334.411302 
L 30.956952 341.671908 
L 31.763686 350.814886 
L 34.18388 358.075484 
L 37.679727 365.605002 
L 42.25122 372.058866 
L 45.478148 375.823625 
L 47.89835 377.168182 
L 51.125287 382.008578 
L 54.890045 386.580071 
L 55.965691 389.538096 
L 54.621134 393.302846 
L 53.276577 396.260871 
L 51.394198 399.756719 
L 51.125287 404.597123 
L 52.738755 411.319899 
L 54.890045 418.849408 
L 58.385885 426.916749 
L 62.419555 432.026056 
L 66.722137 438.211017 
L 71.02471 441.169042 
L 74.251646 441.706865 
L 77.747494 441.437954 
L 75.327292 444.39597 
L 73.176001 447.353995 
L 73.444912 452.194399 
L 76.511972 461.073993 
L 79.469997 468.603503 
L 83.772578 475.326287 
L 89.957531 480.704506 
L 96.949226 485.813821 
L 106.630027 490.385306 
L 116.310827 492.536597 
L 123.840345 493.074419 
L 129.756386 491.19204 
L 133.521145 486.889467 
L 137.285896 480.973417 
L 139.437187 476.401924 
L 140.781744 472.637173 
L 143.470857 464.569833 
L 145.084325 461.611816 
L 146.428882 458.653791 
L 144.815414 463.494187 
L 142.933034 467.796769 
L 141.050655 473.174996 
L 139.97501 479.359949 
L 140.781744 487.965112 
L 142.395212 495.494622 
L 144.546503 499.797203 
L 149.386907 503.293043 
L 156.647505 510.015826 
L 163.370281 515.662957 
L 171.437621 522.116829 
L 178.967131 526.957225 
L 185.958826 531.797629 
L 194.832892 536.100211 
L 204.782604 538.520405 
L 212.312122 539.058228 
L 219.367538 538.146147 
L 226.897047 538.146147 
L 235.502202 537.339413 
L 244.914099 534.381388 
L 253.788166 530.88554 
L 258.897482 527.927515 
L 266.964814 526.045144 
L 273.418678 522.280385 
L 278.527994 517.439981 
L 282.830575 512.330673 
L 285.250769 506.952446 
L 286.326415 501.843131 
L 285.519681 494.851444 
L 285.788592 488.128668 
L 285.788592 480.868062 
L 284.712947 474.414198 
L 284.712947 469.03597 
L 282.830575 464.464477 
L 280.948196 459.086259 
L 278.847739 455.692087 
L 274.007343 446.011278 
L 270.511495 442.246527 
L 268.898027 440.095237 
L 268.898027 434.985921 
L 269.166938 430.145525 
L 270.511495 425.574032 
L 272.393875 421.002539 
L 274.007343 415.62432 
L 272.662786 410.515004 
L 269.704761 407.825899 
L 265.940002 406.750254 
L 262.175251 407.019165 
L 258.948315 408.363714 
L 256.797024 410.783916 
L 254.376822 413.741941 
L 252.225531 416.699966 
L 247.385135 421.540362 
L 245.233845 422.347096 
L 242.006908 424.229475 
L 239.317795 428.263145 
L 239.855617 423.262873 
L 238.511061 420.304848 
L 234.477399 418.422468 
L 228.83026 418.422468 
L 223.989864 418.69138 
L 210.006482 421.380493 
L 205.434989 423.800695 
L 200.325673 426.220889 
L 196.560923 427.296535 
L 193.602898 428.37218 
L 190.644873 429.716737 
L 184.997743 434.019318 
L 182.308629 439.128626 
L 179.350605 443.96903 
L 177.737136 446.927055 
L 174.77912 450.691806 
L 173.972386 447.464878 
L 173.434563 441.279917 
L 175.048023 434.019318 
L 178.006048 428.103269 
L 181.770807 423.800695 
L 185.804477 420.304848 
L 190.644873 417.077912 
L 195.754189 415.195532 
L 200.594585 412.237515 
L 208.661925 408.203845 
L 213.771233 405.783643 
L 218.342726 405.514732 
L 222.914219 404.707998 
L 225.603324 404.439086 
L 229.099172 408.472757 
L 233.670665 413.313153 
L 238.779972 414.657709 
L 242.27582 412.77533 
L 245.233845 409.817313 
L 247.116224 404.976909 
L 249.267515 395.296109 
L 251.418797 391.800261 
L 254.376822 388.304413 
L 256.528113 387.497679 
L 260.561783 388.304413 
L 266.208913 389.111147 
L 276.696448 392.875906 
L 281.805764 393.951552 
L 286.108345 395.027197 
L 292.831121 399.867602 
L 301.974099 408.203845 
L 311.385996 416.540089 
L 317.83986 420.573759 
L 326.445015 429.447825 
L 334.089095 437.624201 
L 342.69425 444.884799 
L 349.685945 453.221051 
L 360.980214 459.943826 
L 372.543394 461.288383 
L 381.148549 460.481649 
L 395.938665 453.758874 
L 402.392529 448.918469 
L 407.501845 444.884799 
L 413.148975 443.00242 
L 420.947404 442.733508 
L 428.745825 443.00242 
L 434.930786 443.540242 
L 441.38465 448.918469 
L 453.485653 454.296696 
L 461.821905 455.910156 
L 472.578351 456.985802 
L 479.838949 457.523624 
L 483.774631 454.887192 
L 487.808293 451.660256 
L 488.077205 446.282037 
L 490.228496 440.097076 
L 494.531077 436.332317 
L 500.71603 432.298655 
L 504.480789 429.071719 
L 506.363168 425.038049 
L 512.817033 422.080032 
L 519.270905 418.046362 
L 526.531503 414.012692 
L 531.640819 409.710118 
L 537.556861 405.407537 
L 543.741822 399.760398 
L 547.237669 394.113268 
L 556.649558 393.306534 
L 561.221051 390.079598 
L 566.061447 387.659396 
L 570.364029 383.356822 
L 575.204425 379.054241 
L 578.431361 377.440773 
L 580.851563 379.592063 
L 579.775918 384.701379 
L 577.893539 388.735041 
L 576.548982 394.920002 
L 576.817893 400.298221 
L 579.507007 407.558828 
L 583.540677 411.054667 
L 588.112162 412.399224 
L 592.683655 409.710118 
L 596.448414 406.214271 
L 601.019898 403.256246 
L 607.742682 400.02931 
L 612.314175 399.491487 
L 617.692394 400.567132 
L 623.070621 401.911689 
L 627.593112 406.695732 
L 641.038671 415.031976 
L 647.223632 417.721089 
L 652.064028 421.216937 
L 654.753142 426.595156 
L 657.173344 431.973383 
L 657.442255 437.351602 
L 656.36661 441.654183 
L 653.408585 439.233981 
L 651.526206 435.46923 
L 645.341253 427.132978 
L 642.114317 424.174962 
L 637.542824 421.216937 
L 631.626782 416.914355 
L 627.3242 415.83871 
L 622.214893 415.569799 
L 618.719045 412.880685 
L 615.223198 410.460491 
L 612.265173 411.267225 
L 608.231511 410.19158 
L 605.004575 409.922668 
L 597.743976 410.729403 
L 596.130508 409.115934 
L 593.979218 409.922668 
L 590.752281 412.342862 
L 588.60099 414.225242 
L 586.718611 417.452178 
L 583.760594 417.183267 
L 581.878215 414.225242 
L 578.651279 410.729403 
L 575.155431 407.233555 
L 571.928503 405.888998 
L 568.432656 405.351175 
L 565.474631 406.426821 
L 561.440969 408.3092 
L 558.751855 409.922668 
L 555.256008 413.687419 
L 553.373628 415.300887 
L 552.566894 419.87238 
L 553.642539 422.292582 
L 554.987096 427.132978 
L 556.600564 430.628826 
L 557.138387 434.662496 
L 556.062742 438.427247 
L 555.256008 443.536563 
L 554.180362 449.452604 
L 553.911451 454.56192 
L 554.180362 460.47797 
L 555.256008 466.394011 
L 556.869476 473.116795 
L 560.848625 479.41631 
L 558.966245 486.139094 
L 559.235156 493.130781 
L 559.772979 499.046831 
L 562.462093 505.500695 
L 567.033577 511.147833 
L 575.100918 517.870609 
L 582.092605 523.517747 
L 589.622123 527.282498 
L 598.7651 529.971611 
L 607.370255 531.853991 
L 614.093039 533.198547 
L 623.77384 533.73637 
L 633.45464 533.467459 
L 641.253061 530.778345 
L 649.05149 527.82032 
L 661.959227 520.559722 
L 668.413091 515.181495 
L 674.060229 510.072188 
L 677.287166 504.425049 
L 679.169537 497.702274 
L 681.320828 491.517313 
L 681.320828 485.063448 
L 682.665384 479.954133 
L 682.127562 472.962446 
L 682.127562 467.85313 
L 681.320828 458.979064 
L 682.127562 465.701839 
L 682.934296 471.080066 
L 683.203207 476.458285 
L 682.934296 482.374335 
L 683.203207 487.483642 
L 685.085587 494.206426 
L 691.001628 496.357717 
L 697.455501 495.550983 
L 704.98501 493.130781 
L 710.423278 489.847483 
L 719.028441 486.620555 
L 731.129444 480.704506 
L 746.457374 470.754794 
L 753.44907 463.494187 
L 758.289466 456.233589 
L 761.247491 449.510813 
L 762.592047 442.78803 
L 762.860959 436.871988 
L 760.709668 431.22485 
L 757.213829 428.266825 
L 752.911247 426.653357 
L 749.953222 424.502074 
L 747.53302 423.157517 
L 740.810244 422.619695 
L 748.070843 421.812961 
L 758.289466 420.468404 
L 764.205515 420.199493 
L 769.314831 418.586024 
L 773.079582 415.896911 
L 775.499784 413.207797 
L 779.373578 405.67276 
L 782.331602 399.487807 
L 785.020716 391.689387 
L 787.709821 382.546401 
L 794.970428 359.151129 
L 797.659541 351.62162 
L 799.004098 346.243393 
L 799.810824 340.05844 
L 799.810824 333.873479 
L 800.079735 327.688526 
L 799.004098 323.385944 
L 797.121719 319.621185 
L 799.273009 316.125346 
L 799.865345 308.964567 
L 800.672079 302.779614 
L 800.940991 295.787927 
L 799.865345 288.25841 
L 797.982966 279.922166 
L 795.831675 271.585914 
L 793.411481 264.594227 
L 790.453456 257.064718 
L 786.688697 251.417579 
L 782.655035 247.383909 
L 779.159188 245.501538 
L 774.856606 246.03936 
L 770.822936 248.190643 
L 765.175806 250.610845 
L 761.411047 253.031047 
L 758.453022 257.064718 
L 755.763917 261.905114 
L 756.032828 266.207695 
L 755.950776 272.098262 
L 751.144059 276.370902 
L 740.462464 281.711696 
L 735.655747 284.382097 
L 731.47212 289.455852 
L 728.979744 295.864816 
L 728.267642 302.273772 
L 726.843428 310.106941 
L 727.19948 319.008272 
L 728.623693 328.621714 
L 731.47212 336.454884 
L 736.456862 341.439626 
L 739.66134 348.916744 
L 742.153715 359.954399 
L 741.797664 363.514929 
L 739.66134 366.363355 
L 736.812913 366.007304 
L 732.540282 367.075458 
L 727.911582 368.855731 
L 723.63895 371.348098 
L 718.6542 375.976789 
L 714.737619 379.181267 
L 711.533141 382.385753 
L 708.328655 383.809966 
L 705.480228 384.166018 
L 701.919699 381.673642 
L 698.35917 380.249429 
L 694.442581 379.537326 
L 691.594155 376.6889 
L 688.745728 374.552576 
L 686.609412 369.211782 
L 686.253361 364.939142 
L 684.473088 360.666502 
L 680.912559 356.393862 
L 676.639919 353.545435 
L 674.147552 350.340957 
L 669.874912 347.84859 
L 663.109896 346.780428 
L 668.450698 346.780428 
L 672.723338 348.560693 
L 677.35203 352.121222 
L 684.829148 354.613597 
L 694.442581 357.105973 
L 703.343913 359.59834 
L 709.752868 360.310451 
L 716.517884 361.378613 
L 721.502626 357.462024 
L 725.775266 352.121222 
L 728.623693 345.000164 
L 729.335795 338.947259 
L 729.691855 333.962508 
L 726.487377 325.773288 
L 723.995002 322.56881 
L 722.92684 317.584059 
L 720.434464 314.02353 
L 719.36631 310.463001 
L 721.146575 303.341934 
L 723.995002 295.152705 
L 733.132899 272.348535 
L 742.746341 262.735093 
L 748.799246 256.326137 
L 753.427937 250.273233 
L 757.344518 243.508217 
L 759.480842 238.167424 
L 759.836893 231.75846 
L 760.905055 225.349504 
L 758.768731 221.076864 
L 755.208202 215.023959 
L 753.071886 208.258952 
L 750.223459 202.91815 
L 748.443195 196.865245 
L 748.087135 190.812341 
L 747.375033 185.471539 
L 747.018981 180.486796 
L 743.102393 168.024936 
L 739.541863 161.61598 
L 734.201061 156.98728 
L 728.148157 152.358589 
L 722.095252 149.510162 
L 717.466561 147.729898 
L 713.549972 145.237531 
L 708.921281 143.101207 
L 705.004692 143.101207 
L 699.663898 143.457258 
L 695.035207 144.52542 
L 691.118619 146.661744 
L 687.558089 149.154111 
L 680.793074 157.34334 
L 678.300707 162.684134 
L 676.164383 167.668885 
L 673.315956 172.297576 
L 671.891743 177.63837 
L 670.467529 180.486796 
L 669.399376 182.979172 
L 665.482787 183.691274 
L 660.854096 185.115487 
L 655.513294 186.18365 
L 637.225515 190.688066 
L 631.528662 191.756228 
L 627.25603 192.112279 
L 616.930485 196.028868 
L 610.16547 197.809133 
L 604.112565 198.165184 
L 599.839925 197.097022 
L 595.211234 194.960706 
L 598.415712 192.112279 
L 602.688352 190.332015 
L 609.809419 189.619904 
L 617.642588 189.263853 
L 623.339441 189.975963 
L 629.392346 191.044117 
L 635.089199 190.332015 
L 642.210266 188.907801 
L 650.399486 186.415426 
L 656.808442 184.27911 
L 661.437133 180.00647 
L 666.777935 174.309617 
L 671.050575 169.324874 
L 672.83084 165.764337 
L 676.391369 161.135646 
L 679.239796 157.931168 
L 682.444274 154.014587 
L 685.64876 150.45405 
L 689.209289 147.605623 
L 697.754569 141.196667 
L 699.534834 136.924027 
L 701.315098 130.871123 
L 700.246936 124.818218 
L 697.398509 121.257689 
L 693.83798 116.985049 
L 690.633502 113.780571 
L 689.209289 110.932144 
L 687.785076 105.235291 
L 685.64876 100.250548 
L 682.088222 96.33396 
L 678.044972 92.766237 
L 673.772332 89.561759 
L 670.211795 87.069392 
L 668.787581 84.220966 
L 667.719428 79.948326 
L 664.15889 76.031737 
L 659.88625 72.471208 
L 655.613618 69.26673 
L 649.916765 66.418303 
L 644.219912 63.213825 
L 638.87911 61.433552 
L 633.182265 60.009347 
L 628.197514 57.873023 
L 623.212771 56.092758 
L 618.940131 55.380648 
L 612.175124 55.736707 
L 607.190373 58.229074 
L 603.273793 62.145663 
L 601.49352 64.638038 
L 600.425366 69.622781 
L 600.069307 74.963583 
L 590.811924 84.220966 
L 587.607446 87.781495 
L 579.062166 91.342024 
L 575.501637 93.834399 
L 571.585048 98.107039 
L 568.73663 103.091782 
L 566.956357 108.788635 
L 565.532144 115.197591 
L 563.395828 120.182342 
L 560.547401 125.523136 
L 559.479239 130.151827 
L 557.342923 136.560791 
L 555.206599 144.037909 
L 556.630813 137.985004 
L 559.479239 128.371562 
L 559.123188 122.674709 
L 559.123188 115.909702 
L 560.547401 109.856797 
L 562.327666 105.228106 
L 565.532144 100.599415 
L 567.312417 97.038877 
L 571.228997 92.766237 
L 575.501637 89.561759 
L 582.622704 86.357281 
L 587.963498 84.220966 
L 591.880086 79.592274 
L 597.932991 72.827259 
L 600.069307 68.91067 
L 599.713256 64.638038 
L 600.069307 60.009347 
L 597.220888 54.312494 
L 594.016402 50.039854 
L 590.099822 46.479316 
L 587.607446 43.986949 
L 583.334806 41.138523 
L 579.774277 39.714309 
L 573.721373 37.934045 
L 565.176093 35.797721 
L 555.91871 33.661405 
L 549.865806 32.593243 
L 537.759996 32.593243 
L 534.199459 33.661405 
L 530.63893 37.221934 
L 528.146554 40.782471 
L 526.010238 45.055111 
L 524.586025 48.259589 
L 523.517863 53.600383 
L 523.873923 59.653288 
L 523.161812 64.638038 
L 524.229974 71.046994 
L 521.737598 66.062252 
L 519.957334 61.789612 
L 518.533121 55.736707 
L 514.260481 50.039854 
L 510.343892 44.343001 
L 506.427311 39.002199 
L 490.032089 28.437693 
L 484.335244 26.301377 
L 480.062604 25.233215 
L 449.08597 25.233215 
L 443.033066 27.013479 
L 437.336212 29.149803 
L 430.215146 34.134546 
L 425.942514 39.47534 
L 422.738028 45.884304 
L 420.245661 54.785635 
L 419.53355 64.75512 
L 419.177499 74.012511 
L 421.669874 82.201731 
L 425.586454 88.610687 
L 431.283308 93.595438 
L 438.760426 95.731754 
L 445.525441 96.443865 
L 453.002559 98.58018 
L 460.123617 101.428607 
L 467.244684 105.701247 
L 481.486817 116.026792 
L 487.895773 119.23127 
L 492.524464 121.723637 
L 497.865266 120.299423 
L 495.01684 122.435747 
L 491.456302 123.50391 
L 489.319986 121.011534 
L 485.403398 118.875218 
L 481.486817 117.094945 
L 478.282339 115.314681 
L 475.789964 113.534416 
L 472.229435 110.329938 
L 467.956795 107.481512 
L 464.396257 104.633085 
L 456.563088 101.072556 
L 448.729919 97.86807 
L 439.828588 96.087805 
L 435.555948 96.087805 
L 431.283308 97.155967 
L 427.722779 99.292283 
L 425.586454 101.784658 
L 423.80619 106.41335 
L 423.450139 112.466254 
L 423.450139 119.943372 
L 424.518301 128.488652 
L 424.518301 137.746035 
L 424.874352 145.579204 
L 426.654616 152.344219 
L 428.790932 156.616859 
L 428.434881 159.821337 
L 425.942514 163.381866 
L 424.518301 169.07872 
L 423.80619 184.389007 
L 424.518301 191.866125 
L 424.630592 198.289459 
L 424.630592 205.054474 
L 424.986643 211.107379 
L 427.479019 216.092121 
L 432.819821 218.228437 
L 438.872725 218.940548 
L 444.92563 218.584497 
L 451.690637 216.448172 
L 456.675388 212.887643 
L 461.304079 208.971055 
L 464.152506 206.122628 
L 465.93277 202.562099 
L 468.069086 199.357621 
L 465.22066 204.698415 
L 462.728293 208.971055 
L 454.895115 216.092121 
L 450.266424 218.584497 
L 440.65299 221.432923 
L 436.024299 223.213188 
L 432.10771 225.349504 
L 423.91849 223.92529 
L 418.577688 224.637401 
L 413.592945 225.705555 
L 409.676356 224.993452 
L 405.403716 223.569239 
L 396.858445 223.569239 
L 391.161591 222.501077 
L 386.888951 220.364761 
L 382.616311 218.584497 
L 377.98762 216.804224 
L 373.71498 213.955805 
L 370.510502 210.039217 
L 366.237862 205.410525 
L 366.237862 205.410525 
" style="fill:none;stroke:#000000;stroke-linecap:square;stroke-width:1.5;"/>
   </g>
   <g id="line2d_2">
    <path clip-path="url(#p6ab2e39acf)" d="M 150.523165 386.203625 
L 146.956777 381.77637 
L 150.769129 385.465749 
L 154.212544 389.401075 
L 150.523165 386.203625 
L 150.523165 386.203625 
" style="fill:none;stroke:#000000;stroke-linecap:square;stroke-width:1.5;"/>
   </g>
   <g id="line2d_3">
    <path clip-path="url(#p6ab2e39acf)" d="M 748.146074 182.880405 
L 748.019719 186.671036 
L 748.272429 190.461676 
L 748.651493 192.862412 
L 748.904203 195.768567 
L 749.409615 198.674714 
L 750.799519 202.212644 
L 751.81035 204.992444 
L 753.452965 207.64589 
L 754.463796 211.183812 
L 755.8537 214.595387 
L 758.380791 215.606218 
L 761.918712 215.606218 
L 765.077577 217.501542 
L 767.731023 216.743412 
L 768.489144 213.458192 
L 767.731023 209.793915 
L 767.099248 205.750574 
L 766.214764 201.580869 
L 765.203932 198.169303 
L 762.929552 194.757728 
L 760.781526 191.725217 
L 758.759847 188.440005 
L 756.359112 185.78656 
L 754.463796 183.512179 
L 751.936705 181.99592 
L 750.041389 181.74321 
L 748.146074 182.880405 
" style="fill:none;stroke:#000000;stroke-linecap:square;stroke-width:1.5;"/>
   </g>
   <g id="line2d_4">
    <path clip-path="url(#p6ab2e39acf)" d="M 549.617969 448.490916 
L 551.747066 445.29727 
L 553.698735 442.281052 
L 555.118133 438.555135 
L 555.472983 434.474369 
L 555.118133 430.038753 
L 553.698735 428.264504 
L 550.859946 426.667685 
L 548.19857 425.248287 
L 545.004932 425.070866 
L 542.343564 425.248287 
L 540.391887 427.022535 
L 539.682188 430.393602 
L 538.972488 433.232399 
L 538.795068 435.893767 
L 540.391887 438.555135 
L 541.988714 441.926202 
L 543.940383 446.539247 
L 546.956601 449.910315 
L 549.617969 448.490916 
" style="fill:none;stroke:#000000;stroke-linecap:square;stroke-width:1.5;"/>
   </g>
   <g id="line2d_5">
    <path clip-path="url(#p6ab2e39acf)" d="M 283.665163 456.688233 
L 285.823423 453.558763 
L 288.089591 450.21346 
L 289.492465 446.976074 
L 290.355767 444.494074 
L 291.650717 441.364604 
L 292.729851 438.882604 
L 292.298196 436.50852 
L 291.650717 434.350268 
L 291.003238 431.760352 
L 290.247851 429.925839 
L 288.629154 427.983403 
L 287.550028 427.875495 
L 286.794641 429.170445 
L 286.686726 426.688453 
L 285.28386 424.638109 
L 283.017692 423.451067 
L 280.211953 423.019411 
L 277.622045 422.803588 
L 275.247961 423.235235 
L 273.41344 424.530193 
L 271.902659 427.012193 
L 270.823533 429.062537 
L 270.176054 431.868268 
L 270.28397 434.781915 
L 270.499794 437.263915 
L 270.607709 439.530083 
L 271.363096 441.47252 
L 273.305525 444.170335 
L 275.140045 446.328595 
L 276.21918 448.594763 
L 277.406222 451.400502 
L 278.916995 454.314149 
L 280.427776 456.904057 
L 282.154381 457.335712 
L 283.665163 456.688233 
" style="fill:none;stroke:#000000;stroke-linecap:square;stroke-width:1.5;"/>
   </g>
   <g id="line2d_6">
    <path clip-path="url(#p6ab2e39acf)" d="M 75.619747 222.269756 
L 78.614758 217.610858 
L 80.777816 212.95196 
L 81.60976 208.459453 
L 81.77615 205.963613 
L 83.440038 203.135001 
L 84.604762 198.975274 
L 85.603096 196.146654 
L 86.934211 192.985261 
L 88.764489 189.158307 
L 90.761166 185.331361 
L 92.092272 182.33635 
L 93.756168 178.509404 
L 94.920893 175.348011 
L 95.919227 170.023552 
L 96.917561 165.531044 
L 97.250342 161.371317 
L 97.416732 156.546028 
L 96.085617 153.717416 
L 93.090615 153.218245 
L 89.596441 154.54936 
L 87.266992 156.379646 
L 84.937543 158.875477 
L 82.608094 161.537707 
L 79.613092 165.198271 
L 77.616415 167.860493 
L 75.786137 170.522723 
L 74.954194 173.517725 
L 73.95586 176.679118 
L 72.125573 179.507738 
L 70.295296 182.50274 
L 69.130571 185.16497 
L 67.633066 188.492753 
L 66.301951 192.153317 
L 65.137235 195.14832 
L 64.138892 200.805552 
L 63.306948 205.630841 
L 63.140558 210.955292 
L 63.306948 216.113353 
L 64.471673 220.605861 
L 67.466675 224.100034 
L 72.291964 224.100034 
L 75.619747 222.269756 
" style="fill:none;stroke:#000000;stroke-linecap:square;stroke-width:1.5;"/>
   </g>
  </g>
 </g>
 <defs>
  <clipPath id="p6ab2e39acf">
   <rect height="612.72" width="828.72" x="0" y="0"/>
  </clipPath>
 </defs>
</svg>
