<?xml version="1.0" encoding="utf-8" standalone="no"?>
<!DOCTYPE svg PUBLIC "-//W3C//DTD SVG 1.1//EN"
  "http://www.w3.org/Graphics/SVG/1.1/DTD/svg11.dtd">
<!-- Created with matplotlib (https://matplotlib.org/) -->
<svg height="274.32pt" version="1.1" viewBox="0 0 414.72 274.32" width="414.72pt" xmlns="http://www.w3.org/2000/svg" xmlns:xlink="http://www.w3.org/1999/xlink">
 <defs>
  <style type="text/css">
*{stroke-linecap:butt;stroke-linejoin:round;}
  </style>
 </defs>
 <g id="figure_1">
  <g><image xlink:href="../../img/ctx/pocketgopher_cor_cell.json.ctx-50%25.png" width="414.71999999999997px" height="274.32px"/></g>

  <g id="patch_1">
   <path d="M 0 274.32 
L 414.72 274.32 
L 414.72 0 
L 0 0 
z
" style="fill:none;"/>
  </g>
  <g id="axes_1">
   <g id="line2d_1">
    <path clip-path="url(#pa79c196c48)" d="M 206.337541 63.566743 
L 208.43933 59.963676 
L 209.340097 52.757547 
L 209.340097 46.452186 
L 209.940608 41.047592 
L 209.940608 35.042484 
L 209.340097 29.037376 
L 206.637798 25.134056 
L 203.034732 23.032271 
L 197.029628 21.230736 
L 191.324777 19.729462 
L 185.619926 17.927927 
L 179.91507 16.426653 
L 174.81073 15.225632 
L 169.406136 13.724354 
L 162.50026 12.223076 
L 154.093114 11.322312 
L 136.077794 13.123843 
L 127.670644 14.625122 
L 121.965789 16.426653 
L 115.059917 18.828694 
L 108.454298 21.530993 
L 99.446638 25.734566 
L 91.940256 30.538654 
L 84.734126 34.141716 
L 79.029275 38.045036 
L 73.624682 42.248613 
L 67.019063 46.452186 
L 62.515233 50.655763 
L 58.912166 53.658315 
L 56.510125 56.660867 
L 53.207315 61.164697 
L 50.204763 66.569295 
L 46.901954 71.973889 
L 43.764149 79.291138 
L 41.06185 86.19701 
L 37.759041 92.202118 
L 35.657252 97.306459 
L 34.155978 103.01131 
L 32.05419 109.616928 
L 31.453679 115.622032 
L 30.552912 121.927394 
L 31.153422 126.731481 
L 32.6547 129.133523 
L 30.853169 132.436332 
L 29.351891 137.24042 
L 29.351891 142.945271 
L 29.652148 147.749354 
L 29.351891 150.1514 
L 27.250102 152.553441 
L 26.649592 155.856251 
L 27.55036 160.660334 
L 30.552912 169.667994 
L 36.257763 181.377954 
L 43.163639 190.385614 
L 51.270531 198.492507 
L 59.677681 206.599404 
L 67.784574 213.805533 
L 80.395301 221.311915 
L 84.298621 222.212683 
L 90.003472 226.416255 
L 99.311385 229.418808 
L 107.418282 230.319575 
L 114.594659 228.592121 
L 119.699 226.490333 
L 126.004361 222.88727 
L 129.907681 219.884718 
L 131.408959 217.182419 
L 131.408959 213.579353 
L 130.508191 210.877058 
L 128.406407 206.973738 
L 131.709212 210.576801 
L 132.309727 214.48012 
L 132.009469 218.083183 
L 135.312279 222.28676 
L 144.319939 225.889822 
L 155.429388 230.093399 
L 165.638069 233.396209 
L 173.744962 237.599782 
L 181.851858 241.202844 
L 189.958751 241.202844 
L 196.56437 240.902591 
L 201.66871 240.001823 
L 207.073304 239.401313 
L 213.078412 239.70157 
L 219.684031 240.302081 
L 228.691691 240.602334 
L 238.600115 239.401313 
L 243.404203 237.299528 
L 246.707012 233.396209 
L 252.712116 230.093399 
L 259.317735 225.889822 
L 265.322843 223.487781 
L 273.129483 219.884718 
L 278.233823 216.882162 
L 283.338164 214.48012 
L 288.142247 209.37578 
L 290.244036 207.574248 
L 289.043015 212.378332 
L 291.745314 216.581909 
L 299.852206 220.485229 
L 312.162676 223.187523 
L 319.669058 224.088291 
L 328.976976 222.28676 
L 334.681827 218.98395 
L 339.786168 215.681141 
L 344.890508 213.579353 
L 349.094085 210.576801 
L 352.997405 206.373228 
L 357.837308 201.516479 
L 361.44888 197.310007 
L 366.553221 193.10643 
L 375.861138 184.399027 
L 381.265732 179.59494 
L 385.769562 174.790856 
L 392.074928 165.482939 
L 394.476969 160.979109 
L 395.978247 155.274258 
L 396.578758 150.169917 
L 396.278501 147.167365 
L 394.777227 143.564298 
L 394.176712 138.459958 
L 393.876459 134.256385 
L 393.876459 130.052808 
L 393.275949 125.248725 
L 392.375181 121.645658 
L 391.474417 118.943363 
L 391.77467 115.340297 
L 390.873907 110.536213 
L 390.57365 105.131615 
L 389.274415 98.457535 
L 386.271863 91.251406 
L 383.869817 84.045277 
L 381.167522 78.940936 
L 379.065734 73.536342 
L 376.063182 67.531234 
L 370.658584 58.523574 
L 367.055521 54.320001 
L 363.152201 50.716934 
L 357.44735 46.813614 
L 347.538922 39.006975 
L 340.633051 34.803402 
L 335.52871 30.900082 
L 330.846969 28.320134 
L 326.042886 26.218345 
L 321.539056 24.116557 
L 317.335479 23.215793 
L 307.727308 18.411706 
L 299.320158 15.108897 
L 291.513523 12.406598 
L 283.106373 11.806087 
L 275.299733 11.505834 
L 265.991816 12.106344 
L 258.785686 13.607623 
L 251.579561 14.508386 
L 243.772922 16.009664 
L 228.159643 19.312474 
L 221.554024 21.714515 
L 217.050194 23.816304 
L 214.047642 25.617835 
L 212.246111 28.920644 
L 211.345343 32.523707 
L 210.744833 37.327794 
L 209.844065 49.338007 
L 210.144322 53.841837 
L 209.844065 57.444899 
L 210.144322 60.747709 
L 211.6456 63.450008 
L 213.447132 65.551796 
L 209.243555 65.551796 
L 203.538704 65.251539 
L 206.337541 63.566743 
L 206.337541 63.566743 
" style="fill:none;stroke:#000000;stroke-linecap:square;stroke-width:1.5;"/>
   </g>
  </g>
 </g>
 <defs>
  <clipPath id="pa79c196c48">
   <rect height="274.32" width="414.72" x="0" y="0"/>
  </clipPath>
 </defs>
</svg>
