<?xml version="1.0" encoding="utf-8" standalone="no"?>
<!DOCTYPE svg PUBLIC "-//W3C//DTD SVG 1.1//EN"
  "http://www.w3.org/Graphics/SVG/1.1/DTD/svg11.dtd">
<!-- Created with matplotlib (https://matplotlib.org/) -->
<svg height="246.24pt" version="1.1" viewBox="0 0 414.72 246.24" width="414.72pt" xmlns="http://www.w3.org/2000/svg" xmlns:xlink="http://www.w3.org/1999/xlink">
 <defs>
  <style type="text/css">
*{stroke-linecap:butt;stroke-linejoin:round;}
  </style>
 </defs>
 <g id="figure_1">
  <g><image xlink:href="../../img/ctx/polarbear_cor_cell.json.ctx-50%25.png" width="414.71999999999997px" height="246.23999999999998px"/></g>

  <g id="patch_1">
   <path d="M 0 246.24 
L 414.72 246.24 
L 414.72 0 
L 0 0 
z
" style="fill:none;"/>
  </g>
  <g id="axes_1">
   <g id="line2d_1">
    <path clip-path="url(#pa659fe20ab)" d="M 193.37188 24.90207 
L 188.951434 25.454626 
L 184.715177 28.401589 
L 179.742174 32.085294 
L 176.242654 36.137365 
L 172.374764 39.636885 
L 169.796172 42.399666 
L 167.585951 46.083371 
L 166.665024 49.030334 
L 167.770136 52.898224 
L 164.270617 48.293592 
L 160.034356 44.978259 
L 155.98228 41.662925 
L 150.64091 40.189441 
L 145.483722 40.926183 
L 140.879094 43.68896 
L 137.747942 47.741036 
L 136.458648 51.608926 
L 137.379575 55.476817 
L 140.694909 57.687038 
L 148.2465 64.501891 
L 152.666946 67.264669 
L 156.903207 70.764188 
L 153.219503 69.290708 
L 147.325577 65.422818 
L 142.536759 61.739113 
L 138.668869 58.239594 
L 134.800979 55.476817 
L 130.933093 55.476817 
L 128.354496 57.318667 
L 126.881017 61.554928 
L 129.275424 65.054447 
L 132.406572 68.553967 
L 135.16935 72.237671 
L 137.932127 75.553005 
L 140.694909 78.499968 
L 136.274462 75.737191 
L 132.038201 71.316744 
L 128.170311 65.975375 
L 123.197312 61.923299 
L 118.224309 60.449815 
L 112.698754 60.634001 
L 108.094122 63.028412 
L 105.147159 67.448854 
L 104.594603 72.790228 
L 106.989014 76.842299 
L 111.409456 81.446931 
L 117.487572 82.920415 
L 123.934054 84.762265 
L 129.459609 86.604116 
L 135.16935 89.551083 
L 124.302421 85.867378 
L 118.224309 84.762265 
L 112.88294 84.209709 
L 106.989014 84.57808 
L 102.568567 86.051563 
L 99.805789 89.735268 
L 96.858826 95.260823 
L 94.832787 100.602193 
L 95.937899 105.39101 
L 99.805789 105.39101 
L 105.699715 100.970564 
L 110.488533 97.839415 
L 115.277346 97.102674 
L 119.513607 96.918488 
L 123.381498 95.445009 
L 132.959128 92.682231 
L 129.091238 95.260823 
L 124.854977 96.18175 
L 121.539643 98.207786 
L 120.066164 106.86449 
L 117.487572 103.917527 
L 114.172234 101.707306 
L 109.751791 101.154749 
L 105.883901 103.549156 
L 101.64764 107.417046 
L 99.437419 112.574234 
L 99.069048 116.442125 
L 98.332306 119.941644 
L 96.122085 124.546272 
L 95.753714 130.071831 
L 100.17416 137.255051 
L 100.17416 137.070866 
L 105.883901 139.833647 
L 111.593641 140.386204 
L 118.59268 140.386204 
L 122.46057 138.544349 
L 126.328461 133.387165 
L 129.275424 129.150904 
L 132.959128 125.098828 
L 135.906091 120.494196 
L 133.69587 125.283014 
L 129.091238 131.17694 
L 127.986125 133.755532 
L 127.249388 136.886684 
L 128.722867 140.202018 
L 130.426952 142.608012 
L 133.189729 143.344754 
L 136.505063 142.976383 
L 132.268806 144.265677 
L 129.137658 144.449862 
L 124.901397 145.37079 
L 121.954434 147.765196 
L 119.928394 151.08053 
L 119.007471 154.764235 
L 116.797245 158.079569 
L 112.929355 161.210717 
L 110.350763 165.262793 
L 107.219614 168.025571 
L 107.219614 172.261832 
L 108.140542 175.208795 
L 106.667058 176.313907 
L 104.825208 173.55113 
L 102.246616 171.340904 
L 100.220576 169.130683 
L 101.325688 165.446978 
L 102.430801 159.921423 
L 100.220576 156.421904 
L 96.352686 155.132606 
L 92.668985 155.132606 
L 90.274574 155.316791 
L 87.511797 158.44794 
L 84.564834 163.236757 
L 84.196463 169.867425 
L 82.354612 173.366944 
L 82.722979 177.971572 
L 84.117753 180.646234 
L 86.51216 183.409012 
L 87.248901 186.54016 
L 87.064716 190.960607 
L 90.564235 193.90757 
L 94.063755 195.381049 
L 97.931641 194.275941 
L 100.878608 192.249901 
L 102.720458 190.592236 
L 102.352087 193.539199 
L 99.405124 195.196864 
L 95.537234 199.064754 
L 92.2219 202.011717 
L 89.643308 206.247978 
L 89.827494 211.220981 
L 92.2219 214.536315 
L 95.905605 216.746536 
L 100.694422 217.114907 
L 109.351126 215.825609 
L 112.482274 212.878646 
L 113.034831 209.010756 
L 110.82461 206.98472 
L 108.061828 206.98472 
L 109.351126 203.301015 
L 112.113904 200.722423 
L 113.955758 197.959645 
L 114.692496 194.644312 
L 114.876681 198.696383 
L 113.587387 202.011717 
L 113.219016 204.774499 
L 114.508314 208.458199 
L 118.00783 211.220981 
L 122.980832 212.32609 
L 126.664537 211.036796 
L 129.6115 208.642385 
L 132.005907 205.879607 
L 134.584503 207.537276 
L 140.110058 208.642385 
L 145.635613 208.089833 
L 151.529539 205.879607 
L 157.423469 202.748459 
L 162.949025 199.248939 
L 165.895988 194.644312 
L 164.054137 191.328978 
L 160.554618 189.855494 
L 159.817876 188.013644 
L 161.843912 187.645273 
L 162.028097 184.69831 
L 159.633691 183.040641 
L 155.7658 180.646234 
L 152.266281 178.251823 
L 150.424431 174.93649 
L 148.582576 171.989527 
L 146.372355 170.147676 
L 146.740726 168.305822 
L 149.319318 169.963491 
L 155.581615 177.699271 
L 160.002062 180.646234 
L 166.080173 183.224826 
L 171.789913 185.987604 
L 179.157323 187.276902 
L 183.325413 186.966978 
L 189.219343 185.493498 
L 194.560712 183.099092 
L 198.796973 182.178164 
L 202.296493 184.2042 
L 206.901121 185.309313 
L 210.216455 183.835829 
L 213.896871 185.149127 
L 217.507721 183.742704 
L 220.899198 181.34933 
L 225.043366 181.809793 
L 230.200551 183.835829 
L 234.436812 184.940942 
L 239.501907 185.309313 
L 248.576462 183.703019 
L 259.738808 179.188087 
L 263.146235 176.241124 
L 266.82994 172.557419 
L 269.408532 168.965807 
L 273.276422 165.742566 
L 277.696869 164.913731 
L 281.748944 165.374195 
L 286.077294 169.0579 
L 281.012203 165.926751 
L 276.591756 166.847679 
L 273.460608 168.873714 
L 270.69783 173.294161 
L 267.935052 176.977866 
L 264.527626 179.740643 
L 260.015087 183.14807 
L 258.357422 185.818755 
L 260.936014 188.028976 
L 264.803904 188.765718 
L 269.132254 188.949903 
L 272.171314 189.410367 
L 267.198311 191.436403 
L 262.3174 190.055016 
L 255.502547 188.949903 
L 249.976992 189.226181 
L 246.38538 191.436403 
L 245.556546 197.146147 
L 246.98132 199.540873 
L 251.175877 203.051184 
L 255.227953 205.906054 
L 260.01677 208.576739 
L 264.713491 210.602774 
L 268.949752 211.707887 
L 272.909735 209.589759 
L 275.027863 207.011162 
L 274.475307 203.327462 
L 274.659493 201.025144 
L 276.132976 202.682813 
L 276.869718 205.44559 
L 277.974826 207.93209 
L 280.737608 210.694867 
L 283.592478 212.905093 
L 288.473384 212.628814 
L 292.064997 211.431609 
L 295.564516 206.91907 
L 296.387598 204.158822 
L 297.032247 200.475117 
L 297.032247 197.436061 
L 298.13736 196.054671 
L 298.597824 198.449077 
L 298.229453 203.145802 
L 296.848062 207.105785 
L 295.28249 210.605304 
L 295.650856 214.565283 
L 297.584804 217.788524 
L 299.896872 218.963136 
L 304.143845 220.345298 
L 308.011735 219.516463 
L 309.761497 217.306242 
L 310.221957 213.990908 
L 312.524275 212.70161 
L 316.115887 211.320223 
L 318.602386 208.00489 
L 320.628422 203.216072 
L 321.825627 199.992831 
L 322.838647 194.835647 
L 322.746554 191.059849 
L 321.733534 188.757531 
L 323.207018 187.652423 
L 325.969796 186.086846 
L 328.548388 183.324069 
L 329.643672 178.848216 
L 329.229254 174.082419 
L 327.986002 171.803131 
L 329.436461 167.037338 
L 330.886919 161.235501 
L 330.265295 154.397627 
L 326.949961 151.289499 
L 322.391376 150.253458 
L 316.796749 151.49671 
L 313.066998 153.983209 
L 311.409333 156.884126 
L 311.409333 167.658962 
L 310.373292 173.046378 
L 308.922834 177.604964 
L 306.43633 176.98334 
L 307.886793 173.668006 
L 310.373292 168.487797 
L 310.373292 162.685959 
L 309.337251 157.298543 
L 307.886793 152.947168 
L 304.778665 150.046252 
L 304.364248 148.595793 
L 303.535414 144.037208 
L 300.634497 140.721874 
L 294.832664 139.893039 
L 290.481289 141.757915 
L 286.751538 144.037208 
L 284.057827 143.001167 
L 287.580372 142.172332 
L 290.688495 139.685833 
L 291.102912 136.370499 
L 292.760581 134.091206 
L 289.134432 127.149726 
L 286.855143 124.352411 
L 283.125392 121.244288 
L 287.269556 124.145204 
L 289.652454 126.838915 
L 291.828142 130.154248 
L 293.2786 133.158766 
L 295.454287 135.438059 
L 299.080433 137.095728 
L 305.503894 137.924558 
L 311.409333 137.40654 
L 317.314772 133.780394 
L 321.044523 128.289373 
L 322.75399 121.347889 
L 319.956679 114.004944 
L 314.711715 105.962669 
L 307.019107 102.116365 
L 294.081531 97.221068 
L 289.535897 96.871401 
L 283.241945 96.172075 
L 290.235227 94.074089 
L 298.277502 94.074089 
L 311.564741 99.668716 
L 316.809701 103.864683 
L 318.907686 109.45931 
L 322.404327 111.557295 
L 326.250632 105.263343 
L 326.600299 97.221068 
L 324.152646 89.878118 
L 322.404327 79.388195 
L 317.858694 69.597601 
L 311.564741 64.352637 
L 304.221792 59.457341 
L 296.878846 58.058685 
L 290.934557 58.408348 
L 288.486908 62.254652 
L 289.535897 68.898271 
L 288.137241 73.793568 
L 284.990267 78.339202 
L 281.143959 80.437188 
L 277.647318 81.48618 
L 283.941275 77.290209 
L 286.738586 71.34592 
L 288.137241 64.002975 
L 282.892282 65.40163 
L 279.045974 67.499616 
L 275.898999 70.646594 
L 277.647318 67.149953 
L 278.346648 63.653312 
L 275.19967 62.604319 
L 268.905717 63.303645 
L 264.360083 65.051967 
L 261.213105 68.898271 
L 261.213105 75.192228 
L 259.464782 74.143235 
L 259.464782 68.898271 
L 264.010416 63.653312 
L 270.304373 61.904989 
L 276.248662 61.205659 
L 281.493626 60.15667 
L 284.290937 56.310362 
L 282.542615 50.366073 
L 277.297655 44.771446 
L 273.801014 40.225812 
L 266.807732 38.827156 
L 261.213105 38.477494 
L 256.667471 42.323798 
L 253.520493 48.967417 
L 249.971095 52.502826 
L 249.369029 45.880096 
L 246.05766 39.859428 
L 240.639061 34.440829 
L 234.317364 29.323263 
L 227.092564 26.613963 
L 221.673961 27.818095 
L 218.362596 32.935661 
L 216.857428 37.752194 
L 214.750198 43.47183 
L 215.352264 51.599728 
L 215.352264 58.824528 
L 215.95433 66.651393 
L 217.158465 72.672062 
L 217.459498 76.886525 
L 220.770863 81.100993 
L 224.082228 84.412358 
L 228.296695 88.325792 
L 224.383265 87.121657 
L 221.372928 82.606161 
L 216.857428 78.391693 
L 213.546063 81.251511 
L 213.395549 85.465975 
L 214.750198 90.433026 
L 213.24503 95.851625 
L 214.449161 99.76506 
L 220.168797 100.818677 
L 217.308979 101.721775 
L 215.653297 103.829009 
L 213.546063 106.237275 
L 209.482114 107.140374 
L 206.02023 106.237275 
L 202.85938 104.581593 
L 199.548015 103.377458 
L 200.300599 99.012476 
L 203.611964 96.152658 
L 205.869712 93.142326 
L 205.568679 88.476307 
L 204.665581 83.208226 
L 202.85938 81.552544 
L 199.246982 82.756675 
L 195.935613 85.014427 
L 191.721149 86.820624 
L 189.162364 87.272176 
L 184.49635 87.272176 
L 182.690149 85.164942 
L 187.356163 85.917526 
L 192.172696 85.164942 
L 195.63458 83.208226 
L 199.246982 80.950474 
L 202.407833 78.843244 
L 203.912997 76.434978 
L 204.364548 72.22051 
L 204.665581 65.898809 
L 204.665581 58.372976 
L 204.816099 51.148177 
L 203.912997 44.826479 
L 203.310931 36.24703 
L 202.558347 30.37688 
L 199.85497 27.297248 
L 196.543605 25.491047 
L 193.37188 24.90207 
L 193.37188 24.90207 
" style="fill:none;stroke:#000000;stroke-linecap:square;stroke-width:1.5;"/>
   </g>
  </g>
 </g>
 <defs>
  <clipPath id="pa659fe20ab">
   <rect height="246.24" width="414.72" x="0" y="0"/>
  </clipPath>
 </defs>
</svg>
