<?xml version="1.0" encoding="utf-8" standalone="no"?>
<!DOCTYPE svg PUBLIC "-//W3C//DTD SVG 1.1//EN"
  "http://www.w3.org/Graphics/SVG/1.1/DTD/svg11.dtd">
<!-- Created with matplotlib (https://matplotlib.org/) -->
<svg height="504.72pt" version="1.1" viewBox="0 0 725.76 504.72" width="725.76pt" xmlns="http://www.w3.org/2000/svg" xmlns:xlink="http://www.w3.org/1999/xlink">
 <defs>
  <style type="text/css">
*{stroke-linecap:butt;stroke-linejoin:round;}
  </style>
 </defs>
 <g id="figure_1">
  <g><image xlink:href="../../img/ctx/potto_cor_cell.json.ctx-50%25.png" width="725.76px" height="504.71999999999997px"/></g>

  <g id="patch_1">
   <path d="M 0 504.72 
L 725.76 504.72 
L 725.76 0 
L 0 0 
z
" style="fill:none;"/>
  </g>
  <g id="axes_1">
   <g id="line2d_1">
    <path clip-path="url(#p6b9aff5b96)" d="M 350.747659 156.811545 
L 354.383281 154.014916 
L 355.781595 151.497951 
L 356.900246 146.184357 
L 356.620581 140.591099 
L 356.620581 135.277505 
L 356.340917 128.845261 
L 355.781595 122.413017 
L 353.823952 117.099424 
L 351.306987 113.743466 
L 347.391708 110.66718 
L 343.196765 109.54853 
L 332.849241 109.54853 
L 327.255983 110.107851 
L 321.662725 110.946844 
L 310.755873 113.743466 
L 299.569357 113.743466 
L 297.052392 113.463809 
L 301.527 112.065494 
L 311.874523 112.065494 
L 318.586432 110.66718 
L 338.4425 107.870551 
L 343.756093 105.912907 
L 347.95103 102.836621 
L 351.306987 98.082349 
L 352.705302 93.887405 
L 354.550184 88.794218 
L 354.550184 77.607701 
L 354.27052 72.294108 
L 353.151869 61.66692 
L 350.634905 55.234676 
L 343.084003 46.565124 
L 338.329738 42.649845 
L 334.134795 40.132881 
L 329.939851 38.734566 
L 326.024572 38.175245 
L 315.956706 34.539622 
L 310.08379 33.420972 
L 305.049861 32.581986 
L 294.143009 32.581986 
L 288.549751 32.861651 
L 282.397164 33.980301 
L 276.926799 34.632425 
L 271.613205 36.310404 
L 266.019947 37.429054 
L 261.265682 38.547705 
L 257.350403 39.666355 
L 252.875795 41.623998 
L 248.401194 43.022313 
L 234.977377 45.818942 
L 229.663776 47.496913 
L 227.985805 47.776578 
L 221.833218 49.454556 
L 214.561988 51.691857 
L 209.807716 53.6495 
L 203.375472 56.166465 
L 198.061878 58.403765 
L 187.994019 63.158037 
L 183.799076 65.395338 
L 179.883796 68.471631 
L 175.129524 72.666575 
L 172.053231 76.861511 
L 170.375259 81.895448 
L 169.81593 86.370049 
L 170.93458 90.564992 
L 177.087167 101.19218 
L 182.121097 106.505774 
L 186.595705 110.700717 
L 191.34997 113.777011 
L 196.104242 117.971954 
L 192.748284 116.853304 
L 189.951655 115.454989 
L 185.756712 112.099032 
L 183.239747 109.302403 
L 179.044803 105.946452 
L 175.129524 102.31083 
L 171.214245 98.115894 
L 167.019301 94.200614 
L 160.104224 88.903328 
L 154.79063 87.225349 
L 150.316022 86.945685 
L 144.163442 87.784671 
L 138.29052 88.903328 
L 132.417597 90.5813 
L 126.544682 91.979615 
L 120.392095 94.216922 
L 116.476816 96.454223 
L 111.442887 98.691523 
L 103.612328 102.327145 
L 99.13772 104.84411 
L 90.468176 110.717025 
L 86.832554 113.513654 
L 83.756267 116.030619 
L 75.925709 123.301856 
L 72.849416 126.657814 
L 70.052786 131.412079 
L 68.095143 135.607022 
L 62.563335 145.178265 
L 60.326035 150.771523 
L 60.326035 156.644446 
L 60.885356 162.237697 
L 62.004006 168.110619 
L 63.681985 173.983542 
L 66.478614 184.331065 
L 69.554908 189.08533 
L 81.58041 201.670161 
L 86.894004 206.983755 
L 93.326248 210.060048 
L 100.038156 211.458363 
L 114.300958 212.017684 
L 120.173881 209.780384 
L 124.928146 206.424433 
L 128.004439 203.907461 
L 130.801069 201.390496 
L 135.555334 198.034546 
L 132.199383 202.509147 
L 129.402754 206.70409 
L 126.606125 209.221055 
L 122.97051 211.178698 
L 119.334895 214.254992 
L 114.860287 218.729592 
L 109.267029 222.924536 
L 105.35175 224.602515 
L 99.758492 223.763529 
L 94.444898 220.687236 
L 88.85164 216.771956 
L 85.495689 213.975327 
L 78.224452 201.110839 
L 74.588837 197.475217 
L 70.673558 194.119267 
L 66.19895 192.161623 
L 61.724349 191.322638 
L 57.249741 191.322638 
L 53.054798 191.881959 
L 49.419183 193.000617 
L 45.224239 195.797238 
L 40.469967 200.271846 
L 36.275023 205.026119 
L 34.037723 209.780384 
L 31.241094 214.814313 
L 29.283458 220.687236 
L 28.164808 226.560158 
L 27.885143 231.594088 
L 28.164808 237.467003 
L 28.164808 243.060261 
L 29.003794 250.331498 
L 31.163343 262.000848 
L 33.120979 271.509385 
L 34.798958 282.41623 
L 37.875252 293.043425 
L 41.231202 303.950269 
L 45.146481 313.17915 
L 49.061761 320.450379 
L 53.816033 328.560602 
L 59.409291 335.552175 
L 65.561871 340.586104 
L 71.155129 343.103069 
L 75.350072 345.48084 
L 81.222988 347.158812 
L 90.731525 350.235105 
L 85.138267 350.51477 
L 82.061981 350.794434 
L 78.985687 352.472406 
L 76.468723 355.269035 
L 74.231422 369.531844 
L 74.231422 377.082739 
L 75.350072 383.794647 
L 80.943331 390.226891 
L 87.09591 394.981163 
L 94.367147 398.337114 
L 101.358713 400.854078 
L 107.790964 403.650707 
L 118.232553 407.054326 
L 125.224118 410.130619 
L 131.936027 413.206905 
L 138.927599 417.681513 
L 145.080186 421.317128 
L 151.792094 426.351065 
L 156.546359 429.707016 
L 164.376918 434.181624 
L 171.088826 436.978253 
L 177.800735 439.495217 
L 185.631293 441.173196 
L 193.182194 442.012182 
L 199.334774 442.571511 
L 207.165333 442.571511 
L 213.038255 440.893532 
L 217.79252 438.656224 
L 222.826457 435.859602 
L 227.580722 431.944316 
L 232.05533 427.190051 
L 236.809595 423.554436 
L 240.165553 419.918814 
L 244.360496 417.961178 
L 248.555433 412.36792 
L 253.869034 407.054326 
L 259.182627 400.342418 
L 263.377564 395.588153 
L 269.779718 384.696346 
L 272.856011 378.543759 
L 276.491626 371.83185 
L 280.406912 366.518257 
L 283.203534 360.924999 
L 284.881513 355.052083 
L 285.161178 349.179161 
L 282.084884 345.263882 
L 277.889941 342.746917 
L 272.856011 342.467252 
L 266.703432 342.467252 
L 260.550845 343.585903 
L 256.635565 344.424896 
L 252.999951 343.585903 
L 250.203321 342.187588 
L 245.449056 340.509616 
L 236.220176 336.594337 
L 249.643993 338.831638 
L 256.355901 337.992652 
L 261.110173 336.035009 
L 264.186467 332.679058 
L 268.38141 329.882429 
L 277.610283 333.797708 
L 282.923877 336.873994 
L 286.839156 344.145231 
L 292.432415 352.255454 
L 298.584994 358.687698 
L 305.576567 365.679271 
L 310.610496 371.272529 
L 316.483419 377.145444 
L 322.076677 382.179381 
L 329.627571 385.535331 
L 336.339479 387.492975 
L 344.170038 389.450611 
L 351.161611 389.450611 
L 355.356554 387.772632 
L 363.466777 388.33196 
L 371.856657 387.772632 
L 380.246544 385.535331 
L 386.678788 381.620052 
L 392.551711 377.704773 
L 398.892422 371.846895 
L 404.206015 366.533302 
L 410.078931 361.219708 
L 414.833203 356.185778 
L 422.384097 347.516234 
L 424.901062 343.321291 
L 424.621405 339.406011 
L 428.816341 338.846683 
L 433.850278 336.329718 
L 449.791059 331.016124 
L 462.780966 325.982195 
L 466.136923 324.304216 
L 467.535238 327.660166 
L 476.204782 327.380509 
L 483.755676 326.261852 
L 491.306578 323.465223 
L 499.696465 319.270286 
L 508.925338 314.795678 
L 514.798253 310.600735 
L 519.83219 307.244784 
L 524.027126 302.770176 
L 526.823755 301.092197 
L 529.061063 301.651526 
L 531.298363 305.007477 
L 534.094992 306.126127 
L 538.010272 305.566805 
L 538.849257 308.922756 
L 537.730607 313.956693 
L 539.967915 317.871972 
L 544.442516 321.507587 
L 550.035774 327.100845 
L 556.188361 332.694103 
L 564.018919 332.97376 
L 569.612177 328.778824 
L 573.527456 324.304216 
L 578.002057 320.948258 
L 583.595315 316.193993 
L 593.959154 308.332082 
L 596.755775 304.416795 
L 600.111733 300.78118 
L 603.747348 297.984551 
L 607.103306 298.823544 
L 609.060942 303.577809 
L 608.781277 308.891403 
L 607.103306 314.764326 
L 603.747348 320.637241 
L 600.391397 327.628813 
L 595.91679 334.340722 
L 592.560839 340.213644 
L 589.76421 344.688245 
L 586.967581 348.883189 
L 585.009938 350.561167 
L 583.891287 347.764538 
L 581.374323 344.128924 
L 577.738708 340.772966 
L 573.543764 339.094994 
L 569.348821 338.81533 
L 564.594548 339.654316 
L 560.679269 341.05263 
L 553.408039 344.967909 
L 553.128375 341.332294 
L 552.289389 337.69668 
L 549.772417 332.942407 
L 546.975795 328.747464 
L 543.899502 325.950835 
L 540.543544 323.154206 
L 532.712986 320.637241 
L 528.518042 319.798255 
L 518.729848 319.798255 
L 513.416254 320.077919 
L 505.865352 320.077919 
L 502.509402 321.476234 
L 497.475465 323.154206 
L 493.000864 325.111849 
L 481.814348 328.747464 
L 471.187161 331.544093 
L 466.712553 332.383086 
L 462.517609 333.501736 
L 458.60233 335.459372 
L 454.687051 337.976337 
L 449.373457 339.654316 
L 441.448833 340.244997 
L 436.974232 339.685668 
L 434.457267 339.126347 
L 431.940302 338.846683 
L 429.143673 339.965333 
L 426.347044 340.524661 
L 426.06738 343.880612 
L 422.991087 349.194206 
L 422.991087 354.5078 
L 424.669065 360.660386 
L 428.864009 367.09263 
L 433.33861 372.406224 
L 437.253896 377.719818 
L 441.448833 384.991055 
L 446.762426 391.143635 
L 452.899968 395.712301 
L 459.332212 403.263202 
L 463.80682 407.458146 
L 469.9594 414.170054 
L 475.832322 420.881963 
L 482.264566 425.915892 
L 486.179845 426.475214 
L 487.57816 431.788807 
L 493.171418 435.144765 
L 503.239277 439.619373 
L 512.46815 440.738023 
L 523.095345 439.89903 
L 533.722532 438.500716 
L 539.875112 435.983751 
L 548.264999 432.068472 
L 554.697243 428.153192 
L 562.248137 424.237913 
L 568.12106 420.04297 
L 576.510947 416.407355 
L 582.943191 413.331061 
L 590.214428 409.136118 
L 595.807679 406.898817 
L 603.078916 403.542867 
L 609.231495 401.305559 
L 625.451941 395.15298 
L 633.002842 389.559721 
L 636.997135 383.950155 
L 640.353093 379.475547 
L 642.031072 373.882289 
L 642.870058 368.568696 
L 642.031072 362.69578 
L 641.192079 358.221172 
L 638.954778 354.026229 
L 637.836128 350.670278 
L 638.39545 347.034656 
L 642.870058 346.19567 
L 648.74298 343.95837 
L 656.01421 340.322748 
L 666.921062 331.653203 
L 670.556677 326.059945 
L 675.310949 320.187023 
L 677.827914 313.475115 
L 681.463529 306.483549 
L 683.980493 299.771641 
L 687.056787 292.500404 
L 691.840547 273.490949 
L 693.520384 265.371843 
L 694.079712 258.380271 
L 695.757691 244.397133 
L 696.317013 237.125896 
L 696.596677 229.854666 
L 696.596677 207.481633 
L 695.757691 201.608718 
L 694.079712 195.735795 
L 692.401733 188.184901 
L 685.689825 175.879735 
L 675.621966 164.693219 
L 670.308373 160.777939 
L 665.833765 159.09996 
L 657.16422 159.09996 
L 653.248934 160.218618 
L 649.333655 162.176254 
L 645.418375 165.252547 
L 642.621746 168.328841 
L 638.706467 171.684791 
L 634.791188 175.600071 
L 631.155573 178.956028 
L 625.562315 187.066251 
L 621.9267 189.862873 
L 619.689392 193.218831 
L 619.130071 195.456131 
L 616.613106 193.218831 
L 611.299512 190.98153 
L 605.706254 189.583216 
L 600.672325 188.184901 
L 596.477381 187.345908 
L 591.443444 184.828944 
L 585.850194 182.591643 
L 583.333229 181.193329 
L 594.519738 185.388272 
L 601.790975 187.625573 
L 608.782548 187.625573 
L 614.935127 185.667937 
L 622.486021 182.871308 
L 628.358944 179.235685 
L 633.672538 175.040749 
L 634.511523 174.201756 
L 638.986131 170.286477 
L 643.740404 165.811869 
L 649.892983 160.498275 
L 654.647248 156.86266 
L 658.842192 153.227045 
L 660.581614 149.91623 
L 661.979928 145.721286 
L 660.861278 141.806007 
L 659.742628 136.77207 
L 657.784985 130.899155 
L 654.429034 125.305897 
L 651.073076 119.992303 
L 647.717126 116.077024 
L 644.081511 112.161745 
L 639.606903 107.687137 
L 634.852638 104.331179 
L 630.37803 102.373543 
L 624.784772 100.975228 
L 622.827128 99.856578 
L 622.267807 97.059949 
L 620.030507 94.542984 
L 615.835563 92.585341 
L 611.640619 90.348041 
L 607.445676 88.949726 
L 603.810061 89.229391 
L 600.733768 86.712426 
L 594.301524 83.356468 
L 587.86928 81.958154 
L 582.276021 80.559839 
L 575.564113 79.441189 
L 570.250519 78.88186 
L 564.936926 78.042874 
L 559.902989 78.042874 
L 555.428388 79.441189 
L 551.233445 81.398832 
L 548.71648 83.636132 
L 547.038501 85.873433 
L 545.360522 90.907362 
L 543.123222 99.017585 
L 535.57232 109.085451 
L 531.377384 115.238031 
L 522.987497 123.068596 
L 529.140076 116.077024 
L 533.614684 110.483766 
L 537.529964 105.170172 
L 543.962208 93.983656 
L 545.080858 88.390397 
L 545.360522 83.356468 
L 543.962208 76.924224 
L 540.885921 73.568266 
L 536.970635 70.49198 
L 532.775699 67.415687 
L 528.860412 64.898722 
L 524.665476 62.941079 
L 519.911203 61.263107 
L 514.317945 59.585128 
L 510.462853 59.320509 
L 507.106896 60.439159 
L 502.632288 59.879838 
L 498.157687 58.481523 
L 493.683079 56.803544 
L 488.928814 55.40523 
L 482.496563 54.006915 
L 471.030389 49.811972 
L 458.725223 47.295007 
L 453.131965 45.617028 
L 447.259049 44.498378 
L 440.826798 43.939056 
L 435.792869 42.820399 
L 432.436918 41.422084 
L 425.72501 40.583098 
L 419.013102 40.02377 
L 410.902879 38.90512 
L 401.674006 38.625462 
L 393.284119 37.786469 
L 385.733217 38.90512 
L 378.741652 41.142427 
L 373.148394 43.379728 
L 368.114464 46.176357 
L 363.639856 49.532307 
L 360.563563 53.447586 
L 357.487277 57.64253 
L 356.368619 61.557809 
L 355.249969 67.151067 
L 354.970305 72.464661 
L 355.249969 77.218933 
L 355.809298 83.651177 
L 357.207612 90.64275 
L 360.004241 96.515665 
L 363.080527 101.829259 
L 367.275471 106.024203 
L 373.148394 107.422517 
L 380.699288 108.541167 
L 387.970525 109.100496 
L 396.360412 108.820832 
L 403.631642 109.939482 
L 410.34355 111.617461 
L 417.614787 113.575104 
L 409.2249 112.456447 
L 404.750292 111.337797 
L 399.436698 110.219146 
L 393.284119 109.659825 
L 387.131532 109.659825 
L 382.936595 109.380161 
L 377.622994 108.541167 
L 368.95345 107.702182 
L 365.038171 108.26151 
L 361.961877 110.498811 
L 359.165248 113.854761 
L 358.046598 117.210719 
L 357.207612 121.685327 
L 357.207612 125.880263 
L 357.766934 131.193864 
L 357.766934 136.787115 
L 358.046598 141.821052 
L 359.165248 147.134646 
L 365.410631 156.89275 
L 369.046253 159.130058 
L 365.690295 158.850393 
L 362.614002 158.0114 
L 359.258051 158.0114 
L 356.181758 157.452079 
L 352.825807 157.172415 
L 350.747659 156.811545 
L 350.747659 156.811545 
" style="fill:none;stroke:#000000;stroke-linecap:square;stroke-width:1.5;"/>
   </g>
  </g>
 </g>
 <defs>
  <clipPath id="p6b9aff5b96">
   <rect height="504.72" width="725.76" x="0" y="0"/>
  </clipPath>
 </defs>
</svg>
