<?xml version="1.0" encoding="utf-8" standalone="no"?>
<!DOCTYPE svg PUBLIC "-//W3C//DTD SVG 1.1//EN"
  "http://www.w3.org/Graphics/SVG/1.1/DTD/svg11.dtd">
<!-- Created with matplotlib (https://matplotlib.org/) -->
<svg height="637.92pt" version="1.1" viewBox="0 0 803.52 637.92" width="803.52pt" xmlns="http://www.w3.org/2000/svg" xmlns:xlink="http://www.w3.org/1999/xlink">
 <defs>
  <style type="text/css">
*{stroke-linecap:butt;stroke-linejoin:round;}
  </style>
 </defs>
 <g id="figure_1">
  <g><image xlink:href="../../img/ctx/rabbit_cor_cell.json.ctx-50%25.png" width="803.52px" height="637.92px"/></g>

  <g id="patch_1">
   <path d="M 0 637.92 
L 803.52 637.92 
L 803.52 0 
L 0 0 
z
" style="fill:none;"/>
  </g>
  <g id="axes_1">
   <g id="line2d_1">
    <path clip-path="url(#pb05c86dfd2)" d="M 385.43298 183.384718 
L 391.872397 180.624972 
L 397.391897 175.105473 
L 401.07156 170.505891 
L 402.911396 164.066474 
L 402.911396 155.787229 
L 402.451437 149.347812 
L 403.371347 130.029568 
L 403.371347 121.290356 
L 403.831306 113.47107 
L 403.831306 105.191816 
L 404.291265 98.752407 
L 402.451437 93.692867 
L 395.092102 83.113827 
L 390.952479 78.974204 
L 383.593144 73.454705 
L 375.313899 70.694951 
L 366.574695 69.775033 
L 359.21536 68.855115 
L 351.856024 68.395164 
L 343.11682 69.315074 
L 335.297534 70.694951 
L 327.018281 73.454705 
L 314.139455 78.054286 
L 300.340702 86.79349 
L 294.361252 91.853031 
L 278.722671 100.592235 
L 273.203172 102.432071 
L 254.804838 105.191816 
L 246.065634 105.651775 
L 240.546134 106.111734 
L 234.566676 107.491611 
L 223.067718 106.111734 
L 212.948637 106.111734 
L 203.749474 107.491611 
L 196.237494 108.756368 
L 185.658455 111.97608 
L 177.37921 115.195785 
L 170.939792 118.875449 
L 161.740629 124.394948 
L 153.001425 130.834365 
L 147.941885 134.973988 
L 142.882344 139.573569 
L 140.582549 142.793282 
L 136.442927 144.63311 
L 130.923428 147.392864 
L 119.42447 156.132068 
L 115.284847 161.191608 
L 110.225307 167.171066 
L 106.085684 175.91027 
L 101.946062 186.48931 
L 100.566185 197.528309 
L 101.026144 208.107349 
L 101.946062 219.146348 
L 100.566185 226.505675 
L 98.726349 233.86501 
L 97.806439 241.224345 
L 96.426562 253.183254 
L 95.506644 263.762294 
L 93.20685 272.961457 
L 92.746899 281.700669 
L 95.966603 289.979914 
L 97.806439 298.259167 
L 97.806439 302.39879 
L 91.367022 318.957288 
L 90.102257 327.848631 
L 88.722388 341.647375 
L 90.102257 353.606292 
L 91.942093 366.485126 
L 96.541675 380.283871 
L 104.820928 389.942993 
L 114.020091 395.922451 
L 126.438958 400.062074 
L 136.098088 400.062074 
L 142.537498 397.762287 
L 145.75721 395.002533 
L 149.896833 392.242788 
L 145.297251 402.821828 
L 141.157629 411.561032 
L 139.777752 419.840277 
L 139.317793 430.879276 
L 141.617588 441.458315 
L 145.75721 450.197519 
L 152.656578 458.016814 
L 161.855749 466.296059 
L 171.97483 474.115353 
L 177.49433 480.094811 
L 182.093911 488.834015 
L 192.672951 497.573219 
L 206.011737 505.392514 
L 218.430612 511.371972 
L 229.929562 514.131718 
L 238.208815 513.671759 
L 244.188274 511.371972 
L 245.108184 518.731299 
L 252.340281 524.94009 
L 264.770262 533.679688 
L 277.649096 539.199187 
L 285.928341 538.739228 
L 291.9078 535.979483 
L 298.807176 537.819318 
L 308.926257 537.359359 
L 319.505297 533.679688 
L 327.324583 527.700229 
L 333.304041 521.720779 
L 340.203418 514.361444 
L 344.802999 505.62224 
L 349.402581 495.503159 
L 350.782457 486.763947 
L 350.322498 478.944661 
L 348.022704 471.125367 
L 344.802999 465.145916 
L 340.663377 457.786581 
L 336.523754 452.267082 
L 329.624378 444.907754 
L 338.823541 447.6675 
L 346.642835 449.507336 
L 358.601744 454.106917 
L 371.020619 457.786581 
L 380.679741 464.225998 
L 386.199241 471.585326 
L 394.938445 476.184907 
L 401.837821 474.345079 
L 408.737197 470.205457 
L 411.036984 467.445703 
L 417.93636 469.745498 
L 425.295687 472.045284 
L 429.435318 467.905662 
L 433.114982 462.846121 
L 438.174522 458.24654 
L 442.314145 455.946745 
L 447.833644 454.106917 
L 454.73302 452.267082 
L 461.17243 449.967295 
L 468.071806 445.827664 
L 472.211428 443.987837 
L 478.650846 443.527878 
L 485.090263 442.148001 
L 490.609762 439.848214 
L 497.96909 437.08846 
L 487.39005 445.827664 
L 481.87055 451.807123 
L 471.751469 463.766039 
L 468.071806 471.585326 
L 467.151888 478.024743 
L 466.691929 485.384078 
L 468.531765 493.203364 
L 473.591305 501.942568 
L 480.490681 511.601698 
L 486.930091 519.880943 
L 497.509131 526.320361 
L 512.227793 528.620147 
L 527.866373 532.759778 
L 539.82529 530.000024 
L 549.484412 525.860402 
L 558.223624 519.420984 
L 564.663033 514.361444 
L 567.882746 508.381986 
L 576.161991 510.221821 
L 585.361154 509.301903 
L 594.100366 505.162281 
L 604.219447 498.722864 
L 612.498692 492.283446 
L 615.718397 489.98366 
L 624.187827 486.687371 
L 631.547154 483.007708 
L 637.526613 479.788003 
L 644.425989 474.268504 
L 652.245275 466.44921 
L 656.844857 460.0098 
L 662.824315 449.890719 
L 668.343814 439.31168 
L 669.263732 434.252139 
L 671.563527 425.512927 
L 674.323273 419.533469 
L 673.403355 404.354847 
L 667.883855 391.016062 
L 663.744233 385.036603 
L 673.863314 391.476021 
L 682.602518 392.395939 
L 690.421812 391.016062 
L 696.861229 388.256316 
L 702.840688 383.196768 
L 704.680515 377.677276 
L 706.98031 372.157777 
L 709.740056 366.178318 
L 713.879678 359.738901 
L 718.47926 351.459656 
L 721.239014 343.640362 
L 723.5388 335.821076 
L 726.182936 325.702999 
L 726.642895 316.503836 
L 726.642895 305.004878 
L 725.722977 294.425839 
L 724.803059 286.606552 
L 723.423182 279.247217 
L 720.663436 271.88789 
L 716.063855 264.528555 
L 712.844142 259.009055 
L 712.384183 249.809892 
L 713.76406 241.990606 
L 713.304101 234.171312 
L 712.384183 225.892067 
L 710.084396 217.612814 
L 709.624437 212.093314 
L 710.084396 205.193946 
L 711.004314 199.214488 
L 711.924224 191.395194 
L 712.384183 184.035866 
L 711.004314 178.056408 
L 707.287616 169.854743 
L 701.308166 160.195621 
L 695.788667 152.376335 
L 688.429331 144.557041 
L 680.610045 138.117623 
L 671.870833 132.598124 
L 664.511506 127.538583 
L 654.852384 122.479043 
L 645.193254 118.33942 
L 635.994091 115.119716 
L 629.094723 112.359962 
L 619.895552 108.22034 
L 608.396602 104.080717 
L 598.277521 101.780922 
L 587.238522 100.401053 
L 565.620484 96.721382 
L 555.501403 95.801472 
L 548.602027 95.801472 
L 537.563028 98.101259 
L 529.743742 96.261431 
L 522.384406 91.661841 
L 512.725284 86.602301 
L 494.326958 77.863097 
L 483.28796 74.183433 
L 473.628838 71.883638 
L 463.969716 70.043811 
L 453.390676 69.123893 
L 443.271595 70.50377 
L 434.072424 72.803556 
L 426.713097 76.023261 
L 418.893802 80.622851 
L 412.914352 85.682391 
L 408.314763 92.581759 
L 406.014976 99.481135 
L 405.095058 115.119716 
L 405.555017 122.939002 
L 404.635099 130.758296 
L 404.17514 140.417418 
L 404.17514 160.195621 
L 404.635099 168.474874 
L 408.774722 173.534415 
L 412.914352 175.834201 
L 419.353761 177.674037 
L 412.454393 178.133996 
L 408.314763 180.433783 
L 405.095058 183.653495 
L 402.335312 184.573405 
L 399.575559 183.193536 
L 397.275772 182.273619 
L 394.516018 181.81366 
L 390.836355 182.733578 
L 385.43298 183.384718 
L 385.43298 183.384718 
" style="fill:none;stroke:#000000;stroke-linecap:square;stroke-width:1.5;"/>
   </g>
  </g>
 </g>
 <defs>
  <clipPath id="pb05c86dfd2">
   <rect height="637.92" width="803.52" x="0" y="0"/>
  </clipPath>
 </defs>
</svg>
