<?xml version="1.0" encoding="utf-8" standalone="no"?>
<!DOCTYPE svg PUBLIC "-//W3C//DTD SVG 1.1//EN"
  "http://www.w3.org/Graphics/SVG/1.1/DTD/svg11.dtd">
<!-- Created with matplotlib (https://matplotlib.org/) -->
<svg height="669.6pt" version="1.1" viewBox="0 0 829.44 669.6" width="829.44pt" xmlns="http://www.w3.org/2000/svg" xmlns:xlink="http://www.w3.org/1999/xlink">
 <defs>
  <style type="text/css">
*{stroke-linecap:butt;stroke-linejoin:round;}
  </style>
 </defs>
 <g id="figure_1">
  <g><image xlink:href="../../img/ctx/ringtailcat_cor_cell.json.ctx-50%25.png" width="829.4399999999999px" height="669.6px"/></g>

  <g id="patch_1">
   <path d="M 0 669.6 
L 829.44 669.6 
L 829.44 0 
L 0 0 
z
" style="fill:none;"/>
  </g>
  <g id="axes_1">
   <g id="line2d_1">
    <path clip-path="url(#pdb39ab834d)" d="M 378.789339 246.918581 
L 387.328656 249.146225 
L 395.125426 247.661129 
L 402.179639 244.319664 
L 407.006208 239.121812 
L 410.718956 233.923969 
L 412.204051 228.354852 
L 412.575325 220.558091 
L 412.204051 214.246417 
L 411.461503 209.79113 
L 413.689147 206.82093 
L 415.545525 201.251813 
L 416.288073 193.08377 
L 416.288073 187.514653 
L 415.174251 180.831714 
L 415.174251 173.406218 
L 414.431703 166.723279 
L 414.431703 147.788276 
L 411.09023 144.818084 
L 407.748756 143.33298 
L 402.550913 142.961706 
L 394.058567 142.654473 
L 384.618279 143.047819 
L 377.538063 144.6212 
L 367.704438 147.374609 
L 360.230876 150.128026 
L 353.544006 154.454825 
L 348.430517 158.388278 
L 343.710373 163.108422 
L 342.136991 165.861839 
L 344.103718 160.355005 
L 348.823862 154.454825 
L 353.937351 149.341336 
L 359.837531 145.014545 
L 365.737711 142.261128 
L 371.637891 141.081092 
L 377.538063 140.687747 
L 383.438243 140.687747 
L 390.518459 141.081092 
L 398.385365 141.867783 
L 406.645617 141.081092 
L 410.185725 136.754293 
L 411.759107 131.640804 
L 413.332488 117.873717 
L 412.545797 111.973537 
L 412.545797 107.646739 
L 409.79238 101.353213 
L 403.8922 93.09297 
L 399.172056 89.552862 
L 394.451912 85.619408 
L 385.798315 82.079301 
L 377.538063 80.505919 
L 370.8512 78.932538 
L 363.377639 79.325883 
L 353.937351 79.325883 
L 348.037171 79.719229 
L 342.136991 80.899265 
L 337.416847 81.29261 
L 327.976559 80.505919 
L 322.863078 81.29261 
L 308.702646 82.865991 
L 302.015776 84.439372 
L 296.508941 87.19279 
L 286.281962 93.486315 
L 282.741855 97.813105 
L 280.381783 102.926595 
L 279.988437 109.22012 
L 281.561819 117.480372 
L 283.528545 126.133969 
L 285.888617 134.787567 
L 288.642034 143.047819 
L 291.002106 151.701408 
L 292.575488 158.388278 
L 294.93556 163.501767 
L 294.542214 169.401947 
L 293.755524 163.895113 
L 291.788797 158.781624 
L 291.002106 154.84817 
L 289.428725 149.734681 
L 287.461998 141.474437 
L 284.708581 133.214185 
L 283.1352 126.527315 
L 281.561819 121.413825 
L 279.988437 115.1203 
L 279.201747 110.006811 
L 278.021711 104.893321 
L 276.448338 99.779832 
L 272.90823 96.239724 
L 268.581431 92.699624 
L 263.467942 91.519588 
L 256.781071 91.519588 
L 250.864435 92.706924 
L 242.992012 94.666351 
L 237.878523 97.026415 
L 233.94507 98.206451 
L 226.864854 100.173177 
L 219.784638 102.926595 
L 213.884458 105.680012 
L 202.870797 110.400156 
L 196.970617 113.940264 
L 191.857128 117.873717 
L 185.956948 122.987207 
L 180.450113 128.494041 
L 176.51666 133.214185 
L 172.976552 138.327675 
L 169.436444 142.654473 
L 167.076372 147.767954 
L 165.896336 152.488098 
L 165.896336 156.028206 
L 169.436444 161.928386 
L 173.763242 166.64853 
L 180.450113 170.188638 
L 188.31702 172.155365 
L 194.2172 172.54871 
L 200.11738 172.54871 
L 191.857128 174.515437 
L 188.710365 176.875509 
L 187.136984 180.808962 
L 190.283746 187.889178 
L 195.397236 193.002667 
L 202.084106 194.576049 
L 196.970617 195.362739 
L 189.10371 193.002667 
L 184.776912 194.182703 
L 176.51666 198.116148 
L 182.810185 194.182703 
L 186.743638 191.429286 
L 188.710365 187.889178 
L 186.743638 184.742415 
L 185.563602 180.808962 
L 184.383566 176.482163 
L 181.630149 173.728746 
L 176.123314 170.188638 
L 171.403171 166.255185 
L 168.256408 162.715077 
L 163.929609 159.961659 
L 160.389501 159.174969 
L 156.456056 159.174969 
L 151.342567 160.355005 
L 144.655696 163.895113 
L 140.328898 167.041875 
L 132.244719 171.18711 
L 123.591122 178.267326 
L 116.904251 184.954196 
L 112.577453 190.854376 
L 107.857309 199.901311 
L 104.710546 207.768217 
L 101.563783 216.81516 
L 99.203711 225.468757 
L 97.63033 233.335664 
L 97.236985 240.022534 
L 97.236985 247.496087 
L 96.056949 253.002922 
L 94.876913 261.263174 
L 95.270258 270.310117 
L 96.450294 279.750405 
L 98.023675 289.584038 
L 100.777093 297.450936 
L 103.923855 304.137807 
L 109.037345 305.711188 
L 115.724215 304.137807 
L 125.164503 299.811008 
L 130.671338 295.484209 
L 135.391482 289.584038 
L 140.504971 284.077203 
L 145.618452 278.963714 
L 151.518632 273.456879 
L 158.992193 272.276843 
L 177.872769 268.736735 
L 177.086079 272.670189 
L 173.152625 273.456879 
L 160.172229 273.456879 
L 154.665395 274.636915 
L 150.338596 276.996987 
L 143.25838 284.077203 
L 138.538245 288.404002 
L 130.277993 296.664245 
L 126.344539 299.811008 
L 121.624395 302.17108 
L 116.510906 304.924497 
L 111.397417 307.284569 
L 107.857309 311.218023 
L 104.710546 315.938167 
L 101.563783 323.411728 
L 98.810366 331.278635 
L 98.023675 349.372512 
L 99.203711 357.239418 
L 101.770073 369.661385 
L 105.310181 381.855091 
L 108.850289 392.86876 
L 113.963779 401.129004 
L 119.470613 407.029183 
L 126.944166 410.962637 
L 133.631037 411.749327 
L 140.317908 410.962637 
L 147.004778 408.99591 
L 152.904958 406.242493 
L 158.018447 403.489076 
L 161.16521 399.555622 
L 164.705318 394.835478 
L 166.672045 390.115343 
L 168.245426 385.395199 
L 168.638771 383.428472 
L 169.425462 380.675055 
L 170.605498 375.561565 
L 170.998843 370.841421 
L 171.39218 362.974515 
L 172.178871 372.021457 
L 171.39218 379.101673 
L 169.818807 386.575235 
L 167.458735 392.475415 
L 165.885354 397.19555 
L 163.525282 400.735658 
L 160.771865 405.455802 
L 163.918627 410.175946 
L 166.278699 411.749327 
L 162.738591 412.929363 
L 158.411793 414.109399 
L 155.658375 411.749327 
L 152.118267 410.175946 
L 148.184814 410.962637 
L 143.46467 411.749327 
L 139.137872 413.716054 
L 134.024382 416.469471 
L 129.697584 420.402925 
L 126.944166 425.123069 
L 125.76413 428.663177 
L 126.550821 435.743393 
L 127.730857 442.823609 
L 131.270965 453.050579 
L 139.531217 464.457594 
L 146.218088 474.291227 
L 155.658375 480.978097 
L 166.278699 489.238349 
L 179.652432 496.318557 
L 187.519339 499.46532 
L 194.20621 503.398773 
L 203.253152 508.118917 
L 214.660167 512.839061 
L 224.493792 515.592478 
L 236.687497 516.379169 
L 249.274548 516.379169 
L 266.581742 515.199133 
L 274.055295 513.625752 
L 282.708893 513.625752 
L 291.36249 512.839061 
L 297.26267 509.298953 
L 303.16285 503.398773 
L 307.096303 496.318557 
L 310.243066 489.631695 
L 311.816447 484.12486 
L 313.783174 479.404716 
L 317.716627 474.684572 
L 319.683354 470.357774 
L 320.86339 466.817666 
L 320.86339 459.344104 
L 325.22315 465.450574 
L 333.876739 473.710826 
L 345.283754 481.184379 
L 353.150661 482.364415 
L 359.05084 488.65794 
L 369.277819 492.984739 
L 379.504789 495.738156 
L 386.978351 496.918192 
L 394.845257 500.4583 
L 403.105509 502.425027 
L 410.579071 501.638336 
L 416.479251 500.064955 
L 422.379431 498.098228 
L 432.999746 496.918192 
L 442.046689 498.491574 
L 450.700286 494.55812 
L 458.173847 489.837976 
L 464.467373 485.117832 
L 468.400826 481.184379 
L 470.367553 477.644271 
L 476.267724 480.397689 
L 480.987868 476.464235 
L 483.741286 480.004343 
L 488.068084 488.264595 
L 492.394883 496.918192 
L 501.835171 512.652006 
L 506.555315 516.585459 
L 511.668804 520.518912 
L 519.929056 522.092294 
L 530.549372 523.665675 
L 536.694295 523.286057 
L 544.167856 523.679402 
L 555.57487 526.039474 
L 571.308684 526.039474 
L 587.042489 523.286057 
L 597.269467 520.139294 
L 609.463173 515.419159 
L 620.083496 511.09236 
L 631.097157 504.798835 
L 640.930791 498.111964 
L 648.797697 491.031748 
L 655.484568 483.164841 
L 660.204712 475.69128 
L 664.531511 467.431036 
L 667.678273 459.957475 
L 669.455191 453.834524 
L 672.208608 447.540999 
L 671.421917 441.247474 
L 670.241881 434.953957 
L 667.488464 430.627158 
L 662.76832 426.693705 
L 655.688104 424.726978 
L 648.214551 423.153597 
L 642.707717 424.333633 
L 638.380918 425.120323 
L 634.054119 427.873741 
L 634.447465 424.333633 
L 634.84081 419.220143 
L 632.480738 414.893345 
L 630.514011 409.38651 
L 628.547285 402.699639 
L 627.760594 391.68597 
L 628.153939 386.572481 
L 628.547285 383.032381 
L 628.547285 390.505934 
L 629.727321 398.372841 
L 631.300702 406.239747 
L 634.84081 414.499999 
L 638.774263 418.826798 
L 643.101062 422.366906 
L 647.427861 422.760251 
L 653.328032 423.546942 
L 658.441522 424.726978 
L 664.341702 425.907014 
L 669.061846 426.693705 
L 674.175335 426.300359 
L 679.682169 424.333633 
L 684.008968 419.613489 
L 688.335767 413.713309 
L 692.662565 406.239747 
L 696.596019 397.58615 
L 699.349436 389.325898 
L 703.676226 372.805403 
L 703.282881 367.691913 
L 701.7095 364.938496 
L 703.282881 360.611697 
L 705.249608 357.071589 
L 705.642953 351.564755 
L 706.036298 343.697848 
L 705.642953 335.437604 
L 702.889536 329.144079 
L 699.742781 325.210626 
L 694.629292 322.457208 
L 688.335767 320.097136 
L 681.648896 316.557028 
L 676.142061 314.590302 
L 670.635227 313.410266 
L 665.915083 311.050194 
L 657.654831 307.903431 
L 651.361314 305.936705 
L 646.64117 304.756669 
L 643.887753 304.363323 
L 639.560954 299.249834 
L 638.774263 296.496417 
L 644.297579 299.431398 
L 651.377795 301.00478 
L 656.491276 302.971506 
L 663.178147 304.151542 
L 667.89829 306.90496 
L 673.405125 311.625104 
L 679.305305 314.378521 
L 684.81214 317.525284 
L 692.285701 320.278701 
L 698.579226 321.065392 
L 704.479398 315.165212 
L 708.806197 308.478341 
L 715.886413 284.090939 
L 716.673103 268.357125 
L 715.886413 251.049931 
L 714.681659 242.764962 
L 711.534897 232.537983 
L 708.388134 224.277731 
L 704.061335 215.624134 
L 694.227702 205.003818 
L 688.720867 198.316947 
L 685.96745 194.383494 
L 682.033997 192.416767 
L 678.493889 190.056696 
L 675.740472 186.909933 
L 671.807026 182.97648 
L 667.873573 179.436372 
L 662.760084 177.86299 
L 655.286523 177.469645 
L 648.599652 178.649681 
L 640.3394 180.223062 
L 633.652529 182.189789 
L 628.53904 184.943206 
L 623.818904 188.483314 
L 620.672142 191.630077 
L 618.705415 195.170185 
L 617.525379 198.316947 
L 620.672142 203.037091 
L 624.99894 205.397163 
L 626.572313 211.69068 
L 623.818904 206.577199 
L 616.345343 201.857055 
L 612.41189 199.890329 
L 607.691746 199.103638 
L 601.39822 200.283674 
L 602.971602 196.743566 
L 604.938328 192.023422 
L 607.691746 188.483314 
L 612.41189 184.156516 
L 612.805235 181.403098 
L 618.705415 180.223062 
L 627.359004 177.86299 
L 635.225911 173.929537 
L 643.092817 168.816048 
L 646.23958 163.702558 
L 646.632925 157.802387 
L 645.452889 151.902207 
L 642.699472 147.575408 
L 639.552709 142.068573 
L 634.832565 136.955084 
L 628.145695 129.874868 
L 623.032214 124.761379 
L 615.558652 120.041235 
L 608.478436 116.107782 
L 601.004875 112.567674 
L 586.057753 106.274157 
L 578.977537 104.30743 
L 572.68402 102.734049 
L 566.390494 102.340703 
L 560.096969 103.127394 
L 555.376825 105.094121 
L 552.623408 108.634229 
L 550.656681 114.141055 
L 548.296609 122.007961 
L 546.723228 129.481523 
L 545.149846 135.775048 
L 542.003084 141.281883 
L 539.643012 146.395372 
L 536.496249 151.115516 
L 538.856321 144.428645 
L 541.609738 138.528465 
L 544.756501 132.23494 
L 547.116573 126.33476 
L 548.296609 120.041235 
L 549.0833 112.961019 
L 548.689954 107.454193 
L 546.723228 102.340703 
L 540.036357 94.867142 
L 534.922868 90.540343 
L 529.416033 87.393581 
L 522.335826 85.820199 
L 516.0423 84.640163 
L 499.915142 85.426854 
L 493.789445 86.010008 
L 488.282611 86.796699 
L 480.809058 86.010008 
L 472.548806 86.010008 
L 466.25528 84.829972 
L 460.748446 83.649936 
L 455.634956 82.863246 
L 448.948086 82.863246 
L 441.474524 84.043282 
L 434.787654 87.190044 
L 428.494137 91.123489 
L 423.380648 95.843633 
L 419.447194 102.137159 
L 416.300432 109.217375 
L 414.72705 115.117555 
L 413.94036 129.277987 
L 415.120396 137.53823 
L 416.693777 143.43841 
L 421.807266 145.798482 
L 427.314101 145.798482 
L 435.574344 145.405137 
L 443.047906 145.798482 
L 451.308158 147.371863 
L 458.388374 149.731935 
L 465.861935 152.485353 
L 470.975424 156.812151 
L 476.482259 162.712331 
L 479.235676 168.612511 
L 480.415712 174.906037 
L 478.05564 166.645785 
L 474.515532 161.925641 
L 469.402043 156.418806 
L 463.501863 152.485353 
L 447.374704 147.371863 
L 439.507798 145.798482 
L 421.413921 146.978518 
L 419.053849 148.551899 
L 416.300432 151.305317 
L 415.513741 155.632115 
L 415.120396 163.499022 
L 416.693777 175.692727 
L 417.087122 182.772943 
L 417.480468 187.493079 
L 417.480468 195.359986 
L 417.087122 200.473475 
L 417.873813 205.586964 
L 419.447194 207.947036 
L 417.873813 210.307108 
L 415.907086 215.420597 
L 415.513741 219.747396 
L 413.547014 225.647576 
L 412.760324 231.547756 
L 411.580288 238.234618 
L 413.153669 242.561417 
L 415.513741 246.101525 
L 417.873813 248.854942 
L 422.987302 250.821669 
L 418.267158 250.821669 
L 412.760324 250.034978 
L 407.646834 249.641633 
L 402.92669 250.821669 
L 392.699712 251.60836 
L 387.192877 250.428324 
L 378.789339 246.918581 
L 378.789339 246.918581 
" style="fill:none;stroke:#000000;stroke-linecap:square;stroke-width:1.5;"/>
   </g>
  </g>
 </g>
 <defs>
  <clipPath id="pdb39ab834d">
   <rect height="669.6" width="829.44" x="0" y="0"/>
  </clipPath>
 </defs>
</svg>
