<?xml version="1.0" encoding="utf-8" standalone="no"?>
<!DOCTYPE svg PUBLIC "-//W3C//DTD SVG 1.1//EN"
  "http://www.w3.org/Graphics/SVG/1.1/DTD/svg11.dtd">
<!-- Created with matplotlib (https://matplotlib.org/) -->
<svg height="1861.2pt" version="1.1" viewBox="0 0 2422.08 1861.2" width="2422.08pt" xmlns="http://www.w3.org/2000/svg" xmlns:xlink="http://www.w3.org/1999/xlink">
 <defs>
  <style type="text/css">
*{stroke-linecap:butt;stroke-linejoin:round;}
  </style>
 </defs>
 <g id="figure_1">
  <g><image xlink:href="../../img/ctx/rm316-nissl.json.ctx-50%25.png" width="2422.08px" height="1861.1999999999998px"/></g>

  <g id="patch_1">
   <path d="M 0 1861.2 
L 2422.08 1861.2 
L 2422.08 0 
L 0 0 
z
" style="fill:none;"/>
  </g>
  <g id="axes_1">
   <g id="line2d_1">
    <path clip-path="url(#p83ce0b5fc2)" d="M 1089.099389 46.19638 
L 1067.872692 48.554905 
L 1041.928945 54.451216 
L 1017.164461 62.706053 
L 988.86219 83.93275 
L 964.097706 109.876497 
L 947.588057 142.895817 
L 934.616196 171.198064 
L 925.182098 203.038122 
L 915.747999 231.340393 
L 915.747999 258.463402 
L 900.417613 284.407149 
L 846.171596 310.350896 
L 829.661947 316.247183 
L 808.43525 306.813109 
L 814.331537 282.048624 
L 842.633809 246.670779 
L 870.93608 216.010008 
L 896.879827 186.528474 
L 913.389475 158.226203 
L 915.747999 124.02762 
L 932.257672 89.829062 
L 942.871008 54.451216 
L 929.899147 36.762306 
L 898.059089 42.658618 
L 863.860506 61.52679 
L 830.84121 82.753488 
L 800.180414 103.980185 
L 735.32106 141.716555 
L 705.839526 162.943252 
L 695.197221 166.515772 
L 687.926791 177.36296 
L 657.265995 196.231133 
L 621.88815 215.09933 
L 577.076231 235.146765 
L 544.056935 255.1942 
L 506.672638 276.674804 
L 485.699824 297.391145 
L 459.365153 316.479848 
L 433.421407 336.527283 
L 411.015447 358.933243 
L 387.430225 386.056252 
L 369.741314 420.254834 
L 363.845003 453.274155 
L 365.024265 486.293451 
L 376.816864 509.878673 
L 394.505799 528.746846 
L 418.091021 541.718731 
L 441.676243 561.766166 
L 465.261465 575.91729 
L 488.846687 587.709913 
L 462.90294 593.606224 
L 435.779931 588.889175 
L 416.911758 560.586904 
L 394.505799 544.077256 
L 375.637602 521.671296 
L 347.335331 511.057935 
L 320.212346 520.492034 
L 301.344149 538.180944 
L 278.938189 545.256518 
L 255.352967 562.945429 
L 231.767745 587.709913 
L 212.899573 623.087758 
L 192.852137 665.541153 
L 178.70099 705.636023 
L 165.729129 741.013868 
L 145.99281 776.899526 
L 132.53738 806.05747 
L 125.461806 833.180479 
L 125.461806 860.303488 
L 132.53738 874.454611 
L 146.688504 894.502046 
L 180.887086 913.370243 
L 209.189358 926.342105 
L 237.491629 938.134728 
L 269.331663 941.672515 
L 298.813196 934.596941 
L 322.398418 920.445793 
L 342.445853 913.370243 
L 376.644436 908.653194 
L 404.946707 899.219096 
L 432.069716 892.143546 
L 463.90975 886.247234 
L 492.212022 874.454611 
L 514.617981 863.841275 
L 573.581048 826.104905 
L 599.524795 803.698945 
L 574.760311 829.642692 
L 545.278777 848.510865 
L 527.589867 866.199799 
L 506.363169 889.785021 
L 487.494972 916.90803 
L 473.343849 948.748064 
L 468.6268 977.050335 
L 460.371988 1008.890394 
L 459.192725 1036.013403 
L 452.117151 1059.598624 
L 441.503791 1066.674174 
L 439.145266 1046.626739 
L 446.22084 1015.965967 
L 449.758627 985.305172 
L 445.041578 958.182163 
L 434.428241 935.776203 
L 402.588183 923.98358 
L 377.823699 925.162842 
L 348.342165 929.879891 
L 322.398418 938.134728 
L 292.916885 944.031015 
L 259.897589 947.568802 
L 231.595317 946.38954 
L 203.293046 927.521367 
L 178.528562 915.728768 
L 145.509241 898.039833 
L 124.282544 886.247234 
L 101.876584 885.067972 
L 78.291362 906.294669 
L 64.140239 932.238416 
L 52.347616 959.361425 
L 49.989091 984.125909 
L 52.347616 1002.994082 
L 54.70614 1019.50373 
L 41.734279 1033.654878 
L 27.583131 1061.957149 
L 28.762394 1098.514232 
L 37.01723 1133.892077 
L 40.862791 1160.268238 
L 47.938364 1182.674198 
L 59.730963 1201.542395 
L 73.882111 1222.769092 
L 95.108808 1239.27874 
L 121.052555 1249.892101 
L 142.279252 1253.429864 
L 162.326687 1247.533576 
L 185.911909 1235.740953 
L 210.676394 1232.203166 
L 228.365304 1248.712839 
L 238.978665 1272.298061 
L 253.129788 1289.986971 
L 273.177224 1305.317357 
L 279.073535 1321.827029 
L 296.762446 1337.157415 
L 321.52693 1353.667063 
L 346.291414 1363.101162 
L 369.876636 1360.742637 
L 388.744833 1357.20485 
L 408.792268 1346.591513 
L 428.839703 1334.79889 
L 437.094539 1335.978153 
L 441.811564 1344.232989 
L 432.37749 1367.818211 
L 420.584867 1390.22417 
L 406.433743 1404.375294 
L 388.744833 1406.733819 
L 362.801086 1406.733819 
L 334.498815 1402.016769 
L 308.555069 1396.120482 
L 290.866158 1386.686384 
L 261.384625 1373.714498 
L 240.157927 1357.20485 
L 223.648255 1347.770776 
L 207.138607 1326.544054 
L 185.911909 1318.289242 
L 165.864474 1312.392931 
L 139.920728 1321.827029 
L 116.335506 1340.695202 
L 112.797719 1368.997473 
L 119.873293 1389.044908 
L 129.307367 1409.092343 
L 121.052555 1436.215352 
L 116.083634 1455.43291 
L 117.262896 1490.810731 
L 131.414019 1528.547101 
L 151.461455 1556.849372 
L 170.329627 1581.613856 
L 199.811161 1605.199078 
L 224.575645 1625.246513 
L 252.877916 1642.935424 
L 272.925351 1664.162121 
L 310.661721 1685.388818 
L 346.039542 1701.898491 
L 388.492961 1716.049614 
L 408.850519 1721.712001 
L 433.615003 1724.070526 
L 463.096513 1750.014272 
L 492.578046 1778.316544 
L 524.418104 1798.363979 
L 558.616687 1813.694364 
L 596.353033 1824.307725 
L 634.089378 1829.024775 
L 672.739332 1826.895548 
L 712.834227 1817.461474 
L 747.032785 1809.206638 
L 776.514319 1786.800678 
L 798.920278 1759.677669 
L 801.278803 1736.092447 
L 791.844705 1720.762061 
L 783.589893 1711.327963 
L 797.741016 1720.762061 
L 814.250688 1727.837611 
L 837.83591 1732.55466 
L 861.421132 1720.762061 
L 883.827092 1704.252389 
L 903.874527 1679.487905 
L 928.639011 1645.289346 
L 938.073086 1606.373714 
L 945.14866 1563.920319 
L 948.686446 1529.721737 
L 940.43161 1500.240227 
L 925.101224 1488.447604 
L 895.619691 1482.551293 
L 923.921962 1475.475743 
L 945.14866 1458.966071 
L 951.044971 1441.27716 
L 967.554619 1429.484561 
L 984.064292 1415.333414 
L 992.319104 1402.361552 
L 1020.621375 1396.465241 
L 1054.819958 1401.18229 
L 1074.867393 1421.229725 
L 1076.046655 1442.456423 
L 1094.683422 1441.110085 
L 1128.882005 1423.421175 
L 1153.646489 1401.015215 
L 1181.94876 1373.892206 
L 1210.251007 1349.127722 
L 1235.015492 1331.438787 
L 1260.959238 1349.127722 
L 1290.440772 1383.32628 
L 1305.147375 1407.505735 
L 1337.113382 1426.356978 
L 1373.670489 1438.149601 
L 1410.227572 1445.225175 
L 1451.501705 1445.225175 
L 1479.803976 1439.328863 
L 1506.926985 1451.121462 
L 1526.97442 1471.168921 
L 1510.464772 1485.320045 
L 1499.851435 1506.546742 
L 1497.49291 1533.669751 
L 1498.672173 1556.075711 
L 1501.030673 1587.915769 
L 1511.15986 1610.743607 
L 1517.467247 1640.384053 
L 1532.797633 1673.403373 
L 1550.486543 1691.092284 
L 1574.071765 1709.960457 
L 1603.553299 1719.394555 
L 1629.497045 1720.573817 
L 1651.903005 1708.781218 
L 1635.393357 1728.828654 
L 1633.034832 1745.338302 
L 1640.110406 1764.206474 
L 1653.082267 1784.253909 
L 1681.384539 1805.480631 
L 1715.583121 1823.169541 
L 1752.140205 1834.96214 
L 1787.51805 1843.216977 
L 1815.829694 1840.997479 
L 1834.697867 1831.563405 
L 1854.745302 1824.487831 
L 1879.509787 1823.308569 
L 1905.453533 1807.978183 
L 1926.680231 1790.289248 
L 1937.293591 1770.241813 
L 1951.444715 1745.477329 
L 1977.388461 1728.967681 
L 2003.332208 1731.326206 
L 2039.889315 1733.68473 
L 2081.163448 1728.967681 
L 2116.541293 1727.788419 
L 2144.84354 1710.099508 
L 2163.711737 1697.127623 
L 2192.014008 1682.976499 
L 2215.59923 1664.108302 
L 2241.542953 1644.060867 
L 2265.128199 1609.862309 
L 2282.817109 1582.7393 
L 2295.78897 1547.361455 
L 2298.147495 1507.266585 
L 2288.713421 1481.322838 
L 2269.845224 1467.17169 
L 2229.750354 1461.275403 
L 2202.627345 1458.916878 
L 2171.966549 1463.633927 
L 2135.409466 1473.068002 
L 2108.286457 1481.322838 
L 2087.059759 1491.936174 
L 2072.908612 1514.342158 
L 2068.191587 1529.672544 
L 2036.351528 1513.162896 
L 2035.172266 1497.832486 
L 2044.606365 1475.426526 
L 2052.861177 1460.096141 
L 2055.219701 1436.510919 
L 2051.681914 1411.746434 
L 2043.427102 1389.340475 
L 2031.634479 1371.65154 
L 2024.558905 1348.066318 
L 2024.558905 1331.55667 
L 2043.427102 1340.990768 
L 2061.116013 1357.500416 
L 2085.880497 1381.085638 
L 2113.003506 1389.340475 
L 2148.381327 1391.698999 
L 2183.759172 1383.444163 
L 2219.136993 1376.368589 
L 2254.514838 1371.65154 
L 2289.892683 1365.755253 
L 2322.911979 1356.321154 
L 2344.138677 1343.349293 
L 2360.648349 1322.122571 
L 2370.082423 1297.358087 
L 2367.723899 1277.310652 
L 2367.988777 1257.766235 
L 2379.781376 1238.898062 
L 2391.573999 1209.416528 
L 2402.187336 1179.934995 
L 2408.083647 1141.019387 
L 2409.26291 1113.896378 
L 2411.621434 1076.160032 
L 2406.904385 1043.140712 
L 2398.649549 1012.479916 
L 2376.243589 986.53617 
L 2360.913203 974.743571 
L 2327.893883 977.102095 
L 2291.3368 981.81912 
L 2264.213791 984.177645 
L 2232.373733 987.715432 
L 2205.250724 993.611743 
L 2171.052165 998.328793 
L 2143.929156 999.508055 
L 2116.806147 988.894694 
L 2086.145352 988.894694 
L 2054.305293 990.073956 
L 2022.465259 1000.687317 
L 2008.314112 1016.017703 
L 2003.597087 1043.140712 
L 2010.672636 1069.084459 
L 2001.238562 1089.131894 
L 1980.01184 1066.725934 
L 1971.757029 1034.885876 
L 1956.426618 1000.687317 
L 1941.096233 977.102095 
L 1926.945109 959.413161 
L 1915.152486 931.110914 
L 1898.518319 905.71417 
L 1879.650146 879.770423 
L 1859.602711 858.543726 
L 1834.838227 830.241454 
L 1865.498998 843.21334 
L 1887.904982 864.440037 
L 1906.773155 883.30821 
L 1929.179115 902.176383 
L 1951.585074 918.686055 
L 1981.066608 925.761605 
L 2016.444429 924.582367 
L 2051.822274 936.374965 
L 2076.586758 950.526089 
L 2106.068292 955.243138 
L 2126.115727 962.318712 
L 2162.67281 961.13945 
L 2202.825519 962.373209 
L 2249.995963 961.193946 
L 2286.553071 947.042823 
L 2310.138293 929.353913 
L 2329.006465 906.947953 
L 2330.185728 865.673796 
L 2314.855342 837.371525 
L 2304.241981 806.710753 
L 2291.27012 792.559606 
L 2271.222661 779.587744 
L 2262.967849 750.106211 
L 2245.278938 718.266153 
L 2225.231479 692.322406 
L 2212.259618 665.199397 
L 2191.03292 639.255675 
L 2166.268436 618.028953 
L 2136.786903 612.132666 
L 2108.484631 615.670429 
L 2088.437196 639.255675 
L 2074.286073 665.199397 
L 2063.067119 682.19942 
L 2054.677519 694.047315 
L 2038.167871 684.613216 
L 2052.318994 662.207256 
L 2067.64938 644.518346 
L 2081.800528 618.574599 
L 2074.724954 573.76268 
L 2060.375777 549.861619 
L 2039.149079 521.559348 
L 2020.280907 490.898576 
L 1995.516422 462.596305 
L 1973.110438 442.54887 
L 1933.060159 398.135794 
L 1911.833461 372.192048 
L 1889.427502 336.814227 
L 1862.304493 303.794906 
L 1837.540009 274.313373 
L 1824.568123 234.218503 
L 1804.520688 198.840658 
L 1771.501368 165.821361 
L 1729.047973 144.59464 
L 1693.670152 128.084992 
L 1661.830094 118.650917 
L 1631.169298 106.858294 
L 1594.612215 96.244933 
L 1561.592894 83.273072 
L 1530.932098 75.018236 
L 1506.167614 67.942686 
L 1481.40313 71.480449 
L 1470.789793 87.990122 
L 1482.582392 118.650917 
L 1493.195753 141.056877 
L 1509.705401 168.179862 
L 1528.573574 191.765108 
L 1549.800271 211.812543 
L 1572.206231 230.680716 
L 1595.791477 249.548889 
L 1613.480388 271.954848 
L 1606.404814 292.002283 
L 1585.178116 289.643783 
L 1550.979534 283.747471 
L 1526.215049 282.568209 
L 1503.80909 268.417061 
L 1506.167614 253.086675 
L 1520.318762 237.75629 
L 1522.677287 216.529592 
L 1509.705401 190.585846 
L 1495.554278 169.359124 
L 1456.638646 113.933868 
L 1431.235701 93.472596 
L 1402.93343 71.066637 
L 1368.734871 54.556989 
L 1338.074075 47.481415 
L 1306.234017 47.481415 
L 1274.393983 53.377726 
L 1247.270974 74.604424 
L 1231.940564 99.368908 
L 1227.223539 126.491917 
L 1233.119827 160.6905 
L 1230.761302 227.908379 
L 1230.761302 259.748437 
L 1236.657614 290.409209 
L 1234.299089 328.145578 
L 1234.299089 352.910063 
L 1237.836876 385.929359 
L 1248.450237 411.873105 
L 1268.497672 436.63759 
L 1294.441418 455.505787 
L 1323.922952 466.119123 
L 1345.149649 481.449509 
L 1364.017822 503.855493 
L 1372.272658 527.440715 
L 1382.885995 555.742962 
L 1379.348208 568.714847 
L 1367.555609 538.054052 
L 1354.583723 513.289567 
L 1340.4326 494.421394 
L 1322.74369 479.091009 
L 1299.158468 464.939861 
L 1277.931746 459.043549 
L 1250.808761 472.015435 
L 1235.478351 489.704345 
L 1235.478351 512.110305 
L 1244.91245 543.950363 
L 1242.553925 568.714847 
L 1241.374663 606.451193 
L 1239.016138 661.876473 
L 1249.629499 696.075056 
L 1261.12905 713.038335 
L 1276.727342 726.560057 
L 1242.52876 726.560057 
L 1214.226488 723.022294 
L 1191.820529 717.125983 
L 1201.254627 692.361499 
L 1205.971676 661.700703 
L 1203.613152 629.860645 
L 1207.150939 587.40725 
L 1207.150939 552.029429 
L 1205.971676 521.368633 
L 1188.282742 500.141936 
L 1185.924241 470.660402 
L 1167.056044 455.330016 
L 1147.008609 455.330016 
L 1123.423387 467.122615 
L 1099.838165 484.811526 
L 1083.328517 508.396748 
L 1070.356632 535.519757 
L 1059.743295 568.539077 
L 1066.818845 528.444207 
L 1084.50778 495.424886 
L 1110.451526 465.943353 
L 1151.725659 439.999606 
L 1168.235307 414.05586 
L 1183.565717 386.932851 
L 1188.386625 348.378012 
L 1190.745149 307.103879 
L 1188.386625 272.905297 
L 1190.745149 235.168951 
L 1193.103674 204.508155 
L 1186.0281 125.497653 
L 1176.594026 96.016144 
L 1155.367304 70.072397 
L 1129.423582 55.921249 
L 1089.099389 46.19638 
L 1089.099389 46.19638 
" style="fill:none;stroke:#000000;stroke-linecap:square;stroke-width:1.5;"/>
   </g>
  </g>
 </g>
 <defs>
  <clipPath id="p83ce0b5fc2">
   <rect height="1861.2" width="2422.08" x="0" y="0"/>
  </clipPath>
 </defs>
</svg>
