<?xml version="1.0" encoding="utf-8" standalone="no"?>
<!DOCTYPE svg PUBLIC "-//W3C//DTD SVG 1.1//EN"
  "http://www.w3.org/Graphics/SVG/1.1/DTD/svg11.dtd">
<!-- Created with matplotlib (https://matplotlib.org/) -->
<svg height="642.96pt" version="1.1" viewBox="0 0 803.52 642.96" width="803.52pt" xmlns="http://www.w3.org/2000/svg" xmlns:xlink="http://www.w3.org/1999/xlink">
 <defs>
  <style type="text/css">
*{stroke-linecap:butt;stroke-linejoin:round;}
  </style>
 </defs>
 <g id="figure_1">
  <g><image xlink:href="../../img/ctx/rockhyrax_cor_cell.json.ctx-50%25.png" width="803.52px" height="642.9599999999999px"/></g>

  <g id="patch_1">
   <path d="M 0 642.96 
L 803.52 642.96 
L 803.52 0 
L 0 0 
z
" style="fill:none;"/>
  </g>
  <g id="axes_1">
   <g id="line2d_1">
    <path clip-path="url(#pa3db7c3bbc)" d="M 381.970138 59.751354 
L 373.09759 56.424155 
L 363.115975 57.533221 
L 354.243427 61.230112 
L 348.328395 70.842035 
L 339.825538 83.041791 
L 332.062056 95.241539 
L 327.62579 106.332228 
L 325.777341 119.271359 
L 324.848592 132.436046 
L 325.976132 142.62108 
L 322.279241 148.16642 
L 315.994517 140.77263 
L 315.994517 128.572882 
L 314.515759 117.11251 
L 316.7339 104.173379 
L 324.12769 93.082698 
L 330.782097 82.3617 
L 336.697129 70.531636 
L 341.872779 57.592513 
L 344.09092 48.350273 
L 335.957746 40.217108 
L 324.497374 37.998967 
L 309.709801 36.520209 
L 294.922221 40.217108 
L 282.352782 45.023066 
L 271.262101 53.156239 
L 261.650169 63.137854 
L 250.189797 69.422569 
L 239.099115 71.64071 
L 222.832777 73.489152 
L 207.675513 81.622325 
L 196.584832 89.75549 
L 186.972909 101.215863 
L 182.643688 111.432596 
L 183.383071 121.783902 
L 185.601204 131.395825 
L 192.994994 140.268373 
L 204.085675 146.553097 
L 217.024806 153.207504 
L 229.224562 158.752845 
L 239.945551 167.255701 
L 248.8181 175.388866 
L 248.078717 182.782657 
L 241.424309 179.82514 
L 232.921453 172.431358 
L 225.157979 165.407252 
L 211.109774 156.534711 
L 187.449653 142.116823 
L 175.619589 141.007756 
L 167.116732 143.225889 
L 157.874501 152.098437 
L 150.111019 165.407252 
L 140.868779 175.758558 
L 129.778098 186.109864 
L 122.753999 198.679303 
L 116.838967 211.988126 
L 117.57835 221.600049 
L 120.166175 234.908871 
L 117.57835 249.32676 
L 112.772385 265.223407 
L 107.227044 281.489737 
L 102.918417 295.343177 
L 99.945289 311.627378 
L 99.205914 327.154333 
L 99.575605 344.899429 
L 103.272496 373.735207 
L 107.70877 387.783404 
L 119.169143 401.46191 
L 126.481199 407.557574 
L 139.844147 414.794332 
L 131.34129 421.079055 
L 123.208125 433.648495 
L 118.402159 446.957317 
L 117.662784 461.375206 
L 120.250609 474.68402 
L 124.307678 484.267402 
L 132.105237 495.830007 
L 142.086851 508.029755 
L 156.874424 522.447643 
L 173.510454 534.277708 
L 187.188959 539.823048 
L 195.691816 540.19274 
L 203.824989 546.477463 
L 217.503495 552.762179 
L 231.551692 556.828762 
L 245.969581 553.871246 
L 260.757161 544.629014 
L 272.217534 535.386774 
L 282.199149 523.926401 
L 285.89604 513.944787 
L 284.047598 503.223797 
L 282.56884 495.460315 
L 282.938524 487.696842 
L 287.744489 476.975844 
L 294.768588 479.93336 
L 307.707719 486.587767 
L 327.670948 493.611874 
L 338.359669 493.995627 
L 347.434953 492.925443 
L 357.046876 498.840475 
L 367.398182 504.755499 
L 379.967622 508.082707 
L 390.688619 509.561465 
L 397.712718 502.537366 
L 398.082409 490.707302 
L 400.300543 474.810655 
L 399.930851 455.586808 
L 398.452093 441.538611 
L 395.124893 397.545562 
L 394.755202 387.194264 
L 398.082409 374.994508 
L 406.95495 376.842957 
L 412.130607 386.824572 
L 412.869982 399.763703 
L 415.088123 431.187305 
L 412.130607 446.344569 
L 410.282157 462.980599 
L 408.433708 478.507554 
L 407.694333 491.076993 
L 407.694333 502.167674 
L 417.675947 505.12519 
L 432.833211 503.276741 
L 443.9239 498.470783 
L 453.166132 491.446685 
L 466.105263 492.555751 
L 476.456569 491.816368 
L 487.98132 490.150085 
L 502.399209 483.495678 
L 513.859581 476.84127 
L 516.817097 484.235053 
L 517.556472 494.95605 
L 519.404922 507.52549 
L 524.210888 520.094929 
L 534.931877 531.924993 
L 548.610383 542.276299 
L 564.50703 549.300398 
L 585.949017 549.670089 
L 602.215356 543.755057 
L 618.481694 539.688475 
L 634.748024 531.924993 
L 648.426538 520.46462 
L 659.886911 511.961764 
L 672.45635 496.065117 
L 679.110757 481.647228 
L 682.437965 463.532448 
L 684.656098 449.114559 
L 683.17734 436.54512 
L 679.110757 426.193814 
L 673.935108 422.127231 
L 666.91101 421.018165 
L 674.3048 419.539407 
L 682.437965 417.690957 
L 692.789271 409.557792 
L 703.510261 396.24897 
L 712.013118 377.025115 
L 717.558458 363.34661 
L 718.667533 337.468348 
L 715.710017 314.177911 
L 714.600942 294.214682 
L 717.497302 280.975155 
L 717.923562 260.05065 
L 714.226662 237.86928 
L 706.093497 218.645425 
L 697.590641 203.488162 
L 690.566542 186.482448 
L 683.542443 167.628285 
L 674.300204 155.058846 
L 665.057972 146.186298 
L 651.74915 143.228782 
L 640.206585 139.83706 
L 629.855279 143.533951 
L 617.655531 150.558049 
L 608.413291 158.321531 
L 598.431676 163.127489 
L 589.559128 165.715321 
L 581.795655 170.521279 
L 574.771556 175.327244 
L 565.899008 178.654452 
L 587.710687 164.975938 
L 598.431676 158.691215 
L 611.001116 151.667116 
L 620.98273 140.206743 
L 629.115904 126.528237 
L 627.267454 114.328482 
L 619.134289 102.498425 
L 612.331006 94.824954 
L 601.826147 87.456435 
L 591.844532 80.802027 
L 577.056952 77.47482 
L 563.378446 69.711346 
L 552.287765 60.099415 
L 539.718317 51.96625 
L 525.67012 46.790601 
L 510.882548 42.724018 
L 496.834343 42.724018 
L 485.37397 46.420909 
L 475.022672 52.705633 
L 472.065156 64.166006 
L 474.283289 73.408237 
L 479.828629 84.86861 
L 487.222419 93.001775 
L 492.398076 103.722773 
L 493.507143 117.031595 
L 491.289002 132.188859 
L 488.331486 144.758298 
L 483.525528 155.848979 
L 483.525528 146.237056 
L 484.634595 129.601034 
L 480.568012 113.704388 
L 478.719563 102.244015 
L 473.174222 85.238302 
L 470.956089 72.299171 
L 465.780432 63.056931 
L 458.386642 59.729732 
L 446.556586 60.469107 
L 432.50838 64.535689 
L 421.78739 75.256687 
L 415.872358 88.565509 
L 412.175467 102.244015 
L 409.587635 117.401279 
L 408.478568 133.297926 
L 409.217951 149.933955 
L 409.217951 178.769725 
L 410.327018 193.187614 
L 405.890744 197.993579 
L 398.496953 192.448239 
L 397.018195 183.205999 
L 399.236337 168.048735 
L 398.866645 145.867365 
L 395.539437 119.61942 
L 397.387887 99.65619 
L 395.909129 83.759544 
L 394.800062 68.971963 
L 388.515339 63.056931 
L 381.970138 59.751354 
L 381.970138 59.751354 
" style="fill:none;stroke:#000000;stroke-linecap:square;stroke-width:1.5;"/>
   </g>
  </g>
 </g>
 <defs>
  <clipPath id="pa3db7c3bbc">
   <rect height="642.96" width="803.52" x="0" y="0"/>
  </clipPath>
 </defs>
</svg>
