<?xml version="1.0" encoding="utf-8" standalone="no"?>
<!DOCTYPE svg PUBLIC "-//W3C//DTD SVG 1.1//EN"
  "http://www.w3.org/Graphics/SVG/1.1/DTD/svg11.dtd">
<!-- Created with matplotlib (https://matplotlib.org/) -->
<svg height="403.2pt" version="1.1" viewBox="0 0 504 403.2" width="504pt" xmlns="http://www.w3.org/2000/svg" xmlns:xlink="http://www.w3.org/1999/xlink">
 <defs>
  <style type="text/css">
*{stroke-linecap:butt;stroke-linejoin:round;}
  </style>
 </defs>
 <g id="figure_1">
  <g><image xlink:href="../../img/ctx/sheep_cor_cell.json.ctx-50%25.png" width="504.0px" height="403.2px"/></g>

  <g id="patch_1">
   <path d="M 0 403.2 
L 504 403.2 
L 504 0 
L 0 0 
z
" style="fill:none;"/>
  </g>
  <g id="axes_1">
   <g id="line2d_1">
    <path clip-path="url(#p6f84358a21)" d="M 256.592634 129.589382 
L 256.915003 126.526861 
L 257.559745 123.464346 
L 257.559745 119.918267 
L 257.720929 116.694562 
L 256.753819 113.309673 
L 254.174856 111.053084 
L 251.595888 109.280042 
L 248.372183 108.957673 
L 239.023441 108.474116 
L 236.444478 108.635305 
L 233.704331 109.280042 
L 230.964179 110.73071 
L 229.352327 112.503747 
L 228.062848 114.599157 
L 227.418106 117.339304 
L 226.289806 123.786714 
L 222.582548 129.589382 
L 220.325954 129.911756 
L 219.197659 128.94464 
L 218.230548 126.688051 
L 218.069359 123.947898 
L 218.391733 120.885383 
L 218.875285 118.145231 
L 219.520027 115.566268 
L 220.487138 112.987305 
L 221.776622 110.73071 
L 223.22729 108.474116 
L 223.872027 106.37871 
L 224.355585 104.122116 
L 225.48388 101.865522 
L 227.095732 100.092485 
L 229.6747 100.576043 
L 232.253663 102.510264 
L 234.99381 105.4116 
L 237.411589 107.345821 
L 239.990552 107.829379 
L 242.891888 108.151747 
L 245.79322 108.151747 
L 249.822851 106.862263 
L 252.563003 104.605674 
L 253.530114 102.187895 
L 253.691298 98.96419 
L 253.691298 95.740485 
L 253.046556 89.454259 
L 251.918261 87.520038 
L 251.273519 85.585812 
L 251.918261 83.490407 
L 253.36893 81.072629 
L 255.141966 78.65485 
L 255.947892 76.075887 
L 255.625519 72.046256 
L 254.658408 68.016624 
L 253.691298 65.921214 
L 252.079446 63.181067 
L 250.951151 59.796178 
L 246.92152 54.315878 
L 244.664925 53.187584 
L 242.730704 53.026399 
L 240.796478 53.509952 
L 239.184626 54.638252 
L 237.733957 56.088915 
L 236.122105 57.861952 
L 235.154994 60.118546 
L 234.349068 62.375141 
L 233.865516 64.309362 
L 233.059589 69.467293 
L 231.93129 71.723882 
L 231.608921 68.500177 
L 232.092479 65.76003 
L 232.253663 62.375141 
L 231.770105 59.31262 
L 230.641811 55.282989 
L 229.029958 51.575731 
L 227.256921 49.802694 
L 224.516769 48.996768 
L 221.454253 48.835579 
L 218.552917 48.190842 
L 215.006844 47.5461 
L 211.621954 47.062542 
L 208.23706 46.740174 
L 205.335729 46.256616 
L 196.792908 45.611874 
L 194.536319 46.095432 
L 191.796167 47.062542 
L 190.02313 47.5461 
L 187.605351 49.157952 
L 185.348757 51.092173 
L 184.220462 53.187584 
L 182.930978 54.96062 
L 182.60861 57.539583 
L 182.447425 60.763288 
L 183.57572 63.825809 
L 184.381646 67.210698 
L 184.220462 69.628477 
L 183.898094 70.917956 
L 182.60861 69.467293 
L 181.319126 67.049514 
L 180.996757 61.085657 
L 180.996757 58.184325 
L 179.546089 54.477063 
L 177.934236 52.059284 
L 175.838831 50.447431 
L 172.776311 49.641505 
L 170.036163 49.802694 
L 167.268755 50.201999 
L 163.883654 51.651165 
L 161.465875 52.940644 
L 159.531649 54.391312 
L 158.080986 55.680791 
L 156.791502 58.09857 
L 156.469134 60.677538 
L 156.469134 65.351906 
L 155.663207 66.802574 
L 153.890166 68.092058 
L 152.278313 67.769685 
L 151.150018 66.480206 
L 150.82765 64.062427 
L 150.505276 58.904496 
L 149.376982 56.003165 
L 148.248682 54.391312 
L 145.830908 52.77946 
L 143.090756 52.295902 
L 139.061125 51.812349 
L 136.643346 51.812349 
L 134.386757 51.973533 
L 132.130162 52.295902 
L 129.39001 53.424202 
L 124.0709 56.164349 
L 121.814305 57.776201 
L 119.235342 60.032796 
L 118.107048 60.516348 
L 116.817564 62.28939 
L 115.52808 64.54598 
L 115.044527 66.963758 
L 115.044527 70.187463 
L 115.366895 73.411168 
L 116.011637 75.828947 
L 115.689269 79.37502 
L 116.011637 82.437541 
L 117.62349 85.82243 
L 122.731157 91.903412 
L 125.470115 94.646488 
L 127.243151 97.709008 
L 130.305672 100.126787 
L 134.980045 102.383382 
L 140.137971 105.445897 
L 149.647902 111.893307 
L 153.032791 114.633459 
L 155.128196 117.534791 
L 155.289385 119.791385 
L 153.193975 123.821016 
L 151.743307 122.370348 
L 149.647902 120.758496 
L 146.585381 117.695975 
L 141.105082 109.636718 
L 138.042561 107.05775 
L 135.141229 105.284713 
L 132.078709 103.995234 
L 128.69382 102.222192 
L 125.30893 101.093898 
L 122.085225 100.771529 
L 119.345078 100.61034 
L 117.088484 99.804414 
L 110.47989 100.449156 
L 107.095 100.932713 
L 103.387738 100.449156 
L 105.041059 98.749526 
L 107.780274 96.651188 
L 109.875679 94.394593 
L 112.454642 91.976815 
L 114.227684 89.236668 
L 114.872421 86.335331 
L 114.550052 83.272815 
L 112.9382 79.887921 
L 110.359237 77.308958 
L 108.102642 74.568811 
L 104.878938 72.473401 
L 101.655233 70.861548 
L 98.753901 70.216811 
L 95.852565 70.700364 
L 93.59597 71.667474 
L 91.500565 73.118143 
L 89.24397 74.246442 
L 87.470934 75.858295 
L 84.730787 79.081995 
L 81.345892 83.595184 
L 79.411671 84.884668 
L 76.671524 86.174147 
L 73.931372 87.624815 
L 71.674782 89.236668 
L 69.257004 90.687336 
L 67.483962 92.782741 
L 65.549741 94.394593 
L 61.358926 101.64793 
L 60.552999 103.74334 
L 59.908257 106.805856 
L 59.585889 109.707192 
L 59.747073 112.930897 
L 60.714184 116.47697 
L 63.293147 119.86186 
L 66.033299 122.763196 
L 68.773446 123.085565 
L 80.056413 120.506602 
L 83.280118 119.539491 
L 85.375524 120.023049 
L 87.30975 122.602012 
L 89.405155 125.986901 
L 90.694639 128.40468 
L 91.178191 130.822458 
L 90.855823 132.273127 
L 89.24397 132.756679 
L 84.730787 130.338901 
L 81.82945 129.210606 
L 78.444561 128.565864 
L 75.059672 128.565864 
L 72.964261 129.210606 
L 70.546483 130.177716 
L 68.128704 130.983643 
L 67.483962 129.855348 
L 65.710925 127.759938 
L 63.937889 125.180975 
L 62.48722 123.569122 
L 60.391815 122.279638 
L 58.457589 121.796086 
L 56.362184 122.118454 
L 54.266774 123.246754 
L 51.848995 125.019791 
L 46.852253 131.4672 
L 46.046327 134.046163 
L 44.688244 137.07787 
L 44.527059 139.656833 
L 43.721133 142.235796 
L 43.398765 145.298316 
L 43.721133 152.712837 
L 44.365875 156.581284 
L 46.138912 160.610915 
L 51.94158 166.413583 
L 56.293579 168.025435 
L 59.517284 167.864251 
L 62.740989 167.058325 
L 64.8364 165.124099 
L 67.737731 162.867509 
L 70.15551 161.255657 
L 72.089736 161.094468 
L 73.701588 161.900394 
L 73.862772 163.512246 
L 72.734473 165.607656 
L 71.606178 166.413583 
L 66.287068 166.735951 
L 63.7081 167.219509 
L 60.806768 168.186619 
L 59.517284 169.476103 
L 58.38899 170.926772 
L 56.777137 173.505735 
L 55.648842 177.051808 
L 55.326469 180.114329 
L 54.681727 183.01566 
L 54.359358 185.433439 
L 55.0041 187.528849 
L 55.648842 188.657144 
L 55.971211 190.59137 
L 56.615953 192.364407 
L 55.0041 194.298628 
L 53.875801 196.555222 
L 53.231064 198.973001 
L 53.231064 201.874332 
L 53.553432 205.581595 
L 54.359358 208.644116 
L 57.297653 217.576392 
L 58.906845 223.06852 
L 61.163439 228.065262 
L 63.742402 231.450156 
L 67.772033 233.545561 
L 70.67337 234.512672 
L 74.058259 234.190303 
L 76.95959 232.900819 
L 79.055001 230.966598 
L 81.472779 227.742893 
L 83.084632 224.519188 
L 84.051742 221.134299 
L 84.5353 217.265852 
L 84.696484 212.752668 
L 83.890558 209.20659 
L 82.117521 206.305258 
L 79.860927 203.726295 
L 77.765517 201.792069 
L 76.637222 199.857848 
L 77.443148 197.278885 
L 79.538553 194.538733 
L 81.311595 192.765696 
L 84.051742 191.637402 
L 86.630705 190.99266 
L 90.499152 186.64066 
L 91.781802 184.48348 
L 92.426544 182.226885 
L 95.32788 182.388069 
L 103.064769 181.743332 
L 106.610843 180.776217 
L 108.383885 178.841996 
L 110.318106 177.391328 
L 111.768774 175.457107 
L 112.69372 173.638776 
L 113.218837 171.041774 
L 114.008988 166.496919 
L 114.455794 163.246653 
L 114.300925 166.134165 
L 113.401739 172.907456 
L 113.417832 174.805717 
L 113.679549 176.419207 
L 114.508921 178.197254 
L 114.891568 180.13148 
L 114.025363 181.904517 
L 112.5747 183.032811 
L 110.47929 183.193996 
L 107.739143 182.710443 
L 105.16018 181.904517 
L 102.581212 182.226885 
L 100.163433 182.871627 
L 97.423286 183.999922 
L 94.683138 185.289406 
L 92.26536 187.062443 
L 90.653507 188.513111 
L 89.202839 190.286148 
L 88.235729 192.220368 
L 88.074544 194.638147 
L 88.719281 200.602004 
L 90.16995 204.148078 
L 92.587728 206.727041 
L 95.005507 208.500078 
L 99.196322 210.273114 
L 97.100917 209.950746 
L 95.32788 210.595488 
L 91.298249 213.013266 
L 89.686397 214.625119 
L 88.396913 216.236971 
L 87.590987 218.171192 
L 86.037417 221.007417 
L 84.425564 224.392306 
L 83.458454 227.93838 
L 82.007785 230.517343 
L 81.363043 233.741048 
L 82.007785 236.642384 
L 83.458454 239.866089 
L 86.198601 242.445052 
L 88.938753 242.767421 
L 96.353274 242.767421 
L 98.932236 241.80031 
L 101.188831 240.8332 
L 103.44542 240.349642 
L 104.734904 239.866089 
L 104.734904 242.122679 
L 103.767794 243.734531 
L 102.317126 245.829941 
L 100.221715 248.086536 
L 92.001269 255.823425 
L 89.58349 257.757651 
L 87.971638 259.530687 
L 86.198601 261.948466 
L 84.103196 267.106392 
L 83.942006 270.007728 
L 84.103196 273.553802 
L 83.619638 275.810396 
L 85.553859 281.935433 
L 87.488085 285.481506 
L 89.632131 288.019827 
L 91.246796 290.608623 
L 94.148132 292.704033 
L 96.727095 295.282996 
L 98.016574 297.861959 
L 99.789611 305.276479 
L 102.20739 309.789668 
L 105.108726 313.335742 
L 108.171247 315.75352 
L 111.072578 317.204189 
L 114.457468 317.687746 
L 117.842362 317.848931 
L 119.937767 317.526557 
L 123.161472 319.783152 
L 127.352287 323.006856 
L 130.898361 323.651598 
L 134.927992 325.585819 
L 139.279997 327.197672 
L 144.115554 328.325972 
L 147.500443 327.68123 
L 151.852443 327.358856 
L 155.398517 326.230561 
L 158.622222 324.779893 
L 161.20119 322.523299 
L 165.553189 316.720631 
L 166.197931 313.819299 
L 166.681484 310.595594 
L 166.72001 307.188922 
L 164.308329 300.574638 
L 162.212919 297.673307 
L 159.633956 295.255528 
L 157.538546 294.449602 
L 155.120767 294.127228 
L 152.702994 292.193007 
L 150.929952 289.614044 
L 148.673362 284.294929 
L 148.673362 280.91004 
L 148.995731 278.653445 
L 148.834547 274.46263 
L 150.446399 276.235667 
L 152.058252 280.587671 
L 157.538546 287.679818 
L 162.374103 292.193007 
L 167.532034 294.933154 
L 172.68996 295.739081 
L 177.364333 295.416712 
L 182.361075 295.416712 
L 185.907149 295.094339 
L 188.647296 293.80486 
L 208.795452 292.515376 
L 213.308641 292.67656 
L 220.886341 294.26354 
L 226.368132 296.037469 
L 232.815542 298.455247 
L 237.328726 299.744731 
L 241.519547 302.001326 
L 245.06562 302.807252 
L 248.128141 305.708584 
L 248.450509 308.126362 
L 251.029472 310.221773 
L 254.736735 311.511252 
L 260.539403 313.284293 
L 266.825629 315.05733 
L 272.144739 316.02444 
L 276.657928 315.540883 
L 279.881628 314.09022 
L 282.299406 312.155994 
L 282.62178 309.577031 
L 281.171112 306.192141 
L 284.394817 305.869768 
L 286.97378 304.741473 
L 289.875116 303.129621 
L 296.000153 299.261174 
L 298.901489 297.81051 
L 301.641636 296.037469 
L 303.737046 294.909174 
L 306.514984 293.602544 
L 309.577504 292.796618 
L 313.284762 291.507134 
L 316.186098 290.862392 
L 319.409803 291.023576 
L 329.080918 291.668318 
L 332.788176 291.507134 
L 337.462549 291.184765 
L 341.653365 291.184765 
L 346.811291 292.151876 
L 352.452774 291.345949 
L 357.127147 288.928171 
L 360.995594 286.349208 
L 363.735742 283.609056 
L 365.18641 281.191277 
L 366.314705 278.773498 
L 368.087746 276.678093 
L 368.087746 280.062982 
L 367.926557 281.997203 
L 364.864041 286.99395 
L 363.413373 289.734097 
L 362.607447 293.28017 
L 361.801521 300.694691 
L 361.962705 304.401954 
L 363.252189 307.464474 
L 365.508778 311.171732 
L 369.054857 314.556621 
L 372.923299 316.490847 
L 377.597672 317.780326 
L 381.627303 317.619142 
L 385.656934 317.135584 
L 390.008934 315.846105 
L 394.199749 314.395437 
L 399.035307 312.300027 
L 403.064938 310.204621 
L 405.482717 307.948027 
L 407.416943 305.691432 
L 408.545238 304.07958 
L 414.670274 304.401954 
L 418.699905 303.434843 
L 421.278873 302.145359 
L 426.436799 296.342691 
L 429.331301 291.167614 
L 429.814859 288.749835 
L 431.587896 283.269536 
L 432.71619 281.335315 
L 434.328043 278.917536 
L 435.617527 275.532647 
L 436.262269 272.631311 
L 437.229379 269.56879 
L 437.229379 264.088495 
L 438.357674 261.670717 
L 439.324785 257.80227 
L 440.33474 250.890625 
L 440.326197 247.441794 
L 439.68146 244.379273 
L 438.553161 241.80031 
L 436.296566 240.027273 
L 434.039977 239.221347 
L 431.299824 239.060163 
L 428.882046 239.543716 
L 426.303083 240.510826 
L 424.530046 240.994384 
L 422.918194 240.188458 
L 421.951083 239.060163 
L 422.273452 236.4812 
L 424.69123 235.514084 
L 426.947825 234.224605 
L 428.398493 231.806827 
L 428.07612 229.066674 
L 426.464267 226.648896 
L 424.207678 225.359417 
L 420.983973 223.102822 
L 424.530046 223.264007 
L 427.914935 223.264007 
L 431.13864 222.135712 
L 434.201161 220.523859 
L 436.457755 218.106081 
L 437.58605 215.365933 
L 437.58605 212.464597 
L 436.850029 209.375289 
L 435.39806 206.456121 
L 433.947392 204.199531 
L 430.884871 196.785011 
L 429.111834 194.689601 
L 426.85524 192.59419 
L 421.697314 190.015227 
L 419.118351 188.886933 
L 416.861757 187.436264 
L 414.766351 186.630338 
L 412.99331 186.630338 
L 410.897904 185.663228 
L 408.318942 184.051375 
L 403.805753 180.505302 
L 402.355084 178.409892 
L 401.710347 175.50856 
L 399.614937 169.06115 
L 399.614937 166.320998 
L 399.453753 162.936109 
L 398.809011 160.195962 
L 397.8419 158.100551 
L 395.74649 154.715662 
L 394.457011 153.426183 
L 392.683974 152.459068 
L 389.782638 150.524847 
L 393.973453 149.880105 
L 396.068864 149.71892 
L 399.776121 149.235363 
L 402.1939 148.590626 
L 403.966937 147.62351 
L 406.5459 146.817584 
L 409.447236 146.495215 
L 412.832125 146.334031 
L 415.08872 146.495215 
L 423.470351 147.945884 
L 427.98354 149.235363 
L 424.759835 148.912994 
L 421.53613 147.945884 
L 418.634793 147.301142 
L 413.638052 146.6564 
L 411.059089 146.6564 
L 408.480126 146.978773 
L 405.901163 147.462326 
L 403.644568 148.429436 
L 402.1939 149.71892 
L 401.065605 151.169589 
L 400.420863 153.264994 
L 400.259679 156.005146 
L 400.743232 158.906478 
L 402.838642 161.48544 
L 405.095237 165.998629 
L 407.835384 170.189445 
L 411.059089 173.896708 
L 414.443978 177.603965 
L 417.990051 180.666486 
L 421.374946 183.406633 
L 424.115093 185.985596 
L 427.661166 188.564564 
L 431.207245 190.176417 
L 433.30265 191.788264 
L 434.914502 192.433006 
L 436.687539 195.334343 
L 438.299392 197.752121 
L 437.493465 200.331084 
L 437.009913 204.844268 
L 437.171097 208.712715 
L 437.977023 211.614052 
L 439.75006 214.515383 
L 442.812581 217.739088 
L 447.003396 220.47924 
L 451.677769 222.091093 
L 455.385027 221.929903 
L 458.608732 220.801609 
L 461.348884 218.867388 
L 463.121921 216.449609 
L 466.990363 211.452867 
L 468.763404 208.390347 
L 470.214068 205.48901 
L 471.342367 201.942937 
L 471.987109 198.719232 
L 471.82592 195.495527 
L 471.82592 191.465896 
L 471.342367 188.081006 
L 470.214068 184.857301 
L 468.924589 182.439523 
L 466.829178 181.472412 
L 464.733773 181.150039 
L 462.315995 181.311228 
L 456.996879 181.794781 
L 455.385027 180.82767 
L 452.322506 175.669744 
L 451.51658 173.090781 
L 451.355396 170.350629 
L 452.000138 168.577592 
L 454.579101 169.06115 
L 456.674511 171.31774 
L 463.121921 175.669744 
L 466.184436 176.153297 
L 468.763964 175.223115 
L 471.836242 172.792388 
L 474.092837 169.568683 
L 476.510615 165.216684 
L 479.895504 157.479795 
L 480.056689 153.772532 
L 480.379057 150.065274 
L 478.928394 146.68038 
L 477.316542 144.746159 
L 473.609279 144.262601 
L 470.385574 144.101417 
L 467.161869 143.295491 
L 462.971053 142.006012 
L 459.908533 139.910602 
L 458.29668 137.976381 
L 454.428238 132.334897 
L 452.494012 130.078302 
L 450.398607 127.338155 
L 449.592681 124.436819 
L 448.303197 121.857856 
L 444.595939 118.472967 
L 441.855787 117.505856 
L 434.602451 115.249262 
L 437.826156 114.926893 
L 439.921566 116.055188 
L 442.500529 117.022298 
L 444.595939 117.183483 
L 446.852529 119.278893 
L 448.62557 121.857856 
L 450.076234 124.436819 
L 450.88216 126.693413 
L 452.494012 129.272376 
L 453.944681 131.367786 
L 455.878902 133.785565 
L 457.974312 136.203344 
L 459.908533 138.621123 
L 462.809869 139.427049 
L 466.033574 139.26586 
L 470.063205 138.137565 
L 472.964537 136.848081 
L 475.221131 134.91386 
L 476.6718 131.690155 
L 477.316542 128.144082 
L 477.155352 124.436819 
L 476.349431 121.857856 
L 474.415205 119.762446 
L 473.28691 117.183483 
L 473.125726 114.443335 
L 473.448095 111.541999 
L 473.28691 108.963036 
L 472.691434 105.861667 
L 472.038558 103.276933 
L 470.426705 100.214412 
L 468.492484 97.313081 
L 465.913521 94.572929 
L 460.594406 89.576187 
L 457.854259 87.641966 
L 452.051591 84.418261 
L 449.956181 83.612335 
L 447.216034 83.451151 
L 444.475881 83.128777 
L 442.058108 81.516925 
L 439.962697 79.099146 
L 437.867287 76.197815 
L 436.255435 73.296478 
L 434.16003 71.039889 
L 431.742251 69.266847 
L 428.034988 67.332626 
L 424.166546 65.881958 
L 420.781652 64.431289 
L 417.235578 63.786552 
L 414.011874 63.464179 
L 411.594095 63.786552 
L 408.531579 65.559589 
L 406.758537 67.332626 
L 405.307874 70.395147 
L 403.857206 74.424778 
L 405.307874 81.516925 
L 405.952611 85.868929 
L 407.080911 89.576187 
L 408.048021 91.832782 
L 405.791427 97.151892 
L 403.696022 98.280192 
L 401.439427 99.73086 
L 399.344017 101.503896 
L 397.248612 104.082859 
L 394.992017 106.661822 
L 385.965644 111.336196 
L 382.902831 112.705296 
L 380.780245 114.000909 
L 378.68484 115.773951 
L 376.58943 117.708172 
L 374.49402 119.964766 
L 372.398615 121.898987 
L 370.947946 123.994398 
L 368.368983 125.767434 
L 364.984094 127.056913 
L 362.243942 126.895729 
L 359.987352 125.767434 
L 358.536684 124.155582 
L 357.2472 122.543729 
L 354.668237 121.898987 
L 351.444532 120.609503 
L 349.187938 119.481209 
L 347.414901 118.352914 
L 351.122164 119.803577 
L 354.184685 121.254245 
L 357.408384 121.737803 
L 360.309721 120.770693 
L 363.211057 119.964766 
L 366.918315 117.869356 
L 370.464389 116.257504 
L 373.365725 114.323283 
L 377.234172 112.389057 
L 380.457877 110.293651 
L 383.359208 108.198241 
L 386.421729 106.26402 
L 389.806618 103.685057 
L 392.869139 101.589647 
L 395.286918 99.333053 
L 397.865881 96.592905 
L 399.800102 93.691574 
L 402.056696 90.951422 
L 402.540254 86.92179 
L 401.895512 84.020459 
L 400.785296 80.936246 
L 399.494884 78.190318 
L 398.2054 76.256097 
L 398.044216 73.032392 
L 398.850142 70.29224 
L 399.817253 67.552093 
L 400.623179 64.650761 
L 401.912663 61.588241 
L 401.106737 58.042162 
L 399.656069 55.140831 
L 393.531032 50.950015 
L 389.662585 49.176978 
L 386.277696 48.371052 
L 382.892807 47.242752 
L 379.185544 46.436826 
L 371.932208 45.792084 
L 368.547319 46.436826 
L 365.807172 47.403937 
L 363.711761 49.176978 
L 361.616351 50.788831 
L 360.326872 52.561868 
L 359.198577 53.851347 
L 356.780799 54.012536 
L 353.879462 53.851347 
L 351.461683 54.979646 
L 350.011015 56.913867 
L 349.366278 58.686904 
L 347.270868 63.200093 
L 347.432052 66.423798 
L 349.849831 67.874461 
L 353.395904 67.874461 
L 356.458425 67.552093 
L 359.520946 68.358019 
L 362.744651 70.131056 
L 362.099909 71.259355 
L 358.71502 72.548834 
L 356.458425 72.871208 
L 352.589978 72.38765 
L 348.88272 72.065282 
L 346.142573 72.226466 
L 340.823458 74.160687 
L 338.889237 74.644245 
L 336.955011 76.256097 
L 334.537232 76.578466 
L 332.260372 77.246729 
L 330.140614 77.079174 
L 328.045203 75.950875 
L 326.272167 75.306133 
L 323.854388 75.306133 
L 321.920167 75.467322 
L 319.663572 76.112059 
L 317.729346 77.079174 
L 316.278683 76.917985 
L 314.666831 74.983764 
L 314.828015 74.177838 
L 316.762236 75.78969 
L 318.535273 75.950875 
L 320.791867 75.144948 
L 326.433351 73.85547 
L 329.334687 72.243617 
L 331.752466 69.664654 
L 334.331429 69.342281 
L 334.976171 67.246875 
L 335.782097 62.088944 
L 335.29854 58.381687 
L 333.847871 56.60865 
L 331.430093 54.835608 
L 329.012314 53.868498 
L 326.272167 53.223756 
L 322.726093 53.062572 
L 311.443126 55.641534 
L 308.380605 55.319166 
L 306.446384 54.674424 
L 303.706232 52.740203 
L 301.288453 50.805977 
L 298.70949 49.838867 
L 295.485785 49.194125 
L 292.423265 48.710572 
L 289.360749 48.871756 
L 286.459412 49.194125 
L 283.719265 50.000051 
L 281.301486 50.967166 
L 279.850818 53.062572 
L 280.173192 55.157982 
L 280.951645 57.805544 
L 278.69505 56.677249 
L 277.083198 56.193692 
L 274.987793 56.999618 
L 273.537125 58.289102 
L 272.40883 59.73977 
L 269.668678 64.414143 
L 266.92853 68.604959 
L 265.800231 70.700364 
L 264.994304 72.956958 
L 265.316678 75.858295 
L 265.155494 77.631332 
L 265.155494 80.04911 
L 265.316678 81.822147 
L 264.510752 83.111626 
L 263.060083 84.562294 
L 260.642305 87.947184 
L 259.51401 90.687336 
L 258.869268 99.552524 
L 259.030452 102.61504 
L 260.158752 105.677561 
L 262.092973 107.772971 
L 264.510752 109.223634 
L 267.412083 109.707192 
L 270.635788 109.546008 
L 273.053567 109.06245 
L 276.277272 107.934155 
L 279.339792 106.644671 
L 280.790461 105.032819 
L 283.208239 101.325561 
L 284.336534 99.874893 
L 285.948387 99.230151 
L 287.721423 100.036077 
L 289.49446 102.61504 
L 292.234612 105.194003 
L 297.07017 111.802602 
L 299.326759 115.50986 
L 300.938612 118.733565 
L 301.905727 121.473712 
L 302.066911 124.05268 
L 301.260985 126.30927 
L 299.971501 128.082306 
L 298.359649 129.210606 
L 297.07017 129.210606 
L 295.135944 125.664528 
L 294.652391 123.407938 
L 294.813575 120.990159 
L 294.168833 118.088823 
L 292.395797 115.50986 
L 290.300386 112.930897 
L 287.882608 110.513118 
L 284.981276 108.740082 
L 282.563497 107.772971 
L 279.82335 107.450598 
L 277.889124 107.772971 
L 272.570014 109.707192 
L 270.152235 110.351934 
L 268.056825 110.674302 
L 265.96142 111.641413 
L 263.86601 113.092081 
L 262.898899 114.381565 
L 262.415341 116.47697 
L 262.254157 118.572381 
L 262.737715 123.407938 
L 262.737715 125.503343 
L 263.060083 127.437569 
L 263.169819 129.975401 
L 263.653372 131.909622 
L 262.202704 136.100437 
L 261.235593 138.357032 
L 261.074409 141.258368 
L 261.235593 144.643257 
L 261.880335 147.866962 
L 263.653372 149.801183 
L 265.426409 150.768294 
L 269.617229 152.218962 
L 271.712634 152.380146 
L 269.939598 152.863704 
L 268.166561 152.863704 
L 266.071151 153.024888 
L 263.169819 153.024888 
L 260.268483 153.186072 
L 258.173078 152.863704 
L 256.561225 152.380146 
L 254.304631 152.218962 
L 250.758552 152.54133 
L 256.722409 150.284741 
L 259.140188 146.577478 
L 260.268483 144.1597 
L 260.268483 141.258368 
L 260.107299 138.6794 
L 259.301372 135.616884 
L 258.173078 133.199106 
L 257.205962 131.426069 
L 256.592634 129.589382 
L 256.592634 129.589382 
" style="fill:none;stroke:#000000;stroke-linecap:square;stroke-width:1.5;"/>
   </g>
  </g>
 </g>
 <defs>
  <clipPath id="p6f84358a21">
   <rect height="403.2" width="504" x="0" y="0"/>
  </clipPath>
 </defs>
</svg>
