<?xml version="1.0" encoding="utf-8" standalone="no"?>
<!DOCTYPE svg PUBLIC "-//W3C//DTD SVG 1.1//EN"
  "http://www.w3.org/Graphics/SVG/1.1/DTD/svg11.dtd">
<!-- Created with matplotlib (https://matplotlib.org/) -->
<svg height="450pt" version="1.1" viewBox="0 0 570.24 450" width="570.24pt" xmlns="http://www.w3.org/2000/svg" xmlns:xlink="http://www.w3.org/1999/xlink">
 <defs>
  <style type="text/css">
*{stroke-linecap:butt;stroke-linejoin:round;}
  </style>
 </defs>
 <g id="figure_1">
  <g><image xlink:href="../../img/ctx/spottedhyena_cor_cell.json.ctx-50%25.png" width="570.24px" height="450.0px"/></g>

  <g id="patch_1">
   <path d="M 0 450 
L 570.24 450 
L 570.24 0 
L 0 0 
z
" style="fill:none;"/>
  </g>
  <g id="axes_1">
   <g id="line2d_1">
    <path clip-path="url(#pe9c05412ce)" d="M 272.507375 21.244593 
L 262.137777 19.315357 
L 256.009026 19.315357 
L 249.557712 20.283055 
L 243.751529 22.541011 
L 238.590475 25.766671 
L 233.751988 30.282589 
L 230.526334 37.7016 
L 231.171464 45.120616 
L 233.106859 50.604232 
L 233.429426 58.99094 
L 232.139161 75.441794 
L 231.816594 81.570545 
L 229.236069 82.538243 
L 226.978107 66.409957 
L 225.042713 57.055546 
L 222.139621 48.991405 
L 218.268832 41.894957 
L 212.785216 36.088773 
L 206.333902 32.863119 
L 197.947195 31.250287 
L 190.528178 31.572854 
L 182.7866 34.153379 
L 175.367589 37.7016 
L 169.883973 44.475481 
L 166.980882 52.862195 
L 167.303444 60.281205 
L 170.851671 66.409957 
L 175.367589 72.86127 
L 177.625552 79.312583 
L 174.077324 77.699756 
L 169.883973 71.893573 
L 163.755222 65.442259 
L 158.271606 62.539167 
L 149.884892 62.861729 
L 141.820752 64.474562 
L 135.369439 70.603308 
L 133.434044 75.764362 
L 135.369439 83.50594 
L 139.56279 91.570086 
L 143.111012 99.311658 
L 146.659239 106.730675 
L 149.884892 115.762512 
L 150.530028 124.149226 
L 148.272066 117.052777 
L 144.401276 109.633766 
L 140.853055 102.537318 
L 135.692001 97.376264 
L 131.176082 91.570086 
L 127.950423 83.50594 
L 124.079634 77.054627 
L 118.596018 72.538702 
L 111.177007 70.603308 
L 103.757991 71.248443 
L 95.048715 74.474097 
L 87.307137 79.635151 
L 79.924479 86.246542 
L 73.795728 93.020423 
L 69.279809 99.149174 
L 66.376717 105.600487 
L 63.151058 112.051806 
L 60.893096 118.825687 
L 57.990004 128.180093 
L 54.062059 134.170122 
L 50.513838 141.266565 
L 49.223573 148.040445 
L 46.643049 154.169197 
L 43.739957 161.910775 
L 40.514297 169.329786 
L 37.933773 177.393932 
L 37.288644 185.780639 
L 37.288644 196.102742 
L 36.966076 208.682806 
L 42.12713 218.682347 
L 48.901011 228.681887 
L 55.674886 236.42346 
L 62.771335 240.294249 
L 69.722235 241.718218 
L 77.786381 239.137694 
L 85.52796 234.62177 
L 93.592106 229.783283 
L 99.398289 224.944797 
L 108.752694 219.783748 
L 114.88144 216.235521 
L 119.397364 212.364732 
L 124.235851 211.074473 
L 122.945586 214.622694 
L 115.849137 220.751446 
L 112.300916 224.944797 
L 108.107565 228.170456 
L 103.269078 231.073548 
L 98.430592 235.912034 
L 98.108024 241.718218 
L 98.753154 248.492099 
L 103.269078 255.588548 
L 107.462429 261.717293 
L 111.978354 266.878347 
L 115.849137 271.716834 
L 119.074797 277.845579 
L 112.946051 272.684531 
L 106.17217 267.200909 
L 100.365986 264.942953 
L 92.624408 264.942953 
L 86.818225 267.846045 
L 82.3023 271.394266 
L 81.979738 279.135844 
L 79.076646 287.84512 
L 79.076646 307.844195 
L 82.624868 316.876038 
L 88.108484 324.295049 
L 95.866599 329.811739 
L 103.608177 337.230755 
L 109.736929 342.714371 
L 114.575415 346.262593 
L 112.317453 348.520555 
L 108.446664 350.778511 
L 106.833837 356.584695 
L 108.124096 364.971409 
L 113.93028 373.035549 
L 121.349296 378.196603 
L 130.058571 381.744824 
L 137.155014 383.680219 
L 147.799684 382.38996 
L 155.86383 383.680219 
L 162.315144 385.938181 
L 170.37929 387.551008 
L 181.991657 385.615613 
L 193.604024 381.099695 
L 201.023035 375.293511 
L 208.442045 372.067852 
L 214.248229 366.261668 
L 218.764148 358.842657 
L 224.570332 351.746209 
L 227.150861 345.617463 
L 227.473423 340.456409 
L 227.150861 333.682528 
L 225.215467 328.52148 
L 220.37698 327.231215 
L 213.925667 328.198912 
L 210.700008 331.747133 
L 212.312835 337.230755 
L 211.990273 343.036933 
L 208.119483 338.198452 
L 201.668164 331.747133 
L 196.184548 325.94095 
L 194.249154 323.682993 
L 201.345603 325.618388 
L 206.829219 324.973252 
L 213.280532 324.973252 
L 220.37698 323.360426 
L 223.280072 321.747599 
L 221.344678 320.134766 
L 226.505726 320.134766 
L 232.31191 323.037858 
L 240.053488 326.263517 
L 246.182239 331.102004 
L 252.310991 337.553317 
L 258.762304 342.714371 
L 264.891055 345.940025 
L 271.664936 346.58516 
L 275.858287 343.682068 
L 279.406509 337.230755 
L 281.019341 331.102004 
L 281.019341 322.715296 
L 280.696774 313.038323 
L 280.051644 304.65161 
L 283.922433 297.555167 
L 287.470655 300.458258 
L 289.406049 306.264442 
L 290.051179 314.00602 
L 290.051179 322.715296 
L 289.728617 330.779436 
L 292.631709 338.843582 
L 297.792757 344.327198 
L 304.695946 345.042057 
L 311.792394 343.429224 
L 317.921146 340.526132 
L 321.791935 335.042516 
L 328.565816 329.881468 
L 335.984826 326.010679 
L 343.726405 323.430149 
L 348.887459 324.075284 
L 348.242323 327.946073 
L 344.048972 333.429689 
L 342.43614 342.784094 
L 342.43614 351.170802 
L 346.952064 360.847775 
L 351.278082 368.813064 
L 357.729395 378.490037 
L 368.051497 386.876745 
L 378.3736 394.295755 
L 387.72801 397.198847 
L 398.372681 396.876285 
L 408.372215 393.973193 
L 418.371756 393.973193 
L 430.306691 392.682928 
L 441.596491 388.489572 
L 451.596025 384.618783 
L 458.429234 378.257396 
L 462.315038 374.061502 
L 462.637605 368.577886 
L 461.34734 365.352226 
L 455.218589 364.384529 
L 456.831422 362.449134 
L 462.315038 358.255778 
L 465.218129 354.707556 
L 468.121221 352.772162 
L 472.314572 353.739859 
L 479.733589 353.417291 
L 486.50747 350.514199 
L 490.700821 345.353151 
L 494.894177 337.611573 
L 493.603912 329.547427 
L 491.023388 322.450984 
L 488.765426 314.386838 
L 487.797729 307.290389 
L 482.959242 293.742628 
L 477.475626 286.646185 
L 471.024313 284.388222 
L 464.250432 284.065655 
L 457.799119 285.678487 
L 451.025238 291.162103 
L 448.767276 287.291314 
L 450.70267 283.420525 
L 458.444248 279.227168 
L 464.902439 276.661545 
L 472.426573 275.184788 
L 479.844477 271.947507 
L 485.328093 267.109021 
L 489.200513 260.351996 
L 489.517801 252.555852 
L 489.195233 243.201441 
L 483.711617 233.847036 
L 477.582866 227.073155 
L 470.163855 221.589539 
L 454.358137 211.589998 
L 447.584256 207.07408 
L 441.778072 202.880723 
L 438.87498 198.687372 
L 444.681164 200.945328 
L 449.842212 205.461253 
L 457.58379 209.977171 
L 465.647936 214.815658 
L 473.066947 216.751052 
L 480.485958 220.621842 
L 489.840368 225.13776 
L 497.259379 226.428025 
L 506.613784 223.202366 
L 514.0328 217.07362 
L 517.708579 211.537724 
L 517.708579 203.796146 
L 516.740882 195.086871 
L 514.160357 186.700163 
L 510.934698 177.990887 
L 507.709038 170.249309 
L 505.451082 162.507731 
L 503.515687 153.475888 
L 500.612595 147.347142 
L 496.419239 140.573261 
L 497.064368 134.767077 
L 502.501886 128.511636 
L 503.469583 119.80236 
L 500.566492 111.415652 
L 496.050573 104.964333 
L 490.244389 99.15815 
L 485.083335 97.222755 
L 475.72893 98.190452 
L 467.66479 103.674074 
L 460.245773 105.932031 
L 464.761698 100.448415 
L 472.50327 94.319663 
L 475.72893 87.545782 
L 475.317884 80.683223 
L 473.705057 72.296516 
L 468.544003 65.845202 
L 460.802425 61.006716 
L 453.060846 58.748754 
L 443.383874 58.103624 
L 436.93256 61.974413 
L 430.481247 68.425726 
L 424.675063 76.167305 
L 419.191447 86.489407 
L 415.799968 94.56778 
L 414.187141 101.341661 
L 411.606617 107.792975 
L 407.735827 114.889423 
L 406.122995 120.695607 
L 405.477865 125.856655 
L 403.865038 120.695607 
L 406.76813 113.599158 
L 409.671222 104.567321 
L 412.251746 97.79344 
L 414.509708 89.406726 
L 415.799968 83.277981 
L 417.090233 78.439494 
L 422.251287 70.375348 
L 425.154379 66.343278 
L 427.412335 60.698376 
L 427.734903 55.537322 
L 427.251054 51.182684 
L 424.509243 47.150614 
L 419.509476 42.795976 
L 411.284049 39.247755 
L 403.219903 36.989792 
L 387.252898 34.0867 
L 380.962866 33.441571 
L 375.156682 34.409268 
L 368.866655 37.151079 
L 364.18945 40.538019 
L 362.092774 46.344203 
L 360.641228 52.311668 
L 361.770207 58.279132 
L 363.54432 64.569165 
L 364.83458 71.665613 
L 366.608693 76.342813 
L 369.027936 81.342586 
L 369.995634 86.987483 
L 370.318196 91.18084 
L 369.189217 84.56824 
L 367.092542 78.762056 
L 361.608926 68.117386 
L 358.383266 61.504792 
L 356.770439 55.698608 
L 355.964023 49.569857 
L 354.576789 41.949763 
L 352.96082 38.223307 
L 349.896447 33.546102 
L 344.574112 29.35275 
L 339.251777 27.256069 
L 333.606874 25.643242 
L 327.63941 24.675545 
L 321.833226 24.836826 
L 315.704475 26.772221 
L 309.73701 30.320448 
L 304.253394 34.191237 
L 300.221318 38.384588 
L 297.479513 43.223074 
L 296.673097 47.25515 
L 296.673097 51.771069 
L 297.156945 57.093404 
L 296.511816 62.415739 
L 297.156945 67.738074 
L 295.544118 73.705539 
L 294.898983 78.060176 
L 294.737702 83.705079 
L 296.834378 89.349976 
L 300.543886 93.382052 
L 304.737243 95.478727 
L 310.059578 96.285144 
L 316.34961 96.607706 
L 322.478356 95.962576 
L 327.961972 95.962576 
L 330.542501 98.220538 
L 331.510199 108.865208 
L 333.943088 112.042677 
L 335.878482 115.752185 
L 338.297725 121.235801 
L 338.620287 126.558136 
L 336.039763 123.332477 
L 334.26565 117.68758 
L 329.58845 111.720109 
L 325.072526 107.526758 
L 319.911477 104.301099 
L 314.750423 101.559294 
L 309.266807 99.78518 
L 304.428321 98.656202 
L 299.105986 99.462612 
L 294.106218 102.688272 
L 290.719278 107.04291 
L 288.138748 111.236261 
L 288.138748 116.397315 
L 288.461316 121.880931 
L 289.267732 127.364552 
L 288.622597 132.686887 
L 288.622597 138.654352 
L 289.429013 144.460536 
L 290.39671 149.62159 
L 291.04184 154.460076 
L 291.04184 158.814714 
L 294.751348 163.169352 
L 299.105986 165.266027 
L 304.26704 166.072444 
L 311.202202 163.975762 
L 306.363715 167.52399 
L 299.267267 168.007832 
L 290.39671 169.136816 
L 285.235656 169.459378 
L 279.75204 169.136816 
L 276.3651 169.136816 
L 272.010462 168.814249 
L 266.365559 168.169119 
L 272.010462 168.007832 
L 276.687667 167.52399 
L 281.364867 165.911157 
L 285.396943 162.846784 
L 287.171051 159.621125 
L 286.687202 155.589055 
L 285.719505 151.395698 
L 285.880791 146.234649 
L 284.429245 140.912314 
L 282.171283 134.783563 
L 281.848716 130.428925 
L 281.07088 125.318571 
L 280.870611 119.963744 
L 278.451368 116.092955 
L 274.580579 112.706014 
L 270.387228 112.544733 
L 264.581044 113.996279 
L 258.129725 117.060652 
L 252.646109 119.318614 
L 248.614039 123.511971 
L 238.732578 131.353529 
L 236.405121 131.523683 
L 240.709572 127.851053 
L 245.870626 123.657696 
L 248.934999 120.109474 
L 253.450918 116.077404 
L 259.09582 111.722767 
L 264.902004 110.109934 
L 272.321015 108.658388 
L 279.256176 104.465037 
L 283.610814 99.465264 
L 286.030057 93.981648 
L 286.191344 89.143161 
L 284.17286 84.273836 
L 283.193701 78.116881 
L 279.645479 65.536816 
L 279.322912 60.0532 
L 282.709852 53.268958 
L 284.161398 46.495077 
L 283.838836 39.882477 
L 281.097025 32.140899 
L 278.032652 26.657283 
L 272.507375 21.244593 
L 272.507375 21.244593 
" style="fill:none;stroke:#000000;stroke-linecap:square;stroke-width:1.5;"/>
   </g>
  </g>
 </g>
 <defs>
  <clipPath id="pe9c05412ce">
   <rect height="450" width="570.24" x="0" y="0"/>
  </clipPath>
 </defs>
</svg>
