<?xml version="1.0" encoding="utf-8" standalone="no"?>
<!DOCTYPE svg PUBLIC "-//W3C//DTD SVG 1.1//EN"
  "http://www.w3.org/Graphics/SVG/1.1/DTD/svg11.dtd">
<!-- Created with matplotlib (https://matplotlib.org/) -->
<svg height="652.32pt" version="1.1" viewBox="0 0 803.52 652.32" width="803.52pt" xmlns="http://www.w3.org/2000/svg" xmlns:xlink="http://www.w3.org/1999/xlink">
 <defs>
  <style type="text/css">
*{stroke-linecap:butt;stroke-linejoin:round;}
  </style>
 </defs>
 <g id="figure_1">
  <g><image xlink:href="../../img/ctx/squirrelmonkey_cor_cell.json.ctx-50%25.png" width="803.52px" height="652.3199999999999px"/></g>

  <g id="patch_1">
   <path d="M 0 652.32 
L 803.52 652.32 
L 803.52 0 
L 0 0 
z
" style="fill:none;"/>
  </g>
  <g id="axes_1">
   <g id="line2d_1">
    <path clip-path="url(#p1aa47dcc73)" d="M 359.838064 37.133142 
L 349.253632 38.947972 
L 337.109721 42.390244 
L 325.520897 46.561967 
L 313.732994 50.065668 
L 300.655931 53.829066 
L 288.218381 57.092707 
L 260.092723 65.276302 
L 238.976595 73.161974 
L 215.950315 85.761554 
L 195.026919 99.465186 
L 175.890954 113.046104 
L 155.93138 129.553506 
L 141.176399 143.765308 
L 127.223515 159.185829 
L 117.032407 171.515683 
L 109.65492 182.310331 
L 100.64771 193.087463 
L 93.370719 206.190134 
L 92.539815 211.627659 
L 93.427938 217.322815 
L 96.448627 220.77072 
L 100.799527 222.51108 
L 105.85231 223.806675 
L 111.502687 224.680303 
L 117.043889 224.679604 
L 121.20315 224.420042 
L 125.400063 223.400842 
L 130.052637 225.559096 
L 135.147259 226.546478 
L 142.00384 226.592945 
L 156.723812 223.158283 
L 169.971784 219.723629 
L 185.182425 216.288966 
L 191.527525 214.065787 
L 194.925708 211.049357 
L 197.102717 208.178589 
L 203.459765 205.967479 
L 209.963143 204.950142 
L 215.095522 203.706888 
L 217.68902 201.379854 
L 220.633053 195.838732 
L 225.837484 192.87723 
L 230.945308 192.256165 
L 236.071436 193.052454 
L 241.083496 194.029454 
L 246.357906 194.717178 
L 252.225065 193.633222 
L 257.310278 192.246346 
L 268.595587 190.283684 
L 278.899566 189.302354 
L 268.595587 190.774354 
L 257.310278 192.737016 
L 250.462037 194.392653 
L 246.515629 196.17167 
L 241.608974 200.587663 
L 238.960846 203.966272 
L 235.230319 206.475649 
L 230.156878 206.633372 
L 225.41701 206.475649 
L 218.845622 207.141542 
L 214.664627 209.229175 
L 211.678369 211.382312 
L 207.139614 214.408143 
L 202.688659 216.95486 
L 196.432726 215.325136 
L 191.365729 215.269597 
L 169.971784 220.21429 
L 156.23315 223.648953 
L 142.284268 227.7495 
L 136.606524 230.518269 
L 126.617983 229.71217 
L 120.178035 228.635879 
L 113.615253 227.907215 
L 109.227841 226.957776 
L 104.713248 225.120945 
L 96.038992 221.370853 
L 92.221075 221.20769 
L 87.38223 222.352184 
L 82.575099 226.139165 
L 79.040912 229.081286 
L 73.547648 236.34636 
L 70.857318 241.312917 
L 68.509071 245.347874 
L 65.552142 251.288819 
L 63.006671 257.504882 
L 58.257739 271.839221 
L 54.192193 287.277765 
L 53.056434 290.702849 
L 53.124251 294.876404 
L 55.383765 297.827163 
L 57.404963 299.212158 
L 56.189864 301.980228 
L 53.825804 305.24681 
L 52.212023 309.515446 
L 53.684023 324.23541 
L 52.451833 333.784868 
L 50.617325 340.076935 
L 53.337023 345.178042 
L 57.009559 350.614602 
L 60.062678 353.184685 
L 65.024486 353.957976 
L 70.628042 353.74911 
L 74.230294 353.74563 
L 79.294471 353.880903 
L 91.894067 351.234839 
L 98.625796 349.236397 
L 104.002984 347.327016 
L 109.759096 345.156612 
L 114.271954 343.226469 
L 118.51912 338.978676 
L 120.738129 335.358312 
L 125.332801 333.532297 
L 129.535106 327.332433 
L 137.368253 322.303073 
L 135.5547 326.442205 
L 134.616992 330.977329 
L 131.340045 335.551045 
L 128.991926 340.983378 
L 126.69905 345.187122 
L 122.157611 346.345685 
L 117.42082 346.15832 
L 112.313101 346.593483 
L 96.642998 351.760518 
L 91.746147 353.825155 
L 87.30285 356.053886 
L 80.53873 358.594825 
L 67.693724 358.629835 
L 62.097617 359.445938 
L 55.917752 360.820327 
L 52.684516 363.094626 
L 49.784428 366.462981 
L 47.083853 370.698681 
L 44.313509 376.738532 
L 42.958212 382.426401 
L 41.775342 398.434367 
L 38.936506 409.947379 
L 37.911383 418.779068 
L 39.179973 430.079259 
L 41.305548 439.211007 
L 44.141098 448.035432 
L 52.973076 464.043398 
L 66.221048 482.259358 
L 79.705536 497.557607 
L 86.745327 502.990969 
L 93.801278 506.569807 
L 101.075817 510.41134 
L 108.71023 513.804275 
L 116.926109 515.063937 
L 123.31329 519.085563 
L 131.615234 521.866771 
L 140.719252 524.423411 
L 147.522608 525.946153 
L 162.820857 525.867272 
L 168.938995 524.39233 
L 173.703154 521.609001 
L 177.467187 518.173753 
L 180.14597 515.137797 
L 181.036816 512.067298 
L 181.092179 508.298299 
L 179.932515 503.684768 
L 177.488263 499.607885 
L 172.677951 492.589612 
L 167.236843 485.019352 
L 163.190581 479.894084 
L 158.325991 474.058215 
L 157.163787 470.945225 
L 155.64491 465.226228 
L 149.336281 454.580528 
L 155.329383 463.2548 
L 158.720214 470.43078 
L 162.627129 475.293908 
L 165.225921 480.218457 
L 169.050516 484.940519 
L 174.72818 493.062821 
L 176.803471 496.565919 
L 178.907657 499.607925 
L 183.165847 505.522153 
L 189.94517 509.760641 
L 195.23107 511.909623 
L 202.327662 514.354084 
L 207.5328 514.511895 
L 213.392622 513.948362 
L 218.730502 512.067298 
L 224.113998 506.62349 
L 229.218479 500.948485 
L 239.12944 486.723208 
L 243.631981 480.904655 
L 248.749969 473.948349 
L 253.453598 468.01891 
L 257.345399 461.094657 
L 263.653988 449.423842 
L 269.962487 437.122144 
L 272.122679 433.383703 
L 273.772032 429.783636 
L 273.589882 426.318769 
L 272.155735 423.136444 
L 267.202493 417.802188 
L 263.853606 414.75774 
L 260.026472 412.913083 
L 254.585405 411.809086 
L 256.079606 407.334733 
L 256.08368 402.58278 
L 252.456165 397.457239 
L 251.441191 391.263032 
L 247.521829 381.634235 
L 245.201336 377.190833 
L 242.849408 374.686286 
L 239.996792 372.695958 
L 236.860573 372.115753 
L 234.634557 373.090278 
L 234.634557 366.475074 
L 235.265441 361.971417 
L 236.78047 358.625913 
L 239.602553 353.454917 
L 243.604725 351.77695 
L 249.538528 350.458325 
L 247.645884 355.907838 
L 248.592206 361.182859 
L 253.601872 367.723238 
L 257.503074 373.248001 
L 265.309898 382.631981 
L 270.407525 386.302324 
L 275.24588 388.861559 
L 278.552044 397.344674 
L 282.185216 403.76565 
L 287.701003 410.492125 
L 293.806445 417.125126 
L 297.956706 421.035344 
L 302.134472 428.293034 
L 303.555497 434.046711 
L 302.991627 437.26513 
L 299.218393 443.351722 
L 296.852606 450.113744 
L 298.272104 457.624945 
L 300.841464 462.554371 
L 307.419528 467.403285 
L 315.343184 468.932858 
L 321.771496 471.582674 
L 326.863965 475.029148 
L 331.31316 481.834095 
L 337.384943 491.612234 
L 345.563041 497.73966 
L 355.780231 501.90588 
L 370.058758 510.533025 
L 377.602268 511.089993 
L 384.653798 510.579548 
L 391.875354 505.333407 
L 398.610507 502.555582 
L 401.983539 501.362346 
L 407.96225 503.835211 
L 411.979497 506.374873 
L 421.210182 509.197438 
L 427.570927 508.099548 
L 432.193272 505.393614 
L 440.050532 496.308776 
L 445.365062 492.788804 
L 449.519887 490.508398 
L 455.670672 488.694725 
L 459.581966 482.004288 
L 462.675582 477.983546 
L 467.893569 474.894759 
L 474.294602 472.779139 
L 481.930059 471.346077 
L 489.130466 469.570274 
L 492.970038 465.274086 
L 493.522032 448.714125 
L 494.626029 438.226148 
L 502.669457 424.583897 
L 513.078592 415.594188 
L 520.017984 402.898218 
L 526.074427 393.635416 
L 530.348286 387.915358 
L 533.318048 382.746025 
L 537.760782 376.165759 
L 545.24823 372.858454 
L 550.772238 371.11897 
L 556.549514 366.551256 
L 562.521894 359.842306 
L 573.009871 363.706297 
L 572.063549 369.471754 
L 573.009871 374.746276 
L 565.281888 370.882285 
L 560.176853 370.877649 
L 555.345906 373.090278 
L 551.429292 376.576695 
L 548.800761 382.001098 
L 547.921381 389.913198 
L 547.065921 394.618234 
L 542.492213 401.163258 
L 540.441935 411.730197 
L 535.059926 413.59225 
L 528.10861 420.356434 
L 523.459773 427.758396 
L 527.641211 439.084725 
L 545.822771 472.149099 
L 555.755154 487.01483 
L 570.142228 508.278203 
L 574.884129 512.456796 
L 579.769667 514.465435 
L 586.605324 514.959271 
L 593.793807 513.707885 
L 598.129111 509.690301 
L 608.314442 499.152594 
L 627.454401 471.869587 
L 635.694989 459.577683 
L 629.01184 470.282506 
L 621.559859 481.913876 
L 609.613043 498.700606 
L 602.841234 505.694412 
L 597.814067 511.564094 
L 596.867745 515.523503 
L 597.814067 519.193564 
L 603.515459 525.121348 
L 611.241738 527.115106 
L 618.532621 527.66195 
L 635.379551 525.989905 
L 650.914397 523.969189 
L 665.818367 521.381887 
L 680.554731 515.299971 
L 694.35186 507.168992 
L 706.997433 495.991008 
L 717.836621 484.982037 
L 724.555197 475.667054 
L 718.908822 469.513666 
L 722.013816 467.029672 
L 730.651985 467.707273 
L 739.289375 459.634291 
L 749.16875 443.149516 
L 754.418942 429.092143 
L 757.467344 415.771348 
L 757.466645 399.375562 
L 756.168743 385.678833 
L 754.328948 371.543695 
L 748.37717 363.998907 
L 738.5536 361.176897 
L 726.657655 362.238411 
L 716.986063 359.6527 
L 707.560259 355.305713 
L 697.173863 346.555918 
L 684.753886 333.514941 
L 676.059904 321.094965 
L 686.616888 334.135942 
L 698.415864 345.934918 
L 706.769467 353.386111 
L 719.437257 358.828931 
L 732.852995 360.895488 
L 741.065725 358.802045 
L 741.490377 356.209697 
L 746.116459 354.816192 
L 750.918552 349.6617 
L 754.304456 337.937829 
L 755.886539 329.167954 
L 758.427141 308.618388 
L 758.958034 294.983546 
L 759.894738 286.319037 
L 759.285011 272.429326 
L 757.410744 261.479092 
L 753.063749 240.986134 
L 746.966961 226.251168 
L 741.095769 218.912379 
L 734.490392 213.548995 
L 727.889933 213.665546 
L 718.106708 216.913526 
L 709.899627 220.241875 
L 699.963644 222.104876 
L 690.742336 222.872808 
L 681.333679 221.336944 
L 671.478675 218.162872 
L 665.296762 215.126956 
L 657.011683 213.566094 
L 647.799752 212.021962 
L 640.27077 208.118839 
L 629.534811 203.730889 
L 616.34691 199.236962 
L 605.387026 195.364044 
L 596.877854 194.78093 
L 587.562871 191.054935 
L 584.484715 188.383167 
L 579.892791 187.182009 
L 576.494464 186.844386 
L 571.416908 186.086948 
L 554.649945 179.876959 
L 570.174907 182.981954 
L 579.380844 186.598902 
L 586.320878 186.707948 
L 594.39386 186.707948 
L 603.708842 192.296936 
L 608.055829 195.40193 
L 617.370812 199.127925 
L 630.411789 203.474912 
L 647.799752 209.063899 
L 657.735727 210.3059 
L 667.67171 215.273888 
L 675.668132 218.700925 
L 681.224642 219.838974 
L 688.701588 221.190985 
L 694.852076 221.055053 
L 701.058713 220.644784 
L 707.62945 219.162217 
L 712.018598 217.975981 
L 715.07015 217.607237 
L 724.329528 214.287864 
L 730.890358 211.5194 
L 732.729647 208.551945 
L 732.11174 203.280315 
L 728.420546 193.282951 
L 719.214609 176.515988 
L 714.383252 171.070782 
L 710.614535 164.861324 
L 705.263373 157.7391 
L 699.654924 152.273468 
L 695.461859 146.237715 
L 687.254408 137.976188 
L 682.174868 133.383115 
L 668.183665 120.991125 
L 652.990435 108.424225 
L 644.587713 102.187351 
L 632.43506 94.262811 
L 618.303626 87.545473 
L 606.190586 79.007711 
L 594.990321 73.916785 
L 583.654646 68.54253 
L 573.25537 62.847855 
L 562.426829 58.46708 
L 550.937297 55.504912 
L 539.11857 52.331064 
L 529.382551 50.024978 
L 494.606624 39.870895 
L 484.147043 37.760579 
L 475.649522 35.376977 
L 467.014743 34.435637 
L 457.967694 34.02593 
L 450.158043 34.134413 
L 441.821731 33.732075 
L 431.758278 34.807466 
L 424.429163 39.396827 
L 420.541276 46.595217 
L 418.806894 51.342734 
L 415.72333 60.700552 
L 412.596906 70.920837 
L 411.641472 78.168611 
L 411.123941 85.284874 
L 411.597415 93.609984 
L 412.328056 101.686822 
L 412.64183 107.336869 
L 415.068027 113.741775 
L 418.363712 119.629223 
L 423.103122 123.165795 
L 428.149622 123.418511 
L 432.549006 122.774224 
L 438.959842 121.084703 
L 442.548435 117.584449 
L 448.857931 117.505648 
L 456.967328 114.338357 
L 461.315794 113.741775 
L 466.881632 113.552739 
L 473.479793 115.092814 
L 464.195167 115.348791 
L 459.012005 116.62867 
L 454.177884 117.605011 
L 449.369886 118.235694 
L 444.283243 119.572904 
L 439.362743 122.876536 
L 433.289514 123.141553 
L 424.164918 124.407796 
L 418.809425 127.71547 
L 416.712929 131.859777 
L 415.470936 142.416761 
L 416.091928 156.69973 
L 416.712929 175.329695 
L 419.196922 193.959652 
L 422.813871 210.252555 
L 422.812578 216.878123 
L 422.154985 223.767592 
L 422.225124 229.893508 
L 424.055872 233.665689 
L 427.183035 237.600189 
L 431.02918 239.951441 
L 441.464502 238.638851 
L 449.004863 236.187569 
L 461.424839 226.251586 
L 471.360822 213.210617 
L 462.04584 226.872586 
L 447.76287 238.050562 
L 432.237899 240.534564 
L 420.438923 241.155556 
L 404.913953 243.018557 
L 393.114977 246.123552 
L 380.074008 241.776557 
L 365.170037 233.703575 
L 357.756931 227.220502 
L 350.266067 215.694611 
L 356.633722 223.855272 
L 365.241197 232.096551 
L 371.56809 236.016917 
L 379.742266 240.207419 
L 387.545378 243.423628 
L 395.708016 243.056435 
L 400.235224 239.809114 
L 405.292885 234.84418 
L 408.018947 228.735588 
L 404.292952 217.557604 
L 402.904028 209.157485 
L 405.606113 200.757359 
L 404.208791 191.171076 
L 402.610164 186.872694 
L 403.787843 181.086546 
L 405.753052 175.950688 
L 406.766805 170.623398 
L 407.213137 164.407689 
L 407.265783 156.532333 
L 406.776954 149.247749 
L 407.114898 143.673048 
L 406.302885 138.434789 
L 404.431182 134.123462 
L 401.808958 130.617785 
L 397.721099 127.57925 
L 391.251983 126.418629 
L 386.214114 125.815563 
L 375.087644 123.937601 
L 369.517024 123.619198 
L 364.186224 122.936246 
L 358.161567 121.273152 
L 361.097244 119.823152 
L 364.82495 117.113538 
L 368.290339 118.429005 
L 373.159606 118.46804 
L 377.895568 119.755247 
L 384.223377 122.338732 
L 388.127223 123.786796 
L 391.994838 125.581731 
L 395.95902 126.217902 
L 399.324965 126.27079 
L 402.489966 123.568343 
L 403.953754 120.640782 
L 405.249157 117.419085 
L 406.395716 112.389861 
L 407.733151 99.400245 
L 407.925176 95.913161 
L 407.89731 92.104918 
L 408.166786 84.348443 
L 409.029172 77.698456 
L 409.418671 69.148794 
L 409.174167 61.003962 
L 407.578248 52.991148 
L 405.97075 47.57568 
L 402.664161 42.533873 
L 398.683298 38.978466 
L 392.570455 36.767404 
L 379.687201 35.693009 
L 370.959029 35.993478 
L 359.838064 37.133142 
L 359.838064 37.133142 
" style="fill:none;stroke:#000000;stroke-linecap:square;stroke-width:1.5;"/>
   </g>
  </g>
 </g>
 <defs>
  <clipPath id="p1aa47dcc73">
   <rect height="652.32" width="803.52" x="0" y="0"/>
  </clipPath>
 </defs>
</svg>
