<?xml version="1.0" encoding="utf-8" standalone="no"?>
<!DOCTYPE svg PUBLIC "-//W3C//DTD SVG 1.1//EN"
  "http://www.w3.org/Graphics/SVG/1.1/DTD/svg11.dtd">
<!-- Created with matplotlib (https://matplotlib.org/) -->
<svg height="380.16pt" version="1.1" viewBox="0 0 570.24 380.16" width="570.24pt" xmlns="http://www.w3.org/2000/svg" xmlns:xlink="http://www.w3.org/1999/xlink">
 <defs>
  <style type="text/css">
*{stroke-linecap:butt;stroke-linejoin:round;}
  </style>
 </defs>
 <g id="figure_1">
  <g><image xlink:href="../../img/ctx/tenrecEcaudatus_cor_cell.json.ctx-50%25.png" width="570.24px" height="380.15999999999997px"/></g>

  <g id="patch_1">
   <path d="M 0 380.16 
L 570.24 380.16 
L 570.24 0 
L 0 0 
z
" style="fill:none;"/>
  </g>
  <g id="axes_1">
   <g id="line2d_1">
    <path clip-path="url(#pa2abbd2c73)" d="M 258.646294 105.184828 
L 266.300221 109.558506 
L 273.22521 112.83876 
L 278.327826 114.661122 
L 279.056775 109.194032 
L 276.505464 104.820359 
L 274.683097 102.633523 
L 274.318628 102.633523 
L 276.14099 95.708534 
L 278.327826 81.129624 
L 278.6923 73.840167 
L 281.608086 66.186234 
L 283.430447 59.625726 
L 281.972555 52.700743 
L 277.234408 46.869172 
L 272.496261 43.953392 
L 261.197605 43.953392 
L 259.010769 42.495499 
L 260.468656 40.308663 
L 261.562074 37.028409 
L 258.646294 33.019205 
L 252.08578 29.010002 
L 243.338435 25.729748 
L 230.946356 21.72055 
L 221.105588 19.898183 
L 210.90035 19.533708 
L 200.695113 20.262657 
L 187.209615 22.813968 
L 173.359649 25.729748 
L 164.612298 29.738951 
L 152.220219 35.570516 
L 145.295236 41.766556 
L 138.370253 48.691539 
L 132.538688 55.616522 
L 125.978174 66.915183 
L 121.968976 77.484895 
L 119.78214 86.961189 
L 116.137411 96.801952 
L 114.315043 100.811156 
L 108.119009 109.194032 
L 100.829552 116.847964 
L 94.997987 123.408472 
L 88.072998 130.69793 
L 84.0638 136.89397 
L 81.876964 144.183428 
L 81.876964 149.650518 
L 83.699325 157.668919 
L 82.605907 164.593903 
L 80.054597 169.696524 
L 75.31645 174.799146 
L 65.333115 188.294063 
L 59.137076 202.14403 
L 55.856821 214.171634 
L 54.763403 227.292657 
L 55.856821 241.871573 
L 58.408132 254.992596 
L 61.688386 264.46889 
L 68.248901 277.225438 
L 79.183087 289.617517 
L 90.846217 298.000393 
L 103.96724 303.103009 
L 113.443534 304.196427 
L 124.377721 301.280647 
L 134.218484 298.000393 
L 139.321105 295.813551 
L 139.68558 289.981986 
L 142.965834 295.449082 
L 142.965834 300.916173 
L 146.975038 305.65432 
L 155.357913 310.027998 
L 163.01184 310.027998 
L 166.292094 308.934574 
L 173.217083 311.485885 
L 180.506535 314.40167 
L 192.169671 313.308252 
L 208.570948 310.756941 
L 224.243282 305.289851 
L 232.261683 301.280647 
L 233.355101 296.906975 
L 232.990627 293.991189 
L 231.532734 289.981986 
L 239.186666 285.608314 
L 252.307689 280.870167 
L 262.148458 276.860963 
L 273.811588 274.674127 
L 282.194464 271.758347 
L 283.287882 268.113618 
L 284.3813 241.871573 
L 287.297085 245.516302 
L 288.390503 249.889974 
L 287.661554 257.179432 
L 286.568136 264.46889 
L 286.93261 270.664929 
L 291.618318 273.740758 
L 302.18803 277.021012 
L 312.393273 280.665741 
L 322.234036 284.674939 
L 323.327454 289.777561 
L 328.430076 298.160436 
L 335.719534 302.16964 
L 345.195828 306.907787 
L 353.943178 310.188041 
L 367.064201 313.103821 
L 376.904964 313.468296 
L 387.110207 313.468296 
L 390.390461 310.188041 
L 394.03519 312.374877 
L 404.240427 312.374877 
L 415.903563 309.459098 
L 429.024586 302.16964 
L 439.229823 296.338075 
L 445.425863 290.870979 
L 450.16401 285.403888 
L 454.902157 281.03021 
L 457.453468 271.918391 
L 457.817937 282.852577 
L 465.471869 285.403888 
L 476.770525 280.665741 
L 486.611293 273.740758 
L 496.087587 264.993408 
L 504.470463 253.694746 
L 509.573084 244.218453 
L 512.853339 234.37769 
L 515.41407 221.44764 
L 516.143019 209.78451 
L 516.143019 198.12138 
L 514.685126 188.280611 
L 511.769341 179.533261 
L 509.582505 170.785916 
L 504.115414 159.85173 
L 500.106211 151.468854 
L 493.910171 143.814921 
L 485.89177 135.067577 
L 475.322058 123.768915 
L 466.493665 117.100512 
L 458.849495 113.465494 
L 451.195569 110.914183 
L 445.364003 105.082618 
L 442.083743 99.251053 
L 441.719275 94.148432 
L 437.710071 87.587917 
L 430.420613 80.298465 
L 421.673269 71.18664 
L 411.8325 63.897183 
L 401.991732 59.887985 
L 387.777291 55.149838 
L 371.011539 50.411691 
L 354.974736 46.038013 
L 342.218183 41.66434 
L 329.09716 40.935397 
L 319.98534 42.757758 
L 308.677259 46.051465 
L 302.481219 51.154086 
L 299.200965 53.705397 
L 291.911507 55.16329 
L 286.808891 58.443544 
L 284.25758 65.368527 
L 282.070744 73.751403 
L 281.70627 82.498753 
L 280.248377 89.788206 
L 278.790484 98.171081 
L 279.519433 104.002652 
L 281.70627 108.376319 
L 284.257575 111.656579 
L 291.182564 111.292104 
L 298.107547 109.105268 
L 293.733874 112.021053 
L 288.631253 112.749997 
L 284.622049 115.301308 
L 279.154959 116.7592 
L 274.416812 115.301308 
L 268.949721 112.749997 
L 262.389207 109.105268 
L 258.646294 105.184828 
L 258.646294 105.184828 
" style="fill:none;stroke:#000000;stroke-linecap:square;stroke-width:1.5;"/>
   </g>
  </g>
 </g>
 <defs>
  <clipPath id="pa2abbd2c73">
   <rect height="380.16" width="570.24" x="0" y="0"/>
  </clipPath>
 </defs>
</svg>
