<?xml version="1.0" encoding="utf-8" standalone="no"?>
<!DOCTYPE svg PUBLIC "-//W3C//DTD SVG 1.1//EN"
  "http://www.w3.org/Graphics/SVG/1.1/DTD/svg11.dtd">
<!-- Created with matplotlib (https://matplotlib.org/) -->
<svg height="421.2pt" version="1.1" viewBox="0 0 518.4 421.2" width="518.4pt" xmlns="http://www.w3.org/2000/svg" xmlns:xlink="http://www.w3.org/1999/xlink">
 <defs>
  <style type="text/css">
*{stroke-linecap:butt;stroke-linejoin:round;}
  </style>
 </defs>
 <g id="figure_1">
  <g><image xlink:href="../../img/ctx/treeshrew_cor_cell.json.ctx-50%25.png" width="518.4px" height="421.2px"/></g>

  <g id="patch_1">
   <path d="M 0 421.2 
L 518.4 421.2 
L 518.4 0 
L 0 0 
z
" style="fill:none;"/>
  </g>
  <g id="axes_1">
   <g id="line2d_1">
    <path clip-path="url(#pef32db10a5)" d="M 42.451304 184.223165 
L 43.197137 196.902374 
L 47.299236 212.192001 
L 52.520084 221.142027 
L 59.978439 231.956644 
L 67.063879 239.787921 
L 74.522234 245.008769 
L 78.251412 243.890015 
L 83.099344 237.92333 
L 88.320192 230.464974 
L 93.168123 223.006618 
L 98.016055 214.429509 
L 99.507725 208.089907 
L 100.626479 202.496138 
L 100.626479 194.664866 
L 101.372316 200.631552 
L 100.999395 206.971153 
L 99.507725 213.310755 
L 96.897301 219.277441 
L 92.422286 225.989959 
L 90.184783 230.464974 
L 85.709768 236.431659 
L 81.607674 241.652507 
L 78.624328 246.500439 
L 79.743082 249.856701 
L 85.336851 256.196302 
L 90.930616 263.281742 
L 97.670013 267.864258 
L 104.755452 271.593435 
L 111.46797 274.203865 
L 117.807577 275.322613 
L 122.282587 276.814289 
L 125.265932 280.170545 
L 130.859696 288.001822 
L 138.318052 293.968507 
L 147.640999 299.562271 
L 156.963941 304.037287 
L 166.286888 306.647711 
L 176.728584 307.766465 
L 186.797369 307.766465 
L 193.882803 305.901873 
L 197.61198 301.426863 
L 198.730734 296.20601 
L 202.832834 285.391398 
L 205.816174 279.051796 
L 206.934928 274.576781 
L 208.053681 271.593435 
L 213.231974 272.881291 
L 221.436162 277.729223 
L 232.623695 280.712563 
L 238.963302 282.577155 
L 244.557066 285.933416 
L 252.015422 287.798003 
L 260.219615 288.54384 
L 268.423803 289.662594 
L 275.509242 291.900097 
L 282.221766 291.154264 
L 285.950943 292.645934 
L 289.3072 293.391772 
L 291.171791 288.916756 
L 293.782215 284.441741 
L 294.900969 279.593809 
L 294.900969 276.610469 
L 296.019723 275.118799 
L 300.121817 272.881291 
L 302.732241 272.135454 
L 306.461419 269.52503 
L 307.953094 274.000045 
L 309.81768 279.220893 
L 312.801026 283.322992 
L 315.411449 286.679249 
L 316.157282 292.273018 
L 315.784366 298.985536 
L 315.784366 301.968881 
L 312.428104 305.325138 
L 310.563518 307.935567 
L 308.32601 312.410577 
L 307.580172 316.139755 
L 306.83434 321.733524 
L 308.32601 326.208534 
L 311.682272 329.19188 
L 316.90312 328.818958 
L 322.123967 327.327288 
L 325.853145 323.59811 
L 328.463569 319.1231 
L 328.090653 315.393922 
L 332.565668 316.139755 
L 337.4136 315.021001 
L 341.88861 312.783493 
L 348.228212 310.173069 
L 353.449065 309.427237 
L 359.415745 308.308483 
L 365.009515 304.952221 
L 369.857446 302.714714 
L 375.078294 299.358457 
L 381.417896 296.375112 
L 385.892911 293.764688 
L 390.367927 288.916756 
L 393.724183 285.933416 
L 397.826282 281.085485 
L 404.5388 273.627129 
L 407.522146 270.643784 
L 409.013816 269.897951 
L 412.742993 268.779197 
L 418.336758 267.287522 
L 423.557611 263.931266 
L 430.643045 261.320842 
L 436.60973 256.099989 
L 438.716207 253.062896 
L 441.326636 249.706634 
L 440.207882 245.60454 
L 436.478705 241.875362 
L 440.580799 245.60454 
L 445.055814 246.723294 
L 450.649578 241.875362 
L 456.616264 235.908677 
L 461.091279 229.569075 
L 464.447536 221.737798 
L 468.922551 214.279442 
L 471.160059 206.821087 
L 473.397566 197.498145 
L 475.262153 188.548114 
L 476.00799 180.343926 
L 476.00799 173.631403 
L 474.693261 164.120323 
L 473.201585 154.42446 
L 470.218245 145.474434 
L 466.116151 137.270241 
L 462.014052 129.438969 
L 456.793204 122.726446 
L 451.945272 116.759766 
L 447.843178 113.030588 
L 445.978587 108.928489 
L 434.418137 95.876369 
L 426.586865 90.2826 
L 420.62018 86.180506 
L 415.772248 83.942998 
L 410.5514 82.078407 
L 401.60137 78.349229 
L 395.261768 74.620051 
L 388.922166 71.263795 
L 373.259617 66.042942 
L 363.190838 63.432518 
L 345.290781 60.076256 
L 338.205347 58.957508 
L 331.119908 58.584586 
L 324.780306 58.584586 
L 318.813621 59.330424 
L 311.728181 60.822094 
L 306.134417 61.19501 
L 300.167732 61.940848 
L 296.065632 62.686685 
L 289.726031 63.432518 
L 284.132267 63.059602 
L 274.436403 61.567932 
L 266.978048 61.567932 
L 261.7572 61.940848 
L 258.028022 62.686685 
L 255.790514 63.805439 
L 253.553007 66.042942 
L 253.18009 77.230475 
L 253.925923 81.705491 
L 254.298844 86.553422 
L 254.298844 91.77427 
L 255.044677 96.622202 
L 255.044677 106.690981 
L 255.790514 112.657667 
L 258.773854 116.386845 
L 264.367624 118.624352 
L 271.825979 120.116022 
L 283.386429 120.116022 
L 287.115607 120.488944 
L 277.419743 121.234776 
L 272.198896 121.980614 
L 267.72388 121.607698 
L 263.24887 120.116022 
L 258.773854 118.997268 
L 256.163431 117.505598 
L 254.298844 118.251436 
L 250.196745 119.743106 
L 245.721735 121.234776 
L 240.500882 122.726446 
L 235.280034 123.472284 
L 230.059186 123.472284 
L 223.719584 121.980614 
L 217.05746 120.258245 
L 227.126239 121.004083 
L 235.703349 121.004083 
L 242.042956 120.258245 
L 247.63672 119.139497 
L 251.365898 116.529068 
L 253.603405 113.918644 
L 254.349243 103.849864 
L 253.603405 95.645671 
L 253.230489 89.306069 
L 252.484652 81.474797 
L 252.111735 73.643526 
L 251.738814 70.287264 
L 248.382558 65.066416 
L 243.907542 62.455987 
L 238.313773 60.591401 
L 229.736669 59.472647 
L 224.515816 59.845563 
L 217.430381 59.099731 
L 205.49701 58.353893 
L 200.276162 58.353893 
L 192.071969 59.099731 
L 185.359446 59.845563 
L 177.528174 61.337238 
L 170.442735 62.828908 
L 157.390615 65.066416 
L 150.305176 66.558086 
L 143.592653 68.795594 
L 134.642627 71.406018 
L 127.184272 73.270604 
L 118.607162 76.626866 
L 108.911299 81.101881 
L 103.317535 84.085221 
L 95.859179 88.933153 
L 86.163316 96.391509 
L 80.942468 101.612356 
L 76.094536 107.206126 
L 71.992437 112.79989 
L 67.144505 118.020743 
L 61.923658 124.733261 
L 57.075726 131.8187 
L 53.346548 138.531218 
L 49.990287 146.735411 
L 46.63403 153.447929 
L 43.650685 167.991724 
L 43.650685 176.195917 
L 42.451304 184.223165 
L 42.451304 184.223165 
" style="fill:none;stroke:#000000;stroke-linecap:square;stroke-width:1.5;"/>
   </g>
   <g id="line2d_2">
    <path clip-path="url(#pef32db10a5)" d="M 436.478705 241.875362 
L 431.630773 237.773263 
L 427.901595 232.925337 
L 423.799496 228.077405 
L 421.561994 223.60239 
L 419.324486 218.00862 
L 417.459894 212.787772 
L 416.714062 208.312762 
L 416.714062 196.006475 
L 417.086978 201.973155 
L 417.832811 207.566925 
L 418.951564 213.160689 
L 420.44324 217.635704 
L 422.307826 222.110719 
L 425.664088 228.450321 
L 429.393265 232.925337 
L 433.122443 237.027431 
L 436.478705 241.875362 
L 436.478705 241.875362 
" style="fill:none;stroke:#000000;stroke-linecap:square;stroke-width:1.5;"/>
   </g>
  </g>
 </g>
 <defs>
  <clipPath id="pef32db10a5">
   <rect height="421.2" width="518.4" x="0" y="0"/>
  </clipPath>
 </defs>
</svg>
