<?xml version="1.0" encoding="utf-8" standalone="no"?>
<!DOCTYPE svg PUBLIC "-//W3C//DTD SVG 1.1//EN"
  "http://www.w3.org/Graphics/SVG/1.1/DTD/svg11.dtd">
<!-- Created with matplotlib (https://matplotlib.org/) -->
<svg height="645.12pt" version="1.1" viewBox="0 0 829.44 645.12" width="829.44pt" xmlns="http://www.w3.org/2000/svg" xmlns:xlink="http://www.w3.org/1999/xlink">
 <defs>
  <style type="text/css">
*{stroke-linecap:butt;stroke-linejoin:round;}
  </style>
 </defs>
 <g id="figure_1">
  <g><image xlink:href="../../img/ctx/twotoesloth_cor_cell.json.ctx-50%25.png" width="829.4399999999999px" height="645.12px"/></g>

  <g id="patch_1">
   <path d="M 0 645.12 
L 829.44 645.12 
L 829.44 0 
L 0 0 
z
" style="fill:none;"/>
  </g>
  <g id="axes_1">
   <g id="line2d_1">
    <path clip-path="url(#p58f06a7ee5)" d="M 401.021657 289.326978 
L 393.680748 287.384147 
L 402.042789 288.111284 
L 408.950565 284.839185 
L 414.040506 280.839949 
L 414.767635 275.386439 
L 413.676938 267.751535 
L 414.040506 260.116622 
L 414.040506 253.208847 
L 413.313369 246.664648 
L 411.495535 243.028972 
L 406.769162 240.120441 
L 401.315661 238.302599 
L 394.044317 237.939039 
L 373.684567 238.666168 
L 365.322518 239.393305 
L 358.77832 240.84757 
L 354.779075 240.84757 
L 359.505448 238.302599 
L 365.322518 237.939039 
L 373.320999 237.575471 
L 383.500874 237.575471 
L 392.95362 237.211902 
L 401.679221 234.303363 
L 405.678465 231.031264 
L 411.131967 225.214194 
L 415.131203 218.306418 
L 417.676174 208.853672 
L 418.403311 202.309465 
L 417.676174 194.310993 
L 417.312605 184.858247 
L 414.404066 172.860538 
L 412.222672 166.6799 
L 405.314897 153.591486 
L 400.588524 148.137984 
L 394.407885 143.048042 
L 387.136541 140.139503 
L 377.683804 137.594541 
L 367.14036 136.867404 
L 360.596154 137.958101 
L 355.86978 139.412375 
L 350.05271 144.138748 
L 343.144935 148.501544 
L 337.327865 152.500789 
L 333.692189 156.500025 
L 331.147218 161.953526 
L 327.51155 170.679136 
L 324.96658 177.95048 
L 322.058049 184.131118 
L 317.695244 191.402454 
L 312.241734 200.128063 
L 319.14951 188.130354 
L 323.148746 180.131882 
L 325.693716 173.587675 
L 328.602256 167.043468 
L 330.42009 160.862829 
L 330.42009 155.772888 
L 329.329384 148.137984 
L 323.512314 135.04957 
L 319.876646 129.959629 
L 305.333967 120.870451 
L 297.699055 119.052617 
L 286.428475 117.96192 
L 276.975737 117.234783 
L 268.250128 117.598352 
L 259.524518 119.052617 
L 250.435341 121.961156 
L 243.891134 127.051098 
L 238.801201 130.686765 
L 235.165524 136.503836 
L 232.984122 141.230209 
L 234.801964 146.68371 
L 240.619034 154.682191 
L 243.891134 159.408556 
L 251.889614 173.587675 
L 257.706685 181.586147 
L 250.071772 172.133401 
L 245.345407 165.589194 
L 242.0733 160.135693 
L 239.891898 156.863593 
L 236.983367 152.13722 
L 232.620562 146.32015 
L 227.167052 142.320906 
L 222.804247 141.230209 
L 215.176419 141.079674 
L 206.814378 141.806802 
L 198.088769 144.715341 
L 190.090296 149.078146 
L 183.182521 154.531648 
L 176.274745 161.802991 
L 171.548372 169.074335 
L 169.730538 174.164268 
L 169.36697 181.072044 
L 173.366206 191.615487 
L 176.274745 201.068233 
L 179.910413 205.431038 
L 186.45462 207.61244 
L 194.089532 209.793842 
L 211.540751 213.793079 
L 218.084958 215.610912 
L 226.446999 219.24658 
L 214.449282 215.610912 
L 206.814378 213.065942 
L 198.088769 212.338805 
L 190.090296 209.793842 
L 182.091815 207.61244 
L 175.184048 207.248872 
L 168.276273 209.066706 
L 160.277801 212.702373 
L 154.097154 217.428746 
L 150.097918 220.337286 
L 144.644416 228.699326 
L 139.918043 238.152064 
L 135.555238 245.786976 
L 135.19167 253.42188 
L 136.282375 263.601755 
L 136.282375 274.145198 
L 138.100209 282.143679 
L 141.008748 288.687886 
L 147.189387 298.867761 
L 153.370025 305.048399 
L 160.277801 307.229801 
L 165.367734 307.59337 
L 169.36697 305.775536 
L 172.639078 302.866997 
L 178.092579 299.231329 
L 170.821244 306.866233 
L 166.094871 313.774008 
L 164.277037 322.136049 
L 161.732066 330.49809 
L 159.65718 334.659258 
L 165.837819 337.931365 
L 158.930043 336.477092 
L 155.294376 339.749199 
L 154.20367 344.112004 
L 151.29514 349.929074 
L 148.023032 355.382584 
L 145.114501 359.38182 
L 141.842393 364.471753 
L 139.297423 368.834558 
L 137.479589 373.560931 
L 136.752452 379.014441 
L 137.479589 384.831511 
L 140.02456 393.920689 
L 145.478061 407.736231 
L 145.84163 413.553301 
L 148.3866 421.915342 
L 151.6587 428.459549 
L 156.385073 435.730893 
L 158.930043 439.002992 
L 162.92928 454.636377 
L 165.47425 460.089887 
L 166.928516 467.724791 
L 170.200624 474.268998 
L 176.381262 479.722499 
L 182.216804 484.529842 
L 190.942413 486.711245 
L 199.668022 487.074813 
L 206.575798 485.256971 
L 210.938602 481.621303 
L 215.664975 480.530606 
L 220.39134 479.076333 
L 223.299879 475.077096 
L 226.935547 472.532126 
L 233.116186 471.07786 
L 237.47899 469.623595 
L 241.114666 467.078624 
L 245.841039 468.169321 
L 253.112375 470.714292 
L 261.474416 472.168565 
L 269.472888 472.168565 
L 273.835693 469.987163 
L 280.01634 473.259262 
L 290.196214 479.076333 
L 302.193923 482.34844 
L 312.373798 483.075569 
L 326.916485 481.257735 
L 340.368459 480.167038 
L 352.729736 477.622067 
L 364.727453 476.53137 
L 375.998033 472.168565 
L 383.269369 469.987163 
L 388.722879 465.624359 
L 395.267086 461.261554 
L 399.266322 455.080915 
L 399.261395 454.69141 
L 401.368944 456.474723 
L 409.543141 463.091929 
L 424.723785 473.212358 
L 435.622709 477.883324 
L 445.353898 479.051068 
L 453.528088 483.722034 
L 467.151747 484.111282 
L 483.889382 485.279026 
L 498.680777 484.889778 
L 508.801214 482.554299 
L 521.257122 475.937093 
L 525.149601 472.044614 
L 533.713038 476.715589 
L 540.330244 478.272572 
L 546.168954 476.715589 
L 553.175408 473.990853 
L 561.349598 475.547845 
L 572.24853 479.051068 
L 576.919497 483.722034 
L 581.201215 493.842471 
L 586.26143 498.513438 
L 599.106594 500.070429 
L 610.005518 498.12419 
L 618.958212 493.453223 
L 627.910897 487.225265 
L 636.863582 481.386555 
L 641.145309 477.883324 
L 649.319498 470.098383 
L 654.379712 463.870425 
L 658.272191 456.474723 
L 662.164662 442.072576 
L 665.278637 436.233865 
L 667.614124 429.227412 
L 669.560364 422.999453 
L 671.506595 419.88547 
L 675.009826 414.825256 
L 677.734553 410.543537 
L 678.513049 403.537083 
L 675.788322 398.087621 
L 675.009826 394.195151 
L 675.399074 389.134936 
L 675.788322 382.51773 
L 675.646645 376.766617 
L 673.311158 372.095651 
L 668.640191 367.035428 
L 664.747721 361.975214 
L 658.130515 358.082743 
L 655.795027 354.57952 
L 655.795027 349.908545 
L 654.238044 343.291348 
L 652.291805 339.009621 
L 650.345565 336.674142 
L 646.453094 332.392415 
L 655.01654 338.231125 
L 662.022985 339.009621 
L 670.197183 334.727902 
L 674.868149 329.27844 
L 679.149868 325.385969 
L 681.485355 320.325747 
L 684.210091 314.876284 
L 683.820843 309.426822 
L 686.54557 303.198864 
L 689.659553 295.803171 
L 690.048801 288.407469 
L 690.827288 280.233271 
L 690.048801 274.005322 
L 688.102561 264.66338 
L 683.820843 256.489191 
L 680.317612 250.261233 
L 677.203637 244.033275 
L 673.210613 239.826189 
L 668.150399 235.933719 
L 663.090176 232.819735 
L 656.472978 232.430496 
L 648.298781 234.376727 
L 640.124583 234.765975 
L 631.171898 235.544471 
L 623.776197 235.933719 
L 617.548238 235.933719 
L 610.152545 236.322967 
L 617.548238 234.765975 
L 625.722436 234.765975 
L 636.621361 233.598231 
L 647.131037 233.208983 
L 658.41921 230.873504 
L 666.204159 228.148769 
L 670.09663 223.86705 
L 671.264374 216.860597 
L 671.264374 208.686407 
L 670.485878 201.290706 
L 666.982655 191.559525 
L 661.533193 180.6606 
L 653.748243 173.264898 
L 643.238567 164.701453 
L 633.896634 159.641239 
L 624.554692 156.527264 
L 618.715982 154.970272 
L 613.26652 154.191776 
L 608.595553 154.191776 
L 605.092322 155.35952 
L 603.146091 157.694999 
L 600.810604 170.150915 
L 601.199852 161.976726 
L 600.810604 156.527264 
L 596.918133 151.856289 
L 592.636414 147.185322 
L 586.797704 142.514356 
L 579.012755 138.621885 
L 570.06007 135.507902 
L 561.885872 133.172423 
L 552.933187 131.615431 
L 546.315981 132.004679 
L 539.309527 133.172423 
L 533.470817 135.507902 
L 528.021355 139.011133 
L 524.518124 142.514356 
L 519.068661 147.185322 
L 514.786943 153.024033 
L 512.840703 158.862743 
L 512.840703 166.647692 
L 513.229951 173.654146 
L 514.008447 182.996079 
L 516.733182 190.391781 
L 520.236405 197.398235 
L 522.571892 204.40468 
L 525.296619 208.297159 
L 520.625653 203.236945 
L 518.290174 198.56597 
L 514.786943 193.895004 
L 514.008447 189.613285 
L 512.840703 186.110062 
L 512.062216 180.6606 
L 512.062216 177.546617 
L 511.672968 172.486403 
L 511.672968 168.593932 
L 512.062216 163.533709 
L 511.28372 158.473495 
L 508.558985 154.581024 
L 504.666514 147.963818 
L 500.915712 144.494113 
L 496.244745 140.601634 
L 489.066465 136.624685 
L 472.718078 131.953718 
L 463.376136 132.342966 
L 451.698716 133.121462 
L 444.303023 136.624685 
L 436.907321 141.684899 
L 428.733123 149.080601 
L 424.451405 155.697807 
L 421.72667 164.261253 
L 420.169686 173.992433 
L 419.001943 182.555871 
L 419.39119 193.844043 
L 420.169686 206.299959 
L 422.505165 215.6419 
L 427.176132 223.81609 
L 433.014842 228.876304 
L 441.18904 232.379535 
L 453.644956 233.936518 
L 462.208393 235.882758 
L 475.053557 241.33222 
L 469.900876 240.672401 
L 461.681707 238.617612 
L 450.996786 235.329944 
L 444.42145 233.68611 
L 434.969409 232.453231 
L 428.394073 232.453231 
L 421.407783 234.918982 
L 416.887235 239.028567 
L 414.01053 243.549114 
L 414.832447 249.713487 
L 414.832447 268.617578 
L 415.654364 275.603868 
L 416.887235 282.590167 
L 421.818737 286.288789 
L 427.161202 286.699751 
L 432.914621 285.466872 
L 435.380372 285.055917 
L 430.037907 287.932623 
L 424.695451 289.576457 
L 420.99682 289.987419 
L 418.531069 292.453162 
L 415.204011 294.290007 
L 414.837208 293.689782 
L 410.474404 293.689782 
L 406.838736 292.235509 
L 406.111599 289.690538 
L 401.021657 289.326978 
L 401.021657 289.326978 
" style="fill:none;stroke:#000000;stroke-linecap:square;stroke-width:1.5;"/>
   </g>
  </g>
 </g>
 <defs>
  <clipPath id="p58f06a7ee5">
   <rect height="645.12" width="829.44" x="0" y="0"/>
  </clipPath>
 </defs>
</svg>
