<?xml version="1.0" encoding="utf-8" standalone="no"?>
<!DOCTYPE svg PUBLIC "-//W3C//DTD SVG 1.1//EN"
  "http://www.w3.org/Graphics/SVG/1.1/DTD/svg11.dtd">
<!-- Created with matplotlib (https://matplotlib.org/) -->
<svg height="246.24pt" version="1.1" viewBox="0 0 414.72 246.24" width="414.72pt" xmlns="http://www.w3.org/2000/svg" xmlns:xlink="http://www.w3.org/1999/xlink">
 <defs>
  <style type="text/css">
*{stroke-linecap:butt;stroke-linejoin:round;}
  </style>
 </defs>
 <g id="figure_1">
  <g><image xlink:href="../../img/ctx/weasel_cor_cell.json.ctx-50%25.png" width="414.71999999999997px" height="246.23999999999998px"/></g>

  <g id="patch_1">
   <path d="M 0 246.24 
L 414.72 246.24 
L 414.72 0 
L 0 0 
z
" style="fill:none;"/>
  </g>
  <g id="axes_1">
   <g id="line2d_1">
    <path clip-path="url(#pbdf090cae7)" d="M 179.585107 21.965719 
L 172.314597 24.317945 
L 165.151009 27.097846 
L 160.446563 30.305423 
L 157.925476 33.155918 
L 157.925476 40.105668 
L 159.101584 46.200065 
L 160.277697 50.797593 
L 160.384616 53.149814 
L 159.208503 48.979966 
L 157.818557 43.527083 
L 156.535525 39.464154 
L 154.610979 35.721978 
L 149.906533 34.759707 
L 145.202086 34.866626 
L 139.107688 37.539604 
L 135.783778 39.918952 
L 131.974251 42.445447 
L 127.055967 46.401461 
L 124.255026 50.25025 
L 122.437396 53.457827 
L 121.688963 56.451566 
L 122.116639 58.803792 
L 124.255026 61.47677 
L 127.141843 64.042833 
L 130.242501 66.608897 
L 134.091596 68.533442 
L 137.299173 70.351069 
L 142.431296 72.489452 
L 139.437557 71.954857 
L 135.909222 70.992582 
L 129.173311 66.288136 
L 122.865076 61.369851 
L 118.695224 59.659143 
L 114.632295 59.766062 
L 110.462443 61.47677 
L 107.361785 64.149752 
L 103.726532 68.854199 
L 97.108529 78.59231 
L 94.863223 83.510595 
L 93.580191 87.466605 
L 90.158776 94.737115 
L 83.850541 106.177473 
L 82.032914 109.919649 
L 80.252587 117.69032 
L 79.931831 122.394767 
L 79.717989 127.206132 
L 79.717989 132.338259 
L 79.061814 137.127276 
L 79.061814 142.259399 
L 80.140169 146.716913 
L 81.209363 149.603733 
L 82.492395 151.955954 
L 84.523859 154.30818 
L 86.769162 154.628937 
L 88.586788 155.056613 
L 87.517599 156.76732 
L 84.951535 159.440303 
L 84.203102 166.390056 
L 85.516898 170.448369 
L 88.18988 175.045897 
L 95.246553 182.530245 
L 98.917277 185.407021 
L 103.087129 187.117728 
L 108.860769 188.935355 
L 114.20673 190.218387 
L 119.873452 191.394499 
L 126.716282 192.35677 
L 132.169161 192.036013 
L 137.835883 190.646062 
L 143.181844 189.149193 
L 148.313966 186.90389 
L 152.163061 184.979345 
L 155.581379 179.898515 
L 156.86441 176.4771 
L 157.505924 173.48336 
L 159.751226 171.558815 
L 162.958804 169.206594 
L 162.638047 167.495886 
L 162.638047 165.036742 
L 167.128656 165.464417 
L 169.908557 166.319773 
L 173.54381 165.999016 
L 176.644468 166.533611 
L 178.889771 166.319773 
L 181.562753 167.175125 
L 184.556492 169.848107 
L 185.873817 171.963586 
L 187.691448 173.139699 
L 190.150588 174.208888 
L 195.81731 175.171163 
L 198.917968 175.385001 
L 202.446302 174.529649 
L 205.333122 174.743487 
L 208.11302 176.026519 
L 211.641358 176.774952 
L 216.559643 175.812677 
L 220.72949 173.567374 
L 222.786236 171.251437 
L 224.603863 168.792292 
L 227.918359 168.471536 
L 231.76745 166.653909 
L 234.868108 166.867747 
L 241.4971 166.760828 
L 243.528569 167.295423 
L 241.817861 169.113053 
L 242.673213 170.716842 
L 246.415385 173.38982 
L 248.35333 175.969466 
L 249.743281 178.963205 
L 251.026313 182.38462 
L 252.202421 184.736846 
L 254.126971 186.661391 
L 262.54993 189.790852 
L 266.93362 191.715401 
L 273.028017 193.533028 
L 279.65701 193.960704 
L 285.751407 193.853785 
L 293.235751 192.677672 
L 299.971666 191.180802 
L 305.103789 189.790852 
L 309.553739 187.143694 
L 313.616672 183.294603 
L 317.038087 179.124751 
L 319.069552 174.634146 
L 319.924907 170.571213 
L 321.207935 167.256717 
L 320.780259 163.728383 
L 317.893439 161.376157 
L 321.207935 162.124594 
L 323.880917 160.520806 
L 326.446981 156.137116 
L 328.348887 152.451536 
L 329.524999 147.640167 
L 330.281349 143.961185 
L 330.3877 138.916005 
L 329.853101 133.783882 
L 329.521325 128.375481 
L 328.553725 121.395532 
L 326.949937 114.980378 
L 325.025391 108.351385 
L 320.246572 94.934857 
L 317.680509 88.519703 
L 315.304134 83.552933 
L 312.738075 78.741568 
L 309.102822 72.326413 
L 302.366907 65.269745 
L 298.09014 62.810601 
L 295.524076 60.351456 
L 292.20958 61.741407 
L 287.398215 64.628227 
L 283.976799 67.408128 
L 280.923199 69.643859 
L 278.570974 71.568405 
L 275.470316 73.065274 
L 270.765869 73.065274 
L 273.973446 72.42376 
L 278.143298 71.03381 
L 283.810016 67.184715 
L 287.338354 63.977137 
L 291.187445 61.090321 
L 292.14972 58.31042 
L 291.187445 55.102843 
L 288.780261 50.884207 
L 285.145008 46.821274 
L 281.295917 43.506778 
L 278.195258 40.619958 
L 272.742375 37.840061 
L 269.569667 36.0573 
L 266.148252 34.774268 
L 263.047594 34.56043 
L 260.374611 35.308867 
L 258.556985 37.019574 
L 256.846277 39.478715 
L 255.13557 42.686292 
L 253.959457 45.466193 
L 252.24875 51.132915 
L 251.072637 53.05746 
L 251.821074 50.598316 
L 252.783344 48.246095 
L 253.6387 45.145436 
L 254.921732 42.686292 
L 256.52552 39.264877 
L 257.59471 36.164219 
L 255.670165 33.06356 
L 252.997182 30.283659 
L 250.531377 28.459185 
L 247.3238 26.641559 
L 242.512434 24.396257 
L 237.380312 23.113225 
L 232.782784 21.723274 
L 228.185256 21.402517 
L 225.191517 20.974837 
L 220.345074 20.763193 
L 216.068303 21.832387 
L 211.256937 24.719203 
L 209.011635 28.033703 
L 207.835522 31.668956 
L 207.621684 34.662696 
L 208.690878 37.870273 
L 210.93618 40.222494 
L 215.854465 42.467801 
L 223.65957 46.53073 
L 226.011796 48.882955 
L 228.150179 52.090532 
L 225.797958 49.203712 
L 222.911137 47.172248 
L 220.238155 45.461536 
L 216.389064 44.071589 
L 214.143758 42.895477 
L 210.080829 41.398607 
L 207.728603 41.612445 
L 206.124815 43.323152 
L 204.841783 45.675378 
L 204.627945 50.165983 
L 205.055625 53.159722 
L 205.376382 57.329574 
L 206.124815 60.430232 
L 206.124815 65.348517 
L 206.552495 69.304527 
L 206.659414 72.939784 
L 206.338652 76.575037 
L 206.338652 78.499583 
L 210.294667 81.493322 
L 206.552495 80.21029 
L 201.741125 82.134836 
L 204.841783 78.713421 
L 205.804058 76.361199 
L 206.124815 69.411446 
L 205.910977 65.134679 
L 205.376382 60.64407 
L 204.841783 57.75725 
L 203.451836 55.939623 
L 204.09335 50.486744 
L 203.665674 47.813761 
L 202.275724 45.675378 
L 199.816579 45.568459 
L 197.25052 45.996135 
L 194.470619 46.958406 
L 192.118393 47.386086 
L 189.659253 48.348356 
L 187.413946 50.059064 
L 185.489401 51.769771 
L 183.244098 54.549673 
L 183.351017 52.197451 
L 184.954806 51.555933 
L 187.093189 49.738307 
L 189.552334 48.134518 
L 192.225316 47.065324 
L 194.577537 46.637649 
L 197.571277 45.568459 
L 200.244259 45.354617 
L 202.917237 44.499265 
L 205.055625 42.681639 
L 205.910977 38.832544 
L 206.124815 35.30421 
L 206.017896 31.027439 
L 204.09335 29.102893 
L 202.703399 26.109154 
L 199.602741 23.543095 
L 195.432893 22.58082 
L 192.222542 21.711359 
L 188.587289 21.283683 
L 184.845117 21.176764 
L 179.585107 21.965719 
L 179.585107 21.965719 
" style="fill:none;stroke:#000000;stroke-linecap:square;stroke-width:1.5;"/>
   </g>
  </g>
 </g>
 <defs>
  <clipPath id="pbdf090cae7">
   <rect height="246.24" width="414.72" x="0" y="0"/>
  </clipPath>
 </defs>
</svg>
