<?xml version="1.0" encoding="utf-8" standalone="no"?>
<!DOCTYPE svg PUBLIC "-//W3C//DTD SVG 1.1//EN"
  "http://www.w3.org/Graphics/SVG/1.1/DTD/svg11.dtd">
<!-- Created with matplotlib (https://matplotlib.org/) -->
<svg height="414.72pt" version="1.1" viewBox="0 0 570.24 414.72" width="570.24pt" xmlns="http://www.w3.org/2000/svg" xmlns:xlink="http://www.w3.org/1999/xlink">
 <defs>
  <style type="text/css">
*{stroke-linecap:butt;stroke-linejoin:round;}
  </style>
 </defs>
 <g id="figure_1">
  <g><image xlink:href="../../img/ctx/yellowmongoose_cor_cell.json.ctx-50%25.png" width="570.24px" height="414.71999999999997px"/></g>

  <g id="patch_1">
   <path d="M 0 414.72 
L 570.24 414.72 
L 570.24 0 
L 0 0 
z
" style="fill:none;"/>
  </g>
  <g id="axes_1">
   <g id="line2d_1">
    <path clip-path="url(#p0f34904fc9)" d="M 285.280756 53.27648 
L 280.072287 50.114191 
L 273.561703 48.812076 
L 266.307052 49.370125 
L 258.866378 50.858257 
L 250.495626 53.090462 
L 243.054958 56.066727 
L 237.474458 59.787064 
L 233.754121 62.763329 
L 229.847772 66.669684 
L 228.359639 71.506117 
L 228.545651 75.598485 
L 231.521922 80.992972 
L 232.824037 85.643388 
L 234.126157 88.619658 
L 231.893952 85.085339 
L 231.149886 81.365002 
L 228.917687 77.644671 
L 227.243537 74.29637 
L 225.383368 71.134087 
L 220.918965 70.017985 
L 214.222363 69.831967 
L 209.571947 70.017985 
L 203.619412 71.506117 
L 197.480858 73.738316 
L 190.970274 77.830689 
L 185.947822 81.737038 
L 181.855449 86.015424 
L 177.57707 93.828128 
L 177.662264 98.068661 
L 179.522432 102.347046 
L 183.242769 105.323311 
L 187.707167 108.671612 
L 191.985552 112.019913 
L 195.891907 114.810166 
L 199.05419 117.228382 
L 201.658425 120.204647 
L 198.124106 117.786431 
L 195.147841 115.554232 
L 191.613522 112.391949 
L 187.521154 109.415678 
L 181.754631 105.509329 
L 178.220318 103.64916 
L 175.244047 102.905094 
L 171.523716 102.905094 
L 167.989397 103.27713 
L 163.338975 104.021196 
L 158.316524 106.997461 
L 154.782205 109.22966 
L 151.684131 111.89527 
L 148.893884 114.871541 
L 146.103631 118.033824 
L 143.871432 121.382125 
L 142.197282 125.102462 
L 140.895162 129.008811 
L 140.709144 133.287196 
L 142.011264 137.379563 
L 146.103631 134.775329 
L 149.63795 134.031262 
L 147.033715 136.449479 
L 144.801516 137.565581 
L 142.941348 139.42575 
L 141.08118 142.588033 
L 138.662963 145.750316 
L 134.942626 153.56302 
L 132.338391 162.677839 
L 132.152379 166.956224 
L 133.268475 171.23461 
L 135.50068 177.001127 
L 137.54686 180.907482 
L 139.593047 182.767651 
L 144.801516 184.069765 
L 149.451932 185.929934 
L 154.660402 188.348151 
L 149.265914 186.487982 
L 144.801516 184.813832 
L 141.267197 183.697735 
L 138.104914 183.883747 
L 134.756608 185.371886 
L 128.609135 191.65126 
L 125.446847 195.743627 
L 122.842612 200.952097 
L 121.354479 205.602513 
L 120.610413 210.066916 
L 120.238383 215.647421 
L 120.424395 218.809704 
L 118.750245 222.158005 
L 118.006178 228.296559 
L 119.308299 235.179173 
L 119.866347 243.363914 
L 122.098546 251.176618 
L 123.586684 258.24525 
L 126.155005 264.009938 
L 128.387204 271.822642 
L 130.619402 277.217124 
L 133.037625 281.681527 
L 134.525757 285.587876 
L 135.083806 289.866261 
L 142.338462 298.237014 
L 146.430829 301.399303 
L 150.15116 302.887435 
L 153.313449 302.329381 
L 151.639299 305.119634 
L 151.267263 309.584037 
L 152.941413 315.908603 
L 156.475732 319.256904 
L 160.196063 323.907326 
L 163.434194 327.294745 
L 169.944784 330.643046 
L 175.711302 332.689233 
L 182.035868 334.735419 
L 188.546457 336.595582 
L 195.057041 337.525666 
L 202.49771 338.08372 
L 210.868462 339.013804 
L 220.727347 338.641768 
L 228.134771 338.161775 
L 235.203409 336.115594 
L 238.737728 332.953311 
L 242.644077 331.093142 
L 245.80636 328.488908 
L 254.36313 319.560101 
L 255.293215 317.327902 
L 254.177112 313.421553 
L 251.200847 307.655029 
L 248.782631 302.446566 
L 247.48051 297.052078 
L 246.364414 291.657591 
L 246.550426 285.519043 
L 241.713993 283.286838 
L 241.155944 280.682603 
L 245.062294 280.868621 
L 251.014829 284.030904 
L 258.083467 285.519043 
L 265.1521 286.077091 
L 272.03472 285.519043 
L 274.824973 289.98344 
L 284.125809 293.145729 
L 289.771379 293.089081 
L 295.537897 292.345015 
L 300.932379 290.670864 
L 304.466698 287.880612 
L 306.326866 284.904341 
L 310.605252 283.416208 
L 314.697619 284.718329 
L 320.464137 284.904341 
L 324.370492 283.974262 
L 328.276841 281.18401 
L 333.299292 278.951805 
L 341.856063 278.207739 
L 333.299292 280.253925 
L 329.020907 282.300106 
L 325.672606 285.834425 
L 326.974726 288.06663 
L 328.462859 292.903063 
L 328.462859 298.855599 
L 328.276841 305.180165 
L 328.276841 311.132701 
L 327.532775 316.34117 
L 328.648877 320.247525 
L 332.927262 324.525911 
L 338.69378 328.246242 
L 347.250551 332.338609 
L 351.302311 333.277447 
L 360.975184 333.649483 
L 371.206105 332.905416 
L 381.06499 331.975332 
L 399.108615 328.813049 
L 408.409452 325.836778 
L 414.734018 321.744411 
L 419.384439 317.652044 
L 423.848837 312.257556 
L 427.197138 306.863074 
L 427.011126 302.398671 
L 426.267054 298.120286 
L 431.103493 298.120286 
L 436.386413 295.306402 
L 440.292762 290.841999 
L 443.083015 286.377602 
L 444.385129 281.35515 
L 442.710979 277.262777 
L 445.68725 275.402614 
L 449.221569 270.380163 
L 452.197834 264.613639 
L 456.276835 251.291812 
L 458.695051 242.176993 
L 458.695051 235.108355 
L 461.113268 227.109633 
L 460.92725 219.854983 
L 459.625136 212.042278 
L 454.04463 197.160942 
L 449.766245 191.022388 
L 444.743793 185.627901 
L 440.636138 183.276864 
L 436.915801 182.160762 
L 425.568783 183.276864 
L 428.173018 181.974744 
L 437.659867 180.486611 
L 442.12427 176.208226 
L 444.914523 170.627726 
L 444.445803 164.476433 
L 442.027586 158.151861 
L 437.935219 153.501446 
L 432.912767 149.223061 
L 429.19243 145.87476 
L 425.286081 141.224338 
L 429.19243 144.200609 
L 432.168701 146.060777 
L 436.819117 146.618826 
L 443.701737 146.24679 
L 443.515719 141.596374 
L 441.841568 134.341718 
L 439.609369 128.389182 
L 434.02887 121.506568 
L 429.006418 116.298099 
L 424.741627 110.871364 
L 420.091206 106.965015 
L 415.440791 104.546792 
L 409.674273 103.244678 
L 405.953936 103.430696 
L 400.373436 106.778997 
L 396.095051 109.755262 
L 391.44463 113.661617 
L 388.096329 117.381948 
L 385.306076 119.986183 
L 379.539558 124.450586 
L 385.86413 119.428135 
L 388.096329 116.451864 
L 391.258612 113.289581 
L 396.095051 109.197214 
L 400.0014 106.406961 
L 405.395888 102.314593 
L 406.139954 97.664172 
L 404.651821 92.26969 
L 400.187418 87.061221 
L 393.490816 81.666733 
L 386.422178 77.760384 
L 379.725576 74.598101 
L 371.553609 72.988793 
L 366.981077 72.506923 
L 362.330661 73.250989 
L 359.912445 75.297175 
L 355.448041 82.179795 
L 353.773891 85.714109 
L 351.169656 93.340795 
L 351.913722 89.434446 
L 353.215837 84.78403 
L 355.262023 81.435729 
L 357.68024 77.715392 
L 359.912445 73.250989 
L 359.168373 68.786586 
L 353.215837 63.950152 
L 346.705253 60.229821 
L 338.520518 56.509484 
L 330.521796 54.091267 
L 323.825194 52.417117 
L 316.384526 52.045081 
L 309.687924 53.161183 
L 304.793046 55.382923 
L 300.690603 58.54406 
L 297.156284 62.078379 
L 296.040187 66.356765 
L 295.296115 71.565234 
L 293.621965 79.005902 
L 294.180019 85.516492 
L 293.063916 92.027076 
L 293.994001 98.53766 
L 296.970266 103.002063 
L 301.992723 105.42028 
L 307.573223 107.280449 
L 312.037626 109.512647 
L 316.316011 113.046966 
L 311.479572 109.698665 
L 307.201187 107.280449 
L 297.342302 104.304178 
L 293.994001 105.792316 
L 293.435952 109.512647 
L 293.063916 114.907135 
L 291.761802 120.301617 
L 290.6457 126.998219 
L 291.389766 137.973212 
L 293.621965 141.135495 
L 297.714338 143.181676 
L 291.947814 142.995663 
L 285.43723 142.251591 
L 288.413501 140.763459 
L 289.157567 136.671092 
L 289.157567 131.64864 
L 288.971549 125.138056 
L 289.529597 120.487635 
L 289.715615 114.721117 
L 290.6457 109.512647 
L 290.459682 103.74613 
L 288.041465 101.699943 
L 283.949098 100.397829 
L 279.85673 100.955877 
L 274.834279 102.630027 
L 270.927924 105.234262 
L 265.905472 108.768581 
L 260.883021 111.372816 
L 264.975388 108.024515 
L 275.392327 102.071979 
L 283.019013 96.86351 
L 284.879182 93.329191 
L 285.995278 88.306739 
L 285.0652 84.958438 
L 284.693164 82.540221 
L 288.413501 78.447854 
L 290.831718 72.681336 
L 290.831718 65.798716 
L 290.6457 60.776265 
L 288.413501 56.683897 
L 285.280756 53.27648 
L 285.280756 53.27648 
" style="fill:none;stroke:#000000;stroke-linecap:square;stroke-width:1.5;"/>
   </g>
  </g>
 </g>
 <defs>
  <clipPath id="p0f34904fc9">
   <rect height="414.72" width="570.24" x="0" y="0"/>
  </clipPath>
 </defs>
</svg>
