<?xml version="1.0" encoding="utf-8" standalone="no"?>
<!DOCTYPE svg PUBLIC "-//W3C//DTD SVG 1.1//EN"
  "http://www.w3.org/Graphics/SVG/1.1/DTD/svg11.dtd">
<!-- Created with matplotlib (https://matplotlib.org/) -->
<svg height="440.64pt" version="1.1" viewBox="0 0 635.04 440.64" width="635.04pt" xmlns="http://www.w3.org/2000/svg" xmlns:xlink="http://www.w3.org/1999/xlink">
 <defs>
  <style type="text/css">
*{stroke-linecap:butt;stroke-linejoin:round;}
  </style>
 </defs>
 <g id="figure_1">
  <g><image xlink:href="../../img/ctx/zebra_cor_cell.json.ctx-50%25.png" width="635.04px" height="440.64px"/></g>

  <g id="patch_1">
   <path d="M 0 440.64 
L 635.04 440.64 
L 635.04 0 
L 0 0 
z
" style="fill:none;"/>
  </g>
  <g id="axes_1">
   <g id="line2d_1">
    <path clip-path="url(#pbd16338b2f)" d="M 209.109369 40.846516 
L 204.376035 40.261485 
L 194.823763 40.920263 
L 190.212325 43.225985 
L 187.577213 48.166812 
L 189.553547 54.095806 
L 193.506214 60.024806 
L 197.129485 69.906461 
L 198.117652 77.811788 
L 198.77643 84.399566 
L 202.070319 93.951831 
L 203.058479 100.868992 
L 202.070319 107.127381 
L 198.77643 104.821658 
L 198.77643 97.904498 
L 197.458874 91.316726 
L 196.141318 87.364059 
L 192.188658 84.070177 
L 193.835602 78.799954 
L 193.176825 70.565238 
L 190.871102 64.306856 
L 188.56538 58.377862 
L 185.930275 53.437028 
L 182.306997 49.484368 
L 177.36617 46.849257 
L 171.43717 45.86109 
L 164.849399 46.190479 
L 159.908571 49.154979 
L 154.967744 52.778257 
L 149.368133 55.083973 
L 145.744862 57.719084 
L 140.804028 61.012973 
L 128.287263 67.600745 
L 116.429269 71.553405 
L 111.159053 75.176683 
L 106.218226 80.11751 
L 106.547614 84.728948 
L 110.170886 90.32856 
L 112.476608 94.28122 
L 118.076213 94.610609 
L 119.393769 98.233887 
L 121.040713 104.162881 
L 124.005207 109.433097 
L 127.299096 115.691486 
L 135.204423 127.549473 
L 139.486479 133.478467 
L 145.415473 136.442967 
L 152.991411 139.407467 
L 157.602849 139.078078 
L 161.884905 133.807856 
L 160.23796 126.890695 
L 157.27346 120.632313 
L 152.991411 114.044541 
L 150.3563 109.433097 
L 150.3563 106.139214 
L 154.308967 107.45677 
L 158.591016 111.738819 
L 163.861232 116.020868 
L 168.472676 118.985368 
L 172.095948 123.596813 
L 172.754726 129.525807 
L 175.389837 134.466634 
L 177.36617 140.725016 
L 179.342497 146.324628 
L 180.330664 150.936066 
L 177.36617 151.265455 
L 171.766559 148.300955 
L 164.849399 145.66585 
L 156.079426 143.318952 
L 148.668186 139.24277 
L 141.256939 136.648834 
L 136.810192 132.202087 
L 124.211081 113.303418 
L 119.023204 107.374418 
L 113.464775 104.780482 
L 110.500275 99.222053 
L 103.089034 83.658436 
L 99.012846 81.435066 
L 92.713287 81.435066 
L 84.931482 84.399566 
L 77.149676 89.587436 
L 71.961806 94.775306 
L 67.885624 100.333735 
L 63.809435 104.780482 
L 56.398195 115.526788 
L 54.174818 121.455782 
L 48.616389 124.049717 
L 41.946265 129.237587 
L 34.535025 135.537146 
L 31.94109 142.20727 
L 30.829401 149.247952 
L 30.458836 153.694699 
L 25.270966 158.141439 
L 22.306472 164.440998 
L 21.565349 171.48168 
L 20.45366 176.298992 
L 23.788719 180.004615 
L 24.159284 184.821921 
L 20.824219 191.492038 
L 18.230284 198.162162 
L 16.377472 205.202844 
L 16.377472 211.872961 
L 19.341972 219.654767 
L 23.418154 224.101514 
L 29.347154 227.066014 
L 36.017272 227.436579 
L 42.687389 224.842637 
L 47.875266 218.913643 
L 54.27798 212.27684 
L 59.095292 213.017964 
L 64.653727 214.129652 
L 70.582721 213.759087 
L 79.846773 214.129652 
L 86.146332 214.870775 
L 79.476215 214.500211 
L 73.176656 215.241334 
L 67.618221 215.611899 
L 61.689227 217.094146 
L 56.130792 220.429204 
L 50.572363 224.134828 
L 44.643363 227.469886 
L 37.602681 231.916633 
L 31.673687 235.992822 
L 27.968063 239.32788 
L 25.374128 244.145186 
L 23.891881 249.703621 
L 23.521316 255.632615 
L 23.891881 260.820485 
L 26.485816 264.896674 
L 28.709193 269.713979 
L 31.673687 274.90185 
L 37.973246 278.236915 
L 46.125616 279.348597 
L 53.536857 279.348597 
L 58.724727 277.125226 
L 60.948104 271.196232 
L 61.965177 267.46696 
L 63.542039 271.566791 
L 64.653727 277.125226 
L 63.542039 280.460285 
L 66.135974 284.907032 
L 70.212156 288.24209 
L 73.176656 292.318279 
L 69.841598 294.171084 
L 60.948104 284.536467 
L 56.130792 281.942532 
L 50.572363 281.201408 
L 43.531681 280.08972 
L 37.232122 279.719161 
L 34.267622 280.83085 
L 33.526499 285.277597 
L 36.120434 290.836026 
L 41.308304 295.282773 
L 42.790557 302.323455 
L 44.028714 307.290731 
L 46.993208 312.108043 
L 52.181078 317.666478 
L 56.627825 321.74266 
L 62.927384 323.595472 
L 68.856377 322.483784 
L 73.303124 320.630972 
L 76.267625 316.55479 
L 80.714371 317.666478 
L 87.755054 316.55479 
L 95.166301 310.996355 
L 99.983606 305.437919 
L 102.577541 299.508926 
L 104.800918 291.72712 
L 104.059788 288.021497 
L 100.354171 283.945315 
L 98.871918 281.721938 
L 102.948106 278.757444 
L 104.430353 273.569574 
L 104.430353 266.158327 
L 102.577541 261.71158 
L 103.68923 256.894274 
L 106.653723 250.594716 
L 111.10047 244.665722 
L 112.212159 239.107287 
L 111.471035 234.289981 
L 116.288341 233.548851 
L 118.882276 236.142786 
L 116.658906 240.960098 
L 114.806094 246.518534 
L 112.212159 252.076963 
L 111.10047 256.894274 
L 111.8416 262.452703 
L 109.618223 266.158327 
L 107.024288 271.346197 
L 107.024288 276.163509 
L 112.582723 287.280373 
L 110.729912 291.72712 
L 105.9126 295.432744 
L 104.059788 300.250049 
L 99.983606 306.179049 
L 95.536859 311.36692 
L 91.090112 316.184225 
L 87.755054 320.260414 
L 88.125618 325.448284 
L 91.090112 328.783343 
L 98.501359 331.006713 
L 106.653723 330.636154 
L 105.171476 335.082901 
L 105.542041 340.64133 
L 110.729912 347.682012 
L 114.842056 352.153926 
L 120.029926 355.488984 
L 125.958927 358.453478 
L 129.293985 362.900225 
L 135.964102 365.123602 
L 140.410849 369.570349 
L 142.263661 375.499343 
L 144.857596 380.687213 
L 150.045467 386.245648 
L 156.71559 392.174642 
L 164.126831 396.991954 
L 172.279201 399.215324 
L 179.690442 399.215324 
L 186.360566 395.509701 
L 186.731124 392.174642 
L 182.284384 391.433519 
L 178.208195 387.727895 
L 184.878319 387.727895 
L 188.583936 386.616207 
L 191.548436 382.91059 
L 195.624618 375.499343 
L 198.589118 368.45866 
L 203.776989 362.159102 
L 212.670482 358.824043 
L 218.970041 362.529667 
L 225.640158 363.641355 
L 229.71634 367.717537 
L 236.015899 370.682037 
L 241.574334 371.052596 
L 245.650516 375.128778 
L 254.914575 379.204966 
L 267.143128 385.504525 
L 274.554368 390.692395 
L 281.883771 396.006054 
L 287.812765 396.747178 
L 294.853447 401.193925 
L 303.005812 402.676178 
L 305.229188 396.376619 
L 309.675935 398.229431 
L 317.087176 399.711678 
L 328.204046 399.711678 
L 339.691475 398.229431 
L 348.955528 396.006054 
L 357.107898 392.300431 
L 366.001392 386.742002 
L 375.265445 379.330755 
L 383.788374 370.807826 
L 396.758056 365.619955 
L 411.951102 362.655455 
L 427.19532 363.125829 
L 440.535561 367.202011 
L 453.505237 373.131005 
L 467.957166 381.283376 
L 477.221218 373.50157 
L 485.373589 365.3492 
L 494.267083 357.567394 
L 501.307765 350.897277 
L 509.08957 344.968277 
L 516.871376 338.29816 
L 522.80037 334.221977 
L 525.023746 330.516354 
L 530.95274 329.034101 
L 540.957922 325.328484 
L 545.775228 320.881737 
L 545.034104 312.358801 
L 537.993422 307.912054 
L 533.176117 301.612502 
L 527.98824 297.165755 
L 521.318123 296.054067 
L 516.500817 293.830696 
L 515.389129 289.38395 
L 520.576999 289.013385 
L 526.135435 285.678326 
L 527.617681 278.267079 
L 524.653181 267.52078 
L 522.429811 258.997844 
L 519.465311 250.474915 
L 515.018564 243.434233 
L 510.571817 234.911304 
L 505.013388 229.352869 
L 511.683505 234.540739 
L 516.130252 242.322545 
L 519.835876 249.733792 
L 523.170934 258.256721 
L 525.394305 260.850656 
L 530.211617 263.815156 
L 535.770052 264.185715 
L 543.922416 264.926838 
L 550.221975 263.444591 
L 555.409845 260.109533 
L 552.81591 251.216039 
L 543.181293 244.91648 
L 532.712912 237.783158 
L 543.829776 244.175357 
L 553.557033 250.567555 
L 558.83755 254.180539 
L 563.28429 257.515597 
L 563.006371 262.796107 
L 555.78041 262.796107 
L 549.944056 264.46364 
L 543.551857 267.798699 
L 539.10511 270.299994 
L 535.214208 273.912972 
L 532.990831 278.359719 
L 532.157068 283.918154 
L 531.879143 290.588271 
L 532.434987 297.258395 
L 533.546675 300.593453 
L 538.549266 305.873963 
L 542.718088 307.263571 
L 547.44276 307.819415 
L 547.164835 310.598636 
L 545.497309 312.544087 
L 546.608991 317.268753 
L 549.666131 321.159656 
L 556.336254 323.105107 
L 563.006371 321.993419 
L 569.676489 319.770048 
L 574.67908 315.60122 
L 579.125827 311.15448 
L 581.349203 304.206437 
L 579.95959 299.481765 
L 575.234924 300.037609 
L 569.120651 299.75969 
L 565.507667 295.590862 
L 569.676489 295.312943 
L 574.957005 295.868787 
L 578.847908 297.536314 
L 583.572574 296.424632 
L 589.686853 292.811648 
L 596.773855 285.446721 
L 599.692029 279.054529 
L 602.054365 272.80129 
L 602.888128 266.131166 
L 602.054365 261.128581 
L 600.803717 255.292221 
L 601.915405 249.872751 
L 605.667349 246.954571 
L 609.697211 242.785749 
L 612.874208 238.491901 
L 614.263815 231.404899 
L 614.6807 223.484128 
L 613.846937 214.590634 
L 611.762526 207.364672 
L 607.037854 201.945203 
L 604.117927 199.228407 
L 599.81014 198.533603 
L 596.475081 199.089447 
L 593.834826 202.702425 
L 591.055606 205.620605 
L 587.303669 203.953072 
L 582.162118 200.06217 
L 574.61294 198.665196 
L 575.550926 193.975267 
L 571.173659 186.784048 
L 563.669772 181.781457 
L 544.284738 183.344767 
L 535.842866 184.282753 
L 528.964309 186.158725 
L 522.71107 185.846063 
L 511.767902 189.285344 
L 515.519846 184.282753 
L 520.209775 178.9675 
L 524.27438 170.525627 
L 527.400999 164.897719 
L 532.090929 159.269804 
L 537.093513 153.954551 
L 541.783442 147.075988 
L 545.535386 140.510093 
L 548.662005 142.386059 
L 545.535386 148.013974 
L 540.845457 153.329227 
L 536.780851 159.582466 
L 532.716252 165.523036 
L 529.902295 170.838289 
L 528.026323 176.153542 
L 528.651647 180.843472 
L 532.716252 183.657429 
L 536.468189 183.032105 
L 543.972076 183.032105 
L 552.726611 181.468795 
L 558.354526 177.716852 
L 563.044448 174.277571 
L 567.734377 170.212965 
L 573.049631 179.280162 
L 576.488912 184.595415 
L 581.491503 187.722034 
L 586.494088 189.598006 
L 591.809341 194.287929 
L 595.248622 197.101886 
L 599.625889 198.039872 
L 604.628481 196.789224 
L 605.879128 190.535985 
L 606.504452 182.406781 
L 604.941142 173.339585 
L 600.876537 164.272395 
L 597.124594 158.64448 
L 591.496679 154.267213 
L 586.80675 147.075988 
L 583.680137 138.634122 
L 580.553517 129.254263 
L 574.61294 120.812391 
L 568.047039 112.370525 
L 561.793801 107.055272 
L 557.41654 104.866638 
L 552.726611 105.491962 
L 548.349343 108.931243 
L 547.724019 103.61599 
L 543.659414 95.174118 
L 537.22978 87.956139 
L 532.693156 83.542109 
L 526.127255 79.790166 
L 519.561354 77.914194 
L 511.744812 76.663547 
L 506.429559 78.539518 
L 504.240926 84.167433 
L 502.677616 91.045996 
L 499.550996 97.611897 
L 496.111715 104.177791 
L 492.67244 111.056354 
L 490.483806 118.247579 
L 488.295173 126.064121 
L 482.667258 130.128726 
L 476.414019 135.443979 
L 460.780928 145.761823 
L 452.651717 147.637795 
L 454.215027 142.322542 
L 458.592294 137.632613 
L 459.53028 130.75405 
L 458.904956 124.500811 
L 465.182987 118.355885 
L 467.060477 114.923132 
L 470.16078 105.897435 
L 470.473442 111.369016 
L 468.753804 116.058945 
L 466.877833 121.999522 
L 468.441142 128.096427 
L 473.443734 128.096427 
L 477.039343 122.781174 
L 482.97992 118.403907 
L 486.888191 112.932326 
L 493.477226 104.411359 
L 497.430687 98.104574 
L 500.65676 91.27522 
L 502.09315 86.175576 
L 503.812788 80.547661 
L 503.031136 75.076074 
L 499.591855 69.760827 
L 495.52725 65.696222 
L 490.680993 62.569602 
L 485.522074 60.537303 
L 481.159184 60.015554 
L 475.981106 61.256378 
L 471.603839 58.598748 
L 465.663262 56.410114 
L 460.66067 55.628463 
L 455.501752 55.003139 
L 450.811822 57.504434 
L 447.372541 59.849396 
L 445.183907 63.914001 
L 443.151608 68.916592 
L 439.243337 73.762849 
L 433.615422 83.455369 
L 431.141363 89.852845 
L 429.734381 95.48076 
L 428.796395 100.639679 
L 426.451434 109.237879 
L 428.014744 100.327017 
L 431.766687 83.599606 
L 434.42431 78.597015 
L 437.55093 73.750758 
L 440.052225 68.279177 
L 443.491507 62.963924 
L 445.836468 57.648671 
L 448.088612 53.13078 
L 449.049155 47.765581 
L 446.860521 43.231986 
L 442.952243 39.636371 
L 438.262321 36.040762 
L 431.852748 33.383138 
L 424.505195 31.976156 
L 417.31397 31.507167 
L 410.435414 31.663494 
L 404.338503 31.507167 
L 396.678288 31.819829 
L 391.363035 32.288818 
L 387.92376 33.226804 
L 384.596246 34.781554 
L 382.876602 38.533497 
L 382.720274 42.598102 
L 384.439912 47.288031 
L 386.159556 52.759612 
L 388.191855 57.762203 
L 390.067827 61.826802 
L 392.72545 64.953422 
L 396.94639 67.298389 
L 398.550336 68.725686 
L 402.37889 70.952625 
L 404.098528 75.642548 
L 404.098528 79.863488 
L 403.004214 85.178741 
L 401.753566 90.181326 
L 399.252271 102.375141 
L 399.252271 94.714927 
L 397.845289 85.022407 
L 391.435722 67.982334 
L 388.152775 61.260105 
L 384.869821 55.1632 
L 381.43054 45.939676 
L 377.991265 37.966794 
L 372.519678 33.589533 
L 367.360759 32.964209 
L 361.130902 33.966835 
L 354.720599 35.373938 
L 349.56168 38.656885 
L 344.871751 42.252501 
L 341.901459 46.473434 
L 340.338156 51.163363 
L 340.494483 56.00962 
L 341.432469 60.230553 
L 345.028078 64.13883 
L 348.311032 69.141422 
L 349.874342 74.144006 
L 350.812328 79.146597 
L 351.592792 81.95778 
L 354.737249 87.575217 
L 358.011694 92.401629 
L 361.294647 96.778896 
L 363.95227 101.156163 
L 368.016876 106.00242 
L 363.170619 101.468825 
L 358.637017 96.778896 
L 354.259757 92.557963 
L 351.445799 88.649685 
L 348.788169 84.741414 
L 348.631842 80.051485 
L 348.788169 74.267242 
L 347.381194 69.420985 
L 344.09824 65.512708 
L 339.720979 61.917099 
L 335.969036 62.855084 
L 332.529755 68.482999 
L 329.909815 71.542813 
L 327.408519 76.232735 
L 325.219885 81.078999 
L 323.500248 85.768922 
L 322.562262 90.771513 
L 322.00704 97.838651 
L 322.338309 103.079483 
L 323.317769 105.672885 
L 325.975392 109.268494 
L 330.196332 112.551441 
L 335.042589 116.616047 
L 340.04518 120.993314 
L 345.332764 125.790463 
L 348.766337 129.693978 
L 352.04929 134.071245 
L 354.08159 136.572541 
L 357.989861 139.855488 
L 362.367128 143.920093 
L 366.588068 148.141033 
L 369.714681 152.674628 
L 373.153962 155.019589 
L 376.905905 157.208223 
L 379.876197 160.334842 
L 379.876197 163.930458 
L 376.749578 165.962757 
L 373.466624 166.431747 
L 369.871015 164.555775 
L 369.089357 160.647504 
L 368.933029 156.113909 
L 366.431733 150.95499 
L 364.086772 147.046713 
L 359.865833 143.138441 
L 355.332238 139.23017 
L 351.423966 136.572541 
L 347.828351 132.976931 
L 345.014393 128.599664 
L 342.35677 124.222397 
L 338.917489 120.157792 
L 334.383894 116.093186 
L 329.381303 113.435563 
L 324.378711 113.122901 
L 320.001444 116.405848 
L 317.969145 120.470454 
L 318.281807 132.820597 
L 319.219793 139.542826 
L 319.532454 146.421389 
L 320.314106 152.518293 
L 323.909722 155.957575 
L 331.569936 157.989881 
L 326.723679 158.927866 
L 320.783102 160.647504 
L 317.187493 167.369733 
L 316.562169 173.779306 
L 317.500155 177.396481 
L 319.532454 181.150037 
L 323.909722 183.495005 
L 329.068641 183.651333 
L 333.914898 183.495005 
L 337.979503 181.619033 
L 334.696556 184.745653 
L 328.755979 188.0286 
L 322.50274 190.217233 
L 315.624183 192.405867 
L 307.963963 191.467881 
L 301.398068 190.217233 
L 298.115114 187.246948 
L 294.519505 183.807667 
L 288.578928 181.931695 
L 294.206843 182.713347 
L 299.209434 180.524713 
L 303.117706 175.365794 
L 306.400653 170.832199 
L 307.651301 164.735295 
L 305.775329 160.358027 
L 302.17972 155.042774 
L 298.115114 154.730112 
L 294.050509 155.355436 
L 289.673248 155.199102 
L 294.519505 154.261123 
L 299.209434 151.447165 
L 302.805044 148.789535 
L 305.306339 143.786944 
L 305.775329 137.69004 
L 304.524687 130.967811 
L 303.000903 126.267493 
L 299.717949 121.421236 
L 296.064462 119.598798 
L 291.663006 119.128614 
L 286.504081 119.910272 
L 281.657824 123.193219 
L 277.749553 126.788835 
L 268.534989 137.406793 
L 264.675566 141.403004 
L 259.985986 145.623448 
L 256.077715 150.782374 
L 253.420085 155.315969 
L 252.169437 160.31856 
L 251.856775 165.008489 
L 247.010518 165.477479 
L 242.945913 164.383165 
L 244.196561 159.849564 
L 248.104832 154.846979 
L 251.856775 150.313377 
L 255.92138 144.3728 
L 259.985986 140.308202 
L 262.799943 134.992949 
L 264.050591 129.677695 
L 266.551886 125.456762 
L 271.085481 122.330143 
L 276.713396 120.141509 
L 280.93433 115.920576 
L 284.686273 115.45158 
L 286.697692 116.289249 
L 290.75782 116.894474 
L 295.268903 115.79734 
L 299.333502 112.514393 
L 301.053146 106.261154 
L 300.520957 100.270587 
L 299.588604 92.347104 
L 297.399971 86.875517 
L 294.586013 83.279908 
L 290.990404 82.341922 
L 287.082126 83.436242 
L 282.861193 87.657175 
L 285.831479 83.436242 
L 288.489108 78.433651 
L 288.176446 71.711422 
L 286.831762 67.458743 
L 286.046808 61.198913 
L 283.545512 55.414664 
L 281.982203 50.568407 
L 278.073932 45.72215 
L 274.16566 42.126534 
L 269.163069 41.657544 
L 265.880116 44.15884 
L 264.004144 48.223445 
L 263.691482 54.476678 
L 264.47314 60.260927 
L 264.629468 67.139483 
L 264.150038 72.371229 
L 263.212052 80.187771 
L 261.805077 86.284676 
L 261.023419 90.974605 
L 258.678457 95.508206 
L 254.926514 98.322164 
L 250.003138 102.854082 
L 244.872662 105.778854 
L 240.495401 109.843453 
L 235.805472 112.657411 
L 234.085828 109.374463 
L 233.304177 105.62252 
L 231.428205 101.088925 
L 234.711152 104.05921 
L 238.61943 105.778854 
L 243.934676 103.277559 
L 247.842954 100.619929 
L 252.220221 96.398996 
L 256.128492 92.178063 
L 259.41144 87.800796 
L 260.974749 82.64187 
L 261.600073 77.170289 
L 262.538059 71.855036 
L 263.007055 66.383456 
L 262.694393 59.192231 
L 263.319717 48.249069 
L 264.257703 44.340792 
L 260.974749 39.650869 
L 256.910144 37.149573 
L 250.500577 38.400221 
L 246.904968 41.214179 
L 243.778349 44.966116 
L 241.442341 49.603603 
L 238.941046 54.918856 
L 236.752412 59.139789 
L 234.094789 63.048067 
L 231.593493 67.112666 
L 229.40486 70.082957 
L 227.216226 73.365904 
L 224.714931 78.368496 
L 225.340254 73.209577 
L 227.84155 69.613961 
L 231.906155 64.14238 
L 234.720113 59.296123 
L 238.159394 53.824543 
L 241.129679 48.352955 
L 240.817017 41.943389 
L 237.280365 39.273147 
L 232.87167 37.563569 
L 226.931099 37.876231 
L 221.772174 37.876231 
L 217.863903 39.283206 
L 215.049946 41.159178 
L 213.955632 44.754787 
L 214.893618 50.851692 
L 215.206273 55.072631 
L 214.11196 57.261265 
L 213.330308 53.509321 
L 212.861312 48.350402 
L 211.610664 43.816801 
L 209.109369 40.846516 
L 209.109369 40.846516 
" style="fill:none;stroke:#000000;stroke-linecap:square;stroke-width:1.5;"/>
   </g>
   <g id="line2d_2">
    <path clip-path="url(#pbd16338b2f)" d="M 139.793965 158.331386 
L 143.093995 161.317128 
L 146.236884 165.088593 
L 141.993985 161.631416 
L 139.793965 158.331386 
" style="fill:none;stroke:#000000;stroke-linecap:square;stroke-width:1.5;"/>
   </g>
   <g id="line2d_3">
    <path clip-path="url(#pbd16338b2f)" d="M 76.529305 181.593955 
L 76.751296 181.149974 
L 79.748158 182.259922 
L 81.302082 184.257828 
L 83.854968 187.365688 
L 85.075909 189.696577 
L 83.188995 189.585578 
L 79.328962 188.263558 
L 76.08533 186.699715 
L 75.419363 184.479819 
L 76.529305 181.593955 
" style="fill:none;stroke:#000000;stroke-linecap:square;stroke-width:1.5;"/>
   </g>
   <g id="line2d_4">
    <path clip-path="url(#pbd16338b2f)" d="M 61.483354 265.582885 
L 59.836415 261.19105 
L 57.983604 254.891492 
L 62.800915 247.480251 
L 59.095292 254.520933 
L 60.577539 260.449927 
L 61.483354 265.582885 
L 61.483354 265.582885 
" style="fill:none;stroke:#000000;stroke-linecap:square;stroke-width:1.5;"/>
   </g>
  </g>
 </g>
 <defs>
  <clipPath id="pbd16338b2f">
   <rect height="440.64" width="635.04" x="0" y="0"/>
  </clipPath>
 </defs>
</svg>
