<?xml version="1.0" encoding="utf-8" standalone="no"?>
<!DOCTYPE svg PUBLIC "-//W3C//DTD SVG 1.1//EN"
  "http://www.w3.org/Graphics/SVG/1.1/DTD/svg11.dtd">
<!-- Created with matplotlib (https://matplotlib.org/) -->
<svg height="447.84pt" version="1.1" viewBox="0 0 622.08 447.84" width="622.08pt" xmlns="http://www.w3.org/2000/svg" xmlns:xlink="http://www.w3.org/1999/xlink">
 <defs>
  <style type="text/css">
*{stroke-linecap:butt;stroke-linejoin:round;}
  </style>
 </defs>
 <g id="figure_1">
  <g><image xlink:href="../../img/ctx/zebu_cor_cell.json.ctx-50%25.png" width="622.0799999999999px" height="447.84px"/></g>

  <g id="patch_1">
   <path d="M 0 447.84 
L 622.08 447.84 
L 622.08 0 
L 0 0 
z
" style="fill:none;"/>
  </g>
  <g id="axes_1">
   <g id="line2d_1">
    <path clip-path="url(#p212eb81254)" d="M 155.753859 246.443928 
L 153.489494 244.897562 
L 151.822319 243.268123 
L 149.443977 242.170425 
L 147.797424 241.255675 
L 145.96793 241.255675 
L 144.870233 239.97503 
L 139.564687 236.316037 
L 136.271588 234.669484 
L 132.246693 233.205885 
L 128.221798 231.376392 
L 120.53791 228.449194 
L 115.415317 227.900345 
L 111.390422 227.900345 
L 108.463225 229.363944 
L 106.450777 231.01049 
L 104.255383 230.461642 
L 102.059981 228.998043 
L 100.047534 226.070846 
L 98.949836 223.875451 
L 97.120343 221.680049 
L 93.827244 218.386957 
L 89.070553 216.740411 
L 85.594507 215.825661 
L 82.850257 217.289259 
L 80.837809 218.569904 
L 77.727664 219.850556 
L 74.983421 221.680049 
L 72.788019 223.326602 
L 71.507374 225.887898 
L 69.860822 228.632142 
L 66.567729 236.133083 
L 65.104131 241.814023 
L 64.372328 249.132017 
L 64.921183 251.87626 
L 66.018881 254.986405 
L 68.031328 257.913603 
L 70.409671 259.560149 
L 74.068671 260.291952 
L 78.093566 259.560149 
L 81.20371 257.913603 
L 84.313855 258.279504 
L 88.33875 259.194254 
L 96.937389 260.657853 
L 99.315738 262.6703 
L 102.791784 263.767998 
L 106.450777 265.780445 
L 109.743876 267.426991 
L 113.219922 269.439439 
L 107.731429 267.609939 
L 103.889481 266.512241 
L 99.13279 264.682748 
L 94.376093 263.767998 
L 90.351198 263.767998 
L 86.875152 265.048643 
L 83.947954 267.244044 
L 81.569612 269.988288 
L 80.28896 272.366636 
L 81.020763 277.672176 
L 83.03321 280.416426 
L 86.143355 283.526571 
L 88.887599 286.453769 
L 92.546593 289.198012 
L 94.741994 291.21046 
L 96.937389 293.03996 
L 100.413435 294.86946 
L 106.084876 299.626151 
L 107.731429 302.370401 
L 109.019987 305.763673 
L 109.934737 308.507923 
L 110.849487 311.801015 
L 111.215388 315.094114 
L 113.044881 318.021311 
L 115.240283 320.216706 
L 117.618631 321.680305 
L 120.362875 322.778003 
L 122.55827 323.143904 
L 124.38777 324.058654 
L 127.132014 324.973398 
L 130.60806 325.888148 
L 133.169356 326.985845 
L 136.096554 328.083549 
L 138.840803 328.815345 
L 141.4021 330.278944 
L 144.878146 331.742542 
L 141.219146 331.559595 
L 138.840803 330.461891 
L 136.096554 329.364194 
L 132.43756 327.351746 
L 128.412665 325.888148 
L 125.119566 325.339299 
L 122.741224 325.7052 
L 121.277625 326.61995 
L 120.545823 329.547147 
L 121.277625 333.023187 
L 123.290073 335.950385 
L 125.668421 338.328734 
L 127.680869 341.072977 
L 129.144461 343.63428 
L 135.547705 351.135221 
L 138.840803 354.062412 
L 142.682745 356.07486 
L 146.524692 357.355511 
L 152.927936 357.355511 
L 156.952831 357.172563 
L 160.428877 358.087307 
L 163.539022 359.185011 
L 166.816786 360.833137 
L 175.781326 367.053433 
L 178.52557 368.882927 
L 181.086866 371.810124 
L 183.648162 375.103223 
L 186.209458 376.383868 
L 188.40486 377.11567 
L 190.234353 378.762217 
L 195.173998 382.604164 
L 197.735294 384.433658 
L 201.943143 388.641506 
L 204.321485 391.38575 
L 206.882782 393.21525 
L 211.273578 395.410645 
L 215.847322 397.240145 
L 220.238118 398.337843 
L 225.177763 399.069639 
L 229.934454 399.069639 
L 242.297018 395.595179 
L 245.773065 395.04633 
L 248.334361 395.96108 
L 251.078611 396.692876 
L 258.762499 397.424673 
L 263.336243 397.607626 
L 267.178191 397.607626 
L 270.471283 397.424673 
L 273.764382 397.058778 
L 276.874527 397.058778 
L 282.911869 396.692876 
L 286.387915 395.778126 
L 293.340008 392.30208 
L 295.535402 390.472586 
L 298.279646 388.643087 
L 300.657995 386.630639 
L 302.121594 384.984093 
L 303.402245 383.33754 
L 304.499942 382.239843 
L 307.244186 380.776244 
L 308.890738 378.763797 
L 311.086133 377.300198 
L 312.915633 375.653652 
L 313.464482 374.007106 
L 313.64743 370.896961 
L 314.196278 370.348112 
L 316.574627 370.348112 
L 318.587075 374.921856 
L 320.233621 378.214948 
L 322.246068 381.142145 
L 324.624417 384.069343 
L 327.002766 386.813587 
L 330.121483 389.923165 
L 333.146614 392.486614 
L 336.622661 394.864963 
L 339.732812 396.511509 
L 342.294108 398.523956 
L 345.221299 399.621654 
L 348.33145 400.170503 
L 371.017221 398.158055 
L 376.505715 397.060358 
L 381.262406 396.87741 
L 385.470255 396.145608 
L 389.678097 396.145608 
L 400.289183 395.413811 
L 405.960624 394.499062 
L 409.619624 393.584312 
L 412.546815 392.486614 
L 415.474013 391.023015 
L 419.864809 388.644667 
L 421.877256 387.729923 
L 424.255605 386.449272 
L 426.268053 383.887975 
L 428.097546 381.875528 
L 428.829349 379.314232 
L 429.927046 376.935883 
L 430.475895 374.740488 
L 431.024744 371.813291 
L 432.122441 370.532639 
L 435.049639 370.166744 
L 437.24504 369.434942 
L 438.913241 367.609654 
L 440.555544 365.036233 
L 445.312236 361.926088 
L 451.349578 360.828391 
L 453.544979 359.730693 
L 456.106275 358.267094 
L 457.569874 356.620548 
L 459.582321 352.595653 
L 460.314118 350.400252 
L 461.228868 349.485502 
L 464.521966 346.924206 
L 466.534414 347.10716 
L 471.291105 345.460607 
L 474.035349 344.728811 
L 476.23075 344.545863 
L 482.816941 342.899311 
L 486.11004 340.703916 
L 488.671336 338.691468 
L 491.598527 334.300672 
L 492.513277 332.288225 
L 494.15983 331.373475 
L 496.538172 330.275777 
L 498.367672 328.446284 
L 502.209619 325.884981 
L 505.868613 322.225988 
L 506.600409 319.664691 
L 506.600409 316.920448 
L 503.856166 314.908 
L 499.831271 313.99325 
L 496.172277 313.99325 
L 492.513277 314.176198 
L 490.50083 315.090948 
L 488.854283 316.737494 
L 487.120217 317.27685 
L 484.924822 316.728001 
L 482.180572 317.459797 
L 479.802229 318.740448 
L 480.716973 317.27685 
L 482.912374 315.44735 
L 484.924822 313.983751 
L 487.303164 313.069001 
L 489.864467 312.520152 
L 491.511013 312.703106 
L 496.816553 312.703106 
L 501.207349 312.886054 
L 504.500448 313.983751 
L 506.329941 315.264402 
L 508.342389 315.813251 
L 510.53779 315.813251 
L 513.464988 314.5326 
L 517.489882 312.337205 
L 521.148876 309.592955 
L 523.161324 307.214612 
L 524.80787 304.287415 
L 526.454416 296.969421 
L 526.454416 293.676329 
L 526.271469 289.285533 
L 526.271469 286.541289 
L 525.356719 283.979987 
L 525.72262 281.235743 
L 525.905567 278.125598 
L 524.990817 273.917749 
L 523.527225 269.526959 
L 521.697725 266.050913 
L 518.221679 264.404367 
L 513.464988 264.587314 
L 509.988941 266.416814 
L 507.79354 269.344006 
L 507.061744 272.637104 
L 508.342389 274.466604 
L 506.512895 273.917749 
L 504.866343 275.015453 
L 503.951599 277.576749 
L 503.40275 273.003005 
L 501.57325 271.722354 
L 499.560803 270.990558 
L 498.743066 269.523793 
L 500.938467 266.047747 
L 503.499764 264.584148 
L 506.06106 263.486451 
L 509.720053 261.474003 
L 517.769843 257.997957 
L 522.526541 256.717306 
L 526.185534 256.168457 
L 529.295679 256.534358 
L 538.809068 257.997957 
L 537.162522 259.095654 
L 534.784173 261.291049 
L 532.588778 263.120549 
L 529.844528 265.864799 
L 528.015028 268.609043 
L 526.917331 272.45099 
L 526.917331 276.109984 
L 528.015028 279.768978 
L 529.661581 282.696175 
L 531.491074 285.623373 
L 532.954673 288.55057 
L 533.320574 290.928913 
L 535.150074 292.758412 
L 537.528417 293.85611 
L 540.089719 293.490215 
L 543.199864 292.209564 
L 546.492957 289.831215 
L 549.237206 287.086971 
L 551.615549 284.89157 
L 554.359799 281.781425 
L 556.921095 278.67128 
L 561.494839 272.085089 
L 563.873187 268.426095 
L 565.336786 264.401201 
L 567.16628 260.376306 
L 568.446931 254.887812 
L 569.544629 249.582266 
L 569.727576 244.276726 
L 568.812832 239.88593 
L 568.439018 236.858553 
L 570.085564 232.284809 
L 570.268512 228.442861 
L 569.719663 224.60092 
L 566.792466 220.758973 
L 563.316426 218.380624 
L 559.84038 216.917025 
L 556.730229 215.453427 
L 553.071235 215.453427 
L 550.509939 215.270479 
L 549.96109 213.989828 
L 550.509939 211.062637 
L 550.692886 208.135439 
L 550.509939 205.757091 
L 549.229294 203.195794 
L 546.850945 200.817446 
L 543.008998 198.804998 
L 538.069353 197.890248 
L 532.214964 197.890248 
L 527.458267 199.170899 
L 523.06747 201.732196 
L 516.84718 206.488893 
L 515.383582 208.135439 
L 513.737036 209.599038 
L 511.541641 212.160334 
L 510.078042 214.172782 
L 507.150844 220.210124 
L 502.028252 226.979263 
L 497.637456 229.90646 
L 490.136515 233.382506 
L 484.465074 235.029053 
L 480.623126 235.577901 
L 476.23233 234.480204 
L 472.390389 231.73596 
L 475.683481 233.199559 
L 478.244777 233.748408 
L 480.806074 233.748408 
L 483.36737 233.382506 
L 485.19687 232.467756 
L 486.11162 230.272361 
L 486.660469 228.259914 
L 486.843416 226.064513 
L 486.843416 223.503217 
L 486.11162 221.124874 
L 489.587666 221.85667 
L 493.612561 220.576025 
L 496.356805 219.112427 
L 500.015805 217.465874 
L 504.223647 214.72163 
L 509.529193 211.428532 
L 513.188187 208.318387 
L 521.055023 202.463998 
L 523.433372 200.268597 
L 525.262872 197.3414 
L 526.72647 193.133557 
L 527.275319 188.37686 
L 527.366 185.532436 
L 526.634203 182.422291 
L 523.524058 174.92135 
L 521.328657 171.628251 
L 516.754914 167.420409 
L 512.547071 163.944363 
L 509.619874 162.846665 
L 507.241525 162.114863 
L 502.667781 161.566014 
L 497.362241 161.931915 
L 493.154393 162.846665 
L 489.8613 165.04206 
L 485.104603 169.249909 
L 487.482952 166.139758 
L 492.056695 162.663712 
L 493.154393 160.651264 
L 494.069143 158.455869 
L 494.800945 155.711626 
L 495.715689 152.967376 
L 495.16684 150.223132 
L 492.422597 147.295934 
L 489.129498 144.185789 
L 485.836405 143.088092 
L 483.823958 140.892691 
L 482.72626 138.697296 
L 482.543307 136.318947 
L 482.177405 133.208802 
L 481.628557 129.549809 
L 480.164958 123.695414 
L 479.982011 121.682966 
L 481.994458 122.048867 
L 484.738708 122.414762 
L 487.482952 123.695414 
L 490.410149 126.805559 
L 492.605544 129.366855 
L 495.715689 135.587151 
L 497.91109 139.429092 
L 499.191735 142.905138 
L 500.84021 146.573612 
L 503.043182 150.687627 
L 503.774978 152.883022 
L 505.421524 155.810219 
L 507.433972 157.456771 
L 509.629373 160.201015 
L 511.824768 162.213463 
L 516.03261 166.421305 
L 518.593906 168.250805 
L 520.972255 170.263252 
L 523.350604 172.092752 
L 525.728953 173.007496 
L 526.82665 174.1052 
L 528.107295 176.666496 
L 528.107295 178.130095 
L 528.290249 180.691391 
L 528.290249 183.435635 
L 529.204999 188.192332 
L 531.034492 191.11953 
L 534.144637 194.961471 
L 536.522986 196.059168 
L 541.279684 197.156872 
L 543.84098 197.156872 
L 545.670473 196.790971 
L 546.585223 198.437517 
L 548.23177 200.449964 
L 549.512421 203.011261 
L 553.171415 208.133853 
L 554.452066 210.878103 
L 556.647461 213.622347 
L 561.587106 217.098393 
L 564.697251 218.013143 
L 567.807396 218.744939 
L 570.734593 218.379044 
L 574.027692 216.549544 
L 576.223087 214.354149 
L 578.235534 211.244004 
L 579.699133 209.231557 
L 581.528633 206.121406 
L 583.906975 200.998813 
L 585.736475 195.876221 
L 586.285324 190.936576 
L 586.651225 185.448082 
L 585.919423 180.508437 
L 585.642628 176.658583 
L 584.17903 172.267787 
L 581.251832 160.924899 
L 579.422332 155.985254 
L 578.141687 150.496766 
L 576.861036 146.471871 
L 574.848588 141.898121 
L 571.921391 138.05618 
L 568.445351 134.031285 
L 563.139805 129.823437 
L 559.297857 126.34739 
L 554.358213 123.969048 
L 550.333318 122.505449 
L 545.393679 121.041851 
L 541.368784 121.041851 
L 540.454034 123.420199 
L 539.539284 126.530344 
L 539.722232 130.00639 
L 545.210725 141.715174 
L 541.368784 135.494884 
L 539.539284 132.927255 
L 537.160935 128.90236 
L 534.599639 125.609261 
L 534.599639 122.682064 
L 534.416692 118.657169 
L 533.318994 114.266379 
L 530.574744 109.692635 
L 527.647547 105.301839 
L 523.439704 100.728096 
L 518.134158 95.971398 
L 512.645665 91.763556 
L 508.62077 87.37276 
L 503.211884 83.069484 
L 498.455192 78.312793 
L 493.881443 74.104944 
L 489.856548 70.811852 
L 484.368054 68.433503 
L 478.879567 65.323358 
L 474.122869 62.762062 
L 469.915027 60.200766 
L 465.158329 57.822417 
L 461.316388 56.541766 
L 457.108539 56.724719 
L 453.449546 56.724719 
L 450.339401 55.809969 
L 445.948605 55.078167 
L 442.472559 55.627016 
L 438.447664 57.273568 
L 436.618164 60.017812 
L 435.884787 62.677708 
L 435.152985 67.251451 
L 434.970037 71.459294 
L 435.518886 76.581892 
L 436.799531 84.448729 
L 438.446084 93.047367 
L 438.994932 97.438163 
L 439.17788 102.011907 
L 439.909682 106.402703 
L 441.190327 111.708249 
L 441.00738 115.001342 
L 440.458531 120.123934 
L 439.726728 124.697678 
L 438.26313 127.441928 
L 435.884787 130.552073 
L 432.773523 133.845314 
L 429.681406 138.064093 
L 426.937162 142.088988 
L 423.644063 147.760429 
L 421.082767 153.065975 
L 418.887372 157.273818 
L 417.789674 161.664614 
L 417.057872 165.872456 
L 416.691977 172.641601 
L 416.874925 175.019944 
L 416.691977 177.764194 
L 416.691977 180.142542 
L 417.173162 182.703838 
L 417.763267 183.741455 
L 418.324769 185.142554 
L 419.445969 185.811346 
L 421.253285 185.828633 
L 423.186411 185.587814 
L 425.19917 185.155082 
L 428.400201 184.719832 
L 422.065834 186.154572 
L 418.602584 186.219555 
L 416.56129 186.694563 
L 417.807099 185.592529 
L 417.59087 184.465606 
L 416.691977 182.703838 
L 415.960175 179.227792 
L 416.326076 171.543904 
L 416.326076 167.519009 
L 416.143122 164.408858 
L 414.953158 162.477598 
L 414.587263 159.733354 
L 414.953158 157.172058 
L 415.68496 155.15961 
L 416.59971 153.513058 
L 416.965605 151.317663 
L 411.477111 141.804274 
L 409.281717 141.621327 
L 406.171572 142.170176 
L 402.695525 143.450821 
L 399.58538 145.280321 
L 394.645736 148.024564 
L 391.901486 149.122268 
L 392.084439 147.658669 
L 393.730986 146.195071 
L 396.292282 145.280321 
L 399.402427 143.999669 
L 402.512578 142.536077 
L 407.086322 141.072478 
L 410.562368 140.157728 
L 414.038414 137.962327 
L 416.965605 135.583985 
L 422.637052 132.656787 
L 425.381296 130.827287 
L 428.125546 128.083043 
L 430.047307 125.515414 
L 431.510905 121.49052 
L 433.340405 118.014473 
L 434.986952 112.343032 
L 436.267597 106.854539 
L 436.999399 103.195545 
L 436.633498 101.183097 
L 435.718748 97.707051 
L 434.804004 93.499203 
L 433.157452 88.742511 
L 430.962057 83.802866 
L 428.949609 80.32682 
L 425.473563 77.948472 
L 422.180464 76.850774 
L 418.521471 76.667827 
L 414.313628 77.399623 
L 411.93528 77.948472 
L 409.008082 78.131425 
L 406.812687 77.582577 
L 406.995635 75.387175 
L 407.727437 73.923577 
L 408.825135 72.094083 
L 410.654628 73.740629 
L 412.118227 73.374728 
L 414.130675 72.642932 
L 415.960175 72.825879 
L 417.972622 73.740629 
L 421.082767 74.655379 
L 423.278168 74.472425 
L 425.839464 73.374728 
L 427.851912 71.911129 
L 430.047307 69.349833 
L 430.962057 66.605589 
L 431.693853 63.861339 
L 431.145004 60.385293 
L 429.864359 56.177451 
L 426.937162 53.067306 
L 424.924714 51.603707 
L 422.79042 54.527738 
L 423.888124 52.515291 
L 422.241571 46.477948 
L 419.314374 43.18485 
L 415.289479 40.623553 
L 410.898689 39.342908 
L 404.495445 39.159955 
L 399.555801 39.159955 
L 395.165004 39.708803 
L 391.323063 40.989455 
L 386.932267 42.636001 
L 381.992622 45.563198 
L 378.69953 47.209745 
L 376.138233 50.319889 
L 375.589378 52.881192 
L 375.406431 55.808383 
L 375.772332 63.309324 
L 376.138233 66.236522 
L 376.687082 69.163719 
L 375.223483 68.066022 
L 374.308733 65.321772 
L 373.576931 62.577528 
L 371.564484 59.101482 
L 366.075996 50.685791 
L 362.59995 46.843849 
L 358.94095 43.18485 
L 355.647858 39.708803 
L 351.074114 37.696356 
L 345.768568 36.232757 
L 341.194824 35.866862 
L 336.438133 37.147507 
L 332.962087 38.245205 
L 329.668988 40.623553 
L 326.924744 43.18485 
L 325.914561 46.667229 
L 326.097509 49.777373 
L 326.46341 53.25342 
L 328.109956 55.814716 
L 331.037154 58.924861 
L 333.59845 61.120262 
L 341.465292 63.681558 
L 343.843641 65.328104 
L 348.234431 72.097249 
L 349.515082 75.573289 
L 351.344582 79.232289 
L 353.539977 83.07423 
L 355.918326 86.550277 
L 358.11372 90.575171 
L 360.675017 94.417119 
L 362.504517 98.259066 
L 365.065813 102.466909 
L 366.712359 106.674751 
L 367.07826 113.077995 
L 366.16351 115.639291 
L 365.797609 114.724541 
L 365.24876 111.248495 
L 363.968115 107.772455 
L 362.687464 103.564606 
L 358.296668 94.600066 
L 352.808181 84.90373 
L 346.770838 75.573289 
L 339.818746 66.974651 
L 336.708601 64.596308 
L 332.683706 63.132709 
L 328.29291 62.949756 
L 325.914561 63.498604 
L 324.450962 64.779256 
L 323.170317 66.608756 
L 321.889666 68.804151 
L 320.24312 70.633651 
L 318.230672 72.280197 
L 315.852324 75.024441 
L 314.022824 77.585737 
L 311.827429 79.964085 
L 311.095633 82.342434 
L 310.546778 84.720783 
L 310.729731 87.282079 
L 310.729731 90.026323 
L 310.36383 96.063665 
L 309.814981 99.17381 
L 309.44908 102.466909 
L 309.44908 105.760007 
L 308.900231 108.870152 
L 309.266133 111.980297 
L 310.090196 114.552673 
L 311.187893 117.47987 
L 312.468545 119.675265 
L 315.395742 121.687713 
L 317.774091 122.236561 
L 319.969486 122.419515 
L 322.530782 122.78541 
L 325.457979 122.968364 
L 327.287473 122.968364 
L 330.21467 123.70016 
L 330.946473 125.163759 
L 330.580572 126.627358 
L 328.751072 126.627358 
L 326.738624 125.346713 
L 323.628479 123.70016 
L 319.969486 123.151311 
L 316.676387 122.78541 
L 313.932143 123.151311 
L 311.736748 123.70016 
L 308.992498 125.52966 
L 307.894801 127.35916 
L 307.162998 131.74995 
L 306.980051 134.128299 
L 305.516452 137.238444 
L 304.052853 139.79974 
L 304.235807 141.446292 
L 304.052853 144.190536 
L 304.601702 146.385931 
L 306.248255 149.496082 
L 308.626597 152.972122 
L 311.004946 155.350471 
L 314.298044 157.545872 
L 317.225236 158.643569 
L 320.152433 158.643569 
L 323.262578 157.911767 
L 326.555677 156.997017 
L 328.751072 155.89932 
L 333.507769 152.789175 
L 335.154315 151.50853 
L 336.434967 149.496082 
L 336.252013 152.789175 
L 337.532664 155.89932 
L 337.898565 158.094721 
L 339.17921 161.021912 
L 340.459861 163.583214 
L 346.863099 171.633004 
L 347.862203 173.920666 
L 348.776953 176.299015 
L 349.142854 179.226206 
L 349.142854 181.970456 
L 349.508749 186.910101 
L 349.325802 189.654345 
L 348.04515 190.386147 
L 345.849755 188.3737 
L 344.386157 185.446502 
L 344.020255 182.336357 
L 343.105512 179.226206 
L 342.73961 176.116061 
L 340.910111 172.27412 
L 339.080617 167.883324 
L 336.336367 165.139074 
L 332.128524 162.39483 
L 326.091182 160.931231 
L 320.05384 160.931231 
L 316.760741 161.297133 
L 313.467649 161.845981 
L 311.455201 163.492528 
L 309.808649 166.602672 
L 308.34505 170.261672 
L 307.613254 173.554765 
L 307.247352 176.481962 
L 306.698504 179.043258 
L 306.332602 182.153403 
L 306.90519 184.151904 
L 307.088137 187.079101 
L 308.734683 191.286944 
L 309.832381 194.945944 
L 312.027782 198.42199 
L 314.04023 201.89803 
L 316.235625 205.008181 
L 317.699223 206.105878 
L 316.967427 208.118326 
L 315.503828 210.313721 
L 314.04023 212.875017 
L 313.308427 216.534017 
L 312.759578 220.193011 
L 312.759578 226.779202 
L 313.491381 231.169998 
L 315.137927 233.731294 
L 317.516276 236.109643 
L 320.26052 237.024387 
L 322.638868 237.390288 
L 324.468368 236.475538 
L 326.663763 234.828992 
L 323.004769 239.036834 
L 321.724118 241.232235 
L 320.443473 244.159433 
L 319.34577 247.086624 
L 317.516276 250.56267 
L 314.95498 251.660368 
L 311.844828 251.843321 
L 308.734683 251.294473 
L 307.271085 249.099071 
L 305.807486 247.452525 
L 302.880295 245.25713 
L 300.318992 242.51288 
L 299.587196 239.951584 
L 302.514394 240.317485 
L 305.07569 239.768637 
L 306.628389 238.572339 
L 308.823784 236.011043 
L 310.470336 233.632694 
L 311.568034 230.52255 
L 312.116883 227.595352 
L 312.29983 224.851108 
L 312.116883 221.375062 
L 310.836231 215.33772 
L 309.738534 212.776424 
L 307.360185 210.398075 
L 303.884139 207.104976 
L 301.139895 203.445983 
L 299.676297 200.701739 
L 299.310395 197.774541 
L 300.042198 194.847344 
L 301.505797 192.468995 
L 302.420547 189.907699 
L 305.713639 183.504455 
L 306.445442 180.028415 
L 306.811337 175.454666 
L 307.543139 171.429771 
L 307.909034 168.685527 
L 308.640837 165.941277 
L 309.738534 162.648185 
L 308.640837 159.53804 
L 306.628389 155.330191 
L 303.884139 151.305296 
L 301.322843 148.744 
L 297.663849 147.646302 
L 294.187803 147.646302 
L 291.077658 148.378105 
L 288.516362 149.841697 
L 285.589164 152.037098 
L 283.942618 154.232493 
L 282.844921 156.610842 
L 281.015421 160.086888 
L 279.551822 163.745882 
L 278.454125 167.221928 
L 276.990526 170.697974 
L 276.075776 173.442218 
L 275.161026 175.820567 
L 274.42923 178.198916 
L 273.51448 180.211363 
L 271.867933 185.151008 
L 270.587282 187.52935 
L 268.940736 189.724752 
L 268.940736 187.895252 
L 270.404335 185.699857 
L 271.319085 182.589712 
L 273.697427 178.198916 
L 275.161026 174.539922 
L 276.441677 170.149126 
L 278.088223 166.307178 
L 279.368875 162.465237 
L 280.834053 158.61221 
L 281.748803 155.86796 
L 282.114705 154.404368 
L 282.297652 152.208967 
L 282.663553 149.281769 
L 282.297652 143.976229 
L 281.56585 141.414933 
L 280.834053 136.84119 
L 280.651106 132.450393 
L 281.017001 129.889097 
L 281.56585 133.913992 
L 281.748803 136.292335 
L 282.114705 138.670683 
L 283.212402 140.866084 
L 284.676001 142.695578 
L 286.505495 144.342131 
L 289.066791 145.256874 
L 291.993988 146.171624 
L 294.372337 146.171624 
L 296.567732 144.890979 
L 302.239179 140.317229 
L 304.434574 137.938887 
L 305.715219 135.377591 
L 306.447022 131.169742 
L 307.361772 127.693696 
L 306.264074 124.400604 
L 303.153923 117.814412 
L 302.239179 114.521314 
L 301.690324 110.496419 
L 301.324429 106.837425 
L 301.690324 102.446629 
L 301.507377 98.787635 
L 300.681727 94.38576 
L 300.681727 85.970069 
L 300.315832 82.311075 
L 299.218129 77.737331 
L 298.66928 73.895384 
L 297.937484 65.113798 
L 297.937484 60.905949 
L 294.827339 52.307311 
L 292.997839 47.916521 
L 290.436542 44.80637 
L 286.2287 42.793922 
L 282.020851 41.696225 
L 277.447108 42.062126 
L 273.971062 43.342777 
L 271.958614 46.452922 
L 271.226818 49.197166 
L 270.12912 51.758462 
L 268.848469 55.783357 
L 267.38487 58.893502 
L 266.104225 65.479699 
L 263.72271 72.442865 
L 262.259112 78.480207 
L 261.161414 81.773306 
L 260.246664 85.066404 
L 259.331914 89.091299 
L 258.234217 93.116194 
L 256.953565 96.958135 
L 256.038822 100.800083 
L 255.67292 104.459076 
L 254.575223 108.666925 
L 254.392269 111.960018 
L 253.477525 114.521314 
L 252.379822 116.350814 
L 250.916223 115.984912 
L 251.099177 112.142965 
L 252.379822 106.288576 
L 254.575509 100.0681 
L 255.400872 96.581155 
L 256.49857 93.836911 
L 257.41332 90.726766 
L 257.596267 87.433667 
L 259.608715 83.408773 
L 260.340511 78.652081 
L 260.88936 76.45668 
L 261.987064 74.261285 
L 263.084761 70.968187 
L 264.731307 67.309193 
L 265.646057 63.833147 
L 266.194906 60.3571 
L 267.475557 57.246956 
L 269.122103 52.490264 
L 269.8539 49.014218 
L 270.76865 45.904073 
L 270.76865 42.245073 
L 270.219801 38.403132 
L 268.573255 35.841836 
L 265.829005 34.012336 
L 262.170011 32.36579 
L 258.145116 32.36579 
L 253.75432 33.463487 
L 250.095326 35.292987 
L 248.265826 37.854283 
L 247.716978 40.41558 
L 247.701152 42.343673 
L 246.054606 44.539068 
L 243.859204 45.453818 
L 240.932007 46.368568 
L 237.638915 48.929864 
L 227.210776 57.528503 
L 223.73473 61.187496 
L 222.637032 64.846496 
L 221.905236 68.50549 
L 221.173434 74.176931 
L 219.892789 75.274629 
L 217.51444 76.921181 
L 216.416742 80.397227 
L 214.953144 83.69032 
L 212.208894 91.191261 
L 210.3794 92.837807 
L 208.001051 91.191261 
L 207.086301 88.264063 
L 208.001051 86.617517 
L 208.732848 83.141471 
L 208.915801 80.031326 
L 210.013499 77.287082 
L 211.294144 72.896286 
L 211.477098 68.139589 
L 210.745295 65.212391 
L 208.915801 60.638648 
L 206.7204 55.516055 
L 203.427308 51.125259 
L 199.768314 48.198068 
L 195.743419 46.18562 
L 191.53557 45.636772 
L 185.681176 45.453818 
L 180.558583 45.453818 
L 175.801892 46.368568 
L 171.045195 48.563963 
L 167.386201 51.308213 
L 162.995405 54.784259 
L 160.068214 58.260305 
L 157.872812 62.468148 
L 156.958062 66.67599 
L 157.323964 71.066786 
L 158.238714 75.64053 
L 158.604615 80.214274 
L 159.153464 84.422122 
L 159.336411 88.447017 
L 159.153464 93.56961 
L 159.153464 99.058103 
L 159.336411 104.912492 
L 159.88526 111.498689 
L 159.88526 115.34063 
L 160.434109 119.731427 
L 161.531806 123.573374 
L 165.373753 130.52546 
L 167.752102 134.18446 
L 172.962215 140.689464 
L 179.182505 145.08026 
L 182.109702 146.726806 
L 184.670999 147.824503 
L 186.866393 148.922201 
L 189.061795 147.641556 
L 191.440137 145.629108 
L 194.367335 143.982562 
L 197.660433 141.604213 
L 200.038776 140.140615 
L 202.965973 138.677016 
L 205.527269 137.03047 
L 206.624973 135.018022 
L 205.527269 132.090825 
L 207.905618 134.469174 
L 213.211164 138.311115 
L 216.504257 141.238312 
L 217.967855 143.25076 
L 217.967855 146.177957 
L 217.784908 150.934648 
L 216.870158 144.16551 
L 215.589507 141.787161 
L 213.394112 139.957661 
L 209.918066 138.494069 
L 207.539717 137.213417 
L 206.259072 138.311115 
L 203.148927 139.774714 
L 201.136479 140.872411 
L 198.39223 142.701911 
L 194.367335 145.08026 
L 190.525393 147.641556 
L 187.781143 150.3858 
L 187.049347 153.495945 
L 187.232295 156.606096 
L 189.061795 163.009333 
L 189.793591 169.046675 
L 189.793591 174.169274 
L 189.610643 176.913518 
L 189.244742 179.840715 
L 189.061795 182.402011 
L 188.695893 184.414459 
L 188.512946 186.792808 
L 188.878841 188.439354 
L 189.42769 192.464249 
L 187.232295 187.341656 
L 185.768696 184.78036 
L 183.756249 182.584959 
L 181.012005 181.304314 
L 178.450709 178.925965 
L 176.621209 175.266972 
L 179.914301 178.925965 
L 182.109702 179.657762 
L 184.670999 180.389564 
L 186.500498 181.853163 
L 188.147045 183.682663 
L 188.329992 180.389564 
L 188.602046 178.189416 
L 188.967941 172.883876 
L 188.602046 165.565883 
L 188.053191 161.906889 
L 186.589599 157.333145 
L 184.760099 154.040047 
L 182.015849 150.746954 
L 175.978507 145.441408 
L 172.136566 142.331263 
L 169.758217 139.404066 
L 167.379868 136.659822 
L 165.001526 134.647375 
L 161.891374 131.171328 
L 159.878927 129.341829 
L 159.147131 127.146434 
L 155.854032 115.803545 
L 155.488137 111.961604 
L 154.939288 108.485558 
L 154.939288 105.375406 
L 154.659321 100.796916 
L 154.659321 91.649429 
L 154.476374 87.990435 
L 154.476374 84.331435 
L 154.110472 81.404238 
L 152.646874 74.452152 
L 151.366223 71.707902 
L 149.353775 69.146606 
L 146.24363 67.683007 
L 142.950538 66.951211 
L 139.657439 66.585309 
L 136.730242 67.317106 
L 132.8883 68.414809 
L 129.2293 70.244303 
L 125.936208 72.622652 
L 122.643109 74.818047 
L 120.630662 77.013448 
L 118.252319 79.940639 
L 116.056918 83.233738 
L 114.776273 86.160935 
L 113.678569 89.088133 
L 112.397925 91.649429 
L 110.385477 92.564179 
L 107.45828 93.295975 
L 104.348135 93.295975 
L 101.603885 94.759574 
L 99.225542 96.589074 
L 97.030141 99.699219 
L 93.919996 104.638864 
L 93.005246 107.931956 
L 92.27345 111.59095 
L 91.907549 115.24995 
L 91.907549 118.725996 
L 91.444634 121.754953 
L 90.895785 124.499197 
L 89.981035 127.426394 
L 89.61514 130.170644 
L 89.61514 132.731941 
L 89.249239 138.03748 
L 88.334489 139.501079 
L 86.504989 140.598777 
L 83.760745 139.501079 
L 81.56535 138.03748 
L 79.552903 136.390934 
L 76.808653 134.378487 
L 74.064409 134.195539 
L 71.869008 134.927336 
L 66.380515 138.95223 
L 64.368067 141.330579 
L 62.904468 143.343027 
L 61.989725 150.112165 
L 61.440876 151.941665 
L 59.428428 153.771165 
L 57.598928 154.320014 
L 51.561586 153.954113 
L 49.183237 155.600659 
L 46.987842 158.344909 
L 44.792441 161.638001 
L 43.511796 164.748152 
L 42.414099 168.407146 
L 41.86525 171.334344 
L 40.767546 174.993337 
L 40.584599 178.469383 
L 39.852802 181.762476 
L 39.852802 184.872627 
L 40.03575 187.433923 
L 40.401651 190.178167 
L 40.400065 192.383061 
L 38.387617 194.578456 
L 36.924019 197.505654 
L 35.826321 200.798752 
L 35.277473 203.177101 
L 35.277473 207.201996 
L 35.643374 210.495088 
L 37.28992 214.337036 
L 37.472867 216.715384 
L 36.192222 218.178977 
L 34.362723 220.557326 
L 33.630926 223.667471 
L 34.362723 229.704813 
L 35.094525 232.814964 
L 38.570571 242.694248 
L 39.485315 245.804393 
L 40.948914 248.73159 
L 42.961361 252.207636 
L 45.156762 254.951886 
L 47.718059 256.964334 
L 50.462302 258.244979 
L 53.206552 258.976781 
L 56.316697 259.52563 
L 59.243895 258.244979 
L 62.35404 256.049584 
L 63.268789 253.671235 
L 63.817638 250.744038 
L 64.183539 247.085044 
L 64.000586 243.608998 
L 64.000586 240.6818 
L 64.183539 237.754603 
L 64.915336 234.278557 
L 65.464184 230.802517 
L 66.561882 227.32647 
L 67.842533 224.216319 
L 69.306132 221.106174 
L 70.952678 217.996029 
L 72.965126 215.983582 
L 75.160521 214.702937 
L 80.649014 212.873437 
L 82.478514 211.409838 
L 83.759165 210.129187 
L 84.856863 208.299693 
L 86.137508 207.201996 
L 87.601107 207.567891 
L 91.443054 209.763292 
L 92.540751 211.043937 
L 94.00435 213.056384 
L 95.284995 215.068832 
L 97.480396 216.898332 
L 99.675791 217.813082 
L 101.871192 219.093727 
L 103.700686 220.740279 
L 105.713134 222.752727 
L 107.908535 224.216319 
L 111.384575 224.399273 
L 122.916744 223.934772 
L 124.56329 223.020028 
L 126.758691 221.007581 
L 127.490487 219.178081 
L 127.490487 216.433837 
L 124.746244 210.030594 
L 122.733796 203.810297 
L 122.184947 200.700153 
L 122.001994 197.590008 
L 122.733796 195.394613 
L 123.099697 192.101514 
L 123.648546 188.808421 
L 123.648546 186.247119 
L 123.282645 183.685823 
L 122.550842 181.490428 
L 121.453145 179.47798 
L 120.355447 176.733737 
L 119.623651 174.355388 
L 121.453145 166.671499 
L 122.550842 163.744302 
L 122.733796 161.183006 
L 122.916744 155.328611 
L 124.014441 162.463651 
L 124.014441 165.573796 
L 124.929191 167.769197 
L 128.677285 172.349273 
L 131.238588 174.727616 
L 134.165779 177.105964 
L 136.544128 179.850208 
L 138.922476 181.862656 
L 141.117871 183.875103 
L 143.679168 186.436406 
L 145.32572 189.363597 
L 146.240464 192.473748 
L 145.691615 194.486195 
L 141.849674 192.839643 
L 138.556575 190.827195 
L 135.263483 188.082952 
L 132.885134 187.168202 
L 129.957937 187.899998 
L 128.128437 188.997702 
L 127.030739 191.558998 
L 126.298943 196.498643 
L 125.56714 198.328137 
L 125.384193 201.072387 
L 125.56714 203.999584 
L 125.933042 206.56088 
L 126.48189 209.305124 
L 127.39664 212.232321 
L 129.592035 217.171966 
L 131.604483 223.758157 
L 132.70218 226.319454 
L 133.982831 228.148954 
L 136.178226 230.893197 
L 137.641825 232.905645 
L 139.837226 235.283993 
L 145.142766 238.028237 
L 147.521115 239.674783 
L 150.265359 241.321336 
L 153.192556 243.333777 
L 155.753859 246.443928 
L 155.753859 246.443928 
" style="fill:none;stroke:#000000;stroke-linecap:square;stroke-width:1.5;"/>
   </g>
   <g id="line2d_2">
    <path clip-path="url(#p212eb81254)" d="M 70.715547 290.912222 
L 70.61441 294.249868 
L 70.209846 296.980669 
L 70.412128 300.014895 
L 70.209846 302.543414 
L 70.61441 304.768513 
L 71.322393 306.993606 
L 72.434945 309.522125 
L 74.457757 311.848362 
L 76.986276 314.174605 
L 80.728485 316.804262 
L 83.257004 318.017952 
L 87.201495 319.029361 
L 89.730014 318.422516 
L 91.752831 316.60198 
L 93.876786 314.680306 
L 96.506449 313.062052 
L 98.428123 311.544942 
L 99.844095 309.623269 
L 100.75436 307.600451 
L 100.855498 305.173076 
L 100.653216 303.65596 
L 99.338388 302.341132 
L 98.326979 301.127441 
L 96.708731 299.205768 
L 95.191615 297.385232 
L 92.966522 294.45215 
L 91.247124 292.530476 
L 89.730014 291.114504 
L 87.504921 289.597394 
L 85.380959 288.080284 
L 82.650158 286.765456 
L 80.829629 285.652903 
L 78.907949 284.641494 
L 77.188557 284.338074 
L 75.064602 284.540356 
L 73.850911 285.147201 
L 72.738365 286.15861 
L 71.8281 287.473439 
L 71.221255 288.889411 
L 70.715547 290.912222 
" style="fill:none;stroke:#000000;stroke-linecap:square;stroke-width:1.5;"/>
   </g>
  </g>
 </g>
 <defs>
  <clipPath id="p212eb81254">
   <rect height="447.84" width="622.08" x="0" y="0"/>
  </clipPath>
 </defs>
</svg>
